<?xml version="1.0" encoding="utf-8" standalone="no"?>
<!DOCTYPE svg PUBLIC "-//W3C//DTD SVG 1.1//EN"
  "http://www.w3.org/Graphics/SVG/1.1/DTD/svg11.dtd">
<svg xmlns:xlink="http://www.w3.org/1999/xlink" width="864pt" height="648pt" viewBox="0 0 864 648" xmlns="http://www.w3.org/2000/svg" version="1.1">
 <metadata>
  <rdf:RDF xmlns:dc="http://purl.org/dc/elements/1.1/" xmlns:cc="http://creativecommons.org/ns#" xmlns:rdf="http://www.w3.org/1999/02/22-rdf-syntax-ns#">
   <cc:Work>
    <dc:type rdf:resource="http://purl.org/dc/dcmitype/StillImage"/>
    <dc:date>2025-09-02T21:34:54.128556</dc:date>
    <dc:format>image/svg+xml</dc:format>
    <dc:creator>
     <cc:Agent>
      <dc:title>Matplotlib v3.10.5, https://matplotlib.org/</dc:title>
     </cc:Agent>
    </dc:creator>
   </cc:Work>
  </rdf:RDF>
 </metadata>
 <defs>
  <style type="text/css">*{stroke-linejoin: round; stroke-linecap: butt}</style>
 </defs>
 <g id="figure_1">
  <g id="patch_1">
   <path d="M 0 648 
L 864 648 
L 864 0 
L 0 0 
z
" style="fill: #ffffff"/>
  </g>
  <g id="axes_1">
   <g id="patch_2">
    <path d="M 50.092685 606.04 
L 853.2 606.04 
L 853.2 26.88 
L 50.092685 26.88 
z
" style="fill: #ffffff"/>
   </g>
   <g id="matplotlib.axis_1">
    <g id="xtick_1">
     <g id="line2d_1">
      <defs>
       <path id="mc74f61fcfc" d="M 0 0 
L 0 3.5 
" style="stroke: #000000; stroke-width: 0.8"/>
      </defs>
      <g>
       <use xlink:href="#mc74f61fcfc" x="167.719514" y="606.04" style="stroke: #000000; stroke-width: 0.8"/>
      </g>
     </g>
     <g id="text_1">
      <!-- 1 -->
      <g transform="translate(164.538264 620.638438) scale(0.1 -0.1)">
       <defs>
        <path id="DejaVuSans-31" d="M 794 531 
L 1825 531 
L 1825 4091 
L 703 3866 
L 703 4441 
L 1819 4666 
L 2450 4666 
L 2450 531 
L 3481 531 
L 3481 0 
L 794 0 
L 794 531 
z
" transform="scale(0.015625)"/>
       </defs>
       <use xlink:href="#DejaVuSans-31"/>
      </g>
     </g>
    </g>
    <g id="xtick_2">
     <g id="line2d_2">
      <g>
       <use xlink:href="#mc74f61fcfc" x="329.963416" y="606.04" style="stroke: #000000; stroke-width: 0.8"/>
      </g>
     </g>
     <g id="text_2">
      <!-- 2 -->
      <g transform="translate(326.782166 620.638438) scale(0.1 -0.1)">
       <defs>
        <path id="DejaVuSans-32" d="M 1228 531 
L 3431 531 
L 3431 0 
L 469 0 
L 469 531 
Q 828 903 1448 1529 
Q 2069 2156 2228 2338 
Q 2531 2678 2651 2914 
Q 2772 3150 2772 3378 
Q 2772 3750 2511 3984 
Q 2250 4219 1831 4219 
Q 1534 4219 1204 4116 
Q 875 4013 500 3803 
L 500 4441 
Q 881 4594 1212 4672 
Q 1544 4750 1819 4750 
Q 2544 4750 2975 4387 
Q 3406 4025 3406 3419 
Q 3406 3131 3298 2873 
Q 3191 2616 2906 2266 
Q 2828 2175 2409 1742 
Q 1991 1309 1228 531 
z
" transform="scale(0.015625)"/>
       </defs>
       <use xlink:href="#DejaVuSans-32"/>
      </g>
     </g>
    </g>
    <g id="xtick_3">
     <g id="line2d_3">
      <g>
       <use xlink:href="#mc74f61fcfc" x="492.207318" y="606.04" style="stroke: #000000; stroke-width: 0.8"/>
      </g>
     </g>
     <g id="text_3">
      <!-- 3 -->
      <g transform="translate(489.026068 620.638438) scale(0.1 -0.1)">
       <defs>
        <path id="DejaVuSans-33" d="M 2597 2516 
Q 3050 2419 3304 2112 
Q 3559 1806 3559 1356 
Q 3559 666 3084 287 
Q 2609 -91 1734 -91 
Q 1441 -91 1130 -33 
Q 819 25 488 141 
L 488 750 
Q 750 597 1062 519 
Q 1375 441 1716 441 
Q 2309 441 2620 675 
Q 2931 909 2931 1356 
Q 2931 1769 2642 2001 
Q 2353 2234 1838 2234 
L 1294 2234 
L 1294 2753 
L 1863 2753 
Q 2328 2753 2575 2939 
Q 2822 3125 2822 3475 
Q 2822 3834 2567 4026 
Q 2313 4219 1838 4219 
Q 1578 4219 1281 4162 
Q 984 4106 628 3988 
L 628 4550 
Q 988 4650 1302 4700 
Q 1616 4750 1894 4750 
Q 2613 4750 3031 4423 
Q 3450 4097 3450 3541 
Q 3450 3153 3228 2886 
Q 3006 2619 2597 2516 
z
" transform="scale(0.015625)"/>
       </defs>
       <use xlink:href="#DejaVuSans-33"/>
      </g>
     </g>
    </g>
    <g id="xtick_4">
     <g id="line2d_4">
      <g>
       <use xlink:href="#mc74f61fcfc" x="654.45122" y="606.04" style="stroke: #000000; stroke-width: 0.8"/>
      </g>
     </g>
     <g id="text_4">
      <!-- 4 -->
      <g transform="translate(651.26997 620.638438) scale(0.1 -0.1)">
       <defs>
        <path id="DejaVuSans-34" d="M 2419 4116 
L 825 1625 
L 2419 1625 
L 2419 4116 
z
M 2253 4666 
L 3047 4666 
L 3047 1625 
L 3713 1625 
L 3713 1100 
L 3047 1100 
L 3047 0 
L 2419 0 
L 2419 1100 
L 313 1100 
L 313 1709 
L 2253 4666 
z
" transform="scale(0.015625)"/>
       </defs>
       <use xlink:href="#DejaVuSans-34"/>
      </g>
     </g>
    </g>
    <g id="xtick_5">
     <g id="line2d_5">
      <g>
       <use xlink:href="#mc74f61fcfc" x="816.695122" y="606.04" style="stroke: #000000; stroke-width: 0.8"/>
      </g>
     </g>
     <g id="text_5">
      <!-- 5 -->
      <g transform="translate(813.513872 620.638438) scale(0.1 -0.1)">
       <defs>
        <path id="DejaVuSans-35" d="M 691 4666 
L 3169 4666 
L 3169 4134 
L 1269 4134 
L 1269 2991 
Q 1406 3038 1543 3061 
Q 1681 3084 1819 3084 
Q 2600 3084 3056 2656 
Q 3513 2228 3513 1497 
Q 3513 744 3044 326 
Q 2575 -91 1722 -91 
Q 1428 -91 1123 -41 
Q 819 9 494 109 
L 494 744 
Q 775 591 1075 516 
Q 1375 441 1709 441 
Q 2250 441 2565 725 
Q 2881 1009 2881 1497 
Q 2881 1984 2565 2268 
Q 2250 2553 1709 2553 
Q 1456 2553 1204 2497 
Q 953 2441 691 2322 
L 691 4666 
z
" transform="scale(0.015625)"/>
       </defs>
       <use xlink:href="#DejaVuSans-35"/>
      </g>
     </g>
    </g>
    <g id="text_6">
     <!-- Size (#edges) -->
     <g transform="translate(416.595561 634.316563) scale(0.1 -0.1)">
      <defs>
       <path id="DejaVuSans-53" d="M 3425 4513 
L 3425 3897 
Q 3066 4069 2747 4153 
Q 2428 4238 2131 4238 
Q 1616 4238 1336 4038 
Q 1056 3838 1056 3469 
Q 1056 3159 1242 3001 
Q 1428 2844 1947 2747 
L 2328 2669 
Q 3034 2534 3370 2195 
Q 3706 1856 3706 1288 
Q 3706 609 3251 259 
Q 2797 -91 1919 -91 
Q 1588 -91 1214 -16 
Q 841 59 441 206 
L 441 856 
Q 825 641 1194 531 
Q 1563 422 1919 422 
Q 2459 422 2753 634 
Q 3047 847 3047 1241 
Q 3047 1584 2836 1778 
Q 2625 1972 2144 2069 
L 1759 2144 
Q 1053 2284 737 2584 
Q 422 2884 422 3419 
Q 422 4038 858 4394 
Q 1294 4750 2059 4750 
Q 2388 4750 2728 4690 
Q 3069 4631 3425 4513 
z
" transform="scale(0.015625)"/>
       <path id="DejaVuSans-69" d="M 603 3500 
L 1178 3500 
L 1178 0 
L 603 0 
L 603 3500 
z
M 603 4863 
L 1178 4863 
L 1178 4134 
L 603 4134 
L 603 4863 
z
" transform="scale(0.015625)"/>
       <path id="DejaVuSans-7a" d="M 353 3500 
L 3084 3500 
L 3084 2975 
L 922 459 
L 3084 459 
L 3084 0 
L 275 0 
L 275 525 
L 2438 3041 
L 353 3041 
L 353 3500 
z
" transform="scale(0.015625)"/>
       <path id="DejaVuSans-65" d="M 3597 1894 
L 3597 1613 
L 953 1613 
Q 991 1019 1311 708 
Q 1631 397 2203 397 
Q 2534 397 2845 478 
Q 3156 559 3463 722 
L 3463 178 
Q 3153 47 2828 -22 
Q 2503 -91 2169 -91 
Q 1331 -91 842 396 
Q 353 884 353 1716 
Q 353 2575 817 3079 
Q 1281 3584 2069 3584 
Q 2775 3584 3186 3129 
Q 3597 2675 3597 1894 
z
M 3022 2063 
Q 3016 2534 2758 2815 
Q 2500 3097 2075 3097 
Q 1594 3097 1305 2825 
Q 1016 2553 972 2059 
L 3022 2063 
z
" transform="scale(0.015625)"/>
       <path id="DejaVuSans-20" transform="scale(0.015625)"/>
       <path id="DejaVuSans-28" d="M 1984 4856 
Q 1566 4138 1362 3434 
Q 1159 2731 1159 2009 
Q 1159 1288 1364 580 
Q 1569 -128 1984 -844 
L 1484 -844 
Q 1016 -109 783 600 
Q 550 1309 550 2009 
Q 550 2706 781 3412 
Q 1013 4119 1484 4856 
L 1984 4856 
z
" transform="scale(0.015625)"/>
       <path id="DejaVuSans-23" d="M 3272 2816 
L 2363 2816 
L 2100 1772 
L 3016 1772 
L 3272 2816 
z
M 2803 4594 
L 2478 3297 
L 3391 3297 
L 3719 4594 
L 4219 4594 
L 3897 3297 
L 4872 3297 
L 4872 2816 
L 3775 2816 
L 3519 1772 
L 4513 1772 
L 4513 1294 
L 3397 1294 
L 3072 0 
L 2572 0 
L 2894 1294 
L 1978 1294 
L 1656 0 
L 1153 0 
L 1478 1294 
L 494 1294 
L 494 1772 
L 1594 1772 
L 1856 2816 
L 850 2816 
L 850 3297 
L 1978 3297 
L 2297 4594 
L 2803 4594 
z
" transform="scale(0.015625)"/>
       <path id="DejaVuSans-64" d="M 2906 2969 
L 2906 4863 
L 3481 4863 
L 3481 0 
L 2906 0 
L 2906 525 
Q 2725 213 2448 61 
Q 2172 -91 1784 -91 
Q 1150 -91 751 415 
Q 353 922 353 1747 
Q 353 2572 751 3078 
Q 1150 3584 1784 3584 
Q 2172 3584 2448 3432 
Q 2725 3281 2906 2969 
z
M 947 1747 
Q 947 1113 1208 752 
Q 1469 391 1925 391 
Q 2381 391 2643 752 
Q 2906 1113 2906 1747 
Q 2906 2381 2643 2742 
Q 2381 3103 1925 3103 
Q 1469 3103 1208 2742 
Q 947 2381 947 1747 
z
" transform="scale(0.015625)"/>
       <path id="DejaVuSans-67" d="M 2906 1791 
Q 2906 2416 2648 2759 
Q 2391 3103 1925 3103 
Q 1463 3103 1205 2759 
Q 947 2416 947 1791 
Q 947 1169 1205 825 
Q 1463 481 1925 481 
Q 2391 481 2648 825 
Q 2906 1169 2906 1791 
z
M 3481 434 
Q 3481 -459 3084 -895 
Q 2688 -1331 1869 -1331 
Q 1566 -1331 1297 -1286 
Q 1028 -1241 775 -1147 
L 775 -588 
Q 1028 -725 1275 -790 
Q 1522 -856 1778 -856 
Q 2344 -856 2625 -561 
Q 2906 -266 2906 331 
L 2906 616 
Q 2728 306 2450 153 
Q 2172 0 1784 0 
Q 1141 0 747 490 
Q 353 981 353 1791 
Q 353 2603 747 3093 
Q 1141 3584 1784 3584 
Q 2172 3584 2450 3431 
Q 2728 3278 2906 2969 
L 2906 3500 
L 3481 3500 
L 3481 434 
z
" transform="scale(0.015625)"/>
       <path id="DejaVuSans-73" d="M 2834 3397 
L 2834 2853 
Q 2591 2978 2328 3040 
Q 2066 3103 1784 3103 
Q 1356 3103 1142 2972 
Q 928 2841 928 2578 
Q 928 2378 1081 2264 
Q 1234 2150 1697 2047 
L 1894 2003 
Q 2506 1872 2764 1633 
Q 3022 1394 3022 966 
Q 3022 478 2636 193 
Q 2250 -91 1575 -91 
Q 1294 -91 989 -36 
Q 684 19 347 128 
L 347 722 
Q 666 556 975 473 
Q 1284 391 1588 391 
Q 1994 391 2212 530 
Q 2431 669 2431 922 
Q 2431 1156 2273 1281 
Q 2116 1406 1581 1522 
L 1381 1569 
Q 847 1681 609 1914 
Q 372 2147 372 2553 
Q 372 3047 722 3315 
Q 1072 3584 1716 3584 
Q 2034 3584 2315 3537 
Q 2597 3491 2834 3397 
z
" transform="scale(0.015625)"/>
       <path id="DejaVuSans-29" d="M 513 4856 
L 1013 4856 
Q 1481 4119 1714 3412 
Q 1947 2706 1947 2009 
Q 1947 1309 1714 600 
Q 1481 -109 1013 -844 
L 513 -844 
Q 928 -128 1133 580 
Q 1338 1288 1338 2009 
Q 1338 2731 1133 3434 
Q 928 4138 513 4856 
z
" transform="scale(0.015625)"/>
      </defs>
      <use xlink:href="#DejaVuSans-53"/>
      <use xlink:href="#DejaVuSans-69" transform="translate(63.476562 0)"/>
      <use xlink:href="#DejaVuSans-7a" transform="translate(91.259766 0)"/>
      <use xlink:href="#DejaVuSans-65" transform="translate(143.75 0)"/>
      <use xlink:href="#DejaVuSans-20" transform="translate(205.273438 0)"/>
      <use xlink:href="#DejaVuSans-28" transform="translate(237.060547 0)"/>
      <use xlink:href="#DejaVuSans-23" transform="translate(276.074219 0)"/>
      <use xlink:href="#DejaVuSans-65" transform="translate(359.863281 0)"/>
      <use xlink:href="#DejaVuSans-64" transform="translate(421.386719 0)"/>
      <use xlink:href="#DejaVuSans-67" transform="translate(484.863281 0)"/>
      <use xlink:href="#DejaVuSans-65" transform="translate(548.339844 0)"/>
      <use xlink:href="#DejaVuSans-73" transform="translate(609.863281 0)"/>
      <use xlink:href="#DejaVuSans-29" transform="translate(661.962891 0)"/>
     </g>
    </g>
    <g id="text_7">
     <!-- 1e6 -->
     <g transform="translate(834.321875 633.316563) scale(0.1 -0.1)">
      <defs>
       <path id="DejaVuSans-36" d="M 2113 2584 
Q 1688 2584 1439 2293 
Q 1191 2003 1191 1497 
Q 1191 994 1439 701 
Q 1688 409 2113 409 
Q 2538 409 2786 701 
Q 3034 994 3034 1497 
Q 3034 2003 2786 2293 
Q 2538 2584 2113 2584 
z
M 3366 4563 
L 3366 3988 
Q 3128 4100 2886 4159 
Q 2644 4219 2406 4219 
Q 1781 4219 1451 3797 
Q 1122 3375 1075 2522 
Q 1259 2794 1537 2939 
Q 1816 3084 2150 3084 
Q 2853 3084 3261 2657 
Q 3669 2231 3669 1497 
Q 3669 778 3244 343 
Q 2819 -91 2113 -91 
Q 1303 -91 875 529 
Q 447 1150 447 2328 
Q 447 3434 972 4092 
Q 1497 4750 2381 4750 
Q 2619 4750 2861 4703 
Q 3103 4656 3366 4563 
z
" transform="scale(0.015625)"/>
      </defs>
      <use xlink:href="#DejaVuSans-31"/>
      <use xlink:href="#DejaVuSans-65" transform="translate(63.623047 0)"/>
      <use xlink:href="#DejaVuSans-36" transform="translate(125.146484 0)"/>
     </g>
    </g>
   </g>
   <g id="matplotlib.axis_2">
    <g id="ytick_1">
     <g id="line2d_6">
      <defs>
       <path id="m7eb1c47a8f" d="M 0 0 
L -3.5 0 
" style="stroke: #000000; stroke-width: 0.8"/>
      </defs>
      <g>
       <use xlink:href="#m7eb1c47a8f" x="50.092685" y="356.694804" style="stroke: #000000; stroke-width: 0.8"/>
      </g>
     </g>
     <g id="text_8">
      <!-- $\mathdefault{10^{0}}$ -->
      <g transform="translate(25.492685 360.494023) scale(0.1 -0.1)">
       <defs>
        <path id="DejaVuSans-30" d="M 2034 4250 
Q 1547 4250 1301 3770 
Q 1056 3291 1056 2328 
Q 1056 1369 1301 889 
Q 1547 409 2034 409 
Q 2525 409 2770 889 
Q 3016 1369 3016 2328 
Q 3016 3291 2770 3770 
Q 2525 4250 2034 4250 
z
M 2034 4750 
Q 2819 4750 3233 4129 
Q 3647 3509 3647 2328 
Q 3647 1150 3233 529 
Q 2819 -91 2034 -91 
Q 1250 -91 836 529 
Q 422 1150 422 2328 
Q 422 3509 836 4129 
Q 1250 4750 2034 4750 
z
" transform="scale(0.015625)"/>
       </defs>
       <use xlink:href="#DejaVuSans-31" transform="translate(0 0.765625)"/>
       <use xlink:href="#DejaVuSans-30" transform="translate(63.623047 0.765625)"/>
       <use xlink:href="#DejaVuSans-30" transform="translate(128.203125 39.046875) scale(0.7)"/>
      </g>
     </g>
    </g>
    <g id="ytick_2">
     <g id="line2d_7">
      <g>
       <use xlink:href="#m7eb1c47a8f" x="50.092685" y="28.99479" style="stroke: #000000; stroke-width: 0.8"/>
      </g>
     </g>
     <g id="text_9">
      <!-- $\mathdefault{10^{1}}$ -->
      <g transform="translate(25.492685 32.794009) scale(0.1 -0.1)">
       <use xlink:href="#DejaVuSans-31" transform="translate(0 0.684375)"/>
       <use xlink:href="#DejaVuSans-30" transform="translate(63.623047 0.684375)"/>
       <use xlink:href="#DejaVuSans-31" transform="translate(128.203125 38.965625) scale(0.7)"/>
      </g>
     </g>
    </g>
    <g id="ytick_3">
     <g id="line2d_8">
      <defs>
       <path id="m4ace82f8a3" d="M 0 0 
L -2 0 
" style="stroke: #000000; stroke-width: 0.6"/>
      </defs>
      <g>
       <use xlink:href="#m4ace82f8a3" x="50.092685" y="585.747285" style="stroke: #000000; stroke-width: 0.6"/>
      </g>
     </g>
    </g>
    <g id="ytick_4">
     <g id="line2d_9">
      <g>
       <use xlink:href="#m4ace82f8a3" x="50.092685" y="528.042177" style="stroke: #000000; stroke-width: 0.6"/>
      </g>
     </g>
    </g>
    <g id="ytick_5">
     <g id="line2d_10">
      <g>
       <use xlink:href="#m4ace82f8a3" x="50.092685" y="487.099751" style="stroke: #000000; stroke-width: 0.6"/>
      </g>
     </g>
    </g>
    <g id="ytick_6">
     <g id="line2d_11">
      <g>
       <use xlink:href="#m4ace82f8a3" x="50.092685" y="455.342338" style="stroke: #000000; stroke-width: 0.6"/>
      </g>
     </g>
    </g>
    <g id="ytick_7">
     <g id="line2d_12">
      <g>
       <use xlink:href="#m4ace82f8a3" x="50.092685" y="429.394643" style="stroke: #000000; stroke-width: 0.6"/>
      </g>
     </g>
    </g>
    <g id="ytick_8">
     <g id="line2d_13">
      <g>
       <use xlink:href="#m4ace82f8a3" x="50.092685" y="407.456179" style="stroke: #000000; stroke-width: 0.6"/>
      </g>
     </g>
    </g>
    <g id="ytick_9">
     <g id="line2d_14">
      <g>
       <use xlink:href="#m4ace82f8a3" x="50.092685" y="388.452217" style="stroke: #000000; stroke-width: 0.6"/>
      </g>
     </g>
    </g>
    <g id="ytick_10">
     <g id="line2d_15">
      <g>
       <use xlink:href="#m4ace82f8a3" x="50.092685" y="371.689535" style="stroke: #000000; stroke-width: 0.6"/>
      </g>
     </g>
    </g>
    <g id="ytick_11">
     <g id="line2d_16">
      <g>
       <use xlink:href="#m4ace82f8a3" x="50.092685" y="258.04727" style="stroke: #000000; stroke-width: 0.6"/>
      </g>
     </g>
    </g>
    <g id="ytick_12">
     <g id="line2d_17">
      <g>
       <use xlink:href="#m4ace82f8a3" x="50.092685" y="200.342162" style="stroke: #000000; stroke-width: 0.6"/>
      </g>
     </g>
    </g>
    <g id="ytick_13">
     <g id="line2d_18">
      <g>
       <use xlink:href="#m4ace82f8a3" x="50.092685" y="159.399736" style="stroke: #000000; stroke-width: 0.6"/>
      </g>
     </g>
    </g>
    <g id="ytick_14">
     <g id="line2d_19">
      <g>
       <use xlink:href="#m4ace82f8a3" x="50.092685" y="127.642324" style="stroke: #000000; stroke-width: 0.6"/>
      </g>
     </g>
    </g>
    <g id="ytick_15">
     <g id="line2d_20">
      <g>
       <use xlink:href="#m4ace82f8a3" x="50.092685" y="101.694628" style="stroke: #000000; stroke-width: 0.6"/>
      </g>
     </g>
    </g>
    <g id="ytick_16">
     <g id="line2d_21">
      <g>
       <use xlink:href="#m4ace82f8a3" x="50.092685" y="79.756164" style="stroke: #000000; stroke-width: 0.6"/>
      </g>
     </g>
    </g>
    <g id="ytick_17">
     <g id="line2d_22">
      <g>
       <use xlink:href="#m4ace82f8a3" x="50.092685" y="60.752203" style="stroke: #000000; stroke-width: 0.6"/>
      </g>
     </g>
    </g>
    <g id="ytick_18">
     <g id="line2d_23">
      <g>
       <use xlink:href="#m4ace82f8a3" x="50.092685" y="43.98952" style="stroke: #000000; stroke-width: 0.6"/>
      </g>
     </g>
    </g>
    <g id="text_10">
     <!-- Seconds spent -->
     <g transform="translate(19.412997 353.040469) rotate(-90) scale(0.1 -0.1)">
      <defs>
       <path id="DejaVuSans-63" d="M 3122 3366 
L 3122 2828 
Q 2878 2963 2633 3030 
Q 2388 3097 2138 3097 
Q 1578 3097 1268 2742 
Q 959 2388 959 1747 
Q 959 1106 1268 751 
Q 1578 397 2138 397 
Q 2388 397 2633 464 
Q 2878 531 3122 666 
L 3122 134 
Q 2881 22 2623 -34 
Q 2366 -91 2075 -91 
Q 1284 -91 818 406 
Q 353 903 353 1747 
Q 353 2603 823 3093 
Q 1294 3584 2113 3584 
Q 2378 3584 2631 3529 
Q 2884 3475 3122 3366 
z
" transform="scale(0.015625)"/>
       <path id="DejaVuSans-6f" d="M 1959 3097 
Q 1497 3097 1228 2736 
Q 959 2375 959 1747 
Q 959 1119 1226 758 
Q 1494 397 1959 397 
Q 2419 397 2687 759 
Q 2956 1122 2956 1747 
Q 2956 2369 2687 2733 
Q 2419 3097 1959 3097 
z
M 1959 3584 
Q 2709 3584 3137 3096 
Q 3566 2609 3566 1747 
Q 3566 888 3137 398 
Q 2709 -91 1959 -91 
Q 1206 -91 779 398 
Q 353 888 353 1747 
Q 353 2609 779 3096 
Q 1206 3584 1959 3584 
z
" transform="scale(0.015625)"/>
       <path id="DejaVuSans-6e" d="M 3513 2113 
L 3513 0 
L 2938 0 
L 2938 2094 
Q 2938 2591 2744 2837 
Q 2550 3084 2163 3084 
Q 1697 3084 1428 2787 
Q 1159 2491 1159 1978 
L 1159 0 
L 581 0 
L 581 3500 
L 1159 3500 
L 1159 2956 
Q 1366 3272 1645 3428 
Q 1925 3584 2291 3584 
Q 2894 3584 3203 3211 
Q 3513 2838 3513 2113 
z
" transform="scale(0.015625)"/>
       <path id="DejaVuSans-70" d="M 1159 525 
L 1159 -1331 
L 581 -1331 
L 581 3500 
L 1159 3500 
L 1159 2969 
Q 1341 3281 1617 3432 
Q 1894 3584 2278 3584 
Q 2916 3584 3314 3078 
Q 3713 2572 3713 1747 
Q 3713 922 3314 415 
Q 2916 -91 2278 -91 
Q 1894 -91 1617 61 
Q 1341 213 1159 525 
z
M 3116 1747 
Q 3116 2381 2855 2742 
Q 2594 3103 2138 3103 
Q 1681 3103 1420 2742 
Q 1159 2381 1159 1747 
Q 1159 1113 1420 752 
Q 1681 391 2138 391 
Q 2594 391 2855 752 
Q 3116 1113 3116 1747 
z
" transform="scale(0.015625)"/>
       <path id="DejaVuSans-74" d="M 1172 4494 
L 1172 3500 
L 2356 3500 
L 2356 3053 
L 1172 3053 
L 1172 1153 
Q 1172 725 1289 603 
Q 1406 481 1766 481 
L 2356 481 
L 2356 0 
L 1766 0 
Q 1100 0 847 248 
Q 594 497 594 1153 
L 594 3053 
L 172 3053 
L 172 3500 
L 594 3500 
L 594 4494 
L 1172 4494 
z
" transform="scale(0.015625)"/>
      </defs>
      <use xlink:href="#DejaVuSans-53"/>
      <use xlink:href="#DejaVuSans-65" transform="translate(63.476562 0)"/>
      <use xlink:href="#DejaVuSans-63" transform="translate(125 0)"/>
      <use xlink:href="#DejaVuSans-6f" transform="translate(179.980469 0)"/>
      <use xlink:href="#DejaVuSans-6e" transform="translate(241.162109 0)"/>
      <use xlink:href="#DejaVuSans-64" transform="translate(304.541016 0)"/>
      <use xlink:href="#DejaVuSans-73" transform="translate(368.017578 0)"/>
      <use xlink:href="#DejaVuSans-20" transform="translate(420.117188 0)"/>
      <use xlink:href="#DejaVuSans-73" transform="translate(451.904297 0)"/>
      <use xlink:href="#DejaVuSans-70" transform="translate(504.003906 0)"/>
      <use xlink:href="#DejaVuSans-65" transform="translate(567.480469 0)"/>
      <use xlink:href="#DejaVuSans-6e" transform="translate(629.003906 0)"/>
      <use xlink:href="#DejaVuSans-74" transform="translate(692.382812 0)"/>
     </g>
    </g>
   </g>
   <g id="LineCollection_1">
    <path d="M 86.597563 421.060295 
L 86.597563 420.407456 
" clip-path="url(#pebe5b929e1)" style="fill: none; stroke: #339900; stroke-width: 1.5"/>
    <path d="M 127.158538 375.240994 
L 127.158538 372.188998 
" clip-path="url(#pebe5b929e1)" style="fill: none; stroke: #339900; stroke-width: 1.5"/>
    <path d="M 167.719514 340.534929 
L 167.719514 336.366331 
" clip-path="url(#pebe5b929e1)" style="fill: none; stroke: #339900; stroke-width: 1.5"/>
    <path d="M 208.280489 309.120867 
L 208.280489 308.381518 
" clip-path="url(#pebe5b929e1)" style="fill: none; stroke: #339900; stroke-width: 1.5"/>
    <path d="M 248.841465 289.25524 
L 248.841465 286.865592 
" clip-path="url(#pebe5b929e1)" style="fill: none; stroke: #339900; stroke-width: 1.5"/>
    <path d="M 289.40244 267.140546 
L 289.40244 266.717757 
" clip-path="url(#pebe5b929e1)" style="fill: none; stroke: #339900; stroke-width: 1.5"/>
    <path d="M 329.963416 249.68447 
L 329.963416 239.776943 
" clip-path="url(#pebe5b929e1)" style="fill: none; stroke: #339900; stroke-width: 1.5"/>
    <path d="M 492.207318 188.390987 
L 492.207318 183.680931 
" clip-path="url(#pebe5b929e1)" style="fill: none; stroke: #339900; stroke-width: 1.5"/>
    <path d="M 654.45122 133.479885 
L 654.45122 130.281022 
" clip-path="url(#pebe5b929e1)" style="fill: none; stroke: #339900; stroke-width: 1.5"/>
    <path d="M 816.695122 89.889541 
L 816.695122 89.858609 
" clip-path="url(#pebe5b929e1)" style="fill: none; stroke: #339900; stroke-width: 1.5"/>
   </g>
   <g id="line2d_24">
    <defs>
     <path id="m7dbad405e1" d="M 3 0 
L -3 -0 
" style="stroke: #339900"/>
    </defs>
    <g clip-path="url(#pebe5b929e1)">
     <use xlink:href="#m7dbad405e1" x="86.597563" y="421.060295" style="fill: #339900; stroke: #339900"/>
     <use xlink:href="#m7dbad405e1" x="127.158538" y="375.240994" style="fill: #339900; stroke: #339900"/>
     <use xlink:href="#m7dbad405e1" x="167.719514" y="340.534929" style="fill: #339900; stroke: #339900"/>
     <use xlink:href="#m7dbad405e1" x="208.280489" y="309.120867" style="fill: #339900; stroke: #339900"/>
     <use xlink:href="#m7dbad405e1" x="248.841465" y="289.25524" style="fill: #339900; stroke: #339900"/>
     <use xlink:href="#m7dbad405e1" x="289.40244" y="267.140546" style="fill: #339900; stroke: #339900"/>
     <use xlink:href="#m7dbad405e1" x="329.963416" y="249.68447" style="fill: #339900; stroke: #339900"/>
     <use xlink:href="#m7dbad405e1" x="492.207318" y="188.390987" style="fill: #339900; stroke: #339900"/>
     <use xlink:href="#m7dbad405e1" x="654.45122" y="133.479885" style="fill: #339900; stroke: #339900"/>
     <use xlink:href="#m7dbad405e1" x="816.695122" y="89.889541" style="fill: #339900; stroke: #339900"/>
    </g>
   </g>
   <g id="line2d_25">
    <g clip-path="url(#pebe5b929e1)">
     <use xlink:href="#m7dbad405e1" x="86.597563" y="420.407456" style="fill: #339900; stroke: #339900"/>
     <use xlink:href="#m7dbad405e1" x="127.158538" y="372.188998" style="fill: #339900; stroke: #339900"/>
     <use xlink:href="#m7dbad405e1" x="167.719514" y="336.366331" style="fill: #339900; stroke: #339900"/>
     <use xlink:href="#m7dbad405e1" x="208.280489" y="308.381518" style="fill: #339900; stroke: #339900"/>
     <use xlink:href="#m7dbad405e1" x="248.841465" y="286.865592" style="fill: #339900; stroke: #339900"/>
     <use xlink:href="#m7dbad405e1" x="289.40244" y="266.717757" style="fill: #339900; stroke: #339900"/>
     <use xlink:href="#m7dbad405e1" x="329.963416" y="239.776943" style="fill: #339900; stroke: #339900"/>
     <use xlink:href="#m7dbad405e1" x="492.207318" y="183.680931" style="fill: #339900; stroke: #339900"/>
     <use xlink:href="#m7dbad405e1" x="654.45122" y="130.281022" style="fill: #339900; stroke: #339900"/>
     <use xlink:href="#m7dbad405e1" x="816.695122" y="89.858609" style="fill: #339900; stroke: #339900"/>
    </g>
   </g>
   <g id="LineCollection_2">
    <path d="M 86.597563 288.316899 
L 86.597563 285.640073 
" clip-path="url(#pebe5b929e1)" style="fill: none; stroke: #3399cc; stroke-width: 1.5"/>
    <path d="M 127.158538 239.508515 
L 127.158538 235.19164 
" clip-path="url(#pebe5b929e1)" style="fill: none; stroke: #3399cc; stroke-width: 1.5"/>
    <path d="M 167.719514 208.126643 
L 167.719514 204.559102 
" clip-path="url(#pebe5b929e1)" style="fill: none; stroke: #3399cc; stroke-width: 1.5"/>
    <path d="M 208.280489 182.187625 
L 208.280489 180.526659 
" clip-path="url(#pebe5b929e1)" style="fill: none; stroke: #3399cc; stroke-width: 1.5"/>
    <path d="M 248.841465 165.220424 
L 248.841465 164.157858 
" clip-path="url(#pebe5b929e1)" style="fill: none; stroke: #3399cc; stroke-width: 1.5"/>
    <path d="M 289.40244 151.709775 
L 289.40244 144.695304 
" clip-path="url(#pebe5b929e1)" style="fill: none; stroke: #3399cc; stroke-width: 1.5"/>
    <path d="M 329.963416 132.623614 
L 329.963416 123.81145 
" clip-path="url(#pebe5b929e1)" style="fill: none; stroke: #3399cc; stroke-width: 1.5"/>
    <path d="M 492.207318 102.014944 
L 492.207318 100.247729 
" clip-path="url(#pebe5b929e1)" style="fill: none; stroke: #3399cc; stroke-width: 1.5"/>
    <path d="M 654.45122 77.234254 
L 654.45122 71.719509 
" clip-path="url(#pebe5b929e1)" style="fill: none; stroke: #3399cc; stroke-width: 1.5"/>
    <path d="M 816.695122 53.752823 
L 816.695122 53.205455 
" clip-path="url(#pebe5b929e1)" style="fill: none; stroke: #3399cc; stroke-width: 1.5"/>
   </g>
   <g id="line2d_26">
    <defs>
     <path id="m415de21930" d="M 3 0 
L -3 -0 
" style="stroke: #3399cc"/>
    </defs>
    <g clip-path="url(#pebe5b929e1)">
     <use xlink:href="#m415de21930" x="86.597563" y="288.316899" style="fill: #3399cc; stroke: #3399cc"/>
     <use xlink:href="#m415de21930" x="127.158538" y="239.508515" style="fill: #3399cc; stroke: #3399cc"/>
     <use xlink:href="#m415de21930" x="167.719514" y="208.126643" style="fill: #3399cc; stroke: #3399cc"/>
     <use xlink:href="#m415de21930" x="208.280489" y="182.187625" style="fill: #3399cc; stroke: #3399cc"/>
     <use xlink:href="#m415de21930" x="248.841465" y="165.220424" style="fill: #3399cc; stroke: #3399cc"/>
     <use xlink:href="#m415de21930" x="289.40244" y="151.709775" style="fill: #3399cc; stroke: #3399cc"/>
     <use xlink:href="#m415de21930" x="329.963416" y="132.623614" style="fill: #3399cc; stroke: #3399cc"/>
     <use xlink:href="#m415de21930" x="492.207318" y="102.014944" style="fill: #3399cc; stroke: #3399cc"/>
     <use xlink:href="#m415de21930" x="654.45122" y="77.234254" style="fill: #3399cc; stroke: #3399cc"/>
     <use xlink:href="#m415de21930" x="816.695122" y="53.752823" style="fill: #3399cc; stroke: #3399cc"/>
    </g>
   </g>
   <g id="line2d_27">
    <g clip-path="url(#pebe5b929e1)">
     <use xlink:href="#m415de21930" x="86.597563" y="285.640073" style="fill: #3399cc; stroke: #3399cc"/>
     <use xlink:href="#m415de21930" x="127.158538" y="235.19164" style="fill: #3399cc; stroke: #3399cc"/>
     <use xlink:href="#m415de21930" x="167.719514" y="204.559102" style="fill: #3399cc; stroke: #3399cc"/>
     <use xlink:href="#m415de21930" x="208.280489" y="180.526659" style="fill: #3399cc; stroke: #3399cc"/>
     <use xlink:href="#m415de21930" x="248.841465" y="164.157858" style="fill: #3399cc; stroke: #3399cc"/>
     <use xlink:href="#m415de21930" x="289.40244" y="144.695304" style="fill: #3399cc; stroke: #3399cc"/>
     <use xlink:href="#m415de21930" x="329.963416" y="123.81145" style="fill: #3399cc; stroke: #3399cc"/>
     <use xlink:href="#m415de21930" x="492.207318" y="100.247729" style="fill: #3399cc; stroke: #3399cc"/>
     <use xlink:href="#m415de21930" x="654.45122" y="71.719509" style="fill: #3399cc; stroke: #3399cc"/>
     <use xlink:href="#m415de21930" x="816.695122" y="53.205455" style="fill: #3399cc; stroke: #3399cc"/>
    </g>
   </g>
   <g id="LineCollection_3">
    <path d="M 86.597563 398.129934 
L 86.597563 397.709926 
" clip-path="url(#pebe5b929e1)" style="fill: none; stroke: #669999; stroke-width: 1.5"/>
    <path d="M 127.158538 352.516097 
L 127.158538 351.637099 
" clip-path="url(#pebe5b929e1)" style="fill: none; stroke: #669999; stroke-width: 1.5"/>
    <path d="M 167.719514 327.844443 
L 167.719514 326.561884 
" clip-path="url(#pebe5b929e1)" style="fill: none; stroke: #669999; stroke-width: 1.5"/>
    <path d="M 208.280489 308.257923 
L 208.280489 304.961986 
" clip-path="url(#pebe5b929e1)" style="fill: none; stroke: #669999; stroke-width: 1.5"/>
    <path d="M 248.841465 303.256244 
L 248.841465 301.13053 
" clip-path="url(#pebe5b929e1)" style="fill: none; stroke: #669999; stroke-width: 1.5"/>
    <path d="M 289.40244 292.518611 
L 289.40244 289.910661 
" clip-path="url(#pebe5b929e1)" style="fill: none; stroke: #669999; stroke-width: 1.5"/>
    <path d="M 329.963416 278.122315 
L 329.963416 278.102569 
" clip-path="url(#pebe5b929e1)" style="fill: none; stroke: #669999; stroke-width: 1.5"/>
    <path d="M 492.207318 229.208298 
L 492.207318 224.970384 
" clip-path="url(#pebe5b929e1)" style="fill: none; stroke: #669999; stroke-width: 1.5"/>
    <path d="M 654.45122 185.148752 
L 654.45122 180.351603 
" clip-path="url(#pebe5b929e1)" style="fill: none; stroke: #669999; stroke-width: 1.5"/>
    <path d="M 816.695122 149.935364 
L 816.695122 145.430387 
" clip-path="url(#pebe5b929e1)" style="fill: none; stroke: #669999; stroke-width: 1.5"/>
   </g>
   <g id="line2d_28">
    <defs>
     <path id="m22ae5b1ed0" d="M 3 0 
L -3 -0 
" style="stroke: #669999"/>
    </defs>
    <g clip-path="url(#pebe5b929e1)">
     <use xlink:href="#m22ae5b1ed0" x="86.597563" y="398.129934" style="fill: #669999; stroke: #669999"/>
     <use xlink:href="#m22ae5b1ed0" x="127.158538" y="352.516097" style="fill: #669999; stroke: #669999"/>
     <use xlink:href="#m22ae5b1ed0" x="167.719514" y="327.844443" style="fill: #669999; stroke: #669999"/>
     <use xlink:href="#m22ae5b1ed0" x="208.280489" y="308.257923" style="fill: #669999; stroke: #669999"/>
     <use xlink:href="#m22ae5b1ed0" x="248.841465" y="303.256244" style="fill: #669999; stroke: #669999"/>
     <use xlink:href="#m22ae5b1ed0" x="289.40244" y="292.518611" style="fill: #669999; stroke: #669999"/>
     <use xlink:href="#m22ae5b1ed0" x="329.963416" y="278.122315" style="fill: #669999; stroke: #669999"/>
     <use xlink:href="#m22ae5b1ed0" x="492.207318" y="229.208298" style="fill: #669999; stroke: #669999"/>
     <use xlink:href="#m22ae5b1ed0" x="654.45122" y="185.148752" style="fill: #669999; stroke: #669999"/>
     <use xlink:href="#m22ae5b1ed0" x="816.695122" y="149.935364" style="fill: #669999; stroke: #669999"/>
    </g>
   </g>
   <g id="line2d_29">
    <g clip-path="url(#pebe5b929e1)">
     <use xlink:href="#m22ae5b1ed0" x="86.597563" y="397.709926" style="fill: #669999; stroke: #669999"/>
     <use xlink:href="#m22ae5b1ed0" x="127.158538" y="351.637099" style="fill: #669999; stroke: #669999"/>
     <use xlink:href="#m22ae5b1ed0" x="167.719514" y="326.561884" style="fill: #669999; stroke: #669999"/>
     <use xlink:href="#m22ae5b1ed0" x="208.280489" y="304.961986" style="fill: #669999; stroke: #669999"/>
     <use xlink:href="#m22ae5b1ed0" x="248.841465" y="301.13053" style="fill: #669999; stroke: #669999"/>
     <use xlink:href="#m22ae5b1ed0" x="289.40244" y="289.910661" style="fill: #669999; stroke: #669999"/>
     <use xlink:href="#m22ae5b1ed0" x="329.963416" y="278.102569" style="fill: #669999; stroke: #669999"/>
     <use xlink:href="#m22ae5b1ed0" x="492.207318" y="224.970384" style="fill: #669999; stroke: #669999"/>
     <use xlink:href="#m22ae5b1ed0" x="654.45122" y="180.351603" style="fill: #669999; stroke: #669999"/>
     <use xlink:href="#m22ae5b1ed0" x="816.695122" y="145.430387" style="fill: #669999; stroke: #669999"/>
    </g>
   </g>
   <g id="LineCollection_4">
    <path d="M 86.597563 428.170294 
L 86.597563 424.705098 
" clip-path="url(#pebe5b929e1)" style="fill: none; stroke: #669966; stroke-width: 1.5"/>
    <path d="M 127.158538 383.542686 
L 127.158538 379.031795 
" clip-path="url(#pebe5b929e1)" style="fill: none; stroke: #669966; stroke-width: 1.5"/>
    <path d="M 167.719514 353.551938 
L 167.719514 352.397847 
" clip-path="url(#pebe5b929e1)" style="fill: none; stroke: #669966; stroke-width: 1.5"/>
    <path d="M 208.280489 333.250314 
L 208.280489 332.823184 
" clip-path="url(#pebe5b929e1)" style="fill: none; stroke: #669966; stroke-width: 1.5"/>
    <path d="M 248.841465 321.050448 
L 248.841465 317.465918 
" clip-path="url(#pebe5b929e1)" style="fill: none; stroke: #669966; stroke-width: 1.5"/>
    <path d="M 289.40244 306.143433 
L 289.40244 305.281244 
" clip-path="url(#pebe5b929e1)" style="fill: none; stroke: #669966; stroke-width: 1.5"/>
    <path d="M 329.963416 290.315989 
L 329.963416 288.663696 
" clip-path="url(#pebe5b929e1)" style="fill: none; stroke: #669966; stroke-width: 1.5"/>
    <path d="M 492.207318 234.035702 
L 492.207318 232.477992 
" clip-path="url(#pebe5b929e1)" style="fill: none; stroke: #669966; stroke-width: 1.5"/>
    <path d="M 654.45122 189.754466 
L 654.45122 189.436864 
" clip-path="url(#pebe5b929e1)" style="fill: none; stroke: #669966; stroke-width: 1.5"/>
    <path d="M 816.695122 154.494468 
L 816.695122 153.863898 
" clip-path="url(#pebe5b929e1)" style="fill: none; stroke: #669966; stroke-width: 1.5"/>
   </g>
   <g id="line2d_30">
    <defs>
     <path id="mad229174f9" d="M 3 0 
L -3 -0 
" style="stroke: #669966"/>
    </defs>
    <g clip-path="url(#pebe5b929e1)">
     <use xlink:href="#mad229174f9" x="86.597563" y="428.170294" style="fill: #669966; stroke: #669966"/>
     <use xlink:href="#mad229174f9" x="127.158538" y="383.542686" style="fill: #669966; stroke: #669966"/>
     <use xlink:href="#mad229174f9" x="167.719514" y="353.551938" style="fill: #669966; stroke: #669966"/>
     <use xlink:href="#mad229174f9" x="208.280489" y="333.250314" style="fill: #669966; stroke: #669966"/>
     <use xlink:href="#mad229174f9" x="248.841465" y="321.050448" style="fill: #669966; stroke: #669966"/>
     <use xlink:href="#mad229174f9" x="289.40244" y="306.143433" style="fill: #669966; stroke: #669966"/>
     <use xlink:href="#mad229174f9" x="329.963416" y="290.315989" style="fill: #669966; stroke: #669966"/>
     <use xlink:href="#mad229174f9" x="492.207318" y="234.035702" style="fill: #669966; stroke: #669966"/>
     <use xlink:href="#mad229174f9" x="654.45122" y="189.754466" style="fill: #669966; stroke: #669966"/>
     <use xlink:href="#mad229174f9" x="816.695122" y="154.494468" style="fill: #669966; stroke: #669966"/>
    </g>
   </g>
   <g id="line2d_31">
    <g clip-path="url(#pebe5b929e1)">
     <use xlink:href="#mad229174f9" x="86.597563" y="424.705098" style="fill: #669966; stroke: #669966"/>
     <use xlink:href="#mad229174f9" x="127.158538" y="379.031795" style="fill: #669966; stroke: #669966"/>
     <use xlink:href="#mad229174f9" x="167.719514" y="352.397847" style="fill: #669966; stroke: #669966"/>
     <use xlink:href="#mad229174f9" x="208.280489" y="332.823184" style="fill: #669966; stroke: #669966"/>
     <use xlink:href="#mad229174f9" x="248.841465" y="317.465918" style="fill: #669966; stroke: #669966"/>
     <use xlink:href="#mad229174f9" x="289.40244" y="305.281244" style="fill: #669966; stroke: #669966"/>
     <use xlink:href="#mad229174f9" x="329.963416" y="288.663696" style="fill: #669966; stroke: #669966"/>
     <use xlink:href="#mad229174f9" x="492.207318" y="232.477992" style="fill: #669966; stroke: #669966"/>
     <use xlink:href="#mad229174f9" x="654.45122" y="189.436864" style="fill: #669966; stroke: #669966"/>
     <use xlink:href="#mad229174f9" x="816.695122" y="153.863898" style="fill: #669966; stroke: #669966"/>
    </g>
   </g>
   <g id="LineCollection_5">
    <path d="M 86.597563 435.198677 
L 86.597563 432.161466 
" clip-path="url(#pebe5b929e1)" style="fill: none; stroke: #669933; stroke-width: 1.5"/>
    <path d="M 127.158538 382.870049 
L 127.158538 380.110487 
" clip-path="url(#pebe5b929e1)" style="fill: none; stroke: #669933; stroke-width: 1.5"/>
    <path d="M 167.719514 355.952419 
L 167.719514 353.702922 
" clip-path="url(#pebe5b929e1)" style="fill: none; stroke: #669933; stroke-width: 1.5"/>
    <path d="M 208.280489 343.14103 
L 208.280489 340.39157 
" clip-path="url(#pebe5b929e1)" style="fill: none; stroke: #669933; stroke-width: 1.5"/>
    <path d="M 248.841465 333.910398 
L 248.841465 333.835477 
" clip-path="url(#pebe5b929e1)" style="fill: none; stroke: #669933; stroke-width: 1.5"/>
    <path d="M 289.40244 318.747743 
L 289.40244 318.500617 
" clip-path="url(#pebe5b929e1)" style="fill: none; stroke: #669933; stroke-width: 1.5"/>
    <path d="M 329.963416 302.337572 
L 329.963416 302.328733 
" clip-path="url(#pebe5b929e1)" style="fill: none; stroke: #669933; stroke-width: 1.5"/>
    <path d="M 492.207318 243.767726 
L 492.207318 243.641046 
" clip-path="url(#pebe5b929e1)" style="fill: none; stroke: #669933; stroke-width: 1.5"/>
    <path d="M 654.45122 203.332634 
L 654.45122 199.394684 
" clip-path="url(#pebe5b929e1)" style="fill: none; stroke: #669933; stroke-width: 1.5"/>
    <path d="M 816.695122 164.141745 
L 816.695122 160.155743 
" clip-path="url(#pebe5b929e1)" style="fill: none; stroke: #669933; stroke-width: 1.5"/>
   </g>
   <g id="line2d_32">
    <defs>
     <path id="mfa00d58cba" d="M 3 0 
L -3 -0 
" style="stroke: #669933"/>
    </defs>
    <g clip-path="url(#pebe5b929e1)">
     <use xlink:href="#mfa00d58cba" x="86.597563" y="435.198677" style="fill: #669933; stroke: #669933"/>
     <use xlink:href="#mfa00d58cba" x="127.158538" y="382.870049" style="fill: #669933; stroke: #669933"/>
     <use xlink:href="#mfa00d58cba" x="167.719514" y="355.952419" style="fill: #669933; stroke: #669933"/>
     <use xlink:href="#mfa00d58cba" x="208.280489" y="343.14103" style="fill: #669933; stroke: #669933"/>
     <use xlink:href="#mfa00d58cba" x="248.841465" y="333.910398" style="fill: #669933; stroke: #669933"/>
     <use xlink:href="#mfa00d58cba" x="289.40244" y="318.747743" style="fill: #669933; stroke: #669933"/>
     <use xlink:href="#mfa00d58cba" x="329.963416" y="302.337572" style="fill: #669933; stroke: #669933"/>
     <use xlink:href="#mfa00d58cba" x="492.207318" y="243.767726" style="fill: #669933; stroke: #669933"/>
     <use xlink:href="#mfa00d58cba" x="654.45122" y="203.332634" style="fill: #669933; stroke: #669933"/>
     <use xlink:href="#mfa00d58cba" x="816.695122" y="164.141745" style="fill: #669933; stroke: #669933"/>
    </g>
   </g>
   <g id="line2d_33">
    <g clip-path="url(#pebe5b929e1)">
     <use xlink:href="#mfa00d58cba" x="86.597563" y="432.161466" style="fill: #669933; stroke: #669933"/>
     <use xlink:href="#mfa00d58cba" x="127.158538" y="380.110487" style="fill: #669933; stroke: #669933"/>
     <use xlink:href="#mfa00d58cba" x="167.719514" y="353.702922" style="fill: #669933; stroke: #669933"/>
     <use xlink:href="#mfa00d58cba" x="208.280489" y="340.39157" style="fill: #669933; stroke: #669933"/>
     <use xlink:href="#mfa00d58cba" x="248.841465" y="333.835477" style="fill: #669933; stroke: #669933"/>
     <use xlink:href="#mfa00d58cba" x="289.40244" y="318.500617" style="fill: #669933; stroke: #669933"/>
     <use xlink:href="#mfa00d58cba" x="329.963416" y="302.328733" style="fill: #669933; stroke: #669933"/>
     <use xlink:href="#mfa00d58cba" x="492.207318" y="243.641046" style="fill: #669933; stroke: #669933"/>
     <use xlink:href="#mfa00d58cba" x="654.45122" y="199.394684" style="fill: #669933; stroke: #669933"/>
     <use xlink:href="#mfa00d58cba" x="816.695122" y="160.155743" style="fill: #669933; stroke: #669933"/>
    </g>
   </g>
   <g id="LineCollection_6">
    <path d="M 86.597563 430.364996 
L 86.597563 428.814457 
" clip-path="url(#pebe5b929e1)" style="fill: none; stroke: #669900; stroke-width: 1.5"/>
    <path d="M 127.158538 376.873703 
L 127.158538 375.057423 
" clip-path="url(#pebe5b929e1)" style="fill: none; stroke: #669900; stroke-width: 1.5"/>
    <path d="M 167.719514 351.438768 
L 167.719514 350.099431 
" clip-path="url(#pebe5b929e1)" style="fill: none; stroke: #669900; stroke-width: 1.5"/>
    <path d="M 208.280489 330.561978 
L 208.280489 329.930179 
" clip-path="url(#pebe5b929e1)" style="fill: none; stroke: #669900; stroke-width: 1.5"/>
    <path d="M 248.841465 323.068608 
L 248.841465 321.694914 
" clip-path="url(#pebe5b929e1)" style="fill: none; stroke: #669900; stroke-width: 1.5"/>
    <path d="M 289.40244 318.203848 
L 289.40244 316.392791 
" clip-path="url(#pebe5b929e1)" style="fill: none; stroke: #669900; stroke-width: 1.5"/>
    <path d="M 329.963416 306.87954 
L 329.963416 303.821771 
" clip-path="url(#pebe5b929e1)" style="fill: none; stroke: #669900; stroke-width: 1.5"/>
    <path d="M 492.207318 257.690499 
L 492.207318 257.121024 
" clip-path="url(#pebe5b929e1)" style="fill: none; stroke: #669900; stroke-width: 1.5"/>
    <path d="M 654.45122 207.021188 
L 654.45122 203.306233 
" clip-path="url(#pebe5b929e1)" style="fill: none; stroke: #669900; stroke-width: 1.5"/>
    <path d="M 816.695122 171.65396 
L 816.695122 170.461977 
" clip-path="url(#pebe5b929e1)" style="fill: none; stroke: #669900; stroke-width: 1.5"/>
   </g>
   <g id="line2d_34">
    <defs>
     <path id="mfe384b574b" d="M 3 0 
L -3 -0 
" style="stroke: #669900"/>
    </defs>
    <g clip-path="url(#pebe5b929e1)">
     <use xlink:href="#mfe384b574b" x="86.597563" y="430.364996" style="fill: #669900; stroke: #669900"/>
     <use xlink:href="#mfe384b574b" x="127.158538" y="376.873703" style="fill: #669900; stroke: #669900"/>
     <use xlink:href="#mfe384b574b" x="167.719514" y="351.438768" style="fill: #669900; stroke: #669900"/>
     <use xlink:href="#mfe384b574b" x="208.280489" y="330.561978" style="fill: #669900; stroke: #669900"/>
     <use xlink:href="#mfe384b574b" x="248.841465" y="323.068608" style="fill: #669900; stroke: #669900"/>
     <use xlink:href="#mfe384b574b" x="289.40244" y="318.203848" style="fill: #669900; stroke: #669900"/>
     <use xlink:href="#mfe384b574b" x="329.963416" y="306.87954" style="fill: #669900; stroke: #669900"/>
     <use xlink:href="#mfe384b574b" x="492.207318" y="257.690499" style="fill: #669900; stroke: #669900"/>
     <use xlink:href="#mfe384b574b" x="654.45122" y="207.021188" style="fill: #669900; stroke: #669900"/>
     <use xlink:href="#mfe384b574b" x="816.695122" y="171.65396" style="fill: #669900; stroke: #669900"/>
    </g>
   </g>
   <g id="line2d_35">
    <g clip-path="url(#pebe5b929e1)">
     <use xlink:href="#mfe384b574b" x="86.597563" y="428.814457" style="fill: #669900; stroke: #669900"/>
     <use xlink:href="#mfe384b574b" x="127.158538" y="375.057423" style="fill: #669900; stroke: #669900"/>
     <use xlink:href="#mfe384b574b" x="167.719514" y="350.099431" style="fill: #669900; stroke: #669900"/>
     <use xlink:href="#mfe384b574b" x="208.280489" y="329.930179" style="fill: #669900; stroke: #669900"/>
     <use xlink:href="#mfe384b574b" x="248.841465" y="321.694914" style="fill: #669900; stroke: #669900"/>
     <use xlink:href="#mfe384b574b" x="289.40244" y="316.392791" style="fill: #669900; stroke: #669900"/>
     <use xlink:href="#mfe384b574b" x="329.963416" y="303.821771" style="fill: #669900; stroke: #669900"/>
     <use xlink:href="#mfe384b574b" x="492.207318" y="257.121024" style="fill: #669900; stroke: #669900"/>
     <use xlink:href="#mfe384b574b" x="654.45122" y="203.306233" style="fill: #669900; stroke: #669900"/>
     <use xlink:href="#mfe384b574b" x="816.695122" y="170.461977" style="fill: #669900; stroke: #669900"/>
    </g>
   </g>
   <g id="line2d_36">
    <path d="M 86.597563 420.73339 
L 127.158538 373.706815 
L 167.719514 338.435368 
L 208.280489 308.750713 
L 248.841465 288.055444 
L 289.40244 266.928994 
L 329.963416 244.64451 
L 492.207318 186.016475 
L 654.45122 131.871481 
L 816.695122 89.874063 
" clip-path="url(#pebe5b929e1)" style="fill: none; stroke: #339900; stroke-width: 1.5; stroke-linecap: square"/>
   </g>
   <g id="line2d_37">
    <path d="M 86.597563 286.972193 
L 127.158538 237.33371 
L 167.719514 206.331719 
L 208.280489 181.354698 
L 248.841465 164.688131 
L 289.40244 148.159328 
L 329.963416 128.149338 
L 492.207318 101.128593 
L 654.45122 74.450172 
L 816.695122 53.478876 
" clip-path="url(#pebe5b929e1)" style="fill: none; stroke: #3399cc; stroke-width: 1.5; stroke-linecap: square"/>
   </g>
   <g id="line2d_38">
    <path d="M 86.597563 397.91987 
L 127.158538 352.07592 
L 167.719514 327.201661 
L 208.280489 306.600414 
L 248.841465 302.189418 
L 289.40244 291.208707 
L 329.963416 278.1124 
L 492.207318 227.073567 
L 654.45122 182.729966 
L 816.695122 147.665051 
" clip-path="url(#pebe5b929e1)" style="fill: none; stroke: #669999; stroke-width: 1.5; stroke-linecap: square"/>
   </g>
   <g id="line2d_39">
    <path d="M 86.597563 426.42715 
L 127.158538 381.269454 
L 167.719514 352.973723 
L 208.280489 333.036589 
L 248.841465 319.246898 
L 289.40244 305.711686 
L 329.963416 289.4874 
L 492.207318 233.254716 
L 654.45122 189.595576 
L 816.695122 154.178851 
" clip-path="url(#pebe5b929e1)" style="fill: none; stroke: #669966; stroke-width: 1.5; stroke-linecap: square"/>
   </g>
   <g id="line2d_40">
    <path d="M 86.597563 433.671847 
L 127.158538 381.48358 
L 167.719514 354.823296 
L 208.280489 341.759661 
L 248.841465 333.872933 
L 289.40244 318.624181 
L 329.963416 302.333104 
L 492.207318 243.704404 
L 654.45122 201.350063 
L 816.695122 162.134808 
" clip-path="url(#pebe5b929e1)" style="fill: none; stroke: #669933; stroke-width: 1.5; stroke-linecap: square"/>
   </g>
   <g id="line2d_41">
    <path d="M 86.597563 429.587615 
L 127.158538 375.962665 
L 167.719514 350.767592 
L 208.280489 330.245728 
L 248.841465 322.380104 
L 289.40244 317.295439 
L 329.963416 305.342444 
L 492.207318 257.405441 
L 654.45122 205.151565 
L 816.695122 171.05674 
" clip-path="url(#pebe5b929e1)" style="fill: none; stroke: #669900; stroke-width: 1.5; stroke-linecap: square"/>
   </g>
   <g id="patch_3">
    <path d="M 50.092685 606.04 
L 50.092685 26.88 
" style="fill: none; stroke: #000000; stroke-width: 0.8; stroke-linejoin: miter; stroke-linecap: square"/>
   </g>
   <g id="patch_4">
    <path d="M 853.2 606.04 
L 853.2 26.88 
" style="fill: none; stroke: #000000; stroke-width: 0.8; stroke-linejoin: miter; stroke-linecap: square"/>
   </g>
   <g id="patch_5">
    <path d="M 50.092685 606.04 
L 853.2 606.04 
" style="fill: none; stroke: #000000; stroke-width: 0.8; stroke-linejoin: miter; stroke-linecap: square"/>
   </g>
   <g id="patch_6">
    <path d="M 50.092685 26.88 
L 853.2 26.88 
" style="fill: none; stroke: #000000; stroke-width: 0.8; stroke-linejoin: miter; stroke-linecap: square"/>
   </g>
   <g id="text_11">
    <!-- Go 1.25 implementations of Bron-Kerbosch on a random graph of order 1M -->
    <g transform="translate(226.191655 20.88) scale(0.12 -0.12)">
     <defs>
      <path id="DejaVuSans-47" d="M 3809 666 
L 3809 1919 
L 2778 1919 
L 2778 2438 
L 4434 2438 
L 4434 434 
Q 4069 175 3628 42 
Q 3188 -91 2688 -91 
Q 1594 -91 976 548 
Q 359 1188 359 2328 
Q 359 3472 976 4111 
Q 1594 4750 2688 4750 
Q 3144 4750 3555 4637 
Q 3966 4525 4313 4306 
L 4313 3634 
Q 3963 3931 3569 4081 
Q 3175 4231 2741 4231 
Q 1884 4231 1454 3753 
Q 1025 3275 1025 2328 
Q 1025 1384 1454 906 
Q 1884 428 2741 428 
Q 3075 428 3337 486 
Q 3600 544 3809 666 
z
" transform="scale(0.015625)"/>
      <path id="DejaVuSans-2e" d="M 684 794 
L 1344 794 
L 1344 0 
L 684 0 
L 684 794 
z
" transform="scale(0.015625)"/>
      <path id="DejaVuSans-6d" d="M 3328 2828 
Q 3544 3216 3844 3400 
Q 4144 3584 4550 3584 
Q 5097 3584 5394 3201 
Q 5691 2819 5691 2113 
L 5691 0 
L 5113 0 
L 5113 2094 
Q 5113 2597 4934 2840 
Q 4756 3084 4391 3084 
Q 3944 3084 3684 2787 
Q 3425 2491 3425 1978 
L 3425 0 
L 2847 0 
L 2847 2094 
Q 2847 2600 2669 2842 
Q 2491 3084 2119 3084 
Q 1678 3084 1418 2786 
Q 1159 2488 1159 1978 
L 1159 0 
L 581 0 
L 581 3500 
L 1159 3500 
L 1159 2956 
Q 1356 3278 1631 3431 
Q 1906 3584 2284 3584 
Q 2666 3584 2933 3390 
Q 3200 3197 3328 2828 
z
" transform="scale(0.015625)"/>
      <path id="DejaVuSans-6c" d="M 603 4863 
L 1178 4863 
L 1178 0 
L 603 0 
L 603 4863 
z
" transform="scale(0.015625)"/>
      <path id="DejaVuSans-61" d="M 2194 1759 
Q 1497 1759 1228 1600 
Q 959 1441 959 1056 
Q 959 750 1161 570 
Q 1363 391 1709 391 
Q 2188 391 2477 730 
Q 2766 1069 2766 1631 
L 2766 1759 
L 2194 1759 
z
M 3341 1997 
L 3341 0 
L 2766 0 
L 2766 531 
Q 2569 213 2275 61 
Q 1981 -91 1556 -91 
Q 1019 -91 701 211 
Q 384 513 384 1019 
Q 384 1609 779 1909 
Q 1175 2209 1959 2209 
L 2766 2209 
L 2766 2266 
Q 2766 2663 2505 2880 
Q 2244 3097 1772 3097 
Q 1472 3097 1187 3025 
Q 903 2953 641 2809 
L 641 3341 
Q 956 3463 1253 3523 
Q 1550 3584 1831 3584 
Q 2591 3584 2966 3190 
Q 3341 2797 3341 1997 
z
" transform="scale(0.015625)"/>
      <path id="DejaVuSans-66" d="M 2375 4863 
L 2375 4384 
L 1825 4384 
Q 1516 4384 1395 4259 
Q 1275 4134 1275 3809 
L 1275 3500 
L 2222 3500 
L 2222 3053 
L 1275 3053 
L 1275 0 
L 697 0 
L 697 3053 
L 147 3053 
L 147 3500 
L 697 3500 
L 697 3744 
Q 697 4328 969 4595 
Q 1241 4863 1831 4863 
L 2375 4863 
z
" transform="scale(0.015625)"/>
      <path id="DejaVuSans-42" d="M 1259 2228 
L 1259 519 
L 2272 519 
Q 2781 519 3026 730 
Q 3272 941 3272 1375 
Q 3272 1813 3026 2020 
Q 2781 2228 2272 2228 
L 1259 2228 
z
M 1259 4147 
L 1259 2741 
L 2194 2741 
Q 2656 2741 2882 2914 
Q 3109 3088 3109 3444 
Q 3109 3797 2882 3972 
Q 2656 4147 2194 4147 
L 1259 4147 
z
M 628 4666 
L 2241 4666 
Q 2963 4666 3353 4366 
Q 3744 4066 3744 3513 
Q 3744 3084 3544 2831 
Q 3344 2578 2956 2516 
Q 3422 2416 3680 2098 
Q 3938 1781 3938 1306 
Q 3938 681 3513 340 
Q 3088 0 2303 0 
L 628 0 
L 628 4666 
z
" transform="scale(0.015625)"/>
      <path id="DejaVuSans-72" d="M 2631 2963 
Q 2534 3019 2420 3045 
Q 2306 3072 2169 3072 
Q 1681 3072 1420 2755 
Q 1159 2438 1159 1844 
L 1159 0 
L 581 0 
L 581 3500 
L 1159 3500 
L 1159 2956 
Q 1341 3275 1631 3429 
Q 1922 3584 2338 3584 
Q 2397 3584 2469 3576 
Q 2541 3569 2628 3553 
L 2631 2963 
z
" transform="scale(0.015625)"/>
      <path id="DejaVuSans-2d" d="M 313 2009 
L 1997 2009 
L 1997 1497 
L 313 1497 
L 313 2009 
z
" transform="scale(0.015625)"/>
      <path id="DejaVuSans-4b" d="M 628 4666 
L 1259 4666 
L 1259 2694 
L 3353 4666 
L 4166 4666 
L 1850 2491 
L 4331 0 
L 3500 0 
L 1259 2247 
L 1259 0 
L 628 0 
L 628 4666 
z
" transform="scale(0.015625)"/>
      <path id="DejaVuSans-62" d="M 3116 1747 
Q 3116 2381 2855 2742 
Q 2594 3103 2138 3103 
Q 1681 3103 1420 2742 
Q 1159 2381 1159 1747 
Q 1159 1113 1420 752 
Q 1681 391 2138 391 
Q 2594 391 2855 752 
Q 3116 1113 3116 1747 
z
M 1159 2969 
Q 1341 3281 1617 3432 
Q 1894 3584 2278 3584 
Q 2916 3584 3314 3078 
Q 3713 2572 3713 1747 
Q 3713 922 3314 415 
Q 2916 -91 2278 -91 
Q 1894 -91 1617 61 
Q 1341 213 1159 525 
L 1159 0 
L 581 0 
L 581 4863 
L 1159 4863 
L 1159 2969 
z
" transform="scale(0.015625)"/>
      <path id="DejaVuSans-68" d="M 3513 2113 
L 3513 0 
L 2938 0 
L 2938 2094 
Q 2938 2591 2744 2837 
Q 2550 3084 2163 3084 
Q 1697 3084 1428 2787 
Q 1159 2491 1159 1978 
L 1159 0 
L 581 0 
L 581 4863 
L 1159 4863 
L 1159 2956 
Q 1366 3272 1645 3428 
Q 1925 3584 2291 3584 
Q 2894 3584 3203 3211 
Q 3513 2838 3513 2113 
z
" transform="scale(0.015625)"/>
      <path id="DejaVuSans-4d" d="M 628 4666 
L 1569 4666 
L 2759 1491 
L 3956 4666 
L 4897 4666 
L 4897 0 
L 4281 0 
L 4281 4097 
L 3078 897 
L 2444 897 
L 1241 4097 
L 1241 0 
L 628 0 
L 628 4666 
z
" transform="scale(0.015625)"/>
     </defs>
     <use xlink:href="#DejaVuSans-47"/>
     <use xlink:href="#DejaVuSans-6f" transform="translate(77.490234 0)"/>
     <use xlink:href="#DejaVuSans-20" transform="translate(138.671875 0)"/>
     <use xlink:href="#DejaVuSans-31" transform="translate(170.458984 0)"/>
     <use xlink:href="#DejaVuSans-2e" transform="translate(234.082031 0)"/>
     <use xlink:href="#DejaVuSans-32" transform="translate(265.869141 0)"/>
     <use xlink:href="#DejaVuSans-35" transform="translate(329.492188 0)"/>
     <use xlink:href="#DejaVuSans-20" transform="translate(393.115234 0)"/>
     <use xlink:href="#DejaVuSans-69" transform="translate(424.902344 0)"/>
     <use xlink:href="#DejaVuSans-6d" transform="translate(452.685547 0)"/>
     <use xlink:href="#DejaVuSans-70" transform="translate(550.097656 0)"/>
     <use xlink:href="#DejaVuSans-6c" transform="translate(613.574219 0)"/>
     <use xlink:href="#DejaVuSans-65" transform="translate(641.357422 0)"/>
     <use xlink:href="#DejaVuSans-6d" transform="translate(702.880859 0)"/>
     <use xlink:href="#DejaVuSans-65" transform="translate(800.292969 0)"/>
     <use xlink:href="#DejaVuSans-6e" transform="translate(861.816406 0)"/>
     <use xlink:href="#DejaVuSans-74" transform="translate(925.195312 0)"/>
     <use xlink:href="#DejaVuSans-61" transform="translate(964.404297 0)"/>
     <use xlink:href="#DejaVuSans-74" transform="translate(1025.683594 0)"/>
     <use xlink:href="#DejaVuSans-69" transform="translate(1064.892578 0)"/>
     <use xlink:href="#DejaVuSans-6f" transform="translate(1092.675781 0)"/>
     <use xlink:href="#DejaVuSans-6e" transform="translate(1153.857422 0)"/>
     <use xlink:href="#DejaVuSans-73" transform="translate(1217.236328 0)"/>
     <use xlink:href="#DejaVuSans-20" transform="translate(1269.335938 0)"/>
     <use xlink:href="#DejaVuSans-6f" transform="translate(1301.123047 0)"/>
     <use xlink:href="#DejaVuSans-66" transform="translate(1362.304688 0)"/>
     <use xlink:href="#DejaVuSans-20" transform="translate(1397.509766 0)"/>
     <use xlink:href="#DejaVuSans-42" transform="translate(1429.296875 0)"/>
     <use xlink:href="#DejaVuSans-72" transform="translate(1497.900391 0)"/>
     <use xlink:href="#DejaVuSans-6f" transform="translate(1536.763672 0)"/>
     <use xlink:href="#DejaVuSans-6e" transform="translate(1597.945312 0)"/>
     <use xlink:href="#DejaVuSans-2d" transform="translate(1661.324219 0)"/>
     <use xlink:href="#DejaVuSans-4b" transform="translate(1697.408203 0)"/>
     <use xlink:href="#DejaVuSans-65" transform="translate(1757.984375 0)"/>
     <use xlink:href="#DejaVuSans-72" transform="translate(1819.507812 0)"/>
     <use xlink:href="#DejaVuSans-62" transform="translate(1860.621094 0)"/>
     <use xlink:href="#DejaVuSans-6f" transform="translate(1924.097656 0)"/>
     <use xlink:href="#DejaVuSans-73" transform="translate(1985.279297 0)"/>
     <use xlink:href="#DejaVuSans-63" transform="translate(2037.378906 0)"/>
     <use xlink:href="#DejaVuSans-68" transform="translate(2092.359375 0)"/>
     <use xlink:href="#DejaVuSans-20" transform="translate(2155.738281 0)"/>
     <use xlink:href="#DejaVuSans-6f" transform="translate(2187.525391 0)"/>
     <use xlink:href="#DejaVuSans-6e" transform="translate(2248.707031 0)"/>
     <use xlink:href="#DejaVuSans-20" transform="translate(2312.085938 0)"/>
     <use xlink:href="#DejaVuSans-61" transform="translate(2343.873047 0)"/>
     <use xlink:href="#DejaVuSans-20" transform="translate(2405.152344 0)"/>
     <use xlink:href="#DejaVuSans-72" transform="translate(2436.939453 0)"/>
     <use xlink:href="#DejaVuSans-61" transform="translate(2478.052734 0)"/>
     <use xlink:href="#DejaVuSans-6e" transform="translate(2539.332031 0)"/>
     <use xlink:href="#DejaVuSans-64" transform="translate(2602.710938 0)"/>
     <use xlink:href="#DejaVuSans-6f" transform="translate(2666.1875 0)"/>
     <use xlink:href="#DejaVuSans-6d" transform="translate(2727.369141 0)"/>
     <use xlink:href="#DejaVuSans-20" transform="translate(2824.78125 0)"/>
     <use xlink:href="#DejaVuSans-67" transform="translate(2856.568359 0)"/>
     <use xlink:href="#DejaVuSans-72" transform="translate(2920.044922 0)"/>
     <use xlink:href="#DejaVuSans-61" transform="translate(2961.158203 0)"/>
     <use xlink:href="#DejaVuSans-70" transform="translate(3022.4375 0)"/>
     <use xlink:href="#DejaVuSans-68" transform="translate(3085.914062 0)"/>
     <use xlink:href="#DejaVuSans-20" transform="translate(3149.292969 0)"/>
     <use xlink:href="#DejaVuSans-6f" transform="translate(3181.080078 0)"/>
     <use xlink:href="#DejaVuSans-66" transform="translate(3242.261719 0)"/>
     <use xlink:href="#DejaVuSans-20" transform="translate(3277.466797 0)"/>
     <use xlink:href="#DejaVuSans-6f" transform="translate(3309.253906 0)"/>
     <use xlink:href="#DejaVuSans-72" transform="translate(3370.435547 0)"/>
     <use xlink:href="#DejaVuSans-64" transform="translate(3409.798828 0)"/>
     <use xlink:href="#DejaVuSans-65" transform="translate(3473.275391 0)"/>
     <use xlink:href="#DejaVuSans-72" transform="translate(3534.798828 0)"/>
     <use xlink:href="#DejaVuSans-20" transform="translate(3575.912109 0)"/>
     <use xlink:href="#DejaVuSans-31" transform="translate(3607.699219 0)"/>
     <use xlink:href="#DejaVuSans-4d" transform="translate(3671.322266 0)"/>
    </g>
   </g>
   <g id="legend_1">
    <g id="patch_7">
     <path d="M 57.092685 122.94875 
L 149.997372 122.94875 
Q 151.997372 122.94875 151.997372 120.94875 
L 151.997372 33.88 
Q 151.997372 31.88 149.997372 31.88 
L 57.092685 31.88 
Q 55.092685 31.88 55.092685 33.88 
L 55.092685 120.94875 
Q 55.092685 122.94875 57.092685 122.94875 
z
" style="fill: #ffffff; opacity: 0.8; stroke: #cccccc; stroke-linejoin: miter"/>
    </g>
    <g id="LineCollection_7">
     <path d="M 69.092685 44.978438 
L 69.092685 34.978438 
" style="fill: none; stroke: #339900; stroke-width: 1.5"/>
    </g>
    <g id="line2d_42">
     <g>
      <use xlink:href="#m7dbad405e1" x="69.092685" y="44.978438" style="fill: #339900; stroke: #339900"/>
     </g>
    </g>
    <g id="line2d_43">
     <g>
      <use xlink:href="#m7dbad405e1" x="69.092685" y="34.978438" style="fill: #339900; stroke: #339900"/>
     </g>
    </g>
    <g id="line2d_44">
     <path d="M 59.092685 39.978438 
L 79.092685 39.978438 
" style="fill: none; stroke: #339900; stroke-width: 1.5; stroke-linecap: square"/>
    </g>
    <g id="line2d_45"/>
    <g id="text_12">
     <!-- Ver3-GP -->
     <g transform="translate(87.092685 43.478438) scale(0.1 -0.1)">
      <defs>
       <path id="DejaVuSans-56" d="M 1831 0 
L 50 4666 
L 709 4666 
L 2188 738 
L 3669 4666 
L 4325 4666 
L 2547 0 
L 1831 0 
z
" transform="scale(0.015625)"/>
       <path id="DejaVuSans-bd" d="M 488 2431 
L 1125 2431 
L 1125 4341 
L 428 4213 
L 428 4575 
L 1147 4697 
L 1575 4697 
L 1575 2431 
L 2216 2431 
L 2216 2088 
L 488 2088 
L 488 2431 
z
M 4470 332 
L 5795 332 
L 5795 -24 
L 3926 -24 
L 3926 319 
Q 4032 416 4229 591 
Q 5304 1544 5304 1838 
Q 5304 2044 5141 2170 
Q 4979 2297 4713 2297 
Q 4551 2297 4360 2242 
Q 4170 2188 3945 2079 
L 3945 2463 
Q 4185 2551 4393 2594 
Q 4601 2638 4779 2638 
Q 5232 2638 5504 2432 
Q 5776 2226 5776 1888 
Q 5776 1454 4741 566 
Q 4566 416 4470 332 
z
M 4309 4750 
L 4809 4750 
L 1896 -91 
L 1396 -91 
L 4309 4750 
z
" transform="scale(0.015625)"/>
       <path id="DejaVuSans-50" d="M 1259 4147 
L 1259 2394 
L 2053 2394 
Q 2494 2394 2734 2622 
Q 2975 2850 2975 3272 
Q 2975 3691 2734 3919 
Q 2494 4147 2053 4147 
L 1259 4147 
z
M 628 4666 
L 2053 4666 
Q 2838 4666 3239 4311 
Q 3641 3956 3641 3272 
Q 3641 2581 3239 2228 
Q 2838 1875 2053 1875 
L 1259 1875 
L 1259 0 
L 628 0 
L 628 4666 
z
" transform="scale(0.015625)"/>
      </defs>
      <use xlink:href="#DejaVuSans-56"/>
      <use xlink:href="#DejaVuSans-65" transform="translate(60.658203 0)"/>
      <use xlink:href="#DejaVuSans-72" transform="translate(122.181641 0)"/>
      <use xlink:href="#DejaVuSans-33" transform="translate(163.294922 0)"/>
      <use xlink:href="#DejaVuSans-bd" transform="translate(226.917969 0)"/>
      <use xlink:href="#DejaVuSans-2d" transform="translate(323.841797 0)"/>
      <use xlink:href="#DejaVuSans-47" transform="translate(363.550781 0)"/>
      <use xlink:href="#DejaVuSans-50" transform="translate(441.041016 0)"/>
     </g>
    </g>
    <g id="LineCollection_8">
     <path d="M 69.092685 59.656563 
L 69.092685 49.656563 
" style="fill: none; stroke: #3399cc; stroke-width: 1.5"/>
    </g>
    <g id="line2d_46">
     <g>
      <use xlink:href="#m415de21930" x="69.092685" y="59.656563" style="fill: #3399cc; stroke: #3399cc"/>
     </g>
    </g>
    <g id="line2d_47">
     <g>
      <use xlink:href="#m415de21930" x="69.092685" y="49.656563" style="fill: #3399cc; stroke: #3399cc"/>
     </g>
    </g>
    <g id="line2d_48">
     <path d="M 59.092685 54.656563 
L 79.092685 54.656563 
" style="fill: none; stroke: #3399cc; stroke-width: 1.5; stroke-linecap: square"/>
    </g>
    <g id="line2d_49"/>
    <g id="text_13">
     <!-- Ver3=GP0 -->
     <g transform="translate(87.092685 58.156563) scale(0.1 -0.1)">
      <defs>
       <path id="DejaVuSans-3d" d="M 678 2906 
L 4684 2906 
L 4684 2381 
L 678 2381 
L 678 2906 
z
M 678 1631 
L 4684 1631 
L 4684 1100 
L 678 1100 
L 678 1631 
z
" transform="scale(0.015625)"/>
      </defs>
      <use xlink:href="#DejaVuSans-56"/>
      <use xlink:href="#DejaVuSans-65" transform="translate(60.658203 0)"/>
      <use xlink:href="#DejaVuSans-72" transform="translate(122.181641 0)"/>
      <use xlink:href="#DejaVuSans-33" transform="translate(163.294922 0)"/>
      <use xlink:href="#DejaVuSans-bd" transform="translate(226.917969 0)"/>
      <use xlink:href="#DejaVuSans-3d" transform="translate(323.841797 0)"/>
      <use xlink:href="#DejaVuSans-47" transform="translate(407.630859 0)"/>
      <use xlink:href="#DejaVuSans-50" transform="translate(485.121094 0)"/>
      <use xlink:href="#DejaVuSans-30" transform="translate(545.423828 0)"/>
     </g>
    </g>
    <g id="LineCollection_9">
     <path d="M 69.092685 74.334688 
L 69.092685 64.334688 
" style="fill: none; stroke: #669999; stroke-width: 1.5"/>
    </g>
    <g id="line2d_50">
     <g>
      <use xlink:href="#m22ae5b1ed0" x="69.092685" y="74.334688" style="fill: #669999; stroke: #669999"/>
     </g>
    </g>
    <g id="line2d_51">
     <g>
      <use xlink:href="#m22ae5b1ed0" x="69.092685" y="64.334688" style="fill: #669999; stroke: #669999"/>
     </g>
    </g>
    <g id="line2d_52">
     <path d="M 59.092685 69.334688 
L 79.092685 69.334688 
" style="fill: none; stroke: #669999; stroke-width: 1.5; stroke-linecap: square"/>
    </g>
    <g id="line2d_53"/>
    <g id="text_14">
     <!-- Ver3=GP1 -->
     <g transform="translate(87.092685 72.834688) scale(0.1 -0.1)">
      <use xlink:href="#DejaVuSans-56"/>
      <use xlink:href="#DejaVuSans-65" transform="translate(60.658203 0)"/>
      <use xlink:href="#DejaVuSans-72" transform="translate(122.181641 0)"/>
      <use xlink:href="#DejaVuSans-33" transform="translate(163.294922 0)"/>
      <use xlink:href="#DejaVuSans-bd" transform="translate(226.917969 0)"/>
      <use xlink:href="#DejaVuSans-3d" transform="translate(323.841797 0)"/>
      <use xlink:href="#DejaVuSans-47" transform="translate(407.630859 0)"/>
      <use xlink:href="#DejaVuSans-50" transform="translate(485.121094 0)"/>
      <use xlink:href="#DejaVuSans-31" transform="translate(545.423828 0)"/>
     </g>
    </g>
    <g id="LineCollection_10">
     <path d="M 69.092685 89.012812 
L 69.092685 79.012812 
" style="fill: none; stroke: #669966; stroke-width: 1.5"/>
    </g>
    <g id="line2d_54">
     <g>
      <use xlink:href="#mad229174f9" x="69.092685" y="89.012812" style="fill: #669966; stroke: #669966"/>
     </g>
    </g>
    <g id="line2d_55">
     <g>
      <use xlink:href="#mad229174f9" x="69.092685" y="79.012812" style="fill: #669966; stroke: #669966"/>
     </g>
    </g>
    <g id="line2d_56">
     <path d="M 59.092685 84.012812 
L 79.092685 84.012812 
" style="fill: none; stroke: #669966; stroke-width: 1.5; stroke-linecap: square"/>
    </g>
    <g id="line2d_57"/>
    <g id="text_15">
     <!-- Ver3=GP2 -->
     <g transform="translate(87.092685 87.512812) scale(0.1 -0.1)">
      <use xlink:href="#DejaVuSans-56"/>
      <use xlink:href="#DejaVuSans-65" transform="translate(60.658203 0)"/>
      <use xlink:href="#DejaVuSans-72" transform="translate(122.181641 0)"/>
      <use xlink:href="#DejaVuSans-33" transform="translate(163.294922 0)"/>
      <use xlink:href="#DejaVuSans-bd" transform="translate(226.917969 0)"/>
      <use xlink:href="#DejaVuSans-3d" transform="translate(323.841797 0)"/>
      <use xlink:href="#DejaVuSans-47" transform="translate(407.630859 0)"/>
      <use xlink:href="#DejaVuSans-50" transform="translate(485.121094 0)"/>
      <use xlink:href="#DejaVuSans-32" transform="translate(545.423828 0)"/>
     </g>
    </g>
    <g id="LineCollection_11">
     <path d="M 69.092685 103.690938 
L 69.092685 93.690938 
" style="fill: none; stroke: #669933; stroke-width: 1.5"/>
    </g>
    <g id="line2d_58">
     <g>
      <use xlink:href="#mfa00d58cba" x="69.092685" y="103.690938" style="fill: #669933; stroke: #669933"/>
     </g>
    </g>
    <g id="line2d_59">
     <g>
      <use xlink:href="#mfa00d58cba" x="69.092685" y="93.690938" style="fill: #669933; stroke: #669933"/>
     </g>
    </g>
    <g id="line2d_60">
     <path d="M 59.092685 98.690938 
L 79.092685 98.690938 
" style="fill: none; stroke: #669933; stroke-width: 1.5; stroke-linecap: square"/>
    </g>
    <g id="line2d_61"/>
    <g id="text_16">
     <!-- Ver3=GP3 -->
     <g transform="translate(87.092685 102.190938) scale(0.1 -0.1)">
      <use xlink:href="#DejaVuSans-56"/>
      <use xlink:href="#DejaVuSans-65" transform="translate(60.658203 0)"/>
      <use xlink:href="#DejaVuSans-72" transform="translate(122.181641 0)"/>
      <use xlink:href="#DejaVuSans-33" transform="translate(163.294922 0)"/>
      <use xlink:href="#DejaVuSans-bd" transform="translate(226.917969 0)"/>
      <use xlink:href="#DejaVuSans-3d" transform="translate(323.841797 0)"/>
      <use xlink:href="#DejaVuSans-47" transform="translate(407.630859 0)"/>
      <use xlink:href="#DejaVuSans-50" transform="translate(485.121094 0)"/>
      <use xlink:href="#DejaVuSans-33" transform="translate(545.423828 0)"/>
     </g>
    </g>
    <g id="LineCollection_12">
     <path d="M 69.092685 118.369063 
L 69.092685 108.369063 
" style="fill: none; stroke: #669900; stroke-width: 1.5"/>
    </g>
    <g id="line2d_62">
     <g>
      <use xlink:href="#mfe384b574b" x="69.092685" y="118.369063" style="fill: #669900; stroke: #669900"/>
     </g>
    </g>
    <g id="line2d_63">
     <g>
      <use xlink:href="#mfe384b574b" x="69.092685" y="108.369063" style="fill: #669900; stroke: #669900"/>
     </g>
    </g>
    <g id="line2d_64">
     <path d="M 59.092685 113.369063 
L 79.092685 113.369063 
" style="fill: none; stroke: #669900; stroke-width: 1.5; stroke-linecap: square"/>
    </g>
    <g id="line2d_65"/>
    <g id="text_17">
     <!-- Ver3=GP4 -->
     <g transform="translate(87.092685 116.869063) scale(0.1 -0.1)">
      <use xlink:href="#DejaVuSans-56"/>
      <use xlink:href="#DejaVuSans-65" transform="translate(60.658203 0)"/>
      <use xlink:href="#DejaVuSans-72" transform="translate(122.181641 0)"/>
      <use xlink:href="#DejaVuSans-33" transform="translate(163.294922 0)"/>
      <use xlink:href="#DejaVuSans-bd" transform="translate(226.917969 0)"/>
      <use xlink:href="#DejaVuSans-3d" transform="translate(323.841797 0)"/>
      <use xlink:href="#DejaVuSans-47" transform="translate(407.630859 0)"/>
      <use xlink:href="#DejaVuSans-50" transform="translate(485.121094 0)"/>
      <use xlink:href="#DejaVuSans-34" transform="translate(545.423828 0)"/>
     </g>
    </g>
   </g>
  </g>
 </g>
 <defs>
  <clipPath id="pebe5b929e1">
   <rect x="50.092685" y="26.88" width="803.107315" height="579.16"/>
  </clipPath>
 </defs>
</svg>
