<?xml version="1.0" encoding="utf-8" standalone="no"?>
<!DOCTYPE svg PUBLIC "-//W3C//DTD SVG 1.1//EN"
  "http://www.w3.org/Graphics/SVG/1.1/DTD/svg11.dtd">
<svg xmlns:xlink="http://www.w3.org/1999/xlink" width="864pt" height="648pt" viewBox="0 0 864 648" xmlns="http://www.w3.org/2000/svg" version="1.1">
 <metadata>
  <rdf:RDF xmlns:dc="http://purl.org/dc/elements/1.1/" xmlns:cc="http://creativecommons.org/ns#" xmlns:rdf="http://www.w3.org/1999/02/22-rdf-syntax-ns#">
   <cc:Work>
    <dc:type rdf:resource="http://purl.org/dc/dcmitype/StillImage"/>
    <dc:date>2026-04-24T13:48:44.253614</dc:date>
    <dc:format>image/svg+xml</dc:format>
    <dc:creator>
     <cc:Agent>
      <dc:title>Matplotlib v3.10.8, https://matplotlib.org/</dc:title>
     </cc:Agent>
    </dc:creator>
   </cc:Work>
  </rdf:RDF>
 </metadata>
 <defs>
  <style type="text/css">*{stroke-linejoin: round; stroke-linecap: butt}</style>
 </defs>
 <g id="figure_1">
  <g id="patch_1">
   <path d="M 0 648 
L 864 648 
L 864 0 
L 0 0 
z
" style="fill: #ffffff"/>
  </g>
  <g id="axes_1">
   <g id="patch_2">
    <path d="M 55.772054 606.04 
L 853.2 606.04 
L 853.2 26.88 
L 55.772054 26.88 
z
" style="fill: #ffffff"/>
   </g>
   <g id="matplotlib.axis_1">
    <g id="xtick_1">
     <g id="line2d_1">
      <defs>
       <path id="mc74f61fcfc" d="M 0 0 
L 0 3.5 
" style="stroke: #000000; stroke-width: 0.8"/>
      </defs>
      <g>
       <use xlink:href="#mc74f61fcfc" x="92.018779" y="606.04" style="stroke: #000000; stroke-width: 0.8"/>
      </g>
     </g>
     <g id="text_1">
      <!-- 2000 -->
      <g transform="translate(79.293779 620.638438) scale(0.1 -0.1)">
       <defs>
        <path id="DejaVuSans-32" d="M 1228 531 
L 3431 531 
L 3431 0 
L 469 0 
L 469 531 
Q 828 903 1448 1529 
Q 2069 2156 2228 2338 
Q 2531 2678 2651 2914 
Q 2772 3150 2772 3378 
Q 2772 3750 2511 3984 
Q 2250 4219 1831 4219 
Q 1534 4219 1204 4116 
Q 875 4013 500 3803 
L 500 4441 
Q 881 4594 1212 4672 
Q 1544 4750 1819 4750 
Q 2544 4750 2975 4387 
Q 3406 4025 3406 3419 
Q 3406 3131 3298 2873 
Q 3191 2616 2906 2266 
Q 2828 2175 2409 1742 
Q 1991 1309 1228 531 
z
" transform="scale(0.015625)"/>
        <path id="DejaVuSans-30" d="M 2034 4250 
Q 1547 4250 1301 3770 
Q 1056 3291 1056 2328 
Q 1056 1369 1301 889 
Q 1547 409 2034 409 
Q 2525 409 2770 889 
Q 3016 1369 3016 2328 
Q 3016 3291 2770 3770 
Q 2525 4250 2034 4250 
z
M 2034 4750 
Q 2819 4750 3233 4129 
Q 3647 3509 3647 2328 
Q 3647 1150 3233 529 
Q 2819 -91 2034 -91 
Q 1250 -91 836 529 
Q 422 1150 422 2328 
Q 422 3509 836 4129 
Q 1250 4750 2034 4750 
z
" transform="scale(0.015625)"/>
       </defs>
       <use xlink:href="#DejaVuSans-32"/>
       <use xlink:href="#DejaVuSans-30" transform="translate(63.623047 0)"/>
       <use xlink:href="#DejaVuSans-30" transform="translate(127.246094 0)"/>
       <use xlink:href="#DejaVuSans-30" transform="translate(190.869141 0)"/>
      </g>
     </g>
    </g>
    <g id="xtick_2">
     <g id="line2d_2">
      <g>
       <use xlink:href="#mc74f61fcfc" x="237.005678" y="606.04" style="stroke: #000000; stroke-width: 0.8"/>
      </g>
     </g>
     <g id="text_2">
      <!-- 2200 -->
      <g transform="translate(224.280678 620.638438) scale(0.1 -0.1)">
       <use xlink:href="#DejaVuSans-32"/>
       <use xlink:href="#DejaVuSans-32" transform="translate(63.623047 0)"/>
       <use xlink:href="#DejaVuSans-30" transform="translate(127.246094 0)"/>
       <use xlink:href="#DejaVuSans-30" transform="translate(190.869141 0)"/>
      </g>
     </g>
    </g>
    <g id="xtick_3">
     <g id="line2d_3">
      <g>
       <use xlink:href="#mc74f61fcfc" x="381.992577" y="606.04" style="stroke: #000000; stroke-width: 0.8"/>
      </g>
     </g>
     <g id="text_3">
      <!-- 2400 -->
      <g transform="translate(369.267577 620.638438) scale(0.1 -0.1)">
       <defs>
        <path id="DejaVuSans-34" d="M 2419 4116 
L 825 1625 
L 2419 1625 
L 2419 4116 
z
M 2253 4666 
L 3047 4666 
L 3047 1625 
L 3713 1625 
L 3713 1100 
L 3047 1100 
L 3047 0 
L 2419 0 
L 2419 1100 
L 313 1100 
L 313 1709 
L 2253 4666 
z
" transform="scale(0.015625)"/>
       </defs>
       <use xlink:href="#DejaVuSans-32"/>
       <use xlink:href="#DejaVuSans-34" transform="translate(63.623047 0)"/>
       <use xlink:href="#DejaVuSans-30" transform="translate(127.246094 0)"/>
       <use xlink:href="#DejaVuSans-30" transform="translate(190.869141 0)"/>
      </g>
     </g>
    </g>
    <g id="xtick_4">
     <g id="line2d_4">
      <g>
       <use xlink:href="#mc74f61fcfc" x="526.979477" y="606.04" style="stroke: #000000; stroke-width: 0.8"/>
      </g>
     </g>
     <g id="text_4">
      <!-- 2600 -->
      <g transform="translate(514.254477 620.638438) scale(0.1 -0.1)">
       <defs>
        <path id="DejaVuSans-36" d="M 2113 2584 
Q 1688 2584 1439 2293 
Q 1191 2003 1191 1497 
Q 1191 994 1439 701 
Q 1688 409 2113 409 
Q 2538 409 2786 701 
Q 3034 994 3034 1497 
Q 3034 2003 2786 2293 
Q 2538 2584 2113 2584 
z
M 3366 4563 
L 3366 3988 
Q 3128 4100 2886 4159 
Q 2644 4219 2406 4219 
Q 1781 4219 1451 3797 
Q 1122 3375 1075 2522 
Q 1259 2794 1537 2939 
Q 1816 3084 2150 3084 
Q 2853 3084 3261 2657 
Q 3669 2231 3669 1497 
Q 3669 778 3244 343 
Q 2819 -91 2113 -91 
Q 1303 -91 875 529 
Q 447 1150 447 2328 
Q 447 3434 972 4092 
Q 1497 4750 2381 4750 
Q 2619 4750 2861 4703 
Q 3103 4656 3366 4563 
z
" transform="scale(0.015625)"/>
       </defs>
       <use xlink:href="#DejaVuSans-32"/>
       <use xlink:href="#DejaVuSans-36" transform="translate(63.623047 0)"/>
       <use xlink:href="#DejaVuSans-30" transform="translate(127.246094 0)"/>
       <use xlink:href="#DejaVuSans-30" transform="translate(190.869141 0)"/>
      </g>
     </g>
    </g>
    <g id="xtick_5">
     <g id="line2d_5">
      <g>
       <use xlink:href="#mc74f61fcfc" x="671.966376" y="606.04" style="stroke: #000000; stroke-width: 0.8"/>
      </g>
     </g>
     <g id="text_5">
      <!-- 2800 -->
      <g transform="translate(659.241376 620.638438) scale(0.1 -0.1)">
       <defs>
        <path id="DejaVuSans-38" d="M 2034 2216 
Q 1584 2216 1326 1975 
Q 1069 1734 1069 1313 
Q 1069 891 1326 650 
Q 1584 409 2034 409 
Q 2484 409 2743 651 
Q 3003 894 3003 1313 
Q 3003 1734 2745 1975 
Q 2488 2216 2034 2216 
z
M 1403 2484 
Q 997 2584 770 2862 
Q 544 3141 544 3541 
Q 544 4100 942 4425 
Q 1341 4750 2034 4750 
Q 2731 4750 3128 4425 
Q 3525 4100 3525 3541 
Q 3525 3141 3298 2862 
Q 3072 2584 2669 2484 
Q 3125 2378 3379 2068 
Q 3634 1759 3634 1313 
Q 3634 634 3220 271 
Q 2806 -91 2034 -91 
Q 1263 -91 848 271 
Q 434 634 434 1313 
Q 434 1759 690 2068 
Q 947 2378 1403 2484 
z
M 1172 3481 
Q 1172 3119 1398 2916 
Q 1625 2713 2034 2713 
Q 2441 2713 2670 2916 
Q 2900 3119 2900 3481 
Q 2900 3844 2670 4047 
Q 2441 4250 2034 4250 
Q 1625 4250 1398 4047 
Q 1172 3844 1172 3481 
z
" transform="scale(0.015625)"/>
       </defs>
       <use xlink:href="#DejaVuSans-32"/>
       <use xlink:href="#DejaVuSans-38" transform="translate(63.623047 0)"/>
       <use xlink:href="#DejaVuSans-30" transform="translate(127.246094 0)"/>
       <use xlink:href="#DejaVuSans-30" transform="translate(190.869141 0)"/>
      </g>
     </g>
    </g>
    <g id="xtick_6">
     <g id="line2d_6">
      <g>
       <use xlink:href="#mc74f61fcfc" x="816.953275" y="606.04" style="stroke: #000000; stroke-width: 0.8"/>
      </g>
     </g>
     <g id="text_6">
      <!-- 3000 -->
      <g transform="translate(804.228275 620.638438) scale(0.1 -0.1)">
       <defs>
        <path id="DejaVuSans-33" d="M 2597 2516 
Q 3050 2419 3304 2112 
Q 3559 1806 3559 1356 
Q 3559 666 3084 287 
Q 2609 -91 1734 -91 
Q 1441 -91 1130 -33 
Q 819 25 488 141 
L 488 750 
Q 750 597 1062 519 
Q 1375 441 1716 441 
Q 2309 441 2620 675 
Q 2931 909 2931 1356 
Q 2931 1769 2642 2001 
Q 2353 2234 1838 2234 
L 1294 2234 
L 1294 2753 
L 1863 2753 
Q 2328 2753 2575 2939 
Q 2822 3125 2822 3475 
Q 2822 3834 2567 4026 
Q 2313 4219 1838 4219 
Q 1578 4219 1281 4162 
Q 984 4106 628 3988 
L 628 4550 
Q 988 4650 1302 4700 
Q 1616 4750 1894 4750 
Q 2613 4750 3031 4423 
Q 3450 4097 3450 3541 
Q 3450 3153 3228 2886 
Q 3006 2619 2597 2516 
z
" transform="scale(0.015625)"/>
       </defs>
       <use xlink:href="#DejaVuSans-33"/>
       <use xlink:href="#DejaVuSans-30" transform="translate(63.623047 0)"/>
       <use xlink:href="#DejaVuSans-30" transform="translate(127.246094 0)"/>
       <use xlink:href="#DejaVuSans-30" transform="translate(190.869141 0)"/>
      </g>
     </g>
    </g>
    <g id="text_7">
     <!-- Size (#edges) -->
     <g transform="translate(419.435246 634.316563) scale(0.1 -0.1)">
      <defs>
       <path id="DejaVuSans-53" d="M 3425 4513 
L 3425 3897 
Q 3066 4069 2747 4153 
Q 2428 4238 2131 4238 
Q 1616 4238 1336 4038 
Q 1056 3838 1056 3469 
Q 1056 3159 1242 3001 
Q 1428 2844 1947 2747 
L 2328 2669 
Q 3034 2534 3370 2195 
Q 3706 1856 3706 1288 
Q 3706 609 3251 259 
Q 2797 -91 1919 -91 
Q 1588 -91 1214 -16 
Q 841 59 441 206 
L 441 856 
Q 825 641 1194 531 
Q 1563 422 1919 422 
Q 2459 422 2753 634 
Q 3047 847 3047 1241 
Q 3047 1584 2836 1778 
Q 2625 1972 2144 2069 
L 1759 2144 
Q 1053 2284 737 2584 
Q 422 2884 422 3419 
Q 422 4038 858 4394 
Q 1294 4750 2059 4750 
Q 2388 4750 2728 4690 
Q 3069 4631 3425 4513 
z
" transform="scale(0.015625)"/>
       <path id="DejaVuSans-69" d="M 603 3500 
L 1178 3500 
L 1178 0 
L 603 0 
L 603 3500 
z
M 603 4863 
L 1178 4863 
L 1178 4134 
L 603 4134 
L 603 4863 
z
" transform="scale(0.015625)"/>
       <path id="DejaVuSans-7a" d="M 353 3500 
L 3084 3500 
L 3084 2975 
L 922 459 
L 3084 459 
L 3084 0 
L 275 0 
L 275 525 
L 2438 3041 
L 353 3041 
L 353 3500 
z
" transform="scale(0.015625)"/>
       <path id="DejaVuSans-65" d="M 3597 1894 
L 3597 1613 
L 953 1613 
Q 991 1019 1311 708 
Q 1631 397 2203 397 
Q 2534 397 2845 478 
Q 3156 559 3463 722 
L 3463 178 
Q 3153 47 2828 -22 
Q 2503 -91 2169 -91 
Q 1331 -91 842 396 
Q 353 884 353 1716 
Q 353 2575 817 3079 
Q 1281 3584 2069 3584 
Q 2775 3584 3186 3129 
Q 3597 2675 3597 1894 
z
M 3022 2063 
Q 3016 2534 2758 2815 
Q 2500 3097 2075 3097 
Q 1594 3097 1305 2825 
Q 1016 2553 972 2059 
L 3022 2063 
z
" transform="scale(0.015625)"/>
       <path id="DejaVuSans-20" transform="scale(0.015625)"/>
       <path id="DejaVuSans-28" d="M 1984 4856 
Q 1566 4138 1362 3434 
Q 1159 2731 1159 2009 
Q 1159 1288 1364 580 
Q 1569 -128 1984 -844 
L 1484 -844 
Q 1016 -109 783 600 
Q 550 1309 550 2009 
Q 550 2706 781 3412 
Q 1013 4119 1484 4856 
L 1984 4856 
z
" transform="scale(0.015625)"/>
       <path id="DejaVuSans-23" d="M 3272 2816 
L 2363 2816 
L 2100 1772 
L 3016 1772 
L 3272 2816 
z
M 2803 4594 
L 2478 3297 
L 3391 3297 
L 3719 4594 
L 4219 4594 
L 3897 3297 
L 4872 3297 
L 4872 2816 
L 3775 2816 
L 3519 1772 
L 4513 1772 
L 4513 1294 
L 3397 1294 
L 3072 0 
L 2572 0 
L 2894 1294 
L 1978 1294 
L 1656 0 
L 1153 0 
L 1478 1294 
L 494 1294 
L 494 1772 
L 1594 1772 
L 1856 2816 
L 850 2816 
L 850 3297 
L 1978 3297 
L 2297 4594 
L 2803 4594 
z
" transform="scale(0.015625)"/>
       <path id="DejaVuSans-64" d="M 2906 2969 
L 2906 4863 
L 3481 4863 
L 3481 0 
L 2906 0 
L 2906 525 
Q 2725 213 2448 61 
Q 2172 -91 1784 -91 
Q 1150 -91 751 415 
Q 353 922 353 1747 
Q 353 2572 751 3078 
Q 1150 3584 1784 3584 
Q 2172 3584 2448 3432 
Q 2725 3281 2906 2969 
z
M 947 1747 
Q 947 1113 1208 752 
Q 1469 391 1925 391 
Q 2381 391 2643 752 
Q 2906 1113 2906 1747 
Q 2906 2381 2643 2742 
Q 2381 3103 1925 3103 
Q 1469 3103 1208 2742 
Q 947 2381 947 1747 
z
" transform="scale(0.015625)"/>
       <path id="DejaVuSans-67" d="M 2906 1791 
Q 2906 2416 2648 2759 
Q 2391 3103 1925 3103 
Q 1463 3103 1205 2759 
Q 947 2416 947 1791 
Q 947 1169 1205 825 
Q 1463 481 1925 481 
Q 2391 481 2648 825 
Q 2906 1169 2906 1791 
z
M 3481 434 
Q 3481 -459 3084 -895 
Q 2688 -1331 1869 -1331 
Q 1566 -1331 1297 -1286 
Q 1028 -1241 775 -1147 
L 775 -588 
Q 1028 -725 1275 -790 
Q 1522 -856 1778 -856 
Q 2344 -856 2625 -561 
Q 2906 -266 2906 331 
L 2906 616 
Q 2728 306 2450 153 
Q 2172 0 1784 0 
Q 1141 0 747 490 
Q 353 981 353 1791 
Q 353 2603 747 3093 
Q 1141 3584 1784 3584 
Q 2172 3584 2450 3431 
Q 2728 3278 2906 2969 
L 2906 3500 
L 3481 3500 
L 3481 434 
z
" transform="scale(0.015625)"/>
       <path id="DejaVuSans-73" d="M 2834 3397 
L 2834 2853 
Q 2591 2978 2328 3040 
Q 2066 3103 1784 3103 
Q 1356 3103 1142 2972 
Q 928 2841 928 2578 
Q 928 2378 1081 2264 
Q 1234 2150 1697 2047 
L 1894 2003 
Q 2506 1872 2764 1633 
Q 3022 1394 3022 966 
Q 3022 478 2636 193 
Q 2250 -91 1575 -91 
Q 1294 -91 989 -36 
Q 684 19 347 128 
L 347 722 
Q 666 556 975 473 
Q 1284 391 1588 391 
Q 1994 391 2212 530 
Q 2431 669 2431 922 
Q 2431 1156 2273 1281 
Q 2116 1406 1581 1522 
L 1381 1569 
Q 847 1681 609 1914 
Q 372 2147 372 2553 
Q 372 3047 722 3315 
Q 1072 3584 1716 3584 
Q 2034 3584 2315 3537 
Q 2597 3491 2834 3397 
z
" transform="scale(0.015625)"/>
       <path id="DejaVuSans-29" d="M 513 4856 
L 1013 4856 
Q 1481 4119 1714 3412 
Q 1947 2706 1947 2009 
Q 1947 1309 1714 600 
Q 1481 -109 1013 -844 
L 513 -844 
Q 928 -128 1133 580 
Q 1338 1288 1338 2009 
Q 1338 2731 1133 3434 
Q 928 4138 513 4856 
z
" transform="scale(0.015625)"/>
      </defs>
      <use xlink:href="#DejaVuSans-53"/>
      <use xlink:href="#DejaVuSans-69" transform="translate(63.476562 0)"/>
      <use xlink:href="#DejaVuSans-7a" transform="translate(91.259766 0)"/>
      <use xlink:href="#DejaVuSans-65" transform="translate(143.75 0)"/>
      <use xlink:href="#DejaVuSans-20" transform="translate(205.273438 0)"/>
      <use xlink:href="#DejaVuSans-28" transform="translate(237.060547 0)"/>
      <use xlink:href="#DejaVuSans-23" transform="translate(276.074219 0)"/>
      <use xlink:href="#DejaVuSans-65" transform="translate(359.863281 0)"/>
      <use xlink:href="#DejaVuSans-64" transform="translate(421.386719 0)"/>
      <use xlink:href="#DejaVuSans-67" transform="translate(484.863281 0)"/>
      <use xlink:href="#DejaVuSans-65" transform="translate(548.339844 0)"/>
      <use xlink:href="#DejaVuSans-73" transform="translate(609.863281 0)"/>
      <use xlink:href="#DejaVuSans-29" transform="translate(661.962891 0)"/>
     </g>
    </g>
   </g>
   <g id="matplotlib.axis_2">
    <g id="ytick_1">
     <g id="line2d_7">
      <defs>
       <path id="m7eb1c47a8f" d="M 0 0 
L -3.5 0 
" style="stroke: #000000; stroke-width: 0.8"/>
      </defs>
      <g>
       <use xlink:href="#m7eb1c47a8f" x="55.772054" y="601.44822" style="stroke: #000000; stroke-width: 0.8"/>
      </g>
     </g>
     <g id="text_8">
      <!-- $\mathdefault{10^{-2}}$ -->
      <g transform="translate(25.272054 605.247439) scale(0.1 -0.1)">
       <defs>
        <path id="DejaVuSans-31" d="M 794 531 
L 1825 531 
L 1825 4091 
L 703 3866 
L 703 4441 
L 1819 4666 
L 2450 4666 
L 2450 531 
L 3481 531 
L 3481 0 
L 794 0 
L 794 531 
z
" transform="scale(0.015625)"/>
        <path id="DejaVuSans-2212" d="M 678 2272 
L 4684 2272 
L 4684 1741 
L 678 1741 
L 678 2272 
z
" transform="scale(0.015625)"/>
       </defs>
       <use xlink:href="#DejaVuSans-31" transform="translate(0 0.765625)"/>
       <use xlink:href="#DejaVuSans-30" transform="translate(63.623047 0.765625)"/>
       <use xlink:href="#DejaVuSans-2212" transform="translate(128.203125 39.046875) scale(0.7)"/>
       <use xlink:href="#DejaVuSans-32" transform="translate(186.855469 39.046875) scale(0.7)"/>
      </g>
     </g>
    </g>
    <g id="ytick_2">
     <g id="line2d_8">
      <g>
       <use xlink:href="#m7eb1c47a8f" x="55.772054" y="326.968144" style="stroke: #000000; stroke-width: 0.8"/>
      </g>
     </g>
     <g id="text_9">
      <!-- $\mathdefault{10^{-1}}$ -->
      <g transform="translate(25.272054 330.767363) scale(0.1 -0.1)">
       <use xlink:href="#DejaVuSans-31" transform="translate(0 0.684375)"/>
       <use xlink:href="#DejaVuSans-30" transform="translate(63.623047 0.684375)"/>
       <use xlink:href="#DejaVuSans-2212" transform="translate(128.203125 38.965625) scale(0.7)"/>
       <use xlink:href="#DejaVuSans-31" transform="translate(186.855469 38.965625) scale(0.7)"/>
      </g>
     </g>
    </g>
    <g id="ytick_3">
     <g id="line2d_9">
      <g>
       <use xlink:href="#m7eb1c47a8f" x="55.772054" y="52.488069" style="stroke: #000000; stroke-width: 0.8"/>
      </g>
     </g>
     <g id="text_10">
      <!-- $\mathdefault{10^{0}}$ -->
      <g transform="translate(31.172054 56.287288) scale(0.1 -0.1)">
       <use xlink:href="#DejaVuSans-31" transform="translate(0 0.765625)"/>
       <use xlink:href="#DejaVuSans-30" transform="translate(63.623047 0.765625)"/>
       <use xlink:href="#DejaVuSans-30" transform="translate(128.203125 39.046875) scale(0.7)"/>
      </g>
     </g>
    </g>
    <g id="ytick_4">
     <g id="line2d_10">
      <defs>
       <path id="m4ace82f8a3" d="M 0 0 
L -2 0 
" style="stroke: #000000; stroke-width: 0.6"/>
      </defs>
      <g>
       <use xlink:href="#m4ace82f8a3" x="55.772054" y="518.821484" style="stroke: #000000; stroke-width: 0.6"/>
      </g>
     </g>
    </g>
    <g id="ytick_5">
     <g id="line2d_11">
      <g>
       <use xlink:href="#m4ace82f8a3" x="55.772054" y="470.487942" style="stroke: #000000; stroke-width: 0.6"/>
      </g>
     </g>
    </g>
    <g id="ytick_6">
     <g id="line2d_12">
      <g>
       <use xlink:href="#m4ace82f8a3" x="55.772054" y="436.194748" style="stroke: #000000; stroke-width: 0.6"/>
      </g>
     </g>
    </g>
    <g id="ytick_7">
     <g id="line2d_13">
      <g>
       <use xlink:href="#m4ace82f8a3" x="55.772054" y="409.59488" style="stroke: #000000; stroke-width: 0.6"/>
      </g>
     </g>
    </g>
    <g id="ytick_8">
     <g id="line2d_14">
      <g>
       <use xlink:href="#m4ace82f8a3" x="55.772054" y="387.861206" style="stroke: #000000; stroke-width: 0.6"/>
      </g>
     </g>
    </g>
    <g id="ytick_9">
     <g id="line2d_15">
      <g>
       <use xlink:href="#m4ace82f8a3" x="55.772054" y="369.485646" style="stroke: #000000; stroke-width: 0.6"/>
      </g>
     </g>
    </g>
    <g id="ytick_10">
     <g id="line2d_16">
      <g>
       <use xlink:href="#m4ace82f8a3" x="55.772054" y="353.568012" style="stroke: #000000; stroke-width: 0.6"/>
      </g>
     </g>
    </g>
    <g id="ytick_11">
     <g id="line2d_17">
      <g>
       <use xlink:href="#m4ace82f8a3" x="55.772054" y="339.527664" style="stroke: #000000; stroke-width: 0.6"/>
      </g>
     </g>
    </g>
    <g id="ytick_12">
     <g id="line2d_18">
      <g>
       <use xlink:href="#m4ace82f8a3" x="55.772054" y="244.341409" style="stroke: #000000; stroke-width: 0.6"/>
      </g>
     </g>
    </g>
    <g id="ytick_13">
     <g id="line2d_19">
      <g>
       <use xlink:href="#m4ace82f8a3" x="55.772054" y="196.007867" style="stroke: #000000; stroke-width: 0.6"/>
      </g>
     </g>
    </g>
    <g id="ytick_14">
     <g id="line2d_20">
      <g>
       <use xlink:href="#m4ace82f8a3" x="55.772054" y="161.714673" style="stroke: #000000; stroke-width: 0.6"/>
      </g>
     </g>
    </g>
    <g id="ytick_15">
     <g id="line2d_21">
      <g>
       <use xlink:href="#m4ace82f8a3" x="55.772054" y="135.114805" style="stroke: #000000; stroke-width: 0.6"/>
      </g>
     </g>
    </g>
    <g id="ytick_16">
     <g id="line2d_22">
      <g>
       <use xlink:href="#m4ace82f8a3" x="55.772054" y="113.381131" style="stroke: #000000; stroke-width: 0.6"/>
      </g>
     </g>
    </g>
    <g id="ytick_17">
     <g id="line2d_23">
      <g>
       <use xlink:href="#m4ace82f8a3" x="55.772054" y="95.005571" style="stroke: #000000; stroke-width: 0.6"/>
      </g>
     </g>
    </g>
    <g id="ytick_18">
     <g id="line2d_24">
      <g>
       <use xlink:href="#m4ace82f8a3" x="55.772054" y="79.087937" style="stroke: #000000; stroke-width: 0.6"/>
      </g>
     </g>
    </g>
    <g id="ytick_19">
     <g id="line2d_25">
      <g>
       <use xlink:href="#m4ace82f8a3" x="55.772054" y="65.047589" style="stroke: #000000; stroke-width: 0.6"/>
      </g>
     </g>
    </g>
    <g id="text_11">
     <!-- Seconds spent -->
     <g transform="translate(19.192366 353.040469) rotate(-90) scale(0.1 -0.1)">
      <defs>
       <path id="DejaVuSans-63" d="M 3122 3366 
L 3122 2828 
Q 2878 2963 2633 3030 
Q 2388 3097 2138 3097 
Q 1578 3097 1268 2742 
Q 959 2388 959 1747 
Q 959 1106 1268 751 
Q 1578 397 2138 397 
Q 2388 397 2633 464 
Q 2878 531 3122 666 
L 3122 134 
Q 2881 22 2623 -34 
Q 2366 -91 2075 -91 
Q 1284 -91 818 406 
Q 353 903 353 1747 
Q 353 2603 823 3093 
Q 1294 3584 2113 3584 
Q 2378 3584 2631 3529 
Q 2884 3475 3122 3366 
z
" transform="scale(0.015625)"/>
       <path id="DejaVuSans-6f" d="M 1959 3097 
Q 1497 3097 1228 2736 
Q 959 2375 959 1747 
Q 959 1119 1226 758 
Q 1494 397 1959 397 
Q 2419 397 2687 759 
Q 2956 1122 2956 1747 
Q 2956 2369 2687 2733 
Q 2419 3097 1959 3097 
z
M 1959 3584 
Q 2709 3584 3137 3096 
Q 3566 2609 3566 1747 
Q 3566 888 3137 398 
Q 2709 -91 1959 -91 
Q 1206 -91 779 398 
Q 353 888 353 1747 
Q 353 2609 779 3096 
Q 1206 3584 1959 3584 
z
" transform="scale(0.015625)"/>
       <path id="DejaVuSans-6e" d="M 3513 2113 
L 3513 0 
L 2938 0 
L 2938 2094 
Q 2938 2591 2744 2837 
Q 2550 3084 2163 3084 
Q 1697 3084 1428 2787 
Q 1159 2491 1159 1978 
L 1159 0 
L 581 0 
L 581 3500 
L 1159 3500 
L 1159 2956 
Q 1366 3272 1645 3428 
Q 1925 3584 2291 3584 
Q 2894 3584 3203 3211 
Q 3513 2838 3513 2113 
z
" transform="scale(0.015625)"/>
       <path id="DejaVuSans-70" d="M 1159 525 
L 1159 -1331 
L 581 -1331 
L 581 3500 
L 1159 3500 
L 1159 2969 
Q 1341 3281 1617 3432 
Q 1894 3584 2278 3584 
Q 2916 3584 3314 3078 
Q 3713 2572 3713 1747 
Q 3713 922 3314 415 
Q 2916 -91 2278 -91 
Q 1894 -91 1617 61 
Q 1341 213 1159 525 
z
M 3116 1747 
Q 3116 2381 2855 2742 
Q 2594 3103 2138 3103 
Q 1681 3103 1420 2742 
Q 1159 2381 1159 1747 
Q 1159 1113 1420 752 
Q 1681 391 2138 391 
Q 2594 391 2855 752 
Q 3116 1113 3116 1747 
z
" transform="scale(0.015625)"/>
       <path id="DejaVuSans-74" d="M 1172 4494 
L 1172 3500 
L 2356 3500 
L 2356 3053 
L 1172 3053 
L 1172 1153 
Q 1172 725 1289 603 
Q 1406 481 1766 481 
L 2356 481 
L 2356 0 
L 1766 0 
Q 1100 0 847 248 
Q 594 497 594 1153 
L 594 3053 
L 172 3053 
L 172 3500 
L 594 3500 
L 594 4494 
L 1172 4494 
z
" transform="scale(0.015625)"/>
      </defs>
      <use xlink:href="#DejaVuSans-53"/>
      <use xlink:href="#DejaVuSans-65" transform="translate(63.476562 0)"/>
      <use xlink:href="#DejaVuSans-63" transform="translate(125 0)"/>
      <use xlink:href="#DejaVuSans-6f" transform="translate(179.980469 0)"/>
      <use xlink:href="#DejaVuSans-6e" transform="translate(241.162109 0)"/>
      <use xlink:href="#DejaVuSans-64" transform="translate(304.541016 0)"/>
      <use xlink:href="#DejaVuSans-73" transform="translate(368.017578 0)"/>
      <use xlink:href="#DejaVuSans-20" transform="translate(420.117188 0)"/>
      <use xlink:href="#DejaVuSans-73" transform="translate(451.904297 0)"/>
      <use xlink:href="#DejaVuSans-70" transform="translate(504.003906 0)"/>
      <use xlink:href="#DejaVuSans-65" transform="translate(567.480469 0)"/>
      <use xlink:href="#DejaVuSans-6e" transform="translate(629.003906 0)"/>
      <use xlink:href="#DejaVuSans-74" transform="translate(692.382812 0)"/>
     </g>
    </g>
   </g>
   <g id="LineCollection_1">
    <path d="M 92.018779 538.194583 
L 92.018779 524.93591 
" clip-path="url(#p731d2cf84c)" style="fill: none; stroke: #6666ff; stroke-width: 1.5"/>
    <path d="M 128.265504 518.821484 
L 128.265504 513.005444 
" clip-path="url(#p731d2cf84c)" style="fill: none; stroke: #6666ff; stroke-width: 1.5"/>
    <path d="M 164.512228 502.161136 
L 164.512228 483.047461 
" clip-path="url(#p731d2cf84c)" style="fill: none; stroke: #6666ff; stroke-width: 1.5"/>
    <path d="M 200.758953 478.71225 
L 200.758953 470.487942 
" clip-path="url(#p731d2cf84c)" style="fill: none; stroke: #6666ff; stroke-width: 1.5"/>
    <path d="M 237.005678 459.126475 
L 237.005678 455.567847 
" clip-path="url(#p731d2cf84c)" style="fill: none; stroke: #6666ff; stroke-width: 1.5"/>
    <path d="M 273.252403 436.194748 
L 273.252403 433.251261 
" clip-path="url(#p731d2cf84c)" style="fill: none; stroke: #6666ff; stroke-width: 1.5"/>
    <path d="M 309.499128 416.970749 
L 309.499128 407.234305 
" clip-path="url(#p731d2cf84c)" style="fill: none; stroke: #6666ff; stroke-width: 1.5"/>
    <path d="M 345.745852 393.975632 
L 345.745852 391.902447 
" clip-path="url(#p731d2cf84c)" style="fill: none; stroke: #6666ff; stroke-width: 1.5"/>
    <path d="M 381.992577 369.485646 
L 381.992577 367.794764 
" clip-path="url(#p731d2cf84c)" style="fill: none; stroke: #6666ff; stroke-width: 1.5"/>
    <path d="M 418.239302 349.179596 
L 418.239302 347.751972 
" clip-path="url(#p731d2cf84c)" style="fill: none; stroke: #6666ff; stroke-width: 1.5"/>
    <path d="M 454.486027 328.166197 
L 454.486027 326.968144 
" clip-path="url(#p731d2cf84c)" style="fill: none; stroke: #6666ff; stroke-width: 1.5"/>
    <path d="M 490.732752 303.264092 
L 490.732752 300.368277 
" clip-path="url(#p731d2cf84c)" style="fill: none; stroke: #6666ff; stroke-width: 1.5"/>
    <path d="M 526.979477 281.85656 
L 526.979477 277.055703 
" clip-path="url(#p731d2cf84c)" style="fill: none; stroke: #6666ff; stroke-width: 1.5"/>
    <path d="M 563.226201 256.24051 
L 563.226201 251.717277 
" clip-path="url(#p731d2cf84c)" style="fill: none; stroke: #6666ff; stroke-width: 1.5"/>
    <path d="M 599.472926 235.720411 
L 599.472926 234.068581 
" clip-path="url(#p731d2cf84c)" style="fill: none; stroke: #6666ff; stroke-width: 1.5"/>
    <path d="M 635.719651 206.814337 
L 635.719651 200.87406 
" clip-path="url(#p731d2cf84c)" style="fill: none; stroke: #6666ff; stroke-width: 1.5"/>
    <path d="M 671.966376 180.737682 
L 671.966376 180.040574 
" clip-path="url(#p731d2cf84c)" style="fill: none; stroke: #6666ff; stroke-width: 1.5"/>
    <path d="M 708.213101 145.573738 
L 708.213101 144.022239 
" clip-path="url(#p731d2cf84c)" style="fill: none; stroke: #6666ff; stroke-width: 1.5"/>
    <path d="M 744.459826 112.78659 
L 744.459826 111.215494 
" clip-path="url(#p731d2cf84c)" style="fill: none; stroke: #6666ff; stroke-width: 1.5"/>
    <path d="M 780.70655 82.872546 
L 780.70655 82.411998 
" clip-path="url(#p731d2cf84c)" style="fill: none; stroke: #6666ff; stroke-width: 1.5"/>
    <path d="M 816.953275 54.896337 
L 816.953275 53.205455 
" clip-path="url(#p731d2cf84c)" style="fill: none; stroke: #6666ff; stroke-width: 1.5"/>
   </g>
   <g id="line2d_26">
    <defs>
     <path id="m72b02873c2" d="M 3 0 
L -3 -0 
" style="stroke: #6666ff"/>
    </defs>
    <g clip-path="url(#p731d2cf84c)">
     <use xlink:href="#m72b02873c2" x="92.018779" y="538.194583" style="fill: #6666ff; stroke: #6666ff"/>
     <use xlink:href="#m72b02873c2" x="128.265504" y="518.821484" style="fill: #6666ff; stroke: #6666ff"/>
     <use xlink:href="#m72b02873c2" x="164.512228" y="502.161136" style="fill: #6666ff; stroke: #6666ff"/>
     <use xlink:href="#m72b02873c2" x="200.758953" y="478.71225" style="fill: #6666ff; stroke: #6666ff"/>
     <use xlink:href="#m72b02873c2" x="237.005678" y="459.126475" style="fill: #6666ff; stroke: #6666ff"/>
     <use xlink:href="#m72b02873c2" x="273.252403" y="436.194748" style="fill: #6666ff; stroke: #6666ff"/>
     <use xlink:href="#m72b02873c2" x="309.499128" y="416.970749" style="fill: #6666ff; stroke: #6666ff"/>
     <use xlink:href="#m72b02873c2" x="345.745852" y="393.975632" style="fill: #6666ff; stroke: #6666ff"/>
     <use xlink:href="#m72b02873c2" x="381.992577" y="369.485646" style="fill: #6666ff; stroke: #6666ff"/>
     <use xlink:href="#m72b02873c2" x="418.239302" y="349.179596" style="fill: #6666ff; stroke: #6666ff"/>
     <use xlink:href="#m72b02873c2" x="454.486027" y="328.166197" style="fill: #6666ff; stroke: #6666ff"/>
     <use xlink:href="#m72b02873c2" x="490.732752" y="303.264092" style="fill: #6666ff; stroke: #6666ff"/>
     <use xlink:href="#m72b02873c2" x="526.979477" y="281.85656" style="fill: #6666ff; stroke: #6666ff"/>
     <use xlink:href="#m72b02873c2" x="563.226201" y="256.24051" style="fill: #6666ff; stroke: #6666ff"/>
     <use xlink:href="#m72b02873c2" x="599.472926" y="235.720411" style="fill: #6666ff; stroke: #6666ff"/>
     <use xlink:href="#m72b02873c2" x="635.719651" y="206.814337" style="fill: #6666ff; stroke: #6666ff"/>
     <use xlink:href="#m72b02873c2" x="671.966376" y="180.737682" style="fill: #6666ff; stroke: #6666ff"/>
     <use xlink:href="#m72b02873c2" x="708.213101" y="145.573738" style="fill: #6666ff; stroke: #6666ff"/>
     <use xlink:href="#m72b02873c2" x="744.459826" y="112.78659" style="fill: #6666ff; stroke: #6666ff"/>
     <use xlink:href="#m72b02873c2" x="780.70655" y="82.872546" style="fill: #6666ff; stroke: #6666ff"/>
     <use xlink:href="#m72b02873c2" x="816.953275" y="54.896337" style="fill: #6666ff; stroke: #6666ff"/>
    </g>
   </g>
   <g id="line2d_27">
    <g clip-path="url(#p731d2cf84c)">
     <use xlink:href="#m72b02873c2" x="92.018779" y="524.93591" style="fill: #6666ff; stroke: #6666ff"/>
     <use xlink:href="#m72b02873c2" x="128.265504" y="513.005444" style="fill: #6666ff; stroke: #6666ff"/>
     <use xlink:href="#m72b02873c2" x="164.512228" y="483.047461" style="fill: #6666ff; stroke: #6666ff"/>
     <use xlink:href="#m72b02873c2" x="200.758953" y="470.487942" style="fill: #6666ff; stroke: #6666ff"/>
     <use xlink:href="#m72b02873c2" x="237.005678" y="455.567847" style="fill: #6666ff; stroke: #6666ff"/>
     <use xlink:href="#m72b02873c2" x="273.252403" y="433.251261" style="fill: #6666ff; stroke: #6666ff"/>
     <use xlink:href="#m72b02873c2" x="309.499128" y="407.234305" style="fill: #6666ff; stroke: #6666ff"/>
     <use xlink:href="#m72b02873c2" x="345.745852" y="391.902447" style="fill: #6666ff; stroke: #6666ff"/>
     <use xlink:href="#m72b02873c2" x="381.992577" y="367.794764" style="fill: #6666ff; stroke: #6666ff"/>
     <use xlink:href="#m72b02873c2" x="418.239302" y="347.751972" style="fill: #6666ff; stroke: #6666ff"/>
     <use xlink:href="#m72b02873c2" x="454.486027" y="326.968144" style="fill: #6666ff; stroke: #6666ff"/>
     <use xlink:href="#m72b02873c2" x="490.732752" y="300.368277" style="fill: #6666ff; stroke: #6666ff"/>
     <use xlink:href="#m72b02873c2" x="526.979477" y="277.055703" style="fill: #6666ff; stroke: #6666ff"/>
     <use xlink:href="#m72b02873c2" x="563.226201" y="251.717277" style="fill: #6666ff; stroke: #6666ff"/>
     <use xlink:href="#m72b02873c2" x="599.472926" y="234.068581" style="fill: #6666ff; stroke: #6666ff"/>
     <use xlink:href="#m72b02873c2" x="635.719651" y="200.87406" style="fill: #6666ff; stroke: #6666ff"/>
     <use xlink:href="#m72b02873c2" x="671.966376" y="180.040574" style="fill: #6666ff; stroke: #6666ff"/>
     <use xlink:href="#m72b02873c2" x="708.213101" y="144.022239" style="fill: #6666ff; stroke: #6666ff"/>
     <use xlink:href="#m72b02873c2" x="744.459826" y="111.215494" style="fill: #6666ff; stroke: #6666ff"/>
     <use xlink:href="#m72b02873c2" x="780.70655" y="82.411998" style="fill: #6666ff; stroke: #6666ff"/>
     <use xlink:href="#m72b02873c2" x="816.953275" y="53.205455" style="fill: #6666ff; stroke: #6666ff"/>
    </g>
   </g>
   <g id="LineCollection_2">
    <path d="M 92.018779 579.714545 
L 92.018779 570.17304 
" clip-path="url(#p731d2cf84c)" style="fill: none; stroke: #ff6600; stroke-width: 1.5"/>
    <path d="M 128.265504 561.338986 
L 128.265504 561.338986 
" clip-path="url(#p731d2cf84c)" style="fill: none; stroke: #ff6600; stroke-width: 1.5"/>
    <path d="M 164.512228 545.421352 
L 164.512228 538.194583 
" clip-path="url(#p731d2cf84c)" style="fill: none; stroke: #ff6600; stroke-width: 1.5"/>
    <path d="M 200.758953 531.381003 
L 200.758953 518.821484 
" clip-path="url(#p731d2cf84c)" style="fill: none; stroke: #ff6600; stroke-width: 1.5"/>
    <path d="M 237.005678 518.821484 
L 237.005678 507.460017 
" clip-path="url(#p731d2cf84c)" style="fill: none; stroke: #ff6600; stroke-width: 1.5"/>
    <path d="M 273.252403 502.161136 
L 273.252403 497.08781 
" clip-path="url(#p731d2cf84c)" style="fill: none; stroke: #ff6600; stroke-width: 1.5"/>
    <path d="M 309.499128 487.546304 
L 309.499128 483.047461 
" clip-path="url(#p731d2cf84c)" style="fill: none; stroke: #ff6600; stroke-width: 1.5"/>
    <path d="M 345.745852 466.579225 
L 345.745852 466.579225 
" clip-path="url(#p731d2cf84c)" style="fill: none; stroke: #ff6600; stroke-width: 1.5"/>
    <path d="M 381.992577 448.754268 
L 381.992577 442.309175 
" clip-path="url(#p731d2cf84c)" style="fill: none; stroke: #ff6600; stroke-width: 1.5"/>
    <path d="M 418.239302 430.378708 
L 418.239302 430.378708 
" clip-path="url(#p731d2cf84c)" style="fill: none; stroke: #ff6600; stroke-width: 1.5"/>
    <path d="M 454.486027 414.461074 
L 454.486027 414.461074 
" clip-path="url(#p731d2cf84c)" style="fill: none; stroke: #ff6600; stroke-width: 1.5"/>
    <path d="M 490.732752 398.233413 
L 490.732752 396.085514 
" clip-path="url(#p731d2cf84c)" style="fill: none; stroke: #ff6600; stroke-width: 1.5"/>
    <path d="M 526.979477 380.16788 
L 526.979477 367.794764 
" clip-path="url(#p731d2cf84c)" style="fill: none; stroke: #ff6600; stroke-width: 1.5"/>
    <path d="M 563.226201 362.861432 
L 563.226201 356.586026 
" clip-path="url(#p731d2cf84c)" style="fill: none; stroke: #ff6600; stroke-width: 1.5"/>
    <path d="M 599.472926 343.568905 
L 599.472926 342.206545 
" clip-path="url(#p731d2cf84c)" style="fill: none; stroke: #ff6600; stroke-width: 1.5"/>
    <path d="M 635.719651 321.152104 
L 635.719651 318.902883 
" clip-path="url(#p731d2cf84c)" style="fill: none; stroke: #ff6600; stroke-width: 1.5"/>
    <path d="M 671.966376 304.24521 
L 671.966376 303.264092 
" clip-path="url(#p731d2cf84c)" style="fill: none; stroke: #ff6600; stroke-width: 1.5"/>
    <path d="M 708.213101 282.675843 
L 708.213101 281.04287 
" clip-path="url(#p731d2cf84c)" style="fill: none; stroke: #ff6600; stroke-width: 1.5"/>
    <path d="M 744.459826 263.714507 
L 744.459826 260.942169 
" clip-path="url(#p731d2cf84c)" style="fill: none; stroke: #ff6600; stroke-width: 1.5"/>
    <path d="M 780.70655 240.817846 
L 780.70655 239.666096 
" clip-path="url(#p731d2cf84c)" style="fill: none; stroke: #ff6600; stroke-width: 1.5"/>
    <path d="M 816.953275 220.637356 
L 816.953275 219.180655 
" clip-path="url(#p731d2cf84c)" style="fill: none; stroke: #ff6600; stroke-width: 1.5"/>
   </g>
   <g id="line2d_28">
    <defs>
     <path id="m643b099e1e" d="M 3 0 
L -3 -0 
" style="stroke: #ff6600"/>
    </defs>
    <g clip-path="url(#p731d2cf84c)">
     <use xlink:href="#m643b099e1e" x="92.018779" y="579.714545" style="fill: #ff6600; stroke: #ff6600"/>
     <use xlink:href="#m643b099e1e" x="128.265504" y="561.338986" style="fill: #ff6600; stroke: #ff6600"/>
     <use xlink:href="#m643b099e1e" x="164.512228" y="545.421352" style="fill: #ff6600; stroke: #ff6600"/>
     <use xlink:href="#m643b099e1e" x="200.758953" y="531.381003" style="fill: #ff6600; stroke: #ff6600"/>
     <use xlink:href="#m643b099e1e" x="237.005678" y="518.821484" style="fill: #ff6600; stroke: #ff6600"/>
     <use xlink:href="#m643b099e1e" x="273.252403" y="502.161136" style="fill: #ff6600; stroke: #ff6600"/>
     <use xlink:href="#m643b099e1e" x="309.499128" y="487.546304" style="fill: #ff6600; stroke: #ff6600"/>
     <use xlink:href="#m643b099e1e" x="345.745852" y="466.579225" style="fill: #ff6600; stroke: #ff6600"/>
     <use xlink:href="#m643b099e1e" x="381.992577" y="448.754268" style="fill: #ff6600; stroke: #ff6600"/>
     <use xlink:href="#m643b099e1e" x="418.239302" y="430.378708" style="fill: #ff6600; stroke: #ff6600"/>
     <use xlink:href="#m643b099e1e" x="454.486027" y="414.461074" style="fill: #ff6600; stroke: #ff6600"/>
     <use xlink:href="#m643b099e1e" x="490.732752" y="398.233413" style="fill: #ff6600; stroke: #ff6600"/>
     <use xlink:href="#m643b099e1e" x="526.979477" y="380.16788" style="fill: #ff6600; stroke: #ff6600"/>
     <use xlink:href="#m643b099e1e" x="563.226201" y="362.861432" style="fill: #ff6600; stroke: #ff6600"/>
     <use xlink:href="#m643b099e1e" x="599.472926" y="343.568905" style="fill: #ff6600; stroke: #ff6600"/>
     <use xlink:href="#m643b099e1e" x="635.719651" y="321.152104" style="fill: #ff6600; stroke: #ff6600"/>
     <use xlink:href="#m643b099e1e" x="671.966376" y="304.24521" style="fill: #ff6600; stroke: #ff6600"/>
     <use xlink:href="#m643b099e1e" x="708.213101" y="282.675843" style="fill: #ff6600; stroke: #ff6600"/>
     <use xlink:href="#m643b099e1e" x="744.459826" y="263.714507" style="fill: #ff6600; stroke: #ff6600"/>
     <use xlink:href="#m643b099e1e" x="780.70655" y="240.817846" style="fill: #ff6600; stroke: #ff6600"/>
     <use xlink:href="#m643b099e1e" x="816.953275" y="220.637356" style="fill: #ff6600; stroke: #ff6600"/>
    </g>
   </g>
   <g id="line2d_29">
    <g clip-path="url(#p731d2cf84c)">
     <use xlink:href="#m643b099e1e" x="92.018779" y="570.17304" style="fill: #ff6600; stroke: #ff6600"/>
     <use xlink:href="#m643b099e1e" x="128.265504" y="561.338986" style="fill: #ff6600; stroke: #ff6600"/>
     <use xlink:href="#m643b099e1e" x="164.512228" y="538.194583" style="fill: #ff6600; stroke: #ff6600"/>
     <use xlink:href="#m643b099e1e" x="200.758953" y="518.821484" style="fill: #ff6600; stroke: #ff6600"/>
     <use xlink:href="#m643b099e1e" x="237.005678" y="507.460017" style="fill: #ff6600; stroke: #ff6600"/>
     <use xlink:href="#m643b099e1e" x="273.252403" y="497.08781" style="fill: #ff6600; stroke: #ff6600"/>
     <use xlink:href="#m643b099e1e" x="309.499128" y="483.047461" style="fill: #ff6600; stroke: #ff6600"/>
     <use xlink:href="#m643b099e1e" x="345.745852" y="466.579225" style="fill: #ff6600; stroke: #ff6600"/>
     <use xlink:href="#m643b099e1e" x="381.992577" y="442.309175" style="fill: #ff6600; stroke: #ff6600"/>
     <use xlink:href="#m643b099e1e" x="418.239302" y="430.378708" style="fill: #ff6600; stroke: #ff6600"/>
     <use xlink:href="#m643b099e1e" x="454.486027" y="414.461074" style="fill: #ff6600; stroke: #ff6600"/>
     <use xlink:href="#m643b099e1e" x="490.732752" y="396.085514" style="fill: #ff6600; stroke: #ff6600"/>
     <use xlink:href="#m643b099e1e" x="526.979477" y="367.794764" style="fill: #ff6600; stroke: #ff6600"/>
     <use xlink:href="#m643b099e1e" x="563.226201" y="356.586026" style="fill: #ff6600; stroke: #ff6600"/>
     <use xlink:href="#m643b099e1e" x="599.472926" y="342.206545" style="fill: #ff6600; stroke: #ff6600"/>
     <use xlink:href="#m643b099e1e" x="635.719651" y="318.902883" style="fill: #ff6600; stroke: #ff6600"/>
     <use xlink:href="#m643b099e1e" x="671.966376" y="303.264092" style="fill: #ff6600; stroke: #ff6600"/>
     <use xlink:href="#m643b099e1e" x="708.213101" y="281.04287" style="fill: #ff6600; stroke: #ff6600"/>
     <use xlink:href="#m643b099e1e" x="744.459826" y="260.942169" style="fill: #ff6600; stroke: #ff6600"/>
     <use xlink:href="#m643b099e1e" x="780.70655" y="239.666096" style="fill: #ff6600; stroke: #ff6600"/>
     <use xlink:href="#m643b099e1e" x="816.953275" y="219.180655" style="fill: #ff6600; stroke: #ff6600"/>
    </g>
   </g>
   <g id="LineCollection_3">
    <path d="M 92.018779 579.714545 
L 92.018779 570.17304 
" clip-path="url(#p731d2cf84c)" style="fill: none; stroke: #339900; stroke-width: 1.5"/>
    <path d="M 128.265504 561.338986 
L 128.265504 561.338986 
" clip-path="url(#p731d2cf84c)" style="fill: none; stroke: #339900; stroke-width: 1.5"/>
    <path d="M 164.512228 545.421352 
L 164.512228 531.381003 
" clip-path="url(#p731d2cf84c)" style="fill: none; stroke: #339900; stroke-width: 1.5"/>
    <path d="M 200.758953 531.381003 
L 200.758953 524.93591 
" clip-path="url(#p731d2cf84c)" style="fill: none; stroke: #339900; stroke-width: 1.5"/>
    <path d="M 237.005678 513.005444 
L 237.005678 502.161136 
" clip-path="url(#p731d2cf84c)" style="fill: none; stroke: #339900; stroke-width: 1.5"/>
    <path d="M 273.252403 497.08781 
L 273.252403 497.08781 
" clip-path="url(#p731d2cf84c)" style="fill: none; stroke: #339900; stroke-width: 1.5"/>
    <path d="M 309.499128 483.047461 
L 309.499128 478.71225 
" clip-path="url(#p731d2cf84c)" style="fill: none; stroke: #339900; stroke-width: 1.5"/>
    <path d="M 345.745852 466.579225 
L 345.745852 462.794616 
" clip-path="url(#p731d2cf84c)" style="fill: none; stroke: #339900; stroke-width: 1.5"/>
    <path d="M 381.992577 445.488168 
L 381.992577 442.309175 
" clip-path="url(#p731d2cf84c)" style="fill: none; stroke: #339900; stroke-width: 1.5"/>
    <path d="M 418.239302 427.57375 
L 418.239302 424.833281 
" clip-path="url(#p731d2cf84c)" style="fill: none; stroke: #339900; stroke-width: 1.5"/>
    <path d="M 454.486027 412.003148 
L 454.486027 407.234305 
" clip-path="url(#p731d2cf84c)" style="fill: none; stroke: #339900; stroke-width: 1.5"/>
    <path d="M 490.732752 393.975632 
L 490.732752 391.902447 
" clip-path="url(#p731d2cf84c)" style="fill: none; stroke: #339900; stroke-width: 1.5"/>
    <path d="M 526.979477 378.3197 
L 526.979477 367.794764 
" clip-path="url(#p731d2cf84c)" style="fill: none; stroke: #339900; stroke-width: 1.5"/>
    <path d="M 563.226201 359.682439 
L 563.226201 358.124179 
" clip-path="url(#p731d2cf84c)" style="fill: none; stroke: #339900; stroke-width: 1.5"/>
    <path d="M 599.472926 342.206545 
L 599.472926 342.206545 
" clip-path="url(#p731d2cf84c)" style="fill: none; stroke: #339900; stroke-width: 1.5"/>
    <path d="M 635.719651 320.022189 
L 635.719651 316.695317 
" clip-path="url(#p731d2cf84c)" style="fill: none; stroke: #339900; stroke-width: 1.5"/>
    <path d="M 671.966376 302.290983 
L 671.966376 302.290983 
" clip-path="url(#p731d2cf84c)" style="fill: none; stroke: #339900; stroke-width: 1.5"/>
    <path d="M 708.213101 279.431964 
L 708.213101 278.634602 
" clip-path="url(#p731d2cf84c)" style="fill: none; stroke: #339900; stroke-width: 1.5"/>
    <path d="M 744.459826 259.579809 
L 744.459826 258.232843 
" clip-path="url(#p731d2cf84c)" style="fill: none; stroke: #339900; stroke-width: 1.5"/>
    <path d="M 780.70655 237.395453 
L 780.70655 235.720411 
" clip-path="url(#p731d2cf84c)" style="fill: none; stroke: #339900; stroke-width: 1.5"/>
    <path d="M 816.953275 216.319593 
L 816.953275 213.525594 
" clip-path="url(#p731d2cf84c)" style="fill: none; stroke: #339900; stroke-width: 1.5"/>
   </g>
   <g id="line2d_30">
    <defs>
     <path id="m7dbad405e1" d="M 3 0 
L -3 -0 
" style="stroke: #339900"/>
    </defs>
    <g clip-path="url(#p731d2cf84c)">
     <use xlink:href="#m7dbad405e1" x="92.018779" y="579.714545" style="fill: #339900; stroke: #339900"/>
     <use xlink:href="#m7dbad405e1" x="128.265504" y="561.338986" style="fill: #339900; stroke: #339900"/>
     <use xlink:href="#m7dbad405e1" x="164.512228" y="545.421352" style="fill: #339900; stroke: #339900"/>
     <use xlink:href="#m7dbad405e1" x="200.758953" y="531.381003" style="fill: #339900; stroke: #339900"/>
     <use xlink:href="#m7dbad405e1" x="237.005678" y="513.005444" style="fill: #339900; stroke: #339900"/>
     <use xlink:href="#m7dbad405e1" x="273.252403" y="497.08781" style="fill: #339900; stroke: #339900"/>
     <use xlink:href="#m7dbad405e1" x="309.499128" y="483.047461" style="fill: #339900; stroke: #339900"/>
     <use xlink:href="#m7dbad405e1" x="345.745852" y="466.579225" style="fill: #339900; stroke: #339900"/>
     <use xlink:href="#m7dbad405e1" x="381.992577" y="445.488168" style="fill: #339900; stroke: #339900"/>
     <use xlink:href="#m7dbad405e1" x="418.239302" y="427.57375" style="fill: #339900; stroke: #339900"/>
     <use xlink:href="#m7dbad405e1" x="454.486027" y="412.003148" style="fill: #339900; stroke: #339900"/>
     <use xlink:href="#m7dbad405e1" x="490.732752" y="393.975632" style="fill: #339900; stroke: #339900"/>
     <use xlink:href="#m7dbad405e1" x="526.979477" y="378.3197" style="fill: #339900; stroke: #339900"/>
     <use xlink:href="#m7dbad405e1" x="563.226201" y="359.682439" style="fill: #339900; stroke: #339900"/>
     <use xlink:href="#m7dbad405e1" x="599.472926" y="342.206545" style="fill: #339900; stroke: #339900"/>
     <use xlink:href="#m7dbad405e1" x="635.719651" y="320.022189" style="fill: #339900; stroke: #339900"/>
     <use xlink:href="#m7dbad405e1" x="671.966376" y="302.290983" style="fill: #339900; stroke: #339900"/>
     <use xlink:href="#m7dbad405e1" x="708.213101" y="279.431964" style="fill: #339900; stroke: #339900"/>
     <use xlink:href="#m7dbad405e1" x="744.459826" y="259.579809" style="fill: #339900; stroke: #339900"/>
     <use xlink:href="#m7dbad405e1" x="780.70655" y="237.395453" style="fill: #339900; stroke: #339900"/>
     <use xlink:href="#m7dbad405e1" x="816.953275" y="216.319593" style="fill: #339900; stroke: #339900"/>
    </g>
   </g>
   <g id="line2d_31">
    <g clip-path="url(#p731d2cf84c)">
     <use xlink:href="#m7dbad405e1" x="92.018779" y="570.17304" style="fill: #339900; stroke: #339900"/>
     <use xlink:href="#m7dbad405e1" x="128.265504" y="561.338986" style="fill: #339900; stroke: #339900"/>
     <use xlink:href="#m7dbad405e1" x="164.512228" y="531.381003" style="fill: #339900; stroke: #339900"/>
     <use xlink:href="#m7dbad405e1" x="200.758953" y="524.93591" style="fill: #339900; stroke: #339900"/>
     <use xlink:href="#m7dbad405e1" x="237.005678" y="502.161136" style="fill: #339900; stroke: #339900"/>
     <use xlink:href="#m7dbad405e1" x="273.252403" y="497.08781" style="fill: #339900; stroke: #339900"/>
     <use xlink:href="#m7dbad405e1" x="309.499128" y="478.71225" style="fill: #339900; stroke: #339900"/>
     <use xlink:href="#m7dbad405e1" x="345.745852" y="462.794616" style="fill: #339900; stroke: #339900"/>
     <use xlink:href="#m7dbad405e1" x="381.992577" y="442.309175" style="fill: #339900; stroke: #339900"/>
     <use xlink:href="#m7dbad405e1" x="418.239302" y="424.833281" style="fill: #339900; stroke: #339900"/>
     <use xlink:href="#m7dbad405e1" x="454.486027" y="407.234305" style="fill: #339900; stroke: #339900"/>
     <use xlink:href="#m7dbad405e1" x="490.732752" y="391.902447" style="fill: #339900; stroke: #339900"/>
     <use xlink:href="#m7dbad405e1" x="526.979477" y="367.794764" style="fill: #339900; stroke: #339900"/>
     <use xlink:href="#m7dbad405e1" x="563.226201" y="358.124179" style="fill: #339900; stroke: #339900"/>
     <use xlink:href="#m7dbad405e1" x="599.472926" y="342.206545" style="fill: #339900; stroke: #339900"/>
     <use xlink:href="#m7dbad405e1" x="635.719651" y="316.695317" style="fill: #339900; stroke: #339900"/>
     <use xlink:href="#m7dbad405e1" x="671.966376" y="302.290983" style="fill: #339900; stroke: #339900"/>
     <use xlink:href="#m7dbad405e1" x="708.213101" y="278.634602" style="fill: #339900; stroke: #339900"/>
     <use xlink:href="#m7dbad405e1" x="744.459826" y="258.232843" style="fill: #339900; stroke: #339900"/>
     <use xlink:href="#m7dbad405e1" x="780.70655" y="235.720411" style="fill: #339900; stroke: #339900"/>
     <use xlink:href="#m7dbad405e1" x="816.953275" y="213.525594" style="fill: #339900; stroke: #339900"/>
    </g>
   </g>
   <g id="LineCollection_4">
    <path d="M 92.018779 553.114678 
L 92.018779 553.114678 
" clip-path="url(#p731d2cf84c)" style="fill: none; stroke: #33cc00; stroke-width: 1.5"/>
    <path d="M 128.265504 538.194583 
L 128.265504 538.194583 
" clip-path="url(#p731d2cf84c)" style="fill: none; stroke: #33cc00; stroke-width: 1.5"/>
    <path d="M 164.512228 524.93591 
L 164.512228 518.821484 
" clip-path="url(#p731d2cf84c)" style="fill: none; stroke: #33cc00; stroke-width: 1.5"/>
    <path d="M 200.758953 513.005444 
L 200.758953 507.460017 
" clip-path="url(#p731d2cf84c)" style="fill: none; stroke: #33cc00; stroke-width: 1.5"/>
    <path d="M 237.005678 497.08781 
L 237.005678 492.221616 
" clip-path="url(#p731d2cf84c)" style="fill: none; stroke: #33cc00; stroke-width: 1.5"/>
    <path d="M 273.252403 483.047461 
L 273.252403 470.487942 
" clip-path="url(#p731d2cf84c)" style="fill: none; stroke: #33cc00; stroke-width: 1.5"/>
    <path d="M 309.499128 466.579225 
L 309.499128 466.579225 
" clip-path="url(#p731d2cf84c)" style="fill: none; stroke: #33cc00; stroke-width: 1.5"/>
    <path d="M 345.745852 452.112382 
L 345.745852 448.754268 
" clip-path="url(#p731d2cf84c)" style="fill: none; stroke: #33cc00; stroke-width: 1.5"/>
    <path d="M 381.992577 433.251261 
L 381.992577 430.378708 
" clip-path="url(#p731d2cf84c)" style="fill: none; stroke: #33cc00; stroke-width: 1.5"/>
    <path d="M 418.239302 414.461074 
L 418.239302 412.003148 
" clip-path="url(#p731d2cf84c)" style="fill: none; stroke: #33cc00; stroke-width: 1.5"/>
    <path d="M 454.486027 402.648925 
L 454.486027 400.420725 
" clip-path="url(#p731d2cf84c)" style="fill: none; stroke: #33cc00; stroke-width: 1.5"/>
    <path d="M 490.732752 385.890828 
L 490.732752 380.16788 
" clip-path="url(#p731d2cf84c)" style="fill: none; stroke: #33cc00; stroke-width: 1.5"/>
    <path d="M 526.979477 369.485646 
L 526.979477 359.682439 
" clip-path="url(#p731d2cf84c)" style="fill: none; stroke: #33cc00; stroke-width: 1.5"/>
    <path d="M 563.226201 352.087183 
L 563.226201 349.179596 
" clip-path="url(#p731d2cf84c)" style="fill: none; stroke: #33cc00; stroke-width: 1.5"/>
    <path d="M 599.472926 334.344013 
L 599.472926 333.082571 
" clip-path="url(#p731d2cf84c)" style="fill: none; stroke: #33cc00; stroke-width: 1.5"/>
    <path d="M 635.719651 314.52789 
L 635.719651 308.252484 
" clip-path="url(#p731d2cf84c)" style="fill: none; stroke: #33cc00; stroke-width: 1.5"/>
    <path d="M 671.966376 298.476091 
L 671.966376 296.613472 
" clip-path="url(#p731d2cf84c)" style="fill: none; stroke: #33cc00; stroke-width: 1.5"/>
    <path d="M 708.213101 277.842539 
L 708.213101 276.274027 
" clip-path="url(#p731d2cf84c)" style="fill: none; stroke: #33cc00; stroke-width: 1.5"/>
    <path d="M 744.459826 259.579809 
L 744.459826 251.084888 
" clip-path="url(#p731d2cf84c)" style="fill: none; stroke: #33cc00; stroke-width: 1.5"/>
    <path d="M 780.70655 239.094368 
L 780.70655 237.395453 
" clip-path="url(#p731d2cf84c)" style="fill: none; stroke: #33cc00; stroke-width: 1.5"/>
    <path d="M 816.953275 219.664247 
L 816.953275 218.699017 
" clip-path="url(#p731d2cf84c)" style="fill: none; stroke: #33cc00; stroke-width: 1.5"/>
   </g>
   <g id="line2d_32">
    <defs>
     <path id="m4be2de3d29" d="M 3 0 
L -3 -0 
" style="stroke: #33cc00"/>
    </defs>
    <g clip-path="url(#p731d2cf84c)">
     <use xlink:href="#m4be2de3d29" x="92.018779" y="553.114678" style="fill: #33cc00; stroke: #33cc00"/>
     <use xlink:href="#m4be2de3d29" x="128.265504" y="538.194583" style="fill: #33cc00; stroke: #33cc00"/>
     <use xlink:href="#m4be2de3d29" x="164.512228" y="524.93591" style="fill: #33cc00; stroke: #33cc00"/>
     <use xlink:href="#m4be2de3d29" x="200.758953" y="513.005444" style="fill: #33cc00; stroke: #33cc00"/>
     <use xlink:href="#m4be2de3d29" x="237.005678" y="497.08781" style="fill: #33cc00; stroke: #33cc00"/>
     <use xlink:href="#m4be2de3d29" x="273.252403" y="483.047461" style="fill: #33cc00; stroke: #33cc00"/>
     <use xlink:href="#m4be2de3d29" x="309.499128" y="466.579225" style="fill: #33cc00; stroke: #33cc00"/>
     <use xlink:href="#m4be2de3d29" x="345.745852" y="452.112382" style="fill: #33cc00; stroke: #33cc00"/>
     <use xlink:href="#m4be2de3d29" x="381.992577" y="433.251261" style="fill: #33cc00; stroke: #33cc00"/>
     <use xlink:href="#m4be2de3d29" x="418.239302" y="414.461074" style="fill: #33cc00; stroke: #33cc00"/>
     <use xlink:href="#m4be2de3d29" x="454.486027" y="402.648925" style="fill: #33cc00; stroke: #33cc00"/>
     <use xlink:href="#m4be2de3d29" x="490.732752" y="385.890828" style="fill: #33cc00; stroke: #33cc00"/>
     <use xlink:href="#m4be2de3d29" x="526.979477" y="369.485646" style="fill: #33cc00; stroke: #33cc00"/>
     <use xlink:href="#m4be2de3d29" x="563.226201" y="352.087183" style="fill: #33cc00; stroke: #33cc00"/>
     <use xlink:href="#m4be2de3d29" x="599.472926" y="334.344013" style="fill: #33cc00; stroke: #33cc00"/>
     <use xlink:href="#m4be2de3d29" x="635.719651" y="314.52789" style="fill: #33cc00; stroke: #33cc00"/>
     <use xlink:href="#m4be2de3d29" x="671.966376" y="298.476091" style="fill: #33cc00; stroke: #33cc00"/>
     <use xlink:href="#m4be2de3d29" x="708.213101" y="277.842539" style="fill: #33cc00; stroke: #33cc00"/>
     <use xlink:href="#m4be2de3d29" x="744.459826" y="259.579809" style="fill: #33cc00; stroke: #33cc00"/>
     <use xlink:href="#m4be2de3d29" x="780.70655" y="239.094368" style="fill: #33cc00; stroke: #33cc00"/>
     <use xlink:href="#m4be2de3d29" x="816.953275" y="219.664247" style="fill: #33cc00; stroke: #33cc00"/>
    </g>
   </g>
   <g id="line2d_33">
    <g clip-path="url(#p731d2cf84c)">
     <use xlink:href="#m4be2de3d29" x="92.018779" y="553.114678" style="fill: #33cc00; stroke: #33cc00"/>
     <use xlink:href="#m4be2de3d29" x="128.265504" y="538.194583" style="fill: #33cc00; stroke: #33cc00"/>
     <use xlink:href="#m4be2de3d29" x="164.512228" y="518.821484" style="fill: #33cc00; stroke: #33cc00"/>
     <use xlink:href="#m4be2de3d29" x="200.758953" y="507.460017" style="fill: #33cc00; stroke: #33cc00"/>
     <use xlink:href="#m4be2de3d29" x="237.005678" y="492.221616" style="fill: #33cc00; stroke: #33cc00"/>
     <use xlink:href="#m4be2de3d29" x="273.252403" y="470.487942" style="fill: #33cc00; stroke: #33cc00"/>
     <use xlink:href="#m4be2de3d29" x="309.499128" y="466.579225" style="fill: #33cc00; stroke: #33cc00"/>
     <use xlink:href="#m4be2de3d29" x="345.745852" y="448.754268" style="fill: #33cc00; stroke: #33cc00"/>
     <use xlink:href="#m4be2de3d29" x="381.992577" y="430.378708" style="fill: #33cc00; stroke: #33cc00"/>
     <use xlink:href="#m4be2de3d29" x="418.239302" y="412.003148" style="fill: #33cc00; stroke: #33cc00"/>
     <use xlink:href="#m4be2de3d29" x="454.486027" y="400.420725" style="fill: #33cc00; stroke: #33cc00"/>
     <use xlink:href="#m4be2de3d29" x="490.732752" y="380.16788" style="fill: #33cc00; stroke: #33cc00"/>
     <use xlink:href="#m4be2de3d29" x="526.979477" y="359.682439" style="fill: #33cc00; stroke: #33cc00"/>
     <use xlink:href="#m4be2de3d29" x="563.226201" y="349.179596" style="fill: #33cc00; stroke: #33cc00"/>
     <use xlink:href="#m4be2de3d29" x="599.472926" y="333.082571" style="fill: #33cc00; stroke: #33cc00"/>
     <use xlink:href="#m4be2de3d29" x="635.719651" y="308.252484" style="fill: #33cc00; stroke: #33cc00"/>
     <use xlink:href="#m4be2de3d29" x="671.966376" y="296.613472" style="fill: #33cc00; stroke: #33cc00"/>
     <use xlink:href="#m4be2de3d29" x="708.213101" y="276.274027" style="fill: #33cc00; stroke: #33cc00"/>
     <use xlink:href="#m4be2de3d29" x="744.459826" y="251.084888" style="fill: #33cc00; stroke: #33cc00"/>
     <use xlink:href="#m4be2de3d29" x="780.70655" y="237.395453" style="fill: #33cc00; stroke: #33cc00"/>
     <use xlink:href="#m4be2de3d29" x="816.953275" y="218.699017" style="fill: #33cc00; stroke: #33cc00"/>
    </g>
   </g>
   <g id="line2d_34">
    <path d="M 92.018779 530.063806 
L 128.265504 516.460908 
L 164.512228 497.08781 
L 200.758953 475.354135 
L 237.005678 457.69025 
L 273.252403 433.834172 
L 309.499128 412.980245 
L 345.745852 392.727399 
L 381.992577 368.468242 
L 418.239302 348.036132 
L 454.486027 327.925621 
L 490.732752 301.903953 
L 526.979477 279.912954 
L 563.226201 254.800342 
L 599.472926 235.167254 
L 635.719651 204.829695 
L 671.966376 180.388619 
L 708.213101 145.106165 
L 744.459826 112.116342 
L 780.70655 82.626699 
L 816.953275 54.265491 
" clip-path="url(#p731d2cf84c)" style="fill: none; stroke: #6666ff; stroke-width: 1.5; stroke-linecap: square"/>
   </g>
   <g id="line2d_35">
    <path d="M 92.018779 577.744167 
L 128.265504 561.338986 
L 164.512228 543.940523 
L 200.758953 526.197353 
L 237.005678 516.460908 
L 273.252403 501.12905 
L 309.499128 483.933749 
L 345.745852 466.579225 
L 381.992577 446.134268 
L 418.239302 430.378708 
L 454.486027 414.461074 
L 490.732752 396.512009 
L 526.979477 377.224392 
L 563.226201 360.311491 
L 599.472926 342.749622 
L 635.719651 319.349345 
L 671.966376 304.048339 
L 708.213101 281.85656 
L 744.459826 262.45897 
L 780.70655 240.35581 
L 816.953275 220.149808 
" clip-path="url(#p731d2cf84c)" style="fill: none; stroke: #ff6600; stroke-width: 1.5; stroke-linecap: square"/>
   </g>
   <g id="line2d_36">
    <path d="M 92.018779 575.805829 
L 128.265504 561.338986 
L 164.512228 542.477864 
L 200.758953 528.761004 
L 237.005678 510.756222 
L 273.252403 497.08781 
L 309.499128 480.427462 
L 345.745852 464.294072 
L 381.992577 444.206379 
L 418.239302 426.469991 
L 454.486027 410.552357 
L 490.732752 393.558101 
L 526.979477 376.139057 
L 563.226201 359.056688 
L 599.472926 342.206545 
L 635.719651 318.458087 
L 671.966376 302.290983 
L 708.213101 279.112379 
L 744.459826 259.039195 
L 780.70655 236.834486 
L 816.953275 215.100812 
" clip-path="url(#p731d2cf84c)" style="fill: none; stroke: #339900; stroke-width: 1.5; stroke-linecap: square"/>
   </g>
   <g id="line2d_37">
    <path d="M 92.018779 553.114678 
L 128.265504 538.194583 
L 164.512228 523.687677 
L 200.758953 511.875528 
L 237.005678 496.098549 
L 273.252403 477.863811 
L 309.499128 466.579225 
L 345.745852 449.418365 
L 381.992577 432.09392 
L 418.239302 413.471813 
L 454.486027 401.752641 
L 490.732752 383.185894 
L 526.979477 365.796865 
L 563.226201 350.915624 
L 599.472926 333.837833 
L 635.719651 312.399169 
L 671.966376 297.355031 
L 708.213101 277.369814 
L 744.459826 257.166123 
L 780.70655 238.638951 
L 816.953275 219.277217 
" clip-path="url(#p731d2cf84c)" style="fill: none; stroke: #33cc00; stroke-width: 1.5; stroke-linecap: square"/>
   </g>
   <g id="patch_3">
    <path d="M 55.772054 606.04 
L 55.772054 26.88 
" style="fill: none; stroke: #000000; stroke-width: 0.8; stroke-linejoin: miter; stroke-linecap: square"/>
   </g>
   <g id="patch_4">
    <path d="M 853.2 606.04 
L 853.2 26.88 
" style="fill: none; stroke: #000000; stroke-width: 0.8; stroke-linejoin: miter; stroke-linecap: square"/>
   </g>
   <g id="patch_5">
    <path d="M 55.772054 606.04 
L 853.2 606.04 
" style="fill: none; stroke: #000000; stroke-width: 0.8; stroke-linejoin: miter; stroke-linecap: square"/>
   </g>
   <g id="patch_6">
    <path d="M 55.772054 26.88 
L 853.2 26.88 
" style="fill: none; stroke: #000000; stroke-width: 0.8; stroke-linejoin: miter; stroke-linecap: square"/>
   </g>
   <g id="text_12">
    <!-- F# .NET 10 implementations of Bron-Kerbosch on a random graph of order 100 -->
    <g transform="translate(216.380714 20.88) scale(0.12 -0.12)">
     <defs>
      <path id="DejaVuSans-46" d="M 628 4666 
L 3309 4666 
L 3309 4134 
L 1259 4134 
L 1259 2759 
L 3109 2759 
L 3109 2228 
L 1259 2228 
L 1259 0 
L 628 0 
L 628 4666 
z
" transform="scale(0.015625)"/>
      <path id="DejaVuSans-2e" d="M 684 794 
L 1344 794 
L 1344 0 
L 684 0 
L 684 794 
z
" transform="scale(0.015625)"/>
      <path id="DejaVuSans-4e" d="M 628 4666 
L 1478 4666 
L 3547 763 
L 3547 4666 
L 4159 4666 
L 4159 0 
L 3309 0 
L 1241 3903 
L 1241 0 
L 628 0 
L 628 4666 
z
" transform="scale(0.015625)"/>
      <path id="DejaVuSans-45" d="M 628 4666 
L 3578 4666 
L 3578 4134 
L 1259 4134 
L 1259 2753 
L 3481 2753 
L 3481 2222 
L 1259 2222 
L 1259 531 
L 3634 531 
L 3634 0 
L 628 0 
L 628 4666 
z
" transform="scale(0.015625)"/>
      <path id="DejaVuSans-54" d="M -19 4666 
L 3928 4666 
L 3928 4134 
L 2272 4134 
L 2272 0 
L 1638 0 
L 1638 4134 
L -19 4134 
L -19 4666 
z
" transform="scale(0.015625)"/>
      <path id="DejaVuSans-6d" d="M 3328 2828 
Q 3544 3216 3844 3400 
Q 4144 3584 4550 3584 
Q 5097 3584 5394 3201 
Q 5691 2819 5691 2113 
L 5691 0 
L 5113 0 
L 5113 2094 
Q 5113 2597 4934 2840 
Q 4756 3084 4391 3084 
Q 3944 3084 3684 2787 
Q 3425 2491 3425 1978 
L 3425 0 
L 2847 0 
L 2847 2094 
Q 2847 2600 2669 2842 
Q 2491 3084 2119 3084 
Q 1678 3084 1418 2786 
Q 1159 2488 1159 1978 
L 1159 0 
L 581 0 
L 581 3500 
L 1159 3500 
L 1159 2956 
Q 1356 3278 1631 3431 
Q 1906 3584 2284 3584 
Q 2666 3584 2933 3390 
Q 3200 3197 3328 2828 
z
" transform="scale(0.015625)"/>
      <path id="DejaVuSans-6c" d="M 603 4863 
L 1178 4863 
L 1178 0 
L 603 0 
L 603 4863 
z
" transform="scale(0.015625)"/>
      <path id="DejaVuSans-61" d="M 2194 1759 
Q 1497 1759 1228 1600 
Q 959 1441 959 1056 
Q 959 750 1161 570 
Q 1363 391 1709 391 
Q 2188 391 2477 730 
Q 2766 1069 2766 1631 
L 2766 1759 
L 2194 1759 
z
M 3341 1997 
L 3341 0 
L 2766 0 
L 2766 531 
Q 2569 213 2275 61 
Q 1981 -91 1556 -91 
Q 1019 -91 701 211 
Q 384 513 384 1019 
Q 384 1609 779 1909 
Q 1175 2209 1959 2209 
L 2766 2209 
L 2766 2266 
Q 2766 2663 2505 2880 
Q 2244 3097 1772 3097 
Q 1472 3097 1187 3025 
Q 903 2953 641 2809 
L 641 3341 
Q 956 3463 1253 3523 
Q 1550 3584 1831 3584 
Q 2591 3584 2966 3190 
Q 3341 2797 3341 1997 
z
" transform="scale(0.015625)"/>
      <path id="DejaVuSans-66" d="M 2375 4863 
L 2375 4384 
L 1825 4384 
Q 1516 4384 1395 4259 
Q 1275 4134 1275 3809 
L 1275 3500 
L 2222 3500 
L 2222 3053 
L 1275 3053 
L 1275 0 
L 697 0 
L 697 3053 
L 147 3053 
L 147 3500 
L 697 3500 
L 697 3744 
Q 697 4328 969 4595 
Q 1241 4863 1831 4863 
L 2375 4863 
z
" transform="scale(0.015625)"/>
      <path id="DejaVuSans-42" d="M 1259 2228 
L 1259 519 
L 2272 519 
Q 2781 519 3026 730 
Q 3272 941 3272 1375 
Q 3272 1813 3026 2020 
Q 2781 2228 2272 2228 
L 1259 2228 
z
M 1259 4147 
L 1259 2741 
L 2194 2741 
Q 2656 2741 2882 2914 
Q 3109 3088 3109 3444 
Q 3109 3797 2882 3972 
Q 2656 4147 2194 4147 
L 1259 4147 
z
M 628 4666 
L 2241 4666 
Q 2963 4666 3353 4366 
Q 3744 4066 3744 3513 
Q 3744 3084 3544 2831 
Q 3344 2578 2956 2516 
Q 3422 2416 3680 2098 
Q 3938 1781 3938 1306 
Q 3938 681 3513 340 
Q 3088 0 2303 0 
L 628 0 
L 628 4666 
z
" transform="scale(0.015625)"/>
      <path id="DejaVuSans-72" d="M 2631 2963 
Q 2534 3019 2420 3045 
Q 2306 3072 2169 3072 
Q 1681 3072 1420 2755 
Q 1159 2438 1159 1844 
L 1159 0 
L 581 0 
L 581 3500 
L 1159 3500 
L 1159 2956 
Q 1341 3275 1631 3429 
Q 1922 3584 2338 3584 
Q 2397 3584 2469 3576 
Q 2541 3569 2628 3553 
L 2631 2963 
z
" transform="scale(0.015625)"/>
      <path id="DejaVuSans-2d" d="M 313 2009 
L 1997 2009 
L 1997 1497 
L 313 1497 
L 313 2009 
z
" transform="scale(0.015625)"/>
      <path id="DejaVuSans-4b" d="M 628 4666 
L 1259 4666 
L 1259 2694 
L 3353 4666 
L 4166 4666 
L 1850 2491 
L 4331 0 
L 3500 0 
L 1259 2247 
L 1259 0 
L 628 0 
L 628 4666 
z
" transform="scale(0.015625)"/>
      <path id="DejaVuSans-62" d="M 3116 1747 
Q 3116 2381 2855 2742 
Q 2594 3103 2138 3103 
Q 1681 3103 1420 2742 
Q 1159 2381 1159 1747 
Q 1159 1113 1420 752 
Q 1681 391 2138 391 
Q 2594 391 2855 752 
Q 3116 1113 3116 1747 
z
M 1159 2969 
Q 1341 3281 1617 3432 
Q 1894 3584 2278 3584 
Q 2916 3584 3314 3078 
Q 3713 2572 3713 1747 
Q 3713 922 3314 415 
Q 2916 -91 2278 -91 
Q 1894 -91 1617 61 
Q 1341 213 1159 525 
L 1159 0 
L 581 0 
L 581 4863 
L 1159 4863 
L 1159 2969 
z
" transform="scale(0.015625)"/>
      <path id="DejaVuSans-68" d="M 3513 2113 
L 3513 0 
L 2938 0 
L 2938 2094 
Q 2938 2591 2744 2837 
Q 2550 3084 2163 3084 
Q 1697 3084 1428 2787 
Q 1159 2491 1159 1978 
L 1159 0 
L 581 0 
L 581 4863 
L 1159 4863 
L 1159 2956 
Q 1366 3272 1645 3428 
Q 1925 3584 2291 3584 
Q 2894 3584 3203 3211 
Q 3513 2838 3513 2113 
z
" transform="scale(0.015625)"/>
     </defs>
     <use xlink:href="#DejaVuSans-46"/>
     <use xlink:href="#DejaVuSans-23" transform="translate(57.519531 0)"/>
     <use xlink:href="#DejaVuSans-20" transform="translate(141.308594 0)"/>
     <use xlink:href="#DejaVuSans-2e" transform="translate(173.095703 0)"/>
     <use xlink:href="#DejaVuSans-4e" transform="translate(204.882812 0)"/>
     <use xlink:href="#DejaVuSans-45" transform="translate(279.6875 0)"/>
     <use xlink:href="#DejaVuSans-54" transform="translate(342.871094 0)"/>
     <use xlink:href="#DejaVuSans-20" transform="translate(403.955078 0)"/>
     <use xlink:href="#DejaVuSans-31" transform="translate(435.742188 0)"/>
     <use xlink:href="#DejaVuSans-30" transform="translate(499.365234 0)"/>
     <use xlink:href="#DejaVuSans-20" transform="translate(562.988281 0)"/>
     <use xlink:href="#DejaVuSans-69" transform="translate(594.775391 0)"/>
     <use xlink:href="#DejaVuSans-6d" transform="translate(622.558594 0)"/>
     <use xlink:href="#DejaVuSans-70" transform="translate(719.970703 0)"/>
     <use xlink:href="#DejaVuSans-6c" transform="translate(783.447266 0)"/>
     <use xlink:href="#DejaVuSans-65" transform="translate(811.230469 0)"/>
     <use xlink:href="#DejaVuSans-6d" transform="translate(872.753906 0)"/>
     <use xlink:href="#DejaVuSans-65" transform="translate(970.166016 0)"/>
     <use xlink:href="#DejaVuSans-6e" transform="translate(1031.689453 0)"/>
     <use xlink:href="#DejaVuSans-74" transform="translate(1095.068359 0)"/>
     <use xlink:href="#DejaVuSans-61" transform="translate(1134.277344 0)"/>
     <use xlink:href="#DejaVuSans-74" transform="translate(1195.556641 0)"/>
     <use xlink:href="#DejaVuSans-69" transform="translate(1234.765625 0)"/>
     <use xlink:href="#DejaVuSans-6f" transform="translate(1262.548828 0)"/>
     <use xlink:href="#DejaVuSans-6e" transform="translate(1323.730469 0)"/>
     <use xlink:href="#DejaVuSans-73" transform="translate(1387.109375 0)"/>
     <use xlink:href="#DejaVuSans-20" transform="translate(1439.208984 0)"/>
     <use xlink:href="#DejaVuSans-6f" transform="translate(1470.996094 0)"/>
     <use xlink:href="#DejaVuSans-66" transform="translate(1532.177734 0)"/>
     <use xlink:href="#DejaVuSans-20" transform="translate(1567.382812 0)"/>
     <use xlink:href="#DejaVuSans-42" transform="translate(1599.169922 0)"/>
     <use xlink:href="#DejaVuSans-72" transform="translate(1667.773438 0)"/>
     <use xlink:href="#DejaVuSans-6f" transform="translate(1706.636719 0)"/>
     <use xlink:href="#DejaVuSans-6e" transform="translate(1767.818359 0)"/>
     <use xlink:href="#DejaVuSans-2d" transform="translate(1831.197266 0)"/>
     <use xlink:href="#DejaVuSans-4b" transform="translate(1867.28125 0)"/>
     <use xlink:href="#DejaVuSans-65" transform="translate(1927.857422 0)"/>
     <use xlink:href="#DejaVuSans-72" transform="translate(1989.380859 0)"/>
     <use xlink:href="#DejaVuSans-62" transform="translate(2030.494141 0)"/>
     <use xlink:href="#DejaVuSans-6f" transform="translate(2093.970703 0)"/>
     <use xlink:href="#DejaVuSans-73" transform="translate(2155.152344 0)"/>
     <use xlink:href="#DejaVuSans-63" transform="translate(2207.251953 0)"/>
     <use xlink:href="#DejaVuSans-68" transform="translate(2262.232422 0)"/>
     <use xlink:href="#DejaVuSans-20" transform="translate(2325.611328 0)"/>
     <use xlink:href="#DejaVuSans-6f" transform="translate(2357.398438 0)"/>
     <use xlink:href="#DejaVuSans-6e" transform="translate(2418.580078 0)"/>
     <use xlink:href="#DejaVuSans-20" transform="translate(2481.958984 0)"/>
     <use xlink:href="#DejaVuSans-61" transform="translate(2513.746094 0)"/>
     <use xlink:href="#DejaVuSans-20" transform="translate(2575.025391 0)"/>
     <use xlink:href="#DejaVuSans-72" transform="translate(2606.8125 0)"/>
     <use xlink:href="#DejaVuSans-61" transform="translate(2647.925781 0)"/>
     <use xlink:href="#DejaVuSans-6e" transform="translate(2709.205078 0)"/>
     <use xlink:href="#DejaVuSans-64" transform="translate(2772.583984 0)"/>
     <use xlink:href="#DejaVuSans-6f" transform="translate(2836.060547 0)"/>
     <use xlink:href="#DejaVuSans-6d" transform="translate(2897.242188 0)"/>
     <use xlink:href="#DejaVuSans-20" transform="translate(2994.654297 0)"/>
     <use xlink:href="#DejaVuSans-67" transform="translate(3026.441406 0)"/>
     <use xlink:href="#DejaVuSans-72" transform="translate(3089.917969 0)"/>
     <use xlink:href="#DejaVuSans-61" transform="translate(3131.03125 0)"/>
     <use xlink:href="#DejaVuSans-70" transform="translate(3192.310547 0)"/>
     <use xlink:href="#DejaVuSans-68" transform="translate(3255.787109 0)"/>
     <use xlink:href="#DejaVuSans-20" transform="translate(3319.166016 0)"/>
     <use xlink:href="#DejaVuSans-6f" transform="translate(3350.953125 0)"/>
     <use xlink:href="#DejaVuSans-66" transform="translate(3412.134766 0)"/>
     <use xlink:href="#DejaVuSans-20" transform="translate(3447.339844 0)"/>
     <use xlink:href="#DejaVuSans-6f" transform="translate(3479.126953 0)"/>
     <use xlink:href="#DejaVuSans-72" transform="translate(3540.308594 0)"/>
     <use xlink:href="#DejaVuSans-64" transform="translate(3579.671875 0)"/>
     <use xlink:href="#DejaVuSans-65" transform="translate(3643.148438 0)"/>
     <use xlink:href="#DejaVuSans-72" transform="translate(3704.671875 0)"/>
     <use xlink:href="#DejaVuSans-20" transform="translate(3745.785156 0)"/>
     <use xlink:href="#DejaVuSans-31" transform="translate(3777.572266 0)"/>
     <use xlink:href="#DejaVuSans-30" transform="translate(3841.195312 0)"/>
     <use xlink:href="#DejaVuSans-30" transform="translate(3904.818359 0)"/>
    </g>
   </g>
   <g id="legend_1">
    <g id="patch_7">
     <path d="M 62.772054 93.5925 
L 151.754866 93.5925 
Q 153.754866 93.5925 153.754866 91.5925 
L 153.754866 33.88 
Q 153.754866 31.88 151.754866 31.88 
L 62.772054 31.88 
Q 60.772054 31.88 60.772054 33.88 
L 60.772054 91.5925 
Q 60.772054 93.5925 62.772054 93.5925 
z
" style="fill: #ffffff; opacity: 0.8; stroke: #cccccc; stroke-linejoin: miter"/>
    </g>
    <g id="LineCollection_5">
     <path d="M 74.772054 44.978437 
L 74.772054 34.978437 
" style="fill: none; stroke: #6666ff; stroke-width: 1.5"/>
    </g>
    <g id="line2d_38">
     <g>
      <use xlink:href="#m72b02873c2" x="74.772054" y="44.978437" style="fill: #6666ff; stroke: #6666ff"/>
     </g>
    </g>
    <g id="line2d_39">
     <g>
      <use xlink:href="#m72b02873c2" x="74.772054" y="34.978437" style="fill: #6666ff; stroke: #6666ff"/>
     </g>
    </g>
    <g id="line2d_40">
     <path d="M 64.772054 39.978437 
L 84.772054 39.978437 
" style="fill: none; stroke: #6666ff; stroke-width: 1.5; stroke-linecap: square"/>
    </g>
    <g id="line2d_41"/>
    <g id="text_13">
     <!-- Ver1½ -->
     <g transform="translate(92.772054 43.478437) scale(0.1 -0.1)">
      <defs>
       <path id="DejaVuSans-56" d="M 1831 0 
L 50 4666 
L 709 4666 
L 2188 738 
L 3669 4666 
L 4325 4666 
L 2547 0 
L 1831 0 
z
" transform="scale(0.015625)"/>
       <path id="DejaVuSans-bd" d="M 488 2431 
L 1125 2431 
L 1125 4341 
L 428 4213 
L 428 4575 
L 1147 4697 
L 1575 4697 
L 1575 2431 
L 2216 2431 
L 2216 2088 
L 488 2088 
L 488 2431 
z
M 4470 332 
L 5795 332 
L 5795 -24 
L 3926 -24 
L 3926 319 
Q 4032 416 4229 591 
Q 5304 1544 5304 1838 
Q 5304 2044 5141 2170 
Q 4979 2297 4713 2297 
Q 4551 2297 4360 2242 
Q 4170 2188 3945 2079 
L 3945 2463 
Q 4185 2551 4393 2594 
Q 4601 2638 4779 2638 
Q 5232 2638 5504 2432 
Q 5776 2226 5776 1888 
Q 5776 1454 4741 566 
Q 4566 416 4470 332 
z
M 4309 4750 
L 4809 4750 
L 1896 -91 
L 1396 -91 
L 4309 4750 
z
" transform="scale(0.015625)"/>
      </defs>
      <use xlink:href="#DejaVuSans-56"/>
      <use xlink:href="#DejaVuSans-65" transform="translate(60.658203 0)"/>
      <use xlink:href="#DejaVuSans-72" transform="translate(122.181641 0)"/>
      <use xlink:href="#DejaVuSans-31" transform="translate(163.294922 0)"/>
      <use xlink:href="#DejaVuSans-bd" transform="translate(226.917969 0)"/>
     </g>
    </g>
    <g id="LineCollection_6">
     <path d="M 74.772054 59.656562 
L 74.772054 49.656562 
" style="fill: none; stroke: #ff6600; stroke-width: 1.5"/>
    </g>
    <g id="line2d_42">
     <g>
      <use xlink:href="#m643b099e1e" x="74.772054" y="59.656562" style="fill: #ff6600; stroke: #ff6600"/>
     </g>
    </g>
    <g id="line2d_43">
     <g>
      <use xlink:href="#m643b099e1e" x="74.772054" y="49.656562" style="fill: #ff6600; stroke: #ff6600"/>
     </g>
    </g>
    <g id="line2d_44">
     <path d="M 64.772054 54.656562 
L 84.772054 54.656562 
" style="fill: none; stroke: #ff6600; stroke-width: 1.5; stroke-linecap: square"/>
    </g>
    <g id="line2d_45"/>
    <g id="text_14">
     <!-- Ver2½-GP -->
     <g transform="translate(92.772054 58.156562) scale(0.1 -0.1)">
      <defs>
       <path id="DejaVuSans-47" d="M 3809 666 
L 3809 1919 
L 2778 1919 
L 2778 2438 
L 4434 2438 
L 4434 434 
Q 4069 175 3628 42 
Q 3188 -91 2688 -91 
Q 1594 -91 976 548 
Q 359 1188 359 2328 
Q 359 3472 976 4111 
Q 1594 4750 2688 4750 
Q 3144 4750 3555 4637 
Q 3966 4525 4313 4306 
L 4313 3634 
Q 3963 3931 3569 4081 
Q 3175 4231 2741 4231 
Q 1884 4231 1454 3753 
Q 1025 3275 1025 2328 
Q 1025 1384 1454 906 
Q 1884 428 2741 428 
Q 3075 428 3337 486 
Q 3600 544 3809 666 
z
" transform="scale(0.015625)"/>
       <path id="DejaVuSans-50" d="M 1259 4147 
L 1259 2394 
L 2053 2394 
Q 2494 2394 2734 2622 
Q 2975 2850 2975 3272 
Q 2975 3691 2734 3919 
Q 2494 4147 2053 4147 
L 1259 4147 
z
M 628 4666 
L 2053 4666 
Q 2838 4666 3239 4311 
Q 3641 3956 3641 3272 
Q 3641 2581 3239 2228 
Q 2838 1875 2053 1875 
L 1259 1875 
L 1259 0 
L 628 0 
L 628 4666 
z
" transform="scale(0.015625)"/>
      </defs>
      <use xlink:href="#DejaVuSans-56"/>
      <use xlink:href="#DejaVuSans-65" transform="translate(60.658203 0)"/>
      <use xlink:href="#DejaVuSans-72" transform="translate(122.181641 0)"/>
      <use xlink:href="#DejaVuSans-32" transform="translate(163.294922 0)"/>
      <use xlink:href="#DejaVuSans-bd" transform="translate(226.917969 0)"/>
      <use xlink:href="#DejaVuSans-2d" transform="translate(323.841797 0)"/>
      <use xlink:href="#DejaVuSans-47" transform="translate(363.550781 0)"/>
      <use xlink:href="#DejaVuSans-50" transform="translate(441.041016 0)"/>
     </g>
    </g>
    <g id="LineCollection_7">
     <path d="M 74.772054 74.334687 
L 74.772054 64.334687 
" style="fill: none; stroke: #339900; stroke-width: 1.5"/>
    </g>
    <g id="line2d_46">
     <g>
      <use xlink:href="#m7dbad405e1" x="74.772054" y="74.334687" style="fill: #339900; stroke: #339900"/>
     </g>
    </g>
    <g id="line2d_47">
     <g>
      <use xlink:href="#m7dbad405e1" x="74.772054" y="64.334687" style="fill: #339900; stroke: #339900"/>
     </g>
    </g>
    <g id="line2d_48">
     <path d="M 64.772054 69.334687 
L 84.772054 69.334687 
" style="fill: none; stroke: #339900; stroke-width: 1.5; stroke-linecap: square"/>
    </g>
    <g id="line2d_49"/>
    <g id="text_15">
     <!-- Ver3½-GP -->
     <g transform="translate(92.772054 72.834687) scale(0.1 -0.1)">
      <use xlink:href="#DejaVuSans-56"/>
      <use xlink:href="#DejaVuSans-65" transform="translate(60.658203 0)"/>
      <use xlink:href="#DejaVuSans-72" transform="translate(122.181641 0)"/>
      <use xlink:href="#DejaVuSans-33" transform="translate(163.294922 0)"/>
      <use xlink:href="#DejaVuSans-bd" transform="translate(226.917969 0)"/>
      <use xlink:href="#DejaVuSans-2d" transform="translate(323.841797 0)"/>
      <use xlink:href="#DejaVuSans-47" transform="translate(363.550781 0)"/>
      <use xlink:href="#DejaVuSans-50" transform="translate(441.041016 0)"/>
     </g>
    </g>
    <g id="LineCollection_8">
     <path d="M 74.772054 89.012812 
L 74.772054 79.012812 
" style="fill: none; stroke: #33cc00; stroke-width: 1.5"/>
    </g>
    <g id="line2d_50">
     <g>
      <use xlink:href="#m4be2de3d29" x="74.772054" y="89.012812" style="fill: #33cc00; stroke: #33cc00"/>
     </g>
    </g>
    <g id="line2d_51">
     <g>
      <use xlink:href="#m4be2de3d29" x="74.772054" y="79.012812" style="fill: #33cc00; stroke: #33cc00"/>
     </g>
    </g>
    <g id="line2d_52">
     <path d="M 64.772054 84.012812 
L 84.772054 84.012812 
" style="fill: none; stroke: #33cc00; stroke-width: 1.5; stroke-linecap: square"/>
    </g>
    <g id="line2d_53"/>
    <g id="text_16">
     <!-- Ver3½-GPX -->
     <g transform="translate(92.772054 87.512812) scale(0.1 -0.1)">
      <defs>
       <path id="DejaVuSans-58" d="M 403 4666 
L 1081 4666 
L 2241 2931 
L 3406 4666 
L 4084 4666 
L 2584 2425 
L 4184 0 
L 3506 0 
L 2194 1984 
L 872 0 
L 191 0 
L 1856 2491 
L 403 4666 
z
" transform="scale(0.015625)"/>
      </defs>
      <use xlink:href="#DejaVuSans-56"/>
      <use xlink:href="#DejaVuSans-65" transform="translate(60.658203 0)"/>
      <use xlink:href="#DejaVuSans-72" transform="translate(122.181641 0)"/>
      <use xlink:href="#DejaVuSans-33" transform="translate(163.294922 0)"/>
      <use xlink:href="#DejaVuSans-bd" transform="translate(226.917969 0)"/>
      <use xlink:href="#DejaVuSans-2d" transform="translate(323.841797 0)"/>
      <use xlink:href="#DejaVuSans-47" transform="translate(363.550781 0)"/>
      <use xlink:href="#DejaVuSans-50" transform="translate(441.041016 0)"/>
      <use xlink:href="#DejaVuSans-58" transform="translate(501.34375 0)"/>
     </g>
    </g>
   </g>
  </g>
 </g>
 <defs>
  <clipPath id="p731d2cf84c">
   <rect x="55.772054" y="26.88" width="797.427946" height="579.16"/>
  </clipPath>
 </defs>
</svg>
