<?xml version="1.0" encoding="utf-8" standalone="no"?>
<!DOCTYPE svg PUBLIC "-//W3C//DTD SVG 1.1//EN"
  "http://www.w3.org/Graphics/SVG/1.1/DTD/svg11.dtd">
<svg xmlns:xlink="http://www.w3.org/1999/xlink" width="864pt" height="648pt" viewBox="0 0 864 648" xmlns="http://www.w3.org/2000/svg" version="1.1">
 <metadata>
  <rdf:RDF xmlns:dc="http://purl.org/dc/elements/1.1/" xmlns:cc="http://creativecommons.org/ns#" xmlns:rdf="http://www.w3.org/1999/02/22-rdf-syntax-ns#">
   <cc:Work>
    <dc:type rdf:resource="http://purl.org/dc/dcmitype/StillImage"/>
    <dc:date>2024-10-25T11:07:29.933706</dc:date>
    <dc:format>image/svg+xml</dc:format>
    <dc:creator>
     <cc:Agent>
      <dc:title>Matplotlib v3.9.2, https://matplotlib.org/</dc:title>
     </cc:Agent>
    </dc:creator>
   </cc:Work>
  </rdf:RDF>
 </metadata>
 <defs>
  <style type="text/css">*{stroke-linejoin: round; stroke-linecap: butt}</style>
 </defs>
 <g id="figure_1">
  <g id="patch_1">
   <path d="M 0 648 
L 864 648 
L 864 0 
L 0 0 
z
" style="fill: #ffffff"/>
  </g>
  <g id="axes_1">
   <g id="patch_2">
    <path d="M 55.772054 606.04 
L 853.2 606.04 
L 853.2 26.88 
L 55.772054 26.88 
z
" style="fill: #ffffff"/>
   </g>
   <g id="matplotlib.axis_1">
    <g id="xtick_1">
     <g id="line2d_1">
      <defs>
       <path id="mc74f61fcfc" d="M 0 0 
L 0 3.5 
" style="stroke: #000000; stroke-width: 0.8"/>
      </defs>
      <g>
       <use xlink:href="#mc74f61fcfc" x="149.25045" y="606.04" style="stroke: #000000; stroke-width: 0.8"/>
      </g>
     </g>
     <g id="text_1">
      <!-- 25000 -->
      <g transform="translate(133.3442 620.638438) scale(0.1 -0.1)">
       <defs>
        <path id="DejaVuSans-32" d="M 1228 531 
L 3431 531 
L 3431 0 
L 469 0 
L 469 531 
Q 828 903 1448 1529 
Q 2069 2156 2228 2338 
Q 2531 2678 2651 2914 
Q 2772 3150 2772 3378 
Q 2772 3750 2511 3984 
Q 2250 4219 1831 4219 
Q 1534 4219 1204 4116 
Q 875 4013 500 3803 
L 500 4441 
Q 881 4594 1212 4672 
Q 1544 4750 1819 4750 
Q 2544 4750 2975 4387 
Q 3406 4025 3406 3419 
Q 3406 3131 3298 2873 
Q 3191 2616 2906 2266 
Q 2828 2175 2409 1742 
Q 1991 1309 1228 531 
z
" transform="scale(0.015625)"/>
        <path id="DejaVuSans-35" d="M 691 4666 
L 3169 4666 
L 3169 4134 
L 1269 4134 
L 1269 2991 
Q 1406 3038 1543 3061 
Q 1681 3084 1819 3084 
Q 2600 3084 3056 2656 
Q 3513 2228 3513 1497 
Q 3513 744 3044 326 
Q 2575 -91 1722 -91 
Q 1428 -91 1123 -41 
Q 819 9 494 109 
L 494 744 
Q 775 591 1075 516 
Q 1375 441 1709 441 
Q 2250 441 2565 725 
Q 2881 1009 2881 1497 
Q 2881 1984 2565 2268 
Q 2250 2553 1709 2553 
Q 1456 2553 1204 2497 
Q 953 2441 691 2322 
L 691 4666 
z
" transform="scale(0.015625)"/>
        <path id="DejaVuSans-30" d="M 2034 4250 
Q 1547 4250 1301 3770 
Q 1056 3291 1056 2328 
Q 1056 1369 1301 889 
Q 1547 409 2034 409 
Q 2525 409 2770 889 
Q 3016 1369 3016 2328 
Q 3016 3291 2770 3770 
Q 2525 4250 2034 4250 
z
M 2034 4750 
Q 2819 4750 3233 4129 
Q 3647 3509 3647 2328 
Q 3647 1150 3233 529 
Q 2819 -91 2034 -91 
Q 1250 -91 836 529 
Q 422 1150 422 2328 
Q 422 3509 836 4129 
Q 1250 4750 2034 4750 
z
" transform="scale(0.015625)"/>
       </defs>
       <use xlink:href="#DejaVuSans-32"/>
       <use xlink:href="#DejaVuSans-35" x="63.623047"/>
       <use xlink:href="#DejaVuSans-30" x="127.246094"/>
       <use xlink:href="#DejaVuSans-30" x="190.869141"/>
       <use xlink:href="#DejaVuSans-30" x="254.492188"/>
      </g>
     </g>
    </g>
    <g id="xtick_2">
     <g id="line2d_2">
      <g>
       <use xlink:href="#mc74f61fcfc" x="244.636567" y="606.04" style="stroke: #000000; stroke-width: 0.8"/>
      </g>
     </g>
     <g id="text_2">
      <!-- 50000 -->
      <g transform="translate(228.730317 620.638438) scale(0.1 -0.1)">
       <use xlink:href="#DejaVuSans-35"/>
       <use xlink:href="#DejaVuSans-30" x="63.623047"/>
       <use xlink:href="#DejaVuSans-30" x="127.246094"/>
       <use xlink:href="#DejaVuSans-30" x="190.869141"/>
       <use xlink:href="#DejaVuSans-30" x="254.492188"/>
      </g>
     </g>
    </g>
    <g id="xtick_3">
     <g id="line2d_3">
      <g>
       <use xlink:href="#mc74f61fcfc" x="340.022685" y="606.04" style="stroke: #000000; stroke-width: 0.8"/>
      </g>
     </g>
     <g id="text_3">
      <!-- 75000 -->
      <g transform="translate(324.116435 620.638438) scale(0.1 -0.1)">
       <defs>
        <path id="DejaVuSans-37" d="M 525 4666 
L 3525 4666 
L 3525 4397 
L 1831 0 
L 1172 0 
L 2766 4134 
L 525 4134 
L 525 4666 
z
" transform="scale(0.015625)"/>
       </defs>
       <use xlink:href="#DejaVuSans-37"/>
       <use xlink:href="#DejaVuSans-35" x="63.623047"/>
       <use xlink:href="#DejaVuSans-30" x="127.246094"/>
       <use xlink:href="#DejaVuSans-30" x="190.869141"/>
       <use xlink:href="#DejaVuSans-30" x="254.492188"/>
      </g>
     </g>
    </g>
    <g id="xtick_4">
     <g id="line2d_4">
      <g>
       <use xlink:href="#mc74f61fcfc" x="435.408803" y="606.04" style="stroke: #000000; stroke-width: 0.8"/>
      </g>
     </g>
     <g id="text_4">
      <!-- 100000 -->
      <g transform="translate(416.321303 620.638438) scale(0.1 -0.1)">
       <defs>
        <path id="DejaVuSans-31" d="M 794 531 
L 1825 531 
L 1825 4091 
L 703 3866 
L 703 4441 
L 1819 4666 
L 2450 4666 
L 2450 531 
L 3481 531 
L 3481 0 
L 794 0 
L 794 531 
z
" transform="scale(0.015625)"/>
       </defs>
       <use xlink:href="#DejaVuSans-31"/>
       <use xlink:href="#DejaVuSans-30" x="63.623047"/>
       <use xlink:href="#DejaVuSans-30" x="127.246094"/>
       <use xlink:href="#DejaVuSans-30" x="190.869141"/>
       <use xlink:href="#DejaVuSans-30" x="254.492188"/>
       <use xlink:href="#DejaVuSans-30" x="318.115234"/>
      </g>
     </g>
    </g>
    <g id="xtick_5">
     <g id="line2d_5">
      <g>
       <use xlink:href="#mc74f61fcfc" x="530.794921" y="606.04" style="stroke: #000000; stroke-width: 0.8"/>
      </g>
     </g>
     <g id="text_5">
      <!-- 125000 -->
      <g transform="translate(511.707421 620.638438) scale(0.1 -0.1)">
       <use xlink:href="#DejaVuSans-31"/>
       <use xlink:href="#DejaVuSans-32" x="63.623047"/>
       <use xlink:href="#DejaVuSans-35" x="127.246094"/>
       <use xlink:href="#DejaVuSans-30" x="190.869141"/>
       <use xlink:href="#DejaVuSans-30" x="254.492188"/>
       <use xlink:href="#DejaVuSans-30" x="318.115234"/>
      </g>
     </g>
    </g>
    <g id="xtick_6">
     <g id="line2d_6">
      <g>
       <use xlink:href="#mc74f61fcfc" x="626.181039" y="606.04" style="stroke: #000000; stroke-width: 0.8"/>
      </g>
     </g>
     <g id="text_6">
      <!-- 150000 -->
      <g transform="translate(607.093539 620.638438) scale(0.1 -0.1)">
       <use xlink:href="#DejaVuSans-31"/>
       <use xlink:href="#DejaVuSans-35" x="63.623047"/>
       <use xlink:href="#DejaVuSans-30" x="127.246094"/>
       <use xlink:href="#DejaVuSans-30" x="190.869141"/>
       <use xlink:href="#DejaVuSans-30" x="254.492188"/>
       <use xlink:href="#DejaVuSans-30" x="318.115234"/>
      </g>
     </g>
    </g>
    <g id="xtick_7">
     <g id="line2d_7">
      <g>
       <use xlink:href="#mc74f61fcfc" x="721.567157" y="606.04" style="stroke: #000000; stroke-width: 0.8"/>
      </g>
     </g>
     <g id="text_7">
      <!-- 175000 -->
      <g transform="translate(702.479657 620.638438) scale(0.1 -0.1)">
       <use xlink:href="#DejaVuSans-31"/>
       <use xlink:href="#DejaVuSans-37" x="63.623047"/>
       <use xlink:href="#DejaVuSans-35" x="127.246094"/>
       <use xlink:href="#DejaVuSans-30" x="190.869141"/>
       <use xlink:href="#DejaVuSans-30" x="254.492188"/>
       <use xlink:href="#DejaVuSans-30" x="318.115234"/>
      </g>
     </g>
    </g>
    <g id="xtick_8">
     <g id="line2d_8">
      <g>
       <use xlink:href="#mc74f61fcfc" x="816.953275" y="606.04" style="stroke: #000000; stroke-width: 0.8"/>
      </g>
     </g>
     <g id="text_8">
      <!-- 200000 -->
      <g transform="translate(797.865775 620.638438) scale(0.1 -0.1)">
       <use xlink:href="#DejaVuSans-32"/>
       <use xlink:href="#DejaVuSans-30" x="63.623047"/>
       <use xlink:href="#DejaVuSans-30" x="127.246094"/>
       <use xlink:href="#DejaVuSans-30" x="190.869141"/>
       <use xlink:href="#DejaVuSans-30" x="254.492188"/>
       <use xlink:href="#DejaVuSans-30" x="318.115234"/>
      </g>
     </g>
    </g>
    <g id="text_9">
     <!-- Size (#edges) -->
     <g transform="translate(419.435246 634.316563) scale(0.1 -0.1)">
      <defs>
       <path id="DejaVuSans-53" d="M 3425 4513 
L 3425 3897 
Q 3066 4069 2747 4153 
Q 2428 4238 2131 4238 
Q 1616 4238 1336 4038 
Q 1056 3838 1056 3469 
Q 1056 3159 1242 3001 
Q 1428 2844 1947 2747 
L 2328 2669 
Q 3034 2534 3370 2195 
Q 3706 1856 3706 1288 
Q 3706 609 3251 259 
Q 2797 -91 1919 -91 
Q 1588 -91 1214 -16 
Q 841 59 441 206 
L 441 856 
Q 825 641 1194 531 
Q 1563 422 1919 422 
Q 2459 422 2753 634 
Q 3047 847 3047 1241 
Q 3047 1584 2836 1778 
Q 2625 1972 2144 2069 
L 1759 2144 
Q 1053 2284 737 2584 
Q 422 2884 422 3419 
Q 422 4038 858 4394 
Q 1294 4750 2059 4750 
Q 2388 4750 2728 4690 
Q 3069 4631 3425 4513 
z
" transform="scale(0.015625)"/>
       <path id="DejaVuSans-69" d="M 603 3500 
L 1178 3500 
L 1178 0 
L 603 0 
L 603 3500 
z
M 603 4863 
L 1178 4863 
L 1178 4134 
L 603 4134 
L 603 4863 
z
" transform="scale(0.015625)"/>
       <path id="DejaVuSans-7a" d="M 353 3500 
L 3084 3500 
L 3084 2975 
L 922 459 
L 3084 459 
L 3084 0 
L 275 0 
L 275 525 
L 2438 3041 
L 353 3041 
L 353 3500 
z
" transform="scale(0.015625)"/>
       <path id="DejaVuSans-65" d="M 3597 1894 
L 3597 1613 
L 953 1613 
Q 991 1019 1311 708 
Q 1631 397 2203 397 
Q 2534 397 2845 478 
Q 3156 559 3463 722 
L 3463 178 
Q 3153 47 2828 -22 
Q 2503 -91 2169 -91 
Q 1331 -91 842 396 
Q 353 884 353 1716 
Q 353 2575 817 3079 
Q 1281 3584 2069 3584 
Q 2775 3584 3186 3129 
Q 3597 2675 3597 1894 
z
M 3022 2063 
Q 3016 2534 2758 2815 
Q 2500 3097 2075 3097 
Q 1594 3097 1305 2825 
Q 1016 2553 972 2059 
L 3022 2063 
z
" transform="scale(0.015625)"/>
       <path id="DejaVuSans-20" transform="scale(0.015625)"/>
       <path id="DejaVuSans-28" d="M 1984 4856 
Q 1566 4138 1362 3434 
Q 1159 2731 1159 2009 
Q 1159 1288 1364 580 
Q 1569 -128 1984 -844 
L 1484 -844 
Q 1016 -109 783 600 
Q 550 1309 550 2009 
Q 550 2706 781 3412 
Q 1013 4119 1484 4856 
L 1984 4856 
z
" transform="scale(0.015625)"/>
       <path id="DejaVuSans-23" d="M 3272 2816 
L 2363 2816 
L 2100 1772 
L 3016 1772 
L 3272 2816 
z
M 2803 4594 
L 2478 3297 
L 3391 3297 
L 3719 4594 
L 4219 4594 
L 3897 3297 
L 4872 3297 
L 4872 2816 
L 3775 2816 
L 3519 1772 
L 4513 1772 
L 4513 1294 
L 3397 1294 
L 3072 0 
L 2572 0 
L 2894 1294 
L 1978 1294 
L 1656 0 
L 1153 0 
L 1478 1294 
L 494 1294 
L 494 1772 
L 1594 1772 
L 1856 2816 
L 850 2816 
L 850 3297 
L 1978 3297 
L 2297 4594 
L 2803 4594 
z
" transform="scale(0.015625)"/>
       <path id="DejaVuSans-64" d="M 2906 2969 
L 2906 4863 
L 3481 4863 
L 3481 0 
L 2906 0 
L 2906 525 
Q 2725 213 2448 61 
Q 2172 -91 1784 -91 
Q 1150 -91 751 415 
Q 353 922 353 1747 
Q 353 2572 751 3078 
Q 1150 3584 1784 3584 
Q 2172 3584 2448 3432 
Q 2725 3281 2906 2969 
z
M 947 1747 
Q 947 1113 1208 752 
Q 1469 391 1925 391 
Q 2381 391 2643 752 
Q 2906 1113 2906 1747 
Q 2906 2381 2643 2742 
Q 2381 3103 1925 3103 
Q 1469 3103 1208 2742 
Q 947 2381 947 1747 
z
" transform="scale(0.015625)"/>
       <path id="DejaVuSans-67" d="M 2906 1791 
Q 2906 2416 2648 2759 
Q 2391 3103 1925 3103 
Q 1463 3103 1205 2759 
Q 947 2416 947 1791 
Q 947 1169 1205 825 
Q 1463 481 1925 481 
Q 2391 481 2648 825 
Q 2906 1169 2906 1791 
z
M 3481 434 
Q 3481 -459 3084 -895 
Q 2688 -1331 1869 -1331 
Q 1566 -1331 1297 -1286 
Q 1028 -1241 775 -1147 
L 775 -588 
Q 1028 -725 1275 -790 
Q 1522 -856 1778 -856 
Q 2344 -856 2625 -561 
Q 2906 -266 2906 331 
L 2906 616 
Q 2728 306 2450 153 
Q 2172 0 1784 0 
Q 1141 0 747 490 
Q 353 981 353 1791 
Q 353 2603 747 3093 
Q 1141 3584 1784 3584 
Q 2172 3584 2450 3431 
Q 2728 3278 2906 2969 
L 2906 3500 
L 3481 3500 
L 3481 434 
z
" transform="scale(0.015625)"/>
       <path id="DejaVuSans-73" d="M 2834 3397 
L 2834 2853 
Q 2591 2978 2328 3040 
Q 2066 3103 1784 3103 
Q 1356 3103 1142 2972 
Q 928 2841 928 2578 
Q 928 2378 1081 2264 
Q 1234 2150 1697 2047 
L 1894 2003 
Q 2506 1872 2764 1633 
Q 3022 1394 3022 966 
Q 3022 478 2636 193 
Q 2250 -91 1575 -91 
Q 1294 -91 989 -36 
Q 684 19 347 128 
L 347 722 
Q 666 556 975 473 
Q 1284 391 1588 391 
Q 1994 391 2212 530 
Q 2431 669 2431 922 
Q 2431 1156 2273 1281 
Q 2116 1406 1581 1522 
L 1381 1569 
Q 847 1681 609 1914 
Q 372 2147 372 2553 
Q 372 3047 722 3315 
Q 1072 3584 1716 3584 
Q 2034 3584 2315 3537 
Q 2597 3491 2834 3397 
z
" transform="scale(0.015625)"/>
       <path id="DejaVuSans-29" d="M 513 4856 
L 1013 4856 
Q 1481 4119 1714 3412 
Q 1947 2706 1947 2009 
Q 1947 1309 1714 600 
Q 1481 -109 1013 -844 
L 513 -844 
Q 928 -128 1133 580 
Q 1338 1288 1338 2009 
Q 1338 2731 1133 3434 
Q 928 4138 513 4856 
z
" transform="scale(0.015625)"/>
      </defs>
      <use xlink:href="#DejaVuSans-53"/>
      <use xlink:href="#DejaVuSans-69" x="63.476562"/>
      <use xlink:href="#DejaVuSans-7a" x="91.259766"/>
      <use xlink:href="#DejaVuSans-65" x="143.75"/>
      <use xlink:href="#DejaVuSans-20" x="205.273438"/>
      <use xlink:href="#DejaVuSans-28" x="237.060547"/>
      <use xlink:href="#DejaVuSans-23" x="276.074219"/>
      <use xlink:href="#DejaVuSans-65" x="359.863281"/>
      <use xlink:href="#DejaVuSans-64" x="421.386719"/>
      <use xlink:href="#DejaVuSans-67" x="484.863281"/>
      <use xlink:href="#DejaVuSans-65" x="548.339844"/>
      <use xlink:href="#DejaVuSans-73" x="609.863281"/>
      <use xlink:href="#DejaVuSans-29" x="661.962891"/>
     </g>
    </g>
   </g>
   <g id="matplotlib.axis_2">
    <g id="ytick_1">
     <g id="line2d_9">
      <defs>
       <path id="m7eb1c47a8f" d="M 0 0 
L -3.5 0 
" style="stroke: #000000; stroke-width: 0.8"/>
      </defs>
      <g>
       <use xlink:href="#m7eb1c47a8f" x="55.772054" y="296.563379" style="stroke: #000000; stroke-width: 0.8"/>
      </g>
     </g>
     <g id="text_10">
      <!-- $\mathdefault{10^{-1}}$ -->
      <g transform="translate(25.272054 300.362597) scale(0.1 -0.1)">
       <defs>
        <path id="DejaVuSans-2212" d="M 678 2272 
L 4684 2272 
L 4684 1741 
L 678 1741 
L 678 2272 
z
" transform="scale(0.015625)"/>
       </defs>
       <use xlink:href="#DejaVuSans-31" transform="translate(0 0.684375)"/>
       <use xlink:href="#DejaVuSans-30" transform="translate(63.623047 0.684375)"/>
       <use xlink:href="#DejaVuSans-2212" transform="translate(128.203125 38.965625) scale(0.7)"/>
       <use xlink:href="#DejaVuSans-31" transform="translate(186.855469 38.965625) scale(0.7)"/>
      </g>
     </g>
    </g>
    <g id="ytick_2">
     <g id="line2d_10">
      <defs>
       <path id="m4ace82f8a3" d="M 0 0 
L -2 0 
" style="stroke: #000000; stroke-width: 0.6"/>
      </defs>
      <g>
       <use xlink:href="#m4ace82f8a3" x="55.772054" y="533.712205" style="stroke: #000000; stroke-width: 0.6"/>
      </g>
     </g>
    </g>
    <g id="ytick_3">
     <g id="line2d_11">
      <g>
       <use xlink:href="#m4ace82f8a3" x="55.772054" y="473.967387" style="stroke: #000000; stroke-width: 0.6"/>
      </g>
     </g>
    </g>
    <g id="ytick_4">
     <g id="line2d_12">
      <g>
       <use xlink:href="#m4ace82f8a3" x="55.772054" y="431.577765" style="stroke: #000000; stroke-width: 0.6"/>
      </g>
     </g>
    </g>
    <g id="ytick_5">
     <g id="line2d_13">
      <g>
       <use xlink:href="#m4ace82f8a3" x="55.772054" y="398.697819" style="stroke: #000000; stroke-width: 0.6"/>
      </g>
     </g>
    </g>
    <g id="ytick_6">
     <g id="line2d_14">
      <g>
       <use xlink:href="#m4ace82f8a3" x="55.772054" y="371.832947" style="stroke: #000000; stroke-width: 0.6"/>
      </g>
     </g>
    </g>
    <g id="ytick_7">
     <g id="line2d_15">
      <g>
       <use xlink:href="#m4ace82f8a3" x="55.772054" y="349.119022" style="stroke: #000000; stroke-width: 0.6"/>
      </g>
     </g>
    </g>
    <g id="ytick_8">
     <g id="line2d_16">
      <g>
       <use xlink:href="#m4ace82f8a3" x="55.772054" y="329.443324" style="stroke: #000000; stroke-width: 0.6"/>
      </g>
     </g>
    </g>
    <g id="ytick_9">
     <g id="line2d_17">
      <g>
       <use xlink:href="#m4ace82f8a3" x="55.772054" y="312.088129" style="stroke: #000000; stroke-width: 0.6"/>
      </g>
     </g>
    </g>
    <g id="ytick_10">
     <g id="line2d_18">
      <g>
       <use xlink:href="#m4ace82f8a3" x="55.772054" y="194.428938" style="stroke: #000000; stroke-width: 0.6"/>
      </g>
     </g>
    </g>
    <g id="ytick_11">
     <g id="line2d_19">
      <g>
       <use xlink:href="#m4ace82f8a3" x="55.772054" y="134.684121" style="stroke: #000000; stroke-width: 0.6"/>
      </g>
     </g>
    </g>
    <g id="ytick_12">
     <g id="line2d_20">
      <g>
       <use xlink:href="#m4ace82f8a3" x="55.772054" y="92.294498" style="stroke: #000000; stroke-width: 0.6"/>
      </g>
     </g>
    </g>
    <g id="ytick_13">
     <g id="line2d_21">
      <g>
       <use xlink:href="#m4ace82f8a3" x="55.772054" y="59.414552" style="stroke: #000000; stroke-width: 0.6"/>
      </g>
     </g>
    </g>
    <g id="ytick_14">
     <g id="line2d_22">
      <g>
       <use xlink:href="#m4ace82f8a3" x="55.772054" y="32.54968" style="stroke: #000000; stroke-width: 0.6"/>
      </g>
     </g>
    </g>
    <g id="text_11">
     <!-- Seconds spent -->
     <g transform="translate(19.192366 353.040469) rotate(-90) scale(0.1 -0.1)">
      <defs>
       <path id="DejaVuSans-63" d="M 3122 3366 
L 3122 2828 
Q 2878 2963 2633 3030 
Q 2388 3097 2138 3097 
Q 1578 3097 1268 2742 
Q 959 2388 959 1747 
Q 959 1106 1268 751 
Q 1578 397 2138 397 
Q 2388 397 2633 464 
Q 2878 531 3122 666 
L 3122 134 
Q 2881 22 2623 -34 
Q 2366 -91 2075 -91 
Q 1284 -91 818 406 
Q 353 903 353 1747 
Q 353 2603 823 3093 
Q 1294 3584 2113 3584 
Q 2378 3584 2631 3529 
Q 2884 3475 3122 3366 
z
" transform="scale(0.015625)"/>
       <path id="DejaVuSans-6f" d="M 1959 3097 
Q 1497 3097 1228 2736 
Q 959 2375 959 1747 
Q 959 1119 1226 758 
Q 1494 397 1959 397 
Q 2419 397 2687 759 
Q 2956 1122 2956 1747 
Q 2956 2369 2687 2733 
Q 2419 3097 1959 3097 
z
M 1959 3584 
Q 2709 3584 3137 3096 
Q 3566 2609 3566 1747 
Q 3566 888 3137 398 
Q 2709 -91 1959 -91 
Q 1206 -91 779 398 
Q 353 888 353 1747 
Q 353 2609 779 3096 
Q 1206 3584 1959 3584 
z
" transform="scale(0.015625)"/>
       <path id="DejaVuSans-6e" d="M 3513 2113 
L 3513 0 
L 2938 0 
L 2938 2094 
Q 2938 2591 2744 2837 
Q 2550 3084 2163 3084 
Q 1697 3084 1428 2787 
Q 1159 2491 1159 1978 
L 1159 0 
L 581 0 
L 581 3500 
L 1159 3500 
L 1159 2956 
Q 1366 3272 1645 3428 
Q 1925 3584 2291 3584 
Q 2894 3584 3203 3211 
Q 3513 2838 3513 2113 
z
" transform="scale(0.015625)"/>
       <path id="DejaVuSans-70" d="M 1159 525 
L 1159 -1331 
L 581 -1331 
L 581 3500 
L 1159 3500 
L 1159 2969 
Q 1341 3281 1617 3432 
Q 1894 3584 2278 3584 
Q 2916 3584 3314 3078 
Q 3713 2572 3713 1747 
Q 3713 922 3314 415 
Q 2916 -91 2278 -91 
Q 1894 -91 1617 61 
Q 1341 213 1159 525 
z
M 3116 1747 
Q 3116 2381 2855 2742 
Q 2594 3103 2138 3103 
Q 1681 3103 1420 2742 
Q 1159 2381 1159 1747 
Q 1159 1113 1420 752 
Q 1681 391 2138 391 
Q 2594 391 2855 752 
Q 3116 1113 3116 1747 
z
" transform="scale(0.015625)"/>
       <path id="DejaVuSans-74" d="M 1172 4494 
L 1172 3500 
L 2356 3500 
L 2356 3053 
L 1172 3053 
L 1172 1153 
Q 1172 725 1289 603 
Q 1406 481 1766 481 
L 2356 481 
L 2356 0 
L 1766 0 
Q 1100 0 847 248 
Q 594 497 594 1153 
L 594 3053 
L 172 3053 
L 172 3500 
L 594 3500 
L 594 4494 
L 1172 4494 
z
" transform="scale(0.015625)"/>
      </defs>
      <use xlink:href="#DejaVuSans-53"/>
      <use xlink:href="#DejaVuSans-65" x="63.476562"/>
      <use xlink:href="#DejaVuSans-63" x="125"/>
      <use xlink:href="#DejaVuSans-6f" x="179.980469"/>
      <use xlink:href="#DejaVuSans-6e" x="241.162109"/>
      <use xlink:href="#DejaVuSans-64" x="304.541016"/>
      <use xlink:href="#DejaVuSans-73" x="368.017578"/>
      <use xlink:href="#DejaVuSans-20" x="420.117188"/>
      <use xlink:href="#DejaVuSans-73" x="451.904297"/>
      <use xlink:href="#DejaVuSans-70" x="504.003906"/>
      <use xlink:href="#DejaVuSans-65" x="567.480469"/>
      <use xlink:href="#DejaVuSans-6e" x="629.003906"/>
      <use xlink:href="#DejaVuSans-74" x="692.382812"/>
     </g>
    </g>
   </g>
   <g id="LineCollection_1">
    <path d="M 92.018779 579.714545 
L 92.018779 499.116537 
" clip-path="url(#p731d2cf84c)" style="fill: none; stroke: #cc0000; stroke-width: 1.5"/>
    <path d="M 130.173226 574.987185 
L 130.173226 568.626653 
" clip-path="url(#p731d2cf84c)" style="fill: none; stroke: #cc0000; stroke-width: 1.5"/>
    <path d="M 168.327673 522.98184 
L 168.327673 460.267758 
" clip-path="url(#p731d2cf84c)" style="fill: none; stroke: #cc0000; stroke-width: 1.5"/>
    <path d="M 206.48212 466.400735 
L 206.48212 408.428016 
" clip-path="url(#p731d2cf84c)" style="fill: none; stroke: #cc0000; stroke-width: 1.5"/>
    <path d="M 244.636567 425.987195 
L 244.636567 423.207529 
" clip-path="url(#p731d2cf84c)" style="fill: none; stroke: #cc0000; stroke-width: 1.5"/>
    <path d="M 282.791015 388.793683 
L 282.791015 383.22627 
" clip-path="url(#p731d2cf84c)" style="fill: none; stroke: #cc0000; stroke-width: 1.5"/>
    <path d="M 320.945462 352.368478 
L 320.945462 348.399613 
" clip-path="url(#p731d2cf84c)" style="fill: none; stroke: #cc0000; stroke-width: 1.5"/>
    <path d="M 359.099909 321.850721 
L 359.099909 314.343864 
" clip-path="url(#p731d2cf84c)" style="fill: none; stroke: #cc0000; stroke-width: 1.5"/>
    <path d="M 397.254356 291.629678 
L 397.254356 289.669759 
" clip-path="url(#p731d2cf84c)" style="fill: none; stroke: #cc0000; stroke-width: 1.5"/>
    <path d="M 435.408803 279.846767 
L 435.408803 262.417326 
" clip-path="url(#p731d2cf84c)" style="fill: none; stroke: #cc0000; stroke-width: 1.5"/>
    <path d="M 530.794921 221.422118 
L 530.794921 216.949571 
" clip-path="url(#p731d2cf84c)" style="fill: none; stroke: #cc0000; stroke-width: 1.5"/>
    <path d="M 626.181039 165.107117 
L 626.181039 163.519372 
" clip-path="url(#p731d2cf84c)" style="fill: none; stroke: #cc0000; stroke-width: 1.5"/>
    <path d="M 721.567157 120.414246 
L 721.567157 116.421307 
" clip-path="url(#p731d2cf84c)" style="fill: none; stroke: #cc0000; stroke-width: 1.5"/>
    <path d="M 816.953275 78.752425 
L 816.953275 77.737367 
" clip-path="url(#p731d2cf84c)" style="fill: none; stroke: #cc0000; stroke-width: 1.5"/>
   </g>
   <g id="line2d_23">
    <defs>
     <path id="m20f1b4734b" d="M 3 0 
L -3 -0 
" style="stroke: #cc0000"/>
    </defs>
    <g clip-path="url(#p731d2cf84c)">
     <use xlink:href="#m20f1b4734b" x="92.018779" y="579.714545" style="fill: #cc0000; stroke: #cc0000"/>
     <use xlink:href="#m20f1b4734b" x="130.173226" y="574.987185" style="fill: #cc0000; stroke: #cc0000"/>
     <use xlink:href="#m20f1b4734b" x="168.327673" y="522.98184" style="fill: #cc0000; stroke: #cc0000"/>
     <use xlink:href="#m20f1b4734b" x="206.48212" y="466.400735" style="fill: #cc0000; stroke: #cc0000"/>
     <use xlink:href="#m20f1b4734b" x="244.636567" y="425.987195" style="fill: #cc0000; stroke: #cc0000"/>
     <use xlink:href="#m20f1b4734b" x="282.791015" y="388.793683" style="fill: #cc0000; stroke: #cc0000"/>
     <use xlink:href="#m20f1b4734b" x="320.945462" y="352.368478" style="fill: #cc0000; stroke: #cc0000"/>
     <use xlink:href="#m20f1b4734b" x="359.099909" y="321.850721" style="fill: #cc0000; stroke: #cc0000"/>
     <use xlink:href="#m20f1b4734b" x="397.254356" y="291.629678" style="fill: #cc0000; stroke: #cc0000"/>
     <use xlink:href="#m20f1b4734b" x="435.408803" y="279.846767" style="fill: #cc0000; stroke: #cc0000"/>
     <use xlink:href="#m20f1b4734b" x="530.794921" y="221.422118" style="fill: #cc0000; stroke: #cc0000"/>
     <use xlink:href="#m20f1b4734b" x="626.181039" y="165.107117" style="fill: #cc0000; stroke: #cc0000"/>
     <use xlink:href="#m20f1b4734b" x="721.567157" y="120.414246" style="fill: #cc0000; stroke: #cc0000"/>
     <use xlink:href="#m20f1b4734b" x="816.953275" y="78.752425" style="fill: #cc0000; stroke: #cc0000"/>
    </g>
   </g>
   <g id="line2d_24">
    <g clip-path="url(#p731d2cf84c)">
     <use xlink:href="#m20f1b4734b" x="92.018779" y="499.116537" style="fill: #cc0000; stroke: #cc0000"/>
     <use xlink:href="#m20f1b4734b" x="130.173226" y="568.626653" style="fill: #cc0000; stroke: #cc0000"/>
     <use xlink:href="#m20f1b4734b" x="168.327673" y="460.267758" style="fill: #cc0000; stroke: #cc0000"/>
     <use xlink:href="#m20f1b4734b" x="206.48212" y="408.428016" style="fill: #cc0000; stroke: #cc0000"/>
     <use xlink:href="#m20f1b4734b" x="244.636567" y="423.207529" style="fill: #cc0000; stroke: #cc0000"/>
     <use xlink:href="#m20f1b4734b" x="282.791015" y="383.22627" style="fill: #cc0000; stroke: #cc0000"/>
     <use xlink:href="#m20f1b4734b" x="320.945462" y="348.399613" style="fill: #cc0000; stroke: #cc0000"/>
     <use xlink:href="#m20f1b4734b" x="359.099909" y="314.343864" style="fill: #cc0000; stroke: #cc0000"/>
     <use xlink:href="#m20f1b4734b" x="397.254356" y="289.669759" style="fill: #cc0000; stroke: #cc0000"/>
     <use xlink:href="#m20f1b4734b" x="435.408803" y="262.417326" style="fill: #cc0000; stroke: #cc0000"/>
     <use xlink:href="#m20f1b4734b" x="530.794921" y="216.949571" style="fill: #cc0000; stroke: #cc0000"/>
     <use xlink:href="#m20f1b4734b" x="626.181039" y="163.519372" style="fill: #cc0000; stroke: #cc0000"/>
     <use xlink:href="#m20f1b4734b" x="721.567157" y="116.421307" style="fill: #cc0000; stroke: #cc0000"/>
     <use xlink:href="#m20f1b4734b" x="816.953275" y="77.737367" style="fill: #cc0000; stroke: #cc0000"/>
    </g>
   </g>
   <g id="LineCollection_2">
    <path d="M 92.018779 549.424536 
L 92.018779 518.347488 
" clip-path="url(#p731d2cf84c)" style="fill: none; stroke: #ff6600; stroke-width: 1.5"/>
    <path d="M 130.173226 565.84533 
L 130.173226 474.834874 
" clip-path="url(#p731d2cf84c)" style="fill: none; stroke: #ff6600; stroke-width: 1.5"/>
    <path d="M 168.327673 516.346532 
L 168.327673 474.297819 
" clip-path="url(#p731d2cf84c)" style="fill: none; stroke: #ff6600; stroke-width: 1.5"/>
    <path d="M 206.48212 464.22398 
L 206.48212 423.569227 
" clip-path="url(#p731d2cf84c)" style="fill: none; stroke: #ff6600; stroke-width: 1.5"/>
    <path d="M 244.636567 416.566608 
L 244.636567 414.550704 
" clip-path="url(#p731d2cf84c)" style="fill: none; stroke: #ff6600; stroke-width: 1.5"/>
    <path d="M 282.791015 386.712687 
L 282.791015 382.726982 
" clip-path="url(#p731d2cf84c)" style="fill: none; stroke: #ff6600; stroke-width: 1.5"/>
    <path d="M 320.945462 352.307807 
L 320.945462 349.689311 
" clip-path="url(#p731d2cf84c)" style="fill: none; stroke: #ff6600; stroke-width: 1.5"/>
    <path d="M 359.099909 324.407061 
L 359.099909 321.634834 
" clip-path="url(#p731d2cf84c)" style="fill: none; stroke: #ff6600; stroke-width: 1.5"/>
    <path d="M 397.254356 299.302253 
L 397.254356 290.802246 
" clip-path="url(#p731d2cf84c)" style="fill: none; stroke: #ff6600; stroke-width: 1.5"/>
    <path d="M 435.408803 284.44125 
L 435.408803 244.98272 
" clip-path="url(#p731d2cf84c)" style="fill: none; stroke: #ff6600; stroke-width: 1.5"/>
    <path d="M 530.794921 224.793136 
L 530.794921 178.847521 
" clip-path="url(#p731d2cf84c)" style="fill: none; stroke: #ff6600; stroke-width: 1.5"/>
    <path d="M 626.181039 170.939707 
L 626.181039 166.622026 
" clip-path="url(#p731d2cf84c)" style="fill: none; stroke: #ff6600; stroke-width: 1.5"/>
    <path d="M 721.567157 121.310269 
L 721.567157 118.208786 
" clip-path="url(#p731d2cf84c)" style="fill: none; stroke: #ff6600; stroke-width: 1.5"/>
    <path d="M 816.953275 80.338506 
L 816.953275 53.205455 
" clip-path="url(#p731d2cf84c)" style="fill: none; stroke: #ff6600; stroke-width: 1.5"/>
   </g>
   <g id="line2d_25">
    <defs>
     <path id="m643b099e1e" d="M 3 0 
L -3 -0 
" style="stroke: #ff6600"/>
    </defs>
    <g clip-path="url(#p731d2cf84c)">
     <use xlink:href="#m643b099e1e" x="92.018779" y="549.424536" style="fill: #ff6600; stroke: #ff6600"/>
     <use xlink:href="#m643b099e1e" x="130.173226" y="565.84533" style="fill: #ff6600; stroke: #ff6600"/>
     <use xlink:href="#m643b099e1e" x="168.327673" y="516.346532" style="fill: #ff6600; stroke: #ff6600"/>
     <use xlink:href="#m643b099e1e" x="206.48212" y="464.22398" style="fill: #ff6600; stroke: #ff6600"/>
     <use xlink:href="#m643b099e1e" x="244.636567" y="416.566608" style="fill: #ff6600; stroke: #ff6600"/>
     <use xlink:href="#m643b099e1e" x="282.791015" y="386.712687" style="fill: #ff6600; stroke: #ff6600"/>
     <use xlink:href="#m643b099e1e" x="320.945462" y="352.307807" style="fill: #ff6600; stroke: #ff6600"/>
     <use xlink:href="#m643b099e1e" x="359.099909" y="324.407061" style="fill: #ff6600; stroke: #ff6600"/>
     <use xlink:href="#m643b099e1e" x="397.254356" y="299.302253" style="fill: #ff6600; stroke: #ff6600"/>
     <use xlink:href="#m643b099e1e" x="435.408803" y="284.44125" style="fill: #ff6600; stroke: #ff6600"/>
     <use xlink:href="#m643b099e1e" x="530.794921" y="224.793136" style="fill: #ff6600; stroke: #ff6600"/>
     <use xlink:href="#m643b099e1e" x="626.181039" y="170.939707" style="fill: #ff6600; stroke: #ff6600"/>
     <use xlink:href="#m643b099e1e" x="721.567157" y="121.310269" style="fill: #ff6600; stroke: #ff6600"/>
     <use xlink:href="#m643b099e1e" x="816.953275" y="80.338506" style="fill: #ff6600; stroke: #ff6600"/>
    </g>
   </g>
   <g id="line2d_26">
    <g clip-path="url(#p731d2cf84c)">
     <use xlink:href="#m643b099e1e" x="92.018779" y="518.347488" style="fill: #ff6600; stroke: #ff6600"/>
     <use xlink:href="#m643b099e1e" x="130.173226" y="474.834874" style="fill: #ff6600; stroke: #ff6600"/>
     <use xlink:href="#m643b099e1e" x="168.327673" y="474.297819" style="fill: #ff6600; stroke: #ff6600"/>
     <use xlink:href="#m643b099e1e" x="206.48212" y="423.569227" style="fill: #ff6600; stroke: #ff6600"/>
     <use xlink:href="#m643b099e1e" x="244.636567" y="414.550704" style="fill: #ff6600; stroke: #ff6600"/>
     <use xlink:href="#m643b099e1e" x="282.791015" y="382.726982" style="fill: #ff6600; stroke: #ff6600"/>
     <use xlink:href="#m643b099e1e" x="320.945462" y="349.689311" style="fill: #ff6600; stroke: #ff6600"/>
     <use xlink:href="#m643b099e1e" x="359.099909" y="321.634834" style="fill: #ff6600; stroke: #ff6600"/>
     <use xlink:href="#m643b099e1e" x="397.254356" y="290.802246" style="fill: #ff6600; stroke: #ff6600"/>
     <use xlink:href="#m643b099e1e" x="435.408803" y="244.98272" style="fill: #ff6600; stroke: #ff6600"/>
     <use xlink:href="#m643b099e1e" x="530.794921" y="178.847521" style="fill: #ff6600; stroke: #ff6600"/>
     <use xlink:href="#m643b099e1e" x="626.181039" y="166.622026" style="fill: #ff6600; stroke: #ff6600"/>
     <use xlink:href="#m643b099e1e" x="721.567157" y="118.208786" style="fill: #ff6600; stroke: #ff6600"/>
     <use xlink:href="#m643b099e1e" x="816.953275" y="53.205455" style="fill: #ff6600; stroke: #ff6600"/>
    </g>
   </g>
   <g id="LineCollection_3">
    <path d="M 92.018779 510.992175 
L 92.018779 482.557861 
" clip-path="url(#p731d2cf84c)" style="fill: none; stroke: #339900; stroke-width: 1.5"/>
    <path d="M 130.173226 528.530768 
L 130.173226 523.212866 
" clip-path="url(#p731d2cf84c)" style="fill: none; stroke: #339900; stroke-width: 1.5"/>
    <path d="M 168.327673 483.152599 
L 168.327673 462.738275 
" clip-path="url(#p731d2cf84c)" style="fill: none; stroke: #339900; stroke-width: 1.5"/>
    <path d="M 206.48212 439.772297 
L 206.48212 418.7161 
" clip-path="url(#p731d2cf84c)" style="fill: none; stroke: #339900; stroke-width: 1.5"/>
    <path d="M 244.636567 402.461016 
L 244.636567 401.358955 
" clip-path="url(#p731d2cf84c)" style="fill: none; stroke: #339900; stroke-width: 1.5"/>
    <path d="M 282.791015 374.469129 
L 282.791015 339.374038 
" clip-path="url(#p731d2cf84c)" style="fill: none; stroke: #339900; stroke-width: 1.5"/>
    <path d="M 320.945462 344.471406 
L 320.945462 342.04055 
" clip-path="url(#p731d2cf84c)" style="fill: none; stroke: #339900; stroke-width: 1.5"/>
    <path d="M 359.099909 317.658588 
L 359.099909 314.103336 
" clip-path="url(#p731d2cf84c)" style="fill: none; stroke: #339900; stroke-width: 1.5"/>
    <path d="M 397.254356 292.630117 
L 397.254356 291.860418 
" clip-path="url(#p731d2cf84c)" style="fill: none; stroke: #339900; stroke-width: 1.5"/>
    <path d="M 435.408803 271.635062 
L 435.408803 266.044746 
" clip-path="url(#p731d2cf84c)" style="fill: none; stroke: #339900; stroke-width: 1.5"/>
    <path d="M 530.794921 214.347751 
L 530.794921 193.823915 
" clip-path="url(#p731d2cf84c)" style="fill: none; stroke: #339900; stroke-width: 1.5"/>
    <path d="M 626.181039 164.598087 
L 626.181039 143.440254 
" clip-path="url(#p731d2cf84c)" style="fill: none; stroke: #339900; stroke-width: 1.5"/>
    <path d="M 721.567157 119.95438 
L 721.567157 119.339762 
" clip-path="url(#p731d2cf84c)" style="fill: none; stroke: #339900; stroke-width: 1.5"/>
    <path d="M 816.953275 79.355581 
L 816.953275 74.994782 
" clip-path="url(#p731d2cf84c)" style="fill: none; stroke: #339900; stroke-width: 1.5"/>
   </g>
   <g id="line2d_27">
    <defs>
     <path id="m7dbad405e1" d="M 3 0 
L -3 -0 
" style="stroke: #339900"/>
    </defs>
    <g clip-path="url(#p731d2cf84c)">
     <use xlink:href="#m7dbad405e1" x="92.018779" y="510.992175" style="fill: #339900; stroke: #339900"/>
     <use xlink:href="#m7dbad405e1" x="130.173226" y="528.530768" style="fill: #339900; stroke: #339900"/>
     <use xlink:href="#m7dbad405e1" x="168.327673" y="483.152599" style="fill: #339900; stroke: #339900"/>
     <use xlink:href="#m7dbad405e1" x="206.48212" y="439.772297" style="fill: #339900; stroke: #339900"/>
     <use xlink:href="#m7dbad405e1" x="244.636567" y="402.461016" style="fill: #339900; stroke: #339900"/>
     <use xlink:href="#m7dbad405e1" x="282.791015" y="374.469129" style="fill: #339900; stroke: #339900"/>
     <use xlink:href="#m7dbad405e1" x="320.945462" y="344.471406" style="fill: #339900; stroke: #339900"/>
     <use xlink:href="#m7dbad405e1" x="359.099909" y="317.658588" style="fill: #339900; stroke: #339900"/>
     <use xlink:href="#m7dbad405e1" x="397.254356" y="292.630117" style="fill: #339900; stroke: #339900"/>
     <use xlink:href="#m7dbad405e1" x="435.408803" y="271.635062" style="fill: #339900; stroke: #339900"/>
     <use xlink:href="#m7dbad405e1" x="530.794921" y="214.347751" style="fill: #339900; stroke: #339900"/>
     <use xlink:href="#m7dbad405e1" x="626.181039" y="164.598087" style="fill: #339900; stroke: #339900"/>
     <use xlink:href="#m7dbad405e1" x="721.567157" y="119.95438" style="fill: #339900; stroke: #339900"/>
     <use xlink:href="#m7dbad405e1" x="816.953275" y="79.355581" style="fill: #339900; stroke: #339900"/>
    </g>
   </g>
   <g id="line2d_28">
    <g clip-path="url(#p731d2cf84c)">
     <use xlink:href="#m7dbad405e1" x="92.018779" y="482.557861" style="fill: #339900; stroke: #339900"/>
     <use xlink:href="#m7dbad405e1" x="130.173226" y="523.212866" style="fill: #339900; stroke: #339900"/>
     <use xlink:href="#m7dbad405e1" x="168.327673" y="462.738275" style="fill: #339900; stroke: #339900"/>
     <use xlink:href="#m7dbad405e1" x="206.48212" y="418.7161" style="fill: #339900; stroke: #339900"/>
     <use xlink:href="#m7dbad405e1" x="244.636567" y="401.358955" style="fill: #339900; stroke: #339900"/>
     <use xlink:href="#m7dbad405e1" x="282.791015" y="339.374038" style="fill: #339900; stroke: #339900"/>
     <use xlink:href="#m7dbad405e1" x="320.945462" y="342.04055" style="fill: #339900; stroke: #339900"/>
     <use xlink:href="#m7dbad405e1" x="359.099909" y="314.103336" style="fill: #339900; stroke: #339900"/>
     <use xlink:href="#m7dbad405e1" x="397.254356" y="291.860418" style="fill: #339900; stroke: #339900"/>
     <use xlink:href="#m7dbad405e1" x="435.408803" y="266.044746" style="fill: #339900; stroke: #339900"/>
     <use xlink:href="#m7dbad405e1" x="530.794921" y="193.823915" style="fill: #339900; stroke: #339900"/>
     <use xlink:href="#m7dbad405e1" x="626.181039" y="143.440254" style="fill: #339900; stroke: #339900"/>
     <use xlink:href="#m7dbad405e1" x="721.567157" y="119.339762" style="fill: #339900; stroke: #339900"/>
     <use xlink:href="#m7dbad405e1" x="816.953275" y="74.994782" style="fill: #339900; stroke: #339900"/>
    </g>
   </g>
   <g id="LineCollection_4">
    <path d="M 92.018779 458.883278 
L 92.018779 437.180915 
" clip-path="url(#p731d2cf84c)" style="fill: none; stroke: #669966; stroke-width: 1.5"/>
    <path d="M 130.173226 492.26364 
L 130.173226 489.40321 
" clip-path="url(#p731d2cf84c)" style="fill: none; stroke: #669966; stroke-width: 1.5"/>
    <path d="M 168.327673 465.856313 
L 168.327673 444.659293 
" clip-path="url(#p731d2cf84c)" style="fill: none; stroke: #669966; stroke-width: 1.5"/>
    <path d="M 206.48212 445.055553 
L 206.48212 420.049144 
" clip-path="url(#p731d2cf84c)" style="fill: none; stroke: #669966; stroke-width: 1.5"/>
    <path d="M 244.636567 421.390577 
L 244.636567 419.818705 
" clip-path="url(#p731d2cf84c)" style="fill: none; stroke: #669966; stroke-width: 1.5"/>
    <path d="M 282.791015 405.413542 
L 282.791015 402.192799 
" clip-path="url(#p731d2cf84c)" style="fill: none; stroke: #669966; stroke-width: 1.5"/>
    <path d="M 320.945462 387.764834 
L 320.945462 386.472178 
" clip-path="url(#p731d2cf84c)" style="fill: none; stroke: #669966; stroke-width: 1.5"/>
    <path d="M 359.099909 373.718749 
L 359.099909 372.821776 
" clip-path="url(#p731d2cf84c)" style="fill: none; stroke: #669966; stroke-width: 1.5"/>
    <path d="M 397.254356 362.38107 
L 397.254356 320.8705 
" clip-path="url(#p731d2cf84c)" style="fill: none; stroke: #669966; stroke-width: 1.5"/>
    <path d="M 435.408803 353.861705 
L 435.408803 350.802698 
" clip-path="url(#p731d2cf84c)" style="fill: none; stroke: #669966; stroke-width: 1.5"/>
    <path d="M 530.794921 332.242294 
L 530.794921 325.480906 
" clip-path="url(#p731d2cf84c)" style="fill: none; stroke: #669966; stroke-width: 1.5"/>
    <path d="M 626.181039 314.214415 
L 626.181039 305.517244 
" clip-path="url(#p731d2cf84c)" style="fill: none; stroke: #669966; stroke-width: 1.5"/>
    <path d="M 721.567157 300.834745 
L 721.567157 288.057195 
" clip-path="url(#p731d2cf84c)" style="fill: none; stroke: #669966; stroke-width: 1.5"/>
    <path d="M 816.953275 288.161962 
L 816.953275 283.910081 
" clip-path="url(#p731d2cf84c)" style="fill: none; stroke: #669966; stroke-width: 1.5"/>
   </g>
   <g id="line2d_29">
    <defs>
     <path id="mad229174f9" d="M 3 0 
L -3 -0 
" style="stroke: #669966"/>
    </defs>
    <g clip-path="url(#p731d2cf84c)">
     <use xlink:href="#mad229174f9" x="92.018779" y="458.883278" style="fill: #669966; stroke: #669966"/>
     <use xlink:href="#mad229174f9" x="130.173226" y="492.26364" style="fill: #669966; stroke: #669966"/>
     <use xlink:href="#mad229174f9" x="168.327673" y="465.856313" style="fill: #669966; stroke: #669966"/>
     <use xlink:href="#mad229174f9" x="206.48212" y="445.055553" style="fill: #669966; stroke: #669966"/>
     <use xlink:href="#mad229174f9" x="244.636567" y="421.390577" style="fill: #669966; stroke: #669966"/>
     <use xlink:href="#mad229174f9" x="282.791015" y="405.413542" style="fill: #669966; stroke: #669966"/>
     <use xlink:href="#mad229174f9" x="320.945462" y="387.764834" style="fill: #669966; stroke: #669966"/>
     <use xlink:href="#mad229174f9" x="359.099909" y="373.718749" style="fill: #669966; stroke: #669966"/>
     <use xlink:href="#mad229174f9" x="397.254356" y="362.38107" style="fill: #669966; stroke: #669966"/>
     <use xlink:href="#mad229174f9" x="435.408803" y="353.861705" style="fill: #669966; stroke: #669966"/>
     <use xlink:href="#mad229174f9" x="530.794921" y="332.242294" style="fill: #669966; stroke: #669966"/>
     <use xlink:href="#mad229174f9" x="626.181039" y="314.214415" style="fill: #669966; stroke: #669966"/>
     <use xlink:href="#mad229174f9" x="721.567157" y="300.834745" style="fill: #669966; stroke: #669966"/>
     <use xlink:href="#mad229174f9" x="816.953275" y="288.161962" style="fill: #669966; stroke: #669966"/>
    </g>
   </g>
   <g id="line2d_30">
    <g clip-path="url(#p731d2cf84c)">
     <use xlink:href="#mad229174f9" x="92.018779" y="437.180915" style="fill: #669966; stroke: #669966"/>
     <use xlink:href="#mad229174f9" x="130.173226" y="489.40321" style="fill: #669966; stroke: #669966"/>
     <use xlink:href="#mad229174f9" x="168.327673" y="444.659293" style="fill: #669966; stroke: #669966"/>
     <use xlink:href="#mad229174f9" x="206.48212" y="420.049144" style="fill: #669966; stroke: #669966"/>
     <use xlink:href="#mad229174f9" x="244.636567" y="419.818705" style="fill: #669966; stroke: #669966"/>
     <use xlink:href="#mad229174f9" x="282.791015" y="402.192799" style="fill: #669966; stroke: #669966"/>
     <use xlink:href="#mad229174f9" x="320.945462" y="386.472178" style="fill: #669966; stroke: #669966"/>
     <use xlink:href="#mad229174f9" x="359.099909" y="372.821776" style="fill: #669966; stroke: #669966"/>
     <use xlink:href="#mad229174f9" x="397.254356" y="320.8705" style="fill: #669966; stroke: #669966"/>
     <use xlink:href="#mad229174f9" x="435.408803" y="350.802698" style="fill: #669966; stroke: #669966"/>
     <use xlink:href="#mad229174f9" x="530.794921" y="325.480906" style="fill: #669966; stroke: #669966"/>
     <use xlink:href="#mad229174f9" x="626.181039" y="305.517244" style="fill: #669966; stroke: #669966"/>
     <use xlink:href="#mad229174f9" x="721.567157" y="288.057195" style="fill: #669966; stroke: #669966"/>
     <use xlink:href="#mad229174f9" x="816.953275" y="283.910081" style="fill: #669966; stroke: #669966"/>
    </g>
   </g>
   <g id="line2d_31">
    <path d="M 92.018779 540.100215 
L 130.173226 570.795415 
L 168.327673 482.953912 
L 206.48212 429.222893 
L 244.636567 424.692489 
L 282.791015 386.753263 
L 320.945462 350.806956 
L 359.099909 318.945357 
L 397.254356 290.839848 
L 435.408803 270.168767 
L 530.794921 219.726515 
L 626.181039 164.363323 
L 721.567157 118.021702 
L 816.953275 78.110091 
" clip-path="url(#p731d2cf84c)" style="fill: none; stroke: #cc0000; stroke-width: 1.5; stroke-linecap: square"/>
   </g>
   <g id="line2d_32">
    <path d="M 92.018779 532.677772 
L 130.173226 528.556376 
L 168.327673 499.416089 
L 206.48212 447.389169 
L 244.636567 415.802402 
L 282.791015 384.12011 
L 320.945462 351.398152 
L 359.099909 322.846077 
L 397.254356 295.896613 
L 435.408803 265.138304 
L 530.794921 207.105634 
L 626.181039 168.407449 
L 721.567157 120.175402 
L 816.953275 70.472951 
" clip-path="url(#p731d2cf84c)" style="fill: none; stroke: #ff6600; stroke-width: 1.5; stroke-linecap: square"/>
   </g>
   <g id="line2d_33">
    <path d="M 92.018779 500.121202 
L 130.173226 526.465505 
L 168.327673 475.696232 
L 206.48212 429.844008 
L 244.636567 402.026014 
L 282.791015 360.683806 
L 320.945462 343.134128 
L 359.099909 316.438145 
L 397.254356 292.257381 
L 435.408803 268.846881 
L 530.794921 206.767077 
L 626.181039 153.185179 
L 721.567157 119.614437 
L 816.953275 76.710948 
" clip-path="url(#p731d2cf84c)" style="fill: none; stroke: #339900; stroke-width: 1.5; stroke-linecap: square"/>
   </g>
   <g id="line2d_34">
    <path d="M 92.018779 444.5379 
L 130.173226 490.727025 
L 168.327673 458.139851 
L 206.48212 436.115525 
L 244.636567 420.545055 
L 282.791015 403.762291 
L 320.945462 387.232414 
L 359.099909 373.386966 
L 397.254356 347.017587 
L 435.408803 352.147785 
L 530.794921 328.037894 
L 626.181039 308.744641 
L 721.567157 293.92856 
L 816.953275 286.682758 
" clip-path="url(#p731d2cf84c)" style="fill: none; stroke: #669966; stroke-width: 1.5; stroke-linecap: square"/>
   </g>
   <g id="patch_3">
    <path d="M 55.772054 606.04 
L 55.772054 26.88 
" style="fill: none; stroke: #000000; stroke-width: 0.8; stroke-linejoin: miter; stroke-linecap: square"/>
   </g>
   <g id="patch_4">
    <path d="M 853.2 606.04 
L 853.2 26.88 
" style="fill: none; stroke: #000000; stroke-width: 0.8; stroke-linejoin: miter; stroke-linecap: square"/>
   </g>
   <g id="patch_5">
    <path d="M 55.772054 606.04 
L 853.2 606.04 
" style="fill: none; stroke: #000000; stroke-width: 0.8; stroke-linejoin: miter; stroke-linecap: square"/>
   </g>
   <g id="patch_6">
    <path d="M 55.772054 26.88 
L 853.2 26.88 
" style="fill: none; stroke: #000000; stroke-width: 0.8; stroke-linejoin: miter; stroke-linecap: square"/>
   </g>
   <g id="text_12">
    <!-- Scala 2.13.8 implementations of Bron-Kerbosch on a random graph of order 10k -->
    <g transform="translate(213.383527 20.88) scale(0.12 -0.12)">
     <defs>
      <path id="DejaVuSans-61" d="M 2194 1759 
Q 1497 1759 1228 1600 
Q 959 1441 959 1056 
Q 959 750 1161 570 
Q 1363 391 1709 391 
Q 2188 391 2477 730 
Q 2766 1069 2766 1631 
L 2766 1759 
L 2194 1759 
z
M 3341 1997 
L 3341 0 
L 2766 0 
L 2766 531 
Q 2569 213 2275 61 
Q 1981 -91 1556 -91 
Q 1019 -91 701 211 
Q 384 513 384 1019 
Q 384 1609 779 1909 
Q 1175 2209 1959 2209 
L 2766 2209 
L 2766 2266 
Q 2766 2663 2505 2880 
Q 2244 3097 1772 3097 
Q 1472 3097 1187 3025 
Q 903 2953 641 2809 
L 641 3341 
Q 956 3463 1253 3523 
Q 1550 3584 1831 3584 
Q 2591 3584 2966 3190 
Q 3341 2797 3341 1997 
z
" transform="scale(0.015625)"/>
      <path id="DejaVuSans-6c" d="M 603 4863 
L 1178 4863 
L 1178 0 
L 603 0 
L 603 4863 
z
" transform="scale(0.015625)"/>
      <path id="DejaVuSans-2e" d="M 684 794 
L 1344 794 
L 1344 0 
L 684 0 
L 684 794 
z
" transform="scale(0.015625)"/>
      <path id="DejaVuSans-33" d="M 2597 2516 
Q 3050 2419 3304 2112 
Q 3559 1806 3559 1356 
Q 3559 666 3084 287 
Q 2609 -91 1734 -91 
Q 1441 -91 1130 -33 
Q 819 25 488 141 
L 488 750 
Q 750 597 1062 519 
Q 1375 441 1716 441 
Q 2309 441 2620 675 
Q 2931 909 2931 1356 
Q 2931 1769 2642 2001 
Q 2353 2234 1838 2234 
L 1294 2234 
L 1294 2753 
L 1863 2753 
Q 2328 2753 2575 2939 
Q 2822 3125 2822 3475 
Q 2822 3834 2567 4026 
Q 2313 4219 1838 4219 
Q 1578 4219 1281 4162 
Q 984 4106 628 3988 
L 628 4550 
Q 988 4650 1302 4700 
Q 1616 4750 1894 4750 
Q 2613 4750 3031 4423 
Q 3450 4097 3450 3541 
Q 3450 3153 3228 2886 
Q 3006 2619 2597 2516 
z
" transform="scale(0.015625)"/>
      <path id="DejaVuSans-38" d="M 2034 2216 
Q 1584 2216 1326 1975 
Q 1069 1734 1069 1313 
Q 1069 891 1326 650 
Q 1584 409 2034 409 
Q 2484 409 2743 651 
Q 3003 894 3003 1313 
Q 3003 1734 2745 1975 
Q 2488 2216 2034 2216 
z
M 1403 2484 
Q 997 2584 770 2862 
Q 544 3141 544 3541 
Q 544 4100 942 4425 
Q 1341 4750 2034 4750 
Q 2731 4750 3128 4425 
Q 3525 4100 3525 3541 
Q 3525 3141 3298 2862 
Q 3072 2584 2669 2484 
Q 3125 2378 3379 2068 
Q 3634 1759 3634 1313 
Q 3634 634 3220 271 
Q 2806 -91 2034 -91 
Q 1263 -91 848 271 
Q 434 634 434 1313 
Q 434 1759 690 2068 
Q 947 2378 1403 2484 
z
M 1172 3481 
Q 1172 3119 1398 2916 
Q 1625 2713 2034 2713 
Q 2441 2713 2670 2916 
Q 2900 3119 2900 3481 
Q 2900 3844 2670 4047 
Q 2441 4250 2034 4250 
Q 1625 4250 1398 4047 
Q 1172 3844 1172 3481 
z
" transform="scale(0.015625)"/>
      <path id="DejaVuSans-6d" d="M 3328 2828 
Q 3544 3216 3844 3400 
Q 4144 3584 4550 3584 
Q 5097 3584 5394 3201 
Q 5691 2819 5691 2113 
L 5691 0 
L 5113 0 
L 5113 2094 
Q 5113 2597 4934 2840 
Q 4756 3084 4391 3084 
Q 3944 3084 3684 2787 
Q 3425 2491 3425 1978 
L 3425 0 
L 2847 0 
L 2847 2094 
Q 2847 2600 2669 2842 
Q 2491 3084 2119 3084 
Q 1678 3084 1418 2786 
Q 1159 2488 1159 1978 
L 1159 0 
L 581 0 
L 581 3500 
L 1159 3500 
L 1159 2956 
Q 1356 3278 1631 3431 
Q 1906 3584 2284 3584 
Q 2666 3584 2933 3390 
Q 3200 3197 3328 2828 
z
" transform="scale(0.015625)"/>
      <path id="DejaVuSans-66" d="M 2375 4863 
L 2375 4384 
L 1825 4384 
Q 1516 4384 1395 4259 
Q 1275 4134 1275 3809 
L 1275 3500 
L 2222 3500 
L 2222 3053 
L 1275 3053 
L 1275 0 
L 697 0 
L 697 3053 
L 147 3053 
L 147 3500 
L 697 3500 
L 697 3744 
Q 697 4328 969 4595 
Q 1241 4863 1831 4863 
L 2375 4863 
z
" transform="scale(0.015625)"/>
      <path id="DejaVuSans-42" d="M 1259 2228 
L 1259 519 
L 2272 519 
Q 2781 519 3026 730 
Q 3272 941 3272 1375 
Q 3272 1813 3026 2020 
Q 2781 2228 2272 2228 
L 1259 2228 
z
M 1259 4147 
L 1259 2741 
L 2194 2741 
Q 2656 2741 2882 2914 
Q 3109 3088 3109 3444 
Q 3109 3797 2882 3972 
Q 2656 4147 2194 4147 
L 1259 4147 
z
M 628 4666 
L 2241 4666 
Q 2963 4666 3353 4366 
Q 3744 4066 3744 3513 
Q 3744 3084 3544 2831 
Q 3344 2578 2956 2516 
Q 3422 2416 3680 2098 
Q 3938 1781 3938 1306 
Q 3938 681 3513 340 
Q 3088 0 2303 0 
L 628 0 
L 628 4666 
z
" transform="scale(0.015625)"/>
      <path id="DejaVuSans-72" d="M 2631 2963 
Q 2534 3019 2420 3045 
Q 2306 3072 2169 3072 
Q 1681 3072 1420 2755 
Q 1159 2438 1159 1844 
L 1159 0 
L 581 0 
L 581 3500 
L 1159 3500 
L 1159 2956 
Q 1341 3275 1631 3429 
Q 1922 3584 2338 3584 
Q 2397 3584 2469 3576 
Q 2541 3569 2628 3553 
L 2631 2963 
z
" transform="scale(0.015625)"/>
      <path id="DejaVuSans-2d" d="M 313 2009 
L 1997 2009 
L 1997 1497 
L 313 1497 
L 313 2009 
z
" transform="scale(0.015625)"/>
      <path id="DejaVuSans-4b" d="M 628 4666 
L 1259 4666 
L 1259 2694 
L 3353 4666 
L 4166 4666 
L 1850 2491 
L 4331 0 
L 3500 0 
L 1259 2247 
L 1259 0 
L 628 0 
L 628 4666 
z
" transform="scale(0.015625)"/>
      <path id="DejaVuSans-62" d="M 3116 1747 
Q 3116 2381 2855 2742 
Q 2594 3103 2138 3103 
Q 1681 3103 1420 2742 
Q 1159 2381 1159 1747 
Q 1159 1113 1420 752 
Q 1681 391 2138 391 
Q 2594 391 2855 752 
Q 3116 1113 3116 1747 
z
M 1159 2969 
Q 1341 3281 1617 3432 
Q 1894 3584 2278 3584 
Q 2916 3584 3314 3078 
Q 3713 2572 3713 1747 
Q 3713 922 3314 415 
Q 2916 -91 2278 -91 
Q 1894 -91 1617 61 
Q 1341 213 1159 525 
L 1159 0 
L 581 0 
L 581 4863 
L 1159 4863 
L 1159 2969 
z
" transform="scale(0.015625)"/>
      <path id="DejaVuSans-68" d="M 3513 2113 
L 3513 0 
L 2938 0 
L 2938 2094 
Q 2938 2591 2744 2837 
Q 2550 3084 2163 3084 
Q 1697 3084 1428 2787 
Q 1159 2491 1159 1978 
L 1159 0 
L 581 0 
L 581 4863 
L 1159 4863 
L 1159 2956 
Q 1366 3272 1645 3428 
Q 1925 3584 2291 3584 
Q 2894 3584 3203 3211 
Q 3513 2838 3513 2113 
z
" transform="scale(0.015625)"/>
      <path id="DejaVuSans-6b" d="M 581 4863 
L 1159 4863 
L 1159 1991 
L 2875 3500 
L 3609 3500 
L 1753 1863 
L 3688 0 
L 2938 0 
L 1159 1709 
L 1159 0 
L 581 0 
L 581 4863 
z
" transform="scale(0.015625)"/>
     </defs>
     <use xlink:href="#DejaVuSans-53"/>
     <use xlink:href="#DejaVuSans-63" x="63.476562"/>
     <use xlink:href="#DejaVuSans-61" x="118.457031"/>
     <use xlink:href="#DejaVuSans-6c" x="179.736328"/>
     <use xlink:href="#DejaVuSans-61" x="207.519531"/>
     <use xlink:href="#DejaVuSans-20" x="268.798828"/>
     <use xlink:href="#DejaVuSans-32" x="300.585938"/>
     <use xlink:href="#DejaVuSans-2e" x="364.208984"/>
     <use xlink:href="#DejaVuSans-31" x="395.996094"/>
     <use xlink:href="#DejaVuSans-33" x="459.619141"/>
     <use xlink:href="#DejaVuSans-2e" x="523.242188"/>
     <use xlink:href="#DejaVuSans-38" x="555.029297"/>
     <use xlink:href="#DejaVuSans-20" x="618.652344"/>
     <use xlink:href="#DejaVuSans-69" x="650.439453"/>
     <use xlink:href="#DejaVuSans-6d" x="678.222656"/>
     <use xlink:href="#DejaVuSans-70" x="775.634766"/>
     <use xlink:href="#DejaVuSans-6c" x="839.111328"/>
     <use xlink:href="#DejaVuSans-65" x="866.894531"/>
     <use xlink:href="#DejaVuSans-6d" x="928.417969"/>
     <use xlink:href="#DejaVuSans-65" x="1025.830078"/>
     <use xlink:href="#DejaVuSans-6e" x="1087.353516"/>
     <use xlink:href="#DejaVuSans-74" x="1150.732422"/>
     <use xlink:href="#DejaVuSans-61" x="1189.941406"/>
     <use xlink:href="#DejaVuSans-74" x="1251.220703"/>
     <use xlink:href="#DejaVuSans-69" x="1290.429688"/>
     <use xlink:href="#DejaVuSans-6f" x="1318.212891"/>
     <use xlink:href="#DejaVuSans-6e" x="1379.394531"/>
     <use xlink:href="#DejaVuSans-73" x="1442.773438"/>
     <use xlink:href="#DejaVuSans-20" x="1494.873047"/>
     <use xlink:href="#DejaVuSans-6f" x="1526.660156"/>
     <use xlink:href="#DejaVuSans-66" x="1587.841797"/>
     <use xlink:href="#DejaVuSans-20" x="1623.046875"/>
     <use xlink:href="#DejaVuSans-42" x="1654.833984"/>
     <use xlink:href="#DejaVuSans-72" x="1723.4375"/>
     <use xlink:href="#DejaVuSans-6f" x="1762.300781"/>
     <use xlink:href="#DejaVuSans-6e" x="1823.482422"/>
     <use xlink:href="#DejaVuSans-2d" x="1886.861328"/>
     <use xlink:href="#DejaVuSans-4b" x="1922.945312"/>
     <use xlink:href="#DejaVuSans-65" x="1983.521484"/>
     <use xlink:href="#DejaVuSans-72" x="2045.044922"/>
     <use xlink:href="#DejaVuSans-62" x="2086.158203"/>
     <use xlink:href="#DejaVuSans-6f" x="2149.634766"/>
     <use xlink:href="#DejaVuSans-73" x="2210.816406"/>
     <use xlink:href="#DejaVuSans-63" x="2262.916016"/>
     <use xlink:href="#DejaVuSans-68" x="2317.896484"/>
     <use xlink:href="#DejaVuSans-20" x="2381.275391"/>
     <use xlink:href="#DejaVuSans-6f" x="2413.0625"/>
     <use xlink:href="#DejaVuSans-6e" x="2474.244141"/>
     <use xlink:href="#DejaVuSans-20" x="2537.623047"/>
     <use xlink:href="#DejaVuSans-61" x="2569.410156"/>
     <use xlink:href="#DejaVuSans-20" x="2630.689453"/>
     <use xlink:href="#DejaVuSans-72" x="2662.476562"/>
     <use xlink:href="#DejaVuSans-61" x="2703.589844"/>
     <use xlink:href="#DejaVuSans-6e" x="2764.869141"/>
     <use xlink:href="#DejaVuSans-64" x="2828.248047"/>
     <use xlink:href="#DejaVuSans-6f" x="2891.724609"/>
     <use xlink:href="#DejaVuSans-6d" x="2952.90625"/>
     <use xlink:href="#DejaVuSans-20" x="3050.318359"/>
     <use xlink:href="#DejaVuSans-67" x="3082.105469"/>
     <use xlink:href="#DejaVuSans-72" x="3145.582031"/>
     <use xlink:href="#DejaVuSans-61" x="3186.695312"/>
     <use xlink:href="#DejaVuSans-70" x="3247.974609"/>
     <use xlink:href="#DejaVuSans-68" x="3311.451172"/>
     <use xlink:href="#DejaVuSans-20" x="3374.830078"/>
     <use xlink:href="#DejaVuSans-6f" x="3406.617188"/>
     <use xlink:href="#DejaVuSans-66" x="3467.798828"/>
     <use xlink:href="#DejaVuSans-20" x="3503.003906"/>
     <use xlink:href="#DejaVuSans-6f" x="3534.791016"/>
     <use xlink:href="#DejaVuSans-72" x="3595.972656"/>
     <use xlink:href="#DejaVuSans-64" x="3635.335938"/>
     <use xlink:href="#DejaVuSans-65" x="3698.8125"/>
     <use xlink:href="#DejaVuSans-72" x="3760.335938"/>
     <use xlink:href="#DejaVuSans-20" x="3801.449219"/>
     <use xlink:href="#DejaVuSans-31" x="3833.236328"/>
     <use xlink:href="#DejaVuSans-30" x="3896.859375"/>
     <use xlink:href="#DejaVuSans-6b" x="3960.482422"/>
    </g>
   </g>
   <g id="legend_1">
    <g id="patch_7">
     <path d="M 62.772054 93.5925 
L 154.348616 93.5925 
Q 156.348616 93.5925 156.348616 91.5925 
L 156.348616 33.88 
Q 156.348616 31.88 154.348616 31.88 
L 62.772054 31.88 
Q 60.772054 31.88 60.772054 33.88 
L 60.772054 91.5925 
Q 60.772054 93.5925 62.772054 93.5925 
z
" style="fill: #ffffff; opacity: 0.8; stroke: #cccccc; stroke-linejoin: miter"/>
    </g>
    <g id="LineCollection_5">
     <path d="M 74.772054 44.978437 
L 74.772054 34.978437 
" style="fill: none; stroke: #cc0000; stroke-width: 1.5"/>
    </g>
    <g id="line2d_35">
     <g>
      <use xlink:href="#m20f1b4734b" x="74.772054" y="44.978437" style="fill: #cc0000; stroke: #cc0000"/>
     </g>
    </g>
    <g id="line2d_36">
     <g>
      <use xlink:href="#m20f1b4734b" x="74.772054" y="34.978437" style="fill: #cc0000; stroke: #cc0000"/>
     </g>
    </g>
    <g id="line2d_37">
     <path d="M 64.772054 39.978437 
L 84.772054 39.978437 
" style="fill: none; stroke: #cc0000; stroke-width: 1.5; stroke-linecap: square"/>
    </g>
    <g id="line2d_38"/>
    <g id="text_13">
     <!-- Ver2 -->
     <g transform="translate(92.772054 43.478437) scale(0.1 -0.1)">
      <defs>
       <path id="DejaVuSans-56" d="M 1831 0 
L 50 4666 
L 709 4666 
L 2188 738 
L 3669 4666 
L 4325 4666 
L 2547 0 
L 1831 0 
z
" transform="scale(0.015625)"/>
       <path id="DejaVuSans-bd" d="M 488 2431 
L 1125 2431 
L 1125 4341 
L 428 4213 
L 428 4575 
L 1147 4697 
L 1575 4697 
L 1575 2431 
L 2216 2431 
L 2216 2088 
L 488 2088 
L 488 2431 
z
M 4470 332 
L 5795 332 
L 5795 -24 
L 3926 -24 
L 3926 319 
Q 4032 416 4229 591 
Q 5304 1544 5304 1838 
Q 5304 2044 5141 2170 
Q 4979 2297 4713 2297 
Q 4551 2297 4360 2242 
Q 4170 2188 3945 2079 
L 3945 2463 
Q 4185 2551 4393 2594 
Q 4601 2638 4779 2638 
Q 5232 2638 5504 2432 
Q 5776 2226 5776 1888 
Q 5776 1454 4741 566 
Q 4566 416 4470 332 
z
M 4309 4750 
L 4809 4750 
L 1896 -91 
L 1396 -91 
L 4309 4750 
z
" transform="scale(0.015625)"/>
      </defs>
      <use xlink:href="#DejaVuSans-56"/>
      <use xlink:href="#DejaVuSans-65" x="60.658203"/>
      <use xlink:href="#DejaVuSans-72" x="122.181641"/>
      <use xlink:href="#DejaVuSans-32" x="163.294922"/>
      <use xlink:href="#DejaVuSans-bd" x="226.917969"/>
     </g>
    </g>
    <g id="LineCollection_6">
     <path d="M 74.772054 59.656562 
L 74.772054 49.656562 
" style="fill: none; stroke: #ff6600; stroke-width: 1.5"/>
    </g>
    <g id="line2d_39">
     <g>
      <use xlink:href="#m643b099e1e" x="74.772054" y="59.656562" style="fill: #ff6600; stroke: #ff6600"/>
     </g>
    </g>
    <g id="line2d_40">
     <g>
      <use xlink:href="#m643b099e1e" x="74.772054" y="49.656562" style="fill: #ff6600; stroke: #ff6600"/>
     </g>
    </g>
    <g id="line2d_41">
     <path d="M 64.772054 54.656562 
L 84.772054 54.656562 
" style="fill: none; stroke: #ff6600; stroke-width: 1.5; stroke-linecap: square"/>
    </g>
    <g id="line2d_42"/>
    <g id="text_14">
     <!-- Ver2-GP -->
     <g transform="translate(92.772054 58.156562) scale(0.1 -0.1)">
      <defs>
       <path id="DejaVuSans-47" d="M 3809 666 
L 3809 1919 
L 2778 1919 
L 2778 2438 
L 4434 2438 
L 4434 434 
Q 4069 175 3628 42 
Q 3188 -91 2688 -91 
Q 1594 -91 976 548 
Q 359 1188 359 2328 
Q 359 3472 976 4111 
Q 1594 4750 2688 4750 
Q 3144 4750 3555 4637 
Q 3966 4525 4313 4306 
L 4313 3634 
Q 3963 3931 3569 4081 
Q 3175 4231 2741 4231 
Q 1884 4231 1454 3753 
Q 1025 3275 1025 2328 
Q 1025 1384 1454 906 
Q 1884 428 2741 428 
Q 3075 428 3337 486 
Q 3600 544 3809 666 
z
" transform="scale(0.015625)"/>
       <path id="DejaVuSans-50" d="M 1259 4147 
L 1259 2394 
L 2053 2394 
Q 2494 2394 2734 2622 
Q 2975 2850 2975 3272 
Q 2975 3691 2734 3919 
Q 2494 4147 2053 4147 
L 1259 4147 
z
M 628 4666 
L 2053 4666 
Q 2838 4666 3239 4311 
Q 3641 3956 3641 3272 
Q 3641 2581 3239 2228 
Q 2838 1875 2053 1875 
L 1259 1875 
L 1259 0 
L 628 0 
L 628 4666 
z
" transform="scale(0.015625)"/>
      </defs>
      <use xlink:href="#DejaVuSans-56"/>
      <use xlink:href="#DejaVuSans-65" x="60.658203"/>
      <use xlink:href="#DejaVuSans-72" x="122.181641"/>
      <use xlink:href="#DejaVuSans-32" x="163.294922"/>
      <use xlink:href="#DejaVuSans-bd" x="226.917969"/>
      <use xlink:href="#DejaVuSans-2d" x="323.841797"/>
      <use xlink:href="#DejaVuSans-47" x="363.550781"/>
      <use xlink:href="#DejaVuSans-50" x="441.041016"/>
     </g>
    </g>
    <g id="LineCollection_7">
     <path d="M 74.772054 74.334687 
L 74.772054 64.334687 
" style="fill: none; stroke: #339900; stroke-width: 1.5"/>
    </g>
    <g id="line2d_43">
     <g>
      <use xlink:href="#m7dbad405e1" x="74.772054" y="74.334687" style="fill: #339900; stroke: #339900"/>
     </g>
    </g>
    <g id="line2d_44">
     <g>
      <use xlink:href="#m7dbad405e1" x="74.772054" y="64.334687" style="fill: #339900; stroke: #339900"/>
     </g>
    </g>
    <g id="line2d_45">
     <path d="M 64.772054 69.334687 
L 84.772054 69.334687 
" style="fill: none; stroke: #339900; stroke-width: 1.5; stroke-linecap: square"/>
    </g>
    <g id="line2d_46"/>
    <g id="text_15">
     <!-- Ver3-GP -->
     <g transform="translate(92.772054 72.834687) scale(0.1 -0.1)">
      <use xlink:href="#DejaVuSans-56"/>
      <use xlink:href="#DejaVuSans-65" x="60.658203"/>
      <use xlink:href="#DejaVuSans-72" x="122.181641"/>
      <use xlink:href="#DejaVuSans-33" x="163.294922"/>
      <use xlink:href="#DejaVuSans-bd" x="226.917969"/>
      <use xlink:href="#DejaVuSans-2d" x="323.841797"/>
      <use xlink:href="#DejaVuSans-47" x="363.550781"/>
      <use xlink:href="#DejaVuSans-50" x="441.041016"/>
     </g>
    </g>
    <g id="LineCollection_8">
     <path d="M 74.772054 89.012812 
L 74.772054 79.012812 
" style="fill: none; stroke: #669966; stroke-width: 1.5"/>
    </g>
    <g id="line2d_47">
     <g>
      <use xlink:href="#mad229174f9" x="74.772054" y="89.012812" style="fill: #669966; stroke: #669966"/>
     </g>
    </g>
    <g id="line2d_48">
     <g>
      <use xlink:href="#mad229174f9" x="74.772054" y="79.012812" style="fill: #669966; stroke: #669966"/>
     </g>
    </g>
    <g id="line2d_49">
     <path d="M 64.772054 84.012812 
L 84.772054 84.012812 
" style="fill: none; stroke: #669966; stroke-width: 1.5; stroke-linecap: square"/>
    </g>
    <g id="line2d_50"/>
    <g id="text_16">
     <!-- Ver3=GPs -->
     <g transform="translate(92.772054 87.512812) scale(0.1 -0.1)">
      <defs>
       <path id="DejaVuSans-3d" d="M 678 2906 
L 4684 2906 
L 4684 2381 
L 678 2381 
L 678 2906 
z
M 678 1631 
L 4684 1631 
L 4684 1100 
L 678 1100 
L 678 1631 
z
" transform="scale(0.015625)"/>
      </defs>
      <use xlink:href="#DejaVuSans-56"/>
      <use xlink:href="#DejaVuSans-65" x="60.658203"/>
      <use xlink:href="#DejaVuSans-72" x="122.181641"/>
      <use xlink:href="#DejaVuSans-33" x="163.294922"/>
      <use xlink:href="#DejaVuSans-bd" x="226.917969"/>
      <use xlink:href="#DejaVuSans-3d" x="323.841797"/>
      <use xlink:href="#DejaVuSans-47" x="407.630859"/>
      <use xlink:href="#DejaVuSans-50" x="485.121094"/>
      <use xlink:href="#DejaVuSans-73" x="543.673828"/>
     </g>
    </g>
   </g>
  </g>
 </g>
 <defs>
  <clipPath id="p731d2cf84c">
   <rect x="55.772054" y="26.88" width="797.427946" height="579.16"/>
  </clipPath>
 </defs>
</svg>
