<?xml version="1.0" encoding="utf-8" standalone="no"?>
<!DOCTYPE svg PUBLIC "-//W3C//DTD SVG 1.1//EN"
  "http://www.w3.org/Graphics/SVG/1.1/DTD/svg11.dtd">
<svg xmlns:xlink="http://www.w3.org/1999/xlink" width="864pt" height="648pt" viewBox="0 0 864 648" xmlns="http://www.w3.org/2000/svg" version="1.1">
 <metadata>
  <rdf:RDF xmlns:dc="http://purl.org/dc/elements/1.1/" xmlns:cc="http://creativecommons.org/ns#" xmlns:rdf="http://www.w3.org/1999/02/22-rdf-syntax-ns#">
   <cc:Work>
    <dc:type rdf:resource="http://purl.org/dc/dcmitype/StillImage"/>
    <dc:date>2026-02-19T23:24:57.311828</dc:date>
    <dc:format>image/svg+xml</dc:format>
    <dc:creator>
     <cc:Agent>
      <dc:title>Matplotlib v3.10.8, https://matplotlib.org/</dc:title>
     </cc:Agent>
    </dc:creator>
   </cc:Work>
  </rdf:RDF>
 </metadata>
 <defs>
  <style type="text/css">*{stroke-linejoin: round; stroke-linecap: butt}</style>
 </defs>
 <g id="figure_1">
  <g id="patch_1">
   <path d="M 0 648 
L 864 648 
L 864 0 
L 0 0 
z
" style="fill: #ffffff"/>
  </g>
  <g id="axes_1">
   <g id="patch_2">
    <path d="M 50.092685 606.04 
L 853.2 606.04 
L 853.2 26.88 
L 50.092685 26.88 
z
" style="fill: #ffffff"/>
   </g>
   <g id="matplotlib.axis_1">
    <g id="xtick_1">
     <g id="line2d_1">
      <defs>
       <path id="mc74f61fcfc" d="M 0 0 
L 0 3.5 
" style="stroke: #000000; stroke-width: 0.8"/>
      </defs>
      <g>
       <use xlink:href="#mc74f61fcfc" x="86.597563" y="606.04" style="stroke: #000000; stroke-width: 0.8"/>
      </g>
     </g>
     <g id="text_1">
      <!-- 0.5 -->
      <g transform="translate(78.646 620.638438) scale(0.1 -0.1)">
       <defs>
        <path id="DejaVuSans-30" d="M 2034 4250 
Q 1547 4250 1301 3770 
Q 1056 3291 1056 2328 
Q 1056 1369 1301 889 
Q 1547 409 2034 409 
Q 2525 409 2770 889 
Q 3016 1369 3016 2328 
Q 3016 3291 2770 3770 
Q 2525 4250 2034 4250 
z
M 2034 4750 
Q 2819 4750 3233 4129 
Q 3647 3509 3647 2328 
Q 3647 1150 3233 529 
Q 2819 -91 2034 -91 
Q 1250 -91 836 529 
Q 422 1150 422 2328 
Q 422 3509 836 4129 
Q 1250 4750 2034 4750 
z
" transform="scale(0.015625)"/>
        <path id="DejaVuSans-2e" d="M 684 794 
L 1344 794 
L 1344 0 
L 684 0 
L 684 794 
z
" transform="scale(0.015625)"/>
        <path id="DejaVuSans-35" d="M 691 4666 
L 3169 4666 
L 3169 4134 
L 1269 4134 
L 1269 2991 
Q 1406 3038 1543 3061 
Q 1681 3084 1819 3084 
Q 2600 3084 3056 2656 
Q 3513 2228 3513 1497 
Q 3513 744 3044 326 
Q 2575 -91 1722 -91 
Q 1428 -91 1123 -41 
Q 819 9 494 109 
L 494 744 
Q 775 591 1075 516 
Q 1375 441 1709 441 
Q 2250 441 2565 725 
Q 2881 1009 2881 1497 
Q 2881 1984 2565 2268 
Q 2250 2553 1709 2553 
Q 1456 2553 1204 2497 
Q 953 2441 691 2322 
L 691 4666 
z
" transform="scale(0.015625)"/>
       </defs>
       <use xlink:href="#DejaVuSans-30"/>
       <use xlink:href="#DejaVuSans-2e" transform="translate(63.623047 0)"/>
       <use xlink:href="#DejaVuSans-35" transform="translate(95.410156 0)"/>
      </g>
     </g>
    </g>
    <g id="xtick_2">
     <g id="line2d_2">
      <g>
       <use xlink:href="#mc74f61fcfc" x="232.617075" y="606.04" style="stroke: #000000; stroke-width: 0.8"/>
      </g>
     </g>
     <g id="text_2">
      <!-- 1.0 -->
      <g transform="translate(224.665512 620.638438) scale(0.1 -0.1)">
       <defs>
        <path id="DejaVuSans-31" d="M 794 531 
L 1825 531 
L 1825 4091 
L 703 3866 
L 703 4441 
L 1819 4666 
L 2450 4666 
L 2450 531 
L 3481 531 
L 3481 0 
L 794 0 
L 794 531 
z
" transform="scale(0.015625)"/>
       </defs>
       <use xlink:href="#DejaVuSans-31"/>
       <use xlink:href="#DejaVuSans-2e" transform="translate(63.623047 0)"/>
       <use xlink:href="#DejaVuSans-30" transform="translate(95.410156 0)"/>
      </g>
     </g>
    </g>
    <g id="xtick_3">
     <g id="line2d_3">
      <g>
       <use xlink:href="#mc74f61fcfc" x="378.636586" y="606.04" style="stroke: #000000; stroke-width: 0.8"/>
      </g>
     </g>
     <g id="text_3">
      <!-- 1.5 -->
      <g transform="translate(370.685024 620.638438) scale(0.1 -0.1)">
       <use xlink:href="#DejaVuSans-31"/>
       <use xlink:href="#DejaVuSans-2e" transform="translate(63.623047 0)"/>
       <use xlink:href="#DejaVuSans-35" transform="translate(95.410156 0)"/>
      </g>
     </g>
    </g>
    <g id="xtick_4">
     <g id="line2d_4">
      <g>
       <use xlink:href="#mc74f61fcfc" x="524.656098" y="606.04" style="stroke: #000000; stroke-width: 0.8"/>
      </g>
     </g>
     <g id="text_4">
      <!-- 2.0 -->
      <g transform="translate(516.704536 620.638438) scale(0.1 -0.1)">
       <defs>
        <path id="DejaVuSans-32" d="M 1228 531 
L 3431 531 
L 3431 0 
L 469 0 
L 469 531 
Q 828 903 1448 1529 
Q 2069 2156 2228 2338 
Q 2531 2678 2651 2914 
Q 2772 3150 2772 3378 
Q 2772 3750 2511 3984 
Q 2250 4219 1831 4219 
Q 1534 4219 1204 4116 
Q 875 4013 500 3803 
L 500 4441 
Q 881 4594 1212 4672 
Q 1544 4750 1819 4750 
Q 2544 4750 2975 4387 
Q 3406 4025 3406 3419 
Q 3406 3131 3298 2873 
Q 3191 2616 2906 2266 
Q 2828 2175 2409 1742 
Q 1991 1309 1228 531 
z
" transform="scale(0.015625)"/>
       </defs>
       <use xlink:href="#DejaVuSans-32"/>
       <use xlink:href="#DejaVuSans-2e" transform="translate(63.623047 0)"/>
       <use xlink:href="#DejaVuSans-30" transform="translate(95.410156 0)"/>
      </g>
     </g>
    </g>
    <g id="xtick_5">
     <g id="line2d_5">
      <g>
       <use xlink:href="#mc74f61fcfc" x="670.67561" y="606.04" style="stroke: #000000; stroke-width: 0.8"/>
      </g>
     </g>
     <g id="text_5">
      <!-- 2.5 -->
      <g transform="translate(662.724048 620.638438) scale(0.1 -0.1)">
       <use xlink:href="#DejaVuSans-32"/>
       <use xlink:href="#DejaVuSans-2e" transform="translate(63.623047 0)"/>
       <use xlink:href="#DejaVuSans-35" transform="translate(95.410156 0)"/>
      </g>
     </g>
    </g>
    <g id="xtick_6">
     <g id="line2d_6">
      <g>
       <use xlink:href="#mc74f61fcfc" x="816.695122" y="606.04" style="stroke: #000000; stroke-width: 0.8"/>
      </g>
     </g>
     <g id="text_6">
      <!-- 3.0 -->
      <g transform="translate(808.74356 620.638438) scale(0.1 -0.1)">
       <defs>
        <path id="DejaVuSans-33" d="M 2597 2516 
Q 3050 2419 3304 2112 
Q 3559 1806 3559 1356 
Q 3559 666 3084 287 
Q 2609 -91 1734 -91 
Q 1441 -91 1130 -33 
Q 819 25 488 141 
L 488 750 
Q 750 597 1062 519 
Q 1375 441 1716 441 
Q 2309 441 2620 675 
Q 2931 909 2931 1356 
Q 2931 1769 2642 2001 
Q 2353 2234 1838 2234 
L 1294 2234 
L 1294 2753 
L 1863 2753 
Q 2328 2753 2575 2939 
Q 2822 3125 2822 3475 
Q 2822 3834 2567 4026 
Q 2313 4219 1838 4219 
Q 1578 4219 1281 4162 
Q 984 4106 628 3988 
L 628 4550 
Q 988 4650 1302 4700 
Q 1616 4750 1894 4750 
Q 2613 4750 3031 4423 
Q 3450 4097 3450 3541 
Q 3450 3153 3228 2886 
Q 3006 2619 2597 2516 
z
" transform="scale(0.015625)"/>
       </defs>
       <use xlink:href="#DejaVuSans-33"/>
       <use xlink:href="#DejaVuSans-2e" transform="translate(63.623047 0)"/>
       <use xlink:href="#DejaVuSans-30" transform="translate(95.410156 0)"/>
      </g>
     </g>
    </g>
    <g id="text_7">
     <!-- Size (#edges) -->
     <g transform="translate(416.595561 634.316563) scale(0.1 -0.1)">
      <defs>
       <path id="DejaVuSans-53" d="M 3425 4513 
L 3425 3897 
Q 3066 4069 2747 4153 
Q 2428 4238 2131 4238 
Q 1616 4238 1336 4038 
Q 1056 3838 1056 3469 
Q 1056 3159 1242 3001 
Q 1428 2844 1947 2747 
L 2328 2669 
Q 3034 2534 3370 2195 
Q 3706 1856 3706 1288 
Q 3706 609 3251 259 
Q 2797 -91 1919 -91 
Q 1588 -91 1214 -16 
Q 841 59 441 206 
L 441 856 
Q 825 641 1194 531 
Q 1563 422 1919 422 
Q 2459 422 2753 634 
Q 3047 847 3047 1241 
Q 3047 1584 2836 1778 
Q 2625 1972 2144 2069 
L 1759 2144 
Q 1053 2284 737 2584 
Q 422 2884 422 3419 
Q 422 4038 858 4394 
Q 1294 4750 2059 4750 
Q 2388 4750 2728 4690 
Q 3069 4631 3425 4513 
z
" transform="scale(0.015625)"/>
       <path id="DejaVuSans-69" d="M 603 3500 
L 1178 3500 
L 1178 0 
L 603 0 
L 603 3500 
z
M 603 4863 
L 1178 4863 
L 1178 4134 
L 603 4134 
L 603 4863 
z
" transform="scale(0.015625)"/>
       <path id="DejaVuSans-7a" d="M 353 3500 
L 3084 3500 
L 3084 2975 
L 922 459 
L 3084 459 
L 3084 0 
L 275 0 
L 275 525 
L 2438 3041 
L 353 3041 
L 353 3500 
z
" transform="scale(0.015625)"/>
       <path id="DejaVuSans-65" d="M 3597 1894 
L 3597 1613 
L 953 1613 
Q 991 1019 1311 708 
Q 1631 397 2203 397 
Q 2534 397 2845 478 
Q 3156 559 3463 722 
L 3463 178 
Q 3153 47 2828 -22 
Q 2503 -91 2169 -91 
Q 1331 -91 842 396 
Q 353 884 353 1716 
Q 353 2575 817 3079 
Q 1281 3584 2069 3584 
Q 2775 3584 3186 3129 
Q 3597 2675 3597 1894 
z
M 3022 2063 
Q 3016 2534 2758 2815 
Q 2500 3097 2075 3097 
Q 1594 3097 1305 2825 
Q 1016 2553 972 2059 
L 3022 2063 
z
" transform="scale(0.015625)"/>
       <path id="DejaVuSans-20" transform="scale(0.015625)"/>
       <path id="DejaVuSans-28" d="M 1984 4856 
Q 1566 4138 1362 3434 
Q 1159 2731 1159 2009 
Q 1159 1288 1364 580 
Q 1569 -128 1984 -844 
L 1484 -844 
Q 1016 -109 783 600 
Q 550 1309 550 2009 
Q 550 2706 781 3412 
Q 1013 4119 1484 4856 
L 1984 4856 
z
" transform="scale(0.015625)"/>
       <path id="DejaVuSans-23" d="M 3272 2816 
L 2363 2816 
L 2100 1772 
L 3016 1772 
L 3272 2816 
z
M 2803 4594 
L 2478 3297 
L 3391 3297 
L 3719 4594 
L 4219 4594 
L 3897 3297 
L 4872 3297 
L 4872 2816 
L 3775 2816 
L 3519 1772 
L 4513 1772 
L 4513 1294 
L 3397 1294 
L 3072 0 
L 2572 0 
L 2894 1294 
L 1978 1294 
L 1656 0 
L 1153 0 
L 1478 1294 
L 494 1294 
L 494 1772 
L 1594 1772 
L 1856 2816 
L 850 2816 
L 850 3297 
L 1978 3297 
L 2297 4594 
L 2803 4594 
z
" transform="scale(0.015625)"/>
       <path id="DejaVuSans-64" d="M 2906 2969 
L 2906 4863 
L 3481 4863 
L 3481 0 
L 2906 0 
L 2906 525 
Q 2725 213 2448 61 
Q 2172 -91 1784 -91 
Q 1150 -91 751 415 
Q 353 922 353 1747 
Q 353 2572 751 3078 
Q 1150 3584 1784 3584 
Q 2172 3584 2448 3432 
Q 2725 3281 2906 2969 
z
M 947 1747 
Q 947 1113 1208 752 
Q 1469 391 1925 391 
Q 2381 391 2643 752 
Q 2906 1113 2906 1747 
Q 2906 2381 2643 2742 
Q 2381 3103 1925 3103 
Q 1469 3103 1208 2742 
Q 947 2381 947 1747 
z
" transform="scale(0.015625)"/>
       <path id="DejaVuSans-67" d="M 2906 1791 
Q 2906 2416 2648 2759 
Q 2391 3103 1925 3103 
Q 1463 3103 1205 2759 
Q 947 2416 947 1791 
Q 947 1169 1205 825 
Q 1463 481 1925 481 
Q 2391 481 2648 825 
Q 2906 1169 2906 1791 
z
M 3481 434 
Q 3481 -459 3084 -895 
Q 2688 -1331 1869 -1331 
Q 1566 -1331 1297 -1286 
Q 1028 -1241 775 -1147 
L 775 -588 
Q 1028 -725 1275 -790 
Q 1522 -856 1778 -856 
Q 2344 -856 2625 -561 
Q 2906 -266 2906 331 
L 2906 616 
Q 2728 306 2450 153 
Q 2172 0 1784 0 
Q 1141 0 747 490 
Q 353 981 353 1791 
Q 353 2603 747 3093 
Q 1141 3584 1784 3584 
Q 2172 3584 2450 3431 
Q 2728 3278 2906 2969 
L 2906 3500 
L 3481 3500 
L 3481 434 
z
" transform="scale(0.015625)"/>
       <path id="DejaVuSans-73" d="M 2834 3397 
L 2834 2853 
Q 2591 2978 2328 3040 
Q 2066 3103 1784 3103 
Q 1356 3103 1142 2972 
Q 928 2841 928 2578 
Q 928 2378 1081 2264 
Q 1234 2150 1697 2047 
L 1894 2003 
Q 2506 1872 2764 1633 
Q 3022 1394 3022 966 
Q 3022 478 2636 193 
Q 2250 -91 1575 -91 
Q 1294 -91 989 -36 
Q 684 19 347 128 
L 347 722 
Q 666 556 975 473 
Q 1284 391 1588 391 
Q 1994 391 2212 530 
Q 2431 669 2431 922 
Q 2431 1156 2273 1281 
Q 2116 1406 1581 1522 
L 1381 1569 
Q 847 1681 609 1914 
Q 372 2147 372 2553 
Q 372 3047 722 3315 
Q 1072 3584 1716 3584 
Q 2034 3584 2315 3537 
Q 2597 3491 2834 3397 
z
" transform="scale(0.015625)"/>
       <path id="DejaVuSans-29" d="M 513 4856 
L 1013 4856 
Q 1481 4119 1714 3412 
Q 1947 2706 1947 2009 
Q 1947 1309 1714 600 
Q 1481 -109 1013 -844 
L 513 -844 
Q 928 -128 1133 580 
Q 1338 1288 1338 2009 
Q 1338 2731 1133 3434 
Q 928 4138 513 4856 
z
" transform="scale(0.015625)"/>
      </defs>
      <use xlink:href="#DejaVuSans-53"/>
      <use xlink:href="#DejaVuSans-69" transform="translate(63.476562 0)"/>
      <use xlink:href="#DejaVuSans-7a" transform="translate(91.259766 0)"/>
      <use xlink:href="#DejaVuSans-65" transform="translate(143.75 0)"/>
      <use xlink:href="#DejaVuSans-20" transform="translate(205.273438 0)"/>
      <use xlink:href="#DejaVuSans-28" transform="translate(237.060547 0)"/>
      <use xlink:href="#DejaVuSans-23" transform="translate(276.074219 0)"/>
      <use xlink:href="#DejaVuSans-65" transform="translate(359.863281 0)"/>
      <use xlink:href="#DejaVuSans-64" transform="translate(421.386719 0)"/>
      <use xlink:href="#DejaVuSans-67" transform="translate(484.863281 0)"/>
      <use xlink:href="#DejaVuSans-65" transform="translate(548.339844 0)"/>
      <use xlink:href="#DejaVuSans-73" transform="translate(609.863281 0)"/>
      <use xlink:href="#DejaVuSans-29" transform="translate(661.962891 0)"/>
     </g>
    </g>
    <g id="text_8">
     <!-- 1e6 -->
     <g transform="translate(834.321875 633.316563) scale(0.1 -0.1)">
      <defs>
       <path id="DejaVuSans-36" d="M 2113 2584 
Q 1688 2584 1439 2293 
Q 1191 2003 1191 1497 
Q 1191 994 1439 701 
Q 1688 409 2113 409 
Q 2538 409 2786 701 
Q 3034 994 3034 1497 
Q 3034 2003 2786 2293 
Q 2538 2584 2113 2584 
z
M 3366 4563 
L 3366 3988 
Q 3128 4100 2886 4159 
Q 2644 4219 2406 4219 
Q 1781 4219 1451 3797 
Q 1122 3375 1075 2522 
Q 1259 2794 1537 2939 
Q 1816 3084 2150 3084 
Q 2853 3084 3261 2657 
Q 3669 2231 3669 1497 
Q 3669 778 3244 343 
Q 2819 -91 2113 -91 
Q 1303 -91 875 529 
Q 447 1150 447 2328 
Q 447 3434 972 4092 
Q 1497 4750 2381 4750 
Q 2619 4750 2861 4703 
Q 3103 4656 3366 4563 
z
" transform="scale(0.015625)"/>
      </defs>
      <use xlink:href="#DejaVuSans-31"/>
      <use xlink:href="#DejaVuSans-65" transform="translate(63.623047 0)"/>
      <use xlink:href="#DejaVuSans-36" transform="translate(125.146484 0)"/>
     </g>
    </g>
   </g>
   <g id="matplotlib.axis_2">
    <g id="ytick_1">
     <g id="line2d_7">
      <defs>
       <path id="m7eb1c47a8f" d="M 0 0 
L -3.5 0 
" style="stroke: #000000; stroke-width: 0.8"/>
      </defs>
      <g>
       <use xlink:href="#m7eb1c47a8f" x="50.092685" y="302.832601" style="stroke: #000000; stroke-width: 0.8"/>
      </g>
     </g>
     <g id="text_9">
      <!-- $\mathdefault{10^{0}}$ -->
      <g transform="translate(25.492685 306.63182) scale(0.1 -0.1)">
       <use xlink:href="#DejaVuSans-31" transform="translate(0 0.765625)"/>
       <use xlink:href="#DejaVuSans-30" transform="translate(63.623047 0.765625)"/>
       <use xlink:href="#DejaVuSans-30" transform="translate(128.203125 39.046875) scale(0.7)"/>
      </g>
     </g>
    </g>
    <g id="ytick_2">
     <g id="line2d_8">
      <defs>
       <path id="m4ace82f8a3" d="M 0 0 
L -2 0 
" style="stroke: #000000; stroke-width: 0.6"/>
      </defs>
      <g>
       <use xlink:href="#m4ace82f8a3" x="50.092685" y="519.331956" style="stroke: #000000; stroke-width: 0.6"/>
      </g>
     </g>
    </g>
    <g id="ytick_3">
     <g id="line2d_9">
      <g>
       <use xlink:href="#m4ace82f8a3" x="50.092685" y="464.789353" style="stroke: #000000; stroke-width: 0.6"/>
      </g>
     </g>
    </g>
    <g id="ytick_4">
     <g id="line2d_10">
      <g>
       <use xlink:href="#m4ace82f8a3" x="50.092685" y="426.090759" style="stroke: #000000; stroke-width: 0.6"/>
      </g>
     </g>
    </g>
    <g id="ytick_5">
     <g id="line2d_11">
      <g>
       <use xlink:href="#m4ace82f8a3" x="50.092685" y="396.073798" style="stroke: #000000; stroke-width: 0.6"/>
      </g>
     </g>
    </g>
    <g id="ytick_6">
     <g id="line2d_12">
      <g>
       <use xlink:href="#m4ace82f8a3" x="50.092685" y="371.548155" style="stroke: #000000; stroke-width: 0.6"/>
      </g>
     </g>
    </g>
    <g id="ytick_7">
     <g id="line2d_13">
      <g>
       <use xlink:href="#m4ace82f8a3" x="50.092685" y="350.81202" style="stroke: #000000; stroke-width: 0.6"/>
      </g>
     </g>
    </g>
    <g id="ytick_8">
     <g id="line2d_14">
      <g>
       <use xlink:href="#m4ace82f8a3" x="50.092685" y="332.849562" style="stroke: #000000; stroke-width: 0.6"/>
      </g>
     </g>
    </g>
    <g id="ytick_9">
     <g id="line2d_15">
      <g>
       <use xlink:href="#m4ace82f8a3" x="50.092685" y="317.005551" style="stroke: #000000; stroke-width: 0.6"/>
      </g>
     </g>
    </g>
    <g id="ytick_10">
     <g id="line2d_16">
      <g>
       <use xlink:href="#m4ace82f8a3" x="50.092685" y="209.591404" style="stroke: #000000; stroke-width: 0.6"/>
      </g>
     </g>
    </g>
    <g id="ytick_11">
     <g id="line2d_17">
      <g>
       <use xlink:href="#m4ace82f8a3" x="50.092685" y="155.0488" style="stroke: #000000; stroke-width: 0.6"/>
      </g>
     </g>
    </g>
    <g id="ytick_12">
     <g id="line2d_18">
      <g>
       <use xlink:href="#m4ace82f8a3" x="50.092685" y="116.350207" style="stroke: #000000; stroke-width: 0.6"/>
      </g>
     </g>
    </g>
    <g id="ytick_13">
     <g id="line2d_19">
      <g>
       <use xlink:href="#m4ace82f8a3" x="50.092685" y="86.333246" style="stroke: #000000; stroke-width: 0.6"/>
      </g>
     </g>
    </g>
    <g id="ytick_14">
     <g id="line2d_20">
      <g>
       <use xlink:href="#m4ace82f8a3" x="50.092685" y="61.807603" style="stroke: #000000; stroke-width: 0.6"/>
      </g>
     </g>
    </g>
    <g id="ytick_15">
     <g id="line2d_21">
      <g>
       <use xlink:href="#m4ace82f8a3" x="50.092685" y="41.071467" style="stroke: #000000; stroke-width: 0.6"/>
      </g>
     </g>
    </g>
    <g id="text_10">
     <!-- Seconds spent -->
     <g transform="translate(19.412997 353.040469) rotate(-90) scale(0.1 -0.1)">
      <defs>
       <path id="DejaVuSans-63" d="M 3122 3366 
L 3122 2828 
Q 2878 2963 2633 3030 
Q 2388 3097 2138 3097 
Q 1578 3097 1268 2742 
Q 959 2388 959 1747 
Q 959 1106 1268 751 
Q 1578 397 2138 397 
Q 2388 397 2633 464 
Q 2878 531 3122 666 
L 3122 134 
Q 2881 22 2623 -34 
Q 2366 -91 2075 -91 
Q 1284 -91 818 406 
Q 353 903 353 1747 
Q 353 2603 823 3093 
Q 1294 3584 2113 3584 
Q 2378 3584 2631 3529 
Q 2884 3475 3122 3366 
z
" transform="scale(0.015625)"/>
       <path id="DejaVuSans-6f" d="M 1959 3097 
Q 1497 3097 1228 2736 
Q 959 2375 959 1747 
Q 959 1119 1226 758 
Q 1494 397 1959 397 
Q 2419 397 2687 759 
Q 2956 1122 2956 1747 
Q 2956 2369 2687 2733 
Q 2419 3097 1959 3097 
z
M 1959 3584 
Q 2709 3584 3137 3096 
Q 3566 2609 3566 1747 
Q 3566 888 3137 398 
Q 2709 -91 1959 -91 
Q 1206 -91 779 398 
Q 353 888 353 1747 
Q 353 2609 779 3096 
Q 1206 3584 1959 3584 
z
" transform="scale(0.015625)"/>
       <path id="DejaVuSans-6e" d="M 3513 2113 
L 3513 0 
L 2938 0 
L 2938 2094 
Q 2938 2591 2744 2837 
Q 2550 3084 2163 3084 
Q 1697 3084 1428 2787 
Q 1159 2491 1159 1978 
L 1159 0 
L 581 0 
L 581 3500 
L 1159 3500 
L 1159 2956 
Q 1366 3272 1645 3428 
Q 1925 3584 2291 3584 
Q 2894 3584 3203 3211 
Q 3513 2838 3513 2113 
z
" transform="scale(0.015625)"/>
       <path id="DejaVuSans-70" d="M 1159 525 
L 1159 -1331 
L 581 -1331 
L 581 3500 
L 1159 3500 
L 1159 2969 
Q 1341 3281 1617 3432 
Q 1894 3584 2278 3584 
Q 2916 3584 3314 3078 
Q 3713 2572 3713 1747 
Q 3713 922 3314 415 
Q 2916 -91 2278 -91 
Q 1894 -91 1617 61 
Q 1341 213 1159 525 
z
M 3116 1747 
Q 3116 2381 2855 2742 
Q 2594 3103 2138 3103 
Q 1681 3103 1420 2742 
Q 1159 2381 1159 1747 
Q 1159 1113 1420 752 
Q 1681 391 2138 391 
Q 2594 391 2855 752 
Q 3116 1113 3116 1747 
z
" transform="scale(0.015625)"/>
       <path id="DejaVuSans-74" d="M 1172 4494 
L 1172 3500 
L 2356 3500 
L 2356 3053 
L 1172 3053 
L 1172 1153 
Q 1172 725 1289 603 
Q 1406 481 1766 481 
L 2356 481 
L 2356 0 
L 1766 0 
Q 1100 0 847 248 
Q 594 497 594 1153 
L 594 3053 
L 172 3053 
L 172 3500 
L 594 3500 
L 594 4494 
L 1172 4494 
z
" transform="scale(0.015625)"/>
      </defs>
      <use xlink:href="#DejaVuSans-53"/>
      <use xlink:href="#DejaVuSans-65" transform="translate(63.476562 0)"/>
      <use xlink:href="#DejaVuSans-63" transform="translate(125 0)"/>
      <use xlink:href="#DejaVuSans-6f" transform="translate(179.980469 0)"/>
      <use xlink:href="#DejaVuSans-6e" transform="translate(241.162109 0)"/>
      <use xlink:href="#DejaVuSans-64" transform="translate(304.541016 0)"/>
      <use xlink:href="#DejaVuSans-73" transform="translate(368.017578 0)"/>
      <use xlink:href="#DejaVuSans-20" transform="translate(420.117188 0)"/>
      <use xlink:href="#DejaVuSans-73" transform="translate(451.904297 0)"/>
      <use xlink:href="#DejaVuSans-70" transform="translate(504.003906 0)"/>
      <use xlink:href="#DejaVuSans-65" transform="translate(567.480469 0)"/>
      <use xlink:href="#DejaVuSans-6e" transform="translate(629.003906 0)"/>
      <use xlink:href="#DejaVuSans-74" transform="translate(692.382812 0)"/>
     </g>
    </g>
   </g>
   <g id="LineCollection_1">
    <path d="M 86.597563 321.388833 
L 86.597563 321.294349 
" clip-path="url(#p85f70286c6)" style="fill: none; stroke: #ff6600; stroke-width: 1.5"/>
    <path d="M 159.607319 278.674651 
L 159.607319 277.522618 
" clip-path="url(#p85f70286c6)" style="fill: none; stroke: #ff6600; stroke-width: 1.5"/>
    <path d="M 232.617075 247.162163 
L 232.617075 247.056067 
" clip-path="url(#p85f70286c6)" style="fill: none; stroke: #ff6600; stroke-width: 1.5"/>
    <path d="M 305.626831 222.269372 
L 305.626831 221.579342 
" clip-path="url(#p85f70286c6)" style="fill: none; stroke: #ff6600; stroke-width: 1.5"/>
    <path d="M 378.636586 198.569666 
L 378.636586 197.573544 
" clip-path="url(#p85f70286c6)" style="fill: none; stroke: #ff6600; stroke-width: 1.5"/>
    <path d="M 451.646342 179.274006 
L 451.646342 179.00036 
" clip-path="url(#p85f70286c6)" style="fill: none; stroke: #ff6600; stroke-width: 1.5"/>
    <path d="M 524.656098 160.249536 
L 524.656098 158.96186 
" clip-path="url(#p85f70286c6)" style="fill: none; stroke: #ff6600; stroke-width: 1.5"/>
    <path d="M 816.695122 105.658562 
L 816.695122 105.155852 
" clip-path="url(#p85f70286c6)" style="fill: none; stroke: #ff6600; stroke-width: 1.5"/>
   </g>
   <g id="line2d_22">
    <defs>
     <path id="m643b099e1e" d="M 3 0 
L -3 -0 
" style="stroke: #ff6600"/>
    </defs>
    <g clip-path="url(#p85f70286c6)">
     <use xlink:href="#m643b099e1e" x="86.597563" y="321.388833" style="fill: #ff6600; stroke: #ff6600"/>
     <use xlink:href="#m643b099e1e" x="159.607319" y="278.674651" style="fill: #ff6600; stroke: #ff6600"/>
     <use xlink:href="#m643b099e1e" x="232.617075" y="247.162163" style="fill: #ff6600; stroke: #ff6600"/>
     <use xlink:href="#m643b099e1e" x="305.626831" y="222.269372" style="fill: #ff6600; stroke: #ff6600"/>
     <use xlink:href="#m643b099e1e" x="378.636586" y="198.569666" style="fill: #ff6600; stroke: #ff6600"/>
     <use xlink:href="#m643b099e1e" x="451.646342" y="179.274006" style="fill: #ff6600; stroke: #ff6600"/>
     <use xlink:href="#m643b099e1e" x="524.656098" y="160.249536" style="fill: #ff6600; stroke: #ff6600"/>
     <use xlink:href="#m643b099e1e" x="816.695122" y="105.658562" style="fill: #ff6600; stroke: #ff6600"/>
    </g>
   </g>
   <g id="line2d_23">
    <g clip-path="url(#p85f70286c6)">
     <use xlink:href="#m643b099e1e" x="86.597563" y="321.294349" style="fill: #ff6600; stroke: #ff6600"/>
     <use xlink:href="#m643b099e1e" x="159.607319" y="277.522618" style="fill: #ff6600; stroke: #ff6600"/>
     <use xlink:href="#m643b099e1e" x="232.617075" y="247.056067" style="fill: #ff6600; stroke: #ff6600"/>
     <use xlink:href="#m643b099e1e" x="305.626831" y="221.579342" style="fill: #ff6600; stroke: #ff6600"/>
     <use xlink:href="#m643b099e1e" x="378.636586" y="197.573544" style="fill: #ff6600; stroke: #ff6600"/>
     <use xlink:href="#m643b099e1e" x="451.646342" y="179.00036" style="fill: #ff6600; stroke: #ff6600"/>
     <use xlink:href="#m643b099e1e" x="524.656098" y="158.96186" style="fill: #ff6600; stroke: #ff6600"/>
     <use xlink:href="#m643b099e1e" x="816.695122" y="105.155852" style="fill: #ff6600; stroke: #ff6600"/>
    </g>
   </g>
   <g id="LineCollection_2">
    <path d="M 86.597563 321.141255 
L 86.597563 321.00909 
" clip-path="url(#p85f70286c6)" style="fill: none; stroke: #ffcc33; stroke-width: 1.5"/>
    <path d="M 159.607319 278.729842 
L 159.607319 277.627854 
" clip-path="url(#p85f70286c6)" style="fill: none; stroke: #ffcc33; stroke-width: 1.5"/>
    <path d="M 232.617075 247.316404 
L 232.617075 246.510392 
" clip-path="url(#p85f70286c6)" style="fill: none; stroke: #ffcc33; stroke-width: 1.5"/>
    <path d="M 305.626831 222.35309 
L 305.626831 221.908579 
" clip-path="url(#p85f70286c6)" style="fill: none; stroke: #ffcc33; stroke-width: 1.5"/>
    <path d="M 378.636586 198.275923 
L 378.636586 197.416229 
" clip-path="url(#p85f70286c6)" style="fill: none; stroke: #ffcc33; stroke-width: 1.5"/>
    <path d="M 451.646342 179.404664 
L 451.646342 177.568875 
" clip-path="url(#p85f70286c6)" style="fill: none; stroke: #ffcc33; stroke-width: 1.5"/>
    <path d="M 524.656098 159.65008 
L 524.656098 159.618736 
" clip-path="url(#p85f70286c6)" style="fill: none; stroke: #ffcc33; stroke-width: 1.5"/>
    <path d="M 816.695122 105.512258 
L 816.695122 103.749123 
" clip-path="url(#p85f70286c6)" style="fill: none; stroke: #ffcc33; stroke-width: 1.5"/>
   </g>
   <g id="line2d_24">
    <defs>
     <path id="m463fb4c707" d="M 3 0 
L -3 -0 
" style="stroke: #ffcc33"/>
    </defs>
    <g clip-path="url(#p85f70286c6)">
     <use xlink:href="#m463fb4c707" x="86.597563" y="321.141255" style="fill: #ffcc33; stroke: #ffcc33"/>
     <use xlink:href="#m463fb4c707" x="159.607319" y="278.729842" style="fill: #ffcc33; stroke: #ffcc33"/>
     <use xlink:href="#m463fb4c707" x="232.617075" y="247.316404" style="fill: #ffcc33; stroke: #ffcc33"/>
     <use xlink:href="#m463fb4c707" x="305.626831" y="222.35309" style="fill: #ffcc33; stroke: #ffcc33"/>
     <use xlink:href="#m463fb4c707" x="378.636586" y="198.275923" style="fill: #ffcc33; stroke: #ffcc33"/>
     <use xlink:href="#m463fb4c707" x="451.646342" y="179.404664" style="fill: #ffcc33; stroke: #ffcc33"/>
     <use xlink:href="#m463fb4c707" x="524.656098" y="159.65008" style="fill: #ffcc33; stroke: #ffcc33"/>
     <use xlink:href="#m463fb4c707" x="816.695122" y="105.512258" style="fill: #ffcc33; stroke: #ffcc33"/>
    </g>
   </g>
   <g id="line2d_25">
    <g clip-path="url(#p85f70286c6)">
     <use xlink:href="#m463fb4c707" x="86.597563" y="321.00909" style="fill: #ffcc33; stroke: #ffcc33"/>
     <use xlink:href="#m463fb4c707" x="159.607319" y="277.627854" style="fill: #ffcc33; stroke: #ffcc33"/>
     <use xlink:href="#m463fb4c707" x="232.617075" y="246.510392" style="fill: #ffcc33; stroke: #ffcc33"/>
     <use xlink:href="#m463fb4c707" x="305.626831" y="221.908579" style="fill: #ffcc33; stroke: #ffcc33"/>
     <use xlink:href="#m463fb4c707" x="378.636586" y="197.416229" style="fill: #ffcc33; stroke: #ffcc33"/>
     <use xlink:href="#m463fb4c707" x="451.646342" y="177.568875" style="fill: #ffcc33; stroke: #ffcc33"/>
     <use xlink:href="#m463fb4c707" x="524.656098" y="159.618736" style="fill: #ffcc33; stroke: #ffcc33"/>
     <use xlink:href="#m463fb4c707" x="816.695122" y="103.749123" style="fill: #ffcc33; stroke: #ffcc33"/>
    </g>
   </g>
   <g id="LineCollection_3">
    <path d="M 86.597563 263.28844 
L 86.597563 263.080728 
" clip-path="url(#p85f70286c6)" style="fill: none; stroke: #339900; stroke-width: 1.5"/>
    <path d="M 159.607319 216.850625 
L 159.607319 214.478753 
" clip-path="url(#p85f70286c6)" style="fill: none; stroke: #339900; stroke-width: 1.5"/>
    <path d="M 232.617075 183.658605 
L 232.617075 183.416259 
" clip-path="url(#p85f70286c6)" style="fill: none; stroke: #339900; stroke-width: 1.5"/>
    <path d="M 305.626831 159.252835 
L 305.626831 157.339806 
" clip-path="url(#p85f70286c6)" style="fill: none; stroke: #339900; stroke-width: 1.5"/>
    <path d="M 378.636586 135.69969 
L 378.636586 135.178489 
" clip-path="url(#p85f70286c6)" style="fill: none; stroke: #339900; stroke-width: 1.5"/>
    <path d="M 451.646342 116.918722 
L 451.646342 115.760755 
" clip-path="url(#p85f70286c6)" style="fill: none; stroke: #339900; stroke-width: 1.5"/>
    <path d="M 524.656098 102.392478 
L 524.656098 101.473205 
" clip-path="url(#p85f70286c6)" style="fill: none; stroke: #339900; stroke-width: 1.5"/>
    <path d="M 816.695122 53.796047 
L 816.695122 53.205455 
" clip-path="url(#p85f70286c6)" style="fill: none; stroke: #339900; stroke-width: 1.5"/>
   </g>
   <g id="line2d_26">
    <defs>
     <path id="m7dbad405e1" d="M 3 0 
L -3 -0 
" style="stroke: #339900"/>
    </defs>
    <g clip-path="url(#p85f70286c6)">
     <use xlink:href="#m7dbad405e1" x="86.597563" y="263.28844" style="fill: #339900; stroke: #339900"/>
     <use xlink:href="#m7dbad405e1" x="159.607319" y="216.850625" style="fill: #339900; stroke: #339900"/>
     <use xlink:href="#m7dbad405e1" x="232.617075" y="183.658605" style="fill: #339900; stroke: #339900"/>
     <use xlink:href="#m7dbad405e1" x="305.626831" y="159.252835" style="fill: #339900; stroke: #339900"/>
     <use xlink:href="#m7dbad405e1" x="378.636586" y="135.69969" style="fill: #339900; stroke: #339900"/>
     <use xlink:href="#m7dbad405e1" x="451.646342" y="116.918722" style="fill: #339900; stroke: #339900"/>
     <use xlink:href="#m7dbad405e1" x="524.656098" y="102.392478" style="fill: #339900; stroke: #339900"/>
     <use xlink:href="#m7dbad405e1" x="816.695122" y="53.796047" style="fill: #339900; stroke: #339900"/>
    </g>
   </g>
   <g id="line2d_27">
    <g clip-path="url(#p85f70286c6)">
     <use xlink:href="#m7dbad405e1" x="86.597563" y="263.080728" style="fill: #339900; stroke: #339900"/>
     <use xlink:href="#m7dbad405e1" x="159.607319" y="214.478753" style="fill: #339900; stroke: #339900"/>
     <use xlink:href="#m7dbad405e1" x="232.617075" y="183.416259" style="fill: #339900; stroke: #339900"/>
     <use xlink:href="#m7dbad405e1" x="305.626831" y="157.339806" style="fill: #339900; stroke: #339900"/>
     <use xlink:href="#m7dbad405e1" x="378.636586" y="135.178489" style="fill: #339900; stroke: #339900"/>
     <use xlink:href="#m7dbad405e1" x="451.646342" y="115.760755" style="fill: #339900; stroke: #339900"/>
     <use xlink:href="#m7dbad405e1" x="524.656098" y="101.473205" style="fill: #339900; stroke: #339900"/>
     <use xlink:href="#m7dbad405e1" x="816.695122" y="53.205455" style="fill: #339900; stroke: #339900"/>
    </g>
   </g>
   <g id="LineCollection_4">
    <path d="M 86.597563 263.15216 
L 86.597563 262.637936 
" clip-path="url(#p85f70286c6)" style="fill: none; stroke: #33cc00; stroke-width: 1.5"/>
    <path d="M 159.607319 216.726608 
L 159.607319 213.765147 
" clip-path="url(#p85f70286c6)" style="fill: none; stroke: #33cc00; stroke-width: 1.5"/>
    <path d="M 232.617075 183.681204 
L 232.617075 183.362885 
" clip-path="url(#p85f70286c6)" style="fill: none; stroke: #33cc00; stroke-width: 1.5"/>
    <path d="M 305.626831 158.991306 
L 305.626831 157.325243 
" clip-path="url(#p85f70286c6)" style="fill: none; stroke: #33cc00; stroke-width: 1.5"/>
    <path d="M 378.636586 136.436921 
L 378.636586 136.108959 
" clip-path="url(#p85f70286c6)" style="fill: none; stroke: #33cc00; stroke-width: 1.5"/>
    <path d="M 451.646342 116.995302 
L 451.646342 116.578925 
" clip-path="url(#p85f70286c6)" style="fill: none; stroke: #33cc00; stroke-width: 1.5"/>
    <path d="M 524.656098 102.298164 
L 524.656098 101.398551 
" clip-path="url(#p85f70286c6)" style="fill: none; stroke: #33cc00; stroke-width: 1.5"/>
    <path d="M 816.695122 54.979519 
L 816.695122 53.711776 
" clip-path="url(#p85f70286c6)" style="fill: none; stroke: #33cc00; stroke-width: 1.5"/>
   </g>
   <g id="line2d_28">
    <defs>
     <path id="m4be2de3d29" d="M 3 0 
L -3 -0 
" style="stroke: #33cc00"/>
    </defs>
    <g clip-path="url(#p85f70286c6)">
     <use xlink:href="#m4be2de3d29" x="86.597563" y="263.15216" style="fill: #33cc00; stroke: #33cc00"/>
     <use xlink:href="#m4be2de3d29" x="159.607319" y="216.726608" style="fill: #33cc00; stroke: #33cc00"/>
     <use xlink:href="#m4be2de3d29" x="232.617075" y="183.681204" style="fill: #33cc00; stroke: #33cc00"/>
     <use xlink:href="#m4be2de3d29" x="305.626831" y="158.991306" style="fill: #33cc00; stroke: #33cc00"/>
     <use xlink:href="#m4be2de3d29" x="378.636586" y="136.436921" style="fill: #33cc00; stroke: #33cc00"/>
     <use xlink:href="#m4be2de3d29" x="451.646342" y="116.995302" style="fill: #33cc00; stroke: #33cc00"/>
     <use xlink:href="#m4be2de3d29" x="524.656098" y="102.298164" style="fill: #33cc00; stroke: #33cc00"/>
     <use xlink:href="#m4be2de3d29" x="816.695122" y="54.979519" style="fill: #33cc00; stroke: #33cc00"/>
    </g>
   </g>
   <g id="line2d_29">
    <g clip-path="url(#p85f70286c6)">
     <use xlink:href="#m4be2de3d29" x="86.597563" y="262.637936" style="fill: #33cc00; stroke: #33cc00"/>
     <use xlink:href="#m4be2de3d29" x="159.607319" y="213.765147" style="fill: #33cc00; stroke: #33cc00"/>
     <use xlink:href="#m4be2de3d29" x="232.617075" y="183.362885" style="fill: #33cc00; stroke: #33cc00"/>
     <use xlink:href="#m4be2de3d29" x="305.626831" y="157.325243" style="fill: #33cc00; stroke: #33cc00"/>
     <use xlink:href="#m4be2de3d29" x="378.636586" y="136.108959" style="fill: #33cc00; stroke: #33cc00"/>
     <use xlink:href="#m4be2de3d29" x="451.646342" y="116.578925" style="fill: #33cc00; stroke: #33cc00"/>
     <use xlink:href="#m4be2de3d29" x="524.656098" y="101.398551" style="fill: #33cc00; stroke: #33cc00"/>
     <use xlink:href="#m4be2de3d29" x="816.695122" y="53.711776" style="fill: #33cc00; stroke: #33cc00"/>
    </g>
   </g>
   <g id="line2d_30">
    <path d="M 86.597563 321.344215 
L 159.607319 278.057836 
L 232.617075 247.099201 
L 305.626831 221.836278 
L 378.636586 198.035461 
L 451.646342 179.106577 
L 524.656098 159.655831 
L 816.695122 105.459956 
" clip-path="url(#p85f70286c6)" style="fill: none; stroke: #ff6600; stroke-width: 1.5; stroke-linecap: square"/>
   </g>
   <g id="line2d_31">
    <path d="M 86.597563 321.084059 
L 159.607319 278.190538 
L 232.617075 247.01823 
L 305.626831 222.186583 
L 378.636586 197.825096 
L 451.646342 178.591322 
L 524.656098 159.629564 
L 816.695122 104.800155 
" clip-path="url(#p85f70286c6)" style="fill: none; stroke: #ffcc33; stroke-width: 1.5; stroke-linecap: square"/>
   </g>
   <g id="line2d_32">
    <path d="M 86.597563 263.197672 
L 159.607319 215.26484 
L 232.617075 183.503786 
L 305.626831 158.245279 
L 378.636586 135.389653 
L 451.646342 116.483159 
L 524.656098 102.084793 
L 816.695122 53.598207 
" clip-path="url(#p85f70286c6)" style="fill: none; stroke: #339900; stroke-width: 1.5; stroke-linecap: square"/>
   </g>
   <g id="line2d_33">
    <path d="M 86.597563 262.977996 
L 159.607319 214.830966 
L 232.617075 183.490441 
L 305.626831 158.140264 
L 378.636586 136.29369 
L 451.646342 116.791975 
L 524.656098 101.925486 
L 816.695122 54.299977 
" clip-path="url(#p85f70286c6)" style="fill: none; stroke: #33cc00; stroke-width: 1.5; stroke-linecap: square"/>
   </g>
   <g id="patch_3">
    <path d="M 50.092685 606.04 
L 50.092685 26.88 
" style="fill: none; stroke: #000000; stroke-width: 0.8; stroke-linejoin: miter; stroke-linecap: square"/>
   </g>
   <g id="patch_4">
    <path d="M 853.2 606.04 
L 853.2 26.88 
" style="fill: none; stroke: #000000; stroke-width: 0.8; stroke-linejoin: miter; stroke-linecap: square"/>
   </g>
   <g id="patch_5">
    <path d="M 50.092685 606.04 
L 853.2 606.04 
" style="fill: none; stroke: #000000; stroke-width: 0.8; stroke-linejoin: miter; stroke-linecap: square"/>
   </g>
   <g id="patch_6">
    <path d="M 50.092685 26.88 
L 853.2 26.88 
" style="fill: none; stroke: #000000; stroke-width: 0.8; stroke-linejoin: miter; stroke-linecap: square"/>
   </g>
   <g id="text_11">
    <!-- Python 3.14 implementations of Bron-Kerbosch on a random graph of order 1M -->
    <g transform="translate(213.714467 20.88) scale(0.12 -0.12)">
     <defs>
      <path id="DejaVuSans-50" d="M 1259 4147 
L 1259 2394 
L 2053 2394 
Q 2494 2394 2734 2622 
Q 2975 2850 2975 3272 
Q 2975 3691 2734 3919 
Q 2494 4147 2053 4147 
L 1259 4147 
z
M 628 4666 
L 2053 4666 
Q 2838 4666 3239 4311 
Q 3641 3956 3641 3272 
Q 3641 2581 3239 2228 
Q 2838 1875 2053 1875 
L 1259 1875 
L 1259 0 
L 628 0 
L 628 4666 
z
" transform="scale(0.015625)"/>
      <path id="DejaVuSans-79" d="M 2059 -325 
Q 1816 -950 1584 -1140 
Q 1353 -1331 966 -1331 
L 506 -1331 
L 506 -850 
L 844 -850 
Q 1081 -850 1212 -737 
Q 1344 -625 1503 -206 
L 1606 56 
L 191 3500 
L 800 3500 
L 1894 763 
L 2988 3500 
L 3597 3500 
L 2059 -325 
z
" transform="scale(0.015625)"/>
      <path id="DejaVuSans-68" d="M 3513 2113 
L 3513 0 
L 2938 0 
L 2938 2094 
Q 2938 2591 2744 2837 
Q 2550 3084 2163 3084 
Q 1697 3084 1428 2787 
Q 1159 2491 1159 1978 
L 1159 0 
L 581 0 
L 581 4863 
L 1159 4863 
L 1159 2956 
Q 1366 3272 1645 3428 
Q 1925 3584 2291 3584 
Q 2894 3584 3203 3211 
Q 3513 2838 3513 2113 
z
" transform="scale(0.015625)"/>
      <path id="DejaVuSans-34" d="M 2419 4116 
L 825 1625 
L 2419 1625 
L 2419 4116 
z
M 2253 4666 
L 3047 4666 
L 3047 1625 
L 3713 1625 
L 3713 1100 
L 3047 1100 
L 3047 0 
L 2419 0 
L 2419 1100 
L 313 1100 
L 313 1709 
L 2253 4666 
z
" transform="scale(0.015625)"/>
      <path id="DejaVuSans-6d" d="M 3328 2828 
Q 3544 3216 3844 3400 
Q 4144 3584 4550 3584 
Q 5097 3584 5394 3201 
Q 5691 2819 5691 2113 
L 5691 0 
L 5113 0 
L 5113 2094 
Q 5113 2597 4934 2840 
Q 4756 3084 4391 3084 
Q 3944 3084 3684 2787 
Q 3425 2491 3425 1978 
L 3425 0 
L 2847 0 
L 2847 2094 
Q 2847 2600 2669 2842 
Q 2491 3084 2119 3084 
Q 1678 3084 1418 2786 
Q 1159 2488 1159 1978 
L 1159 0 
L 581 0 
L 581 3500 
L 1159 3500 
L 1159 2956 
Q 1356 3278 1631 3431 
Q 1906 3584 2284 3584 
Q 2666 3584 2933 3390 
Q 3200 3197 3328 2828 
z
" transform="scale(0.015625)"/>
      <path id="DejaVuSans-6c" d="M 603 4863 
L 1178 4863 
L 1178 0 
L 603 0 
L 603 4863 
z
" transform="scale(0.015625)"/>
      <path id="DejaVuSans-61" d="M 2194 1759 
Q 1497 1759 1228 1600 
Q 959 1441 959 1056 
Q 959 750 1161 570 
Q 1363 391 1709 391 
Q 2188 391 2477 730 
Q 2766 1069 2766 1631 
L 2766 1759 
L 2194 1759 
z
M 3341 1997 
L 3341 0 
L 2766 0 
L 2766 531 
Q 2569 213 2275 61 
Q 1981 -91 1556 -91 
Q 1019 -91 701 211 
Q 384 513 384 1019 
Q 384 1609 779 1909 
Q 1175 2209 1959 2209 
L 2766 2209 
L 2766 2266 
Q 2766 2663 2505 2880 
Q 2244 3097 1772 3097 
Q 1472 3097 1187 3025 
Q 903 2953 641 2809 
L 641 3341 
Q 956 3463 1253 3523 
Q 1550 3584 1831 3584 
Q 2591 3584 2966 3190 
Q 3341 2797 3341 1997 
z
" transform="scale(0.015625)"/>
      <path id="DejaVuSans-66" d="M 2375 4863 
L 2375 4384 
L 1825 4384 
Q 1516 4384 1395 4259 
Q 1275 4134 1275 3809 
L 1275 3500 
L 2222 3500 
L 2222 3053 
L 1275 3053 
L 1275 0 
L 697 0 
L 697 3053 
L 147 3053 
L 147 3500 
L 697 3500 
L 697 3744 
Q 697 4328 969 4595 
Q 1241 4863 1831 4863 
L 2375 4863 
z
" transform="scale(0.015625)"/>
      <path id="DejaVuSans-42" d="M 1259 2228 
L 1259 519 
L 2272 519 
Q 2781 519 3026 730 
Q 3272 941 3272 1375 
Q 3272 1813 3026 2020 
Q 2781 2228 2272 2228 
L 1259 2228 
z
M 1259 4147 
L 1259 2741 
L 2194 2741 
Q 2656 2741 2882 2914 
Q 3109 3088 3109 3444 
Q 3109 3797 2882 3972 
Q 2656 4147 2194 4147 
L 1259 4147 
z
M 628 4666 
L 2241 4666 
Q 2963 4666 3353 4366 
Q 3744 4066 3744 3513 
Q 3744 3084 3544 2831 
Q 3344 2578 2956 2516 
Q 3422 2416 3680 2098 
Q 3938 1781 3938 1306 
Q 3938 681 3513 340 
Q 3088 0 2303 0 
L 628 0 
L 628 4666 
z
" transform="scale(0.015625)"/>
      <path id="DejaVuSans-72" d="M 2631 2963 
Q 2534 3019 2420 3045 
Q 2306 3072 2169 3072 
Q 1681 3072 1420 2755 
Q 1159 2438 1159 1844 
L 1159 0 
L 581 0 
L 581 3500 
L 1159 3500 
L 1159 2956 
Q 1341 3275 1631 3429 
Q 1922 3584 2338 3584 
Q 2397 3584 2469 3576 
Q 2541 3569 2628 3553 
L 2631 2963 
z
" transform="scale(0.015625)"/>
      <path id="DejaVuSans-2d" d="M 313 2009 
L 1997 2009 
L 1997 1497 
L 313 1497 
L 313 2009 
z
" transform="scale(0.015625)"/>
      <path id="DejaVuSans-4b" d="M 628 4666 
L 1259 4666 
L 1259 2694 
L 3353 4666 
L 4166 4666 
L 1850 2491 
L 4331 0 
L 3500 0 
L 1259 2247 
L 1259 0 
L 628 0 
L 628 4666 
z
" transform="scale(0.015625)"/>
      <path id="DejaVuSans-62" d="M 3116 1747 
Q 3116 2381 2855 2742 
Q 2594 3103 2138 3103 
Q 1681 3103 1420 2742 
Q 1159 2381 1159 1747 
Q 1159 1113 1420 752 
Q 1681 391 2138 391 
Q 2594 391 2855 752 
Q 3116 1113 3116 1747 
z
M 1159 2969 
Q 1341 3281 1617 3432 
Q 1894 3584 2278 3584 
Q 2916 3584 3314 3078 
Q 3713 2572 3713 1747 
Q 3713 922 3314 415 
Q 2916 -91 2278 -91 
Q 1894 -91 1617 61 
Q 1341 213 1159 525 
L 1159 0 
L 581 0 
L 581 4863 
L 1159 4863 
L 1159 2969 
z
" transform="scale(0.015625)"/>
      <path id="DejaVuSans-4d" d="M 628 4666 
L 1569 4666 
L 2759 1491 
L 3956 4666 
L 4897 4666 
L 4897 0 
L 4281 0 
L 4281 4097 
L 3078 897 
L 2444 897 
L 1241 4097 
L 1241 0 
L 628 0 
L 628 4666 
z
" transform="scale(0.015625)"/>
     </defs>
     <use xlink:href="#DejaVuSans-50"/>
     <use xlink:href="#DejaVuSans-79" transform="translate(60.302734 0)"/>
     <use xlink:href="#DejaVuSans-74" transform="translate(119.482422 0)"/>
     <use xlink:href="#DejaVuSans-68" transform="translate(158.691406 0)"/>
     <use xlink:href="#DejaVuSans-6f" transform="translate(222.070312 0)"/>
     <use xlink:href="#DejaVuSans-6e" transform="translate(283.251953 0)"/>
     <use xlink:href="#DejaVuSans-20" transform="translate(346.630859 0)"/>
     <use xlink:href="#DejaVuSans-33" transform="translate(378.417969 0)"/>
     <use xlink:href="#DejaVuSans-2e" transform="translate(442.041016 0)"/>
     <use xlink:href="#DejaVuSans-31" transform="translate(473.828125 0)"/>
     <use xlink:href="#DejaVuSans-34" transform="translate(537.451172 0)"/>
     <use xlink:href="#DejaVuSans-20" transform="translate(601.074219 0)"/>
     <use xlink:href="#DejaVuSans-69" transform="translate(632.861328 0)"/>
     <use xlink:href="#DejaVuSans-6d" transform="translate(660.644531 0)"/>
     <use xlink:href="#DejaVuSans-70" transform="translate(758.056641 0)"/>
     <use xlink:href="#DejaVuSans-6c" transform="translate(821.533203 0)"/>
     <use xlink:href="#DejaVuSans-65" transform="translate(849.316406 0)"/>
     <use xlink:href="#DejaVuSans-6d" transform="translate(910.839844 0)"/>
     <use xlink:href="#DejaVuSans-65" transform="translate(1008.251953 0)"/>
     <use xlink:href="#DejaVuSans-6e" transform="translate(1069.775391 0)"/>
     <use xlink:href="#DejaVuSans-74" transform="translate(1133.154297 0)"/>
     <use xlink:href="#DejaVuSans-61" transform="translate(1172.363281 0)"/>
     <use xlink:href="#DejaVuSans-74" transform="translate(1233.642578 0)"/>
     <use xlink:href="#DejaVuSans-69" transform="translate(1272.851562 0)"/>
     <use xlink:href="#DejaVuSans-6f" transform="translate(1300.634766 0)"/>
     <use xlink:href="#DejaVuSans-6e" transform="translate(1361.816406 0)"/>
     <use xlink:href="#DejaVuSans-73" transform="translate(1425.195312 0)"/>
     <use xlink:href="#DejaVuSans-20" transform="translate(1477.294922 0)"/>
     <use xlink:href="#DejaVuSans-6f" transform="translate(1509.082031 0)"/>
     <use xlink:href="#DejaVuSans-66" transform="translate(1570.263672 0)"/>
     <use xlink:href="#DejaVuSans-20" transform="translate(1605.46875 0)"/>
     <use xlink:href="#DejaVuSans-42" transform="translate(1637.255859 0)"/>
     <use xlink:href="#DejaVuSans-72" transform="translate(1705.859375 0)"/>
     <use xlink:href="#DejaVuSans-6f" transform="translate(1744.722656 0)"/>
     <use xlink:href="#DejaVuSans-6e" transform="translate(1805.904297 0)"/>
     <use xlink:href="#DejaVuSans-2d" transform="translate(1869.283203 0)"/>
     <use xlink:href="#DejaVuSans-4b" transform="translate(1905.367188 0)"/>
     <use xlink:href="#DejaVuSans-65" transform="translate(1965.943359 0)"/>
     <use xlink:href="#DejaVuSans-72" transform="translate(2027.466797 0)"/>
     <use xlink:href="#DejaVuSans-62" transform="translate(2068.580078 0)"/>
     <use xlink:href="#DejaVuSans-6f" transform="translate(2132.056641 0)"/>
     <use xlink:href="#DejaVuSans-73" transform="translate(2193.238281 0)"/>
     <use xlink:href="#DejaVuSans-63" transform="translate(2245.337891 0)"/>
     <use xlink:href="#DejaVuSans-68" transform="translate(2300.318359 0)"/>
     <use xlink:href="#DejaVuSans-20" transform="translate(2363.697266 0)"/>
     <use xlink:href="#DejaVuSans-6f" transform="translate(2395.484375 0)"/>
     <use xlink:href="#DejaVuSans-6e" transform="translate(2456.666016 0)"/>
     <use xlink:href="#DejaVuSans-20" transform="translate(2520.044922 0)"/>
     <use xlink:href="#DejaVuSans-61" transform="translate(2551.832031 0)"/>
     <use xlink:href="#DejaVuSans-20" transform="translate(2613.111328 0)"/>
     <use xlink:href="#DejaVuSans-72" transform="translate(2644.898438 0)"/>
     <use xlink:href="#DejaVuSans-61" transform="translate(2686.011719 0)"/>
     <use xlink:href="#DejaVuSans-6e" transform="translate(2747.291016 0)"/>
     <use xlink:href="#DejaVuSans-64" transform="translate(2810.669922 0)"/>
     <use xlink:href="#DejaVuSans-6f" transform="translate(2874.146484 0)"/>
     <use xlink:href="#DejaVuSans-6d" transform="translate(2935.328125 0)"/>
     <use xlink:href="#DejaVuSans-20" transform="translate(3032.740234 0)"/>
     <use xlink:href="#DejaVuSans-67" transform="translate(3064.527344 0)"/>
     <use xlink:href="#DejaVuSans-72" transform="translate(3128.003906 0)"/>
     <use xlink:href="#DejaVuSans-61" transform="translate(3169.117188 0)"/>
     <use xlink:href="#DejaVuSans-70" transform="translate(3230.396484 0)"/>
     <use xlink:href="#DejaVuSans-68" transform="translate(3293.873047 0)"/>
     <use xlink:href="#DejaVuSans-20" transform="translate(3357.251953 0)"/>
     <use xlink:href="#DejaVuSans-6f" transform="translate(3389.039062 0)"/>
     <use xlink:href="#DejaVuSans-66" transform="translate(3450.220703 0)"/>
     <use xlink:href="#DejaVuSans-20" transform="translate(3485.425781 0)"/>
     <use xlink:href="#DejaVuSans-6f" transform="translate(3517.212891 0)"/>
     <use xlink:href="#DejaVuSans-72" transform="translate(3578.394531 0)"/>
     <use xlink:href="#DejaVuSans-64" transform="translate(3617.757812 0)"/>
     <use xlink:href="#DejaVuSans-65" transform="translate(3681.234375 0)"/>
     <use xlink:href="#DejaVuSans-72" transform="translate(3742.757812 0)"/>
     <use xlink:href="#DejaVuSans-20" transform="translate(3783.871094 0)"/>
     <use xlink:href="#DejaVuSans-31" transform="translate(3815.658203 0)"/>
     <use xlink:href="#DejaVuSans-4d" transform="translate(3879.28125 0)"/>
    </g>
   </g>
   <g id="legend_1">
    <g id="patch_7">
     <path d="M 57.092685 93.5925 
L 146.075497 93.5925 
Q 148.075497 93.5925 148.075497 91.5925 
L 148.075497 33.88 
Q 148.075497 31.88 146.075497 31.88 
L 57.092685 31.88 
Q 55.092685 31.88 55.092685 33.88 
L 55.092685 91.5925 
Q 55.092685 93.5925 57.092685 93.5925 
z
" style="fill: #ffffff; opacity: 0.8; stroke: #cccccc; stroke-linejoin: miter"/>
    </g>
    <g id="LineCollection_5">
     <path d="M 69.092685 44.978437 
L 69.092685 34.978437 
" style="fill: none; stroke: #ff6600; stroke-width: 1.5"/>
    </g>
    <g id="line2d_34">
     <g>
      <use xlink:href="#m643b099e1e" x="69.092685" y="44.978437" style="fill: #ff6600; stroke: #ff6600"/>
     </g>
    </g>
    <g id="line2d_35">
     <g>
      <use xlink:href="#m643b099e1e" x="69.092685" y="34.978437" style="fill: #ff6600; stroke: #ff6600"/>
     </g>
    </g>
    <g id="line2d_36">
     <path d="M 59.092685 39.978437 
L 79.092685 39.978437 
" style="fill: none; stroke: #ff6600; stroke-width: 1.5; stroke-linecap: square"/>
    </g>
    <g id="line2d_37"/>
    <g id="text_12">
     <!-- Ver2½-GP -->
     <g transform="translate(87.092685 43.478437) scale(0.1 -0.1)">
      <defs>
       <path id="DejaVuSans-56" d="M 1831 0 
L 50 4666 
L 709 4666 
L 2188 738 
L 3669 4666 
L 4325 4666 
L 2547 0 
L 1831 0 
z
" transform="scale(0.015625)"/>
       <path id="DejaVuSans-bd" d="M 488 2431 
L 1125 2431 
L 1125 4341 
L 428 4213 
L 428 4575 
L 1147 4697 
L 1575 4697 
L 1575 2431 
L 2216 2431 
L 2216 2088 
L 488 2088 
L 488 2431 
z
M 4470 332 
L 5795 332 
L 5795 -24 
L 3926 -24 
L 3926 319 
Q 4032 416 4229 591 
Q 5304 1544 5304 1838 
Q 5304 2044 5141 2170 
Q 4979 2297 4713 2297 
Q 4551 2297 4360 2242 
Q 4170 2188 3945 2079 
L 3945 2463 
Q 4185 2551 4393 2594 
Q 4601 2638 4779 2638 
Q 5232 2638 5504 2432 
Q 5776 2226 5776 1888 
Q 5776 1454 4741 566 
Q 4566 416 4470 332 
z
M 4309 4750 
L 4809 4750 
L 1896 -91 
L 1396 -91 
L 4309 4750 
z
" transform="scale(0.015625)"/>
       <path id="DejaVuSans-47" d="M 3809 666 
L 3809 1919 
L 2778 1919 
L 2778 2438 
L 4434 2438 
L 4434 434 
Q 4069 175 3628 42 
Q 3188 -91 2688 -91 
Q 1594 -91 976 548 
Q 359 1188 359 2328 
Q 359 3472 976 4111 
Q 1594 4750 2688 4750 
Q 3144 4750 3555 4637 
Q 3966 4525 4313 4306 
L 4313 3634 
Q 3963 3931 3569 4081 
Q 3175 4231 2741 4231 
Q 1884 4231 1454 3753 
Q 1025 3275 1025 2328 
Q 1025 1384 1454 906 
Q 1884 428 2741 428 
Q 3075 428 3337 486 
Q 3600 544 3809 666 
z
" transform="scale(0.015625)"/>
      </defs>
      <use xlink:href="#DejaVuSans-56"/>
      <use xlink:href="#DejaVuSans-65" transform="translate(60.658203 0)"/>
      <use xlink:href="#DejaVuSans-72" transform="translate(122.181641 0)"/>
      <use xlink:href="#DejaVuSans-32" transform="translate(163.294922 0)"/>
      <use xlink:href="#DejaVuSans-bd" transform="translate(226.917969 0)"/>
      <use xlink:href="#DejaVuSans-2d" transform="translate(323.841797 0)"/>
      <use xlink:href="#DejaVuSans-47" transform="translate(363.550781 0)"/>
      <use xlink:href="#DejaVuSans-50" transform="translate(441.041016 0)"/>
     </g>
    </g>
    <g id="LineCollection_6">
     <path d="M 69.092685 59.656562 
L 69.092685 49.656562 
" style="fill: none; stroke: #ffcc33; stroke-width: 1.5"/>
    </g>
    <g id="line2d_38">
     <g>
      <use xlink:href="#m463fb4c707" x="69.092685" y="59.656562" style="fill: #ffcc33; stroke: #ffcc33"/>
     </g>
    </g>
    <g id="line2d_39">
     <g>
      <use xlink:href="#m463fb4c707" x="69.092685" y="49.656562" style="fill: #ffcc33; stroke: #ffcc33"/>
     </g>
    </g>
    <g id="line2d_40">
     <path d="M 59.092685 54.656562 
L 79.092685 54.656562 
" style="fill: none; stroke: #ffcc33; stroke-width: 1.5; stroke-linecap: square"/>
    </g>
    <g id="line2d_41"/>
    <g id="text_13">
     <!-- Ver2½-GPX -->
     <g transform="translate(87.092685 58.156562) scale(0.1 -0.1)">
      <defs>
       <path id="DejaVuSans-58" d="M 403 4666 
L 1081 4666 
L 2241 2931 
L 3406 4666 
L 4084 4666 
L 2584 2425 
L 4184 0 
L 3506 0 
L 2194 1984 
L 872 0 
L 191 0 
L 1856 2491 
L 403 4666 
z
" transform="scale(0.015625)"/>
      </defs>
      <use xlink:href="#DejaVuSans-56"/>
      <use xlink:href="#DejaVuSans-65" transform="translate(60.658203 0)"/>
      <use xlink:href="#DejaVuSans-72" transform="translate(122.181641 0)"/>
      <use xlink:href="#DejaVuSans-32" transform="translate(163.294922 0)"/>
      <use xlink:href="#DejaVuSans-bd" transform="translate(226.917969 0)"/>
      <use xlink:href="#DejaVuSans-2d" transform="translate(323.841797 0)"/>
      <use xlink:href="#DejaVuSans-47" transform="translate(363.550781 0)"/>
      <use xlink:href="#DejaVuSans-50" transform="translate(441.041016 0)"/>
      <use xlink:href="#DejaVuSans-58" transform="translate(501.34375 0)"/>
     </g>
    </g>
    <g id="LineCollection_7">
     <path d="M 69.092685 74.334687 
L 69.092685 64.334687 
" style="fill: none; stroke: #339900; stroke-width: 1.5"/>
    </g>
    <g id="line2d_42">
     <g>
      <use xlink:href="#m7dbad405e1" x="69.092685" y="74.334687" style="fill: #339900; stroke: #339900"/>
     </g>
    </g>
    <g id="line2d_43">
     <g>
      <use xlink:href="#m7dbad405e1" x="69.092685" y="64.334687" style="fill: #339900; stroke: #339900"/>
     </g>
    </g>
    <g id="line2d_44">
     <path d="M 59.092685 69.334687 
L 79.092685 69.334687 
" style="fill: none; stroke: #339900; stroke-width: 1.5; stroke-linecap: square"/>
    </g>
    <g id="line2d_45"/>
    <g id="text_14">
     <!-- Ver3½-GP -->
     <g transform="translate(87.092685 72.834687) scale(0.1 -0.1)">
      <use xlink:href="#DejaVuSans-56"/>
      <use xlink:href="#DejaVuSans-65" transform="translate(60.658203 0)"/>
      <use xlink:href="#DejaVuSans-72" transform="translate(122.181641 0)"/>
      <use xlink:href="#DejaVuSans-33" transform="translate(163.294922 0)"/>
      <use xlink:href="#DejaVuSans-bd" transform="translate(226.917969 0)"/>
      <use xlink:href="#DejaVuSans-2d" transform="translate(323.841797 0)"/>
      <use xlink:href="#DejaVuSans-47" transform="translate(363.550781 0)"/>
      <use xlink:href="#DejaVuSans-50" transform="translate(441.041016 0)"/>
     </g>
    </g>
    <g id="LineCollection_8">
     <path d="M 69.092685 89.012812 
L 69.092685 79.012812 
" style="fill: none; stroke: #33cc00; stroke-width: 1.5"/>
    </g>
    <g id="line2d_46">
     <g>
      <use xlink:href="#m4be2de3d29" x="69.092685" y="89.012812" style="fill: #33cc00; stroke: #33cc00"/>
     </g>
    </g>
    <g id="line2d_47">
     <g>
      <use xlink:href="#m4be2de3d29" x="69.092685" y="79.012812" style="fill: #33cc00; stroke: #33cc00"/>
     </g>
    </g>
    <g id="line2d_48">
     <path d="M 59.092685 84.012812 
L 79.092685 84.012812 
" style="fill: none; stroke: #33cc00; stroke-width: 1.5; stroke-linecap: square"/>
    </g>
    <g id="line2d_49"/>
    <g id="text_15">
     <!-- Ver3½-GPX -->
     <g transform="translate(87.092685 87.512812) scale(0.1 -0.1)">
      <use xlink:href="#DejaVuSans-56"/>
      <use xlink:href="#DejaVuSans-65" transform="translate(60.658203 0)"/>
      <use xlink:href="#DejaVuSans-72" transform="translate(122.181641 0)"/>
      <use xlink:href="#DejaVuSans-33" transform="translate(163.294922 0)"/>
      <use xlink:href="#DejaVuSans-bd" transform="translate(226.917969 0)"/>
      <use xlink:href="#DejaVuSans-2d" transform="translate(323.841797 0)"/>
      <use xlink:href="#DejaVuSans-47" transform="translate(363.550781 0)"/>
      <use xlink:href="#DejaVuSans-50" transform="translate(441.041016 0)"/>
      <use xlink:href="#DejaVuSans-58" transform="translate(501.34375 0)"/>
     </g>
    </g>
   </g>
  </g>
 </g>
 <defs>
  <clipPath id="p85f70286c6">
   <rect x="50.092685" y="26.88" width="803.107315" height="579.16"/>
  </clipPath>
 </defs>
</svg>
