<?xml version="1.0" encoding="utf-8" standalone="no"?>
<!DOCTYPE svg PUBLIC "-//W3C//DTD SVG 1.1//EN"
  "http://www.w3.org/Graphics/SVG/1.1/DTD/svg11.dtd">
<svg xmlns:xlink="http://www.w3.org/1999/xlink" width="864pt" height="648pt" viewBox="0 0 864 648" xmlns="http://www.w3.org/2000/svg" version="1.1">
 <metadata>
  <rdf:RDF xmlns:dc="http://purl.org/dc/elements/1.1/" xmlns:cc="http://creativecommons.org/ns#" xmlns:rdf="http://www.w3.org/1999/02/22-rdf-syntax-ns#">
   <cc:Work>
    <dc:type rdf:resource="http://purl.org/dc/dcmitype/StillImage"/>
    <dc:date>2022-05-01T17:02:06.008714</dc:date>
    <dc:format>image/svg+xml</dc:format>
    <dc:creator>
     <cc:Agent>
      <dc:title>Matplotlib v3.5.1, https://matplotlib.org/</dc:title>
     </cc:Agent>
    </dc:creator>
   </cc:Work>
  </rdf:RDF>
 </metadata>
 <defs>
  <style type="text/css">*{stroke-linejoin: round; stroke-linecap: butt}</style>
 </defs>
 <g id="figure_1">
  <g id="patch_1">
   <path d="M 0 648 
L 864 648 
L 864 0 
L 0 0 
z
" style="fill: #ffffff"/>
  </g>
  <g id="axes_1">
   <g id="patch_2">
    <path d="M 50.092685 606.04 
L 853.2 606.04 
L 853.2 26.88 
L 50.092685 26.88 
z
" style="fill: #ffffff"/>
   </g>
   <g id="matplotlib.axis_1">
    <g id="xtick_1">
     <g id="line2d_1">
      <defs>
       <path id="mc74f61fcfc" d="M 0 0 
L 0 3.5 
" style="stroke: #000000; stroke-width: 0.8"/>
      </defs>
      <g>
       <use xlink:href="#mc74f61fcfc" x="167.719514" y="606.04" style="stroke: #000000; stroke-width: 0.8"/>
      </g>
     </g>
     <g id="text_1">
      <!-- 1 -->
      <g transform="translate(164.538264 620.638438)scale(0.1 -0.1)">
       <defs>
        <path id="DejaVuSans-31" d="M 794 531 
L 1825 531 
L 1825 4091 
L 703 3866 
L 703 4441 
L 1819 4666 
L 2450 4666 
L 2450 531 
L 3481 531 
L 3481 0 
L 794 0 
L 794 531 
z
" transform="scale(0.015625)"/>
       </defs>
       <use xlink:href="#DejaVuSans-31"/>
      </g>
     </g>
    </g>
    <g id="xtick_2">
     <g id="line2d_2">
      <g>
       <use xlink:href="#mc74f61fcfc" x="329.963416" y="606.04" style="stroke: #000000; stroke-width: 0.8"/>
      </g>
     </g>
     <g id="text_2">
      <!-- 2 -->
      <g transform="translate(326.782166 620.638438)scale(0.1 -0.1)">
       <defs>
        <path id="DejaVuSans-32" d="M 1228 531 
L 3431 531 
L 3431 0 
L 469 0 
L 469 531 
Q 828 903 1448 1529 
Q 2069 2156 2228 2338 
Q 2531 2678 2651 2914 
Q 2772 3150 2772 3378 
Q 2772 3750 2511 3984 
Q 2250 4219 1831 4219 
Q 1534 4219 1204 4116 
Q 875 4013 500 3803 
L 500 4441 
Q 881 4594 1212 4672 
Q 1544 4750 1819 4750 
Q 2544 4750 2975 4387 
Q 3406 4025 3406 3419 
Q 3406 3131 3298 2873 
Q 3191 2616 2906 2266 
Q 2828 2175 2409 1742 
Q 1991 1309 1228 531 
z
" transform="scale(0.015625)"/>
       </defs>
       <use xlink:href="#DejaVuSans-32"/>
      </g>
     </g>
    </g>
    <g id="xtick_3">
     <g id="line2d_3">
      <g>
       <use xlink:href="#mc74f61fcfc" x="492.207318" y="606.04" style="stroke: #000000; stroke-width: 0.8"/>
      </g>
     </g>
     <g id="text_3">
      <!-- 3 -->
      <g transform="translate(489.026068 620.638438)scale(0.1 -0.1)">
       <defs>
        <path id="DejaVuSans-33" d="M 2597 2516 
Q 3050 2419 3304 2112 
Q 3559 1806 3559 1356 
Q 3559 666 3084 287 
Q 2609 -91 1734 -91 
Q 1441 -91 1130 -33 
Q 819 25 488 141 
L 488 750 
Q 750 597 1062 519 
Q 1375 441 1716 441 
Q 2309 441 2620 675 
Q 2931 909 2931 1356 
Q 2931 1769 2642 2001 
Q 2353 2234 1838 2234 
L 1294 2234 
L 1294 2753 
L 1863 2753 
Q 2328 2753 2575 2939 
Q 2822 3125 2822 3475 
Q 2822 3834 2567 4026 
Q 2313 4219 1838 4219 
Q 1578 4219 1281 4162 
Q 984 4106 628 3988 
L 628 4550 
Q 988 4650 1302 4700 
Q 1616 4750 1894 4750 
Q 2613 4750 3031 4423 
Q 3450 4097 3450 3541 
Q 3450 3153 3228 2886 
Q 3006 2619 2597 2516 
z
" transform="scale(0.015625)"/>
       </defs>
       <use xlink:href="#DejaVuSans-33"/>
      </g>
     </g>
    </g>
    <g id="xtick_4">
     <g id="line2d_4">
      <g>
       <use xlink:href="#mc74f61fcfc" x="654.45122" y="606.04" style="stroke: #000000; stroke-width: 0.8"/>
      </g>
     </g>
     <g id="text_4">
      <!-- 4 -->
      <g transform="translate(651.26997 620.638438)scale(0.1 -0.1)">
       <defs>
        <path id="DejaVuSans-34" d="M 2419 4116 
L 825 1625 
L 2419 1625 
L 2419 4116 
z
M 2253 4666 
L 3047 4666 
L 3047 1625 
L 3713 1625 
L 3713 1100 
L 3047 1100 
L 3047 0 
L 2419 0 
L 2419 1100 
L 313 1100 
L 313 1709 
L 2253 4666 
z
" transform="scale(0.015625)"/>
       </defs>
       <use xlink:href="#DejaVuSans-34"/>
      </g>
     </g>
    </g>
    <g id="xtick_5">
     <g id="line2d_5">
      <g>
       <use xlink:href="#mc74f61fcfc" x="816.695122" y="606.04" style="stroke: #000000; stroke-width: 0.8"/>
      </g>
     </g>
     <g id="text_5">
      <!-- 5 -->
      <g transform="translate(813.513872 620.638438)scale(0.1 -0.1)">
       <defs>
        <path id="DejaVuSans-35" d="M 691 4666 
L 3169 4666 
L 3169 4134 
L 1269 4134 
L 1269 2991 
Q 1406 3038 1543 3061 
Q 1681 3084 1819 3084 
Q 2600 3084 3056 2656 
Q 3513 2228 3513 1497 
Q 3513 744 3044 326 
Q 2575 -91 1722 -91 
Q 1428 -91 1123 -41 
Q 819 9 494 109 
L 494 744 
Q 775 591 1075 516 
Q 1375 441 1709 441 
Q 2250 441 2565 725 
Q 2881 1009 2881 1497 
Q 2881 1984 2565 2268 
Q 2250 2553 1709 2553 
Q 1456 2553 1204 2497 
Q 953 2441 691 2322 
L 691 4666 
z
" transform="scale(0.015625)"/>
       </defs>
       <use xlink:href="#DejaVuSans-35"/>
      </g>
     </g>
    </g>
    <g id="text_6">
     <!-- Size (#edges) -->
     <g transform="translate(416.595561 634.316563)scale(0.1 -0.1)">
      <defs>
       <path id="DejaVuSans-53" d="M 3425 4513 
L 3425 3897 
Q 3066 4069 2747 4153 
Q 2428 4238 2131 4238 
Q 1616 4238 1336 4038 
Q 1056 3838 1056 3469 
Q 1056 3159 1242 3001 
Q 1428 2844 1947 2747 
L 2328 2669 
Q 3034 2534 3370 2195 
Q 3706 1856 3706 1288 
Q 3706 609 3251 259 
Q 2797 -91 1919 -91 
Q 1588 -91 1214 -16 
Q 841 59 441 206 
L 441 856 
Q 825 641 1194 531 
Q 1563 422 1919 422 
Q 2459 422 2753 634 
Q 3047 847 3047 1241 
Q 3047 1584 2836 1778 
Q 2625 1972 2144 2069 
L 1759 2144 
Q 1053 2284 737 2584 
Q 422 2884 422 3419 
Q 422 4038 858 4394 
Q 1294 4750 2059 4750 
Q 2388 4750 2728 4690 
Q 3069 4631 3425 4513 
z
" transform="scale(0.015625)"/>
       <path id="DejaVuSans-69" d="M 603 3500 
L 1178 3500 
L 1178 0 
L 603 0 
L 603 3500 
z
M 603 4863 
L 1178 4863 
L 1178 4134 
L 603 4134 
L 603 4863 
z
" transform="scale(0.015625)"/>
       <path id="DejaVuSans-7a" d="M 353 3500 
L 3084 3500 
L 3084 2975 
L 922 459 
L 3084 459 
L 3084 0 
L 275 0 
L 275 525 
L 2438 3041 
L 353 3041 
L 353 3500 
z
" transform="scale(0.015625)"/>
       <path id="DejaVuSans-65" d="M 3597 1894 
L 3597 1613 
L 953 1613 
Q 991 1019 1311 708 
Q 1631 397 2203 397 
Q 2534 397 2845 478 
Q 3156 559 3463 722 
L 3463 178 
Q 3153 47 2828 -22 
Q 2503 -91 2169 -91 
Q 1331 -91 842 396 
Q 353 884 353 1716 
Q 353 2575 817 3079 
Q 1281 3584 2069 3584 
Q 2775 3584 3186 3129 
Q 3597 2675 3597 1894 
z
M 3022 2063 
Q 3016 2534 2758 2815 
Q 2500 3097 2075 3097 
Q 1594 3097 1305 2825 
Q 1016 2553 972 2059 
L 3022 2063 
z
" transform="scale(0.015625)"/>
       <path id="DejaVuSans-20" transform="scale(0.015625)"/>
       <path id="DejaVuSans-28" d="M 1984 4856 
Q 1566 4138 1362 3434 
Q 1159 2731 1159 2009 
Q 1159 1288 1364 580 
Q 1569 -128 1984 -844 
L 1484 -844 
Q 1016 -109 783 600 
Q 550 1309 550 2009 
Q 550 2706 781 3412 
Q 1013 4119 1484 4856 
L 1984 4856 
z
" transform="scale(0.015625)"/>
       <path id="DejaVuSans-23" d="M 3272 2816 
L 2363 2816 
L 2100 1772 
L 3016 1772 
L 3272 2816 
z
M 2803 4594 
L 2478 3297 
L 3391 3297 
L 3719 4594 
L 4219 4594 
L 3897 3297 
L 4872 3297 
L 4872 2816 
L 3775 2816 
L 3519 1772 
L 4513 1772 
L 4513 1294 
L 3397 1294 
L 3072 0 
L 2572 0 
L 2894 1294 
L 1978 1294 
L 1656 0 
L 1153 0 
L 1478 1294 
L 494 1294 
L 494 1772 
L 1594 1772 
L 1856 2816 
L 850 2816 
L 850 3297 
L 1978 3297 
L 2297 4594 
L 2803 4594 
z
" transform="scale(0.015625)"/>
       <path id="DejaVuSans-64" d="M 2906 2969 
L 2906 4863 
L 3481 4863 
L 3481 0 
L 2906 0 
L 2906 525 
Q 2725 213 2448 61 
Q 2172 -91 1784 -91 
Q 1150 -91 751 415 
Q 353 922 353 1747 
Q 353 2572 751 3078 
Q 1150 3584 1784 3584 
Q 2172 3584 2448 3432 
Q 2725 3281 2906 2969 
z
M 947 1747 
Q 947 1113 1208 752 
Q 1469 391 1925 391 
Q 2381 391 2643 752 
Q 2906 1113 2906 1747 
Q 2906 2381 2643 2742 
Q 2381 3103 1925 3103 
Q 1469 3103 1208 2742 
Q 947 2381 947 1747 
z
" transform="scale(0.015625)"/>
       <path id="DejaVuSans-67" d="M 2906 1791 
Q 2906 2416 2648 2759 
Q 2391 3103 1925 3103 
Q 1463 3103 1205 2759 
Q 947 2416 947 1791 
Q 947 1169 1205 825 
Q 1463 481 1925 481 
Q 2391 481 2648 825 
Q 2906 1169 2906 1791 
z
M 3481 434 
Q 3481 -459 3084 -895 
Q 2688 -1331 1869 -1331 
Q 1566 -1331 1297 -1286 
Q 1028 -1241 775 -1147 
L 775 -588 
Q 1028 -725 1275 -790 
Q 1522 -856 1778 -856 
Q 2344 -856 2625 -561 
Q 2906 -266 2906 331 
L 2906 616 
Q 2728 306 2450 153 
Q 2172 0 1784 0 
Q 1141 0 747 490 
Q 353 981 353 1791 
Q 353 2603 747 3093 
Q 1141 3584 1784 3584 
Q 2172 3584 2450 3431 
Q 2728 3278 2906 2969 
L 2906 3500 
L 3481 3500 
L 3481 434 
z
" transform="scale(0.015625)"/>
       <path id="DejaVuSans-73" d="M 2834 3397 
L 2834 2853 
Q 2591 2978 2328 3040 
Q 2066 3103 1784 3103 
Q 1356 3103 1142 2972 
Q 928 2841 928 2578 
Q 928 2378 1081 2264 
Q 1234 2150 1697 2047 
L 1894 2003 
Q 2506 1872 2764 1633 
Q 3022 1394 3022 966 
Q 3022 478 2636 193 
Q 2250 -91 1575 -91 
Q 1294 -91 989 -36 
Q 684 19 347 128 
L 347 722 
Q 666 556 975 473 
Q 1284 391 1588 391 
Q 1994 391 2212 530 
Q 2431 669 2431 922 
Q 2431 1156 2273 1281 
Q 2116 1406 1581 1522 
L 1381 1569 
Q 847 1681 609 1914 
Q 372 2147 372 2553 
Q 372 3047 722 3315 
Q 1072 3584 1716 3584 
Q 2034 3584 2315 3537 
Q 2597 3491 2834 3397 
z
" transform="scale(0.015625)"/>
       <path id="DejaVuSans-29" d="M 513 4856 
L 1013 4856 
Q 1481 4119 1714 3412 
Q 1947 2706 1947 2009 
Q 1947 1309 1714 600 
Q 1481 -109 1013 -844 
L 513 -844 
Q 928 -128 1133 580 
Q 1338 1288 1338 2009 
Q 1338 2731 1133 3434 
Q 928 4138 513 4856 
z
" transform="scale(0.015625)"/>
      </defs>
      <use xlink:href="#DejaVuSans-53"/>
      <use xlink:href="#DejaVuSans-69" x="63.476562"/>
      <use xlink:href="#DejaVuSans-7a" x="91.259766"/>
      <use xlink:href="#DejaVuSans-65" x="143.75"/>
      <use xlink:href="#DejaVuSans-20" x="205.273438"/>
      <use xlink:href="#DejaVuSans-28" x="237.060547"/>
      <use xlink:href="#DejaVuSans-23" x="276.074219"/>
      <use xlink:href="#DejaVuSans-65" x="359.863281"/>
      <use xlink:href="#DejaVuSans-64" x="421.386719"/>
      <use xlink:href="#DejaVuSans-67" x="484.863281"/>
      <use xlink:href="#DejaVuSans-65" x="548.339844"/>
      <use xlink:href="#DejaVuSans-73" x="609.863281"/>
      <use xlink:href="#DejaVuSans-29" x="661.962891"/>
     </g>
    </g>
    <g id="text_7">
     <!-- 1e6 -->
     <g transform="translate(834.321875 633.316563)scale(0.1 -0.1)">
      <defs>
       <path id="DejaVuSans-36" d="M 2113 2584 
Q 1688 2584 1439 2293 
Q 1191 2003 1191 1497 
Q 1191 994 1439 701 
Q 1688 409 2113 409 
Q 2538 409 2786 701 
Q 3034 994 3034 1497 
Q 3034 2003 2786 2293 
Q 2538 2584 2113 2584 
z
M 3366 4563 
L 3366 3988 
Q 3128 4100 2886 4159 
Q 2644 4219 2406 4219 
Q 1781 4219 1451 3797 
Q 1122 3375 1075 2522 
Q 1259 2794 1537 2939 
Q 1816 3084 2150 3084 
Q 2853 3084 3261 2657 
Q 3669 2231 3669 1497 
Q 3669 778 3244 343 
Q 2819 -91 2113 -91 
Q 1303 -91 875 529 
Q 447 1150 447 2328 
Q 447 3434 972 4092 
Q 1497 4750 2381 4750 
Q 2619 4750 2861 4703 
Q 3103 4656 3366 4563 
z
" transform="scale(0.015625)"/>
      </defs>
      <use xlink:href="#DejaVuSans-31"/>
      <use xlink:href="#DejaVuSans-65" x="63.623047"/>
      <use xlink:href="#DejaVuSans-36" x="125.146484"/>
     </g>
    </g>
   </g>
   <g id="matplotlib.axis_2">
    <g id="ytick_1">
     <g id="line2d_6">
      <defs>
       <path id="m7eb1c47a8f" d="M 0 0 
L -3.5 0 
" style="stroke: #000000; stroke-width: 0.8"/>
      </defs>
      <g>
       <use xlink:href="#m7eb1c47a8f" x="50.092685" y="515.51094" style="stroke: #000000; stroke-width: 0.8"/>
      </g>
     </g>
     <g id="text_8">
      <!-- $\mathdefault{10^{0}}$ -->
      <g transform="translate(25.492685 519.310159)scale(0.1 -0.1)">
       <defs>
        <path id="DejaVuSans-30" d="M 2034 4250 
Q 1547 4250 1301 3770 
Q 1056 3291 1056 2328 
Q 1056 1369 1301 889 
Q 1547 409 2034 409 
Q 2525 409 2770 889 
Q 3016 1369 3016 2328 
Q 3016 3291 2770 3770 
Q 2525 4250 2034 4250 
z
M 2034 4750 
Q 2819 4750 3233 4129 
Q 3647 3509 3647 2328 
Q 3647 1150 3233 529 
Q 2819 -91 2034 -91 
Q 1250 -91 836 529 
Q 422 1150 422 2328 
Q 422 3509 836 4129 
Q 1250 4750 2034 4750 
z
" transform="scale(0.015625)"/>
       </defs>
       <use xlink:href="#DejaVuSans-31" transform="translate(0 0.765625)"/>
       <use xlink:href="#DejaVuSans-30" transform="translate(63.623047 0.765625)"/>
       <use xlink:href="#DejaVuSans-30" transform="translate(128.203125 39.046875)scale(0.7)"/>
      </g>
     </g>
    </g>
    <g id="ytick_2">
     <g id="line2d_7">
      <defs>
       <path id="m4ace82f8a3" d="M 0 0 
L -2 0 
" style="stroke: #000000; stroke-width: 0.6"/>
      </defs>
      <g>
       <use xlink:href="#m4ace82f8a3" x="50.092685" y="602.339796" style="stroke: #000000; stroke-width: 0.6"/>
      </g>
     </g>
    </g>
    <g id="ytick_3">
     <g id="line2d_8">
      <g>
       <use xlink:href="#m4ace82f8a3" x="50.092685" y="569.832948" style="stroke: #000000; stroke-width: 0.6"/>
      </g>
     </g>
    </g>
    <g id="ytick_4">
     <g id="line2d_9">
      <g>
       <use xlink:href="#m4ace82f8a3" x="50.092685" y="541.159877" style="stroke: #000000; stroke-width: 0.6"/>
      </g>
     </g>
    </g>
    <g id="ytick_5">
     <g id="line2d_10">
      <g>
       <use xlink:href="#m4ace82f8a3" x="50.092685" y="346.77137" style="stroke: #000000; stroke-width: 0.6"/>
      </g>
     </g>
    </g>
    <g id="ytick_6">
     <g id="line2d_11">
      <g>
       <use xlink:href="#m4ace82f8a3" x="50.092685" y="248.065048" style="stroke: #000000; stroke-width: 0.6"/>
      </g>
     </g>
    </g>
    <g id="ytick_7">
     <g id="line2d_12">
      <g>
       <use xlink:href="#m4ace82f8a3" x="50.092685" y="178.031799" style="stroke: #000000; stroke-width: 0.6"/>
      </g>
     </g>
    </g>
    <g id="ytick_8">
     <g id="line2d_13">
      <g>
       <use xlink:href="#m4ace82f8a3" x="50.092685" y="123.709791" style="stroke: #000000; stroke-width: 0.6"/>
      </g>
     </g>
    </g>
    <g id="ytick_9">
     <g id="line2d_14">
      <g>
       <use xlink:href="#m4ace82f8a3" x="50.092685" y="79.325478" style="stroke: #000000; stroke-width: 0.6"/>
      </g>
     </g>
    </g>
    <g id="ytick_10">
     <g id="line2d_15">
      <g>
       <use xlink:href="#m4ace82f8a3" x="50.092685" y="41.799076" style="stroke: #000000; stroke-width: 0.6"/>
      </g>
     </g>
    </g>
    <g id="text_9">
     <!-- Seconds spent -->
     <g transform="translate(19.412997 353.040469)rotate(-90)scale(0.1 -0.1)">
      <defs>
       <path id="DejaVuSans-63" d="M 3122 3366 
L 3122 2828 
Q 2878 2963 2633 3030 
Q 2388 3097 2138 3097 
Q 1578 3097 1268 2742 
Q 959 2388 959 1747 
Q 959 1106 1268 751 
Q 1578 397 2138 397 
Q 2388 397 2633 464 
Q 2878 531 3122 666 
L 3122 134 
Q 2881 22 2623 -34 
Q 2366 -91 2075 -91 
Q 1284 -91 818 406 
Q 353 903 353 1747 
Q 353 2603 823 3093 
Q 1294 3584 2113 3584 
Q 2378 3584 2631 3529 
Q 2884 3475 3122 3366 
z
" transform="scale(0.015625)"/>
       <path id="DejaVuSans-6f" d="M 1959 3097 
Q 1497 3097 1228 2736 
Q 959 2375 959 1747 
Q 959 1119 1226 758 
Q 1494 397 1959 397 
Q 2419 397 2687 759 
Q 2956 1122 2956 1747 
Q 2956 2369 2687 2733 
Q 2419 3097 1959 3097 
z
M 1959 3584 
Q 2709 3584 3137 3096 
Q 3566 2609 3566 1747 
Q 3566 888 3137 398 
Q 2709 -91 1959 -91 
Q 1206 -91 779 398 
Q 353 888 353 1747 
Q 353 2609 779 3096 
Q 1206 3584 1959 3584 
z
" transform="scale(0.015625)"/>
       <path id="DejaVuSans-6e" d="M 3513 2113 
L 3513 0 
L 2938 0 
L 2938 2094 
Q 2938 2591 2744 2837 
Q 2550 3084 2163 3084 
Q 1697 3084 1428 2787 
Q 1159 2491 1159 1978 
L 1159 0 
L 581 0 
L 581 3500 
L 1159 3500 
L 1159 2956 
Q 1366 3272 1645 3428 
Q 1925 3584 2291 3584 
Q 2894 3584 3203 3211 
Q 3513 2838 3513 2113 
z
" transform="scale(0.015625)"/>
       <path id="DejaVuSans-70" d="M 1159 525 
L 1159 -1331 
L 581 -1331 
L 581 3500 
L 1159 3500 
L 1159 2969 
Q 1341 3281 1617 3432 
Q 1894 3584 2278 3584 
Q 2916 3584 3314 3078 
Q 3713 2572 3713 1747 
Q 3713 922 3314 415 
Q 2916 -91 2278 -91 
Q 1894 -91 1617 61 
Q 1341 213 1159 525 
z
M 3116 1747 
Q 3116 2381 2855 2742 
Q 2594 3103 2138 3103 
Q 1681 3103 1420 2742 
Q 1159 2381 1159 1747 
Q 1159 1113 1420 752 
Q 1681 391 2138 391 
Q 2594 391 2855 752 
Q 3116 1113 3116 1747 
z
" transform="scale(0.015625)"/>
       <path id="DejaVuSans-74" d="M 1172 4494 
L 1172 3500 
L 2356 3500 
L 2356 3053 
L 1172 3053 
L 1172 1153 
Q 1172 725 1289 603 
Q 1406 481 1766 481 
L 2356 481 
L 2356 0 
L 1766 0 
Q 1100 0 847 248 
Q 594 497 594 1153 
L 594 3053 
L 172 3053 
L 172 3500 
L 594 3500 
L 594 4494 
L 1172 4494 
z
" transform="scale(0.015625)"/>
      </defs>
      <use xlink:href="#DejaVuSans-53"/>
      <use xlink:href="#DejaVuSans-65" x="63.476562"/>
      <use xlink:href="#DejaVuSans-63" x="125"/>
      <use xlink:href="#DejaVuSans-6f" x="179.980469"/>
      <use xlink:href="#DejaVuSans-6e" x="241.162109"/>
      <use xlink:href="#DejaVuSans-64" x="304.541016"/>
      <use xlink:href="#DejaVuSans-73" x="368.017578"/>
      <use xlink:href="#DejaVuSans-20" x="420.117188"/>
      <use xlink:href="#DejaVuSans-73" x="451.904297"/>
      <use xlink:href="#DejaVuSans-70" x="504.003906"/>
      <use xlink:href="#DejaVuSans-65" x="567.480469"/>
      <use xlink:href="#DejaVuSans-6e" x="629.003906"/>
      <use xlink:href="#DejaVuSans-74" x="692.382812"/>
     </g>
    </g>
   </g>
   <g id="LineCollection_1">
    <path d="M 86.597563 549.264884 
L 86.597563 547.157394 
" clip-path="url(#p07553cf7cc)" style="fill: none; stroke: #ff6600; stroke-width: 1.5"/>
    <path d="M 127.158538 465.291675 
L 127.158538 465.071926 
" clip-path="url(#p07553cf7cc)" style="fill: none; stroke: #ff6600; stroke-width: 1.5"/>
    <path d="M 167.719514 409.850027 
L 167.719514 406.417073 
" clip-path="url(#p07553cf7cc)" style="fill: none; stroke: #ff6600; stroke-width: 1.5"/>
    <path d="M 208.280489 363.530028 
L 208.280489 362.246426 
" clip-path="url(#p07553cf7cc)" style="fill: none; stroke: #ff6600; stroke-width: 1.5"/>
    <path d="M 248.841465 328.428518 
L 248.841465 328.147596 
" clip-path="url(#p07553cf7cc)" style="fill: none; stroke: #ff6600; stroke-width: 1.5"/>
    <path d="M 289.40244 298.144769 
L 289.40244 296.13653 
" clip-path="url(#p07553cf7cc)" style="fill: none; stroke: #ff6600; stroke-width: 1.5"/>
    <path d="M 329.963416 270.153471 
L 329.963416 268.812812 
" clip-path="url(#p07553cf7cc)" style="fill: none; stroke: #ff6600; stroke-width: 1.5"/>
    <path d="M 492.207318 185.553466 
L 492.207318 184.01795 
" clip-path="url(#p07553cf7cc)" style="fill: none; stroke: #ff6600; stroke-width: 1.5"/>
    <path d="M 654.45122 118.509383 
L 654.45122 117.444633 
" clip-path="url(#p07553cf7cc)" style="fill: none; stroke: #ff6600; stroke-width: 1.5"/>
    <path d="M 816.695122 62.616659 
L 816.695122 61.393877 
" clip-path="url(#p07553cf7cc)" style="fill: none; stroke: #ff6600; stroke-width: 1.5"/>
   </g>
   <g id="line2d_16">
    <defs>
     <path id="m643b099e1e" d="M 3 0 
L -3 -0 
" style="stroke: #ff6600"/>
    </defs>
    <g clip-path="url(#p07553cf7cc)">
     <use xlink:href="#m643b099e1e" x="86.597563" y="549.264884" style="fill: #ff6600; stroke: #ff6600"/>
     <use xlink:href="#m643b099e1e" x="127.158538" y="465.291675" style="fill: #ff6600; stroke: #ff6600"/>
     <use xlink:href="#m643b099e1e" x="167.719514" y="409.850027" style="fill: #ff6600; stroke: #ff6600"/>
     <use xlink:href="#m643b099e1e" x="208.280489" y="363.530028" style="fill: #ff6600; stroke: #ff6600"/>
     <use xlink:href="#m643b099e1e" x="248.841465" y="328.428518" style="fill: #ff6600; stroke: #ff6600"/>
     <use xlink:href="#m643b099e1e" x="289.40244" y="298.144769" style="fill: #ff6600; stroke: #ff6600"/>
     <use xlink:href="#m643b099e1e" x="329.963416" y="270.153471" style="fill: #ff6600; stroke: #ff6600"/>
     <use xlink:href="#m643b099e1e" x="492.207318" y="185.553466" style="fill: #ff6600; stroke: #ff6600"/>
     <use xlink:href="#m643b099e1e" x="654.45122" y="118.509383" style="fill: #ff6600; stroke: #ff6600"/>
     <use xlink:href="#m643b099e1e" x="816.695122" y="62.616659" style="fill: #ff6600; stroke: #ff6600"/>
    </g>
   </g>
   <g id="line2d_17">
    <g clip-path="url(#p07553cf7cc)">
     <use xlink:href="#m643b099e1e" x="86.597563" y="547.157394" style="fill: #ff6600; stroke: #ff6600"/>
     <use xlink:href="#m643b099e1e" x="127.158538" y="465.071926" style="fill: #ff6600; stroke: #ff6600"/>
     <use xlink:href="#m643b099e1e" x="167.719514" y="406.417073" style="fill: #ff6600; stroke: #ff6600"/>
     <use xlink:href="#m643b099e1e" x="208.280489" y="362.246426" style="fill: #ff6600; stroke: #ff6600"/>
     <use xlink:href="#m643b099e1e" x="248.841465" y="328.147596" style="fill: #ff6600; stroke: #ff6600"/>
     <use xlink:href="#m643b099e1e" x="289.40244" y="296.13653" style="fill: #ff6600; stroke: #ff6600"/>
     <use xlink:href="#m643b099e1e" x="329.963416" y="268.812812" style="fill: #ff6600; stroke: #ff6600"/>
     <use xlink:href="#m643b099e1e" x="492.207318" y="184.01795" style="fill: #ff6600; stroke: #ff6600"/>
     <use xlink:href="#m643b099e1e" x="654.45122" y="117.444633" style="fill: #ff6600; stroke: #ff6600"/>
     <use xlink:href="#m643b099e1e" x="816.695122" y="61.393877" style="fill: #ff6600; stroke: #ff6600"/>
    </g>
   </g>
   <g id="LineCollection_2">
    <path d="M 86.597563 545.221691 
L 86.597563 542.478285 
" clip-path="url(#p07553cf7cc)" style="fill: none; stroke: #339900; stroke-width: 1.5"/>
    <path d="M 127.158538 458.481414 
L 127.158538 458.013851 
" clip-path="url(#p07553cf7cc)" style="fill: none; stroke: #339900; stroke-width: 1.5"/>
    <path d="M 167.719514 401.586843 
L 167.719514 401.204473 
" clip-path="url(#p07553cf7cc)" style="fill: none; stroke: #339900; stroke-width: 1.5"/>
    <path d="M 208.280489 356.866338 
L 208.280489 355.511301 
" clip-path="url(#p07553cf7cc)" style="fill: none; stroke: #339900; stroke-width: 1.5"/>
    <path d="M 248.841465 319.378364 
L 248.841465 318.290962 
" clip-path="url(#p07553cf7cc)" style="fill: none; stroke: #339900; stroke-width: 1.5"/>
    <path d="M 289.40244 286.229286 
L 289.40244 285.310304 
" clip-path="url(#p07553cf7cc)" style="fill: none; stroke: #339900; stroke-width: 1.5"/>
    <path d="M 329.963416 260.160977 
L 329.963416 259.821797 
" clip-path="url(#p07553cf7cc)" style="fill: none; stroke: #339900; stroke-width: 1.5"/>
    <path d="M 492.207318 177.164873 
L 492.207318 174.468486 
" clip-path="url(#p07553cf7cc)" style="fill: none; stroke: #339900; stroke-width: 1.5"/>
    <path d="M 654.45122 112.881141 
L 654.45122 111.032377 
" clip-path="url(#p07553cf7cc)" style="fill: none; stroke: #339900; stroke-width: 1.5"/>
    <path d="M 816.695122 57.186688 
L 816.695122 53.205455 
" clip-path="url(#p07553cf7cc)" style="fill: none; stroke: #339900; stroke-width: 1.5"/>
   </g>
   <g id="line2d_18">
    <defs>
     <path id="m7dbad405e1" d="M 3 0 
L -3 -0 
" style="stroke: #339900"/>
    </defs>
    <g clip-path="url(#p07553cf7cc)">
     <use xlink:href="#m7dbad405e1" x="86.597563" y="545.221691" style="fill: #339900; stroke: #339900"/>
     <use xlink:href="#m7dbad405e1" x="127.158538" y="458.481414" style="fill: #339900; stroke: #339900"/>
     <use xlink:href="#m7dbad405e1" x="167.719514" y="401.586843" style="fill: #339900; stroke: #339900"/>
     <use xlink:href="#m7dbad405e1" x="208.280489" y="356.866338" style="fill: #339900; stroke: #339900"/>
     <use xlink:href="#m7dbad405e1" x="248.841465" y="319.378364" style="fill: #339900; stroke: #339900"/>
     <use xlink:href="#m7dbad405e1" x="289.40244" y="286.229286" style="fill: #339900; stroke: #339900"/>
     <use xlink:href="#m7dbad405e1" x="329.963416" y="260.160977" style="fill: #339900; stroke: #339900"/>
     <use xlink:href="#m7dbad405e1" x="492.207318" y="177.164873" style="fill: #339900; stroke: #339900"/>
     <use xlink:href="#m7dbad405e1" x="654.45122" y="112.881141" style="fill: #339900; stroke: #339900"/>
     <use xlink:href="#m7dbad405e1" x="816.695122" y="57.186688" style="fill: #339900; stroke: #339900"/>
    </g>
   </g>
   <g id="line2d_19">
    <g clip-path="url(#p07553cf7cc)">
     <use xlink:href="#m7dbad405e1" x="86.597563" y="542.478285" style="fill: #339900; stroke: #339900"/>
     <use xlink:href="#m7dbad405e1" x="127.158538" y="458.013851" style="fill: #339900; stroke: #339900"/>
     <use xlink:href="#m7dbad405e1" x="167.719514" y="401.204473" style="fill: #339900; stroke: #339900"/>
     <use xlink:href="#m7dbad405e1" x="208.280489" y="355.511301" style="fill: #339900; stroke: #339900"/>
     <use xlink:href="#m7dbad405e1" x="248.841465" y="318.290962" style="fill: #339900; stroke: #339900"/>
     <use xlink:href="#m7dbad405e1" x="289.40244" y="285.310304" style="fill: #339900; stroke: #339900"/>
     <use xlink:href="#m7dbad405e1" x="329.963416" y="259.821797" style="fill: #339900; stroke: #339900"/>
     <use xlink:href="#m7dbad405e1" x="492.207318" y="174.468486" style="fill: #339900; stroke: #339900"/>
     <use xlink:href="#m7dbad405e1" x="654.45122" y="111.032377" style="fill: #339900; stroke: #339900"/>
     <use xlink:href="#m7dbad405e1" x="816.695122" y="53.205455" style="fill: #339900; stroke: #339900"/>
    </g>
   </g>
   <g id="LineCollection_3">
    <path d="M 86.597563 579.714545 
L 86.597563 578.657743 
" clip-path="url(#p07553cf7cc)" style="fill: none; stroke: #669999; stroke-width: 1.5"/>
    <path d="M 127.158538 506.598235 
L 127.158538 504.269567 
" clip-path="url(#p07553cf7cc)" style="fill: none; stroke: #669999; stroke-width: 1.5"/>
    <path d="M 167.719514 462.172465 
L 167.719514 457.829381 
" clip-path="url(#p07553cf7cc)" style="fill: none; stroke: #669999; stroke-width: 1.5"/>
    <path d="M 208.280489 429.489694 
L 208.280489 427.221212 
" clip-path="url(#p07553cf7cc)" style="fill: none; stroke: #669999; stroke-width: 1.5"/>
    <path d="M 248.841465 401.588368 
L 248.841465 399.337828 
" clip-path="url(#p07553cf7cc)" style="fill: none; stroke: #669999; stroke-width: 1.5"/>
    <path d="M 289.40244 376.857289 
L 289.40244 376.70996 
" clip-path="url(#p07553cf7cc)" style="fill: none; stroke: #669999; stroke-width: 1.5"/>
    <path d="M 329.963416 358.73728 
L 329.963416 357.52952 
" clip-path="url(#p07553cf7cc)" style="fill: none; stroke: #669999; stroke-width: 1.5"/>
    <path d="M 492.207318 294.659081 
L 492.207318 291.903694 
" clip-path="url(#p07553cf7cc)" style="fill: none; stroke: #669999; stroke-width: 1.5"/>
    <path d="M 654.45122 235.867844 
L 654.45122 230.478197 
" clip-path="url(#p07553cf7cc)" style="fill: none; stroke: #669999; stroke-width: 1.5"/>
    <path d="M 816.695122 181.410961 
L 816.695122 169.583046 
" clip-path="url(#p07553cf7cc)" style="fill: none; stroke: #669999; stroke-width: 1.5"/>
   </g>
   <g id="line2d_20">
    <defs>
     <path id="m22ae5b1ed0" d="M 3 0 
L -3 -0 
" style="stroke: #669999"/>
    </defs>
    <g clip-path="url(#p07553cf7cc)">
     <use xlink:href="#m22ae5b1ed0" x="86.597563" y="579.714545" style="fill: #669999; stroke: #669999"/>
     <use xlink:href="#m22ae5b1ed0" x="127.158538" y="506.598235" style="fill: #669999; stroke: #669999"/>
     <use xlink:href="#m22ae5b1ed0" x="167.719514" y="462.172465" style="fill: #669999; stroke: #669999"/>
     <use xlink:href="#m22ae5b1ed0" x="208.280489" y="429.489694" style="fill: #669999; stroke: #669999"/>
     <use xlink:href="#m22ae5b1ed0" x="248.841465" y="401.588368" style="fill: #669999; stroke: #669999"/>
     <use xlink:href="#m22ae5b1ed0" x="289.40244" y="376.857289" style="fill: #669999; stroke: #669999"/>
     <use xlink:href="#m22ae5b1ed0" x="329.963416" y="358.73728" style="fill: #669999; stroke: #669999"/>
     <use xlink:href="#m22ae5b1ed0" x="492.207318" y="294.659081" style="fill: #669999; stroke: #669999"/>
     <use xlink:href="#m22ae5b1ed0" x="654.45122" y="235.867844" style="fill: #669999; stroke: #669999"/>
     <use xlink:href="#m22ae5b1ed0" x="816.695122" y="181.410961" style="fill: #669999; stroke: #669999"/>
    </g>
   </g>
   <g id="line2d_21">
    <g clip-path="url(#p07553cf7cc)">
     <use xlink:href="#m22ae5b1ed0" x="86.597563" y="578.657743" style="fill: #669999; stroke: #669999"/>
     <use xlink:href="#m22ae5b1ed0" x="127.158538" y="504.269567" style="fill: #669999; stroke: #669999"/>
     <use xlink:href="#m22ae5b1ed0" x="167.719514" y="457.829381" style="fill: #669999; stroke: #669999"/>
     <use xlink:href="#m22ae5b1ed0" x="208.280489" y="427.221212" style="fill: #669999; stroke: #669999"/>
     <use xlink:href="#m22ae5b1ed0" x="248.841465" y="399.337828" style="fill: #669999; stroke: #669999"/>
     <use xlink:href="#m22ae5b1ed0" x="289.40244" y="376.70996" style="fill: #669999; stroke: #669999"/>
     <use xlink:href="#m22ae5b1ed0" x="329.963416" y="357.52952" style="fill: #669999; stroke: #669999"/>
     <use xlink:href="#m22ae5b1ed0" x="492.207318" y="291.903694" style="fill: #669999; stroke: #669999"/>
     <use xlink:href="#m22ae5b1ed0" x="654.45122" y="230.478197" style="fill: #669999; stroke: #669999"/>
     <use xlink:href="#m22ae5b1ed0" x="816.695122" y="169.583046" style="fill: #669999; stroke: #669999"/>
    </g>
   </g>
   <g id="line2d_22">
    <path d="M 86.597563 547.946296 
L 127.158538 465.202564 
L 167.719514 408.553852 
L 208.280489 362.904939 
L 248.841465 328.305504 
L 289.40244 296.830541 
L 329.963416 269.346242 
L 492.207318 184.530588 
L 654.45122 117.933868 
L 816.695122 62.158719 
" clip-path="url(#p07553cf7cc)" style="fill: none; stroke: #ff6600; stroke-width: 1.5; stroke-linecap: square"/>
   </g>
   <g id="line2d_23">
    <path d="M 86.597563 543.5803 
L 127.158538 458.302364 
L 167.719514 401.411579 
L 208.280489 356.135376 
L 248.841465 318.804756 
L 289.40244 285.756098 
L 329.963416 259.997293 
L 492.207318 175.90252 
L 654.45122 111.746557 
L 816.695122 55.261982 
" clip-path="url(#p07553cf7cc)" style="fill: none; stroke: #339900; stroke-width: 1.5; stroke-linecap: square"/>
   </g>
   <g id="line2d_24">
    <path d="M 86.597563 579.231427 
L 127.158538 505.817975 
L 167.719514 460.310241 
L 208.280489 428.336645 
L 248.841465 400.26557 
L 289.40244 376.766402 
L 329.963416 358.081005 
L 492.207318 293.596225 
L 654.45122 233.585528 
L 816.695122 175.526352 
" clip-path="url(#p07553cf7cc)" style="fill: none; stroke: #669999; stroke-width: 1.5; stroke-linecap: square"/>
   </g>
   <g id="patch_3">
    <path d="M 50.092685 606.04 
L 50.092685 26.88 
" style="fill: none; stroke: #000000; stroke-width: 0.8; stroke-linejoin: miter; stroke-linecap: square"/>
   </g>
   <g id="patch_4">
    <path d="M 853.2 606.04 
L 853.2 26.88 
" style="fill: none; stroke: #000000; stroke-width: 0.8; stroke-linejoin: miter; stroke-linecap: square"/>
   </g>
   <g id="patch_5">
    <path d="M 50.092685 606.04 
L 853.2 606.04 
" style="fill: none; stroke: #000000; stroke-width: 0.8; stroke-linejoin: miter; stroke-linecap: square"/>
   </g>
   <g id="patch_6">
    <path d="M 50.092685 26.88 
L 853.2 26.88 
" style="fill: none; stroke: #000000; stroke-width: 0.8; stroke-linejoin: miter; stroke-linecap: square"/>
   </g>
   <g id="text_10">
    <!-- C++ implementations of Bron-Kerbosch on a random graph of order 1M -->
    <g transform="translate(235.532905 20.88)scale(0.12 -0.12)">
     <defs>
      <path id="DejaVuSans-43" d="M 4122 4306 
L 4122 3641 
Q 3803 3938 3442 4084 
Q 3081 4231 2675 4231 
Q 1875 4231 1450 3742 
Q 1025 3253 1025 2328 
Q 1025 1406 1450 917 
Q 1875 428 2675 428 
Q 3081 428 3442 575 
Q 3803 722 4122 1019 
L 4122 359 
Q 3791 134 3420 21 
Q 3050 -91 2638 -91 
Q 1578 -91 968 557 
Q 359 1206 359 2328 
Q 359 3453 968 4101 
Q 1578 4750 2638 4750 
Q 3056 4750 3426 4639 
Q 3797 4528 4122 4306 
z
" transform="scale(0.015625)"/>
      <path id="DejaVuSans-2b" d="M 2944 4013 
L 2944 2272 
L 4684 2272 
L 4684 1741 
L 2944 1741 
L 2944 0 
L 2419 0 
L 2419 1741 
L 678 1741 
L 678 2272 
L 2419 2272 
L 2419 4013 
L 2944 4013 
z
" transform="scale(0.015625)"/>
      <path id="DejaVuSans-6d" d="M 3328 2828 
Q 3544 3216 3844 3400 
Q 4144 3584 4550 3584 
Q 5097 3584 5394 3201 
Q 5691 2819 5691 2113 
L 5691 0 
L 5113 0 
L 5113 2094 
Q 5113 2597 4934 2840 
Q 4756 3084 4391 3084 
Q 3944 3084 3684 2787 
Q 3425 2491 3425 1978 
L 3425 0 
L 2847 0 
L 2847 2094 
Q 2847 2600 2669 2842 
Q 2491 3084 2119 3084 
Q 1678 3084 1418 2786 
Q 1159 2488 1159 1978 
L 1159 0 
L 581 0 
L 581 3500 
L 1159 3500 
L 1159 2956 
Q 1356 3278 1631 3431 
Q 1906 3584 2284 3584 
Q 2666 3584 2933 3390 
Q 3200 3197 3328 2828 
z
" transform="scale(0.015625)"/>
      <path id="DejaVuSans-6c" d="M 603 4863 
L 1178 4863 
L 1178 0 
L 603 0 
L 603 4863 
z
" transform="scale(0.015625)"/>
      <path id="DejaVuSans-61" d="M 2194 1759 
Q 1497 1759 1228 1600 
Q 959 1441 959 1056 
Q 959 750 1161 570 
Q 1363 391 1709 391 
Q 2188 391 2477 730 
Q 2766 1069 2766 1631 
L 2766 1759 
L 2194 1759 
z
M 3341 1997 
L 3341 0 
L 2766 0 
L 2766 531 
Q 2569 213 2275 61 
Q 1981 -91 1556 -91 
Q 1019 -91 701 211 
Q 384 513 384 1019 
Q 384 1609 779 1909 
Q 1175 2209 1959 2209 
L 2766 2209 
L 2766 2266 
Q 2766 2663 2505 2880 
Q 2244 3097 1772 3097 
Q 1472 3097 1187 3025 
Q 903 2953 641 2809 
L 641 3341 
Q 956 3463 1253 3523 
Q 1550 3584 1831 3584 
Q 2591 3584 2966 3190 
Q 3341 2797 3341 1997 
z
" transform="scale(0.015625)"/>
      <path id="DejaVuSans-66" d="M 2375 4863 
L 2375 4384 
L 1825 4384 
Q 1516 4384 1395 4259 
Q 1275 4134 1275 3809 
L 1275 3500 
L 2222 3500 
L 2222 3053 
L 1275 3053 
L 1275 0 
L 697 0 
L 697 3053 
L 147 3053 
L 147 3500 
L 697 3500 
L 697 3744 
Q 697 4328 969 4595 
Q 1241 4863 1831 4863 
L 2375 4863 
z
" transform="scale(0.015625)"/>
      <path id="DejaVuSans-42" d="M 1259 2228 
L 1259 519 
L 2272 519 
Q 2781 519 3026 730 
Q 3272 941 3272 1375 
Q 3272 1813 3026 2020 
Q 2781 2228 2272 2228 
L 1259 2228 
z
M 1259 4147 
L 1259 2741 
L 2194 2741 
Q 2656 2741 2882 2914 
Q 3109 3088 3109 3444 
Q 3109 3797 2882 3972 
Q 2656 4147 2194 4147 
L 1259 4147 
z
M 628 4666 
L 2241 4666 
Q 2963 4666 3353 4366 
Q 3744 4066 3744 3513 
Q 3744 3084 3544 2831 
Q 3344 2578 2956 2516 
Q 3422 2416 3680 2098 
Q 3938 1781 3938 1306 
Q 3938 681 3513 340 
Q 3088 0 2303 0 
L 628 0 
L 628 4666 
z
" transform="scale(0.015625)"/>
      <path id="DejaVuSans-72" d="M 2631 2963 
Q 2534 3019 2420 3045 
Q 2306 3072 2169 3072 
Q 1681 3072 1420 2755 
Q 1159 2438 1159 1844 
L 1159 0 
L 581 0 
L 581 3500 
L 1159 3500 
L 1159 2956 
Q 1341 3275 1631 3429 
Q 1922 3584 2338 3584 
Q 2397 3584 2469 3576 
Q 2541 3569 2628 3553 
L 2631 2963 
z
" transform="scale(0.015625)"/>
      <path id="DejaVuSans-2d" d="M 313 2009 
L 1997 2009 
L 1997 1497 
L 313 1497 
L 313 2009 
z
" transform="scale(0.015625)"/>
      <path id="DejaVuSans-4b" d="M 628 4666 
L 1259 4666 
L 1259 2694 
L 3353 4666 
L 4166 4666 
L 1850 2491 
L 4331 0 
L 3500 0 
L 1259 2247 
L 1259 0 
L 628 0 
L 628 4666 
z
" transform="scale(0.015625)"/>
      <path id="DejaVuSans-62" d="M 3116 1747 
Q 3116 2381 2855 2742 
Q 2594 3103 2138 3103 
Q 1681 3103 1420 2742 
Q 1159 2381 1159 1747 
Q 1159 1113 1420 752 
Q 1681 391 2138 391 
Q 2594 391 2855 752 
Q 3116 1113 3116 1747 
z
M 1159 2969 
Q 1341 3281 1617 3432 
Q 1894 3584 2278 3584 
Q 2916 3584 3314 3078 
Q 3713 2572 3713 1747 
Q 3713 922 3314 415 
Q 2916 -91 2278 -91 
Q 1894 -91 1617 61 
Q 1341 213 1159 525 
L 1159 0 
L 581 0 
L 581 4863 
L 1159 4863 
L 1159 2969 
z
" transform="scale(0.015625)"/>
      <path id="DejaVuSans-68" d="M 3513 2113 
L 3513 0 
L 2938 0 
L 2938 2094 
Q 2938 2591 2744 2837 
Q 2550 3084 2163 3084 
Q 1697 3084 1428 2787 
Q 1159 2491 1159 1978 
L 1159 0 
L 581 0 
L 581 4863 
L 1159 4863 
L 1159 2956 
Q 1366 3272 1645 3428 
Q 1925 3584 2291 3584 
Q 2894 3584 3203 3211 
Q 3513 2838 3513 2113 
z
" transform="scale(0.015625)"/>
      <path id="DejaVuSans-4d" d="M 628 4666 
L 1569 4666 
L 2759 1491 
L 3956 4666 
L 4897 4666 
L 4897 0 
L 4281 0 
L 4281 4097 
L 3078 897 
L 2444 897 
L 1241 4097 
L 1241 0 
L 628 0 
L 628 4666 
z
" transform="scale(0.015625)"/>
     </defs>
     <use xlink:href="#DejaVuSans-43"/>
     <use xlink:href="#DejaVuSans-2b" x="69.824219"/>
     <use xlink:href="#DejaVuSans-2b" x="153.613281"/>
     <use xlink:href="#DejaVuSans-20" x="237.402344"/>
     <use xlink:href="#DejaVuSans-69" x="269.189453"/>
     <use xlink:href="#DejaVuSans-6d" x="296.972656"/>
     <use xlink:href="#DejaVuSans-70" x="394.384766"/>
     <use xlink:href="#DejaVuSans-6c" x="457.861328"/>
     <use xlink:href="#DejaVuSans-65" x="485.644531"/>
     <use xlink:href="#DejaVuSans-6d" x="547.167969"/>
     <use xlink:href="#DejaVuSans-65" x="644.580078"/>
     <use xlink:href="#DejaVuSans-6e" x="706.103516"/>
     <use xlink:href="#DejaVuSans-74" x="769.482422"/>
     <use xlink:href="#DejaVuSans-61" x="808.691406"/>
     <use xlink:href="#DejaVuSans-74" x="869.970703"/>
     <use xlink:href="#DejaVuSans-69" x="909.179688"/>
     <use xlink:href="#DejaVuSans-6f" x="936.962891"/>
     <use xlink:href="#DejaVuSans-6e" x="998.144531"/>
     <use xlink:href="#DejaVuSans-73" x="1061.523438"/>
     <use xlink:href="#DejaVuSans-20" x="1113.623047"/>
     <use xlink:href="#DejaVuSans-6f" x="1145.410156"/>
     <use xlink:href="#DejaVuSans-66" x="1206.591797"/>
     <use xlink:href="#DejaVuSans-20" x="1241.796875"/>
     <use xlink:href="#DejaVuSans-42" x="1273.583984"/>
     <use xlink:href="#DejaVuSans-72" x="1342.1875"/>
     <use xlink:href="#DejaVuSans-6f" x="1381.050781"/>
     <use xlink:href="#DejaVuSans-6e" x="1442.232422"/>
     <use xlink:href="#DejaVuSans-2d" x="1505.611328"/>
     <use xlink:href="#DejaVuSans-4b" x="1541.695312"/>
     <use xlink:href="#DejaVuSans-65" x="1602.271484"/>
     <use xlink:href="#DejaVuSans-72" x="1663.794922"/>
     <use xlink:href="#DejaVuSans-62" x="1704.908203"/>
     <use xlink:href="#DejaVuSans-6f" x="1768.384766"/>
     <use xlink:href="#DejaVuSans-73" x="1829.566406"/>
     <use xlink:href="#DejaVuSans-63" x="1881.666016"/>
     <use xlink:href="#DejaVuSans-68" x="1936.646484"/>
     <use xlink:href="#DejaVuSans-20" x="2000.025391"/>
     <use xlink:href="#DejaVuSans-6f" x="2031.8125"/>
     <use xlink:href="#DejaVuSans-6e" x="2092.994141"/>
     <use xlink:href="#DejaVuSans-20" x="2156.373047"/>
     <use xlink:href="#DejaVuSans-61" x="2188.160156"/>
     <use xlink:href="#DejaVuSans-20" x="2249.439453"/>
     <use xlink:href="#DejaVuSans-72" x="2281.226562"/>
     <use xlink:href="#DejaVuSans-61" x="2322.339844"/>
     <use xlink:href="#DejaVuSans-6e" x="2383.619141"/>
     <use xlink:href="#DejaVuSans-64" x="2446.998047"/>
     <use xlink:href="#DejaVuSans-6f" x="2510.474609"/>
     <use xlink:href="#DejaVuSans-6d" x="2571.65625"/>
     <use xlink:href="#DejaVuSans-20" x="2669.068359"/>
     <use xlink:href="#DejaVuSans-67" x="2700.855469"/>
     <use xlink:href="#DejaVuSans-72" x="2764.332031"/>
     <use xlink:href="#DejaVuSans-61" x="2805.445312"/>
     <use xlink:href="#DejaVuSans-70" x="2866.724609"/>
     <use xlink:href="#DejaVuSans-68" x="2930.201172"/>
     <use xlink:href="#DejaVuSans-20" x="2993.580078"/>
     <use xlink:href="#DejaVuSans-6f" x="3025.367188"/>
     <use xlink:href="#DejaVuSans-66" x="3086.548828"/>
     <use xlink:href="#DejaVuSans-20" x="3121.753906"/>
     <use xlink:href="#DejaVuSans-6f" x="3153.541016"/>
     <use xlink:href="#DejaVuSans-72" x="3214.722656"/>
     <use xlink:href="#DejaVuSans-64" x="3254.085938"/>
     <use xlink:href="#DejaVuSans-65" x="3317.5625"/>
     <use xlink:href="#DejaVuSans-72" x="3379.085938"/>
     <use xlink:href="#DejaVuSans-20" x="3420.199219"/>
     <use xlink:href="#DejaVuSans-31" x="3451.986328"/>
     <use xlink:href="#DejaVuSans-4d" x="3515.609375"/>
    </g>
   </g>
   <g id="legend_1">
    <g id="patch_7">
     <path d="M 57.092685 78.914375 
L 149.13331 78.914375 
Q 151.13331 78.914375 151.13331 76.914375 
L 151.13331 33.88 
Q 151.13331 31.88 149.13331 31.88 
L 57.092685 31.88 
Q 55.092685 31.88 55.092685 33.88 
L 55.092685 76.914375 
Q 55.092685 78.914375 57.092685 78.914375 
z
" style="fill: #ffffff; opacity: 0.8; stroke: #cccccc; stroke-linejoin: miter"/>
    </g>
    <g id="LineCollection_4">
     <path d="M 69.092685 44.978437 
L 69.092685 34.978437 
" style="fill: none; stroke: #ff6600; stroke-width: 1.5"/>
    </g>
    <g id="line2d_25">
     <g>
      <use xlink:href="#m643b099e1e" x="69.092685" y="44.978437" style="fill: #ff6600; stroke: #ff6600"/>
     </g>
    </g>
    <g id="line2d_26">
     <g>
      <use xlink:href="#m643b099e1e" x="69.092685" y="34.978437" style="fill: #ff6600; stroke: #ff6600"/>
     </g>
    </g>
    <g id="line2d_27">
     <path d="M 59.092685 39.978437 
L 79.092685 39.978437 
" style="fill: none; stroke: #ff6600; stroke-width: 1.5; stroke-linecap: square"/>
    </g>
    <g id="line2d_28"/>
    <g id="text_11">
     <!-- Ver2½-GP -->
     <g transform="translate(87.092685 43.478437)scale(0.1 -0.1)">
      <defs>
       <path id="DejaVuSans-56" d="M 1831 0 
L 50 4666 
L 709 4666 
L 2188 738 
L 3669 4666 
L 4325 4666 
L 2547 0 
L 1831 0 
z
" transform="scale(0.015625)"/>
       <path id="DejaVuSans-bd" d="M 488 2431 
L 1125 2431 
L 1125 4341 
L 428 4213 
L 428 4575 
L 1147 4697 
L 1575 4697 
L 1575 2431 
L 2216 2431 
L 2216 2088 
L 488 2088 
L 488 2431 
z
M 4470 332 
L 5795 332 
L 5795 -24 
L 3926 -24 
L 3926 319 
Q 4032 416 4229 591 
Q 5304 1544 5304 1838 
Q 5304 2044 5141 2170 
Q 4979 2297 4713 2297 
Q 4551 2297 4360 2242 
Q 4170 2188 3945 2079 
L 3945 2463 
Q 4185 2551 4393 2594 
Q 4601 2638 4779 2638 
Q 5232 2638 5504 2432 
Q 5776 2226 5776 1888 
Q 5776 1454 4741 566 
Q 4566 416 4470 332 
z
M 4309 4750 
L 4809 4750 
L 1896 -91 
L 1396 -91 
L 4309 4750 
z
" transform="scale(0.015625)"/>
       <path id="DejaVuSans-47" d="M 3809 666 
L 3809 1919 
L 2778 1919 
L 2778 2438 
L 4434 2438 
L 4434 434 
Q 4069 175 3628 42 
Q 3188 -91 2688 -91 
Q 1594 -91 976 548 
Q 359 1188 359 2328 
Q 359 3472 976 4111 
Q 1594 4750 2688 4750 
Q 3144 4750 3555 4637 
Q 3966 4525 4313 4306 
L 4313 3634 
Q 3963 3931 3569 4081 
Q 3175 4231 2741 4231 
Q 1884 4231 1454 3753 
Q 1025 3275 1025 2328 
Q 1025 1384 1454 906 
Q 1884 428 2741 428 
Q 3075 428 3337 486 
Q 3600 544 3809 666 
z
" transform="scale(0.015625)"/>
       <path id="DejaVuSans-50" d="M 1259 4147 
L 1259 2394 
L 2053 2394 
Q 2494 2394 2734 2622 
Q 2975 2850 2975 3272 
Q 2975 3691 2734 3919 
Q 2494 4147 2053 4147 
L 1259 4147 
z
M 628 4666 
L 2053 4666 
Q 2838 4666 3239 4311 
Q 3641 3956 3641 3272 
Q 3641 2581 3239 2228 
Q 2838 1875 2053 1875 
L 1259 1875 
L 1259 0 
L 628 0 
L 628 4666 
z
" transform="scale(0.015625)"/>
      </defs>
      <use xlink:href="#DejaVuSans-56"/>
      <use xlink:href="#DejaVuSans-65" x="60.658203"/>
      <use xlink:href="#DejaVuSans-72" x="122.181641"/>
      <use xlink:href="#DejaVuSans-32" x="163.294922"/>
      <use xlink:href="#DejaVuSans-bd" x="226.917969"/>
      <use xlink:href="#DejaVuSans-2d" x="323.841797"/>
      <use xlink:href="#DejaVuSans-47" x="363.550781"/>
      <use xlink:href="#DejaVuSans-50" x="441.041016"/>
     </g>
    </g>
    <g id="LineCollection_5">
     <path d="M 69.092685 59.656562 
L 69.092685 49.656562 
" style="fill: none; stroke: #339900; stroke-width: 1.5"/>
    </g>
    <g id="line2d_29">
     <g>
      <use xlink:href="#m7dbad405e1" x="69.092685" y="59.656562" style="fill: #339900; stroke: #339900"/>
     </g>
    </g>
    <g id="line2d_30">
     <g>
      <use xlink:href="#m7dbad405e1" x="69.092685" y="49.656562" style="fill: #339900; stroke: #339900"/>
     </g>
    </g>
    <g id="line2d_31">
     <path d="M 59.092685 54.656562 
L 79.092685 54.656562 
" style="fill: none; stroke: #339900; stroke-width: 1.5; stroke-linecap: square"/>
    </g>
    <g id="line2d_32"/>
    <g id="text_12">
     <!-- Ver3½-GP -->
     <g transform="translate(87.092685 58.156562)scale(0.1 -0.1)">
      <use xlink:href="#DejaVuSans-56"/>
      <use xlink:href="#DejaVuSans-65" x="60.658203"/>
      <use xlink:href="#DejaVuSans-72" x="122.181641"/>
      <use xlink:href="#DejaVuSans-33" x="163.294922"/>
      <use xlink:href="#DejaVuSans-bd" x="226.917969"/>
      <use xlink:href="#DejaVuSans-2d" x="323.841797"/>
      <use xlink:href="#DejaVuSans-47" x="363.550781"/>
      <use xlink:href="#DejaVuSans-50" x="441.041016"/>
     </g>
    </g>
    <g id="LineCollection_6">
     <path d="M 69.092685 74.334687 
L 69.092685 64.334687 
" style="fill: none; stroke: #669999; stroke-width: 1.5"/>
    </g>
    <g id="line2d_33">
     <g>
      <use xlink:href="#m22ae5b1ed0" x="69.092685" y="74.334687" style="fill: #669999; stroke: #669999"/>
     </g>
    </g>
    <g id="line2d_34">
     <g>
      <use xlink:href="#m22ae5b1ed0" x="69.092685" y="64.334687" style="fill: #669999; stroke: #669999"/>
     </g>
    </g>
    <g id="line2d_35">
     <path d="M 59.092685 69.334687 
L 79.092685 69.334687 
" style="fill: none; stroke: #669999; stroke-width: 1.5; stroke-linecap: square"/>
    </g>
    <g id="line2d_36"/>
    <g id="text_13">
     <!-- Ver3½=GPc -->
     <g transform="translate(87.092685 72.834687)scale(0.1 -0.1)">
      <defs>
       <path id="DejaVuSans-3d" d="M 678 2906 
L 4684 2906 
L 4684 2381 
L 678 2381 
L 678 2906 
z
M 678 1631 
L 4684 1631 
L 4684 1100 
L 678 1100 
L 678 1631 
z
" transform="scale(0.015625)"/>
      </defs>
      <use xlink:href="#DejaVuSans-56"/>
      <use xlink:href="#DejaVuSans-65" x="60.658203"/>
      <use xlink:href="#DejaVuSans-72" x="122.181641"/>
      <use xlink:href="#DejaVuSans-33" x="163.294922"/>
      <use xlink:href="#DejaVuSans-bd" x="226.917969"/>
      <use xlink:href="#DejaVuSans-3d" x="323.841797"/>
      <use xlink:href="#DejaVuSans-47" x="407.630859"/>
      <use xlink:href="#DejaVuSans-50" x="485.121094"/>
      <use xlink:href="#DejaVuSans-63" x="545.423828"/>
     </g>
    </g>
   </g>
  </g>
 </g>
 <defs>
  <clipPath id="p07553cf7cc">
   <rect x="50.092685" y="26.88" width="803.107315" height="579.16"/>
  </clipPath>
 </defs>
</svg>
