<?xml version="1.0" encoding="utf-8" standalone="no"?>
<!DOCTYPE svg PUBLIC "-//W3C//DTD SVG 1.1//EN"
  "http://www.w3.org/Graphics/SVG/1.1/DTD/svg11.dtd">
<svg xmlns:xlink="http://www.w3.org/1999/xlink" width="576pt" height="432pt" viewBox="0 0 576 432" xmlns="http://www.w3.org/2000/svg" version="1.1">
 <metadata>
  <rdf:RDF xmlns:dc="http://purl.org/dc/elements/1.1/" xmlns:cc="http://creativecommons.org/ns#" xmlns:rdf="http://www.w3.org/1999/02/22-rdf-syntax-ns#">
   <cc:Work>
    <dc:type rdf:resource="http://purl.org/dc/dcmitype/StillImage"/>
    <dc:date>2026-02-19T23:35:57.936644</dc:date>
    <dc:format>image/svg+xml</dc:format>
    <dc:creator>
     <cc:Agent>
      <dc:title>Matplotlib v3.10.8, https://matplotlib.org/</dc:title>
     </cc:Agent>
    </dc:creator>
   </cc:Work>
  </rdf:RDF>
 </metadata>
 <defs>
  <style type="text/css">*{stroke-linejoin: round; stroke-linecap: butt}</style>
 </defs>
 <g id="figure_1">
  <g id="patch_1">
   <path d="M 0 432 
L 576 432 
L 576 0 
L 0 0 
z
" style="fill: #ffffff"/>
  </g>
  <g id="axes_1">
   <g id="patch_2">
    <path d="M 47.72 390.04 
L 565.2 390.04 
L 565.2 26.88 
L 47.72 26.88 
z
" style="fill: #ffffff"/>
   </g>
   <g id="matplotlib.axis_1">
    <g id="xtick_1">
     <g id="line2d_1">
      <defs>
       <path id="mc74f61fcfc" d="M 0 0 
L 0 3.5 
" style="stroke: #000000; stroke-width: 0.8"/>
      </defs>
      <g>
       <use xlink:href="#mc74f61fcfc" x="71.241818" y="390.04" style="stroke: #000000; stroke-width: 0.8"/>
      </g>
     </g>
     <g id="text_1">
      <!-- 2000 -->
      <g transform="translate(58.516818 404.638438) scale(0.1 -0.1)">
       <defs>
        <path id="DejaVuSans-32" d="M 1228 531 
L 3431 531 
L 3431 0 
L 469 0 
L 469 531 
Q 828 903 1448 1529 
Q 2069 2156 2228 2338 
Q 2531 2678 2651 2914 
Q 2772 3150 2772 3378 
Q 2772 3750 2511 3984 
Q 2250 4219 1831 4219 
Q 1534 4219 1204 4116 
Q 875 4013 500 3803 
L 500 4441 
Q 881 4594 1212 4672 
Q 1544 4750 1819 4750 
Q 2544 4750 2975 4387 
Q 3406 4025 3406 3419 
Q 3406 3131 3298 2873 
Q 3191 2616 2906 2266 
Q 2828 2175 2409 1742 
Q 1991 1309 1228 531 
z
" transform="scale(0.015625)"/>
        <path id="DejaVuSans-30" d="M 2034 4250 
Q 1547 4250 1301 3770 
Q 1056 3291 1056 2328 
Q 1056 1369 1301 889 
Q 1547 409 2034 409 
Q 2525 409 2770 889 
Q 3016 1369 3016 2328 
Q 3016 3291 2770 3770 
Q 2525 4250 2034 4250 
z
M 2034 4750 
Q 2819 4750 3233 4129 
Q 3647 3509 3647 2328 
Q 3647 1150 3233 529 
Q 2819 -91 2034 -91 
Q 1250 -91 836 529 
Q 422 1150 422 2328 
Q 422 3509 836 4129 
Q 1250 4750 2034 4750 
z
" transform="scale(0.015625)"/>
       </defs>
       <use xlink:href="#DejaVuSans-32"/>
       <use xlink:href="#DejaVuSans-30" transform="translate(63.623047 0)"/>
       <use xlink:href="#DejaVuSans-30" transform="translate(127.246094 0)"/>
       <use xlink:href="#DejaVuSans-30" transform="translate(190.869141 0)"/>
      </g>
     </g>
    </g>
    <g id="xtick_2">
     <g id="line2d_2">
      <g>
       <use xlink:href="#mc74f61fcfc" x="165.329091" y="390.04" style="stroke: #000000; stroke-width: 0.8"/>
      </g>
     </g>
     <g id="text_2">
      <!-- 2200 -->
      <g transform="translate(152.604091 404.638438) scale(0.1 -0.1)">
       <use xlink:href="#DejaVuSans-32"/>
       <use xlink:href="#DejaVuSans-32" transform="translate(63.623047 0)"/>
       <use xlink:href="#DejaVuSans-30" transform="translate(127.246094 0)"/>
       <use xlink:href="#DejaVuSans-30" transform="translate(190.869141 0)"/>
      </g>
     </g>
    </g>
    <g id="xtick_3">
     <g id="line2d_3">
      <g>
       <use xlink:href="#mc74f61fcfc" x="259.416364" y="390.04" style="stroke: #000000; stroke-width: 0.8"/>
      </g>
     </g>
     <g id="text_3">
      <!-- 2400 -->
      <g transform="translate(246.691364 404.638438) scale(0.1 -0.1)">
       <defs>
        <path id="DejaVuSans-34" d="M 2419 4116 
L 825 1625 
L 2419 1625 
L 2419 4116 
z
M 2253 4666 
L 3047 4666 
L 3047 1625 
L 3713 1625 
L 3713 1100 
L 3047 1100 
L 3047 0 
L 2419 0 
L 2419 1100 
L 313 1100 
L 313 1709 
L 2253 4666 
z
" transform="scale(0.015625)"/>
       </defs>
       <use xlink:href="#DejaVuSans-32"/>
       <use xlink:href="#DejaVuSans-34" transform="translate(63.623047 0)"/>
       <use xlink:href="#DejaVuSans-30" transform="translate(127.246094 0)"/>
       <use xlink:href="#DejaVuSans-30" transform="translate(190.869141 0)"/>
      </g>
     </g>
    </g>
    <g id="xtick_4">
     <g id="line2d_4">
      <g>
       <use xlink:href="#mc74f61fcfc" x="353.503636" y="390.04" style="stroke: #000000; stroke-width: 0.8"/>
      </g>
     </g>
     <g id="text_4">
      <!-- 2600 -->
      <g transform="translate(340.778636 404.638438) scale(0.1 -0.1)">
       <defs>
        <path id="DejaVuSans-36" d="M 2113 2584 
Q 1688 2584 1439 2293 
Q 1191 2003 1191 1497 
Q 1191 994 1439 701 
Q 1688 409 2113 409 
Q 2538 409 2786 701 
Q 3034 994 3034 1497 
Q 3034 2003 2786 2293 
Q 2538 2584 2113 2584 
z
M 3366 4563 
L 3366 3988 
Q 3128 4100 2886 4159 
Q 2644 4219 2406 4219 
Q 1781 4219 1451 3797 
Q 1122 3375 1075 2522 
Q 1259 2794 1537 2939 
Q 1816 3084 2150 3084 
Q 2853 3084 3261 2657 
Q 3669 2231 3669 1497 
Q 3669 778 3244 343 
Q 2819 -91 2113 -91 
Q 1303 -91 875 529 
Q 447 1150 447 2328 
Q 447 3434 972 4092 
Q 1497 4750 2381 4750 
Q 2619 4750 2861 4703 
Q 3103 4656 3366 4563 
z
" transform="scale(0.015625)"/>
       </defs>
       <use xlink:href="#DejaVuSans-32"/>
       <use xlink:href="#DejaVuSans-36" transform="translate(63.623047 0)"/>
       <use xlink:href="#DejaVuSans-30" transform="translate(127.246094 0)"/>
       <use xlink:href="#DejaVuSans-30" transform="translate(190.869141 0)"/>
      </g>
     </g>
    </g>
    <g id="xtick_5">
     <g id="line2d_5">
      <g>
       <use xlink:href="#mc74f61fcfc" x="447.590909" y="390.04" style="stroke: #000000; stroke-width: 0.8"/>
      </g>
     </g>
     <g id="text_5">
      <!-- 2800 -->
      <g transform="translate(434.865909 404.638438) scale(0.1 -0.1)">
       <defs>
        <path id="DejaVuSans-38" d="M 2034 2216 
Q 1584 2216 1326 1975 
Q 1069 1734 1069 1313 
Q 1069 891 1326 650 
Q 1584 409 2034 409 
Q 2484 409 2743 651 
Q 3003 894 3003 1313 
Q 3003 1734 2745 1975 
Q 2488 2216 2034 2216 
z
M 1403 2484 
Q 997 2584 770 2862 
Q 544 3141 544 3541 
Q 544 4100 942 4425 
Q 1341 4750 2034 4750 
Q 2731 4750 3128 4425 
Q 3525 4100 3525 3541 
Q 3525 3141 3298 2862 
Q 3072 2584 2669 2484 
Q 3125 2378 3379 2068 
Q 3634 1759 3634 1313 
Q 3634 634 3220 271 
Q 2806 -91 2034 -91 
Q 1263 -91 848 271 
Q 434 634 434 1313 
Q 434 1759 690 2068 
Q 947 2378 1403 2484 
z
M 1172 3481 
Q 1172 3119 1398 2916 
Q 1625 2713 2034 2713 
Q 2441 2713 2670 2916 
Q 2900 3119 2900 3481 
Q 2900 3844 2670 4047 
Q 2441 4250 2034 4250 
Q 1625 4250 1398 4047 
Q 1172 3844 1172 3481 
z
" transform="scale(0.015625)"/>
       </defs>
       <use xlink:href="#DejaVuSans-32"/>
       <use xlink:href="#DejaVuSans-38" transform="translate(63.623047 0)"/>
       <use xlink:href="#DejaVuSans-30" transform="translate(127.246094 0)"/>
       <use xlink:href="#DejaVuSans-30" transform="translate(190.869141 0)"/>
      </g>
     </g>
    </g>
    <g id="xtick_6">
     <g id="line2d_6">
      <g>
       <use xlink:href="#mc74f61fcfc" x="541.678182" y="390.04" style="stroke: #000000; stroke-width: 0.8"/>
      </g>
     </g>
     <g id="text_6">
      <!-- 3000 -->
      <g transform="translate(528.953182 404.638438) scale(0.1 -0.1)">
       <defs>
        <path id="DejaVuSans-33" d="M 2597 2516 
Q 3050 2419 3304 2112 
Q 3559 1806 3559 1356 
Q 3559 666 3084 287 
Q 2609 -91 1734 -91 
Q 1441 -91 1130 -33 
Q 819 25 488 141 
L 488 750 
Q 750 597 1062 519 
Q 1375 441 1716 441 
Q 2309 441 2620 675 
Q 2931 909 2931 1356 
Q 2931 1769 2642 2001 
Q 2353 2234 1838 2234 
L 1294 2234 
L 1294 2753 
L 1863 2753 
Q 2328 2753 2575 2939 
Q 2822 3125 2822 3475 
Q 2822 3834 2567 4026 
Q 2313 4219 1838 4219 
Q 1578 4219 1281 4162 
Q 984 4106 628 3988 
L 628 4550 
Q 988 4650 1302 4700 
Q 1616 4750 1894 4750 
Q 2613 4750 3031 4423 
Q 3450 4097 3450 3541 
Q 3450 3153 3228 2886 
Q 3006 2619 2597 2516 
z
" transform="scale(0.015625)"/>
       </defs>
       <use xlink:href="#DejaVuSans-33"/>
       <use xlink:href="#DejaVuSans-30" transform="translate(63.623047 0)"/>
       <use xlink:href="#DejaVuSans-30" transform="translate(127.246094 0)"/>
       <use xlink:href="#DejaVuSans-30" transform="translate(190.869141 0)"/>
      </g>
     </g>
    </g>
    <g id="text_7">
     <!-- Size (#edges) -->
     <g transform="translate(271.409219 418.316562) scale(0.1 -0.1)">
      <defs>
       <path id="DejaVuSans-53" d="M 3425 4513 
L 3425 3897 
Q 3066 4069 2747 4153 
Q 2428 4238 2131 4238 
Q 1616 4238 1336 4038 
Q 1056 3838 1056 3469 
Q 1056 3159 1242 3001 
Q 1428 2844 1947 2747 
L 2328 2669 
Q 3034 2534 3370 2195 
Q 3706 1856 3706 1288 
Q 3706 609 3251 259 
Q 2797 -91 1919 -91 
Q 1588 -91 1214 -16 
Q 841 59 441 206 
L 441 856 
Q 825 641 1194 531 
Q 1563 422 1919 422 
Q 2459 422 2753 634 
Q 3047 847 3047 1241 
Q 3047 1584 2836 1778 
Q 2625 1972 2144 2069 
L 1759 2144 
Q 1053 2284 737 2584 
Q 422 2884 422 3419 
Q 422 4038 858 4394 
Q 1294 4750 2059 4750 
Q 2388 4750 2728 4690 
Q 3069 4631 3425 4513 
z
" transform="scale(0.015625)"/>
       <path id="DejaVuSans-69" d="M 603 3500 
L 1178 3500 
L 1178 0 
L 603 0 
L 603 3500 
z
M 603 4863 
L 1178 4863 
L 1178 4134 
L 603 4134 
L 603 4863 
z
" transform="scale(0.015625)"/>
       <path id="DejaVuSans-7a" d="M 353 3500 
L 3084 3500 
L 3084 2975 
L 922 459 
L 3084 459 
L 3084 0 
L 275 0 
L 275 525 
L 2438 3041 
L 353 3041 
L 353 3500 
z
" transform="scale(0.015625)"/>
       <path id="DejaVuSans-65" d="M 3597 1894 
L 3597 1613 
L 953 1613 
Q 991 1019 1311 708 
Q 1631 397 2203 397 
Q 2534 397 2845 478 
Q 3156 559 3463 722 
L 3463 178 
Q 3153 47 2828 -22 
Q 2503 -91 2169 -91 
Q 1331 -91 842 396 
Q 353 884 353 1716 
Q 353 2575 817 3079 
Q 1281 3584 2069 3584 
Q 2775 3584 3186 3129 
Q 3597 2675 3597 1894 
z
M 3022 2063 
Q 3016 2534 2758 2815 
Q 2500 3097 2075 3097 
Q 1594 3097 1305 2825 
Q 1016 2553 972 2059 
L 3022 2063 
z
" transform="scale(0.015625)"/>
       <path id="DejaVuSans-20" transform="scale(0.015625)"/>
       <path id="DejaVuSans-28" d="M 1984 4856 
Q 1566 4138 1362 3434 
Q 1159 2731 1159 2009 
Q 1159 1288 1364 580 
Q 1569 -128 1984 -844 
L 1484 -844 
Q 1016 -109 783 600 
Q 550 1309 550 2009 
Q 550 2706 781 3412 
Q 1013 4119 1484 4856 
L 1984 4856 
z
" transform="scale(0.015625)"/>
       <path id="DejaVuSans-23" d="M 3272 2816 
L 2363 2816 
L 2100 1772 
L 3016 1772 
L 3272 2816 
z
M 2803 4594 
L 2478 3297 
L 3391 3297 
L 3719 4594 
L 4219 4594 
L 3897 3297 
L 4872 3297 
L 4872 2816 
L 3775 2816 
L 3519 1772 
L 4513 1772 
L 4513 1294 
L 3397 1294 
L 3072 0 
L 2572 0 
L 2894 1294 
L 1978 1294 
L 1656 0 
L 1153 0 
L 1478 1294 
L 494 1294 
L 494 1772 
L 1594 1772 
L 1856 2816 
L 850 2816 
L 850 3297 
L 1978 3297 
L 2297 4594 
L 2803 4594 
z
" transform="scale(0.015625)"/>
       <path id="DejaVuSans-64" d="M 2906 2969 
L 2906 4863 
L 3481 4863 
L 3481 0 
L 2906 0 
L 2906 525 
Q 2725 213 2448 61 
Q 2172 -91 1784 -91 
Q 1150 -91 751 415 
Q 353 922 353 1747 
Q 353 2572 751 3078 
Q 1150 3584 1784 3584 
Q 2172 3584 2448 3432 
Q 2725 3281 2906 2969 
z
M 947 1747 
Q 947 1113 1208 752 
Q 1469 391 1925 391 
Q 2381 391 2643 752 
Q 2906 1113 2906 1747 
Q 2906 2381 2643 2742 
Q 2381 3103 1925 3103 
Q 1469 3103 1208 2742 
Q 947 2381 947 1747 
z
" transform="scale(0.015625)"/>
       <path id="DejaVuSans-67" d="M 2906 1791 
Q 2906 2416 2648 2759 
Q 2391 3103 1925 3103 
Q 1463 3103 1205 2759 
Q 947 2416 947 1791 
Q 947 1169 1205 825 
Q 1463 481 1925 481 
Q 2391 481 2648 825 
Q 2906 1169 2906 1791 
z
M 3481 434 
Q 3481 -459 3084 -895 
Q 2688 -1331 1869 -1331 
Q 1566 -1331 1297 -1286 
Q 1028 -1241 775 -1147 
L 775 -588 
Q 1028 -725 1275 -790 
Q 1522 -856 1778 -856 
Q 2344 -856 2625 -561 
Q 2906 -266 2906 331 
L 2906 616 
Q 2728 306 2450 153 
Q 2172 0 1784 0 
Q 1141 0 747 490 
Q 353 981 353 1791 
Q 353 2603 747 3093 
Q 1141 3584 1784 3584 
Q 2172 3584 2450 3431 
Q 2728 3278 2906 2969 
L 2906 3500 
L 3481 3500 
L 3481 434 
z
" transform="scale(0.015625)"/>
       <path id="DejaVuSans-73" d="M 2834 3397 
L 2834 2853 
Q 2591 2978 2328 3040 
Q 2066 3103 1784 3103 
Q 1356 3103 1142 2972 
Q 928 2841 928 2578 
Q 928 2378 1081 2264 
Q 1234 2150 1697 2047 
L 1894 2003 
Q 2506 1872 2764 1633 
Q 3022 1394 3022 966 
Q 3022 478 2636 193 
Q 2250 -91 1575 -91 
Q 1294 -91 989 -36 
Q 684 19 347 128 
L 347 722 
Q 666 556 975 473 
Q 1284 391 1588 391 
Q 1994 391 2212 530 
Q 2431 669 2431 922 
Q 2431 1156 2273 1281 
Q 2116 1406 1581 1522 
L 1381 1569 
Q 847 1681 609 1914 
Q 372 2147 372 2553 
Q 372 3047 722 3315 
Q 1072 3584 1716 3584 
Q 2034 3584 2315 3537 
Q 2597 3491 2834 3397 
z
" transform="scale(0.015625)"/>
       <path id="DejaVuSans-29" d="M 513 4856 
L 1013 4856 
Q 1481 4119 1714 3412 
Q 1947 2706 1947 2009 
Q 1947 1309 1714 600 
Q 1481 -109 1013 -844 
L 513 -844 
Q 928 -128 1133 580 
Q 1338 1288 1338 2009 
Q 1338 2731 1133 3434 
Q 928 4138 513 4856 
z
" transform="scale(0.015625)"/>
      </defs>
      <use xlink:href="#DejaVuSans-53"/>
      <use xlink:href="#DejaVuSans-69" transform="translate(63.476562 0)"/>
      <use xlink:href="#DejaVuSans-7a" transform="translate(91.259766 0)"/>
      <use xlink:href="#DejaVuSans-65" transform="translate(143.75 0)"/>
      <use xlink:href="#DejaVuSans-20" transform="translate(205.273438 0)"/>
      <use xlink:href="#DejaVuSans-28" transform="translate(237.060547 0)"/>
      <use xlink:href="#DejaVuSans-23" transform="translate(276.074219 0)"/>
      <use xlink:href="#DejaVuSans-65" transform="translate(359.863281 0)"/>
      <use xlink:href="#DejaVuSans-64" transform="translate(421.386719 0)"/>
      <use xlink:href="#DejaVuSans-67" transform="translate(484.863281 0)"/>
      <use xlink:href="#DejaVuSans-65" transform="translate(548.339844 0)"/>
      <use xlink:href="#DejaVuSans-73" transform="translate(609.863281 0)"/>
      <use xlink:href="#DejaVuSans-29" transform="translate(661.962891 0)"/>
     </g>
    </g>
   </g>
   <g id="matplotlib.axis_2">
    <g id="ytick_1">
     <g id="line2d_7">
      <defs>
       <path id="m7eb1c47a8f" d="M 0 0 
L -3.5 0 
" style="stroke: #000000; stroke-width: 0.8"/>
      </defs>
      <g>
       <use xlink:href="#m7eb1c47a8f" x="47.72" y="377.154208" style="stroke: #000000; stroke-width: 0.8"/>
      </g>
     </g>
     <g id="text_8">
      <!-- 0.0 -->
      <g transform="translate(24.816875 380.953427) scale(0.1 -0.1)">
       <defs>
        <path id="DejaVuSans-2e" d="M 684 794 
L 1344 794 
L 1344 0 
L 684 0 
L 684 794 
z
" transform="scale(0.015625)"/>
       </defs>
       <use xlink:href="#DejaVuSans-30"/>
       <use xlink:href="#DejaVuSans-2e" transform="translate(63.623047 0)"/>
       <use xlink:href="#DejaVuSans-30" transform="translate(95.410156 0)"/>
      </g>
     </g>
    </g>
    <g id="ytick_2">
     <g id="line2d_8">
      <g>
       <use xlink:href="#m7eb1c47a8f" x="47.72" y="324.384482" style="stroke: #000000; stroke-width: 0.8"/>
      </g>
     </g>
     <g id="text_9">
      <!-- 0.1 -->
      <g transform="translate(24.816875 328.183701) scale(0.1 -0.1)">
       <defs>
        <path id="DejaVuSans-31" d="M 794 531 
L 1825 531 
L 1825 4091 
L 703 3866 
L 703 4441 
L 1819 4666 
L 2450 4666 
L 2450 531 
L 3481 531 
L 3481 0 
L 794 0 
L 794 531 
z
" transform="scale(0.015625)"/>
       </defs>
       <use xlink:href="#DejaVuSans-30"/>
       <use xlink:href="#DejaVuSans-2e" transform="translate(63.623047 0)"/>
       <use xlink:href="#DejaVuSans-31" transform="translate(95.410156 0)"/>
      </g>
     </g>
    </g>
    <g id="ytick_3">
     <g id="line2d_9">
      <g>
       <use xlink:href="#m7eb1c47a8f" x="47.72" y="271.614756" style="stroke: #000000; stroke-width: 0.8"/>
      </g>
     </g>
     <g id="text_10">
      <!-- 0.2 -->
      <g transform="translate(24.816875 275.413974) scale(0.1 -0.1)">
       <use xlink:href="#DejaVuSans-30"/>
       <use xlink:href="#DejaVuSans-2e" transform="translate(63.623047 0)"/>
       <use xlink:href="#DejaVuSans-32" transform="translate(95.410156 0)"/>
      </g>
     </g>
    </g>
    <g id="ytick_4">
     <g id="line2d_10">
      <g>
       <use xlink:href="#m7eb1c47a8f" x="47.72" y="218.845029" style="stroke: #000000; stroke-width: 0.8"/>
      </g>
     </g>
     <g id="text_11">
      <!-- 0.3 -->
      <g transform="translate(24.816875 222.644248) scale(0.1 -0.1)">
       <use xlink:href="#DejaVuSans-30"/>
       <use xlink:href="#DejaVuSans-2e" transform="translate(63.623047 0)"/>
       <use xlink:href="#DejaVuSans-33" transform="translate(95.410156 0)"/>
      </g>
     </g>
    </g>
    <g id="ytick_5">
     <g id="line2d_11">
      <g>
       <use xlink:href="#m7eb1c47a8f" x="47.72" y="166.075303" style="stroke: #000000; stroke-width: 0.8"/>
      </g>
     </g>
     <g id="text_12">
      <!-- 0.4 -->
      <g transform="translate(24.816875 169.874522) scale(0.1 -0.1)">
       <use xlink:href="#DejaVuSans-30"/>
       <use xlink:href="#DejaVuSans-2e" transform="translate(63.623047 0)"/>
       <use xlink:href="#DejaVuSans-34" transform="translate(95.410156 0)"/>
      </g>
     </g>
    </g>
    <g id="ytick_6">
     <g id="line2d_12">
      <g>
       <use xlink:href="#m7eb1c47a8f" x="47.72" y="113.305577" style="stroke: #000000; stroke-width: 0.8"/>
      </g>
     </g>
     <g id="text_13">
      <!-- 0.5 -->
      <g transform="translate(24.816875 117.104796) scale(0.1 -0.1)">
       <defs>
        <path id="DejaVuSans-35" d="M 691 4666 
L 3169 4666 
L 3169 4134 
L 1269 4134 
L 1269 2991 
Q 1406 3038 1543 3061 
Q 1681 3084 1819 3084 
Q 2600 3084 3056 2656 
Q 3513 2228 3513 1497 
Q 3513 744 3044 326 
Q 2575 -91 1722 -91 
Q 1428 -91 1123 -41 
Q 819 9 494 109 
L 494 744 
Q 775 591 1075 516 
Q 1375 441 1709 441 
Q 2250 441 2565 725 
Q 2881 1009 2881 1497 
Q 2881 1984 2565 2268 
Q 2250 2553 1709 2553 
Q 1456 2553 1204 2497 
Q 953 2441 691 2322 
L 691 4666 
z
" transform="scale(0.015625)"/>
       </defs>
       <use xlink:href="#DejaVuSans-30"/>
       <use xlink:href="#DejaVuSans-2e" transform="translate(63.623047 0)"/>
       <use xlink:href="#DejaVuSans-35" transform="translate(95.410156 0)"/>
      </g>
     </g>
    </g>
    <g id="ytick_7">
     <g id="line2d_13">
      <g>
       <use xlink:href="#m7eb1c47a8f" x="47.72" y="60.535851" style="stroke: #000000; stroke-width: 0.8"/>
      </g>
     </g>
     <g id="text_14">
      <!-- 0.6 -->
      <g transform="translate(24.816875 64.335069) scale(0.1 -0.1)">
       <use xlink:href="#DejaVuSans-30"/>
       <use xlink:href="#DejaVuSans-2e" transform="translate(63.623047 0)"/>
       <use xlink:href="#DejaVuSans-36" transform="translate(95.410156 0)"/>
      </g>
     </g>
    </g>
    <g id="text_15">
     <!-- Seconds spent -->
     <g transform="translate(18.737187 245.040469) rotate(-90) scale(0.1 -0.1)">
      <defs>
       <path id="DejaVuSans-63" d="M 3122 3366 
L 3122 2828 
Q 2878 2963 2633 3030 
Q 2388 3097 2138 3097 
Q 1578 3097 1268 2742 
Q 959 2388 959 1747 
Q 959 1106 1268 751 
Q 1578 397 2138 397 
Q 2388 397 2633 464 
Q 2878 531 3122 666 
L 3122 134 
Q 2881 22 2623 -34 
Q 2366 -91 2075 -91 
Q 1284 -91 818 406 
Q 353 903 353 1747 
Q 353 2603 823 3093 
Q 1294 3584 2113 3584 
Q 2378 3584 2631 3529 
Q 2884 3475 3122 3366 
z
" transform="scale(0.015625)"/>
       <path id="DejaVuSans-6f" d="M 1959 3097 
Q 1497 3097 1228 2736 
Q 959 2375 959 1747 
Q 959 1119 1226 758 
Q 1494 397 1959 397 
Q 2419 397 2687 759 
Q 2956 1122 2956 1747 
Q 2956 2369 2687 2733 
Q 2419 3097 1959 3097 
z
M 1959 3584 
Q 2709 3584 3137 3096 
Q 3566 2609 3566 1747 
Q 3566 888 3137 398 
Q 2709 -91 1959 -91 
Q 1206 -91 779 398 
Q 353 888 353 1747 
Q 353 2609 779 3096 
Q 1206 3584 1959 3584 
z
" transform="scale(0.015625)"/>
       <path id="DejaVuSans-6e" d="M 3513 2113 
L 3513 0 
L 2938 0 
L 2938 2094 
Q 2938 2591 2744 2837 
Q 2550 3084 2163 3084 
Q 1697 3084 1428 2787 
Q 1159 2491 1159 1978 
L 1159 0 
L 581 0 
L 581 3500 
L 1159 3500 
L 1159 2956 
Q 1366 3272 1645 3428 
Q 1925 3584 2291 3584 
Q 2894 3584 3203 3211 
Q 3513 2838 3513 2113 
z
" transform="scale(0.015625)"/>
       <path id="DejaVuSans-70" d="M 1159 525 
L 1159 -1331 
L 581 -1331 
L 581 3500 
L 1159 3500 
L 1159 2969 
Q 1341 3281 1617 3432 
Q 1894 3584 2278 3584 
Q 2916 3584 3314 3078 
Q 3713 2572 3713 1747 
Q 3713 922 3314 415 
Q 2916 -91 2278 -91 
Q 1894 -91 1617 61 
Q 1341 213 1159 525 
z
M 3116 1747 
Q 3116 2381 2855 2742 
Q 2594 3103 2138 3103 
Q 1681 3103 1420 2742 
Q 1159 2381 1159 1747 
Q 1159 1113 1420 752 
Q 1681 391 2138 391 
Q 2594 391 2855 752 
Q 3116 1113 3116 1747 
z
" transform="scale(0.015625)"/>
       <path id="DejaVuSans-74" d="M 1172 4494 
L 1172 3500 
L 2356 3500 
L 2356 3053 
L 1172 3053 
L 1172 1153 
Q 1172 725 1289 603 
Q 1406 481 1766 481 
L 2356 481 
L 2356 0 
L 1766 0 
Q 1100 0 847 248 
Q 594 497 594 1153 
L 594 3053 
L 172 3053 
L 172 3500 
L 594 3500 
L 594 4494 
L 1172 4494 
z
" transform="scale(0.015625)"/>
      </defs>
      <use xlink:href="#DejaVuSans-53"/>
      <use xlink:href="#DejaVuSans-65" transform="translate(63.476562 0)"/>
      <use xlink:href="#DejaVuSans-63" transform="translate(125 0)"/>
      <use xlink:href="#DejaVuSans-6f" transform="translate(179.980469 0)"/>
      <use xlink:href="#DejaVuSans-6e" transform="translate(241.162109 0)"/>
      <use xlink:href="#DejaVuSans-64" transform="translate(304.541016 0)"/>
      <use xlink:href="#DejaVuSans-73" transform="translate(368.017578 0)"/>
      <use xlink:href="#DejaVuSans-20" transform="translate(420.117188 0)"/>
      <use xlink:href="#DejaVuSans-73" transform="translate(451.904297 0)"/>
      <use xlink:href="#DejaVuSans-70" transform="translate(504.003906 0)"/>
      <use xlink:href="#DejaVuSans-65" transform="translate(567.480469 0)"/>
      <use xlink:href="#DejaVuSans-6e" transform="translate(629.003906 0)"/>
      <use xlink:href="#DejaVuSans-74" transform="translate(692.382812 0)"/>
     </g>
    </g>
   </g>
   <g id="LineCollection_1">
    <path d="M 71.241818 370.960414 
L 71.241818 370.550921 
" clip-path="url(#pd2621ff3a7)" style="fill: none; stroke: #1f77b4; stroke-width: 1.5"/>
    <path d="M 94.763636 370.558256 
L 94.763636 370.144225 
" clip-path="url(#pd2621ff3a7)" style="fill: none; stroke: #1f77b4; stroke-width: 1.5"/>
    <path d="M 118.285455 369.785813 
L 118.285455 369.227404 
" clip-path="url(#pd2621ff3a7)" style="fill: none; stroke: #1f77b4; stroke-width: 1.5"/>
    <path d="M 141.807273 368.875482 
L 141.807273 367.998713 
" clip-path="url(#pd2621ff3a7)" style="fill: none; stroke: #1f77b4; stroke-width: 1.5"/>
    <path d="M 165.329091 367.227484 
L 165.329091 366.466333 
" clip-path="url(#pd2621ff3a7)" style="fill: none; stroke: #1f77b4; stroke-width: 1.5"/>
    <path d="M 188.850909 366.200902 
L 188.850909 365.073001 
" clip-path="url(#pd2621ff3a7)" style="fill: none; stroke: #1f77b4; stroke-width: 1.5"/>
    <path d="M 212.372727 364.620132 
L 212.372727 363.152131 
" clip-path="url(#pd2621ff3a7)" style="fill: none; stroke: #1f77b4; stroke-width: 1.5"/>
    <path d="M 235.894545 362.605014 
L 235.894545 360.887518 
" clip-path="url(#pd2621ff3a7)" style="fill: none; stroke: #1f77b4; stroke-width: 1.5"/>
    <path d="M 259.416364 360.50995 
L 259.416364 358.734988 
" clip-path="url(#pd2621ff3a7)" style="fill: none; stroke: #1f77b4; stroke-width: 1.5"/>
    <path d="M 282.938182 358.019325 
L 282.938182 355.891597 
" clip-path="url(#pd2621ff3a7)" style="fill: none; stroke: #1f77b4; stroke-width: 1.5"/>
    <path d="M 306.46 355.742733 
L 306.46 352.788051 
" clip-path="url(#pd2621ff3a7)" style="fill: none; stroke: #1f77b4; stroke-width: 1.5"/>
    <path d="M 329.981818 352.09091 
L 329.981818 348.84077 
" clip-path="url(#pd2621ff3a7)" style="fill: none; stroke: #1f77b4; stroke-width: 1.5"/>
    <path d="M 353.503636 347.664638 
L 353.503636 344.418983 
" clip-path="url(#pd2621ff3a7)" style="fill: none; stroke: #1f77b4; stroke-width: 1.5"/>
    <path d="M 377.025455 340.103053 
L 377.025455 339.260531 
" clip-path="url(#pd2621ff3a7)" style="fill: none; stroke: #1f77b4; stroke-width: 1.5"/>
    <path d="M 400.547273 338.567823 
L 400.547273 333.570266 
" clip-path="url(#pd2621ff3a7)" style="fill: none; stroke: #1f77b4; stroke-width: 1.5"/>
    <path d="M 424.069091 331.677627 
L 424.069091 327.166185 
" clip-path="url(#pd2621ff3a7)" style="fill: none; stroke: #1f77b4; stroke-width: 1.5"/>
    <path d="M 447.590909 323.547554 
L 447.590909 317.8537 
" clip-path="url(#pd2621ff3a7)" style="fill: none; stroke: #1f77b4; stroke-width: 1.5"/>
    <path d="M 471.112727 313.928688 
L 471.112727 306.812691 
" clip-path="url(#pd2621ff3a7)" style="fill: none; stroke: #1f77b4; stroke-width: 1.5"/>
    <path d="M 494.634545 303.658116 
L 494.634545 294.175397 
" clip-path="url(#pd2621ff3a7)" style="fill: none; stroke: #1f77b4; stroke-width: 1.5"/>
    <path d="M 518.156364 280.343396 
L 518.156364 278.42891 
" clip-path="url(#pd2621ff3a7)" style="fill: none; stroke: #1f77b4; stroke-width: 1.5"/>
    <path d="M 541.678182 272.059604 
L 541.678182 261.041813 
" clip-path="url(#pd2621ff3a7)" style="fill: none; stroke: #1f77b4; stroke-width: 1.5"/>
   </g>
   <g id="line2d_14">
    <defs>
     <path id="md8547b9e7e" d="M 3 0 
L -3 -0 
" style="stroke: #1f77b4"/>
    </defs>
    <g clip-path="url(#pd2621ff3a7)">
     <use xlink:href="#md8547b9e7e" x="71.241818" y="370.960414" style="fill: #1f77b4; stroke: #1f77b4"/>
     <use xlink:href="#md8547b9e7e" x="94.763636" y="370.558256" style="fill: #1f77b4; stroke: #1f77b4"/>
     <use xlink:href="#md8547b9e7e" x="118.285455" y="369.785813" style="fill: #1f77b4; stroke: #1f77b4"/>
     <use xlink:href="#md8547b9e7e" x="141.807273" y="368.875482" style="fill: #1f77b4; stroke: #1f77b4"/>
     <use xlink:href="#md8547b9e7e" x="165.329091" y="367.227484" style="fill: #1f77b4; stroke: #1f77b4"/>
     <use xlink:href="#md8547b9e7e" x="188.850909" y="366.200902" style="fill: #1f77b4; stroke: #1f77b4"/>
     <use xlink:href="#md8547b9e7e" x="212.372727" y="364.620132" style="fill: #1f77b4; stroke: #1f77b4"/>
     <use xlink:href="#md8547b9e7e" x="235.894545" y="362.605014" style="fill: #1f77b4; stroke: #1f77b4"/>
     <use xlink:href="#md8547b9e7e" x="259.416364" y="360.50995" style="fill: #1f77b4; stroke: #1f77b4"/>
     <use xlink:href="#md8547b9e7e" x="282.938182" y="358.019325" style="fill: #1f77b4; stroke: #1f77b4"/>
     <use xlink:href="#md8547b9e7e" x="306.46" y="355.742733" style="fill: #1f77b4; stroke: #1f77b4"/>
     <use xlink:href="#md8547b9e7e" x="329.981818" y="352.09091" style="fill: #1f77b4; stroke: #1f77b4"/>
     <use xlink:href="#md8547b9e7e" x="353.503636" y="347.664638" style="fill: #1f77b4; stroke: #1f77b4"/>
     <use xlink:href="#md8547b9e7e" x="377.025455" y="340.103053" style="fill: #1f77b4; stroke: #1f77b4"/>
     <use xlink:href="#md8547b9e7e" x="400.547273" y="338.567823" style="fill: #1f77b4; stroke: #1f77b4"/>
     <use xlink:href="#md8547b9e7e" x="424.069091" y="331.677627" style="fill: #1f77b4; stroke: #1f77b4"/>
     <use xlink:href="#md8547b9e7e" x="447.590909" y="323.547554" style="fill: #1f77b4; stroke: #1f77b4"/>
     <use xlink:href="#md8547b9e7e" x="471.112727" y="313.928688" style="fill: #1f77b4; stroke: #1f77b4"/>
     <use xlink:href="#md8547b9e7e" x="494.634545" y="303.658116" style="fill: #1f77b4; stroke: #1f77b4"/>
     <use xlink:href="#md8547b9e7e" x="518.156364" y="280.343396" style="fill: #1f77b4; stroke: #1f77b4"/>
     <use xlink:href="#md8547b9e7e" x="541.678182" y="272.059604" style="fill: #1f77b4; stroke: #1f77b4"/>
    </g>
   </g>
   <g id="line2d_15">
    <g clip-path="url(#pd2621ff3a7)">
     <use xlink:href="#md8547b9e7e" x="71.241818" y="370.550921" style="fill: #1f77b4; stroke: #1f77b4"/>
     <use xlink:href="#md8547b9e7e" x="94.763636" y="370.144225" style="fill: #1f77b4; stroke: #1f77b4"/>
     <use xlink:href="#md8547b9e7e" x="118.285455" y="369.227404" style="fill: #1f77b4; stroke: #1f77b4"/>
     <use xlink:href="#md8547b9e7e" x="141.807273" y="367.998713" style="fill: #1f77b4; stroke: #1f77b4"/>
     <use xlink:href="#md8547b9e7e" x="165.329091" y="366.466333" style="fill: #1f77b4; stroke: #1f77b4"/>
     <use xlink:href="#md8547b9e7e" x="188.850909" y="365.073001" style="fill: #1f77b4; stroke: #1f77b4"/>
     <use xlink:href="#md8547b9e7e" x="212.372727" y="363.152131" style="fill: #1f77b4; stroke: #1f77b4"/>
     <use xlink:href="#md8547b9e7e" x="235.894545" y="360.887518" style="fill: #1f77b4; stroke: #1f77b4"/>
     <use xlink:href="#md8547b9e7e" x="259.416364" y="358.734988" style="fill: #1f77b4; stroke: #1f77b4"/>
     <use xlink:href="#md8547b9e7e" x="282.938182" y="355.891597" style="fill: #1f77b4; stroke: #1f77b4"/>
     <use xlink:href="#md8547b9e7e" x="306.46" y="352.788051" style="fill: #1f77b4; stroke: #1f77b4"/>
     <use xlink:href="#md8547b9e7e" x="329.981818" y="348.84077" style="fill: #1f77b4; stroke: #1f77b4"/>
     <use xlink:href="#md8547b9e7e" x="353.503636" y="344.418983" style="fill: #1f77b4; stroke: #1f77b4"/>
     <use xlink:href="#md8547b9e7e" x="377.025455" y="339.260531" style="fill: #1f77b4; stroke: #1f77b4"/>
     <use xlink:href="#md8547b9e7e" x="400.547273" y="333.570266" style="fill: #1f77b4; stroke: #1f77b4"/>
     <use xlink:href="#md8547b9e7e" x="424.069091" y="327.166185" style="fill: #1f77b4; stroke: #1f77b4"/>
     <use xlink:href="#md8547b9e7e" x="447.590909" y="317.8537" style="fill: #1f77b4; stroke: #1f77b4"/>
     <use xlink:href="#md8547b9e7e" x="471.112727" y="306.812691" style="fill: #1f77b4; stroke: #1f77b4"/>
     <use xlink:href="#md8547b9e7e" x="494.634545" y="294.175397" style="fill: #1f77b4; stroke: #1f77b4"/>
     <use xlink:href="#md8547b9e7e" x="518.156364" y="278.42891" style="fill: #1f77b4; stroke: #1f77b4"/>
     <use xlink:href="#md8547b9e7e" x="541.678182" y="261.041813" style="fill: #1f77b4; stroke: #1f77b4"/>
    </g>
   </g>
   <g id="LineCollection_2">
    <path d="M 71.241818 363.632335 
L 71.241818 362.836145 
" clip-path="url(#pd2621ff3a7)" style="fill: none; stroke: #ff7f0e; stroke-width: 1.5"/>
    <path d="M 94.763636 361.674789 
L 94.763636 359.936607 
" clip-path="url(#pd2621ff3a7)" style="fill: none; stroke: #ff7f0e; stroke-width: 1.5"/>
    <path d="M 118.285455 359.277988 
L 118.285455 357.989932 
" clip-path="url(#pd2621ff3a7)" style="fill: none; stroke: #ff7f0e; stroke-width: 1.5"/>
    <path d="M 141.807273 357.094166 
L 141.807273 355.939775 
" clip-path="url(#pd2621ff3a7)" style="fill: none; stroke: #ff7f0e; stroke-width: 1.5"/>
    <path d="M 165.329091 353.363821 
L 165.329091 352.024737 
" clip-path="url(#pd2621ff3a7)" style="fill: none; stroke: #ff7f0e; stroke-width: 1.5"/>
    <path d="M 188.850909 349.92561 
L 188.850909 347.856245 
" clip-path="url(#pd2621ff3a7)" style="fill: none; stroke: #ff7f0e; stroke-width: 1.5"/>
    <path d="M 212.372727 345.618756 
L 212.372727 345.030848 
" clip-path="url(#pd2621ff3a7)" style="fill: none; stroke: #ff7f0e; stroke-width: 1.5"/>
    <path d="M 235.894545 339.947013 
L 235.894545 337.754484 
" clip-path="url(#pd2621ff3a7)" style="fill: none; stroke: #ff7f0e; stroke-width: 1.5"/>
    <path d="M 259.416364 334.250152 
L 259.416364 331.377262 
" clip-path="url(#pd2621ff3a7)" style="fill: none; stroke: #ff7f0e; stroke-width: 1.5"/>
    <path d="M 282.938182 327.454836 
L 282.938182 326.820702 
" clip-path="url(#pd2621ff3a7)" style="fill: none; stroke: #ff7f0e; stroke-width: 1.5"/>
    <path d="M 306.46 320.121216 
L 306.46 318.906457 
" clip-path="url(#pd2621ff3a7)" style="fill: none; stroke: #ff7f0e; stroke-width: 1.5"/>
    <path d="M 329.981818 311.307088 
L 329.981818 310.292854 
" clip-path="url(#pd2621ff3a7)" style="fill: none; stroke: #ff7f0e; stroke-width: 1.5"/>
    <path d="M 353.503636 299.09248 
L 353.503636 297.155303 
" clip-path="url(#pd2621ff3a7)" style="fill: none; stroke: #ff7f0e; stroke-width: 1.5"/>
    <path d="M 377.025455 286.930113 
L 377.025455 285.284225 
" clip-path="url(#pd2621ff3a7)" style="fill: none; stroke: #ff7f0e; stroke-width: 1.5"/>
    <path d="M 400.547273 270.573081 
L 400.547273 266.648069 
" clip-path="url(#pd2621ff3a7)" style="fill: none; stroke: #ff7f0e; stroke-width: 1.5"/>
    <path d="M 424.069091 253.464081 
L 424.069091 252.002887 
" clip-path="url(#pd2621ff3a7)" style="fill: none; stroke: #ff7f0e; stroke-width: 1.5"/>
    <path d="M 447.590909 229.181563 
L 447.590909 225.774222 
" clip-path="url(#pd2621ff3a7)" style="fill: none; stroke: #ff7f0e; stroke-width: 1.5"/>
    <path d="M 471.112727 201.01625 
L 471.112727 191.834845 
" clip-path="url(#pd2621ff3a7)" style="fill: none; stroke: #ff7f0e; stroke-width: 1.5"/>
    <path d="M 494.634545 165.049987 
L 494.634545 161.859002 
" clip-path="url(#pd2621ff3a7)" style="fill: none; stroke: #ff7f0e; stroke-width: 1.5"/>
    <path d="M 518.156364 123.799365 
L 518.156364 120.794656 
" clip-path="url(#pd2621ff3a7)" style="fill: none; stroke: #ff7f0e; stroke-width: 1.5"/>
    <path d="M 541.678182 53.178168 
L 541.678182 43.387273 
" clip-path="url(#pd2621ff3a7)" style="fill: none; stroke: #ff7f0e; stroke-width: 1.5"/>
   </g>
   <g id="line2d_16">
    <defs>
     <path id="m7f04267d81" d="M 3 0 
L -3 -0 
" style="stroke: #ff7f0e"/>
    </defs>
    <g clip-path="url(#pd2621ff3a7)">
     <use xlink:href="#m7f04267d81" x="71.241818" y="363.632335" style="fill: #ff7f0e; stroke: #ff7f0e"/>
     <use xlink:href="#m7f04267d81" x="94.763636" y="361.674789" style="fill: #ff7f0e; stroke: #ff7f0e"/>
     <use xlink:href="#m7f04267d81" x="118.285455" y="359.277988" style="fill: #ff7f0e; stroke: #ff7f0e"/>
     <use xlink:href="#m7f04267d81" x="141.807273" y="357.094166" style="fill: #ff7f0e; stroke: #ff7f0e"/>
     <use xlink:href="#m7f04267d81" x="165.329091" y="353.363821" style="fill: #ff7f0e; stroke: #ff7f0e"/>
     <use xlink:href="#m7f04267d81" x="188.850909" y="349.92561" style="fill: #ff7f0e; stroke: #ff7f0e"/>
     <use xlink:href="#m7f04267d81" x="212.372727" y="345.618756" style="fill: #ff7f0e; stroke: #ff7f0e"/>
     <use xlink:href="#m7f04267d81" x="235.894545" y="339.947013" style="fill: #ff7f0e; stroke: #ff7f0e"/>
     <use xlink:href="#m7f04267d81" x="259.416364" y="334.250152" style="fill: #ff7f0e; stroke: #ff7f0e"/>
     <use xlink:href="#m7f04267d81" x="282.938182" y="327.454836" style="fill: #ff7f0e; stroke: #ff7f0e"/>
     <use xlink:href="#m7f04267d81" x="306.46" y="320.121216" style="fill: #ff7f0e; stroke: #ff7f0e"/>
     <use xlink:href="#m7f04267d81" x="329.981818" y="311.307088" style="fill: #ff7f0e; stroke: #ff7f0e"/>
     <use xlink:href="#m7f04267d81" x="353.503636" y="299.09248" style="fill: #ff7f0e; stroke: #ff7f0e"/>
     <use xlink:href="#m7f04267d81" x="377.025455" y="286.930113" style="fill: #ff7f0e; stroke: #ff7f0e"/>
     <use xlink:href="#m7f04267d81" x="400.547273" y="270.573081" style="fill: #ff7f0e; stroke: #ff7f0e"/>
     <use xlink:href="#m7f04267d81" x="424.069091" y="253.464081" style="fill: #ff7f0e; stroke: #ff7f0e"/>
     <use xlink:href="#m7f04267d81" x="447.590909" y="229.181563" style="fill: #ff7f0e; stroke: #ff7f0e"/>
     <use xlink:href="#m7f04267d81" x="471.112727" y="201.01625" style="fill: #ff7f0e; stroke: #ff7f0e"/>
     <use xlink:href="#m7f04267d81" x="494.634545" y="165.049987" style="fill: #ff7f0e; stroke: #ff7f0e"/>
     <use xlink:href="#m7f04267d81" x="518.156364" y="123.799365" style="fill: #ff7f0e; stroke: #ff7f0e"/>
     <use xlink:href="#m7f04267d81" x="541.678182" y="53.178168" style="fill: #ff7f0e; stroke: #ff7f0e"/>
    </g>
   </g>
   <g id="line2d_17">
    <g clip-path="url(#pd2621ff3a7)">
     <use xlink:href="#m7f04267d81" x="71.241818" y="362.836145" style="fill: #ff7f0e; stroke: #ff7f0e"/>
     <use xlink:href="#m7f04267d81" x="94.763636" y="359.936607" style="fill: #ff7f0e; stroke: #ff7f0e"/>
     <use xlink:href="#m7f04267d81" x="118.285455" y="357.989932" style="fill: #ff7f0e; stroke: #ff7f0e"/>
     <use xlink:href="#m7f04267d81" x="141.807273" y="355.939775" style="fill: #ff7f0e; stroke: #ff7f0e"/>
     <use xlink:href="#m7f04267d81" x="165.329091" y="352.024737" style="fill: #ff7f0e; stroke: #ff7f0e"/>
     <use xlink:href="#m7f04267d81" x="188.850909" y="347.856245" style="fill: #ff7f0e; stroke: #ff7f0e"/>
     <use xlink:href="#m7f04267d81" x="212.372727" y="345.030848" style="fill: #ff7f0e; stroke: #ff7f0e"/>
     <use xlink:href="#m7f04267d81" x="235.894545" y="337.754484" style="fill: #ff7f0e; stroke: #ff7f0e"/>
     <use xlink:href="#m7f04267d81" x="259.416364" y="331.377262" style="fill: #ff7f0e; stroke: #ff7f0e"/>
     <use xlink:href="#m7f04267d81" x="282.938182" y="326.820702" style="fill: #ff7f0e; stroke: #ff7f0e"/>
     <use xlink:href="#m7f04267d81" x="306.46" y="318.906457" style="fill: #ff7f0e; stroke: #ff7f0e"/>
     <use xlink:href="#m7f04267d81" x="329.981818" y="310.292854" style="fill: #ff7f0e; stroke: #ff7f0e"/>
     <use xlink:href="#m7f04267d81" x="353.503636" y="297.155303" style="fill: #ff7f0e; stroke: #ff7f0e"/>
     <use xlink:href="#m7f04267d81" x="377.025455" y="285.284225" style="fill: #ff7f0e; stroke: #ff7f0e"/>
     <use xlink:href="#m7f04267d81" x="400.547273" y="266.648069" style="fill: #ff7f0e; stroke: #ff7f0e"/>
     <use xlink:href="#m7f04267d81" x="424.069091" y="252.002887" style="fill: #ff7f0e; stroke: #ff7f0e"/>
     <use xlink:href="#m7f04267d81" x="447.590909" y="225.774222" style="fill: #ff7f0e; stroke: #ff7f0e"/>
     <use xlink:href="#m7f04267d81" x="471.112727" y="191.834845" style="fill: #ff7f0e; stroke: #ff7f0e"/>
     <use xlink:href="#m7f04267d81" x="494.634545" y="161.859002" style="fill: #ff7f0e; stroke: #ff7f0e"/>
     <use xlink:href="#m7f04267d81" x="518.156364" y="120.794656" style="fill: #ff7f0e; stroke: #ff7f0e"/>
     <use xlink:href="#m7f04267d81" x="541.678182" y="43.387273" style="fill: #ff7f0e; stroke: #ff7f0e"/>
    </g>
   </g>
   <g id="LineCollection_3">
    <path d="M 71.241818 373.532727 
L 71.241818 373.457583 
" clip-path="url(#pd2621ff3a7)" style="fill: none; stroke: #2ca02c; stroke-width: 1.5"/>
    <path d="M 94.763636 373.102126 
L 94.763636 372.881813 
" clip-path="url(#pd2621ff3a7)" style="fill: none; stroke: #2ca02c; stroke-width: 1.5"/>
    <path d="M 118.285455 372.467518 
L 118.285455 372.241558 
" clip-path="url(#pd2621ff3a7)" style="fill: none; stroke: #2ca02c; stroke-width: 1.5"/>
    <path d="M 141.807273 371.968633 
L 141.807273 371.899663 
" clip-path="url(#pd2621ff3a7)" style="fill: none; stroke: #2ca02c; stroke-width: 1.5"/>
    <path d="M 165.329091 371.048592 
L 165.329091 370.901998 
" clip-path="url(#pd2621ff3a7)" style="fill: none; stroke: #2ca02c; stroke-width: 1.5"/>
    <path d="M 188.850909 370.11156 
L 188.850909 369.915468 
" clip-path="url(#pd2621ff3a7)" style="fill: none; stroke: #2ca02c; stroke-width: 1.5"/>
    <path d="M 212.372727 369.053527 
L 212.372727 368.735273 
" clip-path="url(#pd2621ff3a7)" style="fill: none; stroke: #2ca02c; stroke-width: 1.5"/>
    <path d="M 235.894545 367.822357 
L 235.894545 367.574339 
" clip-path="url(#pd2621ff3a7)" style="fill: none; stroke: #2ca02c; stroke-width: 1.5"/>
    <path d="M 259.416364 366.308552 
L 259.416364 365.756264 
" clip-path="url(#pd2621ff3a7)" style="fill: none; stroke: #2ca02c; stroke-width: 1.5"/>
    <path d="M 282.938182 364.585515 
L 282.938182 364.366045 
" clip-path="url(#pd2621ff3a7)" style="fill: none; stroke: #2ca02c; stroke-width: 1.5"/>
    <path d="M 306.46 362.810816 
L 306.46 362.52491 
" clip-path="url(#pd2621ff3a7)" style="fill: none; stroke: #2ca02c; stroke-width: 1.5"/>
    <path d="M 329.981818 360.649632 
L 329.981818 360.439872 
" clip-path="url(#pd2621ff3a7)" style="fill: none; stroke: #2ca02c; stroke-width: 1.5"/>
    <path d="M 353.503636 357.725345 
L 353.503636 356.925672 
" clip-path="url(#pd2621ff3a7)" style="fill: none; stroke: #2ca02c; stroke-width: 1.5"/>
    <path d="M 377.025455 354.817311 
L 377.025455 354.248031 
" clip-path="url(#pd2621ff3a7)" style="fill: none; stroke: #2ca02c; stroke-width: 1.5"/>
    <path d="M 400.547273 350.82945 
L 400.547273 350.27236 
" clip-path="url(#pd2621ff3a7)" style="fill: none; stroke: #2ca02c; stroke-width: 1.5"/>
    <path d="M 424.069091 346.394154 
L 424.069091 345.78002 
" clip-path="url(#pd2621ff3a7)" style="fill: none; stroke: #2ca02c; stroke-width: 1.5"/>
    <path d="M 447.590909 340.804415 
L 447.590909 340.144055 
" clip-path="url(#pd2621ff3a7)" style="fill: none; stroke: #2ca02c; stroke-width: 1.5"/>
    <path d="M 471.112727 334.096697 
L 471.112727 333.450848 
" clip-path="url(#pd2621ff3a7)" style="fill: none; stroke: #2ca02c; stroke-width: 1.5"/>
    <path d="M 494.634545 325.808737 
L 494.634545 325.595547 
" clip-path="url(#pd2621ff3a7)" style="fill: none; stroke: #2ca02c; stroke-width: 1.5"/>
    <path d="M 518.156364 315.555579 
L 518.156364 314.270108 
" clip-path="url(#pd2621ff3a7)" style="fill: none; stroke: #2ca02c; stroke-width: 1.5"/>
    <path d="M 541.678182 300.365286 
L 541.678182 299.272952 
" clip-path="url(#pd2621ff3a7)" style="fill: none; stroke: #2ca02c; stroke-width: 1.5"/>
   </g>
   <g id="line2d_18">
    <defs>
     <path id="mf3fc7103a7" d="M 3 0 
L -3 -0 
" style="stroke: #2ca02c"/>
    </defs>
    <g clip-path="url(#pd2621ff3a7)">
     <use xlink:href="#mf3fc7103a7" x="71.241818" y="373.532727" style="fill: #2ca02c; stroke: #2ca02c"/>
     <use xlink:href="#mf3fc7103a7" x="94.763636" y="373.102126" style="fill: #2ca02c; stroke: #2ca02c"/>
     <use xlink:href="#mf3fc7103a7" x="118.285455" y="372.467518" style="fill: #2ca02c; stroke: #2ca02c"/>
     <use xlink:href="#mf3fc7103a7" x="141.807273" y="371.968633" style="fill: #2ca02c; stroke: #2ca02c"/>
     <use xlink:href="#mf3fc7103a7" x="165.329091" y="371.048592" style="fill: #2ca02c; stroke: #2ca02c"/>
     <use xlink:href="#mf3fc7103a7" x="188.850909" y="370.11156" style="fill: #2ca02c; stroke: #2ca02c"/>
     <use xlink:href="#mf3fc7103a7" x="212.372727" y="369.053527" style="fill: #2ca02c; stroke: #2ca02c"/>
     <use xlink:href="#mf3fc7103a7" x="235.894545" y="367.822357" style="fill: #2ca02c; stroke: #2ca02c"/>
     <use xlink:href="#mf3fc7103a7" x="259.416364" y="366.308552" style="fill: #2ca02c; stroke: #2ca02c"/>
     <use xlink:href="#mf3fc7103a7" x="282.938182" y="364.585515" style="fill: #2ca02c; stroke: #2ca02c"/>
     <use xlink:href="#mf3fc7103a7" x="306.46" y="362.810816" style="fill: #2ca02c; stroke: #2ca02c"/>
     <use xlink:href="#mf3fc7103a7" x="329.981818" y="360.649632" style="fill: #2ca02c; stroke: #2ca02c"/>
     <use xlink:href="#mf3fc7103a7" x="353.503636" y="357.725345" style="fill: #2ca02c; stroke: #2ca02c"/>
     <use xlink:href="#mf3fc7103a7" x="377.025455" y="354.817311" style="fill: #2ca02c; stroke: #2ca02c"/>
     <use xlink:href="#mf3fc7103a7" x="400.547273" y="350.82945" style="fill: #2ca02c; stroke: #2ca02c"/>
     <use xlink:href="#mf3fc7103a7" x="424.069091" y="346.394154" style="fill: #2ca02c; stroke: #2ca02c"/>
     <use xlink:href="#mf3fc7103a7" x="447.590909" y="340.804415" style="fill: #2ca02c; stroke: #2ca02c"/>
     <use xlink:href="#mf3fc7103a7" x="471.112727" y="334.096697" style="fill: #2ca02c; stroke: #2ca02c"/>
     <use xlink:href="#mf3fc7103a7" x="494.634545" y="325.808737" style="fill: #2ca02c; stroke: #2ca02c"/>
     <use xlink:href="#mf3fc7103a7" x="518.156364" y="315.555579" style="fill: #2ca02c; stroke: #2ca02c"/>
     <use xlink:href="#mf3fc7103a7" x="541.678182" y="300.365286" style="fill: #2ca02c; stroke: #2ca02c"/>
    </g>
   </g>
   <g id="line2d_19">
    <g clip-path="url(#pd2621ff3a7)">
     <use xlink:href="#mf3fc7103a7" x="71.241818" y="373.457583" style="fill: #2ca02c; stroke: #2ca02c"/>
     <use xlink:href="#mf3fc7103a7" x="94.763636" y="372.881813" style="fill: #2ca02c; stroke: #2ca02c"/>
     <use xlink:href="#mf3fc7103a7" x="118.285455" y="372.241558" style="fill: #2ca02c; stroke: #2ca02c"/>
     <use xlink:href="#mf3fc7103a7" x="141.807273" y="371.899663" style="fill: #2ca02c; stroke: #2ca02c"/>
     <use xlink:href="#mf3fc7103a7" x="165.329091" y="370.901998" style="fill: #2ca02c; stroke: #2ca02c"/>
     <use xlink:href="#mf3fc7103a7" x="188.850909" y="369.915468" style="fill: #2ca02c; stroke: #2ca02c"/>
     <use xlink:href="#mf3fc7103a7" x="212.372727" y="368.735273" style="fill: #2ca02c; stroke: #2ca02c"/>
     <use xlink:href="#mf3fc7103a7" x="235.894545" y="367.574339" style="fill: #2ca02c; stroke: #2ca02c"/>
     <use xlink:href="#mf3fc7103a7" x="259.416364" y="365.756264" style="fill: #2ca02c; stroke: #2ca02c"/>
     <use xlink:href="#mf3fc7103a7" x="282.938182" y="364.366045" style="fill: #2ca02c; stroke: #2ca02c"/>
     <use xlink:href="#mf3fc7103a7" x="306.46" y="362.52491" style="fill: #2ca02c; stroke: #2ca02c"/>
     <use xlink:href="#mf3fc7103a7" x="329.981818" y="360.439872" style="fill: #2ca02c; stroke: #2ca02c"/>
     <use xlink:href="#mf3fc7103a7" x="353.503636" y="356.925672" style="fill: #2ca02c; stroke: #2ca02c"/>
     <use xlink:href="#mf3fc7103a7" x="377.025455" y="354.248031" style="fill: #2ca02c; stroke: #2ca02c"/>
     <use xlink:href="#mf3fc7103a7" x="400.547273" y="350.27236" style="fill: #2ca02c; stroke: #2ca02c"/>
     <use xlink:href="#mf3fc7103a7" x="424.069091" y="345.78002" style="fill: #2ca02c; stroke: #2ca02c"/>
     <use xlink:href="#mf3fc7103a7" x="447.590909" y="340.144055" style="fill: #2ca02c; stroke: #2ca02c"/>
     <use xlink:href="#mf3fc7103a7" x="471.112727" y="333.450848" style="fill: #2ca02c; stroke: #2ca02c"/>
     <use xlink:href="#mf3fc7103a7" x="494.634545" y="325.595547" style="fill: #2ca02c; stroke: #2ca02c"/>
     <use xlink:href="#mf3fc7103a7" x="518.156364" y="314.270108" style="fill: #2ca02c; stroke: #2ca02c"/>
     <use xlink:href="#mf3fc7103a7" x="541.678182" y="299.272952" style="fill: #2ca02c; stroke: #2ca02c"/>
    </g>
   </g>
   <g id="line2d_20">
    <path d="M 71.241818 370.793609 
L 94.763636 370.277468 
L 118.285455 369.571198 
L 141.807273 368.362983 
L 165.329091 366.890444 
L 188.850909 365.86993 
L 212.372727 363.886316 
L 235.894545 361.684393 
L 259.416364 359.619936 
L 282.938182 357.060763 
L 306.46 354.444176 
L 329.981818 350.273784 
L 353.503636 345.188313 
L 377.025455 339.823215 
L 400.547273 335.520635 
L 424.069091 329.050592 
L 447.590909 320.071084 
L 471.112727 309.942463 
L 494.634545 299.049209 
L 518.156364 279.600398 
L 541.678182 267.557819 
" clip-path="url(#pd2621ff3a7)" style="fill: none; stroke: #1f77b4; stroke-width: 1.5; stroke-linecap: square"/>
   </g>
   <g id="line2d_21">
    <path d="M 71.241818 363.308962 
L 94.763636 360.902874 
L 118.285455 358.73541 
L 141.807273 356.216869 
L 165.329091 352.638343 
L 188.850909 349.330526 
L 212.372727 345.343878 
L 235.894545 338.692676 
L 259.416364 333.075497 
L 282.938182 327.187451 
L 306.46 319.740746 
L 329.981818 310.63744 
L 353.503636 298.132598 
L 377.025455 286.334343 
L 400.547273 269.539322 
L 424.069091 252.884141 
L 447.590909 227.238054 
L 471.112727 197.016304 
L 494.634545 163.816231 
L 518.156364 122.254795 
L 541.678182 49.3988 
" clip-path="url(#pd2621ff3a7)" style="fill: none; stroke: #ff7f0e; stroke-width: 1.5; stroke-linecap: square"/>
   </g>
   <g id="line2d_22">
    <path d="M 71.241818 373.504232 
L 94.763636 372.980218 
L 118.285455 372.401408 
L 141.807273 371.929287 
L 165.329091 370.992973 
L 188.850909 370.053619 
L 212.372727 368.947196 
L 235.894545 367.75154 
L 259.416364 366.13304 
L 282.938182 364.519658 
L 306.46 362.709181 
L 329.981818 360.549 
L 353.503636 357.533949 
L 377.025455 354.568501 
L 400.547273 350.580904 
L 424.069091 346.157324 
L 447.590909 340.476874 
L 471.112727 333.767203 
L 494.634545 325.671905 
L 518.156364 314.915482 
L 541.678182 299.818063 
" clip-path="url(#pd2621ff3a7)" style="fill: none; stroke: #2ca02c; stroke-width: 1.5; stroke-linecap: square"/>
   </g>
   <g id="patch_3">
    <path d="M 47.72 390.04 
L 47.72 26.88 
" style="fill: none; stroke: #000000; stroke-width: 0.8; stroke-linejoin: miter; stroke-linecap: square"/>
   </g>
   <g id="patch_4">
    <path d="M 565.2 390.04 
L 565.2 26.88 
" style="fill: none; stroke: #000000; stroke-width: 0.8; stroke-linejoin: miter; stroke-linecap: square"/>
   </g>
   <g id="patch_5">
    <path d="M 47.72 390.04 
L 565.2 390.04 
" style="fill: none; stroke: #000000; stroke-width: 0.8; stroke-linejoin: miter; stroke-linecap: square"/>
   </g>
   <g id="patch_6">
    <path d="M 47.72 26.88 
L 565.2 26.88 
" style="fill: none; stroke: #000000; stroke-width: 0.8; stroke-linejoin: miter; stroke-linecap: square"/>
   </g>
   <g id="text_16">
    <!-- C++ implementations of Bron-Kerbosch Ver3½-GP on a random graph of order 100 -->
    <g transform="translate(47.72 20.88) scale(0.12 -0.12)">
     <defs>
      <path id="DejaVuSans-43" d="M 4122 4306 
L 4122 3641 
Q 3803 3938 3442 4084 
Q 3081 4231 2675 4231 
Q 1875 4231 1450 3742 
Q 1025 3253 1025 2328 
Q 1025 1406 1450 917 
Q 1875 428 2675 428 
Q 3081 428 3442 575 
Q 3803 722 4122 1019 
L 4122 359 
Q 3791 134 3420 21 
Q 3050 -91 2638 -91 
Q 1578 -91 968 557 
Q 359 1206 359 2328 
Q 359 3453 968 4101 
Q 1578 4750 2638 4750 
Q 3056 4750 3426 4639 
Q 3797 4528 4122 4306 
z
" transform="scale(0.015625)"/>
      <path id="DejaVuSans-2b" d="M 2944 4013 
L 2944 2272 
L 4684 2272 
L 4684 1741 
L 2944 1741 
L 2944 0 
L 2419 0 
L 2419 1741 
L 678 1741 
L 678 2272 
L 2419 2272 
L 2419 4013 
L 2944 4013 
z
" transform="scale(0.015625)"/>
      <path id="DejaVuSans-6d" d="M 3328 2828 
Q 3544 3216 3844 3400 
Q 4144 3584 4550 3584 
Q 5097 3584 5394 3201 
Q 5691 2819 5691 2113 
L 5691 0 
L 5113 0 
L 5113 2094 
Q 5113 2597 4934 2840 
Q 4756 3084 4391 3084 
Q 3944 3084 3684 2787 
Q 3425 2491 3425 1978 
L 3425 0 
L 2847 0 
L 2847 2094 
Q 2847 2600 2669 2842 
Q 2491 3084 2119 3084 
Q 1678 3084 1418 2786 
Q 1159 2488 1159 1978 
L 1159 0 
L 581 0 
L 581 3500 
L 1159 3500 
L 1159 2956 
Q 1356 3278 1631 3431 
Q 1906 3584 2284 3584 
Q 2666 3584 2933 3390 
Q 3200 3197 3328 2828 
z
" transform="scale(0.015625)"/>
      <path id="DejaVuSans-6c" d="M 603 4863 
L 1178 4863 
L 1178 0 
L 603 0 
L 603 4863 
z
" transform="scale(0.015625)"/>
      <path id="DejaVuSans-61" d="M 2194 1759 
Q 1497 1759 1228 1600 
Q 959 1441 959 1056 
Q 959 750 1161 570 
Q 1363 391 1709 391 
Q 2188 391 2477 730 
Q 2766 1069 2766 1631 
L 2766 1759 
L 2194 1759 
z
M 3341 1997 
L 3341 0 
L 2766 0 
L 2766 531 
Q 2569 213 2275 61 
Q 1981 -91 1556 -91 
Q 1019 -91 701 211 
Q 384 513 384 1019 
Q 384 1609 779 1909 
Q 1175 2209 1959 2209 
L 2766 2209 
L 2766 2266 
Q 2766 2663 2505 2880 
Q 2244 3097 1772 3097 
Q 1472 3097 1187 3025 
Q 903 2953 641 2809 
L 641 3341 
Q 956 3463 1253 3523 
Q 1550 3584 1831 3584 
Q 2591 3584 2966 3190 
Q 3341 2797 3341 1997 
z
" transform="scale(0.015625)"/>
      <path id="DejaVuSans-66" d="M 2375 4863 
L 2375 4384 
L 1825 4384 
Q 1516 4384 1395 4259 
Q 1275 4134 1275 3809 
L 1275 3500 
L 2222 3500 
L 2222 3053 
L 1275 3053 
L 1275 0 
L 697 0 
L 697 3053 
L 147 3053 
L 147 3500 
L 697 3500 
L 697 3744 
Q 697 4328 969 4595 
Q 1241 4863 1831 4863 
L 2375 4863 
z
" transform="scale(0.015625)"/>
      <path id="DejaVuSans-42" d="M 1259 2228 
L 1259 519 
L 2272 519 
Q 2781 519 3026 730 
Q 3272 941 3272 1375 
Q 3272 1813 3026 2020 
Q 2781 2228 2272 2228 
L 1259 2228 
z
M 1259 4147 
L 1259 2741 
L 2194 2741 
Q 2656 2741 2882 2914 
Q 3109 3088 3109 3444 
Q 3109 3797 2882 3972 
Q 2656 4147 2194 4147 
L 1259 4147 
z
M 628 4666 
L 2241 4666 
Q 2963 4666 3353 4366 
Q 3744 4066 3744 3513 
Q 3744 3084 3544 2831 
Q 3344 2578 2956 2516 
Q 3422 2416 3680 2098 
Q 3938 1781 3938 1306 
Q 3938 681 3513 340 
Q 3088 0 2303 0 
L 628 0 
L 628 4666 
z
" transform="scale(0.015625)"/>
      <path id="DejaVuSans-72" d="M 2631 2963 
Q 2534 3019 2420 3045 
Q 2306 3072 2169 3072 
Q 1681 3072 1420 2755 
Q 1159 2438 1159 1844 
L 1159 0 
L 581 0 
L 581 3500 
L 1159 3500 
L 1159 2956 
Q 1341 3275 1631 3429 
Q 1922 3584 2338 3584 
Q 2397 3584 2469 3576 
Q 2541 3569 2628 3553 
L 2631 2963 
z
" transform="scale(0.015625)"/>
      <path id="DejaVuSans-2d" d="M 313 2009 
L 1997 2009 
L 1997 1497 
L 313 1497 
L 313 2009 
z
" transform="scale(0.015625)"/>
      <path id="DejaVuSans-4b" d="M 628 4666 
L 1259 4666 
L 1259 2694 
L 3353 4666 
L 4166 4666 
L 1850 2491 
L 4331 0 
L 3500 0 
L 1259 2247 
L 1259 0 
L 628 0 
L 628 4666 
z
" transform="scale(0.015625)"/>
      <path id="DejaVuSans-62" d="M 3116 1747 
Q 3116 2381 2855 2742 
Q 2594 3103 2138 3103 
Q 1681 3103 1420 2742 
Q 1159 2381 1159 1747 
Q 1159 1113 1420 752 
Q 1681 391 2138 391 
Q 2594 391 2855 752 
Q 3116 1113 3116 1747 
z
M 1159 2969 
Q 1341 3281 1617 3432 
Q 1894 3584 2278 3584 
Q 2916 3584 3314 3078 
Q 3713 2572 3713 1747 
Q 3713 922 3314 415 
Q 2916 -91 2278 -91 
Q 1894 -91 1617 61 
Q 1341 213 1159 525 
L 1159 0 
L 581 0 
L 581 4863 
L 1159 4863 
L 1159 2969 
z
" transform="scale(0.015625)"/>
      <path id="DejaVuSans-68" d="M 3513 2113 
L 3513 0 
L 2938 0 
L 2938 2094 
Q 2938 2591 2744 2837 
Q 2550 3084 2163 3084 
Q 1697 3084 1428 2787 
Q 1159 2491 1159 1978 
L 1159 0 
L 581 0 
L 581 4863 
L 1159 4863 
L 1159 2956 
Q 1366 3272 1645 3428 
Q 1925 3584 2291 3584 
Q 2894 3584 3203 3211 
Q 3513 2838 3513 2113 
z
" transform="scale(0.015625)"/>
      <path id="DejaVuSans-56" d="M 1831 0 
L 50 4666 
L 709 4666 
L 2188 738 
L 3669 4666 
L 4325 4666 
L 2547 0 
L 1831 0 
z
" transform="scale(0.015625)"/>
      <path id="DejaVuSans-bd" d="M 488 2431 
L 1125 2431 
L 1125 4341 
L 428 4213 
L 428 4575 
L 1147 4697 
L 1575 4697 
L 1575 2431 
L 2216 2431 
L 2216 2088 
L 488 2088 
L 488 2431 
z
M 4470 332 
L 5795 332 
L 5795 -24 
L 3926 -24 
L 3926 319 
Q 4032 416 4229 591 
Q 5304 1544 5304 1838 
Q 5304 2044 5141 2170 
Q 4979 2297 4713 2297 
Q 4551 2297 4360 2242 
Q 4170 2188 3945 2079 
L 3945 2463 
Q 4185 2551 4393 2594 
Q 4601 2638 4779 2638 
Q 5232 2638 5504 2432 
Q 5776 2226 5776 1888 
Q 5776 1454 4741 566 
Q 4566 416 4470 332 
z
M 4309 4750 
L 4809 4750 
L 1896 -91 
L 1396 -91 
L 4309 4750 
z
" transform="scale(0.015625)"/>
      <path id="DejaVuSans-47" d="M 3809 666 
L 3809 1919 
L 2778 1919 
L 2778 2438 
L 4434 2438 
L 4434 434 
Q 4069 175 3628 42 
Q 3188 -91 2688 -91 
Q 1594 -91 976 548 
Q 359 1188 359 2328 
Q 359 3472 976 4111 
Q 1594 4750 2688 4750 
Q 3144 4750 3555 4637 
Q 3966 4525 4313 4306 
L 4313 3634 
Q 3963 3931 3569 4081 
Q 3175 4231 2741 4231 
Q 1884 4231 1454 3753 
Q 1025 3275 1025 2328 
Q 1025 1384 1454 906 
Q 1884 428 2741 428 
Q 3075 428 3337 486 
Q 3600 544 3809 666 
z
" transform="scale(0.015625)"/>
      <path id="DejaVuSans-50" d="M 1259 4147 
L 1259 2394 
L 2053 2394 
Q 2494 2394 2734 2622 
Q 2975 2850 2975 3272 
Q 2975 3691 2734 3919 
Q 2494 4147 2053 4147 
L 1259 4147 
z
M 628 4666 
L 2053 4666 
Q 2838 4666 3239 4311 
Q 3641 3956 3641 3272 
Q 3641 2581 3239 2228 
Q 2838 1875 2053 1875 
L 1259 1875 
L 1259 0 
L 628 0 
L 628 4666 
z
" transform="scale(0.015625)"/>
     </defs>
     <use xlink:href="#DejaVuSans-43"/>
     <use xlink:href="#DejaVuSans-2b" transform="translate(69.824219 0)"/>
     <use xlink:href="#DejaVuSans-2b" transform="translate(153.613281 0)"/>
     <use xlink:href="#DejaVuSans-20" transform="translate(237.402344 0)"/>
     <use xlink:href="#DejaVuSans-69" transform="translate(269.189453 0)"/>
     <use xlink:href="#DejaVuSans-6d" transform="translate(296.972656 0)"/>
     <use xlink:href="#DejaVuSans-70" transform="translate(394.384766 0)"/>
     <use xlink:href="#DejaVuSans-6c" transform="translate(457.861328 0)"/>
     <use xlink:href="#DejaVuSans-65" transform="translate(485.644531 0)"/>
     <use xlink:href="#DejaVuSans-6d" transform="translate(547.167969 0)"/>
     <use xlink:href="#DejaVuSans-65" transform="translate(644.580078 0)"/>
     <use xlink:href="#DejaVuSans-6e" transform="translate(706.103516 0)"/>
     <use xlink:href="#DejaVuSans-74" transform="translate(769.482422 0)"/>
     <use xlink:href="#DejaVuSans-61" transform="translate(808.691406 0)"/>
     <use xlink:href="#DejaVuSans-74" transform="translate(869.970703 0)"/>
     <use xlink:href="#DejaVuSans-69" transform="translate(909.179688 0)"/>
     <use xlink:href="#DejaVuSans-6f" transform="translate(936.962891 0)"/>
     <use xlink:href="#DejaVuSans-6e" transform="translate(998.144531 0)"/>
     <use xlink:href="#DejaVuSans-73" transform="translate(1061.523438 0)"/>
     <use xlink:href="#DejaVuSans-20" transform="translate(1113.623047 0)"/>
     <use xlink:href="#DejaVuSans-6f" transform="translate(1145.410156 0)"/>
     <use xlink:href="#DejaVuSans-66" transform="translate(1206.591797 0)"/>
     <use xlink:href="#DejaVuSans-20" transform="translate(1241.796875 0)"/>
     <use xlink:href="#DejaVuSans-42" transform="translate(1273.583984 0)"/>
     <use xlink:href="#DejaVuSans-72" transform="translate(1342.1875 0)"/>
     <use xlink:href="#DejaVuSans-6f" transform="translate(1381.050781 0)"/>
     <use xlink:href="#DejaVuSans-6e" transform="translate(1442.232422 0)"/>
     <use xlink:href="#DejaVuSans-2d" transform="translate(1505.611328 0)"/>
     <use xlink:href="#DejaVuSans-4b" transform="translate(1541.695312 0)"/>
     <use xlink:href="#DejaVuSans-65" transform="translate(1602.271484 0)"/>
     <use xlink:href="#DejaVuSans-72" transform="translate(1663.794922 0)"/>
     <use xlink:href="#DejaVuSans-62" transform="translate(1704.908203 0)"/>
     <use xlink:href="#DejaVuSans-6f" transform="translate(1768.384766 0)"/>
     <use xlink:href="#DejaVuSans-73" transform="translate(1829.566406 0)"/>
     <use xlink:href="#DejaVuSans-63" transform="translate(1881.666016 0)"/>
     <use xlink:href="#DejaVuSans-68" transform="translate(1936.646484 0)"/>
     <use xlink:href="#DejaVuSans-20" transform="translate(2000.025391 0)"/>
     <use xlink:href="#DejaVuSans-56" transform="translate(2031.8125 0)"/>
     <use xlink:href="#DejaVuSans-65" transform="translate(2092.470703 0)"/>
     <use xlink:href="#DejaVuSans-72" transform="translate(2153.994141 0)"/>
     <use xlink:href="#DejaVuSans-33" transform="translate(2195.107422 0)"/>
     <use xlink:href="#DejaVuSans-bd" transform="translate(2258.730469 0)"/>
     <use xlink:href="#DejaVuSans-2d" transform="translate(2355.654297 0)"/>
     <use xlink:href="#DejaVuSans-47" transform="translate(2395.363281 0)"/>
     <use xlink:href="#DejaVuSans-50" transform="translate(2472.853516 0)"/>
     <use xlink:href="#DejaVuSans-20" transform="translate(2533.15625 0)"/>
     <use xlink:href="#DejaVuSans-6f" transform="translate(2564.943359 0)"/>
     <use xlink:href="#DejaVuSans-6e" transform="translate(2626.125 0)"/>
     <use xlink:href="#DejaVuSans-20" transform="translate(2689.503906 0)"/>
     <use xlink:href="#DejaVuSans-61" transform="translate(2721.291016 0)"/>
     <use xlink:href="#DejaVuSans-20" transform="translate(2782.570312 0)"/>
     <use xlink:href="#DejaVuSans-72" transform="translate(2814.357422 0)"/>
     <use xlink:href="#DejaVuSans-61" transform="translate(2855.470703 0)"/>
     <use xlink:href="#DejaVuSans-6e" transform="translate(2916.75 0)"/>
     <use xlink:href="#DejaVuSans-64" transform="translate(2980.128906 0)"/>
     <use xlink:href="#DejaVuSans-6f" transform="translate(3043.605469 0)"/>
     <use xlink:href="#DejaVuSans-6d" transform="translate(3104.787109 0)"/>
     <use xlink:href="#DejaVuSans-20" transform="translate(3202.199219 0)"/>
     <use xlink:href="#DejaVuSans-67" transform="translate(3233.986328 0)"/>
     <use xlink:href="#DejaVuSans-72" transform="translate(3297.462891 0)"/>
     <use xlink:href="#DejaVuSans-61" transform="translate(3338.576172 0)"/>
     <use xlink:href="#DejaVuSans-70" transform="translate(3399.855469 0)"/>
     <use xlink:href="#DejaVuSans-68" transform="translate(3463.332031 0)"/>
     <use xlink:href="#DejaVuSans-20" transform="translate(3526.710938 0)"/>
     <use xlink:href="#DejaVuSans-6f" transform="translate(3558.498047 0)"/>
     <use xlink:href="#DejaVuSans-66" transform="translate(3619.679688 0)"/>
     <use xlink:href="#DejaVuSans-20" transform="translate(3654.884766 0)"/>
     <use xlink:href="#DejaVuSans-6f" transform="translate(3686.671875 0)"/>
     <use xlink:href="#DejaVuSans-72" transform="translate(3747.853516 0)"/>
     <use xlink:href="#DejaVuSans-64" transform="translate(3787.216797 0)"/>
     <use xlink:href="#DejaVuSans-65" transform="translate(3850.693359 0)"/>
     <use xlink:href="#DejaVuSans-72" transform="translate(3912.216797 0)"/>
     <use xlink:href="#DejaVuSans-20" transform="translate(3953.330078 0)"/>
     <use xlink:href="#DejaVuSans-31" transform="translate(3985.117188 0)"/>
     <use xlink:href="#DejaVuSans-30" transform="translate(4048.740234 0)"/>
     <use xlink:href="#DejaVuSans-30" transform="translate(4112.363281 0)"/>
    </g>
   </g>
   <g id="legend_1">
    <g id="patch_7">
     <path d="M 54.72 79.470625 
L 126.015312 79.470625 
Q 128.015312 79.470625 128.015312 77.470625 
L 128.015312 33.88 
Q 128.015312 31.88 126.015312 31.88 
L 54.72 31.88 
Q 52.72 31.88 52.72 33.88 
L 52.72 77.470625 
Q 52.72 79.470625 54.72 79.470625 
z
" style="fill: #ffffff; opacity: 0.8; stroke: #cccccc; stroke-linejoin: miter"/>
    </g>
    <g id="LineCollection_4">
     <path d="M 66.72 44.978437 
L 66.72 34.978437 
" style="fill: none; stroke: #1f77b4; stroke-width: 1.5"/>
    </g>
    <g id="line2d_23">
     <g>
      <use xlink:href="#md8547b9e7e" x="66.72" y="44.978437" style="fill: #1f77b4; stroke: #1f77b4"/>
     </g>
    </g>
    <g id="line2d_24">
     <g>
      <use xlink:href="#md8547b9e7e" x="66.72" y="34.978437" style="fill: #1f77b4; stroke: #1f77b4"/>
     </g>
    </g>
    <g id="line2d_25">
     <path d="M 56.72 39.978437 
L 76.72 39.978437 
" style="fill: none; stroke: #1f77b4; stroke-width: 1.5; stroke-linecap: square"/>
    </g>
    <g id="line2d_26"/>
    <g id="text_17">
     <!-- hashset -->
     <g transform="translate(84.72 43.478437) scale(0.1 -0.1)">
      <use xlink:href="#DejaVuSans-68"/>
      <use xlink:href="#DejaVuSans-61" transform="translate(63.378906 0)"/>
      <use xlink:href="#DejaVuSans-73" transform="translate(124.658203 0)"/>
      <use xlink:href="#DejaVuSans-68" transform="translate(176.757812 0)"/>
      <use xlink:href="#DejaVuSans-73" transform="translate(240.136719 0)"/>
      <use xlink:href="#DejaVuSans-65" transform="translate(292.236328 0)"/>
      <use xlink:href="#DejaVuSans-74" transform="translate(353.759766 0)"/>
     </g>
    </g>
    <g id="LineCollection_5">
     <path d="M 66.72 59.656563 
L 66.72 49.656563 
" style="fill: none; stroke: #ff7f0e; stroke-width: 1.5"/>
    </g>
    <g id="line2d_27">
     <g>
      <use xlink:href="#m7f04267d81" x="66.72" y="59.656563" style="fill: #ff7f0e; stroke: #ff7f0e"/>
     </g>
    </g>
    <g id="line2d_28">
     <g>
      <use xlink:href="#m7f04267d81" x="66.72" y="49.656563" style="fill: #ff7f0e; stroke: #ff7f0e"/>
     </g>
    </g>
    <g id="line2d_29">
     <path d="M 56.72 54.656563 
L 76.72 54.656563 
" style="fill: none; stroke: #ff7f0e; stroke-width: 1.5; stroke-linecap: square"/>
    </g>
    <g id="line2d_30"/>
    <g id="text_18">
     <!-- std_set -->
     <g transform="translate(84.72 58.156563) scale(0.1 -0.1)">
      <defs>
       <path id="DejaVuSans-5f" d="M 3263 -1063 
L 3263 -1509 
L -63 -1509 
L -63 -1063 
L 3263 -1063 
z
" transform="scale(0.015625)"/>
      </defs>
      <use xlink:href="#DejaVuSans-73"/>
      <use xlink:href="#DejaVuSans-74" transform="translate(52.099609 0)"/>
      <use xlink:href="#DejaVuSans-64" transform="translate(91.308594 0)"/>
      <use xlink:href="#DejaVuSans-5f" transform="translate(154.785156 0)"/>
      <use xlink:href="#DejaVuSans-73" transform="translate(204.785156 0)"/>
      <use xlink:href="#DejaVuSans-65" transform="translate(256.884766 0)"/>
      <use xlink:href="#DejaVuSans-74" transform="translate(318.408203 0)"/>
     </g>
    </g>
    <g id="LineCollection_6">
     <path d="M 66.72 74.612812 
L 66.72 64.612812 
" style="fill: none; stroke: #2ca02c; stroke-width: 1.5"/>
    </g>
    <g id="line2d_31">
     <g>
      <use xlink:href="#mf3fc7103a7" x="66.72" y="74.612812" style="fill: #2ca02c; stroke: #2ca02c"/>
     </g>
    </g>
    <g id="line2d_32">
     <g>
      <use xlink:href="#mf3fc7103a7" x="66.72" y="64.612812" style="fill: #2ca02c; stroke: #2ca02c"/>
     </g>
    </g>
    <g id="line2d_33">
     <path d="M 56.72 69.612812 
L 76.72 69.612812 
" style="fill: none; stroke: #2ca02c; stroke-width: 1.5; stroke-linecap: square"/>
    </g>
    <g id="line2d_34"/>
    <g id="text_19">
     <!-- ord_vec -->
     <g transform="translate(84.72 73.112812) scale(0.1 -0.1)">
      <defs>
       <path id="DejaVuSans-76" d="M 191 3500 
L 800 3500 
L 1894 563 
L 2988 3500 
L 3597 3500 
L 2284 0 
L 1503 0 
L 191 3500 
z
" transform="scale(0.015625)"/>
      </defs>
      <use xlink:href="#DejaVuSans-6f"/>
      <use xlink:href="#DejaVuSans-72" transform="translate(61.181641 0)"/>
      <use xlink:href="#DejaVuSans-64" transform="translate(100.544922 0)"/>
      <use xlink:href="#DejaVuSans-5f" transform="translate(164.021484 0)"/>
      <use xlink:href="#DejaVuSans-76" transform="translate(214.021484 0)"/>
      <use xlink:href="#DejaVuSans-65" transform="translate(273.201172 0)"/>
      <use xlink:href="#DejaVuSans-63" transform="translate(334.724609 0)"/>
     </g>
    </g>
   </g>
  </g>
 </g>
 <defs>
  <clipPath id="pd2621ff3a7">
   <rect x="47.72" y="26.88" width="517.48" height="363.16"/>
  </clipPath>
 </defs>
</svg>
