<?xml version="1.0" encoding="utf-8" standalone="no"?>
<!DOCTYPE svg PUBLIC "-//W3C//DTD SVG 1.1//EN"
  "http://www.w3.org/Graphics/SVG/1.1/DTD/svg11.dtd">
<svg xmlns:xlink="http://www.w3.org/1999/xlink" width="576pt" height="432pt" viewBox="0 0 576 432" xmlns="http://www.w3.org/2000/svg" version="1.1">
 <metadata>
  <rdf:RDF xmlns:dc="http://purl.org/dc/elements/1.1/" xmlns:cc="http://creativecommons.org/ns#" xmlns:rdf="http://www.w3.org/1999/02/22-rdf-syntax-ns#">
   <cc:Work>
    <dc:type rdf:resource="http://purl.org/dc/dcmitype/StillImage"/>
    <dc:date>2026-02-23T21:20:14.648871</dc:date>
    <dc:format>image/svg+xml</dc:format>
    <dc:creator>
     <cc:Agent>
      <dc:title>Matplotlib v3.10.8, https://matplotlib.org/</dc:title>
     </cc:Agent>
    </dc:creator>
   </cc:Work>
  </rdf:RDF>
 </metadata>
 <defs>
  <style type="text/css">*{stroke-linejoin: round; stroke-linecap: butt}</style>
 </defs>
 <g id="figure_1">
  <g id="patch_1">
   <path d="M 0 432 
L 576 432 
L 576 0 
L 0 0 
z
" style="fill: #ffffff"/>
  </g>
  <g id="axes_1">
   <g id="patch_2">
    <path d="M 47.72 390.04 
L 565.2 390.04 
L 565.2 26.88 
L 47.72 26.88 
z
" style="fill: #ffffff"/>
   </g>
   <g id="matplotlib.axis_1">
    <g id="xtick_1">
     <g id="line2d_1">
      <defs>
       <path id="mc74f61fcfc" d="M 0 0 
L 0 3.5 
" style="stroke: #000000; stroke-width: 0.8"/>
      </defs>
      <g>
       <use xlink:href="#mc74f61fcfc" x="71.241818" y="390.04" style="stroke: #000000; stroke-width: 0.8"/>
      </g>
     </g>
     <g id="text_1">
      <!-- 2000 -->
      <g transform="translate(58.516818 404.638438) scale(0.1 -0.1)">
       <defs>
        <path id="DejaVuSans-32" d="M 1228 531 
L 3431 531 
L 3431 0 
L 469 0 
L 469 531 
Q 828 903 1448 1529 
Q 2069 2156 2228 2338 
Q 2531 2678 2651 2914 
Q 2772 3150 2772 3378 
Q 2772 3750 2511 3984 
Q 2250 4219 1831 4219 
Q 1534 4219 1204 4116 
Q 875 4013 500 3803 
L 500 4441 
Q 881 4594 1212 4672 
Q 1544 4750 1819 4750 
Q 2544 4750 2975 4387 
Q 3406 4025 3406 3419 
Q 3406 3131 3298 2873 
Q 3191 2616 2906 2266 
Q 2828 2175 2409 1742 
Q 1991 1309 1228 531 
z
" transform="scale(0.015625)"/>
        <path id="DejaVuSans-30" d="M 2034 4250 
Q 1547 4250 1301 3770 
Q 1056 3291 1056 2328 
Q 1056 1369 1301 889 
Q 1547 409 2034 409 
Q 2525 409 2770 889 
Q 3016 1369 3016 2328 
Q 3016 3291 2770 3770 
Q 2525 4250 2034 4250 
z
M 2034 4750 
Q 2819 4750 3233 4129 
Q 3647 3509 3647 2328 
Q 3647 1150 3233 529 
Q 2819 -91 2034 -91 
Q 1250 -91 836 529 
Q 422 1150 422 2328 
Q 422 3509 836 4129 
Q 1250 4750 2034 4750 
z
" transform="scale(0.015625)"/>
       </defs>
       <use xlink:href="#DejaVuSans-32"/>
       <use xlink:href="#DejaVuSans-30" transform="translate(63.623047 0)"/>
       <use xlink:href="#DejaVuSans-30" transform="translate(127.246094 0)"/>
       <use xlink:href="#DejaVuSans-30" transform="translate(190.869141 0)"/>
      </g>
     </g>
    </g>
    <g id="xtick_2">
     <g id="line2d_2">
      <g>
       <use xlink:href="#mc74f61fcfc" x="165.329091" y="390.04" style="stroke: #000000; stroke-width: 0.8"/>
      </g>
     </g>
     <g id="text_2">
      <!-- 2200 -->
      <g transform="translate(152.604091 404.638438) scale(0.1 -0.1)">
       <use xlink:href="#DejaVuSans-32"/>
       <use xlink:href="#DejaVuSans-32" transform="translate(63.623047 0)"/>
       <use xlink:href="#DejaVuSans-30" transform="translate(127.246094 0)"/>
       <use xlink:href="#DejaVuSans-30" transform="translate(190.869141 0)"/>
      </g>
     </g>
    </g>
    <g id="xtick_3">
     <g id="line2d_3">
      <g>
       <use xlink:href="#mc74f61fcfc" x="259.416364" y="390.04" style="stroke: #000000; stroke-width: 0.8"/>
      </g>
     </g>
     <g id="text_3">
      <!-- 2400 -->
      <g transform="translate(246.691364 404.638438) scale(0.1 -0.1)">
       <defs>
        <path id="DejaVuSans-34" d="M 2419 4116 
L 825 1625 
L 2419 1625 
L 2419 4116 
z
M 2253 4666 
L 3047 4666 
L 3047 1625 
L 3713 1625 
L 3713 1100 
L 3047 1100 
L 3047 0 
L 2419 0 
L 2419 1100 
L 313 1100 
L 313 1709 
L 2253 4666 
z
" transform="scale(0.015625)"/>
       </defs>
       <use xlink:href="#DejaVuSans-32"/>
       <use xlink:href="#DejaVuSans-34" transform="translate(63.623047 0)"/>
       <use xlink:href="#DejaVuSans-30" transform="translate(127.246094 0)"/>
       <use xlink:href="#DejaVuSans-30" transform="translate(190.869141 0)"/>
      </g>
     </g>
    </g>
    <g id="xtick_4">
     <g id="line2d_4">
      <g>
       <use xlink:href="#mc74f61fcfc" x="353.503636" y="390.04" style="stroke: #000000; stroke-width: 0.8"/>
      </g>
     </g>
     <g id="text_4">
      <!-- 2600 -->
      <g transform="translate(340.778636 404.638438) scale(0.1 -0.1)">
       <defs>
        <path id="DejaVuSans-36" d="M 2113 2584 
Q 1688 2584 1439 2293 
Q 1191 2003 1191 1497 
Q 1191 994 1439 701 
Q 1688 409 2113 409 
Q 2538 409 2786 701 
Q 3034 994 3034 1497 
Q 3034 2003 2786 2293 
Q 2538 2584 2113 2584 
z
M 3366 4563 
L 3366 3988 
Q 3128 4100 2886 4159 
Q 2644 4219 2406 4219 
Q 1781 4219 1451 3797 
Q 1122 3375 1075 2522 
Q 1259 2794 1537 2939 
Q 1816 3084 2150 3084 
Q 2853 3084 3261 2657 
Q 3669 2231 3669 1497 
Q 3669 778 3244 343 
Q 2819 -91 2113 -91 
Q 1303 -91 875 529 
Q 447 1150 447 2328 
Q 447 3434 972 4092 
Q 1497 4750 2381 4750 
Q 2619 4750 2861 4703 
Q 3103 4656 3366 4563 
z
" transform="scale(0.015625)"/>
       </defs>
       <use xlink:href="#DejaVuSans-32"/>
       <use xlink:href="#DejaVuSans-36" transform="translate(63.623047 0)"/>
       <use xlink:href="#DejaVuSans-30" transform="translate(127.246094 0)"/>
       <use xlink:href="#DejaVuSans-30" transform="translate(190.869141 0)"/>
      </g>
     </g>
    </g>
    <g id="xtick_5">
     <g id="line2d_5">
      <g>
       <use xlink:href="#mc74f61fcfc" x="447.590909" y="390.04" style="stroke: #000000; stroke-width: 0.8"/>
      </g>
     </g>
     <g id="text_5">
      <!-- 2800 -->
      <g transform="translate(434.865909 404.638438) scale(0.1 -0.1)">
       <defs>
        <path id="DejaVuSans-38" d="M 2034 2216 
Q 1584 2216 1326 1975 
Q 1069 1734 1069 1313 
Q 1069 891 1326 650 
Q 1584 409 2034 409 
Q 2484 409 2743 651 
Q 3003 894 3003 1313 
Q 3003 1734 2745 1975 
Q 2488 2216 2034 2216 
z
M 1403 2484 
Q 997 2584 770 2862 
Q 544 3141 544 3541 
Q 544 4100 942 4425 
Q 1341 4750 2034 4750 
Q 2731 4750 3128 4425 
Q 3525 4100 3525 3541 
Q 3525 3141 3298 2862 
Q 3072 2584 2669 2484 
Q 3125 2378 3379 2068 
Q 3634 1759 3634 1313 
Q 3634 634 3220 271 
Q 2806 -91 2034 -91 
Q 1263 -91 848 271 
Q 434 634 434 1313 
Q 434 1759 690 2068 
Q 947 2378 1403 2484 
z
M 1172 3481 
Q 1172 3119 1398 2916 
Q 1625 2713 2034 2713 
Q 2441 2713 2670 2916 
Q 2900 3119 2900 3481 
Q 2900 3844 2670 4047 
Q 2441 4250 2034 4250 
Q 1625 4250 1398 4047 
Q 1172 3844 1172 3481 
z
" transform="scale(0.015625)"/>
       </defs>
       <use xlink:href="#DejaVuSans-32"/>
       <use xlink:href="#DejaVuSans-38" transform="translate(63.623047 0)"/>
       <use xlink:href="#DejaVuSans-30" transform="translate(127.246094 0)"/>
       <use xlink:href="#DejaVuSans-30" transform="translate(190.869141 0)"/>
      </g>
     </g>
    </g>
    <g id="xtick_6">
     <g id="line2d_6">
      <g>
       <use xlink:href="#mc74f61fcfc" x="541.678182" y="390.04" style="stroke: #000000; stroke-width: 0.8"/>
      </g>
     </g>
     <g id="text_6">
      <!-- 3000 -->
      <g transform="translate(528.953182 404.638438) scale(0.1 -0.1)">
       <defs>
        <path id="DejaVuSans-33" d="M 2597 2516 
Q 3050 2419 3304 2112 
Q 3559 1806 3559 1356 
Q 3559 666 3084 287 
Q 2609 -91 1734 -91 
Q 1441 -91 1130 -33 
Q 819 25 488 141 
L 488 750 
Q 750 597 1062 519 
Q 1375 441 1716 441 
Q 2309 441 2620 675 
Q 2931 909 2931 1356 
Q 2931 1769 2642 2001 
Q 2353 2234 1838 2234 
L 1294 2234 
L 1294 2753 
L 1863 2753 
Q 2328 2753 2575 2939 
Q 2822 3125 2822 3475 
Q 2822 3834 2567 4026 
Q 2313 4219 1838 4219 
Q 1578 4219 1281 4162 
Q 984 4106 628 3988 
L 628 4550 
Q 988 4650 1302 4700 
Q 1616 4750 1894 4750 
Q 2613 4750 3031 4423 
Q 3450 4097 3450 3541 
Q 3450 3153 3228 2886 
Q 3006 2619 2597 2516 
z
" transform="scale(0.015625)"/>
       </defs>
       <use xlink:href="#DejaVuSans-33"/>
       <use xlink:href="#DejaVuSans-30" transform="translate(63.623047 0)"/>
       <use xlink:href="#DejaVuSans-30" transform="translate(127.246094 0)"/>
       <use xlink:href="#DejaVuSans-30" transform="translate(190.869141 0)"/>
      </g>
     </g>
    </g>
    <g id="text_7">
     <!-- Size (#edges) -->
     <g transform="translate(271.409219 418.316562) scale(0.1 -0.1)">
      <defs>
       <path id="DejaVuSans-53" d="M 3425 4513 
L 3425 3897 
Q 3066 4069 2747 4153 
Q 2428 4238 2131 4238 
Q 1616 4238 1336 4038 
Q 1056 3838 1056 3469 
Q 1056 3159 1242 3001 
Q 1428 2844 1947 2747 
L 2328 2669 
Q 3034 2534 3370 2195 
Q 3706 1856 3706 1288 
Q 3706 609 3251 259 
Q 2797 -91 1919 -91 
Q 1588 -91 1214 -16 
Q 841 59 441 206 
L 441 856 
Q 825 641 1194 531 
Q 1563 422 1919 422 
Q 2459 422 2753 634 
Q 3047 847 3047 1241 
Q 3047 1584 2836 1778 
Q 2625 1972 2144 2069 
L 1759 2144 
Q 1053 2284 737 2584 
Q 422 2884 422 3419 
Q 422 4038 858 4394 
Q 1294 4750 2059 4750 
Q 2388 4750 2728 4690 
Q 3069 4631 3425 4513 
z
" transform="scale(0.015625)"/>
       <path id="DejaVuSans-69" d="M 603 3500 
L 1178 3500 
L 1178 0 
L 603 0 
L 603 3500 
z
M 603 4863 
L 1178 4863 
L 1178 4134 
L 603 4134 
L 603 4863 
z
" transform="scale(0.015625)"/>
       <path id="DejaVuSans-7a" d="M 353 3500 
L 3084 3500 
L 3084 2975 
L 922 459 
L 3084 459 
L 3084 0 
L 275 0 
L 275 525 
L 2438 3041 
L 353 3041 
L 353 3500 
z
" transform="scale(0.015625)"/>
       <path id="DejaVuSans-65" d="M 3597 1894 
L 3597 1613 
L 953 1613 
Q 991 1019 1311 708 
Q 1631 397 2203 397 
Q 2534 397 2845 478 
Q 3156 559 3463 722 
L 3463 178 
Q 3153 47 2828 -22 
Q 2503 -91 2169 -91 
Q 1331 -91 842 396 
Q 353 884 353 1716 
Q 353 2575 817 3079 
Q 1281 3584 2069 3584 
Q 2775 3584 3186 3129 
Q 3597 2675 3597 1894 
z
M 3022 2063 
Q 3016 2534 2758 2815 
Q 2500 3097 2075 3097 
Q 1594 3097 1305 2825 
Q 1016 2553 972 2059 
L 3022 2063 
z
" transform="scale(0.015625)"/>
       <path id="DejaVuSans-20" transform="scale(0.015625)"/>
       <path id="DejaVuSans-28" d="M 1984 4856 
Q 1566 4138 1362 3434 
Q 1159 2731 1159 2009 
Q 1159 1288 1364 580 
Q 1569 -128 1984 -844 
L 1484 -844 
Q 1016 -109 783 600 
Q 550 1309 550 2009 
Q 550 2706 781 3412 
Q 1013 4119 1484 4856 
L 1984 4856 
z
" transform="scale(0.015625)"/>
       <path id="DejaVuSans-23" d="M 3272 2816 
L 2363 2816 
L 2100 1772 
L 3016 1772 
L 3272 2816 
z
M 2803 4594 
L 2478 3297 
L 3391 3297 
L 3719 4594 
L 4219 4594 
L 3897 3297 
L 4872 3297 
L 4872 2816 
L 3775 2816 
L 3519 1772 
L 4513 1772 
L 4513 1294 
L 3397 1294 
L 3072 0 
L 2572 0 
L 2894 1294 
L 1978 1294 
L 1656 0 
L 1153 0 
L 1478 1294 
L 494 1294 
L 494 1772 
L 1594 1772 
L 1856 2816 
L 850 2816 
L 850 3297 
L 1978 3297 
L 2297 4594 
L 2803 4594 
z
" transform="scale(0.015625)"/>
       <path id="DejaVuSans-64" d="M 2906 2969 
L 2906 4863 
L 3481 4863 
L 3481 0 
L 2906 0 
L 2906 525 
Q 2725 213 2448 61 
Q 2172 -91 1784 -91 
Q 1150 -91 751 415 
Q 353 922 353 1747 
Q 353 2572 751 3078 
Q 1150 3584 1784 3584 
Q 2172 3584 2448 3432 
Q 2725 3281 2906 2969 
z
M 947 1747 
Q 947 1113 1208 752 
Q 1469 391 1925 391 
Q 2381 391 2643 752 
Q 2906 1113 2906 1747 
Q 2906 2381 2643 2742 
Q 2381 3103 1925 3103 
Q 1469 3103 1208 2742 
Q 947 2381 947 1747 
z
" transform="scale(0.015625)"/>
       <path id="DejaVuSans-67" d="M 2906 1791 
Q 2906 2416 2648 2759 
Q 2391 3103 1925 3103 
Q 1463 3103 1205 2759 
Q 947 2416 947 1791 
Q 947 1169 1205 825 
Q 1463 481 1925 481 
Q 2391 481 2648 825 
Q 2906 1169 2906 1791 
z
M 3481 434 
Q 3481 -459 3084 -895 
Q 2688 -1331 1869 -1331 
Q 1566 -1331 1297 -1286 
Q 1028 -1241 775 -1147 
L 775 -588 
Q 1028 -725 1275 -790 
Q 1522 -856 1778 -856 
Q 2344 -856 2625 -561 
Q 2906 -266 2906 331 
L 2906 616 
Q 2728 306 2450 153 
Q 2172 0 1784 0 
Q 1141 0 747 490 
Q 353 981 353 1791 
Q 353 2603 747 3093 
Q 1141 3584 1784 3584 
Q 2172 3584 2450 3431 
Q 2728 3278 2906 2969 
L 2906 3500 
L 3481 3500 
L 3481 434 
z
" transform="scale(0.015625)"/>
       <path id="DejaVuSans-73" d="M 2834 3397 
L 2834 2853 
Q 2591 2978 2328 3040 
Q 2066 3103 1784 3103 
Q 1356 3103 1142 2972 
Q 928 2841 928 2578 
Q 928 2378 1081 2264 
Q 1234 2150 1697 2047 
L 1894 2003 
Q 2506 1872 2764 1633 
Q 3022 1394 3022 966 
Q 3022 478 2636 193 
Q 2250 -91 1575 -91 
Q 1294 -91 989 -36 
Q 684 19 347 128 
L 347 722 
Q 666 556 975 473 
Q 1284 391 1588 391 
Q 1994 391 2212 530 
Q 2431 669 2431 922 
Q 2431 1156 2273 1281 
Q 2116 1406 1581 1522 
L 1381 1569 
Q 847 1681 609 1914 
Q 372 2147 372 2553 
Q 372 3047 722 3315 
Q 1072 3584 1716 3584 
Q 2034 3584 2315 3537 
Q 2597 3491 2834 3397 
z
" transform="scale(0.015625)"/>
       <path id="DejaVuSans-29" d="M 513 4856 
L 1013 4856 
Q 1481 4119 1714 3412 
Q 1947 2706 1947 2009 
Q 1947 1309 1714 600 
Q 1481 -109 1013 -844 
L 513 -844 
Q 928 -128 1133 580 
Q 1338 1288 1338 2009 
Q 1338 2731 1133 3434 
Q 928 4138 513 4856 
z
" transform="scale(0.015625)"/>
      </defs>
      <use xlink:href="#DejaVuSans-53"/>
      <use xlink:href="#DejaVuSans-69" transform="translate(63.476562 0)"/>
      <use xlink:href="#DejaVuSans-7a" transform="translate(91.259766 0)"/>
      <use xlink:href="#DejaVuSans-65" transform="translate(143.75 0)"/>
      <use xlink:href="#DejaVuSans-20" transform="translate(205.273438 0)"/>
      <use xlink:href="#DejaVuSans-28" transform="translate(237.060547 0)"/>
      <use xlink:href="#DejaVuSans-23" transform="translate(276.074219 0)"/>
      <use xlink:href="#DejaVuSans-65" transform="translate(359.863281 0)"/>
      <use xlink:href="#DejaVuSans-64" transform="translate(421.386719 0)"/>
      <use xlink:href="#DejaVuSans-67" transform="translate(484.863281 0)"/>
      <use xlink:href="#DejaVuSans-65" transform="translate(548.339844 0)"/>
      <use xlink:href="#DejaVuSans-73" transform="translate(609.863281 0)"/>
      <use xlink:href="#DejaVuSans-29" transform="translate(661.962891 0)"/>
     </g>
    </g>
   </g>
   <g id="matplotlib.axis_2">
    <g id="ytick_1">
     <g id="line2d_7">
      <defs>
       <path id="m7eb1c47a8f" d="M 0 0 
L -3.5 0 
" style="stroke: #000000; stroke-width: 0.8"/>
      </defs>
      <g>
       <use xlink:href="#m7eb1c47a8f" x="47.72" y="376.079835" style="stroke: #000000; stroke-width: 0.8"/>
      </g>
     </g>
     <g id="text_8">
      <!-- 0.0 -->
      <g transform="translate(24.816875 379.879053) scale(0.1 -0.1)">
       <defs>
        <path id="DejaVuSans-2e" d="M 684 794 
L 1344 794 
L 1344 0 
L 684 0 
L 684 794 
z
" transform="scale(0.015625)"/>
       </defs>
       <use xlink:href="#DejaVuSans-30"/>
       <use xlink:href="#DejaVuSans-2e" transform="translate(63.623047 0)"/>
       <use xlink:href="#DejaVuSans-30" transform="translate(95.410156 0)"/>
      </g>
     </g>
    </g>
    <g id="ytick_2">
     <g id="line2d_8">
      <g>
       <use xlink:href="#m7eb1c47a8f" x="47.72" y="307.61105" style="stroke: #000000; stroke-width: 0.8"/>
      </g>
     </g>
     <g id="text_9">
      <!-- 0.2 -->
      <g transform="translate(24.816875 311.410269) scale(0.1 -0.1)">
       <use xlink:href="#DejaVuSans-30"/>
       <use xlink:href="#DejaVuSans-2e" transform="translate(63.623047 0)"/>
       <use xlink:href="#DejaVuSans-32" transform="translate(95.410156 0)"/>
      </g>
     </g>
    </g>
    <g id="ytick_3">
     <g id="line2d_9">
      <g>
       <use xlink:href="#m7eb1c47a8f" x="47.72" y="239.142266" style="stroke: #000000; stroke-width: 0.8"/>
      </g>
     </g>
     <g id="text_10">
      <!-- 0.4 -->
      <g transform="translate(24.816875 242.941485) scale(0.1 -0.1)">
       <use xlink:href="#DejaVuSans-30"/>
       <use xlink:href="#DejaVuSans-2e" transform="translate(63.623047 0)"/>
       <use xlink:href="#DejaVuSans-34" transform="translate(95.410156 0)"/>
      </g>
     </g>
    </g>
    <g id="ytick_4">
     <g id="line2d_10">
      <g>
       <use xlink:href="#m7eb1c47a8f" x="47.72" y="170.673482" style="stroke: #000000; stroke-width: 0.8"/>
      </g>
     </g>
     <g id="text_11">
      <!-- 0.6 -->
      <g transform="translate(24.816875 174.4727) scale(0.1 -0.1)">
       <use xlink:href="#DejaVuSans-30"/>
       <use xlink:href="#DejaVuSans-2e" transform="translate(63.623047 0)"/>
       <use xlink:href="#DejaVuSans-36" transform="translate(95.410156 0)"/>
      </g>
     </g>
    </g>
    <g id="ytick_5">
     <g id="line2d_11">
      <g>
       <use xlink:href="#m7eb1c47a8f" x="47.72" y="102.204697" style="stroke: #000000; stroke-width: 0.8"/>
      </g>
     </g>
     <g id="text_12">
      <!-- 0.8 -->
      <g transform="translate(24.816875 106.003916) scale(0.1 -0.1)">
       <use xlink:href="#DejaVuSans-30"/>
       <use xlink:href="#DejaVuSans-2e" transform="translate(63.623047 0)"/>
       <use xlink:href="#DejaVuSans-38" transform="translate(95.410156 0)"/>
      </g>
     </g>
    </g>
    <g id="ytick_6">
     <g id="line2d_12">
      <g>
       <use xlink:href="#m7eb1c47a8f" x="47.72" y="33.735913" style="stroke: #000000; stroke-width: 0.8"/>
      </g>
     </g>
     <g id="text_13">
      <!-- 1.0 -->
      <g transform="translate(24.816875 37.535132) scale(0.1 -0.1)">
       <defs>
        <path id="DejaVuSans-31" d="M 794 531 
L 1825 531 
L 1825 4091 
L 703 3866 
L 703 4441 
L 1819 4666 
L 2450 4666 
L 2450 531 
L 3481 531 
L 3481 0 
L 794 0 
L 794 531 
z
" transform="scale(0.015625)"/>
       </defs>
       <use xlink:href="#DejaVuSans-31"/>
       <use xlink:href="#DejaVuSans-2e" transform="translate(63.623047 0)"/>
       <use xlink:href="#DejaVuSans-30" transform="translate(95.410156 0)"/>
      </g>
     </g>
    </g>
    <g id="text_14">
     <!-- Seconds spent -->
     <g transform="translate(18.737187 245.040469) rotate(-90) scale(0.1 -0.1)">
      <defs>
       <path id="DejaVuSans-63" d="M 3122 3366 
L 3122 2828 
Q 2878 2963 2633 3030 
Q 2388 3097 2138 3097 
Q 1578 3097 1268 2742 
Q 959 2388 959 1747 
Q 959 1106 1268 751 
Q 1578 397 2138 397 
Q 2388 397 2633 464 
Q 2878 531 3122 666 
L 3122 134 
Q 2881 22 2623 -34 
Q 2366 -91 2075 -91 
Q 1284 -91 818 406 
Q 353 903 353 1747 
Q 353 2603 823 3093 
Q 1294 3584 2113 3584 
Q 2378 3584 2631 3529 
Q 2884 3475 3122 3366 
z
" transform="scale(0.015625)"/>
       <path id="DejaVuSans-6f" d="M 1959 3097 
Q 1497 3097 1228 2736 
Q 959 2375 959 1747 
Q 959 1119 1226 758 
Q 1494 397 1959 397 
Q 2419 397 2687 759 
Q 2956 1122 2956 1747 
Q 2956 2369 2687 2733 
Q 2419 3097 1959 3097 
z
M 1959 3584 
Q 2709 3584 3137 3096 
Q 3566 2609 3566 1747 
Q 3566 888 3137 398 
Q 2709 -91 1959 -91 
Q 1206 -91 779 398 
Q 353 888 353 1747 
Q 353 2609 779 3096 
Q 1206 3584 1959 3584 
z
" transform="scale(0.015625)"/>
       <path id="DejaVuSans-6e" d="M 3513 2113 
L 3513 0 
L 2938 0 
L 2938 2094 
Q 2938 2591 2744 2837 
Q 2550 3084 2163 3084 
Q 1697 3084 1428 2787 
Q 1159 2491 1159 1978 
L 1159 0 
L 581 0 
L 581 3500 
L 1159 3500 
L 1159 2956 
Q 1366 3272 1645 3428 
Q 1925 3584 2291 3584 
Q 2894 3584 3203 3211 
Q 3513 2838 3513 2113 
z
" transform="scale(0.015625)"/>
       <path id="DejaVuSans-70" d="M 1159 525 
L 1159 -1331 
L 581 -1331 
L 581 3500 
L 1159 3500 
L 1159 2969 
Q 1341 3281 1617 3432 
Q 1894 3584 2278 3584 
Q 2916 3584 3314 3078 
Q 3713 2572 3713 1747 
Q 3713 922 3314 415 
Q 2916 -91 2278 -91 
Q 1894 -91 1617 61 
Q 1341 213 1159 525 
z
M 3116 1747 
Q 3116 2381 2855 2742 
Q 2594 3103 2138 3103 
Q 1681 3103 1420 2742 
Q 1159 2381 1159 1747 
Q 1159 1113 1420 752 
Q 1681 391 2138 391 
Q 2594 391 2855 752 
Q 3116 1113 3116 1747 
z
" transform="scale(0.015625)"/>
       <path id="DejaVuSans-74" d="M 1172 4494 
L 1172 3500 
L 2356 3500 
L 2356 3053 
L 1172 3053 
L 1172 1153 
Q 1172 725 1289 603 
Q 1406 481 1766 481 
L 2356 481 
L 2356 0 
L 1766 0 
Q 1100 0 847 248 
Q 594 497 594 1153 
L 594 3053 
L 172 3053 
L 172 3500 
L 594 3500 
L 594 4494 
L 1172 4494 
z
" transform="scale(0.015625)"/>
      </defs>
      <use xlink:href="#DejaVuSans-53"/>
      <use xlink:href="#DejaVuSans-65" transform="translate(63.476562 0)"/>
      <use xlink:href="#DejaVuSans-63" transform="translate(125 0)"/>
      <use xlink:href="#DejaVuSans-6f" transform="translate(179.980469 0)"/>
      <use xlink:href="#DejaVuSans-6e" transform="translate(241.162109 0)"/>
      <use xlink:href="#DejaVuSans-64" transform="translate(304.541016 0)"/>
      <use xlink:href="#DejaVuSans-73" transform="translate(368.017578 0)"/>
      <use xlink:href="#DejaVuSans-20" transform="translate(420.117188 0)"/>
      <use xlink:href="#DejaVuSans-73" transform="translate(451.904297 0)"/>
      <use xlink:href="#DejaVuSans-70" transform="translate(504.003906 0)"/>
      <use xlink:href="#DejaVuSans-65" transform="translate(567.480469 0)"/>
      <use xlink:href="#DejaVuSans-6e" transform="translate(629.003906 0)"/>
      <use xlink:href="#DejaVuSans-74" transform="translate(692.382812 0)"/>
     </g>
    </g>
   </g>
   <g id="LineCollection_1">
    <path d="M 71.241818 369.458218 
L 71.241818 368.010104 
" clip-path="url(#pd2621ff3a7)" style="fill: none; stroke: #009933; stroke-width: 1.5"/>
    <path d="M 94.763636 368.51061 
L 94.763636 368.270627 
" clip-path="url(#pd2621ff3a7)" style="fill: none; stroke: #009933; stroke-width: 1.5"/>
    <path d="M 118.285455 367.302136 
L 118.285455 366.001229 
" clip-path="url(#pd2621ff3a7)" style="fill: none; stroke: #009933; stroke-width: 1.5"/>
    <path d="M 141.807273 365.799589 
L 141.807273 364.945098 
" clip-path="url(#pd2621ff3a7)" style="fill: none; stroke: #009933; stroke-width: 1.5"/>
    <path d="M 165.329091 363.709922 
L 165.329091 363.278911 
" clip-path="url(#pd2621ff3a7)" style="fill: none; stroke: #009933; stroke-width: 1.5"/>
    <path d="M 188.850909 361.225532 
L 188.850909 360.333726 
" clip-path="url(#pd2621ff3a7)" style="fill: none; stroke: #009933; stroke-width: 1.5"/>
    <path d="M 212.372727 358.819196 
L 212.372727 358.133481 
" clip-path="url(#pd2621ff3a7)" style="fill: none; stroke: #009933; stroke-width: 1.5"/>
    <path d="M 235.894545 354.844241 
L 235.894545 353.91957 
" clip-path="url(#pd2621ff3a7)" style="fill: none; stroke: #009933; stroke-width: 1.5"/>
    <path d="M 259.416364 351.105503 
L 259.416364 350.065805 
" clip-path="url(#pd2621ff3a7)" style="fill: none; stroke: #009933; stroke-width: 1.5"/>
    <path d="M 282.938182 346.414364 
L 282.938182 345.245945 
" clip-path="url(#pd2621ff3a7)" style="fill: none; stroke: #009933; stroke-width: 1.5"/>
    <path d="M 306.46 341.201493 
L 306.46 340.031362 
" clip-path="url(#pd2621ff3a7)" style="fill: none; stroke: #009933; stroke-width: 1.5"/>
    <path d="M 329.981818 333.701765 
L 329.981818 332.496715 
" clip-path="url(#pd2621ff3a7)" style="fill: none; stroke: #009933; stroke-width: 1.5"/>
    <path d="M 353.503636 324.080874 
L 353.503636 323.132239 
" clip-path="url(#pd2621ff3a7)" style="fill: none; stroke: #009933; stroke-width: 1.5"/>
    <path d="M 377.025455 313.026931 
L 377.025455 312.563055 
" clip-path="url(#pd2621ff3a7)" style="fill: none; stroke: #009933; stroke-width: 1.5"/>
    <path d="M 400.547273 301.229759 
L 400.547273 295.521517 
" clip-path="url(#pd2621ff3a7)" style="fill: none; stroke: #009933; stroke-width: 1.5"/>
    <path d="M 424.069091 281.951004 
L 424.069091 281.370046 
" clip-path="url(#pd2621ff3a7)" style="fill: none; stroke: #009933; stroke-width: 1.5"/>
    <path d="M 447.590909 259.294341 
L 447.590909 258.012948 
" clip-path="url(#pd2621ff3a7)" style="fill: none; stroke: #009933; stroke-width: 1.5"/>
    <path d="M 471.112727 222.119214 
L 471.112727 216.280196 
" clip-path="url(#pd2621ff3a7)" style="fill: none; stroke: #009933; stroke-width: 1.5"/>
    <path d="M 494.634545 173.533765 
L 494.634545 171.993902 
" clip-path="url(#pd2621ff3a7)" style="fill: none; stroke: #009933; stroke-width: 1.5"/>
    <path d="M 518.156364 118.721764 
L 518.156364 110.546934 
" clip-path="url(#pd2621ff3a7)" style="fill: none; stroke: #009933; stroke-width: 1.5"/>
    <path d="M 541.678182 51.137939 
L 541.678182 43.387273 
" clip-path="url(#pd2621ff3a7)" style="fill: none; stroke: #009933; stroke-width: 1.5"/>
   </g>
   <g id="line2d_13">
    <defs>
     <path id="m567d63a80a" d="M 3 0 
L -3 -0 
" style="stroke: #009933"/>
    </defs>
    <g clip-path="url(#pd2621ff3a7)">
     <use xlink:href="#m567d63a80a" x="71.241818" y="369.458218" style="fill: #009933; stroke: #009933"/>
     <use xlink:href="#m567d63a80a" x="94.763636" y="368.51061" style="fill: #009933; stroke: #009933"/>
     <use xlink:href="#m567d63a80a" x="118.285455" y="367.302136" style="fill: #009933; stroke: #009933"/>
     <use xlink:href="#m567d63a80a" x="141.807273" y="365.799589" style="fill: #009933; stroke: #009933"/>
     <use xlink:href="#m567d63a80a" x="165.329091" y="363.709922" style="fill: #009933; stroke: #009933"/>
     <use xlink:href="#m567d63a80a" x="188.850909" y="361.225532" style="fill: #009933; stroke: #009933"/>
     <use xlink:href="#m567d63a80a" x="212.372727" y="358.819196" style="fill: #009933; stroke: #009933"/>
     <use xlink:href="#m567d63a80a" x="235.894545" y="354.844241" style="fill: #009933; stroke: #009933"/>
     <use xlink:href="#m567d63a80a" x="259.416364" y="351.105503" style="fill: #009933; stroke: #009933"/>
     <use xlink:href="#m567d63a80a" x="282.938182" y="346.414364" style="fill: #009933; stroke: #009933"/>
     <use xlink:href="#m567d63a80a" x="306.46" y="341.201493" style="fill: #009933; stroke: #009933"/>
     <use xlink:href="#m567d63a80a" x="329.981818" y="333.701765" style="fill: #009933; stroke: #009933"/>
     <use xlink:href="#m567d63a80a" x="353.503636" y="324.080874" style="fill: #009933; stroke: #009933"/>
     <use xlink:href="#m567d63a80a" x="377.025455" y="313.026931" style="fill: #009933; stroke: #009933"/>
     <use xlink:href="#m567d63a80a" x="400.547273" y="301.229759" style="fill: #009933; stroke: #009933"/>
     <use xlink:href="#m567d63a80a" x="424.069091" y="281.951004" style="fill: #009933; stroke: #009933"/>
     <use xlink:href="#m567d63a80a" x="447.590909" y="259.294341" style="fill: #009933; stroke: #009933"/>
     <use xlink:href="#m567d63a80a" x="471.112727" y="222.119214" style="fill: #009933; stroke: #009933"/>
     <use xlink:href="#m567d63a80a" x="494.634545" y="173.533765" style="fill: #009933; stroke: #009933"/>
     <use xlink:href="#m567d63a80a" x="518.156364" y="118.721764" style="fill: #009933; stroke: #009933"/>
     <use xlink:href="#m567d63a80a" x="541.678182" y="51.137939" style="fill: #009933; stroke: #009933"/>
    </g>
   </g>
   <g id="line2d_14">
    <g clip-path="url(#pd2621ff3a7)">
     <use xlink:href="#m567d63a80a" x="71.241818" y="368.010104" style="fill: #009933; stroke: #009933"/>
     <use xlink:href="#m567d63a80a" x="94.763636" y="368.270627" style="fill: #009933; stroke: #009933"/>
     <use xlink:href="#m567d63a80a" x="118.285455" y="366.001229" style="fill: #009933; stroke: #009933"/>
     <use xlink:href="#m567d63a80a" x="141.807273" y="364.945098" style="fill: #009933; stroke: #009933"/>
     <use xlink:href="#m567d63a80a" x="165.329091" y="363.278911" style="fill: #009933; stroke: #009933"/>
     <use xlink:href="#m567d63a80a" x="188.850909" y="360.333726" style="fill: #009933; stroke: #009933"/>
     <use xlink:href="#m567d63a80a" x="212.372727" y="358.133481" style="fill: #009933; stroke: #009933"/>
     <use xlink:href="#m567d63a80a" x="235.894545" y="353.91957" style="fill: #009933; stroke: #009933"/>
     <use xlink:href="#m567d63a80a" x="259.416364" y="350.065805" style="fill: #009933; stroke: #009933"/>
     <use xlink:href="#m567d63a80a" x="282.938182" y="345.245945" style="fill: #009933; stroke: #009933"/>
     <use xlink:href="#m567d63a80a" x="306.46" y="340.031362" style="fill: #009933; stroke: #009933"/>
     <use xlink:href="#m567d63a80a" x="329.981818" y="332.496715" style="fill: #009933; stroke: #009933"/>
     <use xlink:href="#m567d63a80a" x="353.503636" y="323.132239" style="fill: #009933; stroke: #009933"/>
     <use xlink:href="#m567d63a80a" x="377.025455" y="312.563055" style="fill: #009933; stroke: #009933"/>
     <use xlink:href="#m567d63a80a" x="400.547273" y="295.521517" style="fill: #009933; stroke: #009933"/>
     <use xlink:href="#m567d63a80a" x="424.069091" y="281.370046" style="fill: #009933; stroke: #009933"/>
     <use xlink:href="#m567d63a80a" x="447.590909" y="258.012948" style="fill: #009933; stroke: #009933"/>
     <use xlink:href="#m567d63a80a" x="471.112727" y="216.280196" style="fill: #009933; stroke: #009933"/>
     <use xlink:href="#m567d63a80a" x="494.634545" y="171.993902" style="fill: #009933; stroke: #009933"/>
     <use xlink:href="#m567d63a80a" x="518.156364" y="110.546934" style="fill: #009933; stroke: #009933"/>
     <use xlink:href="#m567d63a80a" x="541.678182" y="43.387273" style="fill: #009933; stroke: #009933"/>
    </g>
   </g>
   <g id="LineCollection_2">
    <path d="M 71.241818 372.018951 
L 71.241818 371.305506 
" clip-path="url(#pd2621ff3a7)" style="fill: none; stroke: #009933; stroke-width: 1.5"/>
    <path d="M 94.763636 371.668733 
L 94.763636 371.540354 
" clip-path="url(#pd2621ff3a7)" style="fill: none; stroke: #009933; stroke-width: 1.5"/>
    <path d="M 118.285455 371.036766 
L 118.285455 370.521539 
" clip-path="url(#pd2621ff3a7)" style="fill: none; stroke: #009933; stroke-width: 1.5"/>
    <path d="M 141.807273 370.296961 
L 141.807273 370.138456 
" clip-path="url(#pd2621ff3a7)" style="fill: none; stroke: #009933; stroke-width: 1.5"/>
    <path d="M 165.329091 369.452741 
L 165.329091 368.832071 
" clip-path="url(#pd2621ff3a7)" style="fill: none; stroke: #009933; stroke-width: 1.5"/>
    <path d="M 188.850909 368.431187 
L 188.850909 368.283636 
" clip-path="url(#pd2621ff3a7)" style="fill: none; stroke: #009933; stroke-width: 1.5"/>
    <path d="M 212.372727 367.370263 
L 212.372727 366.749936 
" clip-path="url(#pd2621ff3a7)" style="fill: none; stroke: #009933; stroke-width: 1.5"/>
    <path d="M 235.894545 365.924544 
L 235.894545 365.678741 
" clip-path="url(#pd2621ff3a7)" style="fill: none; stroke: #009933; stroke-width: 1.5"/>
    <path d="M 259.416364 364.312789 
L 259.416364 363.578462 
" clip-path="url(#pd2621ff3a7)" style="fill: none; stroke: #009933; stroke-width: 1.5"/>
    <path d="M 282.938182 362.707196 
L 282.938182 361.924598 
" clip-path="url(#pd2621ff3a7)" style="fill: none; stroke: #009933; stroke-width: 1.5"/>
    <path d="M 306.46 360.637727 
L 306.46 359.835958 
" clip-path="url(#pd2621ff3a7)" style="fill: none; stroke: #009933; stroke-width: 1.5"/>
    <path d="M 329.981818 358.225572 
L 329.981818 353.567641 
" clip-path="url(#pd2621ff3a7)" style="fill: none; stroke: #009933; stroke-width: 1.5"/>
    <path d="M 353.503636 355.089702 
L 353.503636 354.388581 
" clip-path="url(#pd2621ff3a7)" style="fill: none; stroke: #009933; stroke-width: 1.5"/>
    <path d="M 377.025455 351.908642 
L 377.025455 351.45264 
" clip-path="url(#pd2621ff3a7)" style="fill: none; stroke: #009933; stroke-width: 1.5"/>
    <path d="M 400.547273 347.887813 
L 400.547273 347.078512 
" clip-path="url(#pd2621ff3a7)" style="fill: none; stroke: #009933; stroke-width: 1.5"/>
    <path d="M 424.069091 340.142966 
L 424.069091 339.905722 
" clip-path="url(#pd2621ff3a7)" style="fill: none; stroke: #009933; stroke-width: 1.5"/>
    <path d="M 447.590909 335.395341 
L 447.590909 334.926329 
" clip-path="url(#pd2621ff3a7)" style="fill: none; stroke: #009933; stroke-width: 1.5"/>
    <path d="M 471.112727 325.245528 
L 471.112727 324.902842 
" clip-path="url(#pd2621ff3a7)" style="fill: none; stroke: #009933; stroke-width: 1.5"/>
    <path d="M 494.634545 313.887241 
L 494.634545 313.385365 
" clip-path="url(#pd2621ff3a7)" style="fill: none; stroke: #009933; stroke-width: 1.5"/>
    <path d="M 518.156364 299.88024 
L 518.156364 299.180489 
" clip-path="url(#pd2621ff3a7)" style="fill: none; stroke: #009933; stroke-width: 1.5"/>
    <path d="M 541.678182 285.022514 
L 541.678182 283.506957 
" clip-path="url(#pd2621ff3a7)" style="fill: none; stroke: #009933; stroke-width: 1.5"/>
   </g>
   <g id="line2d_15">
    <g clip-path="url(#pd2621ff3a7)">
     <use xlink:href="#m567d63a80a" x="71.241818" y="372.018951" style="fill: #009933; stroke: #009933"/>
     <use xlink:href="#m567d63a80a" x="94.763636" y="371.668733" style="fill: #009933; stroke: #009933"/>
     <use xlink:href="#m567d63a80a" x="118.285455" y="371.036766" style="fill: #009933; stroke: #009933"/>
     <use xlink:href="#m567d63a80a" x="141.807273" y="370.296961" style="fill: #009933; stroke: #009933"/>
     <use xlink:href="#m567d63a80a" x="165.329091" y="369.452741" style="fill: #009933; stroke: #009933"/>
     <use xlink:href="#m567d63a80a" x="188.850909" y="368.431187" style="fill: #009933; stroke: #009933"/>
     <use xlink:href="#m567d63a80a" x="212.372727" y="367.370263" style="fill: #009933; stroke: #009933"/>
     <use xlink:href="#m567d63a80a" x="235.894545" y="365.924544" style="fill: #009933; stroke: #009933"/>
     <use xlink:href="#m567d63a80a" x="259.416364" y="364.312789" style="fill: #009933; stroke: #009933"/>
     <use xlink:href="#m567d63a80a" x="282.938182" y="362.707196" style="fill: #009933; stroke: #009933"/>
     <use xlink:href="#m567d63a80a" x="306.46" y="360.637727" style="fill: #009933; stroke: #009933"/>
     <use xlink:href="#m567d63a80a" x="329.981818" y="358.225572" style="fill: #009933; stroke: #009933"/>
     <use xlink:href="#m567d63a80a" x="353.503636" y="355.089702" style="fill: #009933; stroke: #009933"/>
     <use xlink:href="#m567d63a80a" x="377.025455" y="351.908642" style="fill: #009933; stroke: #009933"/>
     <use xlink:href="#m567d63a80a" x="400.547273" y="347.887813" style="fill: #009933; stroke: #009933"/>
     <use xlink:href="#m567d63a80a" x="424.069091" y="340.142966" style="fill: #009933; stroke: #009933"/>
     <use xlink:href="#m567d63a80a" x="447.590909" y="335.395341" style="fill: #009933; stroke: #009933"/>
     <use xlink:href="#m567d63a80a" x="471.112727" y="325.245528" style="fill: #009933; stroke: #009933"/>
     <use xlink:href="#m567d63a80a" x="494.634545" y="313.887241" style="fill: #009933; stroke: #009933"/>
     <use xlink:href="#m567d63a80a" x="518.156364" y="299.88024" style="fill: #009933; stroke: #009933"/>
     <use xlink:href="#m567d63a80a" x="541.678182" y="285.022514" style="fill: #009933; stroke: #009933"/>
    </g>
   </g>
   <g id="line2d_16">
    <g clip-path="url(#pd2621ff3a7)">
     <use xlink:href="#m567d63a80a" x="71.241818" y="371.305506" style="fill: #009933; stroke: #009933"/>
     <use xlink:href="#m567d63a80a" x="94.763636" y="371.540354" style="fill: #009933; stroke: #009933"/>
     <use xlink:href="#m567d63a80a" x="118.285455" y="370.521539" style="fill: #009933; stroke: #009933"/>
     <use xlink:href="#m567d63a80a" x="141.807273" y="370.138456" style="fill: #009933; stroke: #009933"/>
     <use xlink:href="#m567d63a80a" x="165.329091" y="368.832071" style="fill: #009933; stroke: #009933"/>
     <use xlink:href="#m567d63a80a" x="188.850909" y="368.283636" style="fill: #009933; stroke: #009933"/>
     <use xlink:href="#m567d63a80a" x="212.372727" y="366.749936" style="fill: #009933; stroke: #009933"/>
     <use xlink:href="#m567d63a80a" x="235.894545" y="365.678741" style="fill: #009933; stroke: #009933"/>
     <use xlink:href="#m567d63a80a" x="259.416364" y="363.578462" style="fill: #009933; stroke: #009933"/>
     <use xlink:href="#m567d63a80a" x="282.938182" y="361.924598" style="fill: #009933; stroke: #009933"/>
     <use xlink:href="#m567d63a80a" x="306.46" y="359.835958" style="fill: #009933; stroke: #009933"/>
     <use xlink:href="#m567d63a80a" x="329.981818" y="353.567641" style="fill: #009933; stroke: #009933"/>
     <use xlink:href="#m567d63a80a" x="353.503636" y="354.388581" style="fill: #009933; stroke: #009933"/>
     <use xlink:href="#m567d63a80a" x="377.025455" y="351.45264" style="fill: #009933; stroke: #009933"/>
     <use xlink:href="#m567d63a80a" x="400.547273" y="347.078512" style="fill: #009933; stroke: #009933"/>
     <use xlink:href="#m567d63a80a" x="424.069091" y="339.905722" style="fill: #009933; stroke: #009933"/>
     <use xlink:href="#m567d63a80a" x="447.590909" y="334.926329" style="fill: #009933; stroke: #009933"/>
     <use xlink:href="#m567d63a80a" x="471.112727" y="324.902842" style="fill: #009933; stroke: #009933"/>
     <use xlink:href="#m567d63a80a" x="494.634545" y="313.385365" style="fill: #009933; stroke: #009933"/>
     <use xlink:href="#m567d63a80a" x="518.156364" y="299.180489" style="fill: #009933; stroke: #009933"/>
     <use xlink:href="#m567d63a80a" x="541.678182" y="283.506957" style="fill: #009933; stroke: #009933"/>
    </g>
   </g>
   <g id="LineCollection_3">
    <path d="M 71.241818 371.824123 
L 71.241818 371.709506 
" clip-path="url(#pd2621ff3a7)" style="fill: none; stroke: #cc0033; stroke-width: 1.5"/>
    <path d="M 94.763636 371.178497 
L 94.763636 371.130123 
" clip-path="url(#pd2621ff3a7)" style="fill: none; stroke: #cc0033; stroke-width: 1.5"/>
    <path d="M 118.285455 370.188027 
L 118.285455 370.130548 
" clip-path="url(#pd2621ff3a7)" style="fill: none; stroke: #cc0033; stroke-width: 1.5"/>
    <path d="M 141.807273 369.250655 
L 141.807273 368.931522 
" clip-path="url(#pd2621ff3a7)" style="fill: none; stroke: #cc0033; stroke-width: 1.5"/>
    <path d="M 165.329091 367.831879 
L 165.329091 367.763034 
" clip-path="url(#pd2621ff3a7)" style="fill: none; stroke: #cc0033; stroke-width: 1.5"/>
    <path d="M 188.850909 365.92968 
L 188.850909 365.767237 
" clip-path="url(#pd2621ff3a7)" style="fill: none; stroke: #cc0033; stroke-width: 1.5"/>
    <path d="M 212.372727 364.178317 
L 212.372727 362.989425 
" clip-path="url(#pd2621ff3a7)" style="fill: none; stroke: #cc0033; stroke-width: 1.5"/>
    <path d="M 235.894545 361.976087 
L 235.894545 361.464419 
" clip-path="url(#pd2621ff3a7)" style="fill: none; stroke: #cc0033; stroke-width: 1.5"/>
    <path d="M 259.416364 358.848706 
L 259.416364 357.216411 
" clip-path="url(#pd2621ff3a7)" style="fill: none; stroke: #cc0033; stroke-width: 1.5"/>
    <path d="M 282.938182 355.293636 
L 282.938182 353.564594 
" clip-path="url(#pd2621ff3a7)" style="fill: none; stroke: #cc0033; stroke-width: 1.5"/>
    <path d="M 306.46 350.099733 
L 306.46 349.978406 
" clip-path="url(#pd2621ff3a7)" style="fill: none; stroke: #cc0033; stroke-width: 1.5"/>
    <path d="M 329.981818 346.026352 
L 329.981818 345.775824 
" clip-path="url(#pd2621ff3a7)" style="fill: none; stroke: #cc0033; stroke-width: 1.5"/>
    <path d="M 353.503636 339.737152 
L 353.503636 338.923195 
" clip-path="url(#pd2621ff3a7)" style="fill: none; stroke: #cc0033; stroke-width: 1.5"/>
    <path d="M 377.025455 331.387178 
L 377.025455 330.086134 
" clip-path="url(#pd2621ff3a7)" style="fill: none; stroke: #cc0033; stroke-width: 1.5"/>
    <path d="M 400.547273 321.930612 
L 400.547273 316.648005 
" clip-path="url(#pd2621ff3a7)" style="fill: none; stroke: #cc0033; stroke-width: 1.5"/>
    <path d="M 424.069091 309.050401 
L 424.069091 308.198752 
" clip-path="url(#pd2621ff3a7)" style="fill: none; stroke: #cc0033; stroke-width: 1.5"/>
    <path d="M 447.590909 291.91287 
L 447.590909 284.457406 
" clip-path="url(#pd2621ff3a7)" style="fill: none; stroke: #cc0033; stroke-width: 1.5"/>
    <path d="M 471.112727 263.836834 
L 471.112727 262.369342 
" clip-path="url(#pd2621ff3a7)" style="fill: none; stroke: #cc0033; stroke-width: 1.5"/>
    <path d="M 494.634545 229.807061 
L 494.634545 227.742521 
" clip-path="url(#pd2621ff3a7)" style="fill: none; stroke: #cc0033; stroke-width: 1.5"/>
    <path d="M 518.156364 186.966245 
L 518.156364 185.944348 
" clip-path="url(#pd2621ff3a7)" style="fill: none; stroke: #cc0033; stroke-width: 1.5"/>
    <path d="M 541.678182 138.114247 
L 541.678182 135.847861 
" clip-path="url(#pd2621ff3a7)" style="fill: none; stroke: #cc0033; stroke-width: 1.5"/>
   </g>
   <g id="line2d_17">
    <defs>
     <path id="md3fe7ae338" d="M 3 0 
L -3 -0 
" style="stroke: #cc0033"/>
    </defs>
    <g clip-path="url(#pd2621ff3a7)">
     <use xlink:href="#md3fe7ae338" x="71.241818" y="371.824123" style="fill: #cc0033; stroke: #cc0033"/>
     <use xlink:href="#md3fe7ae338" x="94.763636" y="371.178497" style="fill: #cc0033; stroke: #cc0033"/>
     <use xlink:href="#md3fe7ae338" x="118.285455" y="370.188027" style="fill: #cc0033; stroke: #cc0033"/>
     <use xlink:href="#md3fe7ae338" x="141.807273" y="369.250655" style="fill: #cc0033; stroke: #cc0033"/>
     <use xlink:href="#md3fe7ae338" x="165.329091" y="367.831879" style="fill: #cc0033; stroke: #cc0033"/>
     <use xlink:href="#md3fe7ae338" x="188.850909" y="365.92968" style="fill: #cc0033; stroke: #cc0033"/>
     <use xlink:href="#md3fe7ae338" x="212.372727" y="364.178317" style="fill: #cc0033; stroke: #cc0033"/>
     <use xlink:href="#md3fe7ae338" x="235.894545" y="361.976087" style="fill: #cc0033; stroke: #cc0033"/>
     <use xlink:href="#md3fe7ae338" x="259.416364" y="358.848706" style="fill: #cc0033; stroke: #cc0033"/>
     <use xlink:href="#md3fe7ae338" x="282.938182" y="355.293636" style="fill: #cc0033; stroke: #cc0033"/>
     <use xlink:href="#md3fe7ae338" x="306.46" y="350.099733" style="fill: #cc0033; stroke: #cc0033"/>
     <use xlink:href="#md3fe7ae338" x="329.981818" y="346.026352" style="fill: #cc0033; stroke: #cc0033"/>
     <use xlink:href="#md3fe7ae338" x="353.503636" y="339.737152" style="fill: #cc0033; stroke: #cc0033"/>
     <use xlink:href="#md3fe7ae338" x="377.025455" y="331.387178" style="fill: #cc0033; stroke: #cc0033"/>
     <use xlink:href="#md3fe7ae338" x="400.547273" y="321.930612" style="fill: #cc0033; stroke: #cc0033"/>
     <use xlink:href="#md3fe7ae338" x="424.069091" y="309.050401" style="fill: #cc0033; stroke: #cc0033"/>
     <use xlink:href="#md3fe7ae338" x="447.590909" y="291.91287" style="fill: #cc0033; stroke: #cc0033"/>
     <use xlink:href="#md3fe7ae338" x="471.112727" y="263.836834" style="fill: #cc0033; stroke: #cc0033"/>
     <use xlink:href="#md3fe7ae338" x="494.634545" y="229.807061" style="fill: #cc0033; stroke: #cc0033"/>
     <use xlink:href="#md3fe7ae338" x="518.156364" y="186.966245" style="fill: #cc0033; stroke: #cc0033"/>
     <use xlink:href="#md3fe7ae338" x="541.678182" y="138.114247" style="fill: #cc0033; stroke: #cc0033"/>
    </g>
   </g>
   <g id="line2d_18">
    <g clip-path="url(#pd2621ff3a7)">
     <use xlink:href="#md3fe7ae338" x="71.241818" y="371.709506" style="fill: #cc0033; stroke: #cc0033"/>
     <use xlink:href="#md3fe7ae338" x="94.763636" y="371.130123" style="fill: #cc0033; stroke: #cc0033"/>
     <use xlink:href="#md3fe7ae338" x="118.285455" y="370.130548" style="fill: #cc0033; stroke: #cc0033"/>
     <use xlink:href="#md3fe7ae338" x="141.807273" y="368.931522" style="fill: #cc0033; stroke: #cc0033"/>
     <use xlink:href="#md3fe7ae338" x="165.329091" y="367.763034" style="fill: #cc0033; stroke: #cc0033"/>
     <use xlink:href="#md3fe7ae338" x="188.850909" y="365.767237" style="fill: #cc0033; stroke: #cc0033"/>
     <use xlink:href="#md3fe7ae338" x="212.372727" y="362.989425" style="fill: #cc0033; stroke: #cc0033"/>
     <use xlink:href="#md3fe7ae338" x="235.894545" y="361.464419" style="fill: #cc0033; stroke: #cc0033"/>
     <use xlink:href="#md3fe7ae338" x="259.416364" y="357.216411" style="fill: #cc0033; stroke: #cc0033"/>
     <use xlink:href="#md3fe7ae338" x="282.938182" y="353.564594" style="fill: #cc0033; stroke: #cc0033"/>
     <use xlink:href="#md3fe7ae338" x="306.46" y="349.978406" style="fill: #cc0033; stroke: #cc0033"/>
     <use xlink:href="#md3fe7ae338" x="329.981818" y="345.775824" style="fill: #cc0033; stroke: #cc0033"/>
     <use xlink:href="#md3fe7ae338" x="353.503636" y="338.923195" style="fill: #cc0033; stroke: #cc0033"/>
     <use xlink:href="#md3fe7ae338" x="377.025455" y="330.086134" style="fill: #cc0033; stroke: #cc0033"/>
     <use xlink:href="#md3fe7ae338" x="400.547273" y="316.648005" style="fill: #cc0033; stroke: #cc0033"/>
     <use xlink:href="#md3fe7ae338" x="424.069091" y="308.198752" style="fill: #cc0033; stroke: #cc0033"/>
     <use xlink:href="#md3fe7ae338" x="447.590909" y="284.457406" style="fill: #cc0033; stroke: #cc0033"/>
     <use xlink:href="#md3fe7ae338" x="471.112727" y="262.369342" style="fill: #cc0033; stroke: #cc0033"/>
     <use xlink:href="#md3fe7ae338" x="494.634545" y="227.742521" style="fill: #cc0033; stroke: #cc0033"/>
     <use xlink:href="#md3fe7ae338" x="518.156364" y="185.944348" style="fill: #cc0033; stroke: #cc0033"/>
     <use xlink:href="#md3fe7ae338" x="541.678182" y="135.847861" style="fill: #cc0033; stroke: #cc0033"/>
    </g>
   </g>
   <g id="LineCollection_4">
    <path d="M 71.241818 373.532727 
L 71.241818 373.446114 
" clip-path="url(#pd2621ff3a7)" style="fill: none; stroke: #cc0033; stroke-width: 1.5"/>
    <path d="M 94.763636 373.161969 
L 94.763636 373.069296 
" clip-path="url(#pd2621ff3a7)" style="fill: none; stroke: #cc0033; stroke-width: 1.5"/>
    <path d="M 118.285455 372.614972 
L 118.285455 372.537157 
" clip-path="url(#pd2621ff3a7)" style="fill: none; stroke: #cc0033; stroke-width: 1.5"/>
    <path d="M 141.807273 372.180537 
L 141.807273 372.016178 
" clip-path="url(#pd2621ff3a7)" style="fill: none; stroke: #cc0033; stroke-width: 1.5"/>
    <path d="M 165.329091 371.557848 
L 165.329091 371.161311 
" clip-path="url(#pd2621ff3a7)" style="fill: none; stroke: #cc0033; stroke-width: 1.5"/>
    <path d="M 188.850909 370.800001 
L 188.850909 370.643139 
" clip-path="url(#pd2621ff3a7)" style="fill: none; stroke: #cc0033; stroke-width: 1.5"/>
    <path d="M 212.372727 369.925381 
L 212.372727 369.363731 
" clip-path="url(#pd2621ff3a7)" style="fill: none; stroke: #cc0033; stroke-width: 1.5"/>
    <path d="M 235.894545 368.968735 
L 235.894545 368.667233 
" clip-path="url(#pd2621ff3a7)" style="fill: none; stroke: #cc0033; stroke-width: 1.5"/>
    <path d="M 259.416364 367.806717 
L 259.416364 367.115627 
" clip-path="url(#pd2621ff3a7)" style="fill: none; stroke: #cc0033; stroke-width: 1.5"/>
    <path d="M 282.938182 366.382566 
L 282.938182 365.543208 
" clip-path="url(#pd2621ff3a7)" style="fill: none; stroke: #cc0033; stroke-width: 1.5"/>
    <path d="M 306.46 364.172702 
L 306.46 363.981469 
" clip-path="url(#pd2621ff3a7)" style="fill: none; stroke: #cc0033; stroke-width: 1.5"/>
    <path d="M 329.981818 362.964399 
L 329.981818 362.583336 
" clip-path="url(#pd2621ff3a7)" style="fill: none; stroke: #cc0033; stroke-width: 1.5"/>
    <path d="M 353.503636 360.522837 
L 353.503636 359.931746 
" clip-path="url(#pd2621ff3a7)" style="fill: none; stroke: #cc0033; stroke-width: 1.5"/>
    <path d="M 377.025455 357.613906 
L 377.025455 356.576262 
" clip-path="url(#pd2621ff3a7)" style="fill: none; stroke: #cc0033; stroke-width: 1.5"/>
    <path d="M 400.547273 353.866473 
L 400.547273 352.211582 
" clip-path="url(#pd2621ff3a7)" style="fill: none; stroke: #cc0033; stroke-width: 1.5"/>
    <path d="M 424.069091 349.08451 
L 424.069091 348.684447 
" clip-path="url(#pd2621ff3a7)" style="fill: none; stroke: #cc0033; stroke-width: 1.5"/>
    <path d="M 447.590909 345.368846 
L 447.590909 342.22072 
" clip-path="url(#pd2621ff3a7)" style="fill: none; stroke: #cc0033; stroke-width: 1.5"/>
    <path d="M 471.112727 337.882575 
L 471.112727 336.59238 
" clip-path="url(#pd2621ff3a7)" style="fill: none; stroke: #cc0033; stroke-width: 1.5"/>
    <path d="M 494.634545 330.506669 
L 494.634545 328.857256 
" clip-path="url(#pd2621ff3a7)" style="fill: none; stroke: #cc0033; stroke-width: 1.5"/>
    <path d="M 518.156364 319.915575 
L 518.156364 317.308116 
" clip-path="url(#pd2621ff3a7)" style="fill: none; stroke: #cc0033; stroke-width: 1.5"/>
    <path d="M 541.678182 308.56061 
L 541.678182 305.70375 
" clip-path="url(#pd2621ff3a7)" style="fill: none; stroke: #cc0033; stroke-width: 1.5"/>
   </g>
   <g id="line2d_19">
    <g clip-path="url(#pd2621ff3a7)">
     <use xlink:href="#md3fe7ae338" x="71.241818" y="373.532727" style="fill: #cc0033; stroke: #cc0033"/>
     <use xlink:href="#md3fe7ae338" x="94.763636" y="373.161969" style="fill: #cc0033; stroke: #cc0033"/>
     <use xlink:href="#md3fe7ae338" x="118.285455" y="372.614972" style="fill: #cc0033; stroke: #cc0033"/>
     <use xlink:href="#md3fe7ae338" x="141.807273" y="372.180537" style="fill: #cc0033; stroke: #cc0033"/>
     <use xlink:href="#md3fe7ae338" x="165.329091" y="371.557848" style="fill: #cc0033; stroke: #cc0033"/>
     <use xlink:href="#md3fe7ae338" x="188.850909" y="370.800001" style="fill: #cc0033; stroke: #cc0033"/>
     <use xlink:href="#md3fe7ae338" x="212.372727" y="369.925381" style="fill: #cc0033; stroke: #cc0033"/>
     <use xlink:href="#md3fe7ae338" x="235.894545" y="368.968735" style="fill: #cc0033; stroke: #cc0033"/>
     <use xlink:href="#md3fe7ae338" x="259.416364" y="367.806717" style="fill: #cc0033; stroke: #cc0033"/>
     <use xlink:href="#md3fe7ae338" x="282.938182" y="366.382566" style="fill: #cc0033; stroke: #cc0033"/>
     <use xlink:href="#md3fe7ae338" x="306.46" y="364.172702" style="fill: #cc0033; stroke: #cc0033"/>
     <use xlink:href="#md3fe7ae338" x="329.981818" y="362.964399" style="fill: #cc0033; stroke: #cc0033"/>
     <use xlink:href="#md3fe7ae338" x="353.503636" y="360.522837" style="fill: #cc0033; stroke: #cc0033"/>
     <use xlink:href="#md3fe7ae338" x="377.025455" y="357.613906" style="fill: #cc0033; stroke: #cc0033"/>
     <use xlink:href="#md3fe7ae338" x="400.547273" y="353.866473" style="fill: #cc0033; stroke: #cc0033"/>
     <use xlink:href="#md3fe7ae338" x="424.069091" y="349.08451" style="fill: #cc0033; stroke: #cc0033"/>
     <use xlink:href="#md3fe7ae338" x="447.590909" y="345.368846" style="fill: #cc0033; stroke: #cc0033"/>
     <use xlink:href="#md3fe7ae338" x="471.112727" y="337.882575" style="fill: #cc0033; stroke: #cc0033"/>
     <use xlink:href="#md3fe7ae338" x="494.634545" y="330.506669" style="fill: #cc0033; stroke: #cc0033"/>
     <use xlink:href="#md3fe7ae338" x="518.156364" y="319.915575" style="fill: #cc0033; stroke: #cc0033"/>
     <use xlink:href="#md3fe7ae338" x="541.678182" y="308.56061" style="fill: #cc0033; stroke: #cc0033"/>
    </g>
   </g>
   <g id="line2d_20">
    <g clip-path="url(#pd2621ff3a7)">
     <use xlink:href="#md3fe7ae338" x="71.241818" y="373.446114" style="fill: #cc0033; stroke: #cc0033"/>
     <use xlink:href="#md3fe7ae338" x="94.763636" y="373.069296" style="fill: #cc0033; stroke: #cc0033"/>
     <use xlink:href="#md3fe7ae338" x="118.285455" y="372.537157" style="fill: #cc0033; stroke: #cc0033"/>
     <use xlink:href="#md3fe7ae338" x="141.807273" y="372.016178" style="fill: #cc0033; stroke: #cc0033"/>
     <use xlink:href="#md3fe7ae338" x="165.329091" y="371.161311" style="fill: #cc0033; stroke: #cc0033"/>
     <use xlink:href="#md3fe7ae338" x="188.850909" y="370.643139" style="fill: #cc0033; stroke: #cc0033"/>
     <use xlink:href="#md3fe7ae338" x="212.372727" y="369.363731" style="fill: #cc0033; stroke: #cc0033"/>
     <use xlink:href="#md3fe7ae338" x="235.894545" y="368.667233" style="fill: #cc0033; stroke: #cc0033"/>
     <use xlink:href="#md3fe7ae338" x="259.416364" y="367.115627" style="fill: #cc0033; stroke: #cc0033"/>
     <use xlink:href="#md3fe7ae338" x="282.938182" y="365.543208" style="fill: #cc0033; stroke: #cc0033"/>
     <use xlink:href="#md3fe7ae338" x="306.46" y="363.981469" style="fill: #cc0033; stroke: #cc0033"/>
     <use xlink:href="#md3fe7ae338" x="329.981818" y="362.583336" style="fill: #cc0033; stroke: #cc0033"/>
     <use xlink:href="#md3fe7ae338" x="353.503636" y="359.931746" style="fill: #cc0033; stroke: #cc0033"/>
     <use xlink:href="#md3fe7ae338" x="377.025455" y="356.576262" style="fill: #cc0033; stroke: #cc0033"/>
     <use xlink:href="#md3fe7ae338" x="400.547273" y="352.211582" style="fill: #cc0033; stroke: #cc0033"/>
     <use xlink:href="#md3fe7ae338" x="424.069091" y="348.684447" style="fill: #cc0033; stroke: #cc0033"/>
     <use xlink:href="#md3fe7ae338" x="447.590909" y="342.22072" style="fill: #cc0033; stroke: #cc0033"/>
     <use xlink:href="#md3fe7ae338" x="471.112727" y="336.59238" style="fill: #cc0033; stroke: #cc0033"/>
     <use xlink:href="#md3fe7ae338" x="494.634545" y="328.857256" style="fill: #cc0033; stroke: #cc0033"/>
     <use xlink:href="#md3fe7ae338" x="518.156364" y="317.308116" style="fill: #cc0033; stroke: #cc0033"/>
     <use xlink:href="#md3fe7ae338" x="541.678182" y="305.70375" style="fill: #cc0033; stroke: #cc0033"/>
    </g>
   </g>
   <g id="line2d_21">
    <path d="M 71.241818 368.878288 
L 94.763636 368.385997 
L 118.285455 366.847846 
L 141.807273 365.463407 
L 165.329091 363.466857 
L 188.850909 360.772611 
L 212.372727 358.471033 
L 235.894545 354.508744 
L 259.416364 350.581032 
L 282.938182 345.721118 
L 306.46 340.423003 
L 329.981818 333.166682 
L 353.503636 323.770368 
L 377.025455 312.723272 
L 400.547273 299.86415 
L 424.069091 281.689111 
L 447.590909 258.699347 
L 471.112727 220.384215 
L 494.634545 172.909672 
L 518.156364 116.855305 
L 541.678182 48.724414 
" clip-path="url(#pd2621ff3a7)" style="fill: none; stroke-dasharray: 1.5,2.475; stroke-dashoffset: 0; stroke: #009933; stroke-width: 1.5"/>
   </g>
   <g id="line2d_22">
    <path d="M 71.241818 371.672499 
L 94.763636 371.616697 
L 118.285455 370.761522 
L 141.807273 370.21069 
L 165.329091 369.238434 
L 188.850909 368.329853 
L 212.372727 367.114874 
L 235.894545 365.837589 
L 259.416364 363.958121 
L 282.938182 362.494943 
L 306.46 360.248825 
L 329.981818 356.895566 
L 353.503636 354.821304 
L 377.025455 351.719326 
L 400.547273 347.533829 
L 424.069091 339.995073 
L 447.590909 335.148511 
L 471.112727 325.017869 
L 494.634545 313.661637 
L 518.156364 299.648131 
L 541.678182 284.126942 
" clip-path="url(#pd2621ff3a7)" style="fill: none; stroke: #009933; stroke-width: 1.5; stroke-linecap: square"/>
   </g>
   <g id="line2d_23">
    <path d="M 71.241818 371.785602 
L 94.763636 371.147994 
L 118.285455 370.16776 
L 141.807273 369.157408 
L 165.329091 367.805813 
L 188.850909 365.852782 
L 212.372727 363.843764 
L 235.894545 361.869337 
L 259.416364 358.509067 
L 282.938182 354.780011 
L 306.46 350.049681 
L 329.981818 345.879191 
L 353.503636 339.242445 
L 377.025455 330.93798 
L 400.547273 320.414337 
L 424.069091 308.578358 
L 447.590909 289.075524 
L 471.112727 263.427815 
L 494.634545 228.493822 
L 518.156364 186.199755 
L 541.678182 137.200207 
" clip-path="url(#pd2621ff3a7)" style="fill: none; stroke-dasharray: 1.5,2.475; stroke-dashoffset: 0; stroke: #cc0033; stroke-width: 1.5"/>
   </g>
   <g id="line2d_24">
    <path d="M 71.241818 373.492543 
L 94.763636 373.134958 
L 118.285455 372.56718 
L 141.807273 372.087386 
L 165.329091 371.415481 
L 188.850909 370.735189 
L 212.372727 369.731224 
L 235.894545 368.826046 
L 259.416364 367.547008 
L 282.938182 366.049254 
L 306.46 364.093669 
L 329.981818 362.718261 
L 353.503636 360.251878 
L 377.025455 357.18788 
L 400.547273 353.309096 
L 424.069091 348.881165 
L 447.590909 344.273619 
L 471.112727 337.254386 
L 494.634545 329.656185 
L 518.156364 318.485585 
L 541.678182 307.145415 
" clip-path="url(#pd2621ff3a7)" style="fill: none; stroke: #cc0033; stroke-width: 1.5; stroke-linecap: square"/>
   </g>
   <g id="patch_3">
    <path d="M 47.72 390.04 
L 47.72 26.88 
" style="fill: none; stroke: #000000; stroke-width: 0.8; stroke-linejoin: miter; stroke-linecap: square"/>
   </g>
   <g id="patch_4">
    <path d="M 565.2 390.04 
L 565.2 26.88 
" style="fill: none; stroke: #000000; stroke-width: 0.8; stroke-linejoin: miter; stroke-linecap: square"/>
   </g>
   <g id="patch_5">
    <path d="M 47.72 390.04 
L 565.2 390.04 
" style="fill: none; stroke: #000000; stroke-width: 0.8; stroke-linejoin: miter; stroke-linecap: square"/>
   </g>
   <g id="patch_6">
    <path d="M 47.72 26.88 
L 565.2 26.88 
" style="fill: none; stroke: #000000; stroke-width: 0.8; stroke-linejoin: miter; stroke-linecap: square"/>
   </g>
   <g id="text_15">
    <!-- Bron-Kerbosch on a random graph of order 100 -->
    <g transform="translate(47.72 20.88) scale(0.12 -0.12)">
     <defs>
      <path id="DejaVuSans-42" d="M 1259 2228 
L 1259 519 
L 2272 519 
Q 2781 519 3026 730 
Q 3272 941 3272 1375 
Q 3272 1813 3026 2020 
Q 2781 2228 2272 2228 
L 1259 2228 
z
M 1259 4147 
L 1259 2741 
L 2194 2741 
Q 2656 2741 2882 2914 
Q 3109 3088 3109 3444 
Q 3109 3797 2882 3972 
Q 2656 4147 2194 4147 
L 1259 4147 
z
M 628 4666 
L 2241 4666 
Q 2963 4666 3353 4366 
Q 3744 4066 3744 3513 
Q 3744 3084 3544 2831 
Q 3344 2578 2956 2516 
Q 3422 2416 3680 2098 
Q 3938 1781 3938 1306 
Q 3938 681 3513 340 
Q 3088 0 2303 0 
L 628 0 
L 628 4666 
z
" transform="scale(0.015625)"/>
      <path id="DejaVuSans-72" d="M 2631 2963 
Q 2534 3019 2420 3045 
Q 2306 3072 2169 3072 
Q 1681 3072 1420 2755 
Q 1159 2438 1159 1844 
L 1159 0 
L 581 0 
L 581 3500 
L 1159 3500 
L 1159 2956 
Q 1341 3275 1631 3429 
Q 1922 3584 2338 3584 
Q 2397 3584 2469 3576 
Q 2541 3569 2628 3553 
L 2631 2963 
z
" transform="scale(0.015625)"/>
      <path id="DejaVuSans-2d" d="M 313 2009 
L 1997 2009 
L 1997 1497 
L 313 1497 
L 313 2009 
z
" transform="scale(0.015625)"/>
      <path id="DejaVuSans-4b" d="M 628 4666 
L 1259 4666 
L 1259 2694 
L 3353 4666 
L 4166 4666 
L 1850 2491 
L 4331 0 
L 3500 0 
L 1259 2247 
L 1259 0 
L 628 0 
L 628 4666 
z
" transform="scale(0.015625)"/>
      <path id="DejaVuSans-62" d="M 3116 1747 
Q 3116 2381 2855 2742 
Q 2594 3103 2138 3103 
Q 1681 3103 1420 2742 
Q 1159 2381 1159 1747 
Q 1159 1113 1420 752 
Q 1681 391 2138 391 
Q 2594 391 2855 752 
Q 3116 1113 3116 1747 
z
M 1159 2969 
Q 1341 3281 1617 3432 
Q 1894 3584 2278 3584 
Q 2916 3584 3314 3078 
Q 3713 2572 3713 1747 
Q 3713 922 3314 415 
Q 2916 -91 2278 -91 
Q 1894 -91 1617 61 
Q 1341 213 1159 525 
L 1159 0 
L 581 0 
L 581 4863 
L 1159 4863 
L 1159 2969 
z
" transform="scale(0.015625)"/>
      <path id="DejaVuSans-68" d="M 3513 2113 
L 3513 0 
L 2938 0 
L 2938 2094 
Q 2938 2591 2744 2837 
Q 2550 3084 2163 3084 
Q 1697 3084 1428 2787 
Q 1159 2491 1159 1978 
L 1159 0 
L 581 0 
L 581 4863 
L 1159 4863 
L 1159 2956 
Q 1366 3272 1645 3428 
Q 1925 3584 2291 3584 
Q 2894 3584 3203 3211 
Q 3513 2838 3513 2113 
z
" transform="scale(0.015625)"/>
      <path id="DejaVuSans-61" d="M 2194 1759 
Q 1497 1759 1228 1600 
Q 959 1441 959 1056 
Q 959 750 1161 570 
Q 1363 391 1709 391 
Q 2188 391 2477 730 
Q 2766 1069 2766 1631 
L 2766 1759 
L 2194 1759 
z
M 3341 1997 
L 3341 0 
L 2766 0 
L 2766 531 
Q 2569 213 2275 61 
Q 1981 -91 1556 -91 
Q 1019 -91 701 211 
Q 384 513 384 1019 
Q 384 1609 779 1909 
Q 1175 2209 1959 2209 
L 2766 2209 
L 2766 2266 
Q 2766 2663 2505 2880 
Q 2244 3097 1772 3097 
Q 1472 3097 1187 3025 
Q 903 2953 641 2809 
L 641 3341 
Q 956 3463 1253 3523 
Q 1550 3584 1831 3584 
Q 2591 3584 2966 3190 
Q 3341 2797 3341 1997 
z
" transform="scale(0.015625)"/>
      <path id="DejaVuSans-6d" d="M 3328 2828 
Q 3544 3216 3844 3400 
Q 4144 3584 4550 3584 
Q 5097 3584 5394 3201 
Q 5691 2819 5691 2113 
L 5691 0 
L 5113 0 
L 5113 2094 
Q 5113 2597 4934 2840 
Q 4756 3084 4391 3084 
Q 3944 3084 3684 2787 
Q 3425 2491 3425 1978 
L 3425 0 
L 2847 0 
L 2847 2094 
Q 2847 2600 2669 2842 
Q 2491 3084 2119 3084 
Q 1678 3084 1418 2786 
Q 1159 2488 1159 1978 
L 1159 0 
L 581 0 
L 581 3500 
L 1159 3500 
L 1159 2956 
Q 1356 3278 1631 3431 
Q 1906 3584 2284 3584 
Q 2666 3584 2933 3390 
Q 3200 3197 3328 2828 
z
" transform="scale(0.015625)"/>
      <path id="DejaVuSans-66" d="M 2375 4863 
L 2375 4384 
L 1825 4384 
Q 1516 4384 1395 4259 
Q 1275 4134 1275 3809 
L 1275 3500 
L 2222 3500 
L 2222 3053 
L 1275 3053 
L 1275 0 
L 697 0 
L 697 3053 
L 147 3053 
L 147 3500 
L 697 3500 
L 697 3744 
Q 697 4328 969 4595 
Q 1241 4863 1831 4863 
L 2375 4863 
z
" transform="scale(0.015625)"/>
     </defs>
     <use xlink:href="#DejaVuSans-42"/>
     <use xlink:href="#DejaVuSans-72" transform="translate(68.603516 0)"/>
     <use xlink:href="#DejaVuSans-6f" transform="translate(107.466797 0)"/>
     <use xlink:href="#DejaVuSans-6e" transform="translate(168.648438 0)"/>
     <use xlink:href="#DejaVuSans-2d" transform="translate(232.027344 0)"/>
     <use xlink:href="#DejaVuSans-4b" transform="translate(268.111328 0)"/>
     <use xlink:href="#DejaVuSans-65" transform="translate(328.6875 0)"/>
     <use xlink:href="#DejaVuSans-72" transform="translate(390.210938 0)"/>
     <use xlink:href="#DejaVuSans-62" transform="translate(431.324219 0)"/>
     <use xlink:href="#DejaVuSans-6f" transform="translate(494.800781 0)"/>
     <use xlink:href="#DejaVuSans-73" transform="translate(555.982422 0)"/>
     <use xlink:href="#DejaVuSans-63" transform="translate(608.082031 0)"/>
     <use xlink:href="#DejaVuSans-68" transform="translate(663.0625 0)"/>
     <use xlink:href="#DejaVuSans-20" transform="translate(726.441406 0)"/>
     <use xlink:href="#DejaVuSans-6f" transform="translate(758.228516 0)"/>
     <use xlink:href="#DejaVuSans-6e" transform="translate(819.410156 0)"/>
     <use xlink:href="#DejaVuSans-20" transform="translate(882.789062 0)"/>
     <use xlink:href="#DejaVuSans-61" transform="translate(914.576172 0)"/>
     <use xlink:href="#DejaVuSans-20" transform="translate(975.855469 0)"/>
     <use xlink:href="#DejaVuSans-72" transform="translate(1007.642578 0)"/>
     <use xlink:href="#DejaVuSans-61" transform="translate(1048.755859 0)"/>
     <use xlink:href="#DejaVuSans-6e" transform="translate(1110.035156 0)"/>
     <use xlink:href="#DejaVuSans-64" transform="translate(1173.414062 0)"/>
     <use xlink:href="#DejaVuSans-6f" transform="translate(1236.890625 0)"/>
     <use xlink:href="#DejaVuSans-6d" transform="translate(1298.072266 0)"/>
     <use xlink:href="#DejaVuSans-20" transform="translate(1395.484375 0)"/>
     <use xlink:href="#DejaVuSans-67" transform="translate(1427.271484 0)"/>
     <use xlink:href="#DejaVuSans-72" transform="translate(1490.748047 0)"/>
     <use xlink:href="#DejaVuSans-61" transform="translate(1531.861328 0)"/>
     <use xlink:href="#DejaVuSans-70" transform="translate(1593.140625 0)"/>
     <use xlink:href="#DejaVuSans-68" transform="translate(1656.617188 0)"/>
     <use xlink:href="#DejaVuSans-20" transform="translate(1719.996094 0)"/>
     <use xlink:href="#DejaVuSans-6f" transform="translate(1751.783203 0)"/>
     <use xlink:href="#DejaVuSans-66" transform="translate(1812.964844 0)"/>
     <use xlink:href="#DejaVuSans-20" transform="translate(1848.169922 0)"/>
     <use xlink:href="#DejaVuSans-6f" transform="translate(1879.957031 0)"/>
     <use xlink:href="#DejaVuSans-72" transform="translate(1941.138672 0)"/>
     <use xlink:href="#DejaVuSans-64" transform="translate(1980.501953 0)"/>
     <use xlink:href="#DejaVuSans-65" transform="translate(2043.978516 0)"/>
     <use xlink:href="#DejaVuSans-72" transform="translate(2105.501953 0)"/>
     <use xlink:href="#DejaVuSans-20" transform="translate(2146.615234 0)"/>
     <use xlink:href="#DejaVuSans-31" transform="translate(2178.402344 0)"/>
     <use xlink:href="#DejaVuSans-30" transform="translate(2242.025391 0)"/>
     <use xlink:href="#DejaVuSans-30" transform="translate(2305.648438 0)"/>
    </g>
   </g>
   <g id="legend_1">
    <g id="patch_7">
     <path d="M 54.72 93.5925 
L 144.248125 93.5925 
Q 146.248125 93.5925 146.248125 91.5925 
L 146.248125 33.88 
Q 146.248125 31.88 144.248125 31.88 
L 54.72 31.88 
Q 52.72 31.88 52.72 33.88 
L 52.72 91.5925 
Q 52.72 93.5925 54.72 93.5925 
z
" style="fill: #ffffff; opacity: 0.8; stroke: #cccccc; stroke-linejoin: miter"/>
    </g>
    <g id="LineCollection_5">
     <path d="M 66.72 44.978437 
L 66.72 34.978437 
" style="fill: none; stroke: #009933; stroke-width: 1.5"/>
    </g>
    <g id="line2d_25">
     <g>
      <use xlink:href="#m567d63a80a" x="66.72" y="44.978437" style="fill: #009933; stroke: #009933"/>
     </g>
    </g>
    <g id="line2d_26">
     <g>
      <use xlink:href="#m567d63a80a" x="66.72" y="34.978437" style="fill: #009933; stroke: #009933"/>
     </g>
    </g>
    <g id="line2d_27">
     <path d="M 56.72 39.978437 
L 76.72 39.978437 
" style="fill: none; stroke-dasharray: 1.5,2.475; stroke-dashoffset: 0; stroke: #009933; stroke-width: 1.5"/>
    </g>
    <g id="line2d_28"/>
    <g id="text_16">
     <!-- Java Ver1 -->
     <g transform="translate(84.72 43.478437) scale(0.1 -0.1)">
      <defs>
       <path id="DejaVuSans-4a" d="M 628 4666 
L 1259 4666 
L 1259 325 
Q 1259 -519 939 -900 
Q 619 -1281 -91 -1281 
L -331 -1281 
L -331 -750 
L -134 -750 
Q 284 -750 456 -515 
Q 628 -281 628 325 
L 628 4666 
z
" transform="scale(0.015625)"/>
       <path id="DejaVuSans-76" d="M 191 3500 
L 800 3500 
L 1894 563 
L 2988 3500 
L 3597 3500 
L 2284 0 
L 1503 0 
L 191 3500 
z
" transform="scale(0.015625)"/>
       <path id="DejaVuSans-56" d="M 1831 0 
L 50 4666 
L 709 4666 
L 2188 738 
L 3669 4666 
L 4325 4666 
L 2547 0 
L 1831 0 
z
" transform="scale(0.015625)"/>
       <path id="DejaVuSans-bd" d="M 488 2431 
L 1125 2431 
L 1125 4341 
L 428 4213 
L 428 4575 
L 1147 4697 
L 1575 4697 
L 1575 2431 
L 2216 2431 
L 2216 2088 
L 488 2088 
L 488 2431 
z
M 4470 332 
L 5795 332 
L 5795 -24 
L 3926 -24 
L 3926 319 
Q 4032 416 4229 591 
Q 5304 1544 5304 1838 
Q 5304 2044 5141 2170 
Q 4979 2297 4713 2297 
Q 4551 2297 4360 2242 
Q 4170 2188 3945 2079 
L 3945 2463 
Q 4185 2551 4393 2594 
Q 4601 2638 4779 2638 
Q 5232 2638 5504 2432 
Q 5776 2226 5776 1888 
Q 5776 1454 4741 566 
Q 4566 416 4470 332 
z
M 4309 4750 
L 4809 4750 
L 1896 -91 
L 1396 -91 
L 4309 4750 
z
" transform="scale(0.015625)"/>
      </defs>
      <use xlink:href="#DejaVuSans-4a"/>
      <use xlink:href="#DejaVuSans-61" transform="translate(29.492188 0)"/>
      <use xlink:href="#DejaVuSans-76" transform="translate(90.771484 0)"/>
      <use xlink:href="#DejaVuSans-61" transform="translate(149.951172 0)"/>
      <use xlink:href="#DejaVuSans-20" transform="translate(211.230469 0)"/>
      <use xlink:href="#DejaVuSans-56" transform="translate(243.017578 0)"/>
      <use xlink:href="#DejaVuSans-65" transform="translate(303.675781 0)"/>
      <use xlink:href="#DejaVuSans-72" transform="translate(365.199219 0)"/>
      <use xlink:href="#DejaVuSans-31" transform="translate(406.3125 0)"/>
      <use xlink:href="#DejaVuSans-bd" transform="translate(469.935547 0)"/>
     </g>
    </g>
    <g id="LineCollection_6">
     <path d="M 66.72 59.656563 
L 66.72 49.656563 
" style="fill: none; stroke: #009933; stroke-width: 1.5"/>
    </g>
    <g id="line2d_29">
     <g>
      <use xlink:href="#m567d63a80a" x="66.72" y="59.656563" style="fill: #009933; stroke: #009933"/>
     </g>
    </g>
    <g id="line2d_30">
     <g>
      <use xlink:href="#m567d63a80a" x="66.72" y="49.656563" style="fill: #009933; stroke: #009933"/>
     </g>
    </g>
    <g id="line2d_31">
     <path d="M 56.72 54.656563 
L 76.72 54.656563 
" style="fill: none; stroke: #009933; stroke-width: 1.5; stroke-linecap: square"/>
    </g>
    <g id="line2d_32"/>
    <g id="text_17">
     <!-- Java Ver2 -->
     <g transform="translate(84.72 58.156563) scale(0.1 -0.1)">
      <use xlink:href="#DejaVuSans-4a"/>
      <use xlink:href="#DejaVuSans-61" transform="translate(29.492188 0)"/>
      <use xlink:href="#DejaVuSans-76" transform="translate(90.771484 0)"/>
      <use xlink:href="#DejaVuSans-61" transform="translate(149.951172 0)"/>
      <use xlink:href="#DejaVuSans-20" transform="translate(211.230469 0)"/>
      <use xlink:href="#DejaVuSans-56" transform="translate(243.017578 0)"/>
      <use xlink:href="#DejaVuSans-65" transform="translate(303.675781 0)"/>
      <use xlink:href="#DejaVuSans-72" transform="translate(365.199219 0)"/>
      <use xlink:href="#DejaVuSans-32" transform="translate(406.3125 0)"/>
      <use xlink:href="#DejaVuSans-bd" transform="translate(469.935547 0)"/>
     </g>
    </g>
    <g id="LineCollection_7">
     <path d="M 66.72 74.334687 
L 66.72 64.334687 
" style="fill: none; stroke: #cc0033; stroke-width: 1.5"/>
    </g>
    <g id="line2d_33">
     <g>
      <use xlink:href="#md3fe7ae338" x="66.72" y="74.334687" style="fill: #cc0033; stroke: #cc0033"/>
     </g>
    </g>
    <g id="line2d_34">
     <g>
      <use xlink:href="#md3fe7ae338" x="66.72" y="64.334687" style="fill: #cc0033; stroke: #cc0033"/>
     </g>
    </g>
    <g id="line2d_35">
     <path d="M 56.72 69.334687 
L 76.72 69.334687 
" style="fill: none; stroke-dasharray: 1.5,2.475; stroke-dashoffset: 0; stroke: #cc0033; stroke-width: 1.5"/>
    </g>
    <g id="line2d_36"/>
    <g id="text_18">
     <!-- Rust Ver1 -->
     <g transform="translate(84.72 72.834687) scale(0.1 -0.1)">
      <defs>
       <path id="DejaVuSans-52" d="M 2841 2188 
Q 3044 2119 3236 1894 
Q 3428 1669 3622 1275 
L 4263 0 
L 3584 0 
L 2988 1197 
Q 2756 1666 2539 1819 
Q 2322 1972 1947 1972 
L 1259 1972 
L 1259 0 
L 628 0 
L 628 4666 
L 2053 4666 
Q 2853 4666 3247 4331 
Q 3641 3997 3641 3322 
Q 3641 2881 3436 2590 
Q 3231 2300 2841 2188 
z
M 1259 4147 
L 1259 2491 
L 2053 2491 
Q 2509 2491 2742 2702 
Q 2975 2913 2975 3322 
Q 2975 3731 2742 3939 
Q 2509 4147 2053 4147 
L 1259 4147 
z
" transform="scale(0.015625)"/>
       <path id="DejaVuSans-75" d="M 544 1381 
L 544 3500 
L 1119 3500 
L 1119 1403 
Q 1119 906 1312 657 
Q 1506 409 1894 409 
Q 2359 409 2629 706 
Q 2900 1003 2900 1516 
L 2900 3500 
L 3475 3500 
L 3475 0 
L 2900 0 
L 2900 538 
Q 2691 219 2414 64 
Q 2138 -91 1772 -91 
Q 1169 -91 856 284 
Q 544 659 544 1381 
z
M 1991 3584 
L 1991 3584 
z
" transform="scale(0.015625)"/>
      </defs>
      <use xlink:href="#DejaVuSans-52"/>
      <use xlink:href="#DejaVuSans-75" transform="translate(64.982422 0)"/>
      <use xlink:href="#DejaVuSans-73" transform="translate(128.361328 0)"/>
      <use xlink:href="#DejaVuSans-74" transform="translate(180.460938 0)"/>
      <use xlink:href="#DejaVuSans-20" transform="translate(219.669922 0)"/>
      <use xlink:href="#DejaVuSans-56" transform="translate(251.457031 0)"/>
      <use xlink:href="#DejaVuSans-65" transform="translate(312.115234 0)"/>
      <use xlink:href="#DejaVuSans-72" transform="translate(373.638672 0)"/>
      <use xlink:href="#DejaVuSans-31" transform="translate(414.751953 0)"/>
      <use xlink:href="#DejaVuSans-bd" transform="translate(478.375 0)"/>
     </g>
    </g>
    <g id="LineCollection_8">
     <path d="M 66.72 89.012812 
L 66.72 79.012812 
" style="fill: none; stroke: #cc0033; stroke-width: 1.5"/>
    </g>
    <g id="line2d_37">
     <g>
      <use xlink:href="#md3fe7ae338" x="66.72" y="89.012812" style="fill: #cc0033; stroke: #cc0033"/>
     </g>
    </g>
    <g id="line2d_38">
     <g>
      <use xlink:href="#md3fe7ae338" x="66.72" y="79.012812" style="fill: #cc0033; stroke: #cc0033"/>
     </g>
    </g>
    <g id="line2d_39">
     <path d="M 56.72 84.012812 
L 76.72 84.012812 
" style="fill: none; stroke: #cc0033; stroke-width: 1.5; stroke-linecap: square"/>
    </g>
    <g id="line2d_40"/>
    <g id="text_19">
     <!-- Rust Ver2 -->
     <g transform="translate(84.72 87.512812) scale(0.1 -0.1)">
      <use xlink:href="#DejaVuSans-52"/>
      <use xlink:href="#DejaVuSans-75" transform="translate(64.982422 0)"/>
      <use xlink:href="#DejaVuSans-73" transform="translate(128.361328 0)"/>
      <use xlink:href="#DejaVuSans-74" transform="translate(180.460938 0)"/>
      <use xlink:href="#DejaVuSans-20" transform="translate(219.669922 0)"/>
      <use xlink:href="#DejaVuSans-56" transform="translate(251.457031 0)"/>
      <use xlink:href="#DejaVuSans-65" transform="translate(312.115234 0)"/>
      <use xlink:href="#DejaVuSans-72" transform="translate(373.638672 0)"/>
      <use xlink:href="#DejaVuSans-32" transform="translate(414.751953 0)"/>
      <use xlink:href="#DejaVuSans-bd" transform="translate(478.375 0)"/>
     </g>
    </g>
   </g>
  </g>
 </g>
 <defs>
  <clipPath id="pd2621ff3a7">
   <rect x="47.72" y="26.88" width="517.48" height="363.16"/>
  </clipPath>
 </defs>
</svg>
