<?xml version="1.0" encoding="utf-8" standalone="no"?>
<!DOCTYPE svg PUBLIC "-//W3C//DTD SVG 1.1//EN"
  "http://www.w3.org/Graphics/SVG/1.1/DTD/svg11.dtd">
<svg xmlns:xlink="http://www.w3.org/1999/xlink" width="576pt" height="432pt" viewBox="0 0 576 432" xmlns="http://www.w3.org/2000/svg" version="1.1">
 <metadata>
  <rdf:RDF xmlns:dc="http://purl.org/dc/elements/1.1/" xmlns:cc="http://creativecommons.org/ns#" xmlns:rdf="http://www.w3.org/1999/02/22-rdf-syntax-ns#">
   <cc:Work>
    <dc:type rdf:resource="http://purl.org/dc/dcmitype/StillImage"/>
    <dc:date>2026-03-12T12:12:33.669230</dc:date>
    <dc:format>image/svg+xml</dc:format>
    <dc:creator>
     <cc:Agent>
      <dc:title>Matplotlib v3.10.8, https://matplotlib.org/</dc:title>
     </cc:Agent>
    </dc:creator>
   </cc:Work>
  </rdf:RDF>
 </metadata>
 <defs>
  <style type="text/css">*{stroke-linejoin: round; stroke-linecap: butt}</style>
 </defs>
 <g id="figure_1">
  <g id="patch_1">
   <path d="M 0 432 
L 576 432 
L 576 0 
L 0 0 
z
" style="fill: #ffffff"/>
  </g>
  <g id="axes_1">
   <g id="patch_2">
    <path d="M 54.02 390.04 
L 565.2 390.04 
L 565.2 26.88 
L 54.02 26.88 
z
" style="fill: #ffffff"/>
   </g>
   <g id="matplotlib.axis_1">
    <g id="xtick_1">
     <g id="line2d_1">
      <defs>
       <path id="mc74f61fcfc" d="M 0 0 
L 0 3.5 
" style="stroke: #000000; stroke-width: 0.8"/>
      </defs>
      <g>
       <use xlink:href="#mc74f61fcfc" x="77.255455" y="390.04" style="stroke: #000000; stroke-width: 0.8"/>
      </g>
     </g>
     <g id="text_1">
      <!-- 2000 -->
      <g transform="translate(64.530455 404.638438) scale(0.1 -0.1)">
       <defs>
        <path id="DejaVuSans-32" d="M 1228 531 
L 3431 531 
L 3431 0 
L 469 0 
L 469 531 
Q 828 903 1448 1529 
Q 2069 2156 2228 2338 
Q 2531 2678 2651 2914 
Q 2772 3150 2772 3378 
Q 2772 3750 2511 3984 
Q 2250 4219 1831 4219 
Q 1534 4219 1204 4116 
Q 875 4013 500 3803 
L 500 4441 
Q 881 4594 1212 4672 
Q 1544 4750 1819 4750 
Q 2544 4750 2975 4387 
Q 3406 4025 3406 3419 
Q 3406 3131 3298 2873 
Q 3191 2616 2906 2266 
Q 2828 2175 2409 1742 
Q 1991 1309 1228 531 
z
" transform="scale(0.015625)"/>
        <path id="DejaVuSans-30" d="M 2034 4250 
Q 1547 4250 1301 3770 
Q 1056 3291 1056 2328 
Q 1056 1369 1301 889 
Q 1547 409 2034 409 
Q 2525 409 2770 889 
Q 3016 1369 3016 2328 
Q 3016 3291 2770 3770 
Q 2525 4250 2034 4250 
z
M 2034 4750 
Q 2819 4750 3233 4129 
Q 3647 3509 3647 2328 
Q 3647 1150 3233 529 
Q 2819 -91 2034 -91 
Q 1250 -91 836 529 
Q 422 1150 422 2328 
Q 422 3509 836 4129 
Q 1250 4750 2034 4750 
z
" transform="scale(0.015625)"/>
       </defs>
       <use xlink:href="#DejaVuSans-32"/>
       <use xlink:href="#DejaVuSans-30" transform="translate(63.623047 0)"/>
       <use xlink:href="#DejaVuSans-30" transform="translate(127.246094 0)"/>
       <use xlink:href="#DejaVuSans-30" transform="translate(190.869141 0)"/>
      </g>
     </g>
    </g>
    <g id="xtick_2">
     <g id="line2d_2">
      <g>
       <use xlink:href="#mc74f61fcfc" x="170.197273" y="390.04" style="stroke: #000000; stroke-width: 0.8"/>
      </g>
     </g>
     <g id="text_2">
      <!-- 2200 -->
      <g transform="translate(157.472273 404.638438) scale(0.1 -0.1)">
       <use xlink:href="#DejaVuSans-32"/>
       <use xlink:href="#DejaVuSans-32" transform="translate(63.623047 0)"/>
       <use xlink:href="#DejaVuSans-30" transform="translate(127.246094 0)"/>
       <use xlink:href="#DejaVuSans-30" transform="translate(190.869141 0)"/>
      </g>
     </g>
    </g>
    <g id="xtick_3">
     <g id="line2d_3">
      <g>
       <use xlink:href="#mc74f61fcfc" x="263.139091" y="390.04" style="stroke: #000000; stroke-width: 0.8"/>
      </g>
     </g>
     <g id="text_3">
      <!-- 2400 -->
      <g transform="translate(250.414091 404.638438) scale(0.1 -0.1)">
       <defs>
        <path id="DejaVuSans-34" d="M 2419 4116 
L 825 1625 
L 2419 1625 
L 2419 4116 
z
M 2253 4666 
L 3047 4666 
L 3047 1625 
L 3713 1625 
L 3713 1100 
L 3047 1100 
L 3047 0 
L 2419 0 
L 2419 1100 
L 313 1100 
L 313 1709 
L 2253 4666 
z
" transform="scale(0.015625)"/>
       </defs>
       <use xlink:href="#DejaVuSans-32"/>
       <use xlink:href="#DejaVuSans-34" transform="translate(63.623047 0)"/>
       <use xlink:href="#DejaVuSans-30" transform="translate(127.246094 0)"/>
       <use xlink:href="#DejaVuSans-30" transform="translate(190.869141 0)"/>
      </g>
     </g>
    </g>
    <g id="xtick_4">
     <g id="line2d_4">
      <g>
       <use xlink:href="#mc74f61fcfc" x="356.080909" y="390.04" style="stroke: #000000; stroke-width: 0.8"/>
      </g>
     </g>
     <g id="text_4">
      <!-- 2600 -->
      <g transform="translate(343.355909 404.638438) scale(0.1 -0.1)">
       <defs>
        <path id="DejaVuSans-36" d="M 2113 2584 
Q 1688 2584 1439 2293 
Q 1191 2003 1191 1497 
Q 1191 994 1439 701 
Q 1688 409 2113 409 
Q 2538 409 2786 701 
Q 3034 994 3034 1497 
Q 3034 2003 2786 2293 
Q 2538 2584 2113 2584 
z
M 3366 4563 
L 3366 3988 
Q 3128 4100 2886 4159 
Q 2644 4219 2406 4219 
Q 1781 4219 1451 3797 
Q 1122 3375 1075 2522 
Q 1259 2794 1537 2939 
Q 1816 3084 2150 3084 
Q 2853 3084 3261 2657 
Q 3669 2231 3669 1497 
Q 3669 778 3244 343 
Q 2819 -91 2113 -91 
Q 1303 -91 875 529 
Q 447 1150 447 2328 
Q 447 3434 972 4092 
Q 1497 4750 2381 4750 
Q 2619 4750 2861 4703 
Q 3103 4656 3366 4563 
z
" transform="scale(0.015625)"/>
       </defs>
       <use xlink:href="#DejaVuSans-32"/>
       <use xlink:href="#DejaVuSans-36" transform="translate(63.623047 0)"/>
       <use xlink:href="#DejaVuSans-30" transform="translate(127.246094 0)"/>
       <use xlink:href="#DejaVuSans-30" transform="translate(190.869141 0)"/>
      </g>
     </g>
    </g>
    <g id="xtick_5">
     <g id="line2d_5">
      <g>
       <use xlink:href="#mc74f61fcfc" x="449.022727" y="390.04" style="stroke: #000000; stroke-width: 0.8"/>
      </g>
     </g>
     <g id="text_5">
      <!-- 2800 -->
      <g transform="translate(436.297727 404.638438) scale(0.1 -0.1)">
       <defs>
        <path id="DejaVuSans-38" d="M 2034 2216 
Q 1584 2216 1326 1975 
Q 1069 1734 1069 1313 
Q 1069 891 1326 650 
Q 1584 409 2034 409 
Q 2484 409 2743 651 
Q 3003 894 3003 1313 
Q 3003 1734 2745 1975 
Q 2488 2216 2034 2216 
z
M 1403 2484 
Q 997 2584 770 2862 
Q 544 3141 544 3541 
Q 544 4100 942 4425 
Q 1341 4750 2034 4750 
Q 2731 4750 3128 4425 
Q 3525 4100 3525 3541 
Q 3525 3141 3298 2862 
Q 3072 2584 2669 2484 
Q 3125 2378 3379 2068 
Q 3634 1759 3634 1313 
Q 3634 634 3220 271 
Q 2806 -91 2034 -91 
Q 1263 -91 848 271 
Q 434 634 434 1313 
Q 434 1759 690 2068 
Q 947 2378 1403 2484 
z
M 1172 3481 
Q 1172 3119 1398 2916 
Q 1625 2713 2034 2713 
Q 2441 2713 2670 2916 
Q 2900 3119 2900 3481 
Q 2900 3844 2670 4047 
Q 2441 4250 2034 4250 
Q 1625 4250 1398 4047 
Q 1172 3844 1172 3481 
z
" transform="scale(0.015625)"/>
       </defs>
       <use xlink:href="#DejaVuSans-32"/>
       <use xlink:href="#DejaVuSans-38" transform="translate(63.623047 0)"/>
       <use xlink:href="#DejaVuSans-30" transform="translate(127.246094 0)"/>
       <use xlink:href="#DejaVuSans-30" transform="translate(190.869141 0)"/>
      </g>
     </g>
    </g>
    <g id="xtick_6">
     <g id="line2d_6">
      <g>
       <use xlink:href="#mc74f61fcfc" x="541.964545" y="390.04" style="stroke: #000000; stroke-width: 0.8"/>
      </g>
     </g>
     <g id="text_6">
      <!-- 3000 -->
      <g transform="translate(529.239545 404.638438) scale(0.1 -0.1)">
       <defs>
        <path id="DejaVuSans-33" d="M 2597 2516 
Q 3050 2419 3304 2112 
Q 3559 1806 3559 1356 
Q 3559 666 3084 287 
Q 2609 -91 1734 -91 
Q 1441 -91 1130 -33 
Q 819 25 488 141 
L 488 750 
Q 750 597 1062 519 
Q 1375 441 1716 441 
Q 2309 441 2620 675 
Q 2931 909 2931 1356 
Q 2931 1769 2642 2001 
Q 2353 2234 1838 2234 
L 1294 2234 
L 1294 2753 
L 1863 2753 
Q 2328 2753 2575 2939 
Q 2822 3125 2822 3475 
Q 2822 3834 2567 4026 
Q 2313 4219 1838 4219 
Q 1578 4219 1281 4162 
Q 984 4106 628 3988 
L 628 4550 
Q 988 4650 1302 4700 
Q 1616 4750 1894 4750 
Q 2613 4750 3031 4423 
Q 3450 4097 3450 3541 
Q 3450 3153 3228 2886 
Q 3006 2619 2597 2516 
z
" transform="scale(0.015625)"/>
       </defs>
       <use xlink:href="#DejaVuSans-33"/>
       <use xlink:href="#DejaVuSans-30" transform="translate(63.623047 0)"/>
       <use xlink:href="#DejaVuSans-30" transform="translate(127.246094 0)"/>
       <use xlink:href="#DejaVuSans-30" transform="translate(190.869141 0)"/>
      </g>
     </g>
    </g>
    <g id="text_7">
     <!-- Size (#edges) -->
     <g transform="translate(274.559219 418.316562) scale(0.1 -0.1)">
      <defs>
       <path id="DejaVuSans-53" d="M 3425 4513 
L 3425 3897 
Q 3066 4069 2747 4153 
Q 2428 4238 2131 4238 
Q 1616 4238 1336 4038 
Q 1056 3838 1056 3469 
Q 1056 3159 1242 3001 
Q 1428 2844 1947 2747 
L 2328 2669 
Q 3034 2534 3370 2195 
Q 3706 1856 3706 1288 
Q 3706 609 3251 259 
Q 2797 -91 1919 -91 
Q 1588 -91 1214 -16 
Q 841 59 441 206 
L 441 856 
Q 825 641 1194 531 
Q 1563 422 1919 422 
Q 2459 422 2753 634 
Q 3047 847 3047 1241 
Q 3047 1584 2836 1778 
Q 2625 1972 2144 2069 
L 1759 2144 
Q 1053 2284 737 2584 
Q 422 2884 422 3419 
Q 422 4038 858 4394 
Q 1294 4750 2059 4750 
Q 2388 4750 2728 4690 
Q 3069 4631 3425 4513 
z
" transform="scale(0.015625)"/>
       <path id="DejaVuSans-69" d="M 603 3500 
L 1178 3500 
L 1178 0 
L 603 0 
L 603 3500 
z
M 603 4863 
L 1178 4863 
L 1178 4134 
L 603 4134 
L 603 4863 
z
" transform="scale(0.015625)"/>
       <path id="DejaVuSans-7a" d="M 353 3500 
L 3084 3500 
L 3084 2975 
L 922 459 
L 3084 459 
L 3084 0 
L 275 0 
L 275 525 
L 2438 3041 
L 353 3041 
L 353 3500 
z
" transform="scale(0.015625)"/>
       <path id="DejaVuSans-65" d="M 3597 1894 
L 3597 1613 
L 953 1613 
Q 991 1019 1311 708 
Q 1631 397 2203 397 
Q 2534 397 2845 478 
Q 3156 559 3463 722 
L 3463 178 
Q 3153 47 2828 -22 
Q 2503 -91 2169 -91 
Q 1331 -91 842 396 
Q 353 884 353 1716 
Q 353 2575 817 3079 
Q 1281 3584 2069 3584 
Q 2775 3584 3186 3129 
Q 3597 2675 3597 1894 
z
M 3022 2063 
Q 3016 2534 2758 2815 
Q 2500 3097 2075 3097 
Q 1594 3097 1305 2825 
Q 1016 2553 972 2059 
L 3022 2063 
z
" transform="scale(0.015625)"/>
       <path id="DejaVuSans-20" transform="scale(0.015625)"/>
       <path id="DejaVuSans-28" d="M 1984 4856 
Q 1566 4138 1362 3434 
Q 1159 2731 1159 2009 
Q 1159 1288 1364 580 
Q 1569 -128 1984 -844 
L 1484 -844 
Q 1016 -109 783 600 
Q 550 1309 550 2009 
Q 550 2706 781 3412 
Q 1013 4119 1484 4856 
L 1984 4856 
z
" transform="scale(0.015625)"/>
       <path id="DejaVuSans-23" d="M 3272 2816 
L 2363 2816 
L 2100 1772 
L 3016 1772 
L 3272 2816 
z
M 2803 4594 
L 2478 3297 
L 3391 3297 
L 3719 4594 
L 4219 4594 
L 3897 3297 
L 4872 3297 
L 4872 2816 
L 3775 2816 
L 3519 1772 
L 4513 1772 
L 4513 1294 
L 3397 1294 
L 3072 0 
L 2572 0 
L 2894 1294 
L 1978 1294 
L 1656 0 
L 1153 0 
L 1478 1294 
L 494 1294 
L 494 1772 
L 1594 1772 
L 1856 2816 
L 850 2816 
L 850 3297 
L 1978 3297 
L 2297 4594 
L 2803 4594 
z
" transform="scale(0.015625)"/>
       <path id="DejaVuSans-64" d="M 2906 2969 
L 2906 4863 
L 3481 4863 
L 3481 0 
L 2906 0 
L 2906 525 
Q 2725 213 2448 61 
Q 2172 -91 1784 -91 
Q 1150 -91 751 415 
Q 353 922 353 1747 
Q 353 2572 751 3078 
Q 1150 3584 1784 3584 
Q 2172 3584 2448 3432 
Q 2725 3281 2906 2969 
z
M 947 1747 
Q 947 1113 1208 752 
Q 1469 391 1925 391 
Q 2381 391 2643 752 
Q 2906 1113 2906 1747 
Q 2906 2381 2643 2742 
Q 2381 3103 1925 3103 
Q 1469 3103 1208 2742 
Q 947 2381 947 1747 
z
" transform="scale(0.015625)"/>
       <path id="DejaVuSans-67" d="M 2906 1791 
Q 2906 2416 2648 2759 
Q 2391 3103 1925 3103 
Q 1463 3103 1205 2759 
Q 947 2416 947 1791 
Q 947 1169 1205 825 
Q 1463 481 1925 481 
Q 2391 481 2648 825 
Q 2906 1169 2906 1791 
z
M 3481 434 
Q 3481 -459 3084 -895 
Q 2688 -1331 1869 -1331 
Q 1566 -1331 1297 -1286 
Q 1028 -1241 775 -1147 
L 775 -588 
Q 1028 -725 1275 -790 
Q 1522 -856 1778 -856 
Q 2344 -856 2625 -561 
Q 2906 -266 2906 331 
L 2906 616 
Q 2728 306 2450 153 
Q 2172 0 1784 0 
Q 1141 0 747 490 
Q 353 981 353 1791 
Q 353 2603 747 3093 
Q 1141 3584 1784 3584 
Q 2172 3584 2450 3431 
Q 2728 3278 2906 2969 
L 2906 3500 
L 3481 3500 
L 3481 434 
z
" transform="scale(0.015625)"/>
       <path id="DejaVuSans-73" d="M 2834 3397 
L 2834 2853 
Q 2591 2978 2328 3040 
Q 2066 3103 1784 3103 
Q 1356 3103 1142 2972 
Q 928 2841 928 2578 
Q 928 2378 1081 2264 
Q 1234 2150 1697 2047 
L 1894 2003 
Q 2506 1872 2764 1633 
Q 3022 1394 3022 966 
Q 3022 478 2636 193 
Q 2250 -91 1575 -91 
Q 1294 -91 989 -36 
Q 684 19 347 128 
L 347 722 
Q 666 556 975 473 
Q 1284 391 1588 391 
Q 1994 391 2212 530 
Q 2431 669 2431 922 
Q 2431 1156 2273 1281 
Q 2116 1406 1581 1522 
L 1381 1569 
Q 847 1681 609 1914 
Q 372 2147 372 2553 
Q 372 3047 722 3315 
Q 1072 3584 1716 3584 
Q 2034 3584 2315 3537 
Q 2597 3491 2834 3397 
z
" transform="scale(0.015625)"/>
       <path id="DejaVuSans-29" d="M 513 4856 
L 1013 4856 
Q 1481 4119 1714 3412 
Q 1947 2706 1947 2009 
Q 1947 1309 1714 600 
Q 1481 -109 1013 -844 
L 513 -844 
Q 928 -128 1133 580 
Q 1338 1288 1338 2009 
Q 1338 2731 1133 3434 
Q 928 4138 513 4856 
z
" transform="scale(0.015625)"/>
      </defs>
      <use xlink:href="#DejaVuSans-53"/>
      <use xlink:href="#DejaVuSans-69" transform="translate(63.476562 0)"/>
      <use xlink:href="#DejaVuSans-7a" transform="translate(91.259766 0)"/>
      <use xlink:href="#DejaVuSans-65" transform="translate(143.75 0)"/>
      <use xlink:href="#DejaVuSans-20" transform="translate(205.273438 0)"/>
      <use xlink:href="#DejaVuSans-28" transform="translate(237.060547 0)"/>
      <use xlink:href="#DejaVuSans-23" transform="translate(276.074219 0)"/>
      <use xlink:href="#DejaVuSans-65" transform="translate(359.863281 0)"/>
      <use xlink:href="#DejaVuSans-64" transform="translate(421.386719 0)"/>
      <use xlink:href="#DejaVuSans-67" transform="translate(484.863281 0)"/>
      <use xlink:href="#DejaVuSans-65" transform="translate(548.339844 0)"/>
      <use xlink:href="#DejaVuSans-73" transform="translate(609.863281 0)"/>
      <use xlink:href="#DejaVuSans-29" transform="translate(661.962891 0)"/>
     </g>
    </g>
   </g>
   <g id="matplotlib.axis_2">
    <g id="ytick_1">
     <g id="line2d_7">
      <defs>
       <path id="m7eb1c47a8f" d="M 0 0 
L -3.5 0 
" style="stroke: #000000; stroke-width: 0.8"/>
      </defs>
      <g>
       <use xlink:href="#m7eb1c47a8f" x="54.02" y="378.699152" style="stroke: #000000; stroke-width: 0.8"/>
      </g>
     </g>
     <g id="text_8">
      <!-- 0.00 -->
      <g transform="translate(24.754375 382.49837) scale(0.1 -0.1)">
       <defs>
        <path id="DejaVuSans-2e" d="M 684 794 
L 1344 794 
L 1344 0 
L 684 0 
L 684 794 
z
" transform="scale(0.015625)"/>
       </defs>
       <use xlink:href="#DejaVuSans-30"/>
       <use xlink:href="#DejaVuSans-2e" transform="translate(63.623047 0)"/>
       <use xlink:href="#DejaVuSans-30" transform="translate(95.410156 0)"/>
       <use xlink:href="#DejaVuSans-30" transform="translate(159.033203 0)"/>
      </g>
     </g>
    </g>
    <g id="ytick_2">
     <g id="line2d_8">
      <g>
       <use xlink:href="#m7eb1c47a8f" x="54.02" y="326.906462" style="stroke: #000000; stroke-width: 0.8"/>
      </g>
     </g>
     <g id="text_9">
      <!-- 0.05 -->
      <g transform="translate(24.754375 330.705681) scale(0.1 -0.1)">
       <defs>
        <path id="DejaVuSans-35" d="M 691 4666 
L 3169 4666 
L 3169 4134 
L 1269 4134 
L 1269 2991 
Q 1406 3038 1543 3061 
Q 1681 3084 1819 3084 
Q 2600 3084 3056 2656 
Q 3513 2228 3513 1497 
Q 3513 744 3044 326 
Q 2575 -91 1722 -91 
Q 1428 -91 1123 -41 
Q 819 9 494 109 
L 494 744 
Q 775 591 1075 516 
Q 1375 441 1709 441 
Q 2250 441 2565 725 
Q 2881 1009 2881 1497 
Q 2881 1984 2565 2268 
Q 2250 2553 1709 2553 
Q 1456 2553 1204 2497 
Q 953 2441 691 2322 
L 691 4666 
z
" transform="scale(0.015625)"/>
       </defs>
       <use xlink:href="#DejaVuSans-30"/>
       <use xlink:href="#DejaVuSans-2e" transform="translate(63.623047 0)"/>
       <use xlink:href="#DejaVuSans-30" transform="translate(95.410156 0)"/>
       <use xlink:href="#DejaVuSans-35" transform="translate(159.033203 0)"/>
      </g>
     </g>
    </g>
    <g id="ytick_3">
     <g id="line2d_9">
      <g>
       <use xlink:href="#m7eb1c47a8f" x="54.02" y="275.113773" style="stroke: #000000; stroke-width: 0.8"/>
      </g>
     </g>
     <g id="text_10">
      <!-- 0.10 -->
      <g transform="translate(24.754375 278.912992) scale(0.1 -0.1)">
       <defs>
        <path id="DejaVuSans-31" d="M 794 531 
L 1825 531 
L 1825 4091 
L 703 3866 
L 703 4441 
L 1819 4666 
L 2450 4666 
L 2450 531 
L 3481 531 
L 3481 0 
L 794 0 
L 794 531 
z
" transform="scale(0.015625)"/>
       </defs>
       <use xlink:href="#DejaVuSans-30"/>
       <use xlink:href="#DejaVuSans-2e" transform="translate(63.623047 0)"/>
       <use xlink:href="#DejaVuSans-31" transform="translate(95.410156 0)"/>
       <use xlink:href="#DejaVuSans-30" transform="translate(159.033203 0)"/>
      </g>
     </g>
    </g>
    <g id="ytick_4">
     <g id="line2d_10">
      <g>
       <use xlink:href="#m7eb1c47a8f" x="54.02" y="223.321084" style="stroke: #000000; stroke-width: 0.8"/>
      </g>
     </g>
     <g id="text_11">
      <!-- 0.15 -->
      <g transform="translate(24.754375 227.120302) scale(0.1 -0.1)">
       <use xlink:href="#DejaVuSans-30"/>
       <use xlink:href="#DejaVuSans-2e" transform="translate(63.623047 0)"/>
       <use xlink:href="#DejaVuSans-31" transform="translate(95.410156 0)"/>
       <use xlink:href="#DejaVuSans-35" transform="translate(159.033203 0)"/>
      </g>
     </g>
    </g>
    <g id="ytick_5">
     <g id="line2d_11">
      <g>
       <use xlink:href="#m7eb1c47a8f" x="54.02" y="171.528394" style="stroke: #000000; stroke-width: 0.8"/>
      </g>
     </g>
     <g id="text_12">
      <!-- 0.20 -->
      <g transform="translate(24.754375 175.327613) scale(0.1 -0.1)">
       <use xlink:href="#DejaVuSans-30"/>
       <use xlink:href="#DejaVuSans-2e" transform="translate(63.623047 0)"/>
       <use xlink:href="#DejaVuSans-32" transform="translate(95.410156 0)"/>
       <use xlink:href="#DejaVuSans-30" transform="translate(159.033203 0)"/>
      </g>
     </g>
    </g>
    <g id="ytick_6">
     <g id="line2d_12">
      <g>
       <use xlink:href="#m7eb1c47a8f" x="54.02" y="119.735705" style="stroke: #000000; stroke-width: 0.8"/>
      </g>
     </g>
     <g id="text_13">
      <!-- 0.25 -->
      <g transform="translate(24.754375 123.534924) scale(0.1 -0.1)">
       <use xlink:href="#DejaVuSans-30"/>
       <use xlink:href="#DejaVuSans-2e" transform="translate(63.623047 0)"/>
       <use xlink:href="#DejaVuSans-32" transform="translate(95.410156 0)"/>
       <use xlink:href="#DejaVuSans-35" transform="translate(159.033203 0)"/>
      </g>
     </g>
    </g>
    <g id="ytick_7">
     <g id="line2d_13">
      <g>
       <use xlink:href="#m7eb1c47a8f" x="54.02" y="67.943015" style="stroke: #000000; stroke-width: 0.8"/>
      </g>
     </g>
     <g id="text_14">
      <!-- 0.30 -->
      <g transform="translate(24.754375 71.742234) scale(0.1 -0.1)">
       <use xlink:href="#DejaVuSans-30"/>
       <use xlink:href="#DejaVuSans-2e" transform="translate(63.623047 0)"/>
       <use xlink:href="#DejaVuSans-33" transform="translate(95.410156 0)"/>
       <use xlink:href="#DejaVuSans-30" transform="translate(159.033203 0)"/>
      </g>
     </g>
    </g>
    <g id="text_15">
     <!-- Seconds spent -->
     <g transform="translate(18.674688 245.040469) rotate(-90) scale(0.1 -0.1)">
      <defs>
       <path id="DejaVuSans-63" d="M 3122 3366 
L 3122 2828 
Q 2878 2963 2633 3030 
Q 2388 3097 2138 3097 
Q 1578 3097 1268 2742 
Q 959 2388 959 1747 
Q 959 1106 1268 751 
Q 1578 397 2138 397 
Q 2388 397 2633 464 
Q 2878 531 3122 666 
L 3122 134 
Q 2881 22 2623 -34 
Q 2366 -91 2075 -91 
Q 1284 -91 818 406 
Q 353 903 353 1747 
Q 353 2603 823 3093 
Q 1294 3584 2113 3584 
Q 2378 3584 2631 3529 
Q 2884 3475 3122 3366 
z
" transform="scale(0.015625)"/>
       <path id="DejaVuSans-6f" d="M 1959 3097 
Q 1497 3097 1228 2736 
Q 959 2375 959 1747 
Q 959 1119 1226 758 
Q 1494 397 1959 397 
Q 2419 397 2687 759 
Q 2956 1122 2956 1747 
Q 2956 2369 2687 2733 
Q 2419 3097 1959 3097 
z
M 1959 3584 
Q 2709 3584 3137 3096 
Q 3566 2609 3566 1747 
Q 3566 888 3137 398 
Q 2709 -91 1959 -91 
Q 1206 -91 779 398 
Q 353 888 353 1747 
Q 353 2609 779 3096 
Q 1206 3584 1959 3584 
z
" transform="scale(0.015625)"/>
       <path id="DejaVuSans-6e" d="M 3513 2113 
L 3513 0 
L 2938 0 
L 2938 2094 
Q 2938 2591 2744 2837 
Q 2550 3084 2163 3084 
Q 1697 3084 1428 2787 
Q 1159 2491 1159 1978 
L 1159 0 
L 581 0 
L 581 3500 
L 1159 3500 
L 1159 2956 
Q 1366 3272 1645 3428 
Q 1925 3584 2291 3584 
Q 2894 3584 3203 3211 
Q 3513 2838 3513 2113 
z
" transform="scale(0.015625)"/>
       <path id="DejaVuSans-70" d="M 1159 525 
L 1159 -1331 
L 581 -1331 
L 581 3500 
L 1159 3500 
L 1159 2969 
Q 1341 3281 1617 3432 
Q 1894 3584 2278 3584 
Q 2916 3584 3314 3078 
Q 3713 2572 3713 1747 
Q 3713 922 3314 415 
Q 2916 -91 2278 -91 
Q 1894 -91 1617 61 
Q 1341 213 1159 525 
z
M 3116 1747 
Q 3116 2381 2855 2742 
Q 2594 3103 2138 3103 
Q 1681 3103 1420 2742 
Q 1159 2381 1159 1747 
Q 1159 1113 1420 752 
Q 1681 391 2138 391 
Q 2594 391 2855 752 
Q 3116 1113 3116 1747 
z
" transform="scale(0.015625)"/>
       <path id="DejaVuSans-74" d="M 1172 4494 
L 1172 3500 
L 2356 3500 
L 2356 3053 
L 1172 3053 
L 1172 1153 
Q 1172 725 1289 603 
Q 1406 481 1766 481 
L 2356 481 
L 2356 0 
L 1766 0 
Q 1100 0 847 248 
Q 594 497 594 1153 
L 594 3053 
L 172 3053 
L 172 3500 
L 594 3500 
L 594 4494 
L 1172 4494 
z
" transform="scale(0.015625)"/>
      </defs>
      <use xlink:href="#DejaVuSans-53"/>
      <use xlink:href="#DejaVuSans-65" transform="translate(63.476562 0)"/>
      <use xlink:href="#DejaVuSans-63" transform="translate(125 0)"/>
      <use xlink:href="#DejaVuSans-6f" transform="translate(179.980469 0)"/>
      <use xlink:href="#DejaVuSans-6e" transform="translate(241.162109 0)"/>
      <use xlink:href="#DejaVuSans-64" transform="translate(304.541016 0)"/>
      <use xlink:href="#DejaVuSans-73" transform="translate(368.017578 0)"/>
      <use xlink:href="#DejaVuSans-20" transform="translate(420.117188 0)"/>
      <use xlink:href="#DejaVuSans-73" transform="translate(451.904297 0)"/>
      <use xlink:href="#DejaVuSans-70" transform="translate(504.003906 0)"/>
      <use xlink:href="#DejaVuSans-65" transform="translate(567.480469 0)"/>
      <use xlink:href="#DejaVuSans-6e" transform="translate(629.003906 0)"/>
      <use xlink:href="#DejaVuSans-74" transform="translate(692.382812 0)"/>
     </g>
    </g>
   </g>
   <g id="LineCollection_1">
    <path d="M 77.255455 370.13088 
L 77.255455 369.96649 
" clip-path="url(#p6529becad3)" style="fill: none; stroke: #1f77b4; stroke-width: 1.5"/>
    <path d="M 100.490909 369.276818 
L 100.490909 369.008532 
" clip-path="url(#p6529becad3)" style="fill: none; stroke: #1f77b4; stroke-width: 1.5"/>
    <path d="M 123.726364 367.90773 
L 123.726364 367.653843 
" clip-path="url(#p6529becad3)" style="fill: none; stroke: #1f77b4; stroke-width: 1.5"/>
    <path d="M 146.961818 366.099855 
L 146.961818 365.91858 
" clip-path="url(#p6529becad3)" style="fill: none; stroke: #1f77b4; stroke-width: 1.5"/>
    <path d="M 170.197273 363.942482 
L 170.197273 363.739248 
" clip-path="url(#p6529becad3)" style="fill: none; stroke: #1f77b4; stroke-width: 1.5"/>
    <path d="M 193.432727 362.796828 
L 193.432727 362.463076 
" clip-path="url(#p6529becad3)" style="fill: none; stroke: #1f77b4; stroke-width: 1.5"/>
    <path d="M 216.668182 359.326303 
L 216.668182 358.743636 
" clip-path="url(#p6529becad3)" style="fill: none; stroke: #1f77b4; stroke-width: 1.5"/>
    <path d="M 239.903636 356.629458 
L 239.903636 356.451705 
" clip-path="url(#p6529becad3)" style="fill: none; stroke: #1f77b4; stroke-width: 1.5"/>
    <path d="M 263.139091 353.424837 
L 263.139091 353.315658 
" clip-path="url(#p6529becad3)" style="fill: none; stroke: #1f77b4; stroke-width: 1.5"/>
    <path d="M 286.374545 349.492529 
L 286.374545 348.139497 
" clip-path="url(#p6529becad3)" style="fill: none; stroke: #1f77b4; stroke-width: 1.5"/>
    <path d="M 309.61 346.353685 
L 309.61 345.12423 
" clip-path="url(#p6529becad3)" style="fill: none; stroke: #1f77b4; stroke-width: 1.5"/>
    <path d="M 332.845455 340.227231 
L 332.845455 339.584484 
" clip-path="url(#p6529becad3)" style="fill: none; stroke: #1f77b4; stroke-width: 1.5"/>
    <path d="M 356.080909 335.175269 
L 356.080909 333.621281 
" clip-path="url(#p6529becad3)" style="fill: none; stroke: #1f77b4; stroke-width: 1.5"/>
    <path d="M 379.316364 327.291593 
L 379.316364 326.825666 
" clip-path="url(#p6529becad3)" style="fill: none; stroke: #1f77b4; stroke-width: 1.5"/>
    <path d="M 402.551818 320.581228 
L 402.551818 318.830843 
" clip-path="url(#p6529becad3)" style="fill: none; stroke: #1f77b4; stroke-width: 1.5"/>
    <path d="M 425.787273 309.652349 
L 425.787273 307.5101 
" clip-path="url(#p6529becad3)" style="fill: none; stroke: #1f77b4; stroke-width: 1.5"/>
    <path d="M 449.022727 298.572754 
L 449.022727 294.584924 
" clip-path="url(#p6529becad3)" style="fill: none; stroke: #1f77b4; stroke-width: 1.5"/>
    <path d="M 472.258182 284.842719 
L 472.258182 283.73912 
" clip-path="url(#p6529becad3)" style="fill: none; stroke: #1f77b4; stroke-width: 1.5"/>
    <path d="M 495.493636 263.860465 
L 495.493636 262.971909 
" clip-path="url(#p6529becad3)" style="fill: none; stroke: #1f77b4; stroke-width: 1.5"/>
    <path d="M 518.729091 244.594309 
L 518.729091 240.980008 
" clip-path="url(#p6529becad3)" style="fill: none; stroke: #1f77b4; stroke-width: 1.5"/>
    <path d="M 541.964545 219.106081 
L 541.964545 218.19744 
" clip-path="url(#p6529becad3)" style="fill: none; stroke: #1f77b4; stroke-width: 1.5"/>
   </g>
   <g id="line2d_14">
    <defs>
     <path id="md8547b9e7e" d="M 3 0 
L -3 -0 
" style="stroke: #1f77b4"/>
    </defs>
    <g clip-path="url(#p6529becad3)">
     <use xlink:href="#md8547b9e7e" x="77.255455" y="370.13088" style="fill: #1f77b4; stroke: #1f77b4"/>
     <use xlink:href="#md8547b9e7e" x="100.490909" y="369.276818" style="fill: #1f77b4; stroke: #1f77b4"/>
     <use xlink:href="#md8547b9e7e" x="123.726364" y="367.90773" style="fill: #1f77b4; stroke: #1f77b4"/>
     <use xlink:href="#md8547b9e7e" x="146.961818" y="366.099855" style="fill: #1f77b4; stroke: #1f77b4"/>
     <use xlink:href="#md8547b9e7e" x="170.197273" y="363.942482" style="fill: #1f77b4; stroke: #1f77b4"/>
     <use xlink:href="#md8547b9e7e" x="193.432727" y="362.796828" style="fill: #1f77b4; stroke: #1f77b4"/>
     <use xlink:href="#md8547b9e7e" x="216.668182" y="359.326303" style="fill: #1f77b4; stroke: #1f77b4"/>
     <use xlink:href="#md8547b9e7e" x="239.903636" y="356.629458" style="fill: #1f77b4; stroke: #1f77b4"/>
     <use xlink:href="#md8547b9e7e" x="263.139091" y="353.424837" style="fill: #1f77b4; stroke: #1f77b4"/>
     <use xlink:href="#md8547b9e7e" x="286.374545" y="349.492529" style="fill: #1f77b4; stroke: #1f77b4"/>
     <use xlink:href="#md8547b9e7e" x="309.61" y="346.353685" style="fill: #1f77b4; stroke: #1f77b4"/>
     <use xlink:href="#md8547b9e7e" x="332.845455" y="340.227231" style="fill: #1f77b4; stroke: #1f77b4"/>
     <use xlink:href="#md8547b9e7e" x="356.080909" y="335.175269" style="fill: #1f77b4; stroke: #1f77b4"/>
     <use xlink:href="#md8547b9e7e" x="379.316364" y="327.291593" style="fill: #1f77b4; stroke: #1f77b4"/>
     <use xlink:href="#md8547b9e7e" x="402.551818" y="320.581228" style="fill: #1f77b4; stroke: #1f77b4"/>
     <use xlink:href="#md8547b9e7e" x="425.787273" y="309.652349" style="fill: #1f77b4; stroke: #1f77b4"/>
     <use xlink:href="#md8547b9e7e" x="449.022727" y="298.572754" style="fill: #1f77b4; stroke: #1f77b4"/>
     <use xlink:href="#md8547b9e7e" x="472.258182" y="284.842719" style="fill: #1f77b4; stroke: #1f77b4"/>
     <use xlink:href="#md8547b9e7e" x="495.493636" y="263.860465" style="fill: #1f77b4; stroke: #1f77b4"/>
     <use xlink:href="#md8547b9e7e" x="518.729091" y="244.594309" style="fill: #1f77b4; stroke: #1f77b4"/>
     <use xlink:href="#md8547b9e7e" x="541.964545" y="219.106081" style="fill: #1f77b4; stroke: #1f77b4"/>
    </g>
   </g>
   <g id="line2d_15">
    <g clip-path="url(#p6529becad3)">
     <use xlink:href="#md8547b9e7e" x="77.255455" y="369.96649" style="fill: #1f77b4; stroke: #1f77b4"/>
     <use xlink:href="#md8547b9e7e" x="100.490909" y="369.008532" style="fill: #1f77b4; stroke: #1f77b4"/>
     <use xlink:href="#md8547b9e7e" x="123.726364" y="367.653843" style="fill: #1f77b4; stroke: #1f77b4"/>
     <use xlink:href="#md8547b9e7e" x="146.961818" y="365.91858" style="fill: #1f77b4; stroke: #1f77b4"/>
     <use xlink:href="#md8547b9e7e" x="170.197273" y="363.739248" style="fill: #1f77b4; stroke: #1f77b4"/>
     <use xlink:href="#md8547b9e7e" x="193.432727" y="362.463076" style="fill: #1f77b4; stroke: #1f77b4"/>
     <use xlink:href="#md8547b9e7e" x="216.668182" y="358.743636" style="fill: #1f77b4; stroke: #1f77b4"/>
     <use xlink:href="#md8547b9e7e" x="239.903636" y="356.451705" style="fill: #1f77b4; stroke: #1f77b4"/>
     <use xlink:href="#md8547b9e7e" x="263.139091" y="353.315658" style="fill: #1f77b4; stroke: #1f77b4"/>
     <use xlink:href="#md8547b9e7e" x="286.374545" y="348.139497" style="fill: #1f77b4; stroke: #1f77b4"/>
     <use xlink:href="#md8547b9e7e" x="309.61" y="345.12423" style="fill: #1f77b4; stroke: #1f77b4"/>
     <use xlink:href="#md8547b9e7e" x="332.845455" y="339.584484" style="fill: #1f77b4; stroke: #1f77b4"/>
     <use xlink:href="#md8547b9e7e" x="356.080909" y="333.621281" style="fill: #1f77b4; stroke: #1f77b4"/>
     <use xlink:href="#md8547b9e7e" x="379.316364" y="326.825666" style="fill: #1f77b4; stroke: #1f77b4"/>
     <use xlink:href="#md8547b9e7e" x="402.551818" y="318.830843" style="fill: #1f77b4; stroke: #1f77b4"/>
     <use xlink:href="#md8547b9e7e" x="425.787273" y="307.5101" style="fill: #1f77b4; stroke: #1f77b4"/>
     <use xlink:href="#md8547b9e7e" x="449.022727" y="294.584924" style="fill: #1f77b4; stroke: #1f77b4"/>
     <use xlink:href="#md8547b9e7e" x="472.258182" y="283.73912" style="fill: #1f77b4; stroke: #1f77b4"/>
     <use xlink:href="#md8547b9e7e" x="495.493636" y="262.971909" style="fill: #1f77b4; stroke: #1f77b4"/>
     <use xlink:href="#md8547b9e7e" x="518.729091" y="240.980008" style="fill: #1f77b4; stroke: #1f77b4"/>
     <use xlink:href="#md8547b9e7e" x="541.964545" y="218.19744" style="fill: #1f77b4; stroke: #1f77b4"/>
    </g>
   </g>
   <g id="LineCollection_2">
    <path d="M 77.255455 372.868331 
L 77.255455 372.411623 
" clip-path="url(#p6529becad3)" style="fill: none; stroke: #ff7f0e; stroke-width: 1.5"/>
    <path d="M 100.490909 372.084397 
L 100.490909 371.712836 
" clip-path="url(#p6529becad3)" style="fill: none; stroke: #ff7f0e; stroke-width: 1.5"/>
    <path d="M 123.726364 371.051236 
L 123.726364 370.877627 
" clip-path="url(#p6529becad3)" style="fill: none; stroke: #ff7f0e; stroke-width: 1.5"/>
    <path d="M 146.961818 370.209708 
L 146.961818 370.032784 
" clip-path="url(#p6529becad3)" style="fill: none; stroke: #ff7f0e; stroke-width: 1.5"/>
    <path d="M 170.197273 368.800222 
L 170.197273 368.535561 
" clip-path="url(#p6529becad3)" style="fill: none; stroke: #ff7f0e; stroke-width: 1.5"/>
    <path d="M 193.432727 367.289429 
L 193.432727 367.208218 
" clip-path="url(#p6529becad3)" style="fill: none; stroke: #ff7f0e; stroke-width: 1.5"/>
    <path d="M 216.668182 365.497299 
L 216.668182 365.341713 
" clip-path="url(#p6529becad3)" style="fill: none; stroke: #ff7f0e; stroke-width: 1.5"/>
    <path d="M 239.903636 363.278396 
L 239.903636 363.042325 
" clip-path="url(#p6529becad3)" style="fill: none; stroke: #ff7f0e; stroke-width: 1.5"/>
    <path d="M 263.139091 361.181103 
L 263.139091 361.02355 
" clip-path="url(#p6529becad3)" style="fill: none; stroke: #ff7f0e; stroke-width: 1.5"/>
    <path d="M 286.374545 358.657142 
L 286.374545 357.879319 
" clip-path="url(#p6529becad3)" style="fill: none; stroke: #ff7f0e; stroke-width: 1.5"/>
    <path d="M 309.61 355.11908 
L 309.61 354.955104 
" clip-path="url(#p6529becad3)" style="fill: none; stroke: #ff7f0e; stroke-width: 1.5"/>
    <path d="M 332.845455 352.252147 
L 332.845455 351.828897 
" clip-path="url(#p6529becad3)" style="fill: none; stroke: #ff7f0e; stroke-width: 1.5"/>
    <path d="M 356.080909 347.961019 
L 356.080909 347.021085 
" clip-path="url(#p6529becad3)" style="fill: none; stroke: #ff7f0e; stroke-width: 1.5"/>
    <path d="M 379.316364 342.941582 
L 379.316364 342.551584 
" clip-path="url(#p6529becad3)" style="fill: none; stroke: #ff7f0e; stroke-width: 1.5"/>
    <path d="M 402.551818 337.004897 
L 402.551818 333.593209 
" clip-path="url(#p6529becad3)" style="fill: none; stroke: #ff7f0e; stroke-width: 1.5"/>
    <path d="M 425.787273 329.669395 
L 425.787273 327.220222 
" clip-path="url(#p6529becad3)" style="fill: none; stroke: #ff7f0e; stroke-width: 1.5"/>
    <path d="M 449.022727 322.272674 
L 449.022727 319.117981 
" clip-path="url(#p6529becad3)" style="fill: none; stroke: #ff7f0e; stroke-width: 1.5"/>
    <path d="M 472.258182 313.461391 
L 472.258182 312.064231 
" clip-path="url(#p6529becad3)" style="fill: none; stroke: #ff7f0e; stroke-width: 1.5"/>
    <path d="M 495.493636 301.754068 
L 495.493636 295.053865 
" clip-path="url(#p6529becad3)" style="fill: none; stroke: #ff7f0e; stroke-width: 1.5"/>
    <path d="M 518.729091 287.603062 
L 518.729091 284.051119 
" clip-path="url(#p6529becad3)" style="fill: none; stroke: #ff7f0e; stroke-width: 1.5"/>
    <path d="M 541.964545 269.230331 
L 541.964545 267.162041 
" clip-path="url(#p6529becad3)" style="fill: none; stroke: #ff7f0e; stroke-width: 1.5"/>
   </g>
   <g id="line2d_16">
    <defs>
     <path id="m7f04267d81" d="M 3 0 
L -3 -0 
" style="stroke: #ff7f0e"/>
    </defs>
    <g clip-path="url(#p6529becad3)">
     <use xlink:href="#m7f04267d81" x="77.255455" y="372.868331" style="fill: #ff7f0e; stroke: #ff7f0e"/>
     <use xlink:href="#m7f04267d81" x="100.490909" y="372.084397" style="fill: #ff7f0e; stroke: #ff7f0e"/>
     <use xlink:href="#m7f04267d81" x="123.726364" y="371.051236" style="fill: #ff7f0e; stroke: #ff7f0e"/>
     <use xlink:href="#m7f04267d81" x="146.961818" y="370.209708" style="fill: #ff7f0e; stroke: #ff7f0e"/>
     <use xlink:href="#m7f04267d81" x="170.197273" y="368.800222" style="fill: #ff7f0e; stroke: #ff7f0e"/>
     <use xlink:href="#m7f04267d81" x="193.432727" y="367.289429" style="fill: #ff7f0e; stroke: #ff7f0e"/>
     <use xlink:href="#m7f04267d81" x="216.668182" y="365.497299" style="fill: #ff7f0e; stroke: #ff7f0e"/>
     <use xlink:href="#m7f04267d81" x="239.903636" y="363.278396" style="fill: #ff7f0e; stroke: #ff7f0e"/>
     <use xlink:href="#m7f04267d81" x="263.139091" y="361.181103" style="fill: #ff7f0e; stroke: #ff7f0e"/>
     <use xlink:href="#m7f04267d81" x="286.374545" y="358.657142" style="fill: #ff7f0e; stroke: #ff7f0e"/>
     <use xlink:href="#m7f04267d81" x="309.61" y="355.11908" style="fill: #ff7f0e; stroke: #ff7f0e"/>
     <use xlink:href="#m7f04267d81" x="332.845455" y="352.252147" style="fill: #ff7f0e; stroke: #ff7f0e"/>
     <use xlink:href="#m7f04267d81" x="356.080909" y="347.961019" style="fill: #ff7f0e; stroke: #ff7f0e"/>
     <use xlink:href="#m7f04267d81" x="379.316364" y="342.941582" style="fill: #ff7f0e; stroke: #ff7f0e"/>
     <use xlink:href="#m7f04267d81" x="402.551818" y="337.004897" style="fill: #ff7f0e; stroke: #ff7f0e"/>
     <use xlink:href="#m7f04267d81" x="425.787273" y="329.669395" style="fill: #ff7f0e; stroke: #ff7f0e"/>
     <use xlink:href="#m7f04267d81" x="449.022727" y="322.272674" style="fill: #ff7f0e; stroke: #ff7f0e"/>
     <use xlink:href="#m7f04267d81" x="472.258182" y="313.461391" style="fill: #ff7f0e; stroke: #ff7f0e"/>
     <use xlink:href="#m7f04267d81" x="495.493636" y="301.754068" style="fill: #ff7f0e; stroke: #ff7f0e"/>
     <use xlink:href="#m7f04267d81" x="518.729091" y="287.603062" style="fill: #ff7f0e; stroke: #ff7f0e"/>
     <use xlink:href="#m7f04267d81" x="541.964545" y="269.230331" style="fill: #ff7f0e; stroke: #ff7f0e"/>
    </g>
   </g>
   <g id="line2d_17">
    <g clip-path="url(#p6529becad3)">
     <use xlink:href="#m7f04267d81" x="77.255455" y="372.411623" style="fill: #ff7f0e; stroke: #ff7f0e"/>
     <use xlink:href="#m7f04267d81" x="100.490909" y="371.712836" style="fill: #ff7f0e; stroke: #ff7f0e"/>
     <use xlink:href="#m7f04267d81" x="123.726364" y="370.877627" style="fill: #ff7f0e; stroke: #ff7f0e"/>
     <use xlink:href="#m7f04267d81" x="146.961818" y="370.032784" style="fill: #ff7f0e; stroke: #ff7f0e"/>
     <use xlink:href="#m7f04267d81" x="170.197273" y="368.535561" style="fill: #ff7f0e; stroke: #ff7f0e"/>
     <use xlink:href="#m7f04267d81" x="193.432727" y="367.208218" style="fill: #ff7f0e; stroke: #ff7f0e"/>
     <use xlink:href="#m7f04267d81" x="216.668182" y="365.341713" style="fill: #ff7f0e; stroke: #ff7f0e"/>
     <use xlink:href="#m7f04267d81" x="239.903636" y="363.042325" style="fill: #ff7f0e; stroke: #ff7f0e"/>
     <use xlink:href="#m7f04267d81" x="263.139091" y="361.02355" style="fill: #ff7f0e; stroke: #ff7f0e"/>
     <use xlink:href="#m7f04267d81" x="286.374545" y="357.879319" style="fill: #ff7f0e; stroke: #ff7f0e"/>
     <use xlink:href="#m7f04267d81" x="309.61" y="354.955104" style="fill: #ff7f0e; stroke: #ff7f0e"/>
     <use xlink:href="#m7f04267d81" x="332.845455" y="351.828897" style="fill: #ff7f0e; stroke: #ff7f0e"/>
     <use xlink:href="#m7f04267d81" x="356.080909" y="347.021085" style="fill: #ff7f0e; stroke: #ff7f0e"/>
     <use xlink:href="#m7f04267d81" x="379.316364" y="342.551584" style="fill: #ff7f0e; stroke: #ff7f0e"/>
     <use xlink:href="#m7f04267d81" x="402.551818" y="333.593209" style="fill: #ff7f0e; stroke: #ff7f0e"/>
     <use xlink:href="#m7f04267d81" x="425.787273" y="327.220222" style="fill: #ff7f0e; stroke: #ff7f0e"/>
     <use xlink:href="#m7f04267d81" x="449.022727" y="319.117981" style="fill: #ff7f0e; stroke: #ff7f0e"/>
     <use xlink:href="#m7f04267d81" x="472.258182" y="312.064231" style="fill: #ff7f0e; stroke: #ff7f0e"/>
     <use xlink:href="#m7f04267d81" x="495.493636" y="295.053865" style="fill: #ff7f0e; stroke: #ff7f0e"/>
     <use xlink:href="#m7f04267d81" x="518.729091" y="284.051119" style="fill: #ff7f0e; stroke: #ff7f0e"/>
     <use xlink:href="#m7f04267d81" x="541.964545" y="267.162041" style="fill: #ff7f0e; stroke: #ff7f0e"/>
    </g>
   </g>
   <g id="LineCollection_3">
    <path d="M 77.255455 370.936878 
L 77.255455 370.644145 
" clip-path="url(#p6529becad3)" style="fill: none; stroke: #2ca02c; stroke-width: 1.5"/>
    <path d="M 100.490909 369.985239 
L 100.490909 369.796195 
" clip-path="url(#p6529becad3)" style="fill: none; stroke: #2ca02c; stroke-width: 1.5"/>
    <path d="M 123.726364 368.713107 
L 123.726364 368.473825 
" clip-path="url(#p6529becad3)" style="fill: none; stroke: #2ca02c; stroke-width: 1.5"/>
    <path d="M 146.961818 367.587548 
L 146.961818 367.078426 
" clip-path="url(#p6529becad3)" style="fill: none; stroke: #2ca02c; stroke-width: 1.5"/>
    <path d="M 170.197273 365.868445 
L 170.197273 365.699601 
" clip-path="url(#p6529becad3)" style="fill: none; stroke: #2ca02c; stroke-width: 1.5"/>
    <path d="M 193.432727 364.150067 
L 193.432727 363.701335 
" clip-path="url(#p6529becad3)" style="fill: none; stroke: #2ca02c; stroke-width: 1.5"/>
    <path d="M 216.668182 361.695715 
L 216.668182 361.52915 
" clip-path="url(#p6529becad3)" style="fill: none; stroke: #2ca02c; stroke-width: 1.5"/>
    <path d="M 239.903636 359.322056 
L 239.903636 359.270782 
" clip-path="url(#p6529becad3)" style="fill: none; stroke: #2ca02c; stroke-width: 1.5"/>
    <path d="M 263.139091 356.476877 
L 263.139091 355.800153 
" clip-path="url(#p6529becad3)" style="fill: none; stroke: #2ca02c; stroke-width: 1.5"/>
    <path d="M 286.374545 353.113252 
L 286.374545 352.194864 
" clip-path="url(#p6529becad3)" style="fill: none; stroke: #2ca02c; stroke-width: 1.5"/>
    <path d="M 309.61 349.454099 
L 309.61 346.467007 
" clip-path="url(#p6529becad3)" style="fill: none; stroke: #2ca02c; stroke-width: 1.5"/>
    <path d="M 332.845455 345.219011 
L 332.845455 344.573052 
" clip-path="url(#p6529becad3)" style="fill: none; stroke: #2ca02c; stroke-width: 1.5"/>
    <path d="M 356.080909 339.780882 
L 356.080909 338.939561 
" clip-path="url(#p6529becad3)" style="fill: none; stroke: #2ca02c; stroke-width: 1.5"/>
    <path d="M 379.316364 334.170594 
L 379.316364 333.267122 
" clip-path="url(#p6529becad3)" style="fill: none; stroke: #2ca02c; stroke-width: 1.5"/>
    <path d="M 402.551818 327.142533 
L 402.551818 326.048568 
" clip-path="url(#p6529becad3)" style="fill: none; stroke: #2ca02c; stroke-width: 1.5"/>
    <path d="M 425.787273 317.348121 
L 425.787273 316.568331 
" clip-path="url(#p6529becad3)" style="fill: none; stroke: #2ca02c; stroke-width: 1.5"/>
    <path d="M 449.022727 309.692437 
L 449.022727 308.944032 
" clip-path="url(#p6529becad3)" style="fill: none; stroke: #2ca02c; stroke-width: 1.5"/>
    <path d="M 472.258182 297.968343 
L 472.258182 295.72312 
" clip-path="url(#p6529becad3)" style="fill: none; stroke: #2ca02c; stroke-width: 1.5"/>
    <path d="M 495.493636 282.862581 
L 495.493636 274.430524 
" clip-path="url(#p6529becad3)" style="fill: none; stroke: #2ca02c; stroke-width: 1.5"/>
    <path d="M 518.729091 265.166883 
L 518.729091 262.968802 
" clip-path="url(#p6529becad3)" style="fill: none; stroke: #2ca02c; stroke-width: 1.5"/>
    <path d="M 541.964545 245.541597 
L 541.964545 240.688208 
" clip-path="url(#p6529becad3)" style="fill: none; stroke: #2ca02c; stroke-width: 1.5"/>
   </g>
   <g id="line2d_18">
    <defs>
     <path id="mf3fc7103a7" d="M 3 0 
L -3 -0 
" style="stroke: #2ca02c"/>
    </defs>
    <g clip-path="url(#p6529becad3)">
     <use xlink:href="#mf3fc7103a7" x="77.255455" y="370.936878" style="fill: #2ca02c; stroke: #2ca02c"/>
     <use xlink:href="#mf3fc7103a7" x="100.490909" y="369.985239" style="fill: #2ca02c; stroke: #2ca02c"/>
     <use xlink:href="#mf3fc7103a7" x="123.726364" y="368.713107" style="fill: #2ca02c; stroke: #2ca02c"/>
     <use xlink:href="#mf3fc7103a7" x="146.961818" y="367.587548" style="fill: #2ca02c; stroke: #2ca02c"/>
     <use xlink:href="#mf3fc7103a7" x="170.197273" y="365.868445" style="fill: #2ca02c; stroke: #2ca02c"/>
     <use xlink:href="#mf3fc7103a7" x="193.432727" y="364.150067" style="fill: #2ca02c; stroke: #2ca02c"/>
     <use xlink:href="#mf3fc7103a7" x="216.668182" y="361.695715" style="fill: #2ca02c; stroke: #2ca02c"/>
     <use xlink:href="#mf3fc7103a7" x="239.903636" y="359.322056" style="fill: #2ca02c; stroke: #2ca02c"/>
     <use xlink:href="#mf3fc7103a7" x="263.139091" y="356.476877" style="fill: #2ca02c; stroke: #2ca02c"/>
     <use xlink:href="#mf3fc7103a7" x="286.374545" y="353.113252" style="fill: #2ca02c; stroke: #2ca02c"/>
     <use xlink:href="#mf3fc7103a7" x="309.61" y="349.454099" style="fill: #2ca02c; stroke: #2ca02c"/>
     <use xlink:href="#mf3fc7103a7" x="332.845455" y="345.219011" style="fill: #2ca02c; stroke: #2ca02c"/>
     <use xlink:href="#mf3fc7103a7" x="356.080909" y="339.780882" style="fill: #2ca02c; stroke: #2ca02c"/>
     <use xlink:href="#mf3fc7103a7" x="379.316364" y="334.170594" style="fill: #2ca02c; stroke: #2ca02c"/>
     <use xlink:href="#mf3fc7103a7" x="402.551818" y="327.142533" style="fill: #2ca02c; stroke: #2ca02c"/>
     <use xlink:href="#mf3fc7103a7" x="425.787273" y="317.348121" style="fill: #2ca02c; stroke: #2ca02c"/>
     <use xlink:href="#mf3fc7103a7" x="449.022727" y="309.692437" style="fill: #2ca02c; stroke: #2ca02c"/>
     <use xlink:href="#mf3fc7103a7" x="472.258182" y="297.968343" style="fill: #2ca02c; stroke: #2ca02c"/>
     <use xlink:href="#mf3fc7103a7" x="495.493636" y="282.862581" style="fill: #2ca02c; stroke: #2ca02c"/>
     <use xlink:href="#mf3fc7103a7" x="518.729091" y="265.166883" style="fill: #2ca02c; stroke: #2ca02c"/>
     <use xlink:href="#mf3fc7103a7" x="541.964545" y="245.541597" style="fill: #2ca02c; stroke: #2ca02c"/>
    </g>
   </g>
   <g id="line2d_19">
    <g clip-path="url(#p6529becad3)">
     <use xlink:href="#mf3fc7103a7" x="77.255455" y="370.644145" style="fill: #2ca02c; stroke: #2ca02c"/>
     <use xlink:href="#mf3fc7103a7" x="100.490909" y="369.796195" style="fill: #2ca02c; stroke: #2ca02c"/>
     <use xlink:href="#mf3fc7103a7" x="123.726364" y="368.473825" style="fill: #2ca02c; stroke: #2ca02c"/>
     <use xlink:href="#mf3fc7103a7" x="146.961818" y="367.078426" style="fill: #2ca02c; stroke: #2ca02c"/>
     <use xlink:href="#mf3fc7103a7" x="170.197273" y="365.699601" style="fill: #2ca02c; stroke: #2ca02c"/>
     <use xlink:href="#mf3fc7103a7" x="193.432727" y="363.701335" style="fill: #2ca02c; stroke: #2ca02c"/>
     <use xlink:href="#mf3fc7103a7" x="216.668182" y="361.52915" style="fill: #2ca02c; stroke: #2ca02c"/>
     <use xlink:href="#mf3fc7103a7" x="239.903636" y="359.270782" style="fill: #2ca02c; stroke: #2ca02c"/>
     <use xlink:href="#mf3fc7103a7" x="263.139091" y="355.800153" style="fill: #2ca02c; stroke: #2ca02c"/>
     <use xlink:href="#mf3fc7103a7" x="286.374545" y="352.194864" style="fill: #2ca02c; stroke: #2ca02c"/>
     <use xlink:href="#mf3fc7103a7" x="309.61" y="346.467007" style="fill: #2ca02c; stroke: #2ca02c"/>
     <use xlink:href="#mf3fc7103a7" x="332.845455" y="344.573052" style="fill: #2ca02c; stroke: #2ca02c"/>
     <use xlink:href="#mf3fc7103a7" x="356.080909" y="338.939561" style="fill: #2ca02c; stroke: #2ca02c"/>
     <use xlink:href="#mf3fc7103a7" x="379.316364" y="333.267122" style="fill: #2ca02c; stroke: #2ca02c"/>
     <use xlink:href="#mf3fc7103a7" x="402.551818" y="326.048568" style="fill: #2ca02c; stroke: #2ca02c"/>
     <use xlink:href="#mf3fc7103a7" x="425.787273" y="316.568331" style="fill: #2ca02c; stroke: #2ca02c"/>
     <use xlink:href="#mf3fc7103a7" x="449.022727" y="308.944032" style="fill: #2ca02c; stroke: #2ca02c"/>
     <use xlink:href="#mf3fc7103a7" x="472.258182" y="295.72312" style="fill: #2ca02c; stroke: #2ca02c"/>
     <use xlink:href="#mf3fc7103a7" x="495.493636" y="274.430524" style="fill: #2ca02c; stroke: #2ca02c"/>
     <use xlink:href="#mf3fc7103a7" x="518.729091" y="262.968802" style="fill: #2ca02c; stroke: #2ca02c"/>
     <use xlink:href="#mf3fc7103a7" x="541.964545" y="240.688208" style="fill: #2ca02c; stroke: #2ca02c"/>
    </g>
   </g>
   <g id="LineCollection_4">
    <path d="M 77.255455 362.681123 
L 77.255455 362.319092 
" clip-path="url(#p6529becad3)" style="fill: none; stroke: #d62728; stroke-width: 1.5"/>
    <path d="M 100.490909 360.654268 
L 100.490909 360.479519 
" clip-path="url(#p6529becad3)" style="fill: none; stroke: #d62728; stroke-width: 1.5"/>
    <path d="M 123.726364 357.867303 
L 123.726364 357.603575 
" clip-path="url(#p6529becad3)" style="fill: none; stroke: #d62728; stroke-width: 1.5"/>
    <path d="M 146.961818 355.309884 
L 146.961818 355.084378 
" clip-path="url(#p6529becad3)" style="fill: none; stroke: #d62728; stroke-width: 1.5"/>
    <path d="M 170.197273 351.758252 
L 170.197273 350.908334 
" clip-path="url(#p6529becad3)" style="fill: none; stroke: #d62728; stroke-width: 1.5"/>
    <path d="M 193.432727 347.657928 
L 193.432727 347.189412 
" clip-path="url(#p6529becad3)" style="fill: none; stroke: #d62728; stroke-width: 1.5"/>
    <path d="M 216.668182 342.904602 
L 216.668182 340.24308 
" clip-path="url(#p6529becad3)" style="fill: none; stroke: #d62728; stroke-width: 1.5"/>
    <path d="M 239.903636 337.247183 
L 239.903636 335.572104 
" clip-path="url(#p6529becad3)" style="fill: none; stroke: #d62728; stroke-width: 1.5"/>
    <path d="M 263.139091 330.58364 
L 263.139091 328.9068 
" clip-path="url(#p6529becad3)" style="fill: none; stroke: #d62728; stroke-width: 1.5"/>
    <path d="M 286.374545 323.062823 
L 286.374545 320.529954 
" clip-path="url(#p6529becad3)" style="fill: none; stroke: #d62728; stroke-width: 1.5"/>
    <path d="M 309.61 314.996215 
L 309.61 311.93765 
" clip-path="url(#p6529becad3)" style="fill: none; stroke: #d62728; stroke-width: 1.5"/>
    <path d="M 332.845455 305.113756 
L 332.845455 303.483944 
" clip-path="url(#p6529becad3)" style="fill: none; stroke: #d62728; stroke-width: 1.5"/>
    <path d="M 356.080909 292.242237 
L 356.080909 288.865871 
" clip-path="url(#p6529becad3)" style="fill: none; stroke: #d62728; stroke-width: 1.5"/>
    <path d="M 379.316364 278.537989 
L 379.316364 277.521097 
" clip-path="url(#p6529becad3)" style="fill: none; stroke: #d62728; stroke-width: 1.5"/>
    <path d="M 402.551818 260.870473 
L 402.551818 257.046825 
" clip-path="url(#p6529becad3)" style="fill: none; stroke: #d62728; stroke-width: 1.5"/>
    <path d="M 425.787273 241.711424 
L 425.787273 239.696596 
" clip-path="url(#p6529becad3)" style="fill: none; stroke: #d62728; stroke-width: 1.5"/>
    <path d="M 449.022727 216.154736 
L 449.022727 210.695787 
" clip-path="url(#p6529becad3)" style="fill: none; stroke: #d62728; stroke-width: 1.5"/>
    <path d="M 472.258182 185.648739 
L 472.258182 184.170472 
" clip-path="url(#p6529becad3)" style="fill: none; stroke: #d62728; stroke-width: 1.5"/>
    <path d="M 495.493636 149.326733 
L 495.493636 145.709852 
" clip-path="url(#p6529becad3)" style="fill: none; stroke: #d62728; stroke-width: 1.5"/>
    <path d="M 518.729091 104.530117 
L 518.729091 97.155957 
" clip-path="url(#p6529becad3)" style="fill: none; stroke: #d62728; stroke-width: 1.5"/>
    <path d="M 541.964545 47.531724 
L 541.964545 43.387273 
" clip-path="url(#p6529becad3)" style="fill: none; stroke: #d62728; stroke-width: 1.5"/>
   </g>
   <g id="line2d_20">
    <defs>
     <path id="mf91cc8dc79" d="M 3 0 
L -3 -0 
" style="stroke: #d62728"/>
    </defs>
    <g clip-path="url(#p6529becad3)">
     <use xlink:href="#mf91cc8dc79" x="77.255455" y="362.681123" style="fill: #d62728; stroke: #d62728"/>
     <use xlink:href="#mf91cc8dc79" x="100.490909" y="360.654268" style="fill: #d62728; stroke: #d62728"/>
     <use xlink:href="#mf91cc8dc79" x="123.726364" y="357.867303" style="fill: #d62728; stroke: #d62728"/>
     <use xlink:href="#mf91cc8dc79" x="146.961818" y="355.309884" style="fill: #d62728; stroke: #d62728"/>
     <use xlink:href="#mf91cc8dc79" x="170.197273" y="351.758252" style="fill: #d62728; stroke: #d62728"/>
     <use xlink:href="#mf91cc8dc79" x="193.432727" y="347.657928" style="fill: #d62728; stroke: #d62728"/>
     <use xlink:href="#mf91cc8dc79" x="216.668182" y="342.904602" style="fill: #d62728; stroke: #d62728"/>
     <use xlink:href="#mf91cc8dc79" x="239.903636" y="337.247183" style="fill: #d62728; stroke: #d62728"/>
     <use xlink:href="#mf91cc8dc79" x="263.139091" y="330.58364" style="fill: #d62728; stroke: #d62728"/>
     <use xlink:href="#mf91cc8dc79" x="286.374545" y="323.062823" style="fill: #d62728; stroke: #d62728"/>
     <use xlink:href="#mf91cc8dc79" x="309.61" y="314.996215" style="fill: #d62728; stroke: #d62728"/>
     <use xlink:href="#mf91cc8dc79" x="332.845455" y="305.113756" style="fill: #d62728; stroke: #d62728"/>
     <use xlink:href="#mf91cc8dc79" x="356.080909" y="292.242237" style="fill: #d62728; stroke: #d62728"/>
     <use xlink:href="#mf91cc8dc79" x="379.316364" y="278.537989" style="fill: #d62728; stroke: #d62728"/>
     <use xlink:href="#mf91cc8dc79" x="402.551818" y="260.870473" style="fill: #d62728; stroke: #d62728"/>
     <use xlink:href="#mf91cc8dc79" x="425.787273" y="241.711424" style="fill: #d62728; stroke: #d62728"/>
     <use xlink:href="#mf91cc8dc79" x="449.022727" y="216.154736" style="fill: #d62728; stroke: #d62728"/>
     <use xlink:href="#mf91cc8dc79" x="472.258182" y="185.648739" style="fill: #d62728; stroke: #d62728"/>
     <use xlink:href="#mf91cc8dc79" x="495.493636" y="149.326733" style="fill: #d62728; stroke: #d62728"/>
     <use xlink:href="#mf91cc8dc79" x="518.729091" y="104.530117" style="fill: #d62728; stroke: #d62728"/>
     <use xlink:href="#mf91cc8dc79" x="541.964545" y="47.531724" style="fill: #d62728; stroke: #d62728"/>
    </g>
   </g>
   <g id="line2d_21">
    <g clip-path="url(#p6529becad3)">
     <use xlink:href="#mf91cc8dc79" x="77.255455" y="362.319092" style="fill: #d62728; stroke: #d62728"/>
     <use xlink:href="#mf91cc8dc79" x="100.490909" y="360.479519" style="fill: #d62728; stroke: #d62728"/>
     <use xlink:href="#mf91cc8dc79" x="123.726364" y="357.603575" style="fill: #d62728; stroke: #d62728"/>
     <use xlink:href="#mf91cc8dc79" x="146.961818" y="355.084378" style="fill: #d62728; stroke: #d62728"/>
     <use xlink:href="#mf91cc8dc79" x="170.197273" y="350.908334" style="fill: #d62728; stroke: #d62728"/>
     <use xlink:href="#mf91cc8dc79" x="193.432727" y="347.189412" style="fill: #d62728; stroke: #d62728"/>
     <use xlink:href="#mf91cc8dc79" x="216.668182" y="340.24308" style="fill: #d62728; stroke: #d62728"/>
     <use xlink:href="#mf91cc8dc79" x="239.903636" y="335.572104" style="fill: #d62728; stroke: #d62728"/>
     <use xlink:href="#mf91cc8dc79" x="263.139091" y="328.9068" style="fill: #d62728; stroke: #d62728"/>
     <use xlink:href="#mf91cc8dc79" x="286.374545" y="320.529954" style="fill: #d62728; stroke: #d62728"/>
     <use xlink:href="#mf91cc8dc79" x="309.61" y="311.93765" style="fill: #d62728; stroke: #d62728"/>
     <use xlink:href="#mf91cc8dc79" x="332.845455" y="303.483944" style="fill: #d62728; stroke: #d62728"/>
     <use xlink:href="#mf91cc8dc79" x="356.080909" y="288.865871" style="fill: #d62728; stroke: #d62728"/>
     <use xlink:href="#mf91cc8dc79" x="379.316364" y="277.521097" style="fill: #d62728; stroke: #d62728"/>
     <use xlink:href="#mf91cc8dc79" x="402.551818" y="257.046825" style="fill: #d62728; stroke: #d62728"/>
     <use xlink:href="#mf91cc8dc79" x="425.787273" y="239.696596" style="fill: #d62728; stroke: #d62728"/>
     <use xlink:href="#mf91cc8dc79" x="449.022727" y="210.695787" style="fill: #d62728; stroke: #d62728"/>
     <use xlink:href="#mf91cc8dc79" x="472.258182" y="184.170472" style="fill: #d62728; stroke: #d62728"/>
     <use xlink:href="#mf91cc8dc79" x="495.493636" y="145.709852" style="fill: #d62728; stroke: #d62728"/>
     <use xlink:href="#mf91cc8dc79" x="518.729091" y="97.155957" style="fill: #d62728; stroke: #d62728"/>
     <use xlink:href="#mf91cc8dc79" x="541.964545" y="43.387273" style="fill: #d62728; stroke: #d62728"/>
    </g>
   </g>
   <g id="LineCollection_5">
    <path d="M 77.255455 373.532727 
L 77.255455 373.207573 
" clip-path="url(#p6529becad3)" style="fill: none; stroke: #9467bd; stroke-width: 1.5"/>
    <path d="M 100.490909 372.84751 
L 100.490909 372.788777 
" clip-path="url(#p6529becad3)" style="fill: none; stroke: #9467bd; stroke-width: 1.5"/>
    <path d="M 123.726364 372.017377 
L 123.726364 371.59278 
" clip-path="url(#p6529becad3)" style="fill: none; stroke: #9467bd; stroke-width: 1.5"/>
    <path d="M 146.961818 371.331952 
L 146.961818 371.182168 
" clip-path="url(#p6529becad3)" style="fill: none; stroke: #9467bd; stroke-width: 1.5"/>
    <path d="M 170.197273 370.250314 
L 170.197273 370.172314 
" clip-path="url(#p6529becad3)" style="fill: none; stroke: #9467bd; stroke-width: 1.5"/>
    <path d="M 193.432727 368.931465 
L 193.432727 368.665354 
" clip-path="url(#p6529becad3)" style="fill: none; stroke: #9467bd; stroke-width: 1.5"/>
    <path d="M 216.668182 367.607022 
L 216.668182 367.440768 
" clip-path="url(#p6529becad3)" style="fill: none; stroke: #9467bd; stroke-width: 1.5"/>
    <path d="M 239.903636 365.883569 
L 239.903636 365.535936 
" clip-path="url(#p6529becad3)" style="fill: none; stroke: #9467bd; stroke-width: 1.5"/>
    <path d="M 263.139091 363.919383 
L 263.139091 363.808339 
" clip-path="url(#p6529becad3)" style="fill: none; stroke: #9467bd; stroke-width: 1.5"/>
    <path d="M 286.374545 361.642472 
L 286.374545 361.132314 
" clip-path="url(#p6529becad3)" style="fill: none; stroke: #9467bd; stroke-width: 1.5"/>
    <path d="M 309.61 359.42647 
L 309.61 358.928225 
" clip-path="url(#p6529becad3)" style="fill: none; stroke: #9467bd; stroke-width: 1.5"/>
    <path d="M 332.845455 356.510438 
L 332.845455 356.375363 
" clip-path="url(#p6529becad3)" style="fill: none; stroke: #9467bd; stroke-width: 1.5"/>
    <path d="M 356.080909 352.864337 
L 356.080909 352.614489 
" clip-path="url(#p6529becad3)" style="fill: none; stroke: #9467bd; stroke-width: 1.5"/>
    <path d="M 379.316364 349.043694 
L 379.316364 346.886114 
" clip-path="url(#p6529becad3)" style="fill: none; stroke: #9467bd; stroke-width: 1.5"/>
    <path d="M 402.551818 343.548696 
L 402.551818 342.883264 
" clip-path="url(#p6529becad3)" style="fill: none; stroke: #9467bd; stroke-width: 1.5"/>
    <path d="M 425.787273 337.936751 
L 425.787273 336.952794 
" clip-path="url(#p6529becad3)" style="fill: none; stroke: #9467bd; stroke-width: 1.5"/>
    <path d="M 449.022727 330.858348 
L 449.022727 329.706064 
" clip-path="url(#p6529becad3)" style="fill: none; stroke: #9467bd; stroke-width: 1.5"/>
    <path d="M 472.258182 321.879775 
L 472.258182 319.488817 
" clip-path="url(#p6529becad3)" style="fill: none; stroke: #9467bd; stroke-width: 1.5"/>
    <path d="M 495.493636 311.708415 
L 495.493636 307.219754 
" clip-path="url(#p6529becad3)" style="fill: none; stroke: #9467bd; stroke-width: 1.5"/>
    <path d="M 518.729091 298.625168 
L 518.729091 297.062272 
" clip-path="url(#p6529becad3)" style="fill: none; stroke: #9467bd; stroke-width: 1.5"/>
    <path d="M 541.964545 281.819792 
L 541.964545 276.643839 
" clip-path="url(#p6529becad3)" style="fill: none; stroke: #9467bd; stroke-width: 1.5"/>
   </g>
   <g id="line2d_22">
    <defs>
     <path id="m0cb540596a" d="M 3 0 
L -3 -0 
" style="stroke: #9467bd"/>
    </defs>
    <g clip-path="url(#p6529becad3)">
     <use xlink:href="#m0cb540596a" x="77.255455" y="373.532727" style="fill: #9467bd; stroke: #9467bd"/>
     <use xlink:href="#m0cb540596a" x="100.490909" y="372.84751" style="fill: #9467bd; stroke: #9467bd"/>
     <use xlink:href="#m0cb540596a" x="123.726364" y="372.017377" style="fill: #9467bd; stroke: #9467bd"/>
     <use xlink:href="#m0cb540596a" x="146.961818" y="371.331952" style="fill: #9467bd; stroke: #9467bd"/>
     <use xlink:href="#m0cb540596a" x="170.197273" y="370.250314" style="fill: #9467bd; stroke: #9467bd"/>
     <use xlink:href="#m0cb540596a" x="193.432727" y="368.931465" style="fill: #9467bd; stroke: #9467bd"/>
     <use xlink:href="#m0cb540596a" x="216.668182" y="367.607022" style="fill: #9467bd; stroke: #9467bd"/>
     <use xlink:href="#m0cb540596a" x="239.903636" y="365.883569" style="fill: #9467bd; stroke: #9467bd"/>
     <use xlink:href="#m0cb540596a" x="263.139091" y="363.919383" style="fill: #9467bd; stroke: #9467bd"/>
     <use xlink:href="#m0cb540596a" x="286.374545" y="361.642472" style="fill: #9467bd; stroke: #9467bd"/>
     <use xlink:href="#m0cb540596a" x="309.61" y="359.42647" style="fill: #9467bd; stroke: #9467bd"/>
     <use xlink:href="#m0cb540596a" x="332.845455" y="356.510438" style="fill: #9467bd; stroke: #9467bd"/>
     <use xlink:href="#m0cb540596a" x="356.080909" y="352.864337" style="fill: #9467bd; stroke: #9467bd"/>
     <use xlink:href="#m0cb540596a" x="379.316364" y="349.043694" style="fill: #9467bd; stroke: #9467bd"/>
     <use xlink:href="#m0cb540596a" x="402.551818" y="343.548696" style="fill: #9467bd; stroke: #9467bd"/>
     <use xlink:href="#m0cb540596a" x="425.787273" y="337.936751" style="fill: #9467bd; stroke: #9467bd"/>
     <use xlink:href="#m0cb540596a" x="449.022727" y="330.858348" style="fill: #9467bd; stroke: #9467bd"/>
     <use xlink:href="#m0cb540596a" x="472.258182" y="321.879775" style="fill: #9467bd; stroke: #9467bd"/>
     <use xlink:href="#m0cb540596a" x="495.493636" y="311.708415" style="fill: #9467bd; stroke: #9467bd"/>
     <use xlink:href="#m0cb540596a" x="518.729091" y="298.625168" style="fill: #9467bd; stroke: #9467bd"/>
     <use xlink:href="#m0cb540596a" x="541.964545" y="281.819792" style="fill: #9467bd; stroke: #9467bd"/>
    </g>
   </g>
   <g id="line2d_23">
    <g clip-path="url(#p6529becad3)">
     <use xlink:href="#m0cb540596a" x="77.255455" y="373.207573" style="fill: #9467bd; stroke: #9467bd"/>
     <use xlink:href="#m0cb540596a" x="100.490909" y="372.788777" style="fill: #9467bd; stroke: #9467bd"/>
     <use xlink:href="#m0cb540596a" x="123.726364" y="371.59278" style="fill: #9467bd; stroke: #9467bd"/>
     <use xlink:href="#m0cb540596a" x="146.961818" y="371.182168" style="fill: #9467bd; stroke: #9467bd"/>
     <use xlink:href="#m0cb540596a" x="170.197273" y="370.172314" style="fill: #9467bd; stroke: #9467bd"/>
     <use xlink:href="#m0cb540596a" x="193.432727" y="368.665354" style="fill: #9467bd; stroke: #9467bd"/>
     <use xlink:href="#m0cb540596a" x="216.668182" y="367.440768" style="fill: #9467bd; stroke: #9467bd"/>
     <use xlink:href="#m0cb540596a" x="239.903636" y="365.535936" style="fill: #9467bd; stroke: #9467bd"/>
     <use xlink:href="#m0cb540596a" x="263.139091" y="363.808339" style="fill: #9467bd; stroke: #9467bd"/>
     <use xlink:href="#m0cb540596a" x="286.374545" y="361.132314" style="fill: #9467bd; stroke: #9467bd"/>
     <use xlink:href="#m0cb540596a" x="309.61" y="358.928225" style="fill: #9467bd; stroke: #9467bd"/>
     <use xlink:href="#m0cb540596a" x="332.845455" y="356.375363" style="fill: #9467bd; stroke: #9467bd"/>
     <use xlink:href="#m0cb540596a" x="356.080909" y="352.614489" style="fill: #9467bd; stroke: #9467bd"/>
     <use xlink:href="#m0cb540596a" x="379.316364" y="346.886114" style="fill: #9467bd; stroke: #9467bd"/>
     <use xlink:href="#m0cb540596a" x="402.551818" y="342.883264" style="fill: #9467bd; stroke: #9467bd"/>
     <use xlink:href="#m0cb540596a" x="425.787273" y="336.952794" style="fill: #9467bd; stroke: #9467bd"/>
     <use xlink:href="#m0cb540596a" x="449.022727" y="329.706064" style="fill: #9467bd; stroke: #9467bd"/>
     <use xlink:href="#m0cb540596a" x="472.258182" y="319.488817" style="fill: #9467bd; stroke: #9467bd"/>
     <use xlink:href="#m0cb540596a" x="495.493636" y="307.219754" style="fill: #9467bd; stroke: #9467bd"/>
     <use xlink:href="#m0cb540596a" x="518.729091" y="297.062272" style="fill: #9467bd; stroke: #9467bd"/>
     <use xlink:href="#m0cb540596a" x="541.964545" y="276.643839" style="fill: #9467bd; stroke: #9467bd"/>
    </g>
   </g>
   <g id="line2d_24">
    <path d="M 77.255455 370.071795 
L 100.490909 369.177832 
L 123.726364 367.829109 
L 146.961818 366.018167 
L 170.197273 363.853626 
L 193.432727 362.659225 
L 216.668182 359.141673 
L 239.903636 356.531218 
L 263.139091 353.367699 
L 286.374545 348.955397 
L 309.61 345.713237 
L 332.845455 339.831576 
L 356.080909 334.66221 
L 379.316364 327.0578 
L 402.551818 320.021744 
L 425.787273 309.081926 
L 449.022727 296.245336 
L 472.258182 284.428482 
L 495.493636 263.438149 
L 518.729091 242.875306 
L 541.964545 218.588598 
" clip-path="url(#p6529becad3)" style="fill: none; stroke: #1f77b4; stroke-width: 1.5; stroke-linecap: square"/>
   </g>
   <g id="line2d_25">
    <path d="M 77.255455 372.710259 
L 100.490909 371.93426 
L 123.726364 370.95227 
L 146.961818 370.124271 
L 170.197273 368.684911 
L 193.432727 367.249963 
L 216.668182 365.445568 
L 239.903636 363.178602 
L 263.139091 361.116259 
L 286.374545 358.276528 
L 309.61 355.034782 
L 332.845455 352.132278 
L 356.080909 347.659565 
L 379.316364 342.806051 
L 402.551818 335.727172 
L 425.787273 328.645246 
L 449.022727 321.431685 
L 472.258182 312.828485 
L 495.493636 298.680031 
L 518.729091 286.221274 
L 541.964545 268.493134 
" clip-path="url(#p6529becad3)" style="fill: none; stroke: #ff7f0e; stroke-width: 1.5; stroke-linecap: square"/>
   </g>
   <g id="line2d_26">
    <path d="M 77.255455 370.792231 
L 100.490909 369.936492 
L 123.726364 368.609107 
L 146.961818 367.397738 
L 170.197273 365.803497 
L 193.432727 363.937572 
L 216.668182 361.619041 
L 239.903636 359.291209 
L 263.139091 356.215407 
L 286.374545 352.789527 
L 309.61 348.651167 
L 332.845455 345.021929 
L 356.080909 339.438533 
L 379.316364 333.89485 
L 402.551818 326.872279 
L 425.787273 317.069497 
L 449.022727 309.442879 
L 472.258182 296.970701 
L 495.493636 278.523679 
L 518.729091 264.645766 
L 541.964545 243.561043 
" clip-path="url(#p6529becad3)" style="fill: none; stroke: #2ca02c; stroke-width: 1.5; stroke-linecap: square"/>
   </g>
   <g id="line2d_27">
    <path d="M 77.255455 362.530075 
L 100.490909 360.570302 
L 123.726364 357.771715 
L 146.961818 355.187985 
L 170.197273 351.440784 
L 193.432727 347.507377 
L 216.668182 341.95833 
L 239.903636 336.823872 
L 263.139091 329.888893 
L 286.374545 322.063887 
L 309.61 313.83353 
L 332.845455 304.639376 
L 356.080909 291.067972 
L 379.316364 278.02591 
L 402.551818 259.875221 
L 425.787273 240.664678 
L 449.022727 213.7922 
L 472.258182 185.02014 
L 495.493636 148.22508 
L 518.729091 101.962715 
L 541.964545 45.529014 
" clip-path="url(#p6529becad3)" style="fill: none; stroke: #d62728; stroke-width: 1.5; stroke-linecap: square"/>
   </g>
   <g id="line2d_28">
    <path d="M 77.255455 373.413894 
L 100.490909 372.82988 
L 123.726364 371.862144 
L 146.961818 371.278564 
L 170.197273 370.212484 
L 193.432727 368.770307 
L 216.668182 367.52521 
L 239.903636 365.78713 
L 263.139091 363.867176 
L 286.374545 361.418894 
L 309.61 359.224189 
L 332.845455 356.461733 
L 356.080909 352.760627 
L 379.316364 348.422533 
L 402.551818 343.154513 
L 425.787273 337.235147 
L 449.022727 330.423973 
L 472.258182 321.255631 
L 495.493636 310.157763 
L 518.729091 297.736778 
L 541.964545 278.967605 
" clip-path="url(#p6529becad3)" style="fill: none; stroke: #9467bd; stroke-width: 1.5; stroke-linecap: square"/>
   </g>
   <g id="patch_3">
    <path d="M 54.02 390.04 
L 54.02 26.88 
" style="fill: none; stroke: #000000; stroke-width: 0.8; stroke-linejoin: miter; stroke-linecap: square"/>
   </g>
   <g id="patch_4">
    <path d="M 565.2 390.04 
L 565.2 26.88 
" style="fill: none; stroke: #000000; stroke-width: 0.8; stroke-linejoin: miter; stroke-linecap: square"/>
   </g>
   <g id="patch_5">
    <path d="M 54.02 390.04 
L 565.2 390.04 
" style="fill: none; stroke: #000000; stroke-width: 0.8; stroke-linejoin: miter; stroke-linecap: square"/>
   </g>
   <g id="patch_6">
    <path d="M 54.02 26.88 
L 565.2 26.88 
" style="fill: none; stroke: #000000; stroke-width: 0.8; stroke-linejoin: miter; stroke-linecap: square"/>
   </g>
   <g id="text_16">
    <!-- Rust implementations of Bron-Kerbosch Ver3½-GP on a random graph of order 100 -->
    <g transform="translate(54.02 20.88) scale(0.12 -0.12)">
     <defs>
      <path id="DejaVuSans-52" d="M 2841 2188 
Q 3044 2119 3236 1894 
Q 3428 1669 3622 1275 
L 4263 0 
L 3584 0 
L 2988 1197 
Q 2756 1666 2539 1819 
Q 2322 1972 1947 1972 
L 1259 1972 
L 1259 0 
L 628 0 
L 628 4666 
L 2053 4666 
Q 2853 4666 3247 4331 
Q 3641 3997 3641 3322 
Q 3641 2881 3436 2590 
Q 3231 2300 2841 2188 
z
M 1259 4147 
L 1259 2491 
L 2053 2491 
Q 2509 2491 2742 2702 
Q 2975 2913 2975 3322 
Q 2975 3731 2742 3939 
Q 2509 4147 2053 4147 
L 1259 4147 
z
" transform="scale(0.015625)"/>
      <path id="DejaVuSans-75" d="M 544 1381 
L 544 3500 
L 1119 3500 
L 1119 1403 
Q 1119 906 1312 657 
Q 1506 409 1894 409 
Q 2359 409 2629 706 
Q 2900 1003 2900 1516 
L 2900 3500 
L 3475 3500 
L 3475 0 
L 2900 0 
L 2900 538 
Q 2691 219 2414 64 
Q 2138 -91 1772 -91 
Q 1169 -91 856 284 
Q 544 659 544 1381 
z
M 1991 3584 
L 1991 3584 
z
" transform="scale(0.015625)"/>
      <path id="DejaVuSans-6d" d="M 3328 2828 
Q 3544 3216 3844 3400 
Q 4144 3584 4550 3584 
Q 5097 3584 5394 3201 
Q 5691 2819 5691 2113 
L 5691 0 
L 5113 0 
L 5113 2094 
Q 5113 2597 4934 2840 
Q 4756 3084 4391 3084 
Q 3944 3084 3684 2787 
Q 3425 2491 3425 1978 
L 3425 0 
L 2847 0 
L 2847 2094 
Q 2847 2600 2669 2842 
Q 2491 3084 2119 3084 
Q 1678 3084 1418 2786 
Q 1159 2488 1159 1978 
L 1159 0 
L 581 0 
L 581 3500 
L 1159 3500 
L 1159 2956 
Q 1356 3278 1631 3431 
Q 1906 3584 2284 3584 
Q 2666 3584 2933 3390 
Q 3200 3197 3328 2828 
z
" transform="scale(0.015625)"/>
      <path id="DejaVuSans-6c" d="M 603 4863 
L 1178 4863 
L 1178 0 
L 603 0 
L 603 4863 
z
" transform="scale(0.015625)"/>
      <path id="DejaVuSans-61" d="M 2194 1759 
Q 1497 1759 1228 1600 
Q 959 1441 959 1056 
Q 959 750 1161 570 
Q 1363 391 1709 391 
Q 2188 391 2477 730 
Q 2766 1069 2766 1631 
L 2766 1759 
L 2194 1759 
z
M 3341 1997 
L 3341 0 
L 2766 0 
L 2766 531 
Q 2569 213 2275 61 
Q 1981 -91 1556 -91 
Q 1019 -91 701 211 
Q 384 513 384 1019 
Q 384 1609 779 1909 
Q 1175 2209 1959 2209 
L 2766 2209 
L 2766 2266 
Q 2766 2663 2505 2880 
Q 2244 3097 1772 3097 
Q 1472 3097 1187 3025 
Q 903 2953 641 2809 
L 641 3341 
Q 956 3463 1253 3523 
Q 1550 3584 1831 3584 
Q 2591 3584 2966 3190 
Q 3341 2797 3341 1997 
z
" transform="scale(0.015625)"/>
      <path id="DejaVuSans-66" d="M 2375 4863 
L 2375 4384 
L 1825 4384 
Q 1516 4384 1395 4259 
Q 1275 4134 1275 3809 
L 1275 3500 
L 2222 3500 
L 2222 3053 
L 1275 3053 
L 1275 0 
L 697 0 
L 697 3053 
L 147 3053 
L 147 3500 
L 697 3500 
L 697 3744 
Q 697 4328 969 4595 
Q 1241 4863 1831 4863 
L 2375 4863 
z
" transform="scale(0.015625)"/>
      <path id="DejaVuSans-42" d="M 1259 2228 
L 1259 519 
L 2272 519 
Q 2781 519 3026 730 
Q 3272 941 3272 1375 
Q 3272 1813 3026 2020 
Q 2781 2228 2272 2228 
L 1259 2228 
z
M 1259 4147 
L 1259 2741 
L 2194 2741 
Q 2656 2741 2882 2914 
Q 3109 3088 3109 3444 
Q 3109 3797 2882 3972 
Q 2656 4147 2194 4147 
L 1259 4147 
z
M 628 4666 
L 2241 4666 
Q 2963 4666 3353 4366 
Q 3744 4066 3744 3513 
Q 3744 3084 3544 2831 
Q 3344 2578 2956 2516 
Q 3422 2416 3680 2098 
Q 3938 1781 3938 1306 
Q 3938 681 3513 340 
Q 3088 0 2303 0 
L 628 0 
L 628 4666 
z
" transform="scale(0.015625)"/>
      <path id="DejaVuSans-72" d="M 2631 2963 
Q 2534 3019 2420 3045 
Q 2306 3072 2169 3072 
Q 1681 3072 1420 2755 
Q 1159 2438 1159 1844 
L 1159 0 
L 581 0 
L 581 3500 
L 1159 3500 
L 1159 2956 
Q 1341 3275 1631 3429 
Q 1922 3584 2338 3584 
Q 2397 3584 2469 3576 
Q 2541 3569 2628 3553 
L 2631 2963 
z
" transform="scale(0.015625)"/>
      <path id="DejaVuSans-2d" d="M 313 2009 
L 1997 2009 
L 1997 1497 
L 313 1497 
L 313 2009 
z
" transform="scale(0.015625)"/>
      <path id="DejaVuSans-4b" d="M 628 4666 
L 1259 4666 
L 1259 2694 
L 3353 4666 
L 4166 4666 
L 1850 2491 
L 4331 0 
L 3500 0 
L 1259 2247 
L 1259 0 
L 628 0 
L 628 4666 
z
" transform="scale(0.015625)"/>
      <path id="DejaVuSans-62" d="M 3116 1747 
Q 3116 2381 2855 2742 
Q 2594 3103 2138 3103 
Q 1681 3103 1420 2742 
Q 1159 2381 1159 1747 
Q 1159 1113 1420 752 
Q 1681 391 2138 391 
Q 2594 391 2855 752 
Q 3116 1113 3116 1747 
z
M 1159 2969 
Q 1341 3281 1617 3432 
Q 1894 3584 2278 3584 
Q 2916 3584 3314 3078 
Q 3713 2572 3713 1747 
Q 3713 922 3314 415 
Q 2916 -91 2278 -91 
Q 1894 -91 1617 61 
Q 1341 213 1159 525 
L 1159 0 
L 581 0 
L 581 4863 
L 1159 4863 
L 1159 2969 
z
" transform="scale(0.015625)"/>
      <path id="DejaVuSans-68" d="M 3513 2113 
L 3513 0 
L 2938 0 
L 2938 2094 
Q 2938 2591 2744 2837 
Q 2550 3084 2163 3084 
Q 1697 3084 1428 2787 
Q 1159 2491 1159 1978 
L 1159 0 
L 581 0 
L 581 4863 
L 1159 4863 
L 1159 2956 
Q 1366 3272 1645 3428 
Q 1925 3584 2291 3584 
Q 2894 3584 3203 3211 
Q 3513 2838 3513 2113 
z
" transform="scale(0.015625)"/>
      <path id="DejaVuSans-56" d="M 1831 0 
L 50 4666 
L 709 4666 
L 2188 738 
L 3669 4666 
L 4325 4666 
L 2547 0 
L 1831 0 
z
" transform="scale(0.015625)"/>
      <path id="DejaVuSans-bd" d="M 488 2431 
L 1125 2431 
L 1125 4341 
L 428 4213 
L 428 4575 
L 1147 4697 
L 1575 4697 
L 1575 2431 
L 2216 2431 
L 2216 2088 
L 488 2088 
L 488 2431 
z
M 4470 332 
L 5795 332 
L 5795 -24 
L 3926 -24 
L 3926 319 
Q 4032 416 4229 591 
Q 5304 1544 5304 1838 
Q 5304 2044 5141 2170 
Q 4979 2297 4713 2297 
Q 4551 2297 4360 2242 
Q 4170 2188 3945 2079 
L 3945 2463 
Q 4185 2551 4393 2594 
Q 4601 2638 4779 2638 
Q 5232 2638 5504 2432 
Q 5776 2226 5776 1888 
Q 5776 1454 4741 566 
Q 4566 416 4470 332 
z
M 4309 4750 
L 4809 4750 
L 1896 -91 
L 1396 -91 
L 4309 4750 
z
" transform="scale(0.015625)"/>
      <path id="DejaVuSans-47" d="M 3809 666 
L 3809 1919 
L 2778 1919 
L 2778 2438 
L 4434 2438 
L 4434 434 
Q 4069 175 3628 42 
Q 3188 -91 2688 -91 
Q 1594 -91 976 548 
Q 359 1188 359 2328 
Q 359 3472 976 4111 
Q 1594 4750 2688 4750 
Q 3144 4750 3555 4637 
Q 3966 4525 4313 4306 
L 4313 3634 
Q 3963 3931 3569 4081 
Q 3175 4231 2741 4231 
Q 1884 4231 1454 3753 
Q 1025 3275 1025 2328 
Q 1025 1384 1454 906 
Q 1884 428 2741 428 
Q 3075 428 3337 486 
Q 3600 544 3809 666 
z
" transform="scale(0.015625)"/>
      <path id="DejaVuSans-50" d="M 1259 4147 
L 1259 2394 
L 2053 2394 
Q 2494 2394 2734 2622 
Q 2975 2850 2975 3272 
Q 2975 3691 2734 3919 
Q 2494 4147 2053 4147 
L 1259 4147 
z
M 628 4666 
L 2053 4666 
Q 2838 4666 3239 4311 
Q 3641 3956 3641 3272 
Q 3641 2581 3239 2228 
Q 2838 1875 2053 1875 
L 1259 1875 
L 1259 0 
L 628 0 
L 628 4666 
z
" transform="scale(0.015625)"/>
     </defs>
     <use xlink:href="#DejaVuSans-52"/>
     <use xlink:href="#DejaVuSans-75" transform="translate(64.982422 0)"/>
     <use xlink:href="#DejaVuSans-73" transform="translate(128.361328 0)"/>
     <use xlink:href="#DejaVuSans-74" transform="translate(180.460938 0)"/>
     <use xlink:href="#DejaVuSans-20" transform="translate(219.669922 0)"/>
     <use xlink:href="#DejaVuSans-69" transform="translate(251.457031 0)"/>
     <use xlink:href="#DejaVuSans-6d" transform="translate(279.240234 0)"/>
     <use xlink:href="#DejaVuSans-70" transform="translate(376.652344 0)"/>
     <use xlink:href="#DejaVuSans-6c" transform="translate(440.128906 0)"/>
     <use xlink:href="#DejaVuSans-65" transform="translate(467.912109 0)"/>
     <use xlink:href="#DejaVuSans-6d" transform="translate(529.435547 0)"/>
     <use xlink:href="#DejaVuSans-65" transform="translate(626.847656 0)"/>
     <use xlink:href="#DejaVuSans-6e" transform="translate(688.371094 0)"/>
     <use xlink:href="#DejaVuSans-74" transform="translate(751.75 0)"/>
     <use xlink:href="#DejaVuSans-61" transform="translate(790.958984 0)"/>
     <use xlink:href="#DejaVuSans-74" transform="translate(852.238281 0)"/>
     <use xlink:href="#DejaVuSans-69" transform="translate(891.447266 0)"/>
     <use xlink:href="#DejaVuSans-6f" transform="translate(919.230469 0)"/>
     <use xlink:href="#DejaVuSans-6e" transform="translate(980.412109 0)"/>
     <use xlink:href="#DejaVuSans-73" transform="translate(1043.791016 0)"/>
     <use xlink:href="#DejaVuSans-20" transform="translate(1095.890625 0)"/>
     <use xlink:href="#DejaVuSans-6f" transform="translate(1127.677734 0)"/>
     <use xlink:href="#DejaVuSans-66" transform="translate(1188.859375 0)"/>
     <use xlink:href="#DejaVuSans-20" transform="translate(1224.064453 0)"/>
     <use xlink:href="#DejaVuSans-42" transform="translate(1255.851562 0)"/>
     <use xlink:href="#DejaVuSans-72" transform="translate(1324.455078 0)"/>
     <use xlink:href="#DejaVuSans-6f" transform="translate(1363.318359 0)"/>
     <use xlink:href="#DejaVuSans-6e" transform="translate(1424.5 0)"/>
     <use xlink:href="#DejaVuSans-2d" transform="translate(1487.878906 0)"/>
     <use xlink:href="#DejaVuSans-4b" transform="translate(1523.962891 0)"/>
     <use xlink:href="#DejaVuSans-65" transform="translate(1584.539062 0)"/>
     <use xlink:href="#DejaVuSans-72" transform="translate(1646.0625 0)"/>
     <use xlink:href="#DejaVuSans-62" transform="translate(1687.175781 0)"/>
     <use xlink:href="#DejaVuSans-6f" transform="translate(1750.652344 0)"/>
     <use xlink:href="#DejaVuSans-73" transform="translate(1811.833984 0)"/>
     <use xlink:href="#DejaVuSans-63" transform="translate(1863.933594 0)"/>
     <use xlink:href="#DejaVuSans-68" transform="translate(1918.914062 0)"/>
     <use xlink:href="#DejaVuSans-20" transform="translate(1982.292969 0)"/>
     <use xlink:href="#DejaVuSans-56" transform="translate(2014.080078 0)"/>
     <use xlink:href="#DejaVuSans-65" transform="translate(2074.738281 0)"/>
     <use xlink:href="#DejaVuSans-72" transform="translate(2136.261719 0)"/>
     <use xlink:href="#DejaVuSans-33" transform="translate(2177.375 0)"/>
     <use xlink:href="#DejaVuSans-bd" transform="translate(2240.998047 0)"/>
     <use xlink:href="#DejaVuSans-2d" transform="translate(2337.921875 0)"/>
     <use xlink:href="#DejaVuSans-47" transform="translate(2377.630859 0)"/>
     <use xlink:href="#DejaVuSans-50" transform="translate(2455.121094 0)"/>
     <use xlink:href="#DejaVuSans-20" transform="translate(2515.423828 0)"/>
     <use xlink:href="#DejaVuSans-6f" transform="translate(2547.210938 0)"/>
     <use xlink:href="#DejaVuSans-6e" transform="translate(2608.392578 0)"/>
     <use xlink:href="#DejaVuSans-20" transform="translate(2671.771484 0)"/>
     <use xlink:href="#DejaVuSans-61" transform="translate(2703.558594 0)"/>
     <use xlink:href="#DejaVuSans-20" transform="translate(2764.837891 0)"/>
     <use xlink:href="#DejaVuSans-72" transform="translate(2796.625 0)"/>
     <use xlink:href="#DejaVuSans-61" transform="translate(2837.738281 0)"/>
     <use xlink:href="#DejaVuSans-6e" transform="translate(2899.017578 0)"/>
     <use xlink:href="#DejaVuSans-64" transform="translate(2962.396484 0)"/>
     <use xlink:href="#DejaVuSans-6f" transform="translate(3025.873047 0)"/>
     <use xlink:href="#DejaVuSans-6d" transform="translate(3087.054688 0)"/>
     <use xlink:href="#DejaVuSans-20" transform="translate(3184.466797 0)"/>
     <use xlink:href="#DejaVuSans-67" transform="translate(3216.253906 0)"/>
     <use xlink:href="#DejaVuSans-72" transform="translate(3279.730469 0)"/>
     <use xlink:href="#DejaVuSans-61" transform="translate(3320.84375 0)"/>
     <use xlink:href="#DejaVuSans-70" transform="translate(3382.123047 0)"/>
     <use xlink:href="#DejaVuSans-68" transform="translate(3445.599609 0)"/>
     <use xlink:href="#DejaVuSans-20" transform="translate(3508.978516 0)"/>
     <use xlink:href="#DejaVuSans-6f" transform="translate(3540.765625 0)"/>
     <use xlink:href="#DejaVuSans-66" transform="translate(3601.947266 0)"/>
     <use xlink:href="#DejaVuSans-20" transform="translate(3637.152344 0)"/>
     <use xlink:href="#DejaVuSans-6f" transform="translate(3668.939453 0)"/>
     <use xlink:href="#DejaVuSans-72" transform="translate(3730.121094 0)"/>
     <use xlink:href="#DejaVuSans-64" transform="translate(3769.484375 0)"/>
     <use xlink:href="#DejaVuSans-65" transform="translate(3832.960938 0)"/>
     <use xlink:href="#DejaVuSans-72" transform="translate(3894.484375 0)"/>
     <use xlink:href="#DejaVuSans-20" transform="translate(3935.597656 0)"/>
     <use xlink:href="#DejaVuSans-31" transform="translate(3967.384766 0)"/>
     <use xlink:href="#DejaVuSans-30" transform="translate(4031.007812 0)"/>
     <use xlink:href="#DejaVuSans-30" transform="translate(4094.630859 0)"/>
    </g>
   </g>
   <g id="legend_1">
    <g id="patch_7">
     <path d="M 61.02 108.54875 
L 147.90125 108.54875 
Q 149.90125 108.54875 149.90125 106.54875 
L 149.90125 33.88 
Q 149.90125 31.88 147.90125 31.88 
L 61.02 31.88 
Q 59.02 31.88 59.02 33.88 
L 59.02 106.54875 
Q 59.02 108.54875 61.02 108.54875 
z
" style="fill: #ffffff; opacity: 0.8; stroke: #cccccc; stroke-linejoin: miter"/>
    </g>
    <g id="LineCollection_6">
     <path d="M 73.02 44.978437 
L 73.02 34.978437 
" style="fill: none; stroke: #1f77b4; stroke-width: 1.5"/>
    </g>
    <g id="line2d_29">
     <g>
      <use xlink:href="#md8547b9e7e" x="73.02" y="44.978437" style="fill: #1f77b4; stroke: #1f77b4"/>
     </g>
    </g>
    <g id="line2d_30">
     <g>
      <use xlink:href="#md8547b9e7e" x="73.02" y="34.978437" style="fill: #1f77b4; stroke: #1f77b4"/>
     </g>
    </g>
    <g id="line2d_31">
     <path d="M 63.02 39.978437 
L 83.02 39.978437 
" style="fill: none; stroke: #1f77b4; stroke-width: 1.5; stroke-linecap: square"/>
    </g>
    <g id="line2d_32"/>
    <g id="text_17">
     <!-- Hash -->
     <g transform="translate(91.02 43.478437) scale(0.1 -0.1)">
      <defs>
       <path id="DejaVuSans-48" d="M 628 4666 
L 1259 4666 
L 1259 2753 
L 3553 2753 
L 3553 4666 
L 4184 4666 
L 4184 0 
L 3553 0 
L 3553 2222 
L 1259 2222 
L 1259 0 
L 628 0 
L 628 4666 
z
" transform="scale(0.015625)"/>
      </defs>
      <use xlink:href="#DejaVuSans-48"/>
      <use xlink:href="#DejaVuSans-61" transform="translate(75.195312 0)"/>
      <use xlink:href="#DejaVuSans-73" transform="translate(136.474609 0)"/>
      <use xlink:href="#DejaVuSans-68" transform="translate(188.574219 0)"/>
     </g>
    </g>
    <g id="LineCollection_7">
     <path d="M 73.02 59.656563 
L 73.02 49.656563 
" style="fill: none; stroke: #ff7f0e; stroke-width: 1.5"/>
    </g>
    <g id="line2d_33">
     <g>
      <use xlink:href="#m7f04267d81" x="73.02" y="59.656563" style="fill: #ff7f0e; stroke: #ff7f0e"/>
     </g>
    </g>
    <g id="line2d_34">
     <g>
      <use xlink:href="#m7f04267d81" x="73.02" y="49.656563" style="fill: #ff7f0e; stroke: #ff7f0e"/>
     </g>
    </g>
    <g id="line2d_35">
     <path d="M 63.02 54.656563 
L 83.02 54.656563 
" style="fill: none; stroke: #ff7f0e; stroke-width: 1.5; stroke-linecap: square"/>
    </g>
    <g id="line2d_36"/>
    <g id="text_18">
     <!-- hashbrown -->
     <g transform="translate(91.02 58.156563) scale(0.1 -0.1)">
      <defs>
       <path id="DejaVuSans-77" d="M 269 3500 
L 844 3500 
L 1563 769 
L 2278 3500 
L 2956 3500 
L 3675 769 
L 4391 3500 
L 4966 3500 
L 4050 0 
L 3372 0 
L 2619 2869 
L 1863 0 
L 1184 0 
L 269 3500 
z
" transform="scale(0.015625)"/>
      </defs>
      <use xlink:href="#DejaVuSans-68"/>
      <use xlink:href="#DejaVuSans-61" transform="translate(63.378906 0)"/>
      <use xlink:href="#DejaVuSans-73" transform="translate(124.658203 0)"/>
      <use xlink:href="#DejaVuSans-68" transform="translate(176.757812 0)"/>
      <use xlink:href="#DejaVuSans-62" transform="translate(240.136719 0)"/>
      <use xlink:href="#DejaVuSans-72" transform="translate(303.613281 0)"/>
      <use xlink:href="#DejaVuSans-6f" transform="translate(342.476562 0)"/>
      <use xlink:href="#DejaVuSans-77" transform="translate(403.658203 0)"/>
      <use xlink:href="#DejaVuSans-6e" transform="translate(485.445312 0)"/>
     </g>
    </g>
    <g id="LineCollection_8">
     <path d="M 73.02 74.334687 
L 73.02 64.334687 
" style="fill: none; stroke: #2ca02c; stroke-width: 1.5"/>
    </g>
    <g id="line2d_37">
     <g>
      <use xlink:href="#mf3fc7103a7" x="73.02" y="74.334687" style="fill: #2ca02c; stroke: #2ca02c"/>
     </g>
    </g>
    <g id="line2d_38">
     <g>
      <use xlink:href="#mf3fc7103a7" x="73.02" y="64.334687" style="fill: #2ca02c; stroke: #2ca02c"/>
     </g>
    </g>
    <g id="line2d_39">
     <path d="M 63.02 69.334687 
L 83.02 69.334687 
" style="fill: none; stroke: #2ca02c; stroke-width: 1.5; stroke-linecap: square"/>
    </g>
    <g id="line2d_40"/>
    <g id="text_19">
     <!-- fnv -->
     <g transform="translate(91.02 72.834687) scale(0.1 -0.1)">
      <defs>
       <path id="DejaVuSans-76" d="M 191 3500 
L 800 3500 
L 1894 563 
L 2988 3500 
L 3597 3500 
L 2284 0 
L 1503 0 
L 191 3500 
z
" transform="scale(0.015625)"/>
      </defs>
      <use xlink:href="#DejaVuSans-66"/>
      <use xlink:href="#DejaVuSans-6e" transform="translate(35.205078 0)"/>
      <use xlink:href="#DejaVuSans-76" transform="translate(98.583984 0)"/>
     </g>
    </g>
    <g id="LineCollection_9">
     <path d="M 73.02 89.012812 
L 73.02 79.012812 
" style="fill: none; stroke: #d62728; stroke-width: 1.5"/>
    </g>
    <g id="line2d_41">
     <g>
      <use xlink:href="#mf91cc8dc79" x="73.02" y="89.012812" style="fill: #d62728; stroke: #d62728"/>
     </g>
    </g>
    <g id="line2d_42">
     <g>
      <use xlink:href="#mf91cc8dc79" x="73.02" y="79.012812" style="fill: #d62728; stroke: #d62728"/>
     </g>
    </g>
    <g id="line2d_43">
     <path d="M 63.02 84.012812 
L 83.02 84.012812 
" style="fill: none; stroke: #d62728; stroke-width: 1.5; stroke-linecap: square"/>
    </g>
    <g id="line2d_44"/>
    <g id="text_20">
     <!-- BTree -->
     <g transform="translate(91.02 87.512812) scale(0.1 -0.1)">
      <defs>
       <path id="DejaVuSans-54" d="M -19 4666 
L 3928 4666 
L 3928 4134 
L 2272 4134 
L 2272 0 
L 1638 0 
L 1638 4134 
L -19 4134 
L -19 4666 
z
" transform="scale(0.015625)"/>
      </defs>
      <use xlink:href="#DejaVuSans-42"/>
      <use xlink:href="#DejaVuSans-54" transform="translate(68.603516 0)"/>
      <use xlink:href="#DejaVuSans-72" transform="translate(114.9375 0)"/>
      <use xlink:href="#DejaVuSans-65" transform="translate(153.800781 0)"/>
      <use xlink:href="#DejaVuSans-65" transform="translate(215.324219 0)"/>
     </g>
    </g>
    <g id="LineCollection_10">
     <path d="M 73.02 103.690938 
L 73.02 93.690938 
" style="fill: none; stroke: #9467bd; stroke-width: 1.5"/>
    </g>
    <g id="line2d_45">
     <g>
      <use xlink:href="#m0cb540596a" x="73.02" y="103.690938" style="fill: #9467bd; stroke: #9467bd"/>
     </g>
    </g>
    <g id="line2d_46">
     <g>
      <use xlink:href="#m0cb540596a" x="73.02" y="93.690938" style="fill: #9467bd; stroke: #9467bd"/>
     </g>
    </g>
    <g id="line2d_47">
     <path d="M 63.02 98.690938 
L 83.02 98.690938 
" style="fill: none; stroke: #9467bd; stroke-width: 1.5; stroke-linecap: square"/>
    </g>
    <g id="line2d_48"/>
    <g id="text_21">
     <!-- ord_vec -->
     <g transform="translate(91.02 102.190938) scale(0.1 -0.1)">
      <defs>
       <path id="DejaVuSans-5f" d="M 3263 -1063 
L 3263 -1509 
L -63 -1509 
L -63 -1063 
L 3263 -1063 
z
" transform="scale(0.015625)"/>
      </defs>
      <use xlink:href="#DejaVuSans-6f"/>
      <use xlink:href="#DejaVuSans-72" transform="translate(61.181641 0)"/>
      <use xlink:href="#DejaVuSans-64" transform="translate(100.544922 0)"/>
      <use xlink:href="#DejaVuSans-5f" transform="translate(164.021484 0)"/>
      <use xlink:href="#DejaVuSans-76" transform="translate(214.021484 0)"/>
      <use xlink:href="#DejaVuSans-65" transform="translate(273.201172 0)"/>
      <use xlink:href="#DejaVuSans-63" transform="translate(334.724609 0)"/>
     </g>
    </g>
   </g>
  </g>
 </g>
 <defs>
  <clipPath id="p6529becad3">
   <rect x="54.02" y="26.88" width="511.18" height="363.16"/>
  </clipPath>
 </defs>
</svg>
