<?xml version="1.0" encoding="utf-8" standalone="no"?>
<!DOCTYPE svg PUBLIC "-//W3C//DTD SVG 1.1//EN"
  "http://www.w3.org/Graphics/SVG/1.1/DTD/svg11.dtd">
<svg xmlns:xlink="http://www.w3.org/1999/xlink" width="576pt" height="432pt" viewBox="0 0 576 432" xmlns="http://www.w3.org/2000/svg" version="1.1">
 <metadata>
  <rdf:RDF xmlns:dc="http://purl.org/dc/elements/1.1/" xmlns:cc="http://creativecommons.org/ns#" xmlns:rdf="http://www.w3.org/1999/02/22-rdf-syntax-ns#">
   <cc:Work>
    <dc:type rdf:resource="http://purl.org/dc/dcmitype/StillImage"/>
    <dc:date>2026-02-23T21:20:22.007189</dc:date>
    <dc:format>image/svg+xml</dc:format>
    <dc:creator>
     <cc:Agent>
      <dc:title>Matplotlib v3.10.8, https://matplotlib.org/</dc:title>
     </cc:Agent>
    </dc:creator>
   </cc:Work>
  </rdf:RDF>
 </metadata>
 <defs>
  <style type="text/css">*{stroke-linejoin: round; stroke-linecap: butt}</style>
 </defs>
 <g id="figure_1">
  <g id="patch_1">
   <path d="M 0 432 
L 576 432 
L 576 0 
L 0 0 
z
" style="fill: #ffffff"/>
  </g>
  <g id="axes_1">
   <g id="patch_2">
    <path d="M 38.27 390.04 
L 565.2 390.04 
L 565.2 26.88 
L 38.27 26.88 
z
" style="fill: #ffffff"/>
   </g>
   <g id="matplotlib.axis_1">
    <g id="xtick_1">
     <g id="line2d_1">
      <defs>
       <path id="mc74f61fcfc" d="M 0 0 
L 0 3.5 
" style="stroke: #000000; stroke-width: 0.8"/>
      </defs>
      <g>
       <use xlink:href="#mc74f61fcfc" x="61.261389" y="390.04" style="stroke: #000000; stroke-width: 0.8"/>
      </g>
     </g>
     <g id="text_1">
      <!-- 0 -->
      <g transform="translate(58.080139 404.638438) scale(0.1 -0.1)">
       <defs>
        <path id="DejaVuSans-30" d="M 2034 4250 
Q 1547 4250 1301 3770 
Q 1056 3291 1056 2328 
Q 1056 1369 1301 889 
Q 1547 409 2034 409 
Q 2525 409 2770 889 
Q 3016 1369 3016 2328 
Q 3016 3291 2770 3770 
Q 2525 4250 2034 4250 
z
M 2034 4750 
Q 2819 4750 3233 4129 
Q 3647 3509 3647 2328 
Q 3647 1150 3233 529 
Q 2819 -91 2034 -91 
Q 1250 -91 836 529 
Q 422 1150 422 2328 
Q 422 3509 836 4129 
Q 1250 4750 2034 4750 
z
" transform="scale(0.015625)"/>
       </defs>
       <use xlink:href="#DejaVuSans-30"/>
      </g>
     </g>
    </g>
    <g id="xtick_2">
     <g id="line2d_2">
      <g>
       <use xlink:href="#mc74f61fcfc" x="157.258839" y="390.04" style="stroke: #000000; stroke-width: 0.8"/>
      </g>
     </g>
     <g id="text_2">
      <!-- 1 -->
      <g transform="translate(154.077589 404.638438) scale(0.1 -0.1)">
       <defs>
        <path id="DejaVuSans-31" d="M 794 531 
L 1825 531 
L 1825 4091 
L 703 3866 
L 703 4441 
L 1819 4666 
L 2450 4666 
L 2450 531 
L 3481 531 
L 3481 0 
L 794 0 
L 794 531 
z
" transform="scale(0.015625)"/>
       </defs>
       <use xlink:href="#DejaVuSans-31"/>
      </g>
     </g>
    </g>
    <g id="xtick_3">
     <g id="line2d_3">
      <g>
       <use xlink:href="#mc74f61fcfc" x="253.256288" y="390.04" style="stroke: #000000; stroke-width: 0.8"/>
      </g>
     </g>
     <g id="text_3">
      <!-- 2 -->
      <g transform="translate(250.075038 404.638438) scale(0.1 -0.1)">
       <defs>
        <path id="DejaVuSans-32" d="M 1228 531 
L 3431 531 
L 3431 0 
L 469 0 
L 469 531 
Q 828 903 1448 1529 
Q 2069 2156 2228 2338 
Q 2531 2678 2651 2914 
Q 2772 3150 2772 3378 
Q 2772 3750 2511 3984 
Q 2250 4219 1831 4219 
Q 1534 4219 1204 4116 
Q 875 4013 500 3803 
L 500 4441 
Q 881 4594 1212 4672 
Q 1544 4750 1819 4750 
Q 2544 4750 2975 4387 
Q 3406 4025 3406 3419 
Q 3406 3131 3298 2873 
Q 3191 2616 2906 2266 
Q 2828 2175 2409 1742 
Q 1991 1309 1228 531 
z
" transform="scale(0.015625)"/>
       </defs>
       <use xlink:href="#DejaVuSans-32"/>
      </g>
     </g>
    </g>
    <g id="xtick_4">
     <g id="line2d_4">
      <g>
       <use xlink:href="#mc74f61fcfc" x="349.253737" y="390.04" style="stroke: #000000; stroke-width: 0.8"/>
      </g>
     </g>
     <g id="text_4">
      <!-- 3 -->
      <g transform="translate(346.072487 404.638438) scale(0.1 -0.1)">
       <defs>
        <path id="DejaVuSans-33" d="M 2597 2516 
Q 3050 2419 3304 2112 
Q 3559 1806 3559 1356 
Q 3559 666 3084 287 
Q 2609 -91 1734 -91 
Q 1441 -91 1130 -33 
Q 819 25 488 141 
L 488 750 
Q 750 597 1062 519 
Q 1375 441 1716 441 
Q 2309 441 2620 675 
Q 2931 909 2931 1356 
Q 2931 1769 2642 2001 
Q 2353 2234 1838 2234 
L 1294 2234 
L 1294 2753 
L 1863 2753 
Q 2328 2753 2575 2939 
Q 2822 3125 2822 3475 
Q 2822 3834 2567 4026 
Q 2313 4219 1838 4219 
Q 1578 4219 1281 4162 
Q 984 4106 628 3988 
L 628 4550 
Q 988 4650 1302 4700 
Q 1616 4750 1894 4750 
Q 2613 4750 3031 4423 
Q 3450 4097 3450 3541 
Q 3450 3153 3228 2886 
Q 3006 2619 2597 2516 
z
" transform="scale(0.015625)"/>
       </defs>
       <use xlink:href="#DejaVuSans-33"/>
      </g>
     </g>
    </g>
    <g id="xtick_5">
     <g id="line2d_5">
      <g>
       <use xlink:href="#mc74f61fcfc" x="445.251187" y="390.04" style="stroke: #000000; stroke-width: 0.8"/>
      </g>
     </g>
     <g id="text_5">
      <!-- 4 -->
      <g transform="translate(442.069937 404.638438) scale(0.1 -0.1)">
       <defs>
        <path id="DejaVuSans-34" d="M 2419 4116 
L 825 1625 
L 2419 1625 
L 2419 4116 
z
M 2253 4666 
L 3047 4666 
L 3047 1625 
L 3713 1625 
L 3713 1100 
L 3047 1100 
L 3047 0 
L 2419 0 
L 2419 1100 
L 313 1100 
L 313 1709 
L 2253 4666 
z
" transform="scale(0.015625)"/>
       </defs>
       <use xlink:href="#DejaVuSans-34"/>
      </g>
     </g>
    </g>
    <g id="xtick_6">
     <g id="line2d_6">
      <g>
       <use xlink:href="#mc74f61fcfc" x="541.248636" y="390.04" style="stroke: #000000; stroke-width: 0.8"/>
      </g>
     </g>
     <g id="text_6">
      <!-- 5 -->
      <g transform="translate(538.067386 404.638438) scale(0.1 -0.1)">
       <defs>
        <path id="DejaVuSans-35" d="M 691 4666 
L 3169 4666 
L 3169 4134 
L 1269 4134 
L 1269 2991 
Q 1406 3038 1543 3061 
Q 1681 3084 1819 3084 
Q 2600 3084 3056 2656 
Q 3513 2228 3513 1497 
Q 3513 744 3044 326 
Q 2575 -91 1722 -91 
Q 1428 -91 1123 -41 
Q 819 9 494 109 
L 494 744 
Q 775 591 1075 516 
Q 1375 441 1709 441 
Q 2250 441 2565 725 
Q 2881 1009 2881 1497 
Q 2881 1984 2565 2268 
Q 2250 2553 1709 2553 
Q 1456 2553 1204 2497 
Q 953 2441 691 2322 
L 691 4666 
z
" transform="scale(0.015625)"/>
       </defs>
       <use xlink:href="#DejaVuSans-35"/>
      </g>
     </g>
    </g>
    <g id="text_7">
     <!-- Size (#edges) -->
     <g transform="translate(266.684219 418.316562) scale(0.1 -0.1)">
      <defs>
       <path id="DejaVuSans-53" d="M 3425 4513 
L 3425 3897 
Q 3066 4069 2747 4153 
Q 2428 4238 2131 4238 
Q 1616 4238 1336 4038 
Q 1056 3838 1056 3469 
Q 1056 3159 1242 3001 
Q 1428 2844 1947 2747 
L 2328 2669 
Q 3034 2534 3370 2195 
Q 3706 1856 3706 1288 
Q 3706 609 3251 259 
Q 2797 -91 1919 -91 
Q 1588 -91 1214 -16 
Q 841 59 441 206 
L 441 856 
Q 825 641 1194 531 
Q 1563 422 1919 422 
Q 2459 422 2753 634 
Q 3047 847 3047 1241 
Q 3047 1584 2836 1778 
Q 2625 1972 2144 2069 
L 1759 2144 
Q 1053 2284 737 2584 
Q 422 2884 422 3419 
Q 422 4038 858 4394 
Q 1294 4750 2059 4750 
Q 2388 4750 2728 4690 
Q 3069 4631 3425 4513 
z
" transform="scale(0.015625)"/>
       <path id="DejaVuSans-69" d="M 603 3500 
L 1178 3500 
L 1178 0 
L 603 0 
L 603 3500 
z
M 603 4863 
L 1178 4863 
L 1178 4134 
L 603 4134 
L 603 4863 
z
" transform="scale(0.015625)"/>
       <path id="DejaVuSans-7a" d="M 353 3500 
L 3084 3500 
L 3084 2975 
L 922 459 
L 3084 459 
L 3084 0 
L 275 0 
L 275 525 
L 2438 3041 
L 353 3041 
L 353 3500 
z
" transform="scale(0.015625)"/>
       <path id="DejaVuSans-65" d="M 3597 1894 
L 3597 1613 
L 953 1613 
Q 991 1019 1311 708 
Q 1631 397 2203 397 
Q 2534 397 2845 478 
Q 3156 559 3463 722 
L 3463 178 
Q 3153 47 2828 -22 
Q 2503 -91 2169 -91 
Q 1331 -91 842 396 
Q 353 884 353 1716 
Q 353 2575 817 3079 
Q 1281 3584 2069 3584 
Q 2775 3584 3186 3129 
Q 3597 2675 3597 1894 
z
M 3022 2063 
Q 3016 2534 2758 2815 
Q 2500 3097 2075 3097 
Q 1594 3097 1305 2825 
Q 1016 2553 972 2059 
L 3022 2063 
z
" transform="scale(0.015625)"/>
       <path id="DejaVuSans-20" transform="scale(0.015625)"/>
       <path id="DejaVuSans-28" d="M 1984 4856 
Q 1566 4138 1362 3434 
Q 1159 2731 1159 2009 
Q 1159 1288 1364 580 
Q 1569 -128 1984 -844 
L 1484 -844 
Q 1016 -109 783 600 
Q 550 1309 550 2009 
Q 550 2706 781 3412 
Q 1013 4119 1484 4856 
L 1984 4856 
z
" transform="scale(0.015625)"/>
       <path id="DejaVuSans-23" d="M 3272 2816 
L 2363 2816 
L 2100 1772 
L 3016 1772 
L 3272 2816 
z
M 2803 4594 
L 2478 3297 
L 3391 3297 
L 3719 4594 
L 4219 4594 
L 3897 3297 
L 4872 3297 
L 4872 2816 
L 3775 2816 
L 3519 1772 
L 4513 1772 
L 4513 1294 
L 3397 1294 
L 3072 0 
L 2572 0 
L 2894 1294 
L 1978 1294 
L 1656 0 
L 1153 0 
L 1478 1294 
L 494 1294 
L 494 1772 
L 1594 1772 
L 1856 2816 
L 850 2816 
L 850 3297 
L 1978 3297 
L 2297 4594 
L 2803 4594 
z
" transform="scale(0.015625)"/>
       <path id="DejaVuSans-64" d="M 2906 2969 
L 2906 4863 
L 3481 4863 
L 3481 0 
L 2906 0 
L 2906 525 
Q 2725 213 2448 61 
Q 2172 -91 1784 -91 
Q 1150 -91 751 415 
Q 353 922 353 1747 
Q 353 2572 751 3078 
Q 1150 3584 1784 3584 
Q 2172 3584 2448 3432 
Q 2725 3281 2906 2969 
z
M 947 1747 
Q 947 1113 1208 752 
Q 1469 391 1925 391 
Q 2381 391 2643 752 
Q 2906 1113 2906 1747 
Q 2906 2381 2643 2742 
Q 2381 3103 1925 3103 
Q 1469 3103 1208 2742 
Q 947 2381 947 1747 
z
" transform="scale(0.015625)"/>
       <path id="DejaVuSans-67" d="M 2906 1791 
Q 2906 2416 2648 2759 
Q 2391 3103 1925 3103 
Q 1463 3103 1205 2759 
Q 947 2416 947 1791 
Q 947 1169 1205 825 
Q 1463 481 1925 481 
Q 2391 481 2648 825 
Q 2906 1169 2906 1791 
z
M 3481 434 
Q 3481 -459 3084 -895 
Q 2688 -1331 1869 -1331 
Q 1566 -1331 1297 -1286 
Q 1028 -1241 775 -1147 
L 775 -588 
Q 1028 -725 1275 -790 
Q 1522 -856 1778 -856 
Q 2344 -856 2625 -561 
Q 2906 -266 2906 331 
L 2906 616 
Q 2728 306 2450 153 
Q 2172 0 1784 0 
Q 1141 0 747 490 
Q 353 981 353 1791 
Q 353 2603 747 3093 
Q 1141 3584 1784 3584 
Q 2172 3584 2450 3431 
Q 2728 3278 2906 2969 
L 2906 3500 
L 3481 3500 
L 3481 434 
z
" transform="scale(0.015625)"/>
       <path id="DejaVuSans-73" d="M 2834 3397 
L 2834 2853 
Q 2591 2978 2328 3040 
Q 2066 3103 1784 3103 
Q 1356 3103 1142 2972 
Q 928 2841 928 2578 
Q 928 2378 1081 2264 
Q 1234 2150 1697 2047 
L 1894 2003 
Q 2506 1872 2764 1633 
Q 3022 1394 3022 966 
Q 3022 478 2636 193 
Q 2250 -91 1575 -91 
Q 1294 -91 989 -36 
Q 684 19 347 128 
L 347 722 
Q 666 556 975 473 
Q 1284 391 1588 391 
Q 1994 391 2212 530 
Q 2431 669 2431 922 
Q 2431 1156 2273 1281 
Q 2116 1406 1581 1522 
L 1381 1569 
Q 847 1681 609 1914 
Q 372 2147 372 2553 
Q 372 3047 722 3315 
Q 1072 3584 1716 3584 
Q 2034 3584 2315 3537 
Q 2597 3491 2834 3397 
z
" transform="scale(0.015625)"/>
       <path id="DejaVuSans-29" d="M 513 4856 
L 1013 4856 
Q 1481 4119 1714 3412 
Q 1947 2706 1947 2009 
Q 1947 1309 1714 600 
Q 1481 -109 1013 -844 
L 513 -844 
Q 928 -128 1133 580 
Q 1338 1288 1338 2009 
Q 1338 2731 1133 3434 
Q 928 4138 513 4856 
z
" transform="scale(0.015625)"/>
      </defs>
      <use xlink:href="#DejaVuSans-53"/>
      <use xlink:href="#DejaVuSans-69" transform="translate(63.476562 0)"/>
      <use xlink:href="#DejaVuSans-7a" transform="translate(91.259766 0)"/>
      <use xlink:href="#DejaVuSans-65" transform="translate(143.75 0)"/>
      <use xlink:href="#DejaVuSans-20" transform="translate(205.273438 0)"/>
      <use xlink:href="#DejaVuSans-28" transform="translate(237.060547 0)"/>
      <use xlink:href="#DejaVuSans-23" transform="translate(276.074219 0)"/>
      <use xlink:href="#DejaVuSans-65" transform="translate(359.863281 0)"/>
      <use xlink:href="#DejaVuSans-64" transform="translate(421.386719 0)"/>
      <use xlink:href="#DejaVuSans-67" transform="translate(484.863281 0)"/>
      <use xlink:href="#DejaVuSans-65" transform="translate(548.339844 0)"/>
      <use xlink:href="#DejaVuSans-73" transform="translate(609.863281 0)"/>
      <use xlink:href="#DejaVuSans-29" transform="translate(661.962891 0)"/>
     </g>
    </g>
    <g id="text_8">
     <!-- 1e6 -->
     <g transform="translate(546.321875 417.316562) scale(0.1 -0.1)">
      <defs>
       <path id="DejaVuSans-36" d="M 2113 2584 
Q 1688 2584 1439 2293 
Q 1191 2003 1191 1497 
Q 1191 994 1439 701 
Q 1688 409 2113 409 
Q 2538 409 2786 701 
Q 3034 994 3034 1497 
Q 3034 2003 2786 2293 
Q 2538 2584 2113 2584 
z
M 3366 4563 
L 3366 3988 
Q 3128 4100 2886 4159 
Q 2644 4219 2406 4219 
Q 1781 4219 1451 3797 
Q 1122 3375 1075 2522 
Q 1259 2794 1537 2939 
Q 1816 3084 2150 3084 
Q 2853 3084 3261 2657 
Q 3669 2231 3669 1497 
Q 3669 778 3244 343 
Q 2819 -91 2113 -91 
Q 1303 -91 875 529 
Q 447 1150 447 2328 
Q 447 3434 972 4092 
Q 1497 4750 2381 4750 
Q 2619 4750 2861 4703 
Q 3103 4656 3366 4563 
z
" transform="scale(0.015625)"/>
      </defs>
      <use xlink:href="#DejaVuSans-31"/>
      <use xlink:href="#DejaVuSans-65" transform="translate(63.623047 0)"/>
      <use xlink:href="#DejaVuSans-36" transform="translate(125.146484 0)"/>
     </g>
    </g>
   </g>
   <g id="matplotlib.axis_2">
    <g id="ytick_1">
     <g id="line2d_7">
      <defs>
       <path id="m7eb1c47a8f" d="M 0 0 
L -3.5 0 
" style="stroke: #000000; stroke-width: 0.8"/>
      </defs>
      <g>
       <use xlink:href="#m7eb1c47a8f" x="38.27" y="373.995018" style="stroke: #000000; stroke-width: 0.8"/>
      </g>
     </g>
     <g id="text_9">
      <!-- 0 -->
      <g transform="translate(24.9075 377.794237) scale(0.1 -0.1)">
       <use xlink:href="#DejaVuSans-30"/>
      </g>
     </g>
    </g>
    <g id="ytick_2">
     <g id="line2d_8">
      <g>
       <use xlink:href="#m7eb1c47a8f" x="38.27" y="317.554767" style="stroke: #000000; stroke-width: 0.8"/>
      </g>
     </g>
     <g id="text_10">
      <!-- 1 -->
      <g transform="translate(24.9075 321.353986) scale(0.1 -0.1)">
       <use xlink:href="#DejaVuSans-31"/>
      </g>
     </g>
    </g>
    <g id="ytick_3">
     <g id="line2d_9">
      <g>
       <use xlink:href="#m7eb1c47a8f" x="38.27" y="261.114516" style="stroke: #000000; stroke-width: 0.8"/>
      </g>
     </g>
     <g id="text_11">
      <!-- 2 -->
      <g transform="translate(24.9075 264.913734) scale(0.1 -0.1)">
       <use xlink:href="#DejaVuSans-32"/>
      </g>
     </g>
    </g>
    <g id="ytick_4">
     <g id="line2d_10">
      <g>
       <use xlink:href="#m7eb1c47a8f" x="38.27" y="204.674265" style="stroke: #000000; stroke-width: 0.8"/>
      </g>
     </g>
     <g id="text_12">
      <!-- 3 -->
      <g transform="translate(24.9075 208.473483) scale(0.1 -0.1)">
       <use xlink:href="#DejaVuSans-33"/>
      </g>
     </g>
    </g>
    <g id="ytick_5">
     <g id="line2d_11">
      <g>
       <use xlink:href="#m7eb1c47a8f" x="38.27" y="148.234013" style="stroke: #000000; stroke-width: 0.8"/>
      </g>
     </g>
     <g id="text_13">
      <!-- 4 -->
      <g transform="translate(24.9075 152.033232) scale(0.1 -0.1)">
       <use xlink:href="#DejaVuSans-34"/>
      </g>
     </g>
    </g>
    <g id="ytick_6">
     <g id="line2d_12">
      <g>
       <use xlink:href="#m7eb1c47a8f" x="38.27" y="91.793762" style="stroke: #000000; stroke-width: 0.8"/>
      </g>
     </g>
     <g id="text_14">
      <!-- 5 -->
      <g transform="translate(24.9075 95.592981) scale(0.1 -0.1)">
       <use xlink:href="#DejaVuSans-35"/>
      </g>
     </g>
    </g>
    <g id="ytick_7">
     <g id="line2d_13">
      <g>
       <use xlink:href="#m7eb1c47a8f" x="38.27" y="35.353511" style="stroke: #000000; stroke-width: 0.8"/>
      </g>
     </g>
     <g id="text_15">
      <!-- 6 -->
      <g transform="translate(24.9075 39.15273) scale(0.1 -0.1)">
       <use xlink:href="#DejaVuSans-36"/>
      </g>
     </g>
    </g>
    <g id="text_16">
     <!-- Seconds spent -->
     <g transform="translate(18.827813 245.040469) rotate(-90) scale(0.1 -0.1)">
      <defs>
       <path id="DejaVuSans-63" d="M 3122 3366 
L 3122 2828 
Q 2878 2963 2633 3030 
Q 2388 3097 2138 3097 
Q 1578 3097 1268 2742 
Q 959 2388 959 1747 
Q 959 1106 1268 751 
Q 1578 397 2138 397 
Q 2388 397 2633 464 
Q 2878 531 3122 666 
L 3122 134 
Q 2881 22 2623 -34 
Q 2366 -91 2075 -91 
Q 1284 -91 818 406 
Q 353 903 353 1747 
Q 353 2603 823 3093 
Q 1294 3584 2113 3584 
Q 2378 3584 2631 3529 
Q 2884 3475 3122 3366 
z
" transform="scale(0.015625)"/>
       <path id="DejaVuSans-6f" d="M 1959 3097 
Q 1497 3097 1228 2736 
Q 959 2375 959 1747 
Q 959 1119 1226 758 
Q 1494 397 1959 397 
Q 2419 397 2687 759 
Q 2956 1122 2956 1747 
Q 2956 2369 2687 2733 
Q 2419 3097 1959 3097 
z
M 1959 3584 
Q 2709 3584 3137 3096 
Q 3566 2609 3566 1747 
Q 3566 888 3137 398 
Q 2709 -91 1959 -91 
Q 1206 -91 779 398 
Q 353 888 353 1747 
Q 353 2609 779 3096 
Q 1206 3584 1959 3584 
z
" transform="scale(0.015625)"/>
       <path id="DejaVuSans-6e" d="M 3513 2113 
L 3513 0 
L 2938 0 
L 2938 2094 
Q 2938 2591 2744 2837 
Q 2550 3084 2163 3084 
Q 1697 3084 1428 2787 
Q 1159 2491 1159 1978 
L 1159 0 
L 581 0 
L 581 3500 
L 1159 3500 
L 1159 2956 
Q 1366 3272 1645 3428 
Q 1925 3584 2291 3584 
Q 2894 3584 3203 3211 
Q 3513 2838 3513 2113 
z
" transform="scale(0.015625)"/>
       <path id="DejaVuSans-70" d="M 1159 525 
L 1159 -1331 
L 581 -1331 
L 581 3500 
L 1159 3500 
L 1159 2969 
Q 1341 3281 1617 3432 
Q 1894 3584 2278 3584 
Q 2916 3584 3314 3078 
Q 3713 2572 3713 1747 
Q 3713 922 3314 415 
Q 2916 -91 2278 -91 
Q 1894 -91 1617 61 
Q 1341 213 1159 525 
z
M 3116 1747 
Q 3116 2381 2855 2742 
Q 2594 3103 2138 3103 
Q 1681 3103 1420 2742 
Q 1159 2381 1159 1747 
Q 1159 1113 1420 752 
Q 1681 391 2138 391 
Q 2594 391 2855 752 
Q 3116 1113 3116 1747 
z
" transform="scale(0.015625)"/>
       <path id="DejaVuSans-74" d="M 1172 4494 
L 1172 3500 
L 2356 3500 
L 2356 3053 
L 1172 3053 
L 1172 1153 
Q 1172 725 1289 603 
Q 1406 481 1766 481 
L 2356 481 
L 2356 0 
L 1766 0 
Q 1100 0 847 248 
Q 594 497 594 1153 
L 594 3053 
L 172 3053 
L 172 3500 
L 594 3500 
L 594 4494 
L 1172 4494 
z
" transform="scale(0.015625)"/>
      </defs>
      <use xlink:href="#DejaVuSans-53"/>
      <use xlink:href="#DejaVuSans-65" transform="translate(63.476562 0)"/>
      <use xlink:href="#DejaVuSans-63" transform="translate(125 0)"/>
      <use xlink:href="#DejaVuSans-6f" transform="translate(179.980469 0)"/>
      <use xlink:href="#DejaVuSans-6e" transform="translate(241.162109 0)"/>
      <use xlink:href="#DejaVuSans-64" transform="translate(304.541016 0)"/>
      <use xlink:href="#DejaVuSans-73" transform="translate(368.017578 0)"/>
      <use xlink:href="#DejaVuSans-20" transform="translate(420.117188 0)"/>
      <use xlink:href="#DejaVuSans-73" transform="translate(451.904297 0)"/>
      <use xlink:href="#DejaVuSans-70" transform="translate(504.003906 0)"/>
      <use xlink:href="#DejaVuSans-65" transform="translate(567.480469 0)"/>
      <use xlink:href="#DejaVuSans-6e" transform="translate(629.003906 0)"/>
      <use xlink:href="#DejaVuSans-74" transform="translate(692.382812 0)"/>
     </g>
    </g>
   </g>
   <g id="LineCollection_1">
    <path d="M 62.221364 373.271804 
L 62.221364 373.25258 
" clip-path="url(#p60b2fd3762)" style="fill: none; stroke: #1f77b4; stroke-width: 1.5"/>
    <path d="M 63.181338 372.973845 
L 63.181338 372.941262 
" clip-path="url(#p60b2fd3762)" style="fill: none; stroke: #1f77b4; stroke-width: 1.5"/>
    <path d="M 64.141313 372.678487 
L 64.141313 372.67391 
" clip-path="url(#p60b2fd3762)" style="fill: none; stroke: #1f77b4; stroke-width: 1.5"/>
    <path d="M 65.101287 372.383293 
L 65.101287 372.365808 
" clip-path="url(#p60b2fd3762)" style="fill: none; stroke: #1f77b4; stroke-width: 1.5"/>
    <path d="M 66.061262 372.1037 
L 66.061262 372.053169 
" clip-path="url(#p60b2fd3762)" style="fill: none; stroke: #1f77b4; stroke-width: 1.5"/>
    <path d="M 70.861134 370.543256 
L 70.861134 370.530078 
" clip-path="url(#p60b2fd3762)" style="fill: none; stroke: #1f77b4; stroke-width: 1.5"/>
    <path d="M 75.661007 368.994875 
L 75.661007 368.851838 
" clip-path="url(#p60b2fd3762)" style="fill: none; stroke: #1f77b4; stroke-width: 1.5"/>
    <path d="M 80.460879 367.363983 
L 80.460879 367.215596 
" clip-path="url(#p60b2fd3762)" style="fill: none; stroke: #1f77b4; stroke-width: 1.5"/>
    <path d="M 85.260752 365.557161 
L 85.260752 365.481842 
" clip-path="url(#p60b2fd3762)" style="fill: none; stroke: #1f77b4; stroke-width: 1.5"/>
    <path d="M 109.260114 356.567674 
L 109.260114 356.229269 
" clip-path="url(#p60b2fd3762)" style="fill: none; stroke: #1f77b4; stroke-width: 1.5"/>
    <path d="M 133.259476 347.535405 
L 133.259476 347.275808 
" clip-path="url(#p60b2fd3762)" style="fill: none; stroke: #1f77b4; stroke-width: 1.5"/>
    <path d="M 157.258839 338.666954 
L 157.258839 338.464898 
" clip-path="url(#p60b2fd3762)" style="fill: none; stroke: #1f77b4; stroke-width: 1.5"/>
    <path d="M 181.258201 329.591982 
L 181.258201 329.172707 
" clip-path="url(#p60b2fd3762)" style="fill: none; stroke: #1f77b4; stroke-width: 1.5"/>
    <path d="M 205.257563 320.012554 
L 205.257563 319.485172 
" clip-path="url(#p60b2fd3762)" style="fill: none; stroke: #1f77b4; stroke-width: 1.5"/>
    <path d="M 229.256926 310.779335 
L 229.256926 309.659397 
" clip-path="url(#p60b2fd3762)" style="fill: none; stroke: #1f77b4; stroke-width: 1.5"/>
    <path d="M 253.256288 302.129285 
L 253.256288 301.743956 
" clip-path="url(#p60b2fd3762)" style="fill: none; stroke: #1f77b4; stroke-width: 1.5"/>
    <path d="M 349.253737 264.121206 
L 349.253737 262.770715 
" clip-path="url(#p60b2fd3762)" style="fill: none; stroke: #1f77b4; stroke-width: 1.5"/>
    <path d="M 445.251187 222.307892 
L 445.251187 43.387273 
" clip-path="url(#p60b2fd3762)" style="fill: none; stroke: #1f77b4; stroke-width: 1.5"/>
    <path d="M 541.248636 181.336847 
L 541.248636 180.213884 
" clip-path="url(#p60b2fd3762)" style="fill: none; stroke: #1f77b4; stroke-width: 1.5"/>
   </g>
   <g id="line2d_14">
    <defs>
     <path id="md8547b9e7e" d="M 3 0 
L -3 -0 
" style="stroke: #1f77b4"/>
    </defs>
    <g clip-path="url(#p60b2fd3762)">
     <use xlink:href="#md8547b9e7e" x="62.221364" y="373.271804" style="fill: #1f77b4; stroke: #1f77b4"/>
     <use xlink:href="#md8547b9e7e" x="63.181338" y="372.973845" style="fill: #1f77b4; stroke: #1f77b4"/>
     <use xlink:href="#md8547b9e7e" x="64.141313" y="372.678487" style="fill: #1f77b4; stroke: #1f77b4"/>
     <use xlink:href="#md8547b9e7e" x="65.101287" y="372.383293" style="fill: #1f77b4; stroke: #1f77b4"/>
     <use xlink:href="#md8547b9e7e" x="66.061262" y="372.1037" style="fill: #1f77b4; stroke: #1f77b4"/>
     <use xlink:href="#md8547b9e7e" x="70.861134" y="370.543256" style="fill: #1f77b4; stroke: #1f77b4"/>
     <use xlink:href="#md8547b9e7e" x="75.661007" y="368.994875" style="fill: #1f77b4; stroke: #1f77b4"/>
     <use xlink:href="#md8547b9e7e" x="80.460879" y="367.363983" style="fill: #1f77b4; stroke: #1f77b4"/>
     <use xlink:href="#md8547b9e7e" x="85.260752" y="365.557161" style="fill: #1f77b4; stroke: #1f77b4"/>
     <use xlink:href="#md8547b9e7e" x="109.260114" y="356.567674" style="fill: #1f77b4; stroke: #1f77b4"/>
     <use xlink:href="#md8547b9e7e" x="133.259476" y="347.535405" style="fill: #1f77b4; stroke: #1f77b4"/>
     <use xlink:href="#md8547b9e7e" x="157.258839" y="338.666954" style="fill: #1f77b4; stroke: #1f77b4"/>
     <use xlink:href="#md8547b9e7e" x="181.258201" y="329.591982" style="fill: #1f77b4; stroke: #1f77b4"/>
     <use xlink:href="#md8547b9e7e" x="205.257563" y="320.012554" style="fill: #1f77b4; stroke: #1f77b4"/>
     <use xlink:href="#md8547b9e7e" x="229.256926" y="310.779335" style="fill: #1f77b4; stroke: #1f77b4"/>
     <use xlink:href="#md8547b9e7e" x="253.256288" y="302.129285" style="fill: #1f77b4; stroke: #1f77b4"/>
     <use xlink:href="#md8547b9e7e" x="349.253737" y="264.121206" style="fill: #1f77b4; stroke: #1f77b4"/>
     <use xlink:href="#md8547b9e7e" x="445.251187" y="222.307892" style="fill: #1f77b4; stroke: #1f77b4"/>
     <use xlink:href="#md8547b9e7e" x="541.248636" y="181.336847" style="fill: #1f77b4; stroke: #1f77b4"/>
    </g>
   </g>
   <g id="line2d_15">
    <g clip-path="url(#p60b2fd3762)">
     <use xlink:href="#md8547b9e7e" x="62.221364" y="373.25258" style="fill: #1f77b4; stroke: #1f77b4"/>
     <use xlink:href="#md8547b9e7e" x="63.181338" y="372.941262" style="fill: #1f77b4; stroke: #1f77b4"/>
     <use xlink:href="#md8547b9e7e" x="64.141313" y="372.67391" style="fill: #1f77b4; stroke: #1f77b4"/>
     <use xlink:href="#md8547b9e7e" x="65.101287" y="372.365808" style="fill: #1f77b4; stroke: #1f77b4"/>
     <use xlink:href="#md8547b9e7e" x="66.061262" y="372.053169" style="fill: #1f77b4; stroke: #1f77b4"/>
     <use xlink:href="#md8547b9e7e" x="70.861134" y="370.530078" style="fill: #1f77b4; stroke: #1f77b4"/>
     <use xlink:href="#md8547b9e7e" x="75.661007" y="368.851838" style="fill: #1f77b4; stroke: #1f77b4"/>
     <use xlink:href="#md8547b9e7e" x="80.460879" y="367.215596" style="fill: #1f77b4; stroke: #1f77b4"/>
     <use xlink:href="#md8547b9e7e" x="85.260752" y="365.481842" style="fill: #1f77b4; stroke: #1f77b4"/>
     <use xlink:href="#md8547b9e7e" x="109.260114" y="356.229269" style="fill: #1f77b4; stroke: #1f77b4"/>
     <use xlink:href="#md8547b9e7e" x="133.259476" y="347.275808" style="fill: #1f77b4; stroke: #1f77b4"/>
     <use xlink:href="#md8547b9e7e" x="157.258839" y="338.464898" style="fill: #1f77b4; stroke: #1f77b4"/>
     <use xlink:href="#md8547b9e7e" x="181.258201" y="329.172707" style="fill: #1f77b4; stroke: #1f77b4"/>
     <use xlink:href="#md8547b9e7e" x="205.257563" y="319.485172" style="fill: #1f77b4; stroke: #1f77b4"/>
     <use xlink:href="#md8547b9e7e" x="229.256926" y="309.659397" style="fill: #1f77b4; stroke: #1f77b4"/>
     <use xlink:href="#md8547b9e7e" x="253.256288" y="301.743956" style="fill: #1f77b4; stroke: #1f77b4"/>
     <use xlink:href="#md8547b9e7e" x="349.253737" y="262.770715" style="fill: #1f77b4; stroke: #1f77b4"/>
     <use xlink:href="#md8547b9e7e" x="445.251187" y="43.387273" style="fill: #1f77b4; stroke: #1f77b4"/>
     <use xlink:href="#md8547b9e7e" x="541.248636" y="180.213884" style="fill: #1f77b4; stroke: #1f77b4"/>
    </g>
   </g>
   <g id="LineCollection_2">
    <path d="M 62.221364 373.303512 
L 62.221364 373.296734 
" clip-path="url(#p60b2fd3762)" style="fill: none; stroke: #ff7f0e; stroke-width: 1.5"/>
    <path d="M 63.181338 373.026701 
L 63.181338 373.015176 
" clip-path="url(#p60b2fd3762)" style="fill: none; stroke: #ff7f0e; stroke-width: 1.5"/>
    <path d="M 64.141313 372.75252 
L 64.141313 372.689696 
" clip-path="url(#p60b2fd3762)" style="fill: none; stroke: #ff7f0e; stroke-width: 1.5"/>
    <path d="M 65.101287 372.493081 
L 65.101287 372.43747 
" clip-path="url(#p60b2fd3762)" style="fill: none; stroke: #ff7f0e; stroke-width: 1.5"/>
    <path d="M 66.061262 372.211709 
L 66.061262 372.168002 
" clip-path="url(#p60b2fd3762)" style="fill: none; stroke: #ff7f0e; stroke-width: 1.5"/>
    <path d="M 70.861134 370.74748 
L 70.861134 370.720089 
" clip-path="url(#p60b2fd3762)" style="fill: none; stroke: #ff7f0e; stroke-width: 1.5"/>
    <path d="M 75.661007 369.285034 
L 75.661007 369.25876 
" clip-path="url(#p60b2fd3762)" style="fill: none; stroke: #ff7f0e; stroke-width: 1.5"/>
    <path d="M 80.460879 367.766493 
L 80.460879 367.710842 
" clip-path="url(#p60b2fd3762)" style="fill: none; stroke: #ff7f0e; stroke-width: 1.5"/>
    <path d="M 85.260752 366.178224 
L 85.260752 366.033009 
" clip-path="url(#p60b2fd3762)" style="fill: none; stroke: #ff7f0e; stroke-width: 1.5"/>
    <path d="M 109.260114 357.469995 
L 109.260114 357.234448 
" clip-path="url(#p60b2fd3762)" style="fill: none; stroke: #ff7f0e; stroke-width: 1.5"/>
    <path d="M 133.259476 349.290324 
L 133.259476 349.00639 
" clip-path="url(#p60b2fd3762)" style="fill: none; stroke: #ff7f0e; stroke-width: 1.5"/>
    <path d="M 157.258839 342.433752 
L 157.258839 341.275397 
" clip-path="url(#p60b2fd3762)" style="fill: none; stroke: #ff7f0e; stroke-width: 1.5"/>
    <path d="M 181.258201 335.101889 
L 181.258201 334.803359 
" clip-path="url(#p60b2fd3762)" style="fill: none; stroke: #ff7f0e; stroke-width: 1.5"/>
    <path d="M 205.257563 327.023804 
L 205.257563 326.297441 
" clip-path="url(#p60b2fd3762)" style="fill: none; stroke: #ff7f0e; stroke-width: 1.5"/>
    <path d="M 229.256926 319.004291 
L 229.256926 318.533791 
" clip-path="url(#p60b2fd3762)" style="fill: none; stroke: #ff7f0e; stroke-width: 1.5"/>
    <path d="M 253.256288 311.498553 
L 253.256288 310.906794 
" clip-path="url(#p60b2fd3762)" style="fill: none; stroke: #ff7f0e; stroke-width: 1.5"/>
    <path d="M 349.253737 282.895283 
L 349.253737 282.188781 
" clip-path="url(#p60b2fd3762)" style="fill: none; stroke: #ff7f0e; stroke-width: 1.5"/>
    <path d="M 445.251187 254.343537 
L 445.251187 253.2985 
" clip-path="url(#p60b2fd3762)" style="fill: none; stroke: #ff7f0e; stroke-width: 1.5"/>
    <path d="M 541.248636 224.943088 
L 541.248636 224.173547 
" clip-path="url(#p60b2fd3762)" style="fill: none; stroke: #ff7f0e; stroke-width: 1.5"/>
   </g>
   <g id="line2d_16">
    <defs>
     <path id="m7f04267d81" d="M 3 0 
L -3 -0 
" style="stroke: #ff7f0e"/>
    </defs>
    <g clip-path="url(#p60b2fd3762)">
     <use xlink:href="#m7f04267d81" x="62.221364" y="373.303512" style="fill: #ff7f0e; stroke: #ff7f0e"/>
     <use xlink:href="#m7f04267d81" x="63.181338" y="373.026701" style="fill: #ff7f0e; stroke: #ff7f0e"/>
     <use xlink:href="#m7f04267d81" x="64.141313" y="372.75252" style="fill: #ff7f0e; stroke: #ff7f0e"/>
     <use xlink:href="#m7f04267d81" x="65.101287" y="372.493081" style="fill: #ff7f0e; stroke: #ff7f0e"/>
     <use xlink:href="#m7f04267d81" x="66.061262" y="372.211709" style="fill: #ff7f0e; stroke: #ff7f0e"/>
     <use xlink:href="#m7f04267d81" x="70.861134" y="370.74748" style="fill: #ff7f0e; stroke: #ff7f0e"/>
     <use xlink:href="#m7f04267d81" x="75.661007" y="369.285034" style="fill: #ff7f0e; stroke: #ff7f0e"/>
     <use xlink:href="#m7f04267d81" x="80.460879" y="367.766493" style="fill: #ff7f0e; stroke: #ff7f0e"/>
     <use xlink:href="#m7f04267d81" x="85.260752" y="366.178224" style="fill: #ff7f0e; stroke: #ff7f0e"/>
     <use xlink:href="#m7f04267d81" x="109.260114" y="357.469995" style="fill: #ff7f0e; stroke: #ff7f0e"/>
     <use xlink:href="#m7f04267d81" x="133.259476" y="349.290324" style="fill: #ff7f0e; stroke: #ff7f0e"/>
     <use xlink:href="#m7f04267d81" x="157.258839" y="342.433752" style="fill: #ff7f0e; stroke: #ff7f0e"/>
     <use xlink:href="#m7f04267d81" x="181.258201" y="335.101889" style="fill: #ff7f0e; stroke: #ff7f0e"/>
     <use xlink:href="#m7f04267d81" x="205.257563" y="327.023804" style="fill: #ff7f0e; stroke: #ff7f0e"/>
     <use xlink:href="#m7f04267d81" x="229.256926" y="319.004291" style="fill: #ff7f0e; stroke: #ff7f0e"/>
     <use xlink:href="#m7f04267d81" x="253.256288" y="311.498553" style="fill: #ff7f0e; stroke: #ff7f0e"/>
     <use xlink:href="#m7f04267d81" x="349.253737" y="282.895283" style="fill: #ff7f0e; stroke: #ff7f0e"/>
     <use xlink:href="#m7f04267d81" x="445.251187" y="254.343537" style="fill: #ff7f0e; stroke: #ff7f0e"/>
     <use xlink:href="#m7f04267d81" x="541.248636" y="224.943088" style="fill: #ff7f0e; stroke: #ff7f0e"/>
    </g>
   </g>
   <g id="line2d_17">
    <g clip-path="url(#p60b2fd3762)">
     <use xlink:href="#m7f04267d81" x="62.221364" y="373.296734" style="fill: #ff7f0e; stroke: #ff7f0e"/>
     <use xlink:href="#m7f04267d81" x="63.181338" y="373.015176" style="fill: #ff7f0e; stroke: #ff7f0e"/>
     <use xlink:href="#m7f04267d81" x="64.141313" y="372.689696" style="fill: #ff7f0e; stroke: #ff7f0e"/>
     <use xlink:href="#m7f04267d81" x="65.101287" y="372.43747" style="fill: #ff7f0e; stroke: #ff7f0e"/>
     <use xlink:href="#m7f04267d81" x="66.061262" y="372.168002" style="fill: #ff7f0e; stroke: #ff7f0e"/>
     <use xlink:href="#m7f04267d81" x="70.861134" y="370.720089" style="fill: #ff7f0e; stroke: #ff7f0e"/>
     <use xlink:href="#m7f04267d81" x="75.661007" y="369.25876" style="fill: #ff7f0e; stroke: #ff7f0e"/>
     <use xlink:href="#m7f04267d81" x="80.460879" y="367.710842" style="fill: #ff7f0e; stroke: #ff7f0e"/>
     <use xlink:href="#m7f04267d81" x="85.260752" y="366.033009" style="fill: #ff7f0e; stroke: #ff7f0e"/>
     <use xlink:href="#m7f04267d81" x="109.260114" y="357.234448" style="fill: #ff7f0e; stroke: #ff7f0e"/>
     <use xlink:href="#m7f04267d81" x="133.259476" y="349.00639" style="fill: #ff7f0e; stroke: #ff7f0e"/>
     <use xlink:href="#m7f04267d81" x="157.258839" y="341.275397" style="fill: #ff7f0e; stroke: #ff7f0e"/>
     <use xlink:href="#m7f04267d81" x="181.258201" y="334.803359" style="fill: #ff7f0e; stroke: #ff7f0e"/>
     <use xlink:href="#m7f04267d81" x="205.257563" y="326.297441" style="fill: #ff7f0e; stroke: #ff7f0e"/>
     <use xlink:href="#m7f04267d81" x="229.256926" y="318.533791" style="fill: #ff7f0e; stroke: #ff7f0e"/>
     <use xlink:href="#m7f04267d81" x="253.256288" y="310.906794" style="fill: #ff7f0e; stroke: #ff7f0e"/>
     <use xlink:href="#m7f04267d81" x="349.253737" y="282.188781" style="fill: #ff7f0e; stroke: #ff7f0e"/>
     <use xlink:href="#m7f04267d81" x="445.251187" y="253.2985" style="fill: #ff7f0e; stroke: #ff7f0e"/>
     <use xlink:href="#m7f04267d81" x="541.248636" y="224.173547" style="fill: #ff7f0e; stroke: #ff7f0e"/>
    </g>
   </g>
   <g id="LineCollection_3">
    <path d="M 62.221364 373.341005 
L 62.221364 373.322803 
" clip-path="url(#p60b2fd3762)" style="fill: none; stroke: #2ca02c; stroke-width: 1.5"/>
    <path d="M 63.181338 373.048538 
L 63.181338 372.948875 
" clip-path="url(#p60b2fd3762)" style="fill: none; stroke: #2ca02c; stroke-width: 1.5"/>
    <path d="M 64.141313 372.787586 
L 64.141313 372.783048 
" clip-path="url(#p60b2fd3762)" style="fill: none; stroke: #2ca02c; stroke-width: 1.5"/>
    <path d="M 65.101287 372.517751 
L 65.101287 372.501062 
" clip-path="url(#p60b2fd3762)" style="fill: none; stroke: #2ca02c; stroke-width: 1.5"/>
    <path d="M 66.061262 372.246968 
L 66.061262 372.217573 
" clip-path="url(#p60b2fd3762)" style="fill: none; stroke: #2ca02c; stroke-width: 1.5"/>
    <path d="M 70.861134 370.832902 
L 70.861134 370.772782 
" clip-path="url(#p60b2fd3762)" style="fill: none; stroke: #2ca02c; stroke-width: 1.5"/>
    <path d="M 75.661007 369.346768 
L 75.661007 369.2453 
" clip-path="url(#p60b2fd3762)" style="fill: none; stroke: #2ca02c; stroke-width: 1.5"/>
    <path d="M 80.460879 367.830495 
L 80.460879 367.805058 
" clip-path="url(#p60b2fd3762)" style="fill: none; stroke: #2ca02c; stroke-width: 1.5"/>
    <path d="M 85.260752 366.336156 
L 85.260752 366.171982 
" clip-path="url(#p60b2fd3762)" style="fill: none; stroke: #2ca02c; stroke-width: 1.5"/>
    <path d="M 109.260114 358.120141 
L 109.260114 356.653085 
" clip-path="url(#p60b2fd3762)" style="fill: none; stroke: #2ca02c; stroke-width: 1.5"/>
    <path d="M 133.259476 350.259657 
L 133.259476 350.090438 
" clip-path="url(#p60b2fd3762)" style="fill: none; stroke: #2ca02c; stroke-width: 1.5"/>
    <path d="M 157.258839 342.948667 
L 157.258839 342.297872 
" clip-path="url(#p60b2fd3762)" style="fill: none; stroke: #2ca02c; stroke-width: 1.5"/>
    <path d="M 181.258201 335.551201 
L 181.258201 335.196155 
" clip-path="url(#p60b2fd3762)" style="fill: none; stroke: #2ca02c; stroke-width: 1.5"/>
    <path d="M 205.257563 327.348089 
L 205.257563 326.846478 
" clip-path="url(#p60b2fd3762)" style="fill: none; stroke: #2ca02c; stroke-width: 1.5"/>
    <path d="M 229.256926 318.954993 
L 229.256926 318.81584 
" clip-path="url(#p60b2fd3762)" style="fill: none; stroke: #2ca02c; stroke-width: 1.5"/>
    <path d="M 253.256288 312.075508 
L 253.256288 311.220257 
" clip-path="url(#p60b2fd3762)" style="fill: none; stroke: #2ca02c; stroke-width: 1.5"/>
    <path d="M 349.253737 281.951957 
L 349.253737 274.483913 
" clip-path="url(#p60b2fd3762)" style="fill: none; stroke: #2ca02c; stroke-width: 1.5"/>
    <path d="M 445.251187 249.506715 
L 445.251187 248.96867 
" clip-path="url(#p60b2fd3762)" style="fill: none; stroke: #2ca02c; stroke-width: 1.5"/>
    <path d="M 541.248636 217.323659 
L 541.248636 216.464181 
" clip-path="url(#p60b2fd3762)" style="fill: none; stroke: #2ca02c; stroke-width: 1.5"/>
   </g>
   <g id="line2d_18">
    <defs>
     <path id="mf3fc7103a7" d="M 3 0 
L -3 -0 
" style="stroke: #2ca02c"/>
    </defs>
    <g clip-path="url(#p60b2fd3762)">
     <use xlink:href="#mf3fc7103a7" x="62.221364" y="373.341005" style="fill: #2ca02c; stroke: #2ca02c"/>
     <use xlink:href="#mf3fc7103a7" x="63.181338" y="373.048538" style="fill: #2ca02c; stroke: #2ca02c"/>
     <use xlink:href="#mf3fc7103a7" x="64.141313" y="372.787586" style="fill: #2ca02c; stroke: #2ca02c"/>
     <use xlink:href="#mf3fc7103a7" x="65.101287" y="372.517751" style="fill: #2ca02c; stroke: #2ca02c"/>
     <use xlink:href="#mf3fc7103a7" x="66.061262" y="372.246968" style="fill: #2ca02c; stroke: #2ca02c"/>
     <use xlink:href="#mf3fc7103a7" x="70.861134" y="370.832902" style="fill: #2ca02c; stroke: #2ca02c"/>
     <use xlink:href="#mf3fc7103a7" x="75.661007" y="369.346768" style="fill: #2ca02c; stroke: #2ca02c"/>
     <use xlink:href="#mf3fc7103a7" x="80.460879" y="367.830495" style="fill: #2ca02c; stroke: #2ca02c"/>
     <use xlink:href="#mf3fc7103a7" x="85.260752" y="366.336156" style="fill: #2ca02c; stroke: #2ca02c"/>
     <use xlink:href="#mf3fc7103a7" x="109.260114" y="358.120141" style="fill: #2ca02c; stroke: #2ca02c"/>
     <use xlink:href="#mf3fc7103a7" x="133.259476" y="350.259657" style="fill: #2ca02c; stroke: #2ca02c"/>
     <use xlink:href="#mf3fc7103a7" x="157.258839" y="342.948667" style="fill: #2ca02c; stroke: #2ca02c"/>
     <use xlink:href="#mf3fc7103a7" x="181.258201" y="335.551201" style="fill: #2ca02c; stroke: #2ca02c"/>
     <use xlink:href="#mf3fc7103a7" x="205.257563" y="327.348089" style="fill: #2ca02c; stroke: #2ca02c"/>
     <use xlink:href="#mf3fc7103a7" x="229.256926" y="318.954993" style="fill: #2ca02c; stroke: #2ca02c"/>
     <use xlink:href="#mf3fc7103a7" x="253.256288" y="312.075508" style="fill: #2ca02c; stroke: #2ca02c"/>
     <use xlink:href="#mf3fc7103a7" x="349.253737" y="281.951957" style="fill: #2ca02c; stroke: #2ca02c"/>
     <use xlink:href="#mf3fc7103a7" x="445.251187" y="249.506715" style="fill: #2ca02c; stroke: #2ca02c"/>
     <use xlink:href="#mf3fc7103a7" x="541.248636" y="217.323659" style="fill: #2ca02c; stroke: #2ca02c"/>
    </g>
   </g>
   <g id="line2d_19">
    <g clip-path="url(#p60b2fd3762)">
     <use xlink:href="#mf3fc7103a7" x="62.221364" y="373.322803" style="fill: #2ca02c; stroke: #2ca02c"/>
     <use xlink:href="#mf3fc7103a7" x="63.181338" y="372.948875" style="fill: #2ca02c; stroke: #2ca02c"/>
     <use xlink:href="#mf3fc7103a7" x="64.141313" y="372.783048" style="fill: #2ca02c; stroke: #2ca02c"/>
     <use xlink:href="#mf3fc7103a7" x="65.101287" y="372.501062" style="fill: #2ca02c; stroke: #2ca02c"/>
     <use xlink:href="#mf3fc7103a7" x="66.061262" y="372.217573" style="fill: #2ca02c; stroke: #2ca02c"/>
     <use xlink:href="#mf3fc7103a7" x="70.861134" y="370.772782" style="fill: #2ca02c; stroke: #2ca02c"/>
     <use xlink:href="#mf3fc7103a7" x="75.661007" y="369.2453" style="fill: #2ca02c; stroke: #2ca02c"/>
     <use xlink:href="#mf3fc7103a7" x="80.460879" y="367.805058" style="fill: #2ca02c; stroke: #2ca02c"/>
     <use xlink:href="#mf3fc7103a7" x="85.260752" y="366.171982" style="fill: #2ca02c; stroke: #2ca02c"/>
     <use xlink:href="#mf3fc7103a7" x="109.260114" y="356.653085" style="fill: #2ca02c; stroke: #2ca02c"/>
     <use xlink:href="#mf3fc7103a7" x="133.259476" y="350.090438" style="fill: #2ca02c; stroke: #2ca02c"/>
     <use xlink:href="#mf3fc7103a7" x="157.258839" y="342.297872" style="fill: #2ca02c; stroke: #2ca02c"/>
     <use xlink:href="#mf3fc7103a7" x="181.258201" y="335.196155" style="fill: #2ca02c; stroke: #2ca02c"/>
     <use xlink:href="#mf3fc7103a7" x="205.257563" y="326.846478" style="fill: #2ca02c; stroke: #2ca02c"/>
     <use xlink:href="#mf3fc7103a7" x="229.256926" y="318.81584" style="fill: #2ca02c; stroke: #2ca02c"/>
     <use xlink:href="#mf3fc7103a7" x="253.256288" y="311.220257" style="fill: #2ca02c; stroke: #2ca02c"/>
     <use xlink:href="#mf3fc7103a7" x="349.253737" y="274.483913" style="fill: #2ca02c; stroke: #2ca02c"/>
     <use xlink:href="#mf3fc7103a7" x="445.251187" y="248.96867" style="fill: #2ca02c; stroke: #2ca02c"/>
     <use xlink:href="#mf3fc7103a7" x="541.248636" y="216.464181" style="fill: #2ca02c; stroke: #2ca02c"/>
    </g>
   </g>
   <g id="LineCollection_4">
    <path d="M 62.221364 373.532727 
L 62.221364 373.521699 
" clip-path="url(#p60b2fd3762)" style="fill: none; stroke: #d62728; stroke-width: 1.5"/>
    <path d="M 63.181338 373.154262 
L 63.181338 373.127204 
" clip-path="url(#p60b2fd3762)" style="fill: none; stroke: #d62728; stroke-width: 1.5"/>
    <path d="M 64.141313 372.782727 
L 64.141313 372.769508 
" clip-path="url(#p60b2fd3762)" style="fill: none; stroke: #d62728; stroke-width: 1.5"/>
    <path d="M 65.101287 372.377124 
L 65.101287 372.368664 
" clip-path="url(#p60b2fd3762)" style="fill: none; stroke: #d62728; stroke-width: 1.5"/>
    <path d="M 66.061262 371.978363 
L 66.061262 371.96506 
" clip-path="url(#p60b2fd3762)" style="fill: none; stroke: #d62728; stroke-width: 1.5"/>
    <path d="M 70.861134 369.756581 
L 70.861134 369.686358 
" clip-path="url(#p60b2fd3762)" style="fill: none; stroke: #d62728; stroke-width: 1.5"/>
    <path d="M 75.661007 367.435826 
L 75.661007 367.374097 
" clip-path="url(#p60b2fd3762)" style="fill: none; stroke: #d62728; stroke-width: 1.5"/>
    <path d="M 80.460879 364.963246 
L 80.460879 364.910085 
" clip-path="url(#p60b2fd3762)" style="fill: none; stroke: #d62728; stroke-width: 1.5"/>
    <path d="M 85.260752 362.310086 
L 85.260752 362.094439 
" clip-path="url(#p60b2fd3762)" style="fill: none; stroke: #d62728; stroke-width: 1.5"/>
    <path d="M 109.260114 347.633306 
L 109.260114 347.324882 
" clip-path="url(#p60b2fd3762)" style="fill: none; stroke: #d62728; stroke-width: 1.5"/>
    <path d="M 133.259476 331.524 
L 133.259476 331.146149 
" clip-path="url(#p60b2fd3762)" style="fill: none; stroke: #d62728; stroke-width: 1.5"/>
    <path d="M 157.258839 316.898316 
L 157.258839 316.461237 
" clip-path="url(#p60b2fd3762)" style="fill: none; stroke: #d62728; stroke-width: 1.5"/>
    <path d="M 181.258201 302.137237 
L 181.258201 301.561146 
" clip-path="url(#p60b2fd3762)" style="fill: none; stroke: #d62728; stroke-width: 1.5"/>
    <path d="M 205.257563 287.509064 
L 205.257563 286.877097 
" clip-path="url(#p60b2fd3762)" style="fill: none; stroke: #d62728; stroke-width: 1.5"/>
    <path d="M 229.256926 273.318958 
L 229.256926 272.942304 
" clip-path="url(#p60b2fd3762)" style="fill: none; stroke: #d62728; stroke-width: 1.5"/>
    <path d="M 253.256288 259.44534 
L 253.256288 259.076718 
" clip-path="url(#p60b2fd3762)" style="fill: none; stroke: #d62728; stroke-width: 1.5"/>
    <path d="M 349.253737 203.64388 
L 349.253737 202.216252 
" clip-path="url(#p60b2fd3762)" style="fill: none; stroke: #d62728; stroke-width: 1.5"/>
    <path clip-path="url(#p60b2fd3762)" style="fill: none; stroke: #d62728; stroke-width: 1.5"/>
    <path clip-path="url(#p60b2fd3762)" style="fill: none; stroke: #d62728; stroke-width: 1.5"/>
   </g>
   <g id="line2d_20">
    <defs>
     <path id="mf91cc8dc79" d="M 3 0 
L -3 -0 
" style="stroke: #d62728"/>
    </defs>
    <g clip-path="url(#p60b2fd3762)">
     <use xlink:href="#mf91cc8dc79" x="62.221364" y="373.532727" style="fill: #d62728; stroke: #d62728"/>
     <use xlink:href="#mf91cc8dc79" x="63.181338" y="373.154262" style="fill: #d62728; stroke: #d62728"/>
     <use xlink:href="#mf91cc8dc79" x="64.141313" y="372.782727" style="fill: #d62728; stroke: #d62728"/>
     <use xlink:href="#mf91cc8dc79" x="65.101287" y="372.377124" style="fill: #d62728; stroke: #d62728"/>
     <use xlink:href="#mf91cc8dc79" x="66.061262" y="371.978363" style="fill: #d62728; stroke: #d62728"/>
     <use xlink:href="#mf91cc8dc79" x="70.861134" y="369.756581" style="fill: #d62728; stroke: #d62728"/>
     <use xlink:href="#mf91cc8dc79" x="75.661007" y="367.435826" style="fill: #d62728; stroke: #d62728"/>
     <use xlink:href="#mf91cc8dc79" x="80.460879" y="364.963246" style="fill: #d62728; stroke: #d62728"/>
     <use xlink:href="#mf91cc8dc79" x="85.260752" y="362.310086" style="fill: #d62728; stroke: #d62728"/>
     <use xlink:href="#mf91cc8dc79" x="109.260114" y="347.633306" style="fill: #d62728; stroke: #d62728"/>
     <use xlink:href="#mf91cc8dc79" x="133.259476" y="331.524" style="fill: #d62728; stroke: #d62728"/>
     <use xlink:href="#mf91cc8dc79" x="157.258839" y="316.898316" style="fill: #d62728; stroke: #d62728"/>
     <use xlink:href="#mf91cc8dc79" x="181.258201" y="302.137237" style="fill: #d62728; stroke: #d62728"/>
     <use xlink:href="#mf91cc8dc79" x="205.257563" y="287.509064" style="fill: #d62728; stroke: #d62728"/>
     <use xlink:href="#mf91cc8dc79" x="229.256926" y="273.318958" style="fill: #d62728; stroke: #d62728"/>
     <use xlink:href="#mf91cc8dc79" x="253.256288" y="259.44534" style="fill: #d62728; stroke: #d62728"/>
     <use xlink:href="#mf91cc8dc79" x="349.253737" y="203.64388" style="fill: #d62728; stroke: #d62728"/>
    </g>
   </g>
   <g id="line2d_21">
    <g clip-path="url(#p60b2fd3762)">
     <use xlink:href="#mf91cc8dc79" x="62.221364" y="373.521699" style="fill: #d62728; stroke: #d62728"/>
     <use xlink:href="#mf91cc8dc79" x="63.181338" y="373.127204" style="fill: #d62728; stroke: #d62728"/>
     <use xlink:href="#mf91cc8dc79" x="64.141313" y="372.769508" style="fill: #d62728; stroke: #d62728"/>
     <use xlink:href="#mf91cc8dc79" x="65.101287" y="372.368664" style="fill: #d62728; stroke: #d62728"/>
     <use xlink:href="#mf91cc8dc79" x="66.061262" y="371.96506" style="fill: #d62728; stroke: #d62728"/>
     <use xlink:href="#mf91cc8dc79" x="70.861134" y="369.686358" style="fill: #d62728; stroke: #d62728"/>
     <use xlink:href="#mf91cc8dc79" x="75.661007" y="367.374097" style="fill: #d62728; stroke: #d62728"/>
     <use xlink:href="#mf91cc8dc79" x="80.460879" y="364.910085" style="fill: #d62728; stroke: #d62728"/>
     <use xlink:href="#mf91cc8dc79" x="85.260752" y="362.094439" style="fill: #d62728; stroke: #d62728"/>
     <use xlink:href="#mf91cc8dc79" x="109.260114" y="347.324882" style="fill: #d62728; stroke: #d62728"/>
     <use xlink:href="#mf91cc8dc79" x="133.259476" y="331.146149" style="fill: #d62728; stroke: #d62728"/>
     <use xlink:href="#mf91cc8dc79" x="157.258839" y="316.461237" style="fill: #d62728; stroke: #d62728"/>
     <use xlink:href="#mf91cc8dc79" x="181.258201" y="301.561146" style="fill: #d62728; stroke: #d62728"/>
     <use xlink:href="#mf91cc8dc79" x="205.257563" y="286.877097" style="fill: #d62728; stroke: #d62728"/>
     <use xlink:href="#mf91cc8dc79" x="229.256926" y="272.942304" style="fill: #d62728; stroke: #d62728"/>
     <use xlink:href="#mf91cc8dc79" x="253.256288" y="259.076718" style="fill: #d62728; stroke: #d62728"/>
     <use xlink:href="#mf91cc8dc79" x="349.253737" y="202.216252" style="fill: #d62728; stroke: #d62728"/>
    </g>
   </g>
   <g id="LineCollection_5">
    <path d="M 62.221364 373.425293 
L 62.221364 373.410901 
" clip-path="url(#p60b2fd3762)" style="fill: none; stroke: #9467bd; stroke-width: 1.5"/>
    <path d="M 63.181338 372.43602 
L 63.181338 372.425539 
" clip-path="url(#p60b2fd3762)" style="fill: none; stroke: #9467bd; stroke-width: 1.5"/>
    <path d="M 64.141313 370.998729 
L 64.141313 370.971819 
" clip-path="url(#p60b2fd3762)" style="fill: none; stroke: #9467bd; stroke-width: 1.5"/>
    <path d="M 65.101287 369.051055 
L 65.101287 368.973089 
" clip-path="url(#p60b2fd3762)" style="fill: none; stroke: #9467bd; stroke-width: 1.5"/>
    <path d="M 66.061262 366.711821 
L 66.061262 366.639025 
" clip-path="url(#p60b2fd3762)" style="fill: none; stroke: #9467bd; stroke-width: 1.5"/>
    <path d="M 70.861134 347.26359 
L 70.861134 347.238421 
" clip-path="url(#p60b2fd3762)" style="fill: none; stroke: #9467bd; stroke-width: 1.5"/>
    <path clip-path="url(#p60b2fd3762)" style="fill: none; stroke: #9467bd; stroke-width: 1.5"/>
    <path clip-path="url(#p60b2fd3762)" style="fill: none; stroke: #9467bd; stroke-width: 1.5"/>
    <path clip-path="url(#p60b2fd3762)" style="fill: none; stroke: #9467bd; stroke-width: 1.5"/>
    <path clip-path="url(#p60b2fd3762)" style="fill: none; stroke: #9467bd; stroke-width: 1.5"/>
    <path clip-path="url(#p60b2fd3762)" style="fill: none; stroke: #9467bd; stroke-width: 1.5"/>
    <path clip-path="url(#p60b2fd3762)" style="fill: none; stroke: #9467bd; stroke-width: 1.5"/>
    <path clip-path="url(#p60b2fd3762)" style="fill: none; stroke: #9467bd; stroke-width: 1.5"/>
    <path clip-path="url(#p60b2fd3762)" style="fill: none; stroke: #9467bd; stroke-width: 1.5"/>
    <path clip-path="url(#p60b2fd3762)" style="fill: none; stroke: #9467bd; stroke-width: 1.5"/>
    <path clip-path="url(#p60b2fd3762)" style="fill: none; stroke: #9467bd; stroke-width: 1.5"/>
    <path clip-path="url(#p60b2fd3762)" style="fill: none; stroke: #9467bd; stroke-width: 1.5"/>
    <path clip-path="url(#p60b2fd3762)" style="fill: none; stroke: #9467bd; stroke-width: 1.5"/>
    <path clip-path="url(#p60b2fd3762)" style="fill: none; stroke: #9467bd; stroke-width: 1.5"/>
   </g>
   <g id="line2d_22">
    <defs>
     <path id="m0cb540596a" d="M 3 0 
L -3 -0 
" style="stroke: #9467bd"/>
    </defs>
    <g clip-path="url(#p60b2fd3762)">
     <use xlink:href="#m0cb540596a" x="62.221364" y="373.425293" style="fill: #9467bd; stroke: #9467bd"/>
     <use xlink:href="#m0cb540596a" x="63.181338" y="372.43602" style="fill: #9467bd; stroke: #9467bd"/>
     <use xlink:href="#m0cb540596a" x="64.141313" y="370.998729" style="fill: #9467bd; stroke: #9467bd"/>
     <use xlink:href="#m0cb540596a" x="65.101287" y="369.051055" style="fill: #9467bd; stroke: #9467bd"/>
     <use xlink:href="#m0cb540596a" x="66.061262" y="366.711821" style="fill: #9467bd; stroke: #9467bd"/>
     <use xlink:href="#m0cb540596a" x="70.861134" y="347.26359" style="fill: #9467bd; stroke: #9467bd"/>
    </g>
   </g>
   <g id="line2d_23">
    <g clip-path="url(#p60b2fd3762)">
     <use xlink:href="#m0cb540596a" x="62.221364" y="373.410901" style="fill: #9467bd; stroke: #9467bd"/>
     <use xlink:href="#m0cb540596a" x="63.181338" y="372.425539" style="fill: #9467bd; stroke: #9467bd"/>
     <use xlink:href="#m0cb540596a" x="64.141313" y="370.971819" style="fill: #9467bd; stroke: #9467bd"/>
     <use xlink:href="#m0cb540596a" x="65.101287" y="368.973089" style="fill: #9467bd; stroke: #9467bd"/>
     <use xlink:href="#m0cb540596a" x="66.061262" y="366.639025" style="fill: #9467bd; stroke: #9467bd"/>
     <use xlink:href="#m0cb540596a" x="70.861134" y="347.238421" style="fill: #9467bd; stroke: #9467bd"/>
    </g>
   </g>
   <g id="line2d_24">
    <path d="M 62.221364 373.261983 
L 63.181338 372.960194 
L 64.141313 372.676448 
L 65.101287 372.375826 
L 66.061262 372.075288 
L 70.861134 370.538312 
L 75.661007 368.91955 
L 80.460879 367.275537 
L 85.260752 365.526166 
L 109.260114 356.440068 
L 133.259476 347.404415 
L 157.258839 338.596345 
L 181.258201 329.415697 
L 205.257563 319.684626 
L 229.256926 310.130344 
L 253.256288 301.899691 
L 349.253737 263.441568 
L 445.251187 162.351912 
L 541.248636 180.816642 
" clip-path="url(#p60b2fd3762)" style="fill: none; stroke: #1f77b4; stroke-width: 1.5; stroke-linecap: square"/>
   </g>
   <g id="line2d_25">
    <path d="M 62.221364 373.300118 
L 63.181338 373.021243 
L 64.141313 372.731112 
L 65.101287 372.464044 
L 66.061262 372.188375 
L 70.861134 370.738032 
L 75.661007 369.271516 
L 80.460879 367.747425 
L 85.260752 366.104082 
L 109.260114 357.385649 
L 133.259476 349.167966 
L 157.258839 342.039376 
L 181.258201 334.944123 
L 205.257563 326.728223 
L 229.256926 318.697388 
L 253.256288 311.186737 
L 349.253737 282.557247 
L 445.251187 253.804885 
L 541.248636 224.482312 
" clip-path="url(#p60b2fd3762)" style="fill: none; stroke: #ff7f0e; stroke-width: 1.5; stroke-linecap: square"/>
   </g>
   <g id="line2d_26">
    <path d="M 62.221364 373.333565 
L 63.181338 373.00356 
L 64.141313 372.785895 
L 65.101287 372.511268 
L 66.061262 372.230028 
L 70.861134 370.798325 
L 75.661007 369.30438 
L 80.460879 367.821709 
L 85.260752 366.237472 
L 109.260114 357.158891 
L 133.259476 350.165527 
L 157.258839 342.650809 
L 181.258201 335.324281 
L 205.257563 327.175271 
L 229.256926 318.875567 
L 253.256288 311.708749 
L 349.253737 279.134436 
L 445.251187 249.298649 
L 541.248636 216.875218 
" clip-path="url(#p60b2fd3762)" style="fill: none; stroke: #2ca02c; stroke-width: 1.5; stroke-linecap: square"/>
   </g>
   <g id="line2d_27">
    <path d="M 62.221364 373.525813 
L 63.181338 373.144349 
L 64.141313 372.778127 
L 65.101287 372.373766 
L 66.061262 371.973908 
L 70.861134 369.72745 
L 75.661007 367.40281 
L 80.460879 364.937176 
L 85.260752 362.207404 
L 109.260114 347.443207 
L 133.259476 331.390001 
L 157.258839 316.688394 
L 181.258201 301.878231 
L 205.257563 287.198612 
L 229.256926 273.122399 
L 253.256288 259.252306 
L 349.253737 202.69668 
" clip-path="url(#p60b2fd3762)" style="fill: none; stroke: #d62728; stroke-width: 1.5; stroke-linecap: square"/>
   </g>
   <g id="line2d_28">
    <path d="M 62.221364 373.417644 
L 63.181338 372.432355 
L 64.141313 370.985426 
L 65.101287 369.011402 
L 66.061262 366.673352 
L 70.861134 347.254101 
" clip-path="url(#p60b2fd3762)" style="fill: none; stroke: #9467bd; stroke-width: 1.5; stroke-linecap: square"/>
   </g>
   <g id="patch_3">
    <path d="M 38.27 390.04 
L 38.27 26.88 
" style="fill: none; stroke: #000000; stroke-width: 0.8; stroke-linejoin: miter; stroke-linecap: square"/>
   </g>
   <g id="patch_4">
    <path d="M 565.2 390.04 
L 565.2 26.88 
" style="fill: none; stroke: #000000; stroke-width: 0.8; stroke-linejoin: miter; stroke-linecap: square"/>
   </g>
   <g id="patch_5">
    <path d="M 38.27 390.04 
L 565.2 390.04 
" style="fill: none; stroke: #000000; stroke-width: 0.8; stroke-linejoin: miter; stroke-linecap: square"/>
   </g>
   <g id="patch_6">
    <path d="M 38.27 26.88 
L 565.2 26.88 
" style="fill: none; stroke: #000000; stroke-width: 0.8; stroke-linejoin: miter; stroke-linecap: square"/>
   </g>
   <g id="text_17">
    <!-- Rust implementations of Bron-Kerbosch Ver3-GP on a random graph of order 1M -->
    <g transform="translate(38.27 20.88) scale(0.12 -0.12)">
     <defs>
      <path id="DejaVuSans-52" d="M 2841 2188 
Q 3044 2119 3236 1894 
Q 3428 1669 3622 1275 
L 4263 0 
L 3584 0 
L 2988 1197 
Q 2756 1666 2539 1819 
Q 2322 1972 1947 1972 
L 1259 1972 
L 1259 0 
L 628 0 
L 628 4666 
L 2053 4666 
Q 2853 4666 3247 4331 
Q 3641 3997 3641 3322 
Q 3641 2881 3436 2590 
Q 3231 2300 2841 2188 
z
M 1259 4147 
L 1259 2491 
L 2053 2491 
Q 2509 2491 2742 2702 
Q 2975 2913 2975 3322 
Q 2975 3731 2742 3939 
Q 2509 4147 2053 4147 
L 1259 4147 
z
" transform="scale(0.015625)"/>
      <path id="DejaVuSans-75" d="M 544 1381 
L 544 3500 
L 1119 3500 
L 1119 1403 
Q 1119 906 1312 657 
Q 1506 409 1894 409 
Q 2359 409 2629 706 
Q 2900 1003 2900 1516 
L 2900 3500 
L 3475 3500 
L 3475 0 
L 2900 0 
L 2900 538 
Q 2691 219 2414 64 
Q 2138 -91 1772 -91 
Q 1169 -91 856 284 
Q 544 659 544 1381 
z
M 1991 3584 
L 1991 3584 
z
" transform="scale(0.015625)"/>
      <path id="DejaVuSans-6d" d="M 3328 2828 
Q 3544 3216 3844 3400 
Q 4144 3584 4550 3584 
Q 5097 3584 5394 3201 
Q 5691 2819 5691 2113 
L 5691 0 
L 5113 0 
L 5113 2094 
Q 5113 2597 4934 2840 
Q 4756 3084 4391 3084 
Q 3944 3084 3684 2787 
Q 3425 2491 3425 1978 
L 3425 0 
L 2847 0 
L 2847 2094 
Q 2847 2600 2669 2842 
Q 2491 3084 2119 3084 
Q 1678 3084 1418 2786 
Q 1159 2488 1159 1978 
L 1159 0 
L 581 0 
L 581 3500 
L 1159 3500 
L 1159 2956 
Q 1356 3278 1631 3431 
Q 1906 3584 2284 3584 
Q 2666 3584 2933 3390 
Q 3200 3197 3328 2828 
z
" transform="scale(0.015625)"/>
      <path id="DejaVuSans-6c" d="M 603 4863 
L 1178 4863 
L 1178 0 
L 603 0 
L 603 4863 
z
" transform="scale(0.015625)"/>
      <path id="DejaVuSans-61" d="M 2194 1759 
Q 1497 1759 1228 1600 
Q 959 1441 959 1056 
Q 959 750 1161 570 
Q 1363 391 1709 391 
Q 2188 391 2477 730 
Q 2766 1069 2766 1631 
L 2766 1759 
L 2194 1759 
z
M 3341 1997 
L 3341 0 
L 2766 0 
L 2766 531 
Q 2569 213 2275 61 
Q 1981 -91 1556 -91 
Q 1019 -91 701 211 
Q 384 513 384 1019 
Q 384 1609 779 1909 
Q 1175 2209 1959 2209 
L 2766 2209 
L 2766 2266 
Q 2766 2663 2505 2880 
Q 2244 3097 1772 3097 
Q 1472 3097 1187 3025 
Q 903 2953 641 2809 
L 641 3341 
Q 956 3463 1253 3523 
Q 1550 3584 1831 3584 
Q 2591 3584 2966 3190 
Q 3341 2797 3341 1997 
z
" transform="scale(0.015625)"/>
      <path id="DejaVuSans-66" d="M 2375 4863 
L 2375 4384 
L 1825 4384 
Q 1516 4384 1395 4259 
Q 1275 4134 1275 3809 
L 1275 3500 
L 2222 3500 
L 2222 3053 
L 1275 3053 
L 1275 0 
L 697 0 
L 697 3053 
L 147 3053 
L 147 3500 
L 697 3500 
L 697 3744 
Q 697 4328 969 4595 
Q 1241 4863 1831 4863 
L 2375 4863 
z
" transform="scale(0.015625)"/>
      <path id="DejaVuSans-42" d="M 1259 2228 
L 1259 519 
L 2272 519 
Q 2781 519 3026 730 
Q 3272 941 3272 1375 
Q 3272 1813 3026 2020 
Q 2781 2228 2272 2228 
L 1259 2228 
z
M 1259 4147 
L 1259 2741 
L 2194 2741 
Q 2656 2741 2882 2914 
Q 3109 3088 3109 3444 
Q 3109 3797 2882 3972 
Q 2656 4147 2194 4147 
L 1259 4147 
z
M 628 4666 
L 2241 4666 
Q 2963 4666 3353 4366 
Q 3744 4066 3744 3513 
Q 3744 3084 3544 2831 
Q 3344 2578 2956 2516 
Q 3422 2416 3680 2098 
Q 3938 1781 3938 1306 
Q 3938 681 3513 340 
Q 3088 0 2303 0 
L 628 0 
L 628 4666 
z
" transform="scale(0.015625)"/>
      <path id="DejaVuSans-72" d="M 2631 2963 
Q 2534 3019 2420 3045 
Q 2306 3072 2169 3072 
Q 1681 3072 1420 2755 
Q 1159 2438 1159 1844 
L 1159 0 
L 581 0 
L 581 3500 
L 1159 3500 
L 1159 2956 
Q 1341 3275 1631 3429 
Q 1922 3584 2338 3584 
Q 2397 3584 2469 3576 
Q 2541 3569 2628 3553 
L 2631 2963 
z
" transform="scale(0.015625)"/>
      <path id="DejaVuSans-2d" d="M 313 2009 
L 1997 2009 
L 1997 1497 
L 313 1497 
L 313 2009 
z
" transform="scale(0.015625)"/>
      <path id="DejaVuSans-4b" d="M 628 4666 
L 1259 4666 
L 1259 2694 
L 3353 4666 
L 4166 4666 
L 1850 2491 
L 4331 0 
L 3500 0 
L 1259 2247 
L 1259 0 
L 628 0 
L 628 4666 
z
" transform="scale(0.015625)"/>
      <path id="DejaVuSans-62" d="M 3116 1747 
Q 3116 2381 2855 2742 
Q 2594 3103 2138 3103 
Q 1681 3103 1420 2742 
Q 1159 2381 1159 1747 
Q 1159 1113 1420 752 
Q 1681 391 2138 391 
Q 2594 391 2855 752 
Q 3116 1113 3116 1747 
z
M 1159 2969 
Q 1341 3281 1617 3432 
Q 1894 3584 2278 3584 
Q 2916 3584 3314 3078 
Q 3713 2572 3713 1747 
Q 3713 922 3314 415 
Q 2916 -91 2278 -91 
Q 1894 -91 1617 61 
Q 1341 213 1159 525 
L 1159 0 
L 581 0 
L 581 4863 
L 1159 4863 
L 1159 2969 
z
" transform="scale(0.015625)"/>
      <path id="DejaVuSans-68" d="M 3513 2113 
L 3513 0 
L 2938 0 
L 2938 2094 
Q 2938 2591 2744 2837 
Q 2550 3084 2163 3084 
Q 1697 3084 1428 2787 
Q 1159 2491 1159 1978 
L 1159 0 
L 581 0 
L 581 4863 
L 1159 4863 
L 1159 2956 
Q 1366 3272 1645 3428 
Q 1925 3584 2291 3584 
Q 2894 3584 3203 3211 
Q 3513 2838 3513 2113 
z
" transform="scale(0.015625)"/>
      <path id="DejaVuSans-56" d="M 1831 0 
L 50 4666 
L 709 4666 
L 2188 738 
L 3669 4666 
L 4325 4666 
L 2547 0 
L 1831 0 
z
" transform="scale(0.015625)"/>
      <path id="DejaVuSans-bd" d="M 488 2431 
L 1125 2431 
L 1125 4341 
L 428 4213 
L 428 4575 
L 1147 4697 
L 1575 4697 
L 1575 2431 
L 2216 2431 
L 2216 2088 
L 488 2088 
L 488 2431 
z
M 4470 332 
L 5795 332 
L 5795 -24 
L 3926 -24 
L 3926 319 
Q 4032 416 4229 591 
Q 5304 1544 5304 1838 
Q 5304 2044 5141 2170 
Q 4979 2297 4713 2297 
Q 4551 2297 4360 2242 
Q 4170 2188 3945 2079 
L 3945 2463 
Q 4185 2551 4393 2594 
Q 4601 2638 4779 2638 
Q 5232 2638 5504 2432 
Q 5776 2226 5776 1888 
Q 5776 1454 4741 566 
Q 4566 416 4470 332 
z
M 4309 4750 
L 4809 4750 
L 1896 -91 
L 1396 -91 
L 4309 4750 
z
" transform="scale(0.015625)"/>
      <path id="DejaVuSans-47" d="M 3809 666 
L 3809 1919 
L 2778 1919 
L 2778 2438 
L 4434 2438 
L 4434 434 
Q 4069 175 3628 42 
Q 3188 -91 2688 -91 
Q 1594 -91 976 548 
Q 359 1188 359 2328 
Q 359 3472 976 4111 
Q 1594 4750 2688 4750 
Q 3144 4750 3555 4637 
Q 3966 4525 4313 4306 
L 4313 3634 
Q 3963 3931 3569 4081 
Q 3175 4231 2741 4231 
Q 1884 4231 1454 3753 
Q 1025 3275 1025 2328 
Q 1025 1384 1454 906 
Q 1884 428 2741 428 
Q 3075 428 3337 486 
Q 3600 544 3809 666 
z
" transform="scale(0.015625)"/>
      <path id="DejaVuSans-50" d="M 1259 4147 
L 1259 2394 
L 2053 2394 
Q 2494 2394 2734 2622 
Q 2975 2850 2975 3272 
Q 2975 3691 2734 3919 
Q 2494 4147 2053 4147 
L 1259 4147 
z
M 628 4666 
L 2053 4666 
Q 2838 4666 3239 4311 
Q 3641 3956 3641 3272 
Q 3641 2581 3239 2228 
Q 2838 1875 2053 1875 
L 1259 1875 
L 1259 0 
L 628 0 
L 628 4666 
z
" transform="scale(0.015625)"/>
      <path id="DejaVuSans-4d" d="M 628 4666 
L 1569 4666 
L 2759 1491 
L 3956 4666 
L 4897 4666 
L 4897 0 
L 4281 0 
L 4281 4097 
L 3078 897 
L 2444 897 
L 1241 4097 
L 1241 0 
L 628 0 
L 628 4666 
z
" transform="scale(0.015625)"/>
     </defs>
     <use xlink:href="#DejaVuSans-52"/>
     <use xlink:href="#DejaVuSans-75" transform="translate(64.982422 0)"/>
     <use xlink:href="#DejaVuSans-73" transform="translate(128.361328 0)"/>
     <use xlink:href="#DejaVuSans-74" transform="translate(180.460938 0)"/>
     <use xlink:href="#DejaVuSans-20" transform="translate(219.669922 0)"/>
     <use xlink:href="#DejaVuSans-69" transform="translate(251.457031 0)"/>
     <use xlink:href="#DejaVuSans-6d" transform="translate(279.240234 0)"/>
     <use xlink:href="#DejaVuSans-70" transform="translate(376.652344 0)"/>
     <use xlink:href="#DejaVuSans-6c" transform="translate(440.128906 0)"/>
     <use xlink:href="#DejaVuSans-65" transform="translate(467.912109 0)"/>
     <use xlink:href="#DejaVuSans-6d" transform="translate(529.435547 0)"/>
     <use xlink:href="#DejaVuSans-65" transform="translate(626.847656 0)"/>
     <use xlink:href="#DejaVuSans-6e" transform="translate(688.371094 0)"/>
     <use xlink:href="#DejaVuSans-74" transform="translate(751.75 0)"/>
     <use xlink:href="#DejaVuSans-61" transform="translate(790.958984 0)"/>
     <use xlink:href="#DejaVuSans-74" transform="translate(852.238281 0)"/>
     <use xlink:href="#DejaVuSans-69" transform="translate(891.447266 0)"/>
     <use xlink:href="#DejaVuSans-6f" transform="translate(919.230469 0)"/>
     <use xlink:href="#DejaVuSans-6e" transform="translate(980.412109 0)"/>
     <use xlink:href="#DejaVuSans-73" transform="translate(1043.791016 0)"/>
     <use xlink:href="#DejaVuSans-20" transform="translate(1095.890625 0)"/>
     <use xlink:href="#DejaVuSans-6f" transform="translate(1127.677734 0)"/>
     <use xlink:href="#DejaVuSans-66" transform="translate(1188.859375 0)"/>
     <use xlink:href="#DejaVuSans-20" transform="translate(1224.064453 0)"/>
     <use xlink:href="#DejaVuSans-42" transform="translate(1255.851562 0)"/>
     <use xlink:href="#DejaVuSans-72" transform="translate(1324.455078 0)"/>
     <use xlink:href="#DejaVuSans-6f" transform="translate(1363.318359 0)"/>
     <use xlink:href="#DejaVuSans-6e" transform="translate(1424.5 0)"/>
     <use xlink:href="#DejaVuSans-2d" transform="translate(1487.878906 0)"/>
     <use xlink:href="#DejaVuSans-4b" transform="translate(1523.962891 0)"/>
     <use xlink:href="#DejaVuSans-65" transform="translate(1584.539062 0)"/>
     <use xlink:href="#DejaVuSans-72" transform="translate(1646.0625 0)"/>
     <use xlink:href="#DejaVuSans-62" transform="translate(1687.175781 0)"/>
     <use xlink:href="#DejaVuSans-6f" transform="translate(1750.652344 0)"/>
     <use xlink:href="#DejaVuSans-73" transform="translate(1811.833984 0)"/>
     <use xlink:href="#DejaVuSans-63" transform="translate(1863.933594 0)"/>
     <use xlink:href="#DejaVuSans-68" transform="translate(1918.914062 0)"/>
     <use xlink:href="#DejaVuSans-20" transform="translate(1982.292969 0)"/>
     <use xlink:href="#DejaVuSans-56" transform="translate(2014.080078 0)"/>
     <use xlink:href="#DejaVuSans-65" transform="translate(2074.738281 0)"/>
     <use xlink:href="#DejaVuSans-72" transform="translate(2136.261719 0)"/>
     <use xlink:href="#DejaVuSans-33" transform="translate(2177.375 0)"/>
     <use xlink:href="#DejaVuSans-bd" transform="translate(2240.998047 0)"/>
     <use xlink:href="#DejaVuSans-2d" transform="translate(2337.921875 0)"/>
     <use xlink:href="#DejaVuSans-47" transform="translate(2377.630859 0)"/>
     <use xlink:href="#DejaVuSans-50" transform="translate(2455.121094 0)"/>
     <use xlink:href="#DejaVuSans-20" transform="translate(2515.423828 0)"/>
     <use xlink:href="#DejaVuSans-6f" transform="translate(2547.210938 0)"/>
     <use xlink:href="#DejaVuSans-6e" transform="translate(2608.392578 0)"/>
     <use xlink:href="#DejaVuSans-20" transform="translate(2671.771484 0)"/>
     <use xlink:href="#DejaVuSans-61" transform="translate(2703.558594 0)"/>
     <use xlink:href="#DejaVuSans-20" transform="translate(2764.837891 0)"/>
     <use xlink:href="#DejaVuSans-72" transform="translate(2796.625 0)"/>
     <use xlink:href="#DejaVuSans-61" transform="translate(2837.738281 0)"/>
     <use xlink:href="#DejaVuSans-6e" transform="translate(2899.017578 0)"/>
     <use xlink:href="#DejaVuSans-64" transform="translate(2962.396484 0)"/>
     <use xlink:href="#DejaVuSans-6f" transform="translate(3025.873047 0)"/>
     <use xlink:href="#DejaVuSans-6d" transform="translate(3087.054688 0)"/>
     <use xlink:href="#DejaVuSans-20" transform="translate(3184.466797 0)"/>
     <use xlink:href="#DejaVuSans-67" transform="translate(3216.253906 0)"/>
     <use xlink:href="#DejaVuSans-72" transform="translate(3279.730469 0)"/>
     <use xlink:href="#DejaVuSans-61" transform="translate(3320.84375 0)"/>
     <use xlink:href="#DejaVuSans-70" transform="translate(3382.123047 0)"/>
     <use xlink:href="#DejaVuSans-68" transform="translate(3445.599609 0)"/>
     <use xlink:href="#DejaVuSans-20" transform="translate(3508.978516 0)"/>
     <use xlink:href="#DejaVuSans-6f" transform="translate(3540.765625 0)"/>
     <use xlink:href="#DejaVuSans-66" transform="translate(3601.947266 0)"/>
     <use xlink:href="#DejaVuSans-20" transform="translate(3637.152344 0)"/>
     <use xlink:href="#DejaVuSans-6f" transform="translate(3668.939453 0)"/>
     <use xlink:href="#DejaVuSans-72" transform="translate(3730.121094 0)"/>
     <use xlink:href="#DejaVuSans-64" transform="translate(3769.484375 0)"/>
     <use xlink:href="#DejaVuSans-65" transform="translate(3832.960938 0)"/>
     <use xlink:href="#DejaVuSans-72" transform="translate(3894.484375 0)"/>
     <use xlink:href="#DejaVuSans-20" transform="translate(3935.597656 0)"/>
     <use xlink:href="#DejaVuSans-31" transform="translate(3967.384766 0)"/>
     <use xlink:href="#DejaVuSans-4d" transform="translate(4031.007812 0)"/>
    </g>
   </g>
   <g id="legend_1">
    <g id="patch_7">
     <path d="M 45.27 108.54875 
L 132.15125 108.54875 
Q 134.15125 108.54875 134.15125 106.54875 
L 134.15125 33.88 
Q 134.15125 31.88 132.15125 31.88 
L 45.27 31.88 
Q 43.27 31.88 43.27 33.88 
L 43.27 106.54875 
Q 43.27 108.54875 45.27 108.54875 
z
" style="fill: #ffffff; opacity: 0.8; stroke: #cccccc; stroke-linejoin: miter"/>
    </g>
    <g id="LineCollection_6">
     <path d="M 57.27 44.978437 
L 57.27 34.978437 
" style="fill: none; stroke: #1f77b4; stroke-width: 1.5"/>
    </g>
    <g id="line2d_29">
     <g>
      <use xlink:href="#md8547b9e7e" x="57.27" y="44.978437" style="fill: #1f77b4; stroke: #1f77b4"/>
     </g>
    </g>
    <g id="line2d_30">
     <g>
      <use xlink:href="#md8547b9e7e" x="57.27" y="34.978437" style="fill: #1f77b4; stroke: #1f77b4"/>
     </g>
    </g>
    <g id="line2d_31">
     <path d="M 47.27 39.978437 
L 67.27 39.978437 
" style="fill: none; stroke: #1f77b4; stroke-width: 1.5; stroke-linecap: square"/>
    </g>
    <g id="line2d_32"/>
    <g id="text_18">
     <!-- Hash -->
     <g transform="translate(75.27 43.478437) scale(0.1 -0.1)">
      <defs>
       <path id="DejaVuSans-48" d="M 628 4666 
L 1259 4666 
L 1259 2753 
L 3553 2753 
L 3553 4666 
L 4184 4666 
L 4184 0 
L 3553 0 
L 3553 2222 
L 1259 2222 
L 1259 0 
L 628 0 
L 628 4666 
z
" transform="scale(0.015625)"/>
      </defs>
      <use xlink:href="#DejaVuSans-48"/>
      <use xlink:href="#DejaVuSans-61" transform="translate(75.195312 0)"/>
      <use xlink:href="#DejaVuSans-73" transform="translate(136.474609 0)"/>
      <use xlink:href="#DejaVuSans-68" transform="translate(188.574219 0)"/>
     </g>
    </g>
    <g id="LineCollection_7">
     <path d="M 57.27 59.656563 
L 57.27 49.656563 
" style="fill: none; stroke: #ff7f0e; stroke-width: 1.5"/>
    </g>
    <g id="line2d_33">
     <g>
      <use xlink:href="#m7f04267d81" x="57.27" y="59.656563" style="fill: #ff7f0e; stroke: #ff7f0e"/>
     </g>
    </g>
    <g id="line2d_34">
     <g>
      <use xlink:href="#m7f04267d81" x="57.27" y="49.656563" style="fill: #ff7f0e; stroke: #ff7f0e"/>
     </g>
    </g>
    <g id="line2d_35">
     <path d="M 47.27 54.656563 
L 67.27 54.656563 
" style="fill: none; stroke: #ff7f0e; stroke-width: 1.5; stroke-linecap: square"/>
    </g>
    <g id="line2d_36"/>
    <g id="text_19">
     <!-- hashbrown -->
     <g transform="translate(75.27 58.156563) scale(0.1 -0.1)">
      <defs>
       <path id="DejaVuSans-77" d="M 269 3500 
L 844 3500 
L 1563 769 
L 2278 3500 
L 2956 3500 
L 3675 769 
L 4391 3500 
L 4966 3500 
L 4050 0 
L 3372 0 
L 2619 2869 
L 1863 0 
L 1184 0 
L 269 3500 
z
" transform="scale(0.015625)"/>
      </defs>
      <use xlink:href="#DejaVuSans-68"/>
      <use xlink:href="#DejaVuSans-61" transform="translate(63.378906 0)"/>
      <use xlink:href="#DejaVuSans-73" transform="translate(124.658203 0)"/>
      <use xlink:href="#DejaVuSans-68" transform="translate(176.757812 0)"/>
      <use xlink:href="#DejaVuSans-62" transform="translate(240.136719 0)"/>
      <use xlink:href="#DejaVuSans-72" transform="translate(303.613281 0)"/>
      <use xlink:href="#DejaVuSans-6f" transform="translate(342.476562 0)"/>
      <use xlink:href="#DejaVuSans-77" transform="translate(403.658203 0)"/>
      <use xlink:href="#DejaVuSans-6e" transform="translate(485.445312 0)"/>
     </g>
    </g>
    <g id="LineCollection_8">
     <path d="M 57.27 74.334687 
L 57.27 64.334687 
" style="fill: none; stroke: #2ca02c; stroke-width: 1.5"/>
    </g>
    <g id="line2d_37">
     <g>
      <use xlink:href="#mf3fc7103a7" x="57.27" y="74.334687" style="fill: #2ca02c; stroke: #2ca02c"/>
     </g>
    </g>
    <g id="line2d_38">
     <g>
      <use xlink:href="#mf3fc7103a7" x="57.27" y="64.334687" style="fill: #2ca02c; stroke: #2ca02c"/>
     </g>
    </g>
    <g id="line2d_39">
     <path d="M 47.27 69.334687 
L 67.27 69.334687 
" style="fill: none; stroke: #2ca02c; stroke-width: 1.5; stroke-linecap: square"/>
    </g>
    <g id="line2d_40"/>
    <g id="text_20">
     <!-- fnv -->
     <g transform="translate(75.27 72.834687) scale(0.1 -0.1)">
      <defs>
       <path id="DejaVuSans-76" d="M 191 3500 
L 800 3500 
L 1894 563 
L 2988 3500 
L 3597 3500 
L 2284 0 
L 1503 0 
L 191 3500 
z
" transform="scale(0.015625)"/>
      </defs>
      <use xlink:href="#DejaVuSans-66"/>
      <use xlink:href="#DejaVuSans-6e" transform="translate(35.205078 0)"/>
      <use xlink:href="#DejaVuSans-76" transform="translate(98.583984 0)"/>
     </g>
    </g>
    <g id="LineCollection_9">
     <path d="M 57.27 89.012812 
L 57.27 79.012812 
" style="fill: none; stroke: #d62728; stroke-width: 1.5"/>
    </g>
    <g id="line2d_41">
     <g>
      <use xlink:href="#mf91cc8dc79" x="57.27" y="89.012812" style="fill: #d62728; stroke: #d62728"/>
     </g>
    </g>
    <g id="line2d_42">
     <g>
      <use xlink:href="#mf91cc8dc79" x="57.27" y="79.012812" style="fill: #d62728; stroke: #d62728"/>
     </g>
    </g>
    <g id="line2d_43">
     <path d="M 47.27 84.012812 
L 67.27 84.012812 
" style="fill: none; stroke: #d62728; stroke-width: 1.5; stroke-linecap: square"/>
    </g>
    <g id="line2d_44"/>
    <g id="text_21">
     <!-- BTree -->
     <g transform="translate(75.27 87.512812) scale(0.1 -0.1)">
      <defs>
       <path id="DejaVuSans-54" d="M -19 4666 
L 3928 4666 
L 3928 4134 
L 2272 4134 
L 2272 0 
L 1638 0 
L 1638 4134 
L -19 4134 
L -19 4666 
z
" transform="scale(0.015625)"/>
      </defs>
      <use xlink:href="#DejaVuSans-42"/>
      <use xlink:href="#DejaVuSans-54" transform="translate(68.603516 0)"/>
      <use xlink:href="#DejaVuSans-72" transform="translate(114.9375 0)"/>
      <use xlink:href="#DejaVuSans-65" transform="translate(153.800781 0)"/>
      <use xlink:href="#DejaVuSans-65" transform="translate(215.324219 0)"/>
     </g>
    </g>
    <g id="LineCollection_10">
     <path d="M 57.27 103.690938 
L 57.27 93.690938 
" style="fill: none; stroke: #9467bd; stroke-width: 1.5"/>
    </g>
    <g id="line2d_45">
     <g>
      <use xlink:href="#m0cb540596a" x="57.27" y="103.690938" style="fill: #9467bd; stroke: #9467bd"/>
     </g>
    </g>
    <g id="line2d_46">
     <g>
      <use xlink:href="#m0cb540596a" x="57.27" y="93.690938" style="fill: #9467bd; stroke: #9467bd"/>
     </g>
    </g>
    <g id="line2d_47">
     <path d="M 47.27 98.690938 
L 67.27 98.690938 
" style="fill: none; stroke: #9467bd; stroke-width: 1.5; stroke-linecap: square"/>
    </g>
    <g id="line2d_48"/>
    <g id="text_22">
     <!-- ord_vec -->
     <g transform="translate(75.27 102.190938) scale(0.1 -0.1)">
      <defs>
       <path id="DejaVuSans-5f" d="M 3263 -1063 
L 3263 -1509 
L -63 -1509 
L -63 -1063 
L 3263 -1063 
z
" transform="scale(0.015625)"/>
      </defs>
      <use xlink:href="#DejaVuSans-6f"/>
      <use xlink:href="#DejaVuSans-72" transform="translate(61.181641 0)"/>
      <use xlink:href="#DejaVuSans-64" transform="translate(100.544922 0)"/>
      <use xlink:href="#DejaVuSans-5f" transform="translate(164.021484 0)"/>
      <use xlink:href="#DejaVuSans-76" transform="translate(214.021484 0)"/>
      <use xlink:href="#DejaVuSans-65" transform="translate(273.201172 0)"/>
      <use xlink:href="#DejaVuSans-63" transform="translate(334.724609 0)"/>
     </g>
    </g>
   </g>
  </g>
 </g>
 <defs>
  <clipPath id="p60b2fd3762">
   <rect x="38.27" y="26.88" width="526.93" height="363.16"/>
  </clipPath>
 </defs>
</svg>
