<?xml version="1.0" encoding="utf-8" standalone="no"?>
<!DOCTYPE svg PUBLIC "-//W3C//DTD SVG 1.1//EN"
  "http://www.w3.org/Graphics/SVG/1.1/DTD/svg11.dtd">
<svg xmlns:xlink="http://www.w3.org/1999/xlink" width="576pt" height="432pt" viewBox="0 0 576 432" xmlns="http://www.w3.org/2000/svg" version="1.1">
 <metadata>
  <rdf:RDF xmlns:dc="http://purl.org/dc/elements/1.1/" xmlns:cc="http://creativecommons.org/ns#" xmlns:rdf="http://www.w3.org/1999/02/22-rdf-syntax-ns#">
   <cc:Work>
    <dc:type rdf:resource="http://purl.org/dc/dcmitype/StillImage"/>
    <dc:date>2024-10-25T14:34:23.872162</dc:date>
    <dc:format>image/svg+xml</dc:format>
    <dc:creator>
     <cc:Agent>
      <dc:title>Matplotlib v3.9.2, https://matplotlib.org/</dc:title>
     </cc:Agent>
    </dc:creator>
   </cc:Work>
  </rdf:RDF>
 </metadata>
 <defs>
  <style type="text/css">*{stroke-linejoin: round; stroke-linecap: butt}</style>
 </defs>
 <g id="figure_1">
  <g id="patch_1">
   <path d="M 0 432 
L 576 432 
L 576 0 
L 0 0 
z
" style="fill: #ffffff"/>
  </g>
  <g id="axes_1">
   <g id="patch_2">
    <path d="M 38.27 390.04 
L 565.2 390.04 
L 565.2 26.88 
L 38.27 26.88 
z
" style="fill: #ffffff"/>
   </g>
   <g id="matplotlib.axis_1">
    <g id="xtick_1">
     <g id="line2d_1">
      <defs>
       <path id="mc74f61fcfc" d="M 0 0 
L 0 3.5 
" style="stroke: #000000; stroke-width: 0.8"/>
      </defs>
      <g>
       <use xlink:href="#mc74f61fcfc" x="115.446616" y="390.04" style="stroke: #000000; stroke-width: 0.8"/>
      </g>
     </g>
     <g id="text_1">
      <!-- 1 -->
      <g transform="translate(112.265366 404.638438) scale(0.1 -0.1)">
       <defs>
        <path id="DejaVuSans-31" d="M 794 531 
L 1825 531 
L 1825 4091 
L 703 3866 
L 703 4441 
L 1819 4666 
L 2450 4666 
L 2450 531 
L 3481 531 
L 3481 0 
L 794 0 
L 794 531 
z
" transform="scale(0.015625)"/>
       </defs>
       <use xlink:href="#DejaVuSans-31"/>
      </g>
     </g>
    </g>
    <g id="xtick_2">
     <g id="line2d_2">
      <g>
       <use xlink:href="#mc74f61fcfc" x="221.897121" y="390.04" style="stroke: #000000; stroke-width: 0.8"/>
      </g>
     </g>
     <g id="text_2">
      <!-- 2 -->
      <g transform="translate(218.715871 404.638438) scale(0.1 -0.1)">
       <defs>
        <path id="DejaVuSans-32" d="M 1228 531 
L 3431 531 
L 3431 0 
L 469 0 
L 469 531 
Q 828 903 1448 1529 
Q 2069 2156 2228 2338 
Q 2531 2678 2651 2914 
Q 2772 3150 2772 3378 
Q 2772 3750 2511 3984 
Q 2250 4219 1831 4219 
Q 1534 4219 1204 4116 
Q 875 4013 500 3803 
L 500 4441 
Q 881 4594 1212 4672 
Q 1544 4750 1819 4750 
Q 2544 4750 2975 4387 
Q 3406 4025 3406 3419 
Q 3406 3131 3298 2873 
Q 3191 2616 2906 2266 
Q 2828 2175 2409 1742 
Q 1991 1309 1228 531 
z
" transform="scale(0.015625)"/>
       </defs>
       <use xlink:href="#DejaVuSans-32"/>
      </g>
     </g>
    </g>
    <g id="xtick_3">
     <g id="line2d_3">
      <g>
       <use xlink:href="#mc74f61fcfc" x="328.347626" y="390.04" style="stroke: #000000; stroke-width: 0.8"/>
      </g>
     </g>
     <g id="text_3">
      <!-- 3 -->
      <g transform="translate(325.166376 404.638438) scale(0.1 -0.1)">
       <defs>
        <path id="DejaVuSans-33" d="M 2597 2516 
Q 3050 2419 3304 2112 
Q 3559 1806 3559 1356 
Q 3559 666 3084 287 
Q 2609 -91 1734 -91 
Q 1441 -91 1130 -33 
Q 819 25 488 141 
L 488 750 
Q 750 597 1062 519 
Q 1375 441 1716 441 
Q 2309 441 2620 675 
Q 2931 909 2931 1356 
Q 2931 1769 2642 2001 
Q 2353 2234 1838 2234 
L 1294 2234 
L 1294 2753 
L 1863 2753 
Q 2328 2753 2575 2939 
Q 2822 3125 2822 3475 
Q 2822 3834 2567 4026 
Q 2313 4219 1838 4219 
Q 1578 4219 1281 4162 
Q 984 4106 628 3988 
L 628 4550 
Q 988 4650 1302 4700 
Q 1616 4750 1894 4750 
Q 2613 4750 3031 4423 
Q 3450 4097 3450 3541 
Q 3450 3153 3228 2886 
Q 3006 2619 2597 2516 
z
" transform="scale(0.015625)"/>
       </defs>
       <use xlink:href="#DejaVuSans-33"/>
      </g>
     </g>
    </g>
    <g id="xtick_4">
     <g id="line2d_4">
      <g>
       <use xlink:href="#mc74f61fcfc" x="434.798131" y="390.04" style="stroke: #000000; stroke-width: 0.8"/>
      </g>
     </g>
     <g id="text_4">
      <!-- 4 -->
      <g transform="translate(431.616881 404.638438) scale(0.1 -0.1)">
       <defs>
        <path id="DejaVuSans-34" d="M 2419 4116 
L 825 1625 
L 2419 1625 
L 2419 4116 
z
M 2253 4666 
L 3047 4666 
L 3047 1625 
L 3713 1625 
L 3713 1100 
L 3047 1100 
L 3047 0 
L 2419 0 
L 2419 1100 
L 313 1100 
L 313 1709 
L 2253 4666 
z
" transform="scale(0.015625)"/>
       </defs>
       <use xlink:href="#DejaVuSans-34"/>
      </g>
     </g>
    </g>
    <g id="xtick_5">
     <g id="line2d_5">
      <g>
       <use xlink:href="#mc74f61fcfc" x="541.248636" y="390.04" style="stroke: #000000; stroke-width: 0.8"/>
      </g>
     </g>
     <g id="text_5">
      <!-- 5 -->
      <g transform="translate(538.067386 404.638438) scale(0.1 -0.1)">
       <defs>
        <path id="DejaVuSans-35" d="M 691 4666 
L 3169 4666 
L 3169 4134 
L 1269 4134 
L 1269 2991 
Q 1406 3038 1543 3061 
Q 1681 3084 1819 3084 
Q 2600 3084 3056 2656 
Q 3513 2228 3513 1497 
Q 3513 744 3044 326 
Q 2575 -91 1722 -91 
Q 1428 -91 1123 -41 
Q 819 9 494 109 
L 494 744 
Q 775 591 1075 516 
Q 1375 441 1709 441 
Q 2250 441 2565 725 
Q 2881 1009 2881 1497 
Q 2881 1984 2565 2268 
Q 2250 2553 1709 2553 
Q 1456 2553 1204 2497 
Q 953 2441 691 2322 
L 691 4666 
z
" transform="scale(0.015625)"/>
       </defs>
       <use xlink:href="#DejaVuSans-35"/>
      </g>
     </g>
    </g>
    <g id="text_6">
     <!-- Size (#edges) -->
     <g transform="translate(266.684219 418.316562) scale(0.1 -0.1)">
      <defs>
       <path id="DejaVuSans-53" d="M 3425 4513 
L 3425 3897 
Q 3066 4069 2747 4153 
Q 2428 4238 2131 4238 
Q 1616 4238 1336 4038 
Q 1056 3838 1056 3469 
Q 1056 3159 1242 3001 
Q 1428 2844 1947 2747 
L 2328 2669 
Q 3034 2534 3370 2195 
Q 3706 1856 3706 1288 
Q 3706 609 3251 259 
Q 2797 -91 1919 -91 
Q 1588 -91 1214 -16 
Q 841 59 441 206 
L 441 856 
Q 825 641 1194 531 
Q 1563 422 1919 422 
Q 2459 422 2753 634 
Q 3047 847 3047 1241 
Q 3047 1584 2836 1778 
Q 2625 1972 2144 2069 
L 1759 2144 
Q 1053 2284 737 2584 
Q 422 2884 422 3419 
Q 422 4038 858 4394 
Q 1294 4750 2059 4750 
Q 2388 4750 2728 4690 
Q 3069 4631 3425 4513 
z
" transform="scale(0.015625)"/>
       <path id="DejaVuSans-69" d="M 603 3500 
L 1178 3500 
L 1178 0 
L 603 0 
L 603 3500 
z
M 603 4863 
L 1178 4863 
L 1178 4134 
L 603 4134 
L 603 4863 
z
" transform="scale(0.015625)"/>
       <path id="DejaVuSans-7a" d="M 353 3500 
L 3084 3500 
L 3084 2975 
L 922 459 
L 3084 459 
L 3084 0 
L 275 0 
L 275 525 
L 2438 3041 
L 353 3041 
L 353 3500 
z
" transform="scale(0.015625)"/>
       <path id="DejaVuSans-65" d="M 3597 1894 
L 3597 1613 
L 953 1613 
Q 991 1019 1311 708 
Q 1631 397 2203 397 
Q 2534 397 2845 478 
Q 3156 559 3463 722 
L 3463 178 
Q 3153 47 2828 -22 
Q 2503 -91 2169 -91 
Q 1331 -91 842 396 
Q 353 884 353 1716 
Q 353 2575 817 3079 
Q 1281 3584 2069 3584 
Q 2775 3584 3186 3129 
Q 3597 2675 3597 1894 
z
M 3022 2063 
Q 3016 2534 2758 2815 
Q 2500 3097 2075 3097 
Q 1594 3097 1305 2825 
Q 1016 2553 972 2059 
L 3022 2063 
z
" transform="scale(0.015625)"/>
       <path id="DejaVuSans-20" transform="scale(0.015625)"/>
       <path id="DejaVuSans-28" d="M 1984 4856 
Q 1566 4138 1362 3434 
Q 1159 2731 1159 2009 
Q 1159 1288 1364 580 
Q 1569 -128 1984 -844 
L 1484 -844 
Q 1016 -109 783 600 
Q 550 1309 550 2009 
Q 550 2706 781 3412 
Q 1013 4119 1484 4856 
L 1984 4856 
z
" transform="scale(0.015625)"/>
       <path id="DejaVuSans-23" d="M 3272 2816 
L 2363 2816 
L 2100 1772 
L 3016 1772 
L 3272 2816 
z
M 2803 4594 
L 2478 3297 
L 3391 3297 
L 3719 4594 
L 4219 4594 
L 3897 3297 
L 4872 3297 
L 4872 2816 
L 3775 2816 
L 3519 1772 
L 4513 1772 
L 4513 1294 
L 3397 1294 
L 3072 0 
L 2572 0 
L 2894 1294 
L 1978 1294 
L 1656 0 
L 1153 0 
L 1478 1294 
L 494 1294 
L 494 1772 
L 1594 1772 
L 1856 2816 
L 850 2816 
L 850 3297 
L 1978 3297 
L 2297 4594 
L 2803 4594 
z
" transform="scale(0.015625)"/>
       <path id="DejaVuSans-64" d="M 2906 2969 
L 2906 4863 
L 3481 4863 
L 3481 0 
L 2906 0 
L 2906 525 
Q 2725 213 2448 61 
Q 2172 -91 1784 -91 
Q 1150 -91 751 415 
Q 353 922 353 1747 
Q 353 2572 751 3078 
Q 1150 3584 1784 3584 
Q 2172 3584 2448 3432 
Q 2725 3281 2906 2969 
z
M 947 1747 
Q 947 1113 1208 752 
Q 1469 391 1925 391 
Q 2381 391 2643 752 
Q 2906 1113 2906 1747 
Q 2906 2381 2643 2742 
Q 2381 3103 1925 3103 
Q 1469 3103 1208 2742 
Q 947 2381 947 1747 
z
" transform="scale(0.015625)"/>
       <path id="DejaVuSans-67" d="M 2906 1791 
Q 2906 2416 2648 2759 
Q 2391 3103 1925 3103 
Q 1463 3103 1205 2759 
Q 947 2416 947 1791 
Q 947 1169 1205 825 
Q 1463 481 1925 481 
Q 2391 481 2648 825 
Q 2906 1169 2906 1791 
z
M 3481 434 
Q 3481 -459 3084 -895 
Q 2688 -1331 1869 -1331 
Q 1566 -1331 1297 -1286 
Q 1028 -1241 775 -1147 
L 775 -588 
Q 1028 -725 1275 -790 
Q 1522 -856 1778 -856 
Q 2344 -856 2625 -561 
Q 2906 -266 2906 331 
L 2906 616 
Q 2728 306 2450 153 
Q 2172 0 1784 0 
Q 1141 0 747 490 
Q 353 981 353 1791 
Q 353 2603 747 3093 
Q 1141 3584 1784 3584 
Q 2172 3584 2450 3431 
Q 2728 3278 2906 2969 
L 2906 3500 
L 3481 3500 
L 3481 434 
z
" transform="scale(0.015625)"/>
       <path id="DejaVuSans-73" d="M 2834 3397 
L 2834 2853 
Q 2591 2978 2328 3040 
Q 2066 3103 1784 3103 
Q 1356 3103 1142 2972 
Q 928 2841 928 2578 
Q 928 2378 1081 2264 
Q 1234 2150 1697 2047 
L 1894 2003 
Q 2506 1872 2764 1633 
Q 3022 1394 3022 966 
Q 3022 478 2636 193 
Q 2250 -91 1575 -91 
Q 1294 -91 989 -36 
Q 684 19 347 128 
L 347 722 
Q 666 556 975 473 
Q 1284 391 1588 391 
Q 1994 391 2212 530 
Q 2431 669 2431 922 
Q 2431 1156 2273 1281 
Q 2116 1406 1581 1522 
L 1381 1569 
Q 847 1681 609 1914 
Q 372 2147 372 2553 
Q 372 3047 722 3315 
Q 1072 3584 1716 3584 
Q 2034 3584 2315 3537 
Q 2597 3491 2834 3397 
z
" transform="scale(0.015625)"/>
       <path id="DejaVuSans-29" d="M 513 4856 
L 1013 4856 
Q 1481 4119 1714 3412 
Q 1947 2706 1947 2009 
Q 1947 1309 1714 600 
Q 1481 -109 1013 -844 
L 513 -844 
Q 928 -128 1133 580 
Q 1338 1288 1338 2009 
Q 1338 2731 1133 3434 
Q 928 4138 513 4856 
z
" transform="scale(0.015625)"/>
      </defs>
      <use xlink:href="#DejaVuSans-53"/>
      <use xlink:href="#DejaVuSans-69" x="63.476562"/>
      <use xlink:href="#DejaVuSans-7a" x="91.259766"/>
      <use xlink:href="#DejaVuSans-65" x="143.75"/>
      <use xlink:href="#DejaVuSans-20" x="205.273438"/>
      <use xlink:href="#DejaVuSans-28" x="237.060547"/>
      <use xlink:href="#DejaVuSans-23" x="276.074219"/>
      <use xlink:href="#DejaVuSans-65" x="359.863281"/>
      <use xlink:href="#DejaVuSans-64" x="421.386719"/>
      <use xlink:href="#DejaVuSans-67" x="484.863281"/>
      <use xlink:href="#DejaVuSans-65" x="548.339844"/>
      <use xlink:href="#DejaVuSans-73" x="609.863281"/>
      <use xlink:href="#DejaVuSans-29" x="661.962891"/>
     </g>
    </g>
    <g id="text_7">
     <!-- 1e6 -->
     <g transform="translate(546.321875 417.316562) scale(0.1 -0.1)">
      <defs>
       <path id="DejaVuSans-36" d="M 2113 2584 
Q 1688 2584 1439 2293 
Q 1191 2003 1191 1497 
Q 1191 994 1439 701 
Q 1688 409 2113 409 
Q 2538 409 2786 701 
Q 3034 994 3034 1497 
Q 3034 2003 2786 2293 
Q 2538 2584 2113 2584 
z
M 3366 4563 
L 3366 3988 
Q 3128 4100 2886 4159 
Q 2644 4219 2406 4219 
Q 1781 4219 1451 3797 
Q 1122 3375 1075 2522 
Q 1259 2794 1537 2939 
Q 1816 3084 2150 3084 
Q 2853 3084 3261 2657 
Q 3669 2231 3669 1497 
Q 3669 778 3244 343 
Q 2819 -91 2113 -91 
Q 1303 -91 875 529 
Q 447 1150 447 2328 
Q 447 3434 972 4092 
Q 1497 4750 2381 4750 
Q 2619 4750 2861 4703 
Q 3103 4656 3366 4563 
z
" transform="scale(0.015625)"/>
      </defs>
      <use xlink:href="#DejaVuSans-31"/>
      <use xlink:href="#DejaVuSans-65" x="63.623047"/>
      <use xlink:href="#DejaVuSans-36" x="125.146484"/>
     </g>
    </g>
   </g>
   <g id="matplotlib.axis_2">
    <g id="ytick_1">
     <g id="line2d_6">
      <defs>
       <path id="m7eb1c47a8f" d="M 0 0 
L -3.5 0 
" style="stroke: #000000; stroke-width: 0.8"/>
      </defs>
      <g>
       <use xlink:href="#m7eb1c47a8f" x="38.27" y="387.949311" style="stroke: #000000; stroke-width: 0.8"/>
      </g>
     </g>
     <g id="text_8">
      <!-- 0 -->
      <g transform="translate(24.9075 391.74853) scale(0.1 -0.1)">
       <defs>
        <path id="DejaVuSans-30" d="M 2034 4250 
Q 1547 4250 1301 3770 
Q 1056 3291 1056 2328 
Q 1056 1369 1301 889 
Q 1547 409 2034 409 
Q 2525 409 2770 889 
Q 3016 1369 3016 2328 
Q 3016 3291 2770 3770 
Q 2525 4250 2034 4250 
z
M 2034 4750 
Q 2819 4750 3233 4129 
Q 3647 3509 3647 2328 
Q 3647 1150 3233 529 
Q 2819 -91 2034 -91 
Q 1250 -91 836 529 
Q 422 1150 422 2328 
Q 422 3509 836 4129 
Q 1250 4750 2034 4750 
z
" transform="scale(0.015625)"/>
       </defs>
       <use xlink:href="#DejaVuSans-30"/>
      </g>
     </g>
    </g>
    <g id="ytick_2">
     <g id="line2d_7">
      <g>
       <use xlink:href="#m7eb1c47a8f" x="38.27" y="308.348692" style="stroke: #000000; stroke-width: 0.8"/>
      </g>
     </g>
     <g id="text_9">
      <!-- 2 -->
      <g transform="translate(24.9075 312.14791) scale(0.1 -0.1)">
       <use xlink:href="#DejaVuSans-32"/>
      </g>
     </g>
    </g>
    <g id="ytick_3">
     <g id="line2d_8">
      <g>
       <use xlink:href="#m7eb1c47a8f" x="38.27" y="228.748072" style="stroke: #000000; stroke-width: 0.8"/>
      </g>
     </g>
     <g id="text_10">
      <!-- 4 -->
      <g transform="translate(24.9075 232.547291) scale(0.1 -0.1)">
       <use xlink:href="#DejaVuSans-34"/>
      </g>
     </g>
    </g>
    <g id="ytick_4">
     <g id="line2d_9">
      <g>
       <use xlink:href="#m7eb1c47a8f" x="38.27" y="149.147453" style="stroke: #000000; stroke-width: 0.8"/>
      </g>
     </g>
     <g id="text_11">
      <!-- 6 -->
      <g transform="translate(24.9075 152.946672) scale(0.1 -0.1)">
       <use xlink:href="#DejaVuSans-36"/>
      </g>
     </g>
    </g>
    <g id="ytick_5">
     <g id="line2d_10">
      <g>
       <use xlink:href="#m7eb1c47a8f" x="38.27" y="69.546834" style="stroke: #000000; stroke-width: 0.8"/>
      </g>
     </g>
     <g id="text_12">
      <!-- 8 -->
      <g transform="translate(24.9075 73.346053) scale(0.1 -0.1)">
       <defs>
        <path id="DejaVuSans-38" d="M 2034 2216 
Q 1584 2216 1326 1975 
Q 1069 1734 1069 1313 
Q 1069 891 1326 650 
Q 1584 409 2034 409 
Q 2484 409 2743 651 
Q 3003 894 3003 1313 
Q 3003 1734 2745 1975 
Q 2488 2216 2034 2216 
z
M 1403 2484 
Q 997 2584 770 2862 
Q 544 3141 544 3541 
Q 544 4100 942 4425 
Q 1341 4750 2034 4750 
Q 2731 4750 3128 4425 
Q 3525 4100 3525 3541 
Q 3525 3141 3298 2862 
Q 3072 2584 2669 2484 
Q 3125 2378 3379 2068 
Q 3634 1759 3634 1313 
Q 3634 634 3220 271 
Q 2806 -91 2034 -91 
Q 1263 -91 848 271 
Q 434 634 434 1313 
Q 434 1759 690 2068 
Q 947 2378 1403 2484 
z
M 1172 3481 
Q 1172 3119 1398 2916 
Q 1625 2713 2034 2713 
Q 2441 2713 2670 2916 
Q 2900 3119 2900 3481 
Q 2900 3844 2670 4047 
Q 2441 4250 2034 4250 
Q 1625 4250 1398 4047 
Q 1172 3844 1172 3481 
z
" transform="scale(0.015625)"/>
       </defs>
       <use xlink:href="#DejaVuSans-38"/>
      </g>
     </g>
    </g>
    <g id="text_13">
     <!-- Seconds spent -->
     <g transform="translate(18.827813 245.040469) rotate(-90) scale(0.1 -0.1)">
      <defs>
       <path id="DejaVuSans-63" d="M 3122 3366 
L 3122 2828 
Q 2878 2963 2633 3030 
Q 2388 3097 2138 3097 
Q 1578 3097 1268 2742 
Q 959 2388 959 1747 
Q 959 1106 1268 751 
Q 1578 397 2138 397 
Q 2388 397 2633 464 
Q 2878 531 3122 666 
L 3122 134 
Q 2881 22 2623 -34 
Q 2366 -91 2075 -91 
Q 1284 -91 818 406 
Q 353 903 353 1747 
Q 353 2603 823 3093 
Q 1294 3584 2113 3584 
Q 2378 3584 2631 3529 
Q 2884 3475 3122 3366 
z
" transform="scale(0.015625)"/>
       <path id="DejaVuSans-6f" d="M 1959 3097 
Q 1497 3097 1228 2736 
Q 959 2375 959 1747 
Q 959 1119 1226 758 
Q 1494 397 1959 397 
Q 2419 397 2687 759 
Q 2956 1122 2956 1747 
Q 2956 2369 2687 2733 
Q 2419 3097 1959 3097 
z
M 1959 3584 
Q 2709 3584 3137 3096 
Q 3566 2609 3566 1747 
Q 3566 888 3137 398 
Q 2709 -91 1959 -91 
Q 1206 -91 779 398 
Q 353 888 353 1747 
Q 353 2609 779 3096 
Q 1206 3584 1959 3584 
z
" transform="scale(0.015625)"/>
       <path id="DejaVuSans-6e" d="M 3513 2113 
L 3513 0 
L 2938 0 
L 2938 2094 
Q 2938 2591 2744 2837 
Q 2550 3084 2163 3084 
Q 1697 3084 1428 2787 
Q 1159 2491 1159 1978 
L 1159 0 
L 581 0 
L 581 3500 
L 1159 3500 
L 1159 2956 
Q 1366 3272 1645 3428 
Q 1925 3584 2291 3584 
Q 2894 3584 3203 3211 
Q 3513 2838 3513 2113 
z
" transform="scale(0.015625)"/>
       <path id="DejaVuSans-70" d="M 1159 525 
L 1159 -1331 
L 581 -1331 
L 581 3500 
L 1159 3500 
L 1159 2969 
Q 1341 3281 1617 3432 
Q 1894 3584 2278 3584 
Q 2916 3584 3314 3078 
Q 3713 2572 3713 1747 
Q 3713 922 3314 415 
Q 2916 -91 2278 -91 
Q 1894 -91 1617 61 
Q 1341 213 1159 525 
z
M 3116 1747 
Q 3116 2381 2855 2742 
Q 2594 3103 2138 3103 
Q 1681 3103 1420 2742 
Q 1159 2381 1159 1747 
Q 1159 1113 1420 752 
Q 1681 391 2138 391 
Q 2594 391 2855 752 
Q 3116 1113 3116 1747 
z
" transform="scale(0.015625)"/>
       <path id="DejaVuSans-74" d="M 1172 4494 
L 1172 3500 
L 2356 3500 
L 2356 3053 
L 1172 3053 
L 1172 1153 
Q 1172 725 1289 603 
Q 1406 481 1766 481 
L 2356 481 
L 2356 0 
L 1766 0 
Q 1100 0 847 248 
Q 594 497 594 1153 
L 594 3053 
L 172 3053 
L 172 3500 
L 594 3500 
L 594 4494 
L 1172 4494 
z
" transform="scale(0.015625)"/>
      </defs>
      <use xlink:href="#DejaVuSans-53"/>
      <use xlink:href="#DejaVuSans-65" x="63.476562"/>
      <use xlink:href="#DejaVuSans-63" x="125"/>
      <use xlink:href="#DejaVuSans-6f" x="179.980469"/>
      <use xlink:href="#DejaVuSans-6e" x="241.162109"/>
      <use xlink:href="#DejaVuSans-64" x="304.541016"/>
      <use xlink:href="#DejaVuSans-73" x="368.017578"/>
      <use xlink:href="#DejaVuSans-20" x="420.117188"/>
      <use xlink:href="#DejaVuSans-73" x="451.904297"/>
      <use xlink:href="#DejaVuSans-70" x="504.003906"/>
      <use xlink:href="#DejaVuSans-65" x="567.480469"/>
      <use xlink:href="#DejaVuSans-6e" x="629.003906"/>
      <use xlink:href="#DejaVuSans-74" x="692.382812"/>
     </g>
    </g>
   </g>
   <g id="LineCollection_1">
    <path d="M 62.221364 328.104889 
L 62.221364 327.867735 
" clip-path="url(#p60b2fd3762)" style="fill: none; stroke: #000099; stroke-width: 1.5"/>
    <path d="M 88.83399 307.277614 
L 88.83399 306.182019 
" clip-path="url(#p60b2fd3762)" style="fill: none; stroke: #000099; stroke-width: 1.5"/>
    <path d="M 115.446616 286.677045 
L 115.446616 286.455783 
" clip-path="url(#p60b2fd3762)" style="fill: none; stroke: #000099; stroke-width: 1.5"/>
    <path d="M 142.059242 266.69085 
L 142.059242 263.083601 
" clip-path="url(#p60b2fd3762)" style="fill: none; stroke: #000099; stroke-width: 1.5"/>
    <path d="M 168.671869 246.811805 
L 168.671869 245.956743 
" clip-path="url(#p60b2fd3762)" style="fill: none; stroke: #000099; stroke-width: 1.5"/>
    <path d="M 195.284495 224.403395 
L 195.284495 223.266531 
" clip-path="url(#p60b2fd3762)" style="fill: none; stroke: #000099; stroke-width: 1.5"/>
    <path d="M 221.897121 206.434518 
L 221.897121 205.486873 
" clip-path="url(#p60b2fd3762)" style="fill: none; stroke: #000099; stroke-width: 1.5"/>
    <path d="M 328.347626 130.46604 
L 328.347626 129.307031 
" clip-path="url(#p60b2fd3762)" style="fill: none; stroke: #000099; stroke-width: 1.5"/>
   </g>
   <g id="line2d_11">
    <defs>
     <path id="ma91f551ce1" d="M 3 0 
L -3 -0 
" style="stroke: #000099"/>
    </defs>
    <g clip-path="url(#p60b2fd3762)">
     <use xlink:href="#ma91f551ce1" x="62.221364" y="328.104889" style="fill: #000099; stroke: #000099"/>
     <use xlink:href="#ma91f551ce1" x="88.83399" y="307.277614" style="fill: #000099; stroke: #000099"/>
     <use xlink:href="#ma91f551ce1" x="115.446616" y="286.677045" style="fill: #000099; stroke: #000099"/>
     <use xlink:href="#ma91f551ce1" x="142.059242" y="266.69085" style="fill: #000099; stroke: #000099"/>
     <use xlink:href="#ma91f551ce1" x="168.671869" y="246.811805" style="fill: #000099; stroke: #000099"/>
     <use xlink:href="#ma91f551ce1" x="195.284495" y="224.403395" style="fill: #000099; stroke: #000099"/>
     <use xlink:href="#ma91f551ce1" x="221.897121" y="206.434518" style="fill: #000099; stroke: #000099"/>
     <use xlink:href="#ma91f551ce1" x="328.347626" y="130.46604" style="fill: #000099; stroke: #000099"/>
    </g>
   </g>
   <g id="line2d_12">
    <g clip-path="url(#p60b2fd3762)">
     <use xlink:href="#ma91f551ce1" x="62.221364" y="327.867735" style="fill: #000099; stroke: #000099"/>
     <use xlink:href="#ma91f551ce1" x="88.83399" y="306.182019" style="fill: #000099; stroke: #000099"/>
     <use xlink:href="#ma91f551ce1" x="115.446616" y="286.455783" style="fill: #000099; stroke: #000099"/>
     <use xlink:href="#ma91f551ce1" x="142.059242" y="263.083601" style="fill: #000099; stroke: #000099"/>
     <use xlink:href="#ma91f551ce1" x="168.671869" y="245.956743" style="fill: #000099; stroke: #000099"/>
     <use xlink:href="#ma91f551ce1" x="195.284495" y="223.266531" style="fill: #000099; stroke: #000099"/>
     <use xlink:href="#ma91f551ce1" x="221.897121" y="205.486873" style="fill: #000099; stroke: #000099"/>
     <use xlink:href="#ma91f551ce1" x="328.347626" y="129.307031" style="fill: #000099; stroke: #000099"/>
    </g>
   </g>
   <g id="LineCollection_2">
    <path d="M 62.221364 350.448755 
L 62.221364 348.041787 
" clip-path="url(#p60b2fd3762)" style="fill: none; stroke: #006666; stroke-width: 1.5"/>
    <path d="M 88.83399 331.62361 
L 88.83399 330.044533 
" clip-path="url(#p60b2fd3762)" style="fill: none; stroke: #006666; stroke-width: 1.5"/>
    <path d="M 115.446616 315.751402 
L 115.446616 312.024278 
" clip-path="url(#p60b2fd3762)" style="fill: none; stroke: #006666; stroke-width: 1.5"/>
    <path d="M 142.059242 296.164169 
L 142.059242 294.756651 
" clip-path="url(#p60b2fd3762)" style="fill: none; stroke: #006666; stroke-width: 1.5"/>
    <path d="M 168.671869 280.151132 
L 168.671869 279.260926 
" clip-path="url(#p60b2fd3762)" style="fill: none; stroke: #006666; stroke-width: 1.5"/>
    <path d="M 195.284495 263.943239 
L 195.284495 263.016871 
" clip-path="url(#p60b2fd3762)" style="fill: none; stroke: #006666; stroke-width: 1.5"/>
    <path d="M 221.897121 247.675038 
L 221.897121 245.014308 
" clip-path="url(#p60b2fd3762)" style="fill: none; stroke: #006666; stroke-width: 1.5"/>
    <path d="M 328.347626 185.475958 
L 328.347626 182.770691 
" clip-path="url(#p60b2fd3762)" style="fill: none; stroke: #006666; stroke-width: 1.5"/>
    <path d="M 434.798131 114.766485 
L 434.798131 111.965897 
" clip-path="url(#p60b2fd3762)" style="fill: none; stroke: #006666; stroke-width: 1.5"/>
    <path d="M 541.248636 44.269355 
L 541.248636 43.387273 
" clip-path="url(#p60b2fd3762)" style="fill: none; stroke: #006666; stroke-width: 1.5"/>
   </g>
   <g id="line2d_13">
    <defs>
     <path id="m647895b053" d="M 3 0 
L -3 -0 
" style="stroke: #006666"/>
    </defs>
    <g clip-path="url(#p60b2fd3762)">
     <use xlink:href="#m647895b053" x="62.221364" y="350.448755" style="fill: #006666; stroke: #006666"/>
     <use xlink:href="#m647895b053" x="88.83399" y="331.62361" style="fill: #006666; stroke: #006666"/>
     <use xlink:href="#m647895b053" x="115.446616" y="315.751402" style="fill: #006666; stroke: #006666"/>
     <use xlink:href="#m647895b053" x="142.059242" y="296.164169" style="fill: #006666; stroke: #006666"/>
     <use xlink:href="#m647895b053" x="168.671869" y="280.151132" style="fill: #006666; stroke: #006666"/>
     <use xlink:href="#m647895b053" x="195.284495" y="263.943239" style="fill: #006666; stroke: #006666"/>
     <use xlink:href="#m647895b053" x="221.897121" y="247.675038" style="fill: #006666; stroke: #006666"/>
     <use xlink:href="#m647895b053" x="328.347626" y="185.475958" style="fill: #006666; stroke: #006666"/>
     <use xlink:href="#m647895b053" x="434.798131" y="114.766485" style="fill: #006666; stroke: #006666"/>
     <use xlink:href="#m647895b053" x="541.248636" y="44.269355" style="fill: #006666; stroke: #006666"/>
    </g>
   </g>
   <g id="line2d_14">
    <g clip-path="url(#p60b2fd3762)">
     <use xlink:href="#m647895b053" x="62.221364" y="348.041787" style="fill: #006666; stroke: #006666"/>
     <use xlink:href="#m647895b053" x="88.83399" y="330.044533" style="fill: #006666; stroke: #006666"/>
     <use xlink:href="#m647895b053" x="115.446616" y="312.024278" style="fill: #006666; stroke: #006666"/>
     <use xlink:href="#m647895b053" x="142.059242" y="294.756651" style="fill: #006666; stroke: #006666"/>
     <use xlink:href="#m647895b053" x="168.671869" y="279.260926" style="fill: #006666; stroke: #006666"/>
     <use xlink:href="#m647895b053" x="195.284495" y="263.016871" style="fill: #006666; stroke: #006666"/>
     <use xlink:href="#m647895b053" x="221.897121" y="245.014308" style="fill: #006666; stroke: #006666"/>
     <use xlink:href="#m647895b053" x="328.347626" y="182.770691" style="fill: #006666; stroke: #006666"/>
     <use xlink:href="#m647895b053" x="434.798131" y="111.965897" style="fill: #006666; stroke: #006666"/>
     <use xlink:href="#m647895b053" x="541.248636" y="43.387273" style="fill: #006666; stroke: #006666"/>
    </g>
   </g>
   <g id="LineCollection_3">
    <path d="M 62.221364 359.798353 
L 62.221364 355.261078 
" clip-path="url(#p60b2fd3762)" style="fill: none; stroke: #009933; stroke-width: 1.5"/>
    <path d="M 88.83399 346.330684 
L 88.83399 342.505596 
" clip-path="url(#p60b2fd3762)" style="fill: none; stroke: #009933; stroke-width: 1.5"/>
    <path d="M 115.446616 329.620166 
L 115.446616 322.58777 
" clip-path="url(#p60b2fd3762)" style="fill: none; stroke: #009933; stroke-width: 1.5"/>
    <path d="M 142.059242 314.144492 
L 142.059242 311.176703 
" clip-path="url(#p60b2fd3762)" style="fill: none; stroke: #009933; stroke-width: 1.5"/>
    <path d="M 168.671869 295.938876 
L 168.671869 293.776684 
" clip-path="url(#p60b2fd3762)" style="fill: none; stroke: #009933; stroke-width: 1.5"/>
    <path d="M 195.284495 280.356418 
L 195.284495 279.699434 
" clip-path="url(#p60b2fd3762)" style="fill: none; stroke: #009933; stroke-width: 1.5"/>
    <path d="M 221.897121 268.938664 
L 221.897121 267.004647 
" clip-path="url(#p60b2fd3762)" style="fill: none; stroke: #009933; stroke-width: 1.5"/>
    <path d="M 328.347626 215.150973 
L 328.347626 210.087021 
" clip-path="url(#p60b2fd3762)" style="fill: none; stroke: #009933; stroke-width: 1.5"/>
    <path d="M 434.798131 121.609858 
L 434.798131 116.286089 
" clip-path="url(#p60b2fd3762)" style="fill: none; stroke: #009933; stroke-width: 1.5"/>
    <path d="M 541.248636 60.249323 
L 541.248636 52.553973 
" clip-path="url(#p60b2fd3762)" style="fill: none; stroke: #009933; stroke-width: 1.5"/>
   </g>
   <g id="line2d_15">
    <defs>
     <path id="m567d63a80a" d="M 3 0 
L -3 -0 
" style="stroke: #009933"/>
    </defs>
    <g clip-path="url(#p60b2fd3762)">
     <use xlink:href="#m567d63a80a" x="62.221364" y="359.798353" style="fill: #009933; stroke: #009933"/>
     <use xlink:href="#m567d63a80a" x="88.83399" y="346.330684" style="fill: #009933; stroke: #009933"/>
     <use xlink:href="#m567d63a80a" x="115.446616" y="329.620166" style="fill: #009933; stroke: #009933"/>
     <use xlink:href="#m567d63a80a" x="142.059242" y="314.144492" style="fill: #009933; stroke: #009933"/>
     <use xlink:href="#m567d63a80a" x="168.671869" y="295.938876" style="fill: #009933; stroke: #009933"/>
     <use xlink:href="#m567d63a80a" x="195.284495" y="280.356418" style="fill: #009933; stroke: #009933"/>
     <use xlink:href="#m567d63a80a" x="221.897121" y="268.938664" style="fill: #009933; stroke: #009933"/>
     <use xlink:href="#m567d63a80a" x="328.347626" y="215.150973" style="fill: #009933; stroke: #009933"/>
     <use xlink:href="#m567d63a80a" x="434.798131" y="121.609858" style="fill: #009933; stroke: #009933"/>
     <use xlink:href="#m567d63a80a" x="541.248636" y="60.249323" style="fill: #009933; stroke: #009933"/>
    </g>
   </g>
   <g id="line2d_16">
    <g clip-path="url(#p60b2fd3762)">
     <use xlink:href="#m567d63a80a" x="62.221364" y="355.261078" style="fill: #009933; stroke: #009933"/>
     <use xlink:href="#m567d63a80a" x="88.83399" y="342.505596" style="fill: #009933; stroke: #009933"/>
     <use xlink:href="#m567d63a80a" x="115.446616" y="322.58777" style="fill: #009933; stroke: #009933"/>
     <use xlink:href="#m567d63a80a" x="142.059242" y="311.176703" style="fill: #009933; stroke: #009933"/>
     <use xlink:href="#m567d63a80a" x="168.671869" y="293.776684" style="fill: #009933; stroke: #009933"/>
     <use xlink:href="#m567d63a80a" x="195.284495" y="279.699434" style="fill: #009933; stroke: #009933"/>
     <use xlink:href="#m567d63a80a" x="221.897121" y="267.004647" style="fill: #009933; stroke: #009933"/>
     <use xlink:href="#m567d63a80a" x="328.347626" y="210.087021" style="fill: #009933; stroke: #009933"/>
     <use xlink:href="#m567d63a80a" x="434.798131" y="116.286089" style="fill: #009933; stroke: #009933"/>
     <use xlink:href="#m567d63a80a" x="541.248636" y="52.553973" style="fill: #009933; stroke: #009933"/>
    </g>
   </g>
   <g id="LineCollection_4">
    <path d="M 62.221364 361.024163 
L 62.221364 359.865974 
" clip-path="url(#p60b2fd3762)" style="fill: none; stroke: #0000cc; stroke-width: 1.5"/>
    <path d="M 88.83399 349.929309 
L 88.83399 348.500995 
" clip-path="url(#p60b2fd3762)" style="fill: none; stroke: #0000cc; stroke-width: 1.5"/>
    <path d="M 115.446616 338.112756 
L 115.446616 336.541281 
" clip-path="url(#p60b2fd3762)" style="fill: none; stroke: #0000cc; stroke-width: 1.5"/>
    <path d="M 142.059242 328.452584 
L 142.059242 326.94873 
" clip-path="url(#p60b2fd3762)" style="fill: none; stroke: #0000cc; stroke-width: 1.5"/>
    <path d="M 168.671869 319.671601 
L 168.671869 315.782195 
" clip-path="url(#p60b2fd3762)" style="fill: none; stroke: #0000cc; stroke-width: 1.5"/>
    <path d="M 195.284495 309.284875 
L 195.284495 307.484945 
" clip-path="url(#p60b2fd3762)" style="fill: none; stroke: #0000cc; stroke-width: 1.5"/>
    <path d="M 221.897121 299.915882 
L 221.897121 296.943595 
" clip-path="url(#p60b2fd3762)" style="fill: none; stroke: #0000cc; stroke-width: 1.5"/>
    <path d="M 328.347626 260.301081 
L 328.347626 258.052762 
" clip-path="url(#p60b2fd3762)" style="fill: none; stroke: #0000cc; stroke-width: 1.5"/>
    <path d="M 434.798131 212.289848 
L 434.798131 209.146898 
" clip-path="url(#p60b2fd3762)" style="fill: none; stroke: #0000cc; stroke-width: 1.5"/>
    <path d="M 541.248636 153.545149 
L 541.248636 151.227975 
" clip-path="url(#p60b2fd3762)" style="fill: none; stroke: #0000cc; stroke-width: 1.5"/>
   </g>
   <g id="line2d_17">
    <defs>
     <path id="m71e13e22db" d="M 3 0 
L -3 -0 
" style="stroke: #0000cc"/>
    </defs>
    <g clip-path="url(#p60b2fd3762)">
     <use xlink:href="#m71e13e22db" x="62.221364" y="361.024163" style="fill: #0000cc; stroke: #0000cc"/>
     <use xlink:href="#m71e13e22db" x="88.83399" y="349.929309" style="fill: #0000cc; stroke: #0000cc"/>
     <use xlink:href="#m71e13e22db" x="115.446616" y="338.112756" style="fill: #0000cc; stroke: #0000cc"/>
     <use xlink:href="#m71e13e22db" x="142.059242" y="328.452584" style="fill: #0000cc; stroke: #0000cc"/>
     <use xlink:href="#m71e13e22db" x="168.671869" y="319.671601" style="fill: #0000cc; stroke: #0000cc"/>
     <use xlink:href="#m71e13e22db" x="195.284495" y="309.284875" style="fill: #0000cc; stroke: #0000cc"/>
     <use xlink:href="#m71e13e22db" x="221.897121" y="299.915882" style="fill: #0000cc; stroke: #0000cc"/>
     <use xlink:href="#m71e13e22db" x="328.347626" y="260.301081" style="fill: #0000cc; stroke: #0000cc"/>
     <use xlink:href="#m71e13e22db" x="434.798131" y="212.289848" style="fill: #0000cc; stroke: #0000cc"/>
     <use xlink:href="#m71e13e22db" x="541.248636" y="153.545149" style="fill: #0000cc; stroke: #0000cc"/>
    </g>
   </g>
   <g id="line2d_18">
    <g clip-path="url(#p60b2fd3762)">
     <use xlink:href="#m71e13e22db" x="62.221364" y="359.865974" style="fill: #0000cc; stroke: #0000cc"/>
     <use xlink:href="#m71e13e22db" x="88.83399" y="348.500995" style="fill: #0000cc; stroke: #0000cc"/>
     <use xlink:href="#m71e13e22db" x="115.446616" y="336.541281" style="fill: #0000cc; stroke: #0000cc"/>
     <use xlink:href="#m71e13e22db" x="142.059242" y="326.94873" style="fill: #0000cc; stroke: #0000cc"/>
     <use xlink:href="#m71e13e22db" x="168.671869" y="315.782195" style="fill: #0000cc; stroke: #0000cc"/>
     <use xlink:href="#m71e13e22db" x="195.284495" y="307.484945" style="fill: #0000cc; stroke: #0000cc"/>
     <use xlink:href="#m71e13e22db" x="221.897121" y="296.943595" style="fill: #0000cc; stroke: #0000cc"/>
     <use xlink:href="#m71e13e22db" x="328.347626" y="258.052762" style="fill: #0000cc; stroke: #0000cc"/>
     <use xlink:href="#m71e13e22db" x="434.798131" y="209.146898" style="fill: #0000cc; stroke: #0000cc"/>
     <use xlink:href="#m71e13e22db" x="541.248636" y="151.227975" style="fill: #0000cc; stroke: #0000cc"/>
    </g>
   </g>
   <g id="LineCollection_5">
    <path d="M 62.221364 369.87997 
L 62.221364 367.054148 
" clip-path="url(#p60b2fd3762)" style="fill: none; stroke: #666600; stroke-width: 1.5"/>
    <path d="M 88.83399 362.357712 
L 88.83399 358.019478 
" clip-path="url(#p60b2fd3762)" style="fill: none; stroke: #666600; stroke-width: 1.5"/>
    <path d="M 115.446616 353.08424 
L 115.446616 347.512196 
" clip-path="url(#p60b2fd3762)" style="fill: none; stroke: #666600; stroke-width: 1.5"/>
    <path d="M 142.059242 345.840583 
L 142.059242 345.243579 
" clip-path="url(#p60b2fd3762)" style="fill: none; stroke: #666600; stroke-width: 1.5"/>
    <path d="M 168.671869 336.925314 
L 168.671869 328.527449 
" clip-path="url(#p60b2fd3762)" style="fill: none; stroke: #666600; stroke-width: 1.5"/>
    <path d="M 195.284495 328.010045 
L 195.284495 320.169384 
" clip-path="url(#p60b2fd3762)" style="fill: none; stroke: #666600; stroke-width: 1.5"/>
    <path d="M 221.897121 319.293777 
L 221.897121 310.577509 
" clip-path="url(#p60b2fd3762)" style="fill: none; stroke: #666600; stroke-width: 1.5"/>
    <path d="M 328.347626 281.284481 
L 328.347626 280.846678 
" clip-path="url(#p60b2fd3762)" style="fill: none; stroke: #666600; stroke-width: 1.5"/>
    <path d="M 434.798131 240.727966 
L 434.798131 218.758195 
" clip-path="url(#p60b2fd3762)" style="fill: none; stroke: #666600; stroke-width: 1.5"/>
    <path d="M 541.248636 193.883001 
L 541.248636 192.728792 
" clip-path="url(#p60b2fd3762)" style="fill: none; stroke: #666600; stroke-width: 1.5"/>
   </g>
   <g id="line2d_19">
    <defs>
     <path id="ma612d83d5a" d="M 3 0 
L -3 -0 
" style="stroke: #666600"/>
    </defs>
    <g clip-path="url(#p60b2fd3762)">
     <use xlink:href="#ma612d83d5a" x="62.221364" y="369.87997" style="fill: #666600; stroke: #666600"/>
     <use xlink:href="#ma612d83d5a" x="88.83399" y="362.357712" style="fill: #666600; stroke: #666600"/>
     <use xlink:href="#ma612d83d5a" x="115.446616" y="353.08424" style="fill: #666600; stroke: #666600"/>
     <use xlink:href="#ma612d83d5a" x="142.059242" y="345.840583" style="fill: #666600; stroke: #666600"/>
     <use xlink:href="#ma612d83d5a" x="168.671869" y="336.925314" style="fill: #666600; stroke: #666600"/>
     <use xlink:href="#ma612d83d5a" x="195.284495" y="328.010045" style="fill: #666600; stroke: #666600"/>
     <use xlink:href="#ma612d83d5a" x="221.897121" y="319.293777" style="fill: #666600; stroke: #666600"/>
     <use xlink:href="#ma612d83d5a" x="328.347626" y="281.284481" style="fill: #666600; stroke: #666600"/>
     <use xlink:href="#ma612d83d5a" x="434.798131" y="240.727966" style="fill: #666600; stroke: #666600"/>
     <use xlink:href="#ma612d83d5a" x="541.248636" y="193.883001" style="fill: #666600; stroke: #666600"/>
    </g>
   </g>
   <g id="line2d_20">
    <g clip-path="url(#p60b2fd3762)">
     <use xlink:href="#ma612d83d5a" x="62.221364" y="367.054148" style="fill: #666600; stroke: #666600"/>
     <use xlink:href="#ma612d83d5a" x="88.83399" y="358.019478" style="fill: #666600; stroke: #666600"/>
     <use xlink:href="#ma612d83d5a" x="115.446616" y="347.512196" style="fill: #666600; stroke: #666600"/>
     <use xlink:href="#ma612d83d5a" x="142.059242" y="345.243579" style="fill: #666600; stroke: #666600"/>
     <use xlink:href="#ma612d83d5a" x="168.671869" y="328.527449" style="fill: #666600; stroke: #666600"/>
     <use xlink:href="#ma612d83d5a" x="195.284495" y="320.169384" style="fill: #666600; stroke: #666600"/>
     <use xlink:href="#ma612d83d5a" x="221.897121" y="310.577509" style="fill: #666600; stroke: #666600"/>
     <use xlink:href="#ma612d83d5a" x="328.347626" y="280.846678" style="fill: #666600; stroke: #666600"/>
     <use xlink:href="#ma612d83d5a" x="434.798131" y="218.758195" style="fill: #666600; stroke: #666600"/>
     <use xlink:href="#ma612d83d5a" x="541.248636" y="192.728792" style="fill: #666600; stroke: #666600"/>
    </g>
   </g>
   <g id="LineCollection_6">
    <path d="M 62.221364 359.601421 
L 62.221364 359.464428 
" clip-path="url(#p60b2fd3762)" style="fill: none; stroke: #990000; stroke-width: 1.5"/>
    <path d="M 88.83399 348.22092 
L 88.83399 348.056665 
" clip-path="url(#p60b2fd3762)" style="fill: none; stroke: #990000; stroke-width: 1.5"/>
    <path d="M 115.446616 338.479516 
L 115.446616 338.345787 
" clip-path="url(#p60b2fd3762)" style="fill: none; stroke: #990000; stroke-width: 1.5"/>
    <path d="M 142.059242 329.764442 
L 142.059242 329.545939 
" clip-path="url(#p60b2fd3762)" style="fill: none; stroke: #990000; stroke-width: 1.5"/>
    <path d="M 168.671869 320.849173 
L 168.671869 320.411369 
" clip-path="url(#p60b2fd3762)" style="fill: none; stroke: #990000; stroke-width: 1.5"/>
    <path d="M 195.284495 311.237796 
L 195.284495 310.520595 
" clip-path="url(#p60b2fd3762)" style="fill: none; stroke: #990000; stroke-width: 1.5"/>
    <path d="M 221.897121 303.071967 
L 221.897121 302.291483 
" clip-path="url(#p60b2fd3762)" style="fill: none; stroke: #990000; stroke-width: 1.5"/>
    <path d="M 328.347626 265.45948 
L 328.347626 265.012125 
" clip-path="url(#p60b2fd3762)" style="fill: none; stroke: #990000; stroke-width: 1.5"/>
    <path d="M 434.798131 227.469289 
L 434.798131 226.440849 
" clip-path="url(#p60b2fd3762)" style="fill: none; stroke: #990000; stroke-width: 1.5"/>
    <path d="M 541.248636 188.061808 
L 541.248636 186.248506 
" clip-path="url(#p60b2fd3762)" style="fill: none; stroke: #990000; stroke-width: 1.5"/>
   </g>
   <g id="line2d_21">
    <defs>
     <path id="md9b07cde7a" d="M 3 0 
L -3 -0 
" style="stroke: #990000"/>
    </defs>
    <g clip-path="url(#p60b2fd3762)">
     <use xlink:href="#md9b07cde7a" x="62.221364" y="359.601421" style="fill: #990000; stroke: #990000"/>
     <use xlink:href="#md9b07cde7a" x="88.83399" y="348.22092" style="fill: #990000; stroke: #990000"/>
     <use xlink:href="#md9b07cde7a" x="115.446616" y="338.479516" style="fill: #990000; stroke: #990000"/>
     <use xlink:href="#md9b07cde7a" x="142.059242" y="329.764442" style="fill: #990000; stroke: #990000"/>
     <use xlink:href="#md9b07cde7a" x="168.671869" y="320.849173" style="fill: #990000; stroke: #990000"/>
     <use xlink:href="#md9b07cde7a" x="195.284495" y="311.237796" style="fill: #990000; stroke: #990000"/>
     <use xlink:href="#md9b07cde7a" x="221.897121" y="303.071967" style="fill: #990000; stroke: #990000"/>
     <use xlink:href="#md9b07cde7a" x="328.347626" y="265.45948" style="fill: #990000; stroke: #990000"/>
     <use xlink:href="#md9b07cde7a" x="434.798131" y="227.469289" style="fill: #990000; stroke: #990000"/>
     <use xlink:href="#md9b07cde7a" x="541.248636" y="188.061808" style="fill: #990000; stroke: #990000"/>
    </g>
   </g>
   <g id="line2d_22">
    <g clip-path="url(#p60b2fd3762)">
     <use xlink:href="#md9b07cde7a" x="62.221364" y="359.464428" style="fill: #990000; stroke: #990000"/>
     <use xlink:href="#md9b07cde7a" x="88.83399" y="348.056665" style="fill: #990000; stroke: #990000"/>
     <use xlink:href="#md9b07cde7a" x="115.446616" y="338.345787" style="fill: #990000; stroke: #990000"/>
     <use xlink:href="#md9b07cde7a" x="142.059242" y="329.545939" style="fill: #990000; stroke: #990000"/>
     <use xlink:href="#md9b07cde7a" x="168.671869" y="320.411369" style="fill: #990000; stroke: #990000"/>
     <use xlink:href="#md9b07cde7a" x="195.284495" y="310.520595" style="fill: #990000; stroke: #990000"/>
     <use xlink:href="#md9b07cde7a" x="221.897121" y="302.291483" style="fill: #990000; stroke: #990000"/>
     <use xlink:href="#md9b07cde7a" x="328.347626" y="265.012125" style="fill: #990000; stroke: #990000"/>
     <use xlink:href="#md9b07cde7a" x="434.798131" y="226.440849" style="fill: #990000; stroke: #990000"/>
     <use xlink:href="#md9b07cde7a" x="541.248636" y="186.248506" style="fill: #990000; stroke: #990000"/>
    </g>
   </g>
   <g id="LineCollection_7">
    <path d="M 62.221364 373.532727 
L 62.221364 373.00796 
" clip-path="url(#p60b2fd3762)" style="fill: none; stroke: #cc0033; stroke-width: 1.5"/>
    <path d="M 88.83399 367.143066 
L 88.83399 366.623983 
" clip-path="url(#p60b2fd3762)" style="fill: none; stroke: #cc0033; stroke-width: 1.5"/>
    <path d="M 115.446616 360.702337 
L 115.446616 360.326559 
" clip-path="url(#p60b2fd3762)" style="fill: none; stroke: #cc0033; stroke-width: 1.5"/>
    <path d="M 142.059242 353.775951 
L 142.059242 352.982188 
" clip-path="url(#p60b2fd3762)" style="fill: none; stroke: #cc0033; stroke-width: 1.5"/>
    <path d="M 168.671869 346.464226 
L 168.671869 346.252126 
" clip-path="url(#p60b2fd3762)" style="fill: none; stroke: #cc0033; stroke-width: 1.5"/>
    <path d="M 195.284495 339.532525 
L 195.284495 338.731448 
" clip-path="url(#p60b2fd3762)" style="fill: none; stroke: #cc0033; stroke-width: 1.5"/>
    <path d="M 221.897121 332.468901 
L 221.897121 331.971095 
" clip-path="url(#p60b2fd3762)" style="fill: none; stroke: #cc0033; stroke-width: 1.5"/>
    <path d="M 328.347626 304.067822 
L 328.347626 303.350318 
" clip-path="url(#p60b2fd3762)" style="fill: none; stroke: #cc0033; stroke-width: 1.5"/>
    <path d="M 434.798131 272.874497 
L 434.798131 272.563708 
" clip-path="url(#p60b2fd3762)" style="fill: none; stroke: #cc0033; stroke-width: 1.5"/>
    <path d="M 541.248636 241.262997 
L 541.248636 239.596809 
" clip-path="url(#p60b2fd3762)" style="fill: none; stroke: #cc0033; stroke-width: 1.5"/>
   </g>
   <g id="line2d_23">
    <defs>
     <path id="md3fe7ae338" d="M 3 0 
L -3 -0 
" style="stroke: #cc0033"/>
    </defs>
    <g clip-path="url(#p60b2fd3762)">
     <use xlink:href="#md3fe7ae338" x="62.221364" y="373.532727" style="fill: #cc0033; stroke: #cc0033"/>
     <use xlink:href="#md3fe7ae338" x="88.83399" y="367.143066" style="fill: #cc0033; stroke: #cc0033"/>
     <use xlink:href="#md3fe7ae338" x="115.446616" y="360.702337" style="fill: #cc0033; stroke: #cc0033"/>
     <use xlink:href="#md3fe7ae338" x="142.059242" y="353.775951" style="fill: #cc0033; stroke: #cc0033"/>
     <use xlink:href="#md3fe7ae338" x="168.671869" y="346.464226" style="fill: #cc0033; stroke: #cc0033"/>
     <use xlink:href="#md3fe7ae338" x="195.284495" y="339.532525" style="fill: #cc0033; stroke: #cc0033"/>
     <use xlink:href="#md3fe7ae338" x="221.897121" y="332.468901" style="fill: #cc0033; stroke: #cc0033"/>
     <use xlink:href="#md3fe7ae338" x="328.347626" y="304.067822" style="fill: #cc0033; stroke: #cc0033"/>
     <use xlink:href="#md3fe7ae338" x="434.798131" y="272.874497" style="fill: #cc0033; stroke: #cc0033"/>
     <use xlink:href="#md3fe7ae338" x="541.248636" y="241.262997" style="fill: #cc0033; stroke: #cc0033"/>
    </g>
   </g>
   <g id="line2d_24">
    <g clip-path="url(#p60b2fd3762)">
     <use xlink:href="#md3fe7ae338" x="62.221364" y="373.00796" style="fill: #cc0033; stroke: #cc0033"/>
     <use xlink:href="#md3fe7ae338" x="88.83399" y="366.623983" style="fill: #cc0033; stroke: #cc0033"/>
     <use xlink:href="#md3fe7ae338" x="115.446616" y="360.326559" style="fill: #cc0033; stroke: #cc0033"/>
     <use xlink:href="#md3fe7ae338" x="142.059242" y="352.982188" style="fill: #cc0033; stroke: #cc0033"/>
     <use xlink:href="#md3fe7ae338" x="168.671869" y="346.252126" style="fill: #cc0033; stroke: #cc0033"/>
     <use xlink:href="#md3fe7ae338" x="195.284495" y="338.731448" style="fill: #cc0033; stroke: #cc0033"/>
     <use xlink:href="#md3fe7ae338" x="221.897121" y="331.971095" style="fill: #cc0033; stroke: #cc0033"/>
     <use xlink:href="#md3fe7ae338" x="328.347626" y="303.350318" style="fill: #cc0033; stroke: #cc0033"/>
     <use xlink:href="#md3fe7ae338" x="434.798131" y="272.563708" style="fill: #cc0033; stroke: #cc0033"/>
     <use xlink:href="#md3fe7ae338" x="541.248636" y="239.596809" style="fill: #cc0033; stroke: #cc0033"/>
    </g>
   </g>
   <g id="line2d_25">
    <path d="M 62.221364 327.998501 
L 88.83399 306.752625 
L 115.446616 286.563115 
L 142.059242 265.480769 
L 168.671869 246.523285 
L 195.284495 223.89344 
L 221.897121 206.069417 
L 328.347626 129.959752 
" clip-path="url(#p60b2fd3762)" style="fill: none; stroke: #000099; stroke-width: 1.5; stroke-linecap: square"/>
   </g>
   <g id="line2d_26">
    <path d="M 62.221364 348.947626 
L 88.83399 331.084855 
L 115.446616 314.25781 
L 142.059242 295.431491 
L 168.671869 279.608636 
L 195.284495 263.412362 
L 221.897121 246.671644 
L 328.347626 184.379937 
L 434.798131 113.751815 
L 541.248636 43.829152 
" clip-path="url(#p60b2fd3762)" style="fill: none; stroke: #006666; stroke-width: 1.5; stroke-linecap: square"/>
   </g>
   <g id="line2d_27">
    <path d="M 62.221364 358.138919 
L 88.83399 343.961053 
L 115.446616 326.182892 
L 142.059242 313.065387 
L 168.671869 294.754856 
L 195.284495 280.096641 
L 221.897121 267.99273 
L 328.347626 211.8571 
L 434.798131 118.09768 
L 541.248636 56.89539 
" clip-path="url(#p60b2fd3762)" style="fill: none; stroke: #009933; stroke-width: 1.5; stroke-linecap: square"/>
   </g>
   <g id="line2d_28">
    <path d="M 62.221364 360.296573 
L 88.83399 349.164387 
L 115.446616 337.268074 
L 142.059242 327.916474 
L 168.671869 317.995451 
L 195.284495 308.215281 
L 221.897121 298.454613 
L 328.347626 258.877583 
L 434.798131 211.235379 
L 541.248636 152.513883 
" clip-path="url(#p60b2fd3762)" style="fill: none; stroke: #0000cc; stroke-width: 1.5; stroke-linecap: square"/>
   </g>
   <g id="line2d_29">
    <path d="M 62.221364 368.924763 
L 88.83399 360.778966 
L 115.446616 349.528745 
L 142.059242 345.522181 
L 168.671869 333.953557 
L 195.284495 325.303624 
L 221.897121 316.295487 
L 328.347626 281.032413 
L 434.798131 232.728103 
L 541.248636 193.445198 
" clip-path="url(#p60b2fd3762)" style="fill: none; stroke: #666600; stroke-width: 1.5; stroke-linecap: square"/>
   </g>
   <g id="line2d_30">
    <path d="M 62.221364 359.554536 
L 88.83399 348.131091 
L 115.446616 338.420612 
L 142.059242 329.668523 
L 168.671869 320.594053 
L 195.284495 310.935712 
L 221.897121 302.797344 
L 328.347626 265.292319 
L 434.798131 226.980541 
L 541.248636 187.296846 
" clip-path="url(#p60b2fd3762)" style="fill: none; stroke: #990000; stroke-width: 1.5; stroke-linecap: square"/>
   </g>
   <g id="line2d_31">
    <path d="M 62.221364 373.351645 
L 88.83399 366.848335 
L 115.446616 360.454754 
L 142.059242 353.357152 
L 168.671869 346.333344 
L 195.284495 339.234481 
L 221.897121 332.270286 
L 328.347626 303.667592 
L 434.798131 272.706058 
L 541.248636 240.286229 
" clip-path="url(#p60b2fd3762)" style="fill: none; stroke: #cc0033; stroke-width: 1.5; stroke-linecap: square"/>
   </g>
   <g id="patch_3">
    <path d="M 38.27 390.04 
L 38.27 26.88 
" style="fill: none; stroke: #000000; stroke-width: 0.8; stroke-linejoin: miter; stroke-linecap: square"/>
   </g>
   <g id="patch_4">
    <path d="M 565.2 390.04 
L 565.2 26.88 
" style="fill: none; stroke: #000000; stroke-width: 0.8; stroke-linejoin: miter; stroke-linecap: square"/>
   </g>
   <g id="patch_5">
    <path d="M 38.27 390.04 
L 565.2 390.04 
" style="fill: none; stroke: #000000; stroke-width: 0.8; stroke-linejoin: miter; stroke-linecap: square"/>
   </g>
   <g id="patch_6">
    <path d="M 38.27 26.88 
L 565.2 26.88 
" style="fill: none; stroke: #000000; stroke-width: 0.8; stroke-linejoin: miter; stroke-linecap: square"/>
   </g>
   <g id="text_14">
    <!-- Bron-Kerbosch Ver3½-GP on a random graph of order 1M -->
    <g transform="translate(38.27 20.88) scale(0.12 -0.12)">
     <defs>
      <path id="DejaVuSans-42" d="M 1259 2228 
L 1259 519 
L 2272 519 
Q 2781 519 3026 730 
Q 3272 941 3272 1375 
Q 3272 1813 3026 2020 
Q 2781 2228 2272 2228 
L 1259 2228 
z
M 1259 4147 
L 1259 2741 
L 2194 2741 
Q 2656 2741 2882 2914 
Q 3109 3088 3109 3444 
Q 3109 3797 2882 3972 
Q 2656 4147 2194 4147 
L 1259 4147 
z
M 628 4666 
L 2241 4666 
Q 2963 4666 3353 4366 
Q 3744 4066 3744 3513 
Q 3744 3084 3544 2831 
Q 3344 2578 2956 2516 
Q 3422 2416 3680 2098 
Q 3938 1781 3938 1306 
Q 3938 681 3513 340 
Q 3088 0 2303 0 
L 628 0 
L 628 4666 
z
" transform="scale(0.015625)"/>
      <path id="DejaVuSans-72" d="M 2631 2963 
Q 2534 3019 2420 3045 
Q 2306 3072 2169 3072 
Q 1681 3072 1420 2755 
Q 1159 2438 1159 1844 
L 1159 0 
L 581 0 
L 581 3500 
L 1159 3500 
L 1159 2956 
Q 1341 3275 1631 3429 
Q 1922 3584 2338 3584 
Q 2397 3584 2469 3576 
Q 2541 3569 2628 3553 
L 2631 2963 
z
" transform="scale(0.015625)"/>
      <path id="DejaVuSans-2d" d="M 313 2009 
L 1997 2009 
L 1997 1497 
L 313 1497 
L 313 2009 
z
" transform="scale(0.015625)"/>
      <path id="DejaVuSans-4b" d="M 628 4666 
L 1259 4666 
L 1259 2694 
L 3353 4666 
L 4166 4666 
L 1850 2491 
L 4331 0 
L 3500 0 
L 1259 2247 
L 1259 0 
L 628 0 
L 628 4666 
z
" transform="scale(0.015625)"/>
      <path id="DejaVuSans-62" d="M 3116 1747 
Q 3116 2381 2855 2742 
Q 2594 3103 2138 3103 
Q 1681 3103 1420 2742 
Q 1159 2381 1159 1747 
Q 1159 1113 1420 752 
Q 1681 391 2138 391 
Q 2594 391 2855 752 
Q 3116 1113 3116 1747 
z
M 1159 2969 
Q 1341 3281 1617 3432 
Q 1894 3584 2278 3584 
Q 2916 3584 3314 3078 
Q 3713 2572 3713 1747 
Q 3713 922 3314 415 
Q 2916 -91 2278 -91 
Q 1894 -91 1617 61 
Q 1341 213 1159 525 
L 1159 0 
L 581 0 
L 581 4863 
L 1159 4863 
L 1159 2969 
z
" transform="scale(0.015625)"/>
      <path id="DejaVuSans-68" d="M 3513 2113 
L 3513 0 
L 2938 0 
L 2938 2094 
Q 2938 2591 2744 2837 
Q 2550 3084 2163 3084 
Q 1697 3084 1428 2787 
Q 1159 2491 1159 1978 
L 1159 0 
L 581 0 
L 581 4863 
L 1159 4863 
L 1159 2956 
Q 1366 3272 1645 3428 
Q 1925 3584 2291 3584 
Q 2894 3584 3203 3211 
Q 3513 2838 3513 2113 
z
" transform="scale(0.015625)"/>
      <path id="DejaVuSans-56" d="M 1831 0 
L 50 4666 
L 709 4666 
L 2188 738 
L 3669 4666 
L 4325 4666 
L 2547 0 
L 1831 0 
z
" transform="scale(0.015625)"/>
      <path id="DejaVuSans-bd" d="M 488 2431 
L 1125 2431 
L 1125 4341 
L 428 4213 
L 428 4575 
L 1147 4697 
L 1575 4697 
L 1575 2431 
L 2216 2431 
L 2216 2088 
L 488 2088 
L 488 2431 
z
M 4470 332 
L 5795 332 
L 5795 -24 
L 3926 -24 
L 3926 319 
Q 4032 416 4229 591 
Q 5304 1544 5304 1838 
Q 5304 2044 5141 2170 
Q 4979 2297 4713 2297 
Q 4551 2297 4360 2242 
Q 4170 2188 3945 2079 
L 3945 2463 
Q 4185 2551 4393 2594 
Q 4601 2638 4779 2638 
Q 5232 2638 5504 2432 
Q 5776 2226 5776 1888 
Q 5776 1454 4741 566 
Q 4566 416 4470 332 
z
M 4309 4750 
L 4809 4750 
L 1896 -91 
L 1396 -91 
L 4309 4750 
z
" transform="scale(0.015625)"/>
      <path id="DejaVuSans-47" d="M 3809 666 
L 3809 1919 
L 2778 1919 
L 2778 2438 
L 4434 2438 
L 4434 434 
Q 4069 175 3628 42 
Q 3188 -91 2688 -91 
Q 1594 -91 976 548 
Q 359 1188 359 2328 
Q 359 3472 976 4111 
Q 1594 4750 2688 4750 
Q 3144 4750 3555 4637 
Q 3966 4525 4313 4306 
L 4313 3634 
Q 3963 3931 3569 4081 
Q 3175 4231 2741 4231 
Q 1884 4231 1454 3753 
Q 1025 3275 1025 2328 
Q 1025 1384 1454 906 
Q 1884 428 2741 428 
Q 3075 428 3337 486 
Q 3600 544 3809 666 
z
" transform="scale(0.015625)"/>
      <path id="DejaVuSans-50" d="M 1259 4147 
L 1259 2394 
L 2053 2394 
Q 2494 2394 2734 2622 
Q 2975 2850 2975 3272 
Q 2975 3691 2734 3919 
Q 2494 4147 2053 4147 
L 1259 4147 
z
M 628 4666 
L 2053 4666 
Q 2838 4666 3239 4311 
Q 3641 3956 3641 3272 
Q 3641 2581 3239 2228 
Q 2838 1875 2053 1875 
L 1259 1875 
L 1259 0 
L 628 0 
L 628 4666 
z
" transform="scale(0.015625)"/>
      <path id="DejaVuSans-61" d="M 2194 1759 
Q 1497 1759 1228 1600 
Q 959 1441 959 1056 
Q 959 750 1161 570 
Q 1363 391 1709 391 
Q 2188 391 2477 730 
Q 2766 1069 2766 1631 
L 2766 1759 
L 2194 1759 
z
M 3341 1997 
L 3341 0 
L 2766 0 
L 2766 531 
Q 2569 213 2275 61 
Q 1981 -91 1556 -91 
Q 1019 -91 701 211 
Q 384 513 384 1019 
Q 384 1609 779 1909 
Q 1175 2209 1959 2209 
L 2766 2209 
L 2766 2266 
Q 2766 2663 2505 2880 
Q 2244 3097 1772 3097 
Q 1472 3097 1187 3025 
Q 903 2953 641 2809 
L 641 3341 
Q 956 3463 1253 3523 
Q 1550 3584 1831 3584 
Q 2591 3584 2966 3190 
Q 3341 2797 3341 1997 
z
" transform="scale(0.015625)"/>
      <path id="DejaVuSans-6d" d="M 3328 2828 
Q 3544 3216 3844 3400 
Q 4144 3584 4550 3584 
Q 5097 3584 5394 3201 
Q 5691 2819 5691 2113 
L 5691 0 
L 5113 0 
L 5113 2094 
Q 5113 2597 4934 2840 
Q 4756 3084 4391 3084 
Q 3944 3084 3684 2787 
Q 3425 2491 3425 1978 
L 3425 0 
L 2847 0 
L 2847 2094 
Q 2847 2600 2669 2842 
Q 2491 3084 2119 3084 
Q 1678 3084 1418 2786 
Q 1159 2488 1159 1978 
L 1159 0 
L 581 0 
L 581 3500 
L 1159 3500 
L 1159 2956 
Q 1356 3278 1631 3431 
Q 1906 3584 2284 3584 
Q 2666 3584 2933 3390 
Q 3200 3197 3328 2828 
z
" transform="scale(0.015625)"/>
      <path id="DejaVuSans-66" d="M 2375 4863 
L 2375 4384 
L 1825 4384 
Q 1516 4384 1395 4259 
Q 1275 4134 1275 3809 
L 1275 3500 
L 2222 3500 
L 2222 3053 
L 1275 3053 
L 1275 0 
L 697 0 
L 697 3053 
L 147 3053 
L 147 3500 
L 697 3500 
L 697 3744 
Q 697 4328 969 4595 
Q 1241 4863 1831 4863 
L 2375 4863 
z
" transform="scale(0.015625)"/>
      <path id="DejaVuSans-4d" d="M 628 4666 
L 1569 4666 
L 2759 1491 
L 3956 4666 
L 4897 4666 
L 4897 0 
L 4281 0 
L 4281 4097 
L 3078 897 
L 2444 897 
L 1241 4097 
L 1241 0 
L 628 0 
L 628 4666 
z
" transform="scale(0.015625)"/>
     </defs>
     <use xlink:href="#DejaVuSans-42"/>
     <use xlink:href="#DejaVuSans-72" x="68.603516"/>
     <use xlink:href="#DejaVuSans-6f" x="107.466797"/>
     <use xlink:href="#DejaVuSans-6e" x="168.648438"/>
     <use xlink:href="#DejaVuSans-2d" x="232.027344"/>
     <use xlink:href="#DejaVuSans-4b" x="268.111328"/>
     <use xlink:href="#DejaVuSans-65" x="328.6875"/>
     <use xlink:href="#DejaVuSans-72" x="390.210938"/>
     <use xlink:href="#DejaVuSans-62" x="431.324219"/>
     <use xlink:href="#DejaVuSans-6f" x="494.800781"/>
     <use xlink:href="#DejaVuSans-73" x="555.982422"/>
     <use xlink:href="#DejaVuSans-63" x="608.082031"/>
     <use xlink:href="#DejaVuSans-68" x="663.0625"/>
     <use xlink:href="#DejaVuSans-20" x="726.441406"/>
     <use xlink:href="#DejaVuSans-56" x="758.228516"/>
     <use xlink:href="#DejaVuSans-65" x="818.886719"/>
     <use xlink:href="#DejaVuSans-72" x="880.410156"/>
     <use xlink:href="#DejaVuSans-33" x="921.523438"/>
     <use xlink:href="#DejaVuSans-bd" x="985.146484"/>
     <use xlink:href="#DejaVuSans-2d" x="1082.070312"/>
     <use xlink:href="#DejaVuSans-47" x="1121.779297"/>
     <use xlink:href="#DejaVuSans-50" x="1199.269531"/>
     <use xlink:href="#DejaVuSans-20" x="1259.572266"/>
     <use xlink:href="#DejaVuSans-6f" x="1291.359375"/>
     <use xlink:href="#DejaVuSans-6e" x="1352.541016"/>
     <use xlink:href="#DejaVuSans-20" x="1415.919922"/>
     <use xlink:href="#DejaVuSans-61" x="1447.707031"/>
     <use xlink:href="#DejaVuSans-20" x="1508.986328"/>
     <use xlink:href="#DejaVuSans-72" x="1540.773438"/>
     <use xlink:href="#DejaVuSans-61" x="1581.886719"/>
     <use xlink:href="#DejaVuSans-6e" x="1643.166016"/>
     <use xlink:href="#DejaVuSans-64" x="1706.544922"/>
     <use xlink:href="#DejaVuSans-6f" x="1770.021484"/>
     <use xlink:href="#DejaVuSans-6d" x="1831.203125"/>
     <use xlink:href="#DejaVuSans-20" x="1928.615234"/>
     <use xlink:href="#DejaVuSans-67" x="1960.402344"/>
     <use xlink:href="#DejaVuSans-72" x="2023.878906"/>
     <use xlink:href="#DejaVuSans-61" x="2064.992188"/>
     <use xlink:href="#DejaVuSans-70" x="2126.271484"/>
     <use xlink:href="#DejaVuSans-68" x="2189.748047"/>
     <use xlink:href="#DejaVuSans-20" x="2253.126953"/>
     <use xlink:href="#DejaVuSans-6f" x="2284.914062"/>
     <use xlink:href="#DejaVuSans-66" x="2346.095703"/>
     <use xlink:href="#DejaVuSans-20" x="2381.300781"/>
     <use xlink:href="#DejaVuSans-6f" x="2413.087891"/>
     <use xlink:href="#DejaVuSans-72" x="2474.269531"/>
     <use xlink:href="#DejaVuSans-64" x="2513.632812"/>
     <use xlink:href="#DejaVuSans-65" x="2577.109375"/>
     <use xlink:href="#DejaVuSans-72" x="2638.632812"/>
     <use xlink:href="#DejaVuSans-20" x="2679.746094"/>
     <use xlink:href="#DejaVuSans-31" x="2711.533203"/>
     <use xlink:href="#DejaVuSans-4d" x="2775.15625"/>
    </g>
   </g>
   <g id="legend_1">
    <g id="patch_7">
     <path d="M 45.27 137.626875 
L 111.9325 137.626875 
Q 113.9325 137.626875 113.9325 135.626875 
L 113.9325 33.88 
Q 113.9325 31.88 111.9325 31.88 
L 45.27 31.88 
Q 43.27 31.88 43.27 33.88 
L 43.27 135.626875 
Q 43.27 137.626875 45.27 137.626875 
z
" style="fill: #ffffff; opacity: 0.8; stroke: #cccccc; stroke-linejoin: miter"/>
    </g>
    <g id="LineCollection_8">
     <path d="M 57.27 44.978437 
L 57.27 34.978437 
" style="fill: none; stroke: #000099; stroke-width: 1.5"/>
    </g>
    <g id="line2d_32">
     <g>
      <use xlink:href="#ma91f551ce1" x="57.27" y="44.978437" style="fill: #000099; stroke: #000099"/>
     </g>
    </g>
    <g id="line2d_33">
     <g>
      <use xlink:href="#ma91f551ce1" x="57.27" y="34.978437" style="fill: #000099; stroke: #000099"/>
     </g>
    </g>
    <g id="line2d_34">
     <path d="M 47.27 39.978437 
L 67.27 39.978437 
" style="fill: none; stroke: #000099; stroke-width: 1.5; stroke-linecap: square"/>
    </g>
    <g id="line2d_35"/>
    <g id="text_15">
     <!-- Python -->
     <g transform="translate(75.27 43.478437) scale(0.1 -0.1)">
      <defs>
       <path id="DejaVuSans-79" d="M 2059 -325 
Q 1816 -950 1584 -1140 
Q 1353 -1331 966 -1331 
L 506 -1331 
L 506 -850 
L 844 -850 
Q 1081 -850 1212 -737 
Q 1344 -625 1503 -206 
L 1606 56 
L 191 3500 
L 800 3500 
L 1894 763 
L 2988 3500 
L 3597 3500 
L 2059 -325 
z
" transform="scale(0.015625)"/>
      </defs>
      <use xlink:href="#DejaVuSans-50"/>
      <use xlink:href="#DejaVuSans-79" x="60.302734"/>
      <use xlink:href="#DejaVuSans-74" x="119.482422"/>
      <use xlink:href="#DejaVuSans-68" x="158.691406"/>
      <use xlink:href="#DejaVuSans-6f" x="222.070312"/>
      <use xlink:href="#DejaVuSans-6e" x="283.251953"/>
     </g>
    </g>
    <g id="LineCollection_9">
     <path d="M 57.27 59.656563 
L 57.27 49.656563 
" style="fill: none; stroke: #006666; stroke-width: 1.5"/>
    </g>
    <g id="line2d_36">
     <g>
      <use xlink:href="#m647895b053" x="57.27" y="59.656563" style="fill: #006666; stroke: #006666"/>
     </g>
    </g>
    <g id="line2d_37">
     <g>
      <use xlink:href="#m647895b053" x="57.27" y="49.656563" style="fill: #006666; stroke: #006666"/>
     </g>
    </g>
    <g id="line2d_38">
     <path d="M 47.27 54.656563 
L 67.27 54.656563 
" style="fill: none; stroke: #006666; stroke-width: 1.5; stroke-linecap: square"/>
    </g>
    <g id="line2d_39"/>
    <g id="text_16">
     <!-- Scala -->
     <g transform="translate(75.27 58.156563) scale(0.1 -0.1)">
      <defs>
       <path id="DejaVuSans-6c" d="M 603 4863 
L 1178 4863 
L 1178 0 
L 603 0 
L 603 4863 
z
" transform="scale(0.015625)"/>
      </defs>
      <use xlink:href="#DejaVuSans-53"/>
      <use xlink:href="#DejaVuSans-63" x="63.476562"/>
      <use xlink:href="#DejaVuSans-61" x="118.457031"/>
      <use xlink:href="#DejaVuSans-6c" x="179.736328"/>
      <use xlink:href="#DejaVuSans-61" x="207.519531"/>
     </g>
    </g>
    <g id="LineCollection_10">
     <path d="M 57.27 74.334687 
L 57.27 64.334687 
" style="fill: none; stroke: #009933; stroke-width: 1.5"/>
    </g>
    <g id="line2d_40">
     <g>
      <use xlink:href="#m567d63a80a" x="57.27" y="74.334687" style="fill: #009933; stroke: #009933"/>
     </g>
    </g>
    <g id="line2d_41">
     <g>
      <use xlink:href="#m567d63a80a" x="57.27" y="64.334687" style="fill: #009933; stroke: #009933"/>
     </g>
    </g>
    <g id="line2d_42">
     <path d="M 47.27 69.334687 
L 67.27 69.334687 
" style="fill: none; stroke: #009933; stroke-width: 1.5; stroke-linecap: square"/>
    </g>
    <g id="line2d_43"/>
    <g id="text_17">
     <!-- Java -->
     <g transform="translate(75.27 72.834687) scale(0.1 -0.1)">
      <defs>
       <path id="DejaVuSans-4a" d="M 628 4666 
L 1259 4666 
L 1259 325 
Q 1259 -519 939 -900 
Q 619 -1281 -91 -1281 
L -331 -1281 
L -331 -750 
L -134 -750 
Q 284 -750 456 -515 
Q 628 -281 628 325 
L 628 4666 
z
" transform="scale(0.015625)"/>
       <path id="DejaVuSans-76" d="M 191 3500 
L 800 3500 
L 1894 563 
L 2988 3500 
L 3597 3500 
L 2284 0 
L 1503 0 
L 191 3500 
z
" transform="scale(0.015625)"/>
      </defs>
      <use xlink:href="#DejaVuSans-4a"/>
      <use xlink:href="#DejaVuSans-61" x="29.492188"/>
      <use xlink:href="#DejaVuSans-76" x="90.771484"/>
      <use xlink:href="#DejaVuSans-61" x="149.951172"/>
     </g>
    </g>
    <g id="LineCollection_11">
     <path d="M 57.27 89.012812 
L 57.27 79.012812 
" style="fill: none; stroke: #0000cc; stroke-width: 1.5"/>
    </g>
    <g id="line2d_44">
     <g>
      <use xlink:href="#m71e13e22db" x="57.27" y="89.012812" style="fill: #0000cc; stroke: #0000cc"/>
     </g>
    </g>
    <g id="line2d_45">
     <g>
      <use xlink:href="#m71e13e22db" x="57.27" y="79.012812" style="fill: #0000cc; stroke: #0000cc"/>
     </g>
    </g>
    <g id="line2d_46">
     <path d="M 47.27 84.012812 
L 67.27 84.012812 
" style="fill: none; stroke: #0000cc; stroke-width: 1.5; stroke-linecap: square"/>
    </g>
    <g id="line2d_47"/>
    <g id="text_18">
     <!-- Go -->
     <g transform="translate(75.27 87.512812) scale(0.1 -0.1)">
      <use xlink:href="#DejaVuSans-47"/>
      <use xlink:href="#DejaVuSans-6f" x="77.490234"/>
     </g>
    </g>
    <g id="LineCollection_12">
     <path d="M 57.27 103.690938 
L 57.27 93.690938 
" style="fill: none; stroke: #666600; stroke-width: 1.5"/>
    </g>
    <g id="line2d_48">
     <g>
      <use xlink:href="#ma612d83d5a" x="57.27" y="103.690938" style="fill: #666600; stroke: #666600"/>
     </g>
    </g>
    <g id="line2d_49">
     <g>
      <use xlink:href="#ma612d83d5a" x="57.27" y="93.690938" style="fill: #666600; stroke: #666600"/>
     </g>
    </g>
    <g id="line2d_50">
     <path d="M 47.27 98.690938 
L 67.27 98.690938 
" style="fill: none; stroke: #666600; stroke-width: 1.5; stroke-linecap: square"/>
    </g>
    <g id="line2d_51"/>
    <g id="text_19">
     <!-- C# -->
     <g transform="translate(75.27 102.190938) scale(0.1 -0.1)">
      <defs>
       <path id="DejaVuSans-43" d="M 4122 4306 
L 4122 3641 
Q 3803 3938 3442 4084 
Q 3081 4231 2675 4231 
Q 1875 4231 1450 3742 
Q 1025 3253 1025 2328 
Q 1025 1406 1450 917 
Q 1875 428 2675 428 
Q 3081 428 3442 575 
Q 3803 722 4122 1019 
L 4122 359 
Q 3791 134 3420 21 
Q 3050 -91 2638 -91 
Q 1578 -91 968 557 
Q 359 1206 359 2328 
Q 359 3453 968 4101 
Q 1578 4750 2638 4750 
Q 3056 4750 3426 4639 
Q 3797 4528 4122 4306 
z
" transform="scale(0.015625)"/>
      </defs>
      <use xlink:href="#DejaVuSans-43"/>
      <use xlink:href="#DejaVuSans-23" x="69.824219"/>
     </g>
    </g>
    <g id="LineCollection_13">
     <path d="M 57.27 118.369062 
L 57.27 108.369062 
" style="fill: none; stroke: #990000; stroke-width: 1.5"/>
    </g>
    <g id="line2d_52">
     <g>
      <use xlink:href="#md9b07cde7a" x="57.27" y="118.369062" style="fill: #990000; stroke: #990000"/>
     </g>
    </g>
    <g id="line2d_53">
     <g>
      <use xlink:href="#md9b07cde7a" x="57.27" y="108.369062" style="fill: #990000; stroke: #990000"/>
     </g>
    </g>
    <g id="line2d_54">
     <path d="M 47.27 113.369062 
L 67.27 113.369062 
" style="fill: none; stroke: #990000; stroke-width: 1.5; stroke-linecap: square"/>
    </g>
    <g id="line2d_55"/>
    <g id="text_20">
     <!-- C++ -->
     <g transform="translate(75.27 116.869062) scale(0.1 -0.1)">
      <defs>
       <path id="DejaVuSans-2b" d="M 2944 4013 
L 2944 2272 
L 4684 2272 
L 4684 1741 
L 2944 1741 
L 2944 0 
L 2419 0 
L 2419 1741 
L 678 1741 
L 678 2272 
L 2419 2272 
L 2419 4013 
L 2944 4013 
z
" transform="scale(0.015625)"/>
      </defs>
      <use xlink:href="#DejaVuSans-43"/>
      <use xlink:href="#DejaVuSans-2b" x="69.824219"/>
      <use xlink:href="#DejaVuSans-2b" x="153.613281"/>
     </g>
    </g>
    <g id="LineCollection_14">
     <path d="M 57.27 133.047187 
L 57.27 123.047187 
" style="fill: none; stroke: #cc0033; stroke-width: 1.5"/>
    </g>
    <g id="line2d_56">
     <g>
      <use xlink:href="#md3fe7ae338" x="57.27" y="133.047187" style="fill: #cc0033; stroke: #cc0033"/>
     </g>
    </g>
    <g id="line2d_57">
     <g>
      <use xlink:href="#md3fe7ae338" x="57.27" y="123.047187" style="fill: #cc0033; stroke: #cc0033"/>
     </g>
    </g>
    <g id="line2d_58">
     <path d="M 47.27 128.047187 
L 67.27 128.047187 
" style="fill: none; stroke: #cc0033; stroke-width: 1.5; stroke-linecap: square"/>
    </g>
    <g id="line2d_59"/>
    <g id="text_21">
     <!-- Rust -->
     <g transform="translate(75.27 131.547187) scale(0.1 -0.1)">
      <defs>
       <path id="DejaVuSans-52" d="M 2841 2188 
Q 3044 2119 3236 1894 
Q 3428 1669 3622 1275 
L 4263 0 
L 3584 0 
L 2988 1197 
Q 2756 1666 2539 1819 
Q 2322 1972 1947 1972 
L 1259 1972 
L 1259 0 
L 628 0 
L 628 4666 
L 2053 4666 
Q 2853 4666 3247 4331 
Q 3641 3997 3641 3322 
Q 3641 2881 3436 2590 
Q 3231 2300 2841 2188 
z
M 1259 4147 
L 1259 2491 
L 2053 2491 
Q 2509 2491 2742 2702 
Q 2975 2913 2975 3322 
Q 2975 3731 2742 3939 
Q 2509 4147 2053 4147 
L 1259 4147 
z
" transform="scale(0.015625)"/>
       <path id="DejaVuSans-75" d="M 544 1381 
L 544 3500 
L 1119 3500 
L 1119 1403 
Q 1119 906 1312 657 
Q 1506 409 1894 409 
Q 2359 409 2629 706 
Q 2900 1003 2900 1516 
L 2900 3500 
L 3475 3500 
L 3475 0 
L 2900 0 
L 2900 538 
Q 2691 219 2414 64 
Q 2138 -91 1772 -91 
Q 1169 -91 856 284 
Q 544 659 544 1381 
z
M 1991 3584 
L 1991 3584 
z
" transform="scale(0.015625)"/>
      </defs>
      <use xlink:href="#DejaVuSans-52"/>
      <use xlink:href="#DejaVuSans-75" x="64.982422"/>
      <use xlink:href="#DejaVuSans-73" x="128.361328"/>
      <use xlink:href="#DejaVuSans-74" x="180.460938"/>
     </g>
    </g>
   </g>
  </g>
 </g>
 <defs>
  <clipPath id="p60b2fd3762">
   <rect x="38.27" y="26.88" width="526.93" height="363.16"/>
  </clipPath>
 </defs>
</svg>
