<?xml version="1.0" encoding="utf-8" standalone="no"?>
<!DOCTYPE svg PUBLIC "-//W3C//DTD SVG 1.1//EN"
  "http://www.w3.org/Graphics/SVG/1.1/DTD/svg11.dtd">
<svg xmlns:xlink="http://www.w3.org/1999/xlink" width="576pt" height="432pt" viewBox="0 0 576 432" xmlns="http://www.w3.org/2000/svg" version="1.1">
 <metadata>
  <rdf:RDF xmlns:dc="http://purl.org/dc/elements/1.1/" xmlns:cc="http://creativecommons.org/ns#" xmlns:rdf="http://www.w3.org/1999/02/22-rdf-syntax-ns#">
   <cc:Work>
    <dc:type rdf:resource="http://purl.org/dc/dcmitype/StillImage"/>
    <dc:date>2024-10-29T15:49:16.723195</dc:date>
    <dc:format>image/svg+xml</dc:format>
    <dc:creator>
     <cc:Agent>
      <dc:title>Matplotlib v3.9.2, https://matplotlib.org/</dc:title>
     </cc:Agent>
    </dc:creator>
   </cc:Work>
  </rdf:RDF>
 </metadata>
 <defs>
  <style type="text/css">*{stroke-linejoin: round; stroke-linecap: butt}</style>
 </defs>
 <g id="figure_1">
  <g id="patch_1">
   <path d="M 0 432 
L 576 432 
L 576 0 
L 0 0 
z
" style="fill: #ffffff"/>
  </g>
  <g id="axes_1">
   <g id="patch_2">
    <path d="M 47.72 390.04 
L 565.2 390.04 
L 565.2 26.88 
L 47.72 26.88 
z
" style="fill: #ffffff"/>
   </g>
   <g id="matplotlib.axis_1">
    <g id="xtick_1">
     <g id="line2d_1">
      <defs>
       <path id="mc74f61fcfc" d="M 0 0 
L 0 3.5 
" style="stroke: #000000; stroke-width: 0.8"/>
      </defs>
      <g>
       <use xlink:href="#mc74f61fcfc" x="71.241818" y="390.04" style="stroke: #000000; stroke-width: 0.8"/>
      </g>
     </g>
     <g id="text_1">
      <!-- 2000 -->
      <g transform="translate(58.516818 404.638438) scale(0.1 -0.1)">
       <defs>
        <path id="DejaVuSans-32" d="M 1228 531 
L 3431 531 
L 3431 0 
L 469 0 
L 469 531 
Q 828 903 1448 1529 
Q 2069 2156 2228 2338 
Q 2531 2678 2651 2914 
Q 2772 3150 2772 3378 
Q 2772 3750 2511 3984 
Q 2250 4219 1831 4219 
Q 1534 4219 1204 4116 
Q 875 4013 500 3803 
L 500 4441 
Q 881 4594 1212 4672 
Q 1544 4750 1819 4750 
Q 2544 4750 2975 4387 
Q 3406 4025 3406 3419 
Q 3406 3131 3298 2873 
Q 3191 2616 2906 2266 
Q 2828 2175 2409 1742 
Q 1991 1309 1228 531 
z
" transform="scale(0.015625)"/>
        <path id="DejaVuSans-30" d="M 2034 4250 
Q 1547 4250 1301 3770 
Q 1056 3291 1056 2328 
Q 1056 1369 1301 889 
Q 1547 409 2034 409 
Q 2525 409 2770 889 
Q 3016 1369 3016 2328 
Q 3016 3291 2770 3770 
Q 2525 4250 2034 4250 
z
M 2034 4750 
Q 2819 4750 3233 4129 
Q 3647 3509 3647 2328 
Q 3647 1150 3233 529 
Q 2819 -91 2034 -91 
Q 1250 -91 836 529 
Q 422 1150 422 2328 
Q 422 3509 836 4129 
Q 1250 4750 2034 4750 
z
" transform="scale(0.015625)"/>
       </defs>
       <use xlink:href="#DejaVuSans-32"/>
       <use xlink:href="#DejaVuSans-30" x="63.623047"/>
       <use xlink:href="#DejaVuSans-30" x="127.246094"/>
       <use xlink:href="#DejaVuSans-30" x="190.869141"/>
      </g>
     </g>
    </g>
    <g id="xtick_2">
     <g id="line2d_2">
      <g>
       <use xlink:href="#mc74f61fcfc" x="165.329091" y="390.04" style="stroke: #000000; stroke-width: 0.8"/>
      </g>
     </g>
     <g id="text_2">
      <!-- 2200 -->
      <g transform="translate(152.604091 404.638438) scale(0.1 -0.1)">
       <use xlink:href="#DejaVuSans-32"/>
       <use xlink:href="#DejaVuSans-32" x="63.623047"/>
       <use xlink:href="#DejaVuSans-30" x="127.246094"/>
       <use xlink:href="#DejaVuSans-30" x="190.869141"/>
      </g>
     </g>
    </g>
    <g id="xtick_3">
     <g id="line2d_3">
      <g>
       <use xlink:href="#mc74f61fcfc" x="259.416364" y="390.04" style="stroke: #000000; stroke-width: 0.8"/>
      </g>
     </g>
     <g id="text_3">
      <!-- 2400 -->
      <g transform="translate(246.691364 404.638438) scale(0.1 -0.1)">
       <defs>
        <path id="DejaVuSans-34" d="M 2419 4116 
L 825 1625 
L 2419 1625 
L 2419 4116 
z
M 2253 4666 
L 3047 4666 
L 3047 1625 
L 3713 1625 
L 3713 1100 
L 3047 1100 
L 3047 0 
L 2419 0 
L 2419 1100 
L 313 1100 
L 313 1709 
L 2253 4666 
z
" transform="scale(0.015625)"/>
       </defs>
       <use xlink:href="#DejaVuSans-32"/>
       <use xlink:href="#DejaVuSans-34" x="63.623047"/>
       <use xlink:href="#DejaVuSans-30" x="127.246094"/>
       <use xlink:href="#DejaVuSans-30" x="190.869141"/>
      </g>
     </g>
    </g>
    <g id="xtick_4">
     <g id="line2d_4">
      <g>
       <use xlink:href="#mc74f61fcfc" x="353.503636" y="390.04" style="stroke: #000000; stroke-width: 0.8"/>
      </g>
     </g>
     <g id="text_4">
      <!-- 2600 -->
      <g transform="translate(340.778636 404.638438) scale(0.1 -0.1)">
       <defs>
        <path id="DejaVuSans-36" d="M 2113 2584 
Q 1688 2584 1439 2293 
Q 1191 2003 1191 1497 
Q 1191 994 1439 701 
Q 1688 409 2113 409 
Q 2538 409 2786 701 
Q 3034 994 3034 1497 
Q 3034 2003 2786 2293 
Q 2538 2584 2113 2584 
z
M 3366 4563 
L 3366 3988 
Q 3128 4100 2886 4159 
Q 2644 4219 2406 4219 
Q 1781 4219 1451 3797 
Q 1122 3375 1075 2522 
Q 1259 2794 1537 2939 
Q 1816 3084 2150 3084 
Q 2853 3084 3261 2657 
Q 3669 2231 3669 1497 
Q 3669 778 3244 343 
Q 2819 -91 2113 -91 
Q 1303 -91 875 529 
Q 447 1150 447 2328 
Q 447 3434 972 4092 
Q 1497 4750 2381 4750 
Q 2619 4750 2861 4703 
Q 3103 4656 3366 4563 
z
" transform="scale(0.015625)"/>
       </defs>
       <use xlink:href="#DejaVuSans-32"/>
       <use xlink:href="#DejaVuSans-36" x="63.623047"/>
       <use xlink:href="#DejaVuSans-30" x="127.246094"/>
       <use xlink:href="#DejaVuSans-30" x="190.869141"/>
      </g>
     </g>
    </g>
    <g id="xtick_5">
     <g id="line2d_5">
      <g>
       <use xlink:href="#mc74f61fcfc" x="447.590909" y="390.04" style="stroke: #000000; stroke-width: 0.8"/>
      </g>
     </g>
     <g id="text_5">
      <!-- 2800 -->
      <g transform="translate(434.865909 404.638438) scale(0.1 -0.1)">
       <defs>
        <path id="DejaVuSans-38" d="M 2034 2216 
Q 1584 2216 1326 1975 
Q 1069 1734 1069 1313 
Q 1069 891 1326 650 
Q 1584 409 2034 409 
Q 2484 409 2743 651 
Q 3003 894 3003 1313 
Q 3003 1734 2745 1975 
Q 2488 2216 2034 2216 
z
M 1403 2484 
Q 997 2584 770 2862 
Q 544 3141 544 3541 
Q 544 4100 942 4425 
Q 1341 4750 2034 4750 
Q 2731 4750 3128 4425 
Q 3525 4100 3525 3541 
Q 3525 3141 3298 2862 
Q 3072 2584 2669 2484 
Q 3125 2378 3379 2068 
Q 3634 1759 3634 1313 
Q 3634 634 3220 271 
Q 2806 -91 2034 -91 
Q 1263 -91 848 271 
Q 434 634 434 1313 
Q 434 1759 690 2068 
Q 947 2378 1403 2484 
z
M 1172 3481 
Q 1172 3119 1398 2916 
Q 1625 2713 2034 2713 
Q 2441 2713 2670 2916 
Q 2900 3119 2900 3481 
Q 2900 3844 2670 4047 
Q 2441 4250 2034 4250 
Q 1625 4250 1398 4047 
Q 1172 3844 1172 3481 
z
" transform="scale(0.015625)"/>
       </defs>
       <use xlink:href="#DejaVuSans-32"/>
       <use xlink:href="#DejaVuSans-38" x="63.623047"/>
       <use xlink:href="#DejaVuSans-30" x="127.246094"/>
       <use xlink:href="#DejaVuSans-30" x="190.869141"/>
      </g>
     </g>
    </g>
    <g id="xtick_6">
     <g id="line2d_6">
      <g>
       <use xlink:href="#mc74f61fcfc" x="541.678182" y="390.04" style="stroke: #000000; stroke-width: 0.8"/>
      </g>
     </g>
     <g id="text_6">
      <!-- 3000 -->
      <g transform="translate(528.953182 404.638438) scale(0.1 -0.1)">
       <defs>
        <path id="DejaVuSans-33" d="M 2597 2516 
Q 3050 2419 3304 2112 
Q 3559 1806 3559 1356 
Q 3559 666 3084 287 
Q 2609 -91 1734 -91 
Q 1441 -91 1130 -33 
Q 819 25 488 141 
L 488 750 
Q 750 597 1062 519 
Q 1375 441 1716 441 
Q 2309 441 2620 675 
Q 2931 909 2931 1356 
Q 2931 1769 2642 2001 
Q 2353 2234 1838 2234 
L 1294 2234 
L 1294 2753 
L 1863 2753 
Q 2328 2753 2575 2939 
Q 2822 3125 2822 3475 
Q 2822 3834 2567 4026 
Q 2313 4219 1838 4219 
Q 1578 4219 1281 4162 
Q 984 4106 628 3988 
L 628 4550 
Q 988 4650 1302 4700 
Q 1616 4750 1894 4750 
Q 2613 4750 3031 4423 
Q 3450 4097 3450 3541 
Q 3450 3153 3228 2886 
Q 3006 2619 2597 2516 
z
" transform="scale(0.015625)"/>
       </defs>
       <use xlink:href="#DejaVuSans-33"/>
       <use xlink:href="#DejaVuSans-30" x="63.623047"/>
       <use xlink:href="#DejaVuSans-30" x="127.246094"/>
       <use xlink:href="#DejaVuSans-30" x="190.869141"/>
      </g>
     </g>
    </g>
    <g id="text_7">
     <!-- Size (#edges) -->
     <g transform="translate(271.409219 418.316562) scale(0.1 -0.1)">
      <defs>
       <path id="DejaVuSans-53" d="M 3425 4513 
L 3425 3897 
Q 3066 4069 2747 4153 
Q 2428 4238 2131 4238 
Q 1616 4238 1336 4038 
Q 1056 3838 1056 3469 
Q 1056 3159 1242 3001 
Q 1428 2844 1947 2747 
L 2328 2669 
Q 3034 2534 3370 2195 
Q 3706 1856 3706 1288 
Q 3706 609 3251 259 
Q 2797 -91 1919 -91 
Q 1588 -91 1214 -16 
Q 841 59 441 206 
L 441 856 
Q 825 641 1194 531 
Q 1563 422 1919 422 
Q 2459 422 2753 634 
Q 3047 847 3047 1241 
Q 3047 1584 2836 1778 
Q 2625 1972 2144 2069 
L 1759 2144 
Q 1053 2284 737 2584 
Q 422 2884 422 3419 
Q 422 4038 858 4394 
Q 1294 4750 2059 4750 
Q 2388 4750 2728 4690 
Q 3069 4631 3425 4513 
z
" transform="scale(0.015625)"/>
       <path id="DejaVuSans-69" d="M 603 3500 
L 1178 3500 
L 1178 0 
L 603 0 
L 603 3500 
z
M 603 4863 
L 1178 4863 
L 1178 4134 
L 603 4134 
L 603 4863 
z
" transform="scale(0.015625)"/>
       <path id="DejaVuSans-7a" d="M 353 3500 
L 3084 3500 
L 3084 2975 
L 922 459 
L 3084 459 
L 3084 0 
L 275 0 
L 275 525 
L 2438 3041 
L 353 3041 
L 353 3500 
z
" transform="scale(0.015625)"/>
       <path id="DejaVuSans-65" d="M 3597 1894 
L 3597 1613 
L 953 1613 
Q 991 1019 1311 708 
Q 1631 397 2203 397 
Q 2534 397 2845 478 
Q 3156 559 3463 722 
L 3463 178 
Q 3153 47 2828 -22 
Q 2503 -91 2169 -91 
Q 1331 -91 842 396 
Q 353 884 353 1716 
Q 353 2575 817 3079 
Q 1281 3584 2069 3584 
Q 2775 3584 3186 3129 
Q 3597 2675 3597 1894 
z
M 3022 2063 
Q 3016 2534 2758 2815 
Q 2500 3097 2075 3097 
Q 1594 3097 1305 2825 
Q 1016 2553 972 2059 
L 3022 2063 
z
" transform="scale(0.015625)"/>
       <path id="DejaVuSans-20" transform="scale(0.015625)"/>
       <path id="DejaVuSans-28" d="M 1984 4856 
Q 1566 4138 1362 3434 
Q 1159 2731 1159 2009 
Q 1159 1288 1364 580 
Q 1569 -128 1984 -844 
L 1484 -844 
Q 1016 -109 783 600 
Q 550 1309 550 2009 
Q 550 2706 781 3412 
Q 1013 4119 1484 4856 
L 1984 4856 
z
" transform="scale(0.015625)"/>
       <path id="DejaVuSans-23" d="M 3272 2816 
L 2363 2816 
L 2100 1772 
L 3016 1772 
L 3272 2816 
z
M 2803 4594 
L 2478 3297 
L 3391 3297 
L 3719 4594 
L 4219 4594 
L 3897 3297 
L 4872 3297 
L 4872 2816 
L 3775 2816 
L 3519 1772 
L 4513 1772 
L 4513 1294 
L 3397 1294 
L 3072 0 
L 2572 0 
L 2894 1294 
L 1978 1294 
L 1656 0 
L 1153 0 
L 1478 1294 
L 494 1294 
L 494 1772 
L 1594 1772 
L 1856 2816 
L 850 2816 
L 850 3297 
L 1978 3297 
L 2297 4594 
L 2803 4594 
z
" transform="scale(0.015625)"/>
       <path id="DejaVuSans-64" d="M 2906 2969 
L 2906 4863 
L 3481 4863 
L 3481 0 
L 2906 0 
L 2906 525 
Q 2725 213 2448 61 
Q 2172 -91 1784 -91 
Q 1150 -91 751 415 
Q 353 922 353 1747 
Q 353 2572 751 3078 
Q 1150 3584 1784 3584 
Q 2172 3584 2448 3432 
Q 2725 3281 2906 2969 
z
M 947 1747 
Q 947 1113 1208 752 
Q 1469 391 1925 391 
Q 2381 391 2643 752 
Q 2906 1113 2906 1747 
Q 2906 2381 2643 2742 
Q 2381 3103 1925 3103 
Q 1469 3103 1208 2742 
Q 947 2381 947 1747 
z
" transform="scale(0.015625)"/>
       <path id="DejaVuSans-67" d="M 2906 1791 
Q 2906 2416 2648 2759 
Q 2391 3103 1925 3103 
Q 1463 3103 1205 2759 
Q 947 2416 947 1791 
Q 947 1169 1205 825 
Q 1463 481 1925 481 
Q 2391 481 2648 825 
Q 2906 1169 2906 1791 
z
M 3481 434 
Q 3481 -459 3084 -895 
Q 2688 -1331 1869 -1331 
Q 1566 -1331 1297 -1286 
Q 1028 -1241 775 -1147 
L 775 -588 
Q 1028 -725 1275 -790 
Q 1522 -856 1778 -856 
Q 2344 -856 2625 -561 
Q 2906 -266 2906 331 
L 2906 616 
Q 2728 306 2450 153 
Q 2172 0 1784 0 
Q 1141 0 747 490 
Q 353 981 353 1791 
Q 353 2603 747 3093 
Q 1141 3584 1784 3584 
Q 2172 3584 2450 3431 
Q 2728 3278 2906 2969 
L 2906 3500 
L 3481 3500 
L 3481 434 
z
" transform="scale(0.015625)"/>
       <path id="DejaVuSans-73" d="M 2834 3397 
L 2834 2853 
Q 2591 2978 2328 3040 
Q 2066 3103 1784 3103 
Q 1356 3103 1142 2972 
Q 928 2841 928 2578 
Q 928 2378 1081 2264 
Q 1234 2150 1697 2047 
L 1894 2003 
Q 2506 1872 2764 1633 
Q 3022 1394 3022 966 
Q 3022 478 2636 193 
Q 2250 -91 1575 -91 
Q 1294 -91 989 -36 
Q 684 19 347 128 
L 347 722 
Q 666 556 975 473 
Q 1284 391 1588 391 
Q 1994 391 2212 530 
Q 2431 669 2431 922 
Q 2431 1156 2273 1281 
Q 2116 1406 1581 1522 
L 1381 1569 
Q 847 1681 609 1914 
Q 372 2147 372 2553 
Q 372 3047 722 3315 
Q 1072 3584 1716 3584 
Q 2034 3584 2315 3537 
Q 2597 3491 2834 3397 
z
" transform="scale(0.015625)"/>
       <path id="DejaVuSans-29" d="M 513 4856 
L 1013 4856 
Q 1481 4119 1714 3412 
Q 1947 2706 1947 2009 
Q 1947 1309 1714 600 
Q 1481 -109 1013 -844 
L 513 -844 
Q 928 -128 1133 580 
Q 1338 1288 1338 2009 
Q 1338 2731 1133 3434 
Q 928 4138 513 4856 
z
" transform="scale(0.015625)"/>
      </defs>
      <use xlink:href="#DejaVuSans-53"/>
      <use xlink:href="#DejaVuSans-69" x="63.476562"/>
      <use xlink:href="#DejaVuSans-7a" x="91.259766"/>
      <use xlink:href="#DejaVuSans-65" x="143.75"/>
      <use xlink:href="#DejaVuSans-20" x="205.273438"/>
      <use xlink:href="#DejaVuSans-28" x="237.060547"/>
      <use xlink:href="#DejaVuSans-23" x="276.074219"/>
      <use xlink:href="#DejaVuSans-65" x="359.863281"/>
      <use xlink:href="#DejaVuSans-64" x="421.386719"/>
      <use xlink:href="#DejaVuSans-67" x="484.863281"/>
      <use xlink:href="#DejaVuSans-65" x="548.339844"/>
      <use xlink:href="#DejaVuSans-73" x="609.863281"/>
      <use xlink:href="#DejaVuSans-29" x="661.962891"/>
     </g>
    </g>
   </g>
   <g id="matplotlib.axis_2">
    <g id="ytick_1">
     <g id="line2d_7">
      <defs>
       <path id="m7eb1c47a8f" d="M 0 0 
L -3.5 0 
" style="stroke: #000000; stroke-width: 0.8"/>
      </defs>
      <g>
       <use xlink:href="#m7eb1c47a8f" x="47.72" y="375.564751" style="stroke: #000000; stroke-width: 0.8"/>
      </g>
     </g>
     <g id="text_8">
      <!-- 0.0 -->
      <g transform="translate(24.816875 379.36397) scale(0.1 -0.1)">
       <defs>
        <path id="DejaVuSans-2e" d="M 684 794 
L 1344 794 
L 1344 0 
L 684 0 
L 684 794 
z
" transform="scale(0.015625)"/>
       </defs>
       <use xlink:href="#DejaVuSans-30"/>
       <use xlink:href="#DejaVuSans-2e" x="63.623047"/>
       <use xlink:href="#DejaVuSans-30" x="95.410156"/>
      </g>
     </g>
    </g>
    <g id="ytick_2">
     <g id="line2d_8">
      <g>
       <use xlink:href="#m7eb1c47a8f" x="47.72" y="325.073411" style="stroke: #000000; stroke-width: 0.8"/>
      </g>
     </g>
     <g id="text_9">
      <!-- 0.2 -->
      <g transform="translate(24.816875 328.87263) scale(0.1 -0.1)">
       <use xlink:href="#DejaVuSans-30"/>
       <use xlink:href="#DejaVuSans-2e" x="63.623047"/>
       <use xlink:href="#DejaVuSans-32" x="95.410156"/>
      </g>
     </g>
    </g>
    <g id="ytick_3">
     <g id="line2d_9">
      <g>
       <use xlink:href="#m7eb1c47a8f" x="47.72" y="274.582071" style="stroke: #000000; stroke-width: 0.8"/>
      </g>
     </g>
     <g id="text_10">
      <!-- 0.4 -->
      <g transform="translate(24.816875 278.381289) scale(0.1 -0.1)">
       <use xlink:href="#DejaVuSans-30"/>
       <use xlink:href="#DejaVuSans-2e" x="63.623047"/>
       <use xlink:href="#DejaVuSans-34" x="95.410156"/>
      </g>
     </g>
    </g>
    <g id="ytick_4">
     <g id="line2d_10">
      <g>
       <use xlink:href="#m7eb1c47a8f" x="47.72" y="224.09073" style="stroke: #000000; stroke-width: 0.8"/>
      </g>
     </g>
     <g id="text_11">
      <!-- 0.6 -->
      <g transform="translate(24.816875 227.889949) scale(0.1 -0.1)">
       <use xlink:href="#DejaVuSans-30"/>
       <use xlink:href="#DejaVuSans-2e" x="63.623047"/>
       <use xlink:href="#DejaVuSans-36" x="95.410156"/>
      </g>
     </g>
    </g>
    <g id="ytick_5">
     <g id="line2d_11">
      <g>
       <use xlink:href="#m7eb1c47a8f" x="47.72" y="173.59939" style="stroke: #000000; stroke-width: 0.8"/>
      </g>
     </g>
     <g id="text_12">
      <!-- 0.8 -->
      <g transform="translate(24.816875 177.398609) scale(0.1 -0.1)">
       <use xlink:href="#DejaVuSans-30"/>
       <use xlink:href="#DejaVuSans-2e" x="63.623047"/>
       <use xlink:href="#DejaVuSans-38" x="95.410156"/>
      </g>
     </g>
    </g>
    <g id="ytick_6">
     <g id="line2d_12">
      <g>
       <use xlink:href="#m7eb1c47a8f" x="47.72" y="123.10805" style="stroke: #000000; stroke-width: 0.8"/>
      </g>
     </g>
     <g id="text_13">
      <!-- 1.0 -->
      <g transform="translate(24.816875 126.907269) scale(0.1 -0.1)">
       <defs>
        <path id="DejaVuSans-31" d="M 794 531 
L 1825 531 
L 1825 4091 
L 703 3866 
L 703 4441 
L 1819 4666 
L 2450 4666 
L 2450 531 
L 3481 531 
L 3481 0 
L 794 0 
L 794 531 
z
" transform="scale(0.015625)"/>
       </defs>
       <use xlink:href="#DejaVuSans-31"/>
       <use xlink:href="#DejaVuSans-2e" x="63.623047"/>
       <use xlink:href="#DejaVuSans-30" x="95.410156"/>
      </g>
     </g>
    </g>
    <g id="ytick_7">
     <g id="line2d_13">
      <g>
       <use xlink:href="#m7eb1c47a8f" x="47.72" y="72.61671" style="stroke: #000000; stroke-width: 0.8"/>
      </g>
     </g>
     <g id="text_14">
      <!-- 1.2 -->
      <g transform="translate(24.816875 76.415928) scale(0.1 -0.1)">
       <use xlink:href="#DejaVuSans-31"/>
       <use xlink:href="#DejaVuSans-2e" x="63.623047"/>
       <use xlink:href="#DejaVuSans-32" x="95.410156"/>
      </g>
     </g>
    </g>
    <g id="text_15">
     <!-- Seconds spent -->
     <g transform="translate(18.737187 245.040469) rotate(-90) scale(0.1 -0.1)">
      <defs>
       <path id="DejaVuSans-63" d="M 3122 3366 
L 3122 2828 
Q 2878 2963 2633 3030 
Q 2388 3097 2138 3097 
Q 1578 3097 1268 2742 
Q 959 2388 959 1747 
Q 959 1106 1268 751 
Q 1578 397 2138 397 
Q 2388 397 2633 464 
Q 2878 531 3122 666 
L 3122 134 
Q 2881 22 2623 -34 
Q 2366 -91 2075 -91 
Q 1284 -91 818 406 
Q 353 903 353 1747 
Q 353 2603 823 3093 
Q 1294 3584 2113 3584 
Q 2378 3584 2631 3529 
Q 2884 3475 3122 3366 
z
" transform="scale(0.015625)"/>
       <path id="DejaVuSans-6f" d="M 1959 3097 
Q 1497 3097 1228 2736 
Q 959 2375 959 1747 
Q 959 1119 1226 758 
Q 1494 397 1959 397 
Q 2419 397 2687 759 
Q 2956 1122 2956 1747 
Q 2956 2369 2687 2733 
Q 2419 3097 1959 3097 
z
M 1959 3584 
Q 2709 3584 3137 3096 
Q 3566 2609 3566 1747 
Q 3566 888 3137 398 
Q 2709 -91 1959 -91 
Q 1206 -91 779 398 
Q 353 888 353 1747 
Q 353 2609 779 3096 
Q 1206 3584 1959 3584 
z
" transform="scale(0.015625)"/>
       <path id="DejaVuSans-6e" d="M 3513 2113 
L 3513 0 
L 2938 0 
L 2938 2094 
Q 2938 2591 2744 2837 
Q 2550 3084 2163 3084 
Q 1697 3084 1428 2787 
Q 1159 2491 1159 1978 
L 1159 0 
L 581 0 
L 581 3500 
L 1159 3500 
L 1159 2956 
Q 1366 3272 1645 3428 
Q 1925 3584 2291 3584 
Q 2894 3584 3203 3211 
Q 3513 2838 3513 2113 
z
" transform="scale(0.015625)"/>
       <path id="DejaVuSans-70" d="M 1159 525 
L 1159 -1331 
L 581 -1331 
L 581 3500 
L 1159 3500 
L 1159 2969 
Q 1341 3281 1617 3432 
Q 1894 3584 2278 3584 
Q 2916 3584 3314 3078 
Q 3713 2572 3713 1747 
Q 3713 922 3314 415 
Q 2916 -91 2278 -91 
Q 1894 -91 1617 61 
Q 1341 213 1159 525 
z
M 3116 1747 
Q 3116 2381 2855 2742 
Q 2594 3103 2138 3103 
Q 1681 3103 1420 2742 
Q 1159 2381 1159 1747 
Q 1159 1113 1420 752 
Q 1681 391 2138 391 
Q 2594 391 2855 752 
Q 3116 1113 3116 1747 
z
" transform="scale(0.015625)"/>
       <path id="DejaVuSans-74" d="M 1172 4494 
L 1172 3500 
L 2356 3500 
L 2356 3053 
L 1172 3053 
L 1172 1153 
Q 1172 725 1289 603 
Q 1406 481 1766 481 
L 2356 481 
L 2356 0 
L 1766 0 
Q 1100 0 847 248 
Q 594 497 594 1153 
L 594 3053 
L 172 3053 
L 172 3500 
L 594 3500 
L 594 4494 
L 1172 4494 
z
" transform="scale(0.015625)"/>
      </defs>
      <use xlink:href="#DejaVuSans-53"/>
      <use xlink:href="#DejaVuSans-65" x="63.476562"/>
      <use xlink:href="#DejaVuSans-63" x="125"/>
      <use xlink:href="#DejaVuSans-6f" x="179.980469"/>
      <use xlink:href="#DejaVuSans-6e" x="241.162109"/>
      <use xlink:href="#DejaVuSans-64" x="304.541016"/>
      <use xlink:href="#DejaVuSans-73" x="368.017578"/>
      <use xlink:href="#DejaVuSans-20" x="420.117188"/>
      <use xlink:href="#DejaVuSans-73" x="451.904297"/>
      <use xlink:href="#DejaVuSans-70" x="504.003906"/>
      <use xlink:href="#DejaVuSans-65" x="567.480469"/>
      <use xlink:href="#DejaVuSans-6e" x="629.003906"/>
      <use xlink:href="#DejaVuSans-74" x="692.382812"/>
     </g>
    </g>
   </g>
   <g id="LineCollection_1">
    <path d="M 71.241818 369.030414 
L 71.241818 366.462677 
" clip-path="url(#pd2621ff3a7)" style="fill: none; stroke: #009933; stroke-width: 1.5"/>
    <path d="M 94.763636 368.040279 
L 94.763636 366.406632 
" clip-path="url(#pd2621ff3a7)" style="fill: none; stroke: #009933; stroke-width: 1.5"/>
    <path d="M 118.285455 366.839595 
L 118.285455 366.807281 
" clip-path="url(#pd2621ff3a7)" style="fill: none; stroke: #009933; stroke-width: 1.5"/>
    <path d="M 141.807273 365.421293 
L 141.807273 364.98833 
" clip-path="url(#pd2621ff3a7)" style="fill: none; stroke: #009933; stroke-width: 1.5"/>
    <path d="M 165.329091 363.296113 
L 165.329091 362.475124 
" clip-path="url(#pd2621ff3a7)" style="fill: none; stroke: #009933; stroke-width: 1.5"/>
    <path d="M 188.850909 360.790733 
L 188.850909 360.294403 
" clip-path="url(#pd2621ff3a7)" style="fill: none; stroke: #009933; stroke-width: 1.5"/>
    <path d="M 212.372727 358.282575 
L 212.372727 357.559792 
" clip-path="url(#pd2621ff3a7)" style="fill: none; stroke: #009933; stroke-width: 1.5"/>
    <path d="M 235.894545 354.807761 
L 235.894545 353.989549 
" clip-path="url(#pd2621ff3a7)" style="fill: none; stroke: #009933; stroke-width: 1.5"/>
    <path d="M 259.416364 350.468283 
L 259.416364 349.664208 
" clip-path="url(#pd2621ff3a7)" style="fill: none; stroke: #009933; stroke-width: 1.5"/>
    <path d="M 282.938182 345.473932 
L 282.938182 345.010674 
" clip-path="url(#pd2621ff3a7)" style="fill: none; stroke: #009933; stroke-width: 1.5"/>
    <path d="M 306.46 340.018343 
L 306.46 339.437945 
" clip-path="url(#pd2621ff3a7)" style="fill: none; stroke: #009933; stroke-width: 1.5"/>
    <path d="M 329.981818 332.459284 
L 329.981818 331.373973 
" clip-path="url(#pd2621ff3a7)" style="fill: none; stroke: #009933; stroke-width: 1.5"/>
    <path d="M 353.503636 322.912129 
L 353.503636 316.684022 
" clip-path="url(#pd2621ff3a7)" style="fill: none; stroke: #009933; stroke-width: 1.5"/>
    <path d="M 377.025455 311.833319 
L 377.025455 311.346078 
" clip-path="url(#pd2621ff3a7)" style="fill: none; stroke: #009933; stroke-width: 1.5"/>
    <path d="M 400.547273 300.58814 
L 400.547273 299.712873 
" clip-path="url(#pd2621ff3a7)" style="fill: none; stroke: #009933; stroke-width: 1.5"/>
    <path d="M 424.069091 280.604173 
L 424.069091 279.274483 
" clip-path="url(#pd2621ff3a7)" style="fill: none; stroke: #009933; stroke-width: 1.5"/>
    <path d="M 447.590909 256.59756 
L 447.590909 248.269014 
" clip-path="url(#pd2621ff3a7)" style="fill: none; stroke: #009933; stroke-width: 1.5"/>
    <path d="M 471.112727 218.383442 
L 471.112727 217.188564 
" clip-path="url(#pd2621ff3a7)" style="fill: none; stroke: #009933; stroke-width: 1.5"/>
    <path d="M 494.634545 169.816326 
L 494.634545 167.984248 
" clip-path="url(#pd2621ff3a7)" style="fill: none; stroke: #009933; stroke-width: 1.5"/>
    <path d="M 518.156364 113.588413 
L 518.156364 112.224137 
" clip-path="url(#pd2621ff3a7)" style="fill: none; stroke: #009933; stroke-width: 1.5"/>
    <path d="M 541.678182 45.084539 
L 541.678182 43.387273 
" clip-path="url(#pd2621ff3a7)" style="fill: none; stroke: #009933; stroke-width: 1.5"/>
   </g>
   <g id="line2d_14">
    <defs>
     <path id="m567d63a80a" d="M 3 0 
L -3 -0 
" style="stroke: #009933"/>
    </defs>
    <g clip-path="url(#pd2621ff3a7)">
     <use xlink:href="#m567d63a80a" x="71.241818" y="369.030414" style="fill: #009933; stroke: #009933"/>
     <use xlink:href="#m567d63a80a" x="94.763636" y="368.040279" style="fill: #009933; stroke: #009933"/>
     <use xlink:href="#m567d63a80a" x="118.285455" y="366.839595" style="fill: #009933; stroke: #009933"/>
     <use xlink:href="#m567d63a80a" x="141.807273" y="365.421293" style="fill: #009933; stroke: #009933"/>
     <use xlink:href="#m567d63a80a" x="165.329091" y="363.296113" style="fill: #009933; stroke: #009933"/>
     <use xlink:href="#m567d63a80a" x="188.850909" y="360.790733" style="fill: #009933; stroke: #009933"/>
     <use xlink:href="#m567d63a80a" x="212.372727" y="358.282575" style="fill: #009933; stroke: #009933"/>
     <use xlink:href="#m567d63a80a" x="235.894545" y="354.807761" style="fill: #009933; stroke: #009933"/>
     <use xlink:href="#m567d63a80a" x="259.416364" y="350.468283" style="fill: #009933; stroke: #009933"/>
     <use xlink:href="#m567d63a80a" x="282.938182" y="345.473932" style="fill: #009933; stroke: #009933"/>
     <use xlink:href="#m567d63a80a" x="306.46" y="340.018343" style="fill: #009933; stroke: #009933"/>
     <use xlink:href="#m567d63a80a" x="329.981818" y="332.459284" style="fill: #009933; stroke: #009933"/>
     <use xlink:href="#m567d63a80a" x="353.503636" y="322.912129" style="fill: #009933; stroke: #009933"/>
     <use xlink:href="#m567d63a80a" x="377.025455" y="311.833319" style="fill: #009933; stroke: #009933"/>
     <use xlink:href="#m567d63a80a" x="400.547273" y="300.58814" style="fill: #009933; stroke: #009933"/>
     <use xlink:href="#m567d63a80a" x="424.069091" y="280.604173" style="fill: #009933; stroke: #009933"/>
     <use xlink:href="#m567d63a80a" x="447.590909" y="256.59756" style="fill: #009933; stroke: #009933"/>
     <use xlink:href="#m567d63a80a" x="471.112727" y="218.383442" style="fill: #009933; stroke: #009933"/>
     <use xlink:href="#m567d63a80a" x="494.634545" y="169.816326" style="fill: #009933; stroke: #009933"/>
     <use xlink:href="#m567d63a80a" x="518.156364" y="113.588413" style="fill: #009933; stroke: #009933"/>
     <use xlink:href="#m567d63a80a" x="541.678182" y="45.084539" style="fill: #009933; stroke: #009933"/>
    </g>
   </g>
   <g id="line2d_15">
    <g clip-path="url(#pd2621ff3a7)">
     <use xlink:href="#m567d63a80a" x="71.241818" y="366.462677" style="fill: #009933; stroke: #009933"/>
     <use xlink:href="#m567d63a80a" x="94.763636" y="366.406632" style="fill: #009933; stroke: #009933"/>
     <use xlink:href="#m567d63a80a" x="118.285455" y="366.807281" style="fill: #009933; stroke: #009933"/>
     <use xlink:href="#m567d63a80a" x="141.807273" y="364.98833" style="fill: #009933; stroke: #009933"/>
     <use xlink:href="#m567d63a80a" x="165.329091" y="362.475124" style="fill: #009933; stroke: #009933"/>
     <use xlink:href="#m567d63a80a" x="188.850909" y="360.294403" style="fill: #009933; stroke: #009933"/>
     <use xlink:href="#m567d63a80a" x="212.372727" y="357.559792" style="fill: #009933; stroke: #009933"/>
     <use xlink:href="#m567d63a80a" x="235.894545" y="353.989549" style="fill: #009933; stroke: #009933"/>
     <use xlink:href="#m567d63a80a" x="259.416364" y="349.664208" style="fill: #009933; stroke: #009933"/>
     <use xlink:href="#m567d63a80a" x="282.938182" y="345.010674" style="fill: #009933; stroke: #009933"/>
     <use xlink:href="#m567d63a80a" x="306.46" y="339.437945" style="fill: #009933; stroke: #009933"/>
     <use xlink:href="#m567d63a80a" x="329.981818" y="331.373973" style="fill: #009933; stroke: #009933"/>
     <use xlink:href="#m567d63a80a" x="353.503636" y="316.684022" style="fill: #009933; stroke: #009933"/>
     <use xlink:href="#m567d63a80a" x="377.025455" y="311.346078" style="fill: #009933; stroke: #009933"/>
     <use xlink:href="#m567d63a80a" x="400.547273" y="299.712873" style="fill: #009933; stroke: #009933"/>
     <use xlink:href="#m567d63a80a" x="424.069091" y="279.274483" style="fill: #009933; stroke: #009933"/>
     <use xlink:href="#m567d63a80a" x="447.590909" y="248.269014" style="fill: #009933; stroke: #009933"/>
     <use xlink:href="#m567d63a80a" x="471.112727" y="217.188564" style="fill: #009933; stroke: #009933"/>
     <use xlink:href="#m567d63a80a" x="494.634545" y="167.984248" style="fill: #009933; stroke: #009933"/>
     <use xlink:href="#m567d63a80a" x="518.156364" y="112.224137" style="fill: #009933; stroke: #009933"/>
     <use xlink:href="#m567d63a80a" x="541.678182" y="43.387273" style="fill: #009933; stroke: #009933"/>
    </g>
   </g>
   <g id="LineCollection_2">
    <path d="M 71.241818 371.859444 
L 71.241818 370.046805 
" clip-path="url(#pd2621ff3a7)" style="fill: none; stroke: #009933; stroke-width: 1.5"/>
    <path d="M 94.763636 371.415625 
L 94.763636 369.355074 
" clip-path="url(#pd2621ff3a7)" style="fill: none; stroke: #009933; stroke-width: 1.5"/>
    <path d="M 118.285455 370.800893 
L 118.285455 370.688803 
" clip-path="url(#pd2621ff3a7)" style="fill: none; stroke: #009933; stroke-width: 1.5"/>
    <path d="M 141.807273 370.078615 
L 141.807273 369.673169 
" clip-path="url(#pd2621ff3a7)" style="fill: none; stroke: #009933; stroke-width: 1.5"/>
    <path d="M 165.329091 369.267724 
L 165.329091 369.006684 
" clip-path="url(#pd2621ff3a7)" style="fill: none; stroke: #009933; stroke-width: 1.5"/>
    <path d="M 188.850909 368.353831 
L 188.850909 367.913798 
" clip-path="url(#pd2621ff3a7)" style="fill: none; stroke: #009933; stroke-width: 1.5"/>
    <path d="M 212.372727 367.262713 
L 212.372727 366.8247 
" clip-path="url(#pd2621ff3a7)" style="fill: none; stroke: #009933; stroke-width: 1.5"/>
    <path d="M 235.894545 365.883289 
L 235.894545 365.662642 
" clip-path="url(#pd2621ff3a7)" style="fill: none; stroke: #009933; stroke-width: 1.5"/>
    <path d="M 259.416364 364.392785 
L 259.416364 363.818193 
" clip-path="url(#pd2621ff3a7)" style="fill: none; stroke: #009933; stroke-width: 1.5"/>
    <path d="M 282.938182 362.753079 
L 282.938182 362.184041 
" clip-path="url(#pd2621ff3a7)" style="fill: none; stroke: #009933; stroke-width: 1.5"/>
    <path d="M 306.46 360.785179 
L 306.46 360.273449 
" clip-path="url(#pd2621ff3a7)" style="fill: none; stroke: #009933; stroke-width: 1.5"/>
    <path d="M 329.981818 358.627431 
L 329.981818 358.241172 
" clip-path="url(#pd2621ff3a7)" style="fill: none; stroke: #009933; stroke-width: 1.5"/>
    <path d="M 353.503636 355.248551 
L 353.503636 354.607058 
" clip-path="url(#pd2621ff3a7)" style="fill: none; stroke: #009933; stroke-width: 1.5"/>
    <path d="M 377.025455 352.277893 
L 377.025455 351.498811 
" clip-path="url(#pd2621ff3a7)" style="fill: none; stroke: #009933; stroke-width: 1.5"/>
    <path d="M 400.547273 348.610707 
L 400.547273 347.620824 
" clip-path="url(#pd2621ff3a7)" style="fill: none; stroke: #009933; stroke-width: 1.5"/>
    <path d="M 424.069091 340.976668 
L 424.069091 340.307153 
" clip-path="url(#pd2621ff3a7)" style="fill: none; stroke: #009933; stroke-width: 1.5"/>
    <path d="M 447.590909 336.422854 
L 447.590909 335.904308 
" clip-path="url(#pd2621ff3a7)" style="fill: none; stroke: #009933; stroke-width: 1.5"/>
    <path d="M 471.112727 326.464952 
L 471.112727 326.123631 
" clip-path="url(#pd2621ff3a7)" style="fill: none; stroke: #009933; stroke-width: 1.5"/>
    <path d="M 494.634545 315.126869 
L 494.634545 314.759545 
" clip-path="url(#pd2621ff3a7)" style="fill: none; stroke: #009933; stroke-width: 1.5"/>
    <path d="M 518.156364 301.727225 
L 518.156364 300.636107 
" clip-path="url(#pd2621ff3a7)" style="fill: none; stroke: #009933; stroke-width: 1.5"/>
    <path d="M 541.678182 287.264233 
L 541.678182 286.279652 
" clip-path="url(#pd2621ff3a7)" style="fill: none; stroke: #009933; stroke-width: 1.5"/>
   </g>
   <g id="line2d_16">
    <g clip-path="url(#pd2621ff3a7)">
     <use xlink:href="#m567d63a80a" x="71.241818" y="371.859444" style="fill: #009933; stroke: #009933"/>
     <use xlink:href="#m567d63a80a" x="94.763636" y="371.415625" style="fill: #009933; stroke: #009933"/>
     <use xlink:href="#m567d63a80a" x="118.285455" y="370.800893" style="fill: #009933; stroke: #009933"/>
     <use xlink:href="#m567d63a80a" x="141.807273" y="370.078615" style="fill: #009933; stroke: #009933"/>
     <use xlink:href="#m567d63a80a" x="165.329091" y="369.267724" style="fill: #009933; stroke: #009933"/>
     <use xlink:href="#m567d63a80a" x="188.850909" y="368.353831" style="fill: #009933; stroke: #009933"/>
     <use xlink:href="#m567d63a80a" x="212.372727" y="367.262713" style="fill: #009933; stroke: #009933"/>
     <use xlink:href="#m567d63a80a" x="235.894545" y="365.883289" style="fill: #009933; stroke: #009933"/>
     <use xlink:href="#m567d63a80a" x="259.416364" y="364.392785" style="fill: #009933; stroke: #009933"/>
     <use xlink:href="#m567d63a80a" x="282.938182" y="362.753079" style="fill: #009933; stroke: #009933"/>
     <use xlink:href="#m567d63a80a" x="306.46" y="360.785179" style="fill: #009933; stroke: #009933"/>
     <use xlink:href="#m567d63a80a" x="329.981818" y="358.627431" style="fill: #009933; stroke: #009933"/>
     <use xlink:href="#m567d63a80a" x="353.503636" y="355.248551" style="fill: #009933; stroke: #009933"/>
     <use xlink:href="#m567d63a80a" x="377.025455" y="352.277893" style="fill: #009933; stroke: #009933"/>
     <use xlink:href="#m567d63a80a" x="400.547273" y="348.610707" style="fill: #009933; stroke: #009933"/>
     <use xlink:href="#m567d63a80a" x="424.069091" y="340.976668" style="fill: #009933; stroke: #009933"/>
     <use xlink:href="#m567d63a80a" x="447.590909" y="336.422854" style="fill: #009933; stroke: #009933"/>
     <use xlink:href="#m567d63a80a" x="471.112727" y="326.464952" style="fill: #009933; stroke: #009933"/>
     <use xlink:href="#m567d63a80a" x="494.634545" y="315.126869" style="fill: #009933; stroke: #009933"/>
     <use xlink:href="#m567d63a80a" x="518.156364" y="301.727225" style="fill: #009933; stroke: #009933"/>
     <use xlink:href="#m567d63a80a" x="541.678182" y="287.264233" style="fill: #009933; stroke: #009933"/>
    </g>
   </g>
   <g id="line2d_17">
    <g clip-path="url(#pd2621ff3a7)">
     <use xlink:href="#m567d63a80a" x="71.241818" y="370.046805" style="fill: #009933; stroke: #009933"/>
     <use xlink:href="#m567d63a80a" x="94.763636" y="369.355074" style="fill: #009933; stroke: #009933"/>
     <use xlink:href="#m567d63a80a" x="118.285455" y="370.688803" style="fill: #009933; stroke: #009933"/>
     <use xlink:href="#m567d63a80a" x="141.807273" y="369.673169" style="fill: #009933; stroke: #009933"/>
     <use xlink:href="#m567d63a80a" x="165.329091" y="369.006684" style="fill: #009933; stroke: #009933"/>
     <use xlink:href="#m567d63a80a" x="188.850909" y="367.913798" style="fill: #009933; stroke: #009933"/>
     <use xlink:href="#m567d63a80a" x="212.372727" y="366.8247" style="fill: #009933; stroke: #009933"/>
     <use xlink:href="#m567d63a80a" x="235.894545" y="365.662642" style="fill: #009933; stroke: #009933"/>
     <use xlink:href="#m567d63a80a" x="259.416364" y="363.818193" style="fill: #009933; stroke: #009933"/>
     <use xlink:href="#m567d63a80a" x="282.938182" y="362.184041" style="fill: #009933; stroke: #009933"/>
     <use xlink:href="#m567d63a80a" x="306.46" y="360.273449" style="fill: #009933; stroke: #009933"/>
     <use xlink:href="#m567d63a80a" x="329.981818" y="358.241172" style="fill: #009933; stroke: #009933"/>
     <use xlink:href="#m567d63a80a" x="353.503636" y="354.607058" style="fill: #009933; stroke: #009933"/>
     <use xlink:href="#m567d63a80a" x="377.025455" y="351.498811" style="fill: #009933; stroke: #009933"/>
     <use xlink:href="#m567d63a80a" x="400.547273" y="347.620824" style="fill: #009933; stroke: #009933"/>
     <use xlink:href="#m567d63a80a" x="424.069091" y="340.307153" style="fill: #009933; stroke: #009933"/>
     <use xlink:href="#m567d63a80a" x="447.590909" y="335.904308" style="fill: #009933; stroke: #009933"/>
     <use xlink:href="#m567d63a80a" x="471.112727" y="326.123631" style="fill: #009933; stroke: #009933"/>
     <use xlink:href="#m567d63a80a" x="494.634545" y="314.759545" style="fill: #009933; stroke: #009933"/>
     <use xlink:href="#m567d63a80a" x="518.156364" y="300.636107" style="fill: #009933; stroke: #009933"/>
     <use xlink:href="#m567d63a80a" x="541.678182" y="286.279652" style="fill: #009933; stroke: #009933"/>
    </g>
   </g>
   <g id="LineCollection_3">
    <path d="M 71.241818 372.242623 
L 71.241818 372.058607 
" clip-path="url(#pd2621ff3a7)" style="fill: none; stroke: #cc0033; stroke-width: 1.5"/>
    <path d="M 94.763636 371.706077 
L 94.763636 371.583509 
" clip-path="url(#pd2621ff3a7)" style="fill: none; stroke: #cc0033; stroke-width: 1.5"/>
    <path d="M 118.285455 371.055496 
L 118.285455 370.922577 
" clip-path="url(#pd2621ff3a7)" style="fill: none; stroke: #cc0033; stroke-width: 1.5"/>
    <path d="M 141.807273 370.337029 
L 141.807273 370.145238 
" clip-path="url(#pd2621ff3a7)" style="fill: none; stroke: #cc0033; stroke-width: 1.5"/>
    <path d="M 165.329091 369.149372 
L 165.329091 368.847838 
" clip-path="url(#pd2621ff3a7)" style="fill: none; stroke: #cc0033; stroke-width: 1.5"/>
    <path d="M 188.850909 367.74031 
L 188.850909 366.937574 
" clip-path="url(#pd2621ff3a7)" style="fill: none; stroke: #cc0033; stroke-width: 1.5"/>
    <path d="M 212.372727 366.407389 
L 212.372727 366.217087 
" clip-path="url(#pd2621ff3a7)" style="fill: none; stroke: #cc0033; stroke-width: 1.5"/>
    <path d="M 235.894545 364.540825 
L 235.894545 340.845189 
" clip-path="url(#pd2621ff3a7)" style="fill: none; stroke: #cc0033; stroke-width: 1.5"/>
    <path d="M 259.416364 361.91111 
L 259.416364 361.398573 
" clip-path="url(#pd2621ff3a7)" style="fill: none; stroke: #cc0033; stroke-width: 1.5"/>
    <path d="M 282.938182 359.404139 
L 282.938182 358.815814 
" clip-path="url(#pd2621ff3a7)" style="fill: none; stroke: #cc0033; stroke-width: 1.5"/>
    <path d="M 306.46 356.352746 
L 306.46 356.068631 
" clip-path="url(#pd2621ff3a7)" style="fill: none; stroke: #cc0033; stroke-width: 1.5"/>
    <path d="M 329.981818 351.724381 
L 329.981818 350.851841 
" clip-path="url(#pd2621ff3a7)" style="fill: none; stroke: #cc0033; stroke-width: 1.5"/>
    <path d="M 353.503636 346.643438 
L 353.503636 346.020527 
" clip-path="url(#pd2621ff3a7)" style="fill: none; stroke: #cc0033; stroke-width: 1.5"/>
    <path d="M 377.025455 340.224246 
L 377.025455 339.866642 
" clip-path="url(#pd2621ff3a7)" style="fill: none; stroke: #cc0033; stroke-width: 1.5"/>
    <path d="M 400.547273 332.955715 
L 400.547273 331.96197 
" clip-path="url(#pd2621ff3a7)" style="fill: none; stroke: #cc0033; stroke-width: 1.5"/>
    <path d="M 424.069091 322.300677 
L 424.069091 321.55192 
" clip-path="url(#pd2621ff3a7)" style="fill: none; stroke: #cc0033; stroke-width: 1.5"/>
    <path d="M 447.590909 308.931632 
L 447.590909 307.208969 
" clip-path="url(#pd2621ff3a7)" style="fill: none; stroke: #cc0033; stroke-width: 1.5"/>
    <path d="M 471.112727 287.17499 
L 471.112727 284.43432 
" clip-path="url(#pd2621ff3a7)" style="fill: none; stroke: #cc0033; stroke-width: 1.5"/>
    <path d="M 494.634545 258.87684 
L 494.634545 256.821237 
" clip-path="url(#pd2621ff3a7)" style="fill: none; stroke: #cc0033; stroke-width: 1.5"/>
    <path d="M 518.156364 225.036307 
L 518.156364 222.952133 
" clip-path="url(#pd2621ff3a7)" style="fill: none; stroke: #cc0033; stroke-width: 1.5"/>
    <path d="M 541.678182 185.631426 
L 541.678182 175.274693 
" clip-path="url(#pd2621ff3a7)" style="fill: none; stroke: #cc0033; stroke-width: 1.5"/>
   </g>
   <g id="line2d_18">
    <defs>
     <path id="md3fe7ae338" d="M 3 0 
L -3 -0 
" style="stroke: #cc0033"/>
    </defs>
    <g clip-path="url(#pd2621ff3a7)">
     <use xlink:href="#md3fe7ae338" x="71.241818" y="372.242623" style="fill: #cc0033; stroke: #cc0033"/>
     <use xlink:href="#md3fe7ae338" x="94.763636" y="371.706077" style="fill: #cc0033; stroke: #cc0033"/>
     <use xlink:href="#md3fe7ae338" x="118.285455" y="371.055496" style="fill: #cc0033; stroke: #cc0033"/>
     <use xlink:href="#md3fe7ae338" x="141.807273" y="370.337029" style="fill: #cc0033; stroke: #cc0033"/>
     <use xlink:href="#md3fe7ae338" x="165.329091" y="369.149372" style="fill: #cc0033; stroke: #cc0033"/>
     <use xlink:href="#md3fe7ae338" x="188.850909" y="367.74031" style="fill: #cc0033; stroke: #cc0033"/>
     <use xlink:href="#md3fe7ae338" x="212.372727" y="366.407389" style="fill: #cc0033; stroke: #cc0033"/>
     <use xlink:href="#md3fe7ae338" x="235.894545" y="364.540825" style="fill: #cc0033; stroke: #cc0033"/>
     <use xlink:href="#md3fe7ae338" x="259.416364" y="361.91111" style="fill: #cc0033; stroke: #cc0033"/>
     <use xlink:href="#md3fe7ae338" x="282.938182" y="359.404139" style="fill: #cc0033; stroke: #cc0033"/>
     <use xlink:href="#md3fe7ae338" x="306.46" y="356.352746" style="fill: #cc0033; stroke: #cc0033"/>
     <use xlink:href="#md3fe7ae338" x="329.981818" y="351.724381" style="fill: #cc0033; stroke: #cc0033"/>
     <use xlink:href="#md3fe7ae338" x="353.503636" y="346.643438" style="fill: #cc0033; stroke: #cc0033"/>
     <use xlink:href="#md3fe7ae338" x="377.025455" y="340.224246" style="fill: #cc0033; stroke: #cc0033"/>
     <use xlink:href="#md3fe7ae338" x="400.547273" y="332.955715" style="fill: #cc0033; stroke: #cc0033"/>
     <use xlink:href="#md3fe7ae338" x="424.069091" y="322.300677" style="fill: #cc0033; stroke: #cc0033"/>
     <use xlink:href="#md3fe7ae338" x="447.590909" y="308.931632" style="fill: #cc0033; stroke: #cc0033"/>
     <use xlink:href="#md3fe7ae338" x="471.112727" y="287.17499" style="fill: #cc0033; stroke: #cc0033"/>
     <use xlink:href="#md3fe7ae338" x="494.634545" y="258.87684" style="fill: #cc0033; stroke: #cc0033"/>
     <use xlink:href="#md3fe7ae338" x="518.156364" y="225.036307" style="fill: #cc0033; stroke: #cc0033"/>
     <use xlink:href="#md3fe7ae338" x="541.678182" y="185.631426" style="fill: #cc0033; stroke: #cc0033"/>
    </g>
   </g>
   <g id="line2d_19">
    <g clip-path="url(#pd2621ff3a7)">
     <use xlink:href="#md3fe7ae338" x="71.241818" y="372.058607" style="fill: #cc0033; stroke: #cc0033"/>
     <use xlink:href="#md3fe7ae338" x="94.763636" y="371.583509" style="fill: #cc0033; stroke: #cc0033"/>
     <use xlink:href="#md3fe7ae338" x="118.285455" y="370.922577" style="fill: #cc0033; stroke: #cc0033"/>
     <use xlink:href="#md3fe7ae338" x="141.807273" y="370.145238" style="fill: #cc0033; stroke: #cc0033"/>
     <use xlink:href="#md3fe7ae338" x="165.329091" y="368.847838" style="fill: #cc0033; stroke: #cc0033"/>
     <use xlink:href="#md3fe7ae338" x="188.850909" y="366.937574" style="fill: #cc0033; stroke: #cc0033"/>
     <use xlink:href="#md3fe7ae338" x="212.372727" y="366.217087" style="fill: #cc0033; stroke: #cc0033"/>
     <use xlink:href="#md3fe7ae338" x="235.894545" y="340.845189" style="fill: #cc0033; stroke: #cc0033"/>
     <use xlink:href="#md3fe7ae338" x="259.416364" y="361.398573" style="fill: #cc0033; stroke: #cc0033"/>
     <use xlink:href="#md3fe7ae338" x="282.938182" y="358.815814" style="fill: #cc0033; stroke: #cc0033"/>
     <use xlink:href="#md3fe7ae338" x="306.46" y="356.068631" style="fill: #cc0033; stroke: #cc0033"/>
     <use xlink:href="#md3fe7ae338" x="329.981818" y="350.851841" style="fill: #cc0033; stroke: #cc0033"/>
     <use xlink:href="#md3fe7ae338" x="353.503636" y="346.020527" style="fill: #cc0033; stroke: #cc0033"/>
     <use xlink:href="#md3fe7ae338" x="377.025455" y="339.866642" style="fill: #cc0033; stroke: #cc0033"/>
     <use xlink:href="#md3fe7ae338" x="400.547273" y="331.96197" style="fill: #cc0033; stroke: #cc0033"/>
     <use xlink:href="#md3fe7ae338" x="424.069091" y="321.55192" style="fill: #cc0033; stroke: #cc0033"/>
     <use xlink:href="#md3fe7ae338" x="447.590909" y="307.208969" style="fill: #cc0033; stroke: #cc0033"/>
     <use xlink:href="#md3fe7ae338" x="471.112727" y="284.43432" style="fill: #cc0033; stroke: #cc0033"/>
     <use xlink:href="#md3fe7ae338" x="494.634545" y="256.821237" style="fill: #cc0033; stroke: #cc0033"/>
     <use xlink:href="#md3fe7ae338" x="518.156364" y="222.952133" style="fill: #cc0033; stroke: #cc0033"/>
     <use xlink:href="#md3fe7ae338" x="541.678182" y="175.274693" style="fill: #cc0033; stroke: #cc0033"/>
    </g>
   </g>
   <g id="LineCollection_4">
    <path d="M 71.241818 373.532727 
L 71.241818 373.477591 
" clip-path="url(#pd2621ff3a7)" style="fill: none; stroke: #cc0033; stroke-width: 1.5"/>
    <path d="M 94.763636 373.213067 
L 94.763636 372.961014 
" clip-path="url(#pd2621ff3a7)" style="fill: none; stroke: #cc0033; stroke-width: 1.5"/>
    <path d="M 118.285455 372.85526 
L 118.285455 372.717721 
" clip-path="url(#pd2621ff3a7)" style="fill: none; stroke: #cc0033; stroke-width: 1.5"/>
    <path d="M 141.807273 372.454863 
L 141.807273 372.347519 
" clip-path="url(#pd2621ff3a7)" style="fill: none; stroke: #cc0033; stroke-width: 1.5"/>
    <path d="M 165.329091 371.930763 
L 165.329091 371.780375 
" clip-path="url(#pd2621ff3a7)" style="fill: none; stroke: #cc0033; stroke-width: 1.5"/>
    <path d="M 188.850909 371.297981 
L 188.850909 371.135525 
" clip-path="url(#pd2621ff3a7)" style="fill: none; stroke: #cc0033; stroke-width: 1.5"/>
    <path d="M 212.372727 370.699683 
L 212.372727 370.460127 
" clip-path="url(#pd2621ff3a7)" style="fill: none; stroke: #cc0033; stroke-width: 1.5"/>
    <path d="M 235.894545 369.847238 
L 235.894545 362.394035 
" clip-path="url(#pd2621ff3a7)" style="fill: none; stroke: #cc0033; stroke-width: 1.5"/>
    <path d="M 259.416364 368.662636 
L 259.416364 368.217201 
" clip-path="url(#pd2621ff3a7)" style="fill: none; stroke: #cc0033; stroke-width: 1.5"/>
    <path d="M 282.938182 367.801758 
L 282.938182 367.265742 
" clip-path="url(#pd2621ff3a7)" style="fill: none; stroke: #cc0033; stroke-width: 1.5"/>
    <path d="M 306.46 366.826013 
L 306.46 365.871979 
" clip-path="url(#pd2621ff3a7)" style="fill: none; stroke: #cc0033; stroke-width: 1.5"/>
    <path d="M 329.981818 364.957253 
L 329.981818 363.969945 
" clip-path="url(#pd2621ff3a7)" style="fill: none; stroke: #cc0033; stroke-width: 1.5"/>
    <path d="M 353.503636 363.142493 
L 353.503636 361.628485 
" clip-path="url(#pd2621ff3a7)" style="fill: none; stroke: #cc0033; stroke-width: 1.5"/>
    <path d="M 377.025455 361.017237 
L 377.025455 358.955499 
" clip-path="url(#pd2621ff3a7)" style="fill: none; stroke: #cc0033; stroke-width: 1.5"/>
    <path d="M 400.547273 358.08985 
L 400.547273 356.125888 
" clip-path="url(#pd2621ff3a7)" style="fill: none; stroke: #cc0033; stroke-width: 1.5"/>
    <path d="M 424.069091 354.288256 
L 424.069091 351.879542 
" clip-path="url(#pd2621ff3a7)" style="fill: none; stroke: #cc0033; stroke-width: 1.5"/>
    <path d="M 447.590909 350.871002 
L 447.590909 347.125756 
" clip-path="url(#pd2621ff3a7)" style="fill: none; stroke: #cc0033; stroke-width: 1.5"/>
    <path d="M 471.112727 345.659185 
L 471.112727 339.506638 
" clip-path="url(#pd2621ff3a7)" style="fill: none; stroke: #cc0033; stroke-width: 1.5"/>
    <path d="M 494.634545 338.177779 
L 494.634545 331.424489 
" clip-path="url(#pd2621ff3a7)" style="fill: none; stroke: #cc0033; stroke-width: 1.5"/>
    <path d="M 518.156364 321.723942 
L 518.156364 319.596489 
" clip-path="url(#pd2621ff3a7)" style="fill: none; stroke: #cc0033; stroke-width: 1.5"/>
    <path d="M 541.678182 318.778125 
L 541.678182 305.173638 
" clip-path="url(#pd2621ff3a7)" style="fill: none; stroke: #cc0033; stroke-width: 1.5"/>
   </g>
   <g id="line2d_20">
    <g clip-path="url(#pd2621ff3a7)">
     <use xlink:href="#md3fe7ae338" x="71.241818" y="373.532727" style="fill: #cc0033; stroke: #cc0033"/>
     <use xlink:href="#md3fe7ae338" x="94.763636" y="373.213067" style="fill: #cc0033; stroke: #cc0033"/>
     <use xlink:href="#md3fe7ae338" x="118.285455" y="372.85526" style="fill: #cc0033; stroke: #cc0033"/>
     <use xlink:href="#md3fe7ae338" x="141.807273" y="372.454863" style="fill: #cc0033; stroke: #cc0033"/>
     <use xlink:href="#md3fe7ae338" x="165.329091" y="371.930763" style="fill: #cc0033; stroke: #cc0033"/>
     <use xlink:href="#md3fe7ae338" x="188.850909" y="371.297981" style="fill: #cc0033; stroke: #cc0033"/>
     <use xlink:href="#md3fe7ae338" x="212.372727" y="370.699683" style="fill: #cc0033; stroke: #cc0033"/>
     <use xlink:href="#md3fe7ae338" x="235.894545" y="369.847238" style="fill: #cc0033; stroke: #cc0033"/>
     <use xlink:href="#md3fe7ae338" x="259.416364" y="368.662636" style="fill: #cc0033; stroke: #cc0033"/>
     <use xlink:href="#md3fe7ae338" x="282.938182" y="367.801758" style="fill: #cc0033; stroke: #cc0033"/>
     <use xlink:href="#md3fe7ae338" x="306.46" y="366.826013" style="fill: #cc0033; stroke: #cc0033"/>
     <use xlink:href="#md3fe7ae338" x="329.981818" y="364.957253" style="fill: #cc0033; stroke: #cc0033"/>
     <use xlink:href="#md3fe7ae338" x="353.503636" y="363.142493" style="fill: #cc0033; stroke: #cc0033"/>
     <use xlink:href="#md3fe7ae338" x="377.025455" y="361.017237" style="fill: #cc0033; stroke: #cc0033"/>
     <use xlink:href="#md3fe7ae338" x="400.547273" y="358.08985" style="fill: #cc0033; stroke: #cc0033"/>
     <use xlink:href="#md3fe7ae338" x="424.069091" y="354.288256" style="fill: #cc0033; stroke: #cc0033"/>
     <use xlink:href="#md3fe7ae338" x="447.590909" y="350.871002" style="fill: #cc0033; stroke: #cc0033"/>
     <use xlink:href="#md3fe7ae338" x="471.112727" y="345.659185" style="fill: #cc0033; stroke: #cc0033"/>
     <use xlink:href="#md3fe7ae338" x="494.634545" y="338.177779" style="fill: #cc0033; stroke: #cc0033"/>
     <use xlink:href="#md3fe7ae338" x="518.156364" y="321.723942" style="fill: #cc0033; stroke: #cc0033"/>
     <use xlink:href="#md3fe7ae338" x="541.678182" y="318.778125" style="fill: #cc0033; stroke: #cc0033"/>
    </g>
   </g>
   <g id="line2d_21">
    <g clip-path="url(#pd2621ff3a7)">
     <use xlink:href="#md3fe7ae338" x="71.241818" y="373.477591" style="fill: #cc0033; stroke: #cc0033"/>
     <use xlink:href="#md3fe7ae338" x="94.763636" y="372.961014" style="fill: #cc0033; stroke: #cc0033"/>
     <use xlink:href="#md3fe7ae338" x="118.285455" y="372.717721" style="fill: #cc0033; stroke: #cc0033"/>
     <use xlink:href="#md3fe7ae338" x="141.807273" y="372.347519" style="fill: #cc0033; stroke: #cc0033"/>
     <use xlink:href="#md3fe7ae338" x="165.329091" y="371.780375" style="fill: #cc0033; stroke: #cc0033"/>
     <use xlink:href="#md3fe7ae338" x="188.850909" y="371.135525" style="fill: #cc0033; stroke: #cc0033"/>
     <use xlink:href="#md3fe7ae338" x="212.372727" y="370.460127" style="fill: #cc0033; stroke: #cc0033"/>
     <use xlink:href="#md3fe7ae338" x="235.894545" y="362.394035" style="fill: #cc0033; stroke: #cc0033"/>
     <use xlink:href="#md3fe7ae338" x="259.416364" y="368.217201" style="fill: #cc0033; stroke: #cc0033"/>
     <use xlink:href="#md3fe7ae338" x="282.938182" y="367.265742" style="fill: #cc0033; stroke: #cc0033"/>
     <use xlink:href="#md3fe7ae338" x="306.46" y="365.871979" style="fill: #cc0033; stroke: #cc0033"/>
     <use xlink:href="#md3fe7ae338" x="329.981818" y="363.969945" style="fill: #cc0033; stroke: #cc0033"/>
     <use xlink:href="#md3fe7ae338" x="353.503636" y="361.628485" style="fill: #cc0033; stroke: #cc0033"/>
     <use xlink:href="#md3fe7ae338" x="377.025455" y="358.955499" style="fill: #cc0033; stroke: #cc0033"/>
     <use xlink:href="#md3fe7ae338" x="400.547273" y="356.125888" style="fill: #cc0033; stroke: #cc0033"/>
     <use xlink:href="#md3fe7ae338" x="424.069091" y="351.879542" style="fill: #cc0033; stroke: #cc0033"/>
     <use xlink:href="#md3fe7ae338" x="447.590909" y="347.125756" style="fill: #cc0033; stroke: #cc0033"/>
     <use xlink:href="#md3fe7ae338" x="471.112727" y="339.506638" style="fill: #cc0033; stroke: #cc0033"/>
     <use xlink:href="#md3fe7ae338" x="494.634545" y="331.424489" style="fill: #cc0033; stroke: #cc0033"/>
     <use xlink:href="#md3fe7ae338" x="518.156364" y="319.596489" style="fill: #cc0033; stroke: #cc0033"/>
     <use xlink:href="#md3fe7ae338" x="541.678182" y="305.173638" style="fill: #cc0033; stroke: #cc0033"/>
    </g>
   </g>
   <g id="line2d_22">
    <path d="M 71.241818 368.273297 
L 94.763636 367.676489 
L 118.285455 366.817631 
L 141.807273 365.267295 
L 165.329091 363.010332 
L 188.850909 360.672078 
L 212.372727 357.958673 
L 235.894545 354.326074 
L 259.416364 350.056526 
L 282.938182 345.267675 
L 306.46 339.795424 
L 329.981818 332.046013 
L 353.503636 321.35952 
L 377.025455 311.616964 
L 400.547273 300.014811 
L 424.069091 279.979595 
L 447.590909 254.686463 
L 471.112727 217.869187 
L 494.634545 168.900666 
L 518.156364 112.845433 
L 541.678182 44.146662 
" clip-path="url(#pd2621ff3a7)" style="fill: none; stroke-dasharray: 1.5,2.475; stroke-dashoffset: 0; stroke: #009933; stroke-width: 1.5"/>
   </g>
   <g id="line2d_23">
    <path d="M 71.241818 371.270463 
L 94.763636 370.896574 
L 118.285455 370.756208 
L 141.807273 369.969806 
L 165.329091 369.184161 
L 188.850909 368.251586 
L 212.372727 367.108462 
L 235.894545 365.760848 
L 259.416364 364.105742 
L 282.938182 362.372879 
L 306.46 360.527168 
L 329.981818 358.479492 
L 353.503636 354.935504 
L 377.025455 352.008269 
L 400.547273 348.073479 
L 424.069091 340.650494 
L 447.590909 336.151464 
L 471.112727 326.335694 
L 494.634545 315.026897 
L 518.156364 301.379087 
L 541.678182 286.810316 
" clip-path="url(#pd2621ff3a7)" style="fill: none; stroke: #009933; stroke-width: 1.5; stroke-linecap: square"/>
   </g>
   <g id="line2d_24">
    <path d="M 71.241818 372.133744 
L 94.763636 371.643215 
L 118.285455 370.983839 
L 141.807273 370.213618 
L 165.329091 369.058745 
L 188.850909 367.510464 
L 212.372727 366.312228 
L 235.894545 359.704083 
L 259.416364 361.682526 
L 282.938182 359.091765 
L 306.46 356.217767 
L 329.981818 351.328893 
L 353.503636 346.37445 
L 377.025455 340.046729 
L 400.547273 332.473337 
L 424.069091 321.918838 
L 447.590909 308.011128 
L 471.112727 285.705547 
L 494.634545 258.141449 
L 518.156364 223.973844 
L 541.678182 182.68785 
" clip-path="url(#pd2621ff3a7)" style="fill: none; stroke-dasharray: 1.5,2.475; stroke-dashoffset: 0; stroke: #cc0033; stroke-width: 1.5"/>
   </g>
   <g id="line2d_25">
    <path d="M 71.241818 373.516545 
L 94.763636 373.106383 
L 118.285455 372.793948 
L 141.807273 372.389528 
L 165.329091 371.849361 
L 188.850909 371.222163 
L 212.372727 370.60531 
L 235.894545 368.315755 
L 259.416364 368.494207 
L 282.938182 367.4418 
L 306.46 366.394585 
L 329.981818 364.276367 
L 353.503636 362.071854 
L 377.025455 359.908573 
L 400.547273 357.032895 
L 424.069091 352.954941 
L 447.590909 348.627268 
L 471.112727 341.083271 
L 494.634545 335.06593 
L 518.156364 320.601731 
L 541.678182 310.627819 
" clip-path="url(#pd2621ff3a7)" style="fill: none; stroke: #cc0033; stroke-width: 1.5; stroke-linecap: square"/>
   </g>
   <g id="patch_3">
    <path d="M 47.72 390.04 
L 47.72 26.88 
" style="fill: none; stroke: #000000; stroke-width: 0.8; stroke-linejoin: miter; stroke-linecap: square"/>
   </g>
   <g id="patch_4">
    <path d="M 565.2 390.04 
L 565.2 26.88 
" style="fill: none; stroke: #000000; stroke-width: 0.8; stroke-linejoin: miter; stroke-linecap: square"/>
   </g>
   <g id="patch_5">
    <path d="M 47.72 390.04 
L 565.2 390.04 
" style="fill: none; stroke: #000000; stroke-width: 0.8; stroke-linejoin: miter; stroke-linecap: square"/>
   </g>
   <g id="patch_6">
    <path d="M 47.72 26.88 
L 565.2 26.88 
" style="fill: none; stroke: #000000; stroke-width: 0.8; stroke-linejoin: miter; stroke-linecap: square"/>
   </g>
   <g id="text_16">
    <!-- Bron-Kerbosch on a random graph of order 100 -->
    <g transform="translate(47.72 20.88) scale(0.12 -0.12)">
     <defs>
      <path id="DejaVuSans-42" d="M 1259 2228 
L 1259 519 
L 2272 519 
Q 2781 519 3026 730 
Q 3272 941 3272 1375 
Q 3272 1813 3026 2020 
Q 2781 2228 2272 2228 
L 1259 2228 
z
M 1259 4147 
L 1259 2741 
L 2194 2741 
Q 2656 2741 2882 2914 
Q 3109 3088 3109 3444 
Q 3109 3797 2882 3972 
Q 2656 4147 2194 4147 
L 1259 4147 
z
M 628 4666 
L 2241 4666 
Q 2963 4666 3353 4366 
Q 3744 4066 3744 3513 
Q 3744 3084 3544 2831 
Q 3344 2578 2956 2516 
Q 3422 2416 3680 2098 
Q 3938 1781 3938 1306 
Q 3938 681 3513 340 
Q 3088 0 2303 0 
L 628 0 
L 628 4666 
z
" transform="scale(0.015625)"/>
      <path id="DejaVuSans-72" d="M 2631 2963 
Q 2534 3019 2420 3045 
Q 2306 3072 2169 3072 
Q 1681 3072 1420 2755 
Q 1159 2438 1159 1844 
L 1159 0 
L 581 0 
L 581 3500 
L 1159 3500 
L 1159 2956 
Q 1341 3275 1631 3429 
Q 1922 3584 2338 3584 
Q 2397 3584 2469 3576 
Q 2541 3569 2628 3553 
L 2631 2963 
z
" transform="scale(0.015625)"/>
      <path id="DejaVuSans-2d" d="M 313 2009 
L 1997 2009 
L 1997 1497 
L 313 1497 
L 313 2009 
z
" transform="scale(0.015625)"/>
      <path id="DejaVuSans-4b" d="M 628 4666 
L 1259 4666 
L 1259 2694 
L 3353 4666 
L 4166 4666 
L 1850 2491 
L 4331 0 
L 3500 0 
L 1259 2247 
L 1259 0 
L 628 0 
L 628 4666 
z
" transform="scale(0.015625)"/>
      <path id="DejaVuSans-62" d="M 3116 1747 
Q 3116 2381 2855 2742 
Q 2594 3103 2138 3103 
Q 1681 3103 1420 2742 
Q 1159 2381 1159 1747 
Q 1159 1113 1420 752 
Q 1681 391 2138 391 
Q 2594 391 2855 752 
Q 3116 1113 3116 1747 
z
M 1159 2969 
Q 1341 3281 1617 3432 
Q 1894 3584 2278 3584 
Q 2916 3584 3314 3078 
Q 3713 2572 3713 1747 
Q 3713 922 3314 415 
Q 2916 -91 2278 -91 
Q 1894 -91 1617 61 
Q 1341 213 1159 525 
L 1159 0 
L 581 0 
L 581 4863 
L 1159 4863 
L 1159 2969 
z
" transform="scale(0.015625)"/>
      <path id="DejaVuSans-68" d="M 3513 2113 
L 3513 0 
L 2938 0 
L 2938 2094 
Q 2938 2591 2744 2837 
Q 2550 3084 2163 3084 
Q 1697 3084 1428 2787 
Q 1159 2491 1159 1978 
L 1159 0 
L 581 0 
L 581 4863 
L 1159 4863 
L 1159 2956 
Q 1366 3272 1645 3428 
Q 1925 3584 2291 3584 
Q 2894 3584 3203 3211 
Q 3513 2838 3513 2113 
z
" transform="scale(0.015625)"/>
      <path id="DejaVuSans-61" d="M 2194 1759 
Q 1497 1759 1228 1600 
Q 959 1441 959 1056 
Q 959 750 1161 570 
Q 1363 391 1709 391 
Q 2188 391 2477 730 
Q 2766 1069 2766 1631 
L 2766 1759 
L 2194 1759 
z
M 3341 1997 
L 3341 0 
L 2766 0 
L 2766 531 
Q 2569 213 2275 61 
Q 1981 -91 1556 -91 
Q 1019 -91 701 211 
Q 384 513 384 1019 
Q 384 1609 779 1909 
Q 1175 2209 1959 2209 
L 2766 2209 
L 2766 2266 
Q 2766 2663 2505 2880 
Q 2244 3097 1772 3097 
Q 1472 3097 1187 3025 
Q 903 2953 641 2809 
L 641 3341 
Q 956 3463 1253 3523 
Q 1550 3584 1831 3584 
Q 2591 3584 2966 3190 
Q 3341 2797 3341 1997 
z
" transform="scale(0.015625)"/>
      <path id="DejaVuSans-6d" d="M 3328 2828 
Q 3544 3216 3844 3400 
Q 4144 3584 4550 3584 
Q 5097 3584 5394 3201 
Q 5691 2819 5691 2113 
L 5691 0 
L 5113 0 
L 5113 2094 
Q 5113 2597 4934 2840 
Q 4756 3084 4391 3084 
Q 3944 3084 3684 2787 
Q 3425 2491 3425 1978 
L 3425 0 
L 2847 0 
L 2847 2094 
Q 2847 2600 2669 2842 
Q 2491 3084 2119 3084 
Q 1678 3084 1418 2786 
Q 1159 2488 1159 1978 
L 1159 0 
L 581 0 
L 581 3500 
L 1159 3500 
L 1159 2956 
Q 1356 3278 1631 3431 
Q 1906 3584 2284 3584 
Q 2666 3584 2933 3390 
Q 3200 3197 3328 2828 
z
" transform="scale(0.015625)"/>
      <path id="DejaVuSans-66" d="M 2375 4863 
L 2375 4384 
L 1825 4384 
Q 1516 4384 1395 4259 
Q 1275 4134 1275 3809 
L 1275 3500 
L 2222 3500 
L 2222 3053 
L 1275 3053 
L 1275 0 
L 697 0 
L 697 3053 
L 147 3053 
L 147 3500 
L 697 3500 
L 697 3744 
Q 697 4328 969 4595 
Q 1241 4863 1831 4863 
L 2375 4863 
z
" transform="scale(0.015625)"/>
     </defs>
     <use xlink:href="#DejaVuSans-42"/>
     <use xlink:href="#DejaVuSans-72" x="68.603516"/>
     <use xlink:href="#DejaVuSans-6f" x="107.466797"/>
     <use xlink:href="#DejaVuSans-6e" x="168.648438"/>
     <use xlink:href="#DejaVuSans-2d" x="232.027344"/>
     <use xlink:href="#DejaVuSans-4b" x="268.111328"/>
     <use xlink:href="#DejaVuSans-65" x="328.6875"/>
     <use xlink:href="#DejaVuSans-72" x="390.210938"/>
     <use xlink:href="#DejaVuSans-62" x="431.324219"/>
     <use xlink:href="#DejaVuSans-6f" x="494.800781"/>
     <use xlink:href="#DejaVuSans-73" x="555.982422"/>
     <use xlink:href="#DejaVuSans-63" x="608.082031"/>
     <use xlink:href="#DejaVuSans-68" x="663.0625"/>
     <use xlink:href="#DejaVuSans-20" x="726.441406"/>
     <use xlink:href="#DejaVuSans-6f" x="758.228516"/>
     <use xlink:href="#DejaVuSans-6e" x="819.410156"/>
     <use xlink:href="#DejaVuSans-20" x="882.789062"/>
     <use xlink:href="#DejaVuSans-61" x="914.576172"/>
     <use xlink:href="#DejaVuSans-20" x="975.855469"/>
     <use xlink:href="#DejaVuSans-72" x="1007.642578"/>
     <use xlink:href="#DejaVuSans-61" x="1048.755859"/>
     <use xlink:href="#DejaVuSans-6e" x="1110.035156"/>
     <use xlink:href="#DejaVuSans-64" x="1173.414062"/>
     <use xlink:href="#DejaVuSans-6f" x="1236.890625"/>
     <use xlink:href="#DejaVuSans-6d" x="1298.072266"/>
     <use xlink:href="#DejaVuSans-20" x="1395.484375"/>
     <use xlink:href="#DejaVuSans-67" x="1427.271484"/>
     <use xlink:href="#DejaVuSans-72" x="1490.748047"/>
     <use xlink:href="#DejaVuSans-61" x="1531.861328"/>
     <use xlink:href="#DejaVuSans-70" x="1593.140625"/>
     <use xlink:href="#DejaVuSans-68" x="1656.617188"/>
     <use xlink:href="#DejaVuSans-20" x="1719.996094"/>
     <use xlink:href="#DejaVuSans-6f" x="1751.783203"/>
     <use xlink:href="#DejaVuSans-66" x="1812.964844"/>
     <use xlink:href="#DejaVuSans-20" x="1848.169922"/>
     <use xlink:href="#DejaVuSans-6f" x="1879.957031"/>
     <use xlink:href="#DejaVuSans-72" x="1941.138672"/>
     <use xlink:href="#DejaVuSans-64" x="1980.501953"/>
     <use xlink:href="#DejaVuSans-65" x="2043.978516"/>
     <use xlink:href="#DejaVuSans-72" x="2105.501953"/>
     <use xlink:href="#DejaVuSans-20" x="2146.615234"/>
     <use xlink:href="#DejaVuSans-31" x="2178.402344"/>
     <use xlink:href="#DejaVuSans-30" x="2242.025391"/>
     <use xlink:href="#DejaVuSans-30" x="2305.648438"/>
    </g>
   </g>
   <g id="legend_1">
    <g id="patch_7">
     <path d="M 54.72 93.5925 
L 144.248125 93.5925 
Q 146.248125 93.5925 146.248125 91.5925 
L 146.248125 33.88 
Q 146.248125 31.88 144.248125 31.88 
L 54.72 31.88 
Q 52.72 31.88 52.72 33.88 
L 52.72 91.5925 
Q 52.72 93.5925 54.72 93.5925 
z
" style="fill: #ffffff; opacity: 0.8; stroke: #cccccc; stroke-linejoin: miter"/>
    </g>
    <g id="LineCollection_5">
     <path d="M 66.72 44.978437 
L 66.72 34.978437 
" style="fill: none; stroke: #009933; stroke-width: 1.5"/>
    </g>
    <g id="line2d_26">
     <g>
      <use xlink:href="#m567d63a80a" x="66.72" y="44.978437" style="fill: #009933; stroke: #009933"/>
     </g>
    </g>
    <g id="line2d_27">
     <g>
      <use xlink:href="#m567d63a80a" x="66.72" y="34.978437" style="fill: #009933; stroke: #009933"/>
     </g>
    </g>
    <g id="line2d_28">
     <path d="M 56.72 39.978437 
L 76.72 39.978437 
" style="fill: none; stroke-dasharray: 1.5,2.475; stroke-dashoffset: 0; stroke: #009933; stroke-width: 1.5"/>
    </g>
    <g id="line2d_29"/>
    <g id="text_17">
     <!-- Java Ver1 -->
     <g transform="translate(84.72 43.478437) scale(0.1 -0.1)">
      <defs>
       <path id="DejaVuSans-4a" d="M 628 4666 
L 1259 4666 
L 1259 325 
Q 1259 -519 939 -900 
Q 619 -1281 -91 -1281 
L -331 -1281 
L -331 -750 
L -134 -750 
Q 284 -750 456 -515 
Q 628 -281 628 325 
L 628 4666 
z
" transform="scale(0.015625)"/>
       <path id="DejaVuSans-76" d="M 191 3500 
L 800 3500 
L 1894 563 
L 2988 3500 
L 3597 3500 
L 2284 0 
L 1503 0 
L 191 3500 
z
" transform="scale(0.015625)"/>
       <path id="DejaVuSans-56" d="M 1831 0 
L 50 4666 
L 709 4666 
L 2188 738 
L 3669 4666 
L 4325 4666 
L 2547 0 
L 1831 0 
z
" transform="scale(0.015625)"/>
       <path id="DejaVuSans-bd" d="M 488 2431 
L 1125 2431 
L 1125 4341 
L 428 4213 
L 428 4575 
L 1147 4697 
L 1575 4697 
L 1575 2431 
L 2216 2431 
L 2216 2088 
L 488 2088 
L 488 2431 
z
M 4470 332 
L 5795 332 
L 5795 -24 
L 3926 -24 
L 3926 319 
Q 4032 416 4229 591 
Q 5304 1544 5304 1838 
Q 5304 2044 5141 2170 
Q 4979 2297 4713 2297 
Q 4551 2297 4360 2242 
Q 4170 2188 3945 2079 
L 3945 2463 
Q 4185 2551 4393 2594 
Q 4601 2638 4779 2638 
Q 5232 2638 5504 2432 
Q 5776 2226 5776 1888 
Q 5776 1454 4741 566 
Q 4566 416 4470 332 
z
M 4309 4750 
L 4809 4750 
L 1896 -91 
L 1396 -91 
L 4309 4750 
z
" transform="scale(0.015625)"/>
      </defs>
      <use xlink:href="#DejaVuSans-4a"/>
      <use xlink:href="#DejaVuSans-61" x="29.492188"/>
      <use xlink:href="#DejaVuSans-76" x="90.771484"/>
      <use xlink:href="#DejaVuSans-61" x="149.951172"/>
      <use xlink:href="#DejaVuSans-20" x="211.230469"/>
      <use xlink:href="#DejaVuSans-56" x="243.017578"/>
      <use xlink:href="#DejaVuSans-65" x="303.675781"/>
      <use xlink:href="#DejaVuSans-72" x="365.199219"/>
      <use xlink:href="#DejaVuSans-31" x="406.3125"/>
      <use xlink:href="#DejaVuSans-bd" x="469.935547"/>
     </g>
    </g>
    <g id="LineCollection_6">
     <path d="M 66.72 59.656563 
L 66.72 49.656563 
" style="fill: none; stroke: #009933; stroke-width: 1.5"/>
    </g>
    <g id="line2d_30">
     <g>
      <use xlink:href="#m567d63a80a" x="66.72" y="59.656563" style="fill: #009933; stroke: #009933"/>
     </g>
    </g>
    <g id="line2d_31">
     <g>
      <use xlink:href="#m567d63a80a" x="66.72" y="49.656563" style="fill: #009933; stroke: #009933"/>
     </g>
    </g>
    <g id="line2d_32">
     <path d="M 56.72 54.656563 
L 76.72 54.656563 
" style="fill: none; stroke: #009933; stroke-width: 1.5; stroke-linecap: square"/>
    </g>
    <g id="line2d_33"/>
    <g id="text_18">
     <!-- Java Ver2 -->
     <g transform="translate(84.72 58.156563) scale(0.1 -0.1)">
      <use xlink:href="#DejaVuSans-4a"/>
      <use xlink:href="#DejaVuSans-61" x="29.492188"/>
      <use xlink:href="#DejaVuSans-76" x="90.771484"/>
      <use xlink:href="#DejaVuSans-61" x="149.951172"/>
      <use xlink:href="#DejaVuSans-20" x="211.230469"/>
      <use xlink:href="#DejaVuSans-56" x="243.017578"/>
      <use xlink:href="#DejaVuSans-65" x="303.675781"/>
      <use xlink:href="#DejaVuSans-72" x="365.199219"/>
      <use xlink:href="#DejaVuSans-32" x="406.3125"/>
      <use xlink:href="#DejaVuSans-bd" x="469.935547"/>
     </g>
    </g>
    <g id="LineCollection_7">
     <path d="M 66.72 74.334687 
L 66.72 64.334687 
" style="fill: none; stroke: #cc0033; stroke-width: 1.5"/>
    </g>
    <g id="line2d_34">
     <g>
      <use xlink:href="#md3fe7ae338" x="66.72" y="74.334687" style="fill: #cc0033; stroke: #cc0033"/>
     </g>
    </g>
    <g id="line2d_35">
     <g>
      <use xlink:href="#md3fe7ae338" x="66.72" y="64.334687" style="fill: #cc0033; stroke: #cc0033"/>
     </g>
    </g>
    <g id="line2d_36">
     <path d="M 56.72 69.334687 
L 76.72 69.334687 
" style="fill: none; stroke-dasharray: 1.5,2.475; stroke-dashoffset: 0; stroke: #cc0033; stroke-width: 1.5"/>
    </g>
    <g id="line2d_37"/>
    <g id="text_19">
     <!-- Rust Ver1 -->
     <g transform="translate(84.72 72.834687) scale(0.1 -0.1)">
      <defs>
       <path id="DejaVuSans-52" d="M 2841 2188 
Q 3044 2119 3236 1894 
Q 3428 1669 3622 1275 
L 4263 0 
L 3584 0 
L 2988 1197 
Q 2756 1666 2539 1819 
Q 2322 1972 1947 1972 
L 1259 1972 
L 1259 0 
L 628 0 
L 628 4666 
L 2053 4666 
Q 2853 4666 3247 4331 
Q 3641 3997 3641 3322 
Q 3641 2881 3436 2590 
Q 3231 2300 2841 2188 
z
M 1259 4147 
L 1259 2491 
L 2053 2491 
Q 2509 2491 2742 2702 
Q 2975 2913 2975 3322 
Q 2975 3731 2742 3939 
Q 2509 4147 2053 4147 
L 1259 4147 
z
" transform="scale(0.015625)"/>
       <path id="DejaVuSans-75" d="M 544 1381 
L 544 3500 
L 1119 3500 
L 1119 1403 
Q 1119 906 1312 657 
Q 1506 409 1894 409 
Q 2359 409 2629 706 
Q 2900 1003 2900 1516 
L 2900 3500 
L 3475 3500 
L 3475 0 
L 2900 0 
L 2900 538 
Q 2691 219 2414 64 
Q 2138 -91 1772 -91 
Q 1169 -91 856 284 
Q 544 659 544 1381 
z
M 1991 3584 
L 1991 3584 
z
" transform="scale(0.015625)"/>
      </defs>
      <use xlink:href="#DejaVuSans-52"/>
      <use xlink:href="#DejaVuSans-75" x="64.982422"/>
      <use xlink:href="#DejaVuSans-73" x="128.361328"/>
      <use xlink:href="#DejaVuSans-74" x="180.460938"/>
      <use xlink:href="#DejaVuSans-20" x="219.669922"/>
      <use xlink:href="#DejaVuSans-56" x="251.457031"/>
      <use xlink:href="#DejaVuSans-65" x="312.115234"/>
      <use xlink:href="#DejaVuSans-72" x="373.638672"/>
      <use xlink:href="#DejaVuSans-31" x="414.751953"/>
      <use xlink:href="#DejaVuSans-bd" x="478.375"/>
     </g>
    </g>
    <g id="LineCollection_8">
     <path d="M 66.72 89.012812 
L 66.72 79.012812 
" style="fill: none; stroke: #cc0033; stroke-width: 1.5"/>
    </g>
    <g id="line2d_38">
     <g>
      <use xlink:href="#md3fe7ae338" x="66.72" y="89.012812" style="fill: #cc0033; stroke: #cc0033"/>
     </g>
    </g>
    <g id="line2d_39">
     <g>
      <use xlink:href="#md3fe7ae338" x="66.72" y="79.012812" style="fill: #cc0033; stroke: #cc0033"/>
     </g>
    </g>
    <g id="line2d_40">
     <path d="M 56.72 84.012812 
L 76.72 84.012812 
" style="fill: none; stroke: #cc0033; stroke-width: 1.5; stroke-linecap: square"/>
    </g>
    <g id="line2d_41"/>
    <g id="text_20">
     <!-- Rust Ver2 -->
     <g transform="translate(84.72 87.512812) scale(0.1 -0.1)">
      <use xlink:href="#DejaVuSans-52"/>
      <use xlink:href="#DejaVuSans-75" x="64.982422"/>
      <use xlink:href="#DejaVuSans-73" x="128.361328"/>
      <use xlink:href="#DejaVuSans-74" x="180.460938"/>
      <use xlink:href="#DejaVuSans-20" x="219.669922"/>
      <use xlink:href="#DejaVuSans-56" x="251.457031"/>
      <use xlink:href="#DejaVuSans-65" x="312.115234"/>
      <use xlink:href="#DejaVuSans-72" x="373.638672"/>
      <use xlink:href="#DejaVuSans-32" x="414.751953"/>
      <use xlink:href="#DejaVuSans-bd" x="478.375"/>
     </g>
    </g>
   </g>
  </g>
 </g>
 <defs>
  <clipPath id="pd2621ff3a7">
   <rect x="47.72" y="26.88" width="517.48" height="363.16"/>
  </clipPath>
 </defs>
</svg>
