<?xml version="1.0" encoding="utf-8" standalone="no"?>
<!DOCTYPE svg PUBLIC "-//W3C//DTD SVG 1.1//EN"
  "http://www.w3.org/Graphics/SVG/1.1/DTD/svg11.dtd">
<svg xmlns:xlink="http://www.w3.org/1999/xlink" width="576pt" height="432pt" viewBox="0 0 576 432" xmlns="http://www.w3.org/2000/svg" version="1.1">
 <metadata>
  <rdf:RDF xmlns:dc="http://purl.org/dc/elements/1.1/" xmlns:cc="http://creativecommons.org/ns#" xmlns:rdf="http://www.w3.org/1999/02/22-rdf-syntax-ns#">
   <cc:Work>
    <dc:type rdf:resource="http://purl.org/dc/dcmitype/StillImage"/>
    <dc:date>2025-08-28T00:50:59.361939</dc:date>
    <dc:format>image/svg+xml</dc:format>
    <dc:creator>
     <cc:Agent>
      <dc:title>Matplotlib v3.10.5, https://matplotlib.org/</dc:title>
     </cc:Agent>
    </dc:creator>
   </cc:Work>
  </rdf:RDF>
 </metadata>
 <defs>
  <style type="text/css">*{stroke-linejoin: round; stroke-linecap: butt}</style>
 </defs>
 <g id="figure_1">
  <g id="patch_1">
   <path d="M 0 432 
L 576 432 
L 576 0 
L 0 0 
z
" style="fill: #ffffff"/>
  </g>
  <g id="axes_1">
   <g id="patch_2">
    <path d="M 54.02 390.04 
L 565.2 390.04 
L 565.2 26.88 
L 54.02 26.88 
z
" style="fill: #ffffff"/>
   </g>
   <g id="matplotlib.axis_1">
    <g id="xtick_1">
     <g id="line2d_1">
      <defs>
       <path id="mc74f61fcfc" d="M 0 0 
L 0 3.5 
" style="stroke: #000000; stroke-width: 0.8"/>
      </defs>
      <g>
       <use xlink:href="#mc74f61fcfc" x="77.255455" y="390.04" style="stroke: #000000; stroke-width: 0.8"/>
      </g>
     </g>
     <g id="text_1">
      <!-- 2000 -->
      <g transform="translate(64.530455 404.638438) scale(0.1 -0.1)">
       <defs>
        <path id="DejaVuSans-32" d="M 1228 531 
L 3431 531 
L 3431 0 
L 469 0 
L 469 531 
Q 828 903 1448 1529 
Q 2069 2156 2228 2338 
Q 2531 2678 2651 2914 
Q 2772 3150 2772 3378 
Q 2772 3750 2511 3984 
Q 2250 4219 1831 4219 
Q 1534 4219 1204 4116 
Q 875 4013 500 3803 
L 500 4441 
Q 881 4594 1212 4672 
Q 1544 4750 1819 4750 
Q 2544 4750 2975 4387 
Q 3406 4025 3406 3419 
Q 3406 3131 3298 2873 
Q 3191 2616 2906 2266 
Q 2828 2175 2409 1742 
Q 1991 1309 1228 531 
z
" transform="scale(0.015625)"/>
        <path id="DejaVuSans-30" d="M 2034 4250 
Q 1547 4250 1301 3770 
Q 1056 3291 1056 2328 
Q 1056 1369 1301 889 
Q 1547 409 2034 409 
Q 2525 409 2770 889 
Q 3016 1369 3016 2328 
Q 3016 3291 2770 3770 
Q 2525 4250 2034 4250 
z
M 2034 4750 
Q 2819 4750 3233 4129 
Q 3647 3509 3647 2328 
Q 3647 1150 3233 529 
Q 2819 -91 2034 -91 
Q 1250 -91 836 529 
Q 422 1150 422 2328 
Q 422 3509 836 4129 
Q 1250 4750 2034 4750 
z
" transform="scale(0.015625)"/>
       </defs>
       <use xlink:href="#DejaVuSans-32"/>
       <use xlink:href="#DejaVuSans-30" transform="translate(63.623047 0)"/>
       <use xlink:href="#DejaVuSans-30" transform="translate(127.246094 0)"/>
       <use xlink:href="#DejaVuSans-30" transform="translate(190.869141 0)"/>
      </g>
     </g>
    </g>
    <g id="xtick_2">
     <g id="line2d_2">
      <g>
       <use xlink:href="#mc74f61fcfc" x="170.197273" y="390.04" style="stroke: #000000; stroke-width: 0.8"/>
      </g>
     </g>
     <g id="text_2">
      <!-- 2200 -->
      <g transform="translate(157.472273 404.638438) scale(0.1 -0.1)">
       <use xlink:href="#DejaVuSans-32"/>
       <use xlink:href="#DejaVuSans-32" transform="translate(63.623047 0)"/>
       <use xlink:href="#DejaVuSans-30" transform="translate(127.246094 0)"/>
       <use xlink:href="#DejaVuSans-30" transform="translate(190.869141 0)"/>
      </g>
     </g>
    </g>
    <g id="xtick_3">
     <g id="line2d_3">
      <g>
       <use xlink:href="#mc74f61fcfc" x="263.139091" y="390.04" style="stroke: #000000; stroke-width: 0.8"/>
      </g>
     </g>
     <g id="text_3">
      <!-- 2400 -->
      <g transform="translate(250.414091 404.638438) scale(0.1 -0.1)">
       <defs>
        <path id="DejaVuSans-34" d="M 2419 4116 
L 825 1625 
L 2419 1625 
L 2419 4116 
z
M 2253 4666 
L 3047 4666 
L 3047 1625 
L 3713 1625 
L 3713 1100 
L 3047 1100 
L 3047 0 
L 2419 0 
L 2419 1100 
L 313 1100 
L 313 1709 
L 2253 4666 
z
" transform="scale(0.015625)"/>
       </defs>
       <use xlink:href="#DejaVuSans-32"/>
       <use xlink:href="#DejaVuSans-34" transform="translate(63.623047 0)"/>
       <use xlink:href="#DejaVuSans-30" transform="translate(127.246094 0)"/>
       <use xlink:href="#DejaVuSans-30" transform="translate(190.869141 0)"/>
      </g>
     </g>
    </g>
    <g id="xtick_4">
     <g id="line2d_4">
      <g>
       <use xlink:href="#mc74f61fcfc" x="356.080909" y="390.04" style="stroke: #000000; stroke-width: 0.8"/>
      </g>
     </g>
     <g id="text_4">
      <!-- 2600 -->
      <g transform="translate(343.355909 404.638438) scale(0.1 -0.1)">
       <defs>
        <path id="DejaVuSans-36" d="M 2113 2584 
Q 1688 2584 1439 2293 
Q 1191 2003 1191 1497 
Q 1191 994 1439 701 
Q 1688 409 2113 409 
Q 2538 409 2786 701 
Q 3034 994 3034 1497 
Q 3034 2003 2786 2293 
Q 2538 2584 2113 2584 
z
M 3366 4563 
L 3366 3988 
Q 3128 4100 2886 4159 
Q 2644 4219 2406 4219 
Q 1781 4219 1451 3797 
Q 1122 3375 1075 2522 
Q 1259 2794 1537 2939 
Q 1816 3084 2150 3084 
Q 2853 3084 3261 2657 
Q 3669 2231 3669 1497 
Q 3669 778 3244 343 
Q 2819 -91 2113 -91 
Q 1303 -91 875 529 
Q 447 1150 447 2328 
Q 447 3434 972 4092 
Q 1497 4750 2381 4750 
Q 2619 4750 2861 4703 
Q 3103 4656 3366 4563 
z
" transform="scale(0.015625)"/>
       </defs>
       <use xlink:href="#DejaVuSans-32"/>
       <use xlink:href="#DejaVuSans-36" transform="translate(63.623047 0)"/>
       <use xlink:href="#DejaVuSans-30" transform="translate(127.246094 0)"/>
       <use xlink:href="#DejaVuSans-30" transform="translate(190.869141 0)"/>
      </g>
     </g>
    </g>
    <g id="xtick_5">
     <g id="line2d_5">
      <g>
       <use xlink:href="#mc74f61fcfc" x="449.022727" y="390.04" style="stroke: #000000; stroke-width: 0.8"/>
      </g>
     </g>
     <g id="text_5">
      <!-- 2800 -->
      <g transform="translate(436.297727 404.638438) scale(0.1 -0.1)">
       <defs>
        <path id="DejaVuSans-38" d="M 2034 2216 
Q 1584 2216 1326 1975 
Q 1069 1734 1069 1313 
Q 1069 891 1326 650 
Q 1584 409 2034 409 
Q 2484 409 2743 651 
Q 3003 894 3003 1313 
Q 3003 1734 2745 1975 
Q 2488 2216 2034 2216 
z
M 1403 2484 
Q 997 2584 770 2862 
Q 544 3141 544 3541 
Q 544 4100 942 4425 
Q 1341 4750 2034 4750 
Q 2731 4750 3128 4425 
Q 3525 4100 3525 3541 
Q 3525 3141 3298 2862 
Q 3072 2584 2669 2484 
Q 3125 2378 3379 2068 
Q 3634 1759 3634 1313 
Q 3634 634 3220 271 
Q 2806 -91 2034 -91 
Q 1263 -91 848 271 
Q 434 634 434 1313 
Q 434 1759 690 2068 
Q 947 2378 1403 2484 
z
M 1172 3481 
Q 1172 3119 1398 2916 
Q 1625 2713 2034 2713 
Q 2441 2713 2670 2916 
Q 2900 3119 2900 3481 
Q 2900 3844 2670 4047 
Q 2441 4250 2034 4250 
Q 1625 4250 1398 4047 
Q 1172 3844 1172 3481 
z
" transform="scale(0.015625)"/>
       </defs>
       <use xlink:href="#DejaVuSans-32"/>
       <use xlink:href="#DejaVuSans-38" transform="translate(63.623047 0)"/>
       <use xlink:href="#DejaVuSans-30" transform="translate(127.246094 0)"/>
       <use xlink:href="#DejaVuSans-30" transform="translate(190.869141 0)"/>
      </g>
     </g>
    </g>
    <g id="xtick_6">
     <g id="line2d_6">
      <g>
       <use xlink:href="#mc74f61fcfc" x="541.964545" y="390.04" style="stroke: #000000; stroke-width: 0.8"/>
      </g>
     </g>
     <g id="text_6">
      <!-- 3000 -->
      <g transform="translate(529.239545 404.638438) scale(0.1 -0.1)">
       <defs>
        <path id="DejaVuSans-33" d="M 2597 2516 
Q 3050 2419 3304 2112 
Q 3559 1806 3559 1356 
Q 3559 666 3084 287 
Q 2609 -91 1734 -91 
Q 1441 -91 1130 -33 
Q 819 25 488 141 
L 488 750 
Q 750 597 1062 519 
Q 1375 441 1716 441 
Q 2309 441 2620 675 
Q 2931 909 2931 1356 
Q 2931 1769 2642 2001 
Q 2353 2234 1838 2234 
L 1294 2234 
L 1294 2753 
L 1863 2753 
Q 2328 2753 2575 2939 
Q 2822 3125 2822 3475 
Q 2822 3834 2567 4026 
Q 2313 4219 1838 4219 
Q 1578 4219 1281 4162 
Q 984 4106 628 3988 
L 628 4550 
Q 988 4650 1302 4700 
Q 1616 4750 1894 4750 
Q 2613 4750 3031 4423 
Q 3450 4097 3450 3541 
Q 3450 3153 3228 2886 
Q 3006 2619 2597 2516 
z
" transform="scale(0.015625)"/>
       </defs>
       <use xlink:href="#DejaVuSans-33"/>
       <use xlink:href="#DejaVuSans-30" transform="translate(63.623047 0)"/>
       <use xlink:href="#DejaVuSans-30" transform="translate(127.246094 0)"/>
       <use xlink:href="#DejaVuSans-30" transform="translate(190.869141 0)"/>
      </g>
     </g>
    </g>
    <g id="text_7">
     <!-- Size (#edges) -->
     <g transform="translate(274.559219 418.316562) scale(0.1 -0.1)">
      <defs>
       <path id="DejaVuSans-53" d="M 3425 4513 
L 3425 3897 
Q 3066 4069 2747 4153 
Q 2428 4238 2131 4238 
Q 1616 4238 1336 4038 
Q 1056 3838 1056 3469 
Q 1056 3159 1242 3001 
Q 1428 2844 1947 2747 
L 2328 2669 
Q 3034 2534 3370 2195 
Q 3706 1856 3706 1288 
Q 3706 609 3251 259 
Q 2797 -91 1919 -91 
Q 1588 -91 1214 -16 
Q 841 59 441 206 
L 441 856 
Q 825 641 1194 531 
Q 1563 422 1919 422 
Q 2459 422 2753 634 
Q 3047 847 3047 1241 
Q 3047 1584 2836 1778 
Q 2625 1972 2144 2069 
L 1759 2144 
Q 1053 2284 737 2584 
Q 422 2884 422 3419 
Q 422 4038 858 4394 
Q 1294 4750 2059 4750 
Q 2388 4750 2728 4690 
Q 3069 4631 3425 4513 
z
" transform="scale(0.015625)"/>
       <path id="DejaVuSans-69" d="M 603 3500 
L 1178 3500 
L 1178 0 
L 603 0 
L 603 3500 
z
M 603 4863 
L 1178 4863 
L 1178 4134 
L 603 4134 
L 603 4863 
z
" transform="scale(0.015625)"/>
       <path id="DejaVuSans-7a" d="M 353 3500 
L 3084 3500 
L 3084 2975 
L 922 459 
L 3084 459 
L 3084 0 
L 275 0 
L 275 525 
L 2438 3041 
L 353 3041 
L 353 3500 
z
" transform="scale(0.015625)"/>
       <path id="DejaVuSans-65" d="M 3597 1894 
L 3597 1613 
L 953 1613 
Q 991 1019 1311 708 
Q 1631 397 2203 397 
Q 2534 397 2845 478 
Q 3156 559 3463 722 
L 3463 178 
Q 3153 47 2828 -22 
Q 2503 -91 2169 -91 
Q 1331 -91 842 396 
Q 353 884 353 1716 
Q 353 2575 817 3079 
Q 1281 3584 2069 3584 
Q 2775 3584 3186 3129 
Q 3597 2675 3597 1894 
z
M 3022 2063 
Q 3016 2534 2758 2815 
Q 2500 3097 2075 3097 
Q 1594 3097 1305 2825 
Q 1016 2553 972 2059 
L 3022 2063 
z
" transform="scale(0.015625)"/>
       <path id="DejaVuSans-20" transform="scale(0.015625)"/>
       <path id="DejaVuSans-28" d="M 1984 4856 
Q 1566 4138 1362 3434 
Q 1159 2731 1159 2009 
Q 1159 1288 1364 580 
Q 1569 -128 1984 -844 
L 1484 -844 
Q 1016 -109 783 600 
Q 550 1309 550 2009 
Q 550 2706 781 3412 
Q 1013 4119 1484 4856 
L 1984 4856 
z
" transform="scale(0.015625)"/>
       <path id="DejaVuSans-23" d="M 3272 2816 
L 2363 2816 
L 2100 1772 
L 3016 1772 
L 3272 2816 
z
M 2803 4594 
L 2478 3297 
L 3391 3297 
L 3719 4594 
L 4219 4594 
L 3897 3297 
L 4872 3297 
L 4872 2816 
L 3775 2816 
L 3519 1772 
L 4513 1772 
L 4513 1294 
L 3397 1294 
L 3072 0 
L 2572 0 
L 2894 1294 
L 1978 1294 
L 1656 0 
L 1153 0 
L 1478 1294 
L 494 1294 
L 494 1772 
L 1594 1772 
L 1856 2816 
L 850 2816 
L 850 3297 
L 1978 3297 
L 2297 4594 
L 2803 4594 
z
" transform="scale(0.015625)"/>
       <path id="DejaVuSans-64" d="M 2906 2969 
L 2906 4863 
L 3481 4863 
L 3481 0 
L 2906 0 
L 2906 525 
Q 2725 213 2448 61 
Q 2172 -91 1784 -91 
Q 1150 -91 751 415 
Q 353 922 353 1747 
Q 353 2572 751 3078 
Q 1150 3584 1784 3584 
Q 2172 3584 2448 3432 
Q 2725 3281 2906 2969 
z
M 947 1747 
Q 947 1113 1208 752 
Q 1469 391 1925 391 
Q 2381 391 2643 752 
Q 2906 1113 2906 1747 
Q 2906 2381 2643 2742 
Q 2381 3103 1925 3103 
Q 1469 3103 1208 2742 
Q 947 2381 947 1747 
z
" transform="scale(0.015625)"/>
       <path id="DejaVuSans-67" d="M 2906 1791 
Q 2906 2416 2648 2759 
Q 2391 3103 1925 3103 
Q 1463 3103 1205 2759 
Q 947 2416 947 1791 
Q 947 1169 1205 825 
Q 1463 481 1925 481 
Q 2391 481 2648 825 
Q 2906 1169 2906 1791 
z
M 3481 434 
Q 3481 -459 3084 -895 
Q 2688 -1331 1869 -1331 
Q 1566 -1331 1297 -1286 
Q 1028 -1241 775 -1147 
L 775 -588 
Q 1028 -725 1275 -790 
Q 1522 -856 1778 -856 
Q 2344 -856 2625 -561 
Q 2906 -266 2906 331 
L 2906 616 
Q 2728 306 2450 153 
Q 2172 0 1784 0 
Q 1141 0 747 490 
Q 353 981 353 1791 
Q 353 2603 747 3093 
Q 1141 3584 1784 3584 
Q 2172 3584 2450 3431 
Q 2728 3278 2906 2969 
L 2906 3500 
L 3481 3500 
L 3481 434 
z
" transform="scale(0.015625)"/>
       <path id="DejaVuSans-73" d="M 2834 3397 
L 2834 2853 
Q 2591 2978 2328 3040 
Q 2066 3103 1784 3103 
Q 1356 3103 1142 2972 
Q 928 2841 928 2578 
Q 928 2378 1081 2264 
Q 1234 2150 1697 2047 
L 1894 2003 
Q 2506 1872 2764 1633 
Q 3022 1394 3022 966 
Q 3022 478 2636 193 
Q 2250 -91 1575 -91 
Q 1294 -91 989 -36 
Q 684 19 347 128 
L 347 722 
Q 666 556 975 473 
Q 1284 391 1588 391 
Q 1994 391 2212 530 
Q 2431 669 2431 922 
Q 2431 1156 2273 1281 
Q 2116 1406 1581 1522 
L 1381 1569 
Q 847 1681 609 1914 
Q 372 2147 372 2553 
Q 372 3047 722 3315 
Q 1072 3584 1716 3584 
Q 2034 3584 2315 3537 
Q 2597 3491 2834 3397 
z
" transform="scale(0.015625)"/>
       <path id="DejaVuSans-29" d="M 513 4856 
L 1013 4856 
Q 1481 4119 1714 3412 
Q 1947 2706 1947 2009 
Q 1947 1309 1714 600 
Q 1481 -109 1013 -844 
L 513 -844 
Q 928 -128 1133 580 
Q 1338 1288 1338 2009 
Q 1338 2731 1133 3434 
Q 928 4138 513 4856 
z
" transform="scale(0.015625)"/>
      </defs>
      <use xlink:href="#DejaVuSans-53"/>
      <use xlink:href="#DejaVuSans-69" transform="translate(63.476562 0)"/>
      <use xlink:href="#DejaVuSans-7a" transform="translate(91.259766 0)"/>
      <use xlink:href="#DejaVuSans-65" transform="translate(143.75 0)"/>
      <use xlink:href="#DejaVuSans-20" transform="translate(205.273438 0)"/>
      <use xlink:href="#DejaVuSans-28" transform="translate(237.060547 0)"/>
      <use xlink:href="#DejaVuSans-23" transform="translate(276.074219 0)"/>
      <use xlink:href="#DejaVuSans-65" transform="translate(359.863281 0)"/>
      <use xlink:href="#DejaVuSans-64" transform="translate(421.386719 0)"/>
      <use xlink:href="#DejaVuSans-67" transform="translate(484.863281 0)"/>
      <use xlink:href="#DejaVuSans-65" transform="translate(548.339844 0)"/>
      <use xlink:href="#DejaVuSans-73" transform="translate(609.863281 0)"/>
      <use xlink:href="#DejaVuSans-29" transform="translate(661.962891 0)"/>
     </g>
    </g>
   </g>
   <g id="matplotlib.axis_2">
    <g id="ytick_1">
     <g id="line2d_7">
      <defs>
       <path id="m7eb1c47a8f" d="M 0 0 
L -3.5 0 
" style="stroke: #000000; stroke-width: 0.8"/>
      </defs>
      <g>
       <use xlink:href="#m7eb1c47a8f" x="54.02" y="378.280374" style="stroke: #000000; stroke-width: 0.8"/>
      </g>
     </g>
     <g id="text_8">
      <!-- 0.00 -->
      <g transform="translate(24.754375 382.079593) scale(0.1 -0.1)">
       <defs>
        <path id="DejaVuSans-2e" d="M 684 794 
L 1344 794 
L 1344 0 
L 684 0 
L 684 794 
z
" transform="scale(0.015625)"/>
       </defs>
       <use xlink:href="#DejaVuSans-30"/>
       <use xlink:href="#DejaVuSans-2e" transform="translate(63.623047 0)"/>
       <use xlink:href="#DejaVuSans-30" transform="translate(95.410156 0)"/>
       <use xlink:href="#DejaVuSans-30" transform="translate(159.033203 0)"/>
      </g>
     </g>
    </g>
    <g id="ytick_2">
     <g id="line2d_8">
      <g>
       <use xlink:href="#m7eb1c47a8f" x="54.02" y="318.153133" style="stroke: #000000; stroke-width: 0.8"/>
      </g>
     </g>
     <g id="text_9">
      <!-- 0.05 -->
      <g transform="translate(24.754375 321.952352) scale(0.1 -0.1)">
       <defs>
        <path id="DejaVuSans-35" d="M 691 4666 
L 3169 4666 
L 3169 4134 
L 1269 4134 
L 1269 2991 
Q 1406 3038 1543 3061 
Q 1681 3084 1819 3084 
Q 2600 3084 3056 2656 
Q 3513 2228 3513 1497 
Q 3513 744 3044 326 
Q 2575 -91 1722 -91 
Q 1428 -91 1123 -41 
Q 819 9 494 109 
L 494 744 
Q 775 591 1075 516 
Q 1375 441 1709 441 
Q 2250 441 2565 725 
Q 2881 1009 2881 1497 
Q 2881 1984 2565 2268 
Q 2250 2553 1709 2553 
Q 1456 2553 1204 2497 
Q 953 2441 691 2322 
L 691 4666 
z
" transform="scale(0.015625)"/>
       </defs>
       <use xlink:href="#DejaVuSans-30"/>
       <use xlink:href="#DejaVuSans-2e" transform="translate(63.623047 0)"/>
       <use xlink:href="#DejaVuSans-30" transform="translate(95.410156 0)"/>
       <use xlink:href="#DejaVuSans-35" transform="translate(159.033203 0)"/>
      </g>
     </g>
    </g>
    <g id="ytick_3">
     <g id="line2d_9">
      <g>
       <use xlink:href="#m7eb1c47a8f" x="54.02" y="258.025891" style="stroke: #000000; stroke-width: 0.8"/>
      </g>
     </g>
     <g id="text_10">
      <!-- 0.10 -->
      <g transform="translate(24.754375 261.82511) scale(0.1 -0.1)">
       <defs>
        <path id="DejaVuSans-31" d="M 794 531 
L 1825 531 
L 1825 4091 
L 703 3866 
L 703 4441 
L 1819 4666 
L 2450 4666 
L 2450 531 
L 3481 531 
L 3481 0 
L 794 0 
L 794 531 
z
" transform="scale(0.015625)"/>
       </defs>
       <use xlink:href="#DejaVuSans-30"/>
       <use xlink:href="#DejaVuSans-2e" transform="translate(63.623047 0)"/>
       <use xlink:href="#DejaVuSans-31" transform="translate(95.410156 0)"/>
       <use xlink:href="#DejaVuSans-30" transform="translate(159.033203 0)"/>
      </g>
     </g>
    </g>
    <g id="ytick_4">
     <g id="line2d_10">
      <g>
       <use xlink:href="#m7eb1c47a8f" x="54.02" y="197.89865" style="stroke: #000000; stroke-width: 0.8"/>
      </g>
     </g>
     <g id="text_11">
      <!-- 0.15 -->
      <g transform="translate(24.754375 201.697869) scale(0.1 -0.1)">
       <use xlink:href="#DejaVuSans-30"/>
       <use xlink:href="#DejaVuSans-2e" transform="translate(63.623047 0)"/>
       <use xlink:href="#DejaVuSans-31" transform="translate(95.410156 0)"/>
       <use xlink:href="#DejaVuSans-35" transform="translate(159.033203 0)"/>
      </g>
     </g>
    </g>
    <g id="ytick_5">
     <g id="line2d_11">
      <g>
       <use xlink:href="#m7eb1c47a8f" x="54.02" y="137.771409" style="stroke: #000000; stroke-width: 0.8"/>
      </g>
     </g>
     <g id="text_12">
      <!-- 0.20 -->
      <g transform="translate(24.754375 141.570627) scale(0.1 -0.1)">
       <use xlink:href="#DejaVuSans-30"/>
       <use xlink:href="#DejaVuSans-2e" transform="translate(63.623047 0)"/>
       <use xlink:href="#DejaVuSans-32" transform="translate(95.410156 0)"/>
       <use xlink:href="#DejaVuSans-30" transform="translate(159.033203 0)"/>
      </g>
     </g>
    </g>
    <g id="ytick_6">
     <g id="line2d_12">
      <g>
       <use xlink:href="#m7eb1c47a8f" x="54.02" y="77.644167" style="stroke: #000000; stroke-width: 0.8"/>
      </g>
     </g>
     <g id="text_13">
      <!-- 0.25 -->
      <g transform="translate(24.754375 81.443386) scale(0.1 -0.1)">
       <use xlink:href="#DejaVuSans-30"/>
       <use xlink:href="#DejaVuSans-2e" transform="translate(63.623047 0)"/>
       <use xlink:href="#DejaVuSans-32" transform="translate(95.410156 0)"/>
       <use xlink:href="#DejaVuSans-35" transform="translate(159.033203 0)"/>
      </g>
     </g>
    </g>
    <g id="text_14">
     <!-- Seconds spent -->
     <g transform="translate(18.674688 245.040469) rotate(-90) scale(0.1 -0.1)">
      <defs>
       <path id="DejaVuSans-63" d="M 3122 3366 
L 3122 2828 
Q 2878 2963 2633 3030 
Q 2388 3097 2138 3097 
Q 1578 3097 1268 2742 
Q 959 2388 959 1747 
Q 959 1106 1268 751 
Q 1578 397 2138 397 
Q 2388 397 2633 464 
Q 2878 531 3122 666 
L 3122 134 
Q 2881 22 2623 -34 
Q 2366 -91 2075 -91 
Q 1284 -91 818 406 
Q 353 903 353 1747 
Q 353 2603 823 3093 
Q 1294 3584 2113 3584 
Q 2378 3584 2631 3529 
Q 2884 3475 3122 3366 
z
" transform="scale(0.015625)"/>
       <path id="DejaVuSans-6f" d="M 1959 3097 
Q 1497 3097 1228 2736 
Q 959 2375 959 1747 
Q 959 1119 1226 758 
Q 1494 397 1959 397 
Q 2419 397 2687 759 
Q 2956 1122 2956 1747 
Q 2956 2369 2687 2733 
Q 2419 3097 1959 3097 
z
M 1959 3584 
Q 2709 3584 3137 3096 
Q 3566 2609 3566 1747 
Q 3566 888 3137 398 
Q 2709 -91 1959 -91 
Q 1206 -91 779 398 
Q 353 888 353 1747 
Q 353 2609 779 3096 
Q 1206 3584 1959 3584 
z
" transform="scale(0.015625)"/>
       <path id="DejaVuSans-6e" d="M 3513 2113 
L 3513 0 
L 2938 0 
L 2938 2094 
Q 2938 2591 2744 2837 
Q 2550 3084 2163 3084 
Q 1697 3084 1428 2787 
Q 1159 2491 1159 1978 
L 1159 0 
L 581 0 
L 581 3500 
L 1159 3500 
L 1159 2956 
Q 1366 3272 1645 3428 
Q 1925 3584 2291 3584 
Q 2894 3584 3203 3211 
Q 3513 2838 3513 2113 
z
" transform="scale(0.015625)"/>
       <path id="DejaVuSans-70" d="M 1159 525 
L 1159 -1331 
L 581 -1331 
L 581 3500 
L 1159 3500 
L 1159 2969 
Q 1341 3281 1617 3432 
Q 1894 3584 2278 3584 
Q 2916 3584 3314 3078 
Q 3713 2572 3713 1747 
Q 3713 922 3314 415 
Q 2916 -91 2278 -91 
Q 1894 -91 1617 61 
Q 1341 213 1159 525 
z
M 3116 1747 
Q 3116 2381 2855 2742 
Q 2594 3103 2138 3103 
Q 1681 3103 1420 2742 
Q 1159 2381 1159 1747 
Q 1159 1113 1420 752 
Q 1681 391 2138 391 
Q 2594 391 2855 752 
Q 3116 1113 3116 1747 
z
" transform="scale(0.015625)"/>
       <path id="DejaVuSans-74" d="M 1172 4494 
L 1172 3500 
L 2356 3500 
L 2356 3053 
L 1172 3053 
L 1172 1153 
Q 1172 725 1289 603 
Q 1406 481 1766 481 
L 2356 481 
L 2356 0 
L 1766 0 
Q 1100 0 847 248 
Q 594 497 594 1153 
L 594 3053 
L 172 3053 
L 172 3500 
L 594 3500 
L 594 4494 
L 1172 4494 
z
" transform="scale(0.015625)"/>
      </defs>
      <use xlink:href="#DejaVuSans-53"/>
      <use xlink:href="#DejaVuSans-65" transform="translate(63.476562 0)"/>
      <use xlink:href="#DejaVuSans-63" transform="translate(125 0)"/>
      <use xlink:href="#DejaVuSans-6f" transform="translate(179.980469 0)"/>
      <use xlink:href="#DejaVuSans-6e" transform="translate(241.162109 0)"/>
      <use xlink:href="#DejaVuSans-64" transform="translate(304.541016 0)"/>
      <use xlink:href="#DejaVuSans-73" transform="translate(368.017578 0)"/>
      <use xlink:href="#DejaVuSans-20" transform="translate(420.117188 0)"/>
      <use xlink:href="#DejaVuSans-73" transform="translate(451.904297 0)"/>
      <use xlink:href="#DejaVuSans-70" transform="translate(504.003906 0)"/>
      <use xlink:href="#DejaVuSans-65" transform="translate(567.480469 0)"/>
      <use xlink:href="#DejaVuSans-6e" transform="translate(629.003906 0)"/>
      <use xlink:href="#DejaVuSans-74" transform="translate(692.382812 0)"/>
     </g>
    </g>
   </g>
   <g id="LineCollection_1">
    <path d="M 77.255455 358.760667 
L 77.255455 358.31332 
" clip-path="url(#p6529becad3)" style="fill: none; stroke: #1f77b4; stroke-width: 1.5"/>
    <path d="M 100.490909 356.349564 
L 100.490909 355.142209 
" clip-path="url(#p6529becad3)" style="fill: none; stroke: #1f77b4; stroke-width: 1.5"/>
    <path d="M 123.726364 353.571686 
L 123.726364 351.586284 
" clip-path="url(#p6529becad3)" style="fill: none; stroke: #1f77b4; stroke-width: 1.5"/>
    <path d="M 146.961818 350.423423 
L 146.961818 349.66582 
" clip-path="url(#p6529becad3)" style="fill: none; stroke: #1f77b4; stroke-width: 1.5"/>
    <path d="M 170.197273 346.577685 
L 170.197273 345.77679 
" clip-path="url(#p6529becad3)" style="fill: none; stroke: #1f77b4; stroke-width: 1.5"/>
    <path d="M 193.432727 342.333904 
L 193.432727 342.080167 
" clip-path="url(#p6529becad3)" style="fill: none; stroke: #1f77b4; stroke-width: 1.5"/>
    <path d="M 216.668182 337.385432 
L 216.668182 335.264143 
" clip-path="url(#p6529becad3)" style="fill: none; stroke: #1f77b4; stroke-width: 1.5"/>
    <path d="M 239.903636 331.490558 
L 239.903636 331.223593 
" clip-path="url(#p6529becad3)" style="fill: none; stroke: #1f77b4; stroke-width: 1.5"/>
    <path d="M 263.139091 325.022069 
L 263.139091 322.500332 
" clip-path="url(#p6529becad3)" style="fill: none; stroke: #1f77b4; stroke-width: 1.5"/>
    <path d="M 286.374545 317.357048 
L 286.374545 316.793055 
" clip-path="url(#p6529becad3)" style="fill: none; stroke: #1f77b4; stroke-width: 1.5"/>
    <path d="M 309.61 309.700445 
L 309.61 307.298963 
" clip-path="url(#p6529becad3)" style="fill: none; stroke: #1f77b4; stroke-width: 1.5"/>
    <path d="M 332.845455 300.491357 
L 332.845455 297.938354 
" clip-path="url(#p6529becad3)" style="fill: none; stroke: #1f77b4; stroke-width: 1.5"/>
    <path d="M 356.080909 286.544242 
L 356.080909 284.074215 
" clip-path="url(#p6529becad3)" style="fill: none; stroke: #1f77b4; stroke-width: 1.5"/>
    <path d="M 379.316364 272.638014 
L 379.316364 270.395268 
" clip-path="url(#p6529becad3)" style="fill: none; stroke: #1f77b4; stroke-width: 1.5"/>
    <path d="M 402.551818 256.320683 
L 402.551818 253.702743 
" clip-path="url(#p6529becad3)" style="fill: none; stroke: #1f77b4; stroke-width: 1.5"/>
    <path d="M 425.787273 235.71147 
L 425.787273 234.962284 
" clip-path="url(#p6529becad3)" style="fill: none; stroke: #1f77b4; stroke-width: 1.5"/>
    <path d="M 449.022727 211.216834 
L 449.022727 207.770341 
" clip-path="url(#p6529becad3)" style="fill: none; stroke: #1f77b4; stroke-width: 1.5"/>
    <path d="M 472.258182 182.103224 
L 472.258182 176.365882 
" clip-path="url(#p6529becad3)" style="fill: none; stroke: #1f77b4; stroke-width: 1.5"/>
    <path d="M 495.493636 144.564584 
L 495.493636 142.342282 
" clip-path="url(#p6529becad3)" style="fill: none; stroke: #1f77b4; stroke-width: 1.5"/>
    <path d="M 518.729091 101.506264 
L 518.729091 96.864441 
" clip-path="url(#p6529becad3)" style="fill: none; stroke: #1f77b4; stroke-width: 1.5"/>
    <path d="M 541.964545 46.394837 
L 541.964545 43.387273 
" clip-path="url(#p6529becad3)" style="fill: none; stroke: #1f77b4; stroke-width: 1.5"/>
   </g>
   <g id="line2d_13">
    <defs>
     <path id="md8547b9e7e" d="M 3 0 
L -3 -0 
" style="stroke: #1f77b4"/>
    </defs>
    <g clip-path="url(#p6529becad3)">
     <use xlink:href="#md8547b9e7e" x="77.255455" y="358.760667" style="fill: #1f77b4; stroke: #1f77b4"/>
     <use xlink:href="#md8547b9e7e" x="100.490909" y="356.349564" style="fill: #1f77b4; stroke: #1f77b4"/>
     <use xlink:href="#md8547b9e7e" x="123.726364" y="353.571686" style="fill: #1f77b4; stroke: #1f77b4"/>
     <use xlink:href="#md8547b9e7e" x="146.961818" y="350.423423" style="fill: #1f77b4; stroke: #1f77b4"/>
     <use xlink:href="#md8547b9e7e" x="170.197273" y="346.577685" style="fill: #1f77b4; stroke: #1f77b4"/>
     <use xlink:href="#md8547b9e7e" x="193.432727" y="342.333904" style="fill: #1f77b4; stroke: #1f77b4"/>
     <use xlink:href="#md8547b9e7e" x="216.668182" y="337.385432" style="fill: #1f77b4; stroke: #1f77b4"/>
     <use xlink:href="#md8547b9e7e" x="239.903636" y="331.490558" style="fill: #1f77b4; stroke: #1f77b4"/>
     <use xlink:href="#md8547b9e7e" x="263.139091" y="325.022069" style="fill: #1f77b4; stroke: #1f77b4"/>
     <use xlink:href="#md8547b9e7e" x="286.374545" y="317.357048" style="fill: #1f77b4; stroke: #1f77b4"/>
     <use xlink:href="#md8547b9e7e" x="309.61" y="309.700445" style="fill: #1f77b4; stroke: #1f77b4"/>
     <use xlink:href="#md8547b9e7e" x="332.845455" y="300.491357" style="fill: #1f77b4; stroke: #1f77b4"/>
     <use xlink:href="#md8547b9e7e" x="356.080909" y="286.544242" style="fill: #1f77b4; stroke: #1f77b4"/>
     <use xlink:href="#md8547b9e7e" x="379.316364" y="272.638014" style="fill: #1f77b4; stroke: #1f77b4"/>
     <use xlink:href="#md8547b9e7e" x="402.551818" y="256.320683" style="fill: #1f77b4; stroke: #1f77b4"/>
     <use xlink:href="#md8547b9e7e" x="425.787273" y="235.71147" style="fill: #1f77b4; stroke: #1f77b4"/>
     <use xlink:href="#md8547b9e7e" x="449.022727" y="211.216834" style="fill: #1f77b4; stroke: #1f77b4"/>
     <use xlink:href="#md8547b9e7e" x="472.258182" y="182.103224" style="fill: #1f77b4; stroke: #1f77b4"/>
     <use xlink:href="#md8547b9e7e" x="495.493636" y="144.564584" style="fill: #1f77b4; stroke: #1f77b4"/>
     <use xlink:href="#md8547b9e7e" x="518.729091" y="101.506264" style="fill: #1f77b4; stroke: #1f77b4"/>
     <use xlink:href="#md8547b9e7e" x="541.964545" y="46.394837" style="fill: #1f77b4; stroke: #1f77b4"/>
    </g>
   </g>
   <g id="line2d_14">
    <g clip-path="url(#p6529becad3)">
     <use xlink:href="#md8547b9e7e" x="77.255455" y="358.31332" style="fill: #1f77b4; stroke: #1f77b4"/>
     <use xlink:href="#md8547b9e7e" x="100.490909" y="355.142209" style="fill: #1f77b4; stroke: #1f77b4"/>
     <use xlink:href="#md8547b9e7e" x="123.726364" y="351.586284" style="fill: #1f77b4; stroke: #1f77b4"/>
     <use xlink:href="#md8547b9e7e" x="146.961818" y="349.66582" style="fill: #1f77b4; stroke: #1f77b4"/>
     <use xlink:href="#md8547b9e7e" x="170.197273" y="345.77679" style="fill: #1f77b4; stroke: #1f77b4"/>
     <use xlink:href="#md8547b9e7e" x="193.432727" y="342.080167" style="fill: #1f77b4; stroke: #1f77b4"/>
     <use xlink:href="#md8547b9e7e" x="216.668182" y="335.264143" style="fill: #1f77b4; stroke: #1f77b4"/>
     <use xlink:href="#md8547b9e7e" x="239.903636" y="331.223593" style="fill: #1f77b4; stroke: #1f77b4"/>
     <use xlink:href="#md8547b9e7e" x="263.139091" y="322.500332" style="fill: #1f77b4; stroke: #1f77b4"/>
     <use xlink:href="#md8547b9e7e" x="286.374545" y="316.793055" style="fill: #1f77b4; stroke: #1f77b4"/>
     <use xlink:href="#md8547b9e7e" x="309.61" y="307.298963" style="fill: #1f77b4; stroke: #1f77b4"/>
     <use xlink:href="#md8547b9e7e" x="332.845455" y="297.938354" style="fill: #1f77b4; stroke: #1f77b4"/>
     <use xlink:href="#md8547b9e7e" x="356.080909" y="284.074215" style="fill: #1f77b4; stroke: #1f77b4"/>
     <use xlink:href="#md8547b9e7e" x="379.316364" y="270.395268" style="fill: #1f77b4; stroke: #1f77b4"/>
     <use xlink:href="#md8547b9e7e" x="402.551818" y="253.702743" style="fill: #1f77b4; stroke: #1f77b4"/>
     <use xlink:href="#md8547b9e7e" x="425.787273" y="234.962284" style="fill: #1f77b4; stroke: #1f77b4"/>
     <use xlink:href="#md8547b9e7e" x="449.022727" y="207.770341" style="fill: #1f77b4; stroke: #1f77b4"/>
     <use xlink:href="#md8547b9e7e" x="472.258182" y="176.365882" style="fill: #1f77b4; stroke: #1f77b4"/>
     <use xlink:href="#md8547b9e7e" x="495.493636" y="142.342282" style="fill: #1f77b4; stroke: #1f77b4"/>
     <use xlink:href="#md8547b9e7e" x="518.729091" y="96.864441" style="fill: #1f77b4; stroke: #1f77b4"/>
     <use xlink:href="#md8547b9e7e" x="541.964545" y="43.387273" style="fill: #1f77b4; stroke: #1f77b4"/>
    </g>
   </g>
   <g id="LineCollection_2">
    <path d="M 77.255455 373.436524 
L 77.255455 372.161826 
" clip-path="url(#p6529becad3)" style="fill: none; stroke: #ff7f0e; stroke-width: 1.5"/>
    <path d="M 100.490909 372.594742 
L 100.490909 372.132965 
" clip-path="url(#p6529becad3)" style="fill: none; stroke: #ff7f0e; stroke-width: 1.5"/>
    <path d="M 123.726364 372.119737 
L 123.726364 371.772202 
" clip-path="url(#p6529becad3)" style="fill: none; stroke: #ff7f0e; stroke-width: 1.5"/>
    <path d="M 146.961818 371.280361 
L 146.961818 371.038649 
" clip-path="url(#p6529becad3)" style="fill: none; stroke: #ff7f0e; stroke-width: 1.5"/>
    <path d="M 170.197273 370.691114 
L 170.197273 370.17883 
" clip-path="url(#p6529becad3)" style="fill: none; stroke: #ff7f0e; stroke-width: 1.5"/>
    <path d="M 193.432727 369.377935 
L 193.432727 367.125568 
" clip-path="url(#p6529becad3)" style="fill: none; stroke: #ff7f0e; stroke-width: 1.5"/>
    <path d="M 216.668182 368.882486 
L 216.668182 366.562777 
" clip-path="url(#p6529becad3)" style="fill: none; stroke: #ff7f0e; stroke-width: 1.5"/>
    <path d="M 239.903636 367.464686 
L 239.903636 367.124366 
" clip-path="url(#p6529becad3)" style="fill: none; stroke: #ff7f0e; stroke-width: 1.5"/>
    <path d="M 263.139091 365.889352 
L 263.139091 363.171601 
" clip-path="url(#p6529becad3)" style="fill: none; stroke: #ff7f0e; stroke-width: 1.5"/>
    <path d="M 286.374545 364.743327 
L 286.374545 362.185514 
" clip-path="url(#p6529becad3)" style="fill: none; stroke: #ff7f0e; stroke-width: 1.5"/>
    <path d="M 309.61 362.961156 
L 309.61 360.568091 
" clip-path="url(#p6529becad3)" style="fill: none; stroke: #ff7f0e; stroke-width: 1.5"/>
    <path d="M 332.845455 360.622206 
L 332.845455 358.467246 
" clip-path="url(#p6529becad3)" style="fill: none; stroke: #ff7f0e; stroke-width: 1.5"/>
    <path d="M 356.080909 357.882809 
L 356.080909 355.154235 
" clip-path="url(#p6529becad3)" style="fill: none; stroke: #ff7f0e; stroke-width: 1.5"/>
    <path d="M 379.316364 355.020752 
L 379.316364 352.4918 
" clip-path="url(#p6529becad3)" style="fill: none; stroke: #ff7f0e; stroke-width: 1.5"/>
    <path d="M 402.551818 351.686095 
L 402.551818 348.251627 
" clip-path="url(#p6529becad3)" style="fill: none; stroke: #ff7f0e; stroke-width: 1.5"/>
    <path d="M 425.787273 347.112817 
L 425.787273 344.309685 
" clip-path="url(#p6529becad3)" style="fill: none; stroke: #ff7f0e; stroke-width: 1.5"/>
    <path d="M 449.022727 341.429591 
L 449.022727 338.841714 
" clip-path="url(#p6529becad3)" style="fill: none; stroke: #ff7f0e; stroke-width: 1.5"/>
    <path d="M 472.258182 335.367562 
L 472.258182 331.388341 
" clip-path="url(#p6529becad3)" style="fill: none; stroke: #ff7f0e; stroke-width: 1.5"/>
    <path d="M 495.493636 327.987544 
L 495.493636 323.630725 
" clip-path="url(#p6529becad3)" style="fill: none; stroke: #ff7f0e; stroke-width: 1.5"/>
    <path d="M 518.729091 318.890293 
L 518.729091 316.060705 
" clip-path="url(#p6529becad3)" style="fill: none; stroke: #ff7f0e; stroke-width: 1.5"/>
    <path d="M 541.964545 307.197949 
L 541.964545 301.446178 
" clip-path="url(#p6529becad3)" style="fill: none; stroke: #ff7f0e; stroke-width: 1.5"/>
   </g>
   <g id="line2d_15">
    <defs>
     <path id="m7f04267d81" d="M 3 0 
L -3 -0 
" style="stroke: #ff7f0e"/>
    </defs>
    <g clip-path="url(#p6529becad3)">
     <use xlink:href="#m7f04267d81" x="77.255455" y="373.436524" style="fill: #ff7f0e; stroke: #ff7f0e"/>
     <use xlink:href="#m7f04267d81" x="100.490909" y="372.594742" style="fill: #ff7f0e; stroke: #ff7f0e"/>
     <use xlink:href="#m7f04267d81" x="123.726364" y="372.119737" style="fill: #ff7f0e; stroke: #ff7f0e"/>
     <use xlink:href="#m7f04267d81" x="146.961818" y="371.280361" style="fill: #ff7f0e; stroke: #ff7f0e"/>
     <use xlink:href="#m7f04267d81" x="170.197273" y="370.691114" style="fill: #ff7f0e; stroke: #ff7f0e"/>
     <use xlink:href="#m7f04267d81" x="193.432727" y="369.377935" style="fill: #ff7f0e; stroke: #ff7f0e"/>
     <use xlink:href="#m7f04267d81" x="216.668182" y="368.882486" style="fill: #ff7f0e; stroke: #ff7f0e"/>
     <use xlink:href="#m7f04267d81" x="239.903636" y="367.464686" style="fill: #ff7f0e; stroke: #ff7f0e"/>
     <use xlink:href="#m7f04267d81" x="263.139091" y="365.889352" style="fill: #ff7f0e; stroke: #ff7f0e"/>
     <use xlink:href="#m7f04267d81" x="286.374545" y="364.743327" style="fill: #ff7f0e; stroke: #ff7f0e"/>
     <use xlink:href="#m7f04267d81" x="309.61" y="362.961156" style="fill: #ff7f0e; stroke: #ff7f0e"/>
     <use xlink:href="#m7f04267d81" x="332.845455" y="360.622206" style="fill: #ff7f0e; stroke: #ff7f0e"/>
     <use xlink:href="#m7f04267d81" x="356.080909" y="357.882809" style="fill: #ff7f0e; stroke: #ff7f0e"/>
     <use xlink:href="#m7f04267d81" x="379.316364" y="355.020752" style="fill: #ff7f0e; stroke: #ff7f0e"/>
     <use xlink:href="#m7f04267d81" x="402.551818" y="351.686095" style="fill: #ff7f0e; stroke: #ff7f0e"/>
     <use xlink:href="#m7f04267d81" x="425.787273" y="347.112817" style="fill: #ff7f0e; stroke: #ff7f0e"/>
     <use xlink:href="#m7f04267d81" x="449.022727" y="341.429591" style="fill: #ff7f0e; stroke: #ff7f0e"/>
     <use xlink:href="#m7f04267d81" x="472.258182" y="335.367562" style="fill: #ff7f0e; stroke: #ff7f0e"/>
     <use xlink:href="#m7f04267d81" x="495.493636" y="327.987544" style="fill: #ff7f0e; stroke: #ff7f0e"/>
     <use xlink:href="#m7f04267d81" x="518.729091" y="318.890293" style="fill: #ff7f0e; stroke: #ff7f0e"/>
     <use xlink:href="#m7f04267d81" x="541.964545" y="307.197949" style="fill: #ff7f0e; stroke: #ff7f0e"/>
    </g>
   </g>
   <g id="line2d_16">
    <g clip-path="url(#p6529becad3)">
     <use xlink:href="#m7f04267d81" x="77.255455" y="372.161826" style="fill: #ff7f0e; stroke: #ff7f0e"/>
     <use xlink:href="#m7f04267d81" x="100.490909" y="372.132965" style="fill: #ff7f0e; stroke: #ff7f0e"/>
     <use xlink:href="#m7f04267d81" x="123.726364" y="371.772202" style="fill: #ff7f0e; stroke: #ff7f0e"/>
     <use xlink:href="#m7f04267d81" x="146.961818" y="371.038649" style="fill: #ff7f0e; stroke: #ff7f0e"/>
     <use xlink:href="#m7f04267d81" x="170.197273" y="370.17883" style="fill: #ff7f0e; stroke: #ff7f0e"/>
     <use xlink:href="#m7f04267d81" x="193.432727" y="367.125568" style="fill: #ff7f0e; stroke: #ff7f0e"/>
     <use xlink:href="#m7f04267d81" x="216.668182" y="366.562777" style="fill: #ff7f0e; stroke: #ff7f0e"/>
     <use xlink:href="#m7f04267d81" x="239.903636" y="367.124366" style="fill: #ff7f0e; stroke: #ff7f0e"/>
     <use xlink:href="#m7f04267d81" x="263.139091" y="363.171601" style="fill: #ff7f0e; stroke: #ff7f0e"/>
     <use xlink:href="#m7f04267d81" x="286.374545" y="362.185514" style="fill: #ff7f0e; stroke: #ff7f0e"/>
     <use xlink:href="#m7f04267d81" x="309.61" y="360.568091" style="fill: #ff7f0e; stroke: #ff7f0e"/>
     <use xlink:href="#m7f04267d81" x="332.845455" y="358.467246" style="fill: #ff7f0e; stroke: #ff7f0e"/>
     <use xlink:href="#m7f04267d81" x="356.080909" y="355.154235" style="fill: #ff7f0e; stroke: #ff7f0e"/>
     <use xlink:href="#m7f04267d81" x="379.316364" y="352.4918" style="fill: #ff7f0e; stroke: #ff7f0e"/>
     <use xlink:href="#m7f04267d81" x="402.551818" y="348.251627" style="fill: #ff7f0e; stroke: #ff7f0e"/>
     <use xlink:href="#m7f04267d81" x="425.787273" y="344.309685" style="fill: #ff7f0e; stroke: #ff7f0e"/>
     <use xlink:href="#m7f04267d81" x="449.022727" y="338.841714" style="fill: #ff7f0e; stroke: #ff7f0e"/>
     <use xlink:href="#m7f04267d81" x="472.258182" y="331.388341" style="fill: #ff7f0e; stroke: #ff7f0e"/>
     <use xlink:href="#m7f04267d81" x="495.493636" y="323.630725" style="fill: #ff7f0e; stroke: #ff7f0e"/>
     <use xlink:href="#m7f04267d81" x="518.729091" y="316.060705" style="fill: #ff7f0e; stroke: #ff7f0e"/>
     <use xlink:href="#m7f04267d81" x="541.964545" y="301.446178" style="fill: #ff7f0e; stroke: #ff7f0e"/>
    </g>
   </g>
   <g id="LineCollection_3">
    <path d="M 77.255455 373.532727 
L 77.255455 368.947424 
" clip-path="url(#p6529becad3)" style="fill: none; stroke: #2ca02c; stroke-width: 1.5"/>
    <path d="M 100.490909 373.068545 
L 100.490909 371.549731 
" clip-path="url(#p6529becad3)" style="fill: none; stroke: #2ca02c; stroke-width: 1.5"/>
    <path d="M 123.726364 372.748668 
L 123.726364 372.214738 
" clip-path="url(#p6529becad3)" style="fill: none; stroke: #2ca02c; stroke-width: 1.5"/>
    <path d="M 146.961818 372.0079 
L 146.961818 369.472936 
" clip-path="url(#p6529becad3)" style="fill: none; stroke: #2ca02c; stroke-width: 1.5"/>
    <path d="M 170.197273 371.375362 
L 170.197273 369.070083 
" clip-path="url(#p6529becad3)" style="fill: none; stroke: #2ca02c; stroke-width: 1.5"/>
    <path d="M 193.432727 370.732 
L 193.432727 370.098259 
" clip-path="url(#p6529becad3)" style="fill: none; stroke: #2ca02c; stroke-width: 1.5"/>
    <path d="M 216.668182 369.159072 
L 216.668182 367.427407 
" clip-path="url(#p6529becad3)" style="fill: none; stroke: #2ca02c; stroke-width: 1.5"/>
    <path d="M 239.903636 368.71413 
L 239.903636 367.317976 
" clip-path="url(#p6529becad3)" style="fill: none; stroke: #2ca02c; stroke-width: 1.5"/>
    <path d="M 263.139091 367.183291 
L 263.139091 364.374146 
" clip-path="url(#p6529becad3)" style="fill: none; stroke: #2ca02c; stroke-width: 1.5"/>
    <path d="M 286.374545 366.055304 
L 286.374545 363.557618 
" clip-path="url(#p6529becad3)" style="fill: none; stroke: #2ca02c; stroke-width: 1.5"/>
    <path d="M 309.61 363.805342 
L 309.61 361.290821 
" clip-path="url(#p6529becad3)" style="fill: none; stroke: #2ca02c; stroke-width: 1.5"/>
    <path d="M 332.845455 362.21197 
L 332.845455 356.934001 
" clip-path="url(#p6529becad3)" style="fill: none; stroke: #2ca02c; stroke-width: 1.5"/>
    <path d="M 356.080909 358.980732 
L 356.080909 358.583893 
" clip-path="url(#p6529becad3)" style="fill: none; stroke: #2ca02c; stroke-width: 1.5"/>
    <path d="M 379.316364 356.266589 
L 379.316364 350.041014 
" clip-path="url(#p6529becad3)" style="fill: none; stroke: #2ca02c; stroke-width: 1.5"/>
    <path d="M 402.551818 353.261429 
L 402.551818 349.53354 
" clip-path="url(#p6529becad3)" style="fill: none; stroke: #2ca02c; stroke-width: 1.5"/>
    <path d="M 425.787273 350.00133 
L 425.787273 343.509993 
" clip-path="url(#p6529becad3)" style="fill: none; stroke: #2ca02c; stroke-width: 1.5"/>
    <path d="M 449.022727 345.016782 
L 449.022727 340.045461 
" clip-path="url(#p6529becad3)" style="fill: none; stroke: #2ca02c; stroke-width: 1.5"/>
    <path d="M 472.258182 338.628864 
L 472.258182 333.204184 
" clip-path="url(#p6529becad3)" style="fill: none; stroke: #2ca02c; stroke-width: 1.5"/>
    <path d="M 495.493636 329.304331 
L 495.493636 325.529543 
" clip-path="url(#p6529becad3)" style="fill: none; stroke: #2ca02c; stroke-width: 1.5"/>
    <path d="M 518.729091 323.724523 
L 518.729091 313.786693 
" clip-path="url(#p6529becad3)" style="fill: none; stroke: #2ca02c; stroke-width: 1.5"/>
    <path d="M 541.964545 309.380568 
L 541.964545 297.774808 
" clip-path="url(#p6529becad3)" style="fill: none; stroke: #2ca02c; stroke-width: 1.5"/>
   </g>
   <g id="line2d_17">
    <defs>
     <path id="mf3fc7103a7" d="M 3 0 
L -3 -0 
" style="stroke: #2ca02c"/>
    </defs>
    <g clip-path="url(#p6529becad3)">
     <use xlink:href="#mf3fc7103a7" x="77.255455" y="373.532727" style="fill: #2ca02c; stroke: #2ca02c"/>
     <use xlink:href="#mf3fc7103a7" x="100.490909" y="373.068545" style="fill: #2ca02c; stroke: #2ca02c"/>
     <use xlink:href="#mf3fc7103a7" x="123.726364" y="372.748668" style="fill: #2ca02c; stroke: #2ca02c"/>
     <use xlink:href="#mf3fc7103a7" x="146.961818" y="372.0079" style="fill: #2ca02c; stroke: #2ca02c"/>
     <use xlink:href="#mf3fc7103a7" x="170.197273" y="371.375362" style="fill: #2ca02c; stroke: #2ca02c"/>
     <use xlink:href="#mf3fc7103a7" x="193.432727" y="370.732" style="fill: #2ca02c; stroke: #2ca02c"/>
     <use xlink:href="#mf3fc7103a7" x="216.668182" y="369.159072" style="fill: #2ca02c; stroke: #2ca02c"/>
     <use xlink:href="#mf3fc7103a7" x="239.903636" y="368.71413" style="fill: #2ca02c; stroke: #2ca02c"/>
     <use xlink:href="#mf3fc7103a7" x="263.139091" y="367.183291" style="fill: #2ca02c; stroke: #2ca02c"/>
     <use xlink:href="#mf3fc7103a7" x="286.374545" y="366.055304" style="fill: #2ca02c; stroke: #2ca02c"/>
     <use xlink:href="#mf3fc7103a7" x="309.61" y="363.805342" style="fill: #2ca02c; stroke: #2ca02c"/>
     <use xlink:href="#mf3fc7103a7" x="332.845455" y="362.21197" style="fill: #2ca02c; stroke: #2ca02c"/>
     <use xlink:href="#mf3fc7103a7" x="356.080909" y="358.980732" style="fill: #2ca02c; stroke: #2ca02c"/>
     <use xlink:href="#mf3fc7103a7" x="379.316364" y="356.266589" style="fill: #2ca02c; stroke: #2ca02c"/>
     <use xlink:href="#mf3fc7103a7" x="402.551818" y="353.261429" style="fill: #2ca02c; stroke: #2ca02c"/>
     <use xlink:href="#mf3fc7103a7" x="425.787273" y="350.00133" style="fill: #2ca02c; stroke: #2ca02c"/>
     <use xlink:href="#mf3fc7103a7" x="449.022727" y="345.016782" style="fill: #2ca02c; stroke: #2ca02c"/>
     <use xlink:href="#mf3fc7103a7" x="472.258182" y="338.628864" style="fill: #2ca02c; stroke: #2ca02c"/>
     <use xlink:href="#mf3fc7103a7" x="495.493636" y="329.304331" style="fill: #2ca02c; stroke: #2ca02c"/>
     <use xlink:href="#mf3fc7103a7" x="518.729091" y="323.724523" style="fill: #2ca02c; stroke: #2ca02c"/>
     <use xlink:href="#mf3fc7103a7" x="541.964545" y="309.380568" style="fill: #2ca02c; stroke: #2ca02c"/>
    </g>
   </g>
   <g id="line2d_18">
    <g clip-path="url(#p6529becad3)">
     <use xlink:href="#mf3fc7103a7" x="77.255455" y="368.947424" style="fill: #2ca02c; stroke: #2ca02c"/>
     <use xlink:href="#mf3fc7103a7" x="100.490909" y="371.549731" style="fill: #2ca02c; stroke: #2ca02c"/>
     <use xlink:href="#mf3fc7103a7" x="123.726364" y="372.214738" style="fill: #2ca02c; stroke: #2ca02c"/>
     <use xlink:href="#mf3fc7103a7" x="146.961818" y="369.472936" style="fill: #2ca02c; stroke: #2ca02c"/>
     <use xlink:href="#mf3fc7103a7" x="170.197273" y="369.070083" style="fill: #2ca02c; stroke: #2ca02c"/>
     <use xlink:href="#mf3fc7103a7" x="193.432727" y="370.098259" style="fill: #2ca02c; stroke: #2ca02c"/>
     <use xlink:href="#mf3fc7103a7" x="216.668182" y="367.427407" style="fill: #2ca02c; stroke: #2ca02c"/>
     <use xlink:href="#mf3fc7103a7" x="239.903636" y="367.317976" style="fill: #2ca02c; stroke: #2ca02c"/>
     <use xlink:href="#mf3fc7103a7" x="263.139091" y="364.374146" style="fill: #2ca02c; stroke: #2ca02c"/>
     <use xlink:href="#mf3fc7103a7" x="286.374545" y="363.557618" style="fill: #2ca02c; stroke: #2ca02c"/>
     <use xlink:href="#mf3fc7103a7" x="309.61" y="361.290821" style="fill: #2ca02c; stroke: #2ca02c"/>
     <use xlink:href="#mf3fc7103a7" x="332.845455" y="356.934001" style="fill: #2ca02c; stroke: #2ca02c"/>
     <use xlink:href="#mf3fc7103a7" x="356.080909" y="358.583893" style="fill: #2ca02c; stroke: #2ca02c"/>
     <use xlink:href="#mf3fc7103a7" x="379.316364" y="350.041014" style="fill: #2ca02c; stroke: #2ca02c"/>
     <use xlink:href="#mf3fc7103a7" x="402.551818" y="349.53354" style="fill: #2ca02c; stroke: #2ca02c"/>
     <use xlink:href="#mf3fc7103a7" x="425.787273" y="343.509993" style="fill: #2ca02c; stroke: #2ca02c"/>
     <use xlink:href="#mf3fc7103a7" x="449.022727" y="340.045461" style="fill: #2ca02c; stroke: #2ca02c"/>
     <use xlink:href="#mf3fc7103a7" x="472.258182" y="333.204184" style="fill: #2ca02c; stroke: #2ca02c"/>
     <use xlink:href="#mf3fc7103a7" x="495.493636" y="325.529543" style="fill: #2ca02c; stroke: #2ca02c"/>
     <use xlink:href="#mf3fc7103a7" x="518.729091" y="313.786693" style="fill: #2ca02c; stroke: #2ca02c"/>
     <use xlink:href="#mf3fc7103a7" x="541.964545" y="297.774808" style="fill: #2ca02c; stroke: #2ca02c"/>
    </g>
   </g>
   <g id="line2d_19">
    <path d="M 77.255455 358.551424 
L 100.490909 355.993611 
L 123.726364 352.655347 
L 146.961818 350.087913 
L 170.197273 346.230149 
L 193.432727 342.171561 
L 216.668182 336.84549 
L 239.903636 331.366695 
L 263.139091 323.967437 
L 286.374545 317.058817 
L 309.61 308.601319 
L 332.845455 299.719323 
L 356.080909 285.422268 
L 379.316364 271.586989 
L 402.551818 255.020732 
L 425.787273 235.30982 
L 449.022727 209.185736 
L 472.258182 179.656045 
L 495.493636 143.358432 
L 518.729091 99.507635 
L 541.964545 45.349826 
" clip-path="url(#p6529becad3)" style="fill: none; stroke: #1f77b4; stroke-width: 1.5; stroke-linecap: square"/>
   </g>
   <g id="line2d_20">
    <path d="M 77.255455 372.890568 
L 100.490909 372.363854 
L 123.726364 371.929735 
L 146.961818 371.164917 
L 170.197273 370.446997 
L 193.432727 368.265581 
L 216.668182 368.092414 
L 239.903636 367.253038 
L 263.139091 365.203902 
L 286.374545 363.915976 
L 309.61 362.120577 
L 332.845455 359.757576 
L 356.080909 357.166092 
L 379.316364 353.922829 
L 402.551818 350.805833 
L 425.787273 346.375657 
L 449.022727 339.914384 
L 472.258182 333.23545 
L 495.493636 326.195753 
L 518.729091 317.289706 
L 541.964545 304.666593 
" clip-path="url(#p6529becad3)" style="fill: none; stroke: #ff7f0e; stroke-width: 1.5; stroke-linecap: square"/>
   </g>
   <g id="line2d_21">
    <path d="M 77.255455 372.427589 
L 100.490909 372.670503 
L 123.726364 372.413158 
L 146.961818 371.279158 
L 170.197273 370.704342 
L 193.432727 370.39168 
L 216.668182 368.512103 
L 239.903636 368.10925 
L 263.139091 366.2898 
L 286.374545 365.194281 
L 309.61 362.880585 
L 332.845455 359.847767 
L 356.080909 358.766679 
L 379.316364 354.841573 
L 402.551818 351.111279 
L 425.787273 346.308315 
L 449.022727 342.374791 
L 472.258182 336.499157 
L 495.493636 327.096459 
L 518.729091 318.922762 
L 541.964545 306.103634 
" clip-path="url(#p6529becad3)" style="fill: none; stroke: #2ca02c; stroke-width: 1.5; stroke-linecap: square"/>
   </g>
   <g id="patch_3">
    <path d="M 54.02 390.04 
L 54.02 26.88 
" style="fill: none; stroke: #000000; stroke-width: 0.8; stroke-linejoin: miter; stroke-linecap: square"/>
   </g>
   <g id="patch_4">
    <path d="M 565.2 390.04 
L 565.2 26.88 
" style="fill: none; stroke: #000000; stroke-width: 0.8; stroke-linejoin: miter; stroke-linecap: square"/>
   </g>
   <g id="patch_5">
    <path d="M 54.02 390.04 
L 565.2 390.04 
" style="fill: none; stroke: #000000; stroke-width: 0.8; stroke-linejoin: miter; stroke-linecap: square"/>
   </g>
   <g id="patch_6">
    <path d="M 54.02 26.88 
L 565.2 26.88 
" style="fill: none; stroke: #000000; stroke-width: 0.8; stroke-linejoin: miter; stroke-linecap: square"/>
   </g>
   <g id="text_15">
    <!-- Java implementations of Bron-Kerbosch on a random graph of order 100 -->
    <g transform="translate(54.02 20.88) scale(0.12 -0.12)">
     <defs>
      <path id="DejaVuSans-4a" d="M 628 4666 
L 1259 4666 
L 1259 325 
Q 1259 -519 939 -900 
Q 619 -1281 -91 -1281 
L -331 -1281 
L -331 -750 
L -134 -750 
Q 284 -750 456 -515 
Q 628 -281 628 325 
L 628 4666 
z
" transform="scale(0.015625)"/>
      <path id="DejaVuSans-61" d="M 2194 1759 
Q 1497 1759 1228 1600 
Q 959 1441 959 1056 
Q 959 750 1161 570 
Q 1363 391 1709 391 
Q 2188 391 2477 730 
Q 2766 1069 2766 1631 
L 2766 1759 
L 2194 1759 
z
M 3341 1997 
L 3341 0 
L 2766 0 
L 2766 531 
Q 2569 213 2275 61 
Q 1981 -91 1556 -91 
Q 1019 -91 701 211 
Q 384 513 384 1019 
Q 384 1609 779 1909 
Q 1175 2209 1959 2209 
L 2766 2209 
L 2766 2266 
Q 2766 2663 2505 2880 
Q 2244 3097 1772 3097 
Q 1472 3097 1187 3025 
Q 903 2953 641 2809 
L 641 3341 
Q 956 3463 1253 3523 
Q 1550 3584 1831 3584 
Q 2591 3584 2966 3190 
Q 3341 2797 3341 1997 
z
" transform="scale(0.015625)"/>
      <path id="DejaVuSans-76" d="M 191 3500 
L 800 3500 
L 1894 563 
L 2988 3500 
L 3597 3500 
L 2284 0 
L 1503 0 
L 191 3500 
z
" transform="scale(0.015625)"/>
      <path id="DejaVuSans-6d" d="M 3328 2828 
Q 3544 3216 3844 3400 
Q 4144 3584 4550 3584 
Q 5097 3584 5394 3201 
Q 5691 2819 5691 2113 
L 5691 0 
L 5113 0 
L 5113 2094 
Q 5113 2597 4934 2840 
Q 4756 3084 4391 3084 
Q 3944 3084 3684 2787 
Q 3425 2491 3425 1978 
L 3425 0 
L 2847 0 
L 2847 2094 
Q 2847 2600 2669 2842 
Q 2491 3084 2119 3084 
Q 1678 3084 1418 2786 
Q 1159 2488 1159 1978 
L 1159 0 
L 581 0 
L 581 3500 
L 1159 3500 
L 1159 2956 
Q 1356 3278 1631 3431 
Q 1906 3584 2284 3584 
Q 2666 3584 2933 3390 
Q 3200 3197 3328 2828 
z
" transform="scale(0.015625)"/>
      <path id="DejaVuSans-6c" d="M 603 4863 
L 1178 4863 
L 1178 0 
L 603 0 
L 603 4863 
z
" transform="scale(0.015625)"/>
      <path id="DejaVuSans-66" d="M 2375 4863 
L 2375 4384 
L 1825 4384 
Q 1516 4384 1395 4259 
Q 1275 4134 1275 3809 
L 1275 3500 
L 2222 3500 
L 2222 3053 
L 1275 3053 
L 1275 0 
L 697 0 
L 697 3053 
L 147 3053 
L 147 3500 
L 697 3500 
L 697 3744 
Q 697 4328 969 4595 
Q 1241 4863 1831 4863 
L 2375 4863 
z
" transform="scale(0.015625)"/>
      <path id="DejaVuSans-42" d="M 1259 2228 
L 1259 519 
L 2272 519 
Q 2781 519 3026 730 
Q 3272 941 3272 1375 
Q 3272 1813 3026 2020 
Q 2781 2228 2272 2228 
L 1259 2228 
z
M 1259 4147 
L 1259 2741 
L 2194 2741 
Q 2656 2741 2882 2914 
Q 3109 3088 3109 3444 
Q 3109 3797 2882 3972 
Q 2656 4147 2194 4147 
L 1259 4147 
z
M 628 4666 
L 2241 4666 
Q 2963 4666 3353 4366 
Q 3744 4066 3744 3513 
Q 3744 3084 3544 2831 
Q 3344 2578 2956 2516 
Q 3422 2416 3680 2098 
Q 3938 1781 3938 1306 
Q 3938 681 3513 340 
Q 3088 0 2303 0 
L 628 0 
L 628 4666 
z
" transform="scale(0.015625)"/>
      <path id="DejaVuSans-72" d="M 2631 2963 
Q 2534 3019 2420 3045 
Q 2306 3072 2169 3072 
Q 1681 3072 1420 2755 
Q 1159 2438 1159 1844 
L 1159 0 
L 581 0 
L 581 3500 
L 1159 3500 
L 1159 2956 
Q 1341 3275 1631 3429 
Q 1922 3584 2338 3584 
Q 2397 3584 2469 3576 
Q 2541 3569 2628 3553 
L 2631 2963 
z
" transform="scale(0.015625)"/>
      <path id="DejaVuSans-2d" d="M 313 2009 
L 1997 2009 
L 1997 1497 
L 313 1497 
L 313 2009 
z
" transform="scale(0.015625)"/>
      <path id="DejaVuSans-4b" d="M 628 4666 
L 1259 4666 
L 1259 2694 
L 3353 4666 
L 4166 4666 
L 1850 2491 
L 4331 0 
L 3500 0 
L 1259 2247 
L 1259 0 
L 628 0 
L 628 4666 
z
" transform="scale(0.015625)"/>
      <path id="DejaVuSans-62" d="M 3116 1747 
Q 3116 2381 2855 2742 
Q 2594 3103 2138 3103 
Q 1681 3103 1420 2742 
Q 1159 2381 1159 1747 
Q 1159 1113 1420 752 
Q 1681 391 2138 391 
Q 2594 391 2855 752 
Q 3116 1113 3116 1747 
z
M 1159 2969 
Q 1341 3281 1617 3432 
Q 1894 3584 2278 3584 
Q 2916 3584 3314 3078 
Q 3713 2572 3713 1747 
Q 3713 922 3314 415 
Q 2916 -91 2278 -91 
Q 1894 -91 1617 61 
Q 1341 213 1159 525 
L 1159 0 
L 581 0 
L 581 4863 
L 1159 4863 
L 1159 2969 
z
" transform="scale(0.015625)"/>
      <path id="DejaVuSans-68" d="M 3513 2113 
L 3513 0 
L 2938 0 
L 2938 2094 
Q 2938 2591 2744 2837 
Q 2550 3084 2163 3084 
Q 1697 3084 1428 2787 
Q 1159 2491 1159 1978 
L 1159 0 
L 581 0 
L 581 4863 
L 1159 4863 
L 1159 2956 
Q 1366 3272 1645 3428 
Q 1925 3584 2291 3584 
Q 2894 3584 3203 3211 
Q 3513 2838 3513 2113 
z
" transform="scale(0.015625)"/>
     </defs>
     <use xlink:href="#DejaVuSans-4a"/>
     <use xlink:href="#DejaVuSans-61" transform="translate(29.492188 0)"/>
     <use xlink:href="#DejaVuSans-76" transform="translate(90.771484 0)"/>
     <use xlink:href="#DejaVuSans-61" transform="translate(149.951172 0)"/>
     <use xlink:href="#DejaVuSans-20" transform="translate(211.230469 0)"/>
     <use xlink:href="#DejaVuSans-69" transform="translate(243.017578 0)"/>
     <use xlink:href="#DejaVuSans-6d" transform="translate(270.800781 0)"/>
     <use xlink:href="#DejaVuSans-70" transform="translate(368.212891 0)"/>
     <use xlink:href="#DejaVuSans-6c" transform="translate(431.689453 0)"/>
     <use xlink:href="#DejaVuSans-65" transform="translate(459.472656 0)"/>
     <use xlink:href="#DejaVuSans-6d" transform="translate(520.996094 0)"/>
     <use xlink:href="#DejaVuSans-65" transform="translate(618.408203 0)"/>
     <use xlink:href="#DejaVuSans-6e" transform="translate(679.931641 0)"/>
     <use xlink:href="#DejaVuSans-74" transform="translate(743.310547 0)"/>
     <use xlink:href="#DejaVuSans-61" transform="translate(782.519531 0)"/>
     <use xlink:href="#DejaVuSans-74" transform="translate(843.798828 0)"/>
     <use xlink:href="#DejaVuSans-69" transform="translate(883.007812 0)"/>
     <use xlink:href="#DejaVuSans-6f" transform="translate(910.791016 0)"/>
     <use xlink:href="#DejaVuSans-6e" transform="translate(971.972656 0)"/>
     <use xlink:href="#DejaVuSans-73" transform="translate(1035.351562 0)"/>
     <use xlink:href="#DejaVuSans-20" transform="translate(1087.451172 0)"/>
     <use xlink:href="#DejaVuSans-6f" transform="translate(1119.238281 0)"/>
     <use xlink:href="#DejaVuSans-66" transform="translate(1180.419922 0)"/>
     <use xlink:href="#DejaVuSans-20" transform="translate(1215.625 0)"/>
     <use xlink:href="#DejaVuSans-42" transform="translate(1247.412109 0)"/>
     <use xlink:href="#DejaVuSans-72" transform="translate(1316.015625 0)"/>
     <use xlink:href="#DejaVuSans-6f" transform="translate(1354.878906 0)"/>
     <use xlink:href="#DejaVuSans-6e" transform="translate(1416.060547 0)"/>
     <use xlink:href="#DejaVuSans-2d" transform="translate(1479.439453 0)"/>
     <use xlink:href="#DejaVuSans-4b" transform="translate(1515.523438 0)"/>
     <use xlink:href="#DejaVuSans-65" transform="translate(1576.099609 0)"/>
     <use xlink:href="#DejaVuSans-72" transform="translate(1637.623047 0)"/>
     <use xlink:href="#DejaVuSans-62" transform="translate(1678.736328 0)"/>
     <use xlink:href="#DejaVuSans-6f" transform="translate(1742.212891 0)"/>
     <use xlink:href="#DejaVuSans-73" transform="translate(1803.394531 0)"/>
     <use xlink:href="#DejaVuSans-63" transform="translate(1855.494141 0)"/>
     <use xlink:href="#DejaVuSans-68" transform="translate(1910.474609 0)"/>
     <use xlink:href="#DejaVuSans-20" transform="translate(1973.853516 0)"/>
     <use xlink:href="#DejaVuSans-6f" transform="translate(2005.640625 0)"/>
     <use xlink:href="#DejaVuSans-6e" transform="translate(2066.822266 0)"/>
     <use xlink:href="#DejaVuSans-20" transform="translate(2130.201172 0)"/>
     <use xlink:href="#DejaVuSans-61" transform="translate(2161.988281 0)"/>
     <use xlink:href="#DejaVuSans-20" transform="translate(2223.267578 0)"/>
     <use xlink:href="#DejaVuSans-72" transform="translate(2255.054688 0)"/>
     <use xlink:href="#DejaVuSans-61" transform="translate(2296.167969 0)"/>
     <use xlink:href="#DejaVuSans-6e" transform="translate(2357.447266 0)"/>
     <use xlink:href="#DejaVuSans-64" transform="translate(2420.826172 0)"/>
     <use xlink:href="#DejaVuSans-6f" transform="translate(2484.302734 0)"/>
     <use xlink:href="#DejaVuSans-6d" transform="translate(2545.484375 0)"/>
     <use xlink:href="#DejaVuSans-20" transform="translate(2642.896484 0)"/>
     <use xlink:href="#DejaVuSans-67" transform="translate(2674.683594 0)"/>
     <use xlink:href="#DejaVuSans-72" transform="translate(2738.160156 0)"/>
     <use xlink:href="#DejaVuSans-61" transform="translate(2779.273438 0)"/>
     <use xlink:href="#DejaVuSans-70" transform="translate(2840.552734 0)"/>
     <use xlink:href="#DejaVuSans-68" transform="translate(2904.029297 0)"/>
     <use xlink:href="#DejaVuSans-20" transform="translate(2967.408203 0)"/>
     <use xlink:href="#DejaVuSans-6f" transform="translate(2999.195312 0)"/>
     <use xlink:href="#DejaVuSans-66" transform="translate(3060.376953 0)"/>
     <use xlink:href="#DejaVuSans-20" transform="translate(3095.582031 0)"/>
     <use xlink:href="#DejaVuSans-6f" transform="translate(3127.369141 0)"/>
     <use xlink:href="#DejaVuSans-72" transform="translate(3188.550781 0)"/>
     <use xlink:href="#DejaVuSans-64" transform="translate(3227.914062 0)"/>
     <use xlink:href="#DejaVuSans-65" transform="translate(3291.390625 0)"/>
     <use xlink:href="#DejaVuSans-72" transform="translate(3352.914062 0)"/>
     <use xlink:href="#DejaVuSans-20" transform="translate(3394.027344 0)"/>
     <use xlink:href="#DejaVuSans-31" transform="translate(3425.814453 0)"/>
     <use xlink:href="#DejaVuSans-30" transform="translate(3489.4375 0)"/>
     <use xlink:href="#DejaVuSans-30" transform="translate(3553.060547 0)"/>
    </g>
   </g>
   <g id="legend_1">
    <g id="patch_7">
     <path d="M 61.02 78.914375 
L 153.060625 78.914375 
Q 155.060625 78.914375 155.060625 76.914375 
L 155.060625 33.88 
Q 155.060625 31.88 153.060625 31.88 
L 61.02 31.88 
Q 59.02 31.88 59.02 33.88 
L 59.02 76.914375 
Q 59.02 78.914375 61.02 78.914375 
z
" style="fill: #ffffff; opacity: 0.8; stroke: #cccccc; stroke-linejoin: miter"/>
    </g>
    <g id="LineCollection_4">
     <path d="M 73.02 44.978437 
L 73.02 34.978437 
" style="fill: none; stroke: #1f77b4; stroke-width: 1.5"/>
    </g>
    <g id="line2d_22">
     <g>
      <use xlink:href="#md8547b9e7e" x="73.02" y="44.978437" style="fill: #1f77b4; stroke: #1f77b4"/>
     </g>
    </g>
    <g id="line2d_23">
     <g>
      <use xlink:href="#md8547b9e7e" x="73.02" y="34.978437" style="fill: #1f77b4; stroke: #1f77b4"/>
     </g>
    </g>
    <g id="line2d_24">
     <path d="M 63.02 39.978437 
L 83.02 39.978437 
" style="fill: none; stroke: #1f77b4; stroke-width: 1.5; stroke-linecap: square"/>
    </g>
    <g id="line2d_25"/>
    <g id="text_16">
     <!-- Ver3-GP -->
     <g transform="translate(91.02 43.478437) scale(0.1 -0.1)">
      <defs>
       <path id="DejaVuSans-56" d="M 1831 0 
L 50 4666 
L 709 4666 
L 2188 738 
L 3669 4666 
L 4325 4666 
L 2547 0 
L 1831 0 
z
" transform="scale(0.015625)"/>
       <path id="DejaVuSans-bd" d="M 488 2431 
L 1125 2431 
L 1125 4341 
L 428 4213 
L 428 4575 
L 1147 4697 
L 1575 4697 
L 1575 2431 
L 2216 2431 
L 2216 2088 
L 488 2088 
L 488 2431 
z
M 4470 332 
L 5795 332 
L 5795 -24 
L 3926 -24 
L 3926 319 
Q 4032 416 4229 591 
Q 5304 1544 5304 1838 
Q 5304 2044 5141 2170 
Q 4979 2297 4713 2297 
Q 4551 2297 4360 2242 
Q 4170 2188 3945 2079 
L 3945 2463 
Q 4185 2551 4393 2594 
Q 4601 2638 4779 2638 
Q 5232 2638 5504 2432 
Q 5776 2226 5776 1888 
Q 5776 1454 4741 566 
Q 4566 416 4470 332 
z
M 4309 4750 
L 4809 4750 
L 1896 -91 
L 1396 -91 
L 4309 4750 
z
" transform="scale(0.015625)"/>
       <path id="DejaVuSans-47" d="M 3809 666 
L 3809 1919 
L 2778 1919 
L 2778 2438 
L 4434 2438 
L 4434 434 
Q 4069 175 3628 42 
Q 3188 -91 2688 -91 
Q 1594 -91 976 548 
Q 359 1188 359 2328 
Q 359 3472 976 4111 
Q 1594 4750 2688 4750 
Q 3144 4750 3555 4637 
Q 3966 4525 4313 4306 
L 4313 3634 
Q 3963 3931 3569 4081 
Q 3175 4231 2741 4231 
Q 1884 4231 1454 3753 
Q 1025 3275 1025 2328 
Q 1025 1384 1454 906 
Q 1884 428 2741 428 
Q 3075 428 3337 486 
Q 3600 544 3809 666 
z
" transform="scale(0.015625)"/>
       <path id="DejaVuSans-50" d="M 1259 4147 
L 1259 2394 
L 2053 2394 
Q 2494 2394 2734 2622 
Q 2975 2850 2975 3272 
Q 2975 3691 2734 3919 
Q 2494 4147 2053 4147 
L 1259 4147 
z
M 628 4666 
L 2053 4666 
Q 2838 4666 3239 4311 
Q 3641 3956 3641 3272 
Q 3641 2581 3239 2228 
Q 2838 1875 2053 1875 
L 1259 1875 
L 1259 0 
L 628 0 
L 628 4666 
z
" transform="scale(0.015625)"/>
      </defs>
      <use xlink:href="#DejaVuSans-56"/>
      <use xlink:href="#DejaVuSans-65" transform="translate(60.658203 0)"/>
      <use xlink:href="#DejaVuSans-72" transform="translate(122.181641 0)"/>
      <use xlink:href="#DejaVuSans-33" transform="translate(163.294922 0)"/>
      <use xlink:href="#DejaVuSans-bd" transform="translate(226.917969 0)"/>
      <use xlink:href="#DejaVuSans-2d" transform="translate(323.841797 0)"/>
      <use xlink:href="#DejaVuSans-47" transform="translate(363.550781 0)"/>
      <use xlink:href="#DejaVuSans-50" transform="translate(441.041016 0)"/>
     </g>
    </g>
    <g id="LineCollection_5">
     <path d="M 73.02 59.656563 
L 73.02 49.656563 
" style="fill: none; stroke: #ff7f0e; stroke-width: 1.5"/>
    </g>
    <g id="line2d_26">
     <g>
      <use xlink:href="#m7f04267d81" x="73.02" y="59.656563" style="fill: #ff7f0e; stroke: #ff7f0e"/>
     </g>
    </g>
    <g id="line2d_27">
     <g>
      <use xlink:href="#m7f04267d81" x="73.02" y="49.656563" style="fill: #ff7f0e; stroke: #ff7f0e"/>
     </g>
    </g>
    <g id="line2d_28">
     <path d="M 63.02 54.656563 
L 83.02 54.656563 
" style="fill: none; stroke: #ff7f0e; stroke-width: 1.5; stroke-linecap: square"/>
    </g>
    <g id="line2d_29"/>
    <g id="text_17">
     <!-- Ver3=GPc -->
     <g transform="translate(91.02 58.156563) scale(0.1 -0.1)">
      <defs>
       <path id="DejaVuSans-3d" d="M 678 2906 
L 4684 2906 
L 4684 2381 
L 678 2381 
L 678 2906 
z
M 678 1631 
L 4684 1631 
L 4684 1100 
L 678 1100 
L 678 1631 
z
" transform="scale(0.015625)"/>
      </defs>
      <use xlink:href="#DejaVuSans-56"/>
      <use xlink:href="#DejaVuSans-65" transform="translate(60.658203 0)"/>
      <use xlink:href="#DejaVuSans-72" transform="translate(122.181641 0)"/>
      <use xlink:href="#DejaVuSans-33" transform="translate(163.294922 0)"/>
      <use xlink:href="#DejaVuSans-bd" transform="translate(226.917969 0)"/>
      <use xlink:href="#DejaVuSans-3d" transform="translate(323.841797 0)"/>
      <use xlink:href="#DejaVuSans-47" transform="translate(407.630859 0)"/>
      <use xlink:href="#DejaVuSans-50" transform="translate(485.121094 0)"/>
      <use xlink:href="#DejaVuSans-63" transform="translate(545.423828 0)"/>
     </g>
    </g>
    <g id="LineCollection_6">
     <path d="M 73.02 74.334687 
L 73.02 64.334687 
" style="fill: none; stroke: #2ca02c; stroke-width: 1.5"/>
    </g>
    <g id="line2d_30">
     <g>
      <use xlink:href="#mf3fc7103a7" x="73.02" y="74.334687" style="fill: #2ca02c; stroke: #2ca02c"/>
     </g>
    </g>
    <g id="line2d_31">
     <g>
      <use xlink:href="#mf3fc7103a7" x="73.02" y="64.334687" style="fill: #2ca02c; stroke: #2ca02c"/>
     </g>
    </g>
    <g id="line2d_32">
     <path d="M 63.02 69.334687 
L 83.02 69.334687 
" style="fill: none; stroke: #2ca02c; stroke-width: 1.5; stroke-linecap: square"/>
    </g>
    <g id="line2d_33"/>
    <g id="text_18">
     <!-- Ver3=GPs -->
     <g transform="translate(91.02 72.834687) scale(0.1 -0.1)">
      <use xlink:href="#DejaVuSans-56"/>
      <use xlink:href="#DejaVuSans-65" transform="translate(60.658203 0)"/>
      <use xlink:href="#DejaVuSans-72" transform="translate(122.181641 0)"/>
      <use xlink:href="#DejaVuSans-33" transform="translate(163.294922 0)"/>
      <use xlink:href="#DejaVuSans-bd" transform="translate(226.917969 0)"/>
      <use xlink:href="#DejaVuSans-3d" transform="translate(323.841797 0)"/>
      <use xlink:href="#DejaVuSans-47" transform="translate(407.630859 0)"/>
      <use xlink:href="#DejaVuSans-50" transform="translate(485.121094 0)"/>
      <use xlink:href="#DejaVuSans-73" transform="translate(543.673828 0)"/>
     </g>
    </g>
   </g>
  </g>
 </g>
 <defs>
  <clipPath id="p6529becad3">
   <rect x="54.02" y="26.88" width="511.18" height="363.16"/>
  </clipPath>
 </defs>
</svg>
