<?xml version="1.0" encoding="utf-8" standalone="no"?>
<!DOCTYPE svg PUBLIC "-//W3C//DTD SVG 1.1//EN"
  "http://www.w3.org/Graphics/SVG/1.1/DTD/svg11.dtd">
<svg xmlns:xlink="http://www.w3.org/1999/xlink" width="576pt" height="432pt" viewBox="0 0 576 432" xmlns="http://www.w3.org/2000/svg" version="1.1">
 <metadata>
  <rdf:RDF xmlns:dc="http://purl.org/dc/elements/1.1/" xmlns:cc="http://creativecommons.org/ns#" xmlns:rdf="http://www.w3.org/1999/02/22-rdf-syntax-ns#">
   <cc:Work>
    <dc:type rdf:resource="http://purl.org/dc/dcmitype/StillImage"/>
    <dc:date>2021-12-04T16:11:20.292001</dc:date>
    <dc:format>image/svg+xml</dc:format>
    <dc:creator>
     <cc:Agent>
      <dc:title>Matplotlib v3.5.0, https://matplotlib.org/</dc:title>
     </cc:Agent>
    </dc:creator>
   </cc:Work>
  </rdf:RDF>
 </metadata>
 <defs>
  <style type="text/css">*{stroke-linejoin: round; stroke-linecap: butt}</style>
 </defs>
 <g id="figure_1">
  <g id="patch_1">
   <path d="M 0 432 
L 576 432 
L 576 0 
L 0 0 
z
" style="fill: #ffffff"/>
  </g>
  <g id="axes_1">
   <g id="patch_2">
    <path d="M 54.02 390.04 
L 565.2 390.04 
L 565.2 26.88 
L 54.02 26.88 
z
" style="fill: #ffffff"/>
   </g>
   <g id="matplotlib.axis_1">
    <g id="xtick_1">
     <g id="line2d_1">
      <defs>
       <path id="mc74f61fcfc" d="M 0 0 
L 0 3.5 
" style="stroke: #000000; stroke-width: 0.8"/>
      </defs>
      <g>
       <use xlink:href="#mc74f61fcfc" x="74.920233" y="390.04" style="stroke: #000000; stroke-width: 0.8"/>
      </g>
     </g>
     <g id="text_1">
      <!-- 0 -->
      <g transform="translate(71.738983 404.638438)scale(0.1 -0.1)">
       <defs>
        <path id="DejaVuSans-30" d="M 2034 4250 
Q 1547 4250 1301 3770 
Q 1056 3291 1056 2328 
Q 1056 1369 1301 889 
Q 1547 409 2034 409 
Q 2525 409 2770 889 
Q 3016 1369 3016 2328 
Q 3016 3291 2770 3770 
Q 2525 4250 2034 4250 
z
M 2034 4750 
Q 2819 4750 3233 4129 
Q 3647 3509 3647 2328 
Q 3647 1150 3233 529 
Q 2819 -91 2034 -91 
Q 1250 -91 836 529 
Q 422 1150 422 2328 
Q 422 3509 836 4129 
Q 1250 4750 2034 4750 
z
" transform="scale(0.015625)"/>
       </defs>
       <use xlink:href="#DejaVuSans-30"/>
      </g>
     </g>
    </g>
    <g id="xtick_2">
     <g id="line2d_2">
      <g>
       <use xlink:href="#mc74f61fcfc" x="133.300772" y="390.04" style="stroke: #000000; stroke-width: 0.8"/>
      </g>
     </g>
     <g id="text_2">
      <!-- 25000 -->
      <g transform="translate(117.394522 404.638438)scale(0.1 -0.1)">
       <defs>
        <path id="DejaVuSans-32" d="M 1228 531 
L 3431 531 
L 3431 0 
L 469 0 
L 469 531 
Q 828 903 1448 1529 
Q 2069 2156 2228 2338 
Q 2531 2678 2651 2914 
Q 2772 3150 2772 3378 
Q 2772 3750 2511 3984 
Q 2250 4219 1831 4219 
Q 1534 4219 1204 4116 
Q 875 4013 500 3803 
L 500 4441 
Q 881 4594 1212 4672 
Q 1544 4750 1819 4750 
Q 2544 4750 2975 4387 
Q 3406 4025 3406 3419 
Q 3406 3131 3298 2873 
Q 3191 2616 2906 2266 
Q 2828 2175 2409 1742 
Q 1991 1309 1228 531 
z
" transform="scale(0.015625)"/>
        <path id="DejaVuSans-35" d="M 691 4666 
L 3169 4666 
L 3169 4134 
L 1269 4134 
L 1269 2991 
Q 1406 3038 1543 3061 
Q 1681 3084 1819 3084 
Q 2600 3084 3056 2656 
Q 3513 2228 3513 1497 
Q 3513 744 3044 326 
Q 2575 -91 1722 -91 
Q 1428 -91 1123 -41 
Q 819 9 494 109 
L 494 744 
Q 775 591 1075 516 
Q 1375 441 1709 441 
Q 2250 441 2565 725 
Q 2881 1009 2881 1497 
Q 2881 1984 2565 2268 
Q 2250 2553 1709 2553 
Q 1456 2553 1204 2497 
Q 953 2441 691 2322 
L 691 4666 
z
" transform="scale(0.015625)"/>
       </defs>
       <use xlink:href="#DejaVuSans-32"/>
       <use xlink:href="#DejaVuSans-35" x="63.623047"/>
       <use xlink:href="#DejaVuSans-30" x="127.246094"/>
       <use xlink:href="#DejaVuSans-30" x="190.869141"/>
       <use xlink:href="#DejaVuSans-30" x="254.492188"/>
      </g>
     </g>
    </g>
    <g id="xtick_3">
     <g id="line2d_3">
      <g>
       <use xlink:href="#mc74f61fcfc" x="191.681311" y="390.04" style="stroke: #000000; stroke-width: 0.8"/>
      </g>
     </g>
     <g id="text_3">
      <!-- 50000 -->
      <g transform="translate(175.775061 404.638438)scale(0.1 -0.1)">
       <use xlink:href="#DejaVuSans-35"/>
       <use xlink:href="#DejaVuSans-30" x="63.623047"/>
       <use xlink:href="#DejaVuSans-30" x="127.246094"/>
       <use xlink:href="#DejaVuSans-30" x="190.869141"/>
       <use xlink:href="#DejaVuSans-30" x="254.492188"/>
      </g>
     </g>
    </g>
    <g id="xtick_4">
     <g id="line2d_4">
      <g>
       <use xlink:href="#mc74f61fcfc" x="250.06185" y="390.04" style="stroke: #000000; stroke-width: 0.8"/>
      </g>
     </g>
     <g id="text_4">
      <!-- 75000 -->
      <g transform="translate(234.1556 404.638438)scale(0.1 -0.1)">
       <defs>
        <path id="DejaVuSans-37" d="M 525 4666 
L 3525 4666 
L 3525 4397 
L 1831 0 
L 1172 0 
L 2766 4134 
L 525 4134 
L 525 4666 
z
" transform="scale(0.015625)"/>
       </defs>
       <use xlink:href="#DejaVuSans-37"/>
       <use xlink:href="#DejaVuSans-35" x="63.623047"/>
       <use xlink:href="#DejaVuSans-30" x="127.246094"/>
       <use xlink:href="#DejaVuSans-30" x="190.869141"/>
       <use xlink:href="#DejaVuSans-30" x="254.492188"/>
      </g>
     </g>
    </g>
    <g id="xtick_5">
     <g id="line2d_5">
      <g>
       <use xlink:href="#mc74f61fcfc" x="308.442389" y="390.04" style="stroke: #000000; stroke-width: 0.8"/>
      </g>
     </g>
     <g id="text_5">
      <!-- 100000 -->
      <g transform="translate(289.354889 404.638438)scale(0.1 -0.1)">
       <defs>
        <path id="DejaVuSans-31" d="M 794 531 
L 1825 531 
L 1825 4091 
L 703 3866 
L 703 4441 
L 1819 4666 
L 2450 4666 
L 2450 531 
L 3481 531 
L 3481 0 
L 794 0 
L 794 531 
z
" transform="scale(0.015625)"/>
       </defs>
       <use xlink:href="#DejaVuSans-31"/>
       <use xlink:href="#DejaVuSans-30" x="63.623047"/>
       <use xlink:href="#DejaVuSans-30" x="127.246094"/>
       <use xlink:href="#DejaVuSans-30" x="190.869141"/>
       <use xlink:href="#DejaVuSans-30" x="254.492188"/>
       <use xlink:href="#DejaVuSans-30" x="318.115234"/>
      </g>
     </g>
    </g>
    <g id="xtick_6">
     <g id="line2d_6">
      <g>
       <use xlink:href="#mc74f61fcfc" x="366.822928" y="390.04" style="stroke: #000000; stroke-width: 0.8"/>
      </g>
     </g>
     <g id="text_6">
      <!-- 125000 -->
      <g transform="translate(347.735428 404.638438)scale(0.1 -0.1)">
       <use xlink:href="#DejaVuSans-31"/>
       <use xlink:href="#DejaVuSans-32" x="63.623047"/>
       <use xlink:href="#DejaVuSans-35" x="127.246094"/>
       <use xlink:href="#DejaVuSans-30" x="190.869141"/>
       <use xlink:href="#DejaVuSans-30" x="254.492188"/>
       <use xlink:href="#DejaVuSans-30" x="318.115234"/>
      </g>
     </g>
    </g>
    <g id="xtick_7">
     <g id="line2d_7">
      <g>
       <use xlink:href="#mc74f61fcfc" x="425.203467" y="390.04" style="stroke: #000000; stroke-width: 0.8"/>
      </g>
     </g>
     <g id="text_7">
      <!-- 150000 -->
      <g transform="translate(406.115967 404.638438)scale(0.1 -0.1)">
       <use xlink:href="#DejaVuSans-31"/>
       <use xlink:href="#DejaVuSans-35" x="63.623047"/>
       <use xlink:href="#DejaVuSans-30" x="127.246094"/>
       <use xlink:href="#DejaVuSans-30" x="190.869141"/>
       <use xlink:href="#DejaVuSans-30" x="254.492188"/>
       <use xlink:href="#DejaVuSans-30" x="318.115234"/>
      </g>
     </g>
    </g>
    <g id="xtick_8">
     <g id="line2d_8">
      <g>
       <use xlink:href="#mc74f61fcfc" x="483.584006" y="390.04" style="stroke: #000000; stroke-width: 0.8"/>
      </g>
     </g>
     <g id="text_8">
      <!-- 175000 -->
      <g transform="translate(464.496506 404.638438)scale(0.1 -0.1)">
       <use xlink:href="#DejaVuSans-31"/>
       <use xlink:href="#DejaVuSans-37" x="63.623047"/>
       <use xlink:href="#DejaVuSans-35" x="127.246094"/>
       <use xlink:href="#DejaVuSans-30" x="190.869141"/>
       <use xlink:href="#DejaVuSans-30" x="254.492188"/>
       <use xlink:href="#DejaVuSans-30" x="318.115234"/>
      </g>
     </g>
    </g>
    <g id="xtick_9">
     <g id="line2d_9">
      <g>
       <use xlink:href="#mc74f61fcfc" x="541.964545" y="390.04" style="stroke: #000000; stroke-width: 0.8"/>
      </g>
     </g>
     <g id="text_9">
      <!-- 200000 -->
      <g transform="translate(522.877045 404.638438)scale(0.1 -0.1)">
       <use xlink:href="#DejaVuSans-32"/>
       <use xlink:href="#DejaVuSans-30" x="63.623047"/>
       <use xlink:href="#DejaVuSans-30" x="127.246094"/>
       <use xlink:href="#DejaVuSans-30" x="190.869141"/>
       <use xlink:href="#DejaVuSans-30" x="254.492188"/>
       <use xlink:href="#DejaVuSans-30" x="318.115234"/>
      </g>
     </g>
    </g>
    <g id="text_10">
     <!-- Size (#edges) -->
     <g transform="translate(274.559219 418.316562)scale(0.1 -0.1)">
      <defs>
       <path id="DejaVuSans-53" d="M 3425 4513 
L 3425 3897 
Q 3066 4069 2747 4153 
Q 2428 4238 2131 4238 
Q 1616 4238 1336 4038 
Q 1056 3838 1056 3469 
Q 1056 3159 1242 3001 
Q 1428 2844 1947 2747 
L 2328 2669 
Q 3034 2534 3370 2195 
Q 3706 1856 3706 1288 
Q 3706 609 3251 259 
Q 2797 -91 1919 -91 
Q 1588 -91 1214 -16 
Q 841 59 441 206 
L 441 856 
Q 825 641 1194 531 
Q 1563 422 1919 422 
Q 2459 422 2753 634 
Q 3047 847 3047 1241 
Q 3047 1584 2836 1778 
Q 2625 1972 2144 2069 
L 1759 2144 
Q 1053 2284 737 2584 
Q 422 2884 422 3419 
Q 422 4038 858 4394 
Q 1294 4750 2059 4750 
Q 2388 4750 2728 4690 
Q 3069 4631 3425 4513 
z
" transform="scale(0.015625)"/>
       <path id="DejaVuSans-69" d="M 603 3500 
L 1178 3500 
L 1178 0 
L 603 0 
L 603 3500 
z
M 603 4863 
L 1178 4863 
L 1178 4134 
L 603 4134 
L 603 4863 
z
" transform="scale(0.015625)"/>
       <path id="DejaVuSans-7a" d="M 353 3500 
L 3084 3500 
L 3084 2975 
L 922 459 
L 3084 459 
L 3084 0 
L 275 0 
L 275 525 
L 2438 3041 
L 353 3041 
L 353 3500 
z
" transform="scale(0.015625)"/>
       <path id="DejaVuSans-65" d="M 3597 1894 
L 3597 1613 
L 953 1613 
Q 991 1019 1311 708 
Q 1631 397 2203 397 
Q 2534 397 2845 478 
Q 3156 559 3463 722 
L 3463 178 
Q 3153 47 2828 -22 
Q 2503 -91 2169 -91 
Q 1331 -91 842 396 
Q 353 884 353 1716 
Q 353 2575 817 3079 
Q 1281 3584 2069 3584 
Q 2775 3584 3186 3129 
Q 3597 2675 3597 1894 
z
M 3022 2063 
Q 3016 2534 2758 2815 
Q 2500 3097 2075 3097 
Q 1594 3097 1305 2825 
Q 1016 2553 972 2059 
L 3022 2063 
z
" transform="scale(0.015625)"/>
       <path id="DejaVuSans-20" transform="scale(0.015625)"/>
       <path id="DejaVuSans-28" d="M 1984 4856 
Q 1566 4138 1362 3434 
Q 1159 2731 1159 2009 
Q 1159 1288 1364 580 
Q 1569 -128 1984 -844 
L 1484 -844 
Q 1016 -109 783 600 
Q 550 1309 550 2009 
Q 550 2706 781 3412 
Q 1013 4119 1484 4856 
L 1984 4856 
z
" transform="scale(0.015625)"/>
       <path id="DejaVuSans-23" d="M 3272 2816 
L 2363 2816 
L 2100 1772 
L 3016 1772 
L 3272 2816 
z
M 2803 4594 
L 2478 3297 
L 3391 3297 
L 3719 4594 
L 4219 4594 
L 3897 3297 
L 4872 3297 
L 4872 2816 
L 3775 2816 
L 3519 1772 
L 4513 1772 
L 4513 1294 
L 3397 1294 
L 3072 0 
L 2572 0 
L 2894 1294 
L 1978 1294 
L 1656 0 
L 1153 0 
L 1478 1294 
L 494 1294 
L 494 1772 
L 1594 1772 
L 1856 2816 
L 850 2816 
L 850 3297 
L 1978 3297 
L 2297 4594 
L 2803 4594 
z
" transform="scale(0.015625)"/>
       <path id="DejaVuSans-64" d="M 2906 2969 
L 2906 4863 
L 3481 4863 
L 3481 0 
L 2906 0 
L 2906 525 
Q 2725 213 2448 61 
Q 2172 -91 1784 -91 
Q 1150 -91 751 415 
Q 353 922 353 1747 
Q 353 2572 751 3078 
Q 1150 3584 1784 3584 
Q 2172 3584 2448 3432 
Q 2725 3281 2906 2969 
z
M 947 1747 
Q 947 1113 1208 752 
Q 1469 391 1925 391 
Q 2381 391 2643 752 
Q 2906 1113 2906 1747 
Q 2906 2381 2643 2742 
Q 2381 3103 1925 3103 
Q 1469 3103 1208 2742 
Q 947 2381 947 1747 
z
" transform="scale(0.015625)"/>
       <path id="DejaVuSans-67" d="M 2906 1791 
Q 2906 2416 2648 2759 
Q 2391 3103 1925 3103 
Q 1463 3103 1205 2759 
Q 947 2416 947 1791 
Q 947 1169 1205 825 
Q 1463 481 1925 481 
Q 2391 481 2648 825 
Q 2906 1169 2906 1791 
z
M 3481 434 
Q 3481 -459 3084 -895 
Q 2688 -1331 1869 -1331 
Q 1566 -1331 1297 -1286 
Q 1028 -1241 775 -1147 
L 775 -588 
Q 1028 -725 1275 -790 
Q 1522 -856 1778 -856 
Q 2344 -856 2625 -561 
Q 2906 -266 2906 331 
L 2906 616 
Q 2728 306 2450 153 
Q 2172 0 1784 0 
Q 1141 0 747 490 
Q 353 981 353 1791 
Q 353 2603 747 3093 
Q 1141 3584 1784 3584 
Q 2172 3584 2450 3431 
Q 2728 3278 2906 2969 
L 2906 3500 
L 3481 3500 
L 3481 434 
z
" transform="scale(0.015625)"/>
       <path id="DejaVuSans-73" d="M 2834 3397 
L 2834 2853 
Q 2591 2978 2328 3040 
Q 2066 3103 1784 3103 
Q 1356 3103 1142 2972 
Q 928 2841 928 2578 
Q 928 2378 1081 2264 
Q 1234 2150 1697 2047 
L 1894 2003 
Q 2506 1872 2764 1633 
Q 3022 1394 3022 966 
Q 3022 478 2636 193 
Q 2250 -91 1575 -91 
Q 1294 -91 989 -36 
Q 684 19 347 128 
L 347 722 
Q 666 556 975 473 
Q 1284 391 1588 391 
Q 1994 391 2212 530 
Q 2431 669 2431 922 
Q 2431 1156 2273 1281 
Q 2116 1406 1581 1522 
L 1381 1569 
Q 847 1681 609 1914 
Q 372 2147 372 2553 
Q 372 3047 722 3315 
Q 1072 3584 1716 3584 
Q 2034 3584 2315 3537 
Q 2597 3491 2834 3397 
z
" transform="scale(0.015625)"/>
       <path id="DejaVuSans-29" d="M 513 4856 
L 1013 4856 
Q 1481 4119 1714 3412 
Q 1947 2706 1947 2009 
Q 1947 1309 1714 600 
Q 1481 -109 1013 -844 
L 513 -844 
Q 928 -128 1133 580 
Q 1338 1288 1338 2009 
Q 1338 2731 1133 3434 
Q 928 4138 513 4856 
z
" transform="scale(0.015625)"/>
      </defs>
      <use xlink:href="#DejaVuSans-53"/>
      <use xlink:href="#DejaVuSans-69" x="63.476562"/>
      <use xlink:href="#DejaVuSans-7a" x="91.259766"/>
      <use xlink:href="#DejaVuSans-65" x="143.75"/>
      <use xlink:href="#DejaVuSans-20" x="205.273438"/>
      <use xlink:href="#DejaVuSans-28" x="237.060547"/>
      <use xlink:href="#DejaVuSans-23" x="276.074219"/>
      <use xlink:href="#DejaVuSans-65" x="359.863281"/>
      <use xlink:href="#DejaVuSans-64" x="421.386719"/>
      <use xlink:href="#DejaVuSans-67" x="484.863281"/>
      <use xlink:href="#DejaVuSans-65" x="548.339844"/>
      <use xlink:href="#DejaVuSans-73" x="609.863281"/>
      <use xlink:href="#DejaVuSans-29" x="661.962891"/>
     </g>
    </g>
   </g>
   <g id="matplotlib.axis_2">
    <g id="ytick_1">
     <g id="line2d_10">
      <defs>
       <path id="m7eb1c47a8f" d="M 0 0 
L -3.5 0 
" style="stroke: #000000; stroke-width: 0.8"/>
      </defs>
      <g>
       <use xlink:href="#m7eb1c47a8f" x="54.02" y="373.532727" style="stroke: #000000; stroke-width: 0.8"/>
      </g>
     </g>
     <g id="text_11">
      <!-- 0.00 -->
      <g transform="translate(24.754375 377.331946)scale(0.1 -0.1)">
       <defs>
        <path id="DejaVuSans-2e" d="M 684 794 
L 1344 794 
L 1344 0 
L 684 0 
L 684 794 
z
" transform="scale(0.015625)"/>
       </defs>
       <use xlink:href="#DejaVuSans-30"/>
       <use xlink:href="#DejaVuSans-2e" x="63.623047"/>
       <use xlink:href="#DejaVuSans-30" x="95.410156"/>
       <use xlink:href="#DejaVuSans-30" x="159.033203"/>
      </g>
     </g>
    </g>
    <g id="ytick_2">
     <g id="line2d_11">
      <g>
       <use xlink:href="#m7eb1c47a8f" x="54.02" y="315.099903" style="stroke: #000000; stroke-width: 0.8"/>
      </g>
     </g>
     <g id="text_12">
      <!-- 0.02 -->
      <g transform="translate(24.754375 318.899122)scale(0.1 -0.1)">
       <use xlink:href="#DejaVuSans-30"/>
       <use xlink:href="#DejaVuSans-2e" x="63.623047"/>
       <use xlink:href="#DejaVuSans-30" x="95.410156"/>
       <use xlink:href="#DejaVuSans-32" x="159.033203"/>
      </g>
     </g>
    </g>
    <g id="ytick_3">
     <g id="line2d_12">
      <g>
       <use xlink:href="#m7eb1c47a8f" x="54.02" y="256.66708" style="stroke: #000000; stroke-width: 0.8"/>
      </g>
     </g>
     <g id="text_13">
      <!-- 0.04 -->
      <g transform="translate(24.754375 260.466298)scale(0.1 -0.1)">
       <defs>
        <path id="DejaVuSans-34" d="M 2419 4116 
L 825 1625 
L 2419 1625 
L 2419 4116 
z
M 2253 4666 
L 3047 4666 
L 3047 1625 
L 3713 1625 
L 3713 1100 
L 3047 1100 
L 3047 0 
L 2419 0 
L 2419 1100 
L 313 1100 
L 313 1709 
L 2253 4666 
z
" transform="scale(0.015625)"/>
       </defs>
       <use xlink:href="#DejaVuSans-30"/>
       <use xlink:href="#DejaVuSans-2e" x="63.623047"/>
       <use xlink:href="#DejaVuSans-30" x="95.410156"/>
       <use xlink:href="#DejaVuSans-34" x="159.033203"/>
      </g>
     </g>
    </g>
    <g id="ytick_4">
     <g id="line2d_13">
      <g>
       <use xlink:href="#m7eb1c47a8f" x="54.02" y="198.234256" style="stroke: #000000; stroke-width: 0.8"/>
      </g>
     </g>
     <g id="text_14">
      <!-- 0.06 -->
      <g transform="translate(24.754375 202.033475)scale(0.1 -0.1)">
       <defs>
        <path id="DejaVuSans-36" d="M 2113 2584 
Q 1688 2584 1439 2293 
Q 1191 2003 1191 1497 
Q 1191 994 1439 701 
Q 1688 409 2113 409 
Q 2538 409 2786 701 
Q 3034 994 3034 1497 
Q 3034 2003 2786 2293 
Q 2538 2584 2113 2584 
z
M 3366 4563 
L 3366 3988 
Q 3128 4100 2886 4159 
Q 2644 4219 2406 4219 
Q 1781 4219 1451 3797 
Q 1122 3375 1075 2522 
Q 1259 2794 1537 2939 
Q 1816 3084 2150 3084 
Q 2853 3084 3261 2657 
Q 3669 2231 3669 1497 
Q 3669 778 3244 343 
Q 2819 -91 2113 -91 
Q 1303 -91 875 529 
Q 447 1150 447 2328 
Q 447 3434 972 4092 
Q 1497 4750 2381 4750 
Q 2619 4750 2861 4703 
Q 3103 4656 3366 4563 
z
" transform="scale(0.015625)"/>
       </defs>
       <use xlink:href="#DejaVuSans-30"/>
       <use xlink:href="#DejaVuSans-2e" x="63.623047"/>
       <use xlink:href="#DejaVuSans-30" x="95.410156"/>
       <use xlink:href="#DejaVuSans-36" x="159.033203"/>
      </g>
     </g>
    </g>
    <g id="ytick_5">
     <g id="line2d_14">
      <g>
       <use xlink:href="#m7eb1c47a8f" x="54.02" y="139.801432" style="stroke: #000000; stroke-width: 0.8"/>
      </g>
     </g>
     <g id="text_15">
      <!-- 0.08 -->
      <g transform="translate(24.754375 143.600651)scale(0.1 -0.1)">
       <defs>
        <path id="DejaVuSans-38" d="M 2034 2216 
Q 1584 2216 1326 1975 
Q 1069 1734 1069 1313 
Q 1069 891 1326 650 
Q 1584 409 2034 409 
Q 2484 409 2743 651 
Q 3003 894 3003 1313 
Q 3003 1734 2745 1975 
Q 2488 2216 2034 2216 
z
M 1403 2484 
Q 997 2584 770 2862 
Q 544 3141 544 3541 
Q 544 4100 942 4425 
Q 1341 4750 2034 4750 
Q 2731 4750 3128 4425 
Q 3525 4100 3525 3541 
Q 3525 3141 3298 2862 
Q 3072 2584 2669 2484 
Q 3125 2378 3379 2068 
Q 3634 1759 3634 1313 
Q 3634 634 3220 271 
Q 2806 -91 2034 -91 
Q 1263 -91 848 271 
Q 434 634 434 1313 
Q 434 1759 690 2068 
Q 947 2378 1403 2484 
z
M 1172 3481 
Q 1172 3119 1398 2916 
Q 1625 2713 2034 2713 
Q 2441 2713 2670 2916 
Q 2900 3119 2900 3481 
Q 2900 3844 2670 4047 
Q 2441 4250 2034 4250 
Q 1625 4250 1398 4047 
Q 1172 3844 1172 3481 
z
" transform="scale(0.015625)"/>
       </defs>
       <use xlink:href="#DejaVuSans-30"/>
       <use xlink:href="#DejaVuSans-2e" x="63.623047"/>
       <use xlink:href="#DejaVuSans-30" x="95.410156"/>
       <use xlink:href="#DejaVuSans-38" x="159.033203"/>
      </g>
     </g>
    </g>
    <g id="ytick_6">
     <g id="line2d_15">
      <g>
       <use xlink:href="#m7eb1c47a8f" x="54.02" y="81.368608" style="stroke: #000000; stroke-width: 0.8"/>
      </g>
     </g>
     <g id="text_16">
      <!-- 0.10 -->
      <g transform="translate(24.754375 85.167827)scale(0.1 -0.1)">
       <use xlink:href="#DejaVuSans-30"/>
       <use xlink:href="#DejaVuSans-2e" x="63.623047"/>
       <use xlink:href="#DejaVuSans-31" x="95.410156"/>
       <use xlink:href="#DejaVuSans-30" x="159.033203"/>
      </g>
     </g>
    </g>
    <g id="text_17">
     <!-- Seconds spent -->
     <g transform="translate(18.674688 245.040469)rotate(-90)scale(0.1 -0.1)">
      <defs>
       <path id="DejaVuSans-63" d="M 3122 3366 
L 3122 2828 
Q 2878 2963 2633 3030 
Q 2388 3097 2138 3097 
Q 1578 3097 1268 2742 
Q 959 2388 959 1747 
Q 959 1106 1268 751 
Q 1578 397 2138 397 
Q 2388 397 2633 464 
Q 2878 531 3122 666 
L 3122 134 
Q 2881 22 2623 -34 
Q 2366 -91 2075 -91 
Q 1284 -91 818 406 
Q 353 903 353 1747 
Q 353 2603 823 3093 
Q 1294 3584 2113 3584 
Q 2378 3584 2631 3529 
Q 2884 3475 3122 3366 
z
" transform="scale(0.015625)"/>
       <path id="DejaVuSans-6f" d="M 1959 3097 
Q 1497 3097 1228 2736 
Q 959 2375 959 1747 
Q 959 1119 1226 758 
Q 1494 397 1959 397 
Q 2419 397 2687 759 
Q 2956 1122 2956 1747 
Q 2956 2369 2687 2733 
Q 2419 3097 1959 3097 
z
M 1959 3584 
Q 2709 3584 3137 3096 
Q 3566 2609 3566 1747 
Q 3566 888 3137 398 
Q 2709 -91 1959 -91 
Q 1206 -91 779 398 
Q 353 888 353 1747 
Q 353 2609 779 3096 
Q 1206 3584 1959 3584 
z
" transform="scale(0.015625)"/>
       <path id="DejaVuSans-6e" d="M 3513 2113 
L 3513 0 
L 2938 0 
L 2938 2094 
Q 2938 2591 2744 2837 
Q 2550 3084 2163 3084 
Q 1697 3084 1428 2787 
Q 1159 2491 1159 1978 
L 1159 0 
L 581 0 
L 581 3500 
L 1159 3500 
L 1159 2956 
Q 1366 3272 1645 3428 
Q 1925 3584 2291 3584 
Q 2894 3584 3203 3211 
Q 3513 2838 3513 2113 
z
" transform="scale(0.015625)"/>
       <path id="DejaVuSans-70" d="M 1159 525 
L 1159 -1331 
L 581 -1331 
L 581 3500 
L 1159 3500 
L 1159 2969 
Q 1341 3281 1617 3432 
Q 1894 3584 2278 3584 
Q 2916 3584 3314 3078 
Q 3713 2572 3713 1747 
Q 3713 922 3314 415 
Q 2916 -91 2278 -91 
Q 1894 -91 1617 61 
Q 1341 213 1159 525 
z
M 3116 1747 
Q 3116 2381 2855 2742 
Q 2594 3103 2138 3103 
Q 1681 3103 1420 2742 
Q 1159 2381 1159 1747 
Q 1159 1113 1420 752 
Q 1681 391 2138 391 
Q 2594 391 2855 752 
Q 3116 1113 3116 1747 
z
" transform="scale(0.015625)"/>
       <path id="DejaVuSans-74" d="M 1172 4494 
L 1172 3500 
L 2356 3500 
L 2356 3053 
L 1172 3053 
L 1172 1153 
Q 1172 725 1289 603 
Q 1406 481 1766 481 
L 2356 481 
L 2356 0 
L 1766 0 
Q 1100 0 847 248 
Q 594 497 594 1153 
L 594 3053 
L 172 3053 
L 172 3500 
L 594 3500 
L 594 4494 
L 1172 4494 
z
" transform="scale(0.015625)"/>
      </defs>
      <use xlink:href="#DejaVuSans-53"/>
      <use xlink:href="#DejaVuSans-65" x="63.476562"/>
      <use xlink:href="#DejaVuSans-63" x="125"/>
      <use xlink:href="#DejaVuSans-6f" x="179.980469"/>
      <use xlink:href="#DejaVuSans-6e" x="241.162109"/>
      <use xlink:href="#DejaVuSans-64" x="304.541016"/>
      <use xlink:href="#DejaVuSans-73" x="368.017578"/>
      <use xlink:href="#DejaVuSans-20" x="420.117188"/>
      <use xlink:href="#DejaVuSans-73" x="451.904297"/>
      <use xlink:href="#DejaVuSans-70" x="504.003906"/>
      <use xlink:href="#DejaVuSans-65" x="567.480469"/>
      <use xlink:href="#DejaVuSans-6e" x="629.003906"/>
      <use xlink:href="#DejaVuSans-74" x="692.382812"/>
     </g>
    </g>
   </g>
   <g id="LineCollection_1">
    <path d="M 77.255455 362.138327 
L 77.255455 358.071402 
" clip-path="url(#pa6ebc073c4)" style="fill: none; stroke: #009933; stroke-width: 1.5"/>
    <path d="M 79.590676 360.344439 
L 79.590676 359.535144 
" clip-path="url(#pa6ebc073c4)" style="fill: none; stroke: #009933; stroke-width: 1.5"/>
    <path d="M 81.925898 354.647239 
L 81.925898 354.045381 
" clip-path="url(#pa6ebc073c4)" style="fill: none; stroke: #009933; stroke-width: 1.5"/>
    <path d="M 84.261119 351.331176 
L 84.261119 346.060535 
" clip-path="url(#pa6ebc073c4)" style="fill: none; stroke: #009933; stroke-width: 1.5"/>
    <path d="M 86.596341 346.387759 
L 86.596341 341.704368 
" clip-path="url(#pa6ebc073c4)" style="fill: none; stroke: #009933; stroke-width: 1.5"/>
    <path d="M 88.931562 339.694279 
L 88.931562 337.146608 
" clip-path="url(#pa6ebc073c4)" style="fill: none; stroke: #009933; stroke-width: 1.5"/>
    <path d="M 91.266784 337.254709 
L 91.266784 331.320855 
" clip-path="url(#pa6ebc073c4)" style="fill: none; stroke: #009933; stroke-width: 1.5"/>
    <path d="M 93.602005 332.594691 
L 93.602005 329.562027 
" clip-path="url(#pa6ebc073c4)" style="fill: none; stroke: #009933; stroke-width: 1.5"/>
    <path d="M 95.937227 332.483669 
L 95.937227 327.011435 
" clip-path="url(#pa6ebc073c4)" style="fill: none; stroke: #009933; stroke-width: 1.5"/>
    <path d="M 98.272449 328.022322 
L 98.272449 322.39232 
" clip-path="url(#pa6ebc073c4)" style="fill: none; stroke: #009933; stroke-width: 1.5"/>
    <path d="M 121.624664 319.070414 
L 121.624664 307.626345 
" clip-path="url(#pa6ebc073c4)" style="fill: none; stroke: #009933; stroke-width: 1.5"/>
    <path d="M 144.97688 308.56127 
L 144.97688 308.350912 
" clip-path="url(#pa6ebc073c4)" style="fill: none; stroke: #009933; stroke-width: 1.5"/>
    <path d="M 168.329095 305.303641 
L 168.329095 303.784387 
" clip-path="url(#pa6ebc073c4)" style="fill: none; stroke: #009933; stroke-width: 1.5"/>
    <path d="M 191.681311 305.835379 
L 191.681311 295.221057 
" clip-path="url(#pa6ebc073c4)" style="fill: none; stroke: #009933; stroke-width: 1.5"/>
    <path d="M 215.033527 306.387569 
L 215.033527 300.377753 
" clip-path="url(#pa6ebc073c4)" style="fill: none; stroke: #009933; stroke-width: 1.5"/>
    <path d="M 238.385742 297.856377 
L 238.385742 292.588658 
" clip-path="url(#pa6ebc073c4)" style="fill: none; stroke: #009933; stroke-width: 1.5"/>
    <path d="M 261.737958 292.074449 
L 261.737958 288.933685 
" clip-path="url(#pa6ebc073c4)" style="fill: none; stroke: #009933; stroke-width: 1.5"/>
    <path d="M 285.090174 284.039936 
L 285.090174 265.753384 
" clip-path="url(#pa6ebc073c4)" style="fill: none; stroke: #009933; stroke-width: 1.5"/>
    <path d="M 308.442389 274.921494 
L 308.442389 272.993211 
" clip-path="url(#pa6ebc073c4)" style="fill: none; stroke: #009933; stroke-width: 1.5"/>
    <path d="M 366.822928 246.008933 
L 366.822928 243.925802 
" clip-path="url(#pa6ebc073c4)" style="fill: none; stroke: #009933; stroke-width: 1.5"/>
    <path d="M 425.203467 208.775537 
L 425.203467 205.73703 
" clip-path="url(#pa6ebc073c4)" style="fill: none; stroke: #009933; stroke-width: 1.5"/>
    <path d="M 483.584006 174.265112 
L 483.584006 167.881326 
" clip-path="url(#pa6ebc073c4)" style="fill: none; stroke: #009933; stroke-width: 1.5"/>
    <path d="M 541.964545 119.829093 
L 541.964545 104.078525 
" clip-path="url(#pa6ebc073c4)" style="fill: none; stroke: #009933; stroke-width: 1.5"/>
   </g>
   <g id="line2d_16">
    <defs>
     <path id="m567d63a80a" d="M 3 0 
L -3 -0 
" style="stroke: #009933"/>
    </defs>
    <g clip-path="url(#pa6ebc073c4)">
     <use xlink:href="#m567d63a80a" x="77.255455" y="362.138327" style="fill: #009933; stroke: #009933"/>
     <use xlink:href="#m567d63a80a" x="79.590676" y="360.344439" style="fill: #009933; stroke: #009933"/>
     <use xlink:href="#m567d63a80a" x="81.925898" y="354.647239" style="fill: #009933; stroke: #009933"/>
     <use xlink:href="#m567d63a80a" x="84.261119" y="351.331176" style="fill: #009933; stroke: #009933"/>
     <use xlink:href="#m567d63a80a" x="86.596341" y="346.387759" style="fill: #009933; stroke: #009933"/>
     <use xlink:href="#m567d63a80a" x="88.931562" y="339.694279" style="fill: #009933; stroke: #009933"/>
     <use xlink:href="#m567d63a80a" x="91.266784" y="337.254709" style="fill: #009933; stroke: #009933"/>
     <use xlink:href="#m567d63a80a" x="93.602005" y="332.594691" style="fill: #009933; stroke: #009933"/>
     <use xlink:href="#m567d63a80a" x="95.937227" y="332.483669" style="fill: #009933; stroke: #009933"/>
     <use xlink:href="#m567d63a80a" x="98.272449" y="328.022322" style="fill: #009933; stroke: #009933"/>
     <use xlink:href="#m567d63a80a" x="121.624664" y="319.070414" style="fill: #009933; stroke: #009933"/>
     <use xlink:href="#m567d63a80a" x="144.97688" y="308.56127" style="fill: #009933; stroke: #009933"/>
     <use xlink:href="#m567d63a80a" x="168.329095" y="305.303641" style="fill: #009933; stroke: #009933"/>
     <use xlink:href="#m567d63a80a" x="191.681311" y="305.835379" style="fill: #009933; stroke: #009933"/>
     <use xlink:href="#m567d63a80a" x="215.033527" y="306.387569" style="fill: #009933; stroke: #009933"/>
     <use xlink:href="#m567d63a80a" x="238.385742" y="297.856377" style="fill: #009933; stroke: #009933"/>
     <use xlink:href="#m567d63a80a" x="261.737958" y="292.074449" style="fill: #009933; stroke: #009933"/>
     <use xlink:href="#m567d63a80a" x="285.090174" y="284.039936" style="fill: #009933; stroke: #009933"/>
     <use xlink:href="#m567d63a80a" x="308.442389" y="274.921494" style="fill: #009933; stroke: #009933"/>
     <use xlink:href="#m567d63a80a" x="366.822928" y="246.008933" style="fill: #009933; stroke: #009933"/>
     <use xlink:href="#m567d63a80a" x="425.203467" y="208.775537" style="fill: #009933; stroke: #009933"/>
     <use xlink:href="#m567d63a80a" x="483.584006" y="174.265112" style="fill: #009933; stroke: #009933"/>
     <use xlink:href="#m567d63a80a" x="541.964545" y="119.829093" style="fill: #009933; stroke: #009933"/>
    </g>
   </g>
   <g id="line2d_17">
    <g clip-path="url(#pa6ebc073c4)">
     <use xlink:href="#m567d63a80a" x="77.255455" y="358.071402" style="fill: #009933; stroke: #009933"/>
     <use xlink:href="#m567d63a80a" x="79.590676" y="359.535144" style="fill: #009933; stroke: #009933"/>
     <use xlink:href="#m567d63a80a" x="81.925898" y="354.045381" style="fill: #009933; stroke: #009933"/>
     <use xlink:href="#m567d63a80a" x="84.261119" y="346.060535" style="fill: #009933; stroke: #009933"/>
     <use xlink:href="#m567d63a80a" x="86.596341" y="341.704368" style="fill: #009933; stroke: #009933"/>
     <use xlink:href="#m567d63a80a" x="88.931562" y="337.146608" style="fill: #009933; stroke: #009933"/>
     <use xlink:href="#m567d63a80a" x="91.266784" y="331.320855" style="fill: #009933; stroke: #009933"/>
     <use xlink:href="#m567d63a80a" x="93.602005" y="329.562027" style="fill: #009933; stroke: #009933"/>
     <use xlink:href="#m567d63a80a" x="95.937227" y="327.011435" style="fill: #009933; stroke: #009933"/>
     <use xlink:href="#m567d63a80a" x="98.272449" y="322.39232" style="fill: #009933; stroke: #009933"/>
     <use xlink:href="#m567d63a80a" x="121.624664" y="307.626345" style="fill: #009933; stroke: #009933"/>
     <use xlink:href="#m567d63a80a" x="144.97688" y="308.350912" style="fill: #009933; stroke: #009933"/>
     <use xlink:href="#m567d63a80a" x="168.329095" y="303.784387" style="fill: #009933; stroke: #009933"/>
     <use xlink:href="#m567d63a80a" x="191.681311" y="295.221057" style="fill: #009933; stroke: #009933"/>
     <use xlink:href="#m567d63a80a" x="215.033527" y="300.377753" style="fill: #009933; stroke: #009933"/>
     <use xlink:href="#m567d63a80a" x="238.385742" y="292.588658" style="fill: #009933; stroke: #009933"/>
     <use xlink:href="#m567d63a80a" x="261.737958" y="288.933685" style="fill: #009933; stroke: #009933"/>
     <use xlink:href="#m567d63a80a" x="285.090174" y="265.753384" style="fill: #009933; stroke: #009933"/>
     <use xlink:href="#m567d63a80a" x="308.442389" y="272.993211" style="fill: #009933; stroke: #009933"/>
     <use xlink:href="#m567d63a80a" x="366.822928" y="243.925802" style="fill: #009933; stroke: #009933"/>
     <use xlink:href="#m567d63a80a" x="425.203467" y="205.73703" style="fill: #009933; stroke: #009933"/>
     <use xlink:href="#m567d63a80a" x="483.584006" y="167.881326" style="fill: #009933; stroke: #009933"/>
     <use xlink:href="#m567d63a80a" x="541.964545" y="104.078525" style="fill: #009933; stroke: #009933"/>
    </g>
   </g>
   <g id="LineCollection_2">
    <path d="M 77.255455 373.532727 
L 77.255455 370.611086 
" clip-path="url(#pa6ebc073c4)" style="fill: none; stroke: #666600; stroke-width: 1.5"/>
    <path d="M 79.590676 370.611086 
L 79.590676 370.611086 
" clip-path="url(#pa6ebc073c4)" style="fill: none; stroke: #666600; stroke-width: 1.5"/>
    <path d="M 81.925898 367.689445 
L 81.925898 367.689445 
" clip-path="url(#pa6ebc073c4)" style="fill: none; stroke: #666600; stroke-width: 1.5"/>
    <path d="M 84.261119 364.767804 
L 84.261119 364.767804 
" clip-path="url(#pa6ebc073c4)" style="fill: none; stroke: #666600; stroke-width: 1.5"/>
    <path d="M 86.596341 364.767804 
L 86.596341 361.846163 
" clip-path="url(#pa6ebc073c4)" style="fill: none; stroke: #666600; stroke-width: 1.5"/>
    <path d="M 88.931562 361.846163 
L 88.931562 361.846163 
" clip-path="url(#pa6ebc073c4)" style="fill: none; stroke: #666600; stroke-width: 1.5"/>
    <path d="M 91.266784 361.846163 
L 91.266784 358.924521 
" clip-path="url(#pa6ebc073c4)" style="fill: none; stroke: #666600; stroke-width: 1.5"/>
    <path d="M 93.602005 358.924521 
L 93.602005 350.159598 
" clip-path="url(#pa6ebc073c4)" style="fill: none; stroke: #666600; stroke-width: 1.5"/>
    <path d="M 95.937227 356.00288 
L 95.937227 353.081239 
" clip-path="url(#pa6ebc073c4)" style="fill: none; stroke: #666600; stroke-width: 1.5"/>
    <path d="M 98.272449 356.00288 
L 98.272449 356.00288 
" clip-path="url(#pa6ebc073c4)" style="fill: none; stroke: #666600; stroke-width: 1.5"/>
    <path d="M 121.624664 350.159598 
L 121.624664 344.316315 
" clip-path="url(#pa6ebc073c4)" style="fill: none; stroke: #666600; stroke-width: 1.5"/>
    <path d="M 144.97688 344.316315 
L 144.97688 341.394674 
" clip-path="url(#pa6ebc073c4)" style="fill: none; stroke: #666600; stroke-width: 1.5"/>
    <path d="M 168.329095 335.551392 
L 168.329095 323.864827 
" clip-path="url(#pa6ebc073c4)" style="fill: none; stroke: #666600; stroke-width: 1.5"/>
    <path d="M 191.681311 326.786468 
L 191.681311 315.099903 
" clip-path="url(#pa6ebc073c4)" style="fill: none; stroke: #666600; stroke-width: 1.5"/>
    <path d="M 215.033527 309.256621 
L 215.033527 306.33498 
" clip-path="url(#pa6ebc073c4)" style="fill: none; stroke: #666600; stroke-width: 1.5"/>
    <path d="M 238.385742 291.726774 
L 238.385742 247.902156 
" clip-path="url(#pa6ebc073c4)" style="fill: none; stroke: #666600; stroke-width: 1.5"/>
    <path d="M 261.737958 265.432003 
L 261.737958 233.29395 
" clip-path="url(#pa6ebc073c4)" style="fill: none; stroke: #666600; stroke-width: 1.5"/>
    <path d="M 285.090174 280.040209 
L 285.090174 233.29395 
" clip-path="url(#pa6ebc073c4)" style="fill: none; stroke: #666600; stroke-width: 1.5"/>
    <path d="M 308.442389 271.275286 
L 308.442389 239.137233 
" clip-path="url(#pa6ebc073c4)" style="fill: none; stroke: #666600; stroke-width: 1.5"/>
    <path d="M 366.822928 227.450668 
L 366.822928 171.939485 
" clip-path="url(#pa6ebc073c4)" style="fill: none; stroke: #666600; stroke-width: 1.5"/>
    <path d="M 425.203467 198.234256 
L 425.203467 148.566356 
" clip-path="url(#pa6ebc073c4)" style="fill: none; stroke: #666600; stroke-width: 1.5"/>
    <path d="M 483.584006 119.349944 
L 483.584006 63.838761 
" clip-path="url(#pa6ebc073c4)" style="fill: none; stroke: #666600; stroke-width: 1.5"/>
    <path d="M 541.964545 110.58502 
L 541.964545 43.387273 
" clip-path="url(#pa6ebc073c4)" style="fill: none; stroke: #666600; stroke-width: 1.5"/>
   </g>
   <g id="line2d_18">
    <defs>
     <path id="ma612d83d5a" d="M 3 0 
L -3 -0 
" style="stroke: #666600"/>
    </defs>
    <g clip-path="url(#pa6ebc073c4)">
     <use xlink:href="#ma612d83d5a" x="77.255455" y="373.532727" style="fill: #666600; stroke: #666600"/>
     <use xlink:href="#ma612d83d5a" x="79.590676" y="370.611086" style="fill: #666600; stroke: #666600"/>
     <use xlink:href="#ma612d83d5a" x="81.925898" y="367.689445" style="fill: #666600; stroke: #666600"/>
     <use xlink:href="#ma612d83d5a" x="84.261119" y="364.767804" style="fill: #666600; stroke: #666600"/>
     <use xlink:href="#ma612d83d5a" x="86.596341" y="364.767804" style="fill: #666600; stroke: #666600"/>
     <use xlink:href="#ma612d83d5a" x="88.931562" y="361.846163" style="fill: #666600; stroke: #666600"/>
     <use xlink:href="#ma612d83d5a" x="91.266784" y="361.846163" style="fill: #666600; stroke: #666600"/>
     <use xlink:href="#ma612d83d5a" x="93.602005" y="358.924521" style="fill: #666600; stroke: #666600"/>
     <use xlink:href="#ma612d83d5a" x="95.937227" y="356.00288" style="fill: #666600; stroke: #666600"/>
     <use xlink:href="#ma612d83d5a" x="98.272449" y="356.00288" style="fill: #666600; stroke: #666600"/>
     <use xlink:href="#ma612d83d5a" x="121.624664" y="350.159598" style="fill: #666600; stroke: #666600"/>
     <use xlink:href="#ma612d83d5a" x="144.97688" y="344.316315" style="fill: #666600; stroke: #666600"/>
     <use xlink:href="#ma612d83d5a" x="168.329095" y="335.551392" style="fill: #666600; stroke: #666600"/>
     <use xlink:href="#ma612d83d5a" x="191.681311" y="326.786468" style="fill: #666600; stroke: #666600"/>
     <use xlink:href="#ma612d83d5a" x="215.033527" y="309.256621" style="fill: #666600; stroke: #666600"/>
     <use xlink:href="#ma612d83d5a" x="238.385742" y="291.726774" style="fill: #666600; stroke: #666600"/>
     <use xlink:href="#ma612d83d5a" x="261.737958" y="265.432003" style="fill: #666600; stroke: #666600"/>
     <use xlink:href="#ma612d83d5a" x="285.090174" y="280.040209" style="fill: #666600; stroke: #666600"/>
     <use xlink:href="#ma612d83d5a" x="308.442389" y="271.275286" style="fill: #666600; stroke: #666600"/>
     <use xlink:href="#ma612d83d5a" x="366.822928" y="227.450668" style="fill: #666600; stroke: #666600"/>
     <use xlink:href="#ma612d83d5a" x="425.203467" y="198.234256" style="fill: #666600; stroke: #666600"/>
     <use xlink:href="#ma612d83d5a" x="483.584006" y="119.349944" style="fill: #666600; stroke: #666600"/>
     <use xlink:href="#ma612d83d5a" x="541.964545" y="110.58502" style="fill: #666600; stroke: #666600"/>
    </g>
   </g>
   <g id="line2d_19">
    <g clip-path="url(#pa6ebc073c4)">
     <use xlink:href="#ma612d83d5a" x="77.255455" y="370.611086" style="fill: #666600; stroke: #666600"/>
     <use xlink:href="#ma612d83d5a" x="79.590676" y="370.611086" style="fill: #666600; stroke: #666600"/>
     <use xlink:href="#ma612d83d5a" x="81.925898" y="367.689445" style="fill: #666600; stroke: #666600"/>
     <use xlink:href="#ma612d83d5a" x="84.261119" y="364.767804" style="fill: #666600; stroke: #666600"/>
     <use xlink:href="#ma612d83d5a" x="86.596341" y="361.846163" style="fill: #666600; stroke: #666600"/>
     <use xlink:href="#ma612d83d5a" x="88.931562" y="361.846163" style="fill: #666600; stroke: #666600"/>
     <use xlink:href="#ma612d83d5a" x="91.266784" y="358.924521" style="fill: #666600; stroke: #666600"/>
     <use xlink:href="#ma612d83d5a" x="93.602005" y="350.159598" style="fill: #666600; stroke: #666600"/>
     <use xlink:href="#ma612d83d5a" x="95.937227" y="353.081239" style="fill: #666600; stroke: #666600"/>
     <use xlink:href="#ma612d83d5a" x="98.272449" y="356.00288" style="fill: #666600; stroke: #666600"/>
     <use xlink:href="#ma612d83d5a" x="121.624664" y="344.316315" style="fill: #666600; stroke: #666600"/>
     <use xlink:href="#ma612d83d5a" x="144.97688" y="341.394674" style="fill: #666600; stroke: #666600"/>
     <use xlink:href="#ma612d83d5a" x="168.329095" y="323.864827" style="fill: #666600; stroke: #666600"/>
     <use xlink:href="#ma612d83d5a" x="191.681311" y="315.099903" style="fill: #666600; stroke: #666600"/>
     <use xlink:href="#ma612d83d5a" x="215.033527" y="306.33498" style="fill: #666600; stroke: #666600"/>
     <use xlink:href="#ma612d83d5a" x="238.385742" y="247.902156" style="fill: #666600; stroke: #666600"/>
     <use xlink:href="#ma612d83d5a" x="261.737958" y="233.29395" style="fill: #666600; stroke: #666600"/>
     <use xlink:href="#ma612d83d5a" x="285.090174" y="233.29395" style="fill: #666600; stroke: #666600"/>
     <use xlink:href="#ma612d83d5a" x="308.442389" y="239.137233" style="fill: #666600; stroke: #666600"/>
     <use xlink:href="#ma612d83d5a" x="366.822928" y="171.939485" style="fill: #666600; stroke: #666600"/>
     <use xlink:href="#ma612d83d5a" x="425.203467" y="148.566356" style="fill: #666600; stroke: #666600"/>
     <use xlink:href="#ma612d83d5a" x="483.584006" y="63.838761" style="fill: #666600; stroke: #666600"/>
     <use xlink:href="#ma612d83d5a" x="541.964545" y="43.387273" style="fill: #666600; stroke: #666600"/>
    </g>
   </g>
   <g id="LineCollection_3">
    <path d="M 77.255455 358.840086 
L 77.255455 345.326619 
" clip-path="url(#pa6ebc073c4)" style="fill: none; stroke: #990000; stroke-width: 1.5"/>
    <path d="M 79.590676 362.948206 
L 79.590676 337.91237 
" clip-path="url(#pa6ebc073c4)" style="fill: none; stroke: #990000; stroke-width: 1.5"/>
    <path d="M 81.925898 358.781361 
L 81.925898 326.596562 
" clip-path="url(#pa6ebc073c4)" style="fill: none; stroke: #990000; stroke-width: 1.5"/>
    <path d="M 84.261119 339.321185 
L 84.261119 335.382229 
" clip-path="url(#pa6ebc073c4)" style="fill: none; stroke: #990000; stroke-width: 1.5"/>
    <path d="M 86.596341 309.490352 
L 86.596341 305.051795 
" clip-path="url(#pa6ebc073c4)" style="fill: none; stroke: #990000; stroke-width: 1.5"/>
    <path d="M 88.931562 332.260747 
L 88.931562 303.923457 
" clip-path="url(#pa6ebc073c4)" style="fill: none; stroke: #990000; stroke-width: 1.5"/>
    <path d="M 91.266784 342.922108 
L 91.266784 298.847982 
" clip-path="url(#pa6ebc073c4)" style="fill: none; stroke: #990000; stroke-width: 1.5"/>
    <path d="M 93.602005 321.370038 
L 93.602005 310.863524 
" clip-path="url(#pa6ebc073c4)" style="fill: none; stroke: #990000; stroke-width: 1.5"/>
    <path d="M 95.937227 336.572213 
L 95.937227 311.431491 
" clip-path="url(#pa6ebc073c4)" style="fill: none; stroke: #990000; stroke-width: 1.5"/>
    <path d="M 98.272449 330.06864 
L 98.272449 300.696212 
" clip-path="url(#pa6ebc073c4)" style="fill: none; stroke: #990000; stroke-width: 1.5"/>
    <path d="M 121.624664 316.187338 
L 121.624664 285.667874 
" clip-path="url(#pa6ebc073c4)" style="fill: none; stroke: #990000; stroke-width: 1.5"/>
    <path d="M 144.97688 301.009412 
L 144.97688 283.142408 
" clip-path="url(#pa6ebc073c4)" style="fill: none; stroke: #990000; stroke-width: 1.5"/>
    <path d="M 168.329095 291.496841 
L 168.329095 263.039471 
" clip-path="url(#pa6ebc073c4)" style="fill: none; stroke: #990000; stroke-width: 1.5"/>
    <path d="M 191.681311 295.553247 
L 191.681311 258.441392 
" clip-path="url(#pa6ebc073c4)" style="fill: none; stroke: #990000; stroke-width: 1.5"/>
    <path d="M 215.033527 286.216266 
L 215.033527 251.468603 
" clip-path="url(#pa6ebc073c4)" style="fill: none; stroke: #990000; stroke-width: 1.5"/>
    <path d="M 238.385742 269.702858 
L 238.385742 241.652473 
" clip-path="url(#pa6ebc073c4)" style="fill: none; stroke: #990000; stroke-width: 1.5"/>
    <path d="M 261.737958 266.678668 
L 261.737958 248.723137 
" clip-path="url(#pa6ebc073c4)" style="fill: none; stroke: #990000; stroke-width: 1.5"/>
    <path d="M 285.090174 260.530074 
L 285.090174 222.736308 
" clip-path="url(#pa6ebc073c4)" style="fill: none; stroke: #990000; stroke-width: 1.5"/>
    <path d="M 308.442389 254.030006 
L 308.442389 227.336432 
" clip-path="url(#pa6ebc073c4)" style="fill: none; stroke: #990000; stroke-width: 1.5"/>
    <path d="M 366.822928 222.12101 
L 366.822928 196.928867 
" clip-path="url(#pa6ebc073c4)" style="fill: none; stroke: #990000; stroke-width: 1.5"/>
    <path d="M 425.203467 167.406267 
L 425.203467 152.446295 
" clip-path="url(#pa6ebc073c4)" style="fill: none; stroke: #990000; stroke-width: 1.5"/>
    <path d="M 483.584006 166.027252 
L 483.584006 137.37238 
" clip-path="url(#pa6ebc073c4)" style="fill: none; stroke: #990000; stroke-width: 1.5"/>
    <path d="M 541.964545 136.100005 
L 541.964545 105.242799 
" clip-path="url(#pa6ebc073c4)" style="fill: none; stroke: #990000; stroke-width: 1.5"/>
   </g>
   <g id="line2d_20">
    <defs>
     <path id="md9b07cde7a" d="M 3 0 
L -3 -0 
" style="stroke: #990000"/>
    </defs>
    <g clip-path="url(#pa6ebc073c4)">
     <use xlink:href="#md9b07cde7a" x="77.255455" y="358.840086" style="fill: #990000; stroke: #990000"/>
     <use xlink:href="#md9b07cde7a" x="79.590676" y="362.948206" style="fill: #990000; stroke: #990000"/>
     <use xlink:href="#md9b07cde7a" x="81.925898" y="358.781361" style="fill: #990000; stroke: #990000"/>
     <use xlink:href="#md9b07cde7a" x="84.261119" y="339.321185" style="fill: #990000; stroke: #990000"/>
     <use xlink:href="#md9b07cde7a" x="86.596341" y="309.490352" style="fill: #990000; stroke: #990000"/>
     <use xlink:href="#md9b07cde7a" x="88.931562" y="332.260747" style="fill: #990000; stroke: #990000"/>
     <use xlink:href="#md9b07cde7a" x="91.266784" y="342.922108" style="fill: #990000; stroke: #990000"/>
     <use xlink:href="#md9b07cde7a" x="93.602005" y="321.370038" style="fill: #990000; stroke: #990000"/>
     <use xlink:href="#md9b07cde7a" x="95.937227" y="336.572213" style="fill: #990000; stroke: #990000"/>
     <use xlink:href="#md9b07cde7a" x="98.272449" y="330.06864" style="fill: #990000; stroke: #990000"/>
     <use xlink:href="#md9b07cde7a" x="121.624664" y="316.187338" style="fill: #990000; stroke: #990000"/>
     <use xlink:href="#md9b07cde7a" x="144.97688" y="301.009412" style="fill: #990000; stroke: #990000"/>
     <use xlink:href="#md9b07cde7a" x="168.329095" y="291.496841" style="fill: #990000; stroke: #990000"/>
     <use xlink:href="#md9b07cde7a" x="191.681311" y="295.553247" style="fill: #990000; stroke: #990000"/>
     <use xlink:href="#md9b07cde7a" x="215.033527" y="286.216266" style="fill: #990000; stroke: #990000"/>
     <use xlink:href="#md9b07cde7a" x="238.385742" y="269.702858" style="fill: #990000; stroke: #990000"/>
     <use xlink:href="#md9b07cde7a" x="261.737958" y="266.678668" style="fill: #990000; stroke: #990000"/>
     <use xlink:href="#md9b07cde7a" x="285.090174" y="260.530074" style="fill: #990000; stroke: #990000"/>
     <use xlink:href="#md9b07cde7a" x="308.442389" y="254.030006" style="fill: #990000; stroke: #990000"/>
     <use xlink:href="#md9b07cde7a" x="366.822928" y="222.12101" style="fill: #990000; stroke: #990000"/>
     <use xlink:href="#md9b07cde7a" x="425.203467" y="167.406267" style="fill: #990000; stroke: #990000"/>
     <use xlink:href="#md9b07cde7a" x="483.584006" y="166.027252" style="fill: #990000; stroke: #990000"/>
     <use xlink:href="#md9b07cde7a" x="541.964545" y="136.100005" style="fill: #990000; stroke: #990000"/>
    </g>
   </g>
   <g id="line2d_21">
    <g clip-path="url(#pa6ebc073c4)">
     <use xlink:href="#md9b07cde7a" x="77.255455" y="345.326619" style="fill: #990000; stroke: #990000"/>
     <use xlink:href="#md9b07cde7a" x="79.590676" y="337.91237" style="fill: #990000; stroke: #990000"/>
     <use xlink:href="#md9b07cde7a" x="81.925898" y="326.596562" style="fill: #990000; stroke: #990000"/>
     <use xlink:href="#md9b07cde7a" x="84.261119" y="335.382229" style="fill: #990000; stroke: #990000"/>
     <use xlink:href="#md9b07cde7a" x="86.596341" y="305.051795" style="fill: #990000; stroke: #990000"/>
     <use xlink:href="#md9b07cde7a" x="88.931562" y="303.923457" style="fill: #990000; stroke: #990000"/>
     <use xlink:href="#md9b07cde7a" x="91.266784" y="298.847982" style="fill: #990000; stroke: #990000"/>
     <use xlink:href="#md9b07cde7a" x="93.602005" y="310.863524" style="fill: #990000; stroke: #990000"/>
     <use xlink:href="#md9b07cde7a" x="95.937227" y="311.431491" style="fill: #990000; stroke: #990000"/>
     <use xlink:href="#md9b07cde7a" x="98.272449" y="300.696212" style="fill: #990000; stroke: #990000"/>
     <use xlink:href="#md9b07cde7a" x="121.624664" y="285.667874" style="fill: #990000; stroke: #990000"/>
     <use xlink:href="#md9b07cde7a" x="144.97688" y="283.142408" style="fill: #990000; stroke: #990000"/>
     <use xlink:href="#md9b07cde7a" x="168.329095" y="263.039471" style="fill: #990000; stroke: #990000"/>
     <use xlink:href="#md9b07cde7a" x="191.681311" y="258.441392" style="fill: #990000; stroke: #990000"/>
     <use xlink:href="#md9b07cde7a" x="215.033527" y="251.468603" style="fill: #990000; stroke: #990000"/>
     <use xlink:href="#md9b07cde7a" x="238.385742" y="241.652473" style="fill: #990000; stroke: #990000"/>
     <use xlink:href="#md9b07cde7a" x="261.737958" y="248.723137" style="fill: #990000; stroke: #990000"/>
     <use xlink:href="#md9b07cde7a" x="285.090174" y="222.736308" style="fill: #990000; stroke: #990000"/>
     <use xlink:href="#md9b07cde7a" x="308.442389" y="227.336432" style="fill: #990000; stroke: #990000"/>
     <use xlink:href="#md9b07cde7a" x="366.822928" y="196.928867" style="fill: #990000; stroke: #990000"/>
     <use xlink:href="#md9b07cde7a" x="425.203467" y="152.446295" style="fill: #990000; stroke: #990000"/>
     <use xlink:href="#md9b07cde7a" x="483.584006" y="137.37238" style="fill: #990000; stroke: #990000"/>
     <use xlink:href="#md9b07cde7a" x="541.964545" y="105.242799" style="fill: #990000; stroke: #990000"/>
    </g>
   </g>
   <g id="LineCollection_4">
    <path d="M 77.255455 369.321474 
L 77.255455 368.210374 
" clip-path="url(#pa6ebc073c4)" style="fill: none; stroke: #cc0033; stroke-width: 1.5"/>
    <path d="M 79.590676 368.369019 
L 79.590676 366.966047 
" clip-path="url(#pa6ebc073c4)" style="fill: none; stroke: #cc0033; stroke-width: 1.5"/>
    <path d="M 81.925898 366.306632 
L 81.925898 365.333433 
" clip-path="url(#pa6ebc073c4)" style="fill: none; stroke: #cc0033; stroke-width: 1.5"/>
    <path d="M 84.261119 364.71054 
L 84.261119 364.122997 
" clip-path="url(#pa6ebc073c4)" style="fill: none; stroke: #cc0033; stroke-width: 1.5"/>
    <path d="M 86.596341 363.830249 
L 86.596341 362.671234 
" clip-path="url(#pa6ebc073c4)" style="fill: none; stroke: #cc0033; stroke-width: 1.5"/>
    <path d="M 88.931562 362.563133 
L 88.931562 360.416603 
" clip-path="url(#pa6ebc073c4)" style="fill: none; stroke: #cc0033; stroke-width: 1.5"/>
    <path d="M 91.266784 362.1915 
L 91.266784 359.200324 
" clip-path="url(#pa6ebc073c4)" style="fill: none; stroke: #cc0033; stroke-width: 1.5"/>
    <path d="M 93.602005 360.522367 
L 93.602005 359.605264 
" clip-path="url(#pa6ebc073c4)" style="fill: none; stroke: #cc0033; stroke-width: 1.5"/>
    <path d="M 95.937227 358.804734 
L 95.937227 356.723065 
" clip-path="url(#pa6ebc073c4)" style="fill: none; stroke: #cc0033; stroke-width: 1.5"/>
    <path d="M 98.272449 357.276716 
L 98.272449 356.734751 
" clip-path="url(#pa6ebc073c4)" style="fill: none; stroke: #cc0033; stroke-width: 1.5"/>
    <path d="M 121.624664 354.188541 
L 121.624664 349.450223 
" clip-path="url(#pa6ebc073c4)" style="fill: none; stroke: #cc0033; stroke-width: 1.5"/>
    <path d="M 144.97688 351.680604 
L 144.97688 343.633528 
" clip-path="url(#pa6ebc073c4)" style="fill: none; stroke: #cc0033; stroke-width: 1.5"/>
    <path d="M 168.329095 346.007946 
L 168.329095 345.530842 
" clip-path="url(#pa6ebc073c4)" style="fill: none; stroke: #cc0033; stroke-width: 1.5"/>
    <path d="M 191.681311 341.994195 
L 191.681311 341.386494 
" clip-path="url(#pa6ebc073c4)" style="fill: none; stroke: #cc0033; stroke-width: 1.5"/>
    <path d="M 215.033527 337.529927 
L 215.033527 323.040048 
" clip-path="url(#pa6ebc073c4)" style="fill: none; stroke: #cc0033; stroke-width: 1.5"/>
    <path d="M 238.385742 331.128611 
L 238.385742 329.776184 
" clip-path="url(#pa6ebc073c4)" style="fill: none; stroke: #cc0033; stroke-width: 1.5"/>
    <path d="M 261.737958 328.925402 
L 261.737958 326.215287 
" clip-path="url(#pa6ebc073c4)" style="fill: none; stroke: #cc0033; stroke-width: 1.5"/>
    <path d="M 285.090174 323.169476 
L 285.090174 319.738301 
" clip-path="url(#pa6ebc073c4)" style="fill: none; stroke: #cc0033; stroke-width: 1.5"/>
    <path d="M 308.442389 320.14996 
L 308.442389 314.090476 
" clip-path="url(#pa6ebc073c4)" style="fill: none; stroke: #cc0033; stroke-width: 1.5"/>
    <path d="M 366.822928 308.395613 
L 366.822928 301.705932 
" clip-path="url(#pa6ebc073c4)" style="fill: none; stroke: #cc0033; stroke-width: 1.5"/>
    <path d="M 425.203467 296.425357 
L 425.203467 291.85854 
" clip-path="url(#pa6ebc073c4)" style="fill: none; stroke: #cc0033; stroke-width: 1.5"/>
    <path d="M 483.584006 284.059511 
L 483.584006 272.957567 
" clip-path="url(#pa6ebc073c4)" style="fill: none; stroke: #cc0033; stroke-width: 1.5"/>
    <path d="M 541.964545 268.128678 
L 541.964545 254.806579 
" clip-path="url(#pa6ebc073c4)" style="fill: none; stroke: #cc0033; stroke-width: 1.5"/>
   </g>
   <g id="line2d_22">
    <defs>
     <path id="md3fe7ae338" d="M 3 0 
L -3 -0 
" style="stroke: #cc0033"/>
    </defs>
    <g clip-path="url(#pa6ebc073c4)">
     <use xlink:href="#md3fe7ae338" x="77.255455" y="369.321474" style="fill: #cc0033; stroke: #cc0033"/>
     <use xlink:href="#md3fe7ae338" x="79.590676" y="368.369019" style="fill: #cc0033; stroke: #cc0033"/>
     <use xlink:href="#md3fe7ae338" x="81.925898" y="366.306632" style="fill: #cc0033; stroke: #cc0033"/>
     <use xlink:href="#md3fe7ae338" x="84.261119" y="364.71054" style="fill: #cc0033; stroke: #cc0033"/>
     <use xlink:href="#md3fe7ae338" x="86.596341" y="363.830249" style="fill: #cc0033; stroke: #cc0033"/>
     <use xlink:href="#md3fe7ae338" x="88.931562" y="362.563133" style="fill: #cc0033; stroke: #cc0033"/>
     <use xlink:href="#md3fe7ae338" x="91.266784" y="362.1915" style="fill: #cc0033; stroke: #cc0033"/>
     <use xlink:href="#md3fe7ae338" x="93.602005" y="360.522367" style="fill: #cc0033; stroke: #cc0033"/>
     <use xlink:href="#md3fe7ae338" x="95.937227" y="358.804734" style="fill: #cc0033; stroke: #cc0033"/>
     <use xlink:href="#md3fe7ae338" x="98.272449" y="357.276716" style="fill: #cc0033; stroke: #cc0033"/>
     <use xlink:href="#md3fe7ae338" x="121.624664" y="354.188541" style="fill: #cc0033; stroke: #cc0033"/>
     <use xlink:href="#md3fe7ae338" x="144.97688" y="351.680604" style="fill: #cc0033; stroke: #cc0033"/>
     <use xlink:href="#md3fe7ae338" x="168.329095" y="346.007946" style="fill: #cc0033; stroke: #cc0033"/>
     <use xlink:href="#md3fe7ae338" x="191.681311" y="341.994195" style="fill: #cc0033; stroke: #cc0033"/>
     <use xlink:href="#md3fe7ae338" x="215.033527" y="337.529927" style="fill: #cc0033; stroke: #cc0033"/>
     <use xlink:href="#md3fe7ae338" x="238.385742" y="331.128611" style="fill: #cc0033; stroke: #cc0033"/>
     <use xlink:href="#md3fe7ae338" x="261.737958" y="328.925402" style="fill: #cc0033; stroke: #cc0033"/>
     <use xlink:href="#md3fe7ae338" x="285.090174" y="323.169476" style="fill: #cc0033; stroke: #cc0033"/>
     <use xlink:href="#md3fe7ae338" x="308.442389" y="320.14996" style="fill: #cc0033; stroke: #cc0033"/>
     <use xlink:href="#md3fe7ae338" x="366.822928" y="308.395613" style="fill: #cc0033; stroke: #cc0033"/>
     <use xlink:href="#md3fe7ae338" x="425.203467" y="296.425357" style="fill: #cc0033; stroke: #cc0033"/>
     <use xlink:href="#md3fe7ae338" x="483.584006" y="284.059511" style="fill: #cc0033; stroke: #cc0033"/>
     <use xlink:href="#md3fe7ae338" x="541.964545" y="268.128678" style="fill: #cc0033; stroke: #cc0033"/>
    </g>
   </g>
   <g id="line2d_23">
    <g clip-path="url(#pa6ebc073c4)">
     <use xlink:href="#md3fe7ae338" x="77.255455" y="368.210374" style="fill: #cc0033; stroke: #cc0033"/>
     <use xlink:href="#md3fe7ae338" x="79.590676" y="366.966047" style="fill: #cc0033; stroke: #cc0033"/>
     <use xlink:href="#md3fe7ae338" x="81.925898" y="365.333433" style="fill: #cc0033; stroke: #cc0033"/>
     <use xlink:href="#md3fe7ae338" x="84.261119" y="364.122997" style="fill: #cc0033; stroke: #cc0033"/>
     <use xlink:href="#md3fe7ae338" x="86.596341" y="362.671234" style="fill: #cc0033; stroke: #cc0033"/>
     <use xlink:href="#md3fe7ae338" x="88.931562" y="360.416603" style="fill: #cc0033; stroke: #cc0033"/>
     <use xlink:href="#md3fe7ae338" x="91.266784" y="359.200324" style="fill: #cc0033; stroke: #cc0033"/>
     <use xlink:href="#md3fe7ae338" x="93.602005" y="359.605264" style="fill: #cc0033; stroke: #cc0033"/>
     <use xlink:href="#md3fe7ae338" x="95.937227" y="356.723065" style="fill: #cc0033; stroke: #cc0033"/>
     <use xlink:href="#md3fe7ae338" x="98.272449" y="356.734751" style="fill: #cc0033; stroke: #cc0033"/>
     <use xlink:href="#md3fe7ae338" x="121.624664" y="349.450223" style="fill: #cc0033; stroke: #cc0033"/>
     <use xlink:href="#md3fe7ae338" x="144.97688" y="343.633528" style="fill: #cc0033; stroke: #cc0033"/>
     <use xlink:href="#md3fe7ae338" x="168.329095" y="345.530842" style="fill: #cc0033; stroke: #cc0033"/>
     <use xlink:href="#md3fe7ae338" x="191.681311" y="341.386494" style="fill: #cc0033; stroke: #cc0033"/>
     <use xlink:href="#md3fe7ae338" x="215.033527" y="323.040048" style="fill: #cc0033; stroke: #cc0033"/>
     <use xlink:href="#md3fe7ae338" x="238.385742" y="329.776184" style="fill: #cc0033; stroke: #cc0033"/>
     <use xlink:href="#md3fe7ae338" x="261.737958" y="326.215287" style="fill: #cc0033; stroke: #cc0033"/>
     <use xlink:href="#md3fe7ae338" x="285.090174" y="319.738301" style="fill: #cc0033; stroke: #cc0033"/>
     <use xlink:href="#md3fe7ae338" x="308.442389" y="314.090476" style="fill: #cc0033; stroke: #cc0033"/>
     <use xlink:href="#md3fe7ae338" x="366.822928" y="301.705932" style="fill: #cc0033; stroke: #cc0033"/>
     <use xlink:href="#md3fe7ae338" x="425.203467" y="291.85854" style="fill: #cc0033; stroke: #cc0033"/>
     <use xlink:href="#md3fe7ae338" x="483.584006" y="272.957567" style="fill: #cc0033; stroke: #cc0033"/>
     <use xlink:href="#md3fe7ae338" x="541.964545" y="254.806579" style="fill: #cc0033; stroke: #cc0033"/>
    </g>
   </g>
   <g id="line2d_24">
    <path d="M 77.255455 359.637402 
L 79.590676 360.066883 
L 81.925898 354.261582 
L 84.261119 348.228393 
L 86.596341 344.696129 
L 88.931562 338.651253 
L 91.266784 334.423638 
L 93.602005 331.446486 
L 95.937227 329.503595 
L 98.272449 325.644107 
L 121.624664 311.570561 
L 144.97688 308.43564 
L 168.329095 304.631663 
L 191.681311 302.171641 
L 215.033527 304.286909 
L 238.385742 295.484005 
L 261.737958 290.8123 
L 285.090174 277.697053 
L 308.442389 273.752837 
L 366.822928 245.182108 
L 425.203467 207.64194 
L 483.584006 170.946127 
L 541.964545 109.828315 
" clip-path="url(#pa6ebc073c4)" style="fill: none; stroke: #009933; stroke-width: 1.5; stroke-linecap: square"/>
   </g>
   <g id="line2d_25">
    <path d="M 77.255455 372.558847 
L 79.590676 370.611086 
L 81.925898 367.689445 
L 84.261119 364.767804 
L 86.596341 362.820043 
L 88.931562 361.846163 
L 91.266784 360.872282 
L 93.602005 356.00288 
L 95.937227 355.029 
L 98.272449 356.00288 
L 121.624664 347.237957 
L 144.97688 343.342435 
L 168.329095 330.68199 
L 191.681311 318.995425 
L 215.033527 307.30886 
L 238.385742 274.196927 
L 261.737958 245.954395 
L 285.090174 259.588721 
L 308.442389 254.719319 
L 366.822928 199.208136 
L 425.203467 169.017844 
L 483.584006 86.23801 
L 541.964545 74.551445 
" clip-path="url(#pa6ebc073c4)" style="fill: none; stroke: #666600; stroke-width: 1.5; stroke-linecap: square"/>
   </g>
   <g id="line2d_26">
    <path d="M 77.255455 354.322557 
L 79.590676 346.830095 
L 81.925898 347.317922 
L 84.261119 337.499542 
L 86.596341 307.349374 
L 88.931562 318.035276 
L 91.266784 315.11422 
L 93.602005 316.050021 
L 95.937227 326.192791 
L 98.272449 311.768064 
L 121.624664 305.791555 
L 144.97688 293.645124 
L 168.329095 274.952171 
L 191.681311 281.619941 
L 215.033527 263.925897 
L 238.385742 255.04031 
L 261.737958 257.2517 
L 285.090174 241.469871 
L 308.442389 242.312764 
L 366.822928 211.083634 
L 425.203467 161.63398 
L 483.584006 153.161221 
L 541.964545 119.299399 
" clip-path="url(#pa6ebc073c4)" style="fill: none; stroke: #990000; stroke-width: 1.5; stroke-linecap: square"/>
   </g>
   <g id="line2d_27">
    <path d="M 77.255455 368.591648 
L 79.590676 367.799201 
L 81.925898 365.968306 
L 84.261119 364.342218 
L 86.596341 363.432711 
L 88.931562 361.508129 
L 91.266784 360.858355 
L 93.602005 360.146157 
L 95.937227 357.659938 
L 98.272449 357.0685 
L 121.624664 351.901091 
L 144.97688 348.429304 
L 168.329095 345.818818 
L 191.681311 341.69872 
L 215.033527 332.494284 
L 238.385742 330.270136 
L 261.737958 327.163749 
L 285.090174 321.958455 
L 308.442389 317.128886 
L 366.822928 306.041452 
L 425.203467 294.72467 
L 483.584006 279.889355 
L 541.964545 259.603328 
" clip-path="url(#pa6ebc073c4)" style="fill: none; stroke: #cc0033; stroke-width: 1.5; stroke-linecap: square"/>
   </g>
   <g id="patch_3">
    <path d="M 54.02 390.04 
L 54.02 26.88 
" style="fill: none; stroke: #000000; stroke-width: 0.8; stroke-linejoin: miter; stroke-linecap: square"/>
   </g>
   <g id="patch_4">
    <path d="M 565.2 390.04 
L 565.2 26.88 
" style="fill: none; stroke: #000000; stroke-width: 0.8; stroke-linejoin: miter; stroke-linecap: square"/>
   </g>
   <g id="patch_5">
    <path d="M 54.02 390.04 
L 565.2 390.04 
" style="fill: none; stroke: #000000; stroke-width: 0.8; stroke-linejoin: miter; stroke-linecap: square"/>
   </g>
   <g id="patch_6">
    <path d="M 54.02 26.88 
L 565.2 26.88 
" style="fill: none; stroke: #000000; stroke-width: 0.8; stroke-linejoin: miter; stroke-linecap: square"/>
   </g>
   <g id="text_18">
    <!-- Implementations of Bron-Kerbosch Ver3=GPc on a random graph of order 10k -->
    <g transform="translate(54.02 20.88)scale(0.12 -0.12)">
     <defs>
      <path id="DejaVuSans-49" d="M 628 4666 
L 1259 4666 
L 1259 0 
L 628 0 
L 628 4666 
z
" transform="scale(0.015625)"/>
      <path id="DejaVuSans-6d" d="M 3328 2828 
Q 3544 3216 3844 3400 
Q 4144 3584 4550 3584 
Q 5097 3584 5394 3201 
Q 5691 2819 5691 2113 
L 5691 0 
L 5113 0 
L 5113 2094 
Q 5113 2597 4934 2840 
Q 4756 3084 4391 3084 
Q 3944 3084 3684 2787 
Q 3425 2491 3425 1978 
L 3425 0 
L 2847 0 
L 2847 2094 
Q 2847 2600 2669 2842 
Q 2491 3084 2119 3084 
Q 1678 3084 1418 2786 
Q 1159 2488 1159 1978 
L 1159 0 
L 581 0 
L 581 3500 
L 1159 3500 
L 1159 2956 
Q 1356 3278 1631 3431 
Q 1906 3584 2284 3584 
Q 2666 3584 2933 3390 
Q 3200 3197 3328 2828 
z
" transform="scale(0.015625)"/>
      <path id="DejaVuSans-6c" d="M 603 4863 
L 1178 4863 
L 1178 0 
L 603 0 
L 603 4863 
z
" transform="scale(0.015625)"/>
      <path id="DejaVuSans-61" d="M 2194 1759 
Q 1497 1759 1228 1600 
Q 959 1441 959 1056 
Q 959 750 1161 570 
Q 1363 391 1709 391 
Q 2188 391 2477 730 
Q 2766 1069 2766 1631 
L 2766 1759 
L 2194 1759 
z
M 3341 1997 
L 3341 0 
L 2766 0 
L 2766 531 
Q 2569 213 2275 61 
Q 1981 -91 1556 -91 
Q 1019 -91 701 211 
Q 384 513 384 1019 
Q 384 1609 779 1909 
Q 1175 2209 1959 2209 
L 2766 2209 
L 2766 2266 
Q 2766 2663 2505 2880 
Q 2244 3097 1772 3097 
Q 1472 3097 1187 3025 
Q 903 2953 641 2809 
L 641 3341 
Q 956 3463 1253 3523 
Q 1550 3584 1831 3584 
Q 2591 3584 2966 3190 
Q 3341 2797 3341 1997 
z
" transform="scale(0.015625)"/>
      <path id="DejaVuSans-66" d="M 2375 4863 
L 2375 4384 
L 1825 4384 
Q 1516 4384 1395 4259 
Q 1275 4134 1275 3809 
L 1275 3500 
L 2222 3500 
L 2222 3053 
L 1275 3053 
L 1275 0 
L 697 0 
L 697 3053 
L 147 3053 
L 147 3500 
L 697 3500 
L 697 3744 
Q 697 4328 969 4595 
Q 1241 4863 1831 4863 
L 2375 4863 
z
" transform="scale(0.015625)"/>
      <path id="DejaVuSans-42" d="M 1259 2228 
L 1259 519 
L 2272 519 
Q 2781 519 3026 730 
Q 3272 941 3272 1375 
Q 3272 1813 3026 2020 
Q 2781 2228 2272 2228 
L 1259 2228 
z
M 1259 4147 
L 1259 2741 
L 2194 2741 
Q 2656 2741 2882 2914 
Q 3109 3088 3109 3444 
Q 3109 3797 2882 3972 
Q 2656 4147 2194 4147 
L 1259 4147 
z
M 628 4666 
L 2241 4666 
Q 2963 4666 3353 4366 
Q 3744 4066 3744 3513 
Q 3744 3084 3544 2831 
Q 3344 2578 2956 2516 
Q 3422 2416 3680 2098 
Q 3938 1781 3938 1306 
Q 3938 681 3513 340 
Q 3088 0 2303 0 
L 628 0 
L 628 4666 
z
" transform="scale(0.015625)"/>
      <path id="DejaVuSans-72" d="M 2631 2963 
Q 2534 3019 2420 3045 
Q 2306 3072 2169 3072 
Q 1681 3072 1420 2755 
Q 1159 2438 1159 1844 
L 1159 0 
L 581 0 
L 581 3500 
L 1159 3500 
L 1159 2956 
Q 1341 3275 1631 3429 
Q 1922 3584 2338 3584 
Q 2397 3584 2469 3576 
Q 2541 3569 2628 3553 
L 2631 2963 
z
" transform="scale(0.015625)"/>
      <path id="DejaVuSans-2d" d="M 313 2009 
L 1997 2009 
L 1997 1497 
L 313 1497 
L 313 2009 
z
" transform="scale(0.015625)"/>
      <path id="DejaVuSans-4b" d="M 628 4666 
L 1259 4666 
L 1259 2694 
L 3353 4666 
L 4166 4666 
L 1850 2491 
L 4331 0 
L 3500 0 
L 1259 2247 
L 1259 0 
L 628 0 
L 628 4666 
z
" transform="scale(0.015625)"/>
      <path id="DejaVuSans-62" d="M 3116 1747 
Q 3116 2381 2855 2742 
Q 2594 3103 2138 3103 
Q 1681 3103 1420 2742 
Q 1159 2381 1159 1747 
Q 1159 1113 1420 752 
Q 1681 391 2138 391 
Q 2594 391 2855 752 
Q 3116 1113 3116 1747 
z
M 1159 2969 
Q 1341 3281 1617 3432 
Q 1894 3584 2278 3584 
Q 2916 3584 3314 3078 
Q 3713 2572 3713 1747 
Q 3713 922 3314 415 
Q 2916 -91 2278 -91 
Q 1894 -91 1617 61 
Q 1341 213 1159 525 
L 1159 0 
L 581 0 
L 581 4863 
L 1159 4863 
L 1159 2969 
z
" transform="scale(0.015625)"/>
      <path id="DejaVuSans-68" d="M 3513 2113 
L 3513 0 
L 2938 0 
L 2938 2094 
Q 2938 2591 2744 2837 
Q 2550 3084 2163 3084 
Q 1697 3084 1428 2787 
Q 1159 2491 1159 1978 
L 1159 0 
L 581 0 
L 581 4863 
L 1159 4863 
L 1159 2956 
Q 1366 3272 1645 3428 
Q 1925 3584 2291 3584 
Q 2894 3584 3203 3211 
Q 3513 2838 3513 2113 
z
" transform="scale(0.015625)"/>
      <path id="DejaVuSans-56" d="M 1831 0 
L 50 4666 
L 709 4666 
L 2188 738 
L 3669 4666 
L 4325 4666 
L 2547 0 
L 1831 0 
z
" transform="scale(0.015625)"/>
      <path id="DejaVuSans-33" d="M 2597 2516 
Q 3050 2419 3304 2112 
Q 3559 1806 3559 1356 
Q 3559 666 3084 287 
Q 2609 -91 1734 -91 
Q 1441 -91 1130 -33 
Q 819 25 488 141 
L 488 750 
Q 750 597 1062 519 
Q 1375 441 1716 441 
Q 2309 441 2620 675 
Q 2931 909 2931 1356 
Q 2931 1769 2642 2001 
Q 2353 2234 1838 2234 
L 1294 2234 
L 1294 2753 
L 1863 2753 
Q 2328 2753 2575 2939 
Q 2822 3125 2822 3475 
Q 2822 3834 2567 4026 
Q 2313 4219 1838 4219 
Q 1578 4219 1281 4162 
Q 984 4106 628 3988 
L 628 4550 
Q 988 4650 1302 4700 
Q 1616 4750 1894 4750 
Q 2613 4750 3031 4423 
Q 3450 4097 3450 3541 
Q 3450 3153 3228 2886 
Q 3006 2619 2597 2516 
z
" transform="scale(0.015625)"/>
      <path id="DejaVuSans-3d" d="M 678 2906 
L 4684 2906 
L 4684 2381 
L 678 2381 
L 678 2906 
z
M 678 1631 
L 4684 1631 
L 4684 1100 
L 678 1100 
L 678 1631 
z
" transform="scale(0.015625)"/>
      <path id="DejaVuSans-47" d="M 3809 666 
L 3809 1919 
L 2778 1919 
L 2778 2438 
L 4434 2438 
L 4434 434 
Q 4069 175 3628 42 
Q 3188 -91 2688 -91 
Q 1594 -91 976 548 
Q 359 1188 359 2328 
Q 359 3472 976 4111 
Q 1594 4750 2688 4750 
Q 3144 4750 3555 4637 
Q 3966 4525 4313 4306 
L 4313 3634 
Q 3963 3931 3569 4081 
Q 3175 4231 2741 4231 
Q 1884 4231 1454 3753 
Q 1025 3275 1025 2328 
Q 1025 1384 1454 906 
Q 1884 428 2741 428 
Q 3075 428 3337 486 
Q 3600 544 3809 666 
z
" transform="scale(0.015625)"/>
      <path id="DejaVuSans-50" d="M 1259 4147 
L 1259 2394 
L 2053 2394 
Q 2494 2394 2734 2622 
Q 2975 2850 2975 3272 
Q 2975 3691 2734 3919 
Q 2494 4147 2053 4147 
L 1259 4147 
z
M 628 4666 
L 2053 4666 
Q 2838 4666 3239 4311 
Q 3641 3956 3641 3272 
Q 3641 2581 3239 2228 
Q 2838 1875 2053 1875 
L 1259 1875 
L 1259 0 
L 628 0 
L 628 4666 
z
" transform="scale(0.015625)"/>
      <path id="DejaVuSans-6b" d="M 581 4863 
L 1159 4863 
L 1159 1991 
L 2875 3500 
L 3609 3500 
L 1753 1863 
L 3688 0 
L 2938 0 
L 1159 1709 
L 1159 0 
L 581 0 
L 581 4863 
z
" transform="scale(0.015625)"/>
     </defs>
     <use xlink:href="#DejaVuSans-49"/>
     <use xlink:href="#DejaVuSans-6d" x="29.492188"/>
     <use xlink:href="#DejaVuSans-70" x="126.904297"/>
     <use xlink:href="#DejaVuSans-6c" x="190.380859"/>
     <use xlink:href="#DejaVuSans-65" x="218.164062"/>
     <use xlink:href="#DejaVuSans-6d" x="279.6875"/>
     <use xlink:href="#DejaVuSans-65" x="377.099609"/>
     <use xlink:href="#DejaVuSans-6e" x="438.623047"/>
     <use xlink:href="#DejaVuSans-74" x="502.001953"/>
     <use xlink:href="#DejaVuSans-61" x="541.210938"/>
     <use xlink:href="#DejaVuSans-74" x="602.490234"/>
     <use xlink:href="#DejaVuSans-69" x="641.699219"/>
     <use xlink:href="#DejaVuSans-6f" x="669.482422"/>
     <use xlink:href="#DejaVuSans-6e" x="730.664062"/>
     <use xlink:href="#DejaVuSans-73" x="794.042969"/>
     <use xlink:href="#DejaVuSans-20" x="846.142578"/>
     <use xlink:href="#DejaVuSans-6f" x="877.929688"/>
     <use xlink:href="#DejaVuSans-66" x="939.111328"/>
     <use xlink:href="#DejaVuSans-20" x="974.316406"/>
     <use xlink:href="#DejaVuSans-42" x="1006.103516"/>
     <use xlink:href="#DejaVuSans-72" x="1074.707031"/>
     <use xlink:href="#DejaVuSans-6f" x="1113.570312"/>
     <use xlink:href="#DejaVuSans-6e" x="1174.751953"/>
     <use xlink:href="#DejaVuSans-2d" x="1238.130859"/>
     <use xlink:href="#DejaVuSans-4b" x="1274.214844"/>
     <use xlink:href="#DejaVuSans-65" x="1334.791016"/>
     <use xlink:href="#DejaVuSans-72" x="1396.314453"/>
     <use xlink:href="#DejaVuSans-62" x="1437.427734"/>
     <use xlink:href="#DejaVuSans-6f" x="1500.904297"/>
     <use xlink:href="#DejaVuSans-73" x="1562.085938"/>
     <use xlink:href="#DejaVuSans-63" x="1614.185547"/>
     <use xlink:href="#DejaVuSans-68" x="1669.166016"/>
     <use xlink:href="#DejaVuSans-20" x="1732.544922"/>
     <use xlink:href="#DejaVuSans-56" x="1764.332031"/>
     <use xlink:href="#DejaVuSans-65" x="1824.990234"/>
     <use xlink:href="#DejaVuSans-72" x="1886.513672"/>
     <use xlink:href="#DejaVuSans-33" x="1927.626953"/>
     <use xlink:href="#DejaVuSans-3d" x="1991.25"/>
     <use xlink:href="#DejaVuSans-47" x="2075.039062"/>
     <use xlink:href="#DejaVuSans-50" x="2152.529297"/>
     <use xlink:href="#DejaVuSans-63" x="2212.832031"/>
     <use xlink:href="#DejaVuSans-20" x="2267.8125"/>
     <use xlink:href="#DejaVuSans-6f" x="2299.599609"/>
     <use xlink:href="#DejaVuSans-6e" x="2360.78125"/>
     <use xlink:href="#DejaVuSans-20" x="2424.160156"/>
     <use xlink:href="#DejaVuSans-61" x="2455.947266"/>
     <use xlink:href="#DejaVuSans-20" x="2517.226562"/>
     <use xlink:href="#DejaVuSans-72" x="2549.013672"/>
     <use xlink:href="#DejaVuSans-61" x="2590.126953"/>
     <use xlink:href="#DejaVuSans-6e" x="2651.40625"/>
     <use xlink:href="#DejaVuSans-64" x="2714.785156"/>
     <use xlink:href="#DejaVuSans-6f" x="2778.261719"/>
     <use xlink:href="#DejaVuSans-6d" x="2839.443359"/>
     <use xlink:href="#DejaVuSans-20" x="2936.855469"/>
     <use xlink:href="#DejaVuSans-67" x="2968.642578"/>
     <use xlink:href="#DejaVuSans-72" x="3032.119141"/>
     <use xlink:href="#DejaVuSans-61" x="3073.232422"/>
     <use xlink:href="#DejaVuSans-70" x="3134.511719"/>
     <use xlink:href="#DejaVuSans-68" x="3197.988281"/>
     <use xlink:href="#DejaVuSans-20" x="3261.367188"/>
     <use xlink:href="#DejaVuSans-6f" x="3293.154297"/>
     <use xlink:href="#DejaVuSans-66" x="3354.335938"/>
     <use xlink:href="#DejaVuSans-20" x="3389.541016"/>
     <use xlink:href="#DejaVuSans-6f" x="3421.328125"/>
     <use xlink:href="#DejaVuSans-72" x="3482.509766"/>
     <use xlink:href="#DejaVuSans-64" x="3521.873047"/>
     <use xlink:href="#DejaVuSans-65" x="3585.349609"/>
     <use xlink:href="#DejaVuSans-72" x="3646.873047"/>
     <use xlink:href="#DejaVuSans-20" x="3687.986328"/>
     <use xlink:href="#DejaVuSans-31" x="3719.773438"/>
     <use xlink:href="#DejaVuSans-30" x="3783.396484"/>
     <use xlink:href="#DejaVuSans-6b" x="3847.019531"/>
    </g>
   </g>
   <g id="legend_1">
    <g id="patch_7">
     <path d="M 61.02 93.5925 
L 116.762188 93.5925 
Q 118.762188 93.5925 118.762188 91.5925 
L 118.762188 33.88 
Q 118.762188 31.88 116.762188 31.88 
L 61.02 31.88 
Q 59.02 31.88 59.02 33.88 
L 59.02 91.5925 
Q 59.02 93.5925 61.02 93.5925 
z
" style="fill: #ffffff; opacity: 0.8; stroke: #cccccc; stroke-linejoin: miter"/>
    </g>
    <g id="LineCollection_5">
     <path d="M 73.02 44.978437 
L 73.02 34.978437 
" style="fill: none; stroke: #009933; stroke-width: 1.5"/>
    </g>
    <g id="line2d_28">
     <g>
      <use xlink:href="#m567d63a80a" x="73.02" y="44.978437" style="fill: #009933; stroke: #009933"/>
     </g>
    </g>
    <g id="line2d_29">
     <g>
      <use xlink:href="#m567d63a80a" x="73.02" y="34.978437" style="fill: #009933; stroke: #009933"/>
     </g>
    </g>
    <g id="line2d_30">
     <path d="M 63.02 39.978437 
L 83.02 39.978437 
" style="fill: none; stroke: #009933; stroke-width: 1.5; stroke-linecap: square"/>
    </g>
    <g id="line2d_31"/>
    <g id="text_19">
     <!-- Java -->
     <g transform="translate(91.02 43.478437)scale(0.1 -0.1)">
      <defs>
       <path id="DejaVuSans-4a" d="M 628 4666 
L 1259 4666 
L 1259 325 
Q 1259 -519 939 -900 
Q 619 -1281 -91 -1281 
L -331 -1281 
L -331 -750 
L -134 -750 
Q 284 -750 456 -515 
Q 628 -281 628 325 
L 628 4666 
z
" transform="scale(0.015625)"/>
       <path id="DejaVuSans-76" d="M 191 3500 
L 800 3500 
L 1894 563 
L 2988 3500 
L 3597 3500 
L 2284 0 
L 1503 0 
L 191 3500 
z
" transform="scale(0.015625)"/>
      </defs>
      <use xlink:href="#DejaVuSans-4a"/>
      <use xlink:href="#DejaVuSans-61" x="29.492188"/>
      <use xlink:href="#DejaVuSans-76" x="90.771484"/>
      <use xlink:href="#DejaVuSans-61" x="149.951172"/>
     </g>
    </g>
    <g id="LineCollection_6">
     <path d="M 73.02 59.656563 
L 73.02 49.656563 
" style="fill: none; stroke: #666600; stroke-width: 1.5"/>
    </g>
    <g id="line2d_32">
     <g>
      <use xlink:href="#ma612d83d5a" x="73.02" y="59.656563" style="fill: #666600; stroke: #666600"/>
     </g>
    </g>
    <g id="line2d_33">
     <g>
      <use xlink:href="#ma612d83d5a" x="73.02" y="49.656563" style="fill: #666600; stroke: #666600"/>
     </g>
    </g>
    <g id="line2d_34">
     <path d="M 63.02 54.656563 
L 83.02 54.656563 
" style="fill: none; stroke: #666600; stroke-width: 1.5; stroke-linecap: square"/>
    </g>
    <g id="line2d_35"/>
    <g id="text_20">
     <!-- C# -->
     <g transform="translate(91.02 58.156563)scale(0.1 -0.1)">
      <defs>
       <path id="DejaVuSans-43" d="M 4122 4306 
L 4122 3641 
Q 3803 3938 3442 4084 
Q 3081 4231 2675 4231 
Q 1875 4231 1450 3742 
Q 1025 3253 1025 2328 
Q 1025 1406 1450 917 
Q 1875 428 2675 428 
Q 3081 428 3442 575 
Q 3803 722 4122 1019 
L 4122 359 
Q 3791 134 3420 21 
Q 3050 -91 2638 -91 
Q 1578 -91 968 557 
Q 359 1206 359 2328 
Q 359 3453 968 4101 
Q 1578 4750 2638 4750 
Q 3056 4750 3426 4639 
Q 3797 4528 4122 4306 
z
" transform="scale(0.015625)"/>
      </defs>
      <use xlink:href="#DejaVuSans-43"/>
      <use xlink:href="#DejaVuSans-23" x="69.824219"/>
     </g>
    </g>
    <g id="LineCollection_7">
     <path d="M 73.02 74.334687 
L 73.02 64.334687 
" style="fill: none; stroke: #990000; stroke-width: 1.5"/>
    </g>
    <g id="line2d_36">
     <g>
      <use xlink:href="#md9b07cde7a" x="73.02" y="74.334687" style="fill: #990000; stroke: #990000"/>
     </g>
    </g>
    <g id="line2d_37">
     <g>
      <use xlink:href="#md9b07cde7a" x="73.02" y="64.334687" style="fill: #990000; stroke: #990000"/>
     </g>
    </g>
    <g id="line2d_38">
     <path d="M 63.02 69.334687 
L 83.02 69.334687 
" style="fill: none; stroke: #990000; stroke-width: 1.5; stroke-linecap: square"/>
    </g>
    <g id="line2d_39"/>
    <g id="text_21">
     <!-- C++ -->
     <g transform="translate(91.02 72.834687)scale(0.1 -0.1)">
      <defs>
       <path id="DejaVuSans-2b" d="M 2944 4013 
L 2944 2272 
L 4684 2272 
L 4684 1741 
L 2944 1741 
L 2944 0 
L 2419 0 
L 2419 1741 
L 678 1741 
L 678 2272 
L 2419 2272 
L 2419 4013 
L 2944 4013 
z
" transform="scale(0.015625)"/>
      </defs>
      <use xlink:href="#DejaVuSans-43"/>
      <use xlink:href="#DejaVuSans-2b" x="69.824219"/>
      <use xlink:href="#DejaVuSans-2b" x="153.613281"/>
     </g>
    </g>
    <g id="LineCollection_8">
     <path d="M 73.02 89.012812 
L 73.02 79.012812 
" style="fill: none; stroke: #cc0033; stroke-width: 1.5"/>
    </g>
    <g id="line2d_40">
     <g>
      <use xlink:href="#md3fe7ae338" x="73.02" y="89.012812" style="fill: #cc0033; stroke: #cc0033"/>
     </g>
    </g>
    <g id="line2d_41">
     <g>
      <use xlink:href="#md3fe7ae338" x="73.02" y="79.012812" style="fill: #cc0033; stroke: #cc0033"/>
     </g>
    </g>
    <g id="line2d_42">
     <path d="M 63.02 84.012812 
L 83.02 84.012812 
" style="fill: none; stroke: #cc0033; stroke-width: 1.5; stroke-linecap: square"/>
    </g>
    <g id="line2d_43"/>
    <g id="text_22">
     <!-- Rust -->
     <g transform="translate(91.02 87.512812)scale(0.1 -0.1)">
      <defs>
       <path id="DejaVuSans-52" d="M 2841 2188 
Q 3044 2119 3236 1894 
Q 3428 1669 3622 1275 
L 4263 0 
L 3584 0 
L 2988 1197 
Q 2756 1666 2539 1819 
Q 2322 1972 1947 1972 
L 1259 1972 
L 1259 0 
L 628 0 
L 628 4666 
L 2053 4666 
Q 2853 4666 3247 4331 
Q 3641 3997 3641 3322 
Q 3641 2881 3436 2590 
Q 3231 2300 2841 2188 
z
M 1259 4147 
L 1259 2491 
L 2053 2491 
Q 2509 2491 2742 2702 
Q 2975 2913 2975 3322 
Q 2975 3731 2742 3939 
Q 2509 4147 2053 4147 
L 1259 4147 
z
" transform="scale(0.015625)"/>
       <path id="DejaVuSans-75" d="M 544 1381 
L 544 3500 
L 1119 3500 
L 1119 1403 
Q 1119 906 1312 657 
Q 1506 409 1894 409 
Q 2359 409 2629 706 
Q 2900 1003 2900 1516 
L 2900 3500 
L 3475 3500 
L 3475 0 
L 2900 0 
L 2900 538 
Q 2691 219 2414 64 
Q 2138 -91 1772 -91 
Q 1169 -91 856 284 
Q 544 659 544 1381 
z
M 1991 3584 
L 1991 3584 
z
" transform="scale(0.015625)"/>
      </defs>
      <use xlink:href="#DejaVuSans-52"/>
      <use xlink:href="#DejaVuSans-75" x="64.982422"/>
      <use xlink:href="#DejaVuSans-73" x="128.361328"/>
      <use xlink:href="#DejaVuSans-74" x="180.460938"/>
     </g>
    </g>
   </g>
  </g>
 </g>
 <defs>
  <clipPath id="pa6ebc073c4">
   <rect x="54.02" y="26.88" width="511.18" height="363.16"/>
  </clipPath>
 </defs>
</svg>
