<?xml version="1.0" encoding="utf-8" standalone="no"?>
<!DOCTYPE svg PUBLIC "-//W3C//DTD SVG 1.1//EN"
  "http://www.w3.org/Graphics/SVG/1.1/DTD/svg11.dtd">
<svg xmlns:xlink="http://www.w3.org/1999/xlink" width="576pt" height="432pt" viewBox="0 0 576 432" xmlns="http://www.w3.org/2000/svg" version="1.1">
 <metadata>
  <rdf:RDF xmlns:dc="http://purl.org/dc/elements/1.1/" xmlns:cc="http://creativecommons.org/ns#" xmlns:rdf="http://www.w3.org/1999/02/22-rdf-syntax-ns#">
   <cc:Work>
    <dc:type rdf:resource="http://purl.org/dc/dcmitype/StillImage"/>
    <dc:date>2026-04-08T14:28:39.052169</dc:date>
    <dc:format>image/svg+xml</dc:format>
    <dc:creator>
     <cc:Agent>
      <dc:title>Matplotlib v3.10.8, https://matplotlib.org/</dc:title>
     </cc:Agent>
    </dc:creator>
   </cc:Work>
  </rdf:RDF>
 </metadata>
 <defs>
  <style type="text/css">*{stroke-linejoin: round; stroke-linecap: butt}</style>
 </defs>
 <g id="figure_1">
  <g id="patch_1">
   <path d="M 0 432 
L 576 432 
L 576 0 
L 0 0 
z
" style="fill: #ffffff"/>
  </g>
  <g id="axes_1">
   <g id="patch_2">
    <path d="M 47.72 390.04 
L 565.2 390.04 
L 565.2 26.88 
L 47.72 26.88 
z
" style="fill: #ffffff"/>
   </g>
   <g id="matplotlib.axis_1">
    <g id="xtick_1">
     <g id="line2d_1">
      <defs>
       <path id="mc74f61fcfc" d="M 0 0 
L 0 3.5 
" style="stroke: #000000; stroke-width: 0.8"/>
      </defs>
      <g>
       <use xlink:href="#mc74f61fcfc" x="71.241818" y="390.04" style="stroke: #000000; stroke-width: 0.8"/>
      </g>
     </g>
     <g id="text_1">
      <!-- 2000 -->
      <g transform="translate(58.516818 404.638438) scale(0.1 -0.1)">
       <defs>
        <path id="DejaVuSans-32" d="M 1228 531 
L 3431 531 
L 3431 0 
L 469 0 
L 469 531 
Q 828 903 1448 1529 
Q 2069 2156 2228 2338 
Q 2531 2678 2651 2914 
Q 2772 3150 2772 3378 
Q 2772 3750 2511 3984 
Q 2250 4219 1831 4219 
Q 1534 4219 1204 4116 
Q 875 4013 500 3803 
L 500 4441 
Q 881 4594 1212 4672 
Q 1544 4750 1819 4750 
Q 2544 4750 2975 4387 
Q 3406 4025 3406 3419 
Q 3406 3131 3298 2873 
Q 3191 2616 2906 2266 
Q 2828 2175 2409 1742 
Q 1991 1309 1228 531 
z
" transform="scale(0.015625)"/>
        <path id="DejaVuSans-30" d="M 2034 4250 
Q 1547 4250 1301 3770 
Q 1056 3291 1056 2328 
Q 1056 1369 1301 889 
Q 1547 409 2034 409 
Q 2525 409 2770 889 
Q 3016 1369 3016 2328 
Q 3016 3291 2770 3770 
Q 2525 4250 2034 4250 
z
M 2034 4750 
Q 2819 4750 3233 4129 
Q 3647 3509 3647 2328 
Q 3647 1150 3233 529 
Q 2819 -91 2034 -91 
Q 1250 -91 836 529 
Q 422 1150 422 2328 
Q 422 3509 836 4129 
Q 1250 4750 2034 4750 
z
" transform="scale(0.015625)"/>
       </defs>
       <use xlink:href="#DejaVuSans-32"/>
       <use xlink:href="#DejaVuSans-30" transform="translate(63.623047 0)"/>
       <use xlink:href="#DejaVuSans-30" transform="translate(127.246094 0)"/>
       <use xlink:href="#DejaVuSans-30" transform="translate(190.869141 0)"/>
      </g>
     </g>
    </g>
    <g id="xtick_2">
     <g id="line2d_2">
      <g>
       <use xlink:href="#mc74f61fcfc" x="165.329091" y="390.04" style="stroke: #000000; stroke-width: 0.8"/>
      </g>
     </g>
     <g id="text_2">
      <!-- 2200 -->
      <g transform="translate(152.604091 404.638438) scale(0.1 -0.1)">
       <use xlink:href="#DejaVuSans-32"/>
       <use xlink:href="#DejaVuSans-32" transform="translate(63.623047 0)"/>
       <use xlink:href="#DejaVuSans-30" transform="translate(127.246094 0)"/>
       <use xlink:href="#DejaVuSans-30" transform="translate(190.869141 0)"/>
      </g>
     </g>
    </g>
    <g id="xtick_3">
     <g id="line2d_3">
      <g>
       <use xlink:href="#mc74f61fcfc" x="259.416364" y="390.04" style="stroke: #000000; stroke-width: 0.8"/>
      </g>
     </g>
     <g id="text_3">
      <!-- 2400 -->
      <g transform="translate(246.691364 404.638438) scale(0.1 -0.1)">
       <defs>
        <path id="DejaVuSans-34" d="M 2419 4116 
L 825 1625 
L 2419 1625 
L 2419 4116 
z
M 2253 4666 
L 3047 4666 
L 3047 1625 
L 3713 1625 
L 3713 1100 
L 3047 1100 
L 3047 0 
L 2419 0 
L 2419 1100 
L 313 1100 
L 313 1709 
L 2253 4666 
z
" transform="scale(0.015625)"/>
       </defs>
       <use xlink:href="#DejaVuSans-32"/>
       <use xlink:href="#DejaVuSans-34" transform="translate(63.623047 0)"/>
       <use xlink:href="#DejaVuSans-30" transform="translate(127.246094 0)"/>
       <use xlink:href="#DejaVuSans-30" transform="translate(190.869141 0)"/>
      </g>
     </g>
    </g>
    <g id="xtick_4">
     <g id="line2d_4">
      <g>
       <use xlink:href="#mc74f61fcfc" x="353.503636" y="390.04" style="stroke: #000000; stroke-width: 0.8"/>
      </g>
     </g>
     <g id="text_4">
      <!-- 2600 -->
      <g transform="translate(340.778636 404.638438) scale(0.1 -0.1)">
       <defs>
        <path id="DejaVuSans-36" d="M 2113 2584 
Q 1688 2584 1439 2293 
Q 1191 2003 1191 1497 
Q 1191 994 1439 701 
Q 1688 409 2113 409 
Q 2538 409 2786 701 
Q 3034 994 3034 1497 
Q 3034 2003 2786 2293 
Q 2538 2584 2113 2584 
z
M 3366 4563 
L 3366 3988 
Q 3128 4100 2886 4159 
Q 2644 4219 2406 4219 
Q 1781 4219 1451 3797 
Q 1122 3375 1075 2522 
Q 1259 2794 1537 2939 
Q 1816 3084 2150 3084 
Q 2853 3084 3261 2657 
Q 3669 2231 3669 1497 
Q 3669 778 3244 343 
Q 2819 -91 2113 -91 
Q 1303 -91 875 529 
Q 447 1150 447 2328 
Q 447 3434 972 4092 
Q 1497 4750 2381 4750 
Q 2619 4750 2861 4703 
Q 3103 4656 3366 4563 
z
" transform="scale(0.015625)"/>
       </defs>
       <use xlink:href="#DejaVuSans-32"/>
       <use xlink:href="#DejaVuSans-36" transform="translate(63.623047 0)"/>
       <use xlink:href="#DejaVuSans-30" transform="translate(127.246094 0)"/>
       <use xlink:href="#DejaVuSans-30" transform="translate(190.869141 0)"/>
      </g>
     </g>
    </g>
    <g id="xtick_5">
     <g id="line2d_5">
      <g>
       <use xlink:href="#mc74f61fcfc" x="447.590909" y="390.04" style="stroke: #000000; stroke-width: 0.8"/>
      </g>
     </g>
     <g id="text_5">
      <!-- 2800 -->
      <g transform="translate(434.865909 404.638438) scale(0.1 -0.1)">
       <defs>
        <path id="DejaVuSans-38" d="M 2034 2216 
Q 1584 2216 1326 1975 
Q 1069 1734 1069 1313 
Q 1069 891 1326 650 
Q 1584 409 2034 409 
Q 2484 409 2743 651 
Q 3003 894 3003 1313 
Q 3003 1734 2745 1975 
Q 2488 2216 2034 2216 
z
M 1403 2484 
Q 997 2584 770 2862 
Q 544 3141 544 3541 
Q 544 4100 942 4425 
Q 1341 4750 2034 4750 
Q 2731 4750 3128 4425 
Q 3525 4100 3525 3541 
Q 3525 3141 3298 2862 
Q 3072 2584 2669 2484 
Q 3125 2378 3379 2068 
Q 3634 1759 3634 1313 
Q 3634 634 3220 271 
Q 2806 -91 2034 -91 
Q 1263 -91 848 271 
Q 434 634 434 1313 
Q 434 1759 690 2068 
Q 947 2378 1403 2484 
z
M 1172 3481 
Q 1172 3119 1398 2916 
Q 1625 2713 2034 2713 
Q 2441 2713 2670 2916 
Q 2900 3119 2900 3481 
Q 2900 3844 2670 4047 
Q 2441 4250 2034 4250 
Q 1625 4250 1398 4047 
Q 1172 3844 1172 3481 
z
" transform="scale(0.015625)"/>
       </defs>
       <use xlink:href="#DejaVuSans-32"/>
       <use xlink:href="#DejaVuSans-38" transform="translate(63.623047 0)"/>
       <use xlink:href="#DejaVuSans-30" transform="translate(127.246094 0)"/>
       <use xlink:href="#DejaVuSans-30" transform="translate(190.869141 0)"/>
      </g>
     </g>
    </g>
    <g id="xtick_6">
     <g id="line2d_6">
      <g>
       <use xlink:href="#mc74f61fcfc" x="541.678182" y="390.04" style="stroke: #000000; stroke-width: 0.8"/>
      </g>
     </g>
     <g id="text_6">
      <!-- 3000 -->
      <g transform="translate(528.953182 404.638438) scale(0.1 -0.1)">
       <defs>
        <path id="DejaVuSans-33" d="M 2597 2516 
Q 3050 2419 3304 2112 
Q 3559 1806 3559 1356 
Q 3559 666 3084 287 
Q 2609 -91 1734 -91 
Q 1441 -91 1130 -33 
Q 819 25 488 141 
L 488 750 
Q 750 597 1062 519 
Q 1375 441 1716 441 
Q 2309 441 2620 675 
Q 2931 909 2931 1356 
Q 2931 1769 2642 2001 
Q 2353 2234 1838 2234 
L 1294 2234 
L 1294 2753 
L 1863 2753 
Q 2328 2753 2575 2939 
Q 2822 3125 2822 3475 
Q 2822 3834 2567 4026 
Q 2313 4219 1838 4219 
Q 1578 4219 1281 4162 
Q 984 4106 628 3988 
L 628 4550 
Q 988 4650 1302 4700 
Q 1616 4750 1894 4750 
Q 2613 4750 3031 4423 
Q 3450 4097 3450 3541 
Q 3450 3153 3228 2886 
Q 3006 2619 2597 2516 
z
" transform="scale(0.015625)"/>
       </defs>
       <use xlink:href="#DejaVuSans-33"/>
       <use xlink:href="#DejaVuSans-30" transform="translate(63.623047 0)"/>
       <use xlink:href="#DejaVuSans-30" transform="translate(127.246094 0)"/>
       <use xlink:href="#DejaVuSans-30" transform="translate(190.869141 0)"/>
      </g>
     </g>
    </g>
    <g id="text_7">
     <!-- Size (#edges) -->
     <g transform="translate(271.409219 418.316562) scale(0.1 -0.1)">
      <defs>
       <path id="DejaVuSans-53" d="M 3425 4513 
L 3425 3897 
Q 3066 4069 2747 4153 
Q 2428 4238 2131 4238 
Q 1616 4238 1336 4038 
Q 1056 3838 1056 3469 
Q 1056 3159 1242 3001 
Q 1428 2844 1947 2747 
L 2328 2669 
Q 3034 2534 3370 2195 
Q 3706 1856 3706 1288 
Q 3706 609 3251 259 
Q 2797 -91 1919 -91 
Q 1588 -91 1214 -16 
Q 841 59 441 206 
L 441 856 
Q 825 641 1194 531 
Q 1563 422 1919 422 
Q 2459 422 2753 634 
Q 3047 847 3047 1241 
Q 3047 1584 2836 1778 
Q 2625 1972 2144 2069 
L 1759 2144 
Q 1053 2284 737 2584 
Q 422 2884 422 3419 
Q 422 4038 858 4394 
Q 1294 4750 2059 4750 
Q 2388 4750 2728 4690 
Q 3069 4631 3425 4513 
z
" transform="scale(0.015625)"/>
       <path id="DejaVuSans-69" d="M 603 3500 
L 1178 3500 
L 1178 0 
L 603 0 
L 603 3500 
z
M 603 4863 
L 1178 4863 
L 1178 4134 
L 603 4134 
L 603 4863 
z
" transform="scale(0.015625)"/>
       <path id="DejaVuSans-7a" d="M 353 3500 
L 3084 3500 
L 3084 2975 
L 922 459 
L 3084 459 
L 3084 0 
L 275 0 
L 275 525 
L 2438 3041 
L 353 3041 
L 353 3500 
z
" transform="scale(0.015625)"/>
       <path id="DejaVuSans-65" d="M 3597 1894 
L 3597 1613 
L 953 1613 
Q 991 1019 1311 708 
Q 1631 397 2203 397 
Q 2534 397 2845 478 
Q 3156 559 3463 722 
L 3463 178 
Q 3153 47 2828 -22 
Q 2503 -91 2169 -91 
Q 1331 -91 842 396 
Q 353 884 353 1716 
Q 353 2575 817 3079 
Q 1281 3584 2069 3584 
Q 2775 3584 3186 3129 
Q 3597 2675 3597 1894 
z
M 3022 2063 
Q 3016 2534 2758 2815 
Q 2500 3097 2075 3097 
Q 1594 3097 1305 2825 
Q 1016 2553 972 2059 
L 3022 2063 
z
" transform="scale(0.015625)"/>
       <path id="DejaVuSans-20" transform="scale(0.015625)"/>
       <path id="DejaVuSans-28" d="M 1984 4856 
Q 1566 4138 1362 3434 
Q 1159 2731 1159 2009 
Q 1159 1288 1364 580 
Q 1569 -128 1984 -844 
L 1484 -844 
Q 1016 -109 783 600 
Q 550 1309 550 2009 
Q 550 2706 781 3412 
Q 1013 4119 1484 4856 
L 1984 4856 
z
" transform="scale(0.015625)"/>
       <path id="DejaVuSans-23" d="M 3272 2816 
L 2363 2816 
L 2100 1772 
L 3016 1772 
L 3272 2816 
z
M 2803 4594 
L 2478 3297 
L 3391 3297 
L 3719 4594 
L 4219 4594 
L 3897 3297 
L 4872 3297 
L 4872 2816 
L 3775 2816 
L 3519 1772 
L 4513 1772 
L 4513 1294 
L 3397 1294 
L 3072 0 
L 2572 0 
L 2894 1294 
L 1978 1294 
L 1656 0 
L 1153 0 
L 1478 1294 
L 494 1294 
L 494 1772 
L 1594 1772 
L 1856 2816 
L 850 2816 
L 850 3297 
L 1978 3297 
L 2297 4594 
L 2803 4594 
z
" transform="scale(0.015625)"/>
       <path id="DejaVuSans-64" d="M 2906 2969 
L 2906 4863 
L 3481 4863 
L 3481 0 
L 2906 0 
L 2906 525 
Q 2725 213 2448 61 
Q 2172 -91 1784 -91 
Q 1150 -91 751 415 
Q 353 922 353 1747 
Q 353 2572 751 3078 
Q 1150 3584 1784 3584 
Q 2172 3584 2448 3432 
Q 2725 3281 2906 2969 
z
M 947 1747 
Q 947 1113 1208 752 
Q 1469 391 1925 391 
Q 2381 391 2643 752 
Q 2906 1113 2906 1747 
Q 2906 2381 2643 2742 
Q 2381 3103 1925 3103 
Q 1469 3103 1208 2742 
Q 947 2381 947 1747 
z
" transform="scale(0.015625)"/>
       <path id="DejaVuSans-67" d="M 2906 1791 
Q 2906 2416 2648 2759 
Q 2391 3103 1925 3103 
Q 1463 3103 1205 2759 
Q 947 2416 947 1791 
Q 947 1169 1205 825 
Q 1463 481 1925 481 
Q 2391 481 2648 825 
Q 2906 1169 2906 1791 
z
M 3481 434 
Q 3481 -459 3084 -895 
Q 2688 -1331 1869 -1331 
Q 1566 -1331 1297 -1286 
Q 1028 -1241 775 -1147 
L 775 -588 
Q 1028 -725 1275 -790 
Q 1522 -856 1778 -856 
Q 2344 -856 2625 -561 
Q 2906 -266 2906 331 
L 2906 616 
Q 2728 306 2450 153 
Q 2172 0 1784 0 
Q 1141 0 747 490 
Q 353 981 353 1791 
Q 353 2603 747 3093 
Q 1141 3584 1784 3584 
Q 2172 3584 2450 3431 
Q 2728 3278 2906 2969 
L 2906 3500 
L 3481 3500 
L 3481 434 
z
" transform="scale(0.015625)"/>
       <path id="DejaVuSans-73" d="M 2834 3397 
L 2834 2853 
Q 2591 2978 2328 3040 
Q 2066 3103 1784 3103 
Q 1356 3103 1142 2972 
Q 928 2841 928 2578 
Q 928 2378 1081 2264 
Q 1234 2150 1697 2047 
L 1894 2003 
Q 2506 1872 2764 1633 
Q 3022 1394 3022 966 
Q 3022 478 2636 193 
Q 2250 -91 1575 -91 
Q 1294 -91 989 -36 
Q 684 19 347 128 
L 347 722 
Q 666 556 975 473 
Q 1284 391 1588 391 
Q 1994 391 2212 530 
Q 2431 669 2431 922 
Q 2431 1156 2273 1281 
Q 2116 1406 1581 1522 
L 1381 1569 
Q 847 1681 609 1914 
Q 372 2147 372 2553 
Q 372 3047 722 3315 
Q 1072 3584 1716 3584 
Q 2034 3584 2315 3537 
Q 2597 3491 2834 3397 
z
" transform="scale(0.015625)"/>
       <path id="DejaVuSans-29" d="M 513 4856 
L 1013 4856 
Q 1481 4119 1714 3412 
Q 1947 2706 1947 2009 
Q 1947 1309 1714 600 
Q 1481 -109 1013 -844 
L 513 -844 
Q 928 -128 1133 580 
Q 1338 1288 1338 2009 
Q 1338 2731 1133 3434 
Q 928 4138 513 4856 
z
" transform="scale(0.015625)"/>
      </defs>
      <use xlink:href="#DejaVuSans-53"/>
      <use xlink:href="#DejaVuSans-69" transform="translate(63.476562 0)"/>
      <use xlink:href="#DejaVuSans-7a" transform="translate(91.259766 0)"/>
      <use xlink:href="#DejaVuSans-65" transform="translate(143.75 0)"/>
      <use xlink:href="#DejaVuSans-20" transform="translate(205.273438 0)"/>
      <use xlink:href="#DejaVuSans-28" transform="translate(237.060547 0)"/>
      <use xlink:href="#DejaVuSans-23" transform="translate(276.074219 0)"/>
      <use xlink:href="#DejaVuSans-65" transform="translate(359.863281 0)"/>
      <use xlink:href="#DejaVuSans-64" transform="translate(421.386719 0)"/>
      <use xlink:href="#DejaVuSans-67" transform="translate(484.863281 0)"/>
      <use xlink:href="#DejaVuSans-65" transform="translate(548.339844 0)"/>
      <use xlink:href="#DejaVuSans-73" transform="translate(609.863281 0)"/>
      <use xlink:href="#DejaVuSans-29" transform="translate(661.962891 0)"/>
     </g>
    </g>
   </g>
   <g id="matplotlib.axis_2">
    <g id="ytick_1">
     <g id="line2d_7">
      <defs>
       <path id="m7eb1c47a8f" d="M 0 0 
L -3.5 0 
" style="stroke: #000000; stroke-width: 0.8"/>
      </defs>
      <g>
       <use xlink:href="#m7eb1c47a8f" x="47.72" y="376.655606" style="stroke: #000000; stroke-width: 0.8"/>
      </g>
     </g>
     <g id="text_8">
      <!-- 0.0 -->
      <g transform="translate(24.816875 380.454824) scale(0.1 -0.1)">
       <defs>
        <path id="DejaVuSans-2e" d="M 684 794 
L 1344 794 
L 1344 0 
L 684 0 
L 684 794 
z
" transform="scale(0.015625)"/>
       </defs>
       <use xlink:href="#DejaVuSans-30"/>
       <use xlink:href="#DejaVuSans-2e" transform="translate(63.623047 0)"/>
       <use xlink:href="#DejaVuSans-30" transform="translate(95.410156 0)"/>
      </g>
     </g>
    </g>
    <g id="ytick_2">
     <g id="line2d_8">
      <g>
       <use xlink:href="#m7eb1c47a8f" x="47.72" y="305.484571" style="stroke: #000000; stroke-width: 0.8"/>
      </g>
     </g>
     <g id="text_9">
      <!-- 0.2 -->
      <g transform="translate(24.816875 309.28379) scale(0.1 -0.1)">
       <use xlink:href="#DejaVuSans-30"/>
       <use xlink:href="#DejaVuSans-2e" transform="translate(63.623047 0)"/>
       <use xlink:href="#DejaVuSans-32" transform="translate(95.410156 0)"/>
      </g>
     </g>
    </g>
    <g id="ytick_3">
     <g id="line2d_9">
      <g>
       <use xlink:href="#m7eb1c47a8f" x="47.72" y="234.313537" style="stroke: #000000; stroke-width: 0.8"/>
      </g>
     </g>
     <g id="text_10">
      <!-- 0.4 -->
      <g transform="translate(24.816875 238.112755) scale(0.1 -0.1)">
       <use xlink:href="#DejaVuSans-30"/>
       <use xlink:href="#DejaVuSans-2e" transform="translate(63.623047 0)"/>
       <use xlink:href="#DejaVuSans-34" transform="translate(95.410156 0)"/>
      </g>
     </g>
    </g>
    <g id="ytick_4">
     <g id="line2d_10">
      <g>
       <use xlink:href="#m7eb1c47a8f" x="47.72" y="163.142502" style="stroke: #000000; stroke-width: 0.8"/>
      </g>
     </g>
     <g id="text_11">
      <!-- 0.6 -->
      <g transform="translate(24.816875 166.941721) scale(0.1 -0.1)">
       <use xlink:href="#DejaVuSans-30"/>
       <use xlink:href="#DejaVuSans-2e" transform="translate(63.623047 0)"/>
       <use xlink:href="#DejaVuSans-36" transform="translate(95.410156 0)"/>
      </g>
     </g>
    </g>
    <g id="ytick_5">
     <g id="line2d_11">
      <g>
       <use xlink:href="#m7eb1c47a8f" x="47.72" y="91.971468" style="stroke: #000000; stroke-width: 0.8"/>
      </g>
     </g>
     <g id="text_12">
      <!-- 0.8 -->
      <g transform="translate(24.816875 95.770686) scale(0.1 -0.1)">
       <use xlink:href="#DejaVuSans-30"/>
       <use xlink:href="#DejaVuSans-2e" transform="translate(63.623047 0)"/>
       <use xlink:href="#DejaVuSans-38" transform="translate(95.410156 0)"/>
      </g>
     </g>
    </g>
    <g id="text_13">
     <!-- Seconds spent -->
     <g transform="translate(18.737187 245.040469) rotate(-90) scale(0.1 -0.1)">
      <defs>
       <path id="DejaVuSans-63" d="M 3122 3366 
L 3122 2828 
Q 2878 2963 2633 3030 
Q 2388 3097 2138 3097 
Q 1578 3097 1268 2742 
Q 959 2388 959 1747 
Q 959 1106 1268 751 
Q 1578 397 2138 397 
Q 2388 397 2633 464 
Q 2878 531 3122 666 
L 3122 134 
Q 2881 22 2623 -34 
Q 2366 -91 2075 -91 
Q 1284 -91 818 406 
Q 353 903 353 1747 
Q 353 2603 823 3093 
Q 1294 3584 2113 3584 
Q 2378 3584 2631 3529 
Q 2884 3475 3122 3366 
z
" transform="scale(0.015625)"/>
       <path id="DejaVuSans-6f" d="M 1959 3097 
Q 1497 3097 1228 2736 
Q 959 2375 959 1747 
Q 959 1119 1226 758 
Q 1494 397 1959 397 
Q 2419 397 2687 759 
Q 2956 1122 2956 1747 
Q 2956 2369 2687 2733 
Q 2419 3097 1959 3097 
z
M 1959 3584 
Q 2709 3584 3137 3096 
Q 3566 2609 3566 1747 
Q 3566 888 3137 398 
Q 2709 -91 1959 -91 
Q 1206 -91 779 398 
Q 353 888 353 1747 
Q 353 2609 779 3096 
Q 1206 3584 1959 3584 
z
" transform="scale(0.015625)"/>
       <path id="DejaVuSans-6e" d="M 3513 2113 
L 3513 0 
L 2938 0 
L 2938 2094 
Q 2938 2591 2744 2837 
Q 2550 3084 2163 3084 
Q 1697 3084 1428 2787 
Q 1159 2491 1159 1978 
L 1159 0 
L 581 0 
L 581 3500 
L 1159 3500 
L 1159 2956 
Q 1366 3272 1645 3428 
Q 1925 3584 2291 3584 
Q 2894 3584 3203 3211 
Q 3513 2838 3513 2113 
z
" transform="scale(0.015625)"/>
       <path id="DejaVuSans-70" d="M 1159 525 
L 1159 -1331 
L 581 -1331 
L 581 3500 
L 1159 3500 
L 1159 2969 
Q 1341 3281 1617 3432 
Q 1894 3584 2278 3584 
Q 2916 3584 3314 3078 
Q 3713 2572 3713 1747 
Q 3713 922 3314 415 
Q 2916 -91 2278 -91 
Q 1894 -91 1617 61 
Q 1341 213 1159 525 
z
M 3116 1747 
Q 3116 2381 2855 2742 
Q 2594 3103 2138 3103 
Q 1681 3103 1420 2742 
Q 1159 2381 1159 1747 
Q 1159 1113 1420 752 
Q 1681 391 2138 391 
Q 2594 391 2855 752 
Q 3116 1113 3116 1747 
z
" transform="scale(0.015625)"/>
       <path id="DejaVuSans-74" d="M 1172 4494 
L 1172 3500 
L 2356 3500 
L 2356 3053 
L 1172 3053 
L 1172 1153 
Q 1172 725 1289 603 
Q 1406 481 1766 481 
L 2356 481 
L 2356 0 
L 1766 0 
Q 1100 0 847 248 
Q 594 497 594 1153 
L 594 3053 
L 172 3053 
L 172 3500 
L 594 3500 
L 594 4494 
L 1172 4494 
z
" transform="scale(0.015625)"/>
      </defs>
      <use xlink:href="#DejaVuSans-53"/>
      <use xlink:href="#DejaVuSans-65" transform="translate(63.476562 0)"/>
      <use xlink:href="#DejaVuSans-63" transform="translate(125 0)"/>
      <use xlink:href="#DejaVuSans-6f" transform="translate(179.980469 0)"/>
      <use xlink:href="#DejaVuSans-6e" transform="translate(241.162109 0)"/>
      <use xlink:href="#DejaVuSans-64" transform="translate(304.541016 0)"/>
      <use xlink:href="#DejaVuSans-73" transform="translate(368.017578 0)"/>
      <use xlink:href="#DejaVuSans-20" transform="translate(420.117188 0)"/>
      <use xlink:href="#DejaVuSans-73" transform="translate(451.904297 0)"/>
      <use xlink:href="#DejaVuSans-70" transform="translate(504.003906 0)"/>
      <use xlink:href="#DejaVuSans-65" transform="translate(567.480469 0)"/>
      <use xlink:href="#DejaVuSans-6e" transform="translate(629.003906 0)"/>
      <use xlink:href="#DejaVuSans-74" transform="translate(692.382812 0)"/>
     </g>
    </g>
   </g>
   <g id="LineCollection_1">
    <path d="M 71.241818 369.801123 
L 71.241818 369.180156 
" clip-path="url(#pd2621ff3a7)" style="fill: none; stroke: #009933; stroke-width: 1.5"/>
    <path d="M 94.763636 368.959526 
L 94.763636 368.767364 
" clip-path="url(#pd2621ff3a7)" style="fill: none; stroke: #009933; stroke-width: 1.5"/>
    <path d="M 118.285455 367.755668 
L 118.285455 366.408756 
" clip-path="url(#pd2621ff3a7)" style="fill: none; stroke: #009933; stroke-width: 1.5"/>
    <path d="M 141.807273 366.316233 
L 141.807273 365.696334 
" clip-path="url(#pd2621ff3a7)" style="fill: none; stroke: #009933; stroke-width: 1.5"/>
    <path d="M 165.329091 364.161175 
L 165.329091 363.636288 
" clip-path="url(#pd2621ff3a7)" style="fill: none; stroke: #009933; stroke-width: 1.5"/>
    <path d="M 188.850909 361.545639 
L 188.850909 360.970577 
" clip-path="url(#pd2621ff3a7)" style="fill: none; stroke: #009933; stroke-width: 1.5"/>
    <path d="M 212.372727 359.091662 
L 212.372727 357.984596 
" clip-path="url(#pd2621ff3a7)" style="fill: none; stroke: #009933; stroke-width: 1.5"/>
    <path d="M 235.894545 355.490052 
L 235.894545 355.055552 
" clip-path="url(#pd2621ff3a7)" style="fill: none; stroke: #009933; stroke-width: 1.5"/>
    <path d="M 259.416364 350.70629 
L 259.416364 349.377171 
" clip-path="url(#pd2621ff3a7)" style="fill: none; stroke: #009933; stroke-width: 1.5"/>
    <path d="M 282.938182 346.016119 
L 282.938182 345.244625 
" clip-path="url(#pd2621ff3a7)" style="fill: none; stroke: #009933; stroke-width: 1.5"/>
    <path d="M 306.46 340.870098 
L 306.46 339.403974 
" clip-path="url(#pd2621ff3a7)" style="fill: none; stroke: #009933; stroke-width: 1.5"/>
    <path d="M 329.981818 332.422096 
L 329.981818 332.150223 
" clip-path="url(#pd2621ff3a7)" style="fill: none; stroke: #009933; stroke-width: 1.5"/>
    <path d="M 353.503636 323.75809 
L 353.503636 323.083389 
" clip-path="url(#pd2621ff3a7)" style="fill: none; stroke: #009933; stroke-width: 1.5"/>
    <path d="M 377.025455 312.167175 
L 377.025455 307.979116 
" clip-path="url(#pd2621ff3a7)" style="fill: none; stroke: #009933; stroke-width: 1.5"/>
    <path d="M 400.547273 300.375558 
L 400.547273 299.673812 
" clip-path="url(#pd2621ff3a7)" style="fill: none; stroke: #009933; stroke-width: 1.5"/>
    <path d="M 424.069091 281.655441 
L 424.069091 280.438416 
" clip-path="url(#pd2621ff3a7)" style="fill: none; stroke: #009933; stroke-width: 1.5"/>
    <path d="M 447.590909 257.327402 
L 447.590909 256.263751 
" clip-path="url(#pd2621ff3a7)" style="fill: none; stroke: #009933; stroke-width: 1.5"/>
    <path d="M 471.112727 218.812485 
L 471.112727 191.447934 
" clip-path="url(#pd2621ff3a7)" style="fill: none; stroke: #009933; stroke-width: 1.5"/>
    <path d="M 494.634545 170.6087 
L 494.634545 169.109126 
" clip-path="url(#pd2621ff3a7)" style="fill: none; stroke: #009933; stroke-width: 1.5"/>
    <path d="M 518.156364 111.987254 
L 518.156364 110.803679 
" clip-path="url(#pd2621ff3a7)" style="fill: none; stroke: #009933; stroke-width: 1.5"/>
    <path d="M 541.678182 44.12496 
L 541.678182 43.387273 
" clip-path="url(#pd2621ff3a7)" style="fill: none; stroke: #009933; stroke-width: 1.5"/>
   </g>
   <g id="line2d_12">
    <defs>
     <path id="m567d63a80a" d="M 3 0 
L -3 -0 
" style="stroke: #009933"/>
    </defs>
    <g clip-path="url(#pd2621ff3a7)">
     <use xlink:href="#m567d63a80a" x="71.241818" y="369.801123" style="fill: #009933; stroke: #009933"/>
     <use xlink:href="#m567d63a80a" x="94.763636" y="368.959526" style="fill: #009933; stroke: #009933"/>
     <use xlink:href="#m567d63a80a" x="118.285455" y="367.755668" style="fill: #009933; stroke: #009933"/>
     <use xlink:href="#m567d63a80a" x="141.807273" y="366.316233" style="fill: #009933; stroke: #009933"/>
     <use xlink:href="#m567d63a80a" x="165.329091" y="364.161175" style="fill: #009933; stroke: #009933"/>
     <use xlink:href="#m567d63a80a" x="188.850909" y="361.545639" style="fill: #009933; stroke: #009933"/>
     <use xlink:href="#m567d63a80a" x="212.372727" y="359.091662" style="fill: #009933; stroke: #009933"/>
     <use xlink:href="#m567d63a80a" x="235.894545" y="355.490052" style="fill: #009933; stroke: #009933"/>
     <use xlink:href="#m567d63a80a" x="259.416364" y="350.70629" style="fill: #009933; stroke: #009933"/>
     <use xlink:href="#m567d63a80a" x="282.938182" y="346.016119" style="fill: #009933; stroke: #009933"/>
     <use xlink:href="#m567d63a80a" x="306.46" y="340.870098" style="fill: #009933; stroke: #009933"/>
     <use xlink:href="#m567d63a80a" x="329.981818" y="332.422096" style="fill: #009933; stroke: #009933"/>
     <use xlink:href="#m567d63a80a" x="353.503636" y="323.75809" style="fill: #009933; stroke: #009933"/>
     <use xlink:href="#m567d63a80a" x="377.025455" y="312.167175" style="fill: #009933; stroke: #009933"/>
     <use xlink:href="#m567d63a80a" x="400.547273" y="300.375558" style="fill: #009933; stroke: #009933"/>
     <use xlink:href="#m567d63a80a" x="424.069091" y="281.655441" style="fill: #009933; stroke: #009933"/>
     <use xlink:href="#m567d63a80a" x="447.590909" y="257.327402" style="fill: #009933; stroke: #009933"/>
     <use xlink:href="#m567d63a80a" x="471.112727" y="218.812485" style="fill: #009933; stroke: #009933"/>
     <use xlink:href="#m567d63a80a" x="494.634545" y="170.6087" style="fill: #009933; stroke: #009933"/>
     <use xlink:href="#m567d63a80a" x="518.156364" y="111.987254" style="fill: #009933; stroke: #009933"/>
     <use xlink:href="#m567d63a80a" x="541.678182" y="44.12496" style="fill: #009933; stroke: #009933"/>
    </g>
   </g>
   <g id="line2d_13">
    <g clip-path="url(#pd2621ff3a7)">
     <use xlink:href="#m567d63a80a" x="71.241818" y="369.180156" style="fill: #009933; stroke: #009933"/>
     <use xlink:href="#m567d63a80a" x="94.763636" y="368.767364" style="fill: #009933; stroke: #009933"/>
     <use xlink:href="#m567d63a80a" x="118.285455" y="366.408756" style="fill: #009933; stroke: #009933"/>
     <use xlink:href="#m567d63a80a" x="141.807273" y="365.696334" style="fill: #009933; stroke: #009933"/>
     <use xlink:href="#m567d63a80a" x="165.329091" y="363.636288" style="fill: #009933; stroke: #009933"/>
     <use xlink:href="#m567d63a80a" x="188.850909" y="360.970577" style="fill: #009933; stroke: #009933"/>
     <use xlink:href="#m567d63a80a" x="212.372727" y="357.984596" style="fill: #009933; stroke: #009933"/>
     <use xlink:href="#m567d63a80a" x="235.894545" y="355.055552" style="fill: #009933; stroke: #009933"/>
     <use xlink:href="#m567d63a80a" x="259.416364" y="349.377171" style="fill: #009933; stroke: #009933"/>
     <use xlink:href="#m567d63a80a" x="282.938182" y="345.244625" style="fill: #009933; stroke: #009933"/>
     <use xlink:href="#m567d63a80a" x="306.46" y="339.403974" style="fill: #009933; stroke: #009933"/>
     <use xlink:href="#m567d63a80a" x="329.981818" y="332.150223" style="fill: #009933; stroke: #009933"/>
     <use xlink:href="#m567d63a80a" x="353.503636" y="323.083389" style="fill: #009933; stroke: #009933"/>
     <use xlink:href="#m567d63a80a" x="377.025455" y="307.979116" style="fill: #009933; stroke: #009933"/>
     <use xlink:href="#m567d63a80a" x="400.547273" y="299.673812" style="fill: #009933; stroke: #009933"/>
     <use xlink:href="#m567d63a80a" x="424.069091" y="280.438416" style="fill: #009933; stroke: #009933"/>
     <use xlink:href="#m567d63a80a" x="447.590909" y="256.263751" style="fill: #009933; stroke: #009933"/>
     <use xlink:href="#m567d63a80a" x="471.112727" y="191.447934" style="fill: #009933; stroke: #009933"/>
     <use xlink:href="#m567d63a80a" x="494.634545" y="169.109126" style="fill: #009933; stroke: #009933"/>
     <use xlink:href="#m567d63a80a" x="518.156364" y="110.803679" style="fill: #009933; stroke: #009933"/>
     <use xlink:href="#m567d63a80a" x="541.678182" y="43.387273" style="fill: #009933; stroke: #009933"/>
    </g>
   </g>
   <g id="LineCollection_2">
    <path d="M 71.241818 372.572523 
L 71.241818 371.650147 
" clip-path="url(#pd2621ff3a7)" style="fill: none; stroke: #009933; stroke-width: 1.5"/>
    <path d="M 94.763636 372.124502 
L 94.763636 372.031268 
" clip-path="url(#pd2621ff3a7)" style="fill: none; stroke: #009933; stroke-width: 1.5"/>
    <path d="M 118.285455 371.453715 
L 118.285455 371.229526 
" clip-path="url(#pd2621ff3a7)" style="fill: none; stroke: #009933; stroke-width: 1.5"/>
    <path d="M 141.807273 370.703572 
L 141.807273 370.119258 
" clip-path="url(#pd2621ff3a7)" style="fill: none; stroke: #009933; stroke-width: 1.5"/>
    <path d="M 165.329091 369.849875 
L 165.329091 369.262714 
" clip-path="url(#pd2621ff3a7)" style="fill: none; stroke: #009933; stroke-width: 1.5"/>
    <path d="M 188.850909 368.807931 
L 188.850909 368.618261 
" clip-path="url(#pd2621ff3a7)" style="fill: none; stroke: #009933; stroke-width: 1.5"/>
    <path d="M 212.372727 367.688411 
L 212.372727 367.032214 
" clip-path="url(#pd2621ff3a7)" style="fill: none; stroke: #009933; stroke-width: 1.5"/>
    <path d="M 235.894545 366.008063 
L 235.894545 365.962158 
" clip-path="url(#pd2621ff3a7)" style="fill: none; stroke: #009933; stroke-width: 1.5"/>
    <path d="M 259.416364 364.473615 
L 259.416364 364.190355 
" clip-path="url(#pd2621ff3a7)" style="fill: none; stroke: #009933; stroke-width: 1.5"/>
    <path d="M 282.938182 362.741668 
L 282.938182 361.99117 
" clip-path="url(#pd2621ff3a7)" style="fill: none; stroke: #009933; stroke-width: 1.5"/>
    <path d="M 306.46 360.401565 
L 306.46 357.665394 
" clip-path="url(#pd2621ff3a7)" style="fill: none; stroke: #009933; stroke-width: 1.5"/>
    <path d="M 329.981818 358.336893 
L 329.981818 358.141884 
" clip-path="url(#pd2621ff3a7)" style="fill: none; stroke: #009933; stroke-width: 1.5"/>
    <path d="M 353.503636 354.959827 
L 353.503636 354.153815 
" clip-path="url(#pd2621ff3a7)" style="fill: none; stroke: #009933; stroke-width: 1.5"/>
    <path d="M 377.025455 351.646816 
L 377.025455 350.877813 
" clip-path="url(#pd2621ff3a7)" style="fill: none; stroke: #009933; stroke-width: 1.5"/>
    <path d="M 400.547273 347.4584 
L 400.547273 346.680857 
" clip-path="url(#pd2621ff3a7)" style="fill: none; stroke: #009933; stroke-width: 1.5"/>
    <path d="M 424.069091 339.076588 
L 424.069091 338.694399 
" clip-path="url(#pd2621ff3a7)" style="fill: none; stroke: #009933; stroke-width: 1.5"/>
    <path d="M 447.590909 334.699569 
L 447.590909 334.146214 
" clip-path="url(#pd2621ff3a7)" style="fill: none; stroke: #009933; stroke-width: 1.5"/>
    <path d="M 471.112727 324.585809 
L 471.112727 323.688342 
" clip-path="url(#pd2621ff3a7)" style="fill: none; stroke: #009933; stroke-width: 1.5"/>
    <path d="M 494.634545 312.29208 
L 494.634545 311.77609 
" clip-path="url(#pd2621ff3a7)" style="fill: none; stroke: #009933; stroke-width: 1.5"/>
    <path d="M 518.156364 297.666077 
L 518.156364 297.143682 
" clip-path="url(#pd2621ff3a7)" style="fill: none; stroke: #009933; stroke-width: 1.5"/>
    <path d="M 541.678182 282.343665 
L 541.678182 280.34625 
" clip-path="url(#pd2621ff3a7)" style="fill: none; stroke: #009933; stroke-width: 1.5"/>
   </g>
   <g id="line2d_14">
    <g clip-path="url(#pd2621ff3a7)">
     <use xlink:href="#m567d63a80a" x="71.241818" y="372.572523" style="fill: #009933; stroke: #009933"/>
     <use xlink:href="#m567d63a80a" x="94.763636" y="372.124502" style="fill: #009933; stroke: #009933"/>
     <use xlink:href="#m567d63a80a" x="118.285455" y="371.453715" style="fill: #009933; stroke: #009933"/>
     <use xlink:href="#m567d63a80a" x="141.807273" y="370.703572" style="fill: #009933; stroke: #009933"/>
     <use xlink:href="#m567d63a80a" x="165.329091" y="369.849875" style="fill: #009933; stroke: #009933"/>
     <use xlink:href="#m567d63a80a" x="188.850909" y="368.807931" style="fill: #009933; stroke: #009933"/>
     <use xlink:href="#m567d63a80a" x="212.372727" y="367.688411" style="fill: #009933; stroke: #009933"/>
     <use xlink:href="#m567d63a80a" x="235.894545" y="366.008063" style="fill: #009933; stroke: #009933"/>
     <use xlink:href="#m567d63a80a" x="259.416364" y="364.473615" style="fill: #009933; stroke: #009933"/>
     <use xlink:href="#m567d63a80a" x="282.938182" y="362.741668" style="fill: #009933; stroke: #009933"/>
     <use xlink:href="#m567d63a80a" x="306.46" y="360.401565" style="fill: #009933; stroke: #009933"/>
     <use xlink:href="#m567d63a80a" x="329.981818" y="358.336893" style="fill: #009933; stroke: #009933"/>
     <use xlink:href="#m567d63a80a" x="353.503636" y="354.959827" style="fill: #009933; stroke: #009933"/>
     <use xlink:href="#m567d63a80a" x="377.025455" y="351.646816" style="fill: #009933; stroke: #009933"/>
     <use xlink:href="#m567d63a80a" x="400.547273" y="347.4584" style="fill: #009933; stroke: #009933"/>
     <use xlink:href="#m567d63a80a" x="424.069091" y="339.076588" style="fill: #009933; stroke: #009933"/>
     <use xlink:href="#m567d63a80a" x="447.590909" y="334.699569" style="fill: #009933; stroke: #009933"/>
     <use xlink:href="#m567d63a80a" x="471.112727" y="324.585809" style="fill: #009933; stroke: #009933"/>
     <use xlink:href="#m567d63a80a" x="494.634545" y="312.29208" style="fill: #009933; stroke: #009933"/>
     <use xlink:href="#m567d63a80a" x="518.156364" y="297.666077" style="fill: #009933; stroke: #009933"/>
     <use xlink:href="#m567d63a80a" x="541.678182" y="282.343665" style="fill: #009933; stroke: #009933"/>
    </g>
   </g>
   <g id="line2d_15">
    <g clip-path="url(#pd2621ff3a7)">
     <use xlink:href="#m567d63a80a" x="71.241818" y="371.650147" style="fill: #009933; stroke: #009933"/>
     <use xlink:href="#m567d63a80a" x="94.763636" y="372.031268" style="fill: #009933; stroke: #009933"/>
     <use xlink:href="#m567d63a80a" x="118.285455" y="371.229526" style="fill: #009933; stroke: #009933"/>
     <use xlink:href="#m567d63a80a" x="141.807273" y="370.119258" style="fill: #009933; stroke: #009933"/>
     <use xlink:href="#m567d63a80a" x="165.329091" y="369.262714" style="fill: #009933; stroke: #009933"/>
     <use xlink:href="#m567d63a80a" x="188.850909" y="368.618261" style="fill: #009933; stroke: #009933"/>
     <use xlink:href="#m567d63a80a" x="212.372727" y="367.032214" style="fill: #009933; stroke: #009933"/>
     <use xlink:href="#m567d63a80a" x="235.894545" y="365.962158" style="fill: #009933; stroke: #009933"/>
     <use xlink:href="#m567d63a80a" x="259.416364" y="364.190355" style="fill: #009933; stroke: #009933"/>
     <use xlink:href="#m567d63a80a" x="282.938182" y="361.99117" style="fill: #009933; stroke: #009933"/>
     <use xlink:href="#m567d63a80a" x="306.46" y="357.665394" style="fill: #009933; stroke: #009933"/>
     <use xlink:href="#m567d63a80a" x="329.981818" y="358.141884" style="fill: #009933; stroke: #009933"/>
     <use xlink:href="#m567d63a80a" x="353.503636" y="354.153815" style="fill: #009933; stroke: #009933"/>
     <use xlink:href="#m567d63a80a" x="377.025455" y="350.877813" style="fill: #009933; stroke: #009933"/>
     <use xlink:href="#m567d63a80a" x="400.547273" y="346.680857" style="fill: #009933; stroke: #009933"/>
     <use xlink:href="#m567d63a80a" x="424.069091" y="338.694399" style="fill: #009933; stroke: #009933"/>
     <use xlink:href="#m567d63a80a" x="447.590909" y="334.146214" style="fill: #009933; stroke: #009933"/>
     <use xlink:href="#m567d63a80a" x="471.112727" y="323.688342" style="fill: #009933; stroke: #009933"/>
     <use xlink:href="#m567d63a80a" x="494.634545" y="311.77609" style="fill: #009933; stroke: #009933"/>
     <use xlink:href="#m567d63a80a" x="518.156364" y="297.143682" style="fill: #009933; stroke: #009933"/>
     <use xlink:href="#m567d63a80a" x="541.678182" y="280.34625" style="fill: #009933; stroke: #009933"/>
    </g>
   </g>
   <g id="LineCollection_3">
    <path d="M 71.241818 371.682885 
L 71.241818 371.500047 
" clip-path="url(#pd2621ff3a7)" style="fill: none; stroke: #cc0033; stroke-width: 1.5"/>
    <path d="M 94.763636 370.792144 
L 94.763636 370.677417 
" clip-path="url(#pd2621ff3a7)" style="fill: none; stroke: #cc0033; stroke-width: 1.5"/>
    <path d="M 118.285455 369.877917 
L 118.285455 369.617288 
" clip-path="url(#pd2621ff3a7)" style="fill: none; stroke: #cc0033; stroke-width: 1.5"/>
    <path d="M 141.807273 368.79932 
L 141.807273 368.439906 
" clip-path="url(#pd2621ff3a7)" style="fill: none; stroke: #cc0033; stroke-width: 1.5"/>
    <path d="M 165.329091 366.945884 
L 165.329091 366.754576 
" clip-path="url(#pd2621ff3a7)" style="fill: none; stroke: #cc0033; stroke-width: 1.5"/>
    <path d="M 188.850909 364.936761 
L 188.850909 364.632505 
" clip-path="url(#pd2621ff3a7)" style="fill: none; stroke: #cc0033; stroke-width: 1.5"/>
    <path d="M 212.372727 362.983258 
L 212.372727 362.280124 
" clip-path="url(#pd2621ff3a7)" style="fill: none; stroke: #cc0033; stroke-width: 1.5"/>
    <path d="M 235.894545 359.829954 
L 235.894545 359.422144 
" clip-path="url(#pd2621ff3a7)" style="fill: none; stroke: #cc0033; stroke-width: 1.5"/>
    <path d="M 259.416364 356.592633 
L 259.416364 355.561401 
" clip-path="url(#pd2621ff3a7)" style="fill: none; stroke: #cc0033; stroke-width: 1.5"/>
    <path d="M 282.938182 352.740074 
L 282.938182 351.029976 
" clip-path="url(#pd2621ff3a7)" style="fill: none; stroke: #cc0033; stroke-width: 1.5"/>
    <path d="M 306.46 348.182603 
L 306.46 347.585796 
" clip-path="url(#pd2621ff3a7)" style="fill: none; stroke: #cc0033; stroke-width: 1.5"/>
    <path d="M 329.981818 341.471706 
L 329.981818 340.978883 
" clip-path="url(#pd2621ff3a7)" style="fill: none; stroke: #cc0033; stroke-width: 1.5"/>
    <path d="M 353.503636 334.130092 
L 353.503636 333.339668 
" clip-path="url(#pd2621ff3a7)" style="fill: none; stroke: #cc0033; stroke-width: 1.5"/>
    <path d="M 377.025455 325.518331 
L 377.025455 323.946266 
" clip-path="url(#pd2621ff3a7)" style="fill: none; stroke: #cc0033; stroke-width: 1.5"/>
    <path d="M 400.547273 315.305284 
L 400.547273 314.469345 
" clip-path="url(#pd2621ff3a7)" style="fill: none; stroke: #cc0033; stroke-width: 1.5"/>
    <path d="M 424.069091 299.729503 
L 424.069091 298.335298 
" clip-path="url(#pd2621ff3a7)" style="fill: none; stroke: #cc0033; stroke-width: 1.5"/>
    <path d="M 447.590909 281.417125 
L 447.590909 280.280346 
" clip-path="url(#pd2621ff3a7)" style="fill: none; stroke: #cc0033; stroke-width: 1.5"/>
    <path d="M 471.112727 248.892432 
L 471.112727 247.859448 
" clip-path="url(#pd2621ff3a7)" style="fill: none; stroke: #cc0033; stroke-width: 1.5"/>
    <path d="M 494.634545 211.260029 
L 494.634545 209.810773 
" clip-path="url(#pd2621ff3a7)" style="fill: none; stroke: #cc0033; stroke-width: 1.5"/>
    <path d="M 518.156364 164.052958 
L 518.156364 161.990314 
" clip-path="url(#pd2621ff3a7)" style="fill: none; stroke: #cc0033; stroke-width: 1.5"/>
    <path d="M 541.678182 107.364232 
L 541.678182 62.622917 
" clip-path="url(#pd2621ff3a7)" style="fill: none; stroke: #cc0033; stroke-width: 1.5"/>
   </g>
   <g id="line2d_16">
    <defs>
     <path id="md3fe7ae338" d="M 3 0 
L -3 -0 
" style="stroke: #cc0033"/>
    </defs>
    <g clip-path="url(#pd2621ff3a7)">
     <use xlink:href="#md3fe7ae338" x="71.241818" y="371.682885" style="fill: #cc0033; stroke: #cc0033"/>
     <use xlink:href="#md3fe7ae338" x="94.763636" y="370.792144" style="fill: #cc0033; stroke: #cc0033"/>
     <use xlink:href="#md3fe7ae338" x="118.285455" y="369.877917" style="fill: #cc0033; stroke: #cc0033"/>
     <use xlink:href="#md3fe7ae338" x="141.807273" y="368.79932" style="fill: #cc0033; stroke: #cc0033"/>
     <use xlink:href="#md3fe7ae338" x="165.329091" y="366.945884" style="fill: #cc0033; stroke: #cc0033"/>
     <use xlink:href="#md3fe7ae338" x="188.850909" y="364.936761" style="fill: #cc0033; stroke: #cc0033"/>
     <use xlink:href="#md3fe7ae338" x="212.372727" y="362.983258" style="fill: #cc0033; stroke: #cc0033"/>
     <use xlink:href="#md3fe7ae338" x="235.894545" y="359.829954" style="fill: #cc0033; stroke: #cc0033"/>
     <use xlink:href="#md3fe7ae338" x="259.416364" y="356.592633" style="fill: #cc0033; stroke: #cc0033"/>
     <use xlink:href="#md3fe7ae338" x="282.938182" y="352.740074" style="fill: #cc0033; stroke: #cc0033"/>
     <use xlink:href="#md3fe7ae338" x="306.46" y="348.182603" style="fill: #cc0033; stroke: #cc0033"/>
     <use xlink:href="#md3fe7ae338" x="329.981818" y="341.471706" style="fill: #cc0033; stroke: #cc0033"/>
     <use xlink:href="#md3fe7ae338" x="353.503636" y="334.130092" style="fill: #cc0033; stroke: #cc0033"/>
     <use xlink:href="#md3fe7ae338" x="377.025455" y="325.518331" style="fill: #cc0033; stroke: #cc0033"/>
     <use xlink:href="#md3fe7ae338" x="400.547273" y="315.305284" style="fill: #cc0033; stroke: #cc0033"/>
     <use xlink:href="#md3fe7ae338" x="424.069091" y="299.729503" style="fill: #cc0033; stroke: #cc0033"/>
     <use xlink:href="#md3fe7ae338" x="447.590909" y="281.417125" style="fill: #cc0033; stroke: #cc0033"/>
     <use xlink:href="#md3fe7ae338" x="471.112727" y="248.892432" style="fill: #cc0033; stroke: #cc0033"/>
     <use xlink:href="#md3fe7ae338" x="494.634545" y="211.260029" style="fill: #cc0033; stroke: #cc0033"/>
     <use xlink:href="#md3fe7ae338" x="518.156364" y="164.052958" style="fill: #cc0033; stroke: #cc0033"/>
     <use xlink:href="#md3fe7ae338" x="541.678182" y="107.364232" style="fill: #cc0033; stroke: #cc0033"/>
    </g>
   </g>
   <g id="line2d_17">
    <g clip-path="url(#pd2621ff3a7)">
     <use xlink:href="#md3fe7ae338" x="71.241818" y="371.500047" style="fill: #cc0033; stroke: #cc0033"/>
     <use xlink:href="#md3fe7ae338" x="94.763636" y="370.677417" style="fill: #cc0033; stroke: #cc0033"/>
     <use xlink:href="#md3fe7ae338" x="118.285455" y="369.617288" style="fill: #cc0033; stroke: #cc0033"/>
     <use xlink:href="#md3fe7ae338" x="141.807273" y="368.439906" style="fill: #cc0033; stroke: #cc0033"/>
     <use xlink:href="#md3fe7ae338" x="165.329091" y="366.754576" style="fill: #cc0033; stroke: #cc0033"/>
     <use xlink:href="#md3fe7ae338" x="188.850909" y="364.632505" style="fill: #cc0033; stroke: #cc0033"/>
     <use xlink:href="#md3fe7ae338" x="212.372727" y="362.280124" style="fill: #cc0033; stroke: #cc0033"/>
     <use xlink:href="#md3fe7ae338" x="235.894545" y="359.422144" style="fill: #cc0033; stroke: #cc0033"/>
     <use xlink:href="#md3fe7ae338" x="259.416364" y="355.561401" style="fill: #cc0033; stroke: #cc0033"/>
     <use xlink:href="#md3fe7ae338" x="282.938182" y="351.029976" style="fill: #cc0033; stroke: #cc0033"/>
     <use xlink:href="#md3fe7ae338" x="306.46" y="347.585796" style="fill: #cc0033; stroke: #cc0033"/>
     <use xlink:href="#md3fe7ae338" x="329.981818" y="340.978883" style="fill: #cc0033; stroke: #cc0033"/>
     <use xlink:href="#md3fe7ae338" x="353.503636" y="333.339668" style="fill: #cc0033; stroke: #cc0033"/>
     <use xlink:href="#md3fe7ae338" x="377.025455" y="323.946266" style="fill: #cc0033; stroke: #cc0033"/>
     <use xlink:href="#md3fe7ae338" x="400.547273" y="314.469345" style="fill: #cc0033; stroke: #cc0033"/>
     <use xlink:href="#md3fe7ae338" x="424.069091" y="298.335298" style="fill: #cc0033; stroke: #cc0033"/>
     <use xlink:href="#md3fe7ae338" x="447.590909" y="280.280346" style="fill: #cc0033; stroke: #cc0033"/>
     <use xlink:href="#md3fe7ae338" x="471.112727" y="247.859448" style="fill: #cc0033; stroke: #cc0033"/>
     <use xlink:href="#md3fe7ae338" x="494.634545" y="209.810773" style="fill: #cc0033; stroke: #cc0033"/>
     <use xlink:href="#md3fe7ae338" x="518.156364" y="161.990314" style="fill: #cc0033; stroke: #cc0033"/>
     <use xlink:href="#md3fe7ae338" x="541.678182" y="62.622917" style="fill: #cc0033; stroke: #cc0033"/>
    </g>
   </g>
   <g id="LineCollection_4">
    <path d="M 71.241818 373.532727 
L 71.241818 373.301386 
" clip-path="url(#pd2621ff3a7)" style="fill: none; stroke: #cc0033; stroke-width: 1.5"/>
    <path d="M 94.763636 372.971366 
L 94.763636 372.858417 
" clip-path="url(#pd2621ff3a7)" style="fill: none; stroke: #cc0033; stroke-width: 1.5"/>
    <path d="M 118.285455 372.477118 
L 118.285455 372.337623 
" clip-path="url(#pd2621ff3a7)" style="fill: none; stroke: #cc0033; stroke-width: 1.5"/>
    <path d="M 141.807273 371.758932 
L 141.807273 371.595558 
" clip-path="url(#pd2621ff3a7)" style="fill: none; stroke: #cc0033; stroke-width: 1.5"/>
    <path d="M 165.329091 371.045442 
L 165.329091 370.610836 
" clip-path="url(#pd2621ff3a7)" style="fill: none; stroke: #cc0033; stroke-width: 1.5"/>
    <path d="M 188.850909 370.125841 
L 188.850909 369.938483 
" clip-path="url(#pd2621ff3a7)" style="fill: none; stroke: #cc0033; stroke-width: 1.5"/>
    <path d="M 212.372727 369.259156 
L 212.372727 368.93184 
" clip-path="url(#pd2621ff3a7)" style="fill: none; stroke: #cc0033; stroke-width: 1.5"/>
    <path d="M 235.894545 367.698446 
L 235.894545 367.429171 
" clip-path="url(#pd2621ff3a7)" style="fill: none; stroke: #cc0033; stroke-width: 1.5"/>
    <path d="M 259.416364 366.472062 
L 259.416364 366.032652 
" clip-path="url(#pd2621ff3a7)" style="fill: none; stroke: #cc0033; stroke-width: 1.5"/>
    <path d="M 282.938182 364.960995 
L 282.938182 364.606136 
" clip-path="url(#pd2621ff3a7)" style="fill: none; stroke: #cc0033; stroke-width: 1.5"/>
    <path d="M 306.46 363.307941 
L 306.46 362.772912 
" clip-path="url(#pd2621ff3a7)" style="fill: none; stroke: #cc0033; stroke-width: 1.5"/>
    <path d="M 329.981818 360.775782 
L 329.981818 359.899667 
" clip-path="url(#pd2621ff3a7)" style="fill: none; stroke: #cc0033; stroke-width: 1.5"/>
    <path d="M 353.503636 358.177861 
L 353.503636 357.605184 
" clip-path="url(#pd2621ff3a7)" style="fill: none; stroke: #cc0033; stroke-width: 1.5"/>
    <path d="M 377.025455 354.899296 
L 377.025455 354.426507 
" clip-path="url(#pd2621ff3a7)" style="fill: none; stroke: #cc0033; stroke-width: 1.5"/>
    <path d="M 400.547273 350.690597 
L 400.547273 347.654405 
" clip-path="url(#pd2621ff3a7)" style="fill: none; stroke: #cc0033; stroke-width: 1.5"/>
    <path d="M 424.069091 344.320754 
L 424.069091 343.409874 
" clip-path="url(#pd2621ff3a7)" style="fill: none; stroke: #cc0033; stroke-width: 1.5"/>
    <path d="M 447.590909 340.46848 
L 447.590909 339.378744 
" clip-path="url(#pd2621ff3a7)" style="fill: none; stroke: #cc0033; stroke-width: 1.5"/>
    <path d="M 471.112727 331.685832 
L 471.112727 329.451666 
" clip-path="url(#pd2621ff3a7)" style="fill: none; stroke: #cc0033; stroke-width: 1.5"/>
    <path d="M 494.634545 322.155354 
L 494.634545 320.47159 
" clip-path="url(#pd2621ff3a7)" style="fill: none; stroke: #cc0033; stroke-width: 1.5"/>
    <path d="M 518.156364 310.598886 
L 518.156364 308.176797 
" clip-path="url(#pd2621ff3a7)" style="fill: none; stroke: #cc0033; stroke-width: 1.5"/>
    <path d="M 541.678182 296.959562 
L 541.678182 286.800716 
" clip-path="url(#pd2621ff3a7)" style="fill: none; stroke: #cc0033; stroke-width: 1.5"/>
   </g>
   <g id="line2d_18">
    <g clip-path="url(#pd2621ff3a7)">
     <use xlink:href="#md3fe7ae338" x="71.241818" y="373.532727" style="fill: #cc0033; stroke: #cc0033"/>
     <use xlink:href="#md3fe7ae338" x="94.763636" y="372.971366" style="fill: #cc0033; stroke: #cc0033"/>
     <use xlink:href="#md3fe7ae338" x="118.285455" y="372.477118" style="fill: #cc0033; stroke: #cc0033"/>
     <use xlink:href="#md3fe7ae338" x="141.807273" y="371.758932" style="fill: #cc0033; stroke: #cc0033"/>
     <use xlink:href="#md3fe7ae338" x="165.329091" y="371.045442" style="fill: #cc0033; stroke: #cc0033"/>
     <use xlink:href="#md3fe7ae338" x="188.850909" y="370.125841" style="fill: #cc0033; stroke: #cc0033"/>
     <use xlink:href="#md3fe7ae338" x="212.372727" y="369.259156" style="fill: #cc0033; stroke: #cc0033"/>
     <use xlink:href="#md3fe7ae338" x="235.894545" y="367.698446" style="fill: #cc0033; stroke: #cc0033"/>
     <use xlink:href="#md3fe7ae338" x="259.416364" y="366.472062" style="fill: #cc0033; stroke: #cc0033"/>
     <use xlink:href="#md3fe7ae338" x="282.938182" y="364.960995" style="fill: #cc0033; stroke: #cc0033"/>
     <use xlink:href="#md3fe7ae338" x="306.46" y="363.307941" style="fill: #cc0033; stroke: #cc0033"/>
     <use xlink:href="#md3fe7ae338" x="329.981818" y="360.775782" style="fill: #cc0033; stroke: #cc0033"/>
     <use xlink:href="#md3fe7ae338" x="353.503636" y="358.177861" style="fill: #cc0033; stroke: #cc0033"/>
     <use xlink:href="#md3fe7ae338" x="377.025455" y="354.899296" style="fill: #cc0033; stroke: #cc0033"/>
     <use xlink:href="#md3fe7ae338" x="400.547273" y="350.690597" style="fill: #cc0033; stroke: #cc0033"/>
     <use xlink:href="#md3fe7ae338" x="424.069091" y="344.320754" style="fill: #cc0033; stroke: #cc0033"/>
     <use xlink:href="#md3fe7ae338" x="447.590909" y="340.46848" style="fill: #cc0033; stroke: #cc0033"/>
     <use xlink:href="#md3fe7ae338" x="471.112727" y="331.685832" style="fill: #cc0033; stroke: #cc0033"/>
     <use xlink:href="#md3fe7ae338" x="494.634545" y="322.155354" style="fill: #cc0033; stroke: #cc0033"/>
     <use xlink:href="#md3fe7ae338" x="518.156364" y="310.598886" style="fill: #cc0033; stroke: #cc0033"/>
     <use xlink:href="#md3fe7ae338" x="541.678182" y="296.959562" style="fill: #cc0033; stroke: #cc0033"/>
    </g>
   </g>
   <g id="line2d_19">
    <g clip-path="url(#pd2621ff3a7)">
     <use xlink:href="#md3fe7ae338" x="71.241818" y="373.301386" style="fill: #cc0033; stroke: #cc0033"/>
     <use xlink:href="#md3fe7ae338" x="94.763636" y="372.858417" style="fill: #cc0033; stroke: #cc0033"/>
     <use xlink:href="#md3fe7ae338" x="118.285455" y="372.337623" style="fill: #cc0033; stroke: #cc0033"/>
     <use xlink:href="#md3fe7ae338" x="141.807273" y="371.595558" style="fill: #cc0033; stroke: #cc0033"/>
     <use xlink:href="#md3fe7ae338" x="165.329091" y="370.610836" style="fill: #cc0033; stroke: #cc0033"/>
     <use xlink:href="#md3fe7ae338" x="188.850909" y="369.938483" style="fill: #cc0033; stroke: #cc0033"/>
     <use xlink:href="#md3fe7ae338" x="212.372727" y="368.93184" style="fill: #cc0033; stroke: #cc0033"/>
     <use xlink:href="#md3fe7ae338" x="235.894545" y="367.429171" style="fill: #cc0033; stroke: #cc0033"/>
     <use xlink:href="#md3fe7ae338" x="259.416364" y="366.032652" style="fill: #cc0033; stroke: #cc0033"/>
     <use xlink:href="#md3fe7ae338" x="282.938182" y="364.606136" style="fill: #cc0033; stroke: #cc0033"/>
     <use xlink:href="#md3fe7ae338" x="306.46" y="362.772912" style="fill: #cc0033; stroke: #cc0033"/>
     <use xlink:href="#md3fe7ae338" x="329.981818" y="359.899667" style="fill: #cc0033; stroke: #cc0033"/>
     <use xlink:href="#md3fe7ae338" x="353.503636" y="357.605184" style="fill: #cc0033; stroke: #cc0033"/>
     <use xlink:href="#md3fe7ae338" x="377.025455" y="354.426507" style="fill: #cc0033; stroke: #cc0033"/>
     <use xlink:href="#md3fe7ae338" x="400.547273" y="347.654405" style="fill: #cc0033; stroke: #cc0033"/>
     <use xlink:href="#md3fe7ae338" x="424.069091" y="343.409874" style="fill: #cc0033; stroke: #cc0033"/>
     <use xlink:href="#md3fe7ae338" x="447.590909" y="339.378744" style="fill: #cc0033; stroke: #cc0033"/>
     <use xlink:href="#md3fe7ae338" x="471.112727" y="329.451666" style="fill: #cc0033; stroke: #cc0033"/>
     <use xlink:href="#md3fe7ae338" x="494.634545" y="320.47159" style="fill: #cc0033; stroke: #cc0033"/>
     <use xlink:href="#md3fe7ae338" x="518.156364" y="308.176797" style="fill: #cc0033; stroke: #cc0033"/>
     <use xlink:href="#md3fe7ae338" x="541.678182" y="286.800716" style="fill: #cc0033; stroke: #cc0033"/>
    </g>
   </g>
   <g id="line2d_20">
    <path d="M 71.241818 369.623196 
L 94.763636 368.859886 
L 118.285455 367.403371 
L 141.807273 365.990982 
L 165.329091 363.967589 
L 188.850909 361.303658 
L 212.372727 358.740077 
L 235.894545 355.2833 
L 259.416364 350.216634 
L 282.938182 345.486963 
L 306.46 339.889717 
L 329.981818 332.317119 
L 353.503636 323.463442 
L 377.025455 311.057975 
L 400.547273 300.027176 
L 424.069091 280.935902 
L 447.590909 256.828137 
L 471.112727 211.532044 
L 494.634545 170.101606 
L 518.156364 111.31789 
L 541.678182 43.825686 
" clip-path="url(#pd2621ff3a7)" style="fill: none; stroke-dasharray: 1.5,2.475; stroke-dashoffset: 0; stroke: #009933; stroke-width: 1.5"/>
   </g>
   <g id="line2d_21">
    <path d="M 71.241818 372.239087 
L 94.763636 372.075038 
L 118.285455 371.379341 
L 141.807273 370.435257 
L 165.329091 369.647038 
L 188.850909 368.696549 
L 212.372727 367.483438 
L 235.894545 365.976748 
L 259.416364 364.341593 
L 282.938182 362.534205 
L 306.46 359.715832 
L 329.981818 358.256114 
L 353.503636 354.5054 
L 377.025455 351.30306 
L 400.547273 346.951663 
L 424.069091 338.891543 
L 447.590909 334.386416 
L 471.112727 324.049535 
L 494.634545 312.120558 
L 518.156364 297.352925 
L 541.678182 281.729103 
" clip-path="url(#pd2621ff3a7)" style="fill: none; stroke: #009933; stroke-width: 1.5; stroke-linecap: square"/>
   </g>
   <g id="line2d_22">
    <path d="M 71.241818 371.604882 
L 94.763636 370.748701 
L 118.285455 369.742186 
L 141.807273 368.602361 
L 165.329091 366.869987 
L 188.850909 364.760143 
L 212.372727 362.773738 
L 235.894545 359.597709 
L 259.416364 356.128456 
L 282.938182 352.09841 
L 306.46 347.956177 
L 329.981818 341.248962 
L 353.503636 333.920138 
L 377.025455 325.057468 
L 400.547273 314.911972 
L 424.069091 299.21792 
L 447.590909 280.830662 
L 471.112727 248.392163 
L 494.634545 210.679309 
L 518.156364 163.296563 
L 541.678182 92.046638 
" clip-path="url(#pd2621ff3a7)" style="fill: none; stroke-dasharray: 1.5,2.475; stroke-dashoffset: 0; stroke: #cc0033; stroke-width: 1.5"/>
   </g>
   <g id="line2d_23">
    <path d="M 71.241818 373.405082 
L 94.763636 372.916607 
L 118.285455 372.396083 
L 141.807273 371.705397 
L 165.329091 370.902566 
L 188.850909 370.054108 
L 212.372727 369.111945 
L 235.894545 367.567883 
L 259.416364 366.261325 
L 282.938182 364.784626 
L 306.46 363.037142 
L 329.981818 360.474288 
L 353.503636 357.904223 
L 377.025455 354.602748 
L 400.547273 349.883305 
L 424.069091 343.922019 
L 447.590909 340.041845 
L 471.112727 330.783283 
L 494.634545 321.234599 
L 518.156364 309.65091 
L 541.678182 291.229259 
" clip-path="url(#pd2621ff3a7)" style="fill: none; stroke: #cc0033; stroke-width: 1.5; stroke-linecap: square"/>
   </g>
   <g id="patch_3">
    <path d="M 47.72 390.04 
L 47.72 26.88 
" style="fill: none; stroke: #000000; stroke-width: 0.8; stroke-linejoin: miter; stroke-linecap: square"/>
   </g>
   <g id="patch_4">
    <path d="M 565.2 390.04 
L 565.2 26.88 
" style="fill: none; stroke: #000000; stroke-width: 0.8; stroke-linejoin: miter; stroke-linecap: square"/>
   </g>
   <g id="patch_5">
    <path d="M 47.72 390.04 
L 565.2 390.04 
" style="fill: none; stroke: #000000; stroke-width: 0.8; stroke-linejoin: miter; stroke-linecap: square"/>
   </g>
   <g id="patch_6">
    <path d="M 47.72 26.88 
L 565.2 26.88 
" style="fill: none; stroke: #000000; stroke-width: 0.8; stroke-linejoin: miter; stroke-linecap: square"/>
   </g>
   <g id="text_14">
    <!-- Bron-Kerbosch on a random graph of order 100 -->
    <g transform="translate(47.72 20.88) scale(0.12 -0.12)">
     <defs>
      <path id="DejaVuSans-42" d="M 1259 2228 
L 1259 519 
L 2272 519 
Q 2781 519 3026 730 
Q 3272 941 3272 1375 
Q 3272 1813 3026 2020 
Q 2781 2228 2272 2228 
L 1259 2228 
z
M 1259 4147 
L 1259 2741 
L 2194 2741 
Q 2656 2741 2882 2914 
Q 3109 3088 3109 3444 
Q 3109 3797 2882 3972 
Q 2656 4147 2194 4147 
L 1259 4147 
z
M 628 4666 
L 2241 4666 
Q 2963 4666 3353 4366 
Q 3744 4066 3744 3513 
Q 3744 3084 3544 2831 
Q 3344 2578 2956 2516 
Q 3422 2416 3680 2098 
Q 3938 1781 3938 1306 
Q 3938 681 3513 340 
Q 3088 0 2303 0 
L 628 0 
L 628 4666 
z
" transform="scale(0.015625)"/>
      <path id="DejaVuSans-72" d="M 2631 2963 
Q 2534 3019 2420 3045 
Q 2306 3072 2169 3072 
Q 1681 3072 1420 2755 
Q 1159 2438 1159 1844 
L 1159 0 
L 581 0 
L 581 3500 
L 1159 3500 
L 1159 2956 
Q 1341 3275 1631 3429 
Q 1922 3584 2338 3584 
Q 2397 3584 2469 3576 
Q 2541 3569 2628 3553 
L 2631 2963 
z
" transform="scale(0.015625)"/>
      <path id="DejaVuSans-2d" d="M 313 2009 
L 1997 2009 
L 1997 1497 
L 313 1497 
L 313 2009 
z
" transform="scale(0.015625)"/>
      <path id="DejaVuSans-4b" d="M 628 4666 
L 1259 4666 
L 1259 2694 
L 3353 4666 
L 4166 4666 
L 1850 2491 
L 4331 0 
L 3500 0 
L 1259 2247 
L 1259 0 
L 628 0 
L 628 4666 
z
" transform="scale(0.015625)"/>
      <path id="DejaVuSans-62" d="M 3116 1747 
Q 3116 2381 2855 2742 
Q 2594 3103 2138 3103 
Q 1681 3103 1420 2742 
Q 1159 2381 1159 1747 
Q 1159 1113 1420 752 
Q 1681 391 2138 391 
Q 2594 391 2855 752 
Q 3116 1113 3116 1747 
z
M 1159 2969 
Q 1341 3281 1617 3432 
Q 1894 3584 2278 3584 
Q 2916 3584 3314 3078 
Q 3713 2572 3713 1747 
Q 3713 922 3314 415 
Q 2916 -91 2278 -91 
Q 1894 -91 1617 61 
Q 1341 213 1159 525 
L 1159 0 
L 581 0 
L 581 4863 
L 1159 4863 
L 1159 2969 
z
" transform="scale(0.015625)"/>
      <path id="DejaVuSans-68" d="M 3513 2113 
L 3513 0 
L 2938 0 
L 2938 2094 
Q 2938 2591 2744 2837 
Q 2550 3084 2163 3084 
Q 1697 3084 1428 2787 
Q 1159 2491 1159 1978 
L 1159 0 
L 581 0 
L 581 4863 
L 1159 4863 
L 1159 2956 
Q 1366 3272 1645 3428 
Q 1925 3584 2291 3584 
Q 2894 3584 3203 3211 
Q 3513 2838 3513 2113 
z
" transform="scale(0.015625)"/>
      <path id="DejaVuSans-61" d="M 2194 1759 
Q 1497 1759 1228 1600 
Q 959 1441 959 1056 
Q 959 750 1161 570 
Q 1363 391 1709 391 
Q 2188 391 2477 730 
Q 2766 1069 2766 1631 
L 2766 1759 
L 2194 1759 
z
M 3341 1997 
L 3341 0 
L 2766 0 
L 2766 531 
Q 2569 213 2275 61 
Q 1981 -91 1556 -91 
Q 1019 -91 701 211 
Q 384 513 384 1019 
Q 384 1609 779 1909 
Q 1175 2209 1959 2209 
L 2766 2209 
L 2766 2266 
Q 2766 2663 2505 2880 
Q 2244 3097 1772 3097 
Q 1472 3097 1187 3025 
Q 903 2953 641 2809 
L 641 3341 
Q 956 3463 1253 3523 
Q 1550 3584 1831 3584 
Q 2591 3584 2966 3190 
Q 3341 2797 3341 1997 
z
" transform="scale(0.015625)"/>
      <path id="DejaVuSans-6d" d="M 3328 2828 
Q 3544 3216 3844 3400 
Q 4144 3584 4550 3584 
Q 5097 3584 5394 3201 
Q 5691 2819 5691 2113 
L 5691 0 
L 5113 0 
L 5113 2094 
Q 5113 2597 4934 2840 
Q 4756 3084 4391 3084 
Q 3944 3084 3684 2787 
Q 3425 2491 3425 1978 
L 3425 0 
L 2847 0 
L 2847 2094 
Q 2847 2600 2669 2842 
Q 2491 3084 2119 3084 
Q 1678 3084 1418 2786 
Q 1159 2488 1159 1978 
L 1159 0 
L 581 0 
L 581 3500 
L 1159 3500 
L 1159 2956 
Q 1356 3278 1631 3431 
Q 1906 3584 2284 3584 
Q 2666 3584 2933 3390 
Q 3200 3197 3328 2828 
z
" transform="scale(0.015625)"/>
      <path id="DejaVuSans-66" d="M 2375 4863 
L 2375 4384 
L 1825 4384 
Q 1516 4384 1395 4259 
Q 1275 4134 1275 3809 
L 1275 3500 
L 2222 3500 
L 2222 3053 
L 1275 3053 
L 1275 0 
L 697 0 
L 697 3053 
L 147 3053 
L 147 3500 
L 697 3500 
L 697 3744 
Q 697 4328 969 4595 
Q 1241 4863 1831 4863 
L 2375 4863 
z
" transform="scale(0.015625)"/>
      <path id="DejaVuSans-31" d="M 794 531 
L 1825 531 
L 1825 4091 
L 703 3866 
L 703 4441 
L 1819 4666 
L 2450 4666 
L 2450 531 
L 3481 531 
L 3481 0 
L 794 0 
L 794 531 
z
" transform="scale(0.015625)"/>
     </defs>
     <use xlink:href="#DejaVuSans-42"/>
     <use xlink:href="#DejaVuSans-72" transform="translate(68.603516 0)"/>
     <use xlink:href="#DejaVuSans-6f" transform="translate(107.466797 0)"/>
     <use xlink:href="#DejaVuSans-6e" transform="translate(168.648438 0)"/>
     <use xlink:href="#DejaVuSans-2d" transform="translate(232.027344 0)"/>
     <use xlink:href="#DejaVuSans-4b" transform="translate(268.111328 0)"/>
     <use xlink:href="#DejaVuSans-65" transform="translate(328.6875 0)"/>
     <use xlink:href="#DejaVuSans-72" transform="translate(390.210938 0)"/>
     <use xlink:href="#DejaVuSans-62" transform="translate(431.324219 0)"/>
     <use xlink:href="#DejaVuSans-6f" transform="translate(494.800781 0)"/>
     <use xlink:href="#DejaVuSans-73" transform="translate(555.982422 0)"/>
     <use xlink:href="#DejaVuSans-63" transform="translate(608.082031 0)"/>
     <use xlink:href="#DejaVuSans-68" transform="translate(663.0625 0)"/>
     <use xlink:href="#DejaVuSans-20" transform="translate(726.441406 0)"/>
     <use xlink:href="#DejaVuSans-6f" transform="translate(758.228516 0)"/>
     <use xlink:href="#DejaVuSans-6e" transform="translate(819.410156 0)"/>
     <use xlink:href="#DejaVuSans-20" transform="translate(882.789062 0)"/>
     <use xlink:href="#DejaVuSans-61" transform="translate(914.576172 0)"/>
     <use xlink:href="#DejaVuSans-20" transform="translate(975.855469 0)"/>
     <use xlink:href="#DejaVuSans-72" transform="translate(1007.642578 0)"/>
     <use xlink:href="#DejaVuSans-61" transform="translate(1048.755859 0)"/>
     <use xlink:href="#DejaVuSans-6e" transform="translate(1110.035156 0)"/>
     <use xlink:href="#DejaVuSans-64" transform="translate(1173.414062 0)"/>
     <use xlink:href="#DejaVuSans-6f" transform="translate(1236.890625 0)"/>
     <use xlink:href="#DejaVuSans-6d" transform="translate(1298.072266 0)"/>
     <use xlink:href="#DejaVuSans-20" transform="translate(1395.484375 0)"/>
     <use xlink:href="#DejaVuSans-67" transform="translate(1427.271484 0)"/>
     <use xlink:href="#DejaVuSans-72" transform="translate(1490.748047 0)"/>
     <use xlink:href="#DejaVuSans-61" transform="translate(1531.861328 0)"/>
     <use xlink:href="#DejaVuSans-70" transform="translate(1593.140625 0)"/>
     <use xlink:href="#DejaVuSans-68" transform="translate(1656.617188 0)"/>
     <use xlink:href="#DejaVuSans-20" transform="translate(1719.996094 0)"/>
     <use xlink:href="#DejaVuSans-6f" transform="translate(1751.783203 0)"/>
     <use xlink:href="#DejaVuSans-66" transform="translate(1812.964844 0)"/>
     <use xlink:href="#DejaVuSans-20" transform="translate(1848.169922 0)"/>
     <use xlink:href="#DejaVuSans-6f" transform="translate(1879.957031 0)"/>
     <use xlink:href="#DejaVuSans-72" transform="translate(1941.138672 0)"/>
     <use xlink:href="#DejaVuSans-64" transform="translate(1980.501953 0)"/>
     <use xlink:href="#DejaVuSans-65" transform="translate(2043.978516 0)"/>
     <use xlink:href="#DejaVuSans-72" transform="translate(2105.501953 0)"/>
     <use xlink:href="#DejaVuSans-20" transform="translate(2146.615234 0)"/>
     <use xlink:href="#DejaVuSans-31" transform="translate(2178.402344 0)"/>
     <use xlink:href="#DejaVuSans-30" transform="translate(2242.025391 0)"/>
     <use xlink:href="#DejaVuSans-30" transform="translate(2305.648438 0)"/>
    </g>
   </g>
   <g id="legend_1">
    <g id="patch_7">
     <path d="M 54.72 93.5925 
L 144.248125 93.5925 
Q 146.248125 93.5925 146.248125 91.5925 
L 146.248125 33.88 
Q 146.248125 31.88 144.248125 31.88 
L 54.72 31.88 
Q 52.72 31.88 52.72 33.88 
L 52.72 91.5925 
Q 52.72 93.5925 54.72 93.5925 
z
" style="fill: #ffffff; opacity: 0.8; stroke: #cccccc; stroke-linejoin: miter"/>
    </g>
    <g id="LineCollection_5">
     <path d="M 66.72 44.978437 
L 66.72 34.978437 
" style="fill: none; stroke: #009933; stroke-width: 1.5"/>
    </g>
    <g id="line2d_24">
     <g>
      <use xlink:href="#m567d63a80a" x="66.72" y="44.978437" style="fill: #009933; stroke: #009933"/>
     </g>
    </g>
    <g id="line2d_25">
     <g>
      <use xlink:href="#m567d63a80a" x="66.72" y="34.978437" style="fill: #009933; stroke: #009933"/>
     </g>
    </g>
    <g id="line2d_26">
     <path d="M 56.72 39.978437 
L 76.72 39.978437 
" style="fill: none; stroke-dasharray: 1.5,2.475; stroke-dashoffset: 0; stroke: #009933; stroke-width: 1.5"/>
    </g>
    <g id="line2d_27"/>
    <g id="text_15">
     <!-- Java Ver1½ -->
     <g transform="translate(84.72 43.478437) scale(0.1 -0.1)">
      <defs>
       <path id="DejaVuSans-4a" d="M 628 4666 
L 1259 4666 
L 1259 325 
Q 1259 -519 939 -900 
Q 619 -1281 -91 -1281 
L -331 -1281 
L -331 -750 
L -134 -750 
Q 284 -750 456 -515 
Q 628 -281 628 325 
L 628 4666 
z
" transform="scale(0.015625)"/>
       <path id="DejaVuSans-76" d="M 191 3500 
L 800 3500 
L 1894 563 
L 2988 3500 
L 3597 3500 
L 2284 0 
L 1503 0 
L 191 3500 
z
" transform="scale(0.015625)"/>
       <path id="DejaVuSans-56" d="M 1831 0 
L 50 4666 
L 709 4666 
L 2188 738 
L 3669 4666 
L 4325 4666 
L 2547 0 
L 1831 0 
z
" transform="scale(0.015625)"/>
       <path id="DejaVuSans-bd" d="M 488 2431 
L 1125 2431 
L 1125 4341 
L 428 4213 
L 428 4575 
L 1147 4697 
L 1575 4697 
L 1575 2431 
L 2216 2431 
L 2216 2088 
L 488 2088 
L 488 2431 
z
M 4470 332 
L 5795 332 
L 5795 -24 
L 3926 -24 
L 3926 319 
Q 4032 416 4229 591 
Q 5304 1544 5304 1838 
Q 5304 2044 5141 2170 
Q 4979 2297 4713 2297 
Q 4551 2297 4360 2242 
Q 4170 2188 3945 2079 
L 3945 2463 
Q 4185 2551 4393 2594 
Q 4601 2638 4779 2638 
Q 5232 2638 5504 2432 
Q 5776 2226 5776 1888 
Q 5776 1454 4741 566 
Q 4566 416 4470 332 
z
M 4309 4750 
L 4809 4750 
L 1896 -91 
L 1396 -91 
L 4309 4750 
z
" transform="scale(0.015625)"/>
      </defs>
      <use xlink:href="#DejaVuSans-4a"/>
      <use xlink:href="#DejaVuSans-61" transform="translate(29.492188 0)"/>
      <use xlink:href="#DejaVuSans-76" transform="translate(90.771484 0)"/>
      <use xlink:href="#DejaVuSans-61" transform="translate(149.951172 0)"/>
      <use xlink:href="#DejaVuSans-20" transform="translate(211.230469 0)"/>
      <use xlink:href="#DejaVuSans-56" transform="translate(243.017578 0)"/>
      <use xlink:href="#DejaVuSans-65" transform="translate(303.675781 0)"/>
      <use xlink:href="#DejaVuSans-72" transform="translate(365.199219 0)"/>
      <use xlink:href="#DejaVuSans-31" transform="translate(406.3125 0)"/>
      <use xlink:href="#DejaVuSans-bd" transform="translate(469.935547 0)"/>
     </g>
    </g>
    <g id="LineCollection_6">
     <path d="M 66.72 59.656563 
L 66.72 49.656563 
" style="fill: none; stroke: #009933; stroke-width: 1.5"/>
    </g>
    <g id="line2d_28">
     <g>
      <use xlink:href="#m567d63a80a" x="66.72" y="59.656563" style="fill: #009933; stroke: #009933"/>
     </g>
    </g>
    <g id="line2d_29">
     <g>
      <use xlink:href="#m567d63a80a" x="66.72" y="49.656563" style="fill: #009933; stroke: #009933"/>
     </g>
    </g>
    <g id="line2d_30">
     <path d="M 56.72 54.656563 
L 76.72 54.656563 
" style="fill: none; stroke: #009933; stroke-width: 1.5; stroke-linecap: square"/>
    </g>
    <g id="line2d_31"/>
    <g id="text_16">
     <!-- Java Ver2½ -->
     <g transform="translate(84.72 58.156563) scale(0.1 -0.1)">
      <use xlink:href="#DejaVuSans-4a"/>
      <use xlink:href="#DejaVuSans-61" transform="translate(29.492188 0)"/>
      <use xlink:href="#DejaVuSans-76" transform="translate(90.771484 0)"/>
      <use xlink:href="#DejaVuSans-61" transform="translate(149.951172 0)"/>
      <use xlink:href="#DejaVuSans-20" transform="translate(211.230469 0)"/>
      <use xlink:href="#DejaVuSans-56" transform="translate(243.017578 0)"/>
      <use xlink:href="#DejaVuSans-65" transform="translate(303.675781 0)"/>
      <use xlink:href="#DejaVuSans-72" transform="translate(365.199219 0)"/>
      <use xlink:href="#DejaVuSans-32" transform="translate(406.3125 0)"/>
      <use xlink:href="#DejaVuSans-bd" transform="translate(469.935547 0)"/>
     </g>
    </g>
    <g id="LineCollection_7">
     <path d="M 66.72 74.334687 
L 66.72 64.334687 
" style="fill: none; stroke: #cc0033; stroke-width: 1.5"/>
    </g>
    <g id="line2d_32">
     <g>
      <use xlink:href="#md3fe7ae338" x="66.72" y="74.334687" style="fill: #cc0033; stroke: #cc0033"/>
     </g>
    </g>
    <g id="line2d_33">
     <g>
      <use xlink:href="#md3fe7ae338" x="66.72" y="64.334687" style="fill: #cc0033; stroke: #cc0033"/>
     </g>
    </g>
    <g id="line2d_34">
     <path d="M 56.72 69.334687 
L 76.72 69.334687 
" style="fill: none; stroke-dasharray: 1.5,2.475; stroke-dashoffset: 0; stroke: #cc0033; stroke-width: 1.5"/>
    </g>
    <g id="line2d_35"/>
    <g id="text_17">
     <!-- Rust Ver1½ -->
     <g transform="translate(84.72 72.834687) scale(0.1 -0.1)">
      <defs>
       <path id="DejaVuSans-52" d="M 2841 2188 
Q 3044 2119 3236 1894 
Q 3428 1669 3622 1275 
L 4263 0 
L 3584 0 
L 2988 1197 
Q 2756 1666 2539 1819 
Q 2322 1972 1947 1972 
L 1259 1972 
L 1259 0 
L 628 0 
L 628 4666 
L 2053 4666 
Q 2853 4666 3247 4331 
Q 3641 3997 3641 3322 
Q 3641 2881 3436 2590 
Q 3231 2300 2841 2188 
z
M 1259 4147 
L 1259 2491 
L 2053 2491 
Q 2509 2491 2742 2702 
Q 2975 2913 2975 3322 
Q 2975 3731 2742 3939 
Q 2509 4147 2053 4147 
L 1259 4147 
z
" transform="scale(0.015625)"/>
       <path id="DejaVuSans-75" d="M 544 1381 
L 544 3500 
L 1119 3500 
L 1119 1403 
Q 1119 906 1312 657 
Q 1506 409 1894 409 
Q 2359 409 2629 706 
Q 2900 1003 2900 1516 
L 2900 3500 
L 3475 3500 
L 3475 0 
L 2900 0 
L 2900 538 
Q 2691 219 2414 64 
Q 2138 -91 1772 -91 
Q 1169 -91 856 284 
Q 544 659 544 1381 
z
M 1991 3584 
L 1991 3584 
z
" transform="scale(0.015625)"/>
      </defs>
      <use xlink:href="#DejaVuSans-52"/>
      <use xlink:href="#DejaVuSans-75" transform="translate(64.982422 0)"/>
      <use xlink:href="#DejaVuSans-73" transform="translate(128.361328 0)"/>
      <use xlink:href="#DejaVuSans-74" transform="translate(180.460938 0)"/>
      <use xlink:href="#DejaVuSans-20" transform="translate(219.669922 0)"/>
      <use xlink:href="#DejaVuSans-56" transform="translate(251.457031 0)"/>
      <use xlink:href="#DejaVuSans-65" transform="translate(312.115234 0)"/>
      <use xlink:href="#DejaVuSans-72" transform="translate(373.638672 0)"/>
      <use xlink:href="#DejaVuSans-31" transform="translate(414.751953 0)"/>
      <use xlink:href="#DejaVuSans-bd" transform="translate(478.375 0)"/>
     </g>
    </g>
    <g id="LineCollection_8">
     <path d="M 66.72 89.012812 
L 66.72 79.012812 
" style="fill: none; stroke: #cc0033; stroke-width: 1.5"/>
    </g>
    <g id="line2d_36">
     <g>
      <use xlink:href="#md3fe7ae338" x="66.72" y="89.012812" style="fill: #cc0033; stroke: #cc0033"/>
     </g>
    </g>
    <g id="line2d_37">
     <g>
      <use xlink:href="#md3fe7ae338" x="66.72" y="79.012812" style="fill: #cc0033; stroke: #cc0033"/>
     </g>
    </g>
    <g id="line2d_38">
     <path d="M 56.72 84.012812 
L 76.72 84.012812 
" style="fill: none; stroke: #cc0033; stroke-width: 1.5; stroke-linecap: square"/>
    </g>
    <g id="line2d_39"/>
    <g id="text_18">
     <!-- Rust Ver2½ -->
     <g transform="translate(84.72 87.512812) scale(0.1 -0.1)">
      <use xlink:href="#DejaVuSans-52"/>
      <use xlink:href="#DejaVuSans-75" transform="translate(64.982422 0)"/>
      <use xlink:href="#DejaVuSans-73" transform="translate(128.361328 0)"/>
      <use xlink:href="#DejaVuSans-74" transform="translate(180.460938 0)"/>
      <use xlink:href="#DejaVuSans-20" transform="translate(219.669922 0)"/>
      <use xlink:href="#DejaVuSans-56" transform="translate(251.457031 0)"/>
      <use xlink:href="#DejaVuSans-65" transform="translate(312.115234 0)"/>
      <use xlink:href="#DejaVuSans-72" transform="translate(373.638672 0)"/>
      <use xlink:href="#DejaVuSans-32" transform="translate(414.751953 0)"/>
      <use xlink:href="#DejaVuSans-bd" transform="translate(478.375 0)"/>
     </g>
    </g>
   </g>
  </g>
 </g>
 <defs>
  <clipPath id="pd2621ff3a7">
   <rect x="47.72" y="26.88" width="517.48" height="363.16"/>
  </clipPath>
 </defs>
</svg>
