<?xml version="1.0" encoding="utf-8" standalone="no"?>
<!DOCTYPE svg PUBLIC "-//W3C//DTD SVG 1.1//EN"
  "http://www.w3.org/Graphics/SVG/1.1/DTD/svg11.dtd">
<svg xmlns:xlink="http://www.w3.org/1999/xlink" width="576pt" height="432pt" viewBox="0 0 576 432" xmlns="http://www.w3.org/2000/svg" version="1.1">
 <metadata>
  <rdf:RDF xmlns:dc="http://purl.org/dc/elements/1.1/" xmlns:cc="http://creativecommons.org/ns#" xmlns:rdf="http://www.w3.org/1999/02/22-rdf-syntax-ns#">
   <cc:Work>
    <dc:type rdf:resource="http://purl.org/dc/dcmitype/StillImage"/>
    <dc:date>2021-12-04T16:11:19.902009</dc:date>
    <dc:format>image/svg+xml</dc:format>
    <dc:creator>
     <cc:Agent>
      <dc:title>Matplotlib v3.5.0, https://matplotlib.org/</dc:title>
     </cc:Agent>
    </dc:creator>
   </cc:Work>
  </rdf:RDF>
 </metadata>
 <defs>
  <style type="text/css">*{stroke-linejoin: round; stroke-linecap: butt}</style>
 </defs>
 <g id="figure_1">
  <g id="patch_1">
   <path d="M 0 432 
L 576 432 
L 576 0 
L 0 0 
z
" style="fill: #ffffff"/>
  </g>
  <g id="axes_1">
   <g id="patch_2">
    <path d="M 54.02 390.04 
L 565.2 390.04 
L 565.2 26.88 
L 54.02 26.88 
z
" style="fill: #ffffff"/>
   </g>
   <g id="matplotlib.axis_1">
    <g id="xtick_1">
     <g id="line2d_1">
      <defs>
       <path id="mc74f61fcfc" d="M 0 0 
L 0 3.5 
" style="stroke: #000000; stroke-width: 0.8"/>
      </defs>
      <g>
       <use xlink:href="#mc74f61fcfc" x="77.255455" y="390.04" style="stroke: #000000; stroke-width: 0.8"/>
      </g>
     </g>
     <g id="text_1">
      <!-- 2000 -->
      <g transform="translate(64.530455 404.638438)scale(0.1 -0.1)">
       <defs>
        <path id="DejaVuSans-32" d="M 1228 531 
L 3431 531 
L 3431 0 
L 469 0 
L 469 531 
Q 828 903 1448 1529 
Q 2069 2156 2228 2338 
Q 2531 2678 2651 2914 
Q 2772 3150 2772 3378 
Q 2772 3750 2511 3984 
Q 2250 4219 1831 4219 
Q 1534 4219 1204 4116 
Q 875 4013 500 3803 
L 500 4441 
Q 881 4594 1212 4672 
Q 1544 4750 1819 4750 
Q 2544 4750 2975 4387 
Q 3406 4025 3406 3419 
Q 3406 3131 3298 2873 
Q 3191 2616 2906 2266 
Q 2828 2175 2409 1742 
Q 1991 1309 1228 531 
z
" transform="scale(0.015625)"/>
        <path id="DejaVuSans-30" d="M 2034 4250 
Q 1547 4250 1301 3770 
Q 1056 3291 1056 2328 
Q 1056 1369 1301 889 
Q 1547 409 2034 409 
Q 2525 409 2770 889 
Q 3016 1369 3016 2328 
Q 3016 3291 2770 3770 
Q 2525 4250 2034 4250 
z
M 2034 4750 
Q 2819 4750 3233 4129 
Q 3647 3509 3647 2328 
Q 3647 1150 3233 529 
Q 2819 -91 2034 -91 
Q 1250 -91 836 529 
Q 422 1150 422 2328 
Q 422 3509 836 4129 
Q 1250 4750 2034 4750 
z
" transform="scale(0.015625)"/>
       </defs>
       <use xlink:href="#DejaVuSans-32"/>
       <use xlink:href="#DejaVuSans-30" x="63.623047"/>
       <use xlink:href="#DejaVuSans-30" x="127.246094"/>
       <use xlink:href="#DejaVuSans-30" x="190.869141"/>
      </g>
     </g>
    </g>
    <g id="xtick_2">
     <g id="line2d_2">
      <g>
       <use xlink:href="#mc74f61fcfc" x="170.197273" y="390.04" style="stroke: #000000; stroke-width: 0.8"/>
      </g>
     </g>
     <g id="text_2">
      <!-- 2200 -->
      <g transform="translate(157.472273 404.638438)scale(0.1 -0.1)">
       <use xlink:href="#DejaVuSans-32"/>
       <use xlink:href="#DejaVuSans-32" x="63.623047"/>
       <use xlink:href="#DejaVuSans-30" x="127.246094"/>
       <use xlink:href="#DejaVuSans-30" x="190.869141"/>
      </g>
     </g>
    </g>
    <g id="xtick_3">
     <g id="line2d_3">
      <g>
       <use xlink:href="#mc74f61fcfc" x="263.139091" y="390.04" style="stroke: #000000; stroke-width: 0.8"/>
      </g>
     </g>
     <g id="text_3">
      <!-- 2400 -->
      <g transform="translate(250.414091 404.638438)scale(0.1 -0.1)">
       <defs>
        <path id="DejaVuSans-34" d="M 2419 4116 
L 825 1625 
L 2419 1625 
L 2419 4116 
z
M 2253 4666 
L 3047 4666 
L 3047 1625 
L 3713 1625 
L 3713 1100 
L 3047 1100 
L 3047 0 
L 2419 0 
L 2419 1100 
L 313 1100 
L 313 1709 
L 2253 4666 
z
" transform="scale(0.015625)"/>
       </defs>
       <use xlink:href="#DejaVuSans-32"/>
       <use xlink:href="#DejaVuSans-34" x="63.623047"/>
       <use xlink:href="#DejaVuSans-30" x="127.246094"/>
       <use xlink:href="#DejaVuSans-30" x="190.869141"/>
      </g>
     </g>
    </g>
    <g id="xtick_4">
     <g id="line2d_4">
      <g>
       <use xlink:href="#mc74f61fcfc" x="356.080909" y="390.04" style="stroke: #000000; stroke-width: 0.8"/>
      </g>
     </g>
     <g id="text_4">
      <!-- 2600 -->
      <g transform="translate(343.355909 404.638438)scale(0.1 -0.1)">
       <defs>
        <path id="DejaVuSans-36" d="M 2113 2584 
Q 1688 2584 1439 2293 
Q 1191 2003 1191 1497 
Q 1191 994 1439 701 
Q 1688 409 2113 409 
Q 2538 409 2786 701 
Q 3034 994 3034 1497 
Q 3034 2003 2786 2293 
Q 2538 2584 2113 2584 
z
M 3366 4563 
L 3366 3988 
Q 3128 4100 2886 4159 
Q 2644 4219 2406 4219 
Q 1781 4219 1451 3797 
Q 1122 3375 1075 2522 
Q 1259 2794 1537 2939 
Q 1816 3084 2150 3084 
Q 2853 3084 3261 2657 
Q 3669 2231 3669 1497 
Q 3669 778 3244 343 
Q 2819 -91 2113 -91 
Q 1303 -91 875 529 
Q 447 1150 447 2328 
Q 447 3434 972 4092 
Q 1497 4750 2381 4750 
Q 2619 4750 2861 4703 
Q 3103 4656 3366 4563 
z
" transform="scale(0.015625)"/>
       </defs>
       <use xlink:href="#DejaVuSans-32"/>
       <use xlink:href="#DejaVuSans-36" x="63.623047"/>
       <use xlink:href="#DejaVuSans-30" x="127.246094"/>
       <use xlink:href="#DejaVuSans-30" x="190.869141"/>
      </g>
     </g>
    </g>
    <g id="xtick_5">
     <g id="line2d_5">
      <g>
       <use xlink:href="#mc74f61fcfc" x="449.022727" y="390.04" style="stroke: #000000; stroke-width: 0.8"/>
      </g>
     </g>
     <g id="text_5">
      <!-- 2800 -->
      <g transform="translate(436.297727 404.638438)scale(0.1 -0.1)">
       <defs>
        <path id="DejaVuSans-38" d="M 2034 2216 
Q 1584 2216 1326 1975 
Q 1069 1734 1069 1313 
Q 1069 891 1326 650 
Q 1584 409 2034 409 
Q 2484 409 2743 651 
Q 3003 894 3003 1313 
Q 3003 1734 2745 1975 
Q 2488 2216 2034 2216 
z
M 1403 2484 
Q 997 2584 770 2862 
Q 544 3141 544 3541 
Q 544 4100 942 4425 
Q 1341 4750 2034 4750 
Q 2731 4750 3128 4425 
Q 3525 4100 3525 3541 
Q 3525 3141 3298 2862 
Q 3072 2584 2669 2484 
Q 3125 2378 3379 2068 
Q 3634 1759 3634 1313 
Q 3634 634 3220 271 
Q 2806 -91 2034 -91 
Q 1263 -91 848 271 
Q 434 634 434 1313 
Q 434 1759 690 2068 
Q 947 2378 1403 2484 
z
M 1172 3481 
Q 1172 3119 1398 2916 
Q 1625 2713 2034 2713 
Q 2441 2713 2670 2916 
Q 2900 3119 2900 3481 
Q 2900 3844 2670 4047 
Q 2441 4250 2034 4250 
Q 1625 4250 1398 4047 
Q 1172 3844 1172 3481 
z
" transform="scale(0.015625)"/>
       </defs>
       <use xlink:href="#DejaVuSans-32"/>
       <use xlink:href="#DejaVuSans-38" x="63.623047"/>
       <use xlink:href="#DejaVuSans-30" x="127.246094"/>
       <use xlink:href="#DejaVuSans-30" x="190.869141"/>
      </g>
     </g>
    </g>
    <g id="xtick_6">
     <g id="line2d_6">
      <g>
       <use xlink:href="#mc74f61fcfc" x="541.964545" y="390.04" style="stroke: #000000; stroke-width: 0.8"/>
      </g>
     </g>
     <g id="text_6">
      <!-- 3000 -->
      <g transform="translate(529.239545 404.638438)scale(0.1 -0.1)">
       <defs>
        <path id="DejaVuSans-33" d="M 2597 2516 
Q 3050 2419 3304 2112 
Q 3559 1806 3559 1356 
Q 3559 666 3084 287 
Q 2609 -91 1734 -91 
Q 1441 -91 1130 -33 
Q 819 25 488 141 
L 488 750 
Q 750 597 1062 519 
Q 1375 441 1716 441 
Q 2309 441 2620 675 
Q 2931 909 2931 1356 
Q 2931 1769 2642 2001 
Q 2353 2234 1838 2234 
L 1294 2234 
L 1294 2753 
L 1863 2753 
Q 2328 2753 2575 2939 
Q 2822 3125 2822 3475 
Q 2822 3834 2567 4026 
Q 2313 4219 1838 4219 
Q 1578 4219 1281 4162 
Q 984 4106 628 3988 
L 628 4550 
Q 988 4650 1302 4700 
Q 1616 4750 1894 4750 
Q 2613 4750 3031 4423 
Q 3450 4097 3450 3541 
Q 3450 3153 3228 2886 
Q 3006 2619 2597 2516 
z
" transform="scale(0.015625)"/>
       </defs>
       <use xlink:href="#DejaVuSans-33"/>
       <use xlink:href="#DejaVuSans-30" x="63.623047"/>
       <use xlink:href="#DejaVuSans-30" x="127.246094"/>
       <use xlink:href="#DejaVuSans-30" x="190.869141"/>
      </g>
     </g>
    </g>
    <g id="text_7">
     <!-- Size (#edges) -->
     <g transform="translate(274.559219 418.316562)scale(0.1 -0.1)">
      <defs>
       <path id="DejaVuSans-53" d="M 3425 4513 
L 3425 3897 
Q 3066 4069 2747 4153 
Q 2428 4238 2131 4238 
Q 1616 4238 1336 4038 
Q 1056 3838 1056 3469 
Q 1056 3159 1242 3001 
Q 1428 2844 1947 2747 
L 2328 2669 
Q 3034 2534 3370 2195 
Q 3706 1856 3706 1288 
Q 3706 609 3251 259 
Q 2797 -91 1919 -91 
Q 1588 -91 1214 -16 
Q 841 59 441 206 
L 441 856 
Q 825 641 1194 531 
Q 1563 422 1919 422 
Q 2459 422 2753 634 
Q 3047 847 3047 1241 
Q 3047 1584 2836 1778 
Q 2625 1972 2144 2069 
L 1759 2144 
Q 1053 2284 737 2584 
Q 422 2884 422 3419 
Q 422 4038 858 4394 
Q 1294 4750 2059 4750 
Q 2388 4750 2728 4690 
Q 3069 4631 3425 4513 
z
" transform="scale(0.015625)"/>
       <path id="DejaVuSans-69" d="M 603 3500 
L 1178 3500 
L 1178 0 
L 603 0 
L 603 3500 
z
M 603 4863 
L 1178 4863 
L 1178 4134 
L 603 4134 
L 603 4863 
z
" transform="scale(0.015625)"/>
       <path id="DejaVuSans-7a" d="M 353 3500 
L 3084 3500 
L 3084 2975 
L 922 459 
L 3084 459 
L 3084 0 
L 275 0 
L 275 525 
L 2438 3041 
L 353 3041 
L 353 3500 
z
" transform="scale(0.015625)"/>
       <path id="DejaVuSans-65" d="M 3597 1894 
L 3597 1613 
L 953 1613 
Q 991 1019 1311 708 
Q 1631 397 2203 397 
Q 2534 397 2845 478 
Q 3156 559 3463 722 
L 3463 178 
Q 3153 47 2828 -22 
Q 2503 -91 2169 -91 
Q 1331 -91 842 396 
Q 353 884 353 1716 
Q 353 2575 817 3079 
Q 1281 3584 2069 3584 
Q 2775 3584 3186 3129 
Q 3597 2675 3597 1894 
z
M 3022 2063 
Q 3016 2534 2758 2815 
Q 2500 3097 2075 3097 
Q 1594 3097 1305 2825 
Q 1016 2553 972 2059 
L 3022 2063 
z
" transform="scale(0.015625)"/>
       <path id="DejaVuSans-20" transform="scale(0.015625)"/>
       <path id="DejaVuSans-28" d="M 1984 4856 
Q 1566 4138 1362 3434 
Q 1159 2731 1159 2009 
Q 1159 1288 1364 580 
Q 1569 -128 1984 -844 
L 1484 -844 
Q 1016 -109 783 600 
Q 550 1309 550 2009 
Q 550 2706 781 3412 
Q 1013 4119 1484 4856 
L 1984 4856 
z
" transform="scale(0.015625)"/>
       <path id="DejaVuSans-23" d="M 3272 2816 
L 2363 2816 
L 2100 1772 
L 3016 1772 
L 3272 2816 
z
M 2803 4594 
L 2478 3297 
L 3391 3297 
L 3719 4594 
L 4219 4594 
L 3897 3297 
L 4872 3297 
L 4872 2816 
L 3775 2816 
L 3519 1772 
L 4513 1772 
L 4513 1294 
L 3397 1294 
L 3072 0 
L 2572 0 
L 2894 1294 
L 1978 1294 
L 1656 0 
L 1153 0 
L 1478 1294 
L 494 1294 
L 494 1772 
L 1594 1772 
L 1856 2816 
L 850 2816 
L 850 3297 
L 1978 3297 
L 2297 4594 
L 2803 4594 
z
" transform="scale(0.015625)"/>
       <path id="DejaVuSans-64" d="M 2906 2969 
L 2906 4863 
L 3481 4863 
L 3481 0 
L 2906 0 
L 2906 525 
Q 2725 213 2448 61 
Q 2172 -91 1784 -91 
Q 1150 -91 751 415 
Q 353 922 353 1747 
Q 353 2572 751 3078 
Q 1150 3584 1784 3584 
Q 2172 3584 2448 3432 
Q 2725 3281 2906 2969 
z
M 947 1747 
Q 947 1113 1208 752 
Q 1469 391 1925 391 
Q 2381 391 2643 752 
Q 2906 1113 2906 1747 
Q 2906 2381 2643 2742 
Q 2381 3103 1925 3103 
Q 1469 3103 1208 2742 
Q 947 2381 947 1747 
z
" transform="scale(0.015625)"/>
       <path id="DejaVuSans-67" d="M 2906 1791 
Q 2906 2416 2648 2759 
Q 2391 3103 1925 3103 
Q 1463 3103 1205 2759 
Q 947 2416 947 1791 
Q 947 1169 1205 825 
Q 1463 481 1925 481 
Q 2391 481 2648 825 
Q 2906 1169 2906 1791 
z
M 3481 434 
Q 3481 -459 3084 -895 
Q 2688 -1331 1869 -1331 
Q 1566 -1331 1297 -1286 
Q 1028 -1241 775 -1147 
L 775 -588 
Q 1028 -725 1275 -790 
Q 1522 -856 1778 -856 
Q 2344 -856 2625 -561 
Q 2906 -266 2906 331 
L 2906 616 
Q 2728 306 2450 153 
Q 2172 0 1784 0 
Q 1141 0 747 490 
Q 353 981 353 1791 
Q 353 2603 747 3093 
Q 1141 3584 1784 3584 
Q 2172 3584 2450 3431 
Q 2728 3278 2906 2969 
L 2906 3500 
L 3481 3500 
L 3481 434 
z
" transform="scale(0.015625)"/>
       <path id="DejaVuSans-73" d="M 2834 3397 
L 2834 2853 
Q 2591 2978 2328 3040 
Q 2066 3103 1784 3103 
Q 1356 3103 1142 2972 
Q 928 2841 928 2578 
Q 928 2378 1081 2264 
Q 1234 2150 1697 2047 
L 1894 2003 
Q 2506 1872 2764 1633 
Q 3022 1394 3022 966 
Q 3022 478 2636 193 
Q 2250 -91 1575 -91 
Q 1294 -91 989 -36 
Q 684 19 347 128 
L 347 722 
Q 666 556 975 473 
Q 1284 391 1588 391 
Q 1994 391 2212 530 
Q 2431 669 2431 922 
Q 2431 1156 2273 1281 
Q 2116 1406 1581 1522 
L 1381 1569 
Q 847 1681 609 1914 
Q 372 2147 372 2553 
Q 372 3047 722 3315 
Q 1072 3584 1716 3584 
Q 2034 3584 2315 3537 
Q 2597 3491 2834 3397 
z
" transform="scale(0.015625)"/>
       <path id="DejaVuSans-29" d="M 513 4856 
L 1013 4856 
Q 1481 4119 1714 3412 
Q 1947 2706 1947 2009 
Q 1947 1309 1714 600 
Q 1481 -109 1013 -844 
L 513 -844 
Q 928 -128 1133 580 
Q 1338 1288 1338 2009 
Q 1338 2731 1133 3434 
Q 928 4138 513 4856 
z
" transform="scale(0.015625)"/>
      </defs>
      <use xlink:href="#DejaVuSans-53"/>
      <use xlink:href="#DejaVuSans-69" x="63.476562"/>
      <use xlink:href="#DejaVuSans-7a" x="91.259766"/>
      <use xlink:href="#DejaVuSans-65" x="143.75"/>
      <use xlink:href="#DejaVuSans-20" x="205.273438"/>
      <use xlink:href="#DejaVuSans-28" x="237.060547"/>
      <use xlink:href="#DejaVuSans-23" x="276.074219"/>
      <use xlink:href="#DejaVuSans-65" x="359.863281"/>
      <use xlink:href="#DejaVuSans-64" x="421.386719"/>
      <use xlink:href="#DejaVuSans-67" x="484.863281"/>
      <use xlink:href="#DejaVuSans-65" x="548.339844"/>
      <use xlink:href="#DejaVuSans-73" x="609.863281"/>
      <use xlink:href="#DejaVuSans-29" x="661.962891"/>
     </g>
    </g>
   </g>
   <g id="matplotlib.axis_2">
    <g id="ytick_1">
     <g id="line2d_7">
      <defs>
       <path id="m7eb1c47a8f" d="M 0 0 
L -3.5 0 
" style="stroke: #000000; stroke-width: 0.8"/>
      </defs>
      <g>
       <use xlink:href="#m7eb1c47a8f" x="54.02" y="387.686966" style="stroke: #000000; stroke-width: 0.8"/>
      </g>
     </g>
     <g id="text_8">
      <!-- 0.00 -->
      <g transform="translate(24.754375 391.486185)scale(0.1 -0.1)">
       <defs>
        <path id="DejaVuSans-2e" d="M 684 794 
L 1344 794 
L 1344 0 
L 684 0 
L 684 794 
z
" transform="scale(0.015625)"/>
       </defs>
       <use xlink:href="#DejaVuSans-30"/>
       <use xlink:href="#DejaVuSans-2e" x="63.623047"/>
       <use xlink:href="#DejaVuSans-30" x="95.410156"/>
       <use xlink:href="#DejaVuSans-30" x="159.033203"/>
      </g>
     </g>
    </g>
    <g id="ytick_2">
     <g id="line2d_8">
      <g>
       <use xlink:href="#m7eb1c47a8f" x="54.02" y="325.552466" style="stroke: #000000; stroke-width: 0.8"/>
      </g>
     </g>
     <g id="text_9">
      <!-- 0.02 -->
      <g transform="translate(24.754375 329.351685)scale(0.1 -0.1)">
       <use xlink:href="#DejaVuSans-30"/>
       <use xlink:href="#DejaVuSans-2e" x="63.623047"/>
       <use xlink:href="#DejaVuSans-30" x="95.410156"/>
       <use xlink:href="#DejaVuSans-32" x="159.033203"/>
      </g>
     </g>
    </g>
    <g id="ytick_3">
     <g id="line2d_9">
      <g>
       <use xlink:href="#m7eb1c47a8f" x="54.02" y="263.417966" style="stroke: #000000; stroke-width: 0.8"/>
      </g>
     </g>
     <g id="text_10">
      <!-- 0.04 -->
      <g transform="translate(24.754375 267.217184)scale(0.1 -0.1)">
       <use xlink:href="#DejaVuSans-30"/>
       <use xlink:href="#DejaVuSans-2e" x="63.623047"/>
       <use xlink:href="#DejaVuSans-30" x="95.410156"/>
       <use xlink:href="#DejaVuSans-34" x="159.033203"/>
      </g>
     </g>
    </g>
    <g id="ytick_4">
     <g id="line2d_10">
      <g>
       <use xlink:href="#m7eb1c47a8f" x="54.02" y="201.283465" style="stroke: #000000; stroke-width: 0.8"/>
      </g>
     </g>
     <g id="text_11">
      <!-- 0.06 -->
      <g transform="translate(24.754375 205.082684)scale(0.1 -0.1)">
       <use xlink:href="#DejaVuSans-30"/>
       <use xlink:href="#DejaVuSans-2e" x="63.623047"/>
       <use xlink:href="#DejaVuSans-30" x="95.410156"/>
       <use xlink:href="#DejaVuSans-36" x="159.033203"/>
      </g>
     </g>
    </g>
    <g id="ytick_5">
     <g id="line2d_11">
      <g>
       <use xlink:href="#m7eb1c47a8f" x="54.02" y="139.148965" style="stroke: #000000; stroke-width: 0.8"/>
      </g>
     </g>
     <g id="text_12">
      <!-- 0.08 -->
      <g transform="translate(24.754375 142.948184)scale(0.1 -0.1)">
       <use xlink:href="#DejaVuSans-30"/>
       <use xlink:href="#DejaVuSans-2e" x="63.623047"/>
       <use xlink:href="#DejaVuSans-30" x="95.410156"/>
       <use xlink:href="#DejaVuSans-38" x="159.033203"/>
      </g>
     </g>
    </g>
    <g id="ytick_6">
     <g id="line2d_12">
      <g>
       <use xlink:href="#m7eb1c47a8f" x="54.02" y="77.014464" style="stroke: #000000; stroke-width: 0.8"/>
      </g>
     </g>
     <g id="text_13">
      <!-- 0.10 -->
      <g transform="translate(24.754375 80.813683)scale(0.1 -0.1)">
       <defs>
        <path id="DejaVuSans-31" d="M 794 531 
L 1825 531 
L 1825 4091 
L 703 3866 
L 703 4441 
L 1819 4666 
L 2450 4666 
L 2450 531 
L 3481 531 
L 3481 0 
L 794 0 
L 794 531 
z
" transform="scale(0.015625)"/>
       </defs>
       <use xlink:href="#DejaVuSans-30"/>
       <use xlink:href="#DejaVuSans-2e" x="63.623047"/>
       <use xlink:href="#DejaVuSans-31" x="95.410156"/>
       <use xlink:href="#DejaVuSans-30" x="159.033203"/>
      </g>
     </g>
    </g>
    <g id="text_14">
     <!-- Seconds spent -->
     <g transform="translate(18.674688 245.040469)rotate(-90)scale(0.1 -0.1)">
      <defs>
       <path id="DejaVuSans-63" d="M 3122 3366 
L 3122 2828 
Q 2878 2963 2633 3030 
Q 2388 3097 2138 3097 
Q 1578 3097 1268 2742 
Q 959 2388 959 1747 
Q 959 1106 1268 751 
Q 1578 397 2138 397 
Q 2388 397 2633 464 
Q 2878 531 3122 666 
L 3122 134 
Q 2881 22 2623 -34 
Q 2366 -91 2075 -91 
Q 1284 -91 818 406 
Q 353 903 353 1747 
Q 353 2603 823 3093 
Q 1294 3584 2113 3584 
Q 2378 3584 2631 3529 
Q 2884 3475 3122 3366 
z
" transform="scale(0.015625)"/>
       <path id="DejaVuSans-6f" d="M 1959 3097 
Q 1497 3097 1228 2736 
Q 959 2375 959 1747 
Q 959 1119 1226 758 
Q 1494 397 1959 397 
Q 2419 397 2687 759 
Q 2956 1122 2956 1747 
Q 2956 2369 2687 2733 
Q 2419 3097 1959 3097 
z
M 1959 3584 
Q 2709 3584 3137 3096 
Q 3566 2609 3566 1747 
Q 3566 888 3137 398 
Q 2709 -91 1959 -91 
Q 1206 -91 779 398 
Q 353 888 353 1747 
Q 353 2609 779 3096 
Q 1206 3584 1959 3584 
z
" transform="scale(0.015625)"/>
       <path id="DejaVuSans-6e" d="M 3513 2113 
L 3513 0 
L 2938 0 
L 2938 2094 
Q 2938 2591 2744 2837 
Q 2550 3084 2163 3084 
Q 1697 3084 1428 2787 
Q 1159 2491 1159 1978 
L 1159 0 
L 581 0 
L 581 3500 
L 1159 3500 
L 1159 2956 
Q 1366 3272 1645 3428 
Q 1925 3584 2291 3584 
Q 2894 3584 3203 3211 
Q 3513 2838 3513 2113 
z
" transform="scale(0.015625)"/>
       <path id="DejaVuSans-70" d="M 1159 525 
L 1159 -1331 
L 581 -1331 
L 581 3500 
L 1159 3500 
L 1159 2969 
Q 1341 3281 1617 3432 
Q 1894 3584 2278 3584 
Q 2916 3584 3314 3078 
Q 3713 2572 3713 1747 
Q 3713 922 3314 415 
Q 2916 -91 2278 -91 
Q 1894 -91 1617 61 
Q 1341 213 1159 525 
z
M 3116 1747 
Q 3116 2381 2855 2742 
Q 2594 3103 2138 3103 
Q 1681 3103 1420 2742 
Q 1159 2381 1159 1747 
Q 1159 1113 1420 752 
Q 1681 391 2138 391 
Q 2594 391 2855 752 
Q 3116 1113 3116 1747 
z
" transform="scale(0.015625)"/>
       <path id="DejaVuSans-74" d="M 1172 4494 
L 1172 3500 
L 2356 3500 
L 2356 3053 
L 1172 3053 
L 1172 1153 
Q 1172 725 1289 603 
Q 1406 481 1766 481 
L 2356 481 
L 2356 0 
L 1766 0 
Q 1100 0 847 248 
Q 594 497 594 1153 
L 594 3053 
L 172 3053 
L 172 3500 
L 594 3500 
L 594 4494 
L 1172 4494 
z
" transform="scale(0.015625)"/>
      </defs>
      <use xlink:href="#DejaVuSans-53"/>
      <use xlink:href="#DejaVuSans-65" x="63.476562"/>
      <use xlink:href="#DejaVuSans-63" x="125"/>
      <use xlink:href="#DejaVuSans-6f" x="179.980469"/>
      <use xlink:href="#DejaVuSans-6e" x="241.162109"/>
      <use xlink:href="#DejaVuSans-64" x="304.541016"/>
      <use xlink:href="#DejaVuSans-73" x="368.017578"/>
      <use xlink:href="#DejaVuSans-20" x="420.117188"/>
      <use xlink:href="#DejaVuSans-73" x="451.904297"/>
      <use xlink:href="#DejaVuSans-70" x="504.003906"/>
      <use xlink:href="#DejaVuSans-65" x="567.480469"/>
      <use xlink:href="#DejaVuSans-6e" x="629.003906"/>
      <use xlink:href="#DejaVuSans-74" x="692.382812"/>
     </g>
    </g>
   </g>
   <g id="LineCollection_1">
    <path d="M 77.255455 373.532727 
L 77.255455 371.289672 
" clip-path="url(#pa6ebc073c4)" style="fill: none; stroke: #009933; stroke-width: 1.5"/>
    <path d="M 100.490909 371.780534 
L 100.490909 368.87264 
" clip-path="url(#pa6ebc073c4)" style="fill: none; stroke: #009933; stroke-width: 1.5"/>
    <path d="M 123.726364 369.748736 
L 123.726364 365.31544 
" clip-path="url(#pa6ebc073c4)" style="fill: none; stroke: #009933; stroke-width: 1.5"/>
    <path d="M 146.961818 367.62995 
L 146.961818 365.542231 
" clip-path="url(#pa6ebc073c4)" style="fill: none; stroke: #009933; stroke-width: 1.5"/>
    <path d="M 170.197273 365.762808 
L 170.197273 359.636346 
" clip-path="url(#pa6ebc073c4)" style="fill: none; stroke: #009933; stroke-width: 1.5"/>
    <path d="M 193.432727 362.236675 
L 193.432727 356.921069 
" clip-path="url(#pa6ebc073c4)" style="fill: none; stroke: #009933; stroke-width: 1.5"/>
    <path d="M 216.668182 359.142377 
L 216.668182 352.841939 
" clip-path="url(#pa6ebc073c4)" style="fill: none; stroke: #009933; stroke-width: 1.5"/>
    <path d="M 239.903636 354.121909 
L 239.903636 346.401698 
" clip-path="url(#pa6ebc073c4)" style="fill: none; stroke: #009933; stroke-width: 1.5"/>
    <path d="M 263.139091 350.120448 
L 263.139091 344.348152 
" clip-path="url(#pa6ebc073c4)" style="fill: none; stroke: #009933; stroke-width: 1.5"/>
    <path d="M 286.374545 342.521398 
L 286.374545 334.62721 
" clip-path="url(#pa6ebc073c4)" style="fill: none; stroke: #009933; stroke-width: 1.5"/>
    <path d="M 309.61 330.896033 
L 309.61 329.320923 
" clip-path="url(#pa6ebc073c4)" style="fill: none; stroke: #009933; stroke-width: 1.5"/>
    <path d="M 332.845455 327.053014 
L 332.845455 322.924177 
" clip-path="url(#pa6ebc073c4)" style="fill: none; stroke: #009933; stroke-width: 1.5"/>
    <path d="M 356.080909 316.639272 
L 356.080909 306.517562 
" clip-path="url(#pa6ebc073c4)" style="fill: none; stroke: #009933; stroke-width: 1.5"/>
    <path d="M 379.316364 307.623556 
L 379.316364 292.235947 
" clip-path="url(#pa6ebc073c4)" style="fill: none; stroke: #009933; stroke-width: 1.5"/>
    <path d="M 402.551818 292.416137 
L 402.551818 280.33719 
" clip-path="url(#pa6ebc073c4)" style="fill: none; stroke: #009933; stroke-width: 1.5"/>
    <path d="M 425.787273 266.450129 
L 425.787273 253.268295 
" clip-path="url(#pa6ebc073c4)" style="fill: none; stroke: #009933; stroke-width: 1.5"/>
    <path d="M 449.022727 248.654808 
L 449.022727 233.531271 
" clip-path="url(#pa6ebc073c4)" style="fill: none; stroke: #009933; stroke-width: 1.5"/>
    <path d="M 472.258182 205.97462 
L 472.258182 195.88087 
" clip-path="url(#pa6ebc073c4)" style="fill: none; stroke: #009933; stroke-width: 1.5"/>
    <path d="M 495.493636 170.45854 
L 495.493636 147.186062 
" clip-path="url(#pa6ebc073c4)" style="fill: none; stroke: #009933; stroke-width: 1.5"/>
    <path d="M 518.729091 120.300464 
L 518.729091 94.120092 
" clip-path="url(#pa6ebc073c4)" style="fill: none; stroke: #009933; stroke-width: 1.5"/>
    <path d="M 541.964545 74.333361 
L 541.964545 43.387273 
" clip-path="url(#pa6ebc073c4)" style="fill: none; stroke: #009933; stroke-width: 1.5"/>
   </g>
   <g id="line2d_13">
    <defs>
     <path id="m567d63a80a" d="M 3 0 
L -3 -0 
" style="stroke: #009933"/>
    </defs>
    <g clip-path="url(#pa6ebc073c4)">
     <use xlink:href="#m567d63a80a" x="77.255455" y="373.532727" style="fill: #009933; stroke: #009933"/>
     <use xlink:href="#m567d63a80a" x="100.490909" y="371.780534" style="fill: #009933; stroke: #009933"/>
     <use xlink:href="#m567d63a80a" x="123.726364" y="369.748736" style="fill: #009933; stroke: #009933"/>
     <use xlink:href="#m567d63a80a" x="146.961818" y="367.62995" style="fill: #009933; stroke: #009933"/>
     <use xlink:href="#m567d63a80a" x="170.197273" y="365.762808" style="fill: #009933; stroke: #009933"/>
     <use xlink:href="#m567d63a80a" x="193.432727" y="362.236675" style="fill: #009933; stroke: #009933"/>
     <use xlink:href="#m567d63a80a" x="216.668182" y="359.142377" style="fill: #009933; stroke: #009933"/>
     <use xlink:href="#m567d63a80a" x="239.903636" y="354.121909" style="fill: #009933; stroke: #009933"/>
     <use xlink:href="#m567d63a80a" x="263.139091" y="350.120448" style="fill: #009933; stroke: #009933"/>
     <use xlink:href="#m567d63a80a" x="286.374545" y="342.521398" style="fill: #009933; stroke: #009933"/>
     <use xlink:href="#m567d63a80a" x="309.61" y="330.896033" style="fill: #009933; stroke: #009933"/>
     <use xlink:href="#m567d63a80a" x="332.845455" y="327.053014" style="fill: #009933; stroke: #009933"/>
     <use xlink:href="#m567d63a80a" x="356.080909" y="316.639272" style="fill: #009933; stroke: #009933"/>
     <use xlink:href="#m567d63a80a" x="379.316364" y="307.623556" style="fill: #009933; stroke: #009933"/>
     <use xlink:href="#m567d63a80a" x="402.551818" y="292.416137" style="fill: #009933; stroke: #009933"/>
     <use xlink:href="#m567d63a80a" x="425.787273" y="266.450129" style="fill: #009933; stroke: #009933"/>
     <use xlink:href="#m567d63a80a" x="449.022727" y="248.654808" style="fill: #009933; stroke: #009933"/>
     <use xlink:href="#m567d63a80a" x="472.258182" y="205.97462" style="fill: #009933; stroke: #009933"/>
     <use xlink:href="#m567d63a80a" x="495.493636" y="170.45854" style="fill: #009933; stroke: #009933"/>
     <use xlink:href="#m567d63a80a" x="518.729091" y="120.300464" style="fill: #009933; stroke: #009933"/>
     <use xlink:href="#m567d63a80a" x="541.964545" y="74.333361" style="fill: #009933; stroke: #009933"/>
    </g>
   </g>
   <g id="line2d_14">
    <g clip-path="url(#pa6ebc073c4)">
     <use xlink:href="#m567d63a80a" x="77.255455" y="371.289672" style="fill: #009933; stroke: #009933"/>
     <use xlink:href="#m567d63a80a" x="100.490909" y="368.87264" style="fill: #009933; stroke: #009933"/>
     <use xlink:href="#m567d63a80a" x="123.726364" y="365.31544" style="fill: #009933; stroke: #009933"/>
     <use xlink:href="#m567d63a80a" x="146.961818" y="365.542231" style="fill: #009933; stroke: #009933"/>
     <use xlink:href="#m567d63a80a" x="170.197273" y="359.636346" style="fill: #009933; stroke: #009933"/>
     <use xlink:href="#m567d63a80a" x="193.432727" y="356.921069" style="fill: #009933; stroke: #009933"/>
     <use xlink:href="#m567d63a80a" x="216.668182" y="352.841939" style="fill: #009933; stroke: #009933"/>
     <use xlink:href="#m567d63a80a" x="239.903636" y="346.401698" style="fill: #009933; stroke: #009933"/>
     <use xlink:href="#m567d63a80a" x="263.139091" y="344.348152" style="fill: #009933; stroke: #009933"/>
     <use xlink:href="#m567d63a80a" x="286.374545" y="334.62721" style="fill: #009933; stroke: #009933"/>
     <use xlink:href="#m567d63a80a" x="309.61" y="329.320923" style="fill: #009933; stroke: #009933"/>
     <use xlink:href="#m567d63a80a" x="332.845455" y="322.924177" style="fill: #009933; stroke: #009933"/>
     <use xlink:href="#m567d63a80a" x="356.080909" y="306.517562" style="fill: #009933; stroke: #009933"/>
     <use xlink:href="#m567d63a80a" x="379.316364" y="292.235947" style="fill: #009933; stroke: #009933"/>
     <use xlink:href="#m567d63a80a" x="402.551818" y="280.33719" style="fill: #009933; stroke: #009933"/>
     <use xlink:href="#m567d63a80a" x="425.787273" y="253.268295" style="fill: #009933; stroke: #009933"/>
     <use xlink:href="#m567d63a80a" x="449.022727" y="233.531271" style="fill: #009933; stroke: #009933"/>
     <use xlink:href="#m567d63a80a" x="472.258182" y="195.88087" style="fill: #009933; stroke: #009933"/>
     <use xlink:href="#m567d63a80a" x="495.493636" y="147.186062" style="fill: #009933; stroke: #009933"/>
     <use xlink:href="#m567d63a80a" x="518.729091" y="94.120092" style="fill: #009933; stroke: #009933"/>
     <use xlink:href="#m567d63a80a" x="541.964545" y="43.387273" style="fill: #009933; stroke: #009933"/>
    </g>
   </g>
   <g id="LineCollection_2">
    <path d="M 77.255455 371.277556 
L 77.255455 367.08503 
" clip-path="url(#pa6ebc073c4)" style="fill: none; stroke: #006666; stroke-width: 1.5"/>
    <path d="M 100.490909 369.365366 
L 100.490909 361.285396 
" clip-path="url(#pa6ebc073c4)" style="fill: none; stroke: #006666; stroke-width: 1.5"/>
    <path d="M 123.726364 366.829347 
L 123.726364 362.509446 
" clip-path="url(#pa6ebc073c4)" style="fill: none; stroke: #006666; stroke-width: 1.5"/>
    <path d="M 146.961818 364.867761 
L 146.961818 363.598353 
" clip-path="url(#pa6ebc073c4)" style="fill: none; stroke: #006666; stroke-width: 1.5"/>
    <path d="M 170.197273 361.456266 
L 170.197273 360.154237 
" clip-path="url(#pa6ebc073c4)" style="fill: none; stroke: #006666; stroke-width: 1.5"/>
    <path d="M 193.432727 357.713905 
L 193.432727 341.292067 
" clip-path="url(#pa6ebc073c4)" style="fill: none; stroke: #006666; stroke-width: 1.5"/>
    <path d="M 216.668182 353.913137 
L 216.668182 337.496892 
" clip-path="url(#pa6ebc073c4)" style="fill: none; stroke: #006666; stroke-width: 1.5"/>
    <path d="M 239.903636 349.431687 
L 239.903636 347.734793 
" clip-path="url(#pa6ebc073c4)" style="fill: none; stroke: #006666; stroke-width: 1.5"/>
    <path d="M 263.139091 343.362078 
L 263.139091 332.946161 
" clip-path="url(#pa6ebc073c4)" style="fill: none; stroke: #006666; stroke-width: 1.5"/>
    <path d="M 286.374545 338.454074 
L 286.374545 336.551205 
" clip-path="url(#pa6ebc073c4)" style="fill: none; stroke: #006666; stroke-width: 1.5"/>
    <path d="M 309.61 332.410872 
L 309.61 328.30751 
" clip-path="url(#pa6ebc073c4)" style="fill: none; stroke: #006666; stroke-width: 1.5"/>
    <path d="M 332.845455 322.960836 
L 332.845455 298.366758 
" clip-path="url(#pa6ebc073c4)" style="fill: none; stroke: #006666; stroke-width: 1.5"/>
    <path d="M 356.080909 314.524524 
L 356.080909 282.036258 
" clip-path="url(#pa6ebc073c4)" style="fill: none; stroke: #006666; stroke-width: 1.5"/>
    <path d="M 379.316364 303.373245 
L 379.316364 267.752779 
" clip-path="url(#pa6ebc073c4)" style="fill: none; stroke: #006666; stroke-width: 1.5"/>
    <path d="M 402.551818 285.868093 
L 402.551818 263.975933 
" clip-path="url(#pa6ebc073c4)" style="fill: none; stroke: #006666; stroke-width: 1.5"/>
    <path d="M 425.787273 265.602925 
L 425.787273 208.848341 
" clip-path="url(#pa6ebc073c4)" style="fill: none; stroke: #006666; stroke-width: 1.5"/>
    <path d="M 449.022727 254.277981 
L 449.022727 205.805925 
" clip-path="url(#pa6ebc073c4)" style="fill: none; stroke: #006666; stroke-width: 1.5"/>
    <path d="M 472.258182 234.908793 
L 472.258182 177.309179 
" clip-path="url(#pa6ebc073c4)" style="fill: none; stroke: #006666; stroke-width: 1.5"/>
    <path d="M 495.493636 209.229225 
L 495.493636 200.129938 
" clip-path="url(#pa6ebc073c4)" style="fill: none; stroke: #006666; stroke-width: 1.5"/>
    <path d="M 518.729091 172.785166 
L 518.729091 164.371223 
" clip-path="url(#pa6ebc073c4)" style="fill: none; stroke: #006666; stroke-width: 1.5"/>
    <path d="M 541.964545 133.012562 
L 541.964545 89.967022 
" clip-path="url(#pa6ebc073c4)" style="fill: none; stroke: #006666; stroke-width: 1.5"/>
   </g>
   <g id="line2d_15">
    <defs>
     <path id="m647895b053" d="M 3 0 
L -3 -0 
" style="stroke: #006666"/>
    </defs>
    <g clip-path="url(#pa6ebc073c4)">
     <use xlink:href="#m647895b053" x="77.255455" y="371.277556" style="fill: #006666; stroke: #006666"/>
     <use xlink:href="#m647895b053" x="100.490909" y="369.365366" style="fill: #006666; stroke: #006666"/>
     <use xlink:href="#m647895b053" x="123.726364" y="366.829347" style="fill: #006666; stroke: #006666"/>
     <use xlink:href="#m647895b053" x="146.961818" y="364.867761" style="fill: #006666; stroke: #006666"/>
     <use xlink:href="#m647895b053" x="170.197273" y="361.456266" style="fill: #006666; stroke: #006666"/>
     <use xlink:href="#m647895b053" x="193.432727" y="357.713905" style="fill: #006666; stroke: #006666"/>
     <use xlink:href="#m647895b053" x="216.668182" y="353.913137" style="fill: #006666; stroke: #006666"/>
     <use xlink:href="#m647895b053" x="239.903636" y="349.431687" style="fill: #006666; stroke: #006666"/>
     <use xlink:href="#m647895b053" x="263.139091" y="343.362078" style="fill: #006666; stroke: #006666"/>
     <use xlink:href="#m647895b053" x="286.374545" y="338.454074" style="fill: #006666; stroke: #006666"/>
     <use xlink:href="#m647895b053" x="309.61" y="332.410872" style="fill: #006666; stroke: #006666"/>
     <use xlink:href="#m647895b053" x="332.845455" y="322.960836" style="fill: #006666; stroke: #006666"/>
     <use xlink:href="#m647895b053" x="356.080909" y="314.524524" style="fill: #006666; stroke: #006666"/>
     <use xlink:href="#m647895b053" x="379.316364" y="303.373245" style="fill: #006666; stroke: #006666"/>
     <use xlink:href="#m647895b053" x="402.551818" y="285.868093" style="fill: #006666; stroke: #006666"/>
     <use xlink:href="#m647895b053" x="425.787273" y="265.602925" style="fill: #006666; stroke: #006666"/>
     <use xlink:href="#m647895b053" x="449.022727" y="254.277981" style="fill: #006666; stroke: #006666"/>
     <use xlink:href="#m647895b053" x="472.258182" y="234.908793" style="fill: #006666; stroke: #006666"/>
     <use xlink:href="#m647895b053" x="495.493636" y="209.229225" style="fill: #006666; stroke: #006666"/>
     <use xlink:href="#m647895b053" x="518.729091" y="172.785166" style="fill: #006666; stroke: #006666"/>
     <use xlink:href="#m647895b053" x="541.964545" y="133.012562" style="fill: #006666; stroke: #006666"/>
    </g>
   </g>
   <g id="line2d_16">
    <g clip-path="url(#pa6ebc073c4)">
     <use xlink:href="#m647895b053" x="77.255455" y="367.08503" style="fill: #006666; stroke: #006666"/>
     <use xlink:href="#m647895b053" x="100.490909" y="361.285396" style="fill: #006666; stroke: #006666"/>
     <use xlink:href="#m647895b053" x="123.726364" y="362.509446" style="fill: #006666; stroke: #006666"/>
     <use xlink:href="#m647895b053" x="146.961818" y="363.598353" style="fill: #006666; stroke: #006666"/>
     <use xlink:href="#m647895b053" x="170.197273" y="360.154237" style="fill: #006666; stroke: #006666"/>
     <use xlink:href="#m647895b053" x="193.432727" y="341.292067" style="fill: #006666; stroke: #006666"/>
     <use xlink:href="#m647895b053" x="216.668182" y="337.496892" style="fill: #006666; stroke: #006666"/>
     <use xlink:href="#m647895b053" x="239.903636" y="347.734793" style="fill: #006666; stroke: #006666"/>
     <use xlink:href="#m647895b053" x="263.139091" y="332.946161" style="fill: #006666; stroke: #006666"/>
     <use xlink:href="#m647895b053" x="286.374545" y="336.551205" style="fill: #006666; stroke: #006666"/>
     <use xlink:href="#m647895b053" x="309.61" y="328.30751" style="fill: #006666; stroke: #006666"/>
     <use xlink:href="#m647895b053" x="332.845455" y="298.366758" style="fill: #006666; stroke: #006666"/>
     <use xlink:href="#m647895b053" x="356.080909" y="282.036258" style="fill: #006666; stroke: #006666"/>
     <use xlink:href="#m647895b053" x="379.316364" y="267.752779" style="fill: #006666; stroke: #006666"/>
     <use xlink:href="#m647895b053" x="402.551818" y="263.975933" style="fill: #006666; stroke: #006666"/>
     <use xlink:href="#m647895b053" x="425.787273" y="208.848341" style="fill: #006666; stroke: #006666"/>
     <use xlink:href="#m647895b053" x="449.022727" y="205.805925" style="fill: #006666; stroke: #006666"/>
     <use xlink:href="#m647895b053" x="472.258182" y="177.309179" style="fill: #006666; stroke: #006666"/>
     <use xlink:href="#m647895b053" x="495.493636" y="200.129938" style="fill: #006666; stroke: #006666"/>
     <use xlink:href="#m647895b053" x="518.729091" y="164.371223" style="fill: #006666; stroke: #006666"/>
     <use xlink:href="#m647895b053" x="541.964545" y="89.967022" style="fill: #006666; stroke: #006666"/>
    </g>
   </g>
   <g id="line2d_17">
    <path d="M 77.255455 372.743619 
L 100.490909 370.941719 
L 123.726364 368.450125 
L 146.961818 366.784921 
L 170.197273 363.821105 
L 193.432727 360.587004 
L 216.668182 355.647311 
L 239.903636 352.152246 
L 263.139091 347.308861 
L 286.374545 339.361859 
L 309.61 330.038577 
L 332.845455 324.545887 
L 356.080909 312.389272 
L 379.316364 299.257145 
L 402.551818 286.053564 
L 425.787273 261.908097 
L 449.022727 240.179662 
L 472.258182 201.078421 
L 495.493636 157.183504 
L 518.729091 107.016108 
L 541.964545 56.35785 
" clip-path="url(#pa6ebc073c4)" style="fill: none; stroke: #009933; stroke-width: 1.5; stroke-linecap: square"/>
   </g>
   <g id="line2d_18">
    <path d="M 77.255455 369.811057 
L 100.490909 367.453053 
L 123.726364 365.326562 
L 146.961818 364.242253 
L 170.197273 360.885623 
L 193.432727 353.531445 
L 216.668182 349.451321 
L 239.903636 348.722856 
L 263.139091 340.891486 
L 286.374545 337.469055 
L 309.61 330.92039 
L 332.845455 317.111805 
L 356.080909 306.549685 
L 379.316364 292.971744 
L 402.551818 272.092439 
L 425.787273 245.216969 
L 449.022727 242.276702 
L 472.258182 220.985259 
L 495.493636 204.852409 
L 518.729091 167.742516 
L 541.964545 120.568637 
" clip-path="url(#pa6ebc073c4)" style="fill: none; stroke: #006666; stroke-width: 1.5; stroke-linecap: square"/>
   </g>
   <g id="patch_3">
    <path d="M 54.02 390.04 
L 54.02 26.88 
" style="fill: none; stroke: #000000; stroke-width: 0.8; stroke-linejoin: miter; stroke-linecap: square"/>
   </g>
   <g id="patch_4">
    <path d="M 565.2 390.04 
L 565.2 26.88 
" style="fill: none; stroke: #000000; stroke-width: 0.8; stroke-linejoin: miter; stroke-linecap: square"/>
   </g>
   <g id="patch_5">
    <path d="M 54.02 390.04 
L 565.2 390.04 
" style="fill: none; stroke: #000000; stroke-width: 0.8; stroke-linejoin: miter; stroke-linecap: square"/>
   </g>
   <g id="patch_6">
    <path d="M 54.02 26.88 
L 565.2 26.88 
" style="fill: none; stroke: #000000; stroke-width: 0.8; stroke-linejoin: miter; stroke-linecap: square"/>
   </g>
   <g id="text_15">
    <!-- Implementations of Bron-Kerbosch Ver3=GPs on a random graph of order 100 -->
    <g transform="translate(54.02 20.88)scale(0.12 -0.12)">
     <defs>
      <path id="DejaVuSans-49" d="M 628 4666 
L 1259 4666 
L 1259 0 
L 628 0 
L 628 4666 
z
" transform="scale(0.015625)"/>
      <path id="DejaVuSans-6d" d="M 3328 2828 
Q 3544 3216 3844 3400 
Q 4144 3584 4550 3584 
Q 5097 3584 5394 3201 
Q 5691 2819 5691 2113 
L 5691 0 
L 5113 0 
L 5113 2094 
Q 5113 2597 4934 2840 
Q 4756 3084 4391 3084 
Q 3944 3084 3684 2787 
Q 3425 2491 3425 1978 
L 3425 0 
L 2847 0 
L 2847 2094 
Q 2847 2600 2669 2842 
Q 2491 3084 2119 3084 
Q 1678 3084 1418 2786 
Q 1159 2488 1159 1978 
L 1159 0 
L 581 0 
L 581 3500 
L 1159 3500 
L 1159 2956 
Q 1356 3278 1631 3431 
Q 1906 3584 2284 3584 
Q 2666 3584 2933 3390 
Q 3200 3197 3328 2828 
z
" transform="scale(0.015625)"/>
      <path id="DejaVuSans-6c" d="M 603 4863 
L 1178 4863 
L 1178 0 
L 603 0 
L 603 4863 
z
" transform="scale(0.015625)"/>
      <path id="DejaVuSans-61" d="M 2194 1759 
Q 1497 1759 1228 1600 
Q 959 1441 959 1056 
Q 959 750 1161 570 
Q 1363 391 1709 391 
Q 2188 391 2477 730 
Q 2766 1069 2766 1631 
L 2766 1759 
L 2194 1759 
z
M 3341 1997 
L 3341 0 
L 2766 0 
L 2766 531 
Q 2569 213 2275 61 
Q 1981 -91 1556 -91 
Q 1019 -91 701 211 
Q 384 513 384 1019 
Q 384 1609 779 1909 
Q 1175 2209 1959 2209 
L 2766 2209 
L 2766 2266 
Q 2766 2663 2505 2880 
Q 2244 3097 1772 3097 
Q 1472 3097 1187 3025 
Q 903 2953 641 2809 
L 641 3341 
Q 956 3463 1253 3523 
Q 1550 3584 1831 3584 
Q 2591 3584 2966 3190 
Q 3341 2797 3341 1997 
z
" transform="scale(0.015625)"/>
      <path id="DejaVuSans-66" d="M 2375 4863 
L 2375 4384 
L 1825 4384 
Q 1516 4384 1395 4259 
Q 1275 4134 1275 3809 
L 1275 3500 
L 2222 3500 
L 2222 3053 
L 1275 3053 
L 1275 0 
L 697 0 
L 697 3053 
L 147 3053 
L 147 3500 
L 697 3500 
L 697 3744 
Q 697 4328 969 4595 
Q 1241 4863 1831 4863 
L 2375 4863 
z
" transform="scale(0.015625)"/>
      <path id="DejaVuSans-42" d="M 1259 2228 
L 1259 519 
L 2272 519 
Q 2781 519 3026 730 
Q 3272 941 3272 1375 
Q 3272 1813 3026 2020 
Q 2781 2228 2272 2228 
L 1259 2228 
z
M 1259 4147 
L 1259 2741 
L 2194 2741 
Q 2656 2741 2882 2914 
Q 3109 3088 3109 3444 
Q 3109 3797 2882 3972 
Q 2656 4147 2194 4147 
L 1259 4147 
z
M 628 4666 
L 2241 4666 
Q 2963 4666 3353 4366 
Q 3744 4066 3744 3513 
Q 3744 3084 3544 2831 
Q 3344 2578 2956 2516 
Q 3422 2416 3680 2098 
Q 3938 1781 3938 1306 
Q 3938 681 3513 340 
Q 3088 0 2303 0 
L 628 0 
L 628 4666 
z
" transform="scale(0.015625)"/>
      <path id="DejaVuSans-72" d="M 2631 2963 
Q 2534 3019 2420 3045 
Q 2306 3072 2169 3072 
Q 1681 3072 1420 2755 
Q 1159 2438 1159 1844 
L 1159 0 
L 581 0 
L 581 3500 
L 1159 3500 
L 1159 2956 
Q 1341 3275 1631 3429 
Q 1922 3584 2338 3584 
Q 2397 3584 2469 3576 
Q 2541 3569 2628 3553 
L 2631 2963 
z
" transform="scale(0.015625)"/>
      <path id="DejaVuSans-2d" d="M 313 2009 
L 1997 2009 
L 1997 1497 
L 313 1497 
L 313 2009 
z
" transform="scale(0.015625)"/>
      <path id="DejaVuSans-4b" d="M 628 4666 
L 1259 4666 
L 1259 2694 
L 3353 4666 
L 4166 4666 
L 1850 2491 
L 4331 0 
L 3500 0 
L 1259 2247 
L 1259 0 
L 628 0 
L 628 4666 
z
" transform="scale(0.015625)"/>
      <path id="DejaVuSans-62" d="M 3116 1747 
Q 3116 2381 2855 2742 
Q 2594 3103 2138 3103 
Q 1681 3103 1420 2742 
Q 1159 2381 1159 1747 
Q 1159 1113 1420 752 
Q 1681 391 2138 391 
Q 2594 391 2855 752 
Q 3116 1113 3116 1747 
z
M 1159 2969 
Q 1341 3281 1617 3432 
Q 1894 3584 2278 3584 
Q 2916 3584 3314 3078 
Q 3713 2572 3713 1747 
Q 3713 922 3314 415 
Q 2916 -91 2278 -91 
Q 1894 -91 1617 61 
Q 1341 213 1159 525 
L 1159 0 
L 581 0 
L 581 4863 
L 1159 4863 
L 1159 2969 
z
" transform="scale(0.015625)"/>
      <path id="DejaVuSans-68" d="M 3513 2113 
L 3513 0 
L 2938 0 
L 2938 2094 
Q 2938 2591 2744 2837 
Q 2550 3084 2163 3084 
Q 1697 3084 1428 2787 
Q 1159 2491 1159 1978 
L 1159 0 
L 581 0 
L 581 4863 
L 1159 4863 
L 1159 2956 
Q 1366 3272 1645 3428 
Q 1925 3584 2291 3584 
Q 2894 3584 3203 3211 
Q 3513 2838 3513 2113 
z
" transform="scale(0.015625)"/>
      <path id="DejaVuSans-56" d="M 1831 0 
L 50 4666 
L 709 4666 
L 2188 738 
L 3669 4666 
L 4325 4666 
L 2547 0 
L 1831 0 
z
" transform="scale(0.015625)"/>
      <path id="DejaVuSans-3d" d="M 678 2906 
L 4684 2906 
L 4684 2381 
L 678 2381 
L 678 2906 
z
M 678 1631 
L 4684 1631 
L 4684 1100 
L 678 1100 
L 678 1631 
z
" transform="scale(0.015625)"/>
      <path id="DejaVuSans-47" d="M 3809 666 
L 3809 1919 
L 2778 1919 
L 2778 2438 
L 4434 2438 
L 4434 434 
Q 4069 175 3628 42 
Q 3188 -91 2688 -91 
Q 1594 -91 976 548 
Q 359 1188 359 2328 
Q 359 3472 976 4111 
Q 1594 4750 2688 4750 
Q 3144 4750 3555 4637 
Q 3966 4525 4313 4306 
L 4313 3634 
Q 3963 3931 3569 4081 
Q 3175 4231 2741 4231 
Q 1884 4231 1454 3753 
Q 1025 3275 1025 2328 
Q 1025 1384 1454 906 
Q 1884 428 2741 428 
Q 3075 428 3337 486 
Q 3600 544 3809 666 
z
" transform="scale(0.015625)"/>
      <path id="DejaVuSans-50" d="M 1259 4147 
L 1259 2394 
L 2053 2394 
Q 2494 2394 2734 2622 
Q 2975 2850 2975 3272 
Q 2975 3691 2734 3919 
Q 2494 4147 2053 4147 
L 1259 4147 
z
M 628 4666 
L 2053 4666 
Q 2838 4666 3239 4311 
Q 3641 3956 3641 3272 
Q 3641 2581 3239 2228 
Q 2838 1875 2053 1875 
L 1259 1875 
L 1259 0 
L 628 0 
L 628 4666 
z
" transform="scale(0.015625)"/>
     </defs>
     <use xlink:href="#DejaVuSans-49"/>
     <use xlink:href="#DejaVuSans-6d" x="29.492188"/>
     <use xlink:href="#DejaVuSans-70" x="126.904297"/>
     <use xlink:href="#DejaVuSans-6c" x="190.380859"/>
     <use xlink:href="#DejaVuSans-65" x="218.164062"/>
     <use xlink:href="#DejaVuSans-6d" x="279.6875"/>
     <use xlink:href="#DejaVuSans-65" x="377.099609"/>
     <use xlink:href="#DejaVuSans-6e" x="438.623047"/>
     <use xlink:href="#DejaVuSans-74" x="502.001953"/>
     <use xlink:href="#DejaVuSans-61" x="541.210938"/>
     <use xlink:href="#DejaVuSans-74" x="602.490234"/>
     <use xlink:href="#DejaVuSans-69" x="641.699219"/>
     <use xlink:href="#DejaVuSans-6f" x="669.482422"/>
     <use xlink:href="#DejaVuSans-6e" x="730.664062"/>
     <use xlink:href="#DejaVuSans-73" x="794.042969"/>
     <use xlink:href="#DejaVuSans-20" x="846.142578"/>
     <use xlink:href="#DejaVuSans-6f" x="877.929688"/>
     <use xlink:href="#DejaVuSans-66" x="939.111328"/>
     <use xlink:href="#DejaVuSans-20" x="974.316406"/>
     <use xlink:href="#DejaVuSans-42" x="1006.103516"/>
     <use xlink:href="#DejaVuSans-72" x="1074.707031"/>
     <use xlink:href="#DejaVuSans-6f" x="1113.570312"/>
     <use xlink:href="#DejaVuSans-6e" x="1174.751953"/>
     <use xlink:href="#DejaVuSans-2d" x="1238.130859"/>
     <use xlink:href="#DejaVuSans-4b" x="1274.214844"/>
     <use xlink:href="#DejaVuSans-65" x="1334.791016"/>
     <use xlink:href="#DejaVuSans-72" x="1396.314453"/>
     <use xlink:href="#DejaVuSans-62" x="1437.427734"/>
     <use xlink:href="#DejaVuSans-6f" x="1500.904297"/>
     <use xlink:href="#DejaVuSans-73" x="1562.085938"/>
     <use xlink:href="#DejaVuSans-63" x="1614.185547"/>
     <use xlink:href="#DejaVuSans-68" x="1669.166016"/>
     <use xlink:href="#DejaVuSans-20" x="1732.544922"/>
     <use xlink:href="#DejaVuSans-56" x="1764.332031"/>
     <use xlink:href="#DejaVuSans-65" x="1824.990234"/>
     <use xlink:href="#DejaVuSans-72" x="1886.513672"/>
     <use xlink:href="#DejaVuSans-33" x="1927.626953"/>
     <use xlink:href="#DejaVuSans-3d" x="1991.25"/>
     <use xlink:href="#DejaVuSans-47" x="2075.039062"/>
     <use xlink:href="#DejaVuSans-50" x="2152.529297"/>
     <use xlink:href="#DejaVuSans-73" x="2211.082031"/>
     <use xlink:href="#DejaVuSans-20" x="2263.181641"/>
     <use xlink:href="#DejaVuSans-6f" x="2294.96875"/>
     <use xlink:href="#DejaVuSans-6e" x="2356.150391"/>
     <use xlink:href="#DejaVuSans-20" x="2419.529297"/>
     <use xlink:href="#DejaVuSans-61" x="2451.316406"/>
     <use xlink:href="#DejaVuSans-20" x="2512.595703"/>
     <use xlink:href="#DejaVuSans-72" x="2544.382812"/>
     <use xlink:href="#DejaVuSans-61" x="2585.496094"/>
     <use xlink:href="#DejaVuSans-6e" x="2646.775391"/>
     <use xlink:href="#DejaVuSans-64" x="2710.154297"/>
     <use xlink:href="#DejaVuSans-6f" x="2773.630859"/>
     <use xlink:href="#DejaVuSans-6d" x="2834.8125"/>
     <use xlink:href="#DejaVuSans-20" x="2932.224609"/>
     <use xlink:href="#DejaVuSans-67" x="2964.011719"/>
     <use xlink:href="#DejaVuSans-72" x="3027.488281"/>
     <use xlink:href="#DejaVuSans-61" x="3068.601562"/>
     <use xlink:href="#DejaVuSans-70" x="3129.880859"/>
     <use xlink:href="#DejaVuSans-68" x="3193.357422"/>
     <use xlink:href="#DejaVuSans-20" x="3256.736328"/>
     <use xlink:href="#DejaVuSans-6f" x="3288.523438"/>
     <use xlink:href="#DejaVuSans-66" x="3349.705078"/>
     <use xlink:href="#DejaVuSans-20" x="3384.910156"/>
     <use xlink:href="#DejaVuSans-6f" x="3416.697266"/>
     <use xlink:href="#DejaVuSans-72" x="3477.878906"/>
     <use xlink:href="#DejaVuSans-64" x="3517.242188"/>
     <use xlink:href="#DejaVuSans-65" x="3580.71875"/>
     <use xlink:href="#DejaVuSans-72" x="3642.242188"/>
     <use xlink:href="#DejaVuSans-20" x="3683.355469"/>
     <use xlink:href="#DejaVuSans-31" x="3715.142578"/>
     <use xlink:href="#DejaVuSans-30" x="3778.765625"/>
     <use xlink:href="#DejaVuSans-30" x="3842.388672"/>
    </g>
   </g>
   <g id="legend_1">
    <g id="patch_7">
     <path d="M 61.02 64.23625 
L 119.90125 64.23625 
Q 121.90125 64.23625 121.90125 62.23625 
L 121.90125 33.88 
Q 121.90125 31.88 119.90125 31.88 
L 61.02 31.88 
Q 59.02 31.88 59.02 33.88 
L 59.02 62.23625 
Q 59.02 64.23625 61.02 64.23625 
z
" style="fill: #ffffff; opacity: 0.8; stroke: #cccccc; stroke-linejoin: miter"/>
    </g>
    <g id="LineCollection_3">
     <path d="M 73.02 44.978437 
L 73.02 34.978437 
" style="fill: none; stroke: #009933; stroke-width: 1.5"/>
    </g>
    <g id="line2d_19">
     <g>
      <use xlink:href="#m567d63a80a" x="73.02" y="44.978437" style="fill: #009933; stroke: #009933"/>
     </g>
    </g>
    <g id="line2d_20">
     <g>
      <use xlink:href="#m567d63a80a" x="73.02" y="34.978437" style="fill: #009933; stroke: #009933"/>
     </g>
    </g>
    <g id="line2d_21">
     <path d="M 63.02 39.978437 
L 83.02 39.978437 
" style="fill: none; stroke: #009933; stroke-width: 1.5; stroke-linecap: square"/>
    </g>
    <g id="line2d_22"/>
    <g id="text_16">
     <!-- Java -->
     <g transform="translate(91.02 43.478437)scale(0.1 -0.1)">
      <defs>
       <path id="DejaVuSans-4a" d="M 628 4666 
L 1259 4666 
L 1259 325 
Q 1259 -519 939 -900 
Q 619 -1281 -91 -1281 
L -331 -1281 
L -331 -750 
L -134 -750 
Q 284 -750 456 -515 
Q 628 -281 628 325 
L 628 4666 
z
" transform="scale(0.015625)"/>
       <path id="DejaVuSans-76" d="M 191 3500 
L 800 3500 
L 1894 563 
L 2988 3500 
L 3597 3500 
L 2284 0 
L 1503 0 
L 191 3500 
z
" transform="scale(0.015625)"/>
      </defs>
      <use xlink:href="#DejaVuSans-4a"/>
      <use xlink:href="#DejaVuSans-61" x="29.492188"/>
      <use xlink:href="#DejaVuSans-76" x="90.771484"/>
      <use xlink:href="#DejaVuSans-61" x="149.951172"/>
     </g>
    </g>
    <g id="LineCollection_4">
     <path d="M 73.02 59.656563 
L 73.02 49.656563 
" style="fill: none; stroke: #006666; stroke-width: 1.5"/>
    </g>
    <g id="line2d_23">
     <g>
      <use xlink:href="#m647895b053" x="73.02" y="59.656563" style="fill: #006666; stroke: #006666"/>
     </g>
    </g>
    <g id="line2d_24">
     <g>
      <use xlink:href="#m647895b053" x="73.02" y="49.656563" style="fill: #006666; stroke: #006666"/>
     </g>
    </g>
    <g id="line2d_25">
     <path d="M 63.02 54.656563 
L 83.02 54.656563 
" style="fill: none; stroke: #006666; stroke-width: 1.5; stroke-linecap: square"/>
    </g>
    <g id="line2d_26"/>
    <g id="text_17">
     <!-- Scala -->
     <g transform="translate(91.02 58.156563)scale(0.1 -0.1)">
      <use xlink:href="#DejaVuSans-53"/>
      <use xlink:href="#DejaVuSans-63" x="63.476562"/>
      <use xlink:href="#DejaVuSans-61" x="118.457031"/>
      <use xlink:href="#DejaVuSans-6c" x="179.736328"/>
      <use xlink:href="#DejaVuSans-61" x="207.519531"/>
     </g>
    </g>
   </g>
  </g>
 </g>
 <defs>
  <clipPath id="pa6ebc073c4">
   <rect x="54.02" y="26.88" width="511.18" height="363.16"/>
  </clipPath>
 </defs>
</svg>
