<?xml version="1.0" encoding="utf-8" standalone="no"?>
<!DOCTYPE svg PUBLIC "-//W3C//DTD SVG 1.1//EN"
  "http://www.w3.org/Graphics/SVG/1.1/DTD/svg11.dtd">
<svg xmlns:xlink="http://www.w3.org/1999/xlink" width="576pt" height="432pt" viewBox="0 0 576 432" xmlns="http://www.w3.org/2000/svg" version="1.1">
 <metadata>
  <rdf:RDF xmlns:dc="http://purl.org/dc/elements/1.1/" xmlns:cc="http://creativecommons.org/ns#" xmlns:rdf="http://www.w3.org/1999/02/22-rdf-syntax-ns#">
   <cc:Work>
    <dc:type rdf:resource="http://purl.org/dc/dcmitype/StillImage"/>
    <dc:date>2021-12-28T02:37:16.846011</dc:date>
    <dc:format>image/svg+xml</dc:format>
    <dc:creator>
     <cc:Agent>
      <dc:title>Matplotlib v3.5.0, https://matplotlib.org/</dc:title>
     </cc:Agent>
    </dc:creator>
   </cc:Work>
  </rdf:RDF>
 </metadata>
 <defs>
  <style type="text/css">*{stroke-linejoin: round; stroke-linecap: butt}</style>
 </defs>
 <g id="figure_1">
  <g id="patch_1">
   <path d="M 0 432 
L 576 432 
L 576 0 
L 0 0 
z
" style="fill: #ffffff"/>
  </g>
  <g id="axes_1">
   <g id="patch_2">
    <path d="M 54.02 390.04 
L 565.2 390.04 
L 565.2 26.88 
L 54.02 26.88 
z
" style="fill: #ffffff"/>
   </g>
   <g id="matplotlib.axis_1">
    <g id="xtick_1">
     <g id="line2d_1">
      <defs>
       <path id="mc74f61fcfc" d="M 0 0 
L 0 3.5 
" style="stroke: #000000; stroke-width: 0.8"/>
      </defs>
      <g>
       <use xlink:href="#mc74f61fcfc" x="74.920233" y="390.04" style="stroke: #000000; stroke-width: 0.8"/>
      </g>
     </g>
     <g id="text_1">
      <!-- 0 -->
      <g transform="translate(71.738983 404.638438)scale(0.1 -0.1)">
       <defs>
        <path id="DejaVuSans-30" d="M 2034 4250 
Q 1547 4250 1301 3770 
Q 1056 3291 1056 2328 
Q 1056 1369 1301 889 
Q 1547 409 2034 409 
Q 2525 409 2770 889 
Q 3016 1369 3016 2328 
Q 3016 3291 2770 3770 
Q 2525 4250 2034 4250 
z
M 2034 4750 
Q 2819 4750 3233 4129 
Q 3647 3509 3647 2328 
Q 3647 1150 3233 529 
Q 2819 -91 2034 -91 
Q 1250 -91 836 529 
Q 422 1150 422 2328 
Q 422 3509 836 4129 
Q 1250 4750 2034 4750 
z
" transform="scale(0.015625)"/>
       </defs>
       <use xlink:href="#DejaVuSans-30"/>
      </g>
     </g>
    </g>
    <g id="xtick_2">
     <g id="line2d_2">
      <g>
       <use xlink:href="#mc74f61fcfc" x="133.300772" y="390.04" style="stroke: #000000; stroke-width: 0.8"/>
      </g>
     </g>
     <g id="text_2">
      <!-- 25000 -->
      <g transform="translate(117.394522 404.638438)scale(0.1 -0.1)">
       <defs>
        <path id="DejaVuSans-32" d="M 1228 531 
L 3431 531 
L 3431 0 
L 469 0 
L 469 531 
Q 828 903 1448 1529 
Q 2069 2156 2228 2338 
Q 2531 2678 2651 2914 
Q 2772 3150 2772 3378 
Q 2772 3750 2511 3984 
Q 2250 4219 1831 4219 
Q 1534 4219 1204 4116 
Q 875 4013 500 3803 
L 500 4441 
Q 881 4594 1212 4672 
Q 1544 4750 1819 4750 
Q 2544 4750 2975 4387 
Q 3406 4025 3406 3419 
Q 3406 3131 3298 2873 
Q 3191 2616 2906 2266 
Q 2828 2175 2409 1742 
Q 1991 1309 1228 531 
z
" transform="scale(0.015625)"/>
        <path id="DejaVuSans-35" d="M 691 4666 
L 3169 4666 
L 3169 4134 
L 1269 4134 
L 1269 2991 
Q 1406 3038 1543 3061 
Q 1681 3084 1819 3084 
Q 2600 3084 3056 2656 
Q 3513 2228 3513 1497 
Q 3513 744 3044 326 
Q 2575 -91 1722 -91 
Q 1428 -91 1123 -41 
Q 819 9 494 109 
L 494 744 
Q 775 591 1075 516 
Q 1375 441 1709 441 
Q 2250 441 2565 725 
Q 2881 1009 2881 1497 
Q 2881 1984 2565 2268 
Q 2250 2553 1709 2553 
Q 1456 2553 1204 2497 
Q 953 2441 691 2322 
L 691 4666 
z
" transform="scale(0.015625)"/>
       </defs>
       <use xlink:href="#DejaVuSans-32"/>
       <use xlink:href="#DejaVuSans-35" x="63.623047"/>
       <use xlink:href="#DejaVuSans-30" x="127.246094"/>
       <use xlink:href="#DejaVuSans-30" x="190.869141"/>
       <use xlink:href="#DejaVuSans-30" x="254.492188"/>
      </g>
     </g>
    </g>
    <g id="xtick_3">
     <g id="line2d_3">
      <g>
       <use xlink:href="#mc74f61fcfc" x="191.681311" y="390.04" style="stroke: #000000; stroke-width: 0.8"/>
      </g>
     </g>
     <g id="text_3">
      <!-- 50000 -->
      <g transform="translate(175.775061 404.638438)scale(0.1 -0.1)">
       <use xlink:href="#DejaVuSans-35"/>
       <use xlink:href="#DejaVuSans-30" x="63.623047"/>
       <use xlink:href="#DejaVuSans-30" x="127.246094"/>
       <use xlink:href="#DejaVuSans-30" x="190.869141"/>
       <use xlink:href="#DejaVuSans-30" x="254.492188"/>
      </g>
     </g>
    </g>
    <g id="xtick_4">
     <g id="line2d_4">
      <g>
       <use xlink:href="#mc74f61fcfc" x="250.06185" y="390.04" style="stroke: #000000; stroke-width: 0.8"/>
      </g>
     </g>
     <g id="text_4">
      <!-- 75000 -->
      <g transform="translate(234.1556 404.638438)scale(0.1 -0.1)">
       <defs>
        <path id="DejaVuSans-37" d="M 525 4666 
L 3525 4666 
L 3525 4397 
L 1831 0 
L 1172 0 
L 2766 4134 
L 525 4134 
L 525 4666 
z
" transform="scale(0.015625)"/>
       </defs>
       <use xlink:href="#DejaVuSans-37"/>
       <use xlink:href="#DejaVuSans-35" x="63.623047"/>
       <use xlink:href="#DejaVuSans-30" x="127.246094"/>
       <use xlink:href="#DejaVuSans-30" x="190.869141"/>
       <use xlink:href="#DejaVuSans-30" x="254.492188"/>
      </g>
     </g>
    </g>
    <g id="xtick_5">
     <g id="line2d_5">
      <g>
       <use xlink:href="#mc74f61fcfc" x="308.442389" y="390.04" style="stroke: #000000; stroke-width: 0.8"/>
      </g>
     </g>
     <g id="text_5">
      <!-- 100000 -->
      <g transform="translate(289.354889 404.638438)scale(0.1 -0.1)">
       <defs>
        <path id="DejaVuSans-31" d="M 794 531 
L 1825 531 
L 1825 4091 
L 703 3866 
L 703 4441 
L 1819 4666 
L 2450 4666 
L 2450 531 
L 3481 531 
L 3481 0 
L 794 0 
L 794 531 
z
" transform="scale(0.015625)"/>
       </defs>
       <use xlink:href="#DejaVuSans-31"/>
       <use xlink:href="#DejaVuSans-30" x="63.623047"/>
       <use xlink:href="#DejaVuSans-30" x="127.246094"/>
       <use xlink:href="#DejaVuSans-30" x="190.869141"/>
       <use xlink:href="#DejaVuSans-30" x="254.492188"/>
       <use xlink:href="#DejaVuSans-30" x="318.115234"/>
      </g>
     </g>
    </g>
    <g id="xtick_6">
     <g id="line2d_6">
      <g>
       <use xlink:href="#mc74f61fcfc" x="366.822928" y="390.04" style="stroke: #000000; stroke-width: 0.8"/>
      </g>
     </g>
     <g id="text_6">
      <!-- 125000 -->
      <g transform="translate(347.735428 404.638438)scale(0.1 -0.1)">
       <use xlink:href="#DejaVuSans-31"/>
       <use xlink:href="#DejaVuSans-32" x="63.623047"/>
       <use xlink:href="#DejaVuSans-35" x="127.246094"/>
       <use xlink:href="#DejaVuSans-30" x="190.869141"/>
       <use xlink:href="#DejaVuSans-30" x="254.492188"/>
       <use xlink:href="#DejaVuSans-30" x="318.115234"/>
      </g>
     </g>
    </g>
    <g id="xtick_7">
     <g id="line2d_7">
      <g>
       <use xlink:href="#mc74f61fcfc" x="425.203467" y="390.04" style="stroke: #000000; stroke-width: 0.8"/>
      </g>
     </g>
     <g id="text_7">
      <!-- 150000 -->
      <g transform="translate(406.115967 404.638438)scale(0.1 -0.1)">
       <use xlink:href="#DejaVuSans-31"/>
       <use xlink:href="#DejaVuSans-35" x="63.623047"/>
       <use xlink:href="#DejaVuSans-30" x="127.246094"/>
       <use xlink:href="#DejaVuSans-30" x="190.869141"/>
       <use xlink:href="#DejaVuSans-30" x="254.492188"/>
       <use xlink:href="#DejaVuSans-30" x="318.115234"/>
      </g>
     </g>
    </g>
    <g id="xtick_8">
     <g id="line2d_8">
      <g>
       <use xlink:href="#mc74f61fcfc" x="483.584006" y="390.04" style="stroke: #000000; stroke-width: 0.8"/>
      </g>
     </g>
     <g id="text_8">
      <!-- 175000 -->
      <g transform="translate(464.496506 404.638438)scale(0.1 -0.1)">
       <use xlink:href="#DejaVuSans-31"/>
       <use xlink:href="#DejaVuSans-37" x="63.623047"/>
       <use xlink:href="#DejaVuSans-35" x="127.246094"/>
       <use xlink:href="#DejaVuSans-30" x="190.869141"/>
       <use xlink:href="#DejaVuSans-30" x="254.492188"/>
       <use xlink:href="#DejaVuSans-30" x="318.115234"/>
      </g>
     </g>
    </g>
    <g id="xtick_9">
     <g id="line2d_9">
      <g>
       <use xlink:href="#mc74f61fcfc" x="541.964545" y="390.04" style="stroke: #000000; stroke-width: 0.8"/>
      </g>
     </g>
     <g id="text_9">
      <!-- 200000 -->
      <g transform="translate(522.877045 404.638438)scale(0.1 -0.1)">
       <use xlink:href="#DejaVuSans-32"/>
       <use xlink:href="#DejaVuSans-30" x="63.623047"/>
       <use xlink:href="#DejaVuSans-30" x="127.246094"/>
       <use xlink:href="#DejaVuSans-30" x="190.869141"/>
       <use xlink:href="#DejaVuSans-30" x="254.492188"/>
       <use xlink:href="#DejaVuSans-30" x="318.115234"/>
      </g>
     </g>
    </g>
    <g id="text_10">
     <!-- Size (#edges) -->
     <g transform="translate(274.559219 418.316562)scale(0.1 -0.1)">
      <defs>
       <path id="DejaVuSans-53" d="M 3425 4513 
L 3425 3897 
Q 3066 4069 2747 4153 
Q 2428 4238 2131 4238 
Q 1616 4238 1336 4038 
Q 1056 3838 1056 3469 
Q 1056 3159 1242 3001 
Q 1428 2844 1947 2747 
L 2328 2669 
Q 3034 2534 3370 2195 
Q 3706 1856 3706 1288 
Q 3706 609 3251 259 
Q 2797 -91 1919 -91 
Q 1588 -91 1214 -16 
Q 841 59 441 206 
L 441 856 
Q 825 641 1194 531 
Q 1563 422 1919 422 
Q 2459 422 2753 634 
Q 3047 847 3047 1241 
Q 3047 1584 2836 1778 
Q 2625 1972 2144 2069 
L 1759 2144 
Q 1053 2284 737 2584 
Q 422 2884 422 3419 
Q 422 4038 858 4394 
Q 1294 4750 2059 4750 
Q 2388 4750 2728 4690 
Q 3069 4631 3425 4513 
z
" transform="scale(0.015625)"/>
       <path id="DejaVuSans-69" d="M 603 3500 
L 1178 3500 
L 1178 0 
L 603 0 
L 603 3500 
z
M 603 4863 
L 1178 4863 
L 1178 4134 
L 603 4134 
L 603 4863 
z
" transform="scale(0.015625)"/>
       <path id="DejaVuSans-7a" d="M 353 3500 
L 3084 3500 
L 3084 2975 
L 922 459 
L 3084 459 
L 3084 0 
L 275 0 
L 275 525 
L 2438 3041 
L 353 3041 
L 353 3500 
z
" transform="scale(0.015625)"/>
       <path id="DejaVuSans-65" d="M 3597 1894 
L 3597 1613 
L 953 1613 
Q 991 1019 1311 708 
Q 1631 397 2203 397 
Q 2534 397 2845 478 
Q 3156 559 3463 722 
L 3463 178 
Q 3153 47 2828 -22 
Q 2503 -91 2169 -91 
Q 1331 -91 842 396 
Q 353 884 353 1716 
Q 353 2575 817 3079 
Q 1281 3584 2069 3584 
Q 2775 3584 3186 3129 
Q 3597 2675 3597 1894 
z
M 3022 2063 
Q 3016 2534 2758 2815 
Q 2500 3097 2075 3097 
Q 1594 3097 1305 2825 
Q 1016 2553 972 2059 
L 3022 2063 
z
" transform="scale(0.015625)"/>
       <path id="DejaVuSans-20" transform="scale(0.015625)"/>
       <path id="DejaVuSans-28" d="M 1984 4856 
Q 1566 4138 1362 3434 
Q 1159 2731 1159 2009 
Q 1159 1288 1364 580 
Q 1569 -128 1984 -844 
L 1484 -844 
Q 1016 -109 783 600 
Q 550 1309 550 2009 
Q 550 2706 781 3412 
Q 1013 4119 1484 4856 
L 1984 4856 
z
" transform="scale(0.015625)"/>
       <path id="DejaVuSans-23" d="M 3272 2816 
L 2363 2816 
L 2100 1772 
L 3016 1772 
L 3272 2816 
z
M 2803 4594 
L 2478 3297 
L 3391 3297 
L 3719 4594 
L 4219 4594 
L 3897 3297 
L 4872 3297 
L 4872 2816 
L 3775 2816 
L 3519 1772 
L 4513 1772 
L 4513 1294 
L 3397 1294 
L 3072 0 
L 2572 0 
L 2894 1294 
L 1978 1294 
L 1656 0 
L 1153 0 
L 1478 1294 
L 494 1294 
L 494 1772 
L 1594 1772 
L 1856 2816 
L 850 2816 
L 850 3297 
L 1978 3297 
L 2297 4594 
L 2803 4594 
z
" transform="scale(0.015625)"/>
       <path id="DejaVuSans-64" d="M 2906 2969 
L 2906 4863 
L 3481 4863 
L 3481 0 
L 2906 0 
L 2906 525 
Q 2725 213 2448 61 
Q 2172 -91 1784 -91 
Q 1150 -91 751 415 
Q 353 922 353 1747 
Q 353 2572 751 3078 
Q 1150 3584 1784 3584 
Q 2172 3584 2448 3432 
Q 2725 3281 2906 2969 
z
M 947 1747 
Q 947 1113 1208 752 
Q 1469 391 1925 391 
Q 2381 391 2643 752 
Q 2906 1113 2906 1747 
Q 2906 2381 2643 2742 
Q 2381 3103 1925 3103 
Q 1469 3103 1208 2742 
Q 947 2381 947 1747 
z
" transform="scale(0.015625)"/>
       <path id="DejaVuSans-67" d="M 2906 1791 
Q 2906 2416 2648 2759 
Q 2391 3103 1925 3103 
Q 1463 3103 1205 2759 
Q 947 2416 947 1791 
Q 947 1169 1205 825 
Q 1463 481 1925 481 
Q 2391 481 2648 825 
Q 2906 1169 2906 1791 
z
M 3481 434 
Q 3481 -459 3084 -895 
Q 2688 -1331 1869 -1331 
Q 1566 -1331 1297 -1286 
Q 1028 -1241 775 -1147 
L 775 -588 
Q 1028 -725 1275 -790 
Q 1522 -856 1778 -856 
Q 2344 -856 2625 -561 
Q 2906 -266 2906 331 
L 2906 616 
Q 2728 306 2450 153 
Q 2172 0 1784 0 
Q 1141 0 747 490 
Q 353 981 353 1791 
Q 353 2603 747 3093 
Q 1141 3584 1784 3584 
Q 2172 3584 2450 3431 
Q 2728 3278 2906 2969 
L 2906 3500 
L 3481 3500 
L 3481 434 
z
" transform="scale(0.015625)"/>
       <path id="DejaVuSans-73" d="M 2834 3397 
L 2834 2853 
Q 2591 2978 2328 3040 
Q 2066 3103 1784 3103 
Q 1356 3103 1142 2972 
Q 928 2841 928 2578 
Q 928 2378 1081 2264 
Q 1234 2150 1697 2047 
L 1894 2003 
Q 2506 1872 2764 1633 
Q 3022 1394 3022 966 
Q 3022 478 2636 193 
Q 2250 -91 1575 -91 
Q 1294 -91 989 -36 
Q 684 19 347 128 
L 347 722 
Q 666 556 975 473 
Q 1284 391 1588 391 
Q 1994 391 2212 530 
Q 2431 669 2431 922 
Q 2431 1156 2273 1281 
Q 2116 1406 1581 1522 
L 1381 1569 
Q 847 1681 609 1914 
Q 372 2147 372 2553 
Q 372 3047 722 3315 
Q 1072 3584 1716 3584 
Q 2034 3584 2315 3537 
Q 2597 3491 2834 3397 
z
" transform="scale(0.015625)"/>
       <path id="DejaVuSans-29" d="M 513 4856 
L 1013 4856 
Q 1481 4119 1714 3412 
Q 1947 2706 1947 2009 
Q 1947 1309 1714 600 
Q 1481 -109 1013 -844 
L 513 -844 
Q 928 -128 1133 580 
Q 1338 1288 1338 2009 
Q 1338 2731 1133 3434 
Q 928 4138 513 4856 
z
" transform="scale(0.015625)"/>
      </defs>
      <use xlink:href="#DejaVuSans-53"/>
      <use xlink:href="#DejaVuSans-69" x="63.476562"/>
      <use xlink:href="#DejaVuSans-7a" x="91.259766"/>
      <use xlink:href="#DejaVuSans-65" x="143.75"/>
      <use xlink:href="#DejaVuSans-20" x="205.273438"/>
      <use xlink:href="#DejaVuSans-28" x="237.060547"/>
      <use xlink:href="#DejaVuSans-23" x="276.074219"/>
      <use xlink:href="#DejaVuSans-65" x="359.863281"/>
      <use xlink:href="#DejaVuSans-64" x="421.386719"/>
      <use xlink:href="#DejaVuSans-67" x="484.863281"/>
      <use xlink:href="#DejaVuSans-65" x="548.339844"/>
      <use xlink:href="#DejaVuSans-73" x="609.863281"/>
      <use xlink:href="#DejaVuSans-29" x="661.962891"/>
     </g>
    </g>
   </g>
   <g id="matplotlib.axis_2">
    <g id="ytick_1">
     <g id="line2d_10">
      <defs>
       <path id="m7eb1c47a8f" d="M 0 0 
L -3.5 0 
" style="stroke: #000000; stroke-width: 0.8"/>
      </defs>
      <g>
       <use xlink:href="#m7eb1c47a8f" x="54.02" y="374.225383" style="stroke: #000000; stroke-width: 0.8"/>
      </g>
     </g>
     <g id="text_11">
      <!-- 0.00 -->
      <g transform="translate(24.754375 378.024601)scale(0.1 -0.1)">
       <defs>
        <path id="DejaVuSans-2e" d="M 684 794 
L 1344 794 
L 1344 0 
L 684 0 
L 684 794 
z
" transform="scale(0.015625)"/>
       </defs>
       <use xlink:href="#DejaVuSans-30"/>
       <use xlink:href="#DejaVuSans-2e" x="63.623047"/>
       <use xlink:href="#DejaVuSans-30" x="95.410156"/>
       <use xlink:href="#DejaVuSans-30" x="159.033203"/>
      </g>
     </g>
    </g>
    <g id="ytick_2">
     <g id="line2d_11">
      <g>
       <use xlink:href="#m7eb1c47a8f" x="54.02" y="303.589505" style="stroke: #000000; stroke-width: 0.8"/>
      </g>
     </g>
     <g id="text_12">
      <!-- 0.05 -->
      <g transform="translate(24.754375 307.388723)scale(0.1 -0.1)">
       <use xlink:href="#DejaVuSans-30"/>
       <use xlink:href="#DejaVuSans-2e" x="63.623047"/>
       <use xlink:href="#DejaVuSans-30" x="95.410156"/>
       <use xlink:href="#DejaVuSans-35" x="159.033203"/>
      </g>
     </g>
    </g>
    <g id="ytick_3">
     <g id="line2d_12">
      <g>
       <use xlink:href="#m7eb1c47a8f" x="54.02" y="232.953626" style="stroke: #000000; stroke-width: 0.8"/>
      </g>
     </g>
     <g id="text_13">
      <!-- 0.10 -->
      <g transform="translate(24.754375 236.752845)scale(0.1 -0.1)">
       <use xlink:href="#DejaVuSans-30"/>
       <use xlink:href="#DejaVuSans-2e" x="63.623047"/>
       <use xlink:href="#DejaVuSans-31" x="95.410156"/>
       <use xlink:href="#DejaVuSans-30" x="159.033203"/>
      </g>
     </g>
    </g>
    <g id="ytick_4">
     <g id="line2d_13">
      <g>
       <use xlink:href="#m7eb1c47a8f" x="54.02" y="162.317748" style="stroke: #000000; stroke-width: 0.8"/>
      </g>
     </g>
     <g id="text_14">
      <!-- 0.15 -->
      <g transform="translate(24.754375 166.116967)scale(0.1 -0.1)">
       <use xlink:href="#DejaVuSans-30"/>
       <use xlink:href="#DejaVuSans-2e" x="63.623047"/>
       <use xlink:href="#DejaVuSans-31" x="95.410156"/>
       <use xlink:href="#DejaVuSans-35" x="159.033203"/>
      </g>
     </g>
    </g>
    <g id="ytick_5">
     <g id="line2d_14">
      <g>
       <use xlink:href="#m7eb1c47a8f" x="54.02" y="91.68187" style="stroke: #000000; stroke-width: 0.8"/>
      </g>
     </g>
     <g id="text_15">
      <!-- 0.20 -->
      <g transform="translate(24.754375 95.481089)scale(0.1 -0.1)">
       <use xlink:href="#DejaVuSans-30"/>
       <use xlink:href="#DejaVuSans-2e" x="63.623047"/>
       <use xlink:href="#DejaVuSans-32" x="95.410156"/>
       <use xlink:href="#DejaVuSans-30" x="159.033203"/>
      </g>
     </g>
    </g>
    <g id="text_16">
     <!-- Seconds spent -->
     <g transform="translate(18.674688 245.040469)rotate(-90)scale(0.1 -0.1)">
      <defs>
       <path id="DejaVuSans-63" d="M 3122 3366 
L 3122 2828 
Q 2878 2963 2633 3030 
Q 2388 3097 2138 3097 
Q 1578 3097 1268 2742 
Q 959 2388 959 1747 
Q 959 1106 1268 751 
Q 1578 397 2138 397 
Q 2388 397 2633 464 
Q 2878 531 3122 666 
L 3122 134 
Q 2881 22 2623 -34 
Q 2366 -91 2075 -91 
Q 1284 -91 818 406 
Q 353 903 353 1747 
Q 353 2603 823 3093 
Q 1294 3584 2113 3584 
Q 2378 3584 2631 3529 
Q 2884 3475 3122 3366 
z
" transform="scale(0.015625)"/>
       <path id="DejaVuSans-6f" d="M 1959 3097 
Q 1497 3097 1228 2736 
Q 959 2375 959 1747 
Q 959 1119 1226 758 
Q 1494 397 1959 397 
Q 2419 397 2687 759 
Q 2956 1122 2956 1747 
Q 2956 2369 2687 2733 
Q 2419 3097 1959 3097 
z
M 1959 3584 
Q 2709 3584 3137 3096 
Q 3566 2609 3566 1747 
Q 3566 888 3137 398 
Q 2709 -91 1959 -91 
Q 1206 -91 779 398 
Q 353 888 353 1747 
Q 353 2609 779 3096 
Q 1206 3584 1959 3584 
z
" transform="scale(0.015625)"/>
       <path id="DejaVuSans-6e" d="M 3513 2113 
L 3513 0 
L 2938 0 
L 2938 2094 
Q 2938 2591 2744 2837 
Q 2550 3084 2163 3084 
Q 1697 3084 1428 2787 
Q 1159 2491 1159 1978 
L 1159 0 
L 581 0 
L 581 3500 
L 1159 3500 
L 1159 2956 
Q 1366 3272 1645 3428 
Q 1925 3584 2291 3584 
Q 2894 3584 3203 3211 
Q 3513 2838 3513 2113 
z
" transform="scale(0.015625)"/>
       <path id="DejaVuSans-70" d="M 1159 525 
L 1159 -1331 
L 581 -1331 
L 581 3500 
L 1159 3500 
L 1159 2969 
Q 1341 3281 1617 3432 
Q 1894 3584 2278 3584 
Q 2916 3584 3314 3078 
Q 3713 2572 3713 1747 
Q 3713 922 3314 415 
Q 2916 -91 2278 -91 
Q 1894 -91 1617 61 
Q 1341 213 1159 525 
z
M 3116 1747 
Q 3116 2381 2855 2742 
Q 2594 3103 2138 3103 
Q 1681 3103 1420 2742 
Q 1159 2381 1159 1747 
Q 1159 1113 1420 752 
Q 1681 391 2138 391 
Q 2594 391 2855 752 
Q 3116 1113 3116 1747 
z
" transform="scale(0.015625)"/>
       <path id="DejaVuSans-74" d="M 1172 4494 
L 1172 3500 
L 2356 3500 
L 2356 3053 
L 1172 3053 
L 1172 1153 
Q 1172 725 1289 603 
Q 1406 481 1766 481 
L 2356 481 
L 2356 0 
L 1766 0 
Q 1100 0 847 248 
Q 594 497 594 1153 
L 594 3053 
L 172 3053 
L 172 3500 
L 594 3500 
L 594 4494 
L 1172 4494 
z
" transform="scale(0.015625)"/>
      </defs>
      <use xlink:href="#DejaVuSans-53"/>
      <use xlink:href="#DejaVuSans-65" x="63.476562"/>
      <use xlink:href="#DejaVuSans-63" x="125"/>
      <use xlink:href="#DejaVuSans-6f" x="179.980469"/>
      <use xlink:href="#DejaVuSans-6e" x="241.162109"/>
      <use xlink:href="#DejaVuSans-64" x="304.541016"/>
      <use xlink:href="#DejaVuSans-73" x="368.017578"/>
      <use xlink:href="#DejaVuSans-20" x="420.117188"/>
      <use xlink:href="#DejaVuSans-73" x="451.904297"/>
      <use xlink:href="#DejaVuSans-70" x="504.003906"/>
      <use xlink:href="#DejaVuSans-65" x="567.480469"/>
      <use xlink:href="#DejaVuSans-6e" x="629.003906"/>
      <use xlink:href="#DejaVuSans-74" x="692.382812"/>
     </g>
    </g>
   </g>
   <g id="LineCollection_1">
    <path d="M 77.255455 373.423242 
L 77.255455 373.335229 
" clip-path="url(#pa6ebc073c4)" style="fill: none; stroke: #1f77b4; stroke-width: 1.5"/>
    <path d="M 79.590676 372.860556 
L 79.590676 372.765622 
" clip-path="url(#pa6ebc073c4)" style="fill: none; stroke: #1f77b4; stroke-width: 1.5"/>
    <path d="M 81.925898 372.227941 
L 81.925898 372.216498 
" clip-path="url(#pa6ebc073c4)" style="fill: none; stroke: #1f77b4; stroke-width: 1.5"/>
    <path d="M 84.261119 371.571593 
L 84.261119 371.526386 
" clip-path="url(#pa6ebc073c4)" style="fill: none; stroke: #1f77b4; stroke-width: 1.5"/>
    <path d="M 86.596341 370.939119 
L 86.596341 370.89589 
" clip-path="url(#pa6ebc073c4)" style="fill: none; stroke: #1f77b4; stroke-width: 1.5"/>
    <path d="M 88.931562 370.256777 
L 88.931562 370.239259 
" clip-path="url(#pa6ebc073c4)" style="fill: none; stroke: #1f77b4; stroke-width: 1.5"/>
    <path d="M 91.266784 369.662305 
L 91.266784 369.629247 
" clip-path="url(#pa6ebc073c4)" style="fill: none; stroke: #1f77b4; stroke-width: 1.5"/>
    <path d="M 93.602005 369.055543 
L 93.602005 368.873867 
" clip-path="url(#pa6ebc073c4)" style="fill: none; stroke: #1f77b4; stroke-width: 1.5"/>
    <path d="M 95.937227 368.397075 
L 95.937227 368.350314 
" clip-path="url(#pa6ebc073c4)" style="fill: none; stroke: #1f77b4; stroke-width: 1.5"/>
    <path d="M 98.272449 367.726741 
L 98.272449 367.649748 
" clip-path="url(#pa6ebc073c4)" style="fill: none; stroke: #1f77b4; stroke-width: 1.5"/>
    <path d="M 121.624664 360.484444 
L 121.624664 360.310962 
" clip-path="url(#pa6ebc073c4)" style="fill: none; stroke: #1f77b4; stroke-width: 1.5"/>
    <path d="M 144.97688 352.584104 
L 144.97688 352.538473 
" clip-path="url(#pa6ebc073c4)" style="fill: none; stroke: #1f77b4; stroke-width: 1.5"/>
    <path d="M 168.329095 343.013507 
L 168.329095 341.951567 
" clip-path="url(#pa6ebc073c4)" style="fill: none; stroke: #1f77b4; stroke-width: 1.5"/>
    <path d="M 191.681311 334.533953 
L 191.681311 334.230218 
" clip-path="url(#pa6ebc073c4)" style="fill: none; stroke: #1f77b4; stroke-width: 1.5"/>
    <path d="M 215.033527 324.118692 
L 215.033527 323.707592 
" clip-path="url(#pa6ebc073c4)" style="fill: none; stroke: #1f77b4; stroke-width: 1.5"/>
    <path d="M 238.385742 312.857356 
L 238.385742 311.930472 
" clip-path="url(#pa6ebc073c4)" style="fill: none; stroke: #1f77b4; stroke-width: 1.5"/>
    <path d="M 261.737958 300.525744 
L 261.737958 299.52893 
" clip-path="url(#pa6ebc073c4)" style="fill: none; stroke: #1f77b4; stroke-width: 1.5"/>
    <path d="M 285.090174 288.80259 
L 285.090174 277.170839 
" clip-path="url(#pa6ebc073c4)" style="fill: none; stroke: #1f77b4; stroke-width: 1.5"/>
    <path d="M 308.442389 273.91848 
L 308.442389 272.104551 
" clip-path="url(#pa6ebc073c4)" style="fill: none; stroke: #1f77b4; stroke-width: 1.5"/>
    <path d="M 366.822928 235.975288 
L 366.822928 232.234398 
" clip-path="url(#pa6ebc073c4)" style="fill: none; stroke: #1f77b4; stroke-width: 1.5"/>
    <path d="M 425.203467 188.844346 
L 425.203467 185.456084 
" clip-path="url(#pa6ebc073c4)" style="fill: none; stroke: #1f77b4; stroke-width: 1.5"/>
    <path d="M 483.584006 138.617433 
L 483.584006 136.326712 
" clip-path="url(#pa6ebc073c4)" style="fill: none; stroke: #1f77b4; stroke-width: 1.5"/>
    <path d="M 541.964545 82.111288 
L 541.964545 77.541839 
" clip-path="url(#pa6ebc073c4)" style="fill: none; stroke: #1f77b4; stroke-width: 1.5"/>
   </g>
   <g id="line2d_15">
    <defs>
     <path id="md8547b9e7e" d="M 3 0 
L -3 -0 
" style="stroke: #1f77b4"/>
    </defs>
    <g clip-path="url(#pa6ebc073c4)">
     <use xlink:href="#md8547b9e7e" x="77.255455" y="373.423242" style="fill: #1f77b4; stroke: #1f77b4"/>
     <use xlink:href="#md8547b9e7e" x="79.590676" y="372.860556" style="fill: #1f77b4; stroke: #1f77b4"/>
     <use xlink:href="#md8547b9e7e" x="81.925898" y="372.227941" style="fill: #1f77b4; stroke: #1f77b4"/>
     <use xlink:href="#md8547b9e7e" x="84.261119" y="371.571593" style="fill: #1f77b4; stroke: #1f77b4"/>
     <use xlink:href="#md8547b9e7e" x="86.596341" y="370.939119" style="fill: #1f77b4; stroke: #1f77b4"/>
     <use xlink:href="#md8547b9e7e" x="88.931562" y="370.256777" style="fill: #1f77b4; stroke: #1f77b4"/>
     <use xlink:href="#md8547b9e7e" x="91.266784" y="369.662305" style="fill: #1f77b4; stroke: #1f77b4"/>
     <use xlink:href="#md8547b9e7e" x="93.602005" y="369.055543" style="fill: #1f77b4; stroke: #1f77b4"/>
     <use xlink:href="#md8547b9e7e" x="95.937227" y="368.397075" style="fill: #1f77b4; stroke: #1f77b4"/>
     <use xlink:href="#md8547b9e7e" x="98.272449" y="367.726741" style="fill: #1f77b4; stroke: #1f77b4"/>
     <use xlink:href="#md8547b9e7e" x="121.624664" y="360.484444" style="fill: #1f77b4; stroke: #1f77b4"/>
     <use xlink:href="#md8547b9e7e" x="144.97688" y="352.584104" style="fill: #1f77b4; stroke: #1f77b4"/>
     <use xlink:href="#md8547b9e7e" x="168.329095" y="343.013507" style="fill: #1f77b4; stroke: #1f77b4"/>
     <use xlink:href="#md8547b9e7e" x="191.681311" y="334.533953" style="fill: #1f77b4; stroke: #1f77b4"/>
     <use xlink:href="#md8547b9e7e" x="215.033527" y="324.118692" style="fill: #1f77b4; stroke: #1f77b4"/>
     <use xlink:href="#md8547b9e7e" x="238.385742" y="312.857356" style="fill: #1f77b4; stroke: #1f77b4"/>
     <use xlink:href="#md8547b9e7e" x="261.737958" y="300.525744" style="fill: #1f77b4; stroke: #1f77b4"/>
     <use xlink:href="#md8547b9e7e" x="285.090174" y="288.80259" style="fill: #1f77b4; stroke: #1f77b4"/>
     <use xlink:href="#md8547b9e7e" x="308.442389" y="273.91848" style="fill: #1f77b4; stroke: #1f77b4"/>
     <use xlink:href="#md8547b9e7e" x="366.822928" y="235.975288" style="fill: #1f77b4; stroke: #1f77b4"/>
     <use xlink:href="#md8547b9e7e" x="425.203467" y="188.844346" style="fill: #1f77b4; stroke: #1f77b4"/>
     <use xlink:href="#md8547b9e7e" x="483.584006" y="138.617433" style="fill: #1f77b4; stroke: #1f77b4"/>
     <use xlink:href="#md8547b9e7e" x="541.964545" y="82.111288" style="fill: #1f77b4; stroke: #1f77b4"/>
    </g>
   </g>
   <g id="line2d_16">
    <g clip-path="url(#pa6ebc073c4)">
     <use xlink:href="#md8547b9e7e" x="77.255455" y="373.335229" style="fill: #1f77b4; stroke: #1f77b4"/>
     <use xlink:href="#md8547b9e7e" x="79.590676" y="372.765622" style="fill: #1f77b4; stroke: #1f77b4"/>
     <use xlink:href="#md8547b9e7e" x="81.925898" y="372.216498" style="fill: #1f77b4; stroke: #1f77b4"/>
     <use xlink:href="#md8547b9e7e" x="84.261119" y="371.526386" style="fill: #1f77b4; stroke: #1f77b4"/>
     <use xlink:href="#md8547b9e7e" x="86.596341" y="370.89589" style="fill: #1f77b4; stroke: #1f77b4"/>
     <use xlink:href="#md8547b9e7e" x="88.931562" y="370.239259" style="fill: #1f77b4; stroke: #1f77b4"/>
     <use xlink:href="#md8547b9e7e" x="91.266784" y="369.629247" style="fill: #1f77b4; stroke: #1f77b4"/>
     <use xlink:href="#md8547b9e7e" x="93.602005" y="368.873867" style="fill: #1f77b4; stroke: #1f77b4"/>
     <use xlink:href="#md8547b9e7e" x="95.937227" y="368.350314" style="fill: #1f77b4; stroke: #1f77b4"/>
     <use xlink:href="#md8547b9e7e" x="98.272449" y="367.649748" style="fill: #1f77b4; stroke: #1f77b4"/>
     <use xlink:href="#md8547b9e7e" x="121.624664" y="360.310962" style="fill: #1f77b4; stroke: #1f77b4"/>
     <use xlink:href="#md8547b9e7e" x="144.97688" y="352.538473" style="fill: #1f77b4; stroke: #1f77b4"/>
     <use xlink:href="#md8547b9e7e" x="168.329095" y="341.951567" style="fill: #1f77b4; stroke: #1f77b4"/>
     <use xlink:href="#md8547b9e7e" x="191.681311" y="334.230218" style="fill: #1f77b4; stroke: #1f77b4"/>
     <use xlink:href="#md8547b9e7e" x="215.033527" y="323.707592" style="fill: #1f77b4; stroke: #1f77b4"/>
     <use xlink:href="#md8547b9e7e" x="238.385742" y="311.930472" style="fill: #1f77b4; stroke: #1f77b4"/>
     <use xlink:href="#md8547b9e7e" x="261.737958" y="299.52893" style="fill: #1f77b4; stroke: #1f77b4"/>
     <use xlink:href="#md8547b9e7e" x="285.090174" y="277.170839" style="fill: #1f77b4; stroke: #1f77b4"/>
     <use xlink:href="#md8547b9e7e" x="308.442389" y="272.104551" style="fill: #1f77b4; stroke: #1f77b4"/>
     <use xlink:href="#md8547b9e7e" x="366.822928" y="232.234398" style="fill: #1f77b4; stroke: #1f77b4"/>
     <use xlink:href="#md8547b9e7e" x="425.203467" y="185.456084" style="fill: #1f77b4; stroke: #1f77b4"/>
     <use xlink:href="#md8547b9e7e" x="483.584006" y="136.326712" style="fill: #1f77b4; stroke: #1f77b4"/>
     <use xlink:href="#md8547b9e7e" x="541.964545" y="77.541839" style="fill: #1f77b4; stroke: #1f77b4"/>
    </g>
   </g>
   <g id="LineCollection_2">
    <path d="M 77.255455 373.532727 
L 77.255455 373.152848 
" clip-path="url(#pa6ebc073c4)" style="fill: none; stroke: #ff7f0e; stroke-width: 1.5"/>
    <path d="M 79.590676 372.906187 
L 79.590676 372.861686 
" clip-path="url(#pa6ebc073c4)" style="fill: none; stroke: #ff7f0e; stroke-width: 1.5"/>
    <path d="M 81.925898 372.322593 
L 81.925898 372.278375 
" clip-path="url(#pa6ebc073c4)" style="fill: none; stroke: #ff7f0e; stroke-width: 1.5"/>
    <path d="M 84.261119 371.742108 
L 84.261119 371.721482 
" clip-path="url(#pa6ebc073c4)" style="fill: none; stroke: #ff7f0e; stroke-width: 1.5"/>
    <path d="M 86.596341 371.173489 
L 86.596341 371.155689 
" clip-path="url(#pa6ebc073c4)" style="fill: none; stroke: #ff7f0e; stroke-width: 1.5"/>
    <path d="M 88.931562 370.58481 
L 88.931562 370.541015 
" clip-path="url(#pa6ebc073c4)" style="fill: none; stroke: #ff7f0e; stroke-width: 1.5"/>
    <path d="M 91.266784 370.151247 
L 91.266784 370.143194 
" clip-path="url(#pa6ebc073c4)" style="fill: none; stroke: #ff7f0e; stroke-width: 1.5"/>
    <path d="M 93.602005 369.58178 
L 93.602005 369.423556 
" clip-path="url(#pa6ebc073c4)" style="fill: none; stroke: #ff7f0e; stroke-width: 1.5"/>
    <path d="M 95.937227 369.007934 
L 95.937227 368.97417 
" clip-path="url(#pa6ebc073c4)" style="fill: none; stroke: #ff7f0e; stroke-width: 1.5"/>
    <path d="M 98.272449 368.495683 
L 98.272449 368.405693 
" clip-path="url(#pa6ebc073c4)" style="fill: none; stroke: #ff7f0e; stroke-width: 1.5"/>
    <path d="M 121.624664 362.571876 
L 121.624664 362.371128 
" clip-path="url(#pa6ebc073c4)" style="fill: none; stroke: #ff7f0e; stroke-width: 1.5"/>
    <path d="M 144.97688 355.922638 
L 144.97688 355.867824 
" clip-path="url(#pa6ebc073c4)" style="fill: none; stroke: #ff7f0e; stroke-width: 1.5"/>
    <path d="M 168.329095 348.185184 
L 168.329095 347.491681 
" clip-path="url(#pa6ebc073c4)" style="fill: none; stroke: #ff7f0e; stroke-width: 1.5"/>
    <path d="M 191.681311 340.065166 
L 191.681311 339.89126 
" clip-path="url(#pa6ebc073c4)" style="fill: none; stroke: #ff7f0e; stroke-width: 1.5"/>
    <path d="M 215.033527 331.059798 
L 215.033527 330.837012 
" clip-path="url(#pa6ebc073c4)" style="fill: none; stroke: #ff7f0e; stroke-width: 1.5"/>
    <path d="M 238.385742 320.818725 
L 238.385742 320.411863 
" clip-path="url(#pa6ebc073c4)" style="fill: none; stroke: #ff7f0e; stroke-width: 1.5"/>
    <path d="M 261.737958 309.335592 
L 261.737958 308.197365 
" clip-path="url(#pa6ebc073c4)" style="fill: none; stroke: #ff7f0e; stroke-width: 1.5"/>
    <path d="M 285.090174 296.804222 
L 285.090174 296.243373 
" clip-path="url(#pa6ebc073c4)" style="fill: none; stroke: #ff7f0e; stroke-width: 1.5"/>
    <path d="M 308.442389 284.728877 
L 308.442389 282.059406 
" clip-path="url(#pa6ebc073c4)" style="fill: none; stroke: #ff7f0e; stroke-width: 1.5"/>
    <path d="M 366.822928 245.637437 
L 366.822928 242.100125 
" clip-path="url(#pa6ebc073c4)" style="fill: none; stroke: #ff7f0e; stroke-width: 1.5"/>
    <path d="M 425.203467 203.47204 
L 425.203467 195.149446 
" clip-path="url(#pa6ebc073c4)" style="fill: none; stroke: #ff7f0e; stroke-width: 1.5"/>
    <path d="M 483.584006 149.33996 
L 483.584006 148.644903 
" clip-path="url(#pa6ebc073c4)" style="fill: none; stroke: #ff7f0e; stroke-width: 1.5"/>
    <path d="M 541.964545 85.033183 
L 541.964545 81.482487 
" clip-path="url(#pa6ebc073c4)" style="fill: none; stroke: #ff7f0e; stroke-width: 1.5"/>
   </g>
   <g id="line2d_17">
    <defs>
     <path id="m7f04267d81" d="M 3 0 
L -3 -0 
" style="stroke: #ff7f0e"/>
    </defs>
    <g clip-path="url(#pa6ebc073c4)">
     <use xlink:href="#m7f04267d81" x="77.255455" y="373.532727" style="fill: #ff7f0e; stroke: #ff7f0e"/>
     <use xlink:href="#m7f04267d81" x="79.590676" y="372.906187" style="fill: #ff7f0e; stroke: #ff7f0e"/>
     <use xlink:href="#m7f04267d81" x="81.925898" y="372.322593" style="fill: #ff7f0e; stroke: #ff7f0e"/>
     <use xlink:href="#m7f04267d81" x="84.261119" y="371.742108" style="fill: #ff7f0e; stroke: #ff7f0e"/>
     <use xlink:href="#m7f04267d81" x="86.596341" y="371.173489" style="fill: #ff7f0e; stroke: #ff7f0e"/>
     <use xlink:href="#m7f04267d81" x="88.931562" y="370.58481" style="fill: #ff7f0e; stroke: #ff7f0e"/>
     <use xlink:href="#m7f04267d81" x="91.266784" y="370.151247" style="fill: #ff7f0e; stroke: #ff7f0e"/>
     <use xlink:href="#m7f04267d81" x="93.602005" y="369.58178" style="fill: #ff7f0e; stroke: #ff7f0e"/>
     <use xlink:href="#m7f04267d81" x="95.937227" y="369.007934" style="fill: #ff7f0e; stroke: #ff7f0e"/>
     <use xlink:href="#m7f04267d81" x="98.272449" y="368.495683" style="fill: #ff7f0e; stroke: #ff7f0e"/>
     <use xlink:href="#m7f04267d81" x="121.624664" y="362.571876" style="fill: #ff7f0e; stroke: #ff7f0e"/>
     <use xlink:href="#m7f04267d81" x="144.97688" y="355.922638" style="fill: #ff7f0e; stroke: #ff7f0e"/>
     <use xlink:href="#m7f04267d81" x="168.329095" y="348.185184" style="fill: #ff7f0e; stroke: #ff7f0e"/>
     <use xlink:href="#m7f04267d81" x="191.681311" y="340.065166" style="fill: #ff7f0e; stroke: #ff7f0e"/>
     <use xlink:href="#m7f04267d81" x="215.033527" y="331.059798" style="fill: #ff7f0e; stroke: #ff7f0e"/>
     <use xlink:href="#m7f04267d81" x="238.385742" y="320.818725" style="fill: #ff7f0e; stroke: #ff7f0e"/>
     <use xlink:href="#m7f04267d81" x="261.737958" y="309.335592" style="fill: #ff7f0e; stroke: #ff7f0e"/>
     <use xlink:href="#m7f04267d81" x="285.090174" y="296.804222" style="fill: #ff7f0e; stroke: #ff7f0e"/>
     <use xlink:href="#m7f04267d81" x="308.442389" y="284.728877" style="fill: #ff7f0e; stroke: #ff7f0e"/>
     <use xlink:href="#m7f04267d81" x="366.822928" y="245.637437" style="fill: #ff7f0e; stroke: #ff7f0e"/>
     <use xlink:href="#m7f04267d81" x="425.203467" y="203.47204" style="fill: #ff7f0e; stroke: #ff7f0e"/>
     <use xlink:href="#m7f04267d81" x="483.584006" y="149.33996" style="fill: #ff7f0e; stroke: #ff7f0e"/>
     <use xlink:href="#m7f04267d81" x="541.964545" y="85.033183" style="fill: #ff7f0e; stroke: #ff7f0e"/>
    </g>
   </g>
   <g id="line2d_18">
    <g clip-path="url(#pa6ebc073c4)">
     <use xlink:href="#m7f04267d81" x="77.255455" y="373.152848" style="fill: #ff7f0e; stroke: #ff7f0e"/>
     <use xlink:href="#m7f04267d81" x="79.590676" y="372.861686" style="fill: #ff7f0e; stroke: #ff7f0e"/>
     <use xlink:href="#m7f04267d81" x="81.925898" y="372.278375" style="fill: #ff7f0e; stroke: #ff7f0e"/>
     <use xlink:href="#m7f04267d81" x="84.261119" y="371.721482" style="fill: #ff7f0e; stroke: #ff7f0e"/>
     <use xlink:href="#m7f04267d81" x="86.596341" y="371.155689" style="fill: #ff7f0e; stroke: #ff7f0e"/>
     <use xlink:href="#m7f04267d81" x="88.931562" y="370.541015" style="fill: #ff7f0e; stroke: #ff7f0e"/>
     <use xlink:href="#m7f04267d81" x="91.266784" y="370.143194" style="fill: #ff7f0e; stroke: #ff7f0e"/>
     <use xlink:href="#m7f04267d81" x="93.602005" y="369.423556" style="fill: #ff7f0e; stroke: #ff7f0e"/>
     <use xlink:href="#m7f04267d81" x="95.937227" y="368.97417" style="fill: #ff7f0e; stroke: #ff7f0e"/>
     <use xlink:href="#m7f04267d81" x="98.272449" y="368.405693" style="fill: #ff7f0e; stroke: #ff7f0e"/>
     <use xlink:href="#m7f04267d81" x="121.624664" y="362.371128" style="fill: #ff7f0e; stroke: #ff7f0e"/>
     <use xlink:href="#m7f04267d81" x="144.97688" y="355.867824" style="fill: #ff7f0e; stroke: #ff7f0e"/>
     <use xlink:href="#m7f04267d81" x="168.329095" y="347.491681" style="fill: #ff7f0e; stroke: #ff7f0e"/>
     <use xlink:href="#m7f04267d81" x="191.681311" y="339.89126" style="fill: #ff7f0e; stroke: #ff7f0e"/>
     <use xlink:href="#m7f04267d81" x="215.033527" y="330.837012" style="fill: #ff7f0e; stroke: #ff7f0e"/>
     <use xlink:href="#m7f04267d81" x="238.385742" y="320.411863" style="fill: #ff7f0e; stroke: #ff7f0e"/>
     <use xlink:href="#m7f04267d81" x="261.737958" y="308.197365" style="fill: #ff7f0e; stroke: #ff7f0e"/>
     <use xlink:href="#m7f04267d81" x="285.090174" y="296.243373" style="fill: #ff7f0e; stroke: #ff7f0e"/>
     <use xlink:href="#m7f04267d81" x="308.442389" y="282.059406" style="fill: #ff7f0e; stroke: #ff7f0e"/>
     <use xlink:href="#m7f04267d81" x="366.822928" y="242.100125" style="fill: #ff7f0e; stroke: #ff7f0e"/>
     <use xlink:href="#m7f04267d81" x="425.203467" y="195.149446" style="fill: #ff7f0e; stroke: #ff7f0e"/>
     <use xlink:href="#m7f04267d81" x="483.584006" y="148.644903" style="fill: #ff7f0e; stroke: #ff7f0e"/>
     <use xlink:href="#m7f04267d81" x="541.964545" y="81.482487" style="fill: #ff7f0e; stroke: #ff7f0e"/>
    </g>
   </g>
   <g id="LineCollection_3">
    <path d="M 77.255455 373.500517 
L 77.255455 373.446128 
" clip-path="url(#pa6ebc073c4)" style="fill: none; stroke: #2ca02c; stroke-width: 1.5"/>
    <path d="M 79.590676 372.903503 
L 79.590676 372.886692 
" clip-path="url(#pa6ebc073c4)" style="fill: none; stroke: #2ca02c; stroke-width: 1.5"/>
    <path d="M 81.925898 372.325278 
L 81.925898 372.252946 
" clip-path="url(#pa6ebc073c4)" style="fill: none; stroke: #2ca02c; stroke-width: 1.5"/>
    <path d="M 84.261119 371.749595 
L 84.261119 371.72572 
" clip-path="url(#pa6ebc073c4)" style="fill: none; stroke: #2ca02c; stroke-width: 1.5"/>
    <path d="M 86.596341 371.171087 
L 86.596341 371.152439 
" clip-path="url(#pa6ebc073c4)" style="fill: none; stroke: #2ca02c; stroke-width: 1.5"/>
    <path d="M 88.931562 370.597948 
L 88.931562 370.422206 
" clip-path="url(#pa6ebc073c4)" style="fill: none; stroke: #2ca02c; stroke-width: 1.5"/>
    <path d="M 91.266784 370.151812 
L 91.266784 370.135142 
" clip-path="url(#pa6ebc073c4)" style="fill: none; stroke: #2ca02c; stroke-width: 1.5"/>
    <path d="M 93.602005 369.568501 
L 93.602005 369.526684 
" clip-path="url(#pa6ebc073c4)" style="fill: none; stroke: #2ca02c; stroke-width: 1.5"/>
    <path d="M 95.937227 368.966118 
L 95.937227 368.933908 
" clip-path="url(#pa6ebc073c4)" style="fill: none; stroke: #2ca02c; stroke-width: 1.5"/>
    <path d="M 98.272449 368.472938 
L 98.272449 368.224724 
" clip-path="url(#pa6ebc073c4)" style="fill: none; stroke: #2ca02c; stroke-width: 1.5"/>
    <path d="M 121.624664 362.641664 
L 121.624664 362.518051 
" clip-path="url(#pa6ebc073c4)" style="fill: none; stroke: #2ca02c; stroke-width: 1.5"/>
    <path d="M 144.97688 356.030569 
L 144.97688 355.75961 
" clip-path="url(#pa6ebc073c4)" style="fill: none; stroke: #2ca02c; stroke-width: 1.5"/>
    <path d="M 168.329095 348.035153 
L 168.329095 347.615576 
" clip-path="url(#pa6ebc073c4)" style="fill: none; stroke: #2ca02c; stroke-width: 1.5"/>
    <path d="M 191.681311 339.98676 
L 191.681311 339.049422 
" clip-path="url(#pa6ebc073c4)" style="fill: none; stroke: #2ca02c; stroke-width: 1.5"/>
    <path d="M 215.033527 330.711845 
L 215.033527 330.548959 
" clip-path="url(#pa6ebc073c4)" style="fill: none; stroke: #2ca02c; stroke-width: 1.5"/>
    <path d="M 238.385742 321.395962 
L 238.385742 320.228633 
" clip-path="url(#pa6ebc073c4)" style="fill: none; stroke: #2ca02c; stroke-width: 1.5"/>
    <path d="M 261.737958 308.543481 
L 261.737958 307.37248 
" clip-path="url(#pa6ebc073c4)" style="fill: none; stroke: #2ca02c; stroke-width: 1.5"/>
    <path d="M 285.090174 296.452032 
L 285.090174 294.504883 
" clip-path="url(#pa6ebc073c4)" style="fill: none; stroke: #2ca02c; stroke-width: 1.5"/>
    <path d="M 308.442389 281.083784 
L 308.442389 278.793054 
" clip-path="url(#pa6ebc073c4)" style="fill: none; stroke: #2ca02c; stroke-width: 1.5"/>
    <path d="M 366.822928 239.377677 
L 366.822928 237.325564 
" clip-path="url(#pa6ebc073c4)" style="fill: none; stroke: #2ca02c; stroke-width: 1.5"/>
    <path d="M 425.203467 188.056615 
L 425.203467 184.910775 
" clip-path="url(#pa6ebc073c4)" style="fill: none; stroke: #2ca02c; stroke-width: 1.5"/>
    <path d="M 483.584006 127.331092 
L 483.584006 125.437626 
" clip-path="url(#pa6ebc073c4)" style="fill: none; stroke: #2ca02c; stroke-width: 1.5"/>
    <path d="M 541.964545 50.233726 
L 541.964545 43.387273 
" clip-path="url(#pa6ebc073c4)" style="fill: none; stroke: #2ca02c; stroke-width: 1.5"/>
   </g>
   <g id="line2d_19">
    <defs>
     <path id="mf3fc7103a7" d="M 3 0 
L -3 -0 
" style="stroke: #2ca02c"/>
    </defs>
    <g clip-path="url(#pa6ebc073c4)">
     <use xlink:href="#mf3fc7103a7" x="77.255455" y="373.500517" style="fill: #2ca02c; stroke: #2ca02c"/>
     <use xlink:href="#mf3fc7103a7" x="79.590676" y="372.903503" style="fill: #2ca02c; stroke: #2ca02c"/>
     <use xlink:href="#mf3fc7103a7" x="81.925898" y="372.325278" style="fill: #2ca02c; stroke: #2ca02c"/>
     <use xlink:href="#mf3fc7103a7" x="84.261119" y="371.749595" style="fill: #2ca02c; stroke: #2ca02c"/>
     <use xlink:href="#mf3fc7103a7" x="86.596341" y="371.171087" style="fill: #2ca02c; stroke: #2ca02c"/>
     <use xlink:href="#mf3fc7103a7" x="88.931562" y="370.597948" style="fill: #2ca02c; stroke: #2ca02c"/>
     <use xlink:href="#mf3fc7103a7" x="91.266784" y="370.151812" style="fill: #2ca02c; stroke: #2ca02c"/>
     <use xlink:href="#mf3fc7103a7" x="93.602005" y="369.568501" style="fill: #2ca02c; stroke: #2ca02c"/>
     <use xlink:href="#mf3fc7103a7" x="95.937227" y="368.966118" style="fill: #2ca02c; stroke: #2ca02c"/>
     <use xlink:href="#mf3fc7103a7" x="98.272449" y="368.472938" style="fill: #2ca02c; stroke: #2ca02c"/>
     <use xlink:href="#mf3fc7103a7" x="121.624664" y="362.641664" style="fill: #2ca02c; stroke: #2ca02c"/>
     <use xlink:href="#mf3fc7103a7" x="144.97688" y="356.030569" style="fill: #2ca02c; stroke: #2ca02c"/>
     <use xlink:href="#mf3fc7103a7" x="168.329095" y="348.035153" style="fill: #2ca02c; stroke: #2ca02c"/>
     <use xlink:href="#mf3fc7103a7" x="191.681311" y="339.98676" style="fill: #2ca02c; stroke: #2ca02c"/>
     <use xlink:href="#mf3fc7103a7" x="215.033527" y="330.711845" style="fill: #2ca02c; stroke: #2ca02c"/>
     <use xlink:href="#mf3fc7103a7" x="238.385742" y="321.395962" style="fill: #2ca02c; stroke: #2ca02c"/>
     <use xlink:href="#mf3fc7103a7" x="261.737958" y="308.543481" style="fill: #2ca02c; stroke: #2ca02c"/>
     <use xlink:href="#mf3fc7103a7" x="285.090174" y="296.452032" style="fill: #2ca02c; stroke: #2ca02c"/>
     <use xlink:href="#mf3fc7103a7" x="308.442389" y="281.083784" style="fill: #2ca02c; stroke: #2ca02c"/>
     <use xlink:href="#mf3fc7103a7" x="366.822928" y="239.377677" style="fill: #2ca02c; stroke: #2ca02c"/>
     <use xlink:href="#mf3fc7103a7" x="425.203467" y="188.056615" style="fill: #2ca02c; stroke: #2ca02c"/>
     <use xlink:href="#mf3fc7103a7" x="483.584006" y="127.331092" style="fill: #2ca02c; stroke: #2ca02c"/>
     <use xlink:href="#mf3fc7103a7" x="541.964545" y="50.233726" style="fill: #2ca02c; stroke: #2ca02c"/>
    </g>
   </g>
   <g id="line2d_20">
    <g clip-path="url(#pa6ebc073c4)">
     <use xlink:href="#mf3fc7103a7" x="77.255455" y="373.446128" style="fill: #2ca02c; stroke: #2ca02c"/>
     <use xlink:href="#mf3fc7103a7" x="79.590676" y="372.886692" style="fill: #2ca02c; stroke: #2ca02c"/>
     <use xlink:href="#mf3fc7103a7" x="81.925898" y="372.252946" style="fill: #2ca02c; stroke: #2ca02c"/>
     <use xlink:href="#mf3fc7103a7" x="84.261119" y="371.72572" style="fill: #2ca02c; stroke: #2ca02c"/>
     <use xlink:href="#mf3fc7103a7" x="86.596341" y="371.152439" style="fill: #2ca02c; stroke: #2ca02c"/>
     <use xlink:href="#mf3fc7103a7" x="88.931562" y="370.422206" style="fill: #2ca02c; stroke: #2ca02c"/>
     <use xlink:href="#mf3fc7103a7" x="91.266784" y="370.135142" style="fill: #2ca02c; stroke: #2ca02c"/>
     <use xlink:href="#mf3fc7103a7" x="93.602005" y="369.526684" style="fill: #2ca02c; stroke: #2ca02c"/>
     <use xlink:href="#mf3fc7103a7" x="95.937227" y="368.933908" style="fill: #2ca02c; stroke: #2ca02c"/>
     <use xlink:href="#mf3fc7103a7" x="98.272449" y="368.224724" style="fill: #2ca02c; stroke: #2ca02c"/>
     <use xlink:href="#mf3fc7103a7" x="121.624664" y="362.518051" style="fill: #2ca02c; stroke: #2ca02c"/>
     <use xlink:href="#mf3fc7103a7" x="144.97688" y="355.75961" style="fill: #2ca02c; stroke: #2ca02c"/>
     <use xlink:href="#mf3fc7103a7" x="168.329095" y="347.615576" style="fill: #2ca02c; stroke: #2ca02c"/>
     <use xlink:href="#mf3fc7103a7" x="191.681311" y="339.049422" style="fill: #2ca02c; stroke: #2ca02c"/>
     <use xlink:href="#mf3fc7103a7" x="215.033527" y="330.548959" style="fill: #2ca02c; stroke: #2ca02c"/>
     <use xlink:href="#mf3fc7103a7" x="238.385742" y="320.228633" style="fill: #2ca02c; stroke: #2ca02c"/>
     <use xlink:href="#mf3fc7103a7" x="261.737958" y="307.37248" style="fill: #2ca02c; stroke: #2ca02c"/>
     <use xlink:href="#mf3fc7103a7" x="285.090174" y="294.504883" style="fill: #2ca02c; stroke: #2ca02c"/>
     <use xlink:href="#mf3fc7103a7" x="308.442389" y="278.793054" style="fill: #2ca02c; stroke: #2ca02c"/>
     <use xlink:href="#mf3fc7103a7" x="366.822928" y="237.325564" style="fill: #2ca02c; stroke: #2ca02c"/>
     <use xlink:href="#mf3fc7103a7" x="425.203467" y="184.910775" style="fill: #2ca02c; stroke: #2ca02c"/>
     <use xlink:href="#mf3fc7103a7" x="483.584006" y="125.437626" style="fill: #2ca02c; stroke: #2ca02c"/>
     <use xlink:href="#mf3fc7103a7" x="541.964545" y="43.387273" style="fill: #2ca02c; stroke: #2ca02c"/>
    </g>
   </g>
   <g id="line2d_21">
    <path d="M 77.255455 373.392727 
L 79.590676 372.824673 
L 81.925898 372.22375 
L 84.261119 371.554923 
L 86.596341 370.920047 
L 88.931562 370.247735 
L 91.266784 369.642857 
L 93.602005 368.994231 
L 95.937227 368.380829 
L 98.272449 367.699616 
L 121.624664 360.421154 
L 144.97688 352.559993 
L 168.329095 342.604291 
L 191.681311 334.364945 
L 215.033527 323.893317 
L 238.385742 312.35843 
L 261.737958 300.144923 
L 285.090174 284.274878 
L 308.442389 272.849947 
L 366.822928 233.671422 
L 425.203467 187.568762 
L 483.584006 137.851595 
L 541.964545 79.572532 
" clip-path="url(#pa6ebc073c4)" style="fill: none; stroke: #1f77b4; stroke-width: 1.5; stroke-linecap: square"/>
   </g>
   <g id="line2d_22">
    <path d="M 77.255455 373.393339 
L 79.590676 372.87798 
L 81.925898 372.296223 
L 84.261119 371.735091 
L 86.596341 371.164871 
L 88.931562 370.569646 
L 91.266784 370.148092 
L 93.602005 369.519055 
L 95.937227 368.986037 
L 98.272449 368.45542 
L 121.624664 362.484429 
L 144.97688 355.900034 
L 168.329095 347.943421 
L 191.681311 340.002488 
L 215.033527 330.917678 
L 238.385742 320.634695 
L 261.737958 308.773426 
L 285.090174 296.527424 
L 308.442389 283.273121 
L 366.822928 243.769065 
L 425.203467 199.606049 
L 483.584006 149.075174 
L 541.964545 83.285952 
" clip-path="url(#pa6ebc073c4)" style="fill: none; stroke: #ff7f0e; stroke-width: 1.5; stroke-linecap: square"/>
   </g>
   <g id="line2d_23">
    <path d="M 77.255455 373.475324 
L 79.590676 372.897334 
L 81.925898 372.298483 
L 84.261119 371.740836 
L 86.596341 371.162093 
L 88.931562 370.537672 
L 91.266784 370.145925 
L 93.602005 369.550606 
L 95.937227 368.950672 
L 98.272449 368.383136 
L 121.624664 362.586097 
L 144.97688 355.928948 
L 168.329095 347.875893 
L 191.681311 339.644224 
L 215.033527 330.625387 
L 238.385742 320.621792 
L 261.737958 308.076201 
L 285.090174 295.644852 
L 308.442389 280.15054 
L 366.822928 238.066488 
L 425.203467 186.805189 
L 483.584006 126.10387 
L 541.964545 46.410859 
" clip-path="url(#pa6ebc073c4)" style="fill: none; stroke: #2ca02c; stroke-width: 1.5; stroke-linecap: square"/>
   </g>
   <g id="patch_3">
    <path d="M 54.02 390.04 
L 54.02 26.88 
" style="fill: none; stroke: #000000; stroke-width: 0.8; stroke-linejoin: miter; stroke-linecap: square"/>
   </g>
   <g id="patch_4">
    <path d="M 565.2 390.04 
L 565.2 26.88 
" style="fill: none; stroke: #000000; stroke-width: 0.8; stroke-linejoin: miter; stroke-linecap: square"/>
   </g>
   <g id="patch_5">
    <path d="M 54.02 390.04 
L 565.2 390.04 
" style="fill: none; stroke: #000000; stroke-width: 0.8; stroke-linejoin: miter; stroke-linecap: square"/>
   </g>
   <g id="patch_6">
    <path d="M 54.02 26.88 
L 565.2 26.88 
" style="fill: none; stroke: #000000; stroke-width: 0.8; stroke-linejoin: miter; stroke-linecap: square"/>
   </g>
   <g id="text_17">
    <!-- Rust implementations of Bron-Kerbosch on a random graph of order 10k -->
    <g transform="translate(54.02 20.88)scale(0.12 -0.12)">
     <defs>
      <path id="DejaVuSans-52" d="M 2841 2188 
Q 3044 2119 3236 1894 
Q 3428 1669 3622 1275 
L 4263 0 
L 3584 0 
L 2988 1197 
Q 2756 1666 2539 1819 
Q 2322 1972 1947 1972 
L 1259 1972 
L 1259 0 
L 628 0 
L 628 4666 
L 2053 4666 
Q 2853 4666 3247 4331 
Q 3641 3997 3641 3322 
Q 3641 2881 3436 2590 
Q 3231 2300 2841 2188 
z
M 1259 4147 
L 1259 2491 
L 2053 2491 
Q 2509 2491 2742 2702 
Q 2975 2913 2975 3322 
Q 2975 3731 2742 3939 
Q 2509 4147 2053 4147 
L 1259 4147 
z
" transform="scale(0.015625)"/>
      <path id="DejaVuSans-75" d="M 544 1381 
L 544 3500 
L 1119 3500 
L 1119 1403 
Q 1119 906 1312 657 
Q 1506 409 1894 409 
Q 2359 409 2629 706 
Q 2900 1003 2900 1516 
L 2900 3500 
L 3475 3500 
L 3475 0 
L 2900 0 
L 2900 538 
Q 2691 219 2414 64 
Q 2138 -91 1772 -91 
Q 1169 -91 856 284 
Q 544 659 544 1381 
z
M 1991 3584 
L 1991 3584 
z
" transform="scale(0.015625)"/>
      <path id="DejaVuSans-6d" d="M 3328 2828 
Q 3544 3216 3844 3400 
Q 4144 3584 4550 3584 
Q 5097 3584 5394 3201 
Q 5691 2819 5691 2113 
L 5691 0 
L 5113 0 
L 5113 2094 
Q 5113 2597 4934 2840 
Q 4756 3084 4391 3084 
Q 3944 3084 3684 2787 
Q 3425 2491 3425 1978 
L 3425 0 
L 2847 0 
L 2847 2094 
Q 2847 2600 2669 2842 
Q 2491 3084 2119 3084 
Q 1678 3084 1418 2786 
Q 1159 2488 1159 1978 
L 1159 0 
L 581 0 
L 581 3500 
L 1159 3500 
L 1159 2956 
Q 1356 3278 1631 3431 
Q 1906 3584 2284 3584 
Q 2666 3584 2933 3390 
Q 3200 3197 3328 2828 
z
" transform="scale(0.015625)"/>
      <path id="DejaVuSans-6c" d="M 603 4863 
L 1178 4863 
L 1178 0 
L 603 0 
L 603 4863 
z
" transform="scale(0.015625)"/>
      <path id="DejaVuSans-61" d="M 2194 1759 
Q 1497 1759 1228 1600 
Q 959 1441 959 1056 
Q 959 750 1161 570 
Q 1363 391 1709 391 
Q 2188 391 2477 730 
Q 2766 1069 2766 1631 
L 2766 1759 
L 2194 1759 
z
M 3341 1997 
L 3341 0 
L 2766 0 
L 2766 531 
Q 2569 213 2275 61 
Q 1981 -91 1556 -91 
Q 1019 -91 701 211 
Q 384 513 384 1019 
Q 384 1609 779 1909 
Q 1175 2209 1959 2209 
L 2766 2209 
L 2766 2266 
Q 2766 2663 2505 2880 
Q 2244 3097 1772 3097 
Q 1472 3097 1187 3025 
Q 903 2953 641 2809 
L 641 3341 
Q 956 3463 1253 3523 
Q 1550 3584 1831 3584 
Q 2591 3584 2966 3190 
Q 3341 2797 3341 1997 
z
" transform="scale(0.015625)"/>
      <path id="DejaVuSans-66" d="M 2375 4863 
L 2375 4384 
L 1825 4384 
Q 1516 4384 1395 4259 
Q 1275 4134 1275 3809 
L 1275 3500 
L 2222 3500 
L 2222 3053 
L 1275 3053 
L 1275 0 
L 697 0 
L 697 3053 
L 147 3053 
L 147 3500 
L 697 3500 
L 697 3744 
Q 697 4328 969 4595 
Q 1241 4863 1831 4863 
L 2375 4863 
z
" transform="scale(0.015625)"/>
      <path id="DejaVuSans-42" d="M 1259 2228 
L 1259 519 
L 2272 519 
Q 2781 519 3026 730 
Q 3272 941 3272 1375 
Q 3272 1813 3026 2020 
Q 2781 2228 2272 2228 
L 1259 2228 
z
M 1259 4147 
L 1259 2741 
L 2194 2741 
Q 2656 2741 2882 2914 
Q 3109 3088 3109 3444 
Q 3109 3797 2882 3972 
Q 2656 4147 2194 4147 
L 1259 4147 
z
M 628 4666 
L 2241 4666 
Q 2963 4666 3353 4366 
Q 3744 4066 3744 3513 
Q 3744 3084 3544 2831 
Q 3344 2578 2956 2516 
Q 3422 2416 3680 2098 
Q 3938 1781 3938 1306 
Q 3938 681 3513 340 
Q 3088 0 2303 0 
L 628 0 
L 628 4666 
z
" transform="scale(0.015625)"/>
      <path id="DejaVuSans-72" d="M 2631 2963 
Q 2534 3019 2420 3045 
Q 2306 3072 2169 3072 
Q 1681 3072 1420 2755 
Q 1159 2438 1159 1844 
L 1159 0 
L 581 0 
L 581 3500 
L 1159 3500 
L 1159 2956 
Q 1341 3275 1631 3429 
Q 1922 3584 2338 3584 
Q 2397 3584 2469 3576 
Q 2541 3569 2628 3553 
L 2631 2963 
z
" transform="scale(0.015625)"/>
      <path id="DejaVuSans-2d" d="M 313 2009 
L 1997 2009 
L 1997 1497 
L 313 1497 
L 313 2009 
z
" transform="scale(0.015625)"/>
      <path id="DejaVuSans-4b" d="M 628 4666 
L 1259 4666 
L 1259 2694 
L 3353 4666 
L 4166 4666 
L 1850 2491 
L 4331 0 
L 3500 0 
L 1259 2247 
L 1259 0 
L 628 0 
L 628 4666 
z
" transform="scale(0.015625)"/>
      <path id="DejaVuSans-62" d="M 3116 1747 
Q 3116 2381 2855 2742 
Q 2594 3103 2138 3103 
Q 1681 3103 1420 2742 
Q 1159 2381 1159 1747 
Q 1159 1113 1420 752 
Q 1681 391 2138 391 
Q 2594 391 2855 752 
Q 3116 1113 3116 1747 
z
M 1159 2969 
Q 1341 3281 1617 3432 
Q 1894 3584 2278 3584 
Q 2916 3584 3314 3078 
Q 3713 2572 3713 1747 
Q 3713 922 3314 415 
Q 2916 -91 2278 -91 
Q 1894 -91 1617 61 
Q 1341 213 1159 525 
L 1159 0 
L 581 0 
L 581 4863 
L 1159 4863 
L 1159 2969 
z
" transform="scale(0.015625)"/>
      <path id="DejaVuSans-68" d="M 3513 2113 
L 3513 0 
L 2938 0 
L 2938 2094 
Q 2938 2591 2744 2837 
Q 2550 3084 2163 3084 
Q 1697 3084 1428 2787 
Q 1159 2491 1159 1978 
L 1159 0 
L 581 0 
L 581 4863 
L 1159 4863 
L 1159 2956 
Q 1366 3272 1645 3428 
Q 1925 3584 2291 3584 
Q 2894 3584 3203 3211 
Q 3513 2838 3513 2113 
z
" transform="scale(0.015625)"/>
      <path id="DejaVuSans-6b" d="M 581 4863 
L 1159 4863 
L 1159 1991 
L 2875 3500 
L 3609 3500 
L 1753 1863 
L 3688 0 
L 2938 0 
L 1159 1709 
L 1159 0 
L 581 0 
L 581 4863 
z
" transform="scale(0.015625)"/>
     </defs>
     <use xlink:href="#DejaVuSans-52"/>
     <use xlink:href="#DejaVuSans-75" x="64.982422"/>
     <use xlink:href="#DejaVuSans-73" x="128.361328"/>
     <use xlink:href="#DejaVuSans-74" x="180.460938"/>
     <use xlink:href="#DejaVuSans-20" x="219.669922"/>
     <use xlink:href="#DejaVuSans-69" x="251.457031"/>
     <use xlink:href="#DejaVuSans-6d" x="279.240234"/>
     <use xlink:href="#DejaVuSans-70" x="376.652344"/>
     <use xlink:href="#DejaVuSans-6c" x="440.128906"/>
     <use xlink:href="#DejaVuSans-65" x="467.912109"/>
     <use xlink:href="#DejaVuSans-6d" x="529.435547"/>
     <use xlink:href="#DejaVuSans-65" x="626.847656"/>
     <use xlink:href="#DejaVuSans-6e" x="688.371094"/>
     <use xlink:href="#DejaVuSans-74" x="751.75"/>
     <use xlink:href="#DejaVuSans-61" x="790.958984"/>
     <use xlink:href="#DejaVuSans-74" x="852.238281"/>
     <use xlink:href="#DejaVuSans-69" x="891.447266"/>
     <use xlink:href="#DejaVuSans-6f" x="919.230469"/>
     <use xlink:href="#DejaVuSans-6e" x="980.412109"/>
     <use xlink:href="#DejaVuSans-73" x="1043.791016"/>
     <use xlink:href="#DejaVuSans-20" x="1095.890625"/>
     <use xlink:href="#DejaVuSans-6f" x="1127.677734"/>
     <use xlink:href="#DejaVuSans-66" x="1188.859375"/>
     <use xlink:href="#DejaVuSans-20" x="1224.064453"/>
     <use xlink:href="#DejaVuSans-42" x="1255.851562"/>
     <use xlink:href="#DejaVuSans-72" x="1324.455078"/>
     <use xlink:href="#DejaVuSans-6f" x="1363.318359"/>
     <use xlink:href="#DejaVuSans-6e" x="1424.5"/>
     <use xlink:href="#DejaVuSans-2d" x="1487.878906"/>
     <use xlink:href="#DejaVuSans-4b" x="1523.962891"/>
     <use xlink:href="#DejaVuSans-65" x="1584.539062"/>
     <use xlink:href="#DejaVuSans-72" x="1646.0625"/>
     <use xlink:href="#DejaVuSans-62" x="1687.175781"/>
     <use xlink:href="#DejaVuSans-6f" x="1750.652344"/>
     <use xlink:href="#DejaVuSans-73" x="1811.833984"/>
     <use xlink:href="#DejaVuSans-63" x="1863.933594"/>
     <use xlink:href="#DejaVuSans-68" x="1918.914062"/>
     <use xlink:href="#DejaVuSans-20" x="1982.292969"/>
     <use xlink:href="#DejaVuSans-6f" x="2014.080078"/>
     <use xlink:href="#DejaVuSans-6e" x="2075.261719"/>
     <use xlink:href="#DejaVuSans-20" x="2138.640625"/>
     <use xlink:href="#DejaVuSans-61" x="2170.427734"/>
     <use xlink:href="#DejaVuSans-20" x="2231.707031"/>
     <use xlink:href="#DejaVuSans-72" x="2263.494141"/>
     <use xlink:href="#DejaVuSans-61" x="2304.607422"/>
     <use xlink:href="#DejaVuSans-6e" x="2365.886719"/>
     <use xlink:href="#DejaVuSans-64" x="2429.265625"/>
     <use xlink:href="#DejaVuSans-6f" x="2492.742188"/>
     <use xlink:href="#DejaVuSans-6d" x="2553.923828"/>
     <use xlink:href="#DejaVuSans-20" x="2651.335938"/>
     <use xlink:href="#DejaVuSans-67" x="2683.123047"/>
     <use xlink:href="#DejaVuSans-72" x="2746.599609"/>
     <use xlink:href="#DejaVuSans-61" x="2787.712891"/>
     <use xlink:href="#DejaVuSans-70" x="2848.992188"/>
     <use xlink:href="#DejaVuSans-68" x="2912.46875"/>
     <use xlink:href="#DejaVuSans-20" x="2975.847656"/>
     <use xlink:href="#DejaVuSans-6f" x="3007.634766"/>
     <use xlink:href="#DejaVuSans-66" x="3068.816406"/>
     <use xlink:href="#DejaVuSans-20" x="3104.021484"/>
     <use xlink:href="#DejaVuSans-6f" x="3135.808594"/>
     <use xlink:href="#DejaVuSans-72" x="3196.990234"/>
     <use xlink:href="#DejaVuSans-64" x="3236.353516"/>
     <use xlink:href="#DejaVuSans-65" x="3299.830078"/>
     <use xlink:href="#DejaVuSans-72" x="3361.353516"/>
     <use xlink:href="#DejaVuSans-20" x="3402.466797"/>
     <use xlink:href="#DejaVuSans-31" x="3434.253906"/>
     <use xlink:href="#DejaVuSans-30" x="3497.876953"/>
     <use xlink:href="#DejaVuSans-6b" x="3561.5"/>
    </g>
   </g>
   <g id="legend_1">
    <g id="patch_7">
     <path d="M 61.02 78.914375 
L 185.198125 78.914375 
Q 187.198125 78.914375 187.198125 76.914375 
L 187.198125 33.88 
Q 187.198125 31.88 185.198125 31.88 
L 61.02 31.88 
Q 59.02 31.88 59.02 33.88 
L 59.02 76.914375 
Q 59.02 78.914375 61.02 78.914375 
z
" style="fill: #ffffff; opacity: 0.8; stroke: #cccccc; stroke-linejoin: miter"/>
    </g>
    <g id="LineCollection_4">
     <path d="M 73.02 44.978437 
L 73.02 34.978437 
" style="fill: none; stroke: #1f77b4; stroke-width: 1.5"/>
    </g>
    <g id="line2d_24">
     <g>
      <use xlink:href="#md8547b9e7e" x="73.02" y="44.978437" style="fill: #1f77b4; stroke: #1f77b4"/>
     </g>
    </g>
    <g id="line2d_25">
     <g>
      <use xlink:href="#md8547b9e7e" x="73.02" y="34.978437" style="fill: #1f77b4; stroke: #1f77b4"/>
     </g>
    </g>
    <g id="line2d_26">
     <path d="M 63.02 39.978437 
L 83.02 39.978437 
" style="fill: none; stroke: #1f77b4; stroke-width: 1.5; stroke-linecap: square"/>
    </g>
    <g id="line2d_27"/>
    <g id="text_18">
     <!-- Ver2@Hash -->
     <g transform="translate(91.02 43.478437)scale(0.1 -0.1)">
      <defs>
       <path id="DejaVuSans-56" d="M 1831 0 
L 50 4666 
L 709 4666 
L 2188 738 
L 3669 4666 
L 4325 4666 
L 2547 0 
L 1831 0 
z
" transform="scale(0.015625)"/>
       <path id="DejaVuSans-bd" d="M 488 2431 
L 1125 2431 
L 1125 4341 
L 428 4213 
L 428 4575 
L 1147 4697 
L 1575 4697 
L 1575 2431 
L 2216 2431 
L 2216 2088 
L 488 2088 
L 488 2431 
z
M 4470 332 
L 5795 332 
L 5795 -24 
L 3926 -24 
L 3926 319 
Q 4032 416 4229 591 
Q 5304 1544 5304 1838 
Q 5304 2044 5141 2170 
Q 4979 2297 4713 2297 
Q 4551 2297 4360 2242 
Q 4170 2188 3945 2079 
L 3945 2463 
Q 4185 2551 4393 2594 
Q 4601 2638 4779 2638 
Q 5232 2638 5504 2432 
Q 5776 2226 5776 1888 
Q 5776 1454 4741 566 
Q 4566 416 4470 332 
z
M 4309 4750 
L 4809 4750 
L 1896 -91 
L 1396 -91 
L 4309 4750 
z
" transform="scale(0.015625)"/>
       <path id="DejaVuSans-40" d="M 2381 1678 
Q 2381 1231 2603 976 
Q 2825 722 3213 722 
Q 3597 722 3817 978 
Q 4038 1234 4038 1678 
Q 4038 2116 3813 2373 
Q 3588 2631 3206 2631 
Q 2828 2631 2604 2375 
Q 2381 2119 2381 1678 
z
M 4084 744 
Q 3897 503 3655 389 
Q 3413 275 3091 275 
Q 2553 275 2217 664 
Q 1881 1053 1881 1678 
Q 1881 2303 2218 2693 
Q 2556 3084 3091 3084 
Q 3413 3084 3656 2967 
Q 3900 2850 4084 2613 
L 4084 3022 
L 4531 3022 
L 4531 722 
Q 4988 791 5245 1139 
Q 5503 1488 5503 2041 
Q 5503 2375 5404 2669 
Q 5306 2963 5106 3213 
Q 4781 3622 4314 3839 
Q 3847 4056 3297 4056 
Q 2913 4056 2559 3954 
Q 2206 3853 1906 3653 
Q 1416 3334 1139 2817 
Q 863 2300 863 1697 
Q 863 1200 1042 765 
Q 1222 331 1563 0 
Q 1891 -325 2322 -495 
Q 2753 -666 3244 -666 
Q 3647 -666 4036 -530 
Q 4425 -394 4750 -141 
L 5031 -488 
Q 4641 -791 4180 -952 
Q 3719 -1113 3244 -1113 
Q 2666 -1113 2153 -908 
Q 1641 -703 1241 -313 
Q 841 78 631 592 
Q 422 1106 422 1697 
Q 422 2266 634 2781 
Q 847 3297 1241 3688 
Q 1644 4084 2172 4295 
Q 2700 4506 3291 4506 
Q 3953 4506 4520 4234 
Q 5088 3963 5472 3463 
Q 5706 3156 5829 2797 
Q 5953 2438 5953 2053 
Q 5953 1231 5456 756 
Q 4959 281 4084 263 
L 4084 744 
z
" transform="scale(0.015625)"/>
       <path id="DejaVuSans-48" d="M 628 4666 
L 1259 4666 
L 1259 2753 
L 3553 2753 
L 3553 4666 
L 4184 4666 
L 4184 0 
L 3553 0 
L 3553 2222 
L 1259 2222 
L 1259 0 
L 628 0 
L 628 4666 
z
" transform="scale(0.015625)"/>
      </defs>
      <use xlink:href="#DejaVuSans-56"/>
      <use xlink:href="#DejaVuSans-65" x="60.658203"/>
      <use xlink:href="#DejaVuSans-72" x="122.181641"/>
      <use xlink:href="#DejaVuSans-32" x="163.294922"/>
      <use xlink:href="#DejaVuSans-bd" x="226.917969"/>
      <use xlink:href="#DejaVuSans-40" x="323.841797"/>
      <use xlink:href="#DejaVuSans-48" x="423.841797"/>
      <use xlink:href="#DejaVuSans-61" x="499.037109"/>
      <use xlink:href="#DejaVuSans-73" x="560.316406"/>
      <use xlink:href="#DejaVuSans-68" x="612.416016"/>
     </g>
    </g>
    <g id="LineCollection_5">
     <path d="M 73.02 59.656563 
L 73.02 49.656563 
" style="fill: none; stroke: #ff7f0e; stroke-width: 1.5"/>
    </g>
    <g id="line2d_28">
     <g>
      <use xlink:href="#m7f04267d81" x="73.02" y="59.656563" style="fill: #ff7f0e; stroke: #ff7f0e"/>
     </g>
    </g>
    <g id="line2d_29">
     <g>
      <use xlink:href="#m7f04267d81" x="73.02" y="49.656563" style="fill: #ff7f0e; stroke: #ff7f0e"/>
     </g>
    </g>
    <g id="line2d_30">
     <path d="M 63.02 54.656563 
L 83.02 54.656563 
" style="fill: none; stroke: #ff7f0e; stroke-width: 1.5; stroke-linecap: square"/>
    </g>
    <g id="line2d_31"/>
    <g id="text_19">
     <!-- Ver2-GP@Hash -->
     <g transform="translate(91.02 58.156563)scale(0.1 -0.1)">
      <defs>
       <path id="DejaVuSans-47" d="M 3809 666 
L 3809 1919 
L 2778 1919 
L 2778 2438 
L 4434 2438 
L 4434 434 
Q 4069 175 3628 42 
Q 3188 -91 2688 -91 
Q 1594 -91 976 548 
Q 359 1188 359 2328 
Q 359 3472 976 4111 
Q 1594 4750 2688 4750 
Q 3144 4750 3555 4637 
Q 3966 4525 4313 4306 
L 4313 3634 
Q 3963 3931 3569 4081 
Q 3175 4231 2741 4231 
Q 1884 4231 1454 3753 
Q 1025 3275 1025 2328 
Q 1025 1384 1454 906 
Q 1884 428 2741 428 
Q 3075 428 3337 486 
Q 3600 544 3809 666 
z
" transform="scale(0.015625)"/>
       <path id="DejaVuSans-50" d="M 1259 4147 
L 1259 2394 
L 2053 2394 
Q 2494 2394 2734 2622 
Q 2975 2850 2975 3272 
Q 2975 3691 2734 3919 
Q 2494 4147 2053 4147 
L 1259 4147 
z
M 628 4666 
L 2053 4666 
Q 2838 4666 3239 4311 
Q 3641 3956 3641 3272 
Q 3641 2581 3239 2228 
Q 2838 1875 2053 1875 
L 1259 1875 
L 1259 0 
L 628 0 
L 628 4666 
z
" transform="scale(0.015625)"/>
      </defs>
      <use xlink:href="#DejaVuSans-56"/>
      <use xlink:href="#DejaVuSans-65" x="60.658203"/>
      <use xlink:href="#DejaVuSans-72" x="122.181641"/>
      <use xlink:href="#DejaVuSans-32" x="163.294922"/>
      <use xlink:href="#DejaVuSans-bd" x="226.917969"/>
      <use xlink:href="#DejaVuSans-2d" x="323.841797"/>
      <use xlink:href="#DejaVuSans-47" x="363.550781"/>
      <use xlink:href="#DejaVuSans-50" x="441.041016"/>
      <use xlink:href="#DejaVuSans-40" x="501.34375"/>
      <use xlink:href="#DejaVuSans-48" x="601.34375"/>
      <use xlink:href="#DejaVuSans-61" x="676.539062"/>
      <use xlink:href="#DejaVuSans-73" x="737.818359"/>
      <use xlink:href="#DejaVuSans-68" x="789.917969"/>
     </g>
    </g>
    <g id="LineCollection_6">
     <path d="M 73.02 74.334687 
L 73.02 64.334687 
" style="fill: none; stroke: #2ca02c; stroke-width: 1.5"/>
    </g>
    <g id="line2d_32">
     <g>
      <use xlink:href="#mf3fc7103a7" x="73.02" y="74.334687" style="fill: #2ca02c; stroke: #2ca02c"/>
     </g>
    </g>
    <g id="line2d_33">
     <g>
      <use xlink:href="#mf3fc7103a7" x="73.02" y="64.334687" style="fill: #2ca02c; stroke: #2ca02c"/>
     </g>
    </g>
    <g id="line2d_34">
     <path d="M 63.02 69.334687 
L 83.02 69.334687 
" style="fill: none; stroke: #2ca02c; stroke-width: 1.5; stroke-linecap: square"/>
    </g>
    <g id="line2d_35"/>
    <g id="text_20">
     <!-- Ver2-GPX@Hash -->
     <g transform="translate(91.02 72.834687)scale(0.1 -0.1)">
      <defs>
       <path id="DejaVuSans-58" d="M 403 4666 
L 1081 4666 
L 2241 2931 
L 3406 4666 
L 4084 4666 
L 2584 2425 
L 4184 0 
L 3506 0 
L 2194 1984 
L 872 0 
L 191 0 
L 1856 2491 
L 403 4666 
z
" transform="scale(0.015625)"/>
      </defs>
      <use xlink:href="#DejaVuSans-56"/>
      <use xlink:href="#DejaVuSans-65" x="60.658203"/>
      <use xlink:href="#DejaVuSans-72" x="122.181641"/>
      <use xlink:href="#DejaVuSans-32" x="163.294922"/>
      <use xlink:href="#DejaVuSans-bd" x="226.917969"/>
      <use xlink:href="#DejaVuSans-2d" x="323.841797"/>
      <use xlink:href="#DejaVuSans-47" x="363.550781"/>
      <use xlink:href="#DejaVuSans-50" x="441.041016"/>
      <use xlink:href="#DejaVuSans-58" x="501.34375"/>
      <use xlink:href="#DejaVuSans-40" x="569.849609"/>
      <use xlink:href="#DejaVuSans-48" x="669.849609"/>
      <use xlink:href="#DejaVuSans-61" x="745.044922"/>
      <use xlink:href="#DejaVuSans-73" x="806.324219"/>
      <use xlink:href="#DejaVuSans-68" x="858.423828"/>
     </g>
    </g>
   </g>
  </g>
 </g>
 <defs>
  <clipPath id="pa6ebc073c4">
   <rect x="54.02" y="26.88" width="511.18" height="363.16"/>
  </clipPath>
 </defs>
</svg>
