<?xml version="1.0" encoding="utf-8" standalone="no"?>
<!DOCTYPE svg PUBLIC "-//W3C//DTD SVG 1.1//EN"
  "http://www.w3.org/Graphics/SVG/1.1/DTD/svg11.dtd">
<svg xmlns:xlink="http://www.w3.org/1999/xlink" width="576pt" height="432pt" viewBox="0 0 576 432" xmlns="http://www.w3.org/2000/svg" version="1.1">
 <metadata>
  <rdf:RDF xmlns:dc="http://purl.org/dc/elements/1.1/" xmlns:cc="http://creativecommons.org/ns#" xmlns:rdf="http://www.w3.org/1999/02/22-rdf-syntax-ns#">
   <cc:Work>
    <dc:type rdf:resource="http://purl.org/dc/dcmitype/StillImage"/>
    <dc:date>2021-12-02T22:54:05.172727</dc:date>
    <dc:format>image/svg+xml</dc:format>
    <dc:creator>
     <cc:Agent>
      <dc:title>Matplotlib v3.5.0, https://matplotlib.org/</dc:title>
     </cc:Agent>
    </dc:creator>
   </cc:Work>
  </rdf:RDF>
 </metadata>
 <defs>
  <style type="text/css">*{stroke-linejoin: round; stroke-linecap: butt}</style>
 </defs>
 <g id="figure_1">
  <g id="patch_1">
   <path d="M 0 432 
L 576 432 
L 576 0 
L 0 0 
z
" style="fill: #ffffff"/>
  </g>
  <g id="axes_1">
   <g id="patch_2">
    <path d="M 54.02 390.04 
L 565.2 390.04 
L 565.2 26.88 
L 54.02 26.88 
z
" style="fill: #ffffff"/>
   </g>
   <g id="matplotlib.axis_1">
    <g id="xtick_1">
     <g id="line2d_1">
      <defs>
       <path id="m5c332a914f" d="M 0 0 
L 0 3.5 
" style="stroke: #000000; stroke-width: 0.8"/>
      </defs>
      <g>
       <use xlink:href="#m5c332a914f" x="77.255455" y="390.04" style="stroke: #000000; stroke-width: 0.8"/>
      </g>
     </g>
     <g id="text_1">
      <!-- 2000 -->
      <g transform="translate(64.530455 404.638438)scale(0.1 -0.1)">
       <defs>
        <path id="DejaVuSans-32" d="M 1228 531 
L 3431 531 
L 3431 0 
L 469 0 
L 469 531 
Q 828 903 1448 1529 
Q 2069 2156 2228 2338 
Q 2531 2678 2651 2914 
Q 2772 3150 2772 3378 
Q 2772 3750 2511 3984 
Q 2250 4219 1831 4219 
Q 1534 4219 1204 4116 
Q 875 4013 500 3803 
L 500 4441 
Q 881 4594 1212 4672 
Q 1544 4750 1819 4750 
Q 2544 4750 2975 4387 
Q 3406 4025 3406 3419 
Q 3406 3131 3298 2873 
Q 3191 2616 2906 2266 
Q 2828 2175 2409 1742 
Q 1991 1309 1228 531 
z
" transform="scale(0.015625)"/>
        <path id="DejaVuSans-30" d="M 2034 4250 
Q 1547 4250 1301 3770 
Q 1056 3291 1056 2328 
Q 1056 1369 1301 889 
Q 1547 409 2034 409 
Q 2525 409 2770 889 
Q 3016 1369 3016 2328 
Q 3016 3291 2770 3770 
Q 2525 4250 2034 4250 
z
M 2034 4750 
Q 2819 4750 3233 4129 
Q 3647 3509 3647 2328 
Q 3647 1150 3233 529 
Q 2819 -91 2034 -91 
Q 1250 -91 836 529 
Q 422 1150 422 2328 
Q 422 3509 836 4129 
Q 1250 4750 2034 4750 
z
" transform="scale(0.015625)"/>
       </defs>
       <use xlink:href="#DejaVuSans-32"/>
       <use xlink:href="#DejaVuSans-30" x="63.623047"/>
       <use xlink:href="#DejaVuSans-30" x="127.246094"/>
       <use xlink:href="#DejaVuSans-30" x="190.869141"/>
      </g>
     </g>
    </g>
    <g id="xtick_2">
     <g id="line2d_2">
      <g>
       <use xlink:href="#m5c332a914f" x="170.197273" y="390.04" style="stroke: #000000; stroke-width: 0.8"/>
      </g>
     </g>
     <g id="text_2">
      <!-- 2200 -->
      <g transform="translate(157.472273 404.638438)scale(0.1 -0.1)">
       <use xlink:href="#DejaVuSans-32"/>
       <use xlink:href="#DejaVuSans-32" x="63.623047"/>
       <use xlink:href="#DejaVuSans-30" x="127.246094"/>
       <use xlink:href="#DejaVuSans-30" x="190.869141"/>
      </g>
     </g>
    </g>
    <g id="xtick_3">
     <g id="line2d_3">
      <g>
       <use xlink:href="#m5c332a914f" x="263.139091" y="390.04" style="stroke: #000000; stroke-width: 0.8"/>
      </g>
     </g>
     <g id="text_3">
      <!-- 2400 -->
      <g transform="translate(250.414091 404.638438)scale(0.1 -0.1)">
       <defs>
        <path id="DejaVuSans-34" d="M 2419 4116 
L 825 1625 
L 2419 1625 
L 2419 4116 
z
M 2253 4666 
L 3047 4666 
L 3047 1625 
L 3713 1625 
L 3713 1100 
L 3047 1100 
L 3047 0 
L 2419 0 
L 2419 1100 
L 313 1100 
L 313 1709 
L 2253 4666 
z
" transform="scale(0.015625)"/>
       </defs>
       <use xlink:href="#DejaVuSans-32"/>
       <use xlink:href="#DejaVuSans-34" x="63.623047"/>
       <use xlink:href="#DejaVuSans-30" x="127.246094"/>
       <use xlink:href="#DejaVuSans-30" x="190.869141"/>
      </g>
     </g>
    </g>
    <g id="xtick_4">
     <g id="line2d_4">
      <g>
       <use xlink:href="#m5c332a914f" x="356.080909" y="390.04" style="stroke: #000000; stroke-width: 0.8"/>
      </g>
     </g>
     <g id="text_4">
      <!-- 2600 -->
      <g transform="translate(343.355909 404.638438)scale(0.1 -0.1)">
       <defs>
        <path id="DejaVuSans-36" d="M 2113 2584 
Q 1688 2584 1439 2293 
Q 1191 2003 1191 1497 
Q 1191 994 1439 701 
Q 1688 409 2113 409 
Q 2538 409 2786 701 
Q 3034 994 3034 1497 
Q 3034 2003 2786 2293 
Q 2538 2584 2113 2584 
z
M 3366 4563 
L 3366 3988 
Q 3128 4100 2886 4159 
Q 2644 4219 2406 4219 
Q 1781 4219 1451 3797 
Q 1122 3375 1075 2522 
Q 1259 2794 1537 2939 
Q 1816 3084 2150 3084 
Q 2853 3084 3261 2657 
Q 3669 2231 3669 1497 
Q 3669 778 3244 343 
Q 2819 -91 2113 -91 
Q 1303 -91 875 529 
Q 447 1150 447 2328 
Q 447 3434 972 4092 
Q 1497 4750 2381 4750 
Q 2619 4750 2861 4703 
Q 3103 4656 3366 4563 
z
" transform="scale(0.015625)"/>
       </defs>
       <use xlink:href="#DejaVuSans-32"/>
       <use xlink:href="#DejaVuSans-36" x="63.623047"/>
       <use xlink:href="#DejaVuSans-30" x="127.246094"/>
       <use xlink:href="#DejaVuSans-30" x="190.869141"/>
      </g>
     </g>
    </g>
    <g id="xtick_5">
     <g id="line2d_5">
      <g>
       <use xlink:href="#m5c332a914f" x="449.022727" y="390.04" style="stroke: #000000; stroke-width: 0.8"/>
      </g>
     </g>
     <g id="text_5">
      <!-- 2800 -->
      <g transform="translate(436.297727 404.638438)scale(0.1 -0.1)">
       <defs>
        <path id="DejaVuSans-38" d="M 2034 2216 
Q 1584 2216 1326 1975 
Q 1069 1734 1069 1313 
Q 1069 891 1326 650 
Q 1584 409 2034 409 
Q 2484 409 2743 651 
Q 3003 894 3003 1313 
Q 3003 1734 2745 1975 
Q 2488 2216 2034 2216 
z
M 1403 2484 
Q 997 2584 770 2862 
Q 544 3141 544 3541 
Q 544 4100 942 4425 
Q 1341 4750 2034 4750 
Q 2731 4750 3128 4425 
Q 3525 4100 3525 3541 
Q 3525 3141 3298 2862 
Q 3072 2584 2669 2484 
Q 3125 2378 3379 2068 
Q 3634 1759 3634 1313 
Q 3634 634 3220 271 
Q 2806 -91 2034 -91 
Q 1263 -91 848 271 
Q 434 634 434 1313 
Q 434 1759 690 2068 
Q 947 2378 1403 2484 
z
M 1172 3481 
Q 1172 3119 1398 2916 
Q 1625 2713 2034 2713 
Q 2441 2713 2670 2916 
Q 2900 3119 2900 3481 
Q 2900 3844 2670 4047 
Q 2441 4250 2034 4250 
Q 1625 4250 1398 4047 
Q 1172 3844 1172 3481 
z
" transform="scale(0.015625)"/>
       </defs>
       <use xlink:href="#DejaVuSans-32"/>
       <use xlink:href="#DejaVuSans-38" x="63.623047"/>
       <use xlink:href="#DejaVuSans-30" x="127.246094"/>
       <use xlink:href="#DejaVuSans-30" x="190.869141"/>
      </g>
     </g>
    </g>
    <g id="xtick_6">
     <g id="line2d_6">
      <g>
       <use xlink:href="#m5c332a914f" x="541.964545" y="390.04" style="stroke: #000000; stroke-width: 0.8"/>
      </g>
     </g>
     <g id="text_6">
      <!-- 3000 -->
      <g transform="translate(529.239545 404.638438)scale(0.1 -0.1)">
       <defs>
        <path id="DejaVuSans-33" d="M 2597 2516 
Q 3050 2419 3304 2112 
Q 3559 1806 3559 1356 
Q 3559 666 3084 287 
Q 2609 -91 1734 -91 
Q 1441 -91 1130 -33 
Q 819 25 488 141 
L 488 750 
Q 750 597 1062 519 
Q 1375 441 1716 441 
Q 2309 441 2620 675 
Q 2931 909 2931 1356 
Q 2931 1769 2642 2001 
Q 2353 2234 1838 2234 
L 1294 2234 
L 1294 2753 
L 1863 2753 
Q 2328 2753 2575 2939 
Q 2822 3125 2822 3475 
Q 2822 3834 2567 4026 
Q 2313 4219 1838 4219 
Q 1578 4219 1281 4162 
Q 984 4106 628 3988 
L 628 4550 
Q 988 4650 1302 4700 
Q 1616 4750 1894 4750 
Q 2613 4750 3031 4423 
Q 3450 4097 3450 3541 
Q 3450 3153 3228 2886 
Q 3006 2619 2597 2516 
z
" transform="scale(0.015625)"/>
       </defs>
       <use xlink:href="#DejaVuSans-33"/>
       <use xlink:href="#DejaVuSans-30" x="63.623047"/>
       <use xlink:href="#DejaVuSans-30" x="127.246094"/>
       <use xlink:href="#DejaVuSans-30" x="190.869141"/>
      </g>
     </g>
    </g>
    <g id="text_7">
     <!-- Size (#edges) -->
     <g transform="translate(274.559219 418.316562)scale(0.1 -0.1)">
      <defs>
       <path id="DejaVuSans-53" d="M 3425 4513 
L 3425 3897 
Q 3066 4069 2747 4153 
Q 2428 4238 2131 4238 
Q 1616 4238 1336 4038 
Q 1056 3838 1056 3469 
Q 1056 3159 1242 3001 
Q 1428 2844 1947 2747 
L 2328 2669 
Q 3034 2534 3370 2195 
Q 3706 1856 3706 1288 
Q 3706 609 3251 259 
Q 2797 -91 1919 -91 
Q 1588 -91 1214 -16 
Q 841 59 441 206 
L 441 856 
Q 825 641 1194 531 
Q 1563 422 1919 422 
Q 2459 422 2753 634 
Q 3047 847 3047 1241 
Q 3047 1584 2836 1778 
Q 2625 1972 2144 2069 
L 1759 2144 
Q 1053 2284 737 2584 
Q 422 2884 422 3419 
Q 422 4038 858 4394 
Q 1294 4750 2059 4750 
Q 2388 4750 2728 4690 
Q 3069 4631 3425 4513 
z
" transform="scale(0.015625)"/>
       <path id="DejaVuSans-69" d="M 603 3500 
L 1178 3500 
L 1178 0 
L 603 0 
L 603 3500 
z
M 603 4863 
L 1178 4863 
L 1178 4134 
L 603 4134 
L 603 4863 
z
" transform="scale(0.015625)"/>
       <path id="DejaVuSans-7a" d="M 353 3500 
L 3084 3500 
L 3084 2975 
L 922 459 
L 3084 459 
L 3084 0 
L 275 0 
L 275 525 
L 2438 3041 
L 353 3041 
L 353 3500 
z
" transform="scale(0.015625)"/>
       <path id="DejaVuSans-65" d="M 3597 1894 
L 3597 1613 
L 953 1613 
Q 991 1019 1311 708 
Q 1631 397 2203 397 
Q 2534 397 2845 478 
Q 3156 559 3463 722 
L 3463 178 
Q 3153 47 2828 -22 
Q 2503 -91 2169 -91 
Q 1331 -91 842 396 
Q 353 884 353 1716 
Q 353 2575 817 3079 
Q 1281 3584 2069 3584 
Q 2775 3584 3186 3129 
Q 3597 2675 3597 1894 
z
M 3022 2063 
Q 3016 2534 2758 2815 
Q 2500 3097 2075 3097 
Q 1594 3097 1305 2825 
Q 1016 2553 972 2059 
L 3022 2063 
z
" transform="scale(0.015625)"/>
       <path id="DejaVuSans-20" transform="scale(0.015625)"/>
       <path id="DejaVuSans-28" d="M 1984 4856 
Q 1566 4138 1362 3434 
Q 1159 2731 1159 2009 
Q 1159 1288 1364 580 
Q 1569 -128 1984 -844 
L 1484 -844 
Q 1016 -109 783 600 
Q 550 1309 550 2009 
Q 550 2706 781 3412 
Q 1013 4119 1484 4856 
L 1984 4856 
z
" transform="scale(0.015625)"/>
       <path id="DejaVuSans-23" d="M 3272 2816 
L 2363 2816 
L 2100 1772 
L 3016 1772 
L 3272 2816 
z
M 2803 4594 
L 2478 3297 
L 3391 3297 
L 3719 4594 
L 4219 4594 
L 3897 3297 
L 4872 3297 
L 4872 2816 
L 3775 2816 
L 3519 1772 
L 4513 1772 
L 4513 1294 
L 3397 1294 
L 3072 0 
L 2572 0 
L 2894 1294 
L 1978 1294 
L 1656 0 
L 1153 0 
L 1478 1294 
L 494 1294 
L 494 1772 
L 1594 1772 
L 1856 2816 
L 850 2816 
L 850 3297 
L 1978 3297 
L 2297 4594 
L 2803 4594 
z
" transform="scale(0.015625)"/>
       <path id="DejaVuSans-64" d="M 2906 2969 
L 2906 4863 
L 3481 4863 
L 3481 0 
L 2906 0 
L 2906 525 
Q 2725 213 2448 61 
Q 2172 -91 1784 -91 
Q 1150 -91 751 415 
Q 353 922 353 1747 
Q 353 2572 751 3078 
Q 1150 3584 1784 3584 
Q 2172 3584 2448 3432 
Q 2725 3281 2906 2969 
z
M 947 1747 
Q 947 1113 1208 752 
Q 1469 391 1925 391 
Q 2381 391 2643 752 
Q 2906 1113 2906 1747 
Q 2906 2381 2643 2742 
Q 2381 3103 1925 3103 
Q 1469 3103 1208 2742 
Q 947 2381 947 1747 
z
" transform="scale(0.015625)"/>
       <path id="DejaVuSans-67" d="M 2906 1791 
Q 2906 2416 2648 2759 
Q 2391 3103 1925 3103 
Q 1463 3103 1205 2759 
Q 947 2416 947 1791 
Q 947 1169 1205 825 
Q 1463 481 1925 481 
Q 2391 481 2648 825 
Q 2906 1169 2906 1791 
z
M 3481 434 
Q 3481 -459 3084 -895 
Q 2688 -1331 1869 -1331 
Q 1566 -1331 1297 -1286 
Q 1028 -1241 775 -1147 
L 775 -588 
Q 1028 -725 1275 -790 
Q 1522 -856 1778 -856 
Q 2344 -856 2625 -561 
Q 2906 -266 2906 331 
L 2906 616 
Q 2728 306 2450 153 
Q 2172 0 1784 0 
Q 1141 0 747 490 
Q 353 981 353 1791 
Q 353 2603 747 3093 
Q 1141 3584 1784 3584 
Q 2172 3584 2450 3431 
Q 2728 3278 2906 2969 
L 2906 3500 
L 3481 3500 
L 3481 434 
z
" transform="scale(0.015625)"/>
       <path id="DejaVuSans-73" d="M 2834 3397 
L 2834 2853 
Q 2591 2978 2328 3040 
Q 2066 3103 1784 3103 
Q 1356 3103 1142 2972 
Q 928 2841 928 2578 
Q 928 2378 1081 2264 
Q 1234 2150 1697 2047 
L 1894 2003 
Q 2506 1872 2764 1633 
Q 3022 1394 3022 966 
Q 3022 478 2636 193 
Q 2250 -91 1575 -91 
Q 1294 -91 989 -36 
Q 684 19 347 128 
L 347 722 
Q 666 556 975 473 
Q 1284 391 1588 391 
Q 1994 391 2212 530 
Q 2431 669 2431 922 
Q 2431 1156 2273 1281 
Q 2116 1406 1581 1522 
L 1381 1569 
Q 847 1681 609 1914 
Q 372 2147 372 2553 
Q 372 3047 722 3315 
Q 1072 3584 1716 3584 
Q 2034 3584 2315 3537 
Q 2597 3491 2834 3397 
z
" transform="scale(0.015625)"/>
       <path id="DejaVuSans-29" d="M 513 4856 
L 1013 4856 
Q 1481 4119 1714 3412 
Q 1947 2706 1947 2009 
Q 1947 1309 1714 600 
Q 1481 -109 1013 -844 
L 513 -844 
Q 928 -128 1133 580 
Q 1338 1288 1338 2009 
Q 1338 2731 1133 3434 
Q 928 4138 513 4856 
z
" transform="scale(0.015625)"/>
      </defs>
      <use xlink:href="#DejaVuSans-53"/>
      <use xlink:href="#DejaVuSans-69" x="63.476562"/>
      <use xlink:href="#DejaVuSans-7a" x="91.259766"/>
      <use xlink:href="#DejaVuSans-65" x="143.75"/>
      <use xlink:href="#DejaVuSans-20" x="205.273438"/>
      <use xlink:href="#DejaVuSans-28" x="237.060547"/>
      <use xlink:href="#DejaVuSans-23" x="276.074219"/>
      <use xlink:href="#DejaVuSans-65" x="359.863281"/>
      <use xlink:href="#DejaVuSans-64" x="421.386719"/>
      <use xlink:href="#DejaVuSans-67" x="484.863281"/>
      <use xlink:href="#DejaVuSans-65" x="548.339844"/>
      <use xlink:href="#DejaVuSans-73" x="609.863281"/>
      <use xlink:href="#DejaVuSans-29" x="661.962891"/>
     </g>
    </g>
   </g>
   <g id="matplotlib.axis_2">
    <g id="ytick_1">
     <g id="line2d_7">
      <defs>
       <path id="m097d0d1eb6" d="M 0 0 
L -3.5 0 
" style="stroke: #000000; stroke-width: 0.8"/>
      </defs>
      <g>
       <use xlink:href="#m097d0d1eb6" x="54.02" y="314.908768" style="stroke: #000000; stroke-width: 0.8"/>
      </g>
     </g>
     <g id="text_8">
      <!-- 0.05 -->
      <g transform="translate(24.754375 318.707987)scale(0.1 -0.1)">
       <defs>
        <path id="DejaVuSans-2e" d="M 684 794 
L 1344 794 
L 1344 0 
L 684 0 
L 684 794 
z
" transform="scale(0.015625)"/>
        <path id="DejaVuSans-35" d="M 691 4666 
L 3169 4666 
L 3169 4134 
L 1269 4134 
L 1269 2991 
Q 1406 3038 1543 3061 
Q 1681 3084 1819 3084 
Q 2600 3084 3056 2656 
Q 3513 2228 3513 1497 
Q 3513 744 3044 326 
Q 2575 -91 1722 -91 
Q 1428 -91 1123 -41 
Q 819 9 494 109 
L 494 744 
Q 775 591 1075 516 
Q 1375 441 1709 441 
Q 2250 441 2565 725 
Q 2881 1009 2881 1497 
Q 2881 1984 2565 2268 
Q 2250 2553 1709 2553 
Q 1456 2553 1204 2497 
Q 953 2441 691 2322 
L 691 4666 
z
" transform="scale(0.015625)"/>
       </defs>
       <use xlink:href="#DejaVuSans-30"/>
       <use xlink:href="#DejaVuSans-2e" x="63.623047"/>
       <use xlink:href="#DejaVuSans-30" x="95.410156"/>
       <use xlink:href="#DejaVuSans-35" x="159.033203"/>
      </g>
     </g>
    </g>
    <g id="ytick_2">
     <g id="line2d_8">
      <g>
       <use xlink:href="#m097d0d1eb6" x="54.02" y="237.77198" style="stroke: #000000; stroke-width: 0.8"/>
      </g>
     </g>
     <g id="text_9">
      <!-- 0.10 -->
      <g transform="translate(24.754375 241.571198)scale(0.1 -0.1)">
       <defs>
        <path id="DejaVuSans-31" d="M 794 531 
L 1825 531 
L 1825 4091 
L 703 3866 
L 703 4441 
L 1819 4666 
L 2450 4666 
L 2450 531 
L 3481 531 
L 3481 0 
L 794 0 
L 794 531 
z
" transform="scale(0.015625)"/>
       </defs>
       <use xlink:href="#DejaVuSans-30"/>
       <use xlink:href="#DejaVuSans-2e" x="63.623047"/>
       <use xlink:href="#DejaVuSans-31" x="95.410156"/>
       <use xlink:href="#DejaVuSans-30" x="159.033203"/>
      </g>
     </g>
    </g>
    <g id="ytick_3">
     <g id="line2d_9">
      <g>
       <use xlink:href="#m097d0d1eb6" x="54.02" y="160.635191" style="stroke: #000000; stroke-width: 0.8"/>
      </g>
     </g>
     <g id="text_10">
      <!-- 0.15 -->
      <g transform="translate(24.754375 164.43441)scale(0.1 -0.1)">
       <use xlink:href="#DejaVuSans-30"/>
       <use xlink:href="#DejaVuSans-2e" x="63.623047"/>
       <use xlink:href="#DejaVuSans-31" x="95.410156"/>
       <use xlink:href="#DejaVuSans-35" x="159.033203"/>
      </g>
     </g>
    </g>
    <g id="ytick_4">
     <g id="line2d_10">
      <g>
       <use xlink:href="#m097d0d1eb6" x="54.02" y="83.498403" style="stroke: #000000; stroke-width: 0.8"/>
      </g>
     </g>
     <g id="text_11">
      <!-- 0.20 -->
      <g transform="translate(24.754375 87.297621)scale(0.1 -0.1)">
       <use xlink:href="#DejaVuSans-30"/>
       <use xlink:href="#DejaVuSans-2e" x="63.623047"/>
       <use xlink:href="#DejaVuSans-32" x="95.410156"/>
       <use xlink:href="#DejaVuSans-30" x="159.033203"/>
      </g>
     </g>
    </g>
    <g id="text_12">
     <!-- Seconds spent -->
     <g transform="translate(18.674688 245.040469)rotate(-90)scale(0.1 -0.1)">
      <defs>
       <path id="DejaVuSans-63" d="M 3122 3366 
L 3122 2828 
Q 2878 2963 2633 3030 
Q 2388 3097 2138 3097 
Q 1578 3097 1268 2742 
Q 959 2388 959 1747 
Q 959 1106 1268 751 
Q 1578 397 2138 397 
Q 2388 397 2633 464 
Q 2878 531 3122 666 
L 3122 134 
Q 2881 22 2623 -34 
Q 2366 -91 2075 -91 
Q 1284 -91 818 406 
Q 353 903 353 1747 
Q 353 2603 823 3093 
Q 1294 3584 2113 3584 
Q 2378 3584 2631 3529 
Q 2884 3475 3122 3366 
z
" transform="scale(0.015625)"/>
       <path id="DejaVuSans-6f" d="M 1959 3097 
Q 1497 3097 1228 2736 
Q 959 2375 959 1747 
Q 959 1119 1226 758 
Q 1494 397 1959 397 
Q 2419 397 2687 759 
Q 2956 1122 2956 1747 
Q 2956 2369 2687 2733 
Q 2419 3097 1959 3097 
z
M 1959 3584 
Q 2709 3584 3137 3096 
Q 3566 2609 3566 1747 
Q 3566 888 3137 398 
Q 2709 -91 1959 -91 
Q 1206 -91 779 398 
Q 353 888 353 1747 
Q 353 2609 779 3096 
Q 1206 3584 1959 3584 
z
" transform="scale(0.015625)"/>
       <path id="DejaVuSans-6e" d="M 3513 2113 
L 3513 0 
L 2938 0 
L 2938 2094 
Q 2938 2591 2744 2837 
Q 2550 3084 2163 3084 
Q 1697 3084 1428 2787 
Q 1159 2491 1159 1978 
L 1159 0 
L 581 0 
L 581 3500 
L 1159 3500 
L 1159 2956 
Q 1366 3272 1645 3428 
Q 1925 3584 2291 3584 
Q 2894 3584 3203 3211 
Q 3513 2838 3513 2113 
z
" transform="scale(0.015625)"/>
       <path id="DejaVuSans-70" d="M 1159 525 
L 1159 -1331 
L 581 -1331 
L 581 3500 
L 1159 3500 
L 1159 2969 
Q 1341 3281 1617 3432 
Q 1894 3584 2278 3584 
Q 2916 3584 3314 3078 
Q 3713 2572 3713 1747 
Q 3713 922 3314 415 
Q 2916 -91 2278 -91 
Q 1894 -91 1617 61 
Q 1341 213 1159 525 
z
M 3116 1747 
Q 3116 2381 2855 2742 
Q 2594 3103 2138 3103 
Q 1681 3103 1420 2742 
Q 1159 2381 1159 1747 
Q 1159 1113 1420 752 
Q 1681 391 2138 391 
Q 2594 391 2855 752 
Q 3116 1113 3116 1747 
z
" transform="scale(0.015625)"/>
       <path id="DejaVuSans-74" d="M 1172 4494 
L 1172 3500 
L 2356 3500 
L 2356 3053 
L 1172 3053 
L 1172 1153 
Q 1172 725 1289 603 
Q 1406 481 1766 481 
L 2356 481 
L 2356 0 
L 1766 0 
Q 1100 0 847 248 
Q 594 497 594 1153 
L 594 3053 
L 172 3053 
L 172 3500 
L 594 3500 
L 594 4494 
L 1172 4494 
z
" transform="scale(0.015625)"/>
      </defs>
      <use xlink:href="#DejaVuSans-53"/>
      <use xlink:href="#DejaVuSans-65" x="63.476562"/>
      <use xlink:href="#DejaVuSans-63" x="125"/>
      <use xlink:href="#DejaVuSans-6f" x="179.980469"/>
      <use xlink:href="#DejaVuSans-6e" x="241.162109"/>
      <use xlink:href="#DejaVuSans-64" x="304.541016"/>
      <use xlink:href="#DejaVuSans-73" x="368.017578"/>
      <use xlink:href="#DejaVuSans-20" x="420.117188"/>
      <use xlink:href="#DejaVuSans-73" x="451.904297"/>
      <use xlink:href="#DejaVuSans-70" x="504.003906"/>
      <use xlink:href="#DejaVuSans-65" x="567.480469"/>
      <use xlink:href="#DejaVuSans-6e" x="629.003906"/>
      <use xlink:href="#DejaVuSans-74" x="692.382812"/>
     </g>
    </g>
   </g>
   <g id="LineCollection_1">
    <path d="M 77.255455 373.532727 
L 77.255455 367.361784 
" clip-path="url(#p08b5c0d729)" style="fill: none; stroke: #1f77b4; stroke-width: 1.5"/>
    <path d="M 100.490909 371.989992 
L 100.490909 370.447256 
" clip-path="url(#p08b5c0d729)" style="fill: none; stroke: #1f77b4; stroke-width: 1.5"/>
    <path d="M 123.726364 367.361784 
L 123.726364 365.819048 
" clip-path="url(#p08b5c0d729)" style="fill: none; stroke: #1f77b4; stroke-width: 1.5"/>
    <path d="M 146.961818 365.819048 
L 146.961818 359.648105 
" clip-path="url(#p08b5c0d729)" style="fill: none; stroke: #1f77b4; stroke-width: 1.5"/>
    <path d="M 170.197273 362.733577 
L 170.197273 361.190841 
" clip-path="url(#p08b5c0d729)" style="fill: none; stroke: #1f77b4; stroke-width: 1.5"/>
    <path d="M 193.432727 358.10537 
L 193.432727 356.562634 
" clip-path="url(#p08b5c0d729)" style="fill: none; stroke: #1f77b4; stroke-width: 1.5"/>
    <path d="M 216.668182 353.477162 
L 216.668182 353.477162 
" clip-path="url(#p08b5c0d729)" style="fill: none; stroke: #1f77b4; stroke-width: 1.5"/>
    <path d="M 239.903636 347.306219 
L 239.903636 345.763483 
" clip-path="url(#p08b5c0d729)" style="fill: none; stroke: #1f77b4; stroke-width: 1.5"/>
    <path d="M 263.139091 339.59254 
L 263.139091 339.59254 
" clip-path="url(#p08b5c0d729)" style="fill: none; stroke: #1f77b4; stroke-width: 1.5"/>
    <path d="M 286.374545 331.878862 
L 286.374545 331.878862 
" clip-path="url(#p08b5c0d729)" style="fill: none; stroke: #1f77b4; stroke-width: 1.5"/>
    <path d="M 309.61 324.165183 
L 309.61 322.622447 
" clip-path="url(#p08b5c0d729)" style="fill: none; stroke: #1f77b4; stroke-width: 1.5"/>
    <path d="M 332.845455 313.366032 
L 332.845455 311.823297 
" clip-path="url(#p08b5c0d729)" style="fill: none; stroke: #1f77b4; stroke-width: 1.5"/>
    <path d="M 356.080909 301.024146 
L 356.080909 296.395939 
" clip-path="url(#p08b5c0d729)" style="fill: none; stroke: #1f77b4; stroke-width: 1.5"/>
    <path d="M 379.316364 285.596788 
L 379.316364 284.054053 
" clip-path="url(#p08b5c0d729)" style="fill: none; stroke: #1f77b4; stroke-width: 1.5"/>
    <path d="M 402.551818 268.626695 
L 402.551818 263.998488 
" clip-path="url(#p08b5c0d729)" style="fill: none; stroke: #1f77b4; stroke-width: 1.5"/>
    <path d="M 425.787273 243.942923 
L 425.787273 242.400187 
" clip-path="url(#p08b5c0d729)" style="fill: none; stroke: #1f77b4; stroke-width: 1.5"/>
    <path d="M 449.022727 223.887358 
L 449.022727 219.25915 
" clip-path="url(#p08b5c0d729)" style="fill: none; stroke: #1f77b4; stroke-width: 1.5"/>
    <path d="M 472.258182 191.489907 
L 472.258182 188.404435 
" clip-path="url(#p08b5c0d729)" style="fill: none; stroke: #1f77b4; stroke-width: 1.5"/>
    <path d="M 495.493636 154.464248 
L 495.493636 151.378777 
" clip-path="url(#p08b5c0d729)" style="fill: none; stroke: #1f77b4; stroke-width: 1.5"/>
    <path d="M 518.729091 106.639439 
L 518.729091 102.011232 
" clip-path="url(#p08b5c0d729)" style="fill: none; stroke: #1f77b4; stroke-width: 1.5"/>
    <path d="M 541.964545 51.100952 
L 541.964545 43.387273 
" clip-path="url(#p08b5c0d729)" style="fill: none; stroke: #1f77b4; stroke-width: 1.5"/>
   </g>
   <g id="line2d_11">
    <defs>
     <path id="m075d931141" d="M 3 0 
L -3 -0 
" style="stroke: #1f77b4"/>
    </defs>
    <g clip-path="url(#p08b5c0d729)">
     <use xlink:href="#m075d931141" x="77.255455" y="373.532727" style="fill: #1f77b4; stroke: #1f77b4"/>
     <use xlink:href="#m075d931141" x="100.490909" y="371.989992" style="fill: #1f77b4; stroke: #1f77b4"/>
     <use xlink:href="#m075d931141" x="123.726364" y="367.361784" style="fill: #1f77b4; stroke: #1f77b4"/>
     <use xlink:href="#m075d931141" x="146.961818" y="365.819048" style="fill: #1f77b4; stroke: #1f77b4"/>
     <use xlink:href="#m075d931141" x="170.197273" y="362.733577" style="fill: #1f77b4; stroke: #1f77b4"/>
     <use xlink:href="#m075d931141" x="193.432727" y="358.10537" style="fill: #1f77b4; stroke: #1f77b4"/>
     <use xlink:href="#m075d931141" x="216.668182" y="353.477162" style="fill: #1f77b4; stroke: #1f77b4"/>
     <use xlink:href="#m075d931141" x="239.903636" y="347.306219" style="fill: #1f77b4; stroke: #1f77b4"/>
     <use xlink:href="#m075d931141" x="263.139091" y="339.59254" style="fill: #1f77b4; stroke: #1f77b4"/>
     <use xlink:href="#m075d931141" x="286.374545" y="331.878862" style="fill: #1f77b4; stroke: #1f77b4"/>
     <use xlink:href="#m075d931141" x="309.61" y="324.165183" style="fill: #1f77b4; stroke: #1f77b4"/>
     <use xlink:href="#m075d931141" x="332.845455" y="313.366032" style="fill: #1f77b4; stroke: #1f77b4"/>
     <use xlink:href="#m075d931141" x="356.080909" y="301.024146" style="fill: #1f77b4; stroke: #1f77b4"/>
     <use xlink:href="#m075d931141" x="379.316364" y="285.596788" style="fill: #1f77b4; stroke: #1f77b4"/>
     <use xlink:href="#m075d931141" x="402.551818" y="268.626695" style="fill: #1f77b4; stroke: #1f77b4"/>
     <use xlink:href="#m075d931141" x="425.787273" y="243.942923" style="fill: #1f77b4; stroke: #1f77b4"/>
     <use xlink:href="#m075d931141" x="449.022727" y="223.887358" style="fill: #1f77b4; stroke: #1f77b4"/>
     <use xlink:href="#m075d931141" x="472.258182" y="191.489907" style="fill: #1f77b4; stroke: #1f77b4"/>
     <use xlink:href="#m075d931141" x="495.493636" y="154.464248" style="fill: #1f77b4; stroke: #1f77b4"/>
     <use xlink:href="#m075d931141" x="518.729091" y="106.639439" style="fill: #1f77b4; stroke: #1f77b4"/>
     <use xlink:href="#m075d931141" x="541.964545" y="51.100952" style="fill: #1f77b4; stroke: #1f77b4"/>
    </g>
   </g>
   <g id="line2d_12">
    <g clip-path="url(#p08b5c0d729)">
     <use xlink:href="#m075d931141" x="77.255455" y="367.361784" style="fill: #1f77b4; stroke: #1f77b4"/>
     <use xlink:href="#m075d931141" x="100.490909" y="370.447256" style="fill: #1f77b4; stroke: #1f77b4"/>
     <use xlink:href="#m075d931141" x="123.726364" y="365.819048" style="fill: #1f77b4; stroke: #1f77b4"/>
     <use xlink:href="#m075d931141" x="146.961818" y="359.648105" style="fill: #1f77b4; stroke: #1f77b4"/>
     <use xlink:href="#m075d931141" x="170.197273" y="361.190841" style="fill: #1f77b4; stroke: #1f77b4"/>
     <use xlink:href="#m075d931141" x="193.432727" y="356.562634" style="fill: #1f77b4; stroke: #1f77b4"/>
     <use xlink:href="#m075d931141" x="216.668182" y="353.477162" style="fill: #1f77b4; stroke: #1f77b4"/>
     <use xlink:href="#m075d931141" x="239.903636" y="345.763483" style="fill: #1f77b4; stroke: #1f77b4"/>
     <use xlink:href="#m075d931141" x="263.139091" y="339.59254" style="fill: #1f77b4; stroke: #1f77b4"/>
     <use xlink:href="#m075d931141" x="286.374545" y="331.878862" style="fill: #1f77b4; stroke: #1f77b4"/>
     <use xlink:href="#m075d931141" x="309.61" y="322.622447" style="fill: #1f77b4; stroke: #1f77b4"/>
     <use xlink:href="#m075d931141" x="332.845455" y="311.823297" style="fill: #1f77b4; stroke: #1f77b4"/>
     <use xlink:href="#m075d931141" x="356.080909" y="296.395939" style="fill: #1f77b4; stroke: #1f77b4"/>
     <use xlink:href="#m075d931141" x="379.316364" y="284.054053" style="fill: #1f77b4; stroke: #1f77b4"/>
     <use xlink:href="#m075d931141" x="402.551818" y="263.998488" style="fill: #1f77b4; stroke: #1f77b4"/>
     <use xlink:href="#m075d931141" x="425.787273" y="242.400187" style="fill: #1f77b4; stroke: #1f77b4"/>
     <use xlink:href="#m075d931141" x="449.022727" y="219.25915" style="fill: #1f77b4; stroke: #1f77b4"/>
     <use xlink:href="#m075d931141" x="472.258182" y="188.404435" style="fill: #1f77b4; stroke: #1f77b4"/>
     <use xlink:href="#m075d931141" x="495.493636" y="151.378777" style="fill: #1f77b4; stroke: #1f77b4"/>
     <use xlink:href="#m075d931141" x="518.729091" y="102.011232" style="fill: #1f77b4; stroke: #1f77b4"/>
     <use xlink:href="#m075d931141" x="541.964545" y="43.387273" style="fill: #1f77b4; stroke: #1f77b4"/>
    </g>
   </g>
   <g id="LineCollection_2">
    <path d="M 77.255455 371.989992 
L 77.255455 361.190841 
" clip-path="url(#p08b5c0d729)" style="fill: none; stroke: #ff7f0e; stroke-width: 1.5"/>
    <path d="M 100.490909 368.90452 
L 100.490909 368.90452 
" clip-path="url(#p08b5c0d729)" style="fill: none; stroke: #ff7f0e; stroke-width: 1.5"/>
    <path d="M 123.726364 365.819048 
L 123.726364 364.276313 
" clip-path="url(#p08b5c0d729)" style="fill: none; stroke: #ff7f0e; stroke-width: 1.5"/>
    <path d="M 146.961818 362.733577 
L 146.961818 325.707918 
" clip-path="url(#p08b5c0d729)" style="fill: none; stroke: #ff7f0e; stroke-width: 1.5"/>
    <path d="M 170.197273 359.648105 
L 170.197273 359.648105 
" clip-path="url(#p08b5c0d729)" style="fill: none; stroke: #ff7f0e; stroke-width: 1.5"/>
    <path d="M 193.432727 356.562634 
L 193.432727 355.019898 
" clip-path="url(#p08b5c0d729)" style="fill: none; stroke: #ff7f0e; stroke-width: 1.5"/>
    <path d="M 216.668182 351.934427 
L 216.668182 350.391691 
" clip-path="url(#p08b5c0d729)" style="fill: none; stroke: #ff7f0e; stroke-width: 1.5"/>
    <path d="M 239.903636 344.220748 
L 239.903636 344.220748 
" clip-path="url(#p08b5c0d729)" style="fill: none; stroke: #ff7f0e; stroke-width: 1.5"/>
    <path d="M 263.139091 339.59254 
L 263.139091 338.049805 
" clip-path="url(#p08b5c0d729)" style="fill: none; stroke: #ff7f0e; stroke-width: 1.5"/>
    <path d="M 286.374545 330.336126 
L 286.374545 330.336126 
" clip-path="url(#p08b5c0d729)" style="fill: none; stroke: #ff7f0e; stroke-width: 1.5"/>
    <path d="M 309.61 322.622447 
L 309.61 321.079711 
" clip-path="url(#p08b5c0d729)" style="fill: none; stroke: #ff7f0e; stroke-width: 1.5"/>
    <path d="M 332.845455 313.366032 
L 332.845455 311.823297 
" clip-path="url(#p08b5c0d729)" style="fill: none; stroke: #ff7f0e; stroke-width: 1.5"/>
    <path d="M 356.080909 299.48141 
L 356.080909 297.938675 
" clip-path="url(#p08b5c0d729)" style="fill: none; stroke: #ff7f0e; stroke-width: 1.5"/>
    <path d="M 379.316364 287.139524 
L 379.316364 285.596788 
" clip-path="url(#p08b5c0d729)" style="fill: none; stroke: #ff7f0e; stroke-width: 1.5"/>
    <path d="M 402.551818 270.169431 
L 402.551818 267.083959 
" clip-path="url(#p08b5c0d729)" style="fill: none; stroke: #ff7f0e; stroke-width: 1.5"/>
    <path d="M 425.787273 247.028394 
L 425.787273 245.485658 
" clip-path="url(#p08b5c0d729)" style="fill: none; stroke: #ff7f0e; stroke-width: 1.5"/>
    <path d="M 449.022727 231.601037 
L 449.022727 225.430093 
" clip-path="url(#p08b5c0d729)" style="fill: none; stroke: #ff7f0e; stroke-width: 1.5"/>
    <path d="M 472.258182 197.66085 
L 472.258182 194.575378 
" clip-path="url(#p08b5c0d729)" style="fill: none; stroke: #ff7f0e; stroke-width: 1.5"/>
    <path d="M 495.493636 166.806134 
L 495.493636 165.263398 
" clip-path="url(#p08b5c0d729)" style="fill: none; stroke: #ff7f0e; stroke-width: 1.5"/>
    <path d="M 518.729091 125.152268 
L 518.729091 122.066797 
" clip-path="url(#p08b5c0d729)" style="fill: none; stroke: #ff7f0e; stroke-width: 1.5"/>
    <path d="M 541.964545 74.241988 
L 541.964545 71.156517 
" clip-path="url(#p08b5c0d729)" style="fill: none; stroke: #ff7f0e; stroke-width: 1.5"/>
   </g>
   <g id="line2d_13">
    <defs>
     <path id="m6e96dabdff" d="M 3 0 
L -3 -0 
" style="stroke: #ff7f0e"/>
    </defs>
    <g clip-path="url(#p08b5c0d729)">
     <use xlink:href="#m6e96dabdff" x="77.255455" y="371.989992" style="fill: #ff7f0e; stroke: #ff7f0e"/>
     <use xlink:href="#m6e96dabdff" x="100.490909" y="368.90452" style="fill: #ff7f0e; stroke: #ff7f0e"/>
     <use xlink:href="#m6e96dabdff" x="123.726364" y="365.819048" style="fill: #ff7f0e; stroke: #ff7f0e"/>
     <use xlink:href="#m6e96dabdff" x="146.961818" y="362.733577" style="fill: #ff7f0e; stroke: #ff7f0e"/>
     <use xlink:href="#m6e96dabdff" x="170.197273" y="359.648105" style="fill: #ff7f0e; stroke: #ff7f0e"/>
     <use xlink:href="#m6e96dabdff" x="193.432727" y="356.562634" style="fill: #ff7f0e; stroke: #ff7f0e"/>
     <use xlink:href="#m6e96dabdff" x="216.668182" y="351.934427" style="fill: #ff7f0e; stroke: #ff7f0e"/>
     <use xlink:href="#m6e96dabdff" x="239.903636" y="344.220748" style="fill: #ff7f0e; stroke: #ff7f0e"/>
     <use xlink:href="#m6e96dabdff" x="263.139091" y="339.59254" style="fill: #ff7f0e; stroke: #ff7f0e"/>
     <use xlink:href="#m6e96dabdff" x="286.374545" y="330.336126" style="fill: #ff7f0e; stroke: #ff7f0e"/>
     <use xlink:href="#m6e96dabdff" x="309.61" y="322.622447" style="fill: #ff7f0e; stroke: #ff7f0e"/>
     <use xlink:href="#m6e96dabdff" x="332.845455" y="313.366032" style="fill: #ff7f0e; stroke: #ff7f0e"/>
     <use xlink:href="#m6e96dabdff" x="356.080909" y="299.48141" style="fill: #ff7f0e; stroke: #ff7f0e"/>
     <use xlink:href="#m6e96dabdff" x="379.316364" y="287.139524" style="fill: #ff7f0e; stroke: #ff7f0e"/>
     <use xlink:href="#m6e96dabdff" x="402.551818" y="270.169431" style="fill: #ff7f0e; stroke: #ff7f0e"/>
     <use xlink:href="#m6e96dabdff" x="425.787273" y="247.028394" style="fill: #ff7f0e; stroke: #ff7f0e"/>
     <use xlink:href="#m6e96dabdff" x="449.022727" y="231.601037" style="fill: #ff7f0e; stroke: #ff7f0e"/>
     <use xlink:href="#m6e96dabdff" x="472.258182" y="197.66085" style="fill: #ff7f0e; stroke: #ff7f0e"/>
     <use xlink:href="#m6e96dabdff" x="495.493636" y="166.806134" style="fill: #ff7f0e; stroke: #ff7f0e"/>
     <use xlink:href="#m6e96dabdff" x="518.729091" y="125.152268" style="fill: #ff7f0e; stroke: #ff7f0e"/>
     <use xlink:href="#m6e96dabdff" x="541.964545" y="74.241988" style="fill: #ff7f0e; stroke: #ff7f0e"/>
    </g>
   </g>
   <g id="line2d_14">
    <g clip-path="url(#p08b5c0d729)">
     <use xlink:href="#m6e96dabdff" x="77.255455" y="361.190841" style="fill: #ff7f0e; stroke: #ff7f0e"/>
     <use xlink:href="#m6e96dabdff" x="100.490909" y="368.90452" style="fill: #ff7f0e; stroke: #ff7f0e"/>
     <use xlink:href="#m6e96dabdff" x="123.726364" y="364.276313" style="fill: #ff7f0e; stroke: #ff7f0e"/>
     <use xlink:href="#m6e96dabdff" x="146.961818" y="325.707918" style="fill: #ff7f0e; stroke: #ff7f0e"/>
     <use xlink:href="#m6e96dabdff" x="170.197273" y="359.648105" style="fill: #ff7f0e; stroke: #ff7f0e"/>
     <use xlink:href="#m6e96dabdff" x="193.432727" y="355.019898" style="fill: #ff7f0e; stroke: #ff7f0e"/>
     <use xlink:href="#m6e96dabdff" x="216.668182" y="350.391691" style="fill: #ff7f0e; stroke: #ff7f0e"/>
     <use xlink:href="#m6e96dabdff" x="239.903636" y="344.220748" style="fill: #ff7f0e; stroke: #ff7f0e"/>
     <use xlink:href="#m6e96dabdff" x="263.139091" y="338.049805" style="fill: #ff7f0e; stroke: #ff7f0e"/>
     <use xlink:href="#m6e96dabdff" x="286.374545" y="330.336126" style="fill: #ff7f0e; stroke: #ff7f0e"/>
     <use xlink:href="#m6e96dabdff" x="309.61" y="321.079711" style="fill: #ff7f0e; stroke: #ff7f0e"/>
     <use xlink:href="#m6e96dabdff" x="332.845455" y="311.823297" style="fill: #ff7f0e; stroke: #ff7f0e"/>
     <use xlink:href="#m6e96dabdff" x="356.080909" y="297.938675" style="fill: #ff7f0e; stroke: #ff7f0e"/>
     <use xlink:href="#m6e96dabdff" x="379.316364" y="285.596788" style="fill: #ff7f0e; stroke: #ff7f0e"/>
     <use xlink:href="#m6e96dabdff" x="402.551818" y="267.083959" style="fill: #ff7f0e; stroke: #ff7f0e"/>
     <use xlink:href="#m6e96dabdff" x="425.787273" y="245.485658" style="fill: #ff7f0e; stroke: #ff7f0e"/>
     <use xlink:href="#m6e96dabdff" x="449.022727" y="225.430093" style="fill: #ff7f0e; stroke: #ff7f0e"/>
     <use xlink:href="#m6e96dabdff" x="472.258182" y="194.575378" style="fill: #ff7f0e; stroke: #ff7f0e"/>
     <use xlink:href="#m6e96dabdff" x="495.493636" y="165.263398" style="fill: #ff7f0e; stroke: #ff7f0e"/>
     <use xlink:href="#m6e96dabdff" x="518.729091" y="122.066797" style="fill: #ff7f0e; stroke: #ff7f0e"/>
     <use xlink:href="#m6e96dabdff" x="541.964545" y="71.156517" style="fill: #ff7f0e; stroke: #ff7f0e"/>
    </g>
   </g>
   <g id="LineCollection_3">
    <path d="M 77.255455 373.532727 
L 77.255455 367.361784 
" clip-path="url(#p08b5c0d729)" style="fill: none; stroke: #2ca02c; stroke-width: 1.5"/>
    <path d="M 100.490909 371.989992 
L 100.490909 371.989992 
" clip-path="url(#p08b5c0d729)" style="fill: none; stroke: #2ca02c; stroke-width: 1.5"/>
    <path d="M 123.726364 368.90452 
L 123.726364 365.819048 
" clip-path="url(#p08b5c0d729)" style="fill: none; stroke: #2ca02c; stroke-width: 1.5"/>
    <path d="M 146.961818 365.819048 
L 146.961818 362.733577 
" clip-path="url(#p08b5c0d729)" style="fill: none; stroke: #2ca02c; stroke-width: 1.5"/>
    <path d="M 170.197273 362.733577 
L 170.197273 362.733577 
" clip-path="url(#p08b5c0d729)" style="fill: none; stroke: #2ca02c; stroke-width: 1.5"/>
    <path d="M 193.432727 358.10537 
L 193.432727 358.10537 
" clip-path="url(#p08b5c0d729)" style="fill: none; stroke: #2ca02c; stroke-width: 1.5"/>
    <path d="M 216.668182 353.477162 
L 216.668182 351.934427 
" clip-path="url(#p08b5c0d729)" style="fill: none; stroke: #2ca02c; stroke-width: 1.5"/>
    <path d="M 239.903636 348.848955 
L 239.903636 345.763483 
" clip-path="url(#p08b5c0d729)" style="fill: none; stroke: #2ca02c; stroke-width: 1.5"/>
    <path d="M 263.139091 341.135276 
L 263.139091 339.59254 
" clip-path="url(#p08b5c0d729)" style="fill: none; stroke: #2ca02c; stroke-width: 1.5"/>
    <path d="M 286.374545 333.421597 
L 286.374545 330.336126 
" clip-path="url(#p08b5c0d729)" style="fill: none; stroke: #2ca02c; stroke-width: 1.5"/>
    <path d="M 309.61 324.165183 
L 309.61 322.622447 
" clip-path="url(#p08b5c0d729)" style="fill: none; stroke: #2ca02c; stroke-width: 1.5"/>
    <path d="M 332.845455 313.366032 
L 332.845455 313.366032 
" clip-path="url(#p08b5c0d729)" style="fill: none; stroke: #2ca02c; stroke-width: 1.5"/>
    <path d="M 356.080909 301.024146 
L 356.080909 299.48141 
" clip-path="url(#p08b5c0d729)" style="fill: none; stroke: #2ca02c; stroke-width: 1.5"/>
    <path d="M 379.316364 285.596788 
L 379.316364 285.596788 
" clip-path="url(#p08b5c0d729)" style="fill: none; stroke: #2ca02c; stroke-width: 1.5"/>
    <path d="M 402.551818 270.169431 
L 402.551818 267.083959 
" clip-path="url(#p08b5c0d729)" style="fill: none; stroke: #2ca02c; stroke-width: 1.5"/>
    <path d="M 425.787273 247.028394 
L 425.787273 245.485658 
" clip-path="url(#p08b5c0d729)" style="fill: none; stroke: #2ca02c; stroke-width: 1.5"/>
    <path d="M 449.022727 225.430093 
L 449.022727 220.801886 
" clip-path="url(#p08b5c0d729)" style="fill: none; stroke: #2ca02c; stroke-width: 1.5"/>
    <path d="M 472.258182 189.947171 
L 472.258182 188.404435 
" clip-path="url(#p08b5c0d729)" style="fill: none; stroke: #2ca02c; stroke-width: 1.5"/>
    <path d="M 495.493636 154.464248 
L 495.493636 151.378777 
" clip-path="url(#p08b5c0d729)" style="fill: none; stroke: #2ca02c; stroke-width: 1.5"/>
    <path d="M 518.729091 111.267647 
L 518.729091 103.553968 
" clip-path="url(#p08b5c0d729)" style="fill: none; stroke: #2ca02c; stroke-width: 1.5"/>
    <path d="M 541.964545 51.100952 
L 541.964545 49.558216 
" clip-path="url(#p08b5c0d729)" style="fill: none; stroke: #2ca02c; stroke-width: 1.5"/>
   </g>
   <g id="line2d_15">
    <defs>
     <path id="m72d1321754" d="M 3 0 
L -3 -0 
" style="stroke: #2ca02c"/>
    </defs>
    <g clip-path="url(#p08b5c0d729)">
     <use xlink:href="#m72d1321754" x="77.255455" y="373.532727" style="fill: #2ca02c; stroke: #2ca02c"/>
     <use xlink:href="#m72d1321754" x="100.490909" y="371.989992" style="fill: #2ca02c; stroke: #2ca02c"/>
     <use xlink:href="#m72d1321754" x="123.726364" y="368.90452" style="fill: #2ca02c; stroke: #2ca02c"/>
     <use xlink:href="#m72d1321754" x="146.961818" y="365.819048" style="fill: #2ca02c; stroke: #2ca02c"/>
     <use xlink:href="#m72d1321754" x="170.197273" y="362.733577" style="fill: #2ca02c; stroke: #2ca02c"/>
     <use xlink:href="#m72d1321754" x="193.432727" y="358.10537" style="fill: #2ca02c; stroke: #2ca02c"/>
     <use xlink:href="#m72d1321754" x="216.668182" y="353.477162" style="fill: #2ca02c; stroke: #2ca02c"/>
     <use xlink:href="#m72d1321754" x="239.903636" y="348.848955" style="fill: #2ca02c; stroke: #2ca02c"/>
     <use xlink:href="#m72d1321754" x="263.139091" y="341.135276" style="fill: #2ca02c; stroke: #2ca02c"/>
     <use xlink:href="#m72d1321754" x="286.374545" y="333.421597" style="fill: #2ca02c; stroke: #2ca02c"/>
     <use xlink:href="#m72d1321754" x="309.61" y="324.165183" style="fill: #2ca02c; stroke: #2ca02c"/>
     <use xlink:href="#m72d1321754" x="332.845455" y="313.366032" style="fill: #2ca02c; stroke: #2ca02c"/>
     <use xlink:href="#m72d1321754" x="356.080909" y="301.024146" style="fill: #2ca02c; stroke: #2ca02c"/>
     <use xlink:href="#m72d1321754" x="379.316364" y="285.596788" style="fill: #2ca02c; stroke: #2ca02c"/>
     <use xlink:href="#m72d1321754" x="402.551818" y="270.169431" style="fill: #2ca02c; stroke: #2ca02c"/>
     <use xlink:href="#m72d1321754" x="425.787273" y="247.028394" style="fill: #2ca02c; stroke: #2ca02c"/>
     <use xlink:href="#m72d1321754" x="449.022727" y="225.430093" style="fill: #2ca02c; stroke: #2ca02c"/>
     <use xlink:href="#m72d1321754" x="472.258182" y="189.947171" style="fill: #2ca02c; stroke: #2ca02c"/>
     <use xlink:href="#m72d1321754" x="495.493636" y="154.464248" style="fill: #2ca02c; stroke: #2ca02c"/>
     <use xlink:href="#m72d1321754" x="518.729091" y="111.267647" style="fill: #2ca02c; stroke: #2ca02c"/>
     <use xlink:href="#m72d1321754" x="541.964545" y="51.100952" style="fill: #2ca02c; stroke: #2ca02c"/>
    </g>
   </g>
   <g id="line2d_16">
    <g clip-path="url(#p08b5c0d729)">
     <use xlink:href="#m72d1321754" x="77.255455" y="367.361784" style="fill: #2ca02c; stroke: #2ca02c"/>
     <use xlink:href="#m72d1321754" x="100.490909" y="371.989992" style="fill: #2ca02c; stroke: #2ca02c"/>
     <use xlink:href="#m72d1321754" x="123.726364" y="365.819048" style="fill: #2ca02c; stroke: #2ca02c"/>
     <use xlink:href="#m72d1321754" x="146.961818" y="362.733577" style="fill: #2ca02c; stroke: #2ca02c"/>
     <use xlink:href="#m72d1321754" x="170.197273" y="362.733577" style="fill: #2ca02c; stroke: #2ca02c"/>
     <use xlink:href="#m72d1321754" x="193.432727" y="358.10537" style="fill: #2ca02c; stroke: #2ca02c"/>
     <use xlink:href="#m72d1321754" x="216.668182" y="351.934427" style="fill: #2ca02c; stroke: #2ca02c"/>
     <use xlink:href="#m72d1321754" x="239.903636" y="345.763483" style="fill: #2ca02c; stroke: #2ca02c"/>
     <use xlink:href="#m72d1321754" x="263.139091" y="339.59254" style="fill: #2ca02c; stroke: #2ca02c"/>
     <use xlink:href="#m72d1321754" x="286.374545" y="330.336126" style="fill: #2ca02c; stroke: #2ca02c"/>
     <use xlink:href="#m72d1321754" x="309.61" y="322.622447" style="fill: #2ca02c; stroke: #2ca02c"/>
     <use xlink:href="#m72d1321754" x="332.845455" y="313.366032" style="fill: #2ca02c; stroke: #2ca02c"/>
     <use xlink:href="#m72d1321754" x="356.080909" y="299.48141" style="fill: #2ca02c; stroke: #2ca02c"/>
     <use xlink:href="#m72d1321754" x="379.316364" y="285.596788" style="fill: #2ca02c; stroke: #2ca02c"/>
     <use xlink:href="#m72d1321754" x="402.551818" y="267.083959" style="fill: #2ca02c; stroke: #2ca02c"/>
     <use xlink:href="#m72d1321754" x="425.787273" y="245.485658" style="fill: #2ca02c; stroke: #2ca02c"/>
     <use xlink:href="#m72d1321754" x="449.022727" y="220.801886" style="fill: #2ca02c; stroke: #2ca02c"/>
     <use xlink:href="#m72d1321754" x="472.258182" y="188.404435" style="fill: #2ca02c; stroke: #2ca02c"/>
     <use xlink:href="#m72d1321754" x="495.493636" y="151.378777" style="fill: #2ca02c; stroke: #2ca02c"/>
     <use xlink:href="#m72d1321754" x="518.729091" y="103.553968" style="fill: #2ca02c; stroke: #2ca02c"/>
     <use xlink:href="#m72d1321754" x="541.964545" y="49.558216" style="fill: #2ca02c; stroke: #2ca02c"/>
    </g>
   </g>
   <g id="LineCollection_4">
    <path d="M 77.255455 370.447256 
L 77.255455 362.733577 
" clip-path="url(#p08b5c0d729)" style="fill: none; stroke: #d62728; stroke-width: 1.5"/>
    <path d="M 100.490909 367.361784 
L 100.490909 367.361784 
" clip-path="url(#p08b5c0d729)" style="fill: none; stroke: #d62728; stroke-width: 1.5"/>
    <path d="M 123.726364 362.733577 
L 123.726364 362.733577 
" clip-path="url(#p08b5c0d729)" style="fill: none; stroke: #d62728; stroke-width: 1.5"/>
    <path d="M 146.961818 361.190841 
L 146.961818 351.934427 
" clip-path="url(#p08b5c0d729)" style="fill: none; stroke: #d62728; stroke-width: 1.5"/>
    <path d="M 170.197273 358.10537 
L 170.197273 358.10537 
" clip-path="url(#p08b5c0d729)" style="fill: none; stroke: #d62728; stroke-width: 1.5"/>
    <path d="M 193.432727 351.934427 
L 193.432727 351.934427 
" clip-path="url(#p08b5c0d729)" style="fill: none; stroke: #d62728; stroke-width: 1.5"/>
    <path d="M 216.668182 347.306219 
L 216.668182 347.306219 
" clip-path="url(#p08b5c0d729)" style="fill: none; stroke: #d62728; stroke-width: 1.5"/>
    <path d="M 239.903636 342.678012 
L 239.903636 341.135276 
" clip-path="url(#p08b5c0d729)" style="fill: none; stroke: #d62728; stroke-width: 1.5"/>
    <path d="M 263.139091 334.964333 
L 263.139091 333.421597 
" clip-path="url(#p08b5c0d729)" style="fill: none; stroke: #d62728; stroke-width: 1.5"/>
    <path d="M 286.374545 327.250654 
L 286.374545 325.707918 
" clip-path="url(#p08b5c0d729)" style="fill: none; stroke: #d62728; stroke-width: 1.5"/>
    <path d="M 309.61 316.451504 
L 309.61 316.451504 
" clip-path="url(#p08b5c0d729)" style="fill: none; stroke: #d62728; stroke-width: 1.5"/>
    <path d="M 332.845455 305.652353 
L 332.845455 305.652353 
" clip-path="url(#p08b5c0d729)" style="fill: none; stroke: #d62728; stroke-width: 1.5"/>
    <path d="M 356.080909 294.853203 
L 356.080909 291.767732 
" clip-path="url(#p08b5c0d729)" style="fill: none; stroke: #d62728; stroke-width: 1.5"/>
    <path d="M 379.316364 277.88311 
L 379.316364 276.340374 
" clip-path="url(#p08b5c0d729)" style="fill: none; stroke: #d62728; stroke-width: 1.5"/>
    <path d="M 402.551818 260.913016 
L 402.551818 259.37028 
" clip-path="url(#p08b5c0d729)" style="fill: none; stroke: #d62728; stroke-width: 1.5"/>
    <path d="M 425.787273 239.314715 
L 425.787273 231.601037 
" clip-path="url(#p08b5c0d729)" style="fill: none; stroke: #d62728; stroke-width: 1.5"/>
    <path d="M 449.022727 217.716415 
L 449.022727 213.088207 
" clip-path="url(#p08b5c0d729)" style="fill: none; stroke: #d62728; stroke-width: 1.5"/>
    <path d="M 472.258182 182.233492 
L 472.258182 179.14802 
" clip-path="url(#p08b5c0d729)" style="fill: none; stroke: #d62728; stroke-width: 1.5"/>
    <path d="M 495.493636 149.836041 
L 495.493636 145.207833 
" clip-path="url(#p08b5c0d729)" style="fill: none; stroke: #d62728; stroke-width: 1.5"/>
    <path d="M 518.729091 109.724911 
L 518.729091 86.583874 
" clip-path="url(#p08b5c0d729)" style="fill: none; stroke: #d62728; stroke-width: 1.5"/>
    <path d="M 541.964545 58.81463 
L 541.964545 51.100952 
" clip-path="url(#p08b5c0d729)" style="fill: none; stroke: #d62728; stroke-width: 1.5"/>
   </g>
   <g id="line2d_17">
    <defs>
     <path id="m732511960e" d="M 3 0 
L -3 -0 
" style="stroke: #d62728"/>
    </defs>
    <g clip-path="url(#p08b5c0d729)">
     <use xlink:href="#m732511960e" x="77.255455" y="370.447256" style="fill: #d62728; stroke: #d62728"/>
     <use xlink:href="#m732511960e" x="100.490909" y="367.361784" style="fill: #d62728; stroke: #d62728"/>
     <use xlink:href="#m732511960e" x="123.726364" y="362.733577" style="fill: #d62728; stroke: #d62728"/>
     <use xlink:href="#m732511960e" x="146.961818" y="361.190841" style="fill: #d62728; stroke: #d62728"/>
     <use xlink:href="#m732511960e" x="170.197273" y="358.10537" style="fill: #d62728; stroke: #d62728"/>
     <use xlink:href="#m732511960e" x="193.432727" y="351.934427" style="fill: #d62728; stroke: #d62728"/>
     <use xlink:href="#m732511960e" x="216.668182" y="347.306219" style="fill: #d62728; stroke: #d62728"/>
     <use xlink:href="#m732511960e" x="239.903636" y="342.678012" style="fill: #d62728; stroke: #d62728"/>
     <use xlink:href="#m732511960e" x="263.139091" y="334.964333" style="fill: #d62728; stroke: #d62728"/>
     <use xlink:href="#m732511960e" x="286.374545" y="327.250654" style="fill: #d62728; stroke: #d62728"/>
     <use xlink:href="#m732511960e" x="309.61" y="316.451504" style="fill: #d62728; stroke: #d62728"/>
     <use xlink:href="#m732511960e" x="332.845455" y="305.652353" style="fill: #d62728; stroke: #d62728"/>
     <use xlink:href="#m732511960e" x="356.080909" y="294.853203" style="fill: #d62728; stroke: #d62728"/>
     <use xlink:href="#m732511960e" x="379.316364" y="277.88311" style="fill: #d62728; stroke: #d62728"/>
     <use xlink:href="#m732511960e" x="402.551818" y="260.913016" style="fill: #d62728; stroke: #d62728"/>
     <use xlink:href="#m732511960e" x="425.787273" y="239.314715" style="fill: #d62728; stroke: #d62728"/>
     <use xlink:href="#m732511960e" x="449.022727" y="217.716415" style="fill: #d62728; stroke: #d62728"/>
     <use xlink:href="#m732511960e" x="472.258182" y="182.233492" style="fill: #d62728; stroke: #d62728"/>
     <use xlink:href="#m732511960e" x="495.493636" y="149.836041" style="fill: #d62728; stroke: #d62728"/>
     <use xlink:href="#m732511960e" x="518.729091" y="109.724911" style="fill: #d62728; stroke: #d62728"/>
     <use xlink:href="#m732511960e" x="541.964545" y="58.81463" style="fill: #d62728; stroke: #d62728"/>
    </g>
   </g>
   <g id="line2d_18">
    <g clip-path="url(#p08b5c0d729)">
     <use xlink:href="#m732511960e" x="77.255455" y="362.733577" style="fill: #d62728; stroke: #d62728"/>
     <use xlink:href="#m732511960e" x="100.490909" y="367.361784" style="fill: #d62728; stroke: #d62728"/>
     <use xlink:href="#m732511960e" x="123.726364" y="362.733577" style="fill: #d62728; stroke: #d62728"/>
     <use xlink:href="#m732511960e" x="146.961818" y="351.934427" style="fill: #d62728; stroke: #d62728"/>
     <use xlink:href="#m732511960e" x="170.197273" y="358.10537" style="fill: #d62728; stroke: #d62728"/>
     <use xlink:href="#m732511960e" x="193.432727" y="351.934427" style="fill: #d62728; stroke: #d62728"/>
     <use xlink:href="#m732511960e" x="216.668182" y="347.306219" style="fill: #d62728; stroke: #d62728"/>
     <use xlink:href="#m732511960e" x="239.903636" y="341.135276" style="fill: #d62728; stroke: #d62728"/>
     <use xlink:href="#m732511960e" x="263.139091" y="333.421597" style="fill: #d62728; stroke: #d62728"/>
     <use xlink:href="#m732511960e" x="286.374545" y="325.707918" style="fill: #d62728; stroke: #d62728"/>
     <use xlink:href="#m732511960e" x="309.61" y="316.451504" style="fill: #d62728; stroke: #d62728"/>
     <use xlink:href="#m732511960e" x="332.845455" y="305.652353" style="fill: #d62728; stroke: #d62728"/>
     <use xlink:href="#m732511960e" x="356.080909" y="291.767732" style="fill: #d62728; stroke: #d62728"/>
     <use xlink:href="#m732511960e" x="379.316364" y="276.340374" style="fill: #d62728; stroke: #d62728"/>
     <use xlink:href="#m732511960e" x="402.551818" y="259.37028" style="fill: #d62728; stroke: #d62728"/>
     <use xlink:href="#m732511960e" x="425.787273" y="231.601037" style="fill: #d62728; stroke: #d62728"/>
     <use xlink:href="#m732511960e" x="449.022727" y="213.088207" style="fill: #d62728; stroke: #d62728"/>
     <use xlink:href="#m732511960e" x="472.258182" y="179.14802" style="fill: #d62728; stroke: #d62728"/>
     <use xlink:href="#m732511960e" x="495.493636" y="145.207833" style="fill: #d62728; stroke: #d62728"/>
     <use xlink:href="#m732511960e" x="518.729091" y="86.583874" style="fill: #d62728; stroke: #d62728"/>
     <use xlink:href="#m732511960e" x="541.964545" y="51.100952" style="fill: #d62728; stroke: #d62728"/>
    </g>
   </g>
   <g id="line2d_19">
    <path d="M 77.255455 369.521614 
L 100.490909 371.372897 
L 123.726364 367.053237 
L 146.961818 363.350671 
L 170.197273 361.807935 
L 193.432727 357.796822 
L 216.668182 353.477162 
L 239.903636 346.997672 
L 263.139091 339.59254 
L 286.374545 331.878862 
L 309.61 323.548088 
L 332.845455 312.748938 
L 356.080909 299.172863 
L 379.316364 284.671147 
L 402.551818 266.775412 
L 425.787273 243.634376 
L 449.022727 220.184792 
L 472.258182 190.564265 
L 495.493636 153.230059 
L 518.729091 104.479609 
L 541.964545 48.01548 
" clip-path="url(#p08b5c0d729)" style="fill: none; stroke: #1f77b4; stroke-width: 1.5; stroke-linecap: square"/>
   </g>
   <g id="line2d_20">
    <path d="M 77.255455 367.978879 
L 100.490909 368.90452 
L 123.726364 365.510501 
L 146.961818 353.477162 
L 170.197273 359.648105 
L 193.432727 356.254087 
L 216.668182 351.317332 
L 239.903636 344.220748 
L 263.139091 338.358352 
L 286.374545 330.336126 
L 309.61 322.3139 
L 332.845455 312.748938 
L 356.080909 299.172863 
L 379.316364 285.905336 
L 402.551818 268.935242 
L 425.787273 246.719847 
L 449.022727 227.898471 
L 472.258182 196.735208 
L 495.493636 166.18904 
L 518.729091 123.609533 
L 541.964545 72.390705 
" clip-path="url(#p08b5c0d729)" style="fill: none; stroke: #ff7f0e; stroke-width: 1.5; stroke-linecap: square"/>
   </g>
   <g id="line2d_21">
    <path d="M 77.255455 371.06435 
L 100.490909 371.989992 
L 123.726364 367.361784 
L 146.961818 364.58486 
L 170.197273 362.733577 
L 193.432727 358.10537 
L 216.668182 353.168615 
L 239.903636 347.306219 
L 263.139091 339.901088 
L 286.374545 331.878862 
L 309.61 323.239541 
L 332.845455 313.366032 
L 356.080909 300.407052 
L 379.316364 285.596788 
L 402.551818 268.935242 
L 425.787273 246.719847 
L 449.022727 222.344622 
L 472.258182 189.330076 
L 495.493636 152.921512 
L 518.729091 105.713798 
L 541.964545 50.483857 
" clip-path="url(#p08b5c0d729)" style="fill: none; stroke: #2ca02c; stroke-width: 1.5; stroke-linecap: square"/>
   </g>
   <g id="line2d_22">
    <path d="M 77.255455 367.361784 
L 100.490909 367.361784 
L 123.726364 362.733577 
L 146.961818 358.722464 
L 170.197273 358.10537 
L 193.432727 351.934427 
L 216.668182 347.306219 
L 239.903636 341.443823 
L 263.139091 333.730144 
L 286.374545 326.016466 
L 309.61 316.451504 
L 332.845455 305.652353 
L 356.080909 292.693373 
L 379.316364 277.574562 
L 402.551818 260.604469 
L 425.787273 236.846338 
L 449.022727 215.248037 
L 472.258182 181.30785 
L 495.493636 148.293305 
L 518.729091 101.702685 
L 541.964545 53.877876 
" clip-path="url(#p08b5c0d729)" style="fill: none; stroke: #d62728; stroke-width: 1.5; stroke-linecap: square"/>
   </g>
   <g id="patch_3">
    <path d="M 54.02 390.04 
L 54.02 26.88 
" style="fill: none; stroke: #000000; stroke-width: 0.8; stroke-linejoin: miter; stroke-linecap: square"/>
   </g>
   <g id="patch_4">
    <path d="M 565.2 390.04 
L 565.2 26.88 
" style="fill: none; stroke: #000000; stroke-width: 0.8; stroke-linejoin: miter; stroke-linecap: square"/>
   </g>
   <g id="patch_5">
    <path d="M 54.02 390.04 
L 565.2 390.04 
" style="fill: none; stroke: #000000; stroke-width: 0.8; stroke-linejoin: miter; stroke-linecap: square"/>
   </g>
   <g id="patch_6">
    <path d="M 54.02 26.88 
L 565.2 26.88 
" style="fill: none; stroke: #000000; stroke-width: 0.8; stroke-linejoin: miter; stroke-linecap: square"/>
   </g>
   <g id="text_13">
    <!-- C# implementations of Bron-Kerbosch on a random graph of order 100 -->
    <g transform="translate(54.02 20.88)scale(0.12 -0.12)">
     <defs>
      <path id="DejaVuSans-43" d="M 4122 4306 
L 4122 3641 
Q 3803 3938 3442 4084 
Q 3081 4231 2675 4231 
Q 1875 4231 1450 3742 
Q 1025 3253 1025 2328 
Q 1025 1406 1450 917 
Q 1875 428 2675 428 
Q 3081 428 3442 575 
Q 3803 722 4122 1019 
L 4122 359 
Q 3791 134 3420 21 
Q 3050 -91 2638 -91 
Q 1578 -91 968 557 
Q 359 1206 359 2328 
Q 359 3453 968 4101 
Q 1578 4750 2638 4750 
Q 3056 4750 3426 4639 
Q 3797 4528 4122 4306 
z
" transform="scale(0.015625)"/>
      <path id="DejaVuSans-6d" d="M 3328 2828 
Q 3544 3216 3844 3400 
Q 4144 3584 4550 3584 
Q 5097 3584 5394 3201 
Q 5691 2819 5691 2113 
L 5691 0 
L 5113 0 
L 5113 2094 
Q 5113 2597 4934 2840 
Q 4756 3084 4391 3084 
Q 3944 3084 3684 2787 
Q 3425 2491 3425 1978 
L 3425 0 
L 2847 0 
L 2847 2094 
Q 2847 2600 2669 2842 
Q 2491 3084 2119 3084 
Q 1678 3084 1418 2786 
Q 1159 2488 1159 1978 
L 1159 0 
L 581 0 
L 581 3500 
L 1159 3500 
L 1159 2956 
Q 1356 3278 1631 3431 
Q 1906 3584 2284 3584 
Q 2666 3584 2933 3390 
Q 3200 3197 3328 2828 
z
" transform="scale(0.015625)"/>
      <path id="DejaVuSans-6c" d="M 603 4863 
L 1178 4863 
L 1178 0 
L 603 0 
L 603 4863 
z
" transform="scale(0.015625)"/>
      <path id="DejaVuSans-61" d="M 2194 1759 
Q 1497 1759 1228 1600 
Q 959 1441 959 1056 
Q 959 750 1161 570 
Q 1363 391 1709 391 
Q 2188 391 2477 730 
Q 2766 1069 2766 1631 
L 2766 1759 
L 2194 1759 
z
M 3341 1997 
L 3341 0 
L 2766 0 
L 2766 531 
Q 2569 213 2275 61 
Q 1981 -91 1556 -91 
Q 1019 -91 701 211 
Q 384 513 384 1019 
Q 384 1609 779 1909 
Q 1175 2209 1959 2209 
L 2766 2209 
L 2766 2266 
Q 2766 2663 2505 2880 
Q 2244 3097 1772 3097 
Q 1472 3097 1187 3025 
Q 903 2953 641 2809 
L 641 3341 
Q 956 3463 1253 3523 
Q 1550 3584 1831 3584 
Q 2591 3584 2966 3190 
Q 3341 2797 3341 1997 
z
" transform="scale(0.015625)"/>
      <path id="DejaVuSans-66" d="M 2375 4863 
L 2375 4384 
L 1825 4384 
Q 1516 4384 1395 4259 
Q 1275 4134 1275 3809 
L 1275 3500 
L 2222 3500 
L 2222 3053 
L 1275 3053 
L 1275 0 
L 697 0 
L 697 3053 
L 147 3053 
L 147 3500 
L 697 3500 
L 697 3744 
Q 697 4328 969 4595 
Q 1241 4863 1831 4863 
L 2375 4863 
z
" transform="scale(0.015625)"/>
      <path id="DejaVuSans-42" d="M 1259 2228 
L 1259 519 
L 2272 519 
Q 2781 519 3026 730 
Q 3272 941 3272 1375 
Q 3272 1813 3026 2020 
Q 2781 2228 2272 2228 
L 1259 2228 
z
M 1259 4147 
L 1259 2741 
L 2194 2741 
Q 2656 2741 2882 2914 
Q 3109 3088 3109 3444 
Q 3109 3797 2882 3972 
Q 2656 4147 2194 4147 
L 1259 4147 
z
M 628 4666 
L 2241 4666 
Q 2963 4666 3353 4366 
Q 3744 4066 3744 3513 
Q 3744 3084 3544 2831 
Q 3344 2578 2956 2516 
Q 3422 2416 3680 2098 
Q 3938 1781 3938 1306 
Q 3938 681 3513 340 
Q 3088 0 2303 0 
L 628 0 
L 628 4666 
z
" transform="scale(0.015625)"/>
      <path id="DejaVuSans-72" d="M 2631 2963 
Q 2534 3019 2420 3045 
Q 2306 3072 2169 3072 
Q 1681 3072 1420 2755 
Q 1159 2438 1159 1844 
L 1159 0 
L 581 0 
L 581 3500 
L 1159 3500 
L 1159 2956 
Q 1341 3275 1631 3429 
Q 1922 3584 2338 3584 
Q 2397 3584 2469 3576 
Q 2541 3569 2628 3553 
L 2631 2963 
z
" transform="scale(0.015625)"/>
      <path id="DejaVuSans-2d" d="M 313 2009 
L 1997 2009 
L 1997 1497 
L 313 1497 
L 313 2009 
z
" transform="scale(0.015625)"/>
      <path id="DejaVuSans-4b" d="M 628 4666 
L 1259 4666 
L 1259 2694 
L 3353 4666 
L 4166 4666 
L 1850 2491 
L 4331 0 
L 3500 0 
L 1259 2247 
L 1259 0 
L 628 0 
L 628 4666 
z
" transform="scale(0.015625)"/>
      <path id="DejaVuSans-62" d="M 3116 1747 
Q 3116 2381 2855 2742 
Q 2594 3103 2138 3103 
Q 1681 3103 1420 2742 
Q 1159 2381 1159 1747 
Q 1159 1113 1420 752 
Q 1681 391 2138 391 
Q 2594 391 2855 752 
Q 3116 1113 3116 1747 
z
M 1159 2969 
Q 1341 3281 1617 3432 
Q 1894 3584 2278 3584 
Q 2916 3584 3314 3078 
Q 3713 2572 3713 1747 
Q 3713 922 3314 415 
Q 2916 -91 2278 -91 
Q 1894 -91 1617 61 
Q 1341 213 1159 525 
L 1159 0 
L 581 0 
L 581 4863 
L 1159 4863 
L 1159 2969 
z
" transform="scale(0.015625)"/>
      <path id="DejaVuSans-68" d="M 3513 2113 
L 3513 0 
L 2938 0 
L 2938 2094 
Q 2938 2591 2744 2837 
Q 2550 3084 2163 3084 
Q 1697 3084 1428 2787 
Q 1159 2491 1159 1978 
L 1159 0 
L 581 0 
L 581 4863 
L 1159 4863 
L 1159 2956 
Q 1366 3272 1645 3428 
Q 1925 3584 2291 3584 
Q 2894 3584 3203 3211 
Q 3513 2838 3513 2113 
z
" transform="scale(0.015625)"/>
     </defs>
     <use xlink:href="#DejaVuSans-43"/>
     <use xlink:href="#DejaVuSans-23" x="69.824219"/>
     <use xlink:href="#DejaVuSans-20" x="153.613281"/>
     <use xlink:href="#DejaVuSans-69" x="185.400391"/>
     <use xlink:href="#DejaVuSans-6d" x="213.183594"/>
     <use xlink:href="#DejaVuSans-70" x="310.595703"/>
     <use xlink:href="#DejaVuSans-6c" x="374.072266"/>
     <use xlink:href="#DejaVuSans-65" x="401.855469"/>
     <use xlink:href="#DejaVuSans-6d" x="463.378906"/>
     <use xlink:href="#DejaVuSans-65" x="560.791016"/>
     <use xlink:href="#DejaVuSans-6e" x="622.314453"/>
     <use xlink:href="#DejaVuSans-74" x="685.693359"/>
     <use xlink:href="#DejaVuSans-61" x="724.902344"/>
     <use xlink:href="#DejaVuSans-74" x="786.181641"/>
     <use xlink:href="#DejaVuSans-69" x="825.390625"/>
     <use xlink:href="#DejaVuSans-6f" x="853.173828"/>
     <use xlink:href="#DejaVuSans-6e" x="914.355469"/>
     <use xlink:href="#DejaVuSans-73" x="977.734375"/>
     <use xlink:href="#DejaVuSans-20" x="1029.833984"/>
     <use xlink:href="#DejaVuSans-6f" x="1061.621094"/>
     <use xlink:href="#DejaVuSans-66" x="1122.802734"/>
     <use xlink:href="#DejaVuSans-20" x="1158.007812"/>
     <use xlink:href="#DejaVuSans-42" x="1189.794922"/>
     <use xlink:href="#DejaVuSans-72" x="1258.398438"/>
     <use xlink:href="#DejaVuSans-6f" x="1297.261719"/>
     <use xlink:href="#DejaVuSans-6e" x="1358.443359"/>
     <use xlink:href="#DejaVuSans-2d" x="1421.822266"/>
     <use xlink:href="#DejaVuSans-4b" x="1457.90625"/>
     <use xlink:href="#DejaVuSans-65" x="1518.482422"/>
     <use xlink:href="#DejaVuSans-72" x="1580.005859"/>
     <use xlink:href="#DejaVuSans-62" x="1621.119141"/>
     <use xlink:href="#DejaVuSans-6f" x="1684.595703"/>
     <use xlink:href="#DejaVuSans-73" x="1745.777344"/>
     <use xlink:href="#DejaVuSans-63" x="1797.876953"/>
     <use xlink:href="#DejaVuSans-68" x="1852.857422"/>
     <use xlink:href="#DejaVuSans-20" x="1916.236328"/>
     <use xlink:href="#DejaVuSans-6f" x="1948.023438"/>
     <use xlink:href="#DejaVuSans-6e" x="2009.205078"/>
     <use xlink:href="#DejaVuSans-20" x="2072.583984"/>
     <use xlink:href="#DejaVuSans-61" x="2104.371094"/>
     <use xlink:href="#DejaVuSans-20" x="2165.650391"/>
     <use xlink:href="#DejaVuSans-72" x="2197.4375"/>
     <use xlink:href="#DejaVuSans-61" x="2238.550781"/>
     <use xlink:href="#DejaVuSans-6e" x="2299.830078"/>
     <use xlink:href="#DejaVuSans-64" x="2363.208984"/>
     <use xlink:href="#DejaVuSans-6f" x="2426.685547"/>
     <use xlink:href="#DejaVuSans-6d" x="2487.867188"/>
     <use xlink:href="#DejaVuSans-20" x="2585.279297"/>
     <use xlink:href="#DejaVuSans-67" x="2617.066406"/>
     <use xlink:href="#DejaVuSans-72" x="2680.542969"/>
     <use xlink:href="#DejaVuSans-61" x="2721.65625"/>
     <use xlink:href="#DejaVuSans-70" x="2782.935547"/>
     <use xlink:href="#DejaVuSans-68" x="2846.412109"/>
     <use xlink:href="#DejaVuSans-20" x="2909.791016"/>
     <use xlink:href="#DejaVuSans-6f" x="2941.578125"/>
     <use xlink:href="#DejaVuSans-66" x="3002.759766"/>
     <use xlink:href="#DejaVuSans-20" x="3037.964844"/>
     <use xlink:href="#DejaVuSans-6f" x="3069.751953"/>
     <use xlink:href="#DejaVuSans-72" x="3130.933594"/>
     <use xlink:href="#DejaVuSans-64" x="3170.296875"/>
     <use xlink:href="#DejaVuSans-65" x="3233.773438"/>
     <use xlink:href="#DejaVuSans-72" x="3295.296875"/>
     <use xlink:href="#DejaVuSans-20" x="3336.410156"/>
     <use xlink:href="#DejaVuSans-31" x="3368.197266"/>
     <use xlink:href="#DejaVuSans-30" x="3431.820312"/>
     <use xlink:href="#DejaVuSans-30" x="3495.443359"/>
    </g>
   </g>
   <g id="legend_1">
    <g id="patch_7">
     <path d="M 61.02 93.5925 
L 140.310625 93.5925 
Q 142.310625 93.5925 142.310625 91.5925 
L 142.310625 33.88 
Q 142.310625 31.88 140.310625 31.88 
L 61.02 31.88 
Q 59.02 31.88 59.02 33.88 
L 59.02 91.5925 
Q 59.02 93.5925 61.02 93.5925 
z
" style="fill: #ffffff; opacity: 0.8; stroke: #cccccc; stroke-linejoin: miter"/>
    </g>
    <g id="LineCollection_5">
     <path d="M 73.02 44.978437 
L 73.02 34.978437 
" style="fill: none; stroke: #1f77b4; stroke-width: 1.5"/>
    </g>
    <g id="line2d_23">
     <g>
      <use xlink:href="#m075d931141" x="73.02" y="44.978437" style="fill: #1f77b4; stroke: #1f77b4"/>
     </g>
    </g>
    <g id="line2d_24">
     <g>
      <use xlink:href="#m075d931141" x="73.02" y="34.978437" style="fill: #1f77b4; stroke: #1f77b4"/>
     </g>
    </g>
    <g id="line2d_25">
     <path d="M 63.02 39.978437 
L 83.02 39.978437 
" style="fill: none; stroke: #1f77b4; stroke-width: 1.5; stroke-linecap: square"/>
    </g>
    <g id="line2d_26"/>
    <g id="text_14">
     <!-- Ver2-GP -->
     <g transform="translate(91.02 43.478437)scale(0.1 -0.1)">
      <defs>
       <path id="DejaVuSans-56" d="M 1831 0 
L 50 4666 
L 709 4666 
L 2188 738 
L 3669 4666 
L 4325 4666 
L 2547 0 
L 1831 0 
z
" transform="scale(0.015625)"/>
       <path id="DejaVuSans-47" d="M 3809 666 
L 3809 1919 
L 2778 1919 
L 2778 2438 
L 4434 2438 
L 4434 434 
Q 4069 175 3628 42 
Q 3188 -91 2688 -91 
Q 1594 -91 976 548 
Q 359 1188 359 2328 
Q 359 3472 976 4111 
Q 1594 4750 2688 4750 
Q 3144 4750 3555 4637 
Q 3966 4525 4313 4306 
L 4313 3634 
Q 3963 3931 3569 4081 
Q 3175 4231 2741 4231 
Q 1884 4231 1454 3753 
Q 1025 3275 1025 2328 
Q 1025 1384 1454 906 
Q 1884 428 2741 428 
Q 3075 428 3337 486 
Q 3600 544 3809 666 
z
" transform="scale(0.015625)"/>
       <path id="DejaVuSans-50" d="M 1259 4147 
L 1259 2394 
L 2053 2394 
Q 2494 2394 2734 2622 
Q 2975 2850 2975 3272 
Q 2975 3691 2734 3919 
Q 2494 4147 2053 4147 
L 1259 4147 
z
M 628 4666 
L 2053 4666 
Q 2838 4666 3239 4311 
Q 3641 3956 3641 3272 
Q 3641 2581 3239 2228 
Q 2838 1875 2053 1875 
L 1259 1875 
L 1259 0 
L 628 0 
L 628 4666 
z
" transform="scale(0.015625)"/>
      </defs>
      <use xlink:href="#DejaVuSans-56"/>
      <use xlink:href="#DejaVuSans-65" x="60.658203"/>
      <use xlink:href="#DejaVuSans-72" x="122.181641"/>
      <use xlink:href="#DejaVuSans-32" x="163.294922"/>
      <use xlink:href="#DejaVuSans-2d" x="226.917969"/>
      <use xlink:href="#DejaVuSans-47" x="266.626953"/>
      <use xlink:href="#DejaVuSans-50" x="344.117188"/>
     </g>
    </g>
    <g id="LineCollection_6">
     <path d="M 73.02 59.656563 
L 73.02 49.656563 
" style="fill: none; stroke: #ff7f0e; stroke-width: 1.5"/>
    </g>
    <g id="line2d_27">
     <g>
      <use xlink:href="#m6e96dabdff" x="73.02" y="59.656563" style="fill: #ff7f0e; stroke: #ff7f0e"/>
     </g>
    </g>
    <g id="line2d_28">
     <g>
      <use xlink:href="#m6e96dabdff" x="73.02" y="49.656563" style="fill: #ff7f0e; stroke: #ff7f0e"/>
     </g>
    </g>
    <g id="line2d_29">
     <path d="M 63.02 54.656563 
L 83.02 54.656563 
" style="fill: none; stroke: #ff7f0e; stroke-width: 1.5; stroke-linecap: square"/>
    </g>
    <g id="line2d_30"/>
    <g id="text_15">
     <!-- Ver2-GPX -->
     <g transform="translate(91.02 58.156563)scale(0.1 -0.1)">
      <defs>
       <path id="DejaVuSans-58" d="M 403 4666 
L 1081 4666 
L 2241 2931 
L 3406 4666 
L 4084 4666 
L 2584 2425 
L 4184 0 
L 3506 0 
L 2194 1984 
L 872 0 
L 191 0 
L 1856 2491 
L 403 4666 
z
" transform="scale(0.015625)"/>
      </defs>
      <use xlink:href="#DejaVuSans-56"/>
      <use xlink:href="#DejaVuSans-65" x="60.658203"/>
      <use xlink:href="#DejaVuSans-72" x="122.181641"/>
      <use xlink:href="#DejaVuSans-32" x="163.294922"/>
      <use xlink:href="#DejaVuSans-2d" x="226.917969"/>
      <use xlink:href="#DejaVuSans-47" x="266.626953"/>
      <use xlink:href="#DejaVuSans-50" x="344.117188"/>
      <use xlink:href="#DejaVuSans-58" x="404.419922"/>
     </g>
    </g>
    <g id="LineCollection_7">
     <path d="M 73.02 74.334687 
L 73.02 64.334687 
" style="fill: none; stroke: #2ca02c; stroke-width: 1.5"/>
    </g>
    <g id="line2d_31">
     <g>
      <use xlink:href="#m72d1321754" x="73.02" y="74.334687" style="fill: #2ca02c; stroke: #2ca02c"/>
     </g>
    </g>
    <g id="line2d_32">
     <g>
      <use xlink:href="#m72d1321754" x="73.02" y="64.334687" style="fill: #2ca02c; stroke: #2ca02c"/>
     </g>
    </g>
    <g id="line2d_33">
     <path d="M 63.02 69.334687 
L 83.02 69.334687 
" style="fill: none; stroke: #2ca02c; stroke-width: 1.5; stroke-linecap: square"/>
    </g>
    <g id="line2d_34"/>
    <g id="text_16">
     <!-- Ver3-GP -->
     <g transform="translate(91.02 72.834687)scale(0.1 -0.1)">
      <use xlink:href="#DejaVuSans-56"/>
      <use xlink:href="#DejaVuSans-65" x="60.658203"/>
      <use xlink:href="#DejaVuSans-72" x="122.181641"/>
      <use xlink:href="#DejaVuSans-33" x="163.294922"/>
      <use xlink:href="#DejaVuSans-2d" x="226.917969"/>
      <use xlink:href="#DejaVuSans-47" x="266.626953"/>
      <use xlink:href="#DejaVuSans-50" x="344.117188"/>
     </g>
    </g>
    <g id="LineCollection_8">
     <path d="M 73.02 89.012812 
L 73.02 79.012812 
" style="fill: none; stroke: #d62728; stroke-width: 1.5"/>
    </g>
    <g id="line2d_35">
     <g>
      <use xlink:href="#m732511960e" x="73.02" y="89.012812" style="fill: #d62728; stroke: #d62728"/>
     </g>
    </g>
    <g id="line2d_36">
     <g>
      <use xlink:href="#m732511960e" x="73.02" y="79.012812" style="fill: #d62728; stroke: #d62728"/>
     </g>
    </g>
    <g id="line2d_37">
     <path d="M 63.02 84.012812 
L 83.02 84.012812 
" style="fill: none; stroke: #d62728; stroke-width: 1.5; stroke-linecap: square"/>
    </g>
    <g id="line2d_38"/>
    <g id="text_17">
     <!-- Ver3-GPX -->
     <g transform="translate(91.02 87.512812)scale(0.1 -0.1)">
      <use xlink:href="#DejaVuSans-56"/>
      <use xlink:href="#DejaVuSans-65" x="60.658203"/>
      <use xlink:href="#DejaVuSans-72" x="122.181641"/>
      <use xlink:href="#DejaVuSans-33" x="163.294922"/>
      <use xlink:href="#DejaVuSans-2d" x="226.917969"/>
      <use xlink:href="#DejaVuSans-47" x="266.626953"/>
      <use xlink:href="#DejaVuSans-50" x="344.117188"/>
      <use xlink:href="#DejaVuSans-58" x="404.419922"/>
     </g>
    </g>
   </g>
  </g>
 </g>
 <defs>
  <clipPath id="p08b5c0d729">
   <rect x="54.02" y="26.88" width="511.18" height="363.16"/>
  </clipPath>
 </defs>
</svg>
