<?xml version="1.0" encoding="utf-8" standalone="no"?>
<!DOCTYPE svg PUBLIC "-//W3C//DTD SVG 1.1//EN"
  "http://www.w3.org/Graphics/SVG/1.1/DTD/svg11.dtd">
<svg xmlns:xlink="http://www.w3.org/1999/xlink" width="576pt" height="432pt" viewBox="0 0 576 432" xmlns="http://www.w3.org/2000/svg" version="1.1">
 <metadata>
  <rdf:RDF xmlns:dc="http://purl.org/dc/elements/1.1/" xmlns:cc="http://creativecommons.org/ns#" xmlns:rdf="http://www.w3.org/1999/02/22-rdf-syntax-ns#">
   <cc:Work>
    <dc:type rdf:resource="http://purl.org/dc/dcmitype/StillImage"/>
    <dc:date>2026-05-28T21:31:32.612119</dc:date>
    <dc:format>image/svg+xml</dc:format>
    <dc:creator>
     <cc:Agent>
      <dc:title>Matplotlib v3.10.8, https://matplotlib.org/</dc:title>
     </cc:Agent>
    </dc:creator>
   </cc:Work>
  </rdf:RDF>
 </metadata>
 <defs>
  <style type="text/css">*{stroke-linejoin: round; stroke-linecap: butt}</style>
 </defs>
 <g id="figure_1">
  <g id="patch_1">
   <path d="M 0 432 
L 576 432 
L 576 0 
L 0 0 
z
" style="fill: #ffffff"/>
  </g>
  <g id="axes_1">
   <g id="patch_2">
    <path d="M 47.72 390.04 
L 565.2 390.04 
L 565.2 26.88 
L 47.72 26.88 
z
" style="fill: #ffffff"/>
   </g>
   <g id="matplotlib.axis_1">
    <g id="xtick_1">
     <g id="line2d_1">
      <defs>
       <path id="mc74f61fcfc" d="M 0 0 
L 0 3.5 
" style="stroke: #000000; stroke-width: 0.8"/>
      </defs>
      <g>
       <use xlink:href="#mc74f61fcfc" x="71.241818" y="390.04" style="stroke: #000000; stroke-width: 0.8"/>
      </g>
     </g>
     <g id="text_1">
      <!-- 2000 -->
      <g transform="translate(58.516818 404.638438) scale(0.1 -0.1)">
       <defs>
        <path id="DejaVuSans-32" d="M 1228 531 
L 3431 531 
L 3431 0 
L 469 0 
L 469 531 
Q 828 903 1448 1529 
Q 2069 2156 2228 2338 
Q 2531 2678 2651 2914 
Q 2772 3150 2772 3378 
Q 2772 3750 2511 3984 
Q 2250 4219 1831 4219 
Q 1534 4219 1204 4116 
Q 875 4013 500 3803 
L 500 4441 
Q 881 4594 1212 4672 
Q 1544 4750 1819 4750 
Q 2544 4750 2975 4387 
Q 3406 4025 3406 3419 
Q 3406 3131 3298 2873 
Q 3191 2616 2906 2266 
Q 2828 2175 2409 1742 
Q 1991 1309 1228 531 
z
" transform="scale(0.015625)"/>
        <path id="DejaVuSans-30" d="M 2034 4250 
Q 1547 4250 1301 3770 
Q 1056 3291 1056 2328 
Q 1056 1369 1301 889 
Q 1547 409 2034 409 
Q 2525 409 2770 889 
Q 3016 1369 3016 2328 
Q 3016 3291 2770 3770 
Q 2525 4250 2034 4250 
z
M 2034 4750 
Q 2819 4750 3233 4129 
Q 3647 3509 3647 2328 
Q 3647 1150 3233 529 
Q 2819 -91 2034 -91 
Q 1250 -91 836 529 
Q 422 1150 422 2328 
Q 422 3509 836 4129 
Q 1250 4750 2034 4750 
z
" transform="scale(0.015625)"/>
       </defs>
       <use xlink:href="#DejaVuSans-32"/>
       <use xlink:href="#DejaVuSans-30" transform="translate(63.623047 0)"/>
       <use xlink:href="#DejaVuSans-30" transform="translate(127.246094 0)"/>
       <use xlink:href="#DejaVuSans-30" transform="translate(190.869141 0)"/>
      </g>
     </g>
    </g>
    <g id="xtick_2">
     <g id="line2d_2">
      <g>
       <use xlink:href="#mc74f61fcfc" x="165.329091" y="390.04" style="stroke: #000000; stroke-width: 0.8"/>
      </g>
     </g>
     <g id="text_2">
      <!-- 2200 -->
      <g transform="translate(152.604091 404.638438) scale(0.1 -0.1)">
       <use xlink:href="#DejaVuSans-32"/>
       <use xlink:href="#DejaVuSans-32" transform="translate(63.623047 0)"/>
       <use xlink:href="#DejaVuSans-30" transform="translate(127.246094 0)"/>
       <use xlink:href="#DejaVuSans-30" transform="translate(190.869141 0)"/>
      </g>
     </g>
    </g>
    <g id="xtick_3">
     <g id="line2d_3">
      <g>
       <use xlink:href="#mc74f61fcfc" x="259.416364" y="390.04" style="stroke: #000000; stroke-width: 0.8"/>
      </g>
     </g>
     <g id="text_3">
      <!-- 2400 -->
      <g transform="translate(246.691364 404.638438) scale(0.1 -0.1)">
       <defs>
        <path id="DejaVuSans-34" d="M 2419 4116 
L 825 1625 
L 2419 1625 
L 2419 4116 
z
M 2253 4666 
L 3047 4666 
L 3047 1625 
L 3713 1625 
L 3713 1100 
L 3047 1100 
L 3047 0 
L 2419 0 
L 2419 1100 
L 313 1100 
L 313 1709 
L 2253 4666 
z
" transform="scale(0.015625)"/>
       </defs>
       <use xlink:href="#DejaVuSans-32"/>
       <use xlink:href="#DejaVuSans-34" transform="translate(63.623047 0)"/>
       <use xlink:href="#DejaVuSans-30" transform="translate(127.246094 0)"/>
       <use xlink:href="#DejaVuSans-30" transform="translate(190.869141 0)"/>
      </g>
     </g>
    </g>
    <g id="xtick_4">
     <g id="line2d_4">
      <g>
       <use xlink:href="#mc74f61fcfc" x="353.503636" y="390.04" style="stroke: #000000; stroke-width: 0.8"/>
      </g>
     </g>
     <g id="text_4">
      <!-- 2600 -->
      <g transform="translate(340.778636 404.638438) scale(0.1 -0.1)">
       <defs>
        <path id="DejaVuSans-36" d="M 2113 2584 
Q 1688 2584 1439 2293 
Q 1191 2003 1191 1497 
Q 1191 994 1439 701 
Q 1688 409 2113 409 
Q 2538 409 2786 701 
Q 3034 994 3034 1497 
Q 3034 2003 2786 2293 
Q 2538 2584 2113 2584 
z
M 3366 4563 
L 3366 3988 
Q 3128 4100 2886 4159 
Q 2644 4219 2406 4219 
Q 1781 4219 1451 3797 
Q 1122 3375 1075 2522 
Q 1259 2794 1537 2939 
Q 1816 3084 2150 3084 
Q 2853 3084 3261 2657 
Q 3669 2231 3669 1497 
Q 3669 778 3244 343 
Q 2819 -91 2113 -91 
Q 1303 -91 875 529 
Q 447 1150 447 2328 
Q 447 3434 972 4092 
Q 1497 4750 2381 4750 
Q 2619 4750 2861 4703 
Q 3103 4656 3366 4563 
z
" transform="scale(0.015625)"/>
       </defs>
       <use xlink:href="#DejaVuSans-32"/>
       <use xlink:href="#DejaVuSans-36" transform="translate(63.623047 0)"/>
       <use xlink:href="#DejaVuSans-30" transform="translate(127.246094 0)"/>
       <use xlink:href="#DejaVuSans-30" transform="translate(190.869141 0)"/>
      </g>
     </g>
    </g>
    <g id="xtick_5">
     <g id="line2d_5">
      <g>
       <use xlink:href="#mc74f61fcfc" x="447.590909" y="390.04" style="stroke: #000000; stroke-width: 0.8"/>
      </g>
     </g>
     <g id="text_5">
      <!-- 2800 -->
      <g transform="translate(434.865909 404.638438) scale(0.1 -0.1)">
       <defs>
        <path id="DejaVuSans-38" d="M 2034 2216 
Q 1584 2216 1326 1975 
Q 1069 1734 1069 1313 
Q 1069 891 1326 650 
Q 1584 409 2034 409 
Q 2484 409 2743 651 
Q 3003 894 3003 1313 
Q 3003 1734 2745 1975 
Q 2488 2216 2034 2216 
z
M 1403 2484 
Q 997 2584 770 2862 
Q 544 3141 544 3541 
Q 544 4100 942 4425 
Q 1341 4750 2034 4750 
Q 2731 4750 3128 4425 
Q 3525 4100 3525 3541 
Q 3525 3141 3298 2862 
Q 3072 2584 2669 2484 
Q 3125 2378 3379 2068 
Q 3634 1759 3634 1313 
Q 3634 634 3220 271 
Q 2806 -91 2034 -91 
Q 1263 -91 848 271 
Q 434 634 434 1313 
Q 434 1759 690 2068 
Q 947 2378 1403 2484 
z
M 1172 3481 
Q 1172 3119 1398 2916 
Q 1625 2713 2034 2713 
Q 2441 2713 2670 2916 
Q 2900 3119 2900 3481 
Q 2900 3844 2670 4047 
Q 2441 4250 2034 4250 
Q 1625 4250 1398 4047 
Q 1172 3844 1172 3481 
z
" transform="scale(0.015625)"/>
       </defs>
       <use xlink:href="#DejaVuSans-32"/>
       <use xlink:href="#DejaVuSans-38" transform="translate(63.623047 0)"/>
       <use xlink:href="#DejaVuSans-30" transform="translate(127.246094 0)"/>
       <use xlink:href="#DejaVuSans-30" transform="translate(190.869141 0)"/>
      </g>
     </g>
    </g>
    <g id="xtick_6">
     <g id="line2d_6">
      <g>
       <use xlink:href="#mc74f61fcfc" x="541.678182" y="390.04" style="stroke: #000000; stroke-width: 0.8"/>
      </g>
     </g>
     <g id="text_6">
      <!-- 3000 -->
      <g transform="translate(528.953182 404.638438) scale(0.1 -0.1)">
       <defs>
        <path id="DejaVuSans-33" d="M 2597 2516 
Q 3050 2419 3304 2112 
Q 3559 1806 3559 1356 
Q 3559 666 3084 287 
Q 2609 -91 1734 -91 
Q 1441 -91 1130 -33 
Q 819 25 488 141 
L 488 750 
Q 750 597 1062 519 
Q 1375 441 1716 441 
Q 2309 441 2620 675 
Q 2931 909 2931 1356 
Q 2931 1769 2642 2001 
Q 2353 2234 1838 2234 
L 1294 2234 
L 1294 2753 
L 1863 2753 
Q 2328 2753 2575 2939 
Q 2822 3125 2822 3475 
Q 2822 3834 2567 4026 
Q 2313 4219 1838 4219 
Q 1578 4219 1281 4162 
Q 984 4106 628 3988 
L 628 4550 
Q 988 4650 1302 4700 
Q 1616 4750 1894 4750 
Q 2613 4750 3031 4423 
Q 3450 4097 3450 3541 
Q 3450 3153 3228 2886 
Q 3006 2619 2597 2516 
z
" transform="scale(0.015625)"/>
       </defs>
       <use xlink:href="#DejaVuSans-33"/>
       <use xlink:href="#DejaVuSans-30" transform="translate(63.623047 0)"/>
       <use xlink:href="#DejaVuSans-30" transform="translate(127.246094 0)"/>
       <use xlink:href="#DejaVuSans-30" transform="translate(190.869141 0)"/>
      </g>
     </g>
    </g>
    <g id="text_7">
     <!-- Size (#edges) -->
     <g transform="translate(271.409219 418.316562) scale(0.1 -0.1)">
      <defs>
       <path id="DejaVuSans-53" d="M 3425 4513 
L 3425 3897 
Q 3066 4069 2747 4153 
Q 2428 4238 2131 4238 
Q 1616 4238 1336 4038 
Q 1056 3838 1056 3469 
Q 1056 3159 1242 3001 
Q 1428 2844 1947 2747 
L 2328 2669 
Q 3034 2534 3370 2195 
Q 3706 1856 3706 1288 
Q 3706 609 3251 259 
Q 2797 -91 1919 -91 
Q 1588 -91 1214 -16 
Q 841 59 441 206 
L 441 856 
Q 825 641 1194 531 
Q 1563 422 1919 422 
Q 2459 422 2753 634 
Q 3047 847 3047 1241 
Q 3047 1584 2836 1778 
Q 2625 1972 2144 2069 
L 1759 2144 
Q 1053 2284 737 2584 
Q 422 2884 422 3419 
Q 422 4038 858 4394 
Q 1294 4750 2059 4750 
Q 2388 4750 2728 4690 
Q 3069 4631 3425 4513 
z
" transform="scale(0.015625)"/>
       <path id="DejaVuSans-69" d="M 603 3500 
L 1178 3500 
L 1178 0 
L 603 0 
L 603 3500 
z
M 603 4863 
L 1178 4863 
L 1178 4134 
L 603 4134 
L 603 4863 
z
" transform="scale(0.015625)"/>
       <path id="DejaVuSans-7a" d="M 353 3500 
L 3084 3500 
L 3084 2975 
L 922 459 
L 3084 459 
L 3084 0 
L 275 0 
L 275 525 
L 2438 3041 
L 353 3041 
L 353 3500 
z
" transform="scale(0.015625)"/>
       <path id="DejaVuSans-65" d="M 3597 1894 
L 3597 1613 
L 953 1613 
Q 991 1019 1311 708 
Q 1631 397 2203 397 
Q 2534 397 2845 478 
Q 3156 559 3463 722 
L 3463 178 
Q 3153 47 2828 -22 
Q 2503 -91 2169 -91 
Q 1331 -91 842 396 
Q 353 884 353 1716 
Q 353 2575 817 3079 
Q 1281 3584 2069 3584 
Q 2775 3584 3186 3129 
Q 3597 2675 3597 1894 
z
M 3022 2063 
Q 3016 2534 2758 2815 
Q 2500 3097 2075 3097 
Q 1594 3097 1305 2825 
Q 1016 2553 972 2059 
L 3022 2063 
z
" transform="scale(0.015625)"/>
       <path id="DejaVuSans-20" transform="scale(0.015625)"/>
       <path id="DejaVuSans-28" d="M 1984 4856 
Q 1566 4138 1362 3434 
Q 1159 2731 1159 2009 
Q 1159 1288 1364 580 
Q 1569 -128 1984 -844 
L 1484 -844 
Q 1016 -109 783 600 
Q 550 1309 550 2009 
Q 550 2706 781 3412 
Q 1013 4119 1484 4856 
L 1984 4856 
z
" transform="scale(0.015625)"/>
       <path id="DejaVuSans-23" d="M 3272 2816 
L 2363 2816 
L 2100 1772 
L 3016 1772 
L 3272 2816 
z
M 2803 4594 
L 2478 3297 
L 3391 3297 
L 3719 4594 
L 4219 4594 
L 3897 3297 
L 4872 3297 
L 4872 2816 
L 3775 2816 
L 3519 1772 
L 4513 1772 
L 4513 1294 
L 3397 1294 
L 3072 0 
L 2572 0 
L 2894 1294 
L 1978 1294 
L 1656 0 
L 1153 0 
L 1478 1294 
L 494 1294 
L 494 1772 
L 1594 1772 
L 1856 2816 
L 850 2816 
L 850 3297 
L 1978 3297 
L 2297 4594 
L 2803 4594 
z
" transform="scale(0.015625)"/>
       <path id="DejaVuSans-64" d="M 2906 2969 
L 2906 4863 
L 3481 4863 
L 3481 0 
L 2906 0 
L 2906 525 
Q 2725 213 2448 61 
Q 2172 -91 1784 -91 
Q 1150 -91 751 415 
Q 353 922 353 1747 
Q 353 2572 751 3078 
Q 1150 3584 1784 3584 
Q 2172 3584 2448 3432 
Q 2725 3281 2906 2969 
z
M 947 1747 
Q 947 1113 1208 752 
Q 1469 391 1925 391 
Q 2381 391 2643 752 
Q 2906 1113 2906 1747 
Q 2906 2381 2643 2742 
Q 2381 3103 1925 3103 
Q 1469 3103 1208 2742 
Q 947 2381 947 1747 
z
" transform="scale(0.015625)"/>
       <path id="DejaVuSans-67" d="M 2906 1791 
Q 2906 2416 2648 2759 
Q 2391 3103 1925 3103 
Q 1463 3103 1205 2759 
Q 947 2416 947 1791 
Q 947 1169 1205 825 
Q 1463 481 1925 481 
Q 2391 481 2648 825 
Q 2906 1169 2906 1791 
z
M 3481 434 
Q 3481 -459 3084 -895 
Q 2688 -1331 1869 -1331 
Q 1566 -1331 1297 -1286 
Q 1028 -1241 775 -1147 
L 775 -588 
Q 1028 -725 1275 -790 
Q 1522 -856 1778 -856 
Q 2344 -856 2625 -561 
Q 2906 -266 2906 331 
L 2906 616 
Q 2728 306 2450 153 
Q 2172 0 1784 0 
Q 1141 0 747 490 
Q 353 981 353 1791 
Q 353 2603 747 3093 
Q 1141 3584 1784 3584 
Q 2172 3584 2450 3431 
Q 2728 3278 2906 2969 
L 2906 3500 
L 3481 3500 
L 3481 434 
z
" transform="scale(0.015625)"/>
       <path id="DejaVuSans-73" d="M 2834 3397 
L 2834 2853 
Q 2591 2978 2328 3040 
Q 2066 3103 1784 3103 
Q 1356 3103 1142 2972 
Q 928 2841 928 2578 
Q 928 2378 1081 2264 
Q 1234 2150 1697 2047 
L 1894 2003 
Q 2506 1872 2764 1633 
Q 3022 1394 3022 966 
Q 3022 478 2636 193 
Q 2250 -91 1575 -91 
Q 1294 -91 989 -36 
Q 684 19 347 128 
L 347 722 
Q 666 556 975 473 
Q 1284 391 1588 391 
Q 1994 391 2212 530 
Q 2431 669 2431 922 
Q 2431 1156 2273 1281 
Q 2116 1406 1581 1522 
L 1381 1569 
Q 847 1681 609 1914 
Q 372 2147 372 2553 
Q 372 3047 722 3315 
Q 1072 3584 1716 3584 
Q 2034 3584 2315 3537 
Q 2597 3491 2834 3397 
z
" transform="scale(0.015625)"/>
       <path id="DejaVuSans-29" d="M 513 4856 
L 1013 4856 
Q 1481 4119 1714 3412 
Q 1947 2706 1947 2009 
Q 1947 1309 1714 600 
Q 1481 -109 1013 -844 
L 513 -844 
Q 928 -128 1133 580 
Q 1338 1288 1338 2009 
Q 1338 2731 1133 3434 
Q 928 4138 513 4856 
z
" transform="scale(0.015625)"/>
      </defs>
      <use xlink:href="#DejaVuSans-53"/>
      <use xlink:href="#DejaVuSans-69" transform="translate(63.476562 0)"/>
      <use xlink:href="#DejaVuSans-7a" transform="translate(91.259766 0)"/>
      <use xlink:href="#DejaVuSans-65" transform="translate(143.75 0)"/>
      <use xlink:href="#DejaVuSans-20" transform="translate(205.273438 0)"/>
      <use xlink:href="#DejaVuSans-28" transform="translate(237.060547 0)"/>
      <use xlink:href="#DejaVuSans-23" transform="translate(276.074219 0)"/>
      <use xlink:href="#DejaVuSans-65" transform="translate(359.863281 0)"/>
      <use xlink:href="#DejaVuSans-64" transform="translate(421.386719 0)"/>
      <use xlink:href="#DejaVuSans-67" transform="translate(484.863281 0)"/>
      <use xlink:href="#DejaVuSans-65" transform="translate(548.339844 0)"/>
      <use xlink:href="#DejaVuSans-73" transform="translate(609.863281 0)"/>
      <use xlink:href="#DejaVuSans-29" transform="translate(661.962891 0)"/>
     </g>
    </g>
   </g>
   <g id="matplotlib.axis_2">
    <g id="ytick_1">
     <g id="line2d_7">
      <defs>
       <path id="m7eb1c47a8f" d="M 0 0 
L -3.5 0 
" style="stroke: #000000; stroke-width: 0.8"/>
      </defs>
      <g>
       <use xlink:href="#m7eb1c47a8f" x="47.72" y="376.341857" style="stroke: #000000; stroke-width: 0.8"/>
      </g>
     </g>
     <g id="text_8">
      <!-- 0.0 -->
      <g transform="translate(24.816875 380.141076) scale(0.1 -0.1)">
       <defs>
        <path id="DejaVuSans-2e" d="M 684 794 
L 1344 794 
L 1344 0 
L 684 0 
L 684 794 
z
" transform="scale(0.015625)"/>
       </defs>
       <use xlink:href="#DejaVuSans-30"/>
       <use xlink:href="#DejaVuSans-2e" transform="translate(63.623047 0)"/>
       <use xlink:href="#DejaVuSans-30" transform="translate(95.410156 0)"/>
      </g>
     </g>
    </g>
    <g id="ytick_2">
     <g id="line2d_8">
      <g>
       <use xlink:href="#m7eb1c47a8f" x="47.72" y="306.39775" style="stroke: #000000; stroke-width: 0.8"/>
      </g>
     </g>
     <g id="text_9">
      <!-- 0.2 -->
      <g transform="translate(24.816875 310.196969) scale(0.1 -0.1)">
       <use xlink:href="#DejaVuSans-30"/>
       <use xlink:href="#DejaVuSans-2e" transform="translate(63.623047 0)"/>
       <use xlink:href="#DejaVuSans-32" transform="translate(95.410156 0)"/>
      </g>
     </g>
    </g>
    <g id="ytick_3">
     <g id="line2d_9">
      <g>
       <use xlink:href="#m7eb1c47a8f" x="47.72" y="236.453643" style="stroke: #000000; stroke-width: 0.8"/>
      </g>
     </g>
     <g id="text_10">
      <!-- 0.4 -->
      <g transform="translate(24.816875 240.252861) scale(0.1 -0.1)">
       <use xlink:href="#DejaVuSans-30"/>
       <use xlink:href="#DejaVuSans-2e" transform="translate(63.623047 0)"/>
       <use xlink:href="#DejaVuSans-34" transform="translate(95.410156 0)"/>
      </g>
     </g>
    </g>
    <g id="ytick_4">
     <g id="line2d_10">
      <g>
       <use xlink:href="#m7eb1c47a8f" x="47.72" y="166.509535" style="stroke: #000000; stroke-width: 0.8"/>
      </g>
     </g>
     <g id="text_11">
      <!-- 0.6 -->
      <g transform="translate(24.816875 170.308754) scale(0.1 -0.1)">
       <use xlink:href="#DejaVuSans-30"/>
       <use xlink:href="#DejaVuSans-2e" transform="translate(63.623047 0)"/>
       <use xlink:href="#DejaVuSans-36" transform="translate(95.410156 0)"/>
      </g>
     </g>
    </g>
    <g id="ytick_5">
     <g id="line2d_11">
      <g>
       <use xlink:href="#m7eb1c47a8f" x="47.72" y="96.565428" style="stroke: #000000; stroke-width: 0.8"/>
      </g>
     </g>
     <g id="text_12">
      <!-- 0.8 -->
      <g transform="translate(24.816875 100.364647) scale(0.1 -0.1)">
       <use xlink:href="#DejaVuSans-30"/>
       <use xlink:href="#DejaVuSans-2e" transform="translate(63.623047 0)"/>
       <use xlink:href="#DejaVuSans-38" transform="translate(95.410156 0)"/>
      </g>
     </g>
    </g>
    <g id="text_13">
     <!-- Seconds spent -->
     <g transform="translate(18.737187 245.040469) rotate(-90) scale(0.1 -0.1)">
      <defs>
       <path id="DejaVuSans-63" d="M 3122 3366 
L 3122 2828 
Q 2878 2963 2633 3030 
Q 2388 3097 2138 3097 
Q 1578 3097 1268 2742 
Q 959 2388 959 1747 
Q 959 1106 1268 751 
Q 1578 397 2138 397 
Q 2388 397 2633 464 
Q 2878 531 3122 666 
L 3122 134 
Q 2881 22 2623 -34 
Q 2366 -91 2075 -91 
Q 1284 -91 818 406 
Q 353 903 353 1747 
Q 353 2603 823 3093 
Q 1294 3584 2113 3584 
Q 2378 3584 2631 3529 
Q 2884 3475 3122 3366 
z
" transform="scale(0.015625)"/>
       <path id="DejaVuSans-6f" d="M 1959 3097 
Q 1497 3097 1228 2736 
Q 959 2375 959 1747 
Q 959 1119 1226 758 
Q 1494 397 1959 397 
Q 2419 397 2687 759 
Q 2956 1122 2956 1747 
Q 2956 2369 2687 2733 
Q 2419 3097 1959 3097 
z
M 1959 3584 
Q 2709 3584 3137 3096 
Q 3566 2609 3566 1747 
Q 3566 888 3137 398 
Q 2709 -91 1959 -91 
Q 1206 -91 779 398 
Q 353 888 353 1747 
Q 353 2609 779 3096 
Q 1206 3584 1959 3584 
z
" transform="scale(0.015625)"/>
       <path id="DejaVuSans-6e" d="M 3513 2113 
L 3513 0 
L 2938 0 
L 2938 2094 
Q 2938 2591 2744 2837 
Q 2550 3084 2163 3084 
Q 1697 3084 1428 2787 
Q 1159 2491 1159 1978 
L 1159 0 
L 581 0 
L 581 3500 
L 1159 3500 
L 1159 2956 
Q 1366 3272 1645 3428 
Q 1925 3584 2291 3584 
Q 2894 3584 3203 3211 
Q 3513 2838 3513 2113 
z
" transform="scale(0.015625)"/>
       <path id="DejaVuSans-70" d="M 1159 525 
L 1159 -1331 
L 581 -1331 
L 581 3500 
L 1159 3500 
L 1159 2969 
Q 1341 3281 1617 3432 
Q 1894 3584 2278 3584 
Q 2916 3584 3314 3078 
Q 3713 2572 3713 1747 
Q 3713 922 3314 415 
Q 2916 -91 2278 -91 
Q 1894 -91 1617 61 
Q 1341 213 1159 525 
z
M 3116 1747 
Q 3116 2381 2855 2742 
Q 2594 3103 2138 3103 
Q 1681 3103 1420 2742 
Q 1159 2381 1159 1747 
Q 1159 1113 1420 752 
Q 1681 391 2138 391 
Q 2594 391 2855 752 
Q 3116 1113 3116 1747 
z
" transform="scale(0.015625)"/>
       <path id="DejaVuSans-74" d="M 1172 4494 
L 1172 3500 
L 2356 3500 
L 2356 3053 
L 1172 3053 
L 1172 1153 
Q 1172 725 1289 603 
Q 1406 481 1766 481 
L 2356 481 
L 2356 0 
L 1766 0 
Q 1100 0 847 248 
Q 594 497 594 1153 
L 594 3053 
L 172 3053 
L 172 3500 
L 594 3500 
L 594 4494 
L 1172 4494 
z
" transform="scale(0.015625)"/>
      </defs>
      <use xlink:href="#DejaVuSans-53"/>
      <use xlink:href="#DejaVuSans-65" transform="translate(63.476562 0)"/>
      <use xlink:href="#DejaVuSans-63" transform="translate(125 0)"/>
      <use xlink:href="#DejaVuSans-6f" transform="translate(179.980469 0)"/>
      <use xlink:href="#DejaVuSans-6e" transform="translate(241.162109 0)"/>
      <use xlink:href="#DejaVuSans-64" transform="translate(304.541016 0)"/>
      <use xlink:href="#DejaVuSans-73" transform="translate(368.017578 0)"/>
      <use xlink:href="#DejaVuSans-20" transform="translate(420.117188 0)"/>
      <use xlink:href="#DejaVuSans-73" transform="translate(451.904297 0)"/>
      <use xlink:href="#DejaVuSans-70" transform="translate(504.003906 0)"/>
      <use xlink:href="#DejaVuSans-65" transform="translate(567.480469 0)"/>
      <use xlink:href="#DejaVuSans-6e" transform="translate(629.003906 0)"/>
      <use xlink:href="#DejaVuSans-74" transform="translate(692.382812 0)"/>
     </g>
    </g>
   </g>
   <g id="LineCollection_1">
    <path d="M 71.241818 369.587355 
L 71.241818 367.972695 
" clip-path="url(#pd2621ff3a7)" style="fill: none; stroke: #009933; stroke-width: 1.5"/>
    <path d="M 94.763636 368.676333 
L 94.763636 367.202611 
" clip-path="url(#pd2621ff3a7)" style="fill: none; stroke: #009933; stroke-width: 1.5"/>
    <path d="M 118.285455 367.582057 
L 118.285455 366.980888 
" clip-path="url(#pd2621ff3a7)" style="fill: none; stroke: #009933; stroke-width: 1.5"/>
    <path d="M 141.807273 366.146455 
L 141.807273 365.90235 
" clip-path="url(#pd2621ff3a7)" style="fill: none; stroke: #009933; stroke-width: 1.5"/>
    <path d="M 165.329091 364.039738 
L 165.329091 363.459202 
" clip-path="url(#pd2621ff3a7)" style="fill: none; stroke: #009933; stroke-width: 1.5"/>
    <path d="M 188.850909 361.144052 
L 188.850909 360.457551 
" clip-path="url(#pd2621ff3a7)" style="fill: none; stroke: #009933; stroke-width: 1.5"/>
    <path d="M 212.372727 358.90689 
L 212.372727 358.309567 
" clip-path="url(#pd2621ff3a7)" style="fill: none; stroke: #009933; stroke-width: 1.5"/>
    <path d="M 235.894545 354.833695 
L 235.894545 354.430467 
" clip-path="url(#pd2621ff3a7)" style="fill: none; stroke: #009933; stroke-width: 1.5"/>
    <path d="M 259.416364 351.117215 
L 259.416364 349.632301 
" clip-path="url(#pd2621ff3a7)" style="fill: none; stroke: #009933; stroke-width: 1.5"/>
    <path d="M 282.938182 345.926313 
L 282.938182 345.2538 
" clip-path="url(#pd2621ff3a7)" style="fill: none; stroke: #009933; stroke-width: 1.5"/>
    <path d="M 306.46 340.602517 
L 306.46 339.664566 
" clip-path="url(#pd2621ff3a7)" style="fill: none; stroke: #009933; stroke-width: 1.5"/>
    <path d="M 329.981818 332.785214 
L 329.981818 331.910213 
" clip-path="url(#pd2621ff3a7)" style="fill: none; stroke: #009933; stroke-width: 1.5"/>
    <path d="M 353.503636 323.674994 
L 353.503636 322.620586 
" clip-path="url(#pd2621ff3a7)" style="fill: none; stroke: #009933; stroke-width: 1.5"/>
    <path d="M 377.025455 312.293339 
L 377.025455 311.310274 
" clip-path="url(#pd2621ff3a7)" style="fill: none; stroke: #009933; stroke-width: 1.5"/>
    <path d="M 400.547273 300.668279 
L 400.547273 294.941255 
" clip-path="url(#pd2621ff3a7)" style="fill: none; stroke: #009933; stroke-width: 1.5"/>
    <path d="M 424.069091 281.2441 
L 424.069091 279.70498 
" clip-path="url(#pd2621ff3a7)" style="fill: none; stroke: #009933; stroke-width: 1.5"/>
    <path d="M 447.590909 257.560676 
L 447.590909 256.239781 
" clip-path="url(#pd2621ff3a7)" style="fill: none; stroke: #009933; stroke-width: 1.5"/>
    <path d="M 471.112727 219.712171 
L 471.112727 211.160804 
" clip-path="url(#pd2621ff3a7)" style="fill: none; stroke: #009933; stroke-width: 1.5"/>
    <path d="M 494.634545 171.349318 
L 494.634545 168.225614 
" clip-path="url(#pd2621ff3a7)" style="fill: none; stroke: #009933; stroke-width: 1.5"/>
    <path d="M 518.156364 112.872197 
L 518.156364 110.116749 
" clip-path="url(#pd2621ff3a7)" style="fill: none; stroke: #009933; stroke-width: 1.5"/>
    <path d="M 541.678182 45.19218 
L 541.678182 43.387273 
" clip-path="url(#pd2621ff3a7)" style="fill: none; stroke: #009933; stroke-width: 1.5"/>
   </g>
   <g id="line2d_12">
    <defs>
     <path id="m567d63a80a" d="M 3 0 
L -3 -0 
" style="stroke: #009933"/>
    </defs>
    <g clip-path="url(#pd2621ff3a7)">
     <use xlink:href="#m567d63a80a" x="71.241818" y="369.587355" style="fill: #009933; stroke: #009933"/>
     <use xlink:href="#m567d63a80a" x="94.763636" y="368.676333" style="fill: #009933; stroke: #009933"/>
     <use xlink:href="#m567d63a80a" x="118.285455" y="367.582057" style="fill: #009933; stroke: #009933"/>
     <use xlink:href="#m567d63a80a" x="141.807273" y="366.146455" style="fill: #009933; stroke: #009933"/>
     <use xlink:href="#m567d63a80a" x="165.329091" y="364.039738" style="fill: #009933; stroke: #009933"/>
     <use xlink:href="#m567d63a80a" x="188.850909" y="361.144052" style="fill: #009933; stroke: #009933"/>
     <use xlink:href="#m567d63a80a" x="212.372727" y="358.90689" style="fill: #009933; stroke: #009933"/>
     <use xlink:href="#m567d63a80a" x="235.894545" y="354.833695" style="fill: #009933; stroke: #009933"/>
     <use xlink:href="#m567d63a80a" x="259.416364" y="351.117215" style="fill: #009933; stroke: #009933"/>
     <use xlink:href="#m567d63a80a" x="282.938182" y="345.926313" style="fill: #009933; stroke: #009933"/>
     <use xlink:href="#m567d63a80a" x="306.46" y="340.602517" style="fill: #009933; stroke: #009933"/>
     <use xlink:href="#m567d63a80a" x="329.981818" y="332.785214" style="fill: #009933; stroke: #009933"/>
     <use xlink:href="#m567d63a80a" x="353.503636" y="323.674994" style="fill: #009933; stroke: #009933"/>
     <use xlink:href="#m567d63a80a" x="377.025455" y="312.293339" style="fill: #009933; stroke: #009933"/>
     <use xlink:href="#m567d63a80a" x="400.547273" y="300.668279" style="fill: #009933; stroke: #009933"/>
     <use xlink:href="#m567d63a80a" x="424.069091" y="281.2441" style="fill: #009933; stroke: #009933"/>
     <use xlink:href="#m567d63a80a" x="447.590909" y="257.560676" style="fill: #009933; stroke: #009933"/>
     <use xlink:href="#m567d63a80a" x="471.112727" y="219.712171" style="fill: #009933; stroke: #009933"/>
     <use xlink:href="#m567d63a80a" x="494.634545" y="171.349318" style="fill: #009933; stroke: #009933"/>
     <use xlink:href="#m567d63a80a" x="518.156364" y="112.872197" style="fill: #009933; stroke: #009933"/>
     <use xlink:href="#m567d63a80a" x="541.678182" y="45.19218" style="fill: #009933; stroke: #009933"/>
    </g>
   </g>
   <g id="line2d_13">
    <g clip-path="url(#pd2621ff3a7)">
     <use xlink:href="#m567d63a80a" x="71.241818" y="367.972695" style="fill: #009933; stroke: #009933"/>
     <use xlink:href="#m567d63a80a" x="94.763636" y="367.202611" style="fill: #009933; stroke: #009933"/>
     <use xlink:href="#m567d63a80a" x="118.285455" y="366.980888" style="fill: #009933; stroke: #009933"/>
     <use xlink:href="#m567d63a80a" x="141.807273" y="365.90235" style="fill: #009933; stroke: #009933"/>
     <use xlink:href="#m567d63a80a" x="165.329091" y="363.459202" style="fill: #009933; stroke: #009933"/>
     <use xlink:href="#m567d63a80a" x="188.850909" y="360.457551" style="fill: #009933; stroke: #009933"/>
     <use xlink:href="#m567d63a80a" x="212.372727" y="358.309567" style="fill: #009933; stroke: #009933"/>
     <use xlink:href="#m567d63a80a" x="235.894545" y="354.430467" style="fill: #009933; stroke: #009933"/>
     <use xlink:href="#m567d63a80a" x="259.416364" y="349.632301" style="fill: #009933; stroke: #009933"/>
     <use xlink:href="#m567d63a80a" x="282.938182" y="345.2538" style="fill: #009933; stroke: #009933"/>
     <use xlink:href="#m567d63a80a" x="306.46" y="339.664566" style="fill: #009933; stroke: #009933"/>
     <use xlink:href="#m567d63a80a" x="329.981818" y="331.910213" style="fill: #009933; stroke: #009933"/>
     <use xlink:href="#m567d63a80a" x="353.503636" y="322.620586" style="fill: #009933; stroke: #009933"/>
     <use xlink:href="#m567d63a80a" x="377.025455" y="311.310274" style="fill: #009933; stroke: #009933"/>
     <use xlink:href="#m567d63a80a" x="400.547273" y="294.941255" style="fill: #009933; stroke: #009933"/>
     <use xlink:href="#m567d63a80a" x="424.069091" y="279.70498" style="fill: #009933; stroke: #009933"/>
     <use xlink:href="#m567d63a80a" x="447.590909" y="256.239781" style="fill: #009933; stroke: #009933"/>
     <use xlink:href="#m567d63a80a" x="471.112727" y="211.160804" style="fill: #009933; stroke: #009933"/>
     <use xlink:href="#m567d63a80a" x="494.634545" y="168.225614" style="fill: #009933; stroke: #009933"/>
     <use xlink:href="#m567d63a80a" x="518.156364" y="110.116749" style="fill: #009933; stroke: #009933"/>
     <use xlink:href="#m567d63a80a" x="541.678182" y="43.387273" style="fill: #009933; stroke: #009933"/>
    </g>
   </g>
   <g id="LineCollection_2">
    <path d="M 71.241818 372.341404 
L 71.241818 371.77171 
" clip-path="url(#pd2621ff3a7)" style="fill: none; stroke: #009933; stroke-width: 1.5"/>
    <path d="M 94.763636 371.9088 
L 94.763636 370.772208 
" clip-path="url(#pd2621ff3a7)" style="fill: none; stroke: #009933; stroke-width: 1.5"/>
    <path d="M 118.285455 371.296439 
L 118.285455 371.08276 
" clip-path="url(#pd2621ff3a7)" style="fill: none; stroke: #009933; stroke-width: 1.5"/>
    <path d="M 141.807273 370.595599 
L 141.807273 370.022407 
" clip-path="url(#pd2621ff3a7)" style="fill: none; stroke: #009933; stroke-width: 1.5"/>
    <path d="M 165.329091 369.696468 
L 165.329091 369.471248 
" clip-path="url(#pd2621ff3a7)" style="fill: none; stroke: #009933; stroke-width: 1.5"/>
    <path d="M 188.850909 368.382568 
L 188.850909 367.869178 
" clip-path="url(#pd2621ff3a7)" style="fill: none; stroke: #009933; stroke-width: 1.5"/>
    <path d="M 212.372727 367.588352 
L 212.372727 367.02845 
" clip-path="url(#pd2621ff3a7)" style="fill: none; stroke: #009933; stroke-width: 1.5"/>
    <path d="M 235.894545 366.011812 
L 235.894545 365.993977 
" clip-path="url(#pd2621ff3a7)" style="fill: none; stroke: #009933; stroke-width: 1.5"/>
    <path d="M 259.416364 364.399601 
L 259.416364 363.876768 
" clip-path="url(#pd2621ff3a7)" style="fill: none; stroke: #009933; stroke-width: 1.5"/>
    <path d="M 282.938182 362.779345 
L 282.938182 358.612425 
" clip-path="url(#pd2621ff3a7)" style="fill: none; stroke: #009933; stroke-width: 1.5"/>
    <path d="M 306.46 360.782091 
L 306.46 359.990674 
" clip-path="url(#pd2621ff3a7)" style="fill: none; stroke: #009933; stroke-width: 1.5"/>
    <path d="M 329.981818 358.411336 
L 329.981818 357.327902 
" clip-path="url(#pd2621ff3a7)" style="fill: none; stroke: #009933; stroke-width: 1.5"/>
    <path d="M 353.503636 354.737522 
L 353.503636 354.241618 
" clip-path="url(#pd2621ff3a7)" style="fill: none; stroke: #009933; stroke-width: 1.5"/>
    <path d="M 377.025455 351.826098 
L 377.025455 350.832892 
" clip-path="url(#pd2621ff3a7)" style="fill: none; stroke: #009933; stroke-width: 1.5"/>
    <path d="M 400.547273 347.663375 
L 400.547273 347.066751 
" clip-path="url(#pd2621ff3a7)" style="fill: none; stroke: #009933; stroke-width: 1.5"/>
    <path d="M 424.069091 339.911469 
L 424.069091 338.690245 
" clip-path="url(#pd2621ff3a7)" style="fill: none; stroke: #009933; stroke-width: 1.5"/>
    <path d="M 447.590909 335.672157 
L 447.590909 334.111704 
" clip-path="url(#pd2621ff3a7)" style="fill: none; stroke: #009933; stroke-width: 1.5"/>
    <path d="M 471.112727 325.052543 
L 471.112727 324.138373 
" clip-path="url(#pd2621ff3a7)" style="fill: none; stroke: #009933; stroke-width: 1.5"/>
    <path d="M 494.634545 313.048036 
L 494.634545 311.684475 
" clip-path="url(#pd2621ff3a7)" style="fill: none; stroke: #009933; stroke-width: 1.5"/>
    <path d="M 518.156364 298.582196 
L 518.156364 297.477079 
" clip-path="url(#pd2621ff3a7)" style="fill: none; stroke: #009933; stroke-width: 1.5"/>
    <path d="M 541.678182 283.804055 
L 541.678182 283.301157 
" clip-path="url(#pd2621ff3a7)" style="fill: none; stroke: #009933; stroke-width: 1.5"/>
   </g>
   <g id="line2d_14">
    <g clip-path="url(#pd2621ff3a7)">
     <use xlink:href="#m567d63a80a" x="71.241818" y="372.341404" style="fill: #009933; stroke: #009933"/>
     <use xlink:href="#m567d63a80a" x="94.763636" y="371.9088" style="fill: #009933; stroke: #009933"/>
     <use xlink:href="#m567d63a80a" x="118.285455" y="371.296439" style="fill: #009933; stroke: #009933"/>
     <use xlink:href="#m567d63a80a" x="141.807273" y="370.595599" style="fill: #009933; stroke: #009933"/>
     <use xlink:href="#m567d63a80a" x="165.329091" y="369.696468" style="fill: #009933; stroke: #009933"/>
     <use xlink:href="#m567d63a80a" x="188.850909" y="368.382568" style="fill: #009933; stroke: #009933"/>
     <use xlink:href="#m567d63a80a" x="212.372727" y="367.588352" style="fill: #009933; stroke: #009933"/>
     <use xlink:href="#m567d63a80a" x="235.894545" y="366.011812" style="fill: #009933; stroke: #009933"/>
     <use xlink:href="#m567d63a80a" x="259.416364" y="364.399601" style="fill: #009933; stroke: #009933"/>
     <use xlink:href="#m567d63a80a" x="282.938182" y="362.779345" style="fill: #009933; stroke: #009933"/>
     <use xlink:href="#m567d63a80a" x="306.46" y="360.782091" style="fill: #009933; stroke: #009933"/>
     <use xlink:href="#m567d63a80a" x="329.981818" y="358.411336" style="fill: #009933; stroke: #009933"/>
     <use xlink:href="#m567d63a80a" x="353.503636" y="354.737522" style="fill: #009933; stroke: #009933"/>
     <use xlink:href="#m567d63a80a" x="377.025455" y="351.826098" style="fill: #009933; stroke: #009933"/>
     <use xlink:href="#m567d63a80a" x="400.547273" y="347.663375" style="fill: #009933; stroke: #009933"/>
     <use xlink:href="#m567d63a80a" x="424.069091" y="339.911469" style="fill: #009933; stroke: #009933"/>
     <use xlink:href="#m567d63a80a" x="447.590909" y="335.672157" style="fill: #009933; stroke: #009933"/>
     <use xlink:href="#m567d63a80a" x="471.112727" y="325.052543" style="fill: #009933; stroke: #009933"/>
     <use xlink:href="#m567d63a80a" x="494.634545" y="313.048036" style="fill: #009933; stroke: #009933"/>
     <use xlink:href="#m567d63a80a" x="518.156364" y="298.582196" style="fill: #009933; stroke: #009933"/>
     <use xlink:href="#m567d63a80a" x="541.678182" y="283.804055" style="fill: #009933; stroke: #009933"/>
    </g>
   </g>
   <g id="line2d_15">
    <g clip-path="url(#pd2621ff3a7)">
     <use xlink:href="#m567d63a80a" x="71.241818" y="371.77171" style="fill: #009933; stroke: #009933"/>
     <use xlink:href="#m567d63a80a" x="94.763636" y="370.772208" style="fill: #009933; stroke: #009933"/>
     <use xlink:href="#m567d63a80a" x="118.285455" y="371.08276" style="fill: #009933; stroke: #009933"/>
     <use xlink:href="#m567d63a80a" x="141.807273" y="370.022407" style="fill: #009933; stroke: #009933"/>
     <use xlink:href="#m567d63a80a" x="165.329091" y="369.471248" style="fill: #009933; stroke: #009933"/>
     <use xlink:href="#m567d63a80a" x="188.850909" y="367.869178" style="fill: #009933; stroke: #009933"/>
     <use xlink:href="#m567d63a80a" x="212.372727" y="367.02845" style="fill: #009933; stroke: #009933"/>
     <use xlink:href="#m567d63a80a" x="235.894545" y="365.993977" style="fill: #009933; stroke: #009933"/>
     <use xlink:href="#m567d63a80a" x="259.416364" y="363.876768" style="fill: #009933; stroke: #009933"/>
     <use xlink:href="#m567d63a80a" x="282.938182" y="358.612425" style="fill: #009933; stroke: #009933"/>
     <use xlink:href="#m567d63a80a" x="306.46" y="359.990674" style="fill: #009933; stroke: #009933"/>
     <use xlink:href="#m567d63a80a" x="329.981818" y="357.327902" style="fill: #009933; stroke: #009933"/>
     <use xlink:href="#m567d63a80a" x="353.503636" y="354.241618" style="fill: #009933; stroke: #009933"/>
     <use xlink:href="#m567d63a80a" x="377.025455" y="350.832892" style="fill: #009933; stroke: #009933"/>
     <use xlink:href="#m567d63a80a" x="400.547273" y="347.066751" style="fill: #009933; stroke: #009933"/>
     <use xlink:href="#m567d63a80a" x="424.069091" y="338.690245" style="fill: #009933; stroke: #009933"/>
     <use xlink:href="#m567d63a80a" x="447.590909" y="334.111704" style="fill: #009933; stroke: #009933"/>
     <use xlink:href="#m567d63a80a" x="471.112727" y="324.138373" style="fill: #009933; stroke: #009933"/>
     <use xlink:href="#m567d63a80a" x="494.634545" y="311.684475" style="fill: #009933; stroke: #009933"/>
     <use xlink:href="#m567d63a80a" x="518.156364" y="297.477079" style="fill: #009933; stroke: #009933"/>
     <use xlink:href="#m567d63a80a" x="541.678182" y="283.301157" style="fill: #009933; stroke: #009933"/>
    </g>
   </g>
   <g id="LineCollection_3">
    <path d="M 71.241818 371.638466 
L 71.241818 371.581811 
" clip-path="url(#pd2621ff3a7)" style="fill: none; stroke: #cc0033; stroke-width: 1.5"/>
    <path d="M 94.763636 370.803578 
L 94.763636 370.348976 
" clip-path="url(#pd2621ff3a7)" style="fill: none; stroke: #cc0033; stroke-width: 1.5"/>
    <path d="M 118.285455 369.935991 
L 118.285455 369.853178 
" clip-path="url(#pd2621ff3a7)" style="fill: none; stroke: #cc0033; stroke-width: 1.5"/>
    <path d="M 141.807273 368.776808 
L 141.807273 368.607403 
" clip-path="url(#pd2621ff3a7)" style="fill: none; stroke: #cc0033; stroke-width: 1.5"/>
    <path d="M 165.329091 367.18418 
L 165.329091 366.918743 
" clip-path="url(#pd2621ff3a7)" style="fill: none; stroke: #cc0033; stroke-width: 1.5"/>
    <path d="M 188.850909 365.172203 
L 188.850909 364.949466 
" clip-path="url(#pd2621ff3a7)" style="fill: none; stroke: #cc0033; stroke-width: 1.5"/>
    <path d="M 212.372727 363.454586 
L 212.372727 363.192086 
" clip-path="url(#pd2621ff3a7)" style="fill: none; stroke: #cc0033; stroke-width: 1.5"/>
    <path d="M 235.894545 360.609819 
L 235.894545 360.23943 
" clip-path="url(#pd2621ff3a7)" style="fill: none; stroke: #cc0033; stroke-width: 1.5"/>
    <path d="M 259.416364 357.18567 
L 259.416364 357.039522 
" clip-path="url(#pd2621ff3a7)" style="fill: none; stroke: #cc0033; stroke-width: 1.5"/>
    <path d="M 282.938182 353.671084 
L 282.938182 353.147937 
" clip-path="url(#pd2621ff3a7)" style="fill: none; stroke: #cc0033; stroke-width: 1.5"/>
    <path d="M 306.46 349.604988 
L 306.46 348.691521 
" clip-path="url(#pd2621ff3a7)" style="fill: none; stroke: #cc0033; stroke-width: 1.5"/>
    <path d="M 329.981818 343.509744 
L 329.981818 341.02781 
" clip-path="url(#pd2621ff3a7)" style="fill: none; stroke: #cc0033; stroke-width: 1.5"/>
    <path d="M 353.503636 336.306657 
L 353.503636 332.866769 
" clip-path="url(#pd2621ff3a7)" style="fill: none; stroke: #cc0033; stroke-width: 1.5"/>
    <path d="M 377.025455 327.102077 
L 377.025455 323.496706 
" clip-path="url(#pd2621ff3a7)" style="fill: none; stroke: #cc0033; stroke-width: 1.5"/>
    <path d="M 400.547273 319.103832 
L 400.547273 317.879635 
" clip-path="url(#pd2621ff3a7)" style="fill: none; stroke: #cc0033; stroke-width: 1.5"/>
    <path d="M 424.069091 302.397926 
L 424.069091 296.556754 
" clip-path="url(#pd2621ff3a7)" style="fill: none; stroke: #cc0033; stroke-width: 1.5"/>
    <path d="M 447.590909 285.431339 
L 447.590909 283.601672 
" clip-path="url(#pd2621ff3a7)" style="fill: none; stroke: #cc0033; stroke-width: 1.5"/>
    <path d="M 471.112727 254.859365 
L 471.112727 251.183977 
" clip-path="url(#pd2621ff3a7)" style="fill: none; stroke: #cc0033; stroke-width: 1.5"/>
    <path d="M 494.634545 217.321411 
L 494.634545 214.426844 
" clip-path="url(#pd2621ff3a7)" style="fill: none; stroke: #cc0033; stroke-width: 1.5"/>
    <path d="M 518.156364 172.135664 
L 518.156364 169.017976 
" clip-path="url(#pd2621ff3a7)" style="fill: none; stroke: #cc0033; stroke-width: 1.5"/>
    <path d="M 541.678182 119.914624 
L 541.678182 113.846466 
" clip-path="url(#pd2621ff3a7)" style="fill: none; stroke: #cc0033; stroke-width: 1.5"/>
   </g>
   <g id="line2d_16">
    <defs>
     <path id="md3fe7ae338" d="M 3 0 
L -3 -0 
" style="stroke: #cc0033"/>
    </defs>
    <g clip-path="url(#pd2621ff3a7)">
     <use xlink:href="#md3fe7ae338" x="71.241818" y="371.638466" style="fill: #cc0033; stroke: #cc0033"/>
     <use xlink:href="#md3fe7ae338" x="94.763636" y="370.803578" style="fill: #cc0033; stroke: #cc0033"/>
     <use xlink:href="#md3fe7ae338" x="118.285455" y="369.935991" style="fill: #cc0033; stroke: #cc0033"/>
     <use xlink:href="#md3fe7ae338" x="141.807273" y="368.776808" style="fill: #cc0033; stroke: #cc0033"/>
     <use xlink:href="#md3fe7ae338" x="165.329091" y="367.18418" style="fill: #cc0033; stroke: #cc0033"/>
     <use xlink:href="#md3fe7ae338" x="188.850909" y="365.172203" style="fill: #cc0033; stroke: #cc0033"/>
     <use xlink:href="#md3fe7ae338" x="212.372727" y="363.454586" style="fill: #cc0033; stroke: #cc0033"/>
     <use xlink:href="#md3fe7ae338" x="235.894545" y="360.609819" style="fill: #cc0033; stroke: #cc0033"/>
     <use xlink:href="#md3fe7ae338" x="259.416364" y="357.18567" style="fill: #cc0033; stroke: #cc0033"/>
     <use xlink:href="#md3fe7ae338" x="282.938182" y="353.671084" style="fill: #cc0033; stroke: #cc0033"/>
     <use xlink:href="#md3fe7ae338" x="306.46" y="349.604988" style="fill: #cc0033; stroke: #cc0033"/>
     <use xlink:href="#md3fe7ae338" x="329.981818" y="343.509744" style="fill: #cc0033; stroke: #cc0033"/>
     <use xlink:href="#md3fe7ae338" x="353.503636" y="336.306657" style="fill: #cc0033; stroke: #cc0033"/>
     <use xlink:href="#md3fe7ae338" x="377.025455" y="327.102077" style="fill: #cc0033; stroke: #cc0033"/>
     <use xlink:href="#md3fe7ae338" x="400.547273" y="319.103832" style="fill: #cc0033; stroke: #cc0033"/>
     <use xlink:href="#md3fe7ae338" x="424.069091" y="302.397926" style="fill: #cc0033; stroke: #cc0033"/>
     <use xlink:href="#md3fe7ae338" x="447.590909" y="285.431339" style="fill: #cc0033; stroke: #cc0033"/>
     <use xlink:href="#md3fe7ae338" x="471.112727" y="254.859365" style="fill: #cc0033; stroke: #cc0033"/>
     <use xlink:href="#md3fe7ae338" x="494.634545" y="217.321411" style="fill: #cc0033; stroke: #cc0033"/>
     <use xlink:href="#md3fe7ae338" x="518.156364" y="172.135664" style="fill: #cc0033; stroke: #cc0033"/>
     <use xlink:href="#md3fe7ae338" x="541.678182" y="119.914624" style="fill: #cc0033; stroke: #cc0033"/>
    </g>
   </g>
   <g id="line2d_17">
    <g clip-path="url(#pd2621ff3a7)">
     <use xlink:href="#md3fe7ae338" x="71.241818" y="371.581811" style="fill: #cc0033; stroke: #cc0033"/>
     <use xlink:href="#md3fe7ae338" x="94.763636" y="370.348976" style="fill: #cc0033; stroke: #cc0033"/>
     <use xlink:href="#md3fe7ae338" x="118.285455" y="369.853178" style="fill: #cc0033; stroke: #cc0033"/>
     <use xlink:href="#md3fe7ae338" x="141.807273" y="368.607403" style="fill: #cc0033; stroke: #cc0033"/>
     <use xlink:href="#md3fe7ae338" x="165.329091" y="366.918743" style="fill: #cc0033; stroke: #cc0033"/>
     <use xlink:href="#md3fe7ae338" x="188.850909" y="364.949466" style="fill: #cc0033; stroke: #cc0033"/>
     <use xlink:href="#md3fe7ae338" x="212.372727" y="363.192086" style="fill: #cc0033; stroke: #cc0033"/>
     <use xlink:href="#md3fe7ae338" x="235.894545" y="360.23943" style="fill: #cc0033; stroke: #cc0033"/>
     <use xlink:href="#md3fe7ae338" x="259.416364" y="357.039522" style="fill: #cc0033; stroke: #cc0033"/>
     <use xlink:href="#md3fe7ae338" x="282.938182" y="353.147937" style="fill: #cc0033; stroke: #cc0033"/>
     <use xlink:href="#md3fe7ae338" x="306.46" y="348.691521" style="fill: #cc0033; stroke: #cc0033"/>
     <use xlink:href="#md3fe7ae338" x="329.981818" y="341.02781" style="fill: #cc0033; stroke: #cc0033"/>
     <use xlink:href="#md3fe7ae338" x="353.503636" y="332.866769" style="fill: #cc0033; stroke: #cc0033"/>
     <use xlink:href="#md3fe7ae338" x="377.025455" y="323.496706" style="fill: #cc0033; stroke: #cc0033"/>
     <use xlink:href="#md3fe7ae338" x="400.547273" y="317.879635" style="fill: #cc0033; stroke: #cc0033"/>
     <use xlink:href="#md3fe7ae338" x="424.069091" y="296.556754" style="fill: #cc0033; stroke: #cc0033"/>
     <use xlink:href="#md3fe7ae338" x="447.590909" y="283.601672" style="fill: #cc0033; stroke: #cc0033"/>
     <use xlink:href="#md3fe7ae338" x="471.112727" y="251.183977" style="fill: #cc0033; stroke: #cc0033"/>
     <use xlink:href="#md3fe7ae338" x="494.634545" y="214.426844" style="fill: #cc0033; stroke: #cc0033"/>
     <use xlink:href="#md3fe7ae338" x="518.156364" y="169.017976" style="fill: #cc0033; stroke: #cc0033"/>
     <use xlink:href="#md3fe7ae338" x="541.678182" y="113.846466" style="fill: #cc0033; stroke: #cc0033"/>
    </g>
   </g>
   <g id="LineCollection_4">
    <path d="M 71.241818 373.532727 
L 71.241818 373.406408 
" clip-path="url(#pd2621ff3a7)" style="fill: none; stroke: #cc0033; stroke-width: 1.5"/>
    <path d="M 94.763636 372.961878 
L 94.763636 372.425897 
" clip-path="url(#pd2621ff3a7)" style="fill: none; stroke: #cc0033; stroke-width: 1.5"/>
    <path d="M 118.285455 372.488811 
L 118.285455 372.197669 
" clip-path="url(#pd2621ff3a7)" style="fill: none; stroke: #cc0033; stroke-width: 1.5"/>
    <path d="M 141.807273 371.843367 
L 141.807273 371.729533 
" clip-path="url(#pd2621ff3a7)" style="fill: none; stroke: #cc0033; stroke-width: 1.5"/>
    <path d="M 165.329091 371.272239 
L 165.329091 371.14599 
" clip-path="url(#pd2621ff3a7)" style="fill: none; stroke: #cc0033; stroke-width: 1.5"/>
    <path d="M 188.850909 370.403183 
L 188.850909 370.25707 
" clip-path="url(#pd2621ff3a7)" style="fill: none; stroke: #cc0033; stroke-width: 1.5"/>
    <path d="M 212.372727 369.56277 
L 212.372727 369.289953 
" clip-path="url(#pd2621ff3a7)" style="fill: none; stroke: #cc0033; stroke-width: 1.5"/>
    <path d="M 235.894545 368.11671 
L 235.894545 367.845222 
" clip-path="url(#pd2621ff3a7)" style="fill: none; stroke: #cc0033; stroke-width: 1.5"/>
    <path d="M 259.416364 367.089546 
L 259.416364 366.444207 
" clip-path="url(#pd2621ff3a7)" style="fill: none; stroke: #cc0033; stroke-width: 1.5"/>
    <path d="M 282.938182 365.597219 
L 282.938182 365.40197 
" clip-path="url(#pd2621ff3a7)" style="fill: none; stroke: #cc0033; stroke-width: 1.5"/>
    <path d="M 306.46 363.940627 
L 306.46 363.724325 
" clip-path="url(#pd2621ff3a7)" style="fill: none; stroke: #cc0033; stroke-width: 1.5"/>
    <path d="M 329.981818 361.875213 
L 329.981818 361.008465 
" clip-path="url(#pd2621ff3a7)" style="fill: none; stroke: #cc0033; stroke-width: 1.5"/>
    <path d="M 353.503636 358.842821 
L 353.503636 357.625234 
" clip-path="url(#pd2621ff3a7)" style="fill: none; stroke: #cc0033; stroke-width: 1.5"/>
    <path d="M 377.025455 355.701876 
L 377.025455 354.396509 
" clip-path="url(#pd2621ff3a7)" style="fill: none; stroke: #cc0033; stroke-width: 1.5"/>
    <path d="M 400.547273 352.489588 
L 400.547273 351.778078 
" clip-path="url(#pd2621ff3a7)" style="fill: none; stroke: #cc0033; stroke-width: 1.5"/>
    <path d="M 424.069091 346.09841 
L 424.069091 344.20331 
" clip-path="url(#pd2621ff3a7)" style="fill: none; stroke: #cc0033; stroke-width: 1.5"/>
    <path d="M 447.590909 342.566794 
L 447.590909 341.301645 
" clip-path="url(#pd2621ff3a7)" style="fill: none; stroke: #cc0033; stroke-width: 1.5"/>
    <path d="M 471.112727 333.936739 
L 471.112727 332.467458 
" clip-path="url(#pd2621ff3a7)" style="fill: none; stroke: #cc0033; stroke-width: 1.5"/>
    <path d="M 494.634545 324.990324 
L 494.634545 322.806295 
" clip-path="url(#pd2621ff3a7)" style="fill: none; stroke: #cc0033; stroke-width: 1.5"/>
    <path d="M 518.156364 313.252412 
L 518.156364 310.114646 
" clip-path="url(#pd2621ff3a7)" style="fill: none; stroke: #cc0033; stroke-width: 1.5"/>
    <path d="M 541.678182 300.706192 
L 541.678182 297.247875 
" clip-path="url(#pd2621ff3a7)" style="fill: none; stroke: #cc0033; stroke-width: 1.5"/>
   </g>
   <g id="line2d_18">
    <g clip-path="url(#pd2621ff3a7)">
     <use xlink:href="#md3fe7ae338" x="71.241818" y="373.532727" style="fill: #cc0033; stroke: #cc0033"/>
     <use xlink:href="#md3fe7ae338" x="94.763636" y="372.961878" style="fill: #cc0033; stroke: #cc0033"/>
     <use xlink:href="#md3fe7ae338" x="118.285455" y="372.488811" style="fill: #cc0033; stroke: #cc0033"/>
     <use xlink:href="#md3fe7ae338" x="141.807273" y="371.843367" style="fill: #cc0033; stroke: #cc0033"/>
     <use xlink:href="#md3fe7ae338" x="165.329091" y="371.272239" style="fill: #cc0033; stroke: #cc0033"/>
     <use xlink:href="#md3fe7ae338" x="188.850909" y="370.403183" style="fill: #cc0033; stroke: #cc0033"/>
     <use xlink:href="#md3fe7ae338" x="212.372727" y="369.56277" style="fill: #cc0033; stroke: #cc0033"/>
     <use xlink:href="#md3fe7ae338" x="235.894545" y="368.11671" style="fill: #cc0033; stroke: #cc0033"/>
     <use xlink:href="#md3fe7ae338" x="259.416364" y="367.089546" style="fill: #cc0033; stroke: #cc0033"/>
     <use xlink:href="#md3fe7ae338" x="282.938182" y="365.597219" style="fill: #cc0033; stroke: #cc0033"/>
     <use xlink:href="#md3fe7ae338" x="306.46" y="363.940627" style="fill: #cc0033; stroke: #cc0033"/>
     <use xlink:href="#md3fe7ae338" x="329.981818" y="361.875213" style="fill: #cc0033; stroke: #cc0033"/>
     <use xlink:href="#md3fe7ae338" x="353.503636" y="358.842821" style="fill: #cc0033; stroke: #cc0033"/>
     <use xlink:href="#md3fe7ae338" x="377.025455" y="355.701876" style="fill: #cc0033; stroke: #cc0033"/>
     <use xlink:href="#md3fe7ae338" x="400.547273" y="352.489588" style="fill: #cc0033; stroke: #cc0033"/>
     <use xlink:href="#md3fe7ae338" x="424.069091" y="346.09841" style="fill: #cc0033; stroke: #cc0033"/>
     <use xlink:href="#md3fe7ae338" x="447.590909" y="342.566794" style="fill: #cc0033; stroke: #cc0033"/>
     <use xlink:href="#md3fe7ae338" x="471.112727" y="333.936739" style="fill: #cc0033; stroke: #cc0033"/>
     <use xlink:href="#md3fe7ae338" x="494.634545" y="324.990324" style="fill: #cc0033; stroke: #cc0033"/>
     <use xlink:href="#md3fe7ae338" x="518.156364" y="313.252412" style="fill: #cc0033; stroke: #cc0033"/>
     <use xlink:href="#md3fe7ae338" x="541.678182" y="300.706192" style="fill: #cc0033; stroke: #cc0033"/>
    </g>
   </g>
   <g id="line2d_19">
    <g clip-path="url(#pd2621ff3a7)">
     <use xlink:href="#md3fe7ae338" x="71.241818" y="373.406408" style="fill: #cc0033; stroke: #cc0033"/>
     <use xlink:href="#md3fe7ae338" x="94.763636" y="372.425897" style="fill: #cc0033; stroke: #cc0033"/>
     <use xlink:href="#md3fe7ae338" x="118.285455" y="372.197669" style="fill: #cc0033; stroke: #cc0033"/>
     <use xlink:href="#md3fe7ae338" x="141.807273" y="371.729533" style="fill: #cc0033; stroke: #cc0033"/>
     <use xlink:href="#md3fe7ae338" x="165.329091" y="371.14599" style="fill: #cc0033; stroke: #cc0033"/>
     <use xlink:href="#md3fe7ae338" x="188.850909" y="370.25707" style="fill: #cc0033; stroke: #cc0033"/>
     <use xlink:href="#md3fe7ae338" x="212.372727" y="369.289953" style="fill: #cc0033; stroke: #cc0033"/>
     <use xlink:href="#md3fe7ae338" x="235.894545" y="367.845222" style="fill: #cc0033; stroke: #cc0033"/>
     <use xlink:href="#md3fe7ae338" x="259.416364" y="366.444207" style="fill: #cc0033; stroke: #cc0033"/>
     <use xlink:href="#md3fe7ae338" x="282.938182" y="365.40197" style="fill: #cc0033; stroke: #cc0033"/>
     <use xlink:href="#md3fe7ae338" x="306.46" y="363.724325" style="fill: #cc0033; stroke: #cc0033"/>
     <use xlink:href="#md3fe7ae338" x="329.981818" y="361.008465" style="fill: #cc0033; stroke: #cc0033"/>
     <use xlink:href="#md3fe7ae338" x="353.503636" y="357.625234" style="fill: #cc0033; stroke: #cc0033"/>
     <use xlink:href="#md3fe7ae338" x="377.025455" y="354.396509" style="fill: #cc0033; stroke: #cc0033"/>
     <use xlink:href="#md3fe7ae338" x="400.547273" y="351.778078" style="fill: #cc0033; stroke: #cc0033"/>
     <use xlink:href="#md3fe7ae338" x="424.069091" y="344.20331" style="fill: #cc0033; stroke: #cc0033"/>
     <use xlink:href="#md3fe7ae338" x="447.590909" y="341.301645" style="fill: #cc0033; stroke: #cc0033"/>
     <use xlink:href="#md3fe7ae338" x="471.112727" y="332.467458" style="fill: #cc0033; stroke: #cc0033"/>
     <use xlink:href="#md3fe7ae338" x="494.634545" y="322.806295" style="fill: #cc0033; stroke: #cc0033"/>
     <use xlink:href="#md3fe7ae338" x="518.156364" y="310.114646" style="fill: #cc0033; stroke: #cc0033"/>
     <use xlink:href="#md3fe7ae338" x="541.678182" y="297.247875" style="fill: #cc0033; stroke: #cc0033"/>
    </g>
   </g>
   <g id="line2d_20">
    <path d="M 71.241818 368.85539 
L 94.763636 368.222745 
L 118.285455 367.343548 
L 141.807273 366.033845 
L 165.329091 363.751918 
L 188.850909 360.898548 
L 212.372727 358.668031 
L 235.894545 354.696255 
L 259.416364 350.441205 
L 282.938182 345.499654 
L 306.46 340.068494 
L 329.981818 332.393177 
L 353.503636 323.174893 
L 377.025455 311.860035 
L 400.547273 298.868267 
L 424.069091 280.605511 
L 447.590909 256.805629 
L 471.112727 217.242444 
L 494.634545 169.639534 
L 518.156364 111.836675 
L 541.678182 44.485045 
" clip-path="url(#pd2621ff3a7)" style="fill: none; stroke-dasharray: 1.5,2.475; stroke-dashoffset: 0; stroke: #009933; stroke-width: 1.5"/>
   </g>
   <g id="line2d_21">
    <path d="M 71.241818 372.133321 
L 94.763636 371.527954 
L 118.285455 371.17089 
L 141.807273 370.412346 
L 165.329091 369.60659 
L 188.850909 368.144058 
L 212.372727 367.42888 
L 235.894545 366.003069 
L 259.416364 364.25062 
L 282.938182 361.666185 
L 306.46 360.443212 
L 329.981818 357.79338 
L 353.503636 354.497963 
L 377.025455 351.455045 
L 400.547273 347.388494 
L 424.069091 339.371501 
L 447.590909 335.103161 
L 471.112727 324.547547 
L 494.634545 312.624175 
L 518.156364 298.082095 
L 541.678182 283.558551 
" clip-path="url(#pd2621ff3a7)" style="fill: none; stroke: #009933; stroke-width: 1.5; stroke-linecap: square"/>
   </g>
   <g id="line2d_22">
    <path d="M 71.241818 371.600227 
L 94.763636 370.619786 
L 118.285455 369.894871 
L 141.807273 368.669856 
L 165.329091 367.094393 
L 188.850909 365.080723 
L 212.372727 363.324028 
L 235.894545 360.473351 
L 259.416364 357.140836 
L 282.938182 353.423251 
L 306.46 349.155493 
L 329.981818 342.711046 
L 353.503636 335.31447 
L 377.025455 326.203102 
L 400.547273 318.552119 
L 424.069091 300.538309 
L 447.590909 284.576301 
L 471.112727 253.352079 
L 494.634545 216.334004 
L 518.156364 171.224475 
L 541.678182 116.679355 
" clip-path="url(#pd2621ff3a7)" style="fill: none; stroke-dasharray: 1.5,2.475; stroke-dashoffset: 0; stroke: #cc0033; stroke-width: 1.5"/>
   </g>
   <g id="line2d_23">
    <path d="M 71.241818 373.461622 
L 94.763636 372.821522 
L 118.285455 372.418692 
L 141.807273 371.792028 
L 165.329091 371.197979 
L 188.850909 370.332791 
L 212.372727 369.428078 
L 235.894545 368.014725 
L 259.416364 366.894367 
L 282.938182 365.506501 
L 306.46 363.806747 
L 329.981818 361.519855 
L 353.503636 358.524582 
L 377.025455 355.21098 
L 400.547273 352.209076 
L 424.069091 345.191305 
L 447.590909 342.013976 
L 471.112727 333.183195 
L 494.634545 323.969794 
L 518.156364 312.257086 
L 541.678182 299.497372 
" clip-path="url(#pd2621ff3a7)" style="fill: none; stroke: #cc0033; stroke-width: 1.5; stroke-linecap: square"/>
   </g>
   <g id="patch_3">
    <path d="M 47.72 390.04 
L 47.72 26.88 
" style="fill: none; stroke: #000000; stroke-width: 0.8; stroke-linejoin: miter; stroke-linecap: square"/>
   </g>
   <g id="patch_4">
    <path d="M 565.2 390.04 
L 565.2 26.88 
" style="fill: none; stroke: #000000; stroke-width: 0.8; stroke-linejoin: miter; stroke-linecap: square"/>
   </g>
   <g id="patch_5">
    <path d="M 47.72 390.04 
L 565.2 390.04 
" style="fill: none; stroke: #000000; stroke-width: 0.8; stroke-linejoin: miter; stroke-linecap: square"/>
   </g>
   <g id="patch_6">
    <path d="M 47.72 26.88 
L 565.2 26.88 
" style="fill: none; stroke: #000000; stroke-width: 0.8; stroke-linejoin: miter; stroke-linecap: square"/>
   </g>
   <g id="text_14">
    <!-- Bron-Kerbosch on a random graph of order 100 -->
    <g transform="translate(47.72 20.88) scale(0.12 -0.12)">
     <defs>
      <path id="DejaVuSans-42" d="M 1259 2228 
L 1259 519 
L 2272 519 
Q 2781 519 3026 730 
Q 3272 941 3272 1375 
Q 3272 1813 3026 2020 
Q 2781 2228 2272 2228 
L 1259 2228 
z
M 1259 4147 
L 1259 2741 
L 2194 2741 
Q 2656 2741 2882 2914 
Q 3109 3088 3109 3444 
Q 3109 3797 2882 3972 
Q 2656 4147 2194 4147 
L 1259 4147 
z
M 628 4666 
L 2241 4666 
Q 2963 4666 3353 4366 
Q 3744 4066 3744 3513 
Q 3744 3084 3544 2831 
Q 3344 2578 2956 2516 
Q 3422 2416 3680 2098 
Q 3938 1781 3938 1306 
Q 3938 681 3513 340 
Q 3088 0 2303 0 
L 628 0 
L 628 4666 
z
" transform="scale(0.015625)"/>
      <path id="DejaVuSans-72" d="M 2631 2963 
Q 2534 3019 2420 3045 
Q 2306 3072 2169 3072 
Q 1681 3072 1420 2755 
Q 1159 2438 1159 1844 
L 1159 0 
L 581 0 
L 581 3500 
L 1159 3500 
L 1159 2956 
Q 1341 3275 1631 3429 
Q 1922 3584 2338 3584 
Q 2397 3584 2469 3576 
Q 2541 3569 2628 3553 
L 2631 2963 
z
" transform="scale(0.015625)"/>
      <path id="DejaVuSans-2d" d="M 313 2009 
L 1997 2009 
L 1997 1497 
L 313 1497 
L 313 2009 
z
" transform="scale(0.015625)"/>
      <path id="DejaVuSans-4b" d="M 628 4666 
L 1259 4666 
L 1259 2694 
L 3353 4666 
L 4166 4666 
L 1850 2491 
L 4331 0 
L 3500 0 
L 1259 2247 
L 1259 0 
L 628 0 
L 628 4666 
z
" transform="scale(0.015625)"/>
      <path id="DejaVuSans-62" d="M 3116 1747 
Q 3116 2381 2855 2742 
Q 2594 3103 2138 3103 
Q 1681 3103 1420 2742 
Q 1159 2381 1159 1747 
Q 1159 1113 1420 752 
Q 1681 391 2138 391 
Q 2594 391 2855 752 
Q 3116 1113 3116 1747 
z
M 1159 2969 
Q 1341 3281 1617 3432 
Q 1894 3584 2278 3584 
Q 2916 3584 3314 3078 
Q 3713 2572 3713 1747 
Q 3713 922 3314 415 
Q 2916 -91 2278 -91 
Q 1894 -91 1617 61 
Q 1341 213 1159 525 
L 1159 0 
L 581 0 
L 581 4863 
L 1159 4863 
L 1159 2969 
z
" transform="scale(0.015625)"/>
      <path id="DejaVuSans-68" d="M 3513 2113 
L 3513 0 
L 2938 0 
L 2938 2094 
Q 2938 2591 2744 2837 
Q 2550 3084 2163 3084 
Q 1697 3084 1428 2787 
Q 1159 2491 1159 1978 
L 1159 0 
L 581 0 
L 581 4863 
L 1159 4863 
L 1159 2956 
Q 1366 3272 1645 3428 
Q 1925 3584 2291 3584 
Q 2894 3584 3203 3211 
Q 3513 2838 3513 2113 
z
" transform="scale(0.015625)"/>
      <path id="DejaVuSans-61" d="M 2194 1759 
Q 1497 1759 1228 1600 
Q 959 1441 959 1056 
Q 959 750 1161 570 
Q 1363 391 1709 391 
Q 2188 391 2477 730 
Q 2766 1069 2766 1631 
L 2766 1759 
L 2194 1759 
z
M 3341 1997 
L 3341 0 
L 2766 0 
L 2766 531 
Q 2569 213 2275 61 
Q 1981 -91 1556 -91 
Q 1019 -91 701 211 
Q 384 513 384 1019 
Q 384 1609 779 1909 
Q 1175 2209 1959 2209 
L 2766 2209 
L 2766 2266 
Q 2766 2663 2505 2880 
Q 2244 3097 1772 3097 
Q 1472 3097 1187 3025 
Q 903 2953 641 2809 
L 641 3341 
Q 956 3463 1253 3523 
Q 1550 3584 1831 3584 
Q 2591 3584 2966 3190 
Q 3341 2797 3341 1997 
z
" transform="scale(0.015625)"/>
      <path id="DejaVuSans-6d" d="M 3328 2828 
Q 3544 3216 3844 3400 
Q 4144 3584 4550 3584 
Q 5097 3584 5394 3201 
Q 5691 2819 5691 2113 
L 5691 0 
L 5113 0 
L 5113 2094 
Q 5113 2597 4934 2840 
Q 4756 3084 4391 3084 
Q 3944 3084 3684 2787 
Q 3425 2491 3425 1978 
L 3425 0 
L 2847 0 
L 2847 2094 
Q 2847 2600 2669 2842 
Q 2491 3084 2119 3084 
Q 1678 3084 1418 2786 
Q 1159 2488 1159 1978 
L 1159 0 
L 581 0 
L 581 3500 
L 1159 3500 
L 1159 2956 
Q 1356 3278 1631 3431 
Q 1906 3584 2284 3584 
Q 2666 3584 2933 3390 
Q 3200 3197 3328 2828 
z
" transform="scale(0.015625)"/>
      <path id="DejaVuSans-66" d="M 2375 4863 
L 2375 4384 
L 1825 4384 
Q 1516 4384 1395 4259 
Q 1275 4134 1275 3809 
L 1275 3500 
L 2222 3500 
L 2222 3053 
L 1275 3053 
L 1275 0 
L 697 0 
L 697 3053 
L 147 3053 
L 147 3500 
L 697 3500 
L 697 3744 
Q 697 4328 969 4595 
Q 1241 4863 1831 4863 
L 2375 4863 
z
" transform="scale(0.015625)"/>
      <path id="DejaVuSans-31" d="M 794 531 
L 1825 531 
L 1825 4091 
L 703 3866 
L 703 4441 
L 1819 4666 
L 2450 4666 
L 2450 531 
L 3481 531 
L 3481 0 
L 794 0 
L 794 531 
z
" transform="scale(0.015625)"/>
     </defs>
     <use xlink:href="#DejaVuSans-42"/>
     <use xlink:href="#DejaVuSans-72" transform="translate(68.603516 0)"/>
     <use xlink:href="#DejaVuSans-6f" transform="translate(107.466797 0)"/>
     <use xlink:href="#DejaVuSans-6e" transform="translate(168.648438 0)"/>
     <use xlink:href="#DejaVuSans-2d" transform="translate(232.027344 0)"/>
     <use xlink:href="#DejaVuSans-4b" transform="translate(268.111328 0)"/>
     <use xlink:href="#DejaVuSans-65" transform="translate(328.6875 0)"/>
     <use xlink:href="#DejaVuSans-72" transform="translate(390.210938 0)"/>
     <use xlink:href="#DejaVuSans-62" transform="translate(431.324219 0)"/>
     <use xlink:href="#DejaVuSans-6f" transform="translate(494.800781 0)"/>
     <use xlink:href="#DejaVuSans-73" transform="translate(555.982422 0)"/>
     <use xlink:href="#DejaVuSans-63" transform="translate(608.082031 0)"/>
     <use xlink:href="#DejaVuSans-68" transform="translate(663.0625 0)"/>
     <use xlink:href="#DejaVuSans-20" transform="translate(726.441406 0)"/>
     <use xlink:href="#DejaVuSans-6f" transform="translate(758.228516 0)"/>
     <use xlink:href="#DejaVuSans-6e" transform="translate(819.410156 0)"/>
     <use xlink:href="#DejaVuSans-20" transform="translate(882.789062 0)"/>
     <use xlink:href="#DejaVuSans-61" transform="translate(914.576172 0)"/>
     <use xlink:href="#DejaVuSans-20" transform="translate(975.855469 0)"/>
     <use xlink:href="#DejaVuSans-72" transform="translate(1007.642578 0)"/>
     <use xlink:href="#DejaVuSans-61" transform="translate(1048.755859 0)"/>
     <use xlink:href="#DejaVuSans-6e" transform="translate(1110.035156 0)"/>
     <use xlink:href="#DejaVuSans-64" transform="translate(1173.414062 0)"/>
     <use xlink:href="#DejaVuSans-6f" transform="translate(1236.890625 0)"/>
     <use xlink:href="#DejaVuSans-6d" transform="translate(1298.072266 0)"/>
     <use xlink:href="#DejaVuSans-20" transform="translate(1395.484375 0)"/>
     <use xlink:href="#DejaVuSans-67" transform="translate(1427.271484 0)"/>
     <use xlink:href="#DejaVuSans-72" transform="translate(1490.748047 0)"/>
     <use xlink:href="#DejaVuSans-61" transform="translate(1531.861328 0)"/>
     <use xlink:href="#DejaVuSans-70" transform="translate(1593.140625 0)"/>
     <use xlink:href="#DejaVuSans-68" transform="translate(1656.617188 0)"/>
     <use xlink:href="#DejaVuSans-20" transform="translate(1719.996094 0)"/>
     <use xlink:href="#DejaVuSans-6f" transform="translate(1751.783203 0)"/>
     <use xlink:href="#DejaVuSans-66" transform="translate(1812.964844 0)"/>
     <use xlink:href="#DejaVuSans-20" transform="translate(1848.169922 0)"/>
     <use xlink:href="#DejaVuSans-6f" transform="translate(1879.957031 0)"/>
     <use xlink:href="#DejaVuSans-72" transform="translate(1941.138672 0)"/>
     <use xlink:href="#DejaVuSans-64" transform="translate(1980.501953 0)"/>
     <use xlink:href="#DejaVuSans-65" transform="translate(2043.978516 0)"/>
     <use xlink:href="#DejaVuSans-72" transform="translate(2105.501953 0)"/>
     <use xlink:href="#DejaVuSans-20" transform="translate(2146.615234 0)"/>
     <use xlink:href="#DejaVuSans-31" transform="translate(2178.402344 0)"/>
     <use xlink:href="#DejaVuSans-30" transform="translate(2242.025391 0)"/>
     <use xlink:href="#DejaVuSans-30" transform="translate(2305.648438 0)"/>
    </g>
   </g>
   <g id="legend_1">
    <g id="patch_7">
     <path d="M 54.72 93.5925 
L 144.248125 93.5925 
Q 146.248125 93.5925 146.248125 91.5925 
L 146.248125 33.88 
Q 146.248125 31.88 144.248125 31.88 
L 54.72 31.88 
Q 52.72 31.88 52.72 33.88 
L 52.72 91.5925 
Q 52.72 93.5925 54.72 93.5925 
z
" style="fill: #ffffff; opacity: 0.8; stroke: #cccccc; stroke-linejoin: miter"/>
    </g>
    <g id="LineCollection_5">
     <path d="M 66.72 44.978437 
L 66.72 34.978437 
" style="fill: none; stroke: #009933; stroke-width: 1.5"/>
    </g>
    <g id="line2d_24">
     <g>
      <use xlink:href="#m567d63a80a" x="66.72" y="44.978437" style="fill: #009933; stroke: #009933"/>
     </g>
    </g>
    <g id="line2d_25">
     <g>
      <use xlink:href="#m567d63a80a" x="66.72" y="34.978437" style="fill: #009933; stroke: #009933"/>
     </g>
    </g>
    <g id="line2d_26">
     <path d="M 56.72 39.978437 
L 76.72 39.978437 
" style="fill: none; stroke-dasharray: 1.5,2.475; stroke-dashoffset: 0; stroke: #009933; stroke-width: 1.5"/>
    </g>
    <g id="line2d_27"/>
    <g id="text_15">
     <!-- Java Ver1½ -->
     <g transform="translate(84.72 43.478437) scale(0.1 -0.1)">
      <defs>
       <path id="DejaVuSans-4a" d="M 628 4666 
L 1259 4666 
L 1259 325 
Q 1259 -519 939 -900 
Q 619 -1281 -91 -1281 
L -331 -1281 
L -331 -750 
L -134 -750 
Q 284 -750 456 -515 
Q 628 -281 628 325 
L 628 4666 
z
" transform="scale(0.015625)"/>
       <path id="DejaVuSans-76" d="M 191 3500 
L 800 3500 
L 1894 563 
L 2988 3500 
L 3597 3500 
L 2284 0 
L 1503 0 
L 191 3500 
z
" transform="scale(0.015625)"/>
       <path id="DejaVuSans-56" d="M 1831 0 
L 50 4666 
L 709 4666 
L 2188 738 
L 3669 4666 
L 4325 4666 
L 2547 0 
L 1831 0 
z
" transform="scale(0.015625)"/>
       <path id="DejaVuSans-bd" d="M 488 2431 
L 1125 2431 
L 1125 4341 
L 428 4213 
L 428 4575 
L 1147 4697 
L 1575 4697 
L 1575 2431 
L 2216 2431 
L 2216 2088 
L 488 2088 
L 488 2431 
z
M 4470 332 
L 5795 332 
L 5795 -24 
L 3926 -24 
L 3926 319 
Q 4032 416 4229 591 
Q 5304 1544 5304 1838 
Q 5304 2044 5141 2170 
Q 4979 2297 4713 2297 
Q 4551 2297 4360 2242 
Q 4170 2188 3945 2079 
L 3945 2463 
Q 4185 2551 4393 2594 
Q 4601 2638 4779 2638 
Q 5232 2638 5504 2432 
Q 5776 2226 5776 1888 
Q 5776 1454 4741 566 
Q 4566 416 4470 332 
z
M 4309 4750 
L 4809 4750 
L 1896 -91 
L 1396 -91 
L 4309 4750 
z
" transform="scale(0.015625)"/>
      </defs>
      <use xlink:href="#DejaVuSans-4a"/>
      <use xlink:href="#DejaVuSans-61" transform="translate(29.492188 0)"/>
      <use xlink:href="#DejaVuSans-76" transform="translate(90.771484 0)"/>
      <use xlink:href="#DejaVuSans-61" transform="translate(149.951172 0)"/>
      <use xlink:href="#DejaVuSans-20" transform="translate(211.230469 0)"/>
      <use xlink:href="#DejaVuSans-56" transform="translate(243.017578 0)"/>
      <use xlink:href="#DejaVuSans-65" transform="translate(303.675781 0)"/>
      <use xlink:href="#DejaVuSans-72" transform="translate(365.199219 0)"/>
      <use xlink:href="#DejaVuSans-31" transform="translate(406.3125 0)"/>
      <use xlink:href="#DejaVuSans-bd" transform="translate(469.935547 0)"/>
     </g>
    </g>
    <g id="LineCollection_6">
     <path d="M 66.72 59.656563 
L 66.72 49.656563 
" style="fill: none; stroke: #009933; stroke-width: 1.5"/>
    </g>
    <g id="line2d_28">
     <g>
      <use xlink:href="#m567d63a80a" x="66.72" y="59.656563" style="fill: #009933; stroke: #009933"/>
     </g>
    </g>
    <g id="line2d_29">
     <g>
      <use xlink:href="#m567d63a80a" x="66.72" y="49.656563" style="fill: #009933; stroke: #009933"/>
     </g>
    </g>
    <g id="line2d_30">
     <path d="M 56.72 54.656563 
L 76.72 54.656563 
" style="fill: none; stroke: #009933; stroke-width: 1.5; stroke-linecap: square"/>
    </g>
    <g id="line2d_31"/>
    <g id="text_16">
     <!-- Java Ver2½ -->
     <g transform="translate(84.72 58.156563) scale(0.1 -0.1)">
      <use xlink:href="#DejaVuSans-4a"/>
      <use xlink:href="#DejaVuSans-61" transform="translate(29.492188 0)"/>
      <use xlink:href="#DejaVuSans-76" transform="translate(90.771484 0)"/>
      <use xlink:href="#DejaVuSans-61" transform="translate(149.951172 0)"/>
      <use xlink:href="#DejaVuSans-20" transform="translate(211.230469 0)"/>
      <use xlink:href="#DejaVuSans-56" transform="translate(243.017578 0)"/>
      <use xlink:href="#DejaVuSans-65" transform="translate(303.675781 0)"/>
      <use xlink:href="#DejaVuSans-72" transform="translate(365.199219 0)"/>
      <use xlink:href="#DejaVuSans-32" transform="translate(406.3125 0)"/>
      <use xlink:href="#DejaVuSans-bd" transform="translate(469.935547 0)"/>
     </g>
    </g>
    <g id="LineCollection_7">
     <path d="M 66.72 74.334687 
L 66.72 64.334687 
" style="fill: none; stroke: #cc0033; stroke-width: 1.5"/>
    </g>
    <g id="line2d_32">
     <g>
      <use xlink:href="#md3fe7ae338" x="66.72" y="74.334687" style="fill: #cc0033; stroke: #cc0033"/>
     </g>
    </g>
    <g id="line2d_33">
     <g>
      <use xlink:href="#md3fe7ae338" x="66.72" y="64.334687" style="fill: #cc0033; stroke: #cc0033"/>
     </g>
    </g>
    <g id="line2d_34">
     <path d="M 56.72 69.334687 
L 76.72 69.334687 
" style="fill: none; stroke-dasharray: 1.5,2.475; stroke-dashoffset: 0; stroke: #cc0033; stroke-width: 1.5"/>
    </g>
    <g id="line2d_35"/>
    <g id="text_17">
     <!-- Rust Ver1½ -->
     <g transform="translate(84.72 72.834687) scale(0.1 -0.1)">
      <defs>
       <path id="DejaVuSans-52" d="M 2841 2188 
Q 3044 2119 3236 1894 
Q 3428 1669 3622 1275 
L 4263 0 
L 3584 0 
L 2988 1197 
Q 2756 1666 2539 1819 
Q 2322 1972 1947 1972 
L 1259 1972 
L 1259 0 
L 628 0 
L 628 4666 
L 2053 4666 
Q 2853 4666 3247 4331 
Q 3641 3997 3641 3322 
Q 3641 2881 3436 2590 
Q 3231 2300 2841 2188 
z
M 1259 4147 
L 1259 2491 
L 2053 2491 
Q 2509 2491 2742 2702 
Q 2975 2913 2975 3322 
Q 2975 3731 2742 3939 
Q 2509 4147 2053 4147 
L 1259 4147 
z
" transform="scale(0.015625)"/>
       <path id="DejaVuSans-75" d="M 544 1381 
L 544 3500 
L 1119 3500 
L 1119 1403 
Q 1119 906 1312 657 
Q 1506 409 1894 409 
Q 2359 409 2629 706 
Q 2900 1003 2900 1516 
L 2900 3500 
L 3475 3500 
L 3475 0 
L 2900 0 
L 2900 538 
Q 2691 219 2414 64 
Q 2138 -91 1772 -91 
Q 1169 -91 856 284 
Q 544 659 544 1381 
z
M 1991 3584 
L 1991 3584 
z
" transform="scale(0.015625)"/>
      </defs>
      <use xlink:href="#DejaVuSans-52"/>
      <use xlink:href="#DejaVuSans-75" transform="translate(64.982422 0)"/>
      <use xlink:href="#DejaVuSans-73" transform="translate(128.361328 0)"/>
      <use xlink:href="#DejaVuSans-74" transform="translate(180.460938 0)"/>
      <use xlink:href="#DejaVuSans-20" transform="translate(219.669922 0)"/>
      <use xlink:href="#DejaVuSans-56" transform="translate(251.457031 0)"/>
      <use xlink:href="#DejaVuSans-65" transform="translate(312.115234 0)"/>
      <use xlink:href="#DejaVuSans-72" transform="translate(373.638672 0)"/>
      <use xlink:href="#DejaVuSans-31" transform="translate(414.751953 0)"/>
      <use xlink:href="#DejaVuSans-bd" transform="translate(478.375 0)"/>
     </g>
    </g>
    <g id="LineCollection_8">
     <path d="M 66.72 89.012812 
L 66.72 79.012812 
" style="fill: none; stroke: #cc0033; stroke-width: 1.5"/>
    </g>
    <g id="line2d_36">
     <g>
      <use xlink:href="#md3fe7ae338" x="66.72" y="89.012812" style="fill: #cc0033; stroke: #cc0033"/>
     </g>
    </g>
    <g id="line2d_37">
     <g>
      <use xlink:href="#md3fe7ae338" x="66.72" y="79.012812" style="fill: #cc0033; stroke: #cc0033"/>
     </g>
    </g>
    <g id="line2d_38">
     <path d="M 56.72 84.012812 
L 76.72 84.012812 
" style="fill: none; stroke: #cc0033; stroke-width: 1.5; stroke-linecap: square"/>
    </g>
    <g id="line2d_39"/>
    <g id="text_18">
     <!-- Rust Ver2½ -->
     <g transform="translate(84.72 87.512812) scale(0.1 -0.1)">
      <use xlink:href="#DejaVuSans-52"/>
      <use xlink:href="#DejaVuSans-75" transform="translate(64.982422 0)"/>
      <use xlink:href="#DejaVuSans-73" transform="translate(128.361328 0)"/>
      <use xlink:href="#DejaVuSans-74" transform="translate(180.460938 0)"/>
      <use xlink:href="#DejaVuSans-20" transform="translate(219.669922 0)"/>
      <use xlink:href="#DejaVuSans-56" transform="translate(251.457031 0)"/>
      <use xlink:href="#DejaVuSans-65" transform="translate(312.115234 0)"/>
      <use xlink:href="#DejaVuSans-72" transform="translate(373.638672 0)"/>
      <use xlink:href="#DejaVuSans-32" transform="translate(414.751953 0)"/>
      <use xlink:href="#DejaVuSans-bd" transform="translate(478.375 0)"/>
     </g>
    </g>
   </g>
  </g>
 </g>
 <defs>
  <clipPath id="pd2621ff3a7">
   <rect x="47.72" y="26.88" width="517.48" height="363.16"/>
  </clipPath>
 </defs>
</svg>
