<?xml version="1.0" encoding="utf-8" standalone="no"?>
<!DOCTYPE svg PUBLIC "-//W3C//DTD SVG 1.1//EN"
  "http://www.w3.org/Graphics/SVG/1.1/DTD/svg11.dtd">
<svg xmlns:xlink="http://www.w3.org/1999/xlink" width="576pt" height="432pt" viewBox="0 0 576 432" xmlns="http://www.w3.org/2000/svg" version="1.1">
 <metadata>
  <rdf:RDF xmlns:dc="http://purl.org/dc/elements/1.1/" xmlns:cc="http://creativecommons.org/ns#" xmlns:rdf="http://www.w3.org/1999/02/22-rdf-syntax-ns#">
   <cc:Work>
    <dc:type rdf:resource="http://purl.org/dc/dcmitype/StillImage"/>
    <dc:date>2021-12-10T02:25:09.304200</dc:date>
    <dc:format>image/svg+xml</dc:format>
    <dc:creator>
     <cc:Agent>
      <dc:title>Matplotlib v3.5.0, https://matplotlib.org/</dc:title>
     </cc:Agent>
    </dc:creator>
   </cc:Work>
  </rdf:RDF>
 </metadata>
 <defs>
  <style type="text/css">*{stroke-linejoin: round; stroke-linecap: butt}</style>
 </defs>
 <g id="figure_1">
  <g id="patch_1">
   <path d="M 0 432 
L 576 432 
L 576 0 
L 0 0 
z
" style="fill: #ffffff"/>
  </g>
  <g id="axes_1">
   <g id="patch_2">
    <path d="M 47.72 390.04 
L 565.2 390.04 
L 565.2 26.88 
L 47.72 26.88 
z
" style="fill: #ffffff"/>
   </g>
   <g id="matplotlib.axis_1">
    <g id="xtick_1">
     <g id="line2d_1">
      <defs>
       <path id="mc74f61fcfc" d="M 0 0 
L 0 3.5 
" style="stroke: #000000; stroke-width: 0.8"/>
      </defs>
      <g>
       <use xlink:href="#mc74f61fcfc" x="68.877816" y="390.04" style="stroke: #000000; stroke-width: 0.8"/>
      </g>
     </g>
     <g id="text_1">
      <!-- 0 -->
      <g transform="translate(65.696566 404.638438)scale(0.1 -0.1)">
       <defs>
        <path id="DejaVuSans-30" d="M 2034 4250 
Q 1547 4250 1301 3770 
Q 1056 3291 1056 2328 
Q 1056 1369 1301 889 
Q 1547 409 2034 409 
Q 2525 409 2770 889 
Q 3016 1369 3016 2328 
Q 3016 3291 2770 3770 
Q 2525 4250 2034 4250 
z
M 2034 4750 
Q 2819 4750 3233 4129 
Q 3647 3509 3647 2328 
Q 3647 1150 3233 529 
Q 2819 -91 2034 -91 
Q 1250 -91 836 529 
Q 422 1150 422 2328 
Q 422 3509 836 4129 
Q 1250 4750 2034 4750 
z
" transform="scale(0.015625)"/>
       </defs>
       <use xlink:href="#DejaVuSans-30"/>
      </g>
     </g>
    </g>
    <g id="xtick_2">
     <g id="line2d_2">
      <g>
       <use xlink:href="#mc74f61fcfc" x="127.977862" y="390.04" style="stroke: #000000; stroke-width: 0.8"/>
      </g>
     </g>
     <g id="text_2">
      <!-- 25000 -->
      <g transform="translate(112.071612 404.638438)scale(0.1 -0.1)">
       <defs>
        <path id="DejaVuSans-32" d="M 1228 531 
L 3431 531 
L 3431 0 
L 469 0 
L 469 531 
Q 828 903 1448 1529 
Q 2069 2156 2228 2338 
Q 2531 2678 2651 2914 
Q 2772 3150 2772 3378 
Q 2772 3750 2511 3984 
Q 2250 4219 1831 4219 
Q 1534 4219 1204 4116 
Q 875 4013 500 3803 
L 500 4441 
Q 881 4594 1212 4672 
Q 1544 4750 1819 4750 
Q 2544 4750 2975 4387 
Q 3406 4025 3406 3419 
Q 3406 3131 3298 2873 
Q 3191 2616 2906 2266 
Q 2828 2175 2409 1742 
Q 1991 1309 1228 531 
z
" transform="scale(0.015625)"/>
        <path id="DejaVuSans-35" d="M 691 4666 
L 3169 4666 
L 3169 4134 
L 1269 4134 
L 1269 2991 
Q 1406 3038 1543 3061 
Q 1681 3084 1819 3084 
Q 2600 3084 3056 2656 
Q 3513 2228 3513 1497 
Q 3513 744 3044 326 
Q 2575 -91 1722 -91 
Q 1428 -91 1123 -41 
Q 819 9 494 109 
L 494 744 
Q 775 591 1075 516 
Q 1375 441 1709 441 
Q 2250 441 2565 725 
Q 2881 1009 2881 1497 
Q 2881 1984 2565 2268 
Q 2250 2553 1709 2553 
Q 1456 2553 1204 2497 
Q 953 2441 691 2322 
L 691 4666 
z
" transform="scale(0.015625)"/>
       </defs>
       <use xlink:href="#DejaVuSans-32"/>
       <use xlink:href="#DejaVuSans-35" x="63.623047"/>
       <use xlink:href="#DejaVuSans-30" x="127.246094"/>
       <use xlink:href="#DejaVuSans-30" x="190.869141"/>
       <use xlink:href="#DejaVuSans-30" x="254.492188"/>
      </g>
     </g>
    </g>
    <g id="xtick_3">
     <g id="line2d_3">
      <g>
       <use xlink:href="#mc74f61fcfc" x="187.077908" y="390.04" style="stroke: #000000; stroke-width: 0.8"/>
      </g>
     </g>
     <g id="text_3">
      <!-- 50000 -->
      <g transform="translate(171.171658 404.638438)scale(0.1 -0.1)">
       <use xlink:href="#DejaVuSans-35"/>
       <use xlink:href="#DejaVuSans-30" x="63.623047"/>
       <use xlink:href="#DejaVuSans-30" x="127.246094"/>
       <use xlink:href="#DejaVuSans-30" x="190.869141"/>
       <use xlink:href="#DejaVuSans-30" x="254.492188"/>
      </g>
     </g>
    </g>
    <g id="xtick_4">
     <g id="line2d_4">
      <g>
       <use xlink:href="#mc74f61fcfc" x="246.177953" y="390.04" style="stroke: #000000; stroke-width: 0.8"/>
      </g>
     </g>
     <g id="text_4">
      <!-- 75000 -->
      <g transform="translate(230.271703 404.638438)scale(0.1 -0.1)">
       <defs>
        <path id="DejaVuSans-37" d="M 525 4666 
L 3525 4666 
L 3525 4397 
L 1831 0 
L 1172 0 
L 2766 4134 
L 525 4134 
L 525 4666 
z
" transform="scale(0.015625)"/>
       </defs>
       <use xlink:href="#DejaVuSans-37"/>
       <use xlink:href="#DejaVuSans-35" x="63.623047"/>
       <use xlink:href="#DejaVuSans-30" x="127.246094"/>
       <use xlink:href="#DejaVuSans-30" x="190.869141"/>
       <use xlink:href="#DejaVuSans-30" x="254.492188"/>
      </g>
     </g>
    </g>
    <g id="xtick_5">
     <g id="line2d_5">
      <g>
       <use xlink:href="#mc74f61fcfc" x="305.277999" y="390.04" style="stroke: #000000; stroke-width: 0.8"/>
      </g>
     </g>
     <g id="text_5">
      <!-- 100000 -->
      <g transform="translate(286.190499 404.638438)scale(0.1 -0.1)">
       <defs>
        <path id="DejaVuSans-31" d="M 794 531 
L 1825 531 
L 1825 4091 
L 703 3866 
L 703 4441 
L 1819 4666 
L 2450 4666 
L 2450 531 
L 3481 531 
L 3481 0 
L 794 0 
L 794 531 
z
" transform="scale(0.015625)"/>
       </defs>
       <use xlink:href="#DejaVuSans-31"/>
       <use xlink:href="#DejaVuSans-30" x="63.623047"/>
       <use xlink:href="#DejaVuSans-30" x="127.246094"/>
       <use xlink:href="#DejaVuSans-30" x="190.869141"/>
       <use xlink:href="#DejaVuSans-30" x="254.492188"/>
       <use xlink:href="#DejaVuSans-30" x="318.115234"/>
      </g>
     </g>
    </g>
    <g id="xtick_6">
     <g id="line2d_6">
      <g>
       <use xlink:href="#mc74f61fcfc" x="364.378045" y="390.04" style="stroke: #000000; stroke-width: 0.8"/>
      </g>
     </g>
     <g id="text_6">
      <!-- 125000 -->
      <g transform="translate(345.290545 404.638438)scale(0.1 -0.1)">
       <use xlink:href="#DejaVuSans-31"/>
       <use xlink:href="#DejaVuSans-32" x="63.623047"/>
       <use xlink:href="#DejaVuSans-35" x="127.246094"/>
       <use xlink:href="#DejaVuSans-30" x="190.869141"/>
       <use xlink:href="#DejaVuSans-30" x="254.492188"/>
       <use xlink:href="#DejaVuSans-30" x="318.115234"/>
      </g>
     </g>
    </g>
    <g id="xtick_7">
     <g id="line2d_7">
      <g>
       <use xlink:href="#mc74f61fcfc" x="423.47809" y="390.04" style="stroke: #000000; stroke-width: 0.8"/>
      </g>
     </g>
     <g id="text_7">
      <!-- 150000 -->
      <g transform="translate(404.39059 404.638438)scale(0.1 -0.1)">
       <use xlink:href="#DejaVuSans-31"/>
       <use xlink:href="#DejaVuSans-35" x="63.623047"/>
       <use xlink:href="#DejaVuSans-30" x="127.246094"/>
       <use xlink:href="#DejaVuSans-30" x="190.869141"/>
       <use xlink:href="#DejaVuSans-30" x="254.492188"/>
       <use xlink:href="#DejaVuSans-30" x="318.115234"/>
      </g>
     </g>
    </g>
    <g id="xtick_8">
     <g id="line2d_8">
      <g>
       <use xlink:href="#mc74f61fcfc" x="482.578136" y="390.04" style="stroke: #000000; stroke-width: 0.8"/>
      </g>
     </g>
     <g id="text_8">
      <!-- 175000 -->
      <g transform="translate(463.490636 404.638438)scale(0.1 -0.1)">
       <use xlink:href="#DejaVuSans-31"/>
       <use xlink:href="#DejaVuSans-37" x="63.623047"/>
       <use xlink:href="#DejaVuSans-35" x="127.246094"/>
       <use xlink:href="#DejaVuSans-30" x="190.869141"/>
       <use xlink:href="#DejaVuSans-30" x="254.492188"/>
       <use xlink:href="#DejaVuSans-30" x="318.115234"/>
      </g>
     </g>
    </g>
    <g id="xtick_9">
     <g id="line2d_9">
      <g>
       <use xlink:href="#mc74f61fcfc" x="541.678182" y="390.04" style="stroke: #000000; stroke-width: 0.8"/>
      </g>
     </g>
     <g id="text_9">
      <!-- 200000 -->
      <g transform="translate(522.590682 404.638438)scale(0.1 -0.1)">
       <use xlink:href="#DejaVuSans-32"/>
       <use xlink:href="#DejaVuSans-30" x="63.623047"/>
       <use xlink:href="#DejaVuSans-30" x="127.246094"/>
       <use xlink:href="#DejaVuSans-30" x="190.869141"/>
       <use xlink:href="#DejaVuSans-30" x="254.492188"/>
       <use xlink:href="#DejaVuSans-30" x="318.115234"/>
      </g>
     </g>
    </g>
    <g id="text_10">
     <!-- Size (#edges) -->
     <g transform="translate(271.409219 418.316562)scale(0.1 -0.1)">
      <defs>
       <path id="DejaVuSans-53" d="M 3425 4513 
L 3425 3897 
Q 3066 4069 2747 4153 
Q 2428 4238 2131 4238 
Q 1616 4238 1336 4038 
Q 1056 3838 1056 3469 
Q 1056 3159 1242 3001 
Q 1428 2844 1947 2747 
L 2328 2669 
Q 3034 2534 3370 2195 
Q 3706 1856 3706 1288 
Q 3706 609 3251 259 
Q 2797 -91 1919 -91 
Q 1588 -91 1214 -16 
Q 841 59 441 206 
L 441 856 
Q 825 641 1194 531 
Q 1563 422 1919 422 
Q 2459 422 2753 634 
Q 3047 847 3047 1241 
Q 3047 1584 2836 1778 
Q 2625 1972 2144 2069 
L 1759 2144 
Q 1053 2284 737 2584 
Q 422 2884 422 3419 
Q 422 4038 858 4394 
Q 1294 4750 2059 4750 
Q 2388 4750 2728 4690 
Q 3069 4631 3425 4513 
z
" transform="scale(0.015625)"/>
       <path id="DejaVuSans-69" d="M 603 3500 
L 1178 3500 
L 1178 0 
L 603 0 
L 603 3500 
z
M 603 4863 
L 1178 4863 
L 1178 4134 
L 603 4134 
L 603 4863 
z
" transform="scale(0.015625)"/>
       <path id="DejaVuSans-7a" d="M 353 3500 
L 3084 3500 
L 3084 2975 
L 922 459 
L 3084 459 
L 3084 0 
L 275 0 
L 275 525 
L 2438 3041 
L 353 3041 
L 353 3500 
z
" transform="scale(0.015625)"/>
       <path id="DejaVuSans-65" d="M 3597 1894 
L 3597 1613 
L 953 1613 
Q 991 1019 1311 708 
Q 1631 397 2203 397 
Q 2534 397 2845 478 
Q 3156 559 3463 722 
L 3463 178 
Q 3153 47 2828 -22 
Q 2503 -91 2169 -91 
Q 1331 -91 842 396 
Q 353 884 353 1716 
Q 353 2575 817 3079 
Q 1281 3584 2069 3584 
Q 2775 3584 3186 3129 
Q 3597 2675 3597 1894 
z
M 3022 2063 
Q 3016 2534 2758 2815 
Q 2500 3097 2075 3097 
Q 1594 3097 1305 2825 
Q 1016 2553 972 2059 
L 3022 2063 
z
" transform="scale(0.015625)"/>
       <path id="DejaVuSans-20" transform="scale(0.015625)"/>
       <path id="DejaVuSans-28" d="M 1984 4856 
Q 1566 4138 1362 3434 
Q 1159 2731 1159 2009 
Q 1159 1288 1364 580 
Q 1569 -128 1984 -844 
L 1484 -844 
Q 1016 -109 783 600 
Q 550 1309 550 2009 
Q 550 2706 781 3412 
Q 1013 4119 1484 4856 
L 1984 4856 
z
" transform="scale(0.015625)"/>
       <path id="DejaVuSans-23" d="M 3272 2816 
L 2363 2816 
L 2100 1772 
L 3016 1772 
L 3272 2816 
z
M 2803 4594 
L 2478 3297 
L 3391 3297 
L 3719 4594 
L 4219 4594 
L 3897 3297 
L 4872 3297 
L 4872 2816 
L 3775 2816 
L 3519 1772 
L 4513 1772 
L 4513 1294 
L 3397 1294 
L 3072 0 
L 2572 0 
L 2894 1294 
L 1978 1294 
L 1656 0 
L 1153 0 
L 1478 1294 
L 494 1294 
L 494 1772 
L 1594 1772 
L 1856 2816 
L 850 2816 
L 850 3297 
L 1978 3297 
L 2297 4594 
L 2803 4594 
z
" transform="scale(0.015625)"/>
       <path id="DejaVuSans-64" d="M 2906 2969 
L 2906 4863 
L 3481 4863 
L 3481 0 
L 2906 0 
L 2906 525 
Q 2725 213 2448 61 
Q 2172 -91 1784 -91 
Q 1150 -91 751 415 
Q 353 922 353 1747 
Q 353 2572 751 3078 
Q 1150 3584 1784 3584 
Q 2172 3584 2448 3432 
Q 2725 3281 2906 2969 
z
M 947 1747 
Q 947 1113 1208 752 
Q 1469 391 1925 391 
Q 2381 391 2643 752 
Q 2906 1113 2906 1747 
Q 2906 2381 2643 2742 
Q 2381 3103 1925 3103 
Q 1469 3103 1208 2742 
Q 947 2381 947 1747 
z
" transform="scale(0.015625)"/>
       <path id="DejaVuSans-67" d="M 2906 1791 
Q 2906 2416 2648 2759 
Q 2391 3103 1925 3103 
Q 1463 3103 1205 2759 
Q 947 2416 947 1791 
Q 947 1169 1205 825 
Q 1463 481 1925 481 
Q 2391 481 2648 825 
Q 2906 1169 2906 1791 
z
M 3481 434 
Q 3481 -459 3084 -895 
Q 2688 -1331 1869 -1331 
Q 1566 -1331 1297 -1286 
Q 1028 -1241 775 -1147 
L 775 -588 
Q 1028 -725 1275 -790 
Q 1522 -856 1778 -856 
Q 2344 -856 2625 -561 
Q 2906 -266 2906 331 
L 2906 616 
Q 2728 306 2450 153 
Q 2172 0 1784 0 
Q 1141 0 747 490 
Q 353 981 353 1791 
Q 353 2603 747 3093 
Q 1141 3584 1784 3584 
Q 2172 3584 2450 3431 
Q 2728 3278 2906 2969 
L 2906 3500 
L 3481 3500 
L 3481 434 
z
" transform="scale(0.015625)"/>
       <path id="DejaVuSans-73" d="M 2834 3397 
L 2834 2853 
Q 2591 2978 2328 3040 
Q 2066 3103 1784 3103 
Q 1356 3103 1142 2972 
Q 928 2841 928 2578 
Q 928 2378 1081 2264 
Q 1234 2150 1697 2047 
L 1894 2003 
Q 2506 1872 2764 1633 
Q 3022 1394 3022 966 
Q 3022 478 2636 193 
Q 2250 -91 1575 -91 
Q 1294 -91 989 -36 
Q 684 19 347 128 
L 347 722 
Q 666 556 975 473 
Q 1284 391 1588 391 
Q 1994 391 2212 530 
Q 2431 669 2431 922 
Q 2431 1156 2273 1281 
Q 2116 1406 1581 1522 
L 1381 1569 
Q 847 1681 609 1914 
Q 372 2147 372 2553 
Q 372 3047 722 3315 
Q 1072 3584 1716 3584 
Q 2034 3584 2315 3537 
Q 2597 3491 2834 3397 
z
" transform="scale(0.015625)"/>
       <path id="DejaVuSans-29" d="M 513 4856 
L 1013 4856 
Q 1481 4119 1714 3412 
Q 1947 2706 1947 2009 
Q 1947 1309 1714 600 
Q 1481 -109 1013 -844 
L 513 -844 
Q 928 -128 1133 580 
Q 1338 1288 1338 2009 
Q 1338 2731 1133 3434 
Q 928 4138 513 4856 
z
" transform="scale(0.015625)"/>
      </defs>
      <use xlink:href="#DejaVuSans-53"/>
      <use xlink:href="#DejaVuSans-69" x="63.476562"/>
      <use xlink:href="#DejaVuSans-7a" x="91.259766"/>
      <use xlink:href="#DejaVuSans-65" x="143.75"/>
      <use xlink:href="#DejaVuSans-20" x="205.273438"/>
      <use xlink:href="#DejaVuSans-28" x="237.060547"/>
      <use xlink:href="#DejaVuSans-23" x="276.074219"/>
      <use xlink:href="#DejaVuSans-65" x="359.863281"/>
      <use xlink:href="#DejaVuSans-64" x="421.386719"/>
      <use xlink:href="#DejaVuSans-67" x="484.863281"/>
      <use xlink:href="#DejaVuSans-65" x="548.339844"/>
      <use xlink:href="#DejaVuSans-73" x="609.863281"/>
      <use xlink:href="#DejaVuSans-29" x="661.962891"/>
     </g>
    </g>
   </g>
   <g id="matplotlib.axis_2">
    <g id="ytick_1">
     <g id="line2d_10">
      <defs>
       <path id="m7eb1c47a8f" d="M 0 0 
L -3.5 0 
" style="stroke: #000000; stroke-width: 0.8"/>
      </defs>
      <g>
       <use xlink:href="#m7eb1c47a8f" x="47.72" y="374.770711" style="stroke: #000000; stroke-width: 0.8"/>
      </g>
     </g>
     <g id="text_11">
      <!-- 0.0 -->
      <g transform="translate(24.816875 378.56993)scale(0.1 -0.1)">
       <defs>
        <path id="DejaVuSans-2e" d="M 684 794 
L 1344 794 
L 1344 0 
L 684 0 
L 684 794 
z
" transform="scale(0.015625)"/>
       </defs>
       <use xlink:href="#DejaVuSans-30"/>
       <use xlink:href="#DejaVuSans-2e" x="63.623047"/>
       <use xlink:href="#DejaVuSans-30" x="95.410156"/>
      </g>
     </g>
    </g>
    <g id="ytick_2">
     <g id="line2d_11">
      <g>
       <use xlink:href="#m7eb1c47a8f" x="47.72" y="296.615161" style="stroke: #000000; stroke-width: 0.8"/>
      </g>
     </g>
     <g id="text_12">
      <!-- 0.1 -->
      <g transform="translate(24.816875 300.41438)scale(0.1 -0.1)">
       <use xlink:href="#DejaVuSans-30"/>
       <use xlink:href="#DejaVuSans-2e" x="63.623047"/>
       <use xlink:href="#DejaVuSans-31" x="95.410156"/>
      </g>
     </g>
    </g>
    <g id="ytick_3">
     <g id="line2d_12">
      <g>
       <use xlink:href="#m7eb1c47a8f" x="47.72" y="218.459612" style="stroke: #000000; stroke-width: 0.8"/>
      </g>
     </g>
     <g id="text_13">
      <!-- 0.2 -->
      <g transform="translate(24.816875 222.258831)scale(0.1 -0.1)">
       <use xlink:href="#DejaVuSans-30"/>
       <use xlink:href="#DejaVuSans-2e" x="63.623047"/>
       <use xlink:href="#DejaVuSans-32" x="95.410156"/>
      </g>
     </g>
    </g>
    <g id="ytick_4">
     <g id="line2d_13">
      <g>
       <use xlink:href="#m7eb1c47a8f" x="47.72" y="140.304062" style="stroke: #000000; stroke-width: 0.8"/>
      </g>
     </g>
     <g id="text_14">
      <!-- 0.3 -->
      <g transform="translate(24.816875 144.103281)scale(0.1 -0.1)">
       <defs>
        <path id="DejaVuSans-33" d="M 2597 2516 
Q 3050 2419 3304 2112 
Q 3559 1806 3559 1356 
Q 3559 666 3084 287 
Q 2609 -91 1734 -91 
Q 1441 -91 1130 -33 
Q 819 25 488 141 
L 488 750 
Q 750 597 1062 519 
Q 1375 441 1716 441 
Q 2309 441 2620 675 
Q 2931 909 2931 1356 
Q 2931 1769 2642 2001 
Q 2353 2234 1838 2234 
L 1294 2234 
L 1294 2753 
L 1863 2753 
Q 2328 2753 2575 2939 
Q 2822 3125 2822 3475 
Q 2822 3834 2567 4026 
Q 2313 4219 1838 4219 
Q 1578 4219 1281 4162 
Q 984 4106 628 3988 
L 628 4550 
Q 988 4650 1302 4700 
Q 1616 4750 1894 4750 
Q 2613 4750 3031 4423 
Q 3450 4097 3450 3541 
Q 3450 3153 3228 2886 
Q 3006 2619 2597 2516 
z
" transform="scale(0.015625)"/>
       </defs>
       <use xlink:href="#DejaVuSans-30"/>
       <use xlink:href="#DejaVuSans-2e" x="63.623047"/>
       <use xlink:href="#DejaVuSans-33" x="95.410156"/>
      </g>
     </g>
    </g>
    <g id="ytick_5">
     <g id="line2d_14">
      <g>
       <use xlink:href="#m7eb1c47a8f" x="47.72" y="62.148512" style="stroke: #000000; stroke-width: 0.8"/>
      </g>
     </g>
     <g id="text_15">
      <!-- 0.4 -->
      <g transform="translate(24.816875 65.947731)scale(0.1 -0.1)">
       <defs>
        <path id="DejaVuSans-34" d="M 2419 4116 
L 825 1625 
L 2419 1625 
L 2419 4116 
z
M 2253 4666 
L 3047 4666 
L 3047 1625 
L 3713 1625 
L 3713 1100 
L 3047 1100 
L 3047 0 
L 2419 0 
L 2419 1100 
L 313 1100 
L 313 1709 
L 2253 4666 
z
" transform="scale(0.015625)"/>
       </defs>
       <use xlink:href="#DejaVuSans-30"/>
       <use xlink:href="#DejaVuSans-2e" x="63.623047"/>
       <use xlink:href="#DejaVuSans-34" x="95.410156"/>
      </g>
     </g>
    </g>
    <g id="text_16">
     <!-- Seconds spent -->
     <g transform="translate(18.737187 245.040469)rotate(-90)scale(0.1 -0.1)">
      <defs>
       <path id="DejaVuSans-63" d="M 3122 3366 
L 3122 2828 
Q 2878 2963 2633 3030 
Q 2388 3097 2138 3097 
Q 1578 3097 1268 2742 
Q 959 2388 959 1747 
Q 959 1106 1268 751 
Q 1578 397 2138 397 
Q 2388 397 2633 464 
Q 2878 531 3122 666 
L 3122 134 
Q 2881 22 2623 -34 
Q 2366 -91 2075 -91 
Q 1284 -91 818 406 
Q 353 903 353 1747 
Q 353 2603 823 3093 
Q 1294 3584 2113 3584 
Q 2378 3584 2631 3529 
Q 2884 3475 3122 3366 
z
" transform="scale(0.015625)"/>
       <path id="DejaVuSans-6f" d="M 1959 3097 
Q 1497 3097 1228 2736 
Q 959 2375 959 1747 
Q 959 1119 1226 758 
Q 1494 397 1959 397 
Q 2419 397 2687 759 
Q 2956 1122 2956 1747 
Q 2956 2369 2687 2733 
Q 2419 3097 1959 3097 
z
M 1959 3584 
Q 2709 3584 3137 3096 
Q 3566 2609 3566 1747 
Q 3566 888 3137 398 
Q 2709 -91 1959 -91 
Q 1206 -91 779 398 
Q 353 888 353 1747 
Q 353 2609 779 3096 
Q 1206 3584 1959 3584 
z
" transform="scale(0.015625)"/>
       <path id="DejaVuSans-6e" d="M 3513 2113 
L 3513 0 
L 2938 0 
L 2938 2094 
Q 2938 2591 2744 2837 
Q 2550 3084 2163 3084 
Q 1697 3084 1428 2787 
Q 1159 2491 1159 1978 
L 1159 0 
L 581 0 
L 581 3500 
L 1159 3500 
L 1159 2956 
Q 1366 3272 1645 3428 
Q 1925 3584 2291 3584 
Q 2894 3584 3203 3211 
Q 3513 2838 3513 2113 
z
" transform="scale(0.015625)"/>
       <path id="DejaVuSans-70" d="M 1159 525 
L 1159 -1331 
L 581 -1331 
L 581 3500 
L 1159 3500 
L 1159 2969 
Q 1341 3281 1617 3432 
Q 1894 3584 2278 3584 
Q 2916 3584 3314 3078 
Q 3713 2572 3713 1747 
Q 3713 922 3314 415 
Q 2916 -91 2278 -91 
Q 1894 -91 1617 61 
Q 1341 213 1159 525 
z
M 3116 1747 
Q 3116 2381 2855 2742 
Q 2594 3103 2138 3103 
Q 1681 3103 1420 2742 
Q 1159 2381 1159 1747 
Q 1159 1113 1420 752 
Q 1681 391 2138 391 
Q 2594 391 2855 752 
Q 3116 1113 3116 1747 
z
" transform="scale(0.015625)"/>
       <path id="DejaVuSans-74" d="M 1172 4494 
L 1172 3500 
L 2356 3500 
L 2356 3053 
L 1172 3053 
L 1172 1153 
Q 1172 725 1289 603 
Q 1406 481 1766 481 
L 2356 481 
L 2356 0 
L 1766 0 
Q 1100 0 847 248 
Q 594 497 594 1153 
L 594 3053 
L 172 3053 
L 172 3500 
L 594 3500 
L 594 4494 
L 1172 4494 
z
" transform="scale(0.015625)"/>
      </defs>
      <use xlink:href="#DejaVuSans-53"/>
      <use xlink:href="#DejaVuSans-65" x="63.476562"/>
      <use xlink:href="#DejaVuSans-63" x="125"/>
      <use xlink:href="#DejaVuSans-6f" x="179.980469"/>
      <use xlink:href="#DejaVuSans-6e" x="241.162109"/>
      <use xlink:href="#DejaVuSans-64" x="304.541016"/>
      <use xlink:href="#DejaVuSans-73" x="368.017578"/>
      <use xlink:href="#DejaVuSans-20" x="420.117188"/>
      <use xlink:href="#DejaVuSans-73" x="451.904297"/>
      <use xlink:href="#DejaVuSans-70" x="504.003906"/>
      <use xlink:href="#DejaVuSans-65" x="567.480469"/>
      <use xlink:href="#DejaVuSans-6e" x="629.003906"/>
      <use xlink:href="#DejaVuSans-74" x="692.382812"/>
     </g>
    </g>
   </g>
   <g id="LineCollection_1">
    <path d="M 71.241818 373.532727 
L 71.241818 373.517096 
" clip-path="url(#p4f77a58086)" style="fill: none; stroke: #1f77b4; stroke-width: 1.5"/>
    <path d="M 73.60582 373.221668 
L 73.60582 372.243161 
" clip-path="url(#p4f77a58086)" style="fill: none; stroke: #1f77b4; stroke-width: 1.5"/>
    <path d="M 75.969822 372.598768 
L 75.969822 372.435423 
" clip-path="url(#p4f77a58086)" style="fill: none; stroke: #1f77b4; stroke-width: 1.5"/>
    <path d="M 78.333824 371.907873 
L 78.333824 371.560081 
" clip-path="url(#p4f77a58086)" style="fill: none; stroke: #1f77b4; stroke-width: 1.5"/>
    <path d="M 80.697825 371.354532 
L 80.697825 370.95672 
" clip-path="url(#p4f77a58086)" style="fill: none; stroke: #1f77b4; stroke-width: 1.5"/>
    <path d="M 83.061827 370.110296 
L 83.061827 369.98681 
" clip-path="url(#p4f77a58086)" style="fill: none; stroke: #1f77b4; stroke-width: 1.5"/>
    <path d="M 85.425829 369.786732 
L 85.425829 369.524129 
" clip-path="url(#p4f77a58086)" style="fill: none; stroke: #1f77b4; stroke-width: 1.5"/>
    <path d="M 87.789831 369.015337 
L 87.789831 368.727724 
" clip-path="url(#p4f77a58086)" style="fill: none; stroke: #1f77b4; stroke-width: 1.5"/>
    <path d="M 90.153833 368.501073 
L 90.153833 368.049334 
" clip-path="url(#p4f77a58086)" style="fill: none; stroke: #1f77b4; stroke-width: 1.5"/>
    <path d="M 92.517835 367.803144 
L 92.517835 363.754686 
" clip-path="url(#p4f77a58086)" style="fill: none; stroke: #1f77b4; stroke-width: 1.5"/>
    <path d="M 116.157853 359.951637 
L 116.157853 359.625729 
" clip-path="url(#p4f77a58086)" style="fill: none; stroke: #1f77b4; stroke-width: 1.5"/>
    <path d="M 139.797871 352.730065 
L 139.797871 352.608142 
" clip-path="url(#p4f77a58086)" style="fill: none; stroke: #1f77b4; stroke-width: 1.5"/>
    <path d="M 163.437889 344.640184 
L 163.437889 343.961793 
" clip-path="url(#p4f77a58086)" style="fill: none; stroke: #1f77b4; stroke-width: 1.5"/>
    <path d="M 187.077908 335.590553 
L 187.077908 334.948114 
" clip-path="url(#p4f77a58086)" style="fill: none; stroke: #1f77b4; stroke-width: 1.5"/>
    <path d="M 210.717926 326.224391 
L 210.717926 324.7113 
" clip-path="url(#p4f77a58086)" style="fill: none; stroke: #1f77b4; stroke-width: 1.5"/>
    <path d="M 234.357944 315.480348 
L 234.357944 314.958269 
" clip-path="url(#p4f77a58086)" style="fill: none; stroke: #1f77b4; stroke-width: 1.5"/>
    <path d="M 257.997963 303.19664 
L 257.997963 302.476828 
" clip-path="url(#p4f77a58086)" style="fill: none; stroke: #1f77b4; stroke-width: 1.5"/>
    <path d="M 281.637981 289.807813 
L 281.637981 287.513166 
" clip-path="url(#p4f77a58086)" style="fill: none; stroke: #1f77b4; stroke-width: 1.5"/>
    <path d="M 305.277999 273.127856 
L 305.277999 271.70308 
" clip-path="url(#p4f77a58086)" style="fill: none; stroke: #1f77b4; stroke-width: 1.5"/>
    <path d="M 364.378045 232.465086 
L 364.378045 228.24156 
" clip-path="url(#p4f77a58086)" style="fill: none; stroke: #1f77b4; stroke-width: 1.5"/>
    <path d="M 423.47809 182.903526 
L 423.47809 176.276717 
" clip-path="url(#p4f77a58086)" style="fill: none; stroke: #1f77b4; stroke-width: 1.5"/>
    <path d="M 482.578136 121.255992 
L 482.578136 119.380258 
" clip-path="url(#p4f77a58086)" style="fill: none; stroke: #1f77b4; stroke-width: 1.5"/>
    <path d="M 541.678182 44.710446 
L 541.678182 43.387273 
" clip-path="url(#p4f77a58086)" style="fill: none; stroke: #1f77b4; stroke-width: 1.5"/>
   </g>
   <g id="line2d_15">
    <defs>
     <path id="md8547b9e7e" d="M 3 0 
L -3 -0 
" style="stroke: #1f77b4"/>
    </defs>
    <g clip-path="url(#p4f77a58086)">
     <use xlink:href="#md8547b9e7e" x="71.241818" y="373.532727" style="fill: #1f77b4; stroke: #1f77b4"/>
     <use xlink:href="#md8547b9e7e" x="73.60582" y="373.221668" style="fill: #1f77b4; stroke: #1f77b4"/>
     <use xlink:href="#md8547b9e7e" x="75.969822" y="372.598768" style="fill: #1f77b4; stroke: #1f77b4"/>
     <use xlink:href="#md8547b9e7e" x="78.333824" y="371.907873" style="fill: #1f77b4; stroke: #1f77b4"/>
     <use xlink:href="#md8547b9e7e" x="80.697825" y="371.354532" style="fill: #1f77b4; stroke: #1f77b4"/>
     <use xlink:href="#md8547b9e7e" x="83.061827" y="370.110296" style="fill: #1f77b4; stroke: #1f77b4"/>
     <use xlink:href="#md8547b9e7e" x="85.425829" y="369.786732" style="fill: #1f77b4; stroke: #1f77b4"/>
     <use xlink:href="#md8547b9e7e" x="87.789831" y="369.015337" style="fill: #1f77b4; stroke: #1f77b4"/>
     <use xlink:href="#md8547b9e7e" x="90.153833" y="368.501073" style="fill: #1f77b4; stroke: #1f77b4"/>
     <use xlink:href="#md8547b9e7e" x="92.517835" y="367.803144" style="fill: #1f77b4; stroke: #1f77b4"/>
     <use xlink:href="#md8547b9e7e" x="116.157853" y="359.951637" style="fill: #1f77b4; stroke: #1f77b4"/>
     <use xlink:href="#md8547b9e7e" x="139.797871" y="352.730065" style="fill: #1f77b4; stroke: #1f77b4"/>
     <use xlink:href="#md8547b9e7e" x="163.437889" y="344.640184" style="fill: #1f77b4; stroke: #1f77b4"/>
     <use xlink:href="#md8547b9e7e" x="187.077908" y="335.590553" style="fill: #1f77b4; stroke: #1f77b4"/>
     <use xlink:href="#md8547b9e7e" x="210.717926" y="326.224391" style="fill: #1f77b4; stroke: #1f77b4"/>
     <use xlink:href="#md8547b9e7e" x="234.357944" y="315.480348" style="fill: #1f77b4; stroke: #1f77b4"/>
     <use xlink:href="#md8547b9e7e" x="257.997963" y="303.19664" style="fill: #1f77b4; stroke: #1f77b4"/>
     <use xlink:href="#md8547b9e7e" x="281.637981" y="289.807813" style="fill: #1f77b4; stroke: #1f77b4"/>
     <use xlink:href="#md8547b9e7e" x="305.277999" y="273.127856" style="fill: #1f77b4; stroke: #1f77b4"/>
     <use xlink:href="#md8547b9e7e" x="364.378045" y="232.465086" style="fill: #1f77b4; stroke: #1f77b4"/>
     <use xlink:href="#md8547b9e7e" x="423.47809" y="182.903526" style="fill: #1f77b4; stroke: #1f77b4"/>
     <use xlink:href="#md8547b9e7e" x="482.578136" y="121.255992" style="fill: #1f77b4; stroke: #1f77b4"/>
     <use xlink:href="#md8547b9e7e" x="541.678182" y="44.710446" style="fill: #1f77b4; stroke: #1f77b4"/>
    </g>
   </g>
   <g id="line2d_16">
    <g clip-path="url(#p4f77a58086)">
     <use xlink:href="#md8547b9e7e" x="71.241818" y="373.517096" style="fill: #1f77b4; stroke: #1f77b4"/>
     <use xlink:href="#md8547b9e7e" x="73.60582" y="372.243161" style="fill: #1f77b4; stroke: #1f77b4"/>
     <use xlink:href="#md8547b9e7e" x="75.969822" y="372.435423" style="fill: #1f77b4; stroke: #1f77b4"/>
     <use xlink:href="#md8547b9e7e" x="78.333824" y="371.560081" style="fill: #1f77b4; stroke: #1f77b4"/>
     <use xlink:href="#md8547b9e7e" x="80.697825" y="370.95672" style="fill: #1f77b4; stroke: #1f77b4"/>
     <use xlink:href="#md8547b9e7e" x="83.061827" y="369.98681" style="fill: #1f77b4; stroke: #1f77b4"/>
     <use xlink:href="#md8547b9e7e" x="85.425829" y="369.524129" style="fill: #1f77b4; stroke: #1f77b4"/>
     <use xlink:href="#md8547b9e7e" x="87.789831" y="368.727724" style="fill: #1f77b4; stroke: #1f77b4"/>
     <use xlink:href="#md8547b9e7e" x="90.153833" y="368.049334" style="fill: #1f77b4; stroke: #1f77b4"/>
     <use xlink:href="#md8547b9e7e" x="92.517835" y="363.754686" style="fill: #1f77b4; stroke: #1f77b4"/>
     <use xlink:href="#md8547b9e7e" x="116.157853" y="359.625729" style="fill: #1f77b4; stroke: #1f77b4"/>
     <use xlink:href="#md8547b9e7e" x="139.797871" y="352.608142" style="fill: #1f77b4; stroke: #1f77b4"/>
     <use xlink:href="#md8547b9e7e" x="163.437889" y="343.961793" style="fill: #1f77b4; stroke: #1f77b4"/>
     <use xlink:href="#md8547b9e7e" x="187.077908" y="334.948114" style="fill: #1f77b4; stroke: #1f77b4"/>
     <use xlink:href="#md8547b9e7e" x="210.717926" y="324.7113" style="fill: #1f77b4; stroke: #1f77b4"/>
     <use xlink:href="#md8547b9e7e" x="234.357944" y="314.958269" style="fill: #1f77b4; stroke: #1f77b4"/>
     <use xlink:href="#md8547b9e7e" x="257.997963" y="302.476828" style="fill: #1f77b4; stroke: #1f77b4"/>
     <use xlink:href="#md8547b9e7e" x="281.637981" y="287.513166" style="fill: #1f77b4; stroke: #1f77b4"/>
     <use xlink:href="#md8547b9e7e" x="305.277999" y="271.70308" style="fill: #1f77b4; stroke: #1f77b4"/>
     <use xlink:href="#md8547b9e7e" x="364.378045" y="228.24156" style="fill: #1f77b4; stroke: #1f77b4"/>
     <use xlink:href="#md8547b9e7e" x="423.47809" y="176.276717" style="fill: #1f77b4; stroke: #1f77b4"/>
     <use xlink:href="#md8547b9e7e" x="482.578136" y="119.380258" style="fill: #1f77b4; stroke: #1f77b4"/>
     <use xlink:href="#md8547b9e7e" x="541.678182" y="43.387273" style="fill: #1f77b4; stroke: #1f77b4"/>
    </g>
   </g>
   <g id="LineCollection_2">
    <path d="M 71.241818 372.404161 
L 71.241818 372.028233 
" clip-path="url(#p4f77a58086)" style="fill: none; stroke: #ff7f0e; stroke-width: 1.5"/>
    <path d="M 73.60582 371.109124 
L 73.60582 368.320534 
" clip-path="url(#p4f77a58086)" style="fill: none; stroke: #ff7f0e; stroke-width: 1.5"/>
    <path d="M 75.969822 367.660901 
L 75.969822 361.378758 
" clip-path="url(#p4f77a58086)" style="fill: none; stroke: #ff7f0e; stroke-width: 1.5"/>
    <path d="M 78.333824 368.333039 
L 78.333824 367.176336 
" clip-path="url(#p4f77a58086)" style="fill: none; stroke: #ff7f0e; stroke-width: 1.5"/>
    <path d="M 80.697825 367.387356 
L 80.697825 365.940697 
" clip-path="url(#p4f77a58086)" style="fill: none; stroke: #ff7f0e; stroke-width: 1.5"/>
    <path d="M 83.061827 365.918032 
L 83.061827 365.336555 
" clip-path="url(#p4f77a58086)" style="fill: none; stroke: #ff7f0e; stroke-width: 1.5"/>
    <path d="M 85.425829 366.286145 
L 85.425829 363.331865 
" clip-path="url(#p4f77a58086)" style="fill: none; stroke: #ff7f0e; stroke-width: 1.5"/>
    <path d="M 87.789831 364.342416 
L 87.789831 363.120845 
" clip-path="url(#p4f77a58086)" style="fill: none; stroke: #ff7f0e; stroke-width: 1.5"/>
    <path d="M 90.153833 362.927019 
L 90.153833 362.366644 
" clip-path="url(#p4f77a58086)" style="fill: none; stroke: #ff7f0e; stroke-width: 1.5"/>
    <path d="M 92.517835 360.643314 
L 92.517835 359.793763 
" clip-path="url(#p4f77a58086)" style="fill: none; stroke: #ff7f0e; stroke-width: 1.5"/>
    <path d="M 116.157853 359.353747 
L 116.157853 357.480359 
" clip-path="url(#p4f77a58086)" style="fill: none; stroke: #ff7f0e; stroke-width: 1.5"/>
    <path d="M 139.797871 357.68669 
L 139.797871 353.816427 
" clip-path="url(#p4f77a58086)" style="fill: none; stroke: #ff7f0e; stroke-width: 1.5"/>
    <path d="M 163.437889 356.154841 
L 163.437889 355.074731 
" clip-path="url(#p4f77a58086)" style="fill: none; stroke: #ff7f0e; stroke-width: 1.5"/>
    <path d="M 187.077908 356.400249 
L 187.077908 356.012598 
" clip-path="url(#p4f77a58086)" style="fill: none; stroke: #ff7f0e; stroke-width: 1.5"/>
    <path d="M 210.717926 356.615177 
L 210.717926 355.172426 
" clip-path="url(#p4f77a58086)" style="fill: none; stroke: #ff7f0e; stroke-width: 1.5"/>
    <path d="M 234.357944 353.374848 
L 234.357944 350.97938 
" clip-path="url(#p4f77a58086)" style="fill: none; stroke: #ff7f0e; stroke-width: 1.5"/>
    <path d="M 257.997963 353.209158 
L 257.997963 352.54171 
" clip-path="url(#p4f77a58086)" style="fill: none; stroke: #ff7f0e; stroke-width: 1.5"/>
    <path d="M 281.637981 351.527251 
L 281.637981 350.296301 
" clip-path="url(#p4f77a58086)" style="fill: none; stroke: #ff7f0e; stroke-width: 1.5"/>
    <path d="M 305.277999 348.742568 
L 305.277999 346.762107 
" clip-path="url(#p4f77a58086)" style="fill: none; stroke: #ff7f0e; stroke-width: 1.5"/>
    <path d="M 364.378045 340.326779 
L 364.378045 339.967263 
" clip-path="url(#p4f77a58086)" style="fill: none; stroke: #ff7f0e; stroke-width: 1.5"/>
    <path d="M 423.47809 329.931309 
L 423.47809 327.32404 
" clip-path="url(#p4f77a58086)" style="fill: none; stroke: #ff7f0e; stroke-width: 1.5"/>
    <path d="M 482.578136 318.504968 
L 482.578136 315.130211 
" clip-path="url(#p4f77a58086)" style="fill: none; stroke: #ff7f0e; stroke-width: 1.5"/>
    <path d="M 541.678182 300.936382 
L 541.678182 297.687456 
" clip-path="url(#p4f77a58086)" style="fill: none; stroke: #ff7f0e; stroke-width: 1.5"/>
   </g>
   <g id="line2d_17">
    <defs>
     <path id="m7f04267d81" d="M 3 0 
L -3 -0 
" style="stroke: #ff7f0e"/>
    </defs>
    <g clip-path="url(#p4f77a58086)">
     <use xlink:href="#m7f04267d81" x="71.241818" y="372.404161" style="fill: #ff7f0e; stroke: #ff7f0e"/>
     <use xlink:href="#m7f04267d81" x="73.60582" y="371.109124" style="fill: #ff7f0e; stroke: #ff7f0e"/>
     <use xlink:href="#m7f04267d81" x="75.969822" y="367.660901" style="fill: #ff7f0e; stroke: #ff7f0e"/>
     <use xlink:href="#m7f04267d81" x="78.333824" y="368.333039" style="fill: #ff7f0e; stroke: #ff7f0e"/>
     <use xlink:href="#m7f04267d81" x="80.697825" y="367.387356" style="fill: #ff7f0e; stroke: #ff7f0e"/>
     <use xlink:href="#m7f04267d81" x="83.061827" y="365.918032" style="fill: #ff7f0e; stroke: #ff7f0e"/>
     <use xlink:href="#m7f04267d81" x="85.425829" y="366.286145" style="fill: #ff7f0e; stroke: #ff7f0e"/>
     <use xlink:href="#m7f04267d81" x="87.789831" y="364.342416" style="fill: #ff7f0e; stroke: #ff7f0e"/>
     <use xlink:href="#m7f04267d81" x="90.153833" y="362.927019" style="fill: #ff7f0e; stroke: #ff7f0e"/>
     <use xlink:href="#m7f04267d81" x="92.517835" y="360.643314" style="fill: #ff7f0e; stroke: #ff7f0e"/>
     <use xlink:href="#m7f04267d81" x="116.157853" y="359.353747" style="fill: #ff7f0e; stroke: #ff7f0e"/>
     <use xlink:href="#m7f04267d81" x="139.797871" y="357.68669" style="fill: #ff7f0e; stroke: #ff7f0e"/>
     <use xlink:href="#m7f04267d81" x="163.437889" y="356.154841" style="fill: #ff7f0e; stroke: #ff7f0e"/>
     <use xlink:href="#m7f04267d81" x="187.077908" y="356.400249" style="fill: #ff7f0e; stroke: #ff7f0e"/>
     <use xlink:href="#m7f04267d81" x="210.717926" y="356.615177" style="fill: #ff7f0e; stroke: #ff7f0e"/>
     <use xlink:href="#m7f04267d81" x="234.357944" y="353.374848" style="fill: #ff7f0e; stroke: #ff7f0e"/>
     <use xlink:href="#m7f04267d81" x="257.997963" y="353.209158" style="fill: #ff7f0e; stroke: #ff7f0e"/>
     <use xlink:href="#m7f04267d81" x="281.637981" y="351.527251" style="fill: #ff7f0e; stroke: #ff7f0e"/>
     <use xlink:href="#m7f04267d81" x="305.277999" y="348.742568" style="fill: #ff7f0e; stroke: #ff7f0e"/>
     <use xlink:href="#m7f04267d81" x="364.378045" y="340.326779" style="fill: #ff7f0e; stroke: #ff7f0e"/>
     <use xlink:href="#m7f04267d81" x="423.47809" y="329.931309" style="fill: #ff7f0e; stroke: #ff7f0e"/>
     <use xlink:href="#m7f04267d81" x="482.578136" y="318.504968" style="fill: #ff7f0e; stroke: #ff7f0e"/>
     <use xlink:href="#m7f04267d81" x="541.678182" y="300.936382" style="fill: #ff7f0e; stroke: #ff7f0e"/>
    </g>
   </g>
   <g id="line2d_18">
    <g clip-path="url(#p4f77a58086)">
     <use xlink:href="#m7f04267d81" x="71.241818" y="372.028233" style="fill: #ff7f0e; stroke: #ff7f0e"/>
     <use xlink:href="#m7f04267d81" x="73.60582" y="368.320534" style="fill: #ff7f0e; stroke: #ff7f0e"/>
     <use xlink:href="#m7f04267d81" x="75.969822" y="361.378758" style="fill: #ff7f0e; stroke: #ff7f0e"/>
     <use xlink:href="#m7f04267d81" x="78.333824" y="367.176336" style="fill: #ff7f0e; stroke: #ff7f0e"/>
     <use xlink:href="#m7f04267d81" x="80.697825" y="365.940697" style="fill: #ff7f0e; stroke: #ff7f0e"/>
     <use xlink:href="#m7f04267d81" x="83.061827" y="365.336555" style="fill: #ff7f0e; stroke: #ff7f0e"/>
     <use xlink:href="#m7f04267d81" x="85.425829" y="363.331865" style="fill: #ff7f0e; stroke: #ff7f0e"/>
     <use xlink:href="#m7f04267d81" x="87.789831" y="363.120845" style="fill: #ff7f0e; stroke: #ff7f0e"/>
     <use xlink:href="#m7f04267d81" x="90.153833" y="362.366644" style="fill: #ff7f0e; stroke: #ff7f0e"/>
     <use xlink:href="#m7f04267d81" x="92.517835" y="359.793763" style="fill: #ff7f0e; stroke: #ff7f0e"/>
     <use xlink:href="#m7f04267d81" x="116.157853" y="357.480359" style="fill: #ff7f0e; stroke: #ff7f0e"/>
     <use xlink:href="#m7f04267d81" x="139.797871" y="353.816427" style="fill: #ff7f0e; stroke: #ff7f0e"/>
     <use xlink:href="#m7f04267d81" x="163.437889" y="355.074731" style="fill: #ff7f0e; stroke: #ff7f0e"/>
     <use xlink:href="#m7f04267d81" x="187.077908" y="356.012598" style="fill: #ff7f0e; stroke: #ff7f0e"/>
     <use xlink:href="#m7f04267d81" x="210.717926" y="355.172426" style="fill: #ff7f0e; stroke: #ff7f0e"/>
     <use xlink:href="#m7f04267d81" x="234.357944" y="350.97938" style="fill: #ff7f0e; stroke: #ff7f0e"/>
     <use xlink:href="#m7f04267d81" x="257.997963" y="352.54171" style="fill: #ff7f0e; stroke: #ff7f0e"/>
     <use xlink:href="#m7f04267d81" x="281.637981" y="350.296301" style="fill: #ff7f0e; stroke: #ff7f0e"/>
     <use xlink:href="#m7f04267d81" x="305.277999" y="346.762107" style="fill: #ff7f0e; stroke: #ff7f0e"/>
     <use xlink:href="#m7f04267d81" x="364.378045" y="339.967263" style="fill: #ff7f0e; stroke: #ff7f0e"/>
     <use xlink:href="#m7f04267d81" x="423.47809" y="327.32404" style="fill: #ff7f0e; stroke: #ff7f0e"/>
     <use xlink:href="#m7f04267d81" x="482.578136" y="315.130211" style="fill: #ff7f0e; stroke: #ff7f0e"/>
     <use xlink:href="#m7f04267d81" x="541.678182" y="297.687456" style="fill: #ff7f0e; stroke: #ff7f0e"/>
    </g>
   </g>
   <g id="LineCollection_3">
    <path d="M 71.241818 373.467858 
L 71.241818 373.394392 
" clip-path="url(#p4f77a58086)" style="fill: none; stroke: #2ca02c; stroke-width: 1.5"/>
    <path d="M 73.60582 373.057542 
L 73.60582 371.746091 
" clip-path="url(#p4f77a58086)" style="fill: none; stroke: #2ca02c; stroke-width: 1.5"/>
    <path d="M 75.969822 372.275986 
L 75.969822 372.209554 
" clip-path="url(#p4f77a58086)" style="fill: none; stroke: #2ca02c; stroke-width: 1.5"/>
    <path d="M 78.333824 371.999315 
L 78.333824 370.129835 
" clip-path="url(#p4f77a58086)" style="fill: none; stroke: #2ca02c; stroke-width: 1.5"/>
    <path d="M 80.697825 370.813696 
L 80.697825 368.229092 
" clip-path="url(#p4f77a58086)" style="fill: none; stroke: #2ca02c; stroke-width: 1.5"/>
    <path d="M 83.061827 370.537807 
L 83.061827 367.7711 
" clip-path="url(#p4f77a58086)" style="fill: none; stroke: #2ca02c; stroke-width: 1.5"/>
    <path d="M 85.425829 370.055587 
L 85.425829 369.517877 
" clip-path="url(#p4f77a58086)" style="fill: none; stroke: #2ca02c; stroke-width: 1.5"/>
    <path d="M 87.789831 369.549139 
L 87.789831 369.068482 
" clip-path="url(#p4f77a58086)" style="fill: none; stroke: #2ca02c; stroke-width: 1.5"/>
    <path d="M 90.153833 369.094274 
L 90.153833 367.306075 
" clip-path="url(#p4f77a58086)" style="fill: none; stroke: #2ca02c; stroke-width: 1.5"/>
    <path d="M 92.517835 368.973133 
L 92.517835 368.749608 
" clip-path="url(#p4f77a58086)" style="fill: none; stroke: #2ca02c; stroke-width: 1.5"/>
    <path d="M 116.157853 365.361565 
L 116.157853 364.211896 
" clip-path="url(#p4f77a58086)" style="fill: none; stroke: #2ca02c; stroke-width: 1.5"/>
    <path d="M 139.797871 362.577664 
L 139.797871 361.8219 
" clip-path="url(#p4f77a58086)" style="fill: none; stroke: #2ca02c; stroke-width: 1.5"/>
    <path d="M 163.437889 359.585088 
L 163.437889 359.237296 
" clip-path="url(#p4f77a58086)" style="fill: none; stroke: #2ca02c; stroke-width: 1.5"/>
    <path d="M 187.077908 355.989151 
L 187.077908 350.865273 
" clip-path="url(#p4f77a58086)" style="fill: none; stroke: #2ca02c; stroke-width: 1.5"/>
    <path d="M 210.717926 353.024711 
L 210.717926 352.898881 
" clip-path="url(#p4f77a58086)" style="fill: none; stroke: #2ca02c; stroke-width: 1.5"/>
    <path d="M 234.357944 349.515527 
L 234.357944 347.542099 
" clip-path="url(#p4f77a58086)" style="fill: none; stroke: #2ca02c; stroke-width: 1.5"/>
    <path d="M 257.997963 345.803138 
L 257.997963 344.48778 
" clip-path="url(#p4f77a58086)" style="fill: none; stroke: #2ca02c; stroke-width: 1.5"/>
    <path d="M 281.637981 341.689812 
L 281.637981 340.064958 
" clip-path="url(#p4f77a58086)" style="fill: none; stroke: #2ca02c; stroke-width: 1.5"/>
    <path d="M 305.277999 336.22752 
L 305.277999 335.647606 
" clip-path="url(#p4f77a58086)" style="fill: none; stroke: #2ca02c; stroke-width: 1.5"/>
    <path d="M 364.378045 325.476443 
L 364.378045 314.150141 
" clip-path="url(#p4f77a58086)" style="fill: none; stroke: #2ca02c; stroke-width: 1.5"/>
    <path d="M 423.47809 309.228686 
L 423.47809 308.290038 
" clip-path="url(#p4f77a58086)" style="fill: none; stroke: #2ca02c; stroke-width: 1.5"/>
    <path d="M 482.578136 292.38382 
L 482.578136 287.382646 
" clip-path="url(#p4f77a58086)" style="fill: none; stroke: #2ca02c; stroke-width: 1.5"/>
    <path d="M 541.678182 276.174359 
L 541.678182 273.077836 
" clip-path="url(#p4f77a58086)" style="fill: none; stroke: #2ca02c; stroke-width: 1.5"/>
   </g>
   <g id="line2d_19">
    <defs>
     <path id="mf3fc7103a7" d="M 3 0 
L -3 -0 
" style="stroke: #2ca02c"/>
    </defs>
    <g clip-path="url(#p4f77a58086)">
     <use xlink:href="#mf3fc7103a7" x="71.241818" y="373.467858" style="fill: #2ca02c; stroke: #2ca02c"/>
     <use xlink:href="#mf3fc7103a7" x="73.60582" y="373.057542" style="fill: #2ca02c; stroke: #2ca02c"/>
     <use xlink:href="#mf3fc7103a7" x="75.969822" y="372.275986" style="fill: #2ca02c; stroke: #2ca02c"/>
     <use xlink:href="#mf3fc7103a7" x="78.333824" y="371.999315" style="fill: #2ca02c; stroke: #2ca02c"/>
     <use xlink:href="#mf3fc7103a7" x="80.697825" y="370.813696" style="fill: #2ca02c; stroke: #2ca02c"/>
     <use xlink:href="#mf3fc7103a7" x="83.061827" y="370.537807" style="fill: #2ca02c; stroke: #2ca02c"/>
     <use xlink:href="#mf3fc7103a7" x="85.425829" y="370.055587" style="fill: #2ca02c; stroke: #2ca02c"/>
     <use xlink:href="#mf3fc7103a7" x="87.789831" y="369.549139" style="fill: #2ca02c; stroke: #2ca02c"/>
     <use xlink:href="#mf3fc7103a7" x="90.153833" y="369.094274" style="fill: #2ca02c; stroke: #2ca02c"/>
     <use xlink:href="#mf3fc7103a7" x="92.517835" y="368.973133" style="fill: #2ca02c; stroke: #2ca02c"/>
     <use xlink:href="#mf3fc7103a7" x="116.157853" y="365.361565" style="fill: #2ca02c; stroke: #2ca02c"/>
     <use xlink:href="#mf3fc7103a7" x="139.797871" y="362.577664" style="fill: #2ca02c; stroke: #2ca02c"/>
     <use xlink:href="#mf3fc7103a7" x="163.437889" y="359.585088" style="fill: #2ca02c; stroke: #2ca02c"/>
     <use xlink:href="#mf3fc7103a7" x="187.077908" y="355.989151" style="fill: #2ca02c; stroke: #2ca02c"/>
     <use xlink:href="#mf3fc7103a7" x="210.717926" y="353.024711" style="fill: #2ca02c; stroke: #2ca02c"/>
     <use xlink:href="#mf3fc7103a7" x="234.357944" y="349.515527" style="fill: #2ca02c; stroke: #2ca02c"/>
     <use xlink:href="#mf3fc7103a7" x="257.997963" y="345.803138" style="fill: #2ca02c; stroke: #2ca02c"/>
     <use xlink:href="#mf3fc7103a7" x="281.637981" y="341.689812" style="fill: #2ca02c; stroke: #2ca02c"/>
     <use xlink:href="#mf3fc7103a7" x="305.277999" y="336.22752" style="fill: #2ca02c; stroke: #2ca02c"/>
     <use xlink:href="#mf3fc7103a7" x="364.378045" y="325.476443" style="fill: #2ca02c; stroke: #2ca02c"/>
     <use xlink:href="#mf3fc7103a7" x="423.47809" y="309.228686" style="fill: #2ca02c; stroke: #2ca02c"/>
     <use xlink:href="#mf3fc7103a7" x="482.578136" y="292.38382" style="fill: #2ca02c; stroke: #2ca02c"/>
     <use xlink:href="#mf3fc7103a7" x="541.678182" y="276.174359" style="fill: #2ca02c; stroke: #2ca02c"/>
    </g>
   </g>
   <g id="line2d_20">
    <g clip-path="url(#p4f77a58086)">
     <use xlink:href="#mf3fc7103a7" x="71.241818" y="373.394392" style="fill: #2ca02c; stroke: #2ca02c"/>
     <use xlink:href="#mf3fc7103a7" x="73.60582" y="371.746091" style="fill: #2ca02c; stroke: #2ca02c"/>
     <use xlink:href="#mf3fc7103a7" x="75.969822" y="372.209554" style="fill: #2ca02c; stroke: #2ca02c"/>
     <use xlink:href="#mf3fc7103a7" x="78.333824" y="370.129835" style="fill: #2ca02c; stroke: #2ca02c"/>
     <use xlink:href="#mf3fc7103a7" x="80.697825" y="368.229092" style="fill: #2ca02c; stroke: #2ca02c"/>
     <use xlink:href="#mf3fc7103a7" x="83.061827" y="367.7711" style="fill: #2ca02c; stroke: #2ca02c"/>
     <use xlink:href="#mf3fc7103a7" x="85.425829" y="369.517877" style="fill: #2ca02c; stroke: #2ca02c"/>
     <use xlink:href="#mf3fc7103a7" x="87.789831" y="369.068482" style="fill: #2ca02c; stroke: #2ca02c"/>
     <use xlink:href="#mf3fc7103a7" x="90.153833" y="367.306075" style="fill: #2ca02c; stroke: #2ca02c"/>
     <use xlink:href="#mf3fc7103a7" x="92.517835" y="368.749608" style="fill: #2ca02c; stroke: #2ca02c"/>
     <use xlink:href="#mf3fc7103a7" x="116.157853" y="364.211896" style="fill: #2ca02c; stroke: #2ca02c"/>
     <use xlink:href="#mf3fc7103a7" x="139.797871" y="361.8219" style="fill: #2ca02c; stroke: #2ca02c"/>
     <use xlink:href="#mf3fc7103a7" x="163.437889" y="359.237296" style="fill: #2ca02c; stroke: #2ca02c"/>
     <use xlink:href="#mf3fc7103a7" x="187.077908" y="350.865273" style="fill: #2ca02c; stroke: #2ca02c"/>
     <use xlink:href="#mf3fc7103a7" x="210.717926" y="352.898881" style="fill: #2ca02c; stroke: #2ca02c"/>
     <use xlink:href="#mf3fc7103a7" x="234.357944" y="347.542099" style="fill: #2ca02c; stroke: #2ca02c"/>
     <use xlink:href="#mf3fc7103a7" x="257.997963" y="344.48778" style="fill: #2ca02c; stroke: #2ca02c"/>
     <use xlink:href="#mf3fc7103a7" x="281.637981" y="340.064958" style="fill: #2ca02c; stroke: #2ca02c"/>
     <use xlink:href="#mf3fc7103a7" x="305.277999" y="335.647606" style="fill: #2ca02c; stroke: #2ca02c"/>
     <use xlink:href="#mf3fc7103a7" x="364.378045" y="314.150141" style="fill: #2ca02c; stroke: #2ca02c"/>
     <use xlink:href="#mf3fc7103a7" x="423.47809" y="308.290038" style="fill: #2ca02c; stroke: #2ca02c"/>
     <use xlink:href="#mf3fc7103a7" x="482.578136" y="287.382646" style="fill: #2ca02c; stroke: #2ca02c"/>
     <use xlink:href="#mf3fc7103a7" x="541.678182" y="273.077836" style="fill: #2ca02c; stroke: #2ca02c"/>
    </g>
   </g>
   <g id="line2d_21">
    <path d="M 71.241818 373.524912 
L 73.60582 372.586264 
L 75.969822 372.542496 
L 78.333824 371.785951 
L 80.697825 371.111468 
L 83.061827 370.030577 
L 85.425829 369.682785 
L 87.789831 368.892632 
L 90.153833 368.339291 
L 92.517835 366.422135 
L 116.157853 359.829715 
L 139.797871 352.660506 
L 163.437889 344.325217 
L 187.077908 335.24276 
L 210.717926 325.529589 
L 234.357944 315.135682 
L 257.997963 302.785542 
L 281.637981 289.009845 
L 305.277999 272.569044 
L 364.378045 230.579193 
L 423.47809 180.144635 
L 482.578136 120.103197 
L 541.678182 43.892939 
" clip-path="url(#p4f77a58086)" style="fill: none; stroke: #1f77b4; stroke-width: 1.5; stroke-linecap: square"/>
   </g>
   <g id="line2d_22">
    <path d="M 71.241818 372.25801 
L 73.60582 369.305294 
L 75.969822 365.490521 
L 78.333824 367.898494 
L 80.697825 366.748044 
L 83.061827 365.655429 
L 85.425829 365.230263 
L 87.789831 363.763284 
L 90.153833 362.71131 
L 92.517835 360.200954 
L 116.157853 358.329128 
L 139.797871 356.166564 
L 163.437889 355.635888 
L 187.077908 356.237686 
L 210.717926 355.944602 
L 234.357944 352.369768 
L 257.997963 352.871526 
L 281.637981 350.807438 
L 305.277999 347.643701 
L 364.378045 340.118104 
L 423.47809 328.948894 
L 482.578136 317.112236 
L 541.678182 299.832044 
" clip-path="url(#p4f77a58086)" style="fill: none; stroke: #ff7f0e; stroke-width: 1.5; stroke-linecap: square"/>
   </g>
   <g id="line2d_23">
    <path d="M 71.241818 373.425654 
L 73.60582 372.188452 
L 75.969822 372.247068 
L 78.333824 371.352187 
L 80.697825 369.889116 
L 83.061827 369.51944 
L 85.425829 369.714047 
L 87.789831 369.36391 
L 90.153833 368.420573 
L 92.517835 368.881691 
L 116.157853 364.887942 
L 139.797871 362.236906 
L 163.437889 359.39517 
L 187.077908 354.161874 
L 210.717926 352.956716 
L 234.357944 348.818379 
L 257.997963 345.298253 
L 281.637981 341.114587 
L 305.277999 335.966481 
L 364.378045 321.34983 
L 423.47809 308.865262 
L 482.578136 290.648767 
L 541.678182 274.869161 
" clip-path="url(#p4f77a58086)" style="fill: none; stroke: #2ca02c; stroke-width: 1.5; stroke-linecap: square"/>
   </g>
   <g id="patch_3">
    <path d="M 47.72 390.04 
L 47.72 26.88 
" style="fill: none; stroke: #000000; stroke-width: 0.8; stroke-linejoin: miter; stroke-linecap: square"/>
   </g>
   <g id="patch_4">
    <path d="M 565.2 390.04 
L 565.2 26.88 
" style="fill: none; stroke: #000000; stroke-width: 0.8; stroke-linejoin: miter; stroke-linecap: square"/>
   </g>
   <g id="patch_5">
    <path d="M 47.72 390.04 
L 565.2 390.04 
" style="fill: none; stroke: #000000; stroke-width: 0.8; stroke-linejoin: miter; stroke-linecap: square"/>
   </g>
   <g id="patch_6">
    <path d="M 47.72 26.88 
L 565.2 26.88 
" style="fill: none; stroke: #000000; stroke-width: 0.8; stroke-linejoin: miter; stroke-linecap: square"/>
   </g>
   <g id="text_17">
    <!-- Java implementations of Bron-Kerbosch on a random graph of order 10k -->
    <g transform="translate(47.72 20.88)scale(0.12 -0.12)">
     <defs>
      <path id="DejaVuSans-4a" d="M 628 4666 
L 1259 4666 
L 1259 325 
Q 1259 -519 939 -900 
Q 619 -1281 -91 -1281 
L -331 -1281 
L -331 -750 
L -134 -750 
Q 284 -750 456 -515 
Q 628 -281 628 325 
L 628 4666 
z
" transform="scale(0.015625)"/>
      <path id="DejaVuSans-61" d="M 2194 1759 
Q 1497 1759 1228 1600 
Q 959 1441 959 1056 
Q 959 750 1161 570 
Q 1363 391 1709 391 
Q 2188 391 2477 730 
Q 2766 1069 2766 1631 
L 2766 1759 
L 2194 1759 
z
M 3341 1997 
L 3341 0 
L 2766 0 
L 2766 531 
Q 2569 213 2275 61 
Q 1981 -91 1556 -91 
Q 1019 -91 701 211 
Q 384 513 384 1019 
Q 384 1609 779 1909 
Q 1175 2209 1959 2209 
L 2766 2209 
L 2766 2266 
Q 2766 2663 2505 2880 
Q 2244 3097 1772 3097 
Q 1472 3097 1187 3025 
Q 903 2953 641 2809 
L 641 3341 
Q 956 3463 1253 3523 
Q 1550 3584 1831 3584 
Q 2591 3584 2966 3190 
Q 3341 2797 3341 1997 
z
" transform="scale(0.015625)"/>
      <path id="DejaVuSans-76" d="M 191 3500 
L 800 3500 
L 1894 563 
L 2988 3500 
L 3597 3500 
L 2284 0 
L 1503 0 
L 191 3500 
z
" transform="scale(0.015625)"/>
      <path id="DejaVuSans-6d" d="M 3328 2828 
Q 3544 3216 3844 3400 
Q 4144 3584 4550 3584 
Q 5097 3584 5394 3201 
Q 5691 2819 5691 2113 
L 5691 0 
L 5113 0 
L 5113 2094 
Q 5113 2597 4934 2840 
Q 4756 3084 4391 3084 
Q 3944 3084 3684 2787 
Q 3425 2491 3425 1978 
L 3425 0 
L 2847 0 
L 2847 2094 
Q 2847 2600 2669 2842 
Q 2491 3084 2119 3084 
Q 1678 3084 1418 2786 
Q 1159 2488 1159 1978 
L 1159 0 
L 581 0 
L 581 3500 
L 1159 3500 
L 1159 2956 
Q 1356 3278 1631 3431 
Q 1906 3584 2284 3584 
Q 2666 3584 2933 3390 
Q 3200 3197 3328 2828 
z
" transform="scale(0.015625)"/>
      <path id="DejaVuSans-6c" d="M 603 4863 
L 1178 4863 
L 1178 0 
L 603 0 
L 603 4863 
z
" transform="scale(0.015625)"/>
      <path id="DejaVuSans-66" d="M 2375 4863 
L 2375 4384 
L 1825 4384 
Q 1516 4384 1395 4259 
Q 1275 4134 1275 3809 
L 1275 3500 
L 2222 3500 
L 2222 3053 
L 1275 3053 
L 1275 0 
L 697 0 
L 697 3053 
L 147 3053 
L 147 3500 
L 697 3500 
L 697 3744 
Q 697 4328 969 4595 
Q 1241 4863 1831 4863 
L 2375 4863 
z
" transform="scale(0.015625)"/>
      <path id="DejaVuSans-42" d="M 1259 2228 
L 1259 519 
L 2272 519 
Q 2781 519 3026 730 
Q 3272 941 3272 1375 
Q 3272 1813 3026 2020 
Q 2781 2228 2272 2228 
L 1259 2228 
z
M 1259 4147 
L 1259 2741 
L 2194 2741 
Q 2656 2741 2882 2914 
Q 3109 3088 3109 3444 
Q 3109 3797 2882 3972 
Q 2656 4147 2194 4147 
L 1259 4147 
z
M 628 4666 
L 2241 4666 
Q 2963 4666 3353 4366 
Q 3744 4066 3744 3513 
Q 3744 3084 3544 2831 
Q 3344 2578 2956 2516 
Q 3422 2416 3680 2098 
Q 3938 1781 3938 1306 
Q 3938 681 3513 340 
Q 3088 0 2303 0 
L 628 0 
L 628 4666 
z
" transform="scale(0.015625)"/>
      <path id="DejaVuSans-72" d="M 2631 2963 
Q 2534 3019 2420 3045 
Q 2306 3072 2169 3072 
Q 1681 3072 1420 2755 
Q 1159 2438 1159 1844 
L 1159 0 
L 581 0 
L 581 3500 
L 1159 3500 
L 1159 2956 
Q 1341 3275 1631 3429 
Q 1922 3584 2338 3584 
Q 2397 3584 2469 3576 
Q 2541 3569 2628 3553 
L 2631 2963 
z
" transform="scale(0.015625)"/>
      <path id="DejaVuSans-2d" d="M 313 2009 
L 1997 2009 
L 1997 1497 
L 313 1497 
L 313 2009 
z
" transform="scale(0.015625)"/>
      <path id="DejaVuSans-4b" d="M 628 4666 
L 1259 4666 
L 1259 2694 
L 3353 4666 
L 4166 4666 
L 1850 2491 
L 4331 0 
L 3500 0 
L 1259 2247 
L 1259 0 
L 628 0 
L 628 4666 
z
" transform="scale(0.015625)"/>
      <path id="DejaVuSans-62" d="M 3116 1747 
Q 3116 2381 2855 2742 
Q 2594 3103 2138 3103 
Q 1681 3103 1420 2742 
Q 1159 2381 1159 1747 
Q 1159 1113 1420 752 
Q 1681 391 2138 391 
Q 2594 391 2855 752 
Q 3116 1113 3116 1747 
z
M 1159 2969 
Q 1341 3281 1617 3432 
Q 1894 3584 2278 3584 
Q 2916 3584 3314 3078 
Q 3713 2572 3713 1747 
Q 3713 922 3314 415 
Q 2916 -91 2278 -91 
Q 1894 -91 1617 61 
Q 1341 213 1159 525 
L 1159 0 
L 581 0 
L 581 4863 
L 1159 4863 
L 1159 2969 
z
" transform="scale(0.015625)"/>
      <path id="DejaVuSans-68" d="M 3513 2113 
L 3513 0 
L 2938 0 
L 2938 2094 
Q 2938 2591 2744 2837 
Q 2550 3084 2163 3084 
Q 1697 3084 1428 2787 
Q 1159 2491 1159 1978 
L 1159 0 
L 581 0 
L 581 4863 
L 1159 4863 
L 1159 2956 
Q 1366 3272 1645 3428 
Q 1925 3584 2291 3584 
Q 2894 3584 3203 3211 
Q 3513 2838 3513 2113 
z
" transform="scale(0.015625)"/>
      <path id="DejaVuSans-6b" d="M 581 4863 
L 1159 4863 
L 1159 1991 
L 2875 3500 
L 3609 3500 
L 1753 1863 
L 3688 0 
L 2938 0 
L 1159 1709 
L 1159 0 
L 581 0 
L 581 4863 
z
" transform="scale(0.015625)"/>
     </defs>
     <use xlink:href="#DejaVuSans-4a"/>
     <use xlink:href="#DejaVuSans-61" x="29.492188"/>
     <use xlink:href="#DejaVuSans-76" x="90.771484"/>
     <use xlink:href="#DejaVuSans-61" x="149.951172"/>
     <use xlink:href="#DejaVuSans-20" x="211.230469"/>
     <use xlink:href="#DejaVuSans-69" x="243.017578"/>
     <use xlink:href="#DejaVuSans-6d" x="270.800781"/>
     <use xlink:href="#DejaVuSans-70" x="368.212891"/>
     <use xlink:href="#DejaVuSans-6c" x="431.689453"/>
     <use xlink:href="#DejaVuSans-65" x="459.472656"/>
     <use xlink:href="#DejaVuSans-6d" x="520.996094"/>
     <use xlink:href="#DejaVuSans-65" x="618.408203"/>
     <use xlink:href="#DejaVuSans-6e" x="679.931641"/>
     <use xlink:href="#DejaVuSans-74" x="743.310547"/>
     <use xlink:href="#DejaVuSans-61" x="782.519531"/>
     <use xlink:href="#DejaVuSans-74" x="843.798828"/>
     <use xlink:href="#DejaVuSans-69" x="883.007812"/>
     <use xlink:href="#DejaVuSans-6f" x="910.791016"/>
     <use xlink:href="#DejaVuSans-6e" x="971.972656"/>
     <use xlink:href="#DejaVuSans-73" x="1035.351562"/>
     <use xlink:href="#DejaVuSans-20" x="1087.451172"/>
     <use xlink:href="#DejaVuSans-6f" x="1119.238281"/>
     <use xlink:href="#DejaVuSans-66" x="1180.419922"/>
     <use xlink:href="#DejaVuSans-20" x="1215.625"/>
     <use xlink:href="#DejaVuSans-42" x="1247.412109"/>
     <use xlink:href="#DejaVuSans-72" x="1316.015625"/>
     <use xlink:href="#DejaVuSans-6f" x="1354.878906"/>
     <use xlink:href="#DejaVuSans-6e" x="1416.060547"/>
     <use xlink:href="#DejaVuSans-2d" x="1479.439453"/>
     <use xlink:href="#DejaVuSans-4b" x="1515.523438"/>
     <use xlink:href="#DejaVuSans-65" x="1576.099609"/>
     <use xlink:href="#DejaVuSans-72" x="1637.623047"/>
     <use xlink:href="#DejaVuSans-62" x="1678.736328"/>
     <use xlink:href="#DejaVuSans-6f" x="1742.212891"/>
     <use xlink:href="#DejaVuSans-73" x="1803.394531"/>
     <use xlink:href="#DejaVuSans-63" x="1855.494141"/>
     <use xlink:href="#DejaVuSans-68" x="1910.474609"/>
     <use xlink:href="#DejaVuSans-20" x="1973.853516"/>
     <use xlink:href="#DejaVuSans-6f" x="2005.640625"/>
     <use xlink:href="#DejaVuSans-6e" x="2066.822266"/>
     <use xlink:href="#DejaVuSans-20" x="2130.201172"/>
     <use xlink:href="#DejaVuSans-61" x="2161.988281"/>
     <use xlink:href="#DejaVuSans-20" x="2223.267578"/>
     <use xlink:href="#DejaVuSans-72" x="2255.054688"/>
     <use xlink:href="#DejaVuSans-61" x="2296.167969"/>
     <use xlink:href="#DejaVuSans-6e" x="2357.447266"/>
     <use xlink:href="#DejaVuSans-64" x="2420.826172"/>
     <use xlink:href="#DejaVuSans-6f" x="2484.302734"/>
     <use xlink:href="#DejaVuSans-6d" x="2545.484375"/>
     <use xlink:href="#DejaVuSans-20" x="2642.896484"/>
     <use xlink:href="#DejaVuSans-67" x="2674.683594"/>
     <use xlink:href="#DejaVuSans-72" x="2738.160156"/>
     <use xlink:href="#DejaVuSans-61" x="2779.273438"/>
     <use xlink:href="#DejaVuSans-70" x="2840.552734"/>
     <use xlink:href="#DejaVuSans-68" x="2904.029297"/>
     <use xlink:href="#DejaVuSans-20" x="2967.408203"/>
     <use xlink:href="#DejaVuSans-6f" x="2999.195312"/>
     <use xlink:href="#DejaVuSans-66" x="3060.376953"/>
     <use xlink:href="#DejaVuSans-20" x="3095.582031"/>
     <use xlink:href="#DejaVuSans-6f" x="3127.369141"/>
     <use xlink:href="#DejaVuSans-72" x="3188.550781"/>
     <use xlink:href="#DejaVuSans-64" x="3227.914062"/>
     <use xlink:href="#DejaVuSans-65" x="3291.390625"/>
     <use xlink:href="#DejaVuSans-72" x="3352.914062"/>
     <use xlink:href="#DejaVuSans-20" x="3394.027344"/>
     <use xlink:href="#DejaVuSans-31" x="3425.814453"/>
     <use xlink:href="#DejaVuSans-30" x="3489.4375"/>
     <use xlink:href="#DejaVuSans-6b" x="3553.060547"/>
    </g>
   </g>
   <g id="legend_1">
    <g id="patch_7">
     <path d="M 54.72 78.914375 
L 146.760625 78.914375 
Q 148.760625 78.914375 148.760625 76.914375 
L 148.760625 33.88 
Q 148.760625 31.88 146.760625 31.88 
L 54.72 31.88 
Q 52.72 31.88 52.72 33.88 
L 52.72 76.914375 
Q 52.72 78.914375 54.72 78.914375 
z
" style="fill: #ffffff; opacity: 0.8; stroke: #cccccc; stroke-linejoin: miter"/>
    </g>
    <g id="LineCollection_4">
     <path d="M 66.72 44.978437 
L 66.72 34.978437 
" style="fill: none; stroke: #1f77b4; stroke-width: 1.5"/>
    </g>
    <g id="line2d_24">
     <g>
      <use xlink:href="#md8547b9e7e" x="66.72" y="44.978437" style="fill: #1f77b4; stroke: #1f77b4"/>
     </g>
    </g>
    <g id="line2d_25">
     <g>
      <use xlink:href="#md8547b9e7e" x="66.72" y="34.978437" style="fill: #1f77b4; stroke: #1f77b4"/>
     </g>
    </g>
    <g id="line2d_26">
     <path d="M 56.72 39.978437 
L 76.72 39.978437 
" style="fill: none; stroke: #1f77b4; stroke-width: 1.5; stroke-linecap: square"/>
    </g>
    <g id="line2d_27"/>
    <g id="text_18">
     <!-- Ver3-GP -->
     <g transform="translate(84.72 43.478437)scale(0.1 -0.1)">
      <defs>
       <path id="DejaVuSans-56" d="M 1831 0 
L 50 4666 
L 709 4666 
L 2188 738 
L 3669 4666 
L 4325 4666 
L 2547 0 
L 1831 0 
z
" transform="scale(0.015625)"/>
       <path id="DejaVuSans-bd" d="M 488 2431 
L 1125 2431 
L 1125 4341 
L 428 4213 
L 428 4575 
L 1147 4697 
L 1575 4697 
L 1575 2431 
L 2216 2431 
L 2216 2088 
L 488 2088 
L 488 2431 
z
M 4470 332 
L 5795 332 
L 5795 -24 
L 3926 -24 
L 3926 319 
Q 4032 416 4229 591 
Q 5304 1544 5304 1838 
Q 5304 2044 5141 2170 
Q 4979 2297 4713 2297 
Q 4551 2297 4360 2242 
Q 4170 2188 3945 2079 
L 3945 2463 
Q 4185 2551 4393 2594 
Q 4601 2638 4779 2638 
Q 5232 2638 5504 2432 
Q 5776 2226 5776 1888 
Q 5776 1454 4741 566 
Q 4566 416 4470 332 
z
M 4309 4750 
L 4809 4750 
L 1896 -91 
L 1396 -91 
L 4309 4750 
z
" transform="scale(0.015625)"/>
       <path id="DejaVuSans-47" d="M 3809 666 
L 3809 1919 
L 2778 1919 
L 2778 2438 
L 4434 2438 
L 4434 434 
Q 4069 175 3628 42 
Q 3188 -91 2688 -91 
Q 1594 -91 976 548 
Q 359 1188 359 2328 
Q 359 3472 976 4111 
Q 1594 4750 2688 4750 
Q 3144 4750 3555 4637 
Q 3966 4525 4313 4306 
L 4313 3634 
Q 3963 3931 3569 4081 
Q 3175 4231 2741 4231 
Q 1884 4231 1454 3753 
Q 1025 3275 1025 2328 
Q 1025 1384 1454 906 
Q 1884 428 2741 428 
Q 3075 428 3337 486 
Q 3600 544 3809 666 
z
" transform="scale(0.015625)"/>
       <path id="DejaVuSans-50" d="M 1259 4147 
L 1259 2394 
L 2053 2394 
Q 2494 2394 2734 2622 
Q 2975 2850 2975 3272 
Q 2975 3691 2734 3919 
Q 2494 4147 2053 4147 
L 1259 4147 
z
M 628 4666 
L 2053 4666 
Q 2838 4666 3239 4311 
Q 3641 3956 3641 3272 
Q 3641 2581 3239 2228 
Q 2838 1875 2053 1875 
L 1259 1875 
L 1259 0 
L 628 0 
L 628 4666 
z
" transform="scale(0.015625)"/>
      </defs>
      <use xlink:href="#DejaVuSans-56"/>
      <use xlink:href="#DejaVuSans-65" x="60.658203"/>
      <use xlink:href="#DejaVuSans-72" x="122.181641"/>
      <use xlink:href="#DejaVuSans-33" x="163.294922"/>
      <use xlink:href="#DejaVuSans-bd" x="226.917969"/>
      <use xlink:href="#DejaVuSans-2d" x="323.841797"/>
      <use xlink:href="#DejaVuSans-47" x="363.550781"/>
      <use xlink:href="#DejaVuSans-50" x="441.041016"/>
     </g>
    </g>
    <g id="LineCollection_5">
     <path d="M 66.72 59.656563 
L 66.72 49.656563 
" style="fill: none; stroke: #ff7f0e; stroke-width: 1.5"/>
    </g>
    <g id="line2d_28">
     <g>
      <use xlink:href="#m7f04267d81" x="66.72" y="59.656563" style="fill: #ff7f0e; stroke: #ff7f0e"/>
     </g>
    </g>
    <g id="line2d_29">
     <g>
      <use xlink:href="#m7f04267d81" x="66.72" y="49.656563" style="fill: #ff7f0e; stroke: #ff7f0e"/>
     </g>
    </g>
    <g id="line2d_30">
     <path d="M 56.72 54.656563 
L 76.72 54.656563 
" style="fill: none; stroke: #ff7f0e; stroke-width: 1.5; stroke-linecap: square"/>
    </g>
    <g id="line2d_31"/>
    <g id="text_19">
     <!-- Ver3=GPc -->
     <g transform="translate(84.72 58.156563)scale(0.1 -0.1)">
      <defs>
       <path id="DejaVuSans-3d" d="M 678 2906 
L 4684 2906 
L 4684 2381 
L 678 2381 
L 678 2906 
z
M 678 1631 
L 4684 1631 
L 4684 1100 
L 678 1100 
L 678 1631 
z
" transform="scale(0.015625)"/>
      </defs>
      <use xlink:href="#DejaVuSans-56"/>
      <use xlink:href="#DejaVuSans-65" x="60.658203"/>
      <use xlink:href="#DejaVuSans-72" x="122.181641"/>
      <use xlink:href="#DejaVuSans-33" x="163.294922"/>
      <use xlink:href="#DejaVuSans-bd" x="226.917969"/>
      <use xlink:href="#DejaVuSans-3d" x="323.841797"/>
      <use xlink:href="#DejaVuSans-47" x="407.630859"/>
      <use xlink:href="#DejaVuSans-50" x="485.121094"/>
      <use xlink:href="#DejaVuSans-63" x="545.423828"/>
     </g>
    </g>
    <g id="LineCollection_6">
     <path d="M 66.72 74.334687 
L 66.72 64.334687 
" style="fill: none; stroke: #2ca02c; stroke-width: 1.5"/>
    </g>
    <g id="line2d_32">
     <g>
      <use xlink:href="#mf3fc7103a7" x="66.72" y="74.334687" style="fill: #2ca02c; stroke: #2ca02c"/>
     </g>
    </g>
    <g id="line2d_33">
     <g>
      <use xlink:href="#mf3fc7103a7" x="66.72" y="64.334687" style="fill: #2ca02c; stroke: #2ca02c"/>
     </g>
    </g>
    <g id="line2d_34">
     <path d="M 56.72 69.334687 
L 76.72 69.334687 
" style="fill: none; stroke: #2ca02c; stroke-width: 1.5; stroke-linecap: square"/>
    </g>
    <g id="line2d_35"/>
    <g id="text_20">
     <!-- Ver3=GPs -->
     <g transform="translate(84.72 72.834687)scale(0.1 -0.1)">
      <use xlink:href="#DejaVuSans-56"/>
      <use xlink:href="#DejaVuSans-65" x="60.658203"/>
      <use xlink:href="#DejaVuSans-72" x="122.181641"/>
      <use xlink:href="#DejaVuSans-33" x="163.294922"/>
      <use xlink:href="#DejaVuSans-bd" x="226.917969"/>
      <use xlink:href="#DejaVuSans-3d" x="323.841797"/>
      <use xlink:href="#DejaVuSans-47" x="407.630859"/>
      <use xlink:href="#DejaVuSans-50" x="485.121094"/>
      <use xlink:href="#DejaVuSans-73" x="543.673828"/>
     </g>
    </g>
   </g>
  </g>
 </g>
 <defs>
  <clipPath id="p4f77a58086">
   <rect x="47.72" y="26.88" width="517.48" height="363.16"/>
  </clipPath>
 </defs>
</svg>
