<?xml version="1.0" encoding="utf-8" standalone="no"?>
<!DOCTYPE svg PUBLIC "-//W3C//DTD SVG 1.1//EN"
  "http://www.w3.org/Graphics/SVG/1.1/DTD/svg11.dtd">
<svg xmlns:xlink="http://www.w3.org/1999/xlink" width="576pt" height="432pt" viewBox="0 0 576 432" xmlns="http://www.w3.org/2000/svg" version="1.1">
 <metadata>
  <rdf:RDF xmlns:dc="http://purl.org/dc/elements/1.1/" xmlns:cc="http://creativecommons.org/ns#" xmlns:rdf="http://www.w3.org/1999/02/22-rdf-syntax-ns#">
   <cc:Work>
    <dc:type rdf:resource="http://purl.org/dc/dcmitype/StillImage"/>
    <dc:date>2021-12-02T22:54:05.000726</dc:date>
    <dc:format>image/svg+xml</dc:format>
    <dc:creator>
     <cc:Agent>
      <dc:title>Matplotlib v3.5.0, https://matplotlib.org/</dc:title>
     </cc:Agent>
    </dc:creator>
   </cc:Work>
  </rdf:RDF>
 </metadata>
 <defs>
  <style type="text/css">*{stroke-linejoin: round; stroke-linecap: butt}</style>
 </defs>
 <g id="figure_1">
  <g id="patch_1">
   <path d="M 0 432 
L 576 432 
L 576 0 
L 0 0 
z
" style="fill: #ffffff"/>
  </g>
  <g id="axes_1">
   <g id="patch_2">
    <path d="M 47.72 390.04 
L 565.2 390.04 
L 565.2 26.88 
L 47.72 26.88 
z
" style="fill: #ffffff"/>
   </g>
   <g id="matplotlib.axis_1">
    <g id="xtick_1">
     <g id="line2d_1">
      <defs>
       <path id="m591ac73a55" d="M 0 0 
L 0 3.5 
" style="stroke: #000000; stroke-width: 0.8"/>
      </defs>
      <g>
       <use xlink:href="#m591ac73a55" x="71.241818" y="390.04" style="stroke: #000000; stroke-width: 0.8"/>
      </g>
     </g>
     <g id="text_1">
      <!-- 2000 -->
      <g transform="translate(58.516818 404.638438)scale(0.1 -0.1)">
       <defs>
        <path id="DejaVuSans-32" d="M 1228 531 
L 3431 531 
L 3431 0 
L 469 0 
L 469 531 
Q 828 903 1448 1529 
Q 2069 2156 2228 2338 
Q 2531 2678 2651 2914 
Q 2772 3150 2772 3378 
Q 2772 3750 2511 3984 
Q 2250 4219 1831 4219 
Q 1534 4219 1204 4116 
Q 875 4013 500 3803 
L 500 4441 
Q 881 4594 1212 4672 
Q 1544 4750 1819 4750 
Q 2544 4750 2975 4387 
Q 3406 4025 3406 3419 
Q 3406 3131 3298 2873 
Q 3191 2616 2906 2266 
Q 2828 2175 2409 1742 
Q 1991 1309 1228 531 
z
" transform="scale(0.015625)"/>
        <path id="DejaVuSans-30" d="M 2034 4250 
Q 1547 4250 1301 3770 
Q 1056 3291 1056 2328 
Q 1056 1369 1301 889 
Q 1547 409 2034 409 
Q 2525 409 2770 889 
Q 3016 1369 3016 2328 
Q 3016 3291 2770 3770 
Q 2525 4250 2034 4250 
z
M 2034 4750 
Q 2819 4750 3233 4129 
Q 3647 3509 3647 2328 
Q 3647 1150 3233 529 
Q 2819 -91 2034 -91 
Q 1250 -91 836 529 
Q 422 1150 422 2328 
Q 422 3509 836 4129 
Q 1250 4750 2034 4750 
z
" transform="scale(0.015625)"/>
       </defs>
       <use xlink:href="#DejaVuSans-32"/>
       <use xlink:href="#DejaVuSans-30" x="63.623047"/>
       <use xlink:href="#DejaVuSans-30" x="127.246094"/>
       <use xlink:href="#DejaVuSans-30" x="190.869141"/>
      </g>
     </g>
    </g>
    <g id="xtick_2">
     <g id="line2d_2">
      <g>
       <use xlink:href="#m591ac73a55" x="165.329091" y="390.04" style="stroke: #000000; stroke-width: 0.8"/>
      </g>
     </g>
     <g id="text_2">
      <!-- 2200 -->
      <g transform="translate(152.604091 404.638438)scale(0.1 -0.1)">
       <use xlink:href="#DejaVuSans-32"/>
       <use xlink:href="#DejaVuSans-32" x="63.623047"/>
       <use xlink:href="#DejaVuSans-30" x="127.246094"/>
       <use xlink:href="#DejaVuSans-30" x="190.869141"/>
      </g>
     </g>
    </g>
    <g id="xtick_3">
     <g id="line2d_3">
      <g>
       <use xlink:href="#m591ac73a55" x="259.416364" y="390.04" style="stroke: #000000; stroke-width: 0.8"/>
      </g>
     </g>
     <g id="text_3">
      <!-- 2400 -->
      <g transform="translate(246.691364 404.638438)scale(0.1 -0.1)">
       <defs>
        <path id="DejaVuSans-34" d="M 2419 4116 
L 825 1625 
L 2419 1625 
L 2419 4116 
z
M 2253 4666 
L 3047 4666 
L 3047 1625 
L 3713 1625 
L 3713 1100 
L 3047 1100 
L 3047 0 
L 2419 0 
L 2419 1100 
L 313 1100 
L 313 1709 
L 2253 4666 
z
" transform="scale(0.015625)"/>
       </defs>
       <use xlink:href="#DejaVuSans-32"/>
       <use xlink:href="#DejaVuSans-34" x="63.623047"/>
       <use xlink:href="#DejaVuSans-30" x="127.246094"/>
       <use xlink:href="#DejaVuSans-30" x="190.869141"/>
      </g>
     </g>
    </g>
    <g id="xtick_4">
     <g id="line2d_4">
      <g>
       <use xlink:href="#m591ac73a55" x="353.503636" y="390.04" style="stroke: #000000; stroke-width: 0.8"/>
      </g>
     </g>
     <g id="text_4">
      <!-- 2600 -->
      <g transform="translate(340.778636 404.638438)scale(0.1 -0.1)">
       <defs>
        <path id="DejaVuSans-36" d="M 2113 2584 
Q 1688 2584 1439 2293 
Q 1191 2003 1191 1497 
Q 1191 994 1439 701 
Q 1688 409 2113 409 
Q 2538 409 2786 701 
Q 3034 994 3034 1497 
Q 3034 2003 2786 2293 
Q 2538 2584 2113 2584 
z
M 3366 4563 
L 3366 3988 
Q 3128 4100 2886 4159 
Q 2644 4219 2406 4219 
Q 1781 4219 1451 3797 
Q 1122 3375 1075 2522 
Q 1259 2794 1537 2939 
Q 1816 3084 2150 3084 
Q 2853 3084 3261 2657 
Q 3669 2231 3669 1497 
Q 3669 778 3244 343 
Q 2819 -91 2113 -91 
Q 1303 -91 875 529 
Q 447 1150 447 2328 
Q 447 3434 972 4092 
Q 1497 4750 2381 4750 
Q 2619 4750 2861 4703 
Q 3103 4656 3366 4563 
z
" transform="scale(0.015625)"/>
       </defs>
       <use xlink:href="#DejaVuSans-32"/>
       <use xlink:href="#DejaVuSans-36" x="63.623047"/>
       <use xlink:href="#DejaVuSans-30" x="127.246094"/>
       <use xlink:href="#DejaVuSans-30" x="190.869141"/>
      </g>
     </g>
    </g>
    <g id="xtick_5">
     <g id="line2d_5">
      <g>
       <use xlink:href="#m591ac73a55" x="447.590909" y="390.04" style="stroke: #000000; stroke-width: 0.8"/>
      </g>
     </g>
     <g id="text_5">
      <!-- 2800 -->
      <g transform="translate(434.865909 404.638438)scale(0.1 -0.1)">
       <defs>
        <path id="DejaVuSans-38" d="M 2034 2216 
Q 1584 2216 1326 1975 
Q 1069 1734 1069 1313 
Q 1069 891 1326 650 
Q 1584 409 2034 409 
Q 2484 409 2743 651 
Q 3003 894 3003 1313 
Q 3003 1734 2745 1975 
Q 2488 2216 2034 2216 
z
M 1403 2484 
Q 997 2584 770 2862 
Q 544 3141 544 3541 
Q 544 4100 942 4425 
Q 1341 4750 2034 4750 
Q 2731 4750 3128 4425 
Q 3525 4100 3525 3541 
Q 3525 3141 3298 2862 
Q 3072 2584 2669 2484 
Q 3125 2378 3379 2068 
Q 3634 1759 3634 1313 
Q 3634 634 3220 271 
Q 2806 -91 2034 -91 
Q 1263 -91 848 271 
Q 434 634 434 1313 
Q 434 1759 690 2068 
Q 947 2378 1403 2484 
z
M 1172 3481 
Q 1172 3119 1398 2916 
Q 1625 2713 2034 2713 
Q 2441 2713 2670 2916 
Q 2900 3119 2900 3481 
Q 2900 3844 2670 4047 
Q 2441 4250 2034 4250 
Q 1625 4250 1398 4047 
Q 1172 3844 1172 3481 
z
" transform="scale(0.015625)"/>
       </defs>
       <use xlink:href="#DejaVuSans-32"/>
       <use xlink:href="#DejaVuSans-38" x="63.623047"/>
       <use xlink:href="#DejaVuSans-30" x="127.246094"/>
       <use xlink:href="#DejaVuSans-30" x="190.869141"/>
      </g>
     </g>
    </g>
    <g id="xtick_6">
     <g id="line2d_6">
      <g>
       <use xlink:href="#m591ac73a55" x="541.678182" y="390.04" style="stroke: #000000; stroke-width: 0.8"/>
      </g>
     </g>
     <g id="text_6">
      <!-- 3000 -->
      <g transform="translate(528.953182 404.638438)scale(0.1 -0.1)">
       <defs>
        <path id="DejaVuSans-33" d="M 2597 2516 
Q 3050 2419 3304 2112 
Q 3559 1806 3559 1356 
Q 3559 666 3084 287 
Q 2609 -91 1734 -91 
Q 1441 -91 1130 -33 
Q 819 25 488 141 
L 488 750 
Q 750 597 1062 519 
Q 1375 441 1716 441 
Q 2309 441 2620 675 
Q 2931 909 2931 1356 
Q 2931 1769 2642 2001 
Q 2353 2234 1838 2234 
L 1294 2234 
L 1294 2753 
L 1863 2753 
Q 2328 2753 2575 2939 
Q 2822 3125 2822 3475 
Q 2822 3834 2567 4026 
Q 2313 4219 1838 4219 
Q 1578 4219 1281 4162 
Q 984 4106 628 3988 
L 628 4550 
Q 988 4650 1302 4700 
Q 1616 4750 1894 4750 
Q 2613 4750 3031 4423 
Q 3450 4097 3450 3541 
Q 3450 3153 3228 2886 
Q 3006 2619 2597 2516 
z
" transform="scale(0.015625)"/>
       </defs>
       <use xlink:href="#DejaVuSans-33"/>
       <use xlink:href="#DejaVuSans-30" x="63.623047"/>
       <use xlink:href="#DejaVuSans-30" x="127.246094"/>
       <use xlink:href="#DejaVuSans-30" x="190.869141"/>
      </g>
     </g>
    </g>
    <g id="text_7">
     <!-- Size (#edges) -->
     <g transform="translate(271.409219 418.316562)scale(0.1 -0.1)">
      <defs>
       <path id="DejaVuSans-53" d="M 3425 4513 
L 3425 3897 
Q 3066 4069 2747 4153 
Q 2428 4238 2131 4238 
Q 1616 4238 1336 4038 
Q 1056 3838 1056 3469 
Q 1056 3159 1242 3001 
Q 1428 2844 1947 2747 
L 2328 2669 
Q 3034 2534 3370 2195 
Q 3706 1856 3706 1288 
Q 3706 609 3251 259 
Q 2797 -91 1919 -91 
Q 1588 -91 1214 -16 
Q 841 59 441 206 
L 441 856 
Q 825 641 1194 531 
Q 1563 422 1919 422 
Q 2459 422 2753 634 
Q 3047 847 3047 1241 
Q 3047 1584 2836 1778 
Q 2625 1972 2144 2069 
L 1759 2144 
Q 1053 2284 737 2584 
Q 422 2884 422 3419 
Q 422 4038 858 4394 
Q 1294 4750 2059 4750 
Q 2388 4750 2728 4690 
Q 3069 4631 3425 4513 
z
" transform="scale(0.015625)"/>
       <path id="DejaVuSans-69" d="M 603 3500 
L 1178 3500 
L 1178 0 
L 603 0 
L 603 3500 
z
M 603 4863 
L 1178 4863 
L 1178 4134 
L 603 4134 
L 603 4863 
z
" transform="scale(0.015625)"/>
       <path id="DejaVuSans-7a" d="M 353 3500 
L 3084 3500 
L 3084 2975 
L 922 459 
L 3084 459 
L 3084 0 
L 275 0 
L 275 525 
L 2438 3041 
L 353 3041 
L 353 3500 
z
" transform="scale(0.015625)"/>
       <path id="DejaVuSans-65" d="M 3597 1894 
L 3597 1613 
L 953 1613 
Q 991 1019 1311 708 
Q 1631 397 2203 397 
Q 2534 397 2845 478 
Q 3156 559 3463 722 
L 3463 178 
Q 3153 47 2828 -22 
Q 2503 -91 2169 -91 
Q 1331 -91 842 396 
Q 353 884 353 1716 
Q 353 2575 817 3079 
Q 1281 3584 2069 3584 
Q 2775 3584 3186 3129 
Q 3597 2675 3597 1894 
z
M 3022 2063 
Q 3016 2534 2758 2815 
Q 2500 3097 2075 3097 
Q 1594 3097 1305 2825 
Q 1016 2553 972 2059 
L 3022 2063 
z
" transform="scale(0.015625)"/>
       <path id="DejaVuSans-20" transform="scale(0.015625)"/>
       <path id="DejaVuSans-28" d="M 1984 4856 
Q 1566 4138 1362 3434 
Q 1159 2731 1159 2009 
Q 1159 1288 1364 580 
Q 1569 -128 1984 -844 
L 1484 -844 
Q 1016 -109 783 600 
Q 550 1309 550 2009 
Q 550 2706 781 3412 
Q 1013 4119 1484 4856 
L 1984 4856 
z
" transform="scale(0.015625)"/>
       <path id="DejaVuSans-23" d="M 3272 2816 
L 2363 2816 
L 2100 1772 
L 3016 1772 
L 3272 2816 
z
M 2803 4594 
L 2478 3297 
L 3391 3297 
L 3719 4594 
L 4219 4594 
L 3897 3297 
L 4872 3297 
L 4872 2816 
L 3775 2816 
L 3519 1772 
L 4513 1772 
L 4513 1294 
L 3397 1294 
L 3072 0 
L 2572 0 
L 2894 1294 
L 1978 1294 
L 1656 0 
L 1153 0 
L 1478 1294 
L 494 1294 
L 494 1772 
L 1594 1772 
L 1856 2816 
L 850 2816 
L 850 3297 
L 1978 3297 
L 2297 4594 
L 2803 4594 
z
" transform="scale(0.015625)"/>
       <path id="DejaVuSans-64" d="M 2906 2969 
L 2906 4863 
L 3481 4863 
L 3481 0 
L 2906 0 
L 2906 525 
Q 2725 213 2448 61 
Q 2172 -91 1784 -91 
Q 1150 -91 751 415 
Q 353 922 353 1747 
Q 353 2572 751 3078 
Q 1150 3584 1784 3584 
Q 2172 3584 2448 3432 
Q 2725 3281 2906 2969 
z
M 947 1747 
Q 947 1113 1208 752 
Q 1469 391 1925 391 
Q 2381 391 2643 752 
Q 2906 1113 2906 1747 
Q 2906 2381 2643 2742 
Q 2381 3103 1925 3103 
Q 1469 3103 1208 2742 
Q 947 2381 947 1747 
z
" transform="scale(0.015625)"/>
       <path id="DejaVuSans-67" d="M 2906 1791 
Q 2906 2416 2648 2759 
Q 2391 3103 1925 3103 
Q 1463 3103 1205 2759 
Q 947 2416 947 1791 
Q 947 1169 1205 825 
Q 1463 481 1925 481 
Q 2391 481 2648 825 
Q 2906 1169 2906 1791 
z
M 3481 434 
Q 3481 -459 3084 -895 
Q 2688 -1331 1869 -1331 
Q 1566 -1331 1297 -1286 
Q 1028 -1241 775 -1147 
L 775 -588 
Q 1028 -725 1275 -790 
Q 1522 -856 1778 -856 
Q 2344 -856 2625 -561 
Q 2906 -266 2906 331 
L 2906 616 
Q 2728 306 2450 153 
Q 2172 0 1784 0 
Q 1141 0 747 490 
Q 353 981 353 1791 
Q 353 2603 747 3093 
Q 1141 3584 1784 3584 
Q 2172 3584 2450 3431 
Q 2728 3278 2906 2969 
L 2906 3500 
L 3481 3500 
L 3481 434 
z
" transform="scale(0.015625)"/>
       <path id="DejaVuSans-73" d="M 2834 3397 
L 2834 2853 
Q 2591 2978 2328 3040 
Q 2066 3103 1784 3103 
Q 1356 3103 1142 2972 
Q 928 2841 928 2578 
Q 928 2378 1081 2264 
Q 1234 2150 1697 2047 
L 1894 2003 
Q 2506 1872 2764 1633 
Q 3022 1394 3022 966 
Q 3022 478 2636 193 
Q 2250 -91 1575 -91 
Q 1294 -91 989 -36 
Q 684 19 347 128 
L 347 722 
Q 666 556 975 473 
Q 1284 391 1588 391 
Q 1994 391 2212 530 
Q 2431 669 2431 922 
Q 2431 1156 2273 1281 
Q 2116 1406 1581 1522 
L 1381 1569 
Q 847 1681 609 1914 
Q 372 2147 372 2553 
Q 372 3047 722 3315 
Q 1072 3584 1716 3584 
Q 2034 3584 2315 3537 
Q 2597 3491 2834 3397 
z
" transform="scale(0.015625)"/>
       <path id="DejaVuSans-29" d="M 513 4856 
L 1013 4856 
Q 1481 4119 1714 3412 
Q 1947 2706 1947 2009 
Q 1947 1309 1714 600 
Q 1481 -109 1013 -844 
L 513 -844 
Q 928 -128 1133 580 
Q 1338 1288 1338 2009 
Q 1338 2731 1133 3434 
Q 928 4138 513 4856 
z
" transform="scale(0.015625)"/>
      </defs>
      <use xlink:href="#DejaVuSans-53"/>
      <use xlink:href="#DejaVuSans-69" x="63.476562"/>
      <use xlink:href="#DejaVuSans-7a" x="91.259766"/>
      <use xlink:href="#DejaVuSans-65" x="143.75"/>
      <use xlink:href="#DejaVuSans-20" x="205.273438"/>
      <use xlink:href="#DejaVuSans-28" x="237.060547"/>
      <use xlink:href="#DejaVuSans-23" x="276.074219"/>
      <use xlink:href="#DejaVuSans-65" x="359.863281"/>
      <use xlink:href="#DejaVuSans-64" x="421.386719"/>
      <use xlink:href="#DejaVuSans-67" x="484.863281"/>
      <use xlink:href="#DejaVuSans-65" x="548.339844"/>
      <use xlink:href="#DejaVuSans-73" x="609.863281"/>
      <use xlink:href="#DejaVuSans-29" x="661.962891"/>
     </g>
    </g>
   </g>
   <g id="matplotlib.axis_2">
    <g id="ytick_1">
     <g id="line2d_7">
      <defs>
       <path id="mca5fc87275" d="M 0 0 
L -3.5 0 
" style="stroke: #000000; stroke-width: 0.8"/>
      </defs>
      <g>
       <use xlink:href="#mca5fc87275" x="47.72" y="389.955887" style="stroke: #000000; stroke-width: 0.8"/>
      </g>
     </g>
     <g id="text_8">
      <!-- 0.0 -->
      <g transform="translate(24.816875 393.755106)scale(0.1 -0.1)">
       <defs>
        <path id="DejaVuSans-2e" d="M 684 794 
L 1344 794 
L 1344 0 
L 684 0 
L 684 794 
z
" transform="scale(0.015625)"/>
       </defs>
       <use xlink:href="#DejaVuSans-30"/>
       <use xlink:href="#DejaVuSans-2e" x="63.623047"/>
       <use xlink:href="#DejaVuSans-30" x="95.410156"/>
      </g>
     </g>
    </g>
    <g id="ytick_2">
     <g id="line2d_8">
      <g>
       <use xlink:href="#mca5fc87275" x="47.72" y="318.562018" style="stroke: #000000; stroke-width: 0.8"/>
      </g>
     </g>
     <g id="text_9">
      <!-- 0.1 -->
      <g transform="translate(24.816875 322.361237)scale(0.1 -0.1)">
       <defs>
        <path id="DejaVuSans-31" d="M 794 531 
L 1825 531 
L 1825 4091 
L 703 3866 
L 703 4441 
L 1819 4666 
L 2450 4666 
L 2450 531 
L 3481 531 
L 3481 0 
L 794 0 
L 794 531 
z
" transform="scale(0.015625)"/>
       </defs>
       <use xlink:href="#DejaVuSans-30"/>
       <use xlink:href="#DejaVuSans-2e" x="63.623047"/>
       <use xlink:href="#DejaVuSans-31" x="95.410156"/>
      </g>
     </g>
    </g>
    <g id="ytick_3">
     <g id="line2d_9">
      <g>
       <use xlink:href="#mca5fc87275" x="47.72" y="247.168149" style="stroke: #000000; stroke-width: 0.8"/>
      </g>
     </g>
     <g id="text_10">
      <!-- 0.2 -->
      <g transform="translate(24.816875 250.967368)scale(0.1 -0.1)">
       <use xlink:href="#DejaVuSans-30"/>
       <use xlink:href="#DejaVuSans-2e" x="63.623047"/>
       <use xlink:href="#DejaVuSans-32" x="95.410156"/>
      </g>
     </g>
    </g>
    <g id="ytick_4">
     <g id="line2d_10">
      <g>
       <use xlink:href="#mca5fc87275" x="47.72" y="175.77428" style="stroke: #000000; stroke-width: 0.8"/>
      </g>
     </g>
     <g id="text_11">
      <!-- 0.3 -->
      <g transform="translate(24.816875 179.573499)scale(0.1 -0.1)">
       <use xlink:href="#DejaVuSans-30"/>
       <use xlink:href="#DejaVuSans-2e" x="63.623047"/>
       <use xlink:href="#DejaVuSans-33" x="95.410156"/>
      </g>
     </g>
    </g>
    <g id="ytick_5">
     <g id="line2d_11">
      <g>
       <use xlink:href="#mca5fc87275" x="47.72" y="104.380411" style="stroke: #000000; stroke-width: 0.8"/>
      </g>
     </g>
     <g id="text_12">
      <!-- 0.4 -->
      <g transform="translate(24.816875 108.17963)scale(0.1 -0.1)">
       <use xlink:href="#DejaVuSans-30"/>
       <use xlink:href="#DejaVuSans-2e" x="63.623047"/>
       <use xlink:href="#DejaVuSans-34" x="95.410156"/>
      </g>
     </g>
    </g>
    <g id="ytick_6">
     <g id="line2d_12">
      <g>
       <use xlink:href="#mca5fc87275" x="47.72" y="32.986543" style="stroke: #000000; stroke-width: 0.8"/>
      </g>
     </g>
     <g id="text_13">
      <!-- 0.5 -->
      <g transform="translate(24.816875 36.785761)scale(0.1 -0.1)">
       <defs>
        <path id="DejaVuSans-35" d="M 691 4666 
L 3169 4666 
L 3169 4134 
L 1269 4134 
L 1269 2991 
Q 1406 3038 1543 3061 
Q 1681 3084 1819 3084 
Q 2600 3084 3056 2656 
Q 3513 2228 3513 1497 
Q 3513 744 3044 326 
Q 2575 -91 1722 -91 
Q 1428 -91 1123 -41 
Q 819 9 494 109 
L 494 744 
Q 775 591 1075 516 
Q 1375 441 1709 441 
Q 2250 441 2565 725 
Q 2881 1009 2881 1497 
Q 2881 1984 2565 2268 
Q 2250 2553 1709 2553 
Q 1456 2553 1204 2497 
Q 953 2441 691 2322 
L 691 4666 
z
" transform="scale(0.015625)"/>
       </defs>
       <use xlink:href="#DejaVuSans-30"/>
       <use xlink:href="#DejaVuSans-2e" x="63.623047"/>
       <use xlink:href="#DejaVuSans-35" x="95.410156"/>
      </g>
     </g>
    </g>
    <g id="text_14">
     <!-- Seconds spent -->
     <g transform="translate(18.737187 245.040469)rotate(-90)scale(0.1 -0.1)">
      <defs>
       <path id="DejaVuSans-63" d="M 3122 3366 
L 3122 2828 
Q 2878 2963 2633 3030 
Q 2388 3097 2138 3097 
Q 1578 3097 1268 2742 
Q 959 2388 959 1747 
Q 959 1106 1268 751 
Q 1578 397 2138 397 
Q 2388 397 2633 464 
Q 2878 531 3122 666 
L 3122 134 
Q 2881 22 2623 -34 
Q 2366 -91 2075 -91 
Q 1284 -91 818 406 
Q 353 903 353 1747 
Q 353 2603 823 3093 
Q 1294 3584 2113 3584 
Q 2378 3584 2631 3529 
Q 2884 3475 3122 3366 
z
" transform="scale(0.015625)"/>
       <path id="DejaVuSans-6f" d="M 1959 3097 
Q 1497 3097 1228 2736 
Q 959 2375 959 1747 
Q 959 1119 1226 758 
Q 1494 397 1959 397 
Q 2419 397 2687 759 
Q 2956 1122 2956 1747 
Q 2956 2369 2687 2733 
Q 2419 3097 1959 3097 
z
M 1959 3584 
Q 2709 3584 3137 3096 
Q 3566 2609 3566 1747 
Q 3566 888 3137 398 
Q 2709 -91 1959 -91 
Q 1206 -91 779 398 
Q 353 888 353 1747 
Q 353 2609 779 3096 
Q 1206 3584 1959 3584 
z
" transform="scale(0.015625)"/>
       <path id="DejaVuSans-6e" d="M 3513 2113 
L 3513 0 
L 2938 0 
L 2938 2094 
Q 2938 2591 2744 2837 
Q 2550 3084 2163 3084 
Q 1697 3084 1428 2787 
Q 1159 2491 1159 1978 
L 1159 0 
L 581 0 
L 581 3500 
L 1159 3500 
L 1159 2956 
Q 1366 3272 1645 3428 
Q 1925 3584 2291 3584 
Q 2894 3584 3203 3211 
Q 3513 2838 3513 2113 
z
" transform="scale(0.015625)"/>
       <path id="DejaVuSans-70" d="M 1159 525 
L 1159 -1331 
L 581 -1331 
L 581 3500 
L 1159 3500 
L 1159 2969 
Q 1341 3281 1617 3432 
Q 1894 3584 2278 3584 
Q 2916 3584 3314 3078 
Q 3713 2572 3713 1747 
Q 3713 922 3314 415 
Q 2916 -91 2278 -91 
Q 1894 -91 1617 61 
Q 1341 213 1159 525 
z
M 3116 1747 
Q 3116 2381 2855 2742 
Q 2594 3103 2138 3103 
Q 1681 3103 1420 2742 
Q 1159 2381 1159 1747 
Q 1159 1113 1420 752 
Q 1681 391 2138 391 
Q 2594 391 2855 752 
Q 3116 1113 3116 1747 
z
" transform="scale(0.015625)"/>
       <path id="DejaVuSans-74" d="M 1172 4494 
L 1172 3500 
L 2356 3500 
L 2356 3053 
L 1172 3053 
L 1172 1153 
Q 1172 725 1289 603 
Q 1406 481 1766 481 
L 2356 481 
L 2356 0 
L 1766 0 
Q 1100 0 847 248 
Q 594 497 594 1153 
L 594 3053 
L 172 3053 
L 172 3500 
L 594 3500 
L 594 4494 
L 1172 4494 
z
" transform="scale(0.015625)"/>
      </defs>
      <use xlink:href="#DejaVuSans-53"/>
      <use xlink:href="#DejaVuSans-65" x="63.476562"/>
      <use xlink:href="#DejaVuSans-63" x="125"/>
      <use xlink:href="#DejaVuSans-6f" x="179.980469"/>
      <use xlink:href="#DejaVuSans-6e" x="241.162109"/>
      <use xlink:href="#DejaVuSans-64" x="304.541016"/>
      <use xlink:href="#DejaVuSans-73" x="368.017578"/>
      <use xlink:href="#DejaVuSans-20" x="420.117188"/>
      <use xlink:href="#DejaVuSans-73" x="451.904297"/>
      <use xlink:href="#DejaVuSans-70" x="504.003906"/>
      <use xlink:href="#DejaVuSans-65" x="567.480469"/>
      <use xlink:href="#DejaVuSans-6e" x="629.003906"/>
      <use xlink:href="#DejaVuSans-74" x="692.382812"/>
     </g>
    </g>
   </g>
   <g id="LineCollection_1">
    <path d="M 71.241818 373.532727 
L 71.241818 373.245438 
" clip-path="url(#p8f719f02a1)" style="fill: none; stroke: #1f77b4; stroke-width: 1.5"/>
    <path d="M 94.763636 371.628296 
L 94.763636 371.225706 
" clip-path="url(#p8f719f02a1)" style="fill: none; stroke: #1f77b4; stroke-width: 1.5"/>
    <path d="M 118.285455 368.63268 
L 118.285455 368.507027 
" clip-path="url(#p8f719f02a1)" style="fill: none; stroke: #1f77b4; stroke-width: 1.5"/>
    <path d="M 141.807273 365.671406 
L 141.807273 365.484568 
" clip-path="url(#p8f719f02a1)" style="fill: none; stroke: #1f77b4; stroke-width: 1.5"/>
    <path d="M 165.329091 362.359444 
L 165.329091 362.197237 
" clip-path="url(#p8f719f02a1)" style="fill: none; stroke: #1f77b4; stroke-width: 1.5"/>
    <path d="M 188.850909 358.039829 
L 188.850909 357.959083 
" clip-path="url(#p8f719f02a1)" style="fill: none; stroke: #1f77b4; stroke-width: 1.5"/>
    <path d="M 212.372727 353.461769 
L 212.372727 353.111939 
" clip-path="url(#p8f719f02a1)" style="fill: none; stroke: #1f77b4; stroke-width: 1.5"/>
    <path d="M 235.894545 347.742906 
L 235.894545 347.221873 
" clip-path="url(#p8f719f02a1)" style="fill: none; stroke: #1f77b4; stroke-width: 1.5"/>
    <path d="M 259.416364 341.038379 
L 259.416364 339.776421 
" clip-path="url(#p8f719f02a1)" style="fill: none; stroke: #1f77b4; stroke-width: 1.5"/>
    <path d="M 282.938182 332.443842 
L 282.938182 332.218666 
" clip-path="url(#p8f719f02a1)" style="fill: none; stroke: #1f77b4; stroke-width: 1.5"/>
    <path d="M 306.46 324.715741 
L 306.46 324.236403 
" clip-path="url(#p8f719f02a1)" style="fill: none; stroke: #1f77b4; stroke-width: 1.5"/>
    <path d="M 329.981818 314.646136 
L 329.981818 313.587936 
" clip-path="url(#p8f719f02a1)" style="fill: none; stroke: #1f77b4; stroke-width: 1.5"/>
    <path d="M 353.503636 301.922463 
L 353.503636 301.607188 
" clip-path="url(#p8f719f02a1)" style="fill: none; stroke: #1f77b4; stroke-width: 1.5"/>
    <path d="M 377.025455 287.897424 
L 377.025455 287.353545 
" clip-path="url(#p8f719f02a1)" style="fill: none; stroke: #1f77b4; stroke-width: 1.5"/>
    <path d="M 400.547273 271.841656 
L 400.547273 270.852494 
" clip-path="url(#p8f719f02a1)" style="fill: none; stroke: #1f77b4; stroke-width: 1.5"/>
    <path d="M 424.069091 247.410032 
L 424.069091 245.429494 
" clip-path="url(#p8f719f02a1)" style="fill: none; stroke: #1f77b4; stroke-width: 1.5"/>
    <path d="M 447.590909 226.565664 
L 447.590909 221.413953 
" clip-path="url(#p8f719f02a1)" style="fill: none; stroke: #1f77b4; stroke-width: 1.5"/>
    <path d="M 471.112727 195.095746 
L 471.112727 194.099801 
" clip-path="url(#p8f719f02a1)" style="fill: none; stroke: #1f77b4; stroke-width: 1.5"/>
    <path d="M 494.634545 159.735077 
L 494.634545 158.407579 
" clip-path="url(#p8f719f02a1)" style="fill: none; stroke: #1f77b4; stroke-width: 1.5"/>
    <path d="M 518.156364 113.672324 
L 518.156364 110.998623 
" clip-path="url(#p8f719f02a1)" style="fill: none; stroke: #1f77b4; stroke-width: 1.5"/>
    <path d="M 541.678182 58.971269 
L 541.678182 56.544235 
" clip-path="url(#p8f719f02a1)" style="fill: none; stroke: #1f77b4; stroke-width: 1.5"/>
   </g>
   <g id="line2d_13">
    <defs>
     <path id="m43a44f7c42" d="M 3 0 
L -3 -0 
" style="stroke: #1f77b4"/>
    </defs>
    <g clip-path="url(#p8f719f02a1)">
     <use xlink:href="#m43a44f7c42" x="71.241818" y="373.532727" style="fill: #1f77b4; stroke: #1f77b4"/>
     <use xlink:href="#m43a44f7c42" x="94.763636" y="371.628296" style="fill: #1f77b4; stroke: #1f77b4"/>
     <use xlink:href="#m43a44f7c42" x="118.285455" y="368.63268" style="fill: #1f77b4; stroke: #1f77b4"/>
     <use xlink:href="#m43a44f7c42" x="141.807273" y="365.671406" style="fill: #1f77b4; stroke: #1f77b4"/>
     <use xlink:href="#m43a44f7c42" x="165.329091" y="362.359444" style="fill: #1f77b4; stroke: #1f77b4"/>
     <use xlink:href="#m43a44f7c42" x="188.850909" y="358.039829" style="fill: #1f77b4; stroke: #1f77b4"/>
     <use xlink:href="#m43a44f7c42" x="212.372727" y="353.461769" style="fill: #1f77b4; stroke: #1f77b4"/>
     <use xlink:href="#m43a44f7c42" x="235.894545" y="347.742906" style="fill: #1f77b4; stroke: #1f77b4"/>
     <use xlink:href="#m43a44f7c42" x="259.416364" y="341.038379" style="fill: #1f77b4; stroke: #1f77b4"/>
     <use xlink:href="#m43a44f7c42" x="282.938182" y="332.443842" style="fill: #1f77b4; stroke: #1f77b4"/>
     <use xlink:href="#m43a44f7c42" x="306.46" y="324.715741" style="fill: #1f77b4; stroke: #1f77b4"/>
     <use xlink:href="#m43a44f7c42" x="329.981818" y="314.646136" style="fill: #1f77b4; stroke: #1f77b4"/>
     <use xlink:href="#m43a44f7c42" x="353.503636" y="301.922463" style="fill: #1f77b4; stroke: #1f77b4"/>
     <use xlink:href="#m43a44f7c42" x="377.025455" y="287.897424" style="fill: #1f77b4; stroke: #1f77b4"/>
     <use xlink:href="#m43a44f7c42" x="400.547273" y="271.841656" style="fill: #1f77b4; stroke: #1f77b4"/>
     <use xlink:href="#m43a44f7c42" x="424.069091" y="247.410032" style="fill: #1f77b4; stroke: #1f77b4"/>
     <use xlink:href="#m43a44f7c42" x="447.590909" y="226.565664" style="fill: #1f77b4; stroke: #1f77b4"/>
     <use xlink:href="#m43a44f7c42" x="471.112727" y="195.095746" style="fill: #1f77b4; stroke: #1f77b4"/>
     <use xlink:href="#m43a44f7c42" x="494.634545" y="159.735077" style="fill: #1f77b4; stroke: #1f77b4"/>
     <use xlink:href="#m43a44f7c42" x="518.156364" y="113.672324" style="fill: #1f77b4; stroke: #1f77b4"/>
     <use xlink:href="#m43a44f7c42" x="541.678182" y="58.971269" style="fill: #1f77b4; stroke: #1f77b4"/>
    </g>
   </g>
   <g id="line2d_14">
    <g clip-path="url(#p8f719f02a1)">
     <use xlink:href="#m43a44f7c42" x="71.241818" y="373.245438" style="fill: #1f77b4; stroke: #1f77b4"/>
     <use xlink:href="#m43a44f7c42" x="94.763636" y="371.225706" style="fill: #1f77b4; stroke: #1f77b4"/>
     <use xlink:href="#m43a44f7c42" x="118.285455" y="368.507027" style="fill: #1f77b4; stroke: #1f77b4"/>
     <use xlink:href="#m43a44f7c42" x="141.807273" y="365.484568" style="fill: #1f77b4; stroke: #1f77b4"/>
     <use xlink:href="#m43a44f7c42" x="165.329091" y="362.197237" style="fill: #1f77b4; stroke: #1f77b4"/>
     <use xlink:href="#m43a44f7c42" x="188.850909" y="357.959083" style="fill: #1f77b4; stroke: #1f77b4"/>
     <use xlink:href="#m43a44f7c42" x="212.372727" y="353.111939" style="fill: #1f77b4; stroke: #1f77b4"/>
     <use xlink:href="#m43a44f7c42" x="235.894545" y="347.221873" style="fill: #1f77b4; stroke: #1f77b4"/>
     <use xlink:href="#m43a44f7c42" x="259.416364" y="339.776421" style="fill: #1f77b4; stroke: #1f77b4"/>
     <use xlink:href="#m43a44f7c42" x="282.938182" y="332.218666" style="fill: #1f77b4; stroke: #1f77b4"/>
     <use xlink:href="#m43a44f7c42" x="306.46" y="324.236403" style="fill: #1f77b4; stroke: #1f77b4"/>
     <use xlink:href="#m43a44f7c42" x="329.981818" y="313.587936" style="fill: #1f77b4; stroke: #1f77b4"/>
     <use xlink:href="#m43a44f7c42" x="353.503636" y="301.607188" style="fill: #1f77b4; stroke: #1f77b4"/>
     <use xlink:href="#m43a44f7c42" x="377.025455" y="287.353545" style="fill: #1f77b4; stroke: #1f77b4"/>
     <use xlink:href="#m43a44f7c42" x="400.547273" y="270.852494" style="fill: #1f77b4; stroke: #1f77b4"/>
     <use xlink:href="#m43a44f7c42" x="424.069091" y="245.429494" style="fill: #1f77b4; stroke: #1f77b4"/>
     <use xlink:href="#m43a44f7c42" x="447.590909" y="221.413953" style="fill: #1f77b4; stroke: #1f77b4"/>
     <use xlink:href="#m43a44f7c42" x="471.112727" y="194.099801" style="fill: #1f77b4; stroke: #1f77b4"/>
     <use xlink:href="#m43a44f7c42" x="494.634545" y="158.407579" style="fill: #1f77b4; stroke: #1f77b4"/>
     <use xlink:href="#m43a44f7c42" x="518.156364" y="110.998623" style="fill: #1f77b4; stroke: #1f77b4"/>
     <use xlink:href="#m43a44f7c42" x="541.678182" y="56.544235" style="fill: #1f77b4; stroke: #1f77b4"/>
    </g>
   </g>
   <g id="LineCollection_2">
    <path d="M 71.241818 372.348731 
L 71.241818 372.110918 
" clip-path="url(#p8f719f02a1)" style="fill: none; stroke: #ff7f0e; stroke-width: 1.5"/>
    <path d="M 94.763636 370.294444 
L 94.763636 369.86601 
" clip-path="url(#p8f719f02a1)" style="fill: none; stroke: #ff7f0e; stroke-width: 1.5"/>
    <path d="M 118.285455 367.355087 
L 118.285455 367.082077 
" clip-path="url(#p8f719f02a1)" style="fill: none; stroke: #ff7f0e; stroke-width: 1.5"/>
    <path d="M 141.807273 364.280367 
L 141.807273 364.092959 
" clip-path="url(#p8f719f02a1)" style="fill: none; stroke: #ff7f0e; stroke-width: 1.5"/>
    <path d="M 165.329091 360.898511 
L 165.329091 360.610794 
" clip-path="url(#p8f719f02a1)" style="fill: none; stroke: #ff7f0e; stroke-width: 1.5"/>
    <path d="M 188.850909 356.877894 
L 188.850909 356.619591 
" clip-path="url(#p8f719f02a1)" style="fill: none; stroke: #ff7f0e; stroke-width: 1.5"/>
    <path d="M 212.372727 352.20388 
L 212.372727 351.903812 
" clip-path="url(#p8f719f02a1)" style="fill: none; stroke: #ff7f0e; stroke-width: 1.5"/>
    <path d="M 235.894545 346.203725 
L 235.894545 345.923933 
" clip-path="url(#p8f719f02a1)" style="fill: none; stroke: #ff7f0e; stroke-width: 1.5"/>
    <path d="M 259.416364 340.756944 
L 259.416364 339.422878 
" clip-path="url(#p8f719f02a1)" style="fill: none; stroke: #ff7f0e; stroke-width: 1.5"/>
    <path d="M 282.938182 331.963361 
L 282.938182 331.608891 
" clip-path="url(#p8f719f02a1)" style="fill: none; stroke: #ff7f0e; stroke-width: 1.5"/>
    <path d="M 306.46 324.583663 
L 306.46 324.123315 
" clip-path="url(#p8f719f02a1)" style="fill: none; stroke: #ff7f0e; stroke-width: 1.5"/>
    <path d="M 329.981818 315.909736 
L 329.981818 315.189086 
" clip-path="url(#p8f719f02a1)" style="fill: none; stroke: #ff7f0e; stroke-width: 1.5"/>
    <path d="M 353.503636 304.159376 
L 353.503636 301.807662 
" clip-path="url(#p8f719f02a1)" style="fill: none; stroke: #ff7f0e; stroke-width: 1.5"/>
    <path d="M 377.025455 290.797657 
L 377.025455 290.21087 
" clip-path="url(#p8f719f02a1)" style="fill: none; stroke: #ff7f0e; stroke-width: 1.5"/>
    <path d="M 400.547273 274.64665 
L 400.547273 273.719172 
" clip-path="url(#p8f719f02a1)" style="fill: none; stroke: #ff7f0e; stroke-width: 1.5"/>
    <path d="M 424.069091 252.415527 
L 424.069091 249.317462 
" clip-path="url(#p8f719f02a1)" style="fill: none; stroke: #ff7f0e; stroke-width: 1.5"/>
    <path d="M 447.590909 235.114294 
L 447.590909 233.437895 
" clip-path="url(#p8f719f02a1)" style="fill: none; stroke: #ff7f0e; stroke-width: 1.5"/>
    <path d="M 471.112727 205.569869 
L 471.112727 205.002716 
" clip-path="url(#p8f719f02a1)" style="fill: none; stroke: #ff7f0e; stroke-width: 1.5"/>
    <path d="M 494.634545 177.876758 
L 494.634545 174.238384 
" clip-path="url(#p8f719f02a1)" style="fill: none; stroke: #ff7f0e; stroke-width: 1.5"/>
    <path d="M 518.156364 134.802838 
L 518.156364 133.75856 
" clip-path="url(#p8f719f02a1)" style="fill: none; stroke: #ff7f0e; stroke-width: 1.5"/>
    <path d="M 541.678182 87.959536 
L 541.678182 85.126627 
" clip-path="url(#p8f719f02a1)" style="fill: none; stroke: #ff7f0e; stroke-width: 1.5"/>
   </g>
   <g id="line2d_15">
    <defs>
     <path id="m4548e217ef" d="M 3 0 
L -3 -0 
" style="stroke: #ff7f0e"/>
    </defs>
    <g clip-path="url(#p8f719f02a1)">
     <use xlink:href="#m4548e217ef" x="71.241818" y="372.348731" style="fill: #ff7f0e; stroke: #ff7f0e"/>
     <use xlink:href="#m4548e217ef" x="94.763636" y="370.294444" style="fill: #ff7f0e; stroke: #ff7f0e"/>
     <use xlink:href="#m4548e217ef" x="118.285455" y="367.355087" style="fill: #ff7f0e; stroke: #ff7f0e"/>
     <use xlink:href="#m4548e217ef" x="141.807273" y="364.280367" style="fill: #ff7f0e; stroke: #ff7f0e"/>
     <use xlink:href="#m4548e217ef" x="165.329091" y="360.898511" style="fill: #ff7f0e; stroke: #ff7f0e"/>
     <use xlink:href="#m4548e217ef" x="188.850909" y="356.877894" style="fill: #ff7f0e; stroke: #ff7f0e"/>
     <use xlink:href="#m4548e217ef" x="212.372727" y="352.20388" style="fill: #ff7f0e; stroke: #ff7f0e"/>
     <use xlink:href="#m4548e217ef" x="235.894545" y="346.203725" style="fill: #ff7f0e; stroke: #ff7f0e"/>
     <use xlink:href="#m4548e217ef" x="259.416364" y="340.756944" style="fill: #ff7f0e; stroke: #ff7f0e"/>
     <use xlink:href="#m4548e217ef" x="282.938182" y="331.963361" style="fill: #ff7f0e; stroke: #ff7f0e"/>
     <use xlink:href="#m4548e217ef" x="306.46" y="324.583663" style="fill: #ff7f0e; stroke: #ff7f0e"/>
     <use xlink:href="#m4548e217ef" x="329.981818" y="315.909736" style="fill: #ff7f0e; stroke: #ff7f0e"/>
     <use xlink:href="#m4548e217ef" x="353.503636" y="304.159376" style="fill: #ff7f0e; stroke: #ff7f0e"/>
     <use xlink:href="#m4548e217ef" x="377.025455" y="290.797657" style="fill: #ff7f0e; stroke: #ff7f0e"/>
     <use xlink:href="#m4548e217ef" x="400.547273" y="274.64665" style="fill: #ff7f0e; stroke: #ff7f0e"/>
     <use xlink:href="#m4548e217ef" x="424.069091" y="252.415527" style="fill: #ff7f0e; stroke: #ff7f0e"/>
     <use xlink:href="#m4548e217ef" x="447.590909" y="235.114294" style="fill: #ff7f0e; stroke: #ff7f0e"/>
     <use xlink:href="#m4548e217ef" x="471.112727" y="205.569869" style="fill: #ff7f0e; stroke: #ff7f0e"/>
     <use xlink:href="#m4548e217ef" x="494.634545" y="177.876758" style="fill: #ff7f0e; stroke: #ff7f0e"/>
     <use xlink:href="#m4548e217ef" x="518.156364" y="134.802838" style="fill: #ff7f0e; stroke: #ff7f0e"/>
     <use xlink:href="#m4548e217ef" x="541.678182" y="87.959536" style="fill: #ff7f0e; stroke: #ff7f0e"/>
    </g>
   </g>
   <g id="line2d_16">
    <g clip-path="url(#p8f719f02a1)">
     <use xlink:href="#m4548e217ef" x="71.241818" y="372.110918" style="fill: #ff7f0e; stroke: #ff7f0e"/>
     <use xlink:href="#m4548e217ef" x="94.763636" y="369.86601" style="fill: #ff7f0e; stroke: #ff7f0e"/>
     <use xlink:href="#m4548e217ef" x="118.285455" y="367.082077" style="fill: #ff7f0e; stroke: #ff7f0e"/>
     <use xlink:href="#m4548e217ef" x="141.807273" y="364.092959" style="fill: #ff7f0e; stroke: #ff7f0e"/>
     <use xlink:href="#m4548e217ef" x="165.329091" y="360.610794" style="fill: #ff7f0e; stroke: #ff7f0e"/>
     <use xlink:href="#m4548e217ef" x="188.850909" y="356.619591" style="fill: #ff7f0e; stroke: #ff7f0e"/>
     <use xlink:href="#m4548e217ef" x="212.372727" y="351.903812" style="fill: #ff7f0e; stroke: #ff7f0e"/>
     <use xlink:href="#m4548e217ef" x="235.894545" y="345.923933" style="fill: #ff7f0e; stroke: #ff7f0e"/>
     <use xlink:href="#m4548e217ef" x="259.416364" y="339.422878" style="fill: #ff7f0e; stroke: #ff7f0e"/>
     <use xlink:href="#m4548e217ef" x="282.938182" y="331.608891" style="fill: #ff7f0e; stroke: #ff7f0e"/>
     <use xlink:href="#m4548e217ef" x="306.46" y="324.123315" style="fill: #ff7f0e; stroke: #ff7f0e"/>
     <use xlink:href="#m4548e217ef" x="329.981818" y="315.189086" style="fill: #ff7f0e; stroke: #ff7f0e"/>
     <use xlink:href="#m4548e217ef" x="353.503636" y="301.807662" style="fill: #ff7f0e; stroke: #ff7f0e"/>
     <use xlink:href="#m4548e217ef" x="377.025455" y="290.21087" style="fill: #ff7f0e; stroke: #ff7f0e"/>
     <use xlink:href="#m4548e217ef" x="400.547273" y="273.719172" style="fill: #ff7f0e; stroke: #ff7f0e"/>
     <use xlink:href="#m4548e217ef" x="424.069091" y="249.317462" style="fill: #ff7f0e; stroke: #ff7f0e"/>
     <use xlink:href="#m4548e217ef" x="447.590909" y="233.437895" style="fill: #ff7f0e; stroke: #ff7f0e"/>
     <use xlink:href="#m4548e217ef" x="471.112727" y="205.002716" style="fill: #ff7f0e; stroke: #ff7f0e"/>
     <use xlink:href="#m4548e217ef" x="494.634545" y="174.238384" style="fill: #ff7f0e; stroke: #ff7f0e"/>
     <use xlink:href="#m4548e217ef" x="518.156364" y="133.75856" style="fill: #ff7f0e; stroke: #ff7f0e"/>
     <use xlink:href="#m4548e217ef" x="541.678182" y="85.126627" style="fill: #ff7f0e; stroke: #ff7f0e"/>
    </g>
   </g>
   <g id="LineCollection_3">
    <path d="M 71.241818 372.111918 
L 71.241818 371.599167 
" clip-path="url(#p8f719f02a1)" style="fill: none; stroke: #2ca02c; stroke-width: 1.5"/>
    <path d="M 94.763636 370.068197 
L 94.763636 369.713512 
" clip-path="url(#p8f719f02a1)" style="fill: none; stroke: #2ca02c; stroke-width: 1.5"/>
    <path d="M 118.285455 367.051663 
L 118.285455 366.380347 
" clip-path="url(#p8f719f02a1)" style="fill: none; stroke: #2ca02c; stroke-width: 1.5"/>
    <path d="M 141.807273 364.500546 
L 141.807273 364.367754 
" clip-path="url(#p8f719f02a1)" style="fill: none; stroke: #2ca02c; stroke-width: 1.5"/>
    <path d="M 165.329091 361.098628 
L 165.329091 360.509772 
" clip-path="url(#p8f719f02a1)" style="fill: none; stroke: #2ca02c; stroke-width: 1.5"/>
    <path d="M 188.850909 356.372925 
L 188.850909 353.97916 
" clip-path="url(#p8f719f02a1)" style="fill: none; stroke: #2ca02c; stroke-width: 1.5"/>
    <path d="M 212.372727 351.186089 
L 212.372727 350.942779 
" clip-path="url(#p8f719f02a1)" style="fill: none; stroke: #2ca02c; stroke-width: 1.5"/>
    <path d="M 235.894545 345.64771 
L 235.894545 345.579315 
" clip-path="url(#p8f719f02a1)" style="fill: none; stroke: #2ca02c; stroke-width: 1.5"/>
    <path d="M 259.416364 338.606133 
L 259.416364 338.194618 
" clip-path="url(#p8f719f02a1)" style="fill: none; stroke: #2ca02c; stroke-width: 1.5"/>
    <path d="M 282.938182 331.178529 
L 282.938182 330.103337 
" clip-path="url(#p8f719f02a1)" style="fill: none; stroke: #2ca02c; stroke-width: 1.5"/>
    <path d="M 306.46 323.936477 
L 306.46 322.613049 
" clip-path="url(#p8f719f02a1)" style="fill: none; stroke: #2ca02c; stroke-width: 1.5"/>
    <path d="M 329.981818 312.722785 
L 329.981818 312.140425 
" clip-path="url(#p8f719f02a1)" style="fill: none; stroke: #2ca02c; stroke-width: 1.5"/>
    <path d="M 353.503636 300.028598 
L 353.503636 299.527199 
" clip-path="url(#p8f719f02a1)" style="fill: none; stroke: #2ca02c; stroke-width: 1.5"/>
    <path d="M 377.025455 286.708216 
L 377.025455 284.527133 
" clip-path="url(#p8f719f02a1)" style="fill: none; stroke: #2ca02c; stroke-width: 1.5"/>
    <path d="M 400.547273 268.916578 
L 400.547273 268.256113 
" clip-path="url(#p8f719f02a1)" style="fill: none; stroke: #2ca02c; stroke-width: 1.5"/>
    <path d="M 424.069091 248.697263 
L 424.069091 248.112262 
" clip-path="url(#p8f719f02a1)" style="fill: none; stroke: #2ca02c; stroke-width: 1.5"/>
    <path d="M 447.590909 224.617254 
L 447.590909 222.831122 
" clip-path="url(#p8f719f02a1)" style="fill: none; stroke: #2ca02c; stroke-width: 1.5"/>
    <path d="M 471.112727 195.377038 
L 471.112727 191.583168 
" clip-path="url(#p8f719f02a1)" style="fill: none; stroke: #2ca02c; stroke-width: 1.5"/>
    <path d="M 494.634545 155.798276 
L 494.634545 154.955543 
" clip-path="url(#p8f719f02a1)" style="fill: none; stroke: #2ca02c; stroke-width: 1.5"/>
    <path d="M 518.156364 109.780358 
L 518.156364 108.322495 
" clip-path="url(#p8f719f02a1)" style="fill: none; stroke: #2ca02c; stroke-width: 1.5"/>
    <path d="M 541.678182 51.660394 
L 541.678182 43.387273 
" clip-path="url(#p8f719f02a1)" style="fill: none; stroke: #2ca02c; stroke-width: 1.5"/>
   </g>
   <g id="line2d_17">
    <defs>
     <path id="mebb76982bc" d="M 3 0 
L -3 -0 
" style="stroke: #2ca02c"/>
    </defs>
    <g clip-path="url(#p8f719f02a1)">
     <use xlink:href="#mebb76982bc" x="71.241818" y="372.111918" style="fill: #2ca02c; stroke: #2ca02c"/>
     <use xlink:href="#mebb76982bc" x="94.763636" y="370.068197" style="fill: #2ca02c; stroke: #2ca02c"/>
     <use xlink:href="#mebb76982bc" x="118.285455" y="367.051663" style="fill: #2ca02c; stroke: #2ca02c"/>
     <use xlink:href="#mebb76982bc" x="141.807273" y="364.500546" style="fill: #2ca02c; stroke: #2ca02c"/>
     <use xlink:href="#mebb76982bc" x="165.329091" y="361.098628" style="fill: #2ca02c; stroke: #2ca02c"/>
     <use xlink:href="#mebb76982bc" x="188.850909" y="356.372925" style="fill: #2ca02c; stroke: #2ca02c"/>
     <use xlink:href="#mebb76982bc" x="212.372727" y="351.186089" style="fill: #2ca02c; stroke: #2ca02c"/>
     <use xlink:href="#mebb76982bc" x="235.894545" y="345.64771" style="fill: #2ca02c; stroke: #2ca02c"/>
     <use xlink:href="#mebb76982bc" x="259.416364" y="338.606133" style="fill: #2ca02c; stroke: #2ca02c"/>
     <use xlink:href="#mebb76982bc" x="282.938182" y="331.178529" style="fill: #2ca02c; stroke: #2ca02c"/>
     <use xlink:href="#mebb76982bc" x="306.46" y="323.936477" style="fill: #2ca02c; stroke: #2ca02c"/>
     <use xlink:href="#mebb76982bc" x="329.981818" y="312.722785" style="fill: #2ca02c; stroke: #2ca02c"/>
     <use xlink:href="#mebb76982bc" x="353.503636" y="300.028598" style="fill: #2ca02c; stroke: #2ca02c"/>
     <use xlink:href="#mebb76982bc" x="377.025455" y="286.708216" style="fill: #2ca02c; stroke: #2ca02c"/>
     <use xlink:href="#mebb76982bc" x="400.547273" y="268.916578" style="fill: #2ca02c; stroke: #2ca02c"/>
     <use xlink:href="#mebb76982bc" x="424.069091" y="248.697263" style="fill: #2ca02c; stroke: #2ca02c"/>
     <use xlink:href="#mebb76982bc" x="447.590909" y="224.617254" style="fill: #2ca02c; stroke: #2ca02c"/>
     <use xlink:href="#mebb76982bc" x="471.112727" y="195.377038" style="fill: #2ca02c; stroke: #2ca02c"/>
     <use xlink:href="#mebb76982bc" x="494.634545" y="155.798276" style="fill: #2ca02c; stroke: #2ca02c"/>
     <use xlink:href="#mebb76982bc" x="518.156364" y="109.780358" style="fill: #2ca02c; stroke: #2ca02c"/>
     <use xlink:href="#mebb76982bc" x="541.678182" y="51.660394" style="fill: #2ca02c; stroke: #2ca02c"/>
    </g>
   </g>
   <g id="line2d_18">
    <g clip-path="url(#p8f719f02a1)">
     <use xlink:href="#mebb76982bc" x="71.241818" y="371.599167" style="fill: #2ca02c; stroke: #2ca02c"/>
     <use xlink:href="#mebb76982bc" x="94.763636" y="369.713512" style="fill: #2ca02c; stroke: #2ca02c"/>
     <use xlink:href="#mebb76982bc" x="118.285455" y="366.380347" style="fill: #2ca02c; stroke: #2ca02c"/>
     <use xlink:href="#mebb76982bc" x="141.807273" y="364.367754" style="fill: #2ca02c; stroke: #2ca02c"/>
     <use xlink:href="#mebb76982bc" x="165.329091" y="360.509772" style="fill: #2ca02c; stroke: #2ca02c"/>
     <use xlink:href="#mebb76982bc" x="188.850909" y="353.97916" style="fill: #2ca02c; stroke: #2ca02c"/>
     <use xlink:href="#mebb76982bc" x="212.372727" y="350.942779" style="fill: #2ca02c; stroke: #2ca02c"/>
     <use xlink:href="#mebb76982bc" x="235.894545" y="345.579315" style="fill: #2ca02c; stroke: #2ca02c"/>
     <use xlink:href="#mebb76982bc" x="259.416364" y="338.194618" style="fill: #2ca02c; stroke: #2ca02c"/>
     <use xlink:href="#mebb76982bc" x="282.938182" y="330.103337" style="fill: #2ca02c; stroke: #2ca02c"/>
     <use xlink:href="#mebb76982bc" x="306.46" y="322.613049" style="fill: #2ca02c; stroke: #2ca02c"/>
     <use xlink:href="#mebb76982bc" x="329.981818" y="312.140425" style="fill: #2ca02c; stroke: #2ca02c"/>
     <use xlink:href="#mebb76982bc" x="353.503636" y="299.527199" style="fill: #2ca02c; stroke: #2ca02c"/>
     <use xlink:href="#mebb76982bc" x="377.025455" y="284.527133" style="fill: #2ca02c; stroke: #2ca02c"/>
     <use xlink:href="#mebb76982bc" x="400.547273" y="268.256113" style="fill: #2ca02c; stroke: #2ca02c"/>
     <use xlink:href="#mebb76982bc" x="424.069091" y="248.112262" style="fill: #2ca02c; stroke: #2ca02c"/>
     <use xlink:href="#mebb76982bc" x="447.590909" y="222.831122" style="fill: #2ca02c; stroke: #2ca02c"/>
     <use xlink:href="#mebb76982bc" x="471.112727" y="191.583168" style="fill: #2ca02c; stroke: #2ca02c"/>
     <use xlink:href="#mebb76982bc" x="494.634545" y="154.955543" style="fill: #2ca02c; stroke: #2ca02c"/>
     <use xlink:href="#mebb76982bc" x="518.156364" y="108.322495" style="fill: #2ca02c; stroke: #2ca02c"/>
     <use xlink:href="#mebb76982bc" x="541.678182" y="43.387273" style="fill: #2ca02c; stroke: #2ca02c"/>
    </g>
   </g>
   <g id="LineCollection_4">
    <path d="M 71.241818 369.689595 
L 71.241818 369.435433 
" clip-path="url(#p8f719f02a1)" style="fill: none; stroke: #d62728; stroke-width: 1.5"/>
    <path d="M 94.763636 367.492306 
L 94.763636 366.946786 
" clip-path="url(#p8f719f02a1)" style="fill: none; stroke: #d62728; stroke-width: 1.5"/>
    <path d="M 118.285455 364.067756 
L 118.285455 363.135424 
" clip-path="url(#p8f719f02a1)" style="fill: none; stroke: #d62728; stroke-width: 1.5"/>
    <path d="M 141.807273 361.272972 
L 141.807273 361.22521 
" clip-path="url(#p8f719f02a1)" style="fill: none; stroke: #d62728; stroke-width: 1.5"/>
    <path d="M 165.329091 357.410207 
L 165.329091 357.344167 
" clip-path="url(#p8f719f02a1)" style="fill: none; stroke: #d62728; stroke-width: 1.5"/>
    <path d="M 188.850909 352.739406 
L 188.850909 350.072131 
" clip-path="url(#p8f719f02a1)" style="fill: none; stroke: #d62728; stroke-width: 1.5"/>
    <path d="M 212.372727 347.478534 
L 212.372727 347.227513 
" clip-path="url(#p8f719f02a1)" style="fill: none; stroke: #d62728; stroke-width: 1.5"/>
    <path d="M 235.894545 341.433758 
L 235.894545 341.025599 
" clip-path="url(#p8f719f02a1)" style="fill: none; stroke: #d62728; stroke-width: 1.5"/>
    <path d="M 259.416364 334.931847 
L 259.416364 334.522189 
" clip-path="url(#p8f719f02a1)" style="fill: none; stroke: #d62728; stroke-width: 1.5"/>
    <path d="M 282.938182 326.571482 
L 282.938182 325.780438 
" clip-path="url(#p8f719f02a1)" style="fill: none; stroke: #d62728; stroke-width: 1.5"/>
    <path d="M 306.46 318.803544 
L 306.46 317.445561 
" clip-path="url(#p8f719f02a1)" style="fill: none; stroke: #d62728; stroke-width: 1.5"/>
    <path d="M 329.981818 307.841943 
L 329.981818 307.282287 
" clip-path="url(#p8f719f02a1)" style="fill: none; stroke: #d62728; stroke-width: 1.5"/>
    <path d="M 353.503636 295.682068 
L 353.503636 295.122697 
" clip-path="url(#p8f719f02a1)" style="fill: none; stroke: #d62728; stroke-width: 1.5"/>
    <path d="M 377.025455 281.593559 
L 377.025455 278.005517 
" clip-path="url(#p8f719f02a1)" style="fill: none; stroke: #d62728; stroke-width: 1.5"/>
    <path d="M 400.547273 263.900159 
L 400.547273 263.640286 
" clip-path="url(#p8f719f02a1)" style="fill: none; stroke: #d62728; stroke-width: 1.5"/>
    <path d="M 424.069091 244.134767 
L 424.069091 243.510784 
" clip-path="url(#p8f719f02a1)" style="fill: none; stroke: #d62728; stroke-width: 1.5"/>
    <path d="M 447.590909 222.040792 
L 447.590909 220.363179 
" clip-path="url(#p8f719f02a1)" style="fill: none; stroke: #d62728; stroke-width: 1.5"/>
    <path d="M 471.112727 194.4562 
L 471.112727 191.871813 
" clip-path="url(#p8f719f02a1)" style="fill: none; stroke: #d62728; stroke-width: 1.5"/>
    <path d="M 494.634545 159.92527 
L 494.634545 156.834487 
" clip-path="url(#p8f719f02a1)" style="fill: none; stroke: #d62728; stroke-width: 1.5"/>
    <path d="M 518.156364 118.648976 
L 518.156364 115.675707 
" clip-path="url(#p8f719f02a1)" style="fill: none; stroke: #d62728; stroke-width: 1.5"/>
    <path d="M 541.678182 62.006508 
L 541.678182 58.334936 
" clip-path="url(#p8f719f02a1)" style="fill: none; stroke: #d62728; stroke-width: 1.5"/>
   </g>
   <g id="line2d_19">
    <defs>
     <path id="mba99301072" d="M 3 0 
L -3 -0 
" style="stroke: #d62728"/>
    </defs>
    <g clip-path="url(#p8f719f02a1)">
     <use xlink:href="#mba99301072" x="71.241818" y="369.689595" style="fill: #d62728; stroke: #d62728"/>
     <use xlink:href="#mba99301072" x="94.763636" y="367.492306" style="fill: #d62728; stroke: #d62728"/>
     <use xlink:href="#mba99301072" x="118.285455" y="364.067756" style="fill: #d62728; stroke: #d62728"/>
     <use xlink:href="#mba99301072" x="141.807273" y="361.272972" style="fill: #d62728; stroke: #d62728"/>
     <use xlink:href="#mba99301072" x="165.329091" y="357.410207" style="fill: #d62728; stroke: #d62728"/>
     <use xlink:href="#mba99301072" x="188.850909" y="352.739406" style="fill: #d62728; stroke: #d62728"/>
     <use xlink:href="#mba99301072" x="212.372727" y="347.478534" style="fill: #d62728; stroke: #d62728"/>
     <use xlink:href="#mba99301072" x="235.894545" y="341.433758" style="fill: #d62728; stroke: #d62728"/>
     <use xlink:href="#mba99301072" x="259.416364" y="334.931847" style="fill: #d62728; stroke: #d62728"/>
     <use xlink:href="#mba99301072" x="282.938182" y="326.571482" style="fill: #d62728; stroke: #d62728"/>
     <use xlink:href="#mba99301072" x="306.46" y="318.803544" style="fill: #d62728; stroke: #d62728"/>
     <use xlink:href="#mba99301072" x="329.981818" y="307.841943" style="fill: #d62728; stroke: #d62728"/>
     <use xlink:href="#mba99301072" x="353.503636" y="295.682068" style="fill: #d62728; stroke: #d62728"/>
     <use xlink:href="#mba99301072" x="377.025455" y="281.593559" style="fill: #d62728; stroke: #d62728"/>
     <use xlink:href="#mba99301072" x="400.547273" y="263.900159" style="fill: #d62728; stroke: #d62728"/>
     <use xlink:href="#mba99301072" x="424.069091" y="244.134767" style="fill: #d62728; stroke: #d62728"/>
     <use xlink:href="#mba99301072" x="447.590909" y="222.040792" style="fill: #d62728; stroke: #d62728"/>
     <use xlink:href="#mba99301072" x="471.112727" y="194.4562" style="fill: #d62728; stroke: #d62728"/>
     <use xlink:href="#mba99301072" x="494.634545" y="159.92527" style="fill: #d62728; stroke: #d62728"/>
     <use xlink:href="#mba99301072" x="518.156364" y="118.648976" style="fill: #d62728; stroke: #d62728"/>
     <use xlink:href="#mba99301072" x="541.678182" y="62.006508" style="fill: #d62728; stroke: #d62728"/>
    </g>
   </g>
   <g id="line2d_20">
    <g clip-path="url(#p8f719f02a1)">
     <use xlink:href="#mba99301072" x="71.241818" y="369.435433" style="fill: #d62728; stroke: #d62728"/>
     <use xlink:href="#mba99301072" x="94.763636" y="366.946786" style="fill: #d62728; stroke: #d62728"/>
     <use xlink:href="#mba99301072" x="118.285455" y="363.135424" style="fill: #d62728; stroke: #d62728"/>
     <use xlink:href="#mba99301072" x="141.807273" y="361.22521" style="fill: #d62728; stroke: #d62728"/>
     <use xlink:href="#mba99301072" x="165.329091" y="357.344167" style="fill: #d62728; stroke: #d62728"/>
     <use xlink:href="#mba99301072" x="188.850909" y="350.072131" style="fill: #d62728; stroke: #d62728"/>
     <use xlink:href="#mba99301072" x="212.372727" y="347.227513" style="fill: #d62728; stroke: #d62728"/>
     <use xlink:href="#mba99301072" x="235.894545" y="341.025599" style="fill: #d62728; stroke: #d62728"/>
     <use xlink:href="#mba99301072" x="259.416364" y="334.522189" style="fill: #d62728; stroke: #d62728"/>
     <use xlink:href="#mba99301072" x="282.938182" y="325.780438" style="fill: #d62728; stroke: #d62728"/>
     <use xlink:href="#mba99301072" x="306.46" y="317.445561" style="fill: #d62728; stroke: #d62728"/>
     <use xlink:href="#mba99301072" x="329.981818" y="307.282287" style="fill: #d62728; stroke: #d62728"/>
     <use xlink:href="#mba99301072" x="353.503636" y="295.122697" style="fill: #d62728; stroke: #d62728"/>
     <use xlink:href="#mba99301072" x="377.025455" y="278.005517" style="fill: #d62728; stroke: #d62728"/>
     <use xlink:href="#mba99301072" x="400.547273" y="263.640286" style="fill: #d62728; stroke: #d62728"/>
     <use xlink:href="#mba99301072" x="424.069091" y="243.510784" style="fill: #d62728; stroke: #d62728"/>
     <use xlink:href="#mba99301072" x="447.590909" y="220.363179" style="fill: #d62728; stroke: #d62728"/>
     <use xlink:href="#mba99301072" x="471.112727" y="191.871813" style="fill: #d62728; stroke: #d62728"/>
     <use xlink:href="#mba99301072" x="494.634545" y="156.834487" style="fill: #d62728; stroke: #d62728"/>
     <use xlink:href="#mba99301072" x="518.156364" y="115.675707" style="fill: #d62728; stroke: #d62728"/>
     <use xlink:href="#mba99301072" x="541.678182" y="58.334936" style="fill: #d62728; stroke: #d62728"/>
    </g>
   </g>
   <g id="line2d_21">
    <path d="M 71.241818 373.437631 
L 94.763636 371.433391 
L 118.285455 368.585075 
L 141.807273 365.592273 
L 165.329091 362.263334 
L 188.850909 358.004347 
L 212.372727 353.270305 
L 235.894545 347.354809 
L 259.416364 340.42532 
L 282.938182 332.30798 
L 306.46 324.46068 
L 329.981818 314.177521 
L 353.503636 301.742051 
L 377.025455 287.532387 
L 400.547273 271.303104 
L 424.069091 246.852817 
L 447.590909 223.876242 
L 471.112727 194.592962 
L 494.634545 158.801059 
L 518.156364 112.661472 
L 541.678182 57.739425 
" clip-path="url(#p8f719f02a1)" style="fill: none; stroke: #1f77b4; stroke-width: 1.5; stroke-linecap: square"/>
   </g>
   <g id="line2d_22">
    <path d="M 71.241818 372.252649 
L 94.763636 370.088444 
L 118.285455 367.274069 
L 141.807273 364.192953 
L 165.329091 360.7445 
L 188.850909 356.755911 
L 212.372727 352.043016 
L 235.894545 346.125121 
L 259.416364 340.123609 
L 282.938182 331.766129 
L 306.46 324.389372 
L 329.981818 315.550339 
L 353.503636 303.402216 
L 377.025455 290.539339 
L 400.547273 274.156131 
L 424.069091 251.592142 
L 447.590909 234.422873 
L 471.112727 205.249025 
L 494.634545 175.209198 
L 518.156364 134.277522 
L 541.678182 86.475929 
" clip-path="url(#p8f719f02a1)" style="fill: none; stroke: #ff7f0e; stroke-width: 1.5; stroke-linecap: square"/>
   </g>
   <g id="line2d_23">
    <path d="M 71.241818 371.987293 
L 94.763636 369.906019 
L 118.285455 366.768515 
L 141.807273 364.420357 
L 165.329091 360.704134 
L 188.850909 355.833473 
L 212.372727 351.100631 
L 235.894545 345.609571 
L 259.416364 338.370604 
L 282.938182 330.86164 
L 306.46 323.018709 
L 329.981818 312.423831 
L 353.503636 299.758587 
L 377.025455 285.852132 
L 400.547273 268.609784 
L 424.069091 248.350503 
L 447.590909 223.418579 
L 471.112727 192.806159 
L 494.634545 155.320108 
L 518.156364 108.832447 
L 541.678182 49.522091 
" clip-path="url(#p8f719f02a1)" style="fill: none; stroke: #2ca02c; stroke-width: 1.5; stroke-linecap: square"/>
   </g>
   <g id="line2d_24">
    <path d="M 71.241818 369.62387 
L 94.763636 367.161067 
L 118.285455 363.858073 
L 141.807273 361.254238 
L 165.329091 357.372668 
L 188.850909 352.151791 
L 212.372727 347.331377 
L 235.894545 341.237596 
L 259.416364 334.701531 
L 282.938182 326.28138 
L 306.46 317.970663 
L 329.981818 307.681122 
L 353.503636 295.387169 
L 377.025455 280.41686 
L 400.547273 263.798038 
L 424.069091 243.876435 
L 447.590909 220.7894 
L 471.112727 192.610497 
L 494.634545 158.819236 
L 518.156364 116.68693 
L 541.678182 60.820942 
" clip-path="url(#p8f719f02a1)" style="fill: none; stroke: #d62728; stroke-width: 1.5; stroke-linecap: square"/>
   </g>
   <g id="patch_3">
    <path d="M 47.72 390.04 
L 47.72 26.88 
" style="fill: none; stroke: #000000; stroke-width: 0.8; stroke-linejoin: miter; stroke-linecap: square"/>
   </g>
   <g id="patch_4">
    <path d="M 565.2 390.04 
L 565.2 26.88 
" style="fill: none; stroke: #000000; stroke-width: 0.8; stroke-linejoin: miter; stroke-linecap: square"/>
   </g>
   <g id="patch_5">
    <path d="M 47.72 390.04 
L 565.2 390.04 
" style="fill: none; stroke: #000000; stroke-width: 0.8; stroke-linejoin: miter; stroke-linecap: square"/>
   </g>
   <g id="patch_6">
    <path d="M 47.72 26.88 
L 565.2 26.88 
" style="fill: none; stroke: #000000; stroke-width: 0.8; stroke-linejoin: miter; stroke-linecap: square"/>
   </g>
   <g id="text_15">
    <!-- Python3 implementations of Bron-Kerbosch on a random graph of order 100 -->
    <g transform="translate(47.72 20.88)scale(0.12 -0.12)">
     <defs>
      <path id="DejaVuSans-50" d="M 1259 4147 
L 1259 2394 
L 2053 2394 
Q 2494 2394 2734 2622 
Q 2975 2850 2975 3272 
Q 2975 3691 2734 3919 
Q 2494 4147 2053 4147 
L 1259 4147 
z
M 628 4666 
L 2053 4666 
Q 2838 4666 3239 4311 
Q 3641 3956 3641 3272 
Q 3641 2581 3239 2228 
Q 2838 1875 2053 1875 
L 1259 1875 
L 1259 0 
L 628 0 
L 628 4666 
z
" transform="scale(0.015625)"/>
      <path id="DejaVuSans-79" d="M 2059 -325 
Q 1816 -950 1584 -1140 
Q 1353 -1331 966 -1331 
L 506 -1331 
L 506 -850 
L 844 -850 
Q 1081 -850 1212 -737 
Q 1344 -625 1503 -206 
L 1606 56 
L 191 3500 
L 800 3500 
L 1894 763 
L 2988 3500 
L 3597 3500 
L 2059 -325 
z
" transform="scale(0.015625)"/>
      <path id="DejaVuSans-68" d="M 3513 2113 
L 3513 0 
L 2938 0 
L 2938 2094 
Q 2938 2591 2744 2837 
Q 2550 3084 2163 3084 
Q 1697 3084 1428 2787 
Q 1159 2491 1159 1978 
L 1159 0 
L 581 0 
L 581 4863 
L 1159 4863 
L 1159 2956 
Q 1366 3272 1645 3428 
Q 1925 3584 2291 3584 
Q 2894 3584 3203 3211 
Q 3513 2838 3513 2113 
z
" transform="scale(0.015625)"/>
      <path id="DejaVuSans-6d" d="M 3328 2828 
Q 3544 3216 3844 3400 
Q 4144 3584 4550 3584 
Q 5097 3584 5394 3201 
Q 5691 2819 5691 2113 
L 5691 0 
L 5113 0 
L 5113 2094 
Q 5113 2597 4934 2840 
Q 4756 3084 4391 3084 
Q 3944 3084 3684 2787 
Q 3425 2491 3425 1978 
L 3425 0 
L 2847 0 
L 2847 2094 
Q 2847 2600 2669 2842 
Q 2491 3084 2119 3084 
Q 1678 3084 1418 2786 
Q 1159 2488 1159 1978 
L 1159 0 
L 581 0 
L 581 3500 
L 1159 3500 
L 1159 2956 
Q 1356 3278 1631 3431 
Q 1906 3584 2284 3584 
Q 2666 3584 2933 3390 
Q 3200 3197 3328 2828 
z
" transform="scale(0.015625)"/>
      <path id="DejaVuSans-6c" d="M 603 4863 
L 1178 4863 
L 1178 0 
L 603 0 
L 603 4863 
z
" transform="scale(0.015625)"/>
      <path id="DejaVuSans-61" d="M 2194 1759 
Q 1497 1759 1228 1600 
Q 959 1441 959 1056 
Q 959 750 1161 570 
Q 1363 391 1709 391 
Q 2188 391 2477 730 
Q 2766 1069 2766 1631 
L 2766 1759 
L 2194 1759 
z
M 3341 1997 
L 3341 0 
L 2766 0 
L 2766 531 
Q 2569 213 2275 61 
Q 1981 -91 1556 -91 
Q 1019 -91 701 211 
Q 384 513 384 1019 
Q 384 1609 779 1909 
Q 1175 2209 1959 2209 
L 2766 2209 
L 2766 2266 
Q 2766 2663 2505 2880 
Q 2244 3097 1772 3097 
Q 1472 3097 1187 3025 
Q 903 2953 641 2809 
L 641 3341 
Q 956 3463 1253 3523 
Q 1550 3584 1831 3584 
Q 2591 3584 2966 3190 
Q 3341 2797 3341 1997 
z
" transform="scale(0.015625)"/>
      <path id="DejaVuSans-66" d="M 2375 4863 
L 2375 4384 
L 1825 4384 
Q 1516 4384 1395 4259 
Q 1275 4134 1275 3809 
L 1275 3500 
L 2222 3500 
L 2222 3053 
L 1275 3053 
L 1275 0 
L 697 0 
L 697 3053 
L 147 3053 
L 147 3500 
L 697 3500 
L 697 3744 
Q 697 4328 969 4595 
Q 1241 4863 1831 4863 
L 2375 4863 
z
" transform="scale(0.015625)"/>
      <path id="DejaVuSans-42" d="M 1259 2228 
L 1259 519 
L 2272 519 
Q 2781 519 3026 730 
Q 3272 941 3272 1375 
Q 3272 1813 3026 2020 
Q 2781 2228 2272 2228 
L 1259 2228 
z
M 1259 4147 
L 1259 2741 
L 2194 2741 
Q 2656 2741 2882 2914 
Q 3109 3088 3109 3444 
Q 3109 3797 2882 3972 
Q 2656 4147 2194 4147 
L 1259 4147 
z
M 628 4666 
L 2241 4666 
Q 2963 4666 3353 4366 
Q 3744 4066 3744 3513 
Q 3744 3084 3544 2831 
Q 3344 2578 2956 2516 
Q 3422 2416 3680 2098 
Q 3938 1781 3938 1306 
Q 3938 681 3513 340 
Q 3088 0 2303 0 
L 628 0 
L 628 4666 
z
" transform="scale(0.015625)"/>
      <path id="DejaVuSans-72" d="M 2631 2963 
Q 2534 3019 2420 3045 
Q 2306 3072 2169 3072 
Q 1681 3072 1420 2755 
Q 1159 2438 1159 1844 
L 1159 0 
L 581 0 
L 581 3500 
L 1159 3500 
L 1159 2956 
Q 1341 3275 1631 3429 
Q 1922 3584 2338 3584 
Q 2397 3584 2469 3576 
Q 2541 3569 2628 3553 
L 2631 2963 
z
" transform="scale(0.015625)"/>
      <path id="DejaVuSans-2d" d="M 313 2009 
L 1997 2009 
L 1997 1497 
L 313 1497 
L 313 2009 
z
" transform="scale(0.015625)"/>
      <path id="DejaVuSans-4b" d="M 628 4666 
L 1259 4666 
L 1259 2694 
L 3353 4666 
L 4166 4666 
L 1850 2491 
L 4331 0 
L 3500 0 
L 1259 2247 
L 1259 0 
L 628 0 
L 628 4666 
z
" transform="scale(0.015625)"/>
      <path id="DejaVuSans-62" d="M 3116 1747 
Q 3116 2381 2855 2742 
Q 2594 3103 2138 3103 
Q 1681 3103 1420 2742 
Q 1159 2381 1159 1747 
Q 1159 1113 1420 752 
Q 1681 391 2138 391 
Q 2594 391 2855 752 
Q 3116 1113 3116 1747 
z
M 1159 2969 
Q 1341 3281 1617 3432 
Q 1894 3584 2278 3584 
Q 2916 3584 3314 3078 
Q 3713 2572 3713 1747 
Q 3713 922 3314 415 
Q 2916 -91 2278 -91 
Q 1894 -91 1617 61 
Q 1341 213 1159 525 
L 1159 0 
L 581 0 
L 581 4863 
L 1159 4863 
L 1159 2969 
z
" transform="scale(0.015625)"/>
     </defs>
     <use xlink:href="#DejaVuSans-50"/>
     <use xlink:href="#DejaVuSans-79" x="60.302734"/>
     <use xlink:href="#DejaVuSans-74" x="119.482422"/>
     <use xlink:href="#DejaVuSans-68" x="158.691406"/>
     <use xlink:href="#DejaVuSans-6f" x="222.070312"/>
     <use xlink:href="#DejaVuSans-6e" x="283.251953"/>
     <use xlink:href="#DejaVuSans-33" x="346.630859"/>
     <use xlink:href="#DejaVuSans-20" x="410.253906"/>
     <use xlink:href="#DejaVuSans-69" x="442.041016"/>
     <use xlink:href="#DejaVuSans-6d" x="469.824219"/>
     <use xlink:href="#DejaVuSans-70" x="567.236328"/>
     <use xlink:href="#DejaVuSans-6c" x="630.712891"/>
     <use xlink:href="#DejaVuSans-65" x="658.496094"/>
     <use xlink:href="#DejaVuSans-6d" x="720.019531"/>
     <use xlink:href="#DejaVuSans-65" x="817.431641"/>
     <use xlink:href="#DejaVuSans-6e" x="878.955078"/>
     <use xlink:href="#DejaVuSans-74" x="942.333984"/>
     <use xlink:href="#DejaVuSans-61" x="981.542969"/>
     <use xlink:href="#DejaVuSans-74" x="1042.822266"/>
     <use xlink:href="#DejaVuSans-69" x="1082.03125"/>
     <use xlink:href="#DejaVuSans-6f" x="1109.814453"/>
     <use xlink:href="#DejaVuSans-6e" x="1170.996094"/>
     <use xlink:href="#DejaVuSans-73" x="1234.375"/>
     <use xlink:href="#DejaVuSans-20" x="1286.474609"/>
     <use xlink:href="#DejaVuSans-6f" x="1318.261719"/>
     <use xlink:href="#DejaVuSans-66" x="1379.443359"/>
     <use xlink:href="#DejaVuSans-20" x="1414.648438"/>
     <use xlink:href="#DejaVuSans-42" x="1446.435547"/>
     <use xlink:href="#DejaVuSans-72" x="1515.039062"/>
     <use xlink:href="#DejaVuSans-6f" x="1553.902344"/>
     <use xlink:href="#DejaVuSans-6e" x="1615.083984"/>
     <use xlink:href="#DejaVuSans-2d" x="1678.462891"/>
     <use xlink:href="#DejaVuSans-4b" x="1714.546875"/>
     <use xlink:href="#DejaVuSans-65" x="1775.123047"/>
     <use xlink:href="#DejaVuSans-72" x="1836.646484"/>
     <use xlink:href="#DejaVuSans-62" x="1877.759766"/>
     <use xlink:href="#DejaVuSans-6f" x="1941.236328"/>
     <use xlink:href="#DejaVuSans-73" x="2002.417969"/>
     <use xlink:href="#DejaVuSans-63" x="2054.517578"/>
     <use xlink:href="#DejaVuSans-68" x="2109.498047"/>
     <use xlink:href="#DejaVuSans-20" x="2172.876953"/>
     <use xlink:href="#DejaVuSans-6f" x="2204.664062"/>
     <use xlink:href="#DejaVuSans-6e" x="2265.845703"/>
     <use xlink:href="#DejaVuSans-20" x="2329.224609"/>
     <use xlink:href="#DejaVuSans-61" x="2361.011719"/>
     <use xlink:href="#DejaVuSans-20" x="2422.291016"/>
     <use xlink:href="#DejaVuSans-72" x="2454.078125"/>
     <use xlink:href="#DejaVuSans-61" x="2495.191406"/>
     <use xlink:href="#DejaVuSans-6e" x="2556.470703"/>
     <use xlink:href="#DejaVuSans-64" x="2619.849609"/>
     <use xlink:href="#DejaVuSans-6f" x="2683.326172"/>
     <use xlink:href="#DejaVuSans-6d" x="2744.507812"/>
     <use xlink:href="#DejaVuSans-20" x="2841.919922"/>
     <use xlink:href="#DejaVuSans-67" x="2873.707031"/>
     <use xlink:href="#DejaVuSans-72" x="2937.183594"/>
     <use xlink:href="#DejaVuSans-61" x="2978.296875"/>
     <use xlink:href="#DejaVuSans-70" x="3039.576172"/>
     <use xlink:href="#DejaVuSans-68" x="3103.052734"/>
     <use xlink:href="#DejaVuSans-20" x="3166.431641"/>
     <use xlink:href="#DejaVuSans-6f" x="3198.21875"/>
     <use xlink:href="#DejaVuSans-66" x="3259.400391"/>
     <use xlink:href="#DejaVuSans-20" x="3294.605469"/>
     <use xlink:href="#DejaVuSans-6f" x="3326.392578"/>
     <use xlink:href="#DejaVuSans-72" x="3387.574219"/>
     <use xlink:href="#DejaVuSans-64" x="3426.9375"/>
     <use xlink:href="#DejaVuSans-65" x="3490.414062"/>
     <use xlink:href="#DejaVuSans-72" x="3551.9375"/>
     <use xlink:href="#DejaVuSans-20" x="3593.050781"/>
     <use xlink:href="#DejaVuSans-31" x="3624.837891"/>
     <use xlink:href="#DejaVuSans-30" x="3688.460938"/>
     <use xlink:href="#DejaVuSans-30" x="3752.083984"/>
    </g>
   </g>
   <g id="legend_1">
    <g id="patch_7">
     <path d="M 54.72 93.5925 
L 134.010625 93.5925 
Q 136.010625 93.5925 136.010625 91.5925 
L 136.010625 33.88 
Q 136.010625 31.88 134.010625 31.88 
L 54.72 31.88 
Q 52.72 31.88 52.72 33.88 
L 52.72 91.5925 
Q 52.72 93.5925 54.72 93.5925 
z
" style="fill: #ffffff; opacity: 0.8; stroke: #cccccc; stroke-linejoin: miter"/>
    </g>
    <g id="LineCollection_5">
     <path d="M 66.72 44.978437 
L 66.72 34.978437 
" style="fill: none; stroke: #1f77b4; stroke-width: 1.5"/>
    </g>
    <g id="line2d_25">
     <g>
      <use xlink:href="#m43a44f7c42" x="66.72" y="44.978437" style="fill: #1f77b4; stroke: #1f77b4"/>
     </g>
    </g>
    <g id="line2d_26">
     <g>
      <use xlink:href="#m43a44f7c42" x="66.72" y="34.978437" style="fill: #1f77b4; stroke: #1f77b4"/>
     </g>
    </g>
    <g id="line2d_27">
     <path d="M 56.72 39.978437 
L 76.72 39.978437 
" style="fill: none; stroke: #1f77b4; stroke-width: 1.5; stroke-linecap: square"/>
    </g>
    <g id="line2d_28"/>
    <g id="text_16">
     <!-- Ver2-GP -->
     <g transform="translate(84.72 43.478437)scale(0.1 -0.1)">
      <defs>
       <path id="DejaVuSans-56" d="M 1831 0 
L 50 4666 
L 709 4666 
L 2188 738 
L 3669 4666 
L 4325 4666 
L 2547 0 
L 1831 0 
z
" transform="scale(0.015625)"/>
       <path id="DejaVuSans-47" d="M 3809 666 
L 3809 1919 
L 2778 1919 
L 2778 2438 
L 4434 2438 
L 4434 434 
Q 4069 175 3628 42 
Q 3188 -91 2688 -91 
Q 1594 -91 976 548 
Q 359 1188 359 2328 
Q 359 3472 976 4111 
Q 1594 4750 2688 4750 
Q 3144 4750 3555 4637 
Q 3966 4525 4313 4306 
L 4313 3634 
Q 3963 3931 3569 4081 
Q 3175 4231 2741 4231 
Q 1884 4231 1454 3753 
Q 1025 3275 1025 2328 
Q 1025 1384 1454 906 
Q 1884 428 2741 428 
Q 3075 428 3337 486 
Q 3600 544 3809 666 
z
" transform="scale(0.015625)"/>
      </defs>
      <use xlink:href="#DejaVuSans-56"/>
      <use xlink:href="#DejaVuSans-65" x="60.658203"/>
      <use xlink:href="#DejaVuSans-72" x="122.181641"/>
      <use xlink:href="#DejaVuSans-32" x="163.294922"/>
      <use xlink:href="#DejaVuSans-2d" x="226.917969"/>
      <use xlink:href="#DejaVuSans-47" x="266.626953"/>
      <use xlink:href="#DejaVuSans-50" x="344.117188"/>
     </g>
    </g>
    <g id="LineCollection_6">
     <path d="M 66.72 59.656563 
L 66.72 49.656563 
" style="fill: none; stroke: #ff7f0e; stroke-width: 1.5"/>
    </g>
    <g id="line2d_29">
     <g>
      <use xlink:href="#m4548e217ef" x="66.72" y="59.656563" style="fill: #ff7f0e; stroke: #ff7f0e"/>
     </g>
    </g>
    <g id="line2d_30">
     <g>
      <use xlink:href="#m4548e217ef" x="66.72" y="49.656563" style="fill: #ff7f0e; stroke: #ff7f0e"/>
     </g>
    </g>
    <g id="line2d_31">
     <path d="M 56.72 54.656563 
L 76.72 54.656563 
" style="fill: none; stroke: #ff7f0e; stroke-width: 1.5; stroke-linecap: square"/>
    </g>
    <g id="line2d_32"/>
    <g id="text_17">
     <!-- Ver2-GPX -->
     <g transform="translate(84.72 58.156563)scale(0.1 -0.1)">
      <defs>
       <path id="DejaVuSans-58" d="M 403 4666 
L 1081 4666 
L 2241 2931 
L 3406 4666 
L 4084 4666 
L 2584 2425 
L 4184 0 
L 3506 0 
L 2194 1984 
L 872 0 
L 191 0 
L 1856 2491 
L 403 4666 
z
" transform="scale(0.015625)"/>
      </defs>
      <use xlink:href="#DejaVuSans-56"/>
      <use xlink:href="#DejaVuSans-65" x="60.658203"/>
      <use xlink:href="#DejaVuSans-72" x="122.181641"/>
      <use xlink:href="#DejaVuSans-32" x="163.294922"/>
      <use xlink:href="#DejaVuSans-2d" x="226.917969"/>
      <use xlink:href="#DejaVuSans-47" x="266.626953"/>
      <use xlink:href="#DejaVuSans-50" x="344.117188"/>
      <use xlink:href="#DejaVuSans-58" x="404.419922"/>
     </g>
    </g>
    <g id="LineCollection_7">
     <path d="M 66.72 74.334687 
L 66.72 64.334687 
" style="fill: none; stroke: #2ca02c; stroke-width: 1.5"/>
    </g>
    <g id="line2d_33">
     <g>
      <use xlink:href="#mebb76982bc" x="66.72" y="74.334687" style="fill: #2ca02c; stroke: #2ca02c"/>
     </g>
    </g>
    <g id="line2d_34">
     <g>
      <use xlink:href="#mebb76982bc" x="66.72" y="64.334687" style="fill: #2ca02c; stroke: #2ca02c"/>
     </g>
    </g>
    <g id="line2d_35">
     <path d="M 56.72 69.334687 
L 76.72 69.334687 
" style="fill: none; stroke: #2ca02c; stroke-width: 1.5; stroke-linecap: square"/>
    </g>
    <g id="line2d_36"/>
    <g id="text_18">
     <!-- Ver3-GP -->
     <g transform="translate(84.72 72.834687)scale(0.1 -0.1)">
      <use xlink:href="#DejaVuSans-56"/>
      <use xlink:href="#DejaVuSans-65" x="60.658203"/>
      <use xlink:href="#DejaVuSans-72" x="122.181641"/>
      <use xlink:href="#DejaVuSans-33" x="163.294922"/>
      <use xlink:href="#DejaVuSans-2d" x="226.917969"/>
      <use xlink:href="#DejaVuSans-47" x="266.626953"/>
      <use xlink:href="#DejaVuSans-50" x="344.117188"/>
     </g>
    </g>
    <g id="LineCollection_8">
     <path d="M 66.72 89.012812 
L 66.72 79.012812 
" style="fill: none; stroke: #d62728; stroke-width: 1.5"/>
    </g>
    <g id="line2d_37">
     <g>
      <use xlink:href="#mba99301072" x="66.72" y="89.012812" style="fill: #d62728; stroke: #d62728"/>
     </g>
    </g>
    <g id="line2d_38">
     <g>
      <use xlink:href="#mba99301072" x="66.72" y="79.012812" style="fill: #d62728; stroke: #d62728"/>
     </g>
    </g>
    <g id="line2d_39">
     <path d="M 56.72 84.012812 
L 76.72 84.012812 
" style="fill: none; stroke: #d62728; stroke-width: 1.5; stroke-linecap: square"/>
    </g>
    <g id="line2d_40"/>
    <g id="text_19">
     <!-- Ver3-GPX -->
     <g transform="translate(84.72 87.512812)scale(0.1 -0.1)">
      <use xlink:href="#DejaVuSans-56"/>
      <use xlink:href="#DejaVuSans-65" x="60.658203"/>
      <use xlink:href="#DejaVuSans-72" x="122.181641"/>
      <use xlink:href="#DejaVuSans-33" x="163.294922"/>
      <use xlink:href="#DejaVuSans-2d" x="226.917969"/>
      <use xlink:href="#DejaVuSans-47" x="266.626953"/>
      <use xlink:href="#DejaVuSans-50" x="344.117188"/>
      <use xlink:href="#DejaVuSans-58" x="404.419922"/>
     </g>
    </g>
   </g>
  </g>
 </g>
 <defs>
  <clipPath id="p8f719f02a1">
   <rect x="47.72" y="26.88" width="517.48" height="363.16"/>
  </clipPath>
 </defs>
</svg>
