<?xml version="1.0" encoding="utf-8" standalone="no"?>
<!DOCTYPE svg PUBLIC "-//W3C//DTD SVG 1.1//EN"
  "http://www.w3.org/Graphics/SVG/1.1/DTD/svg11.dtd">
<svg xmlns:xlink="http://www.w3.org/1999/xlink" width="576pt" height="432pt" viewBox="0 0 576 432" xmlns="http://www.w3.org/2000/svg" version="1.1">
 <metadata>
  <rdf:RDF xmlns:dc="http://purl.org/dc/elements/1.1/" xmlns:cc="http://creativecommons.org/ns#" xmlns:rdf="http://www.w3.org/1999/02/22-rdf-syntax-ns#">
   <cc:Work>
    <dc:type rdf:resource="http://purl.org/dc/dcmitype/StillImage"/>
    <dc:date>2021-12-24T14:35:36.160872</dc:date>
    <dc:format>image/svg+xml</dc:format>
    <dc:creator>
     <cc:Agent>
      <dc:title>Matplotlib v3.5.0, https://matplotlib.org/</dc:title>
     </cc:Agent>
    </dc:creator>
   </cc:Work>
  </rdf:RDF>
 </metadata>
 <defs>
  <style type="text/css">*{stroke-linejoin: round; stroke-linecap: butt}</style>
 </defs>
 <g id="figure_1">
  <g id="patch_1">
   <path d="M 0 432 
L 576 432 
L 576 0 
L 0 0 
z
" style="fill: #ffffff"/>
  </g>
  <g id="axes_1">
   <g id="patch_2">
    <path d="M 44.57 390.04 
L 565.2 390.04 
L 565.2 26.88 
L 44.57 26.88 
z
" style="fill: #ffffff"/>
   </g>
   <g id="matplotlib.axis_1">
    <g id="xtick_1">
     <g id="line2d_1">
      <defs>
       <path id="mc74f61fcfc" d="M 0 0 
L 0 3.5 
" style="stroke: #000000; stroke-width: 0.8"/>
      </defs>
      <g>
       <use xlink:href="#mc74f61fcfc" x="63.454192" y="390.04" style="stroke: #000000; stroke-width: 0.8"/>
      </g>
     </g>
     <g id="text_1">
      <!-- 0 -->
      <g transform="translate(60.272942 404.638438)scale(0.1 -0.1)">
       <defs>
        <path id="DejaVuSans-30" d="M 2034 4250 
Q 1547 4250 1301 3770 
Q 1056 3291 1056 2328 
Q 1056 1369 1301 889 
Q 1547 409 2034 409 
Q 2525 409 2770 889 
Q 3016 1369 3016 2328 
Q 3016 3291 2770 3770 
Q 2525 4250 2034 4250 
z
M 2034 4750 
Q 2819 4750 3233 4129 
Q 3647 3509 3647 2328 
Q 3647 1150 3233 529 
Q 2819 -91 2034 -91 
Q 1250 -91 836 529 
Q 422 1150 422 2328 
Q 422 3509 836 4129 
Q 1250 4750 2034 4750 
z
" transform="scale(0.015625)"/>
       </defs>
       <use xlink:href="#DejaVuSans-30"/>
      </g>
     </g>
    </g>
    <g id="xtick_2">
     <g id="line2d_2">
      <g>
       <use xlink:href="#mc74f61fcfc" x="159.070354" y="390.04" style="stroke: #000000; stroke-width: 0.8"/>
      </g>
     </g>
     <g id="text_2">
      <!-- 1 -->
      <g transform="translate(155.889104 404.638438)scale(0.1 -0.1)">
       <defs>
        <path id="DejaVuSans-31" d="M 794 531 
L 1825 531 
L 1825 4091 
L 703 3866 
L 703 4441 
L 1819 4666 
L 2450 4666 
L 2450 531 
L 3481 531 
L 3481 0 
L 794 0 
L 794 531 
z
" transform="scale(0.015625)"/>
       </defs>
       <use xlink:href="#DejaVuSans-31"/>
      </g>
     </g>
    </g>
    <g id="xtick_3">
     <g id="line2d_3">
      <g>
       <use xlink:href="#mc74f61fcfc" x="254.686515" y="390.04" style="stroke: #000000; stroke-width: 0.8"/>
      </g>
     </g>
     <g id="text_3">
      <!-- 2 -->
      <g transform="translate(251.505265 404.638438)scale(0.1 -0.1)">
       <defs>
        <path id="DejaVuSans-32" d="M 1228 531 
L 3431 531 
L 3431 0 
L 469 0 
L 469 531 
Q 828 903 1448 1529 
Q 2069 2156 2228 2338 
Q 2531 2678 2651 2914 
Q 2772 3150 2772 3378 
Q 2772 3750 2511 3984 
Q 2250 4219 1831 4219 
Q 1534 4219 1204 4116 
Q 875 4013 500 3803 
L 500 4441 
Q 881 4594 1212 4672 
Q 1544 4750 1819 4750 
Q 2544 4750 2975 4387 
Q 3406 4025 3406 3419 
Q 3406 3131 3298 2873 
Q 3191 2616 2906 2266 
Q 2828 2175 2409 1742 
Q 1991 1309 1228 531 
z
" transform="scale(0.015625)"/>
       </defs>
       <use xlink:href="#DejaVuSans-32"/>
      </g>
     </g>
    </g>
    <g id="xtick_4">
     <g id="line2d_4">
      <g>
       <use xlink:href="#mc74f61fcfc" x="350.302677" y="390.04" style="stroke: #000000; stroke-width: 0.8"/>
      </g>
     </g>
     <g id="text_4">
      <!-- 3 -->
      <g transform="translate(347.121427 404.638438)scale(0.1 -0.1)">
       <defs>
        <path id="DejaVuSans-33" d="M 2597 2516 
Q 3050 2419 3304 2112 
Q 3559 1806 3559 1356 
Q 3559 666 3084 287 
Q 2609 -91 1734 -91 
Q 1441 -91 1130 -33 
Q 819 25 488 141 
L 488 750 
Q 750 597 1062 519 
Q 1375 441 1716 441 
Q 2309 441 2620 675 
Q 2931 909 2931 1356 
Q 2931 1769 2642 2001 
Q 2353 2234 1838 2234 
L 1294 2234 
L 1294 2753 
L 1863 2753 
Q 2328 2753 2575 2939 
Q 2822 3125 2822 3475 
Q 2822 3834 2567 4026 
Q 2313 4219 1838 4219 
Q 1578 4219 1281 4162 
Q 984 4106 628 3988 
L 628 4550 
Q 988 4650 1302 4700 
Q 1616 4750 1894 4750 
Q 2613 4750 3031 4423 
Q 3450 4097 3450 3541 
Q 3450 3153 3228 2886 
Q 3006 2619 2597 2516 
z
" transform="scale(0.015625)"/>
       </defs>
       <use xlink:href="#DejaVuSans-33"/>
      </g>
     </g>
    </g>
    <g id="xtick_5">
     <g id="line2d_5">
      <g>
       <use xlink:href="#mc74f61fcfc" x="445.918838" y="390.04" style="stroke: #000000; stroke-width: 0.8"/>
      </g>
     </g>
     <g id="text_5">
      <!-- 4 -->
      <g transform="translate(442.737588 404.638438)scale(0.1 -0.1)">
       <defs>
        <path id="DejaVuSans-34" d="M 2419 4116 
L 825 1625 
L 2419 1625 
L 2419 4116 
z
M 2253 4666 
L 3047 4666 
L 3047 1625 
L 3713 1625 
L 3713 1100 
L 3047 1100 
L 3047 0 
L 2419 0 
L 2419 1100 
L 313 1100 
L 313 1709 
L 2253 4666 
z
" transform="scale(0.015625)"/>
       </defs>
       <use xlink:href="#DejaVuSans-34"/>
      </g>
     </g>
    </g>
    <g id="xtick_6">
     <g id="line2d_6">
      <g>
       <use xlink:href="#mc74f61fcfc" x="541.535" y="390.04" style="stroke: #000000; stroke-width: 0.8"/>
      </g>
     </g>
     <g id="text_6">
      <!-- 5 -->
      <g transform="translate(538.35375 404.638438)scale(0.1 -0.1)">
       <defs>
        <path id="DejaVuSans-35" d="M 691 4666 
L 3169 4666 
L 3169 4134 
L 1269 4134 
L 1269 2991 
Q 1406 3038 1543 3061 
Q 1681 3084 1819 3084 
Q 2600 3084 3056 2656 
Q 3513 2228 3513 1497 
Q 3513 744 3044 326 
Q 2575 -91 1722 -91 
Q 1428 -91 1123 -41 
Q 819 9 494 109 
L 494 744 
Q 775 591 1075 516 
Q 1375 441 1709 441 
Q 2250 441 2565 725 
Q 2881 1009 2881 1497 
Q 2881 1984 2565 2268 
Q 2250 2553 1709 2553 
Q 1456 2553 1204 2497 
Q 953 2441 691 2322 
L 691 4666 
z
" transform="scale(0.015625)"/>
       </defs>
       <use xlink:href="#DejaVuSans-35"/>
      </g>
     </g>
    </g>
    <g id="text_7">
     <!-- Size (#edges) -->
     <g transform="translate(269.834219 418.316562)scale(0.1 -0.1)">
      <defs>
       <path id="DejaVuSans-53" d="M 3425 4513 
L 3425 3897 
Q 3066 4069 2747 4153 
Q 2428 4238 2131 4238 
Q 1616 4238 1336 4038 
Q 1056 3838 1056 3469 
Q 1056 3159 1242 3001 
Q 1428 2844 1947 2747 
L 2328 2669 
Q 3034 2534 3370 2195 
Q 3706 1856 3706 1288 
Q 3706 609 3251 259 
Q 2797 -91 1919 -91 
Q 1588 -91 1214 -16 
Q 841 59 441 206 
L 441 856 
Q 825 641 1194 531 
Q 1563 422 1919 422 
Q 2459 422 2753 634 
Q 3047 847 3047 1241 
Q 3047 1584 2836 1778 
Q 2625 1972 2144 2069 
L 1759 2144 
Q 1053 2284 737 2584 
Q 422 2884 422 3419 
Q 422 4038 858 4394 
Q 1294 4750 2059 4750 
Q 2388 4750 2728 4690 
Q 3069 4631 3425 4513 
z
" transform="scale(0.015625)"/>
       <path id="DejaVuSans-69" d="M 603 3500 
L 1178 3500 
L 1178 0 
L 603 0 
L 603 3500 
z
M 603 4863 
L 1178 4863 
L 1178 4134 
L 603 4134 
L 603 4863 
z
" transform="scale(0.015625)"/>
       <path id="DejaVuSans-7a" d="M 353 3500 
L 3084 3500 
L 3084 2975 
L 922 459 
L 3084 459 
L 3084 0 
L 275 0 
L 275 525 
L 2438 3041 
L 353 3041 
L 353 3500 
z
" transform="scale(0.015625)"/>
       <path id="DejaVuSans-65" d="M 3597 1894 
L 3597 1613 
L 953 1613 
Q 991 1019 1311 708 
Q 1631 397 2203 397 
Q 2534 397 2845 478 
Q 3156 559 3463 722 
L 3463 178 
Q 3153 47 2828 -22 
Q 2503 -91 2169 -91 
Q 1331 -91 842 396 
Q 353 884 353 1716 
Q 353 2575 817 3079 
Q 1281 3584 2069 3584 
Q 2775 3584 3186 3129 
Q 3597 2675 3597 1894 
z
M 3022 2063 
Q 3016 2534 2758 2815 
Q 2500 3097 2075 3097 
Q 1594 3097 1305 2825 
Q 1016 2553 972 2059 
L 3022 2063 
z
" transform="scale(0.015625)"/>
       <path id="DejaVuSans-20" transform="scale(0.015625)"/>
       <path id="DejaVuSans-28" d="M 1984 4856 
Q 1566 4138 1362 3434 
Q 1159 2731 1159 2009 
Q 1159 1288 1364 580 
Q 1569 -128 1984 -844 
L 1484 -844 
Q 1016 -109 783 600 
Q 550 1309 550 2009 
Q 550 2706 781 3412 
Q 1013 4119 1484 4856 
L 1984 4856 
z
" transform="scale(0.015625)"/>
       <path id="DejaVuSans-23" d="M 3272 2816 
L 2363 2816 
L 2100 1772 
L 3016 1772 
L 3272 2816 
z
M 2803 4594 
L 2478 3297 
L 3391 3297 
L 3719 4594 
L 4219 4594 
L 3897 3297 
L 4872 3297 
L 4872 2816 
L 3775 2816 
L 3519 1772 
L 4513 1772 
L 4513 1294 
L 3397 1294 
L 3072 0 
L 2572 0 
L 2894 1294 
L 1978 1294 
L 1656 0 
L 1153 0 
L 1478 1294 
L 494 1294 
L 494 1772 
L 1594 1772 
L 1856 2816 
L 850 2816 
L 850 3297 
L 1978 3297 
L 2297 4594 
L 2803 4594 
z
" transform="scale(0.015625)"/>
       <path id="DejaVuSans-64" d="M 2906 2969 
L 2906 4863 
L 3481 4863 
L 3481 0 
L 2906 0 
L 2906 525 
Q 2725 213 2448 61 
Q 2172 -91 1784 -91 
Q 1150 -91 751 415 
Q 353 922 353 1747 
Q 353 2572 751 3078 
Q 1150 3584 1784 3584 
Q 2172 3584 2448 3432 
Q 2725 3281 2906 2969 
z
M 947 1747 
Q 947 1113 1208 752 
Q 1469 391 1925 391 
Q 2381 391 2643 752 
Q 2906 1113 2906 1747 
Q 2906 2381 2643 2742 
Q 2381 3103 1925 3103 
Q 1469 3103 1208 2742 
Q 947 2381 947 1747 
z
" transform="scale(0.015625)"/>
       <path id="DejaVuSans-67" d="M 2906 1791 
Q 2906 2416 2648 2759 
Q 2391 3103 1925 3103 
Q 1463 3103 1205 2759 
Q 947 2416 947 1791 
Q 947 1169 1205 825 
Q 1463 481 1925 481 
Q 2391 481 2648 825 
Q 2906 1169 2906 1791 
z
M 3481 434 
Q 3481 -459 3084 -895 
Q 2688 -1331 1869 -1331 
Q 1566 -1331 1297 -1286 
Q 1028 -1241 775 -1147 
L 775 -588 
Q 1028 -725 1275 -790 
Q 1522 -856 1778 -856 
Q 2344 -856 2625 -561 
Q 2906 -266 2906 331 
L 2906 616 
Q 2728 306 2450 153 
Q 2172 0 1784 0 
Q 1141 0 747 490 
Q 353 981 353 1791 
Q 353 2603 747 3093 
Q 1141 3584 1784 3584 
Q 2172 3584 2450 3431 
Q 2728 3278 2906 2969 
L 2906 3500 
L 3481 3500 
L 3481 434 
z
" transform="scale(0.015625)"/>
       <path id="DejaVuSans-73" d="M 2834 3397 
L 2834 2853 
Q 2591 2978 2328 3040 
Q 2066 3103 1784 3103 
Q 1356 3103 1142 2972 
Q 928 2841 928 2578 
Q 928 2378 1081 2264 
Q 1234 2150 1697 2047 
L 1894 2003 
Q 2506 1872 2764 1633 
Q 3022 1394 3022 966 
Q 3022 478 2636 193 
Q 2250 -91 1575 -91 
Q 1294 -91 989 -36 
Q 684 19 347 128 
L 347 722 
Q 666 556 975 473 
Q 1284 391 1588 391 
Q 1994 391 2212 530 
Q 2431 669 2431 922 
Q 2431 1156 2273 1281 
Q 2116 1406 1581 1522 
L 1381 1569 
Q 847 1681 609 1914 
Q 372 2147 372 2553 
Q 372 3047 722 3315 
Q 1072 3584 1716 3584 
Q 2034 3584 2315 3537 
Q 2597 3491 2834 3397 
z
" transform="scale(0.015625)"/>
       <path id="DejaVuSans-29" d="M 513 4856 
L 1013 4856 
Q 1481 4119 1714 3412 
Q 1947 2706 1947 2009 
Q 1947 1309 1714 600 
Q 1481 -109 1013 -844 
L 513 -844 
Q 928 -128 1133 580 
Q 1338 1288 1338 2009 
Q 1338 2731 1133 3434 
Q 928 4138 513 4856 
z
" transform="scale(0.015625)"/>
      </defs>
      <use xlink:href="#DejaVuSans-53"/>
      <use xlink:href="#DejaVuSans-69" x="63.476562"/>
      <use xlink:href="#DejaVuSans-7a" x="91.259766"/>
      <use xlink:href="#DejaVuSans-65" x="143.75"/>
      <use xlink:href="#DejaVuSans-20" x="205.273438"/>
      <use xlink:href="#DejaVuSans-28" x="237.060547"/>
      <use xlink:href="#DejaVuSans-23" x="276.074219"/>
      <use xlink:href="#DejaVuSans-65" x="359.863281"/>
      <use xlink:href="#DejaVuSans-64" x="421.386719"/>
      <use xlink:href="#DejaVuSans-67" x="484.863281"/>
      <use xlink:href="#DejaVuSans-65" x="548.339844"/>
      <use xlink:href="#DejaVuSans-73" x="609.863281"/>
      <use xlink:href="#DejaVuSans-29" x="661.962891"/>
     </g>
    </g>
    <g id="text_8">
     <!-- 1e6 -->
     <g transform="translate(546.321875 417.316562)scale(0.1 -0.1)">
      <defs>
       <path id="DejaVuSans-36" d="M 2113 2584 
Q 1688 2584 1439 2293 
Q 1191 2003 1191 1497 
Q 1191 994 1439 701 
Q 1688 409 2113 409 
Q 2538 409 2786 701 
Q 3034 994 3034 1497 
Q 3034 2003 2786 2293 
Q 2538 2584 2113 2584 
z
M 3366 4563 
L 3366 3988 
Q 3128 4100 2886 4159 
Q 2644 4219 2406 4219 
Q 1781 4219 1451 3797 
Q 1122 3375 1075 2522 
Q 1259 2794 1537 2939 
Q 1816 3084 2150 3084 
Q 2853 3084 3261 2657 
Q 3669 2231 3669 1497 
Q 3669 778 3244 343 
Q 2819 -91 2113 -91 
Q 1303 -91 875 529 
Q 447 1150 447 2328 
Q 447 3434 972 4092 
Q 1497 4750 2381 4750 
Q 2619 4750 2861 4703 
Q 3103 4656 3366 4563 
z
" transform="scale(0.015625)"/>
      </defs>
      <use xlink:href="#DejaVuSans-31"/>
      <use xlink:href="#DejaVuSans-65" x="63.623047"/>
      <use xlink:href="#DejaVuSans-36" x="125.146484"/>
     </g>
    </g>
   </g>
   <g id="matplotlib.axis_2">
    <g id="ytick_1">
     <g id="line2d_7">
      <defs>
       <path id="m7eb1c47a8f" d="M 0 0 
L -3.5 0 
" style="stroke: #000000; stroke-width: 0.8"/>
      </defs>
      <g>
       <use xlink:href="#m7eb1c47a8f" x="44.57" y="375.070229" style="stroke: #000000; stroke-width: 0.8"/>
      </g>
     </g>
     <g id="text_9">
      <!-- 0 -->
      <g transform="translate(31.2075 378.869447)scale(0.1 -0.1)">
       <use xlink:href="#DejaVuSans-30"/>
      </g>
     </g>
    </g>
    <g id="ytick_2">
     <g id="line2d_8">
      <g>
       <use xlink:href="#m7eb1c47a8f" x="44.57" y="311.738107" style="stroke: #000000; stroke-width: 0.8"/>
      </g>
     </g>
     <g id="text_10">
      <!-- 2 -->
      <g transform="translate(31.2075 315.537326)scale(0.1 -0.1)">
       <use xlink:href="#DejaVuSans-32"/>
      </g>
     </g>
    </g>
    <g id="ytick_3">
     <g id="line2d_9">
      <g>
       <use xlink:href="#m7eb1c47a8f" x="44.57" y="248.405985" style="stroke: #000000; stroke-width: 0.8"/>
      </g>
     </g>
     <g id="text_11">
      <!-- 4 -->
      <g transform="translate(31.2075 252.205204)scale(0.1 -0.1)">
       <use xlink:href="#DejaVuSans-34"/>
      </g>
     </g>
    </g>
    <g id="ytick_4">
     <g id="line2d_10">
      <g>
       <use xlink:href="#m7eb1c47a8f" x="44.57" y="185.073864" style="stroke: #000000; stroke-width: 0.8"/>
      </g>
     </g>
     <g id="text_12">
      <!-- 6 -->
      <g transform="translate(31.2075 188.873082)scale(0.1 -0.1)">
       <use xlink:href="#DejaVuSans-36"/>
      </g>
     </g>
    </g>
    <g id="ytick_5">
     <g id="line2d_11">
      <g>
       <use xlink:href="#m7eb1c47a8f" x="44.57" y="121.741742" style="stroke: #000000; stroke-width: 0.8"/>
      </g>
     </g>
     <g id="text_13">
      <!-- 8 -->
      <g transform="translate(31.2075 125.540961)scale(0.1 -0.1)">
       <defs>
        <path id="DejaVuSans-38" d="M 2034 2216 
Q 1584 2216 1326 1975 
Q 1069 1734 1069 1313 
Q 1069 891 1326 650 
Q 1584 409 2034 409 
Q 2484 409 2743 651 
Q 3003 894 3003 1313 
Q 3003 1734 2745 1975 
Q 2488 2216 2034 2216 
z
M 1403 2484 
Q 997 2584 770 2862 
Q 544 3141 544 3541 
Q 544 4100 942 4425 
Q 1341 4750 2034 4750 
Q 2731 4750 3128 4425 
Q 3525 4100 3525 3541 
Q 3525 3141 3298 2862 
Q 3072 2584 2669 2484 
Q 3125 2378 3379 2068 
Q 3634 1759 3634 1313 
Q 3634 634 3220 271 
Q 2806 -91 2034 -91 
Q 1263 -91 848 271 
Q 434 634 434 1313 
Q 434 1759 690 2068 
Q 947 2378 1403 2484 
z
M 1172 3481 
Q 1172 3119 1398 2916 
Q 1625 2713 2034 2713 
Q 2441 2713 2670 2916 
Q 2900 3119 2900 3481 
Q 2900 3844 2670 4047 
Q 2441 4250 2034 4250 
Q 1625 4250 1398 4047 
Q 1172 3844 1172 3481 
z
" transform="scale(0.015625)"/>
       </defs>
       <use xlink:href="#DejaVuSans-38"/>
      </g>
     </g>
    </g>
    <g id="ytick_6">
     <g id="line2d_12">
      <g>
       <use xlink:href="#m7eb1c47a8f" x="44.57" y="58.40962" style="stroke: #000000; stroke-width: 0.8"/>
      </g>
     </g>
     <g id="text_14">
      <!-- 10 -->
      <g transform="translate(24.845 62.208839)scale(0.1 -0.1)">
       <use xlink:href="#DejaVuSans-31"/>
       <use xlink:href="#DejaVuSans-30" x="63.623047"/>
      </g>
     </g>
    </g>
    <g id="text_15">
     <!-- Seconds spent -->
     <g transform="translate(18.765313 245.040469)rotate(-90)scale(0.1 -0.1)">
      <defs>
       <path id="DejaVuSans-63" d="M 3122 3366 
L 3122 2828 
Q 2878 2963 2633 3030 
Q 2388 3097 2138 3097 
Q 1578 3097 1268 2742 
Q 959 2388 959 1747 
Q 959 1106 1268 751 
Q 1578 397 2138 397 
Q 2388 397 2633 464 
Q 2878 531 3122 666 
L 3122 134 
Q 2881 22 2623 -34 
Q 2366 -91 2075 -91 
Q 1284 -91 818 406 
Q 353 903 353 1747 
Q 353 2603 823 3093 
Q 1294 3584 2113 3584 
Q 2378 3584 2631 3529 
Q 2884 3475 3122 3366 
z
" transform="scale(0.015625)"/>
       <path id="DejaVuSans-6f" d="M 1959 3097 
Q 1497 3097 1228 2736 
Q 959 2375 959 1747 
Q 959 1119 1226 758 
Q 1494 397 1959 397 
Q 2419 397 2687 759 
Q 2956 1122 2956 1747 
Q 2956 2369 2687 2733 
Q 2419 3097 1959 3097 
z
M 1959 3584 
Q 2709 3584 3137 3096 
Q 3566 2609 3566 1747 
Q 3566 888 3137 398 
Q 2709 -91 1959 -91 
Q 1206 -91 779 398 
Q 353 888 353 1747 
Q 353 2609 779 3096 
Q 1206 3584 1959 3584 
z
" transform="scale(0.015625)"/>
       <path id="DejaVuSans-6e" d="M 3513 2113 
L 3513 0 
L 2938 0 
L 2938 2094 
Q 2938 2591 2744 2837 
Q 2550 3084 2163 3084 
Q 1697 3084 1428 2787 
Q 1159 2491 1159 1978 
L 1159 0 
L 581 0 
L 581 3500 
L 1159 3500 
L 1159 2956 
Q 1366 3272 1645 3428 
Q 1925 3584 2291 3584 
Q 2894 3584 3203 3211 
Q 3513 2838 3513 2113 
z
" transform="scale(0.015625)"/>
       <path id="DejaVuSans-70" d="M 1159 525 
L 1159 -1331 
L 581 -1331 
L 581 3500 
L 1159 3500 
L 1159 2969 
Q 1341 3281 1617 3432 
Q 1894 3584 2278 3584 
Q 2916 3584 3314 3078 
Q 3713 2572 3713 1747 
Q 3713 922 3314 415 
Q 2916 -91 2278 -91 
Q 1894 -91 1617 61 
Q 1341 213 1159 525 
z
M 3116 1747 
Q 3116 2381 2855 2742 
Q 2594 3103 2138 3103 
Q 1681 3103 1420 2742 
Q 1159 2381 1159 1747 
Q 1159 1113 1420 752 
Q 1681 391 2138 391 
Q 2594 391 2855 752 
Q 3116 1113 3116 1747 
z
" transform="scale(0.015625)"/>
       <path id="DejaVuSans-74" d="M 1172 4494 
L 1172 3500 
L 2356 3500 
L 2356 3053 
L 1172 3053 
L 1172 1153 
Q 1172 725 1289 603 
Q 1406 481 1766 481 
L 2356 481 
L 2356 0 
L 1766 0 
Q 1100 0 847 248 
Q 594 497 594 1153 
L 594 3053 
L 172 3053 
L 172 3500 
L 594 3500 
L 594 4494 
L 1172 4494 
z
" transform="scale(0.015625)"/>
      </defs>
      <use xlink:href="#DejaVuSans-53"/>
      <use xlink:href="#DejaVuSans-65" x="63.476562"/>
      <use xlink:href="#DejaVuSans-63" x="125"/>
      <use xlink:href="#DejaVuSans-6f" x="179.980469"/>
      <use xlink:href="#DejaVuSans-6e" x="241.162109"/>
      <use xlink:href="#DejaVuSans-64" x="304.541016"/>
      <use xlink:href="#DejaVuSans-73" x="368.017578"/>
      <use xlink:href="#DejaVuSans-20" x="420.117188"/>
      <use xlink:href="#DejaVuSans-73" x="451.904297"/>
      <use xlink:href="#DejaVuSans-70" x="504.003906"/>
      <use xlink:href="#DejaVuSans-65" x="567.480469"/>
      <use xlink:href="#DejaVuSans-6e" x="629.003906"/>
      <use xlink:href="#DejaVuSans-74" x="692.382812"/>
     </g>
    </g>
   </g>
   <g id="LineCollection_1">
    <path d="M 68.235 373.066011 
L 68.235 372.963004 
" clip-path="url(#p5e051bb439)" style="fill: none; stroke: #1f77b4; stroke-width: 1.5"/>
    <path d="M 73.015808 371.110004 
L 73.015808 371.059301 
" clip-path="url(#p5e051bb439)" style="fill: none; stroke: #1f77b4; stroke-width: 1.5"/>
    <path d="M 77.796616 369.236761 
L 77.796616 368.842493 
" clip-path="url(#p5e051bb439)" style="fill: none; stroke: #1f77b4; stroke-width: 1.5"/>
    <path d="M 82.577424 367.306594 
L 82.577424 366.521276 
" clip-path="url(#p5e051bb439)" style="fill: none; stroke: #1f77b4; stroke-width: 1.5"/>
    <path d="M 87.358232 365.414252 
L 87.358232 365.372428 
" clip-path="url(#p5e051bb439)" style="fill: none; stroke: #1f77b4; stroke-width: 1.5"/>
    <path d="M 111.262273 356.133867 
L 111.262273 355.83914 
" clip-path="url(#p5e051bb439)" style="fill: none; stroke: #1f77b4; stroke-width: 1.5"/>
    <path d="M 135.166313 346.949979 
L 135.166313 346.582902 
" clip-path="url(#p5e051bb439)" style="fill: none; stroke: #1f77b4; stroke-width: 1.5"/>
    <path d="M 159.070354 337.834516 
L 159.070354 312.58328 
" clip-path="url(#p5e051bb439)" style="fill: none; stroke: #1f77b4; stroke-width: 1.5"/>
    <path d="M 182.974394 328.711305 
L 182.974394 328.691514 
" clip-path="url(#p5e051bb439)" style="fill: none; stroke: #1f77b4; stroke-width: 1.5"/>
    <path d="M 206.878434 320.033522 
L 206.878434 319.286102 
" clip-path="url(#p5e051bb439)" style="fill: none; stroke: #1f77b4; stroke-width: 1.5"/>
    <path d="M 230.782475 310.984622 
L 230.782475 302.564433 
" clip-path="url(#p5e051bb439)" style="fill: none; stroke: #1f77b4; stroke-width: 1.5"/>
    <path d="M 254.686515 302.48036 
L 254.686515 302.044758 
" clip-path="url(#p5e051bb439)" style="fill: none; stroke: #1f77b4; stroke-width: 1.5"/>
    <path d="M 350.302677 268.067373 
L 350.302677 43.387273 
" clip-path="url(#p5e051bb439)" style="fill: none; stroke: #1f77b4; stroke-width: 1.5"/>
    <path clip-path="url(#p5e051bb439)" style="fill: none; stroke: #1f77b4; stroke-width: 1.5"/>
    <path clip-path="url(#p5e051bb439)" style="fill: none; stroke: #1f77b4; stroke-width: 1.5"/>
   </g>
   <g id="line2d_13">
    <defs>
     <path id="md8547b9e7e" d="M 3 0 
L -3 -0 
" style="stroke: #1f77b4"/>
    </defs>
    <g clip-path="url(#p5e051bb439)">
     <use xlink:href="#md8547b9e7e" x="68.235" y="373.066011" style="fill: #1f77b4; stroke: #1f77b4"/>
     <use xlink:href="#md8547b9e7e" x="73.015808" y="371.110004" style="fill: #1f77b4; stroke: #1f77b4"/>
     <use xlink:href="#md8547b9e7e" x="77.796616" y="369.236761" style="fill: #1f77b4; stroke: #1f77b4"/>
     <use xlink:href="#md8547b9e7e" x="82.577424" y="367.306594" style="fill: #1f77b4; stroke: #1f77b4"/>
     <use xlink:href="#md8547b9e7e" x="87.358232" y="365.414252" style="fill: #1f77b4; stroke: #1f77b4"/>
     <use xlink:href="#md8547b9e7e" x="111.262273" y="356.133867" style="fill: #1f77b4; stroke: #1f77b4"/>
     <use xlink:href="#md8547b9e7e" x="135.166313" y="346.949979" style="fill: #1f77b4; stroke: #1f77b4"/>
     <use xlink:href="#md8547b9e7e" x="159.070354" y="337.834516" style="fill: #1f77b4; stroke: #1f77b4"/>
     <use xlink:href="#md8547b9e7e" x="182.974394" y="328.711305" style="fill: #1f77b4; stroke: #1f77b4"/>
     <use xlink:href="#md8547b9e7e" x="206.878434" y="320.033522" style="fill: #1f77b4; stroke: #1f77b4"/>
     <use xlink:href="#md8547b9e7e" x="230.782475" y="310.984622" style="fill: #1f77b4; stroke: #1f77b4"/>
     <use xlink:href="#md8547b9e7e" x="254.686515" y="302.48036" style="fill: #1f77b4; stroke: #1f77b4"/>
     <use xlink:href="#md8547b9e7e" x="350.302677" y="268.067373" style="fill: #1f77b4; stroke: #1f77b4"/>
    </g>
   </g>
   <g id="line2d_14">
    <g clip-path="url(#p5e051bb439)">
     <use xlink:href="#md8547b9e7e" x="68.235" y="372.963004" style="fill: #1f77b4; stroke: #1f77b4"/>
     <use xlink:href="#md8547b9e7e" x="73.015808" y="371.059301" style="fill: #1f77b4; stroke: #1f77b4"/>
     <use xlink:href="#md8547b9e7e" x="77.796616" y="368.842493" style="fill: #1f77b4; stroke: #1f77b4"/>
     <use xlink:href="#md8547b9e7e" x="82.577424" y="366.521276" style="fill: #1f77b4; stroke: #1f77b4"/>
     <use xlink:href="#md8547b9e7e" x="87.358232" y="365.372428" style="fill: #1f77b4; stroke: #1f77b4"/>
     <use xlink:href="#md8547b9e7e" x="111.262273" y="355.83914" style="fill: #1f77b4; stroke: #1f77b4"/>
     <use xlink:href="#md8547b9e7e" x="135.166313" y="346.582902" style="fill: #1f77b4; stroke: #1f77b4"/>
     <use xlink:href="#md8547b9e7e" x="159.070354" y="312.58328" style="fill: #1f77b4; stroke: #1f77b4"/>
     <use xlink:href="#md8547b9e7e" x="182.974394" y="328.691514" style="fill: #1f77b4; stroke: #1f77b4"/>
     <use xlink:href="#md8547b9e7e" x="206.878434" y="319.286102" style="fill: #1f77b4; stroke: #1f77b4"/>
     <use xlink:href="#md8547b9e7e" x="230.782475" y="302.564433" style="fill: #1f77b4; stroke: #1f77b4"/>
     <use xlink:href="#md8547b9e7e" x="254.686515" y="302.044758" style="fill: #1f77b4; stroke: #1f77b4"/>
     <use xlink:href="#md8547b9e7e" x="350.302677" y="43.387273" style="fill: #1f77b4; stroke: #1f77b4"/>
    </g>
   </g>
   <g id="LineCollection_2">
    <path d="M 68.235 373.459319 
L 68.235 373.427846 
" clip-path="url(#p5e051bb439)" style="fill: none; stroke: #ff7f0e; stroke-width: 1.5"/>
    <path d="M 73.015808 372.172379 
L 73.015808 372.114965 
" clip-path="url(#p5e051bb439)" style="fill: none; stroke: #ff7f0e; stroke-width: 1.5"/>
    <path d="M 77.796616 370.956915 
L 77.796616 370.922972 
" clip-path="url(#p5e051bb439)" style="fill: none; stroke: #ff7f0e; stroke-width: 1.5"/>
    <path d="M 82.577424 369.742784 
L 82.577424 369.66391 
" clip-path="url(#p5e051bb439)" style="fill: none; stroke: #ff7f0e; stroke-width: 1.5"/>
    <path d="M 87.358232 368.547679 
L 87.358232 368.498432 
" clip-path="url(#p5e051bb439)" style="fill: none; stroke: #ff7f0e; stroke-width: 1.5"/>
    <path d="M 111.262273 362.863412 
L 111.262273 362.649516 
" clip-path="url(#p5e051bb439)" style="fill: none; stroke: #ff7f0e; stroke-width: 1.5"/>
    <path d="M 135.166313 357.253936 
L 135.166313 356.905123 
" clip-path="url(#p5e051bb439)" style="fill: none; stroke: #ff7f0e; stroke-width: 1.5"/>
    <path d="M 159.070354 351.547255 
L 159.070354 351.035758 
" clip-path="url(#p5e051bb439)" style="fill: none; stroke: #ff7f0e; stroke-width: 1.5"/>
    <path d="M 182.974394 345.448489 
L 182.974394 334.560936 
" clip-path="url(#p5e051bb439)" style="fill: none; stroke: #ff7f0e; stroke-width: 1.5"/>
    <path d="M 206.878434 338.954127 
L 206.878434 338.59598 
" clip-path="url(#p5e051bb439)" style="fill: none; stroke: #ff7f0e; stroke-width: 1.5"/>
    <path d="M 230.782475 331.93453 
L 230.782475 303.161798 
" clip-path="url(#p5e051bb439)" style="fill: none; stroke: #ff7f0e; stroke-width: 1.5"/>
    <path d="M 254.686515 326.235387 
L 254.686515 325.365533 
" clip-path="url(#p5e051bb439)" style="fill: none; stroke: #ff7f0e; stroke-width: 1.5"/>
    <path d="M 350.302677 300.568917 
L 350.302677 219.233541 
" clip-path="url(#p5e051bb439)" style="fill: none; stroke: #ff7f0e; stroke-width: 1.5"/>
    <path d="M 445.918838 82.622694 
L 445.918838 76.424601 
" clip-path="url(#p5e051bb439)" style="fill: none; stroke: #ff7f0e; stroke-width: 1.5"/>
    <path d="M 541.535 243.071888 
L 541.535 242.356077 
" clip-path="url(#p5e051bb439)" style="fill: none; stroke: #ff7f0e; stroke-width: 1.5"/>
   </g>
   <g id="line2d_15">
    <defs>
     <path id="m7f04267d81" d="M 3 0 
L -3 -0 
" style="stroke: #ff7f0e"/>
    </defs>
    <g clip-path="url(#p5e051bb439)">
     <use xlink:href="#m7f04267d81" x="68.235" y="373.459319" style="fill: #ff7f0e; stroke: #ff7f0e"/>
     <use xlink:href="#m7f04267d81" x="73.015808" y="372.172379" style="fill: #ff7f0e; stroke: #ff7f0e"/>
     <use xlink:href="#m7f04267d81" x="77.796616" y="370.956915" style="fill: #ff7f0e; stroke: #ff7f0e"/>
     <use xlink:href="#m7f04267d81" x="82.577424" y="369.742784" style="fill: #ff7f0e; stroke: #ff7f0e"/>
     <use xlink:href="#m7f04267d81" x="87.358232" y="368.547679" style="fill: #ff7f0e; stroke: #ff7f0e"/>
     <use xlink:href="#m7f04267d81" x="111.262273" y="362.863412" style="fill: #ff7f0e; stroke: #ff7f0e"/>
     <use xlink:href="#m7f04267d81" x="135.166313" y="357.253936" style="fill: #ff7f0e; stroke: #ff7f0e"/>
     <use xlink:href="#m7f04267d81" x="159.070354" y="351.547255" style="fill: #ff7f0e; stroke: #ff7f0e"/>
     <use xlink:href="#m7f04267d81" x="182.974394" y="345.448489" style="fill: #ff7f0e; stroke: #ff7f0e"/>
     <use xlink:href="#m7f04267d81" x="206.878434" y="338.954127" style="fill: #ff7f0e; stroke: #ff7f0e"/>
     <use xlink:href="#m7f04267d81" x="230.782475" y="331.93453" style="fill: #ff7f0e; stroke: #ff7f0e"/>
     <use xlink:href="#m7f04267d81" x="254.686515" y="326.235387" style="fill: #ff7f0e; stroke: #ff7f0e"/>
     <use xlink:href="#m7f04267d81" x="350.302677" y="300.568917" style="fill: #ff7f0e; stroke: #ff7f0e"/>
     <use xlink:href="#m7f04267d81" x="445.918838" y="82.622694" style="fill: #ff7f0e; stroke: #ff7f0e"/>
     <use xlink:href="#m7f04267d81" x="541.535" y="243.071888" style="fill: #ff7f0e; stroke: #ff7f0e"/>
    </g>
   </g>
   <g id="line2d_16">
    <g clip-path="url(#p5e051bb439)">
     <use xlink:href="#m7f04267d81" x="68.235" y="373.427846" style="fill: #ff7f0e; stroke: #ff7f0e"/>
     <use xlink:href="#m7f04267d81" x="73.015808" y="372.114965" style="fill: #ff7f0e; stroke: #ff7f0e"/>
     <use xlink:href="#m7f04267d81" x="77.796616" y="370.922972" style="fill: #ff7f0e; stroke: #ff7f0e"/>
     <use xlink:href="#m7f04267d81" x="82.577424" y="369.66391" style="fill: #ff7f0e; stroke: #ff7f0e"/>
     <use xlink:href="#m7f04267d81" x="87.358232" y="368.498432" style="fill: #ff7f0e; stroke: #ff7f0e"/>
     <use xlink:href="#m7f04267d81" x="111.262273" y="362.649516" style="fill: #ff7f0e; stroke: #ff7f0e"/>
     <use xlink:href="#m7f04267d81" x="135.166313" y="356.905123" style="fill: #ff7f0e; stroke: #ff7f0e"/>
     <use xlink:href="#m7f04267d81" x="159.070354" y="351.035758" style="fill: #ff7f0e; stroke: #ff7f0e"/>
     <use xlink:href="#m7f04267d81" x="182.974394" y="334.560936" style="fill: #ff7f0e; stroke: #ff7f0e"/>
     <use xlink:href="#m7f04267d81" x="206.878434" y="338.59598" style="fill: #ff7f0e; stroke: #ff7f0e"/>
     <use xlink:href="#m7f04267d81" x="230.782475" y="303.161798" style="fill: #ff7f0e; stroke: #ff7f0e"/>
     <use xlink:href="#m7f04267d81" x="254.686515" y="325.365533" style="fill: #ff7f0e; stroke: #ff7f0e"/>
     <use xlink:href="#m7f04267d81" x="350.302677" y="219.233541" style="fill: #ff7f0e; stroke: #ff7f0e"/>
     <use xlink:href="#m7f04267d81" x="445.918838" y="76.424601" style="fill: #ff7f0e; stroke: #ff7f0e"/>
     <use xlink:href="#m7f04267d81" x="541.535" y="242.356077" style="fill: #ff7f0e; stroke: #ff7f0e"/>
    </g>
   </g>
   <g id="LineCollection_3">
    <path d="M 68.235 373.390537 
L 68.235 373.281581 
" clip-path="url(#p5e051bb439)" style="fill: none; stroke: #2ca02c; stroke-width: 1.5"/>
    <path d="M 73.015808 372.099284 
L 73.015808 371.850053 
" clip-path="url(#p5e051bb439)" style="fill: none; stroke: #2ca02c; stroke-width: 1.5"/>
    <path d="M 77.796616 370.821615 
L 77.796616 370.780418 
" clip-path="url(#p5e051bb439)" style="fill: none; stroke: #2ca02c; stroke-width: 1.5"/>
    <path d="M 82.577424 369.613314 
L 82.577424 369.580151 
" clip-path="url(#p5e051bb439)" style="fill: none; stroke: #2ca02c; stroke-width: 1.5"/>
    <path d="M 87.358232 368.421204 
L 87.358232 368.344921 
" clip-path="url(#p5e051bb439)" style="fill: none; stroke: #2ca02c; stroke-width: 1.5"/>
    <path d="M 111.262273 362.539414 
L 111.262273 362.27526 
" clip-path="url(#p5e051bb439)" style="fill: none; stroke: #2ca02c; stroke-width: 1.5"/>
    <path d="M 135.166313 357.234025 
L 135.166313 357.028905 
" clip-path="url(#p5e051bb439)" style="fill: none; stroke: #2ca02c; stroke-width: 1.5"/>
    <path d="M 159.070354 352.344165 
L 159.070354 346.448725 
" clip-path="url(#p5e051bb439)" style="fill: none; stroke: #2ca02c; stroke-width: 1.5"/>
    <path d="M 182.974394 347.569514 
L 182.974394 347.380906 
" clip-path="url(#p5e051bb439)" style="fill: none; stroke: #2ca02c; stroke-width: 1.5"/>
    <path d="M 206.878434 342.182007 
L 206.878434 341.626413 
" clip-path="url(#p5e051bb439)" style="fill: none; stroke: #2ca02c; stroke-width: 1.5"/>
    <path d="M 230.782475 336.594568 
L 230.782475 336.199775 
" clip-path="url(#p5e051bb439)" style="fill: none; stroke: #2ca02c; stroke-width: 1.5"/>
    <path d="M 254.686515 331.741944 
L 254.686515 331.582309 
" clip-path="url(#p5e051bb439)" style="fill: none; stroke: #2ca02c; stroke-width: 1.5"/>
    <path d="M 350.302677 312.254758 
L 350.302677 311.742049 
" clip-path="url(#p5e051bb439)" style="fill: none; stroke: #2ca02c; stroke-width: 1.5"/>
    <path d="M 445.918838 291.087646 
L 445.918838 288.957688 
" clip-path="url(#p5e051bb439)" style="fill: none; stroke: #2ca02c; stroke-width: 1.5"/>
    <path d="M 541.535 270.135426 
L 541.535 269.749841 
" clip-path="url(#p5e051bb439)" style="fill: none; stroke: #2ca02c; stroke-width: 1.5"/>
   </g>
   <g id="line2d_17">
    <defs>
     <path id="mf3fc7103a7" d="M 3 0 
L -3 -0 
" style="stroke: #2ca02c"/>
    </defs>
    <g clip-path="url(#p5e051bb439)">
     <use xlink:href="#mf3fc7103a7" x="68.235" y="373.390537" style="fill: #2ca02c; stroke: #2ca02c"/>
     <use xlink:href="#mf3fc7103a7" x="73.015808" y="372.099284" style="fill: #2ca02c; stroke: #2ca02c"/>
     <use xlink:href="#mf3fc7103a7" x="77.796616" y="370.821615" style="fill: #2ca02c; stroke: #2ca02c"/>
     <use xlink:href="#mf3fc7103a7" x="82.577424" y="369.613314" style="fill: #2ca02c; stroke: #2ca02c"/>
     <use xlink:href="#mf3fc7103a7" x="87.358232" y="368.421204" style="fill: #2ca02c; stroke: #2ca02c"/>
     <use xlink:href="#mf3fc7103a7" x="111.262273" y="362.539414" style="fill: #2ca02c; stroke: #2ca02c"/>
     <use xlink:href="#mf3fc7103a7" x="135.166313" y="357.234025" style="fill: #2ca02c; stroke: #2ca02c"/>
     <use xlink:href="#mf3fc7103a7" x="159.070354" y="352.344165" style="fill: #2ca02c; stroke: #2ca02c"/>
     <use xlink:href="#mf3fc7103a7" x="182.974394" y="347.569514" style="fill: #2ca02c; stroke: #2ca02c"/>
     <use xlink:href="#mf3fc7103a7" x="206.878434" y="342.182007" style="fill: #2ca02c; stroke: #2ca02c"/>
     <use xlink:href="#mf3fc7103a7" x="230.782475" y="336.594568" style="fill: #2ca02c; stroke: #2ca02c"/>
     <use xlink:href="#mf3fc7103a7" x="254.686515" y="331.741944" style="fill: #2ca02c; stroke: #2ca02c"/>
     <use xlink:href="#mf3fc7103a7" x="350.302677" y="312.254758" style="fill: #2ca02c; stroke: #2ca02c"/>
     <use xlink:href="#mf3fc7103a7" x="445.918838" y="291.087646" style="fill: #2ca02c; stroke: #2ca02c"/>
     <use xlink:href="#mf3fc7103a7" x="541.535" y="270.135426" style="fill: #2ca02c; stroke: #2ca02c"/>
    </g>
   </g>
   <g id="line2d_18">
    <g clip-path="url(#p5e051bb439)">
     <use xlink:href="#mf3fc7103a7" x="68.235" y="373.281581" style="fill: #2ca02c; stroke: #2ca02c"/>
     <use xlink:href="#mf3fc7103a7" x="73.015808" y="371.850053" style="fill: #2ca02c; stroke: #2ca02c"/>
     <use xlink:href="#mf3fc7103a7" x="77.796616" y="370.780418" style="fill: #2ca02c; stroke: #2ca02c"/>
     <use xlink:href="#mf3fc7103a7" x="82.577424" y="369.580151" style="fill: #2ca02c; stroke: #2ca02c"/>
     <use xlink:href="#mf3fc7103a7" x="87.358232" y="368.344921" style="fill: #2ca02c; stroke: #2ca02c"/>
     <use xlink:href="#mf3fc7103a7" x="111.262273" y="362.27526" style="fill: #2ca02c; stroke: #2ca02c"/>
     <use xlink:href="#mf3fc7103a7" x="135.166313" y="357.028905" style="fill: #2ca02c; stroke: #2ca02c"/>
     <use xlink:href="#mf3fc7103a7" x="159.070354" y="346.448725" style="fill: #2ca02c; stroke: #2ca02c"/>
     <use xlink:href="#mf3fc7103a7" x="182.974394" y="347.380906" style="fill: #2ca02c; stroke: #2ca02c"/>
     <use xlink:href="#mf3fc7103a7" x="206.878434" y="341.626413" style="fill: #2ca02c; stroke: #2ca02c"/>
     <use xlink:href="#mf3fc7103a7" x="230.782475" y="336.199775" style="fill: #2ca02c; stroke: #2ca02c"/>
     <use xlink:href="#mf3fc7103a7" x="254.686515" y="331.582309" style="fill: #2ca02c; stroke: #2ca02c"/>
     <use xlink:href="#mf3fc7103a7" x="350.302677" y="311.742049" style="fill: #2ca02c; stroke: #2ca02c"/>
     <use xlink:href="#mf3fc7103a7" x="445.918838" y="288.957688" style="fill: #2ca02c; stroke: #2ca02c"/>
     <use xlink:href="#mf3fc7103a7" x="541.535" y="269.749841" style="fill: #2ca02c; stroke: #2ca02c"/>
    </g>
   </g>
   <g id="LineCollection_4">
    <path d="M 68.235 373.532727 
L 68.235 373.517879 
" clip-path="url(#p5e051bb439)" style="fill: none; stroke: #d62728; stroke-width: 1.5"/>
    <path d="M 73.015808 372.30821 
L 73.015808 372.268127 
" clip-path="url(#p5e051bb439)" style="fill: none; stroke: #d62728; stroke-width: 1.5"/>
    <path d="M 77.796616 371.181209 
L 77.796616 371.161896 
" clip-path="url(#p5e051bb439)" style="fill: none; stroke: #d62728; stroke-width: 1.5"/>
    <path d="M 82.577424 370.053929 
L 82.577424 369.895022 
" clip-path="url(#p5e051bb439)" style="fill: none; stroke: #d62728; stroke-width: 1.5"/>
    <path d="M 87.358232 368.941361 
L 87.358232 368.847588 
" clip-path="url(#p5e051bb439)" style="fill: none; stroke: #d62728; stroke-width: 1.5"/>
    <path d="M 111.262273 363.752075 
L 111.262273 363.644486 
" clip-path="url(#p5e051bb439)" style="fill: none; stroke: #d62728; stroke-width: 1.5"/>
    <path d="M 135.166313 358.760108 
L 135.166313 358.379183 
" clip-path="url(#p5e051bb439)" style="fill: none; stroke: #d62728; stroke-width: 1.5"/>
    <path d="M 159.070354 354.196591 
L 159.070354 353.955846 
" clip-path="url(#p5e051bb439)" style="fill: none; stroke: #d62728; stroke-width: 1.5"/>
    <path d="M 182.974394 349.021888 
L 182.974394 337.980823 
" clip-path="url(#p5e051bb439)" style="fill: none; stroke: #d62728; stroke-width: 1.5"/>
    <path d="M 206.878434 343.978558 
L 206.878434 343.642624 
" clip-path="url(#p5e051bb439)" style="fill: none; stroke: #d62728; stroke-width: 1.5"/>
    <path d="M 230.782475 310.004602 
L 230.782475 309.442919 
" clip-path="url(#p5e051bb439)" style="fill: none; stroke: #d62728; stroke-width: 1.5"/>
    <path d="M 254.686515 334.111521 
L 254.686515 333.605716 
" clip-path="url(#p5e051bb439)" style="fill: none; stroke: #d62728; stroke-width: 1.5"/>
    <path d="M 350.302677 314.513963 
L 350.302677 232.835701 
" clip-path="url(#p5e051bb439)" style="fill: none; stroke: #d62728; stroke-width: 1.5"/>
    <path d="M 445.918838 106.669995 
L 445.918838 104.554291 
" clip-path="url(#p5e051bb439)" style="fill: none; stroke: #d62728; stroke-width: 1.5"/>
    <path d="M 541.535 272.321366 
L 541.535 271.782378 
" clip-path="url(#p5e051bb439)" style="fill: none; stroke: #d62728; stroke-width: 1.5"/>
   </g>
   <g id="line2d_19">
    <defs>
     <path id="mf91cc8dc79" d="M 3 0 
L -3 -0 
" style="stroke: #d62728"/>
    </defs>
    <g clip-path="url(#p5e051bb439)">
     <use xlink:href="#mf91cc8dc79" x="68.235" y="373.532727" style="fill: #d62728; stroke: #d62728"/>
     <use xlink:href="#mf91cc8dc79" x="73.015808" y="372.30821" style="fill: #d62728; stroke: #d62728"/>
     <use xlink:href="#mf91cc8dc79" x="77.796616" y="371.181209" style="fill: #d62728; stroke: #d62728"/>
     <use xlink:href="#mf91cc8dc79" x="82.577424" y="370.053929" style="fill: #d62728; stroke: #d62728"/>
     <use xlink:href="#mf91cc8dc79" x="87.358232" y="368.941361" style="fill: #d62728; stroke: #d62728"/>
     <use xlink:href="#mf91cc8dc79" x="111.262273" y="363.752075" style="fill: #d62728; stroke: #d62728"/>
     <use xlink:href="#mf91cc8dc79" x="135.166313" y="358.760108" style="fill: #d62728; stroke: #d62728"/>
     <use xlink:href="#mf91cc8dc79" x="159.070354" y="354.196591" style="fill: #d62728; stroke: #d62728"/>
     <use xlink:href="#mf91cc8dc79" x="182.974394" y="349.021888" style="fill: #d62728; stroke: #d62728"/>
     <use xlink:href="#mf91cc8dc79" x="206.878434" y="343.978558" style="fill: #d62728; stroke: #d62728"/>
     <use xlink:href="#mf91cc8dc79" x="230.782475" y="310.004602" style="fill: #d62728; stroke: #d62728"/>
     <use xlink:href="#mf91cc8dc79" x="254.686515" y="334.111521" style="fill: #d62728; stroke: #d62728"/>
     <use xlink:href="#mf91cc8dc79" x="350.302677" y="314.513963" style="fill: #d62728; stroke: #d62728"/>
     <use xlink:href="#mf91cc8dc79" x="445.918838" y="106.669995" style="fill: #d62728; stroke: #d62728"/>
     <use xlink:href="#mf91cc8dc79" x="541.535" y="272.321366" style="fill: #d62728; stroke: #d62728"/>
    </g>
   </g>
   <g id="line2d_20">
    <g clip-path="url(#p5e051bb439)">
     <use xlink:href="#mf91cc8dc79" x="68.235" y="373.517879" style="fill: #d62728; stroke: #d62728"/>
     <use xlink:href="#mf91cc8dc79" x="73.015808" y="372.268127" style="fill: #d62728; stroke: #d62728"/>
     <use xlink:href="#mf91cc8dc79" x="77.796616" y="371.161896" style="fill: #d62728; stroke: #d62728"/>
     <use xlink:href="#mf91cc8dc79" x="82.577424" y="369.895022" style="fill: #d62728; stroke: #d62728"/>
     <use xlink:href="#mf91cc8dc79" x="87.358232" y="368.847588" style="fill: #d62728; stroke: #d62728"/>
     <use xlink:href="#mf91cc8dc79" x="111.262273" y="363.644486" style="fill: #d62728; stroke: #d62728"/>
     <use xlink:href="#mf91cc8dc79" x="135.166313" y="358.379183" style="fill: #d62728; stroke: #d62728"/>
     <use xlink:href="#mf91cc8dc79" x="159.070354" y="353.955846" style="fill: #d62728; stroke: #d62728"/>
     <use xlink:href="#mf91cc8dc79" x="182.974394" y="337.980823" style="fill: #d62728; stroke: #d62728"/>
     <use xlink:href="#mf91cc8dc79" x="206.878434" y="343.642624" style="fill: #d62728; stroke: #d62728"/>
     <use xlink:href="#mf91cc8dc79" x="230.782475" y="309.442919" style="fill: #d62728; stroke: #d62728"/>
     <use xlink:href="#mf91cc8dc79" x="254.686515" y="333.605716" style="fill: #d62728; stroke: #d62728"/>
     <use xlink:href="#mf91cc8dc79" x="350.302677" y="232.835701" style="fill: #d62728; stroke: #d62728"/>
     <use xlink:href="#mf91cc8dc79" x="445.918838" y="104.554291" style="fill: #d62728; stroke: #d62728"/>
     <use xlink:href="#mf91cc8dc79" x="541.535" y="271.782378" style="fill: #d62728; stroke: #d62728"/>
    </g>
   </g>
   <g id="LineCollection_5">
    <path d="M 68.235 364.019128 
L 68.235 363.984257 
" clip-path="url(#p5e051bb439)" style="fill: none; stroke: #9467bd; stroke-width: 1.5"/>
    <path d="M 73.015808 333.636328 
L 73.015808 333.470078 
" clip-path="url(#p5e051bb439)" style="fill: none; stroke: #9467bd; stroke-width: 1.5"/>
    <path clip-path="url(#p5e051bb439)" style="fill: none; stroke: #9467bd; stroke-width: 1.5"/>
    <path clip-path="url(#p5e051bb439)" style="fill: none; stroke: #9467bd; stroke-width: 1.5"/>
    <path clip-path="url(#p5e051bb439)" style="fill: none; stroke: #9467bd; stroke-width: 1.5"/>
    <path clip-path="url(#p5e051bb439)" style="fill: none; stroke: #9467bd; stroke-width: 1.5"/>
    <path clip-path="url(#p5e051bb439)" style="fill: none; stroke: #9467bd; stroke-width: 1.5"/>
    <path clip-path="url(#p5e051bb439)" style="fill: none; stroke: #9467bd; stroke-width: 1.5"/>
    <path clip-path="url(#p5e051bb439)" style="fill: none; stroke: #9467bd; stroke-width: 1.5"/>
    <path clip-path="url(#p5e051bb439)" style="fill: none; stroke: #9467bd; stroke-width: 1.5"/>
    <path clip-path="url(#p5e051bb439)" style="fill: none; stroke: #9467bd; stroke-width: 1.5"/>
    <path clip-path="url(#p5e051bb439)" style="fill: none; stroke: #9467bd; stroke-width: 1.5"/>
    <path clip-path="url(#p5e051bb439)" style="fill: none; stroke: #9467bd; stroke-width: 1.5"/>
    <path clip-path="url(#p5e051bb439)" style="fill: none; stroke: #9467bd; stroke-width: 1.5"/>
    <path clip-path="url(#p5e051bb439)" style="fill: none; stroke: #9467bd; stroke-width: 1.5"/>
   </g>
   <g id="line2d_21">
    <defs>
     <path id="m0cb540596a" d="M 3 0 
L -3 -0 
" style="stroke: #9467bd"/>
    </defs>
    <g clip-path="url(#p5e051bb439)">
     <use xlink:href="#m0cb540596a" x="68.235" y="364.019128" style="fill: #9467bd; stroke: #9467bd"/>
     <use xlink:href="#m0cb540596a" x="73.015808" y="333.636328" style="fill: #9467bd; stroke: #9467bd"/>
    </g>
   </g>
   <g id="line2d_22">
    <g clip-path="url(#p5e051bb439)">
     <use xlink:href="#m0cb540596a" x="68.235" y="363.984257" style="fill: #9467bd; stroke: #9467bd"/>
     <use xlink:href="#m0cb540596a" x="73.015808" y="333.470078" style="fill: #9467bd; stroke: #9467bd"/>
    </g>
   </g>
   <g id="line2d_23">
    <path d="M 68.235 373.010302 
L 73.015808 371.079985 
L 77.796616 369.081754 
L 82.577424 367.043006 
L 87.358232 365.396304 
L 111.262273 355.948557 
L 135.166313 346.822878 
L 159.070354 329.331923 
L 182.974394 328.704149 
L 206.878434 319.72599 
L 230.782475 308.17089 
L 254.686515 302.227318 
L 350.302677 192.602542 
" clip-path="url(#p5e051bb439)" style="fill: none; stroke: #1f77b4; stroke-width: 1.5; stroke-linecap: square"/>
   </g>
   <g id="line2d_24">
    <path d="M 68.235 373.448107 
L 73.015808 372.145997 
L 77.796616 370.9382 
L 82.577424 369.69335 
L 87.358232 368.530257 
L 111.262273 362.767336 
L 135.166313 357.066908 
L 159.070354 351.36634 
L 182.974394 338.208294 
L 206.878434 338.734052 
L 230.782475 312.838396 
L 254.686515 325.902021 
L 350.302677 273.298821 
L 445.918838 80.098077 
L 541.535 242.827067 
" clip-path="url(#p5e051bb439)" style="fill: none; stroke: #ff7f0e; stroke-width: 1.5; stroke-linecap: square"/>
   </g>
   <g id="line2d_25">
    <path d="M 68.235 373.323514 
L 73.015808 371.981932 
L 77.796616 370.799436 
L 82.577424 369.598067 
L 87.358232 368.391659 
L 111.262273 362.390672 
L 135.166313 357.137491 
L 159.070354 350.285063 
L 182.974394 347.481965 
L 206.878434 341.923898 
L 230.782475 336.436933 
L 254.686515 331.651416 
L 350.302677 311.964941 
L 445.918838 290.22169 
L 541.535 269.882771 
" clip-path="url(#p5e051bb439)" style="fill: none; stroke: #2ca02c; stroke-width: 1.5; stroke-linecap: square"/>
   </g>
   <g id="line2d_26">
    <path d="M 68.235 373.524047 
L 73.015808 372.294768 
L 77.796616 371.17004 
L 82.577424 369.965217 
L 87.358232 368.908173 
L 111.262273 363.711321 
L 135.166313 358.611709 
L 159.070354 354.057124 
L 182.974394 341.835591 
L 206.878434 343.812082 
L 230.782475 309.679615 
L 254.686515 333.863631 
L 350.302677 287.089486 
L 445.918838 105.499997 
L 541.535 272.079188 
" clip-path="url(#p5e051bb439)" style="fill: none; stroke: #d62728; stroke-width: 1.5; stroke-linecap: square"/>
   </g>
   <g id="line2d_27">
    <path d="M 68.235 363.996498 
L 73.015808 333.579358 
" clip-path="url(#p5e051bb439)" style="fill: none; stroke: #9467bd; stroke-width: 1.5; stroke-linecap: square"/>
   </g>
   <g id="patch_3">
    <path d="M 44.57 390.04 
L 44.57 26.88 
" style="fill: none; stroke: #000000; stroke-width: 0.8; stroke-linejoin: miter; stroke-linecap: square"/>
   </g>
   <g id="patch_4">
    <path d="M 565.2 390.04 
L 565.2 26.88 
" style="fill: none; stroke: #000000; stroke-width: 0.8; stroke-linejoin: miter; stroke-linecap: square"/>
   </g>
   <g id="patch_5">
    <path d="M 44.57 390.04 
L 565.2 390.04 
" style="fill: none; stroke: #000000; stroke-width: 0.8; stroke-linejoin: miter; stroke-linecap: square"/>
   </g>
   <g id="patch_6">
    <path d="M 44.57 26.88 
L 565.2 26.88 
" style="fill: none; stroke: #000000; stroke-width: 0.8; stroke-linejoin: miter; stroke-linecap: square"/>
   </g>
   <g id="text_16">
    <!-- Rust implementations of Bron-Kerbosch Ver3½-GP on a random graph of order 1M -->
    <g transform="translate(44.57 20.88)scale(0.12 -0.12)">
     <defs>
      <path id="DejaVuSans-52" d="M 2841 2188 
Q 3044 2119 3236 1894 
Q 3428 1669 3622 1275 
L 4263 0 
L 3584 0 
L 2988 1197 
Q 2756 1666 2539 1819 
Q 2322 1972 1947 1972 
L 1259 1972 
L 1259 0 
L 628 0 
L 628 4666 
L 2053 4666 
Q 2853 4666 3247 4331 
Q 3641 3997 3641 3322 
Q 3641 2881 3436 2590 
Q 3231 2300 2841 2188 
z
M 1259 4147 
L 1259 2491 
L 2053 2491 
Q 2509 2491 2742 2702 
Q 2975 2913 2975 3322 
Q 2975 3731 2742 3939 
Q 2509 4147 2053 4147 
L 1259 4147 
z
" transform="scale(0.015625)"/>
      <path id="DejaVuSans-75" d="M 544 1381 
L 544 3500 
L 1119 3500 
L 1119 1403 
Q 1119 906 1312 657 
Q 1506 409 1894 409 
Q 2359 409 2629 706 
Q 2900 1003 2900 1516 
L 2900 3500 
L 3475 3500 
L 3475 0 
L 2900 0 
L 2900 538 
Q 2691 219 2414 64 
Q 2138 -91 1772 -91 
Q 1169 -91 856 284 
Q 544 659 544 1381 
z
M 1991 3584 
L 1991 3584 
z
" transform="scale(0.015625)"/>
      <path id="DejaVuSans-6d" d="M 3328 2828 
Q 3544 3216 3844 3400 
Q 4144 3584 4550 3584 
Q 5097 3584 5394 3201 
Q 5691 2819 5691 2113 
L 5691 0 
L 5113 0 
L 5113 2094 
Q 5113 2597 4934 2840 
Q 4756 3084 4391 3084 
Q 3944 3084 3684 2787 
Q 3425 2491 3425 1978 
L 3425 0 
L 2847 0 
L 2847 2094 
Q 2847 2600 2669 2842 
Q 2491 3084 2119 3084 
Q 1678 3084 1418 2786 
Q 1159 2488 1159 1978 
L 1159 0 
L 581 0 
L 581 3500 
L 1159 3500 
L 1159 2956 
Q 1356 3278 1631 3431 
Q 1906 3584 2284 3584 
Q 2666 3584 2933 3390 
Q 3200 3197 3328 2828 
z
" transform="scale(0.015625)"/>
      <path id="DejaVuSans-6c" d="M 603 4863 
L 1178 4863 
L 1178 0 
L 603 0 
L 603 4863 
z
" transform="scale(0.015625)"/>
      <path id="DejaVuSans-61" d="M 2194 1759 
Q 1497 1759 1228 1600 
Q 959 1441 959 1056 
Q 959 750 1161 570 
Q 1363 391 1709 391 
Q 2188 391 2477 730 
Q 2766 1069 2766 1631 
L 2766 1759 
L 2194 1759 
z
M 3341 1997 
L 3341 0 
L 2766 0 
L 2766 531 
Q 2569 213 2275 61 
Q 1981 -91 1556 -91 
Q 1019 -91 701 211 
Q 384 513 384 1019 
Q 384 1609 779 1909 
Q 1175 2209 1959 2209 
L 2766 2209 
L 2766 2266 
Q 2766 2663 2505 2880 
Q 2244 3097 1772 3097 
Q 1472 3097 1187 3025 
Q 903 2953 641 2809 
L 641 3341 
Q 956 3463 1253 3523 
Q 1550 3584 1831 3584 
Q 2591 3584 2966 3190 
Q 3341 2797 3341 1997 
z
" transform="scale(0.015625)"/>
      <path id="DejaVuSans-66" d="M 2375 4863 
L 2375 4384 
L 1825 4384 
Q 1516 4384 1395 4259 
Q 1275 4134 1275 3809 
L 1275 3500 
L 2222 3500 
L 2222 3053 
L 1275 3053 
L 1275 0 
L 697 0 
L 697 3053 
L 147 3053 
L 147 3500 
L 697 3500 
L 697 3744 
Q 697 4328 969 4595 
Q 1241 4863 1831 4863 
L 2375 4863 
z
" transform="scale(0.015625)"/>
      <path id="DejaVuSans-42" d="M 1259 2228 
L 1259 519 
L 2272 519 
Q 2781 519 3026 730 
Q 3272 941 3272 1375 
Q 3272 1813 3026 2020 
Q 2781 2228 2272 2228 
L 1259 2228 
z
M 1259 4147 
L 1259 2741 
L 2194 2741 
Q 2656 2741 2882 2914 
Q 3109 3088 3109 3444 
Q 3109 3797 2882 3972 
Q 2656 4147 2194 4147 
L 1259 4147 
z
M 628 4666 
L 2241 4666 
Q 2963 4666 3353 4366 
Q 3744 4066 3744 3513 
Q 3744 3084 3544 2831 
Q 3344 2578 2956 2516 
Q 3422 2416 3680 2098 
Q 3938 1781 3938 1306 
Q 3938 681 3513 340 
Q 3088 0 2303 0 
L 628 0 
L 628 4666 
z
" transform="scale(0.015625)"/>
      <path id="DejaVuSans-72" d="M 2631 2963 
Q 2534 3019 2420 3045 
Q 2306 3072 2169 3072 
Q 1681 3072 1420 2755 
Q 1159 2438 1159 1844 
L 1159 0 
L 581 0 
L 581 3500 
L 1159 3500 
L 1159 2956 
Q 1341 3275 1631 3429 
Q 1922 3584 2338 3584 
Q 2397 3584 2469 3576 
Q 2541 3569 2628 3553 
L 2631 2963 
z
" transform="scale(0.015625)"/>
      <path id="DejaVuSans-2d" d="M 313 2009 
L 1997 2009 
L 1997 1497 
L 313 1497 
L 313 2009 
z
" transform="scale(0.015625)"/>
      <path id="DejaVuSans-4b" d="M 628 4666 
L 1259 4666 
L 1259 2694 
L 3353 4666 
L 4166 4666 
L 1850 2491 
L 4331 0 
L 3500 0 
L 1259 2247 
L 1259 0 
L 628 0 
L 628 4666 
z
" transform="scale(0.015625)"/>
      <path id="DejaVuSans-62" d="M 3116 1747 
Q 3116 2381 2855 2742 
Q 2594 3103 2138 3103 
Q 1681 3103 1420 2742 
Q 1159 2381 1159 1747 
Q 1159 1113 1420 752 
Q 1681 391 2138 391 
Q 2594 391 2855 752 
Q 3116 1113 3116 1747 
z
M 1159 2969 
Q 1341 3281 1617 3432 
Q 1894 3584 2278 3584 
Q 2916 3584 3314 3078 
Q 3713 2572 3713 1747 
Q 3713 922 3314 415 
Q 2916 -91 2278 -91 
Q 1894 -91 1617 61 
Q 1341 213 1159 525 
L 1159 0 
L 581 0 
L 581 4863 
L 1159 4863 
L 1159 2969 
z
" transform="scale(0.015625)"/>
      <path id="DejaVuSans-68" d="M 3513 2113 
L 3513 0 
L 2938 0 
L 2938 2094 
Q 2938 2591 2744 2837 
Q 2550 3084 2163 3084 
Q 1697 3084 1428 2787 
Q 1159 2491 1159 1978 
L 1159 0 
L 581 0 
L 581 4863 
L 1159 4863 
L 1159 2956 
Q 1366 3272 1645 3428 
Q 1925 3584 2291 3584 
Q 2894 3584 3203 3211 
Q 3513 2838 3513 2113 
z
" transform="scale(0.015625)"/>
      <path id="DejaVuSans-56" d="M 1831 0 
L 50 4666 
L 709 4666 
L 2188 738 
L 3669 4666 
L 4325 4666 
L 2547 0 
L 1831 0 
z
" transform="scale(0.015625)"/>
      <path id="DejaVuSans-bd" d="M 488 2431 
L 1125 2431 
L 1125 4341 
L 428 4213 
L 428 4575 
L 1147 4697 
L 1575 4697 
L 1575 2431 
L 2216 2431 
L 2216 2088 
L 488 2088 
L 488 2431 
z
M 4470 332 
L 5795 332 
L 5795 -24 
L 3926 -24 
L 3926 319 
Q 4032 416 4229 591 
Q 5304 1544 5304 1838 
Q 5304 2044 5141 2170 
Q 4979 2297 4713 2297 
Q 4551 2297 4360 2242 
Q 4170 2188 3945 2079 
L 3945 2463 
Q 4185 2551 4393 2594 
Q 4601 2638 4779 2638 
Q 5232 2638 5504 2432 
Q 5776 2226 5776 1888 
Q 5776 1454 4741 566 
Q 4566 416 4470 332 
z
M 4309 4750 
L 4809 4750 
L 1896 -91 
L 1396 -91 
L 4309 4750 
z
" transform="scale(0.015625)"/>
      <path id="DejaVuSans-47" d="M 3809 666 
L 3809 1919 
L 2778 1919 
L 2778 2438 
L 4434 2438 
L 4434 434 
Q 4069 175 3628 42 
Q 3188 -91 2688 -91 
Q 1594 -91 976 548 
Q 359 1188 359 2328 
Q 359 3472 976 4111 
Q 1594 4750 2688 4750 
Q 3144 4750 3555 4637 
Q 3966 4525 4313 4306 
L 4313 3634 
Q 3963 3931 3569 4081 
Q 3175 4231 2741 4231 
Q 1884 4231 1454 3753 
Q 1025 3275 1025 2328 
Q 1025 1384 1454 906 
Q 1884 428 2741 428 
Q 3075 428 3337 486 
Q 3600 544 3809 666 
z
" transform="scale(0.015625)"/>
      <path id="DejaVuSans-50" d="M 1259 4147 
L 1259 2394 
L 2053 2394 
Q 2494 2394 2734 2622 
Q 2975 2850 2975 3272 
Q 2975 3691 2734 3919 
Q 2494 4147 2053 4147 
L 1259 4147 
z
M 628 4666 
L 2053 4666 
Q 2838 4666 3239 4311 
Q 3641 3956 3641 3272 
Q 3641 2581 3239 2228 
Q 2838 1875 2053 1875 
L 1259 1875 
L 1259 0 
L 628 0 
L 628 4666 
z
" transform="scale(0.015625)"/>
      <path id="DejaVuSans-4d" d="M 628 4666 
L 1569 4666 
L 2759 1491 
L 3956 4666 
L 4897 4666 
L 4897 0 
L 4281 0 
L 4281 4097 
L 3078 897 
L 2444 897 
L 1241 4097 
L 1241 0 
L 628 0 
L 628 4666 
z
" transform="scale(0.015625)"/>
     </defs>
     <use xlink:href="#DejaVuSans-52"/>
     <use xlink:href="#DejaVuSans-75" x="64.982422"/>
     <use xlink:href="#DejaVuSans-73" x="128.361328"/>
     <use xlink:href="#DejaVuSans-74" x="180.460938"/>
     <use xlink:href="#DejaVuSans-20" x="219.669922"/>
     <use xlink:href="#DejaVuSans-69" x="251.457031"/>
     <use xlink:href="#DejaVuSans-6d" x="279.240234"/>
     <use xlink:href="#DejaVuSans-70" x="376.652344"/>
     <use xlink:href="#DejaVuSans-6c" x="440.128906"/>
     <use xlink:href="#DejaVuSans-65" x="467.912109"/>
     <use xlink:href="#DejaVuSans-6d" x="529.435547"/>
     <use xlink:href="#DejaVuSans-65" x="626.847656"/>
     <use xlink:href="#DejaVuSans-6e" x="688.371094"/>
     <use xlink:href="#DejaVuSans-74" x="751.75"/>
     <use xlink:href="#DejaVuSans-61" x="790.958984"/>
     <use xlink:href="#DejaVuSans-74" x="852.238281"/>
     <use xlink:href="#DejaVuSans-69" x="891.447266"/>
     <use xlink:href="#DejaVuSans-6f" x="919.230469"/>
     <use xlink:href="#DejaVuSans-6e" x="980.412109"/>
     <use xlink:href="#DejaVuSans-73" x="1043.791016"/>
     <use xlink:href="#DejaVuSans-20" x="1095.890625"/>
     <use xlink:href="#DejaVuSans-6f" x="1127.677734"/>
     <use xlink:href="#DejaVuSans-66" x="1188.859375"/>
     <use xlink:href="#DejaVuSans-20" x="1224.064453"/>
     <use xlink:href="#DejaVuSans-42" x="1255.851562"/>
     <use xlink:href="#DejaVuSans-72" x="1324.455078"/>
     <use xlink:href="#DejaVuSans-6f" x="1363.318359"/>
     <use xlink:href="#DejaVuSans-6e" x="1424.5"/>
     <use xlink:href="#DejaVuSans-2d" x="1487.878906"/>
     <use xlink:href="#DejaVuSans-4b" x="1523.962891"/>
     <use xlink:href="#DejaVuSans-65" x="1584.539062"/>
     <use xlink:href="#DejaVuSans-72" x="1646.0625"/>
     <use xlink:href="#DejaVuSans-62" x="1687.175781"/>
     <use xlink:href="#DejaVuSans-6f" x="1750.652344"/>
     <use xlink:href="#DejaVuSans-73" x="1811.833984"/>
     <use xlink:href="#DejaVuSans-63" x="1863.933594"/>
     <use xlink:href="#DejaVuSans-68" x="1918.914062"/>
     <use xlink:href="#DejaVuSans-20" x="1982.292969"/>
     <use xlink:href="#DejaVuSans-56" x="2014.080078"/>
     <use xlink:href="#DejaVuSans-65" x="2074.738281"/>
     <use xlink:href="#DejaVuSans-72" x="2136.261719"/>
     <use xlink:href="#DejaVuSans-33" x="2177.375"/>
     <use xlink:href="#DejaVuSans-bd" x="2240.998047"/>
     <use xlink:href="#DejaVuSans-2d" x="2337.921875"/>
     <use xlink:href="#DejaVuSans-47" x="2377.630859"/>
     <use xlink:href="#DejaVuSans-50" x="2455.121094"/>
     <use xlink:href="#DejaVuSans-20" x="2515.423828"/>
     <use xlink:href="#DejaVuSans-6f" x="2547.210938"/>
     <use xlink:href="#DejaVuSans-6e" x="2608.392578"/>
     <use xlink:href="#DejaVuSans-20" x="2671.771484"/>
     <use xlink:href="#DejaVuSans-61" x="2703.558594"/>
     <use xlink:href="#DejaVuSans-20" x="2764.837891"/>
     <use xlink:href="#DejaVuSans-72" x="2796.625"/>
     <use xlink:href="#DejaVuSans-61" x="2837.738281"/>
     <use xlink:href="#DejaVuSans-6e" x="2899.017578"/>
     <use xlink:href="#DejaVuSans-64" x="2962.396484"/>
     <use xlink:href="#DejaVuSans-6f" x="3025.873047"/>
     <use xlink:href="#DejaVuSans-6d" x="3087.054688"/>
     <use xlink:href="#DejaVuSans-20" x="3184.466797"/>
     <use xlink:href="#DejaVuSans-67" x="3216.253906"/>
     <use xlink:href="#DejaVuSans-72" x="3279.730469"/>
     <use xlink:href="#DejaVuSans-61" x="3320.84375"/>
     <use xlink:href="#DejaVuSans-70" x="3382.123047"/>
     <use xlink:href="#DejaVuSans-68" x="3445.599609"/>
     <use xlink:href="#DejaVuSans-20" x="3508.978516"/>
     <use xlink:href="#DejaVuSans-6f" x="3540.765625"/>
     <use xlink:href="#DejaVuSans-66" x="3601.947266"/>
     <use xlink:href="#DejaVuSans-20" x="3637.152344"/>
     <use xlink:href="#DejaVuSans-6f" x="3668.939453"/>
     <use xlink:href="#DejaVuSans-72" x="3730.121094"/>
     <use xlink:href="#DejaVuSans-64" x="3769.484375"/>
     <use xlink:href="#DejaVuSans-65" x="3832.960938"/>
     <use xlink:href="#DejaVuSans-72" x="3894.484375"/>
     <use xlink:href="#DejaVuSans-20" x="3935.597656"/>
     <use xlink:href="#DejaVuSans-31" x="3967.384766"/>
     <use xlink:href="#DejaVuSans-4d" x="4031.007812"/>
    </g>
   </g>
   <g id="legend_1">
    <g id="patch_7">
     <path d="M 51.57 108.54875 
L 148.45125 108.54875 
Q 150.45125 108.54875 150.45125 106.54875 
L 150.45125 33.88 
Q 150.45125 31.88 148.45125 31.88 
L 51.57 31.88 
Q 49.57 31.88 49.57 33.88 
L 49.57 106.54875 
Q 49.57 108.54875 51.57 108.54875 
z
" style="fill: #ffffff; opacity: 0.8; stroke: #cccccc; stroke-linejoin: miter"/>
    </g>
    <g id="LineCollection_6">
     <path d="M 63.57 44.978437 
L 63.57 34.978437 
" style="fill: none; stroke: #1f77b4; stroke-width: 1.5"/>
    </g>
    <g id="line2d_28">
     <g>
      <use xlink:href="#md8547b9e7e" x="63.57" y="44.978437" style="fill: #1f77b4; stroke: #1f77b4"/>
     </g>
    </g>
    <g id="line2d_29">
     <g>
      <use xlink:href="#md8547b9e7e" x="63.57" y="34.978437" style="fill: #1f77b4; stroke: #1f77b4"/>
     </g>
    </g>
    <g id="line2d_30">
     <path d="M 53.57 39.978437 
L 73.57 39.978437 
" style="fill: none; stroke: #1f77b4; stroke-width: 1.5; stroke-linecap: square"/>
    </g>
    <g id="line2d_31"/>
    <g id="text_17">
     <!-- @BTree -->
     <g transform="translate(81.57 43.478437)scale(0.1 -0.1)">
      <defs>
       <path id="DejaVuSans-40" d="M 2381 1678 
Q 2381 1231 2603 976 
Q 2825 722 3213 722 
Q 3597 722 3817 978 
Q 4038 1234 4038 1678 
Q 4038 2116 3813 2373 
Q 3588 2631 3206 2631 
Q 2828 2631 2604 2375 
Q 2381 2119 2381 1678 
z
M 4084 744 
Q 3897 503 3655 389 
Q 3413 275 3091 275 
Q 2553 275 2217 664 
Q 1881 1053 1881 1678 
Q 1881 2303 2218 2693 
Q 2556 3084 3091 3084 
Q 3413 3084 3656 2967 
Q 3900 2850 4084 2613 
L 4084 3022 
L 4531 3022 
L 4531 722 
Q 4988 791 5245 1139 
Q 5503 1488 5503 2041 
Q 5503 2375 5404 2669 
Q 5306 2963 5106 3213 
Q 4781 3622 4314 3839 
Q 3847 4056 3297 4056 
Q 2913 4056 2559 3954 
Q 2206 3853 1906 3653 
Q 1416 3334 1139 2817 
Q 863 2300 863 1697 
Q 863 1200 1042 765 
Q 1222 331 1563 0 
Q 1891 -325 2322 -495 
Q 2753 -666 3244 -666 
Q 3647 -666 4036 -530 
Q 4425 -394 4750 -141 
L 5031 -488 
Q 4641 -791 4180 -952 
Q 3719 -1113 3244 -1113 
Q 2666 -1113 2153 -908 
Q 1641 -703 1241 -313 
Q 841 78 631 592 
Q 422 1106 422 1697 
Q 422 2266 634 2781 
Q 847 3297 1241 3688 
Q 1644 4084 2172 4295 
Q 2700 4506 3291 4506 
Q 3953 4506 4520 4234 
Q 5088 3963 5472 3463 
Q 5706 3156 5829 2797 
Q 5953 2438 5953 2053 
Q 5953 1231 5456 756 
Q 4959 281 4084 263 
L 4084 744 
z
" transform="scale(0.015625)"/>
       <path id="DejaVuSans-54" d="M -19 4666 
L 3928 4666 
L 3928 4134 
L 2272 4134 
L 2272 0 
L 1638 0 
L 1638 4134 
L -19 4134 
L -19 4666 
z
" transform="scale(0.015625)"/>
      </defs>
      <use xlink:href="#DejaVuSans-40"/>
      <use xlink:href="#DejaVuSans-42" x="100"/>
      <use xlink:href="#DejaVuSans-54" x="168.603516"/>
      <use xlink:href="#DejaVuSans-72" x="214.9375"/>
      <use xlink:href="#DejaVuSans-65" x="253.800781"/>
      <use xlink:href="#DejaVuSans-65" x="315.324219"/>
     </g>
    </g>
    <g id="LineCollection_7">
     <path d="M 63.57 59.656563 
L 63.57 49.656563 
" style="fill: none; stroke: #ff7f0e; stroke-width: 1.5"/>
    </g>
    <g id="line2d_32">
     <g>
      <use xlink:href="#m7f04267d81" x="63.57" y="59.656563" style="fill: #ff7f0e; stroke: #ff7f0e"/>
     </g>
    </g>
    <g id="line2d_33">
     <g>
      <use xlink:href="#m7f04267d81" x="63.57" y="49.656563" style="fill: #ff7f0e; stroke: #ff7f0e"/>
     </g>
    </g>
    <g id="line2d_34">
     <path d="M 53.57 54.656563 
L 73.57 54.656563 
" style="fill: none; stroke: #ff7f0e; stroke-width: 1.5; stroke-linecap: square"/>
    </g>
    <g id="line2d_35"/>
    <g id="text_18">
     <!-- @Hash -->
     <g transform="translate(81.57 58.156563)scale(0.1 -0.1)">
      <defs>
       <path id="DejaVuSans-48" d="M 628 4666 
L 1259 4666 
L 1259 2753 
L 3553 2753 
L 3553 4666 
L 4184 4666 
L 4184 0 
L 3553 0 
L 3553 2222 
L 1259 2222 
L 1259 0 
L 628 0 
L 628 4666 
z
" transform="scale(0.015625)"/>
      </defs>
      <use xlink:href="#DejaVuSans-40"/>
      <use xlink:href="#DejaVuSans-48" x="100"/>
      <use xlink:href="#DejaVuSans-61" x="175.195312"/>
      <use xlink:href="#DejaVuSans-73" x="236.474609"/>
      <use xlink:href="#DejaVuSans-68" x="288.574219"/>
     </g>
    </g>
    <g id="LineCollection_8">
     <path d="M 63.57 74.334687 
L 63.57 64.334687 
" style="fill: none; stroke: #2ca02c; stroke-width: 1.5"/>
    </g>
    <g id="line2d_36">
     <g>
      <use xlink:href="#mf3fc7103a7" x="63.57" y="74.334687" style="fill: #2ca02c; stroke: #2ca02c"/>
     </g>
    </g>
    <g id="line2d_37">
     <g>
      <use xlink:href="#mf3fc7103a7" x="63.57" y="64.334687" style="fill: #2ca02c; stroke: #2ca02c"/>
     </g>
    </g>
    <g id="line2d_38">
     <path d="M 53.57 69.334687 
L 73.57 69.334687 
" style="fill: none; stroke: #2ca02c; stroke-width: 1.5; stroke-linecap: square"/>
    </g>
    <g id="line2d_39"/>
    <g id="text_19">
     <!-- @hashbrown -->
     <g transform="translate(81.57 72.834687)scale(0.1 -0.1)">
      <defs>
       <path id="DejaVuSans-77" d="M 269 3500 
L 844 3500 
L 1563 769 
L 2278 3500 
L 2956 3500 
L 3675 769 
L 4391 3500 
L 4966 3500 
L 4050 0 
L 3372 0 
L 2619 2869 
L 1863 0 
L 1184 0 
L 269 3500 
z
" transform="scale(0.015625)"/>
      </defs>
      <use xlink:href="#DejaVuSans-40"/>
      <use xlink:href="#DejaVuSans-68" x="100"/>
      <use xlink:href="#DejaVuSans-61" x="163.378906"/>
      <use xlink:href="#DejaVuSans-73" x="224.658203"/>
      <use xlink:href="#DejaVuSans-68" x="276.757812"/>
      <use xlink:href="#DejaVuSans-62" x="340.136719"/>
      <use xlink:href="#DejaVuSans-72" x="403.613281"/>
      <use xlink:href="#DejaVuSans-6f" x="442.476562"/>
      <use xlink:href="#DejaVuSans-77" x="503.658203"/>
      <use xlink:href="#DejaVuSans-6e" x="585.445312"/>
     </g>
    </g>
    <g id="LineCollection_9">
     <path d="M 63.57 89.012812 
L 63.57 79.012812 
" style="fill: none; stroke: #d62728; stroke-width: 1.5"/>
    </g>
    <g id="line2d_40">
     <g>
      <use xlink:href="#mf91cc8dc79" x="63.57" y="89.012812" style="fill: #d62728; stroke: #d62728"/>
     </g>
    </g>
    <g id="line2d_41">
     <g>
      <use xlink:href="#mf91cc8dc79" x="63.57" y="79.012812" style="fill: #d62728; stroke: #d62728"/>
     </g>
    </g>
    <g id="line2d_42">
     <path d="M 53.57 84.012812 
L 73.57 84.012812 
" style="fill: none; stroke: #d62728; stroke-width: 1.5; stroke-linecap: square"/>
    </g>
    <g id="line2d_43"/>
    <g id="text_20">
     <!-- @fnv -->
     <g transform="translate(81.57 87.512812)scale(0.1 -0.1)">
      <defs>
       <path id="DejaVuSans-76" d="M 191 3500 
L 800 3500 
L 1894 563 
L 2988 3500 
L 3597 3500 
L 2284 0 
L 1503 0 
L 191 3500 
z
" transform="scale(0.015625)"/>
      </defs>
      <use xlink:href="#DejaVuSans-40"/>
      <use xlink:href="#DejaVuSans-66" x="100"/>
      <use xlink:href="#DejaVuSans-6e" x="135.205078"/>
      <use xlink:href="#DejaVuSans-76" x="198.583984"/>
     </g>
    </g>
    <g id="LineCollection_10">
     <path d="M 63.57 103.690938 
L 63.57 93.690938 
" style="fill: none; stroke: #9467bd; stroke-width: 1.5"/>
    </g>
    <g id="line2d_44">
     <g>
      <use xlink:href="#m0cb540596a" x="63.57" y="103.690938" style="fill: #9467bd; stroke: #9467bd"/>
     </g>
    </g>
    <g id="line2d_45">
     <g>
      <use xlink:href="#m0cb540596a" x="63.57" y="93.690938" style="fill: #9467bd; stroke: #9467bd"/>
     </g>
    </g>
    <g id="line2d_46">
     <path d="M 53.57 98.690938 
L 73.57 98.690938 
" style="fill: none; stroke: #9467bd; stroke-width: 1.5; stroke-linecap: square"/>
    </g>
    <g id="line2d_47"/>
    <g id="text_21">
     <!-- @ord_vec -->
     <g transform="translate(81.57 102.190938)scale(0.1 -0.1)">
      <defs>
       <path id="DejaVuSans-5f" d="M 3263 -1063 
L 3263 -1509 
L -63 -1509 
L -63 -1063 
L 3263 -1063 
z
" transform="scale(0.015625)"/>
      </defs>
      <use xlink:href="#DejaVuSans-40"/>
      <use xlink:href="#DejaVuSans-6f" x="100"/>
      <use xlink:href="#DejaVuSans-72" x="161.181641"/>
      <use xlink:href="#DejaVuSans-64" x="200.544922"/>
      <use xlink:href="#DejaVuSans-5f" x="264.021484"/>
      <use xlink:href="#DejaVuSans-76" x="314.021484"/>
      <use xlink:href="#DejaVuSans-65" x="373.201172"/>
      <use xlink:href="#DejaVuSans-63" x="434.724609"/>
     </g>
    </g>
   </g>
  </g>
 </g>
 <defs>
  <clipPath id="p5e051bb439">
   <rect x="44.57" y="26.88" width="520.63" height="363.16"/>
  </clipPath>
 </defs>
</svg>
