<?xml version="1.0" encoding="utf-8" standalone="no"?>
<!DOCTYPE svg PUBLIC "-//W3C//DTD SVG 1.1//EN"
  "http://www.w3.org/Graphics/SVG/1.1/DTD/svg11.dtd">
<svg xmlns:xlink="http://www.w3.org/1999/xlink" width="576pt" height="432pt" viewBox="0 0 576 432" xmlns="http://www.w3.org/2000/svg" version="1.1">
 <metadata>
  <rdf:RDF xmlns:dc="http://purl.org/dc/elements/1.1/" xmlns:cc="http://creativecommons.org/ns#" xmlns:rdf="http://www.w3.org/1999/02/22-rdf-syntax-ns#">
   <cc:Work>
    <dc:type rdf:resource="http://purl.org/dc/dcmitype/StillImage"/>
    <dc:date>2026-04-08T14:28:45.348996</dc:date>
    <dc:format>image/svg+xml</dc:format>
    <dc:creator>
     <cc:Agent>
      <dc:title>Matplotlib v3.10.8, https://matplotlib.org/</dc:title>
     </cc:Agent>
    </dc:creator>
   </cc:Work>
  </rdf:RDF>
 </metadata>
 <defs>
  <style type="text/css">*{stroke-linejoin: round; stroke-linecap: butt}</style>
 </defs>
 <g id="figure_1">
  <g id="patch_1">
   <path d="M 0 432 
L 576 432 
L 576 0 
L 0 0 
z
" style="fill: #ffffff"/>
  </g>
  <g id="axes_1">
   <g id="patch_2">
    <path d="M 38.27 390.04 
L 565.2 390.04 
L 565.2 26.88 
L 38.27 26.88 
z
" style="fill: #ffffff"/>
   </g>
   <g id="matplotlib.axis_1">
    <g id="xtick_1">
     <g id="line2d_1">
      <defs>
       <path id="mc74f61fcfc" d="M 0 0 
L 0 3.5 
" style="stroke: #000000; stroke-width: 0.8"/>
      </defs>
      <g>
       <use xlink:href="#mc74f61fcfc" x="115.446616" y="390.04" style="stroke: #000000; stroke-width: 0.8"/>
      </g>
     </g>
     <g id="text_1">
      <!-- 1 -->
      <g transform="translate(112.265366 404.638438) scale(0.1 -0.1)">
       <defs>
        <path id="DejaVuSans-31" d="M 794 531 
L 1825 531 
L 1825 4091 
L 703 3866 
L 703 4441 
L 1819 4666 
L 2450 4666 
L 2450 531 
L 3481 531 
L 3481 0 
L 794 0 
L 794 531 
z
" transform="scale(0.015625)"/>
       </defs>
       <use xlink:href="#DejaVuSans-31"/>
      </g>
     </g>
    </g>
    <g id="xtick_2">
     <g id="line2d_2">
      <g>
       <use xlink:href="#mc74f61fcfc" x="221.897121" y="390.04" style="stroke: #000000; stroke-width: 0.8"/>
      </g>
     </g>
     <g id="text_2">
      <!-- 2 -->
      <g transform="translate(218.715871 404.638438) scale(0.1 -0.1)">
       <defs>
        <path id="DejaVuSans-32" d="M 1228 531 
L 3431 531 
L 3431 0 
L 469 0 
L 469 531 
Q 828 903 1448 1529 
Q 2069 2156 2228 2338 
Q 2531 2678 2651 2914 
Q 2772 3150 2772 3378 
Q 2772 3750 2511 3984 
Q 2250 4219 1831 4219 
Q 1534 4219 1204 4116 
Q 875 4013 500 3803 
L 500 4441 
Q 881 4594 1212 4672 
Q 1544 4750 1819 4750 
Q 2544 4750 2975 4387 
Q 3406 4025 3406 3419 
Q 3406 3131 3298 2873 
Q 3191 2616 2906 2266 
Q 2828 2175 2409 1742 
Q 1991 1309 1228 531 
z
" transform="scale(0.015625)"/>
       </defs>
       <use xlink:href="#DejaVuSans-32"/>
      </g>
     </g>
    </g>
    <g id="xtick_3">
     <g id="line2d_3">
      <g>
       <use xlink:href="#mc74f61fcfc" x="328.347626" y="390.04" style="stroke: #000000; stroke-width: 0.8"/>
      </g>
     </g>
     <g id="text_3">
      <!-- 3 -->
      <g transform="translate(325.166376 404.638438) scale(0.1 -0.1)">
       <defs>
        <path id="DejaVuSans-33" d="M 2597 2516 
Q 3050 2419 3304 2112 
Q 3559 1806 3559 1356 
Q 3559 666 3084 287 
Q 2609 -91 1734 -91 
Q 1441 -91 1130 -33 
Q 819 25 488 141 
L 488 750 
Q 750 597 1062 519 
Q 1375 441 1716 441 
Q 2309 441 2620 675 
Q 2931 909 2931 1356 
Q 2931 1769 2642 2001 
Q 2353 2234 1838 2234 
L 1294 2234 
L 1294 2753 
L 1863 2753 
Q 2328 2753 2575 2939 
Q 2822 3125 2822 3475 
Q 2822 3834 2567 4026 
Q 2313 4219 1838 4219 
Q 1578 4219 1281 4162 
Q 984 4106 628 3988 
L 628 4550 
Q 988 4650 1302 4700 
Q 1616 4750 1894 4750 
Q 2613 4750 3031 4423 
Q 3450 4097 3450 3541 
Q 3450 3153 3228 2886 
Q 3006 2619 2597 2516 
z
" transform="scale(0.015625)"/>
       </defs>
       <use xlink:href="#DejaVuSans-33"/>
      </g>
     </g>
    </g>
    <g id="xtick_4">
     <g id="line2d_4">
      <g>
       <use xlink:href="#mc74f61fcfc" x="434.798131" y="390.04" style="stroke: #000000; stroke-width: 0.8"/>
      </g>
     </g>
     <g id="text_4">
      <!-- 4 -->
      <g transform="translate(431.616881 404.638438) scale(0.1 -0.1)">
       <defs>
        <path id="DejaVuSans-34" d="M 2419 4116 
L 825 1625 
L 2419 1625 
L 2419 4116 
z
M 2253 4666 
L 3047 4666 
L 3047 1625 
L 3713 1625 
L 3713 1100 
L 3047 1100 
L 3047 0 
L 2419 0 
L 2419 1100 
L 313 1100 
L 313 1709 
L 2253 4666 
z
" transform="scale(0.015625)"/>
       </defs>
       <use xlink:href="#DejaVuSans-34"/>
      </g>
     </g>
    </g>
    <g id="xtick_5">
     <g id="line2d_5">
      <g>
       <use xlink:href="#mc74f61fcfc" x="541.248636" y="390.04" style="stroke: #000000; stroke-width: 0.8"/>
      </g>
     </g>
     <g id="text_5">
      <!-- 5 -->
      <g transform="translate(538.067386 404.638438) scale(0.1 -0.1)">
       <defs>
        <path id="DejaVuSans-35" d="M 691 4666 
L 3169 4666 
L 3169 4134 
L 1269 4134 
L 1269 2991 
Q 1406 3038 1543 3061 
Q 1681 3084 1819 3084 
Q 2600 3084 3056 2656 
Q 3513 2228 3513 1497 
Q 3513 744 3044 326 
Q 2575 -91 1722 -91 
Q 1428 -91 1123 -41 
Q 819 9 494 109 
L 494 744 
Q 775 591 1075 516 
Q 1375 441 1709 441 
Q 2250 441 2565 725 
Q 2881 1009 2881 1497 
Q 2881 1984 2565 2268 
Q 2250 2553 1709 2553 
Q 1456 2553 1204 2497 
Q 953 2441 691 2322 
L 691 4666 
z
" transform="scale(0.015625)"/>
       </defs>
       <use xlink:href="#DejaVuSans-35"/>
      </g>
     </g>
    </g>
    <g id="text_6">
     <!-- Size (#edges) -->
     <g transform="translate(266.684219 418.316562) scale(0.1 -0.1)">
      <defs>
       <path id="DejaVuSans-53" d="M 3425 4513 
L 3425 3897 
Q 3066 4069 2747 4153 
Q 2428 4238 2131 4238 
Q 1616 4238 1336 4038 
Q 1056 3838 1056 3469 
Q 1056 3159 1242 3001 
Q 1428 2844 1947 2747 
L 2328 2669 
Q 3034 2534 3370 2195 
Q 3706 1856 3706 1288 
Q 3706 609 3251 259 
Q 2797 -91 1919 -91 
Q 1588 -91 1214 -16 
Q 841 59 441 206 
L 441 856 
Q 825 641 1194 531 
Q 1563 422 1919 422 
Q 2459 422 2753 634 
Q 3047 847 3047 1241 
Q 3047 1584 2836 1778 
Q 2625 1972 2144 2069 
L 1759 2144 
Q 1053 2284 737 2584 
Q 422 2884 422 3419 
Q 422 4038 858 4394 
Q 1294 4750 2059 4750 
Q 2388 4750 2728 4690 
Q 3069 4631 3425 4513 
z
" transform="scale(0.015625)"/>
       <path id="DejaVuSans-69" d="M 603 3500 
L 1178 3500 
L 1178 0 
L 603 0 
L 603 3500 
z
M 603 4863 
L 1178 4863 
L 1178 4134 
L 603 4134 
L 603 4863 
z
" transform="scale(0.015625)"/>
       <path id="DejaVuSans-7a" d="M 353 3500 
L 3084 3500 
L 3084 2975 
L 922 459 
L 3084 459 
L 3084 0 
L 275 0 
L 275 525 
L 2438 3041 
L 353 3041 
L 353 3500 
z
" transform="scale(0.015625)"/>
       <path id="DejaVuSans-65" d="M 3597 1894 
L 3597 1613 
L 953 1613 
Q 991 1019 1311 708 
Q 1631 397 2203 397 
Q 2534 397 2845 478 
Q 3156 559 3463 722 
L 3463 178 
Q 3153 47 2828 -22 
Q 2503 -91 2169 -91 
Q 1331 -91 842 396 
Q 353 884 353 1716 
Q 353 2575 817 3079 
Q 1281 3584 2069 3584 
Q 2775 3584 3186 3129 
Q 3597 2675 3597 1894 
z
M 3022 2063 
Q 3016 2534 2758 2815 
Q 2500 3097 2075 3097 
Q 1594 3097 1305 2825 
Q 1016 2553 972 2059 
L 3022 2063 
z
" transform="scale(0.015625)"/>
       <path id="DejaVuSans-20" transform="scale(0.015625)"/>
       <path id="DejaVuSans-28" d="M 1984 4856 
Q 1566 4138 1362 3434 
Q 1159 2731 1159 2009 
Q 1159 1288 1364 580 
Q 1569 -128 1984 -844 
L 1484 -844 
Q 1016 -109 783 600 
Q 550 1309 550 2009 
Q 550 2706 781 3412 
Q 1013 4119 1484 4856 
L 1984 4856 
z
" transform="scale(0.015625)"/>
       <path id="DejaVuSans-23" d="M 3272 2816 
L 2363 2816 
L 2100 1772 
L 3016 1772 
L 3272 2816 
z
M 2803 4594 
L 2478 3297 
L 3391 3297 
L 3719 4594 
L 4219 4594 
L 3897 3297 
L 4872 3297 
L 4872 2816 
L 3775 2816 
L 3519 1772 
L 4513 1772 
L 4513 1294 
L 3397 1294 
L 3072 0 
L 2572 0 
L 2894 1294 
L 1978 1294 
L 1656 0 
L 1153 0 
L 1478 1294 
L 494 1294 
L 494 1772 
L 1594 1772 
L 1856 2816 
L 850 2816 
L 850 3297 
L 1978 3297 
L 2297 4594 
L 2803 4594 
z
" transform="scale(0.015625)"/>
       <path id="DejaVuSans-64" d="M 2906 2969 
L 2906 4863 
L 3481 4863 
L 3481 0 
L 2906 0 
L 2906 525 
Q 2725 213 2448 61 
Q 2172 -91 1784 -91 
Q 1150 -91 751 415 
Q 353 922 353 1747 
Q 353 2572 751 3078 
Q 1150 3584 1784 3584 
Q 2172 3584 2448 3432 
Q 2725 3281 2906 2969 
z
M 947 1747 
Q 947 1113 1208 752 
Q 1469 391 1925 391 
Q 2381 391 2643 752 
Q 2906 1113 2906 1747 
Q 2906 2381 2643 2742 
Q 2381 3103 1925 3103 
Q 1469 3103 1208 2742 
Q 947 2381 947 1747 
z
" transform="scale(0.015625)"/>
       <path id="DejaVuSans-67" d="M 2906 1791 
Q 2906 2416 2648 2759 
Q 2391 3103 1925 3103 
Q 1463 3103 1205 2759 
Q 947 2416 947 1791 
Q 947 1169 1205 825 
Q 1463 481 1925 481 
Q 2391 481 2648 825 
Q 2906 1169 2906 1791 
z
M 3481 434 
Q 3481 -459 3084 -895 
Q 2688 -1331 1869 -1331 
Q 1566 -1331 1297 -1286 
Q 1028 -1241 775 -1147 
L 775 -588 
Q 1028 -725 1275 -790 
Q 1522 -856 1778 -856 
Q 2344 -856 2625 -561 
Q 2906 -266 2906 331 
L 2906 616 
Q 2728 306 2450 153 
Q 2172 0 1784 0 
Q 1141 0 747 490 
Q 353 981 353 1791 
Q 353 2603 747 3093 
Q 1141 3584 1784 3584 
Q 2172 3584 2450 3431 
Q 2728 3278 2906 2969 
L 2906 3500 
L 3481 3500 
L 3481 434 
z
" transform="scale(0.015625)"/>
       <path id="DejaVuSans-73" d="M 2834 3397 
L 2834 2853 
Q 2591 2978 2328 3040 
Q 2066 3103 1784 3103 
Q 1356 3103 1142 2972 
Q 928 2841 928 2578 
Q 928 2378 1081 2264 
Q 1234 2150 1697 2047 
L 1894 2003 
Q 2506 1872 2764 1633 
Q 3022 1394 3022 966 
Q 3022 478 2636 193 
Q 2250 -91 1575 -91 
Q 1294 -91 989 -36 
Q 684 19 347 128 
L 347 722 
Q 666 556 975 473 
Q 1284 391 1588 391 
Q 1994 391 2212 530 
Q 2431 669 2431 922 
Q 2431 1156 2273 1281 
Q 2116 1406 1581 1522 
L 1381 1569 
Q 847 1681 609 1914 
Q 372 2147 372 2553 
Q 372 3047 722 3315 
Q 1072 3584 1716 3584 
Q 2034 3584 2315 3537 
Q 2597 3491 2834 3397 
z
" transform="scale(0.015625)"/>
       <path id="DejaVuSans-29" d="M 513 4856 
L 1013 4856 
Q 1481 4119 1714 3412 
Q 1947 2706 1947 2009 
Q 1947 1309 1714 600 
Q 1481 -109 1013 -844 
L 513 -844 
Q 928 -128 1133 580 
Q 1338 1288 1338 2009 
Q 1338 2731 1133 3434 
Q 928 4138 513 4856 
z
" transform="scale(0.015625)"/>
      </defs>
      <use xlink:href="#DejaVuSans-53"/>
      <use xlink:href="#DejaVuSans-69" transform="translate(63.476562 0)"/>
      <use xlink:href="#DejaVuSans-7a" transform="translate(91.259766 0)"/>
      <use xlink:href="#DejaVuSans-65" transform="translate(143.75 0)"/>
      <use xlink:href="#DejaVuSans-20" transform="translate(205.273438 0)"/>
      <use xlink:href="#DejaVuSans-28" transform="translate(237.060547 0)"/>
      <use xlink:href="#DejaVuSans-23" transform="translate(276.074219 0)"/>
      <use xlink:href="#DejaVuSans-65" transform="translate(359.863281 0)"/>
      <use xlink:href="#DejaVuSans-64" transform="translate(421.386719 0)"/>
      <use xlink:href="#DejaVuSans-67" transform="translate(484.863281 0)"/>
      <use xlink:href="#DejaVuSans-65" transform="translate(548.339844 0)"/>
      <use xlink:href="#DejaVuSans-73" transform="translate(609.863281 0)"/>
      <use xlink:href="#DejaVuSans-29" transform="translate(661.962891 0)"/>
     </g>
    </g>
    <g id="text_7">
     <!-- 1e6 -->
     <g transform="translate(546.321875 417.316562) scale(0.1 -0.1)">
      <defs>
       <path id="DejaVuSans-36" d="M 2113 2584 
Q 1688 2584 1439 2293 
Q 1191 2003 1191 1497 
Q 1191 994 1439 701 
Q 1688 409 2113 409 
Q 2538 409 2786 701 
Q 3034 994 3034 1497 
Q 3034 2003 2786 2293 
Q 2538 2584 2113 2584 
z
M 3366 4563 
L 3366 3988 
Q 3128 4100 2886 4159 
Q 2644 4219 2406 4219 
Q 1781 4219 1451 3797 
Q 1122 3375 1075 2522 
Q 1259 2794 1537 2939 
Q 1816 3084 2150 3084 
Q 2853 3084 3261 2657 
Q 3669 2231 3669 1497 
Q 3669 778 3244 343 
Q 2819 -91 2113 -91 
Q 1303 -91 875 529 
Q 447 1150 447 2328 
Q 447 3434 972 4092 
Q 1497 4750 2381 4750 
Q 2619 4750 2861 4703 
Q 3103 4656 3366 4563 
z
" transform="scale(0.015625)"/>
      </defs>
      <use xlink:href="#DejaVuSans-31"/>
      <use xlink:href="#DejaVuSans-65" transform="translate(63.623047 0)"/>
      <use xlink:href="#DejaVuSans-36" transform="translate(125.146484 0)"/>
     </g>
    </g>
   </g>
   <g id="matplotlib.axis_2">
    <g id="ytick_1">
     <g id="line2d_6">
      <defs>
       <path id="m7eb1c47a8f" d="M 0 0 
L -3.5 0 
" style="stroke: #000000; stroke-width: 0.8"/>
      </defs>
      <g>
       <use xlink:href="#m7eb1c47a8f" x="38.27" y="387.687514" style="stroke: #000000; stroke-width: 0.8"/>
      </g>
     </g>
     <g id="text_8">
      <!-- 0 -->
      <g transform="translate(24.9075 391.486733) scale(0.1 -0.1)">
       <defs>
        <path id="DejaVuSans-30" d="M 2034 4250 
Q 1547 4250 1301 3770 
Q 1056 3291 1056 2328 
Q 1056 1369 1301 889 
Q 1547 409 2034 409 
Q 2525 409 2770 889 
Q 3016 1369 3016 2328 
Q 3016 3291 2770 3770 
Q 2525 4250 2034 4250 
z
M 2034 4750 
Q 2819 4750 3233 4129 
Q 3647 3509 3647 2328 
Q 3647 1150 3233 529 
Q 2819 -91 2034 -91 
Q 1250 -91 836 529 
Q 422 1150 422 2328 
Q 422 3509 836 4129 
Q 1250 4750 2034 4750 
z
" transform="scale(0.015625)"/>
       </defs>
       <use xlink:href="#DejaVuSans-30"/>
      </g>
     </g>
    </g>
    <g id="ytick_2">
     <g id="line2d_7">
      <g>
       <use xlink:href="#m7eb1c47a8f" x="38.27" y="321.233115" style="stroke: #000000; stroke-width: 0.8"/>
      </g>
     </g>
     <g id="text_9">
      <!-- 1 -->
      <g transform="translate(24.9075 325.032334) scale(0.1 -0.1)">
       <use xlink:href="#DejaVuSans-31"/>
      </g>
     </g>
    </g>
    <g id="ytick_3">
     <g id="line2d_8">
      <g>
       <use xlink:href="#m7eb1c47a8f" x="38.27" y="254.778716" style="stroke: #000000; stroke-width: 0.8"/>
      </g>
     </g>
     <g id="text_10">
      <!-- 2 -->
      <g transform="translate(24.9075 258.577935) scale(0.1 -0.1)">
       <use xlink:href="#DejaVuSans-32"/>
      </g>
     </g>
    </g>
    <g id="ytick_4">
     <g id="line2d_9">
      <g>
       <use xlink:href="#m7eb1c47a8f" x="38.27" y="188.324317" style="stroke: #000000; stroke-width: 0.8"/>
      </g>
     </g>
     <g id="text_11">
      <!-- 3 -->
      <g transform="translate(24.9075 192.123536) scale(0.1 -0.1)">
       <use xlink:href="#DejaVuSans-33"/>
      </g>
     </g>
    </g>
    <g id="ytick_5">
     <g id="line2d_10">
      <g>
       <use xlink:href="#m7eb1c47a8f" x="38.27" y="121.869918" style="stroke: #000000; stroke-width: 0.8"/>
      </g>
     </g>
     <g id="text_12">
      <!-- 4 -->
      <g transform="translate(24.9075 125.669137) scale(0.1 -0.1)">
       <use xlink:href="#DejaVuSans-34"/>
      </g>
     </g>
    </g>
    <g id="ytick_6">
     <g id="line2d_11">
      <g>
       <use xlink:href="#m7eb1c47a8f" x="38.27" y="55.415519" style="stroke: #000000; stroke-width: 0.8"/>
      </g>
     </g>
     <g id="text_13">
      <!-- 5 -->
      <g transform="translate(24.9075 59.214738) scale(0.1 -0.1)">
       <use xlink:href="#DejaVuSans-35"/>
      </g>
     </g>
    </g>
    <g id="text_14">
     <!-- Seconds spent -->
     <g transform="translate(18.827813 245.040469) rotate(-90) scale(0.1 -0.1)">
      <defs>
       <path id="DejaVuSans-63" d="M 3122 3366 
L 3122 2828 
Q 2878 2963 2633 3030 
Q 2388 3097 2138 3097 
Q 1578 3097 1268 2742 
Q 959 2388 959 1747 
Q 959 1106 1268 751 
Q 1578 397 2138 397 
Q 2388 397 2633 464 
Q 2878 531 3122 666 
L 3122 134 
Q 2881 22 2623 -34 
Q 2366 -91 2075 -91 
Q 1284 -91 818 406 
Q 353 903 353 1747 
Q 353 2603 823 3093 
Q 1294 3584 2113 3584 
Q 2378 3584 2631 3529 
Q 2884 3475 3122 3366 
z
" transform="scale(0.015625)"/>
       <path id="DejaVuSans-6f" d="M 1959 3097 
Q 1497 3097 1228 2736 
Q 959 2375 959 1747 
Q 959 1119 1226 758 
Q 1494 397 1959 397 
Q 2419 397 2687 759 
Q 2956 1122 2956 1747 
Q 2956 2369 2687 2733 
Q 2419 3097 1959 3097 
z
M 1959 3584 
Q 2709 3584 3137 3096 
Q 3566 2609 3566 1747 
Q 3566 888 3137 398 
Q 2709 -91 1959 -91 
Q 1206 -91 779 398 
Q 353 888 353 1747 
Q 353 2609 779 3096 
Q 1206 3584 1959 3584 
z
" transform="scale(0.015625)"/>
       <path id="DejaVuSans-6e" d="M 3513 2113 
L 3513 0 
L 2938 0 
L 2938 2094 
Q 2938 2591 2744 2837 
Q 2550 3084 2163 3084 
Q 1697 3084 1428 2787 
Q 1159 2491 1159 1978 
L 1159 0 
L 581 0 
L 581 3500 
L 1159 3500 
L 1159 2956 
Q 1366 3272 1645 3428 
Q 1925 3584 2291 3584 
Q 2894 3584 3203 3211 
Q 3513 2838 3513 2113 
z
" transform="scale(0.015625)"/>
       <path id="DejaVuSans-70" d="M 1159 525 
L 1159 -1331 
L 581 -1331 
L 581 3500 
L 1159 3500 
L 1159 2969 
Q 1341 3281 1617 3432 
Q 1894 3584 2278 3584 
Q 2916 3584 3314 3078 
Q 3713 2572 3713 1747 
Q 3713 922 3314 415 
Q 2916 -91 2278 -91 
Q 1894 -91 1617 61 
Q 1341 213 1159 525 
z
M 3116 1747 
Q 3116 2381 2855 2742 
Q 2594 3103 2138 3103 
Q 1681 3103 1420 2742 
Q 1159 2381 1159 1747 
Q 1159 1113 1420 752 
Q 1681 391 2138 391 
Q 2594 391 2855 752 
Q 3116 1113 3116 1747 
z
" transform="scale(0.015625)"/>
       <path id="DejaVuSans-74" d="M 1172 4494 
L 1172 3500 
L 2356 3500 
L 2356 3053 
L 1172 3053 
L 1172 1153 
Q 1172 725 1289 603 
Q 1406 481 1766 481 
L 2356 481 
L 2356 0 
L 1766 0 
Q 1100 0 847 248 
Q 594 497 594 1153 
L 594 3053 
L 172 3053 
L 172 3500 
L 594 3500 
L 594 4494 
L 1172 4494 
z
" transform="scale(0.015625)"/>
      </defs>
      <use xlink:href="#DejaVuSans-53"/>
      <use xlink:href="#DejaVuSans-65" transform="translate(63.476562 0)"/>
      <use xlink:href="#DejaVuSans-63" transform="translate(125 0)"/>
      <use xlink:href="#DejaVuSans-6f" transform="translate(179.980469 0)"/>
      <use xlink:href="#DejaVuSans-6e" transform="translate(241.162109 0)"/>
      <use xlink:href="#DejaVuSans-64" transform="translate(304.541016 0)"/>
      <use xlink:href="#DejaVuSans-73" transform="translate(368.017578 0)"/>
      <use xlink:href="#DejaVuSans-20" transform="translate(420.117188 0)"/>
      <use xlink:href="#DejaVuSans-73" transform="translate(451.904297 0)"/>
      <use xlink:href="#DejaVuSans-70" transform="translate(504.003906 0)"/>
      <use xlink:href="#DejaVuSans-65" transform="translate(567.480469 0)"/>
      <use xlink:href="#DejaVuSans-6e" transform="translate(629.003906 0)"/>
      <use xlink:href="#DejaVuSans-74" transform="translate(692.382812 0)"/>
     </g>
    </g>
   </g>
   <g id="LineCollection_1">
    <path d="M 62.221364 308.26747 
L 62.221364 306.745372 
" clip-path="url(#p60b2fd3762)" style="fill: none; stroke: #000099; stroke-width: 1.5"/>
    <path d="M 88.83399 271.614094 
L 88.83399 271.237976 
" clip-path="url(#p60b2fd3762)" style="fill: none; stroke: #000099; stroke-width: 1.5"/>
    <path d="M 115.446616 239.581133 
L 115.446616 238.223018 
" clip-path="url(#p60b2fd3762)" style="fill: none; stroke: #000099; stroke-width: 1.5"/>
    <path d="M 142.059242 205.779861 
L 142.059242 204.816651 
" clip-path="url(#p60b2fd3762)" style="fill: none; stroke: #000099; stroke-width: 1.5"/>
    <path d="M 168.671869 175.141957 
L 168.671869 173.958783 
" clip-path="url(#p60b2fd3762)" style="fill: none; stroke: #000099; stroke-width: 1.5"/>
    <path d="M 195.284495 137.264512 
L 195.284495 136.717499 
" clip-path="url(#p60b2fd3762)" style="fill: none; stroke: #000099; stroke-width: 1.5"/>
    <path d="M 221.897121 113.68974 
L 221.897121 98.402916 
" clip-path="url(#p60b2fd3762)" style="fill: none; stroke: #000099; stroke-width: 1.5"/>
   </g>
   <g id="line2d_12">
    <defs>
     <path id="ma91f551ce1" d="M 3 0 
L -3 -0 
" style="stroke: #000099"/>
    </defs>
    <g clip-path="url(#p60b2fd3762)">
     <use xlink:href="#ma91f551ce1" x="62.221364" y="308.26747" style="fill: #000099; stroke: #000099"/>
     <use xlink:href="#ma91f551ce1" x="88.83399" y="271.614094" style="fill: #000099; stroke: #000099"/>
     <use xlink:href="#ma91f551ce1" x="115.446616" y="239.581133" style="fill: #000099; stroke: #000099"/>
     <use xlink:href="#ma91f551ce1" x="142.059242" y="205.779861" style="fill: #000099; stroke: #000099"/>
     <use xlink:href="#ma91f551ce1" x="168.671869" y="175.141957" style="fill: #000099; stroke: #000099"/>
     <use xlink:href="#ma91f551ce1" x="195.284495" y="137.264512" style="fill: #000099; stroke: #000099"/>
     <use xlink:href="#ma91f551ce1" x="221.897121" y="113.68974" style="fill: #000099; stroke: #000099"/>
    </g>
   </g>
   <g id="line2d_13">
    <g clip-path="url(#p60b2fd3762)">
     <use xlink:href="#ma91f551ce1" x="62.221364" y="306.745372" style="fill: #000099; stroke: #000099"/>
     <use xlink:href="#ma91f551ce1" x="88.83399" y="271.237976" style="fill: #000099; stroke: #000099"/>
     <use xlink:href="#ma91f551ce1" x="115.446616" y="238.223018" style="fill: #000099; stroke: #000099"/>
     <use xlink:href="#ma91f551ce1" x="142.059242" y="204.816651" style="fill: #000099; stroke: #000099"/>
     <use xlink:href="#ma91f551ce1" x="168.671869" y="173.958783" style="fill: #000099; stroke: #000099"/>
     <use xlink:href="#ma91f551ce1" x="195.284495" y="136.717499" style="fill: #000099; stroke: #000099"/>
     <use xlink:href="#ma91f551ce1" x="221.897121" y="98.402916" style="fill: #000099; stroke: #000099"/>
    </g>
   </g>
   <g id="LineCollection_2">
    <path d="M 62.221364 352.599592 
L 62.221364 352.067956 
" clip-path="url(#p60b2fd3762)" style="fill: none; stroke: #660066; stroke-width: 1.5"/>
    <path d="M 88.83399 337.248625 
L 88.83399 321.100206 
" clip-path="url(#p60b2fd3762)" style="fill: none; stroke: #660066; stroke-width: 1.5"/>
    <path d="M 115.446616 322.36284 
L 115.446616 303.755608 
" clip-path="url(#p60b2fd3762)" style="fill: none; stroke: #660066; stroke-width: 1.5"/>
    <path d="M 142.059242 304.885333 
L 142.059242 281.892111 
" clip-path="url(#p60b2fd3762)" style="fill: none; stroke: #660066; stroke-width: 1.5"/>
    <path d="M 168.671869 285.613557 
L 168.671869 284.816105 
" clip-path="url(#p60b2fd3762)" style="fill: none; stroke: #660066; stroke-width: 1.5"/>
    <path d="M 195.284495 264.81333 
L 195.284495 237.76639 
" clip-path="url(#p60b2fd3762)" style="fill: none; stroke: #660066; stroke-width: 1.5"/>
    <path d="M 221.897121 247.13646 
L 221.897121 217.697161 
" clip-path="url(#p60b2fd3762)" style="fill: none; stroke: #660066; stroke-width: 1.5"/>
    <path d="M 328.347626 171.976535 
L 328.347626 135.958251 
" clip-path="url(#p60b2fd3762)" style="fill: none; stroke: #660066; stroke-width: 1.5"/>
    <path d="M 434.798131 93.095163 
L 434.798131 43.387273 
" clip-path="url(#p60b2fd3762)" style="fill: none; stroke: #660066; stroke-width: 1.5"/>
   </g>
   <g id="line2d_14">
    <defs>
     <path id="m062f14c242" d="M 3 0 
L -3 -0 
" style="stroke: #660066"/>
    </defs>
    <g clip-path="url(#p60b2fd3762)">
     <use xlink:href="#m062f14c242" x="62.221364" y="352.599592" style="fill: #660066; stroke: #660066"/>
     <use xlink:href="#m062f14c242" x="88.83399" y="337.248625" style="fill: #660066; stroke: #660066"/>
     <use xlink:href="#m062f14c242" x="115.446616" y="322.36284" style="fill: #660066; stroke: #660066"/>
     <use xlink:href="#m062f14c242" x="142.059242" y="304.885333" style="fill: #660066; stroke: #660066"/>
     <use xlink:href="#m062f14c242" x="168.671869" y="285.613557" style="fill: #660066; stroke: #660066"/>
     <use xlink:href="#m062f14c242" x="195.284495" y="264.81333" style="fill: #660066; stroke: #660066"/>
     <use xlink:href="#m062f14c242" x="221.897121" y="247.13646" style="fill: #660066; stroke: #660066"/>
     <use xlink:href="#m062f14c242" x="328.347626" y="171.976535" style="fill: #660066; stroke: #660066"/>
     <use xlink:href="#m062f14c242" x="434.798131" y="93.095163" style="fill: #660066; stroke: #660066"/>
    </g>
   </g>
   <g id="line2d_15">
    <g clip-path="url(#p60b2fd3762)">
     <use xlink:href="#m062f14c242" x="62.221364" y="352.067956" style="fill: #660066; stroke: #660066"/>
     <use xlink:href="#m062f14c242" x="88.83399" y="321.100206" style="fill: #660066; stroke: #660066"/>
     <use xlink:href="#m062f14c242" x="115.446616" y="303.755608" style="fill: #660066; stroke: #660066"/>
     <use xlink:href="#m062f14c242" x="142.059242" y="281.892111" style="fill: #660066; stroke: #660066"/>
     <use xlink:href="#m062f14c242" x="168.671869" y="284.816105" style="fill: #660066; stroke: #660066"/>
     <use xlink:href="#m062f14c242" x="195.284495" y="237.76639" style="fill: #660066; stroke: #660066"/>
     <use xlink:href="#m062f14c242" x="221.897121" y="217.697161" style="fill: #660066; stroke: #660066"/>
     <use xlink:href="#m062f14c242" x="328.347626" y="135.958251" style="fill: #660066; stroke: #660066"/>
     <use xlink:href="#m062f14c242" x="434.798131" y="43.387273" style="fill: #660066; stroke: #660066"/>
    </g>
   </g>
   <g id="LineCollection_3">
    <path d="M 62.221364 362.65886 
L 62.221364 352.956585 
" clip-path="url(#p60b2fd3762)" style="fill: none; stroke: #cc9933; stroke-width: 1.5"/>
    <path d="M 88.83399 340.966483 
L 88.83399 315.187559 
" clip-path="url(#p60b2fd3762)" style="fill: none; stroke: #cc9933; stroke-width: 1.5"/>
    <path d="M 115.446616 332.956867 
L 115.446616 324.934227 
" clip-path="url(#p60b2fd3762)" style="fill: none; stroke: #cc9933; stroke-width: 1.5"/>
    <path d="M 142.059242 324.806966 
L 142.059242 319.266796 
" clip-path="url(#p60b2fd3762)" style="fill: none; stroke: #cc9933; stroke-width: 1.5"/>
    <path d="M 168.671869 307.555404 
L 168.671869 298.742089 
" clip-path="url(#p60b2fd3762)" style="fill: none; stroke: #cc9933; stroke-width: 1.5"/>
    <path d="M 195.284495 296.35611 
L 195.284495 268.225631 
" clip-path="url(#p60b2fd3762)" style="fill: none; stroke: #cc9933; stroke-width: 1.5"/>
    <path d="M 221.897121 286.061925 
L 221.897121 265.690462 
" clip-path="url(#p60b2fd3762)" style="fill: none; stroke: #cc9933; stroke-width: 1.5"/>
    <path d="M 328.347626 235.75661 
L 328.347626 226.866672 
" clip-path="url(#p60b2fd3762)" style="fill: none; stroke: #cc9933; stroke-width: 1.5"/>
    <path d="M 434.798131 160.876723 
L 434.798131 154.653534 
" clip-path="url(#p60b2fd3762)" style="fill: none; stroke: #cc9933; stroke-width: 1.5"/>
    <path d="M 541.248636 109.651147 
L 541.248636 85.701048 
" clip-path="url(#p60b2fd3762)" style="fill: none; stroke: #cc9933; stroke-width: 1.5"/>
   </g>
   <g id="line2d_16">
    <defs>
     <path id="m088a3fbd75" d="M 3 0 
L -3 -0 
" style="stroke: #cc9933"/>
    </defs>
    <g clip-path="url(#p60b2fd3762)">
     <use xlink:href="#m088a3fbd75" x="62.221364" y="362.65886" style="fill: #cc9933; stroke: #cc9933"/>
     <use xlink:href="#m088a3fbd75" x="88.83399" y="340.966483" style="fill: #cc9933; stroke: #cc9933"/>
     <use xlink:href="#m088a3fbd75" x="115.446616" y="332.956867" style="fill: #cc9933; stroke: #cc9933"/>
     <use xlink:href="#m088a3fbd75" x="142.059242" y="324.806966" style="fill: #cc9933; stroke: #cc9933"/>
     <use xlink:href="#m088a3fbd75" x="168.671869" y="307.555404" style="fill: #cc9933; stroke: #cc9933"/>
     <use xlink:href="#m088a3fbd75" x="195.284495" y="296.35611" style="fill: #cc9933; stroke: #cc9933"/>
     <use xlink:href="#m088a3fbd75" x="221.897121" y="286.061925" style="fill: #cc9933; stroke: #cc9933"/>
     <use xlink:href="#m088a3fbd75" x="328.347626" y="235.75661" style="fill: #cc9933; stroke: #cc9933"/>
     <use xlink:href="#m088a3fbd75" x="434.798131" y="160.876723" style="fill: #cc9933; stroke: #cc9933"/>
     <use xlink:href="#m088a3fbd75" x="541.248636" y="109.651147" style="fill: #cc9933; stroke: #cc9933"/>
    </g>
   </g>
   <g id="line2d_17">
    <g clip-path="url(#p60b2fd3762)">
     <use xlink:href="#m088a3fbd75" x="62.221364" y="352.956585" style="fill: #cc9933; stroke: #cc9933"/>
     <use xlink:href="#m088a3fbd75" x="88.83399" y="315.187559" style="fill: #cc9933; stroke: #cc9933"/>
     <use xlink:href="#m088a3fbd75" x="115.446616" y="324.934227" style="fill: #cc9933; stroke: #cc9933"/>
     <use xlink:href="#m088a3fbd75" x="142.059242" y="319.266796" style="fill: #cc9933; stroke: #cc9933"/>
     <use xlink:href="#m088a3fbd75" x="168.671869" y="298.742089" style="fill: #cc9933; stroke: #cc9933"/>
     <use xlink:href="#m088a3fbd75" x="195.284495" y="268.225631" style="fill: #cc9933; stroke: #cc9933"/>
     <use xlink:href="#m088a3fbd75" x="221.897121" y="265.690462" style="fill: #cc9933; stroke: #cc9933"/>
     <use xlink:href="#m088a3fbd75" x="328.347626" y="226.866672" style="fill: #cc9933; stroke: #cc9933"/>
     <use xlink:href="#m088a3fbd75" x="434.798131" y="154.653534" style="fill: #cc9933; stroke: #cc9933"/>
     <use xlink:href="#m088a3fbd75" x="541.248636" y="85.701048" style="fill: #cc9933; stroke: #cc9933"/>
    </g>
   </g>
   <g id="LineCollection_4">
    <path d="M 62.221364 369.012898 
L 62.221364 368.893413 
" clip-path="url(#p60b2fd3762)" style="fill: none; stroke: #0000cc; stroke-width: 1.5"/>
    <path d="M 88.83399 359.189675 
L 88.83399 358.715656 
" clip-path="url(#p60b2fd3762)" style="fill: none; stroke: #0000cc; stroke-width: 1.5"/>
    <path d="M 115.446616 349.034047 
L 115.446616 347.072446 
" clip-path="url(#p60b2fd3762)" style="fill: none; stroke: #0000cc; stroke-width: 1.5"/>
    <path d="M 142.059242 338.006272 
L 142.059242 337.889179 
" clip-path="url(#p60b2fd3762)" style="fill: none; stroke: #0000cc; stroke-width: 1.5"/>
    <path d="M 168.671869 325.066072 
L 168.671869 320.913403 
" clip-path="url(#p60b2fd3762)" style="fill: none; stroke: #0000cc; stroke-width: 1.5"/>
    <path d="M 195.284495 315.611937 
L 195.284495 314.936561 
" clip-path="url(#p60b2fd3762)" style="fill: none; stroke: #0000cc; stroke-width: 1.5"/>
    <path d="M 221.897121 302.216259 
L 221.897121 302.181304 
" clip-path="url(#p60b2fd3762)" style="fill: none; stroke: #0000cc; stroke-width: 1.5"/>
    <path d="M 328.347626 250.883292 
L 328.347626 250.387409 
" clip-path="url(#p60b2fd3762)" style="fill: none; stroke: #0000cc; stroke-width: 1.5"/>
    <path d="M 434.798131 180.491536 
L 434.798131 176.528661 
" clip-path="url(#p60b2fd3762)" style="fill: none; stroke: #0000cc; stroke-width: 1.5"/>
    <path d="M 541.248636 101.069425 
L 541.248636 99.259872 
" clip-path="url(#p60b2fd3762)" style="fill: none; stroke: #0000cc; stroke-width: 1.5"/>
   </g>
   <g id="line2d_18">
    <defs>
     <path id="m71e13e22db" d="M 3 0 
L -3 -0 
" style="stroke: #0000cc"/>
    </defs>
    <g clip-path="url(#p60b2fd3762)">
     <use xlink:href="#m71e13e22db" x="62.221364" y="369.012898" style="fill: #0000cc; stroke: #0000cc"/>
     <use xlink:href="#m71e13e22db" x="88.83399" y="359.189675" style="fill: #0000cc; stroke: #0000cc"/>
     <use xlink:href="#m71e13e22db" x="115.446616" y="349.034047" style="fill: #0000cc; stroke: #0000cc"/>
     <use xlink:href="#m71e13e22db" x="142.059242" y="338.006272" style="fill: #0000cc; stroke: #0000cc"/>
     <use xlink:href="#m71e13e22db" x="168.671869" y="325.066072" style="fill: #0000cc; stroke: #0000cc"/>
     <use xlink:href="#m71e13e22db" x="195.284495" y="315.611937" style="fill: #0000cc; stroke: #0000cc"/>
     <use xlink:href="#m71e13e22db" x="221.897121" y="302.216259" style="fill: #0000cc; stroke: #0000cc"/>
     <use xlink:href="#m71e13e22db" x="328.347626" y="250.883292" style="fill: #0000cc; stroke: #0000cc"/>
     <use xlink:href="#m71e13e22db" x="434.798131" y="180.491536" style="fill: #0000cc; stroke: #0000cc"/>
     <use xlink:href="#m71e13e22db" x="541.248636" y="101.069425" style="fill: #0000cc; stroke: #0000cc"/>
    </g>
   </g>
   <g id="line2d_19">
    <g clip-path="url(#p60b2fd3762)">
     <use xlink:href="#m71e13e22db" x="62.221364" y="368.893413" style="fill: #0000cc; stroke: #0000cc"/>
     <use xlink:href="#m71e13e22db" x="88.83399" y="358.715656" style="fill: #0000cc; stroke: #0000cc"/>
     <use xlink:href="#m71e13e22db" x="115.446616" y="347.072446" style="fill: #0000cc; stroke: #0000cc"/>
     <use xlink:href="#m71e13e22db" x="142.059242" y="337.889179" style="fill: #0000cc; stroke: #0000cc"/>
     <use xlink:href="#m71e13e22db" x="168.671869" y="320.913403" style="fill: #0000cc; stroke: #0000cc"/>
     <use xlink:href="#m71e13e22db" x="195.284495" y="314.936561" style="fill: #0000cc; stroke: #0000cc"/>
     <use xlink:href="#m71e13e22db" x="221.897121" y="302.181304" style="fill: #0000cc; stroke: #0000cc"/>
     <use xlink:href="#m71e13e22db" x="328.347626" y="250.387409" style="fill: #0000cc; stroke: #0000cc"/>
     <use xlink:href="#m71e13e22db" x="434.798131" y="176.528661" style="fill: #0000cc; stroke: #0000cc"/>
     <use xlink:href="#m71e13e22db" x="541.248636" y="99.259872" style="fill: #0000cc; stroke: #0000cc"/>
    </g>
   </g>
   <g id="LineCollection_5">
    <path d="M 62.221364 354.881503 
L 62.221364 345.476079 
" clip-path="url(#p60b2fd3762)" style="fill: none; stroke: #009933; stroke-width: 1.5"/>
    <path d="M 88.83399 345.307085 
L 88.83399 340.547422 
" clip-path="url(#p60b2fd3762)" style="fill: none; stroke: #009933; stroke-width: 1.5"/>
    <path d="M 115.446616 331.233572 
L 115.446616 323.309882 
" clip-path="url(#p60b2fd3762)" style="fill: none; stroke: #009933; stroke-width: 1.5"/>
    <path d="M 142.059242 302.209214 
L 142.059242 300.043133 
" clip-path="url(#p60b2fd3762)" style="fill: none; stroke: #009933; stroke-width: 1.5"/>
    <path d="M 168.671869 297.722811 
L 168.671869 292.501024 
" clip-path="url(#p60b2fd3762)" style="fill: none; stroke: #009933; stroke-width: 1.5"/>
    <path d="M 195.284495 277.852215 
L 195.284495 275.433142 
" clip-path="url(#p60b2fd3762)" style="fill: none; stroke: #009933; stroke-width: 1.5"/>
    <path d="M 221.897121 271.928669 
L 221.897121 256.15306 
" clip-path="url(#p60b2fd3762)" style="fill: none; stroke: #009933; stroke-width: 1.5"/>
    <path d="M 328.347626 218.869351 
L 328.347626 204.565307 
" clip-path="url(#p60b2fd3762)" style="fill: none; stroke: #009933; stroke-width: 1.5"/>
    <path d="M 434.798131 157.016321 
L 434.798131 140.684487 
" clip-path="url(#p60b2fd3762)" style="fill: none; stroke: #009933; stroke-width: 1.5"/>
    <path d="M 541.248636 73.62223 
L 541.248636 56.553816 
" clip-path="url(#p60b2fd3762)" style="fill: none; stroke: #009933; stroke-width: 1.5"/>
   </g>
   <g id="line2d_20">
    <defs>
     <path id="m567d63a80a" d="M 3 0 
L -3 -0 
" style="stroke: #009933"/>
    </defs>
    <g clip-path="url(#p60b2fd3762)">
     <use xlink:href="#m567d63a80a" x="62.221364" y="354.881503" style="fill: #009933; stroke: #009933"/>
     <use xlink:href="#m567d63a80a" x="88.83399" y="345.307085" style="fill: #009933; stroke: #009933"/>
     <use xlink:href="#m567d63a80a" x="115.446616" y="331.233572" style="fill: #009933; stroke: #009933"/>
     <use xlink:href="#m567d63a80a" x="142.059242" y="302.209214" style="fill: #009933; stroke: #009933"/>
     <use xlink:href="#m567d63a80a" x="168.671869" y="297.722811" style="fill: #009933; stroke: #009933"/>
     <use xlink:href="#m567d63a80a" x="195.284495" y="277.852215" style="fill: #009933; stroke: #009933"/>
     <use xlink:href="#m567d63a80a" x="221.897121" y="271.928669" style="fill: #009933; stroke: #009933"/>
     <use xlink:href="#m567d63a80a" x="328.347626" y="218.869351" style="fill: #009933; stroke: #009933"/>
     <use xlink:href="#m567d63a80a" x="434.798131" y="157.016321" style="fill: #009933; stroke: #009933"/>
     <use xlink:href="#m567d63a80a" x="541.248636" y="73.62223" style="fill: #009933; stroke: #009933"/>
    </g>
   </g>
   <g id="line2d_21">
    <g clip-path="url(#p60b2fd3762)">
     <use xlink:href="#m567d63a80a" x="62.221364" y="345.476079" style="fill: #009933; stroke: #009933"/>
     <use xlink:href="#m567d63a80a" x="88.83399" y="340.547422" style="fill: #009933; stroke: #009933"/>
     <use xlink:href="#m567d63a80a" x="115.446616" y="323.309882" style="fill: #009933; stroke: #009933"/>
     <use xlink:href="#m567d63a80a" x="142.059242" y="300.043133" style="fill: #009933; stroke: #009933"/>
     <use xlink:href="#m567d63a80a" x="168.671869" y="292.501024" style="fill: #009933; stroke: #009933"/>
     <use xlink:href="#m567d63a80a" x="195.284495" y="275.433142" style="fill: #009933; stroke: #009933"/>
     <use xlink:href="#m567d63a80a" x="221.897121" y="256.15306" style="fill: #009933; stroke: #009933"/>
     <use xlink:href="#m567d63a80a" x="328.347626" y="204.565307" style="fill: #009933; stroke: #009933"/>
     <use xlink:href="#m567d63a80a" x="434.798131" y="140.684487" style="fill: #009933; stroke: #009933"/>
     <use xlink:href="#m567d63a80a" x="541.248636" y="56.553816" style="fill: #009933; stroke: #009933"/>
    </g>
   </g>
   <g id="LineCollection_6">
    <path d="M 62.221364 351.279874 
L 62.221364 350.895634 
" clip-path="url(#p60b2fd3762)" style="fill: none; stroke: #990000; stroke-width: 1.5"/>
    <path d="M 88.83399 328.88308 
L 88.83399 328.403944 
" clip-path="url(#p60b2fd3762)" style="fill: none; stroke: #990000; stroke-width: 1.5"/>
    <path d="M 115.446616 316.461689 
L 115.446616 314.266036 
" clip-path="url(#p60b2fd3762)" style="fill: none; stroke: #990000; stroke-width: 1.5"/>
    <path d="M 142.059242 302.312219 
L 142.059242 300.185013 
" clip-path="url(#p60b2fd3762)" style="fill: none; stroke: #990000; stroke-width: 1.5"/>
    <path d="M 168.671869 286.33791 
L 168.671869 282.611812 
" clip-path="url(#p60b2fd3762)" style="fill: none; stroke: #990000; stroke-width: 1.5"/>
    <path d="M 195.284495 273.992677 
L 195.284495 273.44177 
" clip-path="url(#p60b2fd3762)" style="fill: none; stroke: #990000; stroke-width: 1.5"/>
    <path d="M 221.897121 261.038056 
L 221.897121 255.431298 
" clip-path="url(#p60b2fd3762)" style="fill: none; stroke: #990000; stroke-width: 1.5"/>
    <path d="M 328.347626 215.492869 
L 328.347626 210.517428 
" clip-path="url(#p60b2fd3762)" style="fill: none; stroke: #990000; stroke-width: 1.5"/>
    <path d="M 434.798131 167.660986 
L 434.798131 166.068074 
" clip-path="url(#p60b2fd3762)" style="fill: none; stroke: #990000; stroke-width: 1.5"/>
    <path d="M 541.248636 111.838626 
L 541.248636 98.760401 
" clip-path="url(#p60b2fd3762)" style="fill: none; stroke: #990000; stroke-width: 1.5"/>
   </g>
   <g id="line2d_22">
    <defs>
     <path id="md9b07cde7a" d="M 3 0 
L -3 -0 
" style="stroke: #990000"/>
    </defs>
    <g clip-path="url(#p60b2fd3762)">
     <use xlink:href="#md9b07cde7a" x="62.221364" y="351.279874" style="fill: #990000; stroke: #990000"/>
     <use xlink:href="#md9b07cde7a" x="88.83399" y="328.88308" style="fill: #990000; stroke: #990000"/>
     <use xlink:href="#md9b07cde7a" x="115.446616" y="316.461689" style="fill: #990000; stroke: #990000"/>
     <use xlink:href="#md9b07cde7a" x="142.059242" y="302.312219" style="fill: #990000; stroke: #990000"/>
     <use xlink:href="#md9b07cde7a" x="168.671869" y="286.33791" style="fill: #990000; stroke: #990000"/>
     <use xlink:href="#md9b07cde7a" x="195.284495" y="273.992677" style="fill: #990000; stroke: #990000"/>
     <use xlink:href="#md9b07cde7a" x="221.897121" y="261.038056" style="fill: #990000; stroke: #990000"/>
     <use xlink:href="#md9b07cde7a" x="328.347626" y="215.492869" style="fill: #990000; stroke: #990000"/>
     <use xlink:href="#md9b07cde7a" x="434.798131" y="167.660986" style="fill: #990000; stroke: #990000"/>
     <use xlink:href="#md9b07cde7a" x="541.248636" y="111.838626" style="fill: #990000; stroke: #990000"/>
    </g>
   </g>
   <g id="line2d_23">
    <g clip-path="url(#p60b2fd3762)">
     <use xlink:href="#md9b07cde7a" x="62.221364" y="350.895634" style="fill: #990000; stroke: #990000"/>
     <use xlink:href="#md9b07cde7a" x="88.83399" y="328.403944" style="fill: #990000; stroke: #990000"/>
     <use xlink:href="#md9b07cde7a" x="115.446616" y="314.266036" style="fill: #990000; stroke: #990000"/>
     <use xlink:href="#md9b07cde7a" x="142.059242" y="300.185013" style="fill: #990000; stroke: #990000"/>
     <use xlink:href="#md9b07cde7a" x="168.671869" y="282.611812" style="fill: #990000; stroke: #990000"/>
     <use xlink:href="#md9b07cde7a" x="195.284495" y="273.44177" style="fill: #990000; stroke: #990000"/>
     <use xlink:href="#md9b07cde7a" x="221.897121" y="255.431298" style="fill: #990000; stroke: #990000"/>
     <use xlink:href="#md9b07cde7a" x="328.347626" y="210.517428" style="fill: #990000; stroke: #990000"/>
     <use xlink:href="#md9b07cde7a" x="434.798131" y="166.068074" style="fill: #990000; stroke: #990000"/>
     <use xlink:href="#md9b07cde7a" x="541.248636" y="98.760401" style="fill: #990000; stroke: #990000"/>
    </g>
   </g>
   <g id="LineCollection_7">
    <path d="M 62.221364 373.532727 
L 62.221364 369.013828 
" clip-path="url(#p60b2fd3762)" style="fill: none; stroke: #666600; stroke-width: 1.5"/>
    <path d="M 88.83399 366.355652 
L 88.83399 359.97603 
" clip-path="url(#p60b2fd3762)" style="fill: none; stroke: #666600; stroke-width: 1.5"/>
    <path d="M 115.446616 358.646942 
L 115.446616 356.719764 
" clip-path="url(#p60b2fd3762)" style="fill: none; stroke: #666600; stroke-width: 1.5"/>
    <path d="M 142.059242 349.742052 
L 142.059242 349.476235 
" clip-path="url(#p60b2fd3762)" style="fill: none; stroke: #666600; stroke-width: 1.5"/>
    <path d="M 168.671869 340.03971 
L 168.671869 338.909985 
" clip-path="url(#p60b2fd3762)" style="fill: none; stroke: #666600; stroke-width: 1.5"/>
    <path d="M 195.284495 329.606369 
L 195.284495 322.163477 
" clip-path="url(#p60b2fd3762)" style="fill: none; stroke: #666600; stroke-width: 1.5"/>
    <path d="M 221.897121 319.970482 
L 221.897121 318.707848 
" clip-path="url(#p60b2fd3762)" style="fill: none; stroke: #666600; stroke-width: 1.5"/>
    <path d="M 328.347626 280.961749 
L 328.347626 271.724588 
" clip-path="url(#p60b2fd3762)" style="fill: none; stroke: #666600; stroke-width: 1.5"/>
    <path d="M 434.798131 238.696752 
L 434.798131 229.526045 
" clip-path="url(#p60b2fd3762)" style="fill: none; stroke: #666600; stroke-width: 1.5"/>
    <path d="M 541.248636 191.514128 
L 541.248636 184.004781 
" clip-path="url(#p60b2fd3762)" style="fill: none; stroke: #666600; stroke-width: 1.5"/>
   </g>
   <g id="line2d_24">
    <defs>
     <path id="ma612d83d5a" d="M 3 0 
L -3 -0 
" style="stroke: #666600"/>
    </defs>
    <g clip-path="url(#p60b2fd3762)">
     <use xlink:href="#ma612d83d5a" x="62.221364" y="373.532727" style="fill: #666600; stroke: #666600"/>
     <use xlink:href="#ma612d83d5a" x="88.83399" y="366.355652" style="fill: #666600; stroke: #666600"/>
     <use xlink:href="#ma612d83d5a" x="115.446616" y="358.646942" style="fill: #666600; stroke: #666600"/>
     <use xlink:href="#ma612d83d5a" x="142.059242" y="349.742052" style="fill: #666600; stroke: #666600"/>
     <use xlink:href="#ma612d83d5a" x="168.671869" y="340.03971" style="fill: #666600; stroke: #666600"/>
     <use xlink:href="#ma612d83d5a" x="195.284495" y="329.606369" style="fill: #666600; stroke: #666600"/>
     <use xlink:href="#ma612d83d5a" x="221.897121" y="319.970482" style="fill: #666600; stroke: #666600"/>
     <use xlink:href="#ma612d83d5a" x="328.347626" y="280.961749" style="fill: #666600; stroke: #666600"/>
     <use xlink:href="#ma612d83d5a" x="434.798131" y="238.696752" style="fill: #666600; stroke: #666600"/>
     <use xlink:href="#ma612d83d5a" x="541.248636" y="191.514128" style="fill: #666600; stroke: #666600"/>
    </g>
   </g>
   <g id="line2d_25">
    <g clip-path="url(#p60b2fd3762)">
     <use xlink:href="#ma612d83d5a" x="62.221364" y="369.013828" style="fill: #666600; stroke: #666600"/>
     <use xlink:href="#ma612d83d5a" x="88.83399" y="359.97603" style="fill: #666600; stroke: #666600"/>
     <use xlink:href="#ma612d83d5a" x="115.446616" y="356.719764" style="fill: #666600; stroke: #666600"/>
     <use xlink:href="#ma612d83d5a" x="142.059242" y="349.476235" style="fill: #666600; stroke: #666600"/>
     <use xlink:href="#ma612d83d5a" x="168.671869" y="338.909985" style="fill: #666600; stroke: #666600"/>
     <use xlink:href="#ma612d83d5a" x="195.284495" y="322.163477" style="fill: #666600; stroke: #666600"/>
     <use xlink:href="#ma612d83d5a" x="221.897121" y="318.707848" style="fill: #666600; stroke: #666600"/>
     <use xlink:href="#ma612d83d5a" x="328.347626" y="271.724588" style="fill: #666600; stroke: #666600"/>
     <use xlink:href="#ma612d83d5a" x="434.798131" y="229.526045" style="fill: #666600; stroke: #666600"/>
     <use xlink:href="#ma612d83d5a" x="541.248636" y="184.004781" style="fill: #666600; stroke: #666600"/>
    </g>
   </g>
   <g id="LineCollection_8">
    <path d="M 62.221364 373.302257 
L 62.221364 372.998375 
" clip-path="url(#p60b2fd3762)" style="fill: none; stroke: #cc0033; stroke-width: 1.5"/>
    <path d="M 88.83399 365.513469 
L 88.83399 364.893602 
" clip-path="url(#p60b2fd3762)" style="fill: none; stroke: #cc0033; stroke-width: 1.5"/>
    <path d="M 115.446616 358.005152 
L 115.446616 357.760925 
" clip-path="url(#p60b2fd3762)" style="fill: none; stroke: #cc0033; stroke-width: 1.5"/>
    <path d="M 142.059242 351.595366 
L 142.059242 351.52313 
" clip-path="url(#p60b2fd3762)" style="fill: none; stroke: #cc0033; stroke-width: 1.5"/>
    <path d="M 168.671869 343.772002 
L 168.671869 343.445345 
" clip-path="url(#p60b2fd3762)" style="fill: none; stroke: #cc0033; stroke-width: 1.5"/>
    <path d="M 195.284495 335.814407 
L 195.284495 335.736196 
" clip-path="url(#p60b2fd3762)" style="fill: none; stroke: #cc0033; stroke-width: 1.5"/>
    <path d="M 221.897121 329.267412 
L 221.897121 327.799734 
" clip-path="url(#p60b2fd3762)" style="fill: none; stroke: #cc0033; stroke-width: 1.5"/>
    <path d="M 328.347626 296.602882 
L 328.347626 295.488701 
" clip-path="url(#p60b2fd3762)" style="fill: none; stroke: #cc0033; stroke-width: 1.5"/>
    <path d="M 434.798131 264.456145 
L 434.798131 261.002304 
" clip-path="url(#p60b2fd3762)" style="fill: none; stroke: #cc0033; stroke-width: 1.5"/>
    <path d="M 541.248636 229.135512 
L 541.248636 227.935811 
" clip-path="url(#p60b2fd3762)" style="fill: none; stroke: #cc0033; stroke-width: 1.5"/>
   </g>
   <g id="line2d_26">
    <defs>
     <path id="md3fe7ae338" d="M 3 0 
L -3 -0 
" style="stroke: #cc0033"/>
    </defs>
    <g clip-path="url(#p60b2fd3762)">
     <use xlink:href="#md3fe7ae338" x="62.221364" y="373.302257" style="fill: #cc0033; stroke: #cc0033"/>
     <use xlink:href="#md3fe7ae338" x="88.83399" y="365.513469" style="fill: #cc0033; stroke: #cc0033"/>
     <use xlink:href="#md3fe7ae338" x="115.446616" y="358.005152" style="fill: #cc0033; stroke: #cc0033"/>
     <use xlink:href="#md3fe7ae338" x="142.059242" y="351.595366" style="fill: #cc0033; stroke: #cc0033"/>
     <use xlink:href="#md3fe7ae338" x="168.671869" y="343.772002" style="fill: #cc0033; stroke: #cc0033"/>
     <use xlink:href="#md3fe7ae338" x="195.284495" y="335.814407" style="fill: #cc0033; stroke: #cc0033"/>
     <use xlink:href="#md3fe7ae338" x="221.897121" y="329.267412" style="fill: #cc0033; stroke: #cc0033"/>
     <use xlink:href="#md3fe7ae338" x="328.347626" y="296.602882" style="fill: #cc0033; stroke: #cc0033"/>
     <use xlink:href="#md3fe7ae338" x="434.798131" y="264.456145" style="fill: #cc0033; stroke: #cc0033"/>
     <use xlink:href="#md3fe7ae338" x="541.248636" y="229.135512" style="fill: #cc0033; stroke: #cc0033"/>
    </g>
   </g>
   <g id="line2d_27">
    <g clip-path="url(#p60b2fd3762)">
     <use xlink:href="#md3fe7ae338" x="62.221364" y="372.998375" style="fill: #cc0033; stroke: #cc0033"/>
     <use xlink:href="#md3fe7ae338" x="88.83399" y="364.893602" style="fill: #cc0033; stroke: #cc0033"/>
     <use xlink:href="#md3fe7ae338" x="115.446616" y="357.760925" style="fill: #cc0033; stroke: #cc0033"/>
     <use xlink:href="#md3fe7ae338" x="142.059242" y="351.52313" style="fill: #cc0033; stroke: #cc0033"/>
     <use xlink:href="#md3fe7ae338" x="168.671869" y="343.445345" style="fill: #cc0033; stroke: #cc0033"/>
     <use xlink:href="#md3fe7ae338" x="195.284495" y="335.736196" style="fill: #cc0033; stroke: #cc0033"/>
     <use xlink:href="#md3fe7ae338" x="221.897121" y="327.799734" style="fill: #cc0033; stroke: #cc0033"/>
     <use xlink:href="#md3fe7ae338" x="328.347626" y="295.488701" style="fill: #cc0033; stroke: #cc0033"/>
     <use xlink:href="#md3fe7ae338" x="434.798131" y="261.002304" style="fill: #cc0033; stroke: #cc0033"/>
     <use xlink:href="#md3fe7ae338" x="541.248636" y="227.935811" style="fill: #cc0033; stroke: #cc0033"/>
    </g>
   </g>
   <g id="line2d_28">
    <path d="M 62.221364 307.647302 
L 88.83399 271.39854 
L 115.446616 239.041249 
L 142.059242 205.286705 
L 168.671869 174.669894 
L 195.284495 137.065709 
L 221.897121 104.792057 
" clip-path="url(#p60b2fd3762)" style="fill: none; stroke: #000099; stroke-width: 1.5; stroke-linecap: square"/>
   </g>
   <g id="line2d_29">
    <path d="M 62.221364 352.355925 
L 88.83399 331.666456 
L 115.446616 316.049672 
L 142.059242 297.154471 
L 168.671869 285.303437 
L 195.284495 255.576169 
L 221.897121 236.902483 
L 328.347626 159.748925 
L 434.798131 75.329687 
" clip-path="url(#p60b2fd3762)" style="fill: none; stroke: #660066; stroke-width: 1.5; stroke-linecap: square"/>
   </g>
   <g id="line2d_30">
    <path d="M 62.221364 358.057292 
L 88.83399 326.54455 
L 115.446616 329.190033 
L 142.059242 322.556687 
L 168.671869 304.019698 
L 195.284495 284.51799 
L 221.897121 277.95821 
L 328.347626 232.048919 
L 434.798131 157.592082 
L 541.248636 100.03885 
" clip-path="url(#p60b2fd3762)" style="fill: none; stroke: #cc9933; stroke-width: 1.5; stroke-linecap: square"/>
   </g>
   <g id="line2d_31">
    <path d="M 62.221364 368.953155 
L 88.83399 358.952632 
L 115.446616 348.053247 
L 142.059242 337.947726 
L 168.671869 322.989771 
L 195.284495 315.274216 
L 221.897121 302.198781 
L 328.347626 250.635351 
L 434.798131 178.510066 
L 541.248636 100.164649 
" clip-path="url(#p60b2fd3762)" style="fill: none; stroke: #0000cc; stroke-width: 1.5; stroke-linecap: square"/>
   </g>
   <g id="line2d_32">
    <path d="M 62.221364 351.116064 
L 88.83399 342.712373 
L 115.446616 328.215147 
L 142.059242 300.826764 
L 168.671869 294.875839 
L 195.284495 276.39507 
L 221.897121 266.639099 
L 328.347626 212.361604 
L 434.798131 149.123864 
L 541.248636 63.246971 
" clip-path="url(#p60b2fd3762)" style="fill: none; stroke: #009933; stroke-width: 1.5; stroke-linecap: square"/>
   </g>
   <g id="line2d_33">
    <path d="M 62.221364 351.115465 
L 88.83399 328.663049 
L 115.446616 315.707432 
L 142.059242 301.583878 
L 168.671869 285.023442 
L 195.284495 273.682335 
L 221.897121 257.931977 
L 328.347626 213.287912 
L 434.798131 166.939956 
L 541.248636 104.101341 
" clip-path="url(#p60b2fd3762)" style="fill: none; stroke: #990000; stroke-width: 1.5; stroke-linecap: square"/>
   </g>
   <g id="line2d_34">
    <path d="M 62.221364 372.004276 
L 88.83399 364.029748 
L 115.446616 357.893792 
L 142.059242 349.609144 
L 168.671869 339.618832 
L 195.284495 324.843804 
L 221.897121 319.438846 
L 328.347626 277.749787 
L 434.798131 235.617698 
L 541.248636 188.767346 
" clip-path="url(#p60b2fd3762)" style="fill: none; stroke: #666600; stroke-width: 1.5; stroke-linecap: square"/>
   </g>
   <g id="line2d_35">
    <path d="M 62.221364 373.196205 
L 88.83399 365.198632 
L 115.446616 357.920037 
L 142.059242 351.564298 
L 168.671869 343.636897 
L 195.284495 335.782453 
L 221.897121 328.415973 
L 328.347626 296.148385 
L 434.798131 262.901024 
L 541.248636 228.492134 
" clip-path="url(#p60b2fd3762)" style="fill: none; stroke: #cc0033; stroke-width: 1.5; stroke-linecap: square"/>
   </g>
   <g id="patch_3">
    <path d="M 38.27 390.04 
L 38.27 26.88 
" style="fill: none; stroke: #000000; stroke-width: 0.8; stroke-linejoin: miter; stroke-linecap: square"/>
   </g>
   <g id="patch_4">
    <path d="M 565.2 390.04 
L 565.2 26.88 
" style="fill: none; stroke: #000000; stroke-width: 0.8; stroke-linejoin: miter; stroke-linecap: square"/>
   </g>
   <g id="patch_5">
    <path d="M 38.27 390.04 
L 565.2 390.04 
" style="fill: none; stroke: #000000; stroke-width: 0.8; stroke-linejoin: miter; stroke-linecap: square"/>
   </g>
   <g id="patch_6">
    <path d="M 38.27 26.88 
L 565.2 26.88 
" style="fill: none; stroke: #000000; stroke-width: 0.8; stroke-linejoin: miter; stroke-linecap: square"/>
   </g>
   <g id="text_15">
    <!-- Bron-Kerbosch Ver3½-GP on a random graph of order 1M -->
    <g transform="translate(38.27 20.88) scale(0.12 -0.12)">
     <defs>
      <path id="DejaVuSans-42" d="M 1259 2228 
L 1259 519 
L 2272 519 
Q 2781 519 3026 730 
Q 3272 941 3272 1375 
Q 3272 1813 3026 2020 
Q 2781 2228 2272 2228 
L 1259 2228 
z
M 1259 4147 
L 1259 2741 
L 2194 2741 
Q 2656 2741 2882 2914 
Q 3109 3088 3109 3444 
Q 3109 3797 2882 3972 
Q 2656 4147 2194 4147 
L 1259 4147 
z
M 628 4666 
L 2241 4666 
Q 2963 4666 3353 4366 
Q 3744 4066 3744 3513 
Q 3744 3084 3544 2831 
Q 3344 2578 2956 2516 
Q 3422 2416 3680 2098 
Q 3938 1781 3938 1306 
Q 3938 681 3513 340 
Q 3088 0 2303 0 
L 628 0 
L 628 4666 
z
" transform="scale(0.015625)"/>
      <path id="DejaVuSans-72" d="M 2631 2963 
Q 2534 3019 2420 3045 
Q 2306 3072 2169 3072 
Q 1681 3072 1420 2755 
Q 1159 2438 1159 1844 
L 1159 0 
L 581 0 
L 581 3500 
L 1159 3500 
L 1159 2956 
Q 1341 3275 1631 3429 
Q 1922 3584 2338 3584 
Q 2397 3584 2469 3576 
Q 2541 3569 2628 3553 
L 2631 2963 
z
" transform="scale(0.015625)"/>
      <path id="DejaVuSans-2d" d="M 313 2009 
L 1997 2009 
L 1997 1497 
L 313 1497 
L 313 2009 
z
" transform="scale(0.015625)"/>
      <path id="DejaVuSans-4b" d="M 628 4666 
L 1259 4666 
L 1259 2694 
L 3353 4666 
L 4166 4666 
L 1850 2491 
L 4331 0 
L 3500 0 
L 1259 2247 
L 1259 0 
L 628 0 
L 628 4666 
z
" transform="scale(0.015625)"/>
      <path id="DejaVuSans-62" d="M 3116 1747 
Q 3116 2381 2855 2742 
Q 2594 3103 2138 3103 
Q 1681 3103 1420 2742 
Q 1159 2381 1159 1747 
Q 1159 1113 1420 752 
Q 1681 391 2138 391 
Q 2594 391 2855 752 
Q 3116 1113 3116 1747 
z
M 1159 2969 
Q 1341 3281 1617 3432 
Q 1894 3584 2278 3584 
Q 2916 3584 3314 3078 
Q 3713 2572 3713 1747 
Q 3713 922 3314 415 
Q 2916 -91 2278 -91 
Q 1894 -91 1617 61 
Q 1341 213 1159 525 
L 1159 0 
L 581 0 
L 581 4863 
L 1159 4863 
L 1159 2969 
z
" transform="scale(0.015625)"/>
      <path id="DejaVuSans-68" d="M 3513 2113 
L 3513 0 
L 2938 0 
L 2938 2094 
Q 2938 2591 2744 2837 
Q 2550 3084 2163 3084 
Q 1697 3084 1428 2787 
Q 1159 2491 1159 1978 
L 1159 0 
L 581 0 
L 581 4863 
L 1159 4863 
L 1159 2956 
Q 1366 3272 1645 3428 
Q 1925 3584 2291 3584 
Q 2894 3584 3203 3211 
Q 3513 2838 3513 2113 
z
" transform="scale(0.015625)"/>
      <path id="DejaVuSans-56" d="M 1831 0 
L 50 4666 
L 709 4666 
L 2188 738 
L 3669 4666 
L 4325 4666 
L 2547 0 
L 1831 0 
z
" transform="scale(0.015625)"/>
      <path id="DejaVuSans-bd" d="M 488 2431 
L 1125 2431 
L 1125 4341 
L 428 4213 
L 428 4575 
L 1147 4697 
L 1575 4697 
L 1575 2431 
L 2216 2431 
L 2216 2088 
L 488 2088 
L 488 2431 
z
M 4470 332 
L 5795 332 
L 5795 -24 
L 3926 -24 
L 3926 319 
Q 4032 416 4229 591 
Q 5304 1544 5304 1838 
Q 5304 2044 5141 2170 
Q 4979 2297 4713 2297 
Q 4551 2297 4360 2242 
Q 4170 2188 3945 2079 
L 3945 2463 
Q 4185 2551 4393 2594 
Q 4601 2638 4779 2638 
Q 5232 2638 5504 2432 
Q 5776 2226 5776 1888 
Q 5776 1454 4741 566 
Q 4566 416 4470 332 
z
M 4309 4750 
L 4809 4750 
L 1896 -91 
L 1396 -91 
L 4309 4750 
z
" transform="scale(0.015625)"/>
      <path id="DejaVuSans-47" d="M 3809 666 
L 3809 1919 
L 2778 1919 
L 2778 2438 
L 4434 2438 
L 4434 434 
Q 4069 175 3628 42 
Q 3188 -91 2688 -91 
Q 1594 -91 976 548 
Q 359 1188 359 2328 
Q 359 3472 976 4111 
Q 1594 4750 2688 4750 
Q 3144 4750 3555 4637 
Q 3966 4525 4313 4306 
L 4313 3634 
Q 3963 3931 3569 4081 
Q 3175 4231 2741 4231 
Q 1884 4231 1454 3753 
Q 1025 3275 1025 2328 
Q 1025 1384 1454 906 
Q 1884 428 2741 428 
Q 3075 428 3337 486 
Q 3600 544 3809 666 
z
" transform="scale(0.015625)"/>
      <path id="DejaVuSans-50" d="M 1259 4147 
L 1259 2394 
L 2053 2394 
Q 2494 2394 2734 2622 
Q 2975 2850 2975 3272 
Q 2975 3691 2734 3919 
Q 2494 4147 2053 4147 
L 1259 4147 
z
M 628 4666 
L 2053 4666 
Q 2838 4666 3239 4311 
Q 3641 3956 3641 3272 
Q 3641 2581 3239 2228 
Q 2838 1875 2053 1875 
L 1259 1875 
L 1259 0 
L 628 0 
L 628 4666 
z
" transform="scale(0.015625)"/>
      <path id="DejaVuSans-61" d="M 2194 1759 
Q 1497 1759 1228 1600 
Q 959 1441 959 1056 
Q 959 750 1161 570 
Q 1363 391 1709 391 
Q 2188 391 2477 730 
Q 2766 1069 2766 1631 
L 2766 1759 
L 2194 1759 
z
M 3341 1997 
L 3341 0 
L 2766 0 
L 2766 531 
Q 2569 213 2275 61 
Q 1981 -91 1556 -91 
Q 1019 -91 701 211 
Q 384 513 384 1019 
Q 384 1609 779 1909 
Q 1175 2209 1959 2209 
L 2766 2209 
L 2766 2266 
Q 2766 2663 2505 2880 
Q 2244 3097 1772 3097 
Q 1472 3097 1187 3025 
Q 903 2953 641 2809 
L 641 3341 
Q 956 3463 1253 3523 
Q 1550 3584 1831 3584 
Q 2591 3584 2966 3190 
Q 3341 2797 3341 1997 
z
" transform="scale(0.015625)"/>
      <path id="DejaVuSans-6d" d="M 3328 2828 
Q 3544 3216 3844 3400 
Q 4144 3584 4550 3584 
Q 5097 3584 5394 3201 
Q 5691 2819 5691 2113 
L 5691 0 
L 5113 0 
L 5113 2094 
Q 5113 2597 4934 2840 
Q 4756 3084 4391 3084 
Q 3944 3084 3684 2787 
Q 3425 2491 3425 1978 
L 3425 0 
L 2847 0 
L 2847 2094 
Q 2847 2600 2669 2842 
Q 2491 3084 2119 3084 
Q 1678 3084 1418 2786 
Q 1159 2488 1159 1978 
L 1159 0 
L 581 0 
L 581 3500 
L 1159 3500 
L 1159 2956 
Q 1356 3278 1631 3431 
Q 1906 3584 2284 3584 
Q 2666 3584 2933 3390 
Q 3200 3197 3328 2828 
z
" transform="scale(0.015625)"/>
      <path id="DejaVuSans-66" d="M 2375 4863 
L 2375 4384 
L 1825 4384 
Q 1516 4384 1395 4259 
Q 1275 4134 1275 3809 
L 1275 3500 
L 2222 3500 
L 2222 3053 
L 1275 3053 
L 1275 0 
L 697 0 
L 697 3053 
L 147 3053 
L 147 3500 
L 697 3500 
L 697 3744 
Q 697 4328 969 4595 
Q 1241 4863 1831 4863 
L 2375 4863 
z
" transform="scale(0.015625)"/>
      <path id="DejaVuSans-4d" d="M 628 4666 
L 1569 4666 
L 2759 1491 
L 3956 4666 
L 4897 4666 
L 4897 0 
L 4281 0 
L 4281 4097 
L 3078 897 
L 2444 897 
L 1241 4097 
L 1241 0 
L 628 0 
L 628 4666 
z
" transform="scale(0.015625)"/>
     </defs>
     <use xlink:href="#DejaVuSans-42"/>
     <use xlink:href="#DejaVuSans-72" transform="translate(68.603516 0)"/>
     <use xlink:href="#DejaVuSans-6f" transform="translate(107.466797 0)"/>
     <use xlink:href="#DejaVuSans-6e" transform="translate(168.648438 0)"/>
     <use xlink:href="#DejaVuSans-2d" transform="translate(232.027344 0)"/>
     <use xlink:href="#DejaVuSans-4b" transform="translate(268.111328 0)"/>
     <use xlink:href="#DejaVuSans-65" transform="translate(328.6875 0)"/>
     <use xlink:href="#DejaVuSans-72" transform="translate(390.210938 0)"/>
     <use xlink:href="#DejaVuSans-62" transform="translate(431.324219 0)"/>
     <use xlink:href="#DejaVuSans-6f" transform="translate(494.800781 0)"/>
     <use xlink:href="#DejaVuSans-73" transform="translate(555.982422 0)"/>
     <use xlink:href="#DejaVuSans-63" transform="translate(608.082031 0)"/>
     <use xlink:href="#DejaVuSans-68" transform="translate(663.0625 0)"/>
     <use xlink:href="#DejaVuSans-20" transform="translate(726.441406 0)"/>
     <use xlink:href="#DejaVuSans-56" transform="translate(758.228516 0)"/>
     <use xlink:href="#DejaVuSans-65" transform="translate(818.886719 0)"/>
     <use xlink:href="#DejaVuSans-72" transform="translate(880.410156 0)"/>
     <use xlink:href="#DejaVuSans-33" transform="translate(921.523438 0)"/>
     <use xlink:href="#DejaVuSans-bd" transform="translate(985.146484 0)"/>
     <use xlink:href="#DejaVuSans-2d" transform="translate(1082.070312 0)"/>
     <use xlink:href="#DejaVuSans-47" transform="translate(1121.779297 0)"/>
     <use xlink:href="#DejaVuSans-50" transform="translate(1199.269531 0)"/>
     <use xlink:href="#DejaVuSans-20" transform="translate(1259.572266 0)"/>
     <use xlink:href="#DejaVuSans-6f" transform="translate(1291.359375 0)"/>
     <use xlink:href="#DejaVuSans-6e" transform="translate(1352.541016 0)"/>
     <use xlink:href="#DejaVuSans-20" transform="translate(1415.919922 0)"/>
     <use xlink:href="#DejaVuSans-61" transform="translate(1447.707031 0)"/>
     <use xlink:href="#DejaVuSans-20" transform="translate(1508.986328 0)"/>
     <use xlink:href="#DejaVuSans-72" transform="translate(1540.773438 0)"/>
     <use xlink:href="#DejaVuSans-61" transform="translate(1581.886719 0)"/>
     <use xlink:href="#DejaVuSans-6e" transform="translate(1643.166016 0)"/>
     <use xlink:href="#DejaVuSans-64" transform="translate(1706.544922 0)"/>
     <use xlink:href="#DejaVuSans-6f" transform="translate(1770.021484 0)"/>
     <use xlink:href="#DejaVuSans-6d" transform="translate(1831.203125 0)"/>
     <use xlink:href="#DejaVuSans-20" transform="translate(1928.615234 0)"/>
     <use xlink:href="#DejaVuSans-67" transform="translate(1960.402344 0)"/>
     <use xlink:href="#DejaVuSans-72" transform="translate(2023.878906 0)"/>
     <use xlink:href="#DejaVuSans-61" transform="translate(2064.992188 0)"/>
     <use xlink:href="#DejaVuSans-70" transform="translate(2126.271484 0)"/>
     <use xlink:href="#DejaVuSans-68" transform="translate(2189.748047 0)"/>
     <use xlink:href="#DejaVuSans-20" transform="translate(2253.126953 0)"/>
     <use xlink:href="#DejaVuSans-6f" transform="translate(2284.914062 0)"/>
     <use xlink:href="#DejaVuSans-66" transform="translate(2346.095703 0)"/>
     <use xlink:href="#DejaVuSans-20" transform="translate(2381.300781 0)"/>
     <use xlink:href="#DejaVuSans-6f" transform="translate(2413.087891 0)"/>
     <use xlink:href="#DejaVuSans-72" transform="translate(2474.269531 0)"/>
     <use xlink:href="#DejaVuSans-64" transform="translate(2513.632812 0)"/>
     <use xlink:href="#DejaVuSans-65" transform="translate(2577.109375 0)"/>
     <use xlink:href="#DejaVuSans-72" transform="translate(2638.632812 0)"/>
     <use xlink:href="#DejaVuSans-20" transform="translate(2679.746094 0)"/>
     <use xlink:href="#DejaVuSans-31" transform="translate(2711.533203 0)"/>
     <use xlink:href="#DejaVuSans-4d" transform="translate(2775.15625 0)"/>
    </g>
   </g>
   <g id="legend_1">
    <g id="patch_7">
     <path d="M 45.27 152.305 
L 111.9325 152.305 
Q 113.9325 152.305 113.9325 150.305 
L 113.9325 33.88 
Q 113.9325 31.88 111.9325 31.88 
L 45.27 31.88 
Q 43.27 31.88 43.27 33.88 
L 43.27 150.305 
Q 43.27 152.305 45.27 152.305 
z
" style="fill: #ffffff; opacity: 0.8; stroke: #cccccc; stroke-linejoin: miter"/>
    </g>
    <g id="LineCollection_9">
     <path d="M 57.27 44.978438 
L 57.27 34.978438 
" style="fill: none; stroke: #000099; stroke-width: 1.5"/>
    </g>
    <g id="line2d_36">
     <g>
      <use xlink:href="#ma91f551ce1" x="57.27" y="44.978438" style="fill: #000099; stroke: #000099"/>
     </g>
    </g>
    <g id="line2d_37">
     <g>
      <use xlink:href="#ma91f551ce1" x="57.27" y="34.978438" style="fill: #000099; stroke: #000099"/>
     </g>
    </g>
    <g id="line2d_38">
     <path d="M 47.27 39.978438 
L 67.27 39.978438 
" style="fill: none; stroke: #000099; stroke-width: 1.5; stroke-linecap: square"/>
    </g>
    <g id="line2d_39"/>
    <g id="text_16">
     <!-- Python -->
     <g transform="translate(75.27 43.478438) scale(0.1 -0.1)">
      <defs>
       <path id="DejaVuSans-79" d="M 2059 -325 
Q 1816 -950 1584 -1140 
Q 1353 -1331 966 -1331 
L 506 -1331 
L 506 -850 
L 844 -850 
Q 1081 -850 1212 -737 
Q 1344 -625 1503 -206 
L 1606 56 
L 191 3500 
L 800 3500 
L 1894 763 
L 2988 3500 
L 3597 3500 
L 2059 -325 
z
" transform="scale(0.015625)"/>
      </defs>
      <use xlink:href="#DejaVuSans-50"/>
      <use xlink:href="#DejaVuSans-79" transform="translate(60.302734 0)"/>
      <use xlink:href="#DejaVuSans-74" transform="translate(119.482422 0)"/>
      <use xlink:href="#DejaVuSans-68" transform="translate(158.691406 0)"/>
      <use xlink:href="#DejaVuSans-6f" transform="translate(222.070312 0)"/>
      <use xlink:href="#DejaVuSans-6e" transform="translate(283.251953 0)"/>
     </g>
    </g>
    <g id="LineCollection_10">
     <path d="M 57.27 59.656563 
L 57.27 49.656563 
" style="fill: none; stroke: #660066; stroke-width: 1.5"/>
    </g>
    <g id="line2d_40">
     <g>
      <use xlink:href="#m062f14c242" x="57.27" y="59.656563" style="fill: #660066; stroke: #660066"/>
     </g>
    </g>
    <g id="line2d_41">
     <g>
      <use xlink:href="#m062f14c242" x="57.27" y="49.656563" style="fill: #660066; stroke: #660066"/>
     </g>
    </g>
    <g id="line2d_42">
     <path d="M 47.27 54.656563 
L 67.27 54.656563 
" style="fill: none; stroke: #660066; stroke-width: 1.5; stroke-linecap: square"/>
    </g>
    <g id="line2d_43"/>
    <g id="text_17">
     <!-- F# -->
     <g transform="translate(75.27 58.156563) scale(0.1 -0.1)">
      <defs>
       <path id="DejaVuSans-46" d="M 628 4666 
L 3309 4666 
L 3309 4134 
L 1259 4134 
L 1259 2759 
L 3109 2759 
L 3109 2228 
L 1259 2228 
L 1259 0 
L 628 0 
L 628 4666 
z
" transform="scale(0.015625)"/>
      </defs>
      <use xlink:href="#DejaVuSans-46"/>
      <use xlink:href="#DejaVuSans-23" transform="translate(57.519531 0)"/>
     </g>
    </g>
    <g id="LineCollection_11">
     <path d="M 57.27 74.334688 
L 57.27 64.334688 
" style="fill: none; stroke: #cc9933; stroke-width: 1.5"/>
    </g>
    <g id="line2d_44">
     <g>
      <use xlink:href="#m088a3fbd75" x="57.27" y="74.334688" style="fill: #cc9933; stroke: #cc9933"/>
     </g>
    </g>
    <g id="line2d_45">
     <g>
      <use xlink:href="#m088a3fbd75" x="57.27" y="64.334688" style="fill: #cc9933; stroke: #cc9933"/>
     </g>
    </g>
    <g id="line2d_46">
     <path d="M 47.27 69.334688 
L 67.27 69.334688 
" style="fill: none; stroke: #cc9933; stroke-width: 1.5; stroke-linecap: square"/>
    </g>
    <g id="line2d_47"/>
    <g id="text_18">
     <!-- Kotlin -->
     <g transform="translate(75.27 72.834688) scale(0.1 -0.1)">
      <defs>
       <path id="DejaVuSans-6c" d="M 603 4863 
L 1178 4863 
L 1178 0 
L 603 0 
L 603 4863 
z
" transform="scale(0.015625)"/>
      </defs>
      <use xlink:href="#DejaVuSans-4b"/>
      <use xlink:href="#DejaVuSans-6f" transform="translate(60.576172 0)"/>
      <use xlink:href="#DejaVuSans-74" transform="translate(121.757812 0)"/>
      <use xlink:href="#DejaVuSans-6c" transform="translate(160.966797 0)"/>
      <use xlink:href="#DejaVuSans-69" transform="translate(188.75 0)"/>
      <use xlink:href="#DejaVuSans-6e" transform="translate(216.533203 0)"/>
     </g>
    </g>
    <g id="LineCollection_12">
     <path d="M 57.27 89.012813 
L 57.27 79.012813 
" style="fill: none; stroke: #0000cc; stroke-width: 1.5"/>
    </g>
    <g id="line2d_48">
     <g>
      <use xlink:href="#m71e13e22db" x="57.27" y="89.012813" style="fill: #0000cc; stroke: #0000cc"/>
     </g>
    </g>
    <g id="line2d_49">
     <g>
      <use xlink:href="#m71e13e22db" x="57.27" y="79.012813" style="fill: #0000cc; stroke: #0000cc"/>
     </g>
    </g>
    <g id="line2d_50">
     <path d="M 47.27 84.012813 
L 67.27 84.012813 
" style="fill: none; stroke: #0000cc; stroke-width: 1.5; stroke-linecap: square"/>
    </g>
    <g id="line2d_51"/>
    <g id="text_19">
     <!-- Go -->
     <g transform="translate(75.27 87.512813) scale(0.1 -0.1)">
      <use xlink:href="#DejaVuSans-47"/>
      <use xlink:href="#DejaVuSans-6f" transform="translate(77.490234 0)"/>
     </g>
    </g>
    <g id="LineCollection_13">
     <path d="M 57.27 103.690938 
L 57.27 93.690938 
" style="fill: none; stroke: #009933; stroke-width: 1.5"/>
    </g>
    <g id="line2d_52">
     <g>
      <use xlink:href="#m567d63a80a" x="57.27" y="103.690938" style="fill: #009933; stroke: #009933"/>
     </g>
    </g>
    <g id="line2d_53">
     <g>
      <use xlink:href="#m567d63a80a" x="57.27" y="93.690938" style="fill: #009933; stroke: #009933"/>
     </g>
    </g>
    <g id="line2d_54">
     <path d="M 47.27 98.690938 
L 67.27 98.690938 
" style="fill: none; stroke: #009933; stroke-width: 1.5; stroke-linecap: square"/>
    </g>
    <g id="line2d_55"/>
    <g id="text_20">
     <!-- Java -->
     <g transform="translate(75.27 102.190938) scale(0.1 -0.1)">
      <defs>
       <path id="DejaVuSans-4a" d="M 628 4666 
L 1259 4666 
L 1259 325 
Q 1259 -519 939 -900 
Q 619 -1281 -91 -1281 
L -331 -1281 
L -331 -750 
L -134 -750 
Q 284 -750 456 -515 
Q 628 -281 628 325 
L 628 4666 
z
" transform="scale(0.015625)"/>
       <path id="DejaVuSans-76" d="M 191 3500 
L 800 3500 
L 1894 563 
L 2988 3500 
L 3597 3500 
L 2284 0 
L 1503 0 
L 191 3500 
z
" transform="scale(0.015625)"/>
      </defs>
      <use xlink:href="#DejaVuSans-4a"/>
      <use xlink:href="#DejaVuSans-61" transform="translate(29.492188 0)"/>
      <use xlink:href="#DejaVuSans-76" transform="translate(90.771484 0)"/>
      <use xlink:href="#DejaVuSans-61" transform="translate(149.951172 0)"/>
     </g>
    </g>
    <g id="LineCollection_14">
     <path d="M 57.27 118.369063 
L 57.27 108.369063 
" style="fill: none; stroke: #990000; stroke-width: 1.5"/>
    </g>
    <g id="line2d_56">
     <g>
      <use xlink:href="#md9b07cde7a" x="57.27" y="118.369063" style="fill: #990000; stroke: #990000"/>
     </g>
    </g>
    <g id="line2d_57">
     <g>
      <use xlink:href="#md9b07cde7a" x="57.27" y="108.369063" style="fill: #990000; stroke: #990000"/>
     </g>
    </g>
    <g id="line2d_58">
     <path d="M 47.27 113.369063 
L 67.27 113.369063 
" style="fill: none; stroke: #990000; stroke-width: 1.5; stroke-linecap: square"/>
    </g>
    <g id="line2d_59"/>
    <g id="text_21">
     <!-- C++ -->
     <g transform="translate(75.27 116.869063) scale(0.1 -0.1)">
      <defs>
       <path id="DejaVuSans-43" d="M 4122 4306 
L 4122 3641 
Q 3803 3938 3442 4084 
Q 3081 4231 2675 4231 
Q 1875 4231 1450 3742 
Q 1025 3253 1025 2328 
Q 1025 1406 1450 917 
Q 1875 428 2675 428 
Q 3081 428 3442 575 
Q 3803 722 4122 1019 
L 4122 359 
Q 3791 134 3420 21 
Q 3050 -91 2638 -91 
Q 1578 -91 968 557 
Q 359 1206 359 2328 
Q 359 3453 968 4101 
Q 1578 4750 2638 4750 
Q 3056 4750 3426 4639 
Q 3797 4528 4122 4306 
z
" transform="scale(0.015625)"/>
       <path id="DejaVuSans-2b" d="M 2944 4013 
L 2944 2272 
L 4684 2272 
L 4684 1741 
L 2944 1741 
L 2944 0 
L 2419 0 
L 2419 1741 
L 678 1741 
L 678 2272 
L 2419 2272 
L 2419 4013 
L 2944 4013 
z
" transform="scale(0.015625)"/>
      </defs>
      <use xlink:href="#DejaVuSans-43"/>
      <use xlink:href="#DejaVuSans-2b" transform="translate(69.824219 0)"/>
      <use xlink:href="#DejaVuSans-2b" transform="translate(153.613281 0)"/>
     </g>
    </g>
    <g id="LineCollection_15">
     <path d="M 57.27 133.047188 
L 57.27 123.047188 
" style="fill: none; stroke: #666600; stroke-width: 1.5"/>
    </g>
    <g id="line2d_60">
     <g>
      <use xlink:href="#ma612d83d5a" x="57.27" y="133.047188" style="fill: #666600; stroke: #666600"/>
     </g>
    </g>
    <g id="line2d_61">
     <g>
      <use xlink:href="#ma612d83d5a" x="57.27" y="123.047188" style="fill: #666600; stroke: #666600"/>
     </g>
    </g>
    <g id="line2d_62">
     <path d="M 47.27 128.047188 
L 67.27 128.047188 
" style="fill: none; stroke: #666600; stroke-width: 1.5; stroke-linecap: square"/>
    </g>
    <g id="line2d_63"/>
    <g id="text_22">
     <!-- C# -->
     <g transform="translate(75.27 131.547188) scale(0.1 -0.1)">
      <use xlink:href="#DejaVuSans-43"/>
      <use xlink:href="#DejaVuSans-23" transform="translate(69.824219 0)"/>
     </g>
    </g>
    <g id="LineCollection_16">
     <path d="M 57.27 147.725313 
L 57.27 137.725313 
" style="fill: none; stroke: #cc0033; stroke-width: 1.5"/>
    </g>
    <g id="line2d_64">
     <g>
      <use xlink:href="#md3fe7ae338" x="57.27" y="147.725313" style="fill: #cc0033; stroke: #cc0033"/>
     </g>
    </g>
    <g id="line2d_65">
     <g>
      <use xlink:href="#md3fe7ae338" x="57.27" y="137.725313" style="fill: #cc0033; stroke: #cc0033"/>
     </g>
    </g>
    <g id="line2d_66">
     <path d="M 47.27 142.725313 
L 67.27 142.725313 
" style="fill: none; stroke: #cc0033; stroke-width: 1.5; stroke-linecap: square"/>
    </g>
    <g id="line2d_67"/>
    <g id="text_23">
     <!-- Rust -->
     <g transform="translate(75.27 146.225313) scale(0.1 -0.1)">
      <defs>
       <path id="DejaVuSans-52" d="M 2841 2188 
Q 3044 2119 3236 1894 
Q 3428 1669 3622 1275 
L 4263 0 
L 3584 0 
L 2988 1197 
Q 2756 1666 2539 1819 
Q 2322 1972 1947 1972 
L 1259 1972 
L 1259 0 
L 628 0 
L 628 4666 
L 2053 4666 
Q 2853 4666 3247 4331 
Q 3641 3997 3641 3322 
Q 3641 2881 3436 2590 
Q 3231 2300 2841 2188 
z
M 1259 4147 
L 1259 2491 
L 2053 2491 
Q 2509 2491 2742 2702 
Q 2975 2913 2975 3322 
Q 2975 3731 2742 3939 
Q 2509 4147 2053 4147 
L 1259 4147 
z
" transform="scale(0.015625)"/>
       <path id="DejaVuSans-75" d="M 544 1381 
L 544 3500 
L 1119 3500 
L 1119 1403 
Q 1119 906 1312 657 
Q 1506 409 1894 409 
Q 2359 409 2629 706 
Q 2900 1003 2900 1516 
L 2900 3500 
L 3475 3500 
L 3475 0 
L 2900 0 
L 2900 538 
Q 2691 219 2414 64 
Q 2138 -91 1772 -91 
Q 1169 -91 856 284 
Q 544 659 544 1381 
z
M 1991 3584 
L 1991 3584 
z
" transform="scale(0.015625)"/>
      </defs>
      <use xlink:href="#DejaVuSans-52"/>
      <use xlink:href="#DejaVuSans-75" transform="translate(64.982422 0)"/>
      <use xlink:href="#DejaVuSans-73" transform="translate(128.361328 0)"/>
      <use xlink:href="#DejaVuSans-74" transform="translate(180.460938 0)"/>
     </g>
    </g>
   </g>
  </g>
 </g>
 <defs>
  <clipPath id="p60b2fd3762">
   <rect x="38.27" y="26.88" width="526.93" height="363.16"/>
  </clipPath>
 </defs>
</svg>
