<?xml version="1.0" encoding="utf-8" standalone="no"?>
<!DOCTYPE svg PUBLIC "-//W3C//DTD SVG 1.1//EN"
  "http://www.w3.org/Graphics/SVG/1.1/DTD/svg11.dtd">
<svg xmlns:xlink="http://www.w3.org/1999/xlink" width="576pt" height="432pt" viewBox="0 0 576 432" xmlns="http://www.w3.org/2000/svg" version="1.1">
 <metadata>
  <rdf:RDF xmlns:dc="http://purl.org/dc/elements/1.1/" xmlns:cc="http://creativecommons.org/ns#" xmlns:rdf="http://www.w3.org/1999/02/22-rdf-syntax-ns#">
   <cc:Work>
    <dc:type rdf:resource="http://purl.org/dc/dcmitype/StillImage"/>
    <dc:date>2021-12-24T14:35:30.557594</dc:date>
    <dc:format>image/svg+xml</dc:format>
    <dc:creator>
     <cc:Agent>
      <dc:title>Matplotlib v3.5.0, https://matplotlib.org/</dc:title>
     </cc:Agent>
    </dc:creator>
   </cc:Work>
  </rdf:RDF>
 </metadata>
 <defs>
  <style type="text/css">*{stroke-linejoin: round; stroke-linecap: butt}</style>
 </defs>
 <g id="figure_1">
  <g id="patch_1">
   <path d="M 0 432 
L 576 432 
L 576 0 
L 0 0 
z
" style="fill: #ffffff"/>
  </g>
  <g id="axes_1">
   <g id="patch_2">
    <path d="M 54.02 390.04 
L 565.2 390.04 
L 565.2 26.88 
L 54.02 26.88 
z
" style="fill: #ffffff"/>
   </g>
   <g id="matplotlib.axis_1">
    <g id="xtick_1">
     <g id="line2d_1">
      <defs>
       <path id="mc74f61fcfc" d="M 0 0 
L 0 3.5 
" style="stroke: #000000; stroke-width: 0.8"/>
      </defs>
      <g>
       <use xlink:href="#mc74f61fcfc" x="77.255455" y="390.04" style="stroke: #000000; stroke-width: 0.8"/>
      </g>
     </g>
     <g id="text_1">
      <!-- 2000 -->
      <g transform="translate(64.530455 404.638438)scale(0.1 -0.1)">
       <defs>
        <path id="DejaVuSans-32" d="M 1228 531 
L 3431 531 
L 3431 0 
L 469 0 
L 469 531 
Q 828 903 1448 1529 
Q 2069 2156 2228 2338 
Q 2531 2678 2651 2914 
Q 2772 3150 2772 3378 
Q 2772 3750 2511 3984 
Q 2250 4219 1831 4219 
Q 1534 4219 1204 4116 
Q 875 4013 500 3803 
L 500 4441 
Q 881 4594 1212 4672 
Q 1544 4750 1819 4750 
Q 2544 4750 2975 4387 
Q 3406 4025 3406 3419 
Q 3406 3131 3298 2873 
Q 3191 2616 2906 2266 
Q 2828 2175 2409 1742 
Q 1991 1309 1228 531 
z
" transform="scale(0.015625)"/>
        <path id="DejaVuSans-30" d="M 2034 4250 
Q 1547 4250 1301 3770 
Q 1056 3291 1056 2328 
Q 1056 1369 1301 889 
Q 1547 409 2034 409 
Q 2525 409 2770 889 
Q 3016 1369 3016 2328 
Q 3016 3291 2770 3770 
Q 2525 4250 2034 4250 
z
M 2034 4750 
Q 2819 4750 3233 4129 
Q 3647 3509 3647 2328 
Q 3647 1150 3233 529 
Q 2819 -91 2034 -91 
Q 1250 -91 836 529 
Q 422 1150 422 2328 
Q 422 3509 836 4129 
Q 1250 4750 2034 4750 
z
" transform="scale(0.015625)"/>
       </defs>
       <use xlink:href="#DejaVuSans-32"/>
       <use xlink:href="#DejaVuSans-30" x="63.623047"/>
       <use xlink:href="#DejaVuSans-30" x="127.246094"/>
       <use xlink:href="#DejaVuSans-30" x="190.869141"/>
      </g>
     </g>
    </g>
    <g id="xtick_2">
     <g id="line2d_2">
      <g>
       <use xlink:href="#mc74f61fcfc" x="170.197273" y="390.04" style="stroke: #000000; stroke-width: 0.8"/>
      </g>
     </g>
     <g id="text_2">
      <!-- 2200 -->
      <g transform="translate(157.472273 404.638438)scale(0.1 -0.1)">
       <use xlink:href="#DejaVuSans-32"/>
       <use xlink:href="#DejaVuSans-32" x="63.623047"/>
       <use xlink:href="#DejaVuSans-30" x="127.246094"/>
       <use xlink:href="#DejaVuSans-30" x="190.869141"/>
      </g>
     </g>
    </g>
    <g id="xtick_3">
     <g id="line2d_3">
      <g>
       <use xlink:href="#mc74f61fcfc" x="263.139091" y="390.04" style="stroke: #000000; stroke-width: 0.8"/>
      </g>
     </g>
     <g id="text_3">
      <!-- 2400 -->
      <g transform="translate(250.414091 404.638438)scale(0.1 -0.1)">
       <defs>
        <path id="DejaVuSans-34" d="M 2419 4116 
L 825 1625 
L 2419 1625 
L 2419 4116 
z
M 2253 4666 
L 3047 4666 
L 3047 1625 
L 3713 1625 
L 3713 1100 
L 3047 1100 
L 3047 0 
L 2419 0 
L 2419 1100 
L 313 1100 
L 313 1709 
L 2253 4666 
z
" transform="scale(0.015625)"/>
       </defs>
       <use xlink:href="#DejaVuSans-32"/>
       <use xlink:href="#DejaVuSans-34" x="63.623047"/>
       <use xlink:href="#DejaVuSans-30" x="127.246094"/>
       <use xlink:href="#DejaVuSans-30" x="190.869141"/>
      </g>
     </g>
    </g>
    <g id="xtick_4">
     <g id="line2d_4">
      <g>
       <use xlink:href="#mc74f61fcfc" x="356.080909" y="390.04" style="stroke: #000000; stroke-width: 0.8"/>
      </g>
     </g>
     <g id="text_4">
      <!-- 2600 -->
      <g transform="translate(343.355909 404.638438)scale(0.1 -0.1)">
       <defs>
        <path id="DejaVuSans-36" d="M 2113 2584 
Q 1688 2584 1439 2293 
Q 1191 2003 1191 1497 
Q 1191 994 1439 701 
Q 1688 409 2113 409 
Q 2538 409 2786 701 
Q 3034 994 3034 1497 
Q 3034 2003 2786 2293 
Q 2538 2584 2113 2584 
z
M 3366 4563 
L 3366 3988 
Q 3128 4100 2886 4159 
Q 2644 4219 2406 4219 
Q 1781 4219 1451 3797 
Q 1122 3375 1075 2522 
Q 1259 2794 1537 2939 
Q 1816 3084 2150 3084 
Q 2853 3084 3261 2657 
Q 3669 2231 3669 1497 
Q 3669 778 3244 343 
Q 2819 -91 2113 -91 
Q 1303 -91 875 529 
Q 447 1150 447 2328 
Q 447 3434 972 4092 
Q 1497 4750 2381 4750 
Q 2619 4750 2861 4703 
Q 3103 4656 3366 4563 
z
" transform="scale(0.015625)"/>
       </defs>
       <use xlink:href="#DejaVuSans-32"/>
       <use xlink:href="#DejaVuSans-36" x="63.623047"/>
       <use xlink:href="#DejaVuSans-30" x="127.246094"/>
       <use xlink:href="#DejaVuSans-30" x="190.869141"/>
      </g>
     </g>
    </g>
    <g id="xtick_5">
     <g id="line2d_5">
      <g>
       <use xlink:href="#mc74f61fcfc" x="449.022727" y="390.04" style="stroke: #000000; stroke-width: 0.8"/>
      </g>
     </g>
     <g id="text_5">
      <!-- 2800 -->
      <g transform="translate(436.297727 404.638438)scale(0.1 -0.1)">
       <defs>
        <path id="DejaVuSans-38" d="M 2034 2216 
Q 1584 2216 1326 1975 
Q 1069 1734 1069 1313 
Q 1069 891 1326 650 
Q 1584 409 2034 409 
Q 2484 409 2743 651 
Q 3003 894 3003 1313 
Q 3003 1734 2745 1975 
Q 2488 2216 2034 2216 
z
M 1403 2484 
Q 997 2584 770 2862 
Q 544 3141 544 3541 
Q 544 4100 942 4425 
Q 1341 4750 2034 4750 
Q 2731 4750 3128 4425 
Q 3525 4100 3525 3541 
Q 3525 3141 3298 2862 
Q 3072 2584 2669 2484 
Q 3125 2378 3379 2068 
Q 3634 1759 3634 1313 
Q 3634 634 3220 271 
Q 2806 -91 2034 -91 
Q 1263 -91 848 271 
Q 434 634 434 1313 
Q 434 1759 690 2068 
Q 947 2378 1403 2484 
z
M 1172 3481 
Q 1172 3119 1398 2916 
Q 1625 2713 2034 2713 
Q 2441 2713 2670 2916 
Q 2900 3119 2900 3481 
Q 2900 3844 2670 4047 
Q 2441 4250 2034 4250 
Q 1625 4250 1398 4047 
Q 1172 3844 1172 3481 
z
" transform="scale(0.015625)"/>
       </defs>
       <use xlink:href="#DejaVuSans-32"/>
       <use xlink:href="#DejaVuSans-38" x="63.623047"/>
       <use xlink:href="#DejaVuSans-30" x="127.246094"/>
       <use xlink:href="#DejaVuSans-30" x="190.869141"/>
      </g>
     </g>
    </g>
    <g id="xtick_6">
     <g id="line2d_6">
      <g>
       <use xlink:href="#mc74f61fcfc" x="541.964545" y="390.04" style="stroke: #000000; stroke-width: 0.8"/>
      </g>
     </g>
     <g id="text_6">
      <!-- 3000 -->
      <g transform="translate(529.239545 404.638438)scale(0.1 -0.1)">
       <defs>
        <path id="DejaVuSans-33" d="M 2597 2516 
Q 3050 2419 3304 2112 
Q 3559 1806 3559 1356 
Q 3559 666 3084 287 
Q 2609 -91 1734 -91 
Q 1441 -91 1130 -33 
Q 819 25 488 141 
L 488 750 
Q 750 597 1062 519 
Q 1375 441 1716 441 
Q 2309 441 2620 675 
Q 2931 909 2931 1356 
Q 2931 1769 2642 2001 
Q 2353 2234 1838 2234 
L 1294 2234 
L 1294 2753 
L 1863 2753 
Q 2328 2753 2575 2939 
Q 2822 3125 2822 3475 
Q 2822 3834 2567 4026 
Q 2313 4219 1838 4219 
Q 1578 4219 1281 4162 
Q 984 4106 628 3988 
L 628 4550 
Q 988 4650 1302 4700 
Q 1616 4750 1894 4750 
Q 2613 4750 3031 4423 
Q 3450 4097 3450 3541 
Q 3450 3153 3228 2886 
Q 3006 2619 2597 2516 
z
" transform="scale(0.015625)"/>
       </defs>
       <use xlink:href="#DejaVuSans-33"/>
       <use xlink:href="#DejaVuSans-30" x="63.623047"/>
       <use xlink:href="#DejaVuSans-30" x="127.246094"/>
       <use xlink:href="#DejaVuSans-30" x="190.869141"/>
      </g>
     </g>
    </g>
    <g id="text_7">
     <!-- Size (#edges) -->
     <g transform="translate(274.559219 418.316562)scale(0.1 -0.1)">
      <defs>
       <path id="DejaVuSans-53" d="M 3425 4513 
L 3425 3897 
Q 3066 4069 2747 4153 
Q 2428 4238 2131 4238 
Q 1616 4238 1336 4038 
Q 1056 3838 1056 3469 
Q 1056 3159 1242 3001 
Q 1428 2844 1947 2747 
L 2328 2669 
Q 3034 2534 3370 2195 
Q 3706 1856 3706 1288 
Q 3706 609 3251 259 
Q 2797 -91 1919 -91 
Q 1588 -91 1214 -16 
Q 841 59 441 206 
L 441 856 
Q 825 641 1194 531 
Q 1563 422 1919 422 
Q 2459 422 2753 634 
Q 3047 847 3047 1241 
Q 3047 1584 2836 1778 
Q 2625 1972 2144 2069 
L 1759 2144 
Q 1053 2284 737 2584 
Q 422 2884 422 3419 
Q 422 4038 858 4394 
Q 1294 4750 2059 4750 
Q 2388 4750 2728 4690 
Q 3069 4631 3425 4513 
z
" transform="scale(0.015625)"/>
       <path id="DejaVuSans-69" d="M 603 3500 
L 1178 3500 
L 1178 0 
L 603 0 
L 603 3500 
z
M 603 4863 
L 1178 4863 
L 1178 4134 
L 603 4134 
L 603 4863 
z
" transform="scale(0.015625)"/>
       <path id="DejaVuSans-7a" d="M 353 3500 
L 3084 3500 
L 3084 2975 
L 922 459 
L 3084 459 
L 3084 0 
L 275 0 
L 275 525 
L 2438 3041 
L 353 3041 
L 353 3500 
z
" transform="scale(0.015625)"/>
       <path id="DejaVuSans-65" d="M 3597 1894 
L 3597 1613 
L 953 1613 
Q 991 1019 1311 708 
Q 1631 397 2203 397 
Q 2534 397 2845 478 
Q 3156 559 3463 722 
L 3463 178 
Q 3153 47 2828 -22 
Q 2503 -91 2169 -91 
Q 1331 -91 842 396 
Q 353 884 353 1716 
Q 353 2575 817 3079 
Q 1281 3584 2069 3584 
Q 2775 3584 3186 3129 
Q 3597 2675 3597 1894 
z
M 3022 2063 
Q 3016 2534 2758 2815 
Q 2500 3097 2075 3097 
Q 1594 3097 1305 2825 
Q 1016 2553 972 2059 
L 3022 2063 
z
" transform="scale(0.015625)"/>
       <path id="DejaVuSans-20" transform="scale(0.015625)"/>
       <path id="DejaVuSans-28" d="M 1984 4856 
Q 1566 4138 1362 3434 
Q 1159 2731 1159 2009 
Q 1159 1288 1364 580 
Q 1569 -128 1984 -844 
L 1484 -844 
Q 1016 -109 783 600 
Q 550 1309 550 2009 
Q 550 2706 781 3412 
Q 1013 4119 1484 4856 
L 1984 4856 
z
" transform="scale(0.015625)"/>
       <path id="DejaVuSans-23" d="M 3272 2816 
L 2363 2816 
L 2100 1772 
L 3016 1772 
L 3272 2816 
z
M 2803 4594 
L 2478 3297 
L 3391 3297 
L 3719 4594 
L 4219 4594 
L 3897 3297 
L 4872 3297 
L 4872 2816 
L 3775 2816 
L 3519 1772 
L 4513 1772 
L 4513 1294 
L 3397 1294 
L 3072 0 
L 2572 0 
L 2894 1294 
L 1978 1294 
L 1656 0 
L 1153 0 
L 1478 1294 
L 494 1294 
L 494 1772 
L 1594 1772 
L 1856 2816 
L 850 2816 
L 850 3297 
L 1978 3297 
L 2297 4594 
L 2803 4594 
z
" transform="scale(0.015625)"/>
       <path id="DejaVuSans-64" d="M 2906 2969 
L 2906 4863 
L 3481 4863 
L 3481 0 
L 2906 0 
L 2906 525 
Q 2725 213 2448 61 
Q 2172 -91 1784 -91 
Q 1150 -91 751 415 
Q 353 922 353 1747 
Q 353 2572 751 3078 
Q 1150 3584 1784 3584 
Q 2172 3584 2448 3432 
Q 2725 3281 2906 2969 
z
M 947 1747 
Q 947 1113 1208 752 
Q 1469 391 1925 391 
Q 2381 391 2643 752 
Q 2906 1113 2906 1747 
Q 2906 2381 2643 2742 
Q 2381 3103 1925 3103 
Q 1469 3103 1208 2742 
Q 947 2381 947 1747 
z
" transform="scale(0.015625)"/>
       <path id="DejaVuSans-67" d="M 2906 1791 
Q 2906 2416 2648 2759 
Q 2391 3103 1925 3103 
Q 1463 3103 1205 2759 
Q 947 2416 947 1791 
Q 947 1169 1205 825 
Q 1463 481 1925 481 
Q 2391 481 2648 825 
Q 2906 1169 2906 1791 
z
M 3481 434 
Q 3481 -459 3084 -895 
Q 2688 -1331 1869 -1331 
Q 1566 -1331 1297 -1286 
Q 1028 -1241 775 -1147 
L 775 -588 
Q 1028 -725 1275 -790 
Q 1522 -856 1778 -856 
Q 2344 -856 2625 -561 
Q 2906 -266 2906 331 
L 2906 616 
Q 2728 306 2450 153 
Q 2172 0 1784 0 
Q 1141 0 747 490 
Q 353 981 353 1791 
Q 353 2603 747 3093 
Q 1141 3584 1784 3584 
Q 2172 3584 2450 3431 
Q 2728 3278 2906 2969 
L 2906 3500 
L 3481 3500 
L 3481 434 
z
" transform="scale(0.015625)"/>
       <path id="DejaVuSans-73" d="M 2834 3397 
L 2834 2853 
Q 2591 2978 2328 3040 
Q 2066 3103 1784 3103 
Q 1356 3103 1142 2972 
Q 928 2841 928 2578 
Q 928 2378 1081 2264 
Q 1234 2150 1697 2047 
L 1894 2003 
Q 2506 1872 2764 1633 
Q 3022 1394 3022 966 
Q 3022 478 2636 193 
Q 2250 -91 1575 -91 
Q 1294 -91 989 -36 
Q 684 19 347 128 
L 347 722 
Q 666 556 975 473 
Q 1284 391 1588 391 
Q 1994 391 2212 530 
Q 2431 669 2431 922 
Q 2431 1156 2273 1281 
Q 2116 1406 1581 1522 
L 1381 1569 
Q 847 1681 609 1914 
Q 372 2147 372 2553 
Q 372 3047 722 3315 
Q 1072 3584 1716 3584 
Q 2034 3584 2315 3537 
Q 2597 3491 2834 3397 
z
" transform="scale(0.015625)"/>
       <path id="DejaVuSans-29" d="M 513 4856 
L 1013 4856 
Q 1481 4119 1714 3412 
Q 1947 2706 1947 2009 
Q 1947 1309 1714 600 
Q 1481 -109 1013 -844 
L 513 -844 
Q 928 -128 1133 580 
Q 1338 1288 1338 2009 
Q 1338 2731 1133 3434 
Q 928 4138 513 4856 
z
" transform="scale(0.015625)"/>
      </defs>
      <use xlink:href="#DejaVuSans-53"/>
      <use xlink:href="#DejaVuSans-69" x="63.476562"/>
      <use xlink:href="#DejaVuSans-7a" x="91.259766"/>
      <use xlink:href="#DejaVuSans-65" x="143.75"/>
      <use xlink:href="#DejaVuSans-20" x="205.273438"/>
      <use xlink:href="#DejaVuSans-28" x="237.060547"/>
      <use xlink:href="#DejaVuSans-23" x="276.074219"/>
      <use xlink:href="#DejaVuSans-65" x="359.863281"/>
      <use xlink:href="#DejaVuSans-64" x="421.386719"/>
      <use xlink:href="#DejaVuSans-67" x="484.863281"/>
      <use xlink:href="#DejaVuSans-65" x="548.339844"/>
      <use xlink:href="#DejaVuSans-73" x="609.863281"/>
      <use xlink:href="#DejaVuSans-29" x="661.962891"/>
     </g>
    </g>
   </g>
   <g id="matplotlib.axis_2">
    <g id="ytick_1">
     <g id="line2d_7">
      <defs>
       <path id="m7eb1c47a8f" d="M 0 0 
L -3.5 0 
" style="stroke: #000000; stroke-width: 0.8"/>
      </defs>
      <g>
       <use xlink:href="#m7eb1c47a8f" x="54.02" y="376.172286" style="stroke: #000000; stroke-width: 0.8"/>
      </g>
     </g>
     <g id="text_8">
      <!-- 0.00 -->
      <g transform="translate(24.754375 379.971505)scale(0.1 -0.1)">
       <defs>
        <path id="DejaVuSans-2e" d="M 684 794 
L 1344 794 
L 1344 0 
L 684 0 
L 684 794 
z
" transform="scale(0.015625)"/>
       </defs>
       <use xlink:href="#DejaVuSans-30"/>
       <use xlink:href="#DejaVuSans-2e" x="63.623047"/>
       <use xlink:href="#DejaVuSans-30" x="95.410156"/>
       <use xlink:href="#DejaVuSans-30" x="159.033203"/>
      </g>
     </g>
    </g>
    <g id="ytick_2">
     <g id="line2d_8">
      <g>
       <use xlink:href="#m7eb1c47a8f" x="54.02" y="335.785385" style="stroke: #000000; stroke-width: 0.8"/>
      </g>
     </g>
     <g id="text_9">
      <!-- 0.25 -->
      <g transform="translate(24.754375 339.584603)scale(0.1 -0.1)">
       <defs>
        <path id="DejaVuSans-35" d="M 691 4666 
L 3169 4666 
L 3169 4134 
L 1269 4134 
L 1269 2991 
Q 1406 3038 1543 3061 
Q 1681 3084 1819 3084 
Q 2600 3084 3056 2656 
Q 3513 2228 3513 1497 
Q 3513 744 3044 326 
Q 2575 -91 1722 -91 
Q 1428 -91 1123 -41 
Q 819 9 494 109 
L 494 744 
Q 775 591 1075 516 
Q 1375 441 1709 441 
Q 2250 441 2565 725 
Q 2881 1009 2881 1497 
Q 2881 1984 2565 2268 
Q 2250 2553 1709 2553 
Q 1456 2553 1204 2497 
Q 953 2441 691 2322 
L 691 4666 
z
" transform="scale(0.015625)"/>
       </defs>
       <use xlink:href="#DejaVuSans-30"/>
       <use xlink:href="#DejaVuSans-2e" x="63.623047"/>
       <use xlink:href="#DejaVuSans-32" x="95.410156"/>
       <use xlink:href="#DejaVuSans-35" x="159.033203"/>
      </g>
     </g>
    </g>
    <g id="ytick_3">
     <g id="line2d_9">
      <g>
       <use xlink:href="#m7eb1c47a8f" x="54.02" y="295.398483" style="stroke: #000000; stroke-width: 0.8"/>
      </g>
     </g>
     <g id="text_10">
      <!-- 0.50 -->
      <g transform="translate(24.754375 299.197702)scale(0.1 -0.1)">
       <use xlink:href="#DejaVuSans-30"/>
       <use xlink:href="#DejaVuSans-2e" x="63.623047"/>
       <use xlink:href="#DejaVuSans-35" x="95.410156"/>
       <use xlink:href="#DejaVuSans-30" x="159.033203"/>
      </g>
     </g>
    </g>
    <g id="ytick_4">
     <g id="line2d_10">
      <g>
       <use xlink:href="#m7eb1c47a8f" x="54.02" y="255.011582" style="stroke: #000000; stroke-width: 0.8"/>
      </g>
     </g>
     <g id="text_11">
      <!-- 0.75 -->
      <g transform="translate(24.754375 258.810801)scale(0.1 -0.1)">
       <defs>
        <path id="DejaVuSans-37" d="M 525 4666 
L 3525 4666 
L 3525 4397 
L 1831 0 
L 1172 0 
L 2766 4134 
L 525 4134 
L 525 4666 
z
" transform="scale(0.015625)"/>
       </defs>
       <use xlink:href="#DejaVuSans-30"/>
       <use xlink:href="#DejaVuSans-2e" x="63.623047"/>
       <use xlink:href="#DejaVuSans-37" x="95.410156"/>
       <use xlink:href="#DejaVuSans-35" x="159.033203"/>
      </g>
     </g>
    </g>
    <g id="ytick_5">
     <g id="line2d_11">
      <g>
       <use xlink:href="#m7eb1c47a8f" x="54.02" y="214.624681" style="stroke: #000000; stroke-width: 0.8"/>
      </g>
     </g>
     <g id="text_12">
      <!-- 1.00 -->
      <g transform="translate(24.754375 218.4239)scale(0.1 -0.1)">
       <defs>
        <path id="DejaVuSans-31" d="M 794 531 
L 1825 531 
L 1825 4091 
L 703 3866 
L 703 4441 
L 1819 4666 
L 2450 4666 
L 2450 531 
L 3481 531 
L 3481 0 
L 794 0 
L 794 531 
z
" transform="scale(0.015625)"/>
       </defs>
       <use xlink:href="#DejaVuSans-31"/>
       <use xlink:href="#DejaVuSans-2e" x="63.623047"/>
       <use xlink:href="#DejaVuSans-30" x="95.410156"/>
       <use xlink:href="#DejaVuSans-30" x="159.033203"/>
      </g>
     </g>
    </g>
    <g id="ytick_6">
     <g id="line2d_12">
      <g>
       <use xlink:href="#m7eb1c47a8f" x="54.02" y="174.23778" style="stroke: #000000; stroke-width: 0.8"/>
      </g>
     </g>
     <g id="text_13">
      <!-- 1.25 -->
      <g transform="translate(24.754375 178.036998)scale(0.1 -0.1)">
       <use xlink:href="#DejaVuSans-31"/>
       <use xlink:href="#DejaVuSans-2e" x="63.623047"/>
       <use xlink:href="#DejaVuSans-32" x="95.410156"/>
       <use xlink:href="#DejaVuSans-35" x="159.033203"/>
      </g>
     </g>
    </g>
    <g id="ytick_7">
     <g id="line2d_13">
      <g>
       <use xlink:href="#m7eb1c47a8f" x="54.02" y="133.850878" style="stroke: #000000; stroke-width: 0.8"/>
      </g>
     </g>
     <g id="text_14">
      <!-- 1.50 -->
      <g transform="translate(24.754375 137.650097)scale(0.1 -0.1)">
       <use xlink:href="#DejaVuSans-31"/>
       <use xlink:href="#DejaVuSans-2e" x="63.623047"/>
       <use xlink:href="#DejaVuSans-35" x="95.410156"/>
       <use xlink:href="#DejaVuSans-30" x="159.033203"/>
      </g>
     </g>
    </g>
    <g id="ytick_8">
     <g id="line2d_14">
      <g>
       <use xlink:href="#m7eb1c47a8f" x="54.02" y="93.463977" style="stroke: #000000; stroke-width: 0.8"/>
      </g>
     </g>
     <g id="text_15">
      <!-- 1.75 -->
      <g transform="translate(24.754375 97.263196)scale(0.1 -0.1)">
       <use xlink:href="#DejaVuSans-31"/>
       <use xlink:href="#DejaVuSans-2e" x="63.623047"/>
       <use xlink:href="#DejaVuSans-37" x="95.410156"/>
       <use xlink:href="#DejaVuSans-35" x="159.033203"/>
      </g>
     </g>
    </g>
    <g id="ytick_9">
     <g id="line2d_15">
      <g>
       <use xlink:href="#m7eb1c47a8f" x="54.02" y="53.077076" style="stroke: #000000; stroke-width: 0.8"/>
      </g>
     </g>
     <g id="text_16">
      <!-- 2.00 -->
      <g transform="translate(24.754375 56.876295)scale(0.1 -0.1)">
       <use xlink:href="#DejaVuSans-32"/>
       <use xlink:href="#DejaVuSans-2e" x="63.623047"/>
       <use xlink:href="#DejaVuSans-30" x="95.410156"/>
       <use xlink:href="#DejaVuSans-30" x="159.033203"/>
      </g>
     </g>
    </g>
    <g id="text_17">
     <!-- Seconds spent -->
     <g transform="translate(18.674688 245.040469)rotate(-90)scale(0.1 -0.1)">
      <defs>
       <path id="DejaVuSans-63" d="M 3122 3366 
L 3122 2828 
Q 2878 2963 2633 3030 
Q 2388 3097 2138 3097 
Q 1578 3097 1268 2742 
Q 959 2388 959 1747 
Q 959 1106 1268 751 
Q 1578 397 2138 397 
Q 2388 397 2633 464 
Q 2878 531 3122 666 
L 3122 134 
Q 2881 22 2623 -34 
Q 2366 -91 2075 -91 
Q 1284 -91 818 406 
Q 353 903 353 1747 
Q 353 2603 823 3093 
Q 1294 3584 2113 3584 
Q 2378 3584 2631 3529 
Q 2884 3475 3122 3366 
z
" transform="scale(0.015625)"/>
       <path id="DejaVuSans-6f" d="M 1959 3097 
Q 1497 3097 1228 2736 
Q 959 2375 959 1747 
Q 959 1119 1226 758 
Q 1494 397 1959 397 
Q 2419 397 2687 759 
Q 2956 1122 2956 1747 
Q 2956 2369 2687 2733 
Q 2419 3097 1959 3097 
z
M 1959 3584 
Q 2709 3584 3137 3096 
Q 3566 2609 3566 1747 
Q 3566 888 3137 398 
Q 2709 -91 1959 -91 
Q 1206 -91 779 398 
Q 353 888 353 1747 
Q 353 2609 779 3096 
Q 1206 3584 1959 3584 
z
" transform="scale(0.015625)"/>
       <path id="DejaVuSans-6e" d="M 3513 2113 
L 3513 0 
L 2938 0 
L 2938 2094 
Q 2938 2591 2744 2837 
Q 2550 3084 2163 3084 
Q 1697 3084 1428 2787 
Q 1159 2491 1159 1978 
L 1159 0 
L 581 0 
L 581 3500 
L 1159 3500 
L 1159 2956 
Q 1366 3272 1645 3428 
Q 1925 3584 2291 3584 
Q 2894 3584 3203 3211 
Q 3513 2838 3513 2113 
z
" transform="scale(0.015625)"/>
       <path id="DejaVuSans-70" d="M 1159 525 
L 1159 -1331 
L 581 -1331 
L 581 3500 
L 1159 3500 
L 1159 2969 
Q 1341 3281 1617 3432 
Q 1894 3584 2278 3584 
Q 2916 3584 3314 3078 
Q 3713 2572 3713 1747 
Q 3713 922 3314 415 
Q 2916 -91 2278 -91 
Q 1894 -91 1617 61 
Q 1341 213 1159 525 
z
M 3116 1747 
Q 3116 2381 2855 2742 
Q 2594 3103 2138 3103 
Q 1681 3103 1420 2742 
Q 1159 2381 1159 1747 
Q 1159 1113 1420 752 
Q 1681 391 2138 391 
Q 2594 391 2855 752 
Q 3116 1113 3116 1747 
z
" transform="scale(0.015625)"/>
       <path id="DejaVuSans-74" d="M 1172 4494 
L 1172 3500 
L 2356 3500 
L 2356 3053 
L 1172 3053 
L 1172 1153 
Q 1172 725 1289 603 
Q 1406 481 1766 481 
L 2356 481 
L 2356 0 
L 1766 0 
Q 1100 0 847 248 
Q 594 497 594 1153 
L 594 3053 
L 172 3053 
L 172 3500 
L 594 3500 
L 594 4494 
L 1172 4494 
z
" transform="scale(0.015625)"/>
      </defs>
      <use xlink:href="#DejaVuSans-53"/>
      <use xlink:href="#DejaVuSans-65" x="63.476562"/>
      <use xlink:href="#DejaVuSans-63" x="125"/>
      <use xlink:href="#DejaVuSans-6f" x="179.980469"/>
      <use xlink:href="#DejaVuSans-6e" x="241.162109"/>
      <use xlink:href="#DejaVuSans-64" x="304.541016"/>
      <use xlink:href="#DejaVuSans-73" x="368.017578"/>
      <use xlink:href="#DejaVuSans-20" x="420.117188"/>
      <use xlink:href="#DejaVuSans-73" x="451.904297"/>
      <use xlink:href="#DejaVuSans-70" x="504.003906"/>
      <use xlink:href="#DejaVuSans-65" x="567.480469"/>
      <use xlink:href="#DejaVuSans-6e" x="629.003906"/>
      <use xlink:href="#DejaVuSans-74" x="692.382812"/>
     </g>
    </g>
   </g>
   <g id="LineCollection_1">
    <path d="M 77.255455 370.282906 
L 77.255455 370.194734 
" clip-path="url(#pa6ebc073c4)" style="fill: none; stroke: #000099; stroke-width: 1.5"/>
    <path d="M 100.490909 369.336367 
L 100.490909 369.172137 
" clip-path="url(#pa6ebc073c4)" style="fill: none; stroke: #000099; stroke-width: 1.5"/>
    <path d="M 123.726364 368.224596 
L 123.726364 368.05804 
" clip-path="url(#pa6ebc073c4)" style="fill: none; stroke: #000099; stroke-width: 1.5"/>
    <path d="M 146.961818 366.829002 
L 146.961818 366.743237 
" clip-path="url(#pa6ebc073c4)" style="fill: none; stroke: #000099; stroke-width: 1.5"/>
    <path d="M 170.197273 364.831095 
L 170.197273 364.666591 
" clip-path="url(#pa6ebc073c4)" style="fill: none; stroke: #000099; stroke-width: 1.5"/>
    <path d="M 193.432727 362.310144 
L 193.432727 362.208692 
" clip-path="url(#pa6ebc073c4)" style="fill: none; stroke: #000099; stroke-width: 1.5"/>
    <path d="M 216.668182 359.909644 
L 216.668182 359.561767 
" clip-path="url(#pa6ebc073c4)" style="fill: none; stroke: #000099; stroke-width: 1.5"/>
    <path d="M 239.903636 356.620809 
L 239.903636 356.472573 
" clip-path="url(#pa6ebc073c4)" style="fill: none; stroke: #000099; stroke-width: 1.5"/>
    <path d="M 263.139091 352.381929 
L 263.139091 352.15502 
" clip-path="url(#pa6ebc073c4)" style="fill: none; stroke: #000099; stroke-width: 1.5"/>
    <path d="M 286.374545 347.852991 
L 286.374545 347.616275 
" clip-path="url(#pa6ebc073c4)" style="fill: none; stroke: #000099; stroke-width: 1.5"/>
    <path d="M 309.61 342.514763 
L 309.61 342.073011 
" clip-path="url(#pa6ebc073c4)" style="fill: none; stroke: #000099; stroke-width: 1.5"/>
    <path d="M 332.845455 334.923948 
L 332.845455 334.718137 
" clip-path="url(#pa6ebc073c4)" style="fill: none; stroke: #000099; stroke-width: 1.5"/>
    <path d="M 356.080909 326.459419 
L 356.080909 325.951691 
" clip-path="url(#pa6ebc073c4)" style="fill: none; stroke: #000099; stroke-width: 1.5"/>
    <path d="M 379.316364 315.012689 
L 379.316364 313.943502 
" clip-path="url(#pa6ebc073c4)" style="fill: none; stroke: #000099; stroke-width: 1.5"/>
    <path d="M 402.551818 303.684308 
L 402.551818 302.224177 
" clip-path="url(#pa6ebc073c4)" style="fill: none; stroke: #000099; stroke-width: 1.5"/>
    <path d="M 425.787273 283.748284 
L 425.787273 281.277284 
" clip-path="url(#pa6ebc073c4)" style="fill: none; stroke: #000099; stroke-width: 1.5"/>
    <path d="M 449.022727 260.535347 
L 449.022727 256.076197 
" clip-path="url(#pa6ebc073c4)" style="fill: none; stroke: #000099; stroke-width: 1.5"/>
    <path d="M 472.258182 221.419082 
L 472.258182 220.42529 
" clip-path="url(#pa6ebc073c4)" style="fill: none; stroke: #000099; stroke-width: 1.5"/>
    <path d="M 495.493636 174.08292 
L 495.493636 172.770523 
" clip-path="url(#pa6ebc073c4)" style="fill: none; stroke: #000099; stroke-width: 1.5"/>
    <path d="M 518.729091 115.614577 
L 518.729091 115.306376 
" clip-path="url(#pa6ebc073c4)" style="fill: none; stroke: #000099; stroke-width: 1.5"/>
    <path d="M 541.964545 46.06948 
L 541.964545 43.387273 
" clip-path="url(#pa6ebc073c4)" style="fill: none; stroke: #000099; stroke-width: 1.5"/>
   </g>
   <g id="line2d_16">
    <defs>
     <path id="ma91f551ce1" d="M 3 0 
L -3 -0 
" style="stroke: #000099"/>
    </defs>
    <g clip-path="url(#pa6ebc073c4)">
     <use xlink:href="#ma91f551ce1" x="77.255455" y="370.282906" style="fill: #000099; stroke: #000099"/>
     <use xlink:href="#ma91f551ce1" x="100.490909" y="369.336367" style="fill: #000099; stroke: #000099"/>
     <use xlink:href="#ma91f551ce1" x="123.726364" y="368.224596" style="fill: #000099; stroke: #000099"/>
     <use xlink:href="#ma91f551ce1" x="146.961818" y="366.829002" style="fill: #000099; stroke: #000099"/>
     <use xlink:href="#ma91f551ce1" x="170.197273" y="364.831095" style="fill: #000099; stroke: #000099"/>
     <use xlink:href="#ma91f551ce1" x="193.432727" y="362.310144" style="fill: #000099; stroke: #000099"/>
     <use xlink:href="#ma91f551ce1" x="216.668182" y="359.909644" style="fill: #000099; stroke: #000099"/>
     <use xlink:href="#ma91f551ce1" x="239.903636" y="356.620809" style="fill: #000099; stroke: #000099"/>
     <use xlink:href="#ma91f551ce1" x="263.139091" y="352.381929" style="fill: #000099; stroke: #000099"/>
     <use xlink:href="#ma91f551ce1" x="286.374545" y="347.852991" style="fill: #000099; stroke: #000099"/>
     <use xlink:href="#ma91f551ce1" x="309.61" y="342.514763" style="fill: #000099; stroke: #000099"/>
     <use xlink:href="#ma91f551ce1" x="332.845455" y="334.923948" style="fill: #000099; stroke: #000099"/>
     <use xlink:href="#ma91f551ce1" x="356.080909" y="326.459419" style="fill: #000099; stroke: #000099"/>
     <use xlink:href="#ma91f551ce1" x="379.316364" y="315.012689" style="fill: #000099; stroke: #000099"/>
     <use xlink:href="#ma91f551ce1" x="402.551818" y="303.684308" style="fill: #000099; stroke: #000099"/>
     <use xlink:href="#ma91f551ce1" x="425.787273" y="283.748284" style="fill: #000099; stroke: #000099"/>
     <use xlink:href="#ma91f551ce1" x="449.022727" y="260.535347" style="fill: #000099; stroke: #000099"/>
     <use xlink:href="#ma91f551ce1" x="472.258182" y="221.419082" style="fill: #000099; stroke: #000099"/>
     <use xlink:href="#ma91f551ce1" x="495.493636" y="174.08292" style="fill: #000099; stroke: #000099"/>
     <use xlink:href="#ma91f551ce1" x="518.729091" y="115.614577" style="fill: #000099; stroke: #000099"/>
     <use xlink:href="#ma91f551ce1" x="541.964545" y="46.06948" style="fill: #000099; stroke: #000099"/>
    </g>
   </g>
   <g id="line2d_17">
    <g clip-path="url(#pa6ebc073c4)">
     <use xlink:href="#ma91f551ce1" x="77.255455" y="370.194734" style="fill: #000099; stroke: #000099"/>
     <use xlink:href="#ma91f551ce1" x="100.490909" y="369.172137" style="fill: #000099; stroke: #000099"/>
     <use xlink:href="#ma91f551ce1" x="123.726364" y="368.05804" style="fill: #000099; stroke: #000099"/>
     <use xlink:href="#ma91f551ce1" x="146.961818" y="366.743237" style="fill: #000099; stroke: #000099"/>
     <use xlink:href="#ma91f551ce1" x="170.197273" y="364.666591" style="fill: #000099; stroke: #000099"/>
     <use xlink:href="#ma91f551ce1" x="193.432727" y="362.208692" style="fill: #000099; stroke: #000099"/>
     <use xlink:href="#ma91f551ce1" x="216.668182" y="359.561767" style="fill: #000099; stroke: #000099"/>
     <use xlink:href="#ma91f551ce1" x="239.903636" y="356.472573" style="fill: #000099; stroke: #000099"/>
     <use xlink:href="#ma91f551ce1" x="263.139091" y="352.15502" style="fill: #000099; stroke: #000099"/>
     <use xlink:href="#ma91f551ce1" x="286.374545" y="347.616275" style="fill: #000099; stroke: #000099"/>
     <use xlink:href="#ma91f551ce1" x="309.61" y="342.073011" style="fill: #000099; stroke: #000099"/>
     <use xlink:href="#ma91f551ce1" x="332.845455" y="334.718137" style="fill: #000099; stroke: #000099"/>
     <use xlink:href="#ma91f551ce1" x="356.080909" y="325.951691" style="fill: #000099; stroke: #000099"/>
     <use xlink:href="#ma91f551ce1" x="379.316364" y="313.943502" style="fill: #000099; stroke: #000099"/>
     <use xlink:href="#ma91f551ce1" x="402.551818" y="302.224177" style="fill: #000099; stroke: #000099"/>
     <use xlink:href="#ma91f551ce1" x="425.787273" y="281.277284" style="fill: #000099; stroke: #000099"/>
     <use xlink:href="#ma91f551ce1" x="449.022727" y="256.076197" style="fill: #000099; stroke: #000099"/>
     <use xlink:href="#ma91f551ce1" x="472.258182" y="220.42529" style="fill: #000099; stroke: #000099"/>
     <use xlink:href="#ma91f551ce1" x="495.493636" y="172.770523" style="fill: #000099; stroke: #000099"/>
     <use xlink:href="#ma91f551ce1" x="518.729091" y="115.306376" style="fill: #000099; stroke: #000099"/>
     <use xlink:href="#ma91f551ce1" x="541.964545" y="43.387273" style="fill: #000099; stroke: #000099"/>
    </g>
   </g>
   <g id="LineCollection_2">
    <path d="M 77.255455 371.709178 
L 77.255455 371.641522 
" clip-path="url(#pa6ebc073c4)" style="fill: none; stroke: #000099; stroke-width: 1.5"/>
    <path d="M 100.490909 370.982278 
L 100.490909 370.874736 
" clip-path="url(#pa6ebc073c4)" style="fill: none; stroke: #000099; stroke-width: 1.5"/>
    <path d="M 123.726364 370.163151 
L 123.726364 370.066659 
" clip-path="url(#pa6ebc073c4)" style="fill: none; stroke: #000099; stroke-width: 1.5"/>
    <path d="M 146.961818 369.10327 
L 146.961818 368.965453 
" clip-path="url(#pa6ebc073c4)" style="fill: none; stroke: #000099; stroke-width: 1.5"/>
    <path d="M 170.197273 367.664236 
L 170.197273 367.558309 
" clip-path="url(#pa6ebc073c4)" style="fill: none; stroke: #000099; stroke-width: 1.5"/>
    <path d="M 193.432727 365.801237 
L 193.432727 365.679204 
" clip-path="url(#pa6ebc073c4)" style="fill: none; stroke: #000099; stroke-width: 1.5"/>
    <path d="M 216.668182 364.011321 
L 216.668182 363.92491 
" clip-path="url(#pa6ebc073c4)" style="fill: none; stroke: #000099; stroke-width: 1.5"/>
    <path d="M 239.903636 361.534845 
L 239.903636 361.351133 
" clip-path="url(#pa6ebc073c4)" style="fill: none; stroke: #000099; stroke-width: 1.5"/>
    <path d="M 263.139091 358.44368 
L 263.139091 358.283796 
" clip-path="url(#pa6ebc073c4)" style="fill: none; stroke: #000099; stroke-width: 1.5"/>
    <path d="M 286.374545 355.038144 
L 286.374545 354.93023 
" clip-path="url(#pa6ebc073c4)" style="fill: none; stroke: #000099; stroke-width: 1.5"/>
    <path d="M 309.61 351.196703 
L 309.61 350.984074 
" clip-path="url(#pa6ebc073c4)" style="fill: none; stroke: #000099; stroke-width: 1.5"/>
    <path d="M 332.845455 345.437095 
L 332.845455 345.255548 
" clip-path="url(#pa6ebc073c4)" style="fill: none; stroke: #000099; stroke-width: 1.5"/>
    <path d="M 356.080909 339.443485 
L 356.080909 338.99897 
" clip-path="url(#pa6ebc073c4)" style="fill: none; stroke: #000099; stroke-width: 1.5"/>
    <path d="M 379.316364 331.06792 
L 379.316364 330.435235 
" clip-path="url(#pa6ebc073c4)" style="fill: none; stroke: #000099; stroke-width: 1.5"/>
    <path d="M 402.551818 322.856391 
L 402.551818 322.493603 
" clip-path="url(#pa6ebc073c4)" style="fill: none; stroke: #000099; stroke-width: 1.5"/>
    <path d="M 425.787273 308.721088 
L 425.787273 306.672196 
" clip-path="url(#pa6ebc073c4)" style="fill: none; stroke: #000099; stroke-width: 1.5"/>
    <path d="M 449.022727 292.153024 
L 449.022727 282.068625 
" clip-path="url(#pa6ebc073c4)" style="fill: none; stroke: #000099; stroke-width: 1.5"/>
    <path d="M 472.258182 263.654896 
L 472.258182 263.066426 
" clip-path="url(#pa6ebc073c4)" style="fill: none; stroke: #000099; stroke-width: 1.5"/>
    <path d="M 495.493636 230.011363 
L 495.493636 229.655425 
" clip-path="url(#pa6ebc073c4)" style="fill: none; stroke: #000099; stroke-width: 1.5"/>
    <path d="M 518.729091 187.205836 
L 518.729091 186.643166 
" clip-path="url(#pa6ebc073c4)" style="fill: none; stroke: #000099; stroke-width: 1.5"/>
    <path d="M 541.964545 138.312613 
L 541.964545 136.926228 
" clip-path="url(#pa6ebc073c4)" style="fill: none; stroke: #000099; stroke-width: 1.5"/>
   </g>
   <g id="line2d_18">
    <g clip-path="url(#pa6ebc073c4)">
     <use xlink:href="#ma91f551ce1" x="77.255455" y="371.709178" style="fill: #000099; stroke: #000099"/>
     <use xlink:href="#ma91f551ce1" x="100.490909" y="370.982278" style="fill: #000099; stroke: #000099"/>
     <use xlink:href="#ma91f551ce1" x="123.726364" y="370.163151" style="fill: #000099; stroke: #000099"/>
     <use xlink:href="#ma91f551ce1" x="146.961818" y="369.10327" style="fill: #000099; stroke: #000099"/>
     <use xlink:href="#ma91f551ce1" x="170.197273" y="367.664236" style="fill: #000099; stroke: #000099"/>
     <use xlink:href="#ma91f551ce1" x="193.432727" y="365.801237" style="fill: #000099; stroke: #000099"/>
     <use xlink:href="#ma91f551ce1" x="216.668182" y="364.011321" style="fill: #000099; stroke: #000099"/>
     <use xlink:href="#ma91f551ce1" x="239.903636" y="361.534845" style="fill: #000099; stroke: #000099"/>
     <use xlink:href="#ma91f551ce1" x="263.139091" y="358.44368" style="fill: #000099; stroke: #000099"/>
     <use xlink:href="#ma91f551ce1" x="286.374545" y="355.038144" style="fill: #000099; stroke: #000099"/>
     <use xlink:href="#ma91f551ce1" x="309.61" y="351.196703" style="fill: #000099; stroke: #000099"/>
     <use xlink:href="#ma91f551ce1" x="332.845455" y="345.437095" style="fill: #000099; stroke: #000099"/>
     <use xlink:href="#ma91f551ce1" x="356.080909" y="339.443485" style="fill: #000099; stroke: #000099"/>
     <use xlink:href="#ma91f551ce1" x="379.316364" y="331.06792" style="fill: #000099; stroke: #000099"/>
     <use xlink:href="#ma91f551ce1" x="402.551818" y="322.856391" style="fill: #000099; stroke: #000099"/>
     <use xlink:href="#ma91f551ce1" x="425.787273" y="308.721088" style="fill: #000099; stroke: #000099"/>
     <use xlink:href="#ma91f551ce1" x="449.022727" y="292.153024" style="fill: #000099; stroke: #000099"/>
     <use xlink:href="#ma91f551ce1" x="472.258182" y="263.654896" style="fill: #000099; stroke: #000099"/>
     <use xlink:href="#ma91f551ce1" x="495.493636" y="230.011363" style="fill: #000099; stroke: #000099"/>
     <use xlink:href="#ma91f551ce1" x="518.729091" y="187.205836" style="fill: #000099; stroke: #000099"/>
     <use xlink:href="#ma91f551ce1" x="541.964545" y="138.312613" style="fill: #000099; stroke: #000099"/>
    </g>
   </g>
   <g id="line2d_19">
    <g clip-path="url(#pa6ebc073c4)">
     <use xlink:href="#ma91f551ce1" x="77.255455" y="371.641522" style="fill: #000099; stroke: #000099"/>
     <use xlink:href="#ma91f551ce1" x="100.490909" y="370.874736" style="fill: #000099; stroke: #000099"/>
     <use xlink:href="#ma91f551ce1" x="123.726364" y="370.066659" style="fill: #000099; stroke: #000099"/>
     <use xlink:href="#ma91f551ce1" x="146.961818" y="368.965453" style="fill: #000099; stroke: #000099"/>
     <use xlink:href="#ma91f551ce1" x="170.197273" y="367.558309" style="fill: #000099; stroke: #000099"/>
     <use xlink:href="#ma91f551ce1" x="193.432727" y="365.679204" style="fill: #000099; stroke: #000099"/>
     <use xlink:href="#ma91f551ce1" x="216.668182" y="363.92491" style="fill: #000099; stroke: #000099"/>
     <use xlink:href="#ma91f551ce1" x="239.903636" y="361.351133" style="fill: #000099; stroke: #000099"/>
     <use xlink:href="#ma91f551ce1" x="263.139091" y="358.283796" style="fill: #000099; stroke: #000099"/>
     <use xlink:href="#ma91f551ce1" x="286.374545" y="354.93023" style="fill: #000099; stroke: #000099"/>
     <use xlink:href="#ma91f551ce1" x="309.61" y="350.984074" style="fill: #000099; stroke: #000099"/>
     <use xlink:href="#ma91f551ce1" x="332.845455" y="345.255548" style="fill: #000099; stroke: #000099"/>
     <use xlink:href="#ma91f551ce1" x="356.080909" y="338.99897" style="fill: #000099; stroke: #000099"/>
     <use xlink:href="#ma91f551ce1" x="379.316364" y="330.435235" style="fill: #000099; stroke: #000099"/>
     <use xlink:href="#ma91f551ce1" x="402.551818" y="322.493603" style="fill: #000099; stroke: #000099"/>
     <use xlink:href="#ma91f551ce1" x="425.787273" y="306.672196" style="fill: #000099; stroke: #000099"/>
     <use xlink:href="#ma91f551ce1" x="449.022727" y="282.068625" style="fill: #000099; stroke: #000099"/>
     <use xlink:href="#ma91f551ce1" x="472.258182" y="263.066426" style="fill: #000099; stroke: #000099"/>
     <use xlink:href="#ma91f551ce1" x="495.493636" y="229.655425" style="fill: #000099; stroke: #000099"/>
     <use xlink:href="#ma91f551ce1" x="518.729091" y="186.643166" style="fill: #000099; stroke: #000099"/>
     <use xlink:href="#ma91f551ce1" x="541.964545" y="136.926228" style="fill: #000099; stroke: #000099"/>
    </g>
   </g>
   <g id="LineCollection_3">
    <path d="M 77.255455 372.319327 
L 77.255455 372.093516 
" clip-path="url(#pa6ebc073c4)" style="fill: none; stroke: #cc0033; stroke-width: 1.5"/>
    <path d="M 100.490909 371.694768 
L 100.490909 371.55427 
" clip-path="url(#pa6ebc073c4)" style="fill: none; stroke: #cc0033; stroke-width: 1.5"/>
    <path d="M 123.726364 370.941455 
L 123.726364 370.769666 
" clip-path="url(#pa6ebc073c4)" style="fill: none; stroke: #cc0033; stroke-width: 1.5"/>
    <path d="M 146.961818 370.034058 
L 146.961818 369.984803 
" clip-path="url(#pa6ebc073c4)" style="fill: none; stroke: #cc0033; stroke-width: 1.5"/>
    <path d="M 170.197273 368.663069 
L 170.197273 368.601309 
" clip-path="url(#pa6ebc073c4)" style="fill: none; stroke: #cc0033; stroke-width: 1.5"/>
    <path d="M 193.432727 367.013813 
L 193.432727 366.787291 
" clip-path="url(#pa6ebc073c4)" style="fill: none; stroke: #cc0033; stroke-width: 1.5"/>
    <path d="M 216.668182 365.307499 
L 216.668182 365.242154 
" clip-path="url(#pa6ebc073c4)" style="fill: none; stroke: #cc0033; stroke-width: 1.5"/>
    <path d="M 239.903636 363.154457 
L 239.903636 361.852835 
" clip-path="url(#pa6ebc073c4)" style="fill: none; stroke: #cc0033; stroke-width: 1.5"/>
    <path d="M 263.139091 360.09977 
L 263.139091 359.996315 
" clip-path="url(#pa6ebc073c4)" style="fill: none; stroke: #cc0033; stroke-width: 1.5"/>
    <path d="M 286.374545 356.905085 
L 286.374545 356.641035 
" clip-path="url(#pa6ebc073c4)" style="fill: none; stroke: #cc0033; stroke-width: 1.5"/>
    <path d="M 309.61 352.757804 
L 309.61 352.524431 
" clip-path="url(#pa6ebc073c4)" style="fill: none; stroke: #cc0033; stroke-width: 1.5"/>
    <path d="M 332.845455 347.715207 
L 332.845455 347.402756 
" clip-path="url(#pa6ebc073c4)" style="fill: none; stroke: #cc0033; stroke-width: 1.5"/>
    <path d="M 356.080909 341.461263 
L 356.080909 341.032887 
" clip-path="url(#pa6ebc073c4)" style="fill: none; stroke: #cc0033; stroke-width: 1.5"/>
    <path d="M 379.316364 333.774311 
L 379.316364 333.359896 
" clip-path="url(#pa6ebc073c4)" style="fill: none; stroke: #cc0033; stroke-width: 1.5"/>
    <path d="M 402.551818 325.21875 
L 402.551818 324.578892 
" clip-path="url(#pa6ebc073c4)" style="fill: none; stroke: #cc0033; stroke-width: 1.5"/>
    <path d="M 425.787273 311.28711 
L 425.787273 310.286064 
" clip-path="url(#pa6ebc073c4)" style="fill: none; stroke: #cc0033; stroke-width: 1.5"/>
    <path d="M 449.022727 294.476176 
L 449.022727 292.304249 
" clip-path="url(#pa6ebc073c4)" style="fill: none; stroke: #cc0033; stroke-width: 1.5"/>
    <path d="M 472.258182 266.407926 
L 472.258182 263.997506 
" clip-path="url(#pa6ebc073c4)" style="fill: none; stroke: #cc0033; stroke-width: 1.5"/>
    <path d="M 495.493636 231.716918 
L 495.493636 227.172358 
" clip-path="url(#pa6ebc073c4)" style="fill: none; stroke: #cc0033; stroke-width: 1.5"/>
    <path d="M 518.729091 189.286004 
L 518.729091 165.984749 
" clip-path="url(#pa6ebc073c4)" style="fill: none; stroke: #cc0033; stroke-width: 1.5"/>
    <path d="M 541.964545 138.152665 
L 541.964545 109.061931 
" clip-path="url(#pa6ebc073c4)" style="fill: none; stroke: #cc0033; stroke-width: 1.5"/>
   </g>
   <g id="line2d_20">
    <defs>
     <path id="md3fe7ae338" d="M 3 0 
L -3 -0 
" style="stroke: #cc0033"/>
    </defs>
    <g clip-path="url(#pa6ebc073c4)">
     <use xlink:href="#md3fe7ae338" x="77.255455" y="372.319327" style="fill: #cc0033; stroke: #cc0033"/>
     <use xlink:href="#md3fe7ae338" x="100.490909" y="371.694768" style="fill: #cc0033; stroke: #cc0033"/>
     <use xlink:href="#md3fe7ae338" x="123.726364" y="370.941455" style="fill: #cc0033; stroke: #cc0033"/>
     <use xlink:href="#md3fe7ae338" x="146.961818" y="370.034058" style="fill: #cc0033; stroke: #cc0033"/>
     <use xlink:href="#md3fe7ae338" x="170.197273" y="368.663069" style="fill: #cc0033; stroke: #cc0033"/>
     <use xlink:href="#md3fe7ae338" x="193.432727" y="367.013813" style="fill: #cc0033; stroke: #cc0033"/>
     <use xlink:href="#md3fe7ae338" x="216.668182" y="365.307499" style="fill: #cc0033; stroke: #cc0033"/>
     <use xlink:href="#md3fe7ae338" x="239.903636" y="363.154457" style="fill: #cc0033; stroke: #cc0033"/>
     <use xlink:href="#md3fe7ae338" x="263.139091" y="360.09977" style="fill: #cc0033; stroke: #cc0033"/>
     <use xlink:href="#md3fe7ae338" x="286.374545" y="356.905085" style="fill: #cc0033; stroke: #cc0033"/>
     <use xlink:href="#md3fe7ae338" x="309.61" y="352.757804" style="fill: #cc0033; stroke: #cc0033"/>
     <use xlink:href="#md3fe7ae338" x="332.845455" y="347.715207" style="fill: #cc0033; stroke: #cc0033"/>
     <use xlink:href="#md3fe7ae338" x="356.080909" y="341.461263" style="fill: #cc0033; stroke: #cc0033"/>
     <use xlink:href="#md3fe7ae338" x="379.316364" y="333.774311" style="fill: #cc0033; stroke: #cc0033"/>
     <use xlink:href="#md3fe7ae338" x="402.551818" y="325.21875" style="fill: #cc0033; stroke: #cc0033"/>
     <use xlink:href="#md3fe7ae338" x="425.787273" y="311.28711" style="fill: #cc0033; stroke: #cc0033"/>
     <use xlink:href="#md3fe7ae338" x="449.022727" y="294.476176" style="fill: #cc0033; stroke: #cc0033"/>
     <use xlink:href="#md3fe7ae338" x="472.258182" y="266.407926" style="fill: #cc0033; stroke: #cc0033"/>
     <use xlink:href="#md3fe7ae338" x="495.493636" y="231.716918" style="fill: #cc0033; stroke: #cc0033"/>
     <use xlink:href="#md3fe7ae338" x="518.729091" y="189.286004" style="fill: #cc0033; stroke: #cc0033"/>
     <use xlink:href="#md3fe7ae338" x="541.964545" y="138.152665" style="fill: #cc0033; stroke: #cc0033"/>
    </g>
   </g>
   <g id="line2d_21">
    <g clip-path="url(#pa6ebc073c4)">
     <use xlink:href="#md3fe7ae338" x="77.255455" y="372.093516" style="fill: #cc0033; stroke: #cc0033"/>
     <use xlink:href="#md3fe7ae338" x="100.490909" y="371.55427" style="fill: #cc0033; stroke: #cc0033"/>
     <use xlink:href="#md3fe7ae338" x="123.726364" y="370.769666" style="fill: #cc0033; stroke: #cc0033"/>
     <use xlink:href="#md3fe7ae338" x="146.961818" y="369.984803" style="fill: #cc0033; stroke: #cc0033"/>
     <use xlink:href="#md3fe7ae338" x="170.197273" y="368.601309" style="fill: #cc0033; stroke: #cc0033"/>
     <use xlink:href="#md3fe7ae338" x="193.432727" y="366.787291" style="fill: #cc0033; stroke: #cc0033"/>
     <use xlink:href="#md3fe7ae338" x="216.668182" y="365.242154" style="fill: #cc0033; stroke: #cc0033"/>
     <use xlink:href="#md3fe7ae338" x="239.903636" y="361.852835" style="fill: #cc0033; stroke: #cc0033"/>
     <use xlink:href="#md3fe7ae338" x="263.139091" y="359.996315" style="fill: #cc0033; stroke: #cc0033"/>
     <use xlink:href="#md3fe7ae338" x="286.374545" y="356.641035" style="fill: #cc0033; stroke: #cc0033"/>
     <use xlink:href="#md3fe7ae338" x="309.61" y="352.524431" style="fill: #cc0033; stroke: #cc0033"/>
     <use xlink:href="#md3fe7ae338" x="332.845455" y="347.402756" style="fill: #cc0033; stroke: #cc0033"/>
     <use xlink:href="#md3fe7ae338" x="356.080909" y="341.032887" style="fill: #cc0033; stroke: #cc0033"/>
     <use xlink:href="#md3fe7ae338" x="379.316364" y="333.359896" style="fill: #cc0033; stroke: #cc0033"/>
     <use xlink:href="#md3fe7ae338" x="402.551818" y="324.578892" style="fill: #cc0033; stroke: #cc0033"/>
     <use xlink:href="#md3fe7ae338" x="425.787273" y="310.286064" style="fill: #cc0033; stroke: #cc0033"/>
     <use xlink:href="#md3fe7ae338" x="449.022727" y="292.304249" style="fill: #cc0033; stroke: #cc0033"/>
     <use xlink:href="#md3fe7ae338" x="472.258182" y="263.997506" style="fill: #cc0033; stroke: #cc0033"/>
     <use xlink:href="#md3fe7ae338" x="495.493636" y="227.172358" style="fill: #cc0033; stroke: #cc0033"/>
     <use xlink:href="#md3fe7ae338" x="518.729091" y="165.984749" style="fill: #cc0033; stroke: #cc0033"/>
     <use xlink:href="#md3fe7ae338" x="541.964545" y="109.061931" style="fill: #cc0033; stroke: #cc0033"/>
    </g>
   </g>
   <g id="LineCollection_4">
    <path d="M 77.255455 373.532727 
L 77.255455 373.400727 
" clip-path="url(#pa6ebc073c4)" style="fill: none; stroke: #cc0033; stroke-width: 1.5"/>
    <path d="M 100.490909 373.12196 
L 100.490909 373.055677 
" clip-path="url(#pa6ebc073c4)" style="fill: none; stroke: #cc0033; stroke-width: 1.5"/>
    <path d="M 123.726364 372.62546 
L 123.726364 372.592084 
" clip-path="url(#pa6ebc073c4)" style="fill: none; stroke: #cc0033; stroke-width: 1.5"/>
    <path d="M 146.961818 372.051368 
L 146.961818 371.98271 
" clip-path="url(#pa6ebc073c4)" style="fill: none; stroke: #cc0033; stroke-width: 1.5"/>
    <path d="M 170.197273 371.173486 
L 170.197273 371.110612 
" clip-path="url(#pa6ebc073c4)" style="fill: none; stroke: #cc0033; stroke-width: 1.5"/>
    <path d="M 193.432727 370.049567 
L 193.432727 369.900039 
" clip-path="url(#pa6ebc073c4)" style="fill: none; stroke: #cc0033; stroke-width: 1.5"/>
    <path d="M 216.668182 368.983789 
L 216.668182 368.929137 
" clip-path="url(#pa6ebc073c4)" style="fill: none; stroke: #cc0033; stroke-width: 1.5"/>
    <path d="M 239.903636 367.594221 
L 239.903636 366.886045 
" clip-path="url(#pa6ebc073c4)" style="fill: none; stroke: #cc0033; stroke-width: 1.5"/>
    <path d="M 263.139091 365.619027 
L 263.139091 365.582663 
" clip-path="url(#pa6ebc073c4)" style="fill: none; stroke: #cc0033; stroke-width: 1.5"/>
    <path d="M 286.374545 363.600296 
L 286.374545 363.538779 
" clip-path="url(#pa6ebc073c4)" style="fill: none; stroke: #cc0033; stroke-width: 1.5"/>
    <path d="M 309.61 360.876377 
L 309.61 360.627626 
" clip-path="url(#pa6ebc073c4)" style="fill: none; stroke: #cc0033; stroke-width: 1.5"/>
    <path d="M 332.845455 357.725245 
L 332.845455 357.487641 
" clip-path="url(#pa6ebc073c4)" style="fill: none; stroke: #cc0033; stroke-width: 1.5"/>
    <path d="M 356.080909 353.822676 
L 356.080909 353.543812 
" clip-path="url(#pa6ebc073c4)" style="fill: none; stroke: #cc0033; stroke-width: 1.5"/>
    <path d="M 379.316364 348.724702 
L 379.316364 348.581684 
" clip-path="url(#pa6ebc073c4)" style="fill: none; stroke: #cc0033; stroke-width: 1.5"/>
    <path d="M 402.551818 343.410789 
L 402.551818 343.128111 
" clip-path="url(#pa6ebc073c4)" style="fill: none; stroke: #cc0033; stroke-width: 1.5"/>
    <path d="M 425.787273 334.7256 
L 425.787273 334.508835 
" clip-path="url(#pa6ebc073c4)" style="fill: none; stroke: #cc0033; stroke-width: 1.5"/>
    <path d="M 449.022727 324.448168 
L 449.022727 323.877562 
" clip-path="url(#pa6ebc073c4)" style="fill: none; stroke: #cc0033; stroke-width: 1.5"/>
    <path d="M 472.258182 307.04794 
L 472.258182 306.330778 
" clip-path="url(#pa6ebc073c4)" style="fill: none; stroke: #cc0033; stroke-width: 1.5"/>
    <path d="M 495.493636 285.814429 
L 495.493636 284.170968 
" clip-path="url(#pa6ebc073c4)" style="fill: none; stroke: #cc0033; stroke-width: 1.5"/>
    <path d="M 518.729091 259.827704 
L 518.729091 256.407478 
" clip-path="url(#pa6ebc073c4)" style="fill: none; stroke: #cc0033; stroke-width: 1.5"/>
    <path d="M 541.964545 228.662699 
L 541.964545 223.905332 
" clip-path="url(#pa6ebc073c4)" style="fill: none; stroke: #cc0033; stroke-width: 1.5"/>
   </g>
   <g id="line2d_22">
    <g clip-path="url(#pa6ebc073c4)">
     <use xlink:href="#md3fe7ae338" x="77.255455" y="373.532727" style="fill: #cc0033; stroke: #cc0033"/>
     <use xlink:href="#md3fe7ae338" x="100.490909" y="373.12196" style="fill: #cc0033; stroke: #cc0033"/>
     <use xlink:href="#md3fe7ae338" x="123.726364" y="372.62546" style="fill: #cc0033; stroke: #cc0033"/>
     <use xlink:href="#md3fe7ae338" x="146.961818" y="372.051368" style="fill: #cc0033; stroke: #cc0033"/>
     <use xlink:href="#md3fe7ae338" x="170.197273" y="371.173486" style="fill: #cc0033; stroke: #cc0033"/>
     <use xlink:href="#md3fe7ae338" x="193.432727" y="370.049567" style="fill: #cc0033; stroke: #cc0033"/>
     <use xlink:href="#md3fe7ae338" x="216.668182" y="368.983789" style="fill: #cc0033; stroke: #cc0033"/>
     <use xlink:href="#md3fe7ae338" x="239.903636" y="367.594221" style="fill: #cc0033; stroke: #cc0033"/>
     <use xlink:href="#md3fe7ae338" x="263.139091" y="365.619027" style="fill: #cc0033; stroke: #cc0033"/>
     <use xlink:href="#md3fe7ae338" x="286.374545" y="363.600296" style="fill: #cc0033; stroke: #cc0033"/>
     <use xlink:href="#md3fe7ae338" x="309.61" y="360.876377" style="fill: #cc0033; stroke: #cc0033"/>
     <use xlink:href="#md3fe7ae338" x="332.845455" y="357.725245" style="fill: #cc0033; stroke: #cc0033"/>
     <use xlink:href="#md3fe7ae338" x="356.080909" y="353.822676" style="fill: #cc0033; stroke: #cc0033"/>
     <use xlink:href="#md3fe7ae338" x="379.316364" y="348.724702" style="fill: #cc0033; stroke: #cc0033"/>
     <use xlink:href="#md3fe7ae338" x="402.551818" y="343.410789" style="fill: #cc0033; stroke: #cc0033"/>
     <use xlink:href="#md3fe7ae338" x="425.787273" y="334.7256" style="fill: #cc0033; stroke: #cc0033"/>
     <use xlink:href="#md3fe7ae338" x="449.022727" y="324.448168" style="fill: #cc0033; stroke: #cc0033"/>
     <use xlink:href="#md3fe7ae338" x="472.258182" y="307.04794" style="fill: #cc0033; stroke: #cc0033"/>
     <use xlink:href="#md3fe7ae338" x="495.493636" y="285.814429" style="fill: #cc0033; stroke: #cc0033"/>
     <use xlink:href="#md3fe7ae338" x="518.729091" y="259.827704" style="fill: #cc0033; stroke: #cc0033"/>
     <use xlink:href="#md3fe7ae338" x="541.964545" y="228.662699" style="fill: #cc0033; stroke: #cc0033"/>
    </g>
   </g>
   <g id="line2d_23">
    <g clip-path="url(#pa6ebc073c4)">
     <use xlink:href="#md3fe7ae338" x="77.255455" y="373.400727" style="fill: #cc0033; stroke: #cc0033"/>
     <use xlink:href="#md3fe7ae338" x="100.490909" y="373.055677" style="fill: #cc0033; stroke: #cc0033"/>
     <use xlink:href="#md3fe7ae338" x="123.726364" y="372.592084" style="fill: #cc0033; stroke: #cc0033"/>
     <use xlink:href="#md3fe7ae338" x="146.961818" y="371.98271" style="fill: #cc0033; stroke: #cc0033"/>
     <use xlink:href="#md3fe7ae338" x="170.197273" y="371.110612" style="fill: #cc0033; stroke: #cc0033"/>
     <use xlink:href="#md3fe7ae338" x="193.432727" y="369.900039" style="fill: #cc0033; stroke: #cc0033"/>
     <use xlink:href="#md3fe7ae338" x="216.668182" y="368.929137" style="fill: #cc0033; stroke: #cc0033"/>
     <use xlink:href="#md3fe7ae338" x="239.903636" y="366.886045" style="fill: #cc0033; stroke: #cc0033"/>
     <use xlink:href="#md3fe7ae338" x="263.139091" y="365.582663" style="fill: #cc0033; stroke: #cc0033"/>
     <use xlink:href="#md3fe7ae338" x="286.374545" y="363.538779" style="fill: #cc0033; stroke: #cc0033"/>
     <use xlink:href="#md3fe7ae338" x="309.61" y="360.627626" style="fill: #cc0033; stroke: #cc0033"/>
     <use xlink:href="#md3fe7ae338" x="332.845455" y="357.487641" style="fill: #cc0033; stroke: #cc0033"/>
     <use xlink:href="#md3fe7ae338" x="356.080909" y="353.543812" style="fill: #cc0033; stroke: #cc0033"/>
     <use xlink:href="#md3fe7ae338" x="379.316364" y="348.581684" style="fill: #cc0033; stroke: #cc0033"/>
     <use xlink:href="#md3fe7ae338" x="402.551818" y="343.128111" style="fill: #cc0033; stroke: #cc0033"/>
     <use xlink:href="#md3fe7ae338" x="425.787273" y="334.508835" style="fill: #cc0033; stroke: #cc0033"/>
     <use xlink:href="#md3fe7ae338" x="449.022727" y="323.877562" style="fill: #cc0033; stroke: #cc0033"/>
     <use xlink:href="#md3fe7ae338" x="472.258182" y="306.330778" style="fill: #cc0033; stroke: #cc0033"/>
     <use xlink:href="#md3fe7ae338" x="495.493636" y="284.170968" style="fill: #cc0033; stroke: #cc0033"/>
     <use xlink:href="#md3fe7ae338" x="518.729091" y="256.407478" style="fill: #cc0033; stroke: #cc0033"/>
     <use xlink:href="#md3fe7ae338" x="541.964545" y="223.905332" style="fill: #cc0033; stroke: #cc0033"/>
    </g>
   </g>
   <g id="line2d_24">
    <path d="M 77.255455 370.245221 
L 100.490909 369.278284 
L 123.726364 368.182222 
L 146.961818 366.790929 
L 170.197273 364.788866 
L 193.432727 362.25812 
L 216.668182 359.798444 
L 239.903636 356.551383 
L 263.139091 352.2927 
L 286.374545 347.744974 
L 309.61 342.379532 
L 332.845455 334.818138 
L 356.080909 326.285943 
L 379.316364 314.689103 
L 402.551818 302.734777 
L 425.787273 282.90644 
L 449.022727 259.081774 
L 472.258182 221.104013 
L 495.493636 173.442907 
L 518.729091 115.456247 
L 541.964545 44.770379 
" clip-path="url(#pa6ebc073c4)" style="fill: none; stroke-dasharray: 1.5,2.475; stroke-dashoffset: 0; stroke: #000099; stroke-width: 1.5"/>
   </g>
   <g id="line2d_25">
    <path d="M 77.255455 371.674348 
L 100.490909 370.952641 
L 123.726364 370.129604 
L 146.961818 369.06551 
L 170.197273 367.624456 
L 193.432727 365.755247 
L 216.668182 363.974253 
L 239.903636 361.456908 
L 263.139091 358.394421 
L 286.374545 354.986833 
L 309.61 351.124362 
L 332.845455 345.381913 
L 356.080909 339.311523 
L 379.316364 330.79557 
L 402.551818 322.716594 
L 425.787273 308.199047 
L 449.022727 287.40766 
L 472.258182 263.38454 
L 495.493636 229.880067 
L 518.729091 186.930478 
L 541.964545 137.397553 
" clip-path="url(#pa6ebc073c4)" style="fill: none; stroke: #000099; stroke-width: 1.5; stroke-linecap: square"/>
   </g>
   <g id="line2d_26">
    <path d="M 77.255455 372.257393 
L 100.490909 371.647467 
L 123.726364 370.885214 
L 146.961818 370.007209 
L 170.197273 368.62704 
L 193.432727 366.917579 
L 216.668182 365.283638 
L 239.903636 362.621062 
L 263.139091 360.048927 
L 286.374545 356.816114 
L 309.61 352.602252 
L 332.845455 347.591474 
L 356.080909 341.202432 
L 379.316364 333.514034 
L 402.551818 324.908876 
L 425.787273 310.788973 
L 449.022727 293.85673 
L 472.258182 265.474981 
L 495.493636 230.218233 
L 518.729091 182.992686 
L 541.964545 129.918473 
" clip-path="url(#pa6ebc073c4)" style="fill: none; stroke-dasharray: 1.5,2.475; stroke-dashoffset: 0; stroke: #cc0033; stroke-width: 1.5"/>
   </g>
   <g id="line2d_27">
    <path d="M 77.255455 373.492764 
L 100.490909 373.096513 
L 123.726364 372.60769 
L 146.961818 372.020244 
L 170.197273 371.144029 
L 193.432727 370.000156 
L 216.668182 368.954416 
L 239.903636 367.294314 
L 263.139091 365.598162 
L 286.374545 363.558914 
L 309.61 360.766793 
L 332.845455 357.620999 
L 356.080909 353.675796 
L 379.316364 348.63252 
L 402.551818 343.267876 
L 425.787273 334.595887 
L 449.022727 324.144583 
L 472.258182 306.755161 
L 495.493636 284.856787 
L 518.729091 258.827161 
L 541.964545 227.439411 
" clip-path="url(#pa6ebc073c4)" style="fill: none; stroke: #cc0033; stroke-width: 1.5; stroke-linecap: square"/>
   </g>
   <g id="patch_3">
    <path d="M 54.02 390.04 
L 54.02 26.88 
" style="fill: none; stroke: #000000; stroke-width: 0.8; stroke-linejoin: miter; stroke-linecap: square"/>
   </g>
   <g id="patch_4">
    <path d="M 565.2 390.04 
L 565.2 26.88 
" style="fill: none; stroke: #000000; stroke-width: 0.8; stroke-linejoin: miter; stroke-linecap: square"/>
   </g>
   <g id="patch_5">
    <path d="M 54.02 390.04 
L 565.2 390.04 
" style="fill: none; stroke: #000000; stroke-width: 0.8; stroke-linejoin: miter; stroke-linecap: square"/>
   </g>
   <g id="patch_6">
    <path d="M 54.02 26.88 
L 565.2 26.88 
" style="fill: none; stroke: #000000; stroke-width: 0.8; stroke-linejoin: miter; stroke-linecap: square"/>
   </g>
   <g id="text_18">
    <!-- Bron-Kerbosch on a random graph of order 100 -->
    <g transform="translate(54.02 20.88)scale(0.12 -0.12)">
     <defs>
      <path id="DejaVuSans-42" d="M 1259 2228 
L 1259 519 
L 2272 519 
Q 2781 519 3026 730 
Q 3272 941 3272 1375 
Q 3272 1813 3026 2020 
Q 2781 2228 2272 2228 
L 1259 2228 
z
M 1259 4147 
L 1259 2741 
L 2194 2741 
Q 2656 2741 2882 2914 
Q 3109 3088 3109 3444 
Q 3109 3797 2882 3972 
Q 2656 4147 2194 4147 
L 1259 4147 
z
M 628 4666 
L 2241 4666 
Q 2963 4666 3353 4366 
Q 3744 4066 3744 3513 
Q 3744 3084 3544 2831 
Q 3344 2578 2956 2516 
Q 3422 2416 3680 2098 
Q 3938 1781 3938 1306 
Q 3938 681 3513 340 
Q 3088 0 2303 0 
L 628 0 
L 628 4666 
z
" transform="scale(0.015625)"/>
      <path id="DejaVuSans-72" d="M 2631 2963 
Q 2534 3019 2420 3045 
Q 2306 3072 2169 3072 
Q 1681 3072 1420 2755 
Q 1159 2438 1159 1844 
L 1159 0 
L 581 0 
L 581 3500 
L 1159 3500 
L 1159 2956 
Q 1341 3275 1631 3429 
Q 1922 3584 2338 3584 
Q 2397 3584 2469 3576 
Q 2541 3569 2628 3553 
L 2631 2963 
z
" transform="scale(0.015625)"/>
      <path id="DejaVuSans-2d" d="M 313 2009 
L 1997 2009 
L 1997 1497 
L 313 1497 
L 313 2009 
z
" transform="scale(0.015625)"/>
      <path id="DejaVuSans-4b" d="M 628 4666 
L 1259 4666 
L 1259 2694 
L 3353 4666 
L 4166 4666 
L 1850 2491 
L 4331 0 
L 3500 0 
L 1259 2247 
L 1259 0 
L 628 0 
L 628 4666 
z
" transform="scale(0.015625)"/>
      <path id="DejaVuSans-62" d="M 3116 1747 
Q 3116 2381 2855 2742 
Q 2594 3103 2138 3103 
Q 1681 3103 1420 2742 
Q 1159 2381 1159 1747 
Q 1159 1113 1420 752 
Q 1681 391 2138 391 
Q 2594 391 2855 752 
Q 3116 1113 3116 1747 
z
M 1159 2969 
Q 1341 3281 1617 3432 
Q 1894 3584 2278 3584 
Q 2916 3584 3314 3078 
Q 3713 2572 3713 1747 
Q 3713 922 3314 415 
Q 2916 -91 2278 -91 
Q 1894 -91 1617 61 
Q 1341 213 1159 525 
L 1159 0 
L 581 0 
L 581 4863 
L 1159 4863 
L 1159 2969 
z
" transform="scale(0.015625)"/>
      <path id="DejaVuSans-68" d="M 3513 2113 
L 3513 0 
L 2938 0 
L 2938 2094 
Q 2938 2591 2744 2837 
Q 2550 3084 2163 3084 
Q 1697 3084 1428 2787 
Q 1159 2491 1159 1978 
L 1159 0 
L 581 0 
L 581 4863 
L 1159 4863 
L 1159 2956 
Q 1366 3272 1645 3428 
Q 1925 3584 2291 3584 
Q 2894 3584 3203 3211 
Q 3513 2838 3513 2113 
z
" transform="scale(0.015625)"/>
      <path id="DejaVuSans-61" d="M 2194 1759 
Q 1497 1759 1228 1600 
Q 959 1441 959 1056 
Q 959 750 1161 570 
Q 1363 391 1709 391 
Q 2188 391 2477 730 
Q 2766 1069 2766 1631 
L 2766 1759 
L 2194 1759 
z
M 3341 1997 
L 3341 0 
L 2766 0 
L 2766 531 
Q 2569 213 2275 61 
Q 1981 -91 1556 -91 
Q 1019 -91 701 211 
Q 384 513 384 1019 
Q 384 1609 779 1909 
Q 1175 2209 1959 2209 
L 2766 2209 
L 2766 2266 
Q 2766 2663 2505 2880 
Q 2244 3097 1772 3097 
Q 1472 3097 1187 3025 
Q 903 2953 641 2809 
L 641 3341 
Q 956 3463 1253 3523 
Q 1550 3584 1831 3584 
Q 2591 3584 2966 3190 
Q 3341 2797 3341 1997 
z
" transform="scale(0.015625)"/>
      <path id="DejaVuSans-6d" d="M 3328 2828 
Q 3544 3216 3844 3400 
Q 4144 3584 4550 3584 
Q 5097 3584 5394 3201 
Q 5691 2819 5691 2113 
L 5691 0 
L 5113 0 
L 5113 2094 
Q 5113 2597 4934 2840 
Q 4756 3084 4391 3084 
Q 3944 3084 3684 2787 
Q 3425 2491 3425 1978 
L 3425 0 
L 2847 0 
L 2847 2094 
Q 2847 2600 2669 2842 
Q 2491 3084 2119 3084 
Q 1678 3084 1418 2786 
Q 1159 2488 1159 1978 
L 1159 0 
L 581 0 
L 581 3500 
L 1159 3500 
L 1159 2956 
Q 1356 3278 1631 3431 
Q 1906 3584 2284 3584 
Q 2666 3584 2933 3390 
Q 3200 3197 3328 2828 
z
" transform="scale(0.015625)"/>
      <path id="DejaVuSans-66" d="M 2375 4863 
L 2375 4384 
L 1825 4384 
Q 1516 4384 1395 4259 
Q 1275 4134 1275 3809 
L 1275 3500 
L 2222 3500 
L 2222 3053 
L 1275 3053 
L 1275 0 
L 697 0 
L 697 3053 
L 147 3053 
L 147 3500 
L 697 3500 
L 697 3744 
Q 697 4328 969 4595 
Q 1241 4863 1831 4863 
L 2375 4863 
z
" transform="scale(0.015625)"/>
     </defs>
     <use xlink:href="#DejaVuSans-42"/>
     <use xlink:href="#DejaVuSans-72" x="68.603516"/>
     <use xlink:href="#DejaVuSans-6f" x="107.466797"/>
     <use xlink:href="#DejaVuSans-6e" x="168.648438"/>
     <use xlink:href="#DejaVuSans-2d" x="232.027344"/>
     <use xlink:href="#DejaVuSans-4b" x="268.111328"/>
     <use xlink:href="#DejaVuSans-65" x="328.6875"/>
     <use xlink:href="#DejaVuSans-72" x="390.210938"/>
     <use xlink:href="#DejaVuSans-62" x="431.324219"/>
     <use xlink:href="#DejaVuSans-6f" x="494.800781"/>
     <use xlink:href="#DejaVuSans-73" x="555.982422"/>
     <use xlink:href="#DejaVuSans-63" x="608.082031"/>
     <use xlink:href="#DejaVuSans-68" x="663.0625"/>
     <use xlink:href="#DejaVuSans-20" x="726.441406"/>
     <use xlink:href="#DejaVuSans-6f" x="758.228516"/>
     <use xlink:href="#DejaVuSans-6e" x="819.410156"/>
     <use xlink:href="#DejaVuSans-20" x="882.789062"/>
     <use xlink:href="#DejaVuSans-61" x="914.576172"/>
     <use xlink:href="#DejaVuSans-20" x="975.855469"/>
     <use xlink:href="#DejaVuSans-72" x="1007.642578"/>
     <use xlink:href="#DejaVuSans-61" x="1048.755859"/>
     <use xlink:href="#DejaVuSans-6e" x="1110.035156"/>
     <use xlink:href="#DejaVuSans-64" x="1173.414062"/>
     <use xlink:href="#DejaVuSans-6f" x="1236.890625"/>
     <use xlink:href="#DejaVuSans-6d" x="1298.072266"/>
     <use xlink:href="#DejaVuSans-20" x="1395.484375"/>
     <use xlink:href="#DejaVuSans-67" x="1427.271484"/>
     <use xlink:href="#DejaVuSans-72" x="1490.748047"/>
     <use xlink:href="#DejaVuSans-61" x="1531.861328"/>
     <use xlink:href="#DejaVuSans-70" x="1593.140625"/>
     <use xlink:href="#DejaVuSans-68" x="1656.617188"/>
     <use xlink:href="#DejaVuSans-20" x="1719.996094"/>
     <use xlink:href="#DejaVuSans-6f" x="1751.783203"/>
     <use xlink:href="#DejaVuSans-66" x="1812.964844"/>
     <use xlink:href="#DejaVuSans-20" x="1848.169922"/>
     <use xlink:href="#DejaVuSans-6f" x="1879.957031"/>
     <use xlink:href="#DejaVuSans-72" x="1941.138672"/>
     <use xlink:href="#DejaVuSans-64" x="1980.501953"/>
     <use xlink:href="#DejaVuSans-65" x="2043.978516"/>
     <use xlink:href="#DejaVuSans-72" x="2105.501953"/>
     <use xlink:href="#DejaVuSans-20" x="2146.615234"/>
     <use xlink:href="#DejaVuSans-31" x="2178.402344"/>
     <use xlink:href="#DejaVuSans-30" x="2242.025391"/>
     <use xlink:href="#DejaVuSans-30" x="2305.648438"/>
    </g>
   </g>
   <g id="legend_1">
    <g id="patch_7">
     <path d="M 61.02 93.5925 
L 185.743437 93.5925 
Q 187.743437 93.5925 187.743437 91.5925 
L 187.743437 33.88 
Q 187.743437 31.88 185.743437 31.88 
L 61.02 31.88 
Q 59.02 31.88 59.02 33.88 
L 59.02 91.5925 
Q 59.02 93.5925 61.02 93.5925 
z
" style="fill: #ffffff; opacity: 0.8; stroke: #cccccc; stroke-linejoin: miter"/>
    </g>
    <g id="LineCollection_5">
     <path d="M 73.02 44.978437 
L 73.02 34.978437 
" style="fill: none; stroke: #000099; stroke-width: 1.5"/>
    </g>
    <g id="line2d_28">
     <g>
      <use xlink:href="#ma91f551ce1" x="73.02" y="44.978437" style="fill: #000099; stroke: #000099"/>
     </g>
    </g>
    <g id="line2d_29">
     <g>
      <use xlink:href="#ma91f551ce1" x="73.02" y="34.978437" style="fill: #000099; stroke: #000099"/>
     </g>
    </g>
    <g id="line2d_30">
     <path d="M 63.02 39.978437 
L 83.02 39.978437 
" style="fill: none; stroke-dasharray: 1.5,2.475; stroke-dashoffset: 0; stroke: #000099; stroke-width: 1.5"/>
    </g>
    <g id="line2d_31"/>
    <g id="text_19">
     <!-- Python3 Ver1 -->
     <g transform="translate(91.02 43.478437)scale(0.1 -0.1)">
      <defs>
       <path id="DejaVuSans-50" d="M 1259 4147 
L 1259 2394 
L 2053 2394 
Q 2494 2394 2734 2622 
Q 2975 2850 2975 3272 
Q 2975 3691 2734 3919 
Q 2494 4147 2053 4147 
L 1259 4147 
z
M 628 4666 
L 2053 4666 
Q 2838 4666 3239 4311 
Q 3641 3956 3641 3272 
Q 3641 2581 3239 2228 
Q 2838 1875 2053 1875 
L 1259 1875 
L 1259 0 
L 628 0 
L 628 4666 
z
" transform="scale(0.015625)"/>
       <path id="DejaVuSans-79" d="M 2059 -325 
Q 1816 -950 1584 -1140 
Q 1353 -1331 966 -1331 
L 506 -1331 
L 506 -850 
L 844 -850 
Q 1081 -850 1212 -737 
Q 1344 -625 1503 -206 
L 1606 56 
L 191 3500 
L 800 3500 
L 1894 763 
L 2988 3500 
L 3597 3500 
L 2059 -325 
z
" transform="scale(0.015625)"/>
       <path id="DejaVuSans-56" d="M 1831 0 
L 50 4666 
L 709 4666 
L 2188 738 
L 3669 4666 
L 4325 4666 
L 2547 0 
L 1831 0 
z
" transform="scale(0.015625)"/>
      </defs>
      <use xlink:href="#DejaVuSans-50"/>
      <use xlink:href="#DejaVuSans-79" x="60.302734"/>
      <use xlink:href="#DejaVuSans-74" x="119.482422"/>
      <use xlink:href="#DejaVuSans-68" x="158.691406"/>
      <use xlink:href="#DejaVuSans-6f" x="222.070312"/>
      <use xlink:href="#DejaVuSans-6e" x="283.251953"/>
      <use xlink:href="#DejaVuSans-33" x="346.630859"/>
      <use xlink:href="#DejaVuSans-20" x="410.253906"/>
      <use xlink:href="#DejaVuSans-56" x="442.041016"/>
      <use xlink:href="#DejaVuSans-65" x="502.699219"/>
      <use xlink:href="#DejaVuSans-72" x="564.222656"/>
      <use xlink:href="#DejaVuSans-31" x="605.335938"/>
     </g>
    </g>
    <g id="LineCollection_6">
     <path d="M 73.02 59.656563 
L 73.02 49.656563 
" style="fill: none; stroke: #000099; stroke-width: 1.5"/>
    </g>
    <g id="line2d_32">
     <g>
      <use xlink:href="#ma91f551ce1" x="73.02" y="59.656563" style="fill: #000099; stroke: #000099"/>
     </g>
    </g>
    <g id="line2d_33">
     <g>
      <use xlink:href="#ma91f551ce1" x="73.02" y="49.656563" style="fill: #000099; stroke: #000099"/>
     </g>
    </g>
    <g id="line2d_34">
     <path d="M 63.02 54.656563 
L 83.02 54.656563 
" style="fill: none; stroke: #000099; stroke-width: 1.5; stroke-linecap: square"/>
    </g>
    <g id="line2d_35"/>
    <g id="text_20">
     <!-- Python3 Ver1 -->
     <g transform="translate(91.02 58.156563)scale(0.1 -0.1)">
      <defs>
       <path id="DejaVuSans-bd" d="M 488 2431 
L 1125 2431 
L 1125 4341 
L 428 4213 
L 428 4575 
L 1147 4697 
L 1575 4697 
L 1575 2431 
L 2216 2431 
L 2216 2088 
L 488 2088 
L 488 2431 
z
M 4470 332 
L 5795 332 
L 5795 -24 
L 3926 -24 
L 3926 319 
Q 4032 416 4229 591 
Q 5304 1544 5304 1838 
Q 5304 2044 5141 2170 
Q 4979 2297 4713 2297 
Q 4551 2297 4360 2242 
Q 4170 2188 3945 2079 
L 3945 2463 
Q 4185 2551 4393 2594 
Q 4601 2638 4779 2638 
Q 5232 2638 5504 2432 
Q 5776 2226 5776 1888 
Q 5776 1454 4741 566 
Q 4566 416 4470 332 
z
M 4309 4750 
L 4809 4750 
L 1896 -91 
L 1396 -91 
L 4309 4750 
z
" transform="scale(0.015625)"/>
      </defs>
      <use xlink:href="#DejaVuSans-50"/>
      <use xlink:href="#DejaVuSans-79" x="60.302734"/>
      <use xlink:href="#DejaVuSans-74" x="119.482422"/>
      <use xlink:href="#DejaVuSans-68" x="158.691406"/>
      <use xlink:href="#DejaVuSans-6f" x="222.070312"/>
      <use xlink:href="#DejaVuSans-6e" x="283.251953"/>
      <use xlink:href="#DejaVuSans-33" x="346.630859"/>
      <use xlink:href="#DejaVuSans-20" x="410.253906"/>
      <use xlink:href="#DejaVuSans-56" x="442.041016"/>
      <use xlink:href="#DejaVuSans-65" x="502.699219"/>
      <use xlink:href="#DejaVuSans-72" x="564.222656"/>
      <use xlink:href="#DejaVuSans-31" x="605.335938"/>
      <use xlink:href="#DejaVuSans-bd" x="668.958984"/>
     </g>
    </g>
    <g id="LineCollection_7">
     <path d="M 73.02 74.334687 
L 73.02 64.334687 
" style="fill: none; stroke: #cc0033; stroke-width: 1.5"/>
    </g>
    <g id="line2d_36">
     <g>
      <use xlink:href="#md3fe7ae338" x="73.02" y="74.334687" style="fill: #cc0033; stroke: #cc0033"/>
     </g>
    </g>
    <g id="line2d_37">
     <g>
      <use xlink:href="#md3fe7ae338" x="73.02" y="64.334687" style="fill: #cc0033; stroke: #cc0033"/>
     </g>
    </g>
    <g id="line2d_38">
     <path d="M 63.02 69.334687 
L 83.02 69.334687 
" style="fill: none; stroke-dasharray: 1.5,2.475; stroke-dashoffset: 0; stroke: #cc0033; stroke-width: 1.5"/>
    </g>
    <g id="line2d_39"/>
    <g id="text_21">
     <!-- Rust@Hash Ver1 -->
     <g transform="translate(91.02 72.834687)scale(0.1 -0.1)">
      <defs>
       <path id="DejaVuSans-52" d="M 2841 2188 
Q 3044 2119 3236 1894 
Q 3428 1669 3622 1275 
L 4263 0 
L 3584 0 
L 2988 1197 
Q 2756 1666 2539 1819 
Q 2322 1972 1947 1972 
L 1259 1972 
L 1259 0 
L 628 0 
L 628 4666 
L 2053 4666 
Q 2853 4666 3247 4331 
Q 3641 3997 3641 3322 
Q 3641 2881 3436 2590 
Q 3231 2300 2841 2188 
z
M 1259 4147 
L 1259 2491 
L 2053 2491 
Q 2509 2491 2742 2702 
Q 2975 2913 2975 3322 
Q 2975 3731 2742 3939 
Q 2509 4147 2053 4147 
L 1259 4147 
z
" transform="scale(0.015625)"/>
       <path id="DejaVuSans-75" d="M 544 1381 
L 544 3500 
L 1119 3500 
L 1119 1403 
Q 1119 906 1312 657 
Q 1506 409 1894 409 
Q 2359 409 2629 706 
Q 2900 1003 2900 1516 
L 2900 3500 
L 3475 3500 
L 3475 0 
L 2900 0 
L 2900 538 
Q 2691 219 2414 64 
Q 2138 -91 1772 -91 
Q 1169 -91 856 284 
Q 544 659 544 1381 
z
M 1991 3584 
L 1991 3584 
z
" transform="scale(0.015625)"/>
       <path id="DejaVuSans-40" d="M 2381 1678 
Q 2381 1231 2603 976 
Q 2825 722 3213 722 
Q 3597 722 3817 978 
Q 4038 1234 4038 1678 
Q 4038 2116 3813 2373 
Q 3588 2631 3206 2631 
Q 2828 2631 2604 2375 
Q 2381 2119 2381 1678 
z
M 4084 744 
Q 3897 503 3655 389 
Q 3413 275 3091 275 
Q 2553 275 2217 664 
Q 1881 1053 1881 1678 
Q 1881 2303 2218 2693 
Q 2556 3084 3091 3084 
Q 3413 3084 3656 2967 
Q 3900 2850 4084 2613 
L 4084 3022 
L 4531 3022 
L 4531 722 
Q 4988 791 5245 1139 
Q 5503 1488 5503 2041 
Q 5503 2375 5404 2669 
Q 5306 2963 5106 3213 
Q 4781 3622 4314 3839 
Q 3847 4056 3297 4056 
Q 2913 4056 2559 3954 
Q 2206 3853 1906 3653 
Q 1416 3334 1139 2817 
Q 863 2300 863 1697 
Q 863 1200 1042 765 
Q 1222 331 1563 0 
Q 1891 -325 2322 -495 
Q 2753 -666 3244 -666 
Q 3647 -666 4036 -530 
Q 4425 -394 4750 -141 
L 5031 -488 
Q 4641 -791 4180 -952 
Q 3719 -1113 3244 -1113 
Q 2666 -1113 2153 -908 
Q 1641 -703 1241 -313 
Q 841 78 631 592 
Q 422 1106 422 1697 
Q 422 2266 634 2781 
Q 847 3297 1241 3688 
Q 1644 4084 2172 4295 
Q 2700 4506 3291 4506 
Q 3953 4506 4520 4234 
Q 5088 3963 5472 3463 
Q 5706 3156 5829 2797 
Q 5953 2438 5953 2053 
Q 5953 1231 5456 756 
Q 4959 281 4084 263 
L 4084 744 
z
" transform="scale(0.015625)"/>
       <path id="DejaVuSans-48" d="M 628 4666 
L 1259 4666 
L 1259 2753 
L 3553 2753 
L 3553 4666 
L 4184 4666 
L 4184 0 
L 3553 0 
L 3553 2222 
L 1259 2222 
L 1259 0 
L 628 0 
L 628 4666 
z
" transform="scale(0.015625)"/>
      </defs>
      <use xlink:href="#DejaVuSans-52"/>
      <use xlink:href="#DejaVuSans-75" x="64.982422"/>
      <use xlink:href="#DejaVuSans-73" x="128.361328"/>
      <use xlink:href="#DejaVuSans-74" x="180.460938"/>
      <use xlink:href="#DejaVuSans-40" x="219.669922"/>
      <use xlink:href="#DejaVuSans-48" x="319.669922"/>
      <use xlink:href="#DejaVuSans-61" x="394.865234"/>
      <use xlink:href="#DejaVuSans-73" x="456.144531"/>
      <use xlink:href="#DejaVuSans-68" x="508.244141"/>
      <use xlink:href="#DejaVuSans-20" x="571.623047"/>
      <use xlink:href="#DejaVuSans-56" x="603.410156"/>
      <use xlink:href="#DejaVuSans-65" x="664.068359"/>
      <use xlink:href="#DejaVuSans-72" x="725.591797"/>
      <use xlink:href="#DejaVuSans-31" x="766.705078"/>
     </g>
    </g>
    <g id="LineCollection_8">
     <path d="M 73.02 89.012812 
L 73.02 79.012812 
" style="fill: none; stroke: #cc0033; stroke-width: 1.5"/>
    </g>
    <g id="line2d_40">
     <g>
      <use xlink:href="#md3fe7ae338" x="73.02" y="89.012812" style="fill: #cc0033; stroke: #cc0033"/>
     </g>
    </g>
    <g id="line2d_41">
     <g>
      <use xlink:href="#md3fe7ae338" x="73.02" y="79.012812" style="fill: #cc0033; stroke: #cc0033"/>
     </g>
    </g>
    <g id="line2d_42">
     <path d="M 63.02 84.012812 
L 83.02 84.012812 
" style="fill: none; stroke: #cc0033; stroke-width: 1.5; stroke-linecap: square"/>
    </g>
    <g id="line2d_43"/>
    <g id="text_22">
     <!-- Rust@Hash Ver1 -->
     <g transform="translate(91.02 87.512812)scale(0.1 -0.1)">
      <use xlink:href="#DejaVuSans-52"/>
      <use xlink:href="#DejaVuSans-75" x="64.982422"/>
      <use xlink:href="#DejaVuSans-73" x="128.361328"/>
      <use xlink:href="#DejaVuSans-74" x="180.460938"/>
      <use xlink:href="#DejaVuSans-40" x="219.669922"/>
      <use xlink:href="#DejaVuSans-48" x="319.669922"/>
      <use xlink:href="#DejaVuSans-61" x="394.865234"/>
      <use xlink:href="#DejaVuSans-73" x="456.144531"/>
      <use xlink:href="#DejaVuSans-68" x="508.244141"/>
      <use xlink:href="#DejaVuSans-20" x="571.623047"/>
      <use xlink:href="#DejaVuSans-56" x="603.410156"/>
      <use xlink:href="#DejaVuSans-65" x="664.068359"/>
      <use xlink:href="#DejaVuSans-72" x="725.591797"/>
      <use xlink:href="#DejaVuSans-31" x="766.705078"/>
      <use xlink:href="#DejaVuSans-bd" x="830.328125"/>
     </g>
    </g>
   </g>
  </g>
 </g>
 <defs>
  <clipPath id="pa6ebc073c4">
   <rect x="54.02" y="26.88" width="511.18" height="363.16"/>
  </clipPath>
 </defs>
</svg>
