<?xml version="1.0" encoding="utf-8" standalone="no"?>
<!DOCTYPE svg PUBLIC "-//W3C//DTD SVG 1.1//EN"
  "http://www.w3.org/Graphics/SVG/1.1/DTD/svg11.dtd">
<svg xmlns:xlink="http://www.w3.org/1999/xlink" width="576pt" height="432pt" viewBox="0 0 576 432" xmlns="http://www.w3.org/2000/svg" version="1.1">
 <metadata>
  <rdf:RDF xmlns:dc="http://purl.org/dc/elements/1.1/" xmlns:cc="http://creativecommons.org/ns#" xmlns:rdf="http://www.w3.org/1999/02/22-rdf-syntax-ns#">
   <cc:Work>
    <dc:type rdf:resource="http://purl.org/dc/dcmitype/StillImage"/>
    <dc:date>2022-05-01T19:14:53.929471</dc:date>
    <dc:format>image/svg+xml</dc:format>
    <dc:creator>
     <cc:Agent>
      <dc:title>Matplotlib v3.5.1, https://matplotlib.org/</dc:title>
     </cc:Agent>
    </dc:creator>
   </cc:Work>
  </rdf:RDF>
 </metadata>
 <defs>
  <style type="text/css">*{stroke-linejoin: round; stroke-linecap: butt}</style>
 </defs>
 <g id="figure_1">
  <g id="patch_1">
   <path d="M 0 432 
L 576 432 
L 576 0 
L 0 0 
z
" style="fill: #ffffff"/>
  </g>
  <g id="axes_1">
   <g id="patch_2">
    <path d="M 38.27 390.04 
L 565.2 390.04 
L 565.2 26.88 
L 38.27 26.88 
z
" style="fill: #ffffff"/>
   </g>
   <g id="matplotlib.axis_1">
    <g id="xtick_1">
     <g id="line2d_1">
      <defs>
       <path id="mc74f61fcfc" d="M 0 0 
L 0 3.5 
" style="stroke: #000000; stroke-width: 0.8"/>
      </defs>
      <g>
       <use xlink:href="#mc74f61fcfc" x="61.261389" y="390.04" style="stroke: #000000; stroke-width: 0.8"/>
      </g>
     </g>
     <g id="text_1">
      <!-- 0 -->
      <g transform="translate(58.080139 404.638438)scale(0.1 -0.1)">
       <defs>
        <path id="DejaVuSans-30" d="M 2034 4250 
Q 1547 4250 1301 3770 
Q 1056 3291 1056 2328 
Q 1056 1369 1301 889 
Q 1547 409 2034 409 
Q 2525 409 2770 889 
Q 3016 1369 3016 2328 
Q 3016 3291 2770 3770 
Q 2525 4250 2034 4250 
z
M 2034 4750 
Q 2819 4750 3233 4129 
Q 3647 3509 3647 2328 
Q 3647 1150 3233 529 
Q 2819 -91 2034 -91 
Q 1250 -91 836 529 
Q 422 1150 422 2328 
Q 422 3509 836 4129 
Q 1250 4750 2034 4750 
z
" transform="scale(0.015625)"/>
       </defs>
       <use xlink:href="#DejaVuSans-30"/>
      </g>
     </g>
    </g>
    <g id="xtick_2">
     <g id="line2d_2">
      <g>
       <use xlink:href="#mc74f61fcfc" x="157.258839" y="390.04" style="stroke: #000000; stroke-width: 0.8"/>
      </g>
     </g>
     <g id="text_2">
      <!-- 1 -->
      <g transform="translate(154.077589 404.638438)scale(0.1 -0.1)">
       <defs>
        <path id="DejaVuSans-31" d="M 794 531 
L 1825 531 
L 1825 4091 
L 703 3866 
L 703 4441 
L 1819 4666 
L 2450 4666 
L 2450 531 
L 3481 531 
L 3481 0 
L 794 0 
L 794 531 
z
" transform="scale(0.015625)"/>
       </defs>
       <use xlink:href="#DejaVuSans-31"/>
      </g>
     </g>
    </g>
    <g id="xtick_3">
     <g id="line2d_3">
      <g>
       <use xlink:href="#mc74f61fcfc" x="253.256288" y="390.04" style="stroke: #000000; stroke-width: 0.8"/>
      </g>
     </g>
     <g id="text_3">
      <!-- 2 -->
      <g transform="translate(250.075038 404.638438)scale(0.1 -0.1)">
       <defs>
        <path id="DejaVuSans-32" d="M 1228 531 
L 3431 531 
L 3431 0 
L 469 0 
L 469 531 
Q 828 903 1448 1529 
Q 2069 2156 2228 2338 
Q 2531 2678 2651 2914 
Q 2772 3150 2772 3378 
Q 2772 3750 2511 3984 
Q 2250 4219 1831 4219 
Q 1534 4219 1204 4116 
Q 875 4013 500 3803 
L 500 4441 
Q 881 4594 1212 4672 
Q 1544 4750 1819 4750 
Q 2544 4750 2975 4387 
Q 3406 4025 3406 3419 
Q 3406 3131 3298 2873 
Q 3191 2616 2906 2266 
Q 2828 2175 2409 1742 
Q 1991 1309 1228 531 
z
" transform="scale(0.015625)"/>
       </defs>
       <use xlink:href="#DejaVuSans-32"/>
      </g>
     </g>
    </g>
    <g id="xtick_4">
     <g id="line2d_4">
      <g>
       <use xlink:href="#mc74f61fcfc" x="349.253737" y="390.04" style="stroke: #000000; stroke-width: 0.8"/>
      </g>
     </g>
     <g id="text_4">
      <!-- 3 -->
      <g transform="translate(346.072487 404.638438)scale(0.1 -0.1)">
       <defs>
        <path id="DejaVuSans-33" d="M 2597 2516 
Q 3050 2419 3304 2112 
Q 3559 1806 3559 1356 
Q 3559 666 3084 287 
Q 2609 -91 1734 -91 
Q 1441 -91 1130 -33 
Q 819 25 488 141 
L 488 750 
Q 750 597 1062 519 
Q 1375 441 1716 441 
Q 2309 441 2620 675 
Q 2931 909 2931 1356 
Q 2931 1769 2642 2001 
Q 2353 2234 1838 2234 
L 1294 2234 
L 1294 2753 
L 1863 2753 
Q 2328 2753 2575 2939 
Q 2822 3125 2822 3475 
Q 2822 3834 2567 4026 
Q 2313 4219 1838 4219 
Q 1578 4219 1281 4162 
Q 984 4106 628 3988 
L 628 4550 
Q 988 4650 1302 4700 
Q 1616 4750 1894 4750 
Q 2613 4750 3031 4423 
Q 3450 4097 3450 3541 
Q 3450 3153 3228 2886 
Q 3006 2619 2597 2516 
z
" transform="scale(0.015625)"/>
       </defs>
       <use xlink:href="#DejaVuSans-33"/>
      </g>
     </g>
    </g>
    <g id="xtick_5">
     <g id="line2d_5">
      <g>
       <use xlink:href="#mc74f61fcfc" x="445.251187" y="390.04" style="stroke: #000000; stroke-width: 0.8"/>
      </g>
     </g>
     <g id="text_5">
      <!-- 4 -->
      <g transform="translate(442.069937 404.638438)scale(0.1 -0.1)">
       <defs>
        <path id="DejaVuSans-34" d="M 2419 4116 
L 825 1625 
L 2419 1625 
L 2419 4116 
z
M 2253 4666 
L 3047 4666 
L 3047 1625 
L 3713 1625 
L 3713 1100 
L 3047 1100 
L 3047 0 
L 2419 0 
L 2419 1100 
L 313 1100 
L 313 1709 
L 2253 4666 
z
" transform="scale(0.015625)"/>
       </defs>
       <use xlink:href="#DejaVuSans-34"/>
      </g>
     </g>
    </g>
    <g id="xtick_6">
     <g id="line2d_6">
      <g>
       <use xlink:href="#mc74f61fcfc" x="541.248636" y="390.04" style="stroke: #000000; stroke-width: 0.8"/>
      </g>
     </g>
     <g id="text_6">
      <!-- 5 -->
      <g transform="translate(538.067386 404.638438)scale(0.1 -0.1)">
       <defs>
        <path id="DejaVuSans-35" d="M 691 4666 
L 3169 4666 
L 3169 4134 
L 1269 4134 
L 1269 2991 
Q 1406 3038 1543 3061 
Q 1681 3084 1819 3084 
Q 2600 3084 3056 2656 
Q 3513 2228 3513 1497 
Q 3513 744 3044 326 
Q 2575 -91 1722 -91 
Q 1428 -91 1123 -41 
Q 819 9 494 109 
L 494 744 
Q 775 591 1075 516 
Q 1375 441 1709 441 
Q 2250 441 2565 725 
Q 2881 1009 2881 1497 
Q 2881 1984 2565 2268 
Q 2250 2553 1709 2553 
Q 1456 2553 1204 2497 
Q 953 2441 691 2322 
L 691 4666 
z
" transform="scale(0.015625)"/>
       </defs>
       <use xlink:href="#DejaVuSans-35"/>
      </g>
     </g>
    </g>
    <g id="text_7">
     <!-- Size (#edges) -->
     <g transform="translate(266.684219 418.316562)scale(0.1 -0.1)">
      <defs>
       <path id="DejaVuSans-53" d="M 3425 4513 
L 3425 3897 
Q 3066 4069 2747 4153 
Q 2428 4238 2131 4238 
Q 1616 4238 1336 4038 
Q 1056 3838 1056 3469 
Q 1056 3159 1242 3001 
Q 1428 2844 1947 2747 
L 2328 2669 
Q 3034 2534 3370 2195 
Q 3706 1856 3706 1288 
Q 3706 609 3251 259 
Q 2797 -91 1919 -91 
Q 1588 -91 1214 -16 
Q 841 59 441 206 
L 441 856 
Q 825 641 1194 531 
Q 1563 422 1919 422 
Q 2459 422 2753 634 
Q 3047 847 3047 1241 
Q 3047 1584 2836 1778 
Q 2625 1972 2144 2069 
L 1759 2144 
Q 1053 2284 737 2584 
Q 422 2884 422 3419 
Q 422 4038 858 4394 
Q 1294 4750 2059 4750 
Q 2388 4750 2728 4690 
Q 3069 4631 3425 4513 
z
" transform="scale(0.015625)"/>
       <path id="DejaVuSans-69" d="M 603 3500 
L 1178 3500 
L 1178 0 
L 603 0 
L 603 3500 
z
M 603 4863 
L 1178 4863 
L 1178 4134 
L 603 4134 
L 603 4863 
z
" transform="scale(0.015625)"/>
       <path id="DejaVuSans-7a" d="M 353 3500 
L 3084 3500 
L 3084 2975 
L 922 459 
L 3084 459 
L 3084 0 
L 275 0 
L 275 525 
L 2438 3041 
L 353 3041 
L 353 3500 
z
" transform="scale(0.015625)"/>
       <path id="DejaVuSans-65" d="M 3597 1894 
L 3597 1613 
L 953 1613 
Q 991 1019 1311 708 
Q 1631 397 2203 397 
Q 2534 397 2845 478 
Q 3156 559 3463 722 
L 3463 178 
Q 3153 47 2828 -22 
Q 2503 -91 2169 -91 
Q 1331 -91 842 396 
Q 353 884 353 1716 
Q 353 2575 817 3079 
Q 1281 3584 2069 3584 
Q 2775 3584 3186 3129 
Q 3597 2675 3597 1894 
z
M 3022 2063 
Q 3016 2534 2758 2815 
Q 2500 3097 2075 3097 
Q 1594 3097 1305 2825 
Q 1016 2553 972 2059 
L 3022 2063 
z
" transform="scale(0.015625)"/>
       <path id="DejaVuSans-20" transform="scale(0.015625)"/>
       <path id="DejaVuSans-28" d="M 1984 4856 
Q 1566 4138 1362 3434 
Q 1159 2731 1159 2009 
Q 1159 1288 1364 580 
Q 1569 -128 1984 -844 
L 1484 -844 
Q 1016 -109 783 600 
Q 550 1309 550 2009 
Q 550 2706 781 3412 
Q 1013 4119 1484 4856 
L 1984 4856 
z
" transform="scale(0.015625)"/>
       <path id="DejaVuSans-23" d="M 3272 2816 
L 2363 2816 
L 2100 1772 
L 3016 1772 
L 3272 2816 
z
M 2803 4594 
L 2478 3297 
L 3391 3297 
L 3719 4594 
L 4219 4594 
L 3897 3297 
L 4872 3297 
L 4872 2816 
L 3775 2816 
L 3519 1772 
L 4513 1772 
L 4513 1294 
L 3397 1294 
L 3072 0 
L 2572 0 
L 2894 1294 
L 1978 1294 
L 1656 0 
L 1153 0 
L 1478 1294 
L 494 1294 
L 494 1772 
L 1594 1772 
L 1856 2816 
L 850 2816 
L 850 3297 
L 1978 3297 
L 2297 4594 
L 2803 4594 
z
" transform="scale(0.015625)"/>
       <path id="DejaVuSans-64" d="M 2906 2969 
L 2906 4863 
L 3481 4863 
L 3481 0 
L 2906 0 
L 2906 525 
Q 2725 213 2448 61 
Q 2172 -91 1784 -91 
Q 1150 -91 751 415 
Q 353 922 353 1747 
Q 353 2572 751 3078 
Q 1150 3584 1784 3584 
Q 2172 3584 2448 3432 
Q 2725 3281 2906 2969 
z
M 947 1747 
Q 947 1113 1208 752 
Q 1469 391 1925 391 
Q 2381 391 2643 752 
Q 2906 1113 2906 1747 
Q 2906 2381 2643 2742 
Q 2381 3103 1925 3103 
Q 1469 3103 1208 2742 
Q 947 2381 947 1747 
z
" transform="scale(0.015625)"/>
       <path id="DejaVuSans-67" d="M 2906 1791 
Q 2906 2416 2648 2759 
Q 2391 3103 1925 3103 
Q 1463 3103 1205 2759 
Q 947 2416 947 1791 
Q 947 1169 1205 825 
Q 1463 481 1925 481 
Q 2391 481 2648 825 
Q 2906 1169 2906 1791 
z
M 3481 434 
Q 3481 -459 3084 -895 
Q 2688 -1331 1869 -1331 
Q 1566 -1331 1297 -1286 
Q 1028 -1241 775 -1147 
L 775 -588 
Q 1028 -725 1275 -790 
Q 1522 -856 1778 -856 
Q 2344 -856 2625 -561 
Q 2906 -266 2906 331 
L 2906 616 
Q 2728 306 2450 153 
Q 2172 0 1784 0 
Q 1141 0 747 490 
Q 353 981 353 1791 
Q 353 2603 747 3093 
Q 1141 3584 1784 3584 
Q 2172 3584 2450 3431 
Q 2728 3278 2906 2969 
L 2906 3500 
L 3481 3500 
L 3481 434 
z
" transform="scale(0.015625)"/>
       <path id="DejaVuSans-73" d="M 2834 3397 
L 2834 2853 
Q 2591 2978 2328 3040 
Q 2066 3103 1784 3103 
Q 1356 3103 1142 2972 
Q 928 2841 928 2578 
Q 928 2378 1081 2264 
Q 1234 2150 1697 2047 
L 1894 2003 
Q 2506 1872 2764 1633 
Q 3022 1394 3022 966 
Q 3022 478 2636 193 
Q 2250 -91 1575 -91 
Q 1294 -91 989 -36 
Q 684 19 347 128 
L 347 722 
Q 666 556 975 473 
Q 1284 391 1588 391 
Q 1994 391 2212 530 
Q 2431 669 2431 922 
Q 2431 1156 2273 1281 
Q 2116 1406 1581 1522 
L 1381 1569 
Q 847 1681 609 1914 
Q 372 2147 372 2553 
Q 372 3047 722 3315 
Q 1072 3584 1716 3584 
Q 2034 3584 2315 3537 
Q 2597 3491 2834 3397 
z
" transform="scale(0.015625)"/>
       <path id="DejaVuSans-29" d="M 513 4856 
L 1013 4856 
Q 1481 4119 1714 3412 
Q 1947 2706 1947 2009 
Q 1947 1309 1714 600 
Q 1481 -109 1013 -844 
L 513 -844 
Q 928 -128 1133 580 
Q 1338 1288 1338 2009 
Q 1338 2731 1133 3434 
Q 928 4138 513 4856 
z
" transform="scale(0.015625)"/>
      </defs>
      <use xlink:href="#DejaVuSans-53"/>
      <use xlink:href="#DejaVuSans-69" x="63.476562"/>
      <use xlink:href="#DejaVuSans-7a" x="91.259766"/>
      <use xlink:href="#DejaVuSans-65" x="143.75"/>
      <use xlink:href="#DejaVuSans-20" x="205.273438"/>
      <use xlink:href="#DejaVuSans-28" x="237.060547"/>
      <use xlink:href="#DejaVuSans-23" x="276.074219"/>
      <use xlink:href="#DejaVuSans-65" x="359.863281"/>
      <use xlink:href="#DejaVuSans-64" x="421.386719"/>
      <use xlink:href="#DejaVuSans-67" x="484.863281"/>
      <use xlink:href="#DejaVuSans-65" x="548.339844"/>
      <use xlink:href="#DejaVuSans-73" x="609.863281"/>
      <use xlink:href="#DejaVuSans-29" x="661.962891"/>
     </g>
    </g>
    <g id="text_8">
     <!-- 1e6 -->
     <g transform="translate(546.321875 417.316562)scale(0.1 -0.1)">
      <defs>
       <path id="DejaVuSans-36" d="M 2113 2584 
Q 1688 2584 1439 2293 
Q 1191 2003 1191 1497 
Q 1191 994 1439 701 
Q 1688 409 2113 409 
Q 2538 409 2786 701 
Q 3034 994 3034 1497 
Q 3034 2003 2786 2293 
Q 2538 2584 2113 2584 
z
M 3366 4563 
L 3366 3988 
Q 3128 4100 2886 4159 
Q 2644 4219 2406 4219 
Q 1781 4219 1451 3797 
Q 1122 3375 1075 2522 
Q 1259 2794 1537 2939 
Q 1816 3084 2150 3084 
Q 2853 3084 3261 2657 
Q 3669 2231 3669 1497 
Q 3669 778 3244 343 
Q 2819 -91 2113 -91 
Q 1303 -91 875 529 
Q 447 1150 447 2328 
Q 447 3434 972 4092 
Q 1497 4750 2381 4750 
Q 2619 4750 2861 4703 
Q 3103 4656 3366 4563 
z
" transform="scale(0.015625)"/>
      </defs>
      <use xlink:href="#DejaVuSans-31"/>
      <use xlink:href="#DejaVuSans-65" x="63.623047"/>
      <use xlink:href="#DejaVuSans-36" x="125.146484"/>
     </g>
    </g>
   </g>
   <g id="matplotlib.axis_2">
    <g id="ytick_1">
     <g id="line2d_7">
      <defs>
       <path id="m7eb1c47a8f" d="M 0 0 
L -3.5 0 
" style="stroke: #000000; stroke-width: 0.8"/>
      </defs>
      <g>
       <use xlink:href="#m7eb1c47a8f" x="38.27" y="374.603843" style="stroke: #000000; stroke-width: 0.8"/>
      </g>
     </g>
     <g id="text_9">
      <!-- 0 -->
      <g transform="translate(24.9075 378.403062)scale(0.1 -0.1)">
       <use xlink:href="#DejaVuSans-30"/>
      </g>
     </g>
    </g>
    <g id="ytick_2">
     <g id="line2d_8">
      <g>
       <use xlink:href="#m7eb1c47a8f" x="38.27" y="308.790273" style="stroke: #000000; stroke-width: 0.8"/>
      </g>
     </g>
     <g id="text_10">
      <!-- 1 -->
      <g transform="translate(24.9075 312.589492)scale(0.1 -0.1)">
       <use xlink:href="#DejaVuSans-31"/>
      </g>
     </g>
    </g>
    <g id="ytick_3">
     <g id="line2d_9">
      <g>
       <use xlink:href="#m7eb1c47a8f" x="38.27" y="242.976703" style="stroke: #000000; stroke-width: 0.8"/>
      </g>
     </g>
     <g id="text_11">
      <!-- 2 -->
      <g transform="translate(24.9075 246.775922)scale(0.1 -0.1)">
       <use xlink:href="#DejaVuSans-32"/>
      </g>
     </g>
    </g>
    <g id="ytick_4">
     <g id="line2d_10">
      <g>
       <use xlink:href="#m7eb1c47a8f" x="38.27" y="177.163133" style="stroke: #000000; stroke-width: 0.8"/>
      </g>
     </g>
     <g id="text_12">
      <!-- 3 -->
      <g transform="translate(24.9075 180.962352)scale(0.1 -0.1)">
       <use xlink:href="#DejaVuSans-33"/>
      </g>
     </g>
    </g>
    <g id="ytick_5">
     <g id="line2d_11">
      <g>
       <use xlink:href="#m7eb1c47a8f" x="38.27" y="111.349564" style="stroke: #000000; stroke-width: 0.8"/>
      </g>
     </g>
     <g id="text_13">
      <!-- 4 -->
      <g transform="translate(24.9075 115.148782)scale(0.1 -0.1)">
       <use xlink:href="#DejaVuSans-34"/>
      </g>
     </g>
    </g>
    <g id="ytick_6">
     <g id="line2d_12">
      <g>
       <use xlink:href="#m7eb1c47a8f" x="38.27" y="45.535994" style="stroke: #000000; stroke-width: 0.8"/>
      </g>
     </g>
     <g id="text_14">
      <!-- 5 -->
      <g transform="translate(24.9075 49.335212)scale(0.1 -0.1)">
       <use xlink:href="#DejaVuSans-35"/>
      </g>
     </g>
    </g>
    <g id="text_15">
     <!-- Seconds spent -->
     <g transform="translate(18.827813 245.040469)rotate(-90)scale(0.1 -0.1)">
      <defs>
       <path id="DejaVuSans-63" d="M 3122 3366 
L 3122 2828 
Q 2878 2963 2633 3030 
Q 2388 3097 2138 3097 
Q 1578 3097 1268 2742 
Q 959 2388 959 1747 
Q 959 1106 1268 751 
Q 1578 397 2138 397 
Q 2388 397 2633 464 
Q 2878 531 3122 666 
L 3122 134 
Q 2881 22 2623 -34 
Q 2366 -91 2075 -91 
Q 1284 -91 818 406 
Q 353 903 353 1747 
Q 353 2603 823 3093 
Q 1294 3584 2113 3584 
Q 2378 3584 2631 3529 
Q 2884 3475 3122 3366 
z
" transform="scale(0.015625)"/>
       <path id="DejaVuSans-6f" d="M 1959 3097 
Q 1497 3097 1228 2736 
Q 959 2375 959 1747 
Q 959 1119 1226 758 
Q 1494 397 1959 397 
Q 2419 397 2687 759 
Q 2956 1122 2956 1747 
Q 2956 2369 2687 2733 
Q 2419 3097 1959 3097 
z
M 1959 3584 
Q 2709 3584 3137 3096 
Q 3566 2609 3566 1747 
Q 3566 888 3137 398 
Q 2709 -91 1959 -91 
Q 1206 -91 779 398 
Q 353 888 353 1747 
Q 353 2609 779 3096 
Q 1206 3584 1959 3584 
z
" transform="scale(0.015625)"/>
       <path id="DejaVuSans-6e" d="M 3513 2113 
L 3513 0 
L 2938 0 
L 2938 2094 
Q 2938 2591 2744 2837 
Q 2550 3084 2163 3084 
Q 1697 3084 1428 2787 
Q 1159 2491 1159 1978 
L 1159 0 
L 581 0 
L 581 3500 
L 1159 3500 
L 1159 2956 
Q 1366 3272 1645 3428 
Q 1925 3584 2291 3584 
Q 2894 3584 3203 3211 
Q 3513 2838 3513 2113 
z
" transform="scale(0.015625)"/>
       <path id="DejaVuSans-70" d="M 1159 525 
L 1159 -1331 
L 581 -1331 
L 581 3500 
L 1159 3500 
L 1159 2969 
Q 1341 3281 1617 3432 
Q 1894 3584 2278 3584 
Q 2916 3584 3314 3078 
Q 3713 2572 3713 1747 
Q 3713 922 3314 415 
Q 2916 -91 2278 -91 
Q 1894 -91 1617 61 
Q 1341 213 1159 525 
z
M 3116 1747 
Q 3116 2381 2855 2742 
Q 2594 3103 2138 3103 
Q 1681 3103 1420 2742 
Q 1159 2381 1159 1747 
Q 1159 1113 1420 752 
Q 1681 391 2138 391 
Q 2594 391 2855 752 
Q 3116 1113 3116 1747 
z
" transform="scale(0.015625)"/>
       <path id="DejaVuSans-74" d="M 1172 4494 
L 1172 3500 
L 2356 3500 
L 2356 3053 
L 1172 3053 
L 1172 1153 
Q 1172 725 1289 603 
Q 1406 481 1766 481 
L 2356 481 
L 2356 0 
L 1766 0 
Q 1100 0 847 248 
Q 594 497 594 1153 
L 594 3053 
L 172 3053 
L 172 3500 
L 594 3500 
L 594 4494 
L 1172 4494 
z
" transform="scale(0.015625)"/>
      </defs>
      <use xlink:href="#DejaVuSans-53"/>
      <use xlink:href="#DejaVuSans-65" x="63.476562"/>
      <use xlink:href="#DejaVuSans-63" x="125"/>
      <use xlink:href="#DejaVuSans-6f" x="179.980469"/>
      <use xlink:href="#DejaVuSans-6e" x="241.162109"/>
      <use xlink:href="#DejaVuSans-64" x="304.541016"/>
      <use xlink:href="#DejaVuSans-73" x="368.017578"/>
      <use xlink:href="#DejaVuSans-20" x="420.117188"/>
      <use xlink:href="#DejaVuSans-73" x="451.904297"/>
      <use xlink:href="#DejaVuSans-70" x="504.003906"/>
      <use xlink:href="#DejaVuSans-65" x="567.480469"/>
      <use xlink:href="#DejaVuSans-6e" x="629.003906"/>
      <use xlink:href="#DejaVuSans-74" x="692.382812"/>
     </g>
    </g>
   </g>
   <g id="LineCollection_1">
    <path d="M 62.221364 373.35994 
L 62.221364 373.31397 
" clip-path="url(#p1be05fdb19)" style="fill: none; stroke: #1f77b4; stroke-width: 1.5"/>
    <path d="M 63.181338 372.802401 
L 63.181338 372.779511 
" clip-path="url(#p1be05fdb19)" style="fill: none; stroke: #1f77b4; stroke-width: 1.5"/>
    <path d="M 64.141313 372.215403 
L 64.141313 372.150083 
" clip-path="url(#p1be05fdb19)" style="fill: none; stroke: #1f77b4; stroke-width: 1.5"/>
    <path d="M 65.101287 371.66245 
L 65.101287 371.596815 
" clip-path="url(#p1be05fdb19)" style="fill: none; stroke: #1f77b4; stroke-width: 1.5"/>
    <path d="M 66.061262 371.062422 
L 66.061262 370.981688 
" clip-path="url(#p1be05fdb19)" style="fill: none; stroke: #1f77b4; stroke-width: 1.5"/>
    <path d="M 70.861134 368.130447 
L 70.861134 368.028824 
" clip-path="url(#p1be05fdb19)" style="fill: none; stroke: #1f77b4; stroke-width: 1.5"/>
    <path d="M 75.661007 365.47864 
L 75.661007 365.206666 
" clip-path="url(#p1be05fdb19)" style="fill: none; stroke: #1f77b4; stroke-width: 1.5"/>
    <path d="M 80.460879 362.606161 
L 80.460879 362.567798 
" clip-path="url(#p1be05fdb19)" style="fill: none; stroke: #1f77b4; stroke-width: 1.5"/>
    <path d="M 85.260752 359.861057 
L 85.260752 359.800225 
" clip-path="url(#p1be05fdb19)" style="fill: none; stroke: #1f77b4; stroke-width: 1.5"/>
    <path d="M 109.260114 347.660551 
L 109.260114 346.948956 
" clip-path="url(#p1be05fdb19)" style="fill: none; stroke: #1f77b4; stroke-width: 1.5"/>
    <path d="M 133.259476 334.841726 
L 133.259476 67.292841 
" clip-path="url(#p1be05fdb19)" style="fill: none; stroke: #1f77b4; stroke-width: 1.5"/>
    <path d="M 157.258839 322.747631 
L 157.258839 310.222324 
" clip-path="url(#p1be05fdb19)" style="fill: none; stroke: #1f77b4; stroke-width: 1.5"/>
    <path d="M 181.258201 310.443523 
L 181.258201 310.012017 
" clip-path="url(#p1be05fdb19)" style="fill: none; stroke: #1f77b4; stroke-width: 1.5"/>
    <path d="M 205.257563 296.506236 
L 205.257563 250.062094 
" clip-path="url(#p1be05fdb19)" style="fill: none; stroke: #1f77b4; stroke-width: 1.5"/>
    <path d="M 229.256926 282.867782 
L 229.256926 282.341484 
" clip-path="url(#p1be05fdb19)" style="fill: none; stroke: #1f77b4; stroke-width: 1.5"/>
    <path d="M 253.256288 270.317937 
L 253.256288 269.526569 
" clip-path="url(#p1be05fdb19)" style="fill: none; stroke: #1f77b4; stroke-width: 1.5"/>
    <path d="M 349.253737 215.942154 
L 349.253737 43.387273 
" clip-path="url(#p1be05fdb19)" style="fill: none; stroke: #1f77b4; stroke-width: 1.5"/>
    <path d="M 445.251187 157.097603 
L 445.251187 155.277594 
" clip-path="url(#p1be05fdb19)" style="fill: none; stroke: #1f77b4; stroke-width: 1.5"/>
    <path d="M 541.248636 98.096422 
L 541.248636 96.887854 
" clip-path="url(#p1be05fdb19)" style="fill: none; stroke: #1f77b4; stroke-width: 1.5"/>
   </g>
   <g id="line2d_13">
    <defs>
     <path id="md8547b9e7e" d="M 3 0 
L -3 -0 
" style="stroke: #1f77b4"/>
    </defs>
    <g clip-path="url(#p1be05fdb19)">
     <use xlink:href="#md8547b9e7e" x="62.221364" y="373.35994" style="fill: #1f77b4; stroke: #1f77b4"/>
     <use xlink:href="#md8547b9e7e" x="63.181338" y="372.802401" style="fill: #1f77b4; stroke: #1f77b4"/>
     <use xlink:href="#md8547b9e7e" x="64.141313" y="372.215403" style="fill: #1f77b4; stroke: #1f77b4"/>
     <use xlink:href="#md8547b9e7e" x="65.101287" y="371.66245" style="fill: #1f77b4; stroke: #1f77b4"/>
     <use xlink:href="#md8547b9e7e" x="66.061262" y="371.062422" style="fill: #1f77b4; stroke: #1f77b4"/>
     <use xlink:href="#md8547b9e7e" x="70.861134" y="368.130447" style="fill: #1f77b4; stroke: #1f77b4"/>
     <use xlink:href="#md8547b9e7e" x="75.661007" y="365.47864" style="fill: #1f77b4; stroke: #1f77b4"/>
     <use xlink:href="#md8547b9e7e" x="80.460879" y="362.606161" style="fill: #1f77b4; stroke: #1f77b4"/>
     <use xlink:href="#md8547b9e7e" x="85.260752" y="359.861057" style="fill: #1f77b4; stroke: #1f77b4"/>
     <use xlink:href="#md8547b9e7e" x="109.260114" y="347.660551" style="fill: #1f77b4; stroke: #1f77b4"/>
     <use xlink:href="#md8547b9e7e" x="133.259476" y="334.841726" style="fill: #1f77b4; stroke: #1f77b4"/>
     <use xlink:href="#md8547b9e7e" x="157.258839" y="322.747631" style="fill: #1f77b4; stroke: #1f77b4"/>
     <use xlink:href="#md8547b9e7e" x="181.258201" y="310.443523" style="fill: #1f77b4; stroke: #1f77b4"/>
     <use xlink:href="#md8547b9e7e" x="205.257563" y="296.506236" style="fill: #1f77b4; stroke: #1f77b4"/>
     <use xlink:href="#md8547b9e7e" x="229.256926" y="282.867782" style="fill: #1f77b4; stroke: #1f77b4"/>
     <use xlink:href="#md8547b9e7e" x="253.256288" y="270.317937" style="fill: #1f77b4; stroke: #1f77b4"/>
     <use xlink:href="#md8547b9e7e" x="349.253737" y="215.942154" style="fill: #1f77b4; stroke: #1f77b4"/>
     <use xlink:href="#md8547b9e7e" x="445.251187" y="157.097603" style="fill: #1f77b4; stroke: #1f77b4"/>
     <use xlink:href="#md8547b9e7e" x="541.248636" y="98.096422" style="fill: #1f77b4; stroke: #1f77b4"/>
    </g>
   </g>
   <g id="line2d_14">
    <g clip-path="url(#p1be05fdb19)">
     <use xlink:href="#md8547b9e7e" x="62.221364" y="373.31397" style="fill: #1f77b4; stroke: #1f77b4"/>
     <use xlink:href="#md8547b9e7e" x="63.181338" y="372.779511" style="fill: #1f77b4; stroke: #1f77b4"/>
     <use xlink:href="#md8547b9e7e" x="64.141313" y="372.150083" style="fill: #1f77b4; stroke: #1f77b4"/>
     <use xlink:href="#md8547b9e7e" x="65.101287" y="371.596815" style="fill: #1f77b4; stroke: #1f77b4"/>
     <use xlink:href="#md8547b9e7e" x="66.061262" y="370.981688" style="fill: #1f77b4; stroke: #1f77b4"/>
     <use xlink:href="#md8547b9e7e" x="70.861134" y="368.028824" style="fill: #1f77b4; stroke: #1f77b4"/>
     <use xlink:href="#md8547b9e7e" x="75.661007" y="365.206666" style="fill: #1f77b4; stroke: #1f77b4"/>
     <use xlink:href="#md8547b9e7e" x="80.460879" y="362.567798" style="fill: #1f77b4; stroke: #1f77b4"/>
     <use xlink:href="#md8547b9e7e" x="85.260752" y="359.800225" style="fill: #1f77b4; stroke: #1f77b4"/>
     <use xlink:href="#md8547b9e7e" x="109.260114" y="346.948956" style="fill: #1f77b4; stroke: #1f77b4"/>
     <use xlink:href="#md8547b9e7e" x="133.259476" y="67.292841" style="fill: #1f77b4; stroke: #1f77b4"/>
     <use xlink:href="#md8547b9e7e" x="157.258839" y="310.222324" style="fill: #1f77b4; stroke: #1f77b4"/>
     <use xlink:href="#md8547b9e7e" x="181.258201" y="310.012017" style="fill: #1f77b4; stroke: #1f77b4"/>
     <use xlink:href="#md8547b9e7e" x="205.257563" y="250.062094" style="fill: #1f77b4; stroke: #1f77b4"/>
     <use xlink:href="#md8547b9e7e" x="229.256926" y="282.341484" style="fill: #1f77b4; stroke: #1f77b4"/>
     <use xlink:href="#md8547b9e7e" x="253.256288" y="269.526569" style="fill: #1f77b4; stroke: #1f77b4"/>
     <use xlink:href="#md8547b9e7e" x="349.253737" y="43.387273" style="fill: #1f77b4; stroke: #1f77b4"/>
     <use xlink:href="#md8547b9e7e" x="445.251187" y="155.277594" style="fill: #1f77b4; stroke: #1f77b4"/>
     <use xlink:href="#md8547b9e7e" x="541.248636" y="96.887854" style="fill: #1f77b4; stroke: #1f77b4"/>
    </g>
   </g>
   <g id="LineCollection_2">
    <path d="M 62.221364 373.306927 
L 62.221364 373.18098 
" clip-path="url(#p1be05fdb19)" style="fill: none; stroke: #ff7f0e; stroke-width: 1.5"/>
    <path d="M 63.181338 372.735001 
L 63.181338 372.72174 
" clip-path="url(#p1be05fdb19)" style="fill: none; stroke: #ff7f0e; stroke-width: 1.5"/>
    <path d="M 64.141313 372.173763 
L 64.141313 372.108568 
" clip-path="url(#p1be05fdb19)" style="fill: none; stroke: #ff7f0e; stroke-width: 1.5"/>
    <path d="M 65.101287 371.577334 
L 65.101287 371.459646 
" clip-path="url(#p1be05fdb19)" style="fill: none; stroke: #ff7f0e; stroke-width: 1.5"/>
    <path d="M 66.061262 370.990435 
L 66.061262 370.953513 
" clip-path="url(#p1be05fdb19)" style="fill: none; stroke: #ff7f0e; stroke-width: 1.5"/>
    <path d="M 70.861134 368.19451 
L 70.861134 367.987427 
" clip-path="url(#p1be05fdb19)" style="fill: none; stroke: #ff7f0e; stroke-width: 1.5"/>
    <path d="M 75.661007 365.371845 
L 75.661007 365.231083 
" clip-path="url(#p1be05fdb19)" style="fill: none; stroke: #ff7f0e; stroke-width: 1.5"/>
    <path d="M 80.460879 362.844913 
L 80.460879 362.639989 
" clip-path="url(#p1be05fdb19)" style="fill: none; stroke: #ff7f0e; stroke-width: 1.5"/>
    <path d="M 85.260752 359.99608 
L 85.260752 359.905429 
" clip-path="url(#p1be05fdb19)" style="fill: none; stroke: #ff7f0e; stroke-width: 1.5"/>
    <path d="M 109.260114 347.648671 
L 109.260114 347.49526 
" clip-path="url(#p1be05fdb19)" style="fill: none; stroke: #ff7f0e; stroke-width: 1.5"/>
    <path d="M 133.259476 333.484205 
L 133.259476 333.040139 
" clip-path="url(#p1be05fdb19)" style="fill: none; stroke: #ff7f0e; stroke-width: 1.5"/>
    <path d="M 157.258839 325.410174 
L 157.258839 324.924114 
" clip-path="url(#p1be05fdb19)" style="fill: none; stroke: #ff7f0e; stroke-width: 1.5"/>
    <path d="M 181.258201 315.378873 
L 181.258201 289.53758 
" clip-path="url(#p1be05fdb19)" style="fill: none; stroke: #ff7f0e; stroke-width: 1.5"/>
    <path d="M 205.257563 303.725774 
L 205.257563 301.581706 
" clip-path="url(#p1be05fdb19)" style="fill: none; stroke: #ff7f0e; stroke-width: 1.5"/>
    <path d="M 229.256926 291.498528 
L 229.256926 290.848198 
" clip-path="url(#p1be05fdb19)" style="fill: none; stroke: #ff7f0e; stroke-width: 1.5"/>
    <path d="M 253.256288 280.939675 
L 253.256288 202.547585 
" clip-path="url(#p1be05fdb19)" style="fill: none; stroke: #ff7f0e; stroke-width: 1.5"/>
    <path d="M 349.253737 238.320591 
L 349.253737 237.704076 
" clip-path="url(#p1be05fdb19)" style="fill: none; stroke: #ff7f0e; stroke-width: 1.5"/>
    <path d="M 445.251187 193.447958 
L 445.251187 191.775102 
" clip-path="url(#p1be05fdb19)" style="fill: none; stroke: #ff7f0e; stroke-width: 1.5"/>
    <path d="M 541.248636 148.146049 
L 541.248636 147.30607 
" clip-path="url(#p1be05fdb19)" style="fill: none; stroke: #ff7f0e; stroke-width: 1.5"/>
   </g>
   <g id="line2d_15">
    <defs>
     <path id="m7f04267d81" d="M 3 0 
L -3 -0 
" style="stroke: #ff7f0e"/>
    </defs>
    <g clip-path="url(#p1be05fdb19)">
     <use xlink:href="#m7f04267d81" x="62.221364" y="373.306927" style="fill: #ff7f0e; stroke: #ff7f0e"/>
     <use xlink:href="#m7f04267d81" x="63.181338" y="372.735001" style="fill: #ff7f0e; stroke: #ff7f0e"/>
     <use xlink:href="#m7f04267d81" x="64.141313" y="372.173763" style="fill: #ff7f0e; stroke: #ff7f0e"/>
     <use xlink:href="#m7f04267d81" x="65.101287" y="371.577334" style="fill: #ff7f0e; stroke: #ff7f0e"/>
     <use xlink:href="#m7f04267d81" x="66.061262" y="370.990435" style="fill: #ff7f0e; stroke: #ff7f0e"/>
     <use xlink:href="#m7f04267d81" x="70.861134" y="368.19451" style="fill: #ff7f0e; stroke: #ff7f0e"/>
     <use xlink:href="#m7f04267d81" x="75.661007" y="365.371845" style="fill: #ff7f0e; stroke: #ff7f0e"/>
     <use xlink:href="#m7f04267d81" x="80.460879" y="362.844913" style="fill: #ff7f0e; stroke: #ff7f0e"/>
     <use xlink:href="#m7f04267d81" x="85.260752" y="359.99608" style="fill: #ff7f0e; stroke: #ff7f0e"/>
     <use xlink:href="#m7f04267d81" x="109.260114" y="347.648671" style="fill: #ff7f0e; stroke: #ff7f0e"/>
     <use xlink:href="#m7f04267d81" x="133.259476" y="333.484205" style="fill: #ff7f0e; stroke: #ff7f0e"/>
     <use xlink:href="#m7f04267d81" x="157.258839" y="325.410174" style="fill: #ff7f0e; stroke: #ff7f0e"/>
     <use xlink:href="#m7f04267d81" x="181.258201" y="315.378873" style="fill: #ff7f0e; stroke: #ff7f0e"/>
     <use xlink:href="#m7f04267d81" x="205.257563" y="303.725774" style="fill: #ff7f0e; stroke: #ff7f0e"/>
     <use xlink:href="#m7f04267d81" x="229.256926" y="291.498528" style="fill: #ff7f0e; stroke: #ff7f0e"/>
     <use xlink:href="#m7f04267d81" x="253.256288" y="280.939675" style="fill: #ff7f0e; stroke: #ff7f0e"/>
     <use xlink:href="#m7f04267d81" x="349.253737" y="238.320591" style="fill: #ff7f0e; stroke: #ff7f0e"/>
     <use xlink:href="#m7f04267d81" x="445.251187" y="193.447958" style="fill: #ff7f0e; stroke: #ff7f0e"/>
     <use xlink:href="#m7f04267d81" x="541.248636" y="148.146049" style="fill: #ff7f0e; stroke: #ff7f0e"/>
    </g>
   </g>
   <g id="line2d_16">
    <g clip-path="url(#p1be05fdb19)">
     <use xlink:href="#m7f04267d81" x="62.221364" y="373.18098" style="fill: #ff7f0e; stroke: #ff7f0e"/>
     <use xlink:href="#m7f04267d81" x="63.181338" y="372.72174" style="fill: #ff7f0e; stroke: #ff7f0e"/>
     <use xlink:href="#m7f04267d81" x="64.141313" y="372.108568" style="fill: #ff7f0e; stroke: #ff7f0e"/>
     <use xlink:href="#m7f04267d81" x="65.101287" y="371.459646" style="fill: #ff7f0e; stroke: #ff7f0e"/>
     <use xlink:href="#m7f04267d81" x="66.061262" y="370.953513" style="fill: #ff7f0e; stroke: #ff7f0e"/>
     <use xlink:href="#m7f04267d81" x="70.861134" y="367.987427" style="fill: #ff7f0e; stroke: #ff7f0e"/>
     <use xlink:href="#m7f04267d81" x="75.661007" y="365.231083" style="fill: #ff7f0e; stroke: #ff7f0e"/>
     <use xlink:href="#m7f04267d81" x="80.460879" y="362.639989" style="fill: #ff7f0e; stroke: #ff7f0e"/>
     <use xlink:href="#m7f04267d81" x="85.260752" y="359.905429" style="fill: #ff7f0e; stroke: #ff7f0e"/>
     <use xlink:href="#m7f04267d81" x="109.260114" y="347.49526" style="fill: #ff7f0e; stroke: #ff7f0e"/>
     <use xlink:href="#m7f04267d81" x="133.259476" y="333.040139" style="fill: #ff7f0e; stroke: #ff7f0e"/>
     <use xlink:href="#m7f04267d81" x="157.258839" y="324.924114" style="fill: #ff7f0e; stroke: #ff7f0e"/>
     <use xlink:href="#m7f04267d81" x="181.258201" y="289.53758" style="fill: #ff7f0e; stroke: #ff7f0e"/>
     <use xlink:href="#m7f04267d81" x="205.257563" y="301.581706" style="fill: #ff7f0e; stroke: #ff7f0e"/>
     <use xlink:href="#m7f04267d81" x="229.256926" y="290.848198" style="fill: #ff7f0e; stroke: #ff7f0e"/>
     <use xlink:href="#m7f04267d81" x="253.256288" y="202.547585" style="fill: #ff7f0e; stroke: #ff7f0e"/>
     <use xlink:href="#m7f04267d81" x="349.253737" y="237.704076" style="fill: #ff7f0e; stroke: #ff7f0e"/>
     <use xlink:href="#m7f04267d81" x="445.251187" y="191.775102" style="fill: #ff7f0e; stroke: #ff7f0e"/>
     <use xlink:href="#m7f04267d81" x="541.248636" y="147.30607" style="fill: #ff7f0e; stroke: #ff7f0e"/>
    </g>
   </g>
   <g id="LineCollection_3">
    <path d="M 62.221364 373.47745 
L 62.221364 373.455159 
" clip-path="url(#p1be05fdb19)" style="fill: none; stroke: #2ca02c; stroke-width: 1.5"/>
    <path d="M 63.181338 372.902312 
L 63.181338 372.804375 
" clip-path="url(#p1be05fdb19)" style="fill: none; stroke: #2ca02c; stroke-width: 1.5"/>
    <path d="M 64.141313 372.447488 
L 64.141313 372.349577 
" clip-path="url(#p1be05fdb19)" style="fill: none; stroke: #2ca02c; stroke-width: 1.5"/>
    <path d="M 65.101287 371.89649 
L 65.101287 371.82728 
" clip-path="url(#p1be05fdb19)" style="fill: none; stroke: #2ca02c; stroke-width: 1.5"/>
    <path d="M 66.061262 371.381157 
L 66.061262 371.311151 
" clip-path="url(#p1be05fdb19)" style="fill: none; stroke: #2ca02c; stroke-width: 1.5"/>
    <path d="M 70.861134 368.759427 
L 70.861134 368.5507 
" clip-path="url(#p1be05fdb19)" style="fill: none; stroke: #2ca02c; stroke-width: 1.5"/>
    <path d="M 75.661007 366.285739 
L 75.661007 366.17835 
" clip-path="url(#p1be05fdb19)" style="fill: none; stroke: #2ca02c; stroke-width: 1.5"/>
    <path d="M 80.460879 363.870663 
L 80.460879 363.591396 
" clip-path="url(#p1be05fdb19)" style="fill: none; stroke: #2ca02c; stroke-width: 1.5"/>
    <path d="M 85.260752 361.494899 
L 85.260752 361.241161 
" clip-path="url(#p1be05fdb19)" style="fill: none; stroke: #2ca02c; stroke-width: 1.5"/>
    <path d="M 109.260114 350.268789 
L 109.260114 349.670622 
" clip-path="url(#p1be05fdb19)" style="fill: none; stroke: #2ca02c; stroke-width: 1.5"/>
    <path d="M 133.259476 340.006749 
L 133.259476 337.351948 
" clip-path="url(#p1be05fdb19)" style="fill: none; stroke: #2ca02c; stroke-width: 1.5"/>
    <path d="M 157.258839 330.377627 
L 157.258839 317.357433 
" clip-path="url(#p1be05fdb19)" style="fill: none; stroke: #2ca02c; stroke-width: 1.5"/>
    <path d="M 181.258201 319.697267 
L 181.258201 319.233136 
" clip-path="url(#p1be05fdb19)" style="fill: none; stroke: #2ca02c; stroke-width: 1.5"/>
    <path d="M 205.257563 267.956224 
L 205.257563 267.434744 
" clip-path="url(#p1be05fdb19)" style="fill: none; stroke: #2ca02c; stroke-width: 1.5"/>
    <path d="M 229.256926 298.171366 
L 229.256926 296.221217 
" clip-path="url(#p1be05fdb19)" style="fill: none; stroke: #2ca02c; stroke-width: 1.5"/>
    <path d="M 253.256288 288.385947 
L 253.256288 287.843558 
" clip-path="url(#p1be05fdb19)" style="fill: none; stroke: #2ca02c; stroke-width: 1.5"/>
    <path d="M 349.253737 247.038901 
L 349.253737 245.891435 
" clip-path="url(#p1be05fdb19)" style="fill: none; stroke: #2ca02c; stroke-width: 1.5"/>
    <path d="M 445.251187 203.878527 
L 445.251187 203.515999 
" clip-path="url(#p1be05fdb19)" style="fill: none; stroke: #2ca02c; stroke-width: 1.5"/>
    <path d="M 541.248636 160.794904 
L 541.248636 159.719128 
" clip-path="url(#p1be05fdb19)" style="fill: none; stroke: #2ca02c; stroke-width: 1.5"/>
   </g>
   <g id="line2d_17">
    <defs>
     <path id="mf3fc7103a7" d="M 3 0 
L -3 -0 
" style="stroke: #2ca02c"/>
    </defs>
    <g clip-path="url(#p1be05fdb19)">
     <use xlink:href="#mf3fc7103a7" x="62.221364" y="373.47745" style="fill: #2ca02c; stroke: #2ca02c"/>
     <use xlink:href="#mf3fc7103a7" x="63.181338" y="372.902312" style="fill: #2ca02c; stroke: #2ca02c"/>
     <use xlink:href="#mf3fc7103a7" x="64.141313" y="372.447488" style="fill: #2ca02c; stroke: #2ca02c"/>
     <use xlink:href="#mf3fc7103a7" x="65.101287" y="371.89649" style="fill: #2ca02c; stroke: #2ca02c"/>
     <use xlink:href="#mf3fc7103a7" x="66.061262" y="371.381157" style="fill: #2ca02c; stroke: #2ca02c"/>
     <use xlink:href="#mf3fc7103a7" x="70.861134" y="368.759427" style="fill: #2ca02c; stroke: #2ca02c"/>
     <use xlink:href="#mf3fc7103a7" x="75.661007" y="366.285739" style="fill: #2ca02c; stroke: #2ca02c"/>
     <use xlink:href="#mf3fc7103a7" x="80.460879" y="363.870663" style="fill: #2ca02c; stroke: #2ca02c"/>
     <use xlink:href="#mf3fc7103a7" x="85.260752" y="361.494899" style="fill: #2ca02c; stroke: #2ca02c"/>
     <use xlink:href="#mf3fc7103a7" x="109.260114" y="350.268789" style="fill: #2ca02c; stroke: #2ca02c"/>
     <use xlink:href="#mf3fc7103a7" x="133.259476" y="340.006749" style="fill: #2ca02c; stroke: #2ca02c"/>
     <use xlink:href="#mf3fc7103a7" x="157.258839" y="330.377627" style="fill: #2ca02c; stroke: #2ca02c"/>
     <use xlink:href="#mf3fc7103a7" x="181.258201" y="319.697267" style="fill: #2ca02c; stroke: #2ca02c"/>
     <use xlink:href="#mf3fc7103a7" x="205.257563" y="267.956224" style="fill: #2ca02c; stroke: #2ca02c"/>
     <use xlink:href="#mf3fc7103a7" x="229.256926" y="298.171366" style="fill: #2ca02c; stroke: #2ca02c"/>
     <use xlink:href="#mf3fc7103a7" x="253.256288" y="288.385947" style="fill: #2ca02c; stroke: #2ca02c"/>
     <use xlink:href="#mf3fc7103a7" x="349.253737" y="247.038901" style="fill: #2ca02c; stroke: #2ca02c"/>
     <use xlink:href="#mf3fc7103a7" x="445.251187" y="203.878527" style="fill: #2ca02c; stroke: #2ca02c"/>
     <use xlink:href="#mf3fc7103a7" x="541.248636" y="160.794904" style="fill: #2ca02c; stroke: #2ca02c"/>
    </g>
   </g>
   <g id="line2d_18">
    <g clip-path="url(#p1be05fdb19)">
     <use xlink:href="#mf3fc7103a7" x="62.221364" y="373.455159" style="fill: #2ca02c; stroke: #2ca02c"/>
     <use xlink:href="#mf3fc7103a7" x="63.181338" y="372.804375" style="fill: #2ca02c; stroke: #2ca02c"/>
     <use xlink:href="#mf3fc7103a7" x="64.141313" y="372.349577" style="fill: #2ca02c; stroke: #2ca02c"/>
     <use xlink:href="#mf3fc7103a7" x="65.101287" y="371.82728" style="fill: #2ca02c; stroke: #2ca02c"/>
     <use xlink:href="#mf3fc7103a7" x="66.061262" y="371.311151" style="fill: #2ca02c; stroke: #2ca02c"/>
     <use xlink:href="#mf3fc7103a7" x="70.861134" y="368.5507" style="fill: #2ca02c; stroke: #2ca02c"/>
     <use xlink:href="#mf3fc7103a7" x="75.661007" y="366.17835" style="fill: #2ca02c; stroke: #2ca02c"/>
     <use xlink:href="#mf3fc7103a7" x="80.460879" y="363.591396" style="fill: #2ca02c; stroke: #2ca02c"/>
     <use xlink:href="#mf3fc7103a7" x="85.260752" y="361.241161" style="fill: #2ca02c; stroke: #2ca02c"/>
     <use xlink:href="#mf3fc7103a7" x="109.260114" y="349.670622" style="fill: #2ca02c; stroke: #2ca02c"/>
     <use xlink:href="#mf3fc7103a7" x="133.259476" y="337.351948" style="fill: #2ca02c; stroke: #2ca02c"/>
     <use xlink:href="#mf3fc7103a7" x="157.258839" y="317.357433" style="fill: #2ca02c; stroke: #2ca02c"/>
     <use xlink:href="#mf3fc7103a7" x="181.258201" y="319.233136" style="fill: #2ca02c; stroke: #2ca02c"/>
     <use xlink:href="#mf3fc7103a7" x="205.257563" y="267.434744" style="fill: #2ca02c; stroke: #2ca02c"/>
     <use xlink:href="#mf3fc7103a7" x="229.256926" y="296.221217" style="fill: #2ca02c; stroke: #2ca02c"/>
     <use xlink:href="#mf3fc7103a7" x="253.256288" y="287.843558" style="fill: #2ca02c; stroke: #2ca02c"/>
     <use xlink:href="#mf3fc7103a7" x="349.253737" y="245.891435" style="fill: #2ca02c; stroke: #2ca02c"/>
     <use xlink:href="#mf3fc7103a7" x="445.251187" y="203.515999" style="fill: #2ca02c; stroke: #2ca02c"/>
     <use xlink:href="#mf3fc7103a7" x="541.248636" y="159.719128" style="fill: #2ca02c; stroke: #2ca02c"/>
    </g>
   </g>
   <g id="LineCollection_4">
    <path d="M 62.221364 373.532727 
L 62.221364 373.498761 
" clip-path="url(#p1be05fdb19)" style="fill: none; stroke: #d62728; stroke-width: 1.5"/>
    <path d="M 63.181338 372.791364 
L 63.181338 372.700495 
" clip-path="url(#p1be05fdb19)" style="fill: none; stroke: #d62728; stroke-width: 1.5"/>
    <path d="M 64.141313 371.97182 
L 64.141313 371.89495 
" clip-path="url(#p1be05fdb19)" style="fill: none; stroke: #d62728; stroke-width: 1.5"/>
    <path d="M 65.101287 371.131289 
L 65.101287 371.074228 
" clip-path="url(#p1be05fdb19)" style="fill: none; stroke: #d62728; stroke-width: 1.5"/>
    <path d="M 66.061262 370.362514 
L 66.061262 370.320992 
" clip-path="url(#p1be05fdb19)" style="fill: none; stroke: #d62728; stroke-width: 1.5"/>
    <path d="M 70.861134 366.245592 
L 70.861134 366.108996 
" clip-path="url(#p1be05fdb19)" style="fill: none; stroke: #d62728; stroke-width: 1.5"/>
    <path d="M 75.661007 362.23542 
L 75.661007 362.108275 
" clip-path="url(#p1be05fdb19)" style="fill: none; stroke: #d62728; stroke-width: 1.5"/>
    <path d="M 80.460879 358.287238 
L 80.460879 358.195744 
" clip-path="url(#p1be05fdb19)" style="fill: none; stroke: #d62728; stroke-width: 1.5"/>
    <path d="M 85.260752 354.127682 
L 85.260752 354.011263 
" clip-path="url(#p1be05fdb19)" style="fill: none; stroke: #d62728; stroke-width: 1.5"/>
    <path d="M 109.260114 334.642524 
L 109.260114 334.289316 
" clip-path="url(#p1be05fdb19)" style="fill: none; stroke: #d62728; stroke-width: 1.5"/>
    <path d="M 133.259476 315.707299 
L 133.259476 315.555967 
" clip-path="url(#p1be05fdb19)" style="fill: none; stroke: #d62728; stroke-width: 1.5"/>
    <path d="M 157.258839 297.63155 
L 157.258839 297.39826 
" clip-path="url(#p1be05fdb19)" style="fill: none; stroke: #d62728; stroke-width: 1.5"/>
    <path d="M 181.258201 279.739163 
L 181.258201 278.670035 
" clip-path="url(#p1be05fdb19)" style="fill: none; stroke: #d62728; stroke-width: 1.5"/>
    <path d="M 205.257563 261.30935 
L 205.257563 260.75853 
" clip-path="url(#p1be05fdb19)" style="fill: none; stroke: #d62728; stroke-width: 1.5"/>
    <path d="M 229.256926 243.172229 
L 229.256926 242.390291 
" clip-path="url(#p1be05fdb19)" style="fill: none; stroke: #d62728; stroke-width: 1.5"/>
    <path d="M 253.256288 226.278702 
L 253.256288 225.627253 
" clip-path="url(#p1be05fdb19)" style="fill: none; stroke: #d62728; stroke-width: 1.5"/>
    <path d="M 349.253737 156.807424 
L 349.253737 156.107332 
" clip-path="url(#p1be05fdb19)" style="fill: none; stroke: #d62728; stroke-width: 1.5"/>
    <path clip-path="url(#p1be05fdb19)" style="fill: none; stroke: #d62728; stroke-width: 1.5"/>
    <path clip-path="url(#p1be05fdb19)" style="fill: none; stroke: #d62728; stroke-width: 1.5"/>
   </g>
   <g id="line2d_19">
    <defs>
     <path id="mf91cc8dc79" d="M 3 0 
L -3 -0 
" style="stroke: #d62728"/>
    </defs>
    <g clip-path="url(#p1be05fdb19)">
     <use xlink:href="#mf91cc8dc79" x="62.221364" y="373.532727" style="fill: #d62728; stroke: #d62728"/>
     <use xlink:href="#mf91cc8dc79" x="63.181338" y="372.791364" style="fill: #d62728; stroke: #d62728"/>
     <use xlink:href="#mf91cc8dc79" x="64.141313" y="371.97182" style="fill: #d62728; stroke: #d62728"/>
     <use xlink:href="#mf91cc8dc79" x="65.101287" y="371.131289" style="fill: #d62728; stroke: #d62728"/>
     <use xlink:href="#mf91cc8dc79" x="66.061262" y="370.362514" style="fill: #d62728; stroke: #d62728"/>
     <use xlink:href="#mf91cc8dc79" x="70.861134" y="366.245592" style="fill: #d62728; stroke: #d62728"/>
     <use xlink:href="#mf91cc8dc79" x="75.661007" y="362.23542" style="fill: #d62728; stroke: #d62728"/>
     <use xlink:href="#mf91cc8dc79" x="80.460879" y="358.287238" style="fill: #d62728; stroke: #d62728"/>
     <use xlink:href="#mf91cc8dc79" x="85.260752" y="354.127682" style="fill: #d62728; stroke: #d62728"/>
     <use xlink:href="#mf91cc8dc79" x="109.260114" y="334.642524" style="fill: #d62728; stroke: #d62728"/>
     <use xlink:href="#mf91cc8dc79" x="133.259476" y="315.707299" style="fill: #d62728; stroke: #d62728"/>
     <use xlink:href="#mf91cc8dc79" x="157.258839" y="297.63155" style="fill: #d62728; stroke: #d62728"/>
     <use xlink:href="#mf91cc8dc79" x="181.258201" y="279.739163" style="fill: #d62728; stroke: #d62728"/>
     <use xlink:href="#mf91cc8dc79" x="205.257563" y="261.30935" style="fill: #d62728; stroke: #d62728"/>
     <use xlink:href="#mf91cc8dc79" x="229.256926" y="243.172229" style="fill: #d62728; stroke: #d62728"/>
     <use xlink:href="#mf91cc8dc79" x="253.256288" y="226.278702" style="fill: #d62728; stroke: #d62728"/>
     <use xlink:href="#mf91cc8dc79" x="349.253737" y="156.807424" style="fill: #d62728; stroke: #d62728"/>
    </g>
   </g>
   <g id="line2d_20">
    <g clip-path="url(#p1be05fdb19)">
     <use xlink:href="#mf91cc8dc79" x="62.221364" y="373.498761" style="fill: #d62728; stroke: #d62728"/>
     <use xlink:href="#mf91cc8dc79" x="63.181338" y="372.700495" style="fill: #d62728; stroke: #d62728"/>
     <use xlink:href="#mf91cc8dc79" x="64.141313" y="371.89495" style="fill: #d62728; stroke: #d62728"/>
     <use xlink:href="#mf91cc8dc79" x="65.101287" y="371.074228" style="fill: #d62728; stroke: #d62728"/>
     <use xlink:href="#mf91cc8dc79" x="66.061262" y="370.320992" style="fill: #d62728; stroke: #d62728"/>
     <use xlink:href="#mf91cc8dc79" x="70.861134" y="366.108996" style="fill: #d62728; stroke: #d62728"/>
     <use xlink:href="#mf91cc8dc79" x="75.661007" y="362.108275" style="fill: #d62728; stroke: #d62728"/>
     <use xlink:href="#mf91cc8dc79" x="80.460879" y="358.195744" style="fill: #d62728; stroke: #d62728"/>
     <use xlink:href="#mf91cc8dc79" x="85.260752" y="354.011263" style="fill: #d62728; stroke: #d62728"/>
     <use xlink:href="#mf91cc8dc79" x="109.260114" y="334.289316" style="fill: #d62728; stroke: #d62728"/>
     <use xlink:href="#mf91cc8dc79" x="133.259476" y="315.555967" style="fill: #d62728; stroke: #d62728"/>
     <use xlink:href="#mf91cc8dc79" x="157.258839" y="297.39826" style="fill: #d62728; stroke: #d62728"/>
     <use xlink:href="#mf91cc8dc79" x="181.258201" y="278.670035" style="fill: #d62728; stroke: #d62728"/>
     <use xlink:href="#mf91cc8dc79" x="205.257563" y="260.75853" style="fill: #d62728; stroke: #d62728"/>
     <use xlink:href="#mf91cc8dc79" x="229.256926" y="242.390291" style="fill: #d62728; stroke: #d62728"/>
     <use xlink:href="#mf91cc8dc79" x="253.256288" y="225.627253" style="fill: #d62728; stroke: #d62728"/>
     <use xlink:href="#mf91cc8dc79" x="349.253737" y="156.107332" style="fill: #d62728; stroke: #d62728"/>
    </g>
   </g>
   <g id="LineCollection_5">
    <path d="M 62.221364 373.046957 
L 62.221364 373.015874 
" clip-path="url(#p1be05fdb19)" style="fill: none; stroke: #9467bd; stroke-width: 1.5"/>
    <path d="M 63.181338 370.189674 
L 63.181338 361.994351 
" clip-path="url(#p1be05fdb19)" style="fill: none; stroke: #9467bd; stroke-width: 1.5"/>
    <path d="M 64.141313 366.064256 
L 64.141313 366.028954 
" clip-path="url(#p1be05fdb19)" style="fill: none; stroke: #9467bd; stroke-width: 1.5"/>
    <path d="M 65.101287 359.913438 
L 65.101287 359.173931 
" clip-path="url(#p1be05fdb19)" style="fill: none; stroke: #9467bd; stroke-width: 1.5"/>
    <path d="M 66.061262 352.393436 
L 66.061262 350.884626 
" clip-path="url(#p1be05fdb19)" style="fill: none; stroke: #9467bd; stroke-width: 1.5"/>
    <path d="M 70.861134 287.865737 
L 70.861134 285.401618 
" clip-path="url(#p1be05fdb19)" style="fill: none; stroke: #9467bd; stroke-width: 1.5"/>
    <path clip-path="url(#p1be05fdb19)" style="fill: none; stroke: #9467bd; stroke-width: 1.5"/>
    <path clip-path="url(#p1be05fdb19)" style="fill: none; stroke: #9467bd; stroke-width: 1.5"/>
    <path clip-path="url(#p1be05fdb19)" style="fill: none; stroke: #9467bd; stroke-width: 1.5"/>
    <path clip-path="url(#p1be05fdb19)" style="fill: none; stroke: #9467bd; stroke-width: 1.5"/>
    <path clip-path="url(#p1be05fdb19)" style="fill: none; stroke: #9467bd; stroke-width: 1.5"/>
    <path clip-path="url(#p1be05fdb19)" style="fill: none; stroke: #9467bd; stroke-width: 1.5"/>
    <path clip-path="url(#p1be05fdb19)" style="fill: none; stroke: #9467bd; stroke-width: 1.5"/>
    <path clip-path="url(#p1be05fdb19)" style="fill: none; stroke: #9467bd; stroke-width: 1.5"/>
    <path clip-path="url(#p1be05fdb19)" style="fill: none; stroke: #9467bd; stroke-width: 1.5"/>
    <path clip-path="url(#p1be05fdb19)" style="fill: none; stroke: #9467bd; stroke-width: 1.5"/>
    <path clip-path="url(#p1be05fdb19)" style="fill: none; stroke: #9467bd; stroke-width: 1.5"/>
    <path clip-path="url(#p1be05fdb19)" style="fill: none; stroke: #9467bd; stroke-width: 1.5"/>
    <path clip-path="url(#p1be05fdb19)" style="fill: none; stroke: #9467bd; stroke-width: 1.5"/>
   </g>
   <g id="line2d_21">
    <defs>
     <path id="m0cb540596a" d="M 3 0 
L -3 -0 
" style="stroke: #9467bd"/>
    </defs>
    <g clip-path="url(#p1be05fdb19)">
     <use xlink:href="#m0cb540596a" x="62.221364" y="373.046957" style="fill: #9467bd; stroke: #9467bd"/>
     <use xlink:href="#m0cb540596a" x="63.181338" y="370.189674" style="fill: #9467bd; stroke: #9467bd"/>
     <use xlink:href="#m0cb540596a" x="64.141313" y="366.064256" style="fill: #9467bd; stroke: #9467bd"/>
     <use xlink:href="#m0cb540596a" x="65.101287" y="359.913438" style="fill: #9467bd; stroke: #9467bd"/>
     <use xlink:href="#m0cb540596a" x="66.061262" y="352.393436" style="fill: #9467bd; stroke: #9467bd"/>
     <use xlink:href="#m0cb540596a" x="70.861134" y="287.865737" style="fill: #9467bd; stroke: #9467bd"/>
    </g>
   </g>
   <g id="line2d_22">
    <g clip-path="url(#p1be05fdb19)">
     <use xlink:href="#m0cb540596a" x="62.221364" y="373.015874" style="fill: #9467bd; stroke: #9467bd"/>
     <use xlink:href="#m0cb540596a" x="63.181338" y="361.994351" style="fill: #9467bd; stroke: #9467bd"/>
     <use xlink:href="#m0cb540596a" x="64.141313" y="366.028954" style="fill: #9467bd; stroke: #9467bd"/>
     <use xlink:href="#m0cb540596a" x="65.101287" y="359.173931" style="fill: #9467bd; stroke: #9467bd"/>
     <use xlink:href="#m0cb540596a" x="66.061262" y="350.884626" style="fill: #9467bd; stroke: #9467bd"/>
     <use xlink:href="#m0cb540596a" x="70.861134" y="285.401618" style="fill: #9467bd; stroke: #9467bd"/>
    </g>
   </g>
   <g id="line2d_23">
    <path d="M 62.221364 373.339797 
L 63.181338 372.791686 
L 64.141313 372.189512 
L 65.101287 371.632387 
L 66.061262 371.016732 
L 70.861134 368.094148 
L 75.661007 365.30342 
L 80.460879 362.587213 
L 85.260752 359.840189 
L 109.260114 347.206144 
L 133.259476 245.104424 
L 157.258839 314.533604 
L 181.258201 310.283409 
L 205.257563 267.578349 
L 229.256926 282.630004 
L 253.256288 269.863178 
L 349.253737 158.312019 
L 445.251187 156.286204 
L 541.248636 97.547122 
" clip-path="url(#p1be05fdb19)" style="fill: none; stroke: #1f77b4; stroke-width: 1.5; stroke-linecap: square"/>
   </g>
   <g id="line2d_24">
    <path d="M 62.221364 373.253373 
L 63.181338 372.730067 
L 64.141313 372.147701 
L 65.101287 371.511623 
L 66.061262 370.966564 
L 70.861134 368.065043 
L 75.661007 365.297752 
L 80.460879 362.715841 
L 85.260752 359.955226 
L 109.260114 347.575864 
L 133.259476 333.323047 
L 157.258839 325.088497 
L 181.258201 306.557166 
L 205.257563 302.874757 
L 229.256926 291.107202 
L 253.256288 254.800325 
L 349.253737 238.027999 
L 445.251187 192.608091 
L 541.248636 147.814637 
" clip-path="url(#p1be05fdb19)" style="fill: none; stroke: #ff7f0e; stroke-width: 1.5; stroke-linecap: square"/>
   </g>
   <g id="line2d_25">
    <path d="M 62.221364 373.463057 
L 63.181338 372.867703 
L 64.141313 372.406475 
L 65.101287 371.864731 
L 66.061262 371.351734 
L 70.861134 368.653437 
L 75.661007 366.231938 
L 80.460879 363.774435 
L 85.260752 361.384591 
L 109.260114 349.966892 
L 133.259476 339.021028 
L 157.258839 321.922853 
L 181.258201 319.507839 
L 205.257563 267.708505 
L 229.256926 297.336485 
L 253.256288 288.034247 
L 349.253737 246.282353 
L 445.251187 203.650914 
L 541.248636 160.433493 
" clip-path="url(#p1be05fdb19)" style="fill: none; stroke: #2ca02c; stroke-width: 1.5; stroke-linecap: square"/>
   </g>
   <g id="line2d_26">
    <path d="M 62.221364 373.518827 
L 63.181338 372.759545 
L 64.141313 371.94539 
L 65.101287 371.101214 
L 66.061262 370.334833 
L 70.861134 366.167654 
L 75.661007 362.187633 
L 80.460879 358.245939 
L 85.260752 354.060137 
L 109.260114 334.46624 
L 133.259476 315.616689 
L 157.258839 297.53463 
L 181.258201 279.170155 
L 205.257563 261.070729 
L 229.256926 242.813306 
L 253.256288 226.033375 
L 349.253737 156.500781 
" clip-path="url(#p1be05fdb19)" style="fill: none; stroke: #d62728; stroke-width: 1.5; stroke-linecap: square"/>
   </g>
   <g id="line2d_27">
    <path d="M 62.221364 373.036515 
L 63.181338 367.452012 
L 64.141313 366.050701 
L 65.101287 359.430134 
L 66.061262 351.877838 
L 70.861134 286.502208 
" clip-path="url(#p1be05fdb19)" style="fill: none; stroke: #9467bd; stroke-width: 1.5; stroke-linecap: square"/>
   </g>
   <g id="patch_3">
    <path d="M 38.27 390.04 
L 38.27 26.88 
" style="fill: none; stroke: #000000; stroke-width: 0.8; stroke-linejoin: miter; stroke-linecap: square"/>
   </g>
   <g id="patch_4">
    <path d="M 565.2 390.04 
L 565.2 26.88 
" style="fill: none; stroke: #000000; stroke-width: 0.8; stroke-linejoin: miter; stroke-linecap: square"/>
   </g>
   <g id="patch_5">
    <path d="M 38.27 390.04 
L 565.2 390.04 
" style="fill: none; stroke: #000000; stroke-width: 0.8; stroke-linejoin: miter; stroke-linecap: square"/>
   </g>
   <g id="patch_6">
    <path d="M 38.27 26.88 
L 565.2 26.88 
" style="fill: none; stroke: #000000; stroke-width: 0.8; stroke-linejoin: miter; stroke-linecap: square"/>
   </g>
   <g id="text_16">
    <!-- Rust implementations of Bron-Kerbosch Ver3-GP on a random graph of order 1M -->
    <g transform="translate(38.27 20.88)scale(0.12 -0.12)">
     <defs>
      <path id="DejaVuSans-52" d="M 2841 2188 
Q 3044 2119 3236 1894 
Q 3428 1669 3622 1275 
L 4263 0 
L 3584 0 
L 2988 1197 
Q 2756 1666 2539 1819 
Q 2322 1972 1947 1972 
L 1259 1972 
L 1259 0 
L 628 0 
L 628 4666 
L 2053 4666 
Q 2853 4666 3247 4331 
Q 3641 3997 3641 3322 
Q 3641 2881 3436 2590 
Q 3231 2300 2841 2188 
z
M 1259 4147 
L 1259 2491 
L 2053 2491 
Q 2509 2491 2742 2702 
Q 2975 2913 2975 3322 
Q 2975 3731 2742 3939 
Q 2509 4147 2053 4147 
L 1259 4147 
z
" transform="scale(0.015625)"/>
      <path id="DejaVuSans-75" d="M 544 1381 
L 544 3500 
L 1119 3500 
L 1119 1403 
Q 1119 906 1312 657 
Q 1506 409 1894 409 
Q 2359 409 2629 706 
Q 2900 1003 2900 1516 
L 2900 3500 
L 3475 3500 
L 3475 0 
L 2900 0 
L 2900 538 
Q 2691 219 2414 64 
Q 2138 -91 1772 -91 
Q 1169 -91 856 284 
Q 544 659 544 1381 
z
M 1991 3584 
L 1991 3584 
z
" transform="scale(0.015625)"/>
      <path id="DejaVuSans-6d" d="M 3328 2828 
Q 3544 3216 3844 3400 
Q 4144 3584 4550 3584 
Q 5097 3584 5394 3201 
Q 5691 2819 5691 2113 
L 5691 0 
L 5113 0 
L 5113 2094 
Q 5113 2597 4934 2840 
Q 4756 3084 4391 3084 
Q 3944 3084 3684 2787 
Q 3425 2491 3425 1978 
L 3425 0 
L 2847 0 
L 2847 2094 
Q 2847 2600 2669 2842 
Q 2491 3084 2119 3084 
Q 1678 3084 1418 2786 
Q 1159 2488 1159 1978 
L 1159 0 
L 581 0 
L 581 3500 
L 1159 3500 
L 1159 2956 
Q 1356 3278 1631 3431 
Q 1906 3584 2284 3584 
Q 2666 3584 2933 3390 
Q 3200 3197 3328 2828 
z
" transform="scale(0.015625)"/>
      <path id="DejaVuSans-6c" d="M 603 4863 
L 1178 4863 
L 1178 0 
L 603 0 
L 603 4863 
z
" transform="scale(0.015625)"/>
      <path id="DejaVuSans-61" d="M 2194 1759 
Q 1497 1759 1228 1600 
Q 959 1441 959 1056 
Q 959 750 1161 570 
Q 1363 391 1709 391 
Q 2188 391 2477 730 
Q 2766 1069 2766 1631 
L 2766 1759 
L 2194 1759 
z
M 3341 1997 
L 3341 0 
L 2766 0 
L 2766 531 
Q 2569 213 2275 61 
Q 1981 -91 1556 -91 
Q 1019 -91 701 211 
Q 384 513 384 1019 
Q 384 1609 779 1909 
Q 1175 2209 1959 2209 
L 2766 2209 
L 2766 2266 
Q 2766 2663 2505 2880 
Q 2244 3097 1772 3097 
Q 1472 3097 1187 3025 
Q 903 2953 641 2809 
L 641 3341 
Q 956 3463 1253 3523 
Q 1550 3584 1831 3584 
Q 2591 3584 2966 3190 
Q 3341 2797 3341 1997 
z
" transform="scale(0.015625)"/>
      <path id="DejaVuSans-66" d="M 2375 4863 
L 2375 4384 
L 1825 4384 
Q 1516 4384 1395 4259 
Q 1275 4134 1275 3809 
L 1275 3500 
L 2222 3500 
L 2222 3053 
L 1275 3053 
L 1275 0 
L 697 0 
L 697 3053 
L 147 3053 
L 147 3500 
L 697 3500 
L 697 3744 
Q 697 4328 969 4595 
Q 1241 4863 1831 4863 
L 2375 4863 
z
" transform="scale(0.015625)"/>
      <path id="DejaVuSans-42" d="M 1259 2228 
L 1259 519 
L 2272 519 
Q 2781 519 3026 730 
Q 3272 941 3272 1375 
Q 3272 1813 3026 2020 
Q 2781 2228 2272 2228 
L 1259 2228 
z
M 1259 4147 
L 1259 2741 
L 2194 2741 
Q 2656 2741 2882 2914 
Q 3109 3088 3109 3444 
Q 3109 3797 2882 3972 
Q 2656 4147 2194 4147 
L 1259 4147 
z
M 628 4666 
L 2241 4666 
Q 2963 4666 3353 4366 
Q 3744 4066 3744 3513 
Q 3744 3084 3544 2831 
Q 3344 2578 2956 2516 
Q 3422 2416 3680 2098 
Q 3938 1781 3938 1306 
Q 3938 681 3513 340 
Q 3088 0 2303 0 
L 628 0 
L 628 4666 
z
" transform="scale(0.015625)"/>
      <path id="DejaVuSans-72" d="M 2631 2963 
Q 2534 3019 2420 3045 
Q 2306 3072 2169 3072 
Q 1681 3072 1420 2755 
Q 1159 2438 1159 1844 
L 1159 0 
L 581 0 
L 581 3500 
L 1159 3500 
L 1159 2956 
Q 1341 3275 1631 3429 
Q 1922 3584 2338 3584 
Q 2397 3584 2469 3576 
Q 2541 3569 2628 3553 
L 2631 2963 
z
" transform="scale(0.015625)"/>
      <path id="DejaVuSans-2d" d="M 313 2009 
L 1997 2009 
L 1997 1497 
L 313 1497 
L 313 2009 
z
" transform="scale(0.015625)"/>
      <path id="DejaVuSans-4b" d="M 628 4666 
L 1259 4666 
L 1259 2694 
L 3353 4666 
L 4166 4666 
L 1850 2491 
L 4331 0 
L 3500 0 
L 1259 2247 
L 1259 0 
L 628 0 
L 628 4666 
z
" transform="scale(0.015625)"/>
      <path id="DejaVuSans-62" d="M 3116 1747 
Q 3116 2381 2855 2742 
Q 2594 3103 2138 3103 
Q 1681 3103 1420 2742 
Q 1159 2381 1159 1747 
Q 1159 1113 1420 752 
Q 1681 391 2138 391 
Q 2594 391 2855 752 
Q 3116 1113 3116 1747 
z
M 1159 2969 
Q 1341 3281 1617 3432 
Q 1894 3584 2278 3584 
Q 2916 3584 3314 3078 
Q 3713 2572 3713 1747 
Q 3713 922 3314 415 
Q 2916 -91 2278 -91 
Q 1894 -91 1617 61 
Q 1341 213 1159 525 
L 1159 0 
L 581 0 
L 581 4863 
L 1159 4863 
L 1159 2969 
z
" transform="scale(0.015625)"/>
      <path id="DejaVuSans-68" d="M 3513 2113 
L 3513 0 
L 2938 0 
L 2938 2094 
Q 2938 2591 2744 2837 
Q 2550 3084 2163 3084 
Q 1697 3084 1428 2787 
Q 1159 2491 1159 1978 
L 1159 0 
L 581 0 
L 581 4863 
L 1159 4863 
L 1159 2956 
Q 1366 3272 1645 3428 
Q 1925 3584 2291 3584 
Q 2894 3584 3203 3211 
Q 3513 2838 3513 2113 
z
" transform="scale(0.015625)"/>
      <path id="DejaVuSans-56" d="M 1831 0 
L 50 4666 
L 709 4666 
L 2188 738 
L 3669 4666 
L 4325 4666 
L 2547 0 
L 1831 0 
z
" transform="scale(0.015625)"/>
      <path id="DejaVuSans-bd" d="M 488 2431 
L 1125 2431 
L 1125 4341 
L 428 4213 
L 428 4575 
L 1147 4697 
L 1575 4697 
L 1575 2431 
L 2216 2431 
L 2216 2088 
L 488 2088 
L 488 2431 
z
M 4470 332 
L 5795 332 
L 5795 -24 
L 3926 -24 
L 3926 319 
Q 4032 416 4229 591 
Q 5304 1544 5304 1838 
Q 5304 2044 5141 2170 
Q 4979 2297 4713 2297 
Q 4551 2297 4360 2242 
Q 4170 2188 3945 2079 
L 3945 2463 
Q 4185 2551 4393 2594 
Q 4601 2638 4779 2638 
Q 5232 2638 5504 2432 
Q 5776 2226 5776 1888 
Q 5776 1454 4741 566 
Q 4566 416 4470 332 
z
M 4309 4750 
L 4809 4750 
L 1896 -91 
L 1396 -91 
L 4309 4750 
z
" transform="scale(0.015625)"/>
      <path id="DejaVuSans-47" d="M 3809 666 
L 3809 1919 
L 2778 1919 
L 2778 2438 
L 4434 2438 
L 4434 434 
Q 4069 175 3628 42 
Q 3188 -91 2688 -91 
Q 1594 -91 976 548 
Q 359 1188 359 2328 
Q 359 3472 976 4111 
Q 1594 4750 2688 4750 
Q 3144 4750 3555 4637 
Q 3966 4525 4313 4306 
L 4313 3634 
Q 3963 3931 3569 4081 
Q 3175 4231 2741 4231 
Q 1884 4231 1454 3753 
Q 1025 3275 1025 2328 
Q 1025 1384 1454 906 
Q 1884 428 2741 428 
Q 3075 428 3337 486 
Q 3600 544 3809 666 
z
" transform="scale(0.015625)"/>
      <path id="DejaVuSans-50" d="M 1259 4147 
L 1259 2394 
L 2053 2394 
Q 2494 2394 2734 2622 
Q 2975 2850 2975 3272 
Q 2975 3691 2734 3919 
Q 2494 4147 2053 4147 
L 1259 4147 
z
M 628 4666 
L 2053 4666 
Q 2838 4666 3239 4311 
Q 3641 3956 3641 3272 
Q 3641 2581 3239 2228 
Q 2838 1875 2053 1875 
L 1259 1875 
L 1259 0 
L 628 0 
L 628 4666 
z
" transform="scale(0.015625)"/>
      <path id="DejaVuSans-4d" d="M 628 4666 
L 1569 4666 
L 2759 1491 
L 3956 4666 
L 4897 4666 
L 4897 0 
L 4281 0 
L 4281 4097 
L 3078 897 
L 2444 897 
L 1241 4097 
L 1241 0 
L 628 0 
L 628 4666 
z
" transform="scale(0.015625)"/>
     </defs>
     <use xlink:href="#DejaVuSans-52"/>
     <use xlink:href="#DejaVuSans-75" x="64.982422"/>
     <use xlink:href="#DejaVuSans-73" x="128.361328"/>
     <use xlink:href="#DejaVuSans-74" x="180.460938"/>
     <use xlink:href="#DejaVuSans-20" x="219.669922"/>
     <use xlink:href="#DejaVuSans-69" x="251.457031"/>
     <use xlink:href="#DejaVuSans-6d" x="279.240234"/>
     <use xlink:href="#DejaVuSans-70" x="376.652344"/>
     <use xlink:href="#DejaVuSans-6c" x="440.128906"/>
     <use xlink:href="#DejaVuSans-65" x="467.912109"/>
     <use xlink:href="#DejaVuSans-6d" x="529.435547"/>
     <use xlink:href="#DejaVuSans-65" x="626.847656"/>
     <use xlink:href="#DejaVuSans-6e" x="688.371094"/>
     <use xlink:href="#DejaVuSans-74" x="751.75"/>
     <use xlink:href="#DejaVuSans-61" x="790.958984"/>
     <use xlink:href="#DejaVuSans-74" x="852.238281"/>
     <use xlink:href="#DejaVuSans-69" x="891.447266"/>
     <use xlink:href="#DejaVuSans-6f" x="919.230469"/>
     <use xlink:href="#DejaVuSans-6e" x="980.412109"/>
     <use xlink:href="#DejaVuSans-73" x="1043.791016"/>
     <use xlink:href="#DejaVuSans-20" x="1095.890625"/>
     <use xlink:href="#DejaVuSans-6f" x="1127.677734"/>
     <use xlink:href="#DejaVuSans-66" x="1188.859375"/>
     <use xlink:href="#DejaVuSans-20" x="1224.064453"/>
     <use xlink:href="#DejaVuSans-42" x="1255.851562"/>
     <use xlink:href="#DejaVuSans-72" x="1324.455078"/>
     <use xlink:href="#DejaVuSans-6f" x="1363.318359"/>
     <use xlink:href="#DejaVuSans-6e" x="1424.5"/>
     <use xlink:href="#DejaVuSans-2d" x="1487.878906"/>
     <use xlink:href="#DejaVuSans-4b" x="1523.962891"/>
     <use xlink:href="#DejaVuSans-65" x="1584.539062"/>
     <use xlink:href="#DejaVuSans-72" x="1646.0625"/>
     <use xlink:href="#DejaVuSans-62" x="1687.175781"/>
     <use xlink:href="#DejaVuSans-6f" x="1750.652344"/>
     <use xlink:href="#DejaVuSans-73" x="1811.833984"/>
     <use xlink:href="#DejaVuSans-63" x="1863.933594"/>
     <use xlink:href="#DejaVuSans-68" x="1918.914062"/>
     <use xlink:href="#DejaVuSans-20" x="1982.292969"/>
     <use xlink:href="#DejaVuSans-56" x="2014.080078"/>
     <use xlink:href="#DejaVuSans-65" x="2074.738281"/>
     <use xlink:href="#DejaVuSans-72" x="2136.261719"/>
     <use xlink:href="#DejaVuSans-33" x="2177.375"/>
     <use xlink:href="#DejaVuSans-bd" x="2240.998047"/>
     <use xlink:href="#DejaVuSans-2d" x="2337.921875"/>
     <use xlink:href="#DejaVuSans-47" x="2377.630859"/>
     <use xlink:href="#DejaVuSans-50" x="2455.121094"/>
     <use xlink:href="#DejaVuSans-20" x="2515.423828"/>
     <use xlink:href="#DejaVuSans-6f" x="2547.210938"/>
     <use xlink:href="#DejaVuSans-6e" x="2608.392578"/>
     <use xlink:href="#DejaVuSans-20" x="2671.771484"/>
     <use xlink:href="#DejaVuSans-61" x="2703.558594"/>
     <use xlink:href="#DejaVuSans-20" x="2764.837891"/>
     <use xlink:href="#DejaVuSans-72" x="2796.625"/>
     <use xlink:href="#DejaVuSans-61" x="2837.738281"/>
     <use xlink:href="#DejaVuSans-6e" x="2899.017578"/>
     <use xlink:href="#DejaVuSans-64" x="2962.396484"/>
     <use xlink:href="#DejaVuSans-6f" x="3025.873047"/>
     <use xlink:href="#DejaVuSans-6d" x="3087.054688"/>
     <use xlink:href="#DejaVuSans-20" x="3184.466797"/>
     <use xlink:href="#DejaVuSans-67" x="3216.253906"/>
     <use xlink:href="#DejaVuSans-72" x="3279.730469"/>
     <use xlink:href="#DejaVuSans-61" x="3320.84375"/>
     <use xlink:href="#DejaVuSans-70" x="3382.123047"/>
     <use xlink:href="#DejaVuSans-68" x="3445.599609"/>
     <use xlink:href="#DejaVuSans-20" x="3508.978516"/>
     <use xlink:href="#DejaVuSans-6f" x="3540.765625"/>
     <use xlink:href="#DejaVuSans-66" x="3601.947266"/>
     <use xlink:href="#DejaVuSans-20" x="3637.152344"/>
     <use xlink:href="#DejaVuSans-6f" x="3668.939453"/>
     <use xlink:href="#DejaVuSans-72" x="3730.121094"/>
     <use xlink:href="#DejaVuSans-64" x="3769.484375"/>
     <use xlink:href="#DejaVuSans-65" x="3832.960938"/>
     <use xlink:href="#DejaVuSans-72" x="3894.484375"/>
     <use xlink:href="#DejaVuSans-20" x="3935.597656"/>
     <use xlink:href="#DejaVuSans-31" x="3967.384766"/>
     <use xlink:href="#DejaVuSans-4d" x="4031.007812"/>
    </g>
   </g>
   <g id="legend_1">
    <g id="patch_7">
     <path d="M 45.27 108.54875 
L 132.15125 108.54875 
Q 134.15125 108.54875 134.15125 106.54875 
L 134.15125 33.88 
Q 134.15125 31.88 132.15125 31.88 
L 45.27 31.88 
Q 43.27 31.88 43.27 33.88 
L 43.27 106.54875 
Q 43.27 108.54875 45.27 108.54875 
z
" style="fill: #ffffff; opacity: 0.8; stroke: #cccccc; stroke-linejoin: miter"/>
    </g>
    <g id="LineCollection_6">
     <path d="M 57.27 44.978437 
L 57.27 34.978437 
" style="fill: none; stroke: #1f77b4; stroke-width: 1.5"/>
    </g>
    <g id="line2d_28">
     <g>
      <use xlink:href="#md8547b9e7e" x="57.27" y="44.978437" style="fill: #1f77b4; stroke: #1f77b4"/>
     </g>
    </g>
    <g id="line2d_29">
     <g>
      <use xlink:href="#md8547b9e7e" x="57.27" y="34.978437" style="fill: #1f77b4; stroke: #1f77b4"/>
     </g>
    </g>
    <g id="line2d_30">
     <path d="M 47.27 39.978437 
L 67.27 39.978437 
" style="fill: none; stroke: #1f77b4; stroke-width: 1.5; stroke-linecap: square"/>
    </g>
    <g id="line2d_31"/>
    <g id="text_17">
     <!-- Hash -->
     <g transform="translate(75.27 43.478437)scale(0.1 -0.1)">
      <defs>
       <path id="DejaVuSans-48" d="M 628 4666 
L 1259 4666 
L 1259 2753 
L 3553 2753 
L 3553 4666 
L 4184 4666 
L 4184 0 
L 3553 0 
L 3553 2222 
L 1259 2222 
L 1259 0 
L 628 0 
L 628 4666 
z
" transform="scale(0.015625)"/>
      </defs>
      <use xlink:href="#DejaVuSans-48"/>
      <use xlink:href="#DejaVuSans-61" x="75.195312"/>
      <use xlink:href="#DejaVuSans-73" x="136.474609"/>
      <use xlink:href="#DejaVuSans-68" x="188.574219"/>
     </g>
    </g>
    <g id="LineCollection_7">
     <path d="M 57.27 59.656563 
L 57.27 49.656563 
" style="fill: none; stroke: #ff7f0e; stroke-width: 1.5"/>
    </g>
    <g id="line2d_32">
     <g>
      <use xlink:href="#m7f04267d81" x="57.27" y="59.656563" style="fill: #ff7f0e; stroke: #ff7f0e"/>
     </g>
    </g>
    <g id="line2d_33">
     <g>
      <use xlink:href="#m7f04267d81" x="57.27" y="49.656563" style="fill: #ff7f0e; stroke: #ff7f0e"/>
     </g>
    </g>
    <g id="line2d_34">
     <path d="M 47.27 54.656563 
L 67.27 54.656563 
" style="fill: none; stroke: #ff7f0e; stroke-width: 1.5; stroke-linecap: square"/>
    </g>
    <g id="line2d_35"/>
    <g id="text_18">
     <!-- hashbrown -->
     <g transform="translate(75.27 58.156563)scale(0.1 -0.1)">
      <defs>
       <path id="DejaVuSans-77" d="M 269 3500 
L 844 3500 
L 1563 769 
L 2278 3500 
L 2956 3500 
L 3675 769 
L 4391 3500 
L 4966 3500 
L 4050 0 
L 3372 0 
L 2619 2869 
L 1863 0 
L 1184 0 
L 269 3500 
z
" transform="scale(0.015625)"/>
      </defs>
      <use xlink:href="#DejaVuSans-68"/>
      <use xlink:href="#DejaVuSans-61" x="63.378906"/>
      <use xlink:href="#DejaVuSans-73" x="124.658203"/>
      <use xlink:href="#DejaVuSans-68" x="176.757812"/>
      <use xlink:href="#DejaVuSans-62" x="240.136719"/>
      <use xlink:href="#DejaVuSans-72" x="303.613281"/>
      <use xlink:href="#DejaVuSans-6f" x="342.476562"/>
      <use xlink:href="#DejaVuSans-77" x="403.658203"/>
      <use xlink:href="#DejaVuSans-6e" x="485.445312"/>
     </g>
    </g>
    <g id="LineCollection_8">
     <path d="M 57.27 74.334687 
L 57.27 64.334687 
" style="fill: none; stroke: #2ca02c; stroke-width: 1.5"/>
    </g>
    <g id="line2d_36">
     <g>
      <use xlink:href="#mf3fc7103a7" x="57.27" y="74.334687" style="fill: #2ca02c; stroke: #2ca02c"/>
     </g>
    </g>
    <g id="line2d_37">
     <g>
      <use xlink:href="#mf3fc7103a7" x="57.27" y="64.334687" style="fill: #2ca02c; stroke: #2ca02c"/>
     </g>
    </g>
    <g id="line2d_38">
     <path d="M 47.27 69.334687 
L 67.27 69.334687 
" style="fill: none; stroke: #2ca02c; stroke-width: 1.5; stroke-linecap: square"/>
    </g>
    <g id="line2d_39"/>
    <g id="text_19">
     <!-- fnv -->
     <g transform="translate(75.27 72.834687)scale(0.1 -0.1)">
      <defs>
       <path id="DejaVuSans-76" d="M 191 3500 
L 800 3500 
L 1894 563 
L 2988 3500 
L 3597 3500 
L 2284 0 
L 1503 0 
L 191 3500 
z
" transform="scale(0.015625)"/>
      </defs>
      <use xlink:href="#DejaVuSans-66"/>
      <use xlink:href="#DejaVuSans-6e" x="35.205078"/>
      <use xlink:href="#DejaVuSans-76" x="98.583984"/>
     </g>
    </g>
    <g id="LineCollection_9">
     <path d="M 57.27 89.012812 
L 57.27 79.012812 
" style="fill: none; stroke: #d62728; stroke-width: 1.5"/>
    </g>
    <g id="line2d_40">
     <g>
      <use xlink:href="#mf91cc8dc79" x="57.27" y="89.012812" style="fill: #d62728; stroke: #d62728"/>
     </g>
    </g>
    <g id="line2d_41">
     <g>
      <use xlink:href="#mf91cc8dc79" x="57.27" y="79.012812" style="fill: #d62728; stroke: #d62728"/>
     </g>
    </g>
    <g id="line2d_42">
     <path d="M 47.27 84.012812 
L 67.27 84.012812 
" style="fill: none; stroke: #d62728; stroke-width: 1.5; stroke-linecap: square"/>
    </g>
    <g id="line2d_43"/>
    <g id="text_20">
     <!-- BTree -->
     <g transform="translate(75.27 87.512812)scale(0.1 -0.1)">
      <defs>
       <path id="DejaVuSans-54" d="M -19 4666 
L 3928 4666 
L 3928 4134 
L 2272 4134 
L 2272 0 
L 1638 0 
L 1638 4134 
L -19 4134 
L -19 4666 
z
" transform="scale(0.015625)"/>
      </defs>
      <use xlink:href="#DejaVuSans-42"/>
      <use xlink:href="#DejaVuSans-54" x="68.603516"/>
      <use xlink:href="#DejaVuSans-72" x="114.9375"/>
      <use xlink:href="#DejaVuSans-65" x="153.800781"/>
      <use xlink:href="#DejaVuSans-65" x="215.324219"/>
     </g>
    </g>
    <g id="LineCollection_10">
     <path d="M 57.27 103.690938 
L 57.27 93.690938 
" style="fill: none; stroke: #9467bd; stroke-width: 1.5"/>
    </g>
    <g id="line2d_44">
     <g>
      <use xlink:href="#m0cb540596a" x="57.27" y="103.690938" style="fill: #9467bd; stroke: #9467bd"/>
     </g>
    </g>
    <g id="line2d_45">
     <g>
      <use xlink:href="#m0cb540596a" x="57.27" y="93.690938" style="fill: #9467bd; stroke: #9467bd"/>
     </g>
    </g>
    <g id="line2d_46">
     <path d="M 47.27 98.690938 
L 67.27 98.690938 
" style="fill: none; stroke: #9467bd; stroke-width: 1.5; stroke-linecap: square"/>
    </g>
    <g id="line2d_47"/>
    <g id="text_21">
     <!-- ord_vec -->
     <g transform="translate(75.27 102.190938)scale(0.1 -0.1)">
      <defs>
       <path id="DejaVuSans-5f" d="M 3263 -1063 
L 3263 -1509 
L -63 -1509 
L -63 -1063 
L 3263 -1063 
z
" transform="scale(0.015625)"/>
      </defs>
      <use xlink:href="#DejaVuSans-6f"/>
      <use xlink:href="#DejaVuSans-72" x="61.181641"/>
      <use xlink:href="#DejaVuSans-64" x="100.544922"/>
      <use xlink:href="#DejaVuSans-5f" x="164.021484"/>
      <use xlink:href="#DejaVuSans-76" x="214.021484"/>
      <use xlink:href="#DejaVuSans-65" x="273.201172"/>
      <use xlink:href="#DejaVuSans-63" x="334.724609"/>
     </g>
    </g>
   </g>
  </g>
 </g>
 <defs>
  <clipPath id="p1be05fdb19">
   <rect x="38.27" y="26.88" width="526.93" height="363.16"/>
  </clipPath>
 </defs>
</svg>
