<?xml version="1.0" encoding="utf-8" standalone="no"?>
<!DOCTYPE svg PUBLIC "-//W3C//DTD SVG 1.1//EN"
  "http://www.w3.org/Graphics/SVG/1.1/DTD/svg11.dtd">
<svg xmlns:xlink="http://www.w3.org/1999/xlink" width="576pt" height="432pt" viewBox="0 0 576 432" xmlns="http://www.w3.org/2000/svg" version="1.1">
 <metadata>
  <rdf:RDF xmlns:dc="http://purl.org/dc/elements/1.1/" xmlns:cc="http://creativecommons.org/ns#" xmlns:rdf="http://www.w3.org/1999/02/22-rdf-syntax-ns#">
   <cc:Work>
    <dc:type rdf:resource="http://purl.org/dc/dcmitype/StillImage"/>
    <dc:date>2021-12-02T22:54:03.855730</dc:date>
    <dc:format>image/svg+xml</dc:format>
    <dc:creator>
     <cc:Agent>
      <dc:title>Matplotlib v3.5.0, https://matplotlib.org/</dc:title>
     </cc:Agent>
    </dc:creator>
   </cc:Work>
  </rdf:RDF>
 </metadata>
 <defs>
  <style type="text/css">*{stroke-linejoin: round; stroke-linecap: butt}</style>
 </defs>
 <g id="figure_1">
  <g id="patch_1">
   <path d="M 0 432 
L 576 432 
L 576 0 
L 0 0 
z
" style="fill: #ffffff"/>
  </g>
  <g id="axes_1">
   <g id="patch_2">
    <path d="M 54.02 390.04 
L 565.2 390.04 
L 565.2 26.88 
L 54.02 26.88 
z
" style="fill: #ffffff"/>
   </g>
   <g id="matplotlib.axis_1">
    <g id="xtick_1">
     <g id="line2d_1">
      <defs>
       <path id="m544bc5d7b3" d="M 0 0 
L 0 3.5 
" style="stroke: #000000; stroke-width: 0.8"/>
      </defs>
      <g>
       <use xlink:href="#m544bc5d7b3" x="77.255455" y="390.04" style="stroke: #000000; stroke-width: 0.8"/>
      </g>
     </g>
     <g id="text_1">
      <!-- 2000 -->
      <g transform="translate(64.530455 404.638438)scale(0.1 -0.1)">
       <defs>
        <path id="DejaVuSans-32" d="M 1228 531 
L 3431 531 
L 3431 0 
L 469 0 
L 469 531 
Q 828 903 1448 1529 
Q 2069 2156 2228 2338 
Q 2531 2678 2651 2914 
Q 2772 3150 2772 3378 
Q 2772 3750 2511 3984 
Q 2250 4219 1831 4219 
Q 1534 4219 1204 4116 
Q 875 4013 500 3803 
L 500 4441 
Q 881 4594 1212 4672 
Q 1544 4750 1819 4750 
Q 2544 4750 2975 4387 
Q 3406 4025 3406 3419 
Q 3406 3131 3298 2873 
Q 3191 2616 2906 2266 
Q 2828 2175 2409 1742 
Q 1991 1309 1228 531 
z
" transform="scale(0.015625)"/>
        <path id="DejaVuSans-30" d="M 2034 4250 
Q 1547 4250 1301 3770 
Q 1056 3291 1056 2328 
Q 1056 1369 1301 889 
Q 1547 409 2034 409 
Q 2525 409 2770 889 
Q 3016 1369 3016 2328 
Q 3016 3291 2770 3770 
Q 2525 4250 2034 4250 
z
M 2034 4750 
Q 2819 4750 3233 4129 
Q 3647 3509 3647 2328 
Q 3647 1150 3233 529 
Q 2819 -91 2034 -91 
Q 1250 -91 836 529 
Q 422 1150 422 2328 
Q 422 3509 836 4129 
Q 1250 4750 2034 4750 
z
" transform="scale(0.015625)"/>
       </defs>
       <use xlink:href="#DejaVuSans-32"/>
       <use xlink:href="#DejaVuSans-30" x="63.623047"/>
       <use xlink:href="#DejaVuSans-30" x="127.246094"/>
       <use xlink:href="#DejaVuSans-30" x="190.869141"/>
      </g>
     </g>
    </g>
    <g id="xtick_2">
     <g id="line2d_2">
      <g>
       <use xlink:href="#m544bc5d7b3" x="170.197273" y="390.04" style="stroke: #000000; stroke-width: 0.8"/>
      </g>
     </g>
     <g id="text_2">
      <!-- 2200 -->
      <g transform="translate(157.472273 404.638438)scale(0.1 -0.1)">
       <use xlink:href="#DejaVuSans-32"/>
       <use xlink:href="#DejaVuSans-32" x="63.623047"/>
       <use xlink:href="#DejaVuSans-30" x="127.246094"/>
       <use xlink:href="#DejaVuSans-30" x="190.869141"/>
      </g>
     </g>
    </g>
    <g id="xtick_3">
     <g id="line2d_3">
      <g>
       <use xlink:href="#m544bc5d7b3" x="263.139091" y="390.04" style="stroke: #000000; stroke-width: 0.8"/>
      </g>
     </g>
     <g id="text_3">
      <!-- 2400 -->
      <g transform="translate(250.414091 404.638438)scale(0.1 -0.1)">
       <defs>
        <path id="DejaVuSans-34" d="M 2419 4116 
L 825 1625 
L 2419 1625 
L 2419 4116 
z
M 2253 4666 
L 3047 4666 
L 3047 1625 
L 3713 1625 
L 3713 1100 
L 3047 1100 
L 3047 0 
L 2419 0 
L 2419 1100 
L 313 1100 
L 313 1709 
L 2253 4666 
z
" transform="scale(0.015625)"/>
       </defs>
       <use xlink:href="#DejaVuSans-32"/>
       <use xlink:href="#DejaVuSans-34" x="63.623047"/>
       <use xlink:href="#DejaVuSans-30" x="127.246094"/>
       <use xlink:href="#DejaVuSans-30" x="190.869141"/>
      </g>
     </g>
    </g>
    <g id="xtick_4">
     <g id="line2d_4">
      <g>
       <use xlink:href="#m544bc5d7b3" x="356.080909" y="390.04" style="stroke: #000000; stroke-width: 0.8"/>
      </g>
     </g>
     <g id="text_4">
      <!-- 2600 -->
      <g transform="translate(343.355909 404.638438)scale(0.1 -0.1)">
       <defs>
        <path id="DejaVuSans-36" d="M 2113 2584 
Q 1688 2584 1439 2293 
Q 1191 2003 1191 1497 
Q 1191 994 1439 701 
Q 1688 409 2113 409 
Q 2538 409 2786 701 
Q 3034 994 3034 1497 
Q 3034 2003 2786 2293 
Q 2538 2584 2113 2584 
z
M 3366 4563 
L 3366 3988 
Q 3128 4100 2886 4159 
Q 2644 4219 2406 4219 
Q 1781 4219 1451 3797 
Q 1122 3375 1075 2522 
Q 1259 2794 1537 2939 
Q 1816 3084 2150 3084 
Q 2853 3084 3261 2657 
Q 3669 2231 3669 1497 
Q 3669 778 3244 343 
Q 2819 -91 2113 -91 
Q 1303 -91 875 529 
Q 447 1150 447 2328 
Q 447 3434 972 4092 
Q 1497 4750 2381 4750 
Q 2619 4750 2861 4703 
Q 3103 4656 3366 4563 
z
" transform="scale(0.015625)"/>
       </defs>
       <use xlink:href="#DejaVuSans-32"/>
       <use xlink:href="#DejaVuSans-36" x="63.623047"/>
       <use xlink:href="#DejaVuSans-30" x="127.246094"/>
       <use xlink:href="#DejaVuSans-30" x="190.869141"/>
      </g>
     </g>
    </g>
    <g id="xtick_5">
     <g id="line2d_5">
      <g>
       <use xlink:href="#m544bc5d7b3" x="449.022727" y="390.04" style="stroke: #000000; stroke-width: 0.8"/>
      </g>
     </g>
     <g id="text_5">
      <!-- 2800 -->
      <g transform="translate(436.297727 404.638438)scale(0.1 -0.1)">
       <defs>
        <path id="DejaVuSans-38" d="M 2034 2216 
Q 1584 2216 1326 1975 
Q 1069 1734 1069 1313 
Q 1069 891 1326 650 
Q 1584 409 2034 409 
Q 2484 409 2743 651 
Q 3003 894 3003 1313 
Q 3003 1734 2745 1975 
Q 2488 2216 2034 2216 
z
M 1403 2484 
Q 997 2584 770 2862 
Q 544 3141 544 3541 
Q 544 4100 942 4425 
Q 1341 4750 2034 4750 
Q 2731 4750 3128 4425 
Q 3525 4100 3525 3541 
Q 3525 3141 3298 2862 
Q 3072 2584 2669 2484 
Q 3125 2378 3379 2068 
Q 3634 1759 3634 1313 
Q 3634 634 3220 271 
Q 2806 -91 2034 -91 
Q 1263 -91 848 271 
Q 434 634 434 1313 
Q 434 1759 690 2068 
Q 947 2378 1403 2484 
z
M 1172 3481 
Q 1172 3119 1398 2916 
Q 1625 2713 2034 2713 
Q 2441 2713 2670 2916 
Q 2900 3119 2900 3481 
Q 2900 3844 2670 4047 
Q 2441 4250 2034 4250 
Q 1625 4250 1398 4047 
Q 1172 3844 1172 3481 
z
" transform="scale(0.015625)"/>
       </defs>
       <use xlink:href="#DejaVuSans-32"/>
       <use xlink:href="#DejaVuSans-38" x="63.623047"/>
       <use xlink:href="#DejaVuSans-30" x="127.246094"/>
       <use xlink:href="#DejaVuSans-30" x="190.869141"/>
      </g>
     </g>
    </g>
    <g id="xtick_6">
     <g id="line2d_6">
      <g>
       <use xlink:href="#m544bc5d7b3" x="541.964545" y="390.04" style="stroke: #000000; stroke-width: 0.8"/>
      </g>
     </g>
     <g id="text_6">
      <!-- 3000 -->
      <g transform="translate(529.239545 404.638438)scale(0.1 -0.1)">
       <defs>
        <path id="DejaVuSans-33" d="M 2597 2516 
Q 3050 2419 3304 2112 
Q 3559 1806 3559 1356 
Q 3559 666 3084 287 
Q 2609 -91 1734 -91 
Q 1441 -91 1130 -33 
Q 819 25 488 141 
L 488 750 
Q 750 597 1062 519 
Q 1375 441 1716 441 
Q 2309 441 2620 675 
Q 2931 909 2931 1356 
Q 2931 1769 2642 2001 
Q 2353 2234 1838 2234 
L 1294 2234 
L 1294 2753 
L 1863 2753 
Q 2328 2753 2575 2939 
Q 2822 3125 2822 3475 
Q 2822 3834 2567 4026 
Q 2313 4219 1838 4219 
Q 1578 4219 1281 4162 
Q 984 4106 628 3988 
L 628 4550 
Q 988 4650 1302 4700 
Q 1616 4750 1894 4750 
Q 2613 4750 3031 4423 
Q 3450 4097 3450 3541 
Q 3450 3153 3228 2886 
Q 3006 2619 2597 2516 
z
" transform="scale(0.015625)"/>
       </defs>
       <use xlink:href="#DejaVuSans-33"/>
       <use xlink:href="#DejaVuSans-30" x="63.623047"/>
       <use xlink:href="#DejaVuSans-30" x="127.246094"/>
       <use xlink:href="#DejaVuSans-30" x="190.869141"/>
      </g>
     </g>
    </g>
    <g id="text_7">
     <!-- Size (#edges) -->
     <g transform="translate(274.559219 418.316562)scale(0.1 -0.1)">
      <defs>
       <path id="DejaVuSans-53" d="M 3425 4513 
L 3425 3897 
Q 3066 4069 2747 4153 
Q 2428 4238 2131 4238 
Q 1616 4238 1336 4038 
Q 1056 3838 1056 3469 
Q 1056 3159 1242 3001 
Q 1428 2844 1947 2747 
L 2328 2669 
Q 3034 2534 3370 2195 
Q 3706 1856 3706 1288 
Q 3706 609 3251 259 
Q 2797 -91 1919 -91 
Q 1588 -91 1214 -16 
Q 841 59 441 206 
L 441 856 
Q 825 641 1194 531 
Q 1563 422 1919 422 
Q 2459 422 2753 634 
Q 3047 847 3047 1241 
Q 3047 1584 2836 1778 
Q 2625 1972 2144 2069 
L 1759 2144 
Q 1053 2284 737 2584 
Q 422 2884 422 3419 
Q 422 4038 858 4394 
Q 1294 4750 2059 4750 
Q 2388 4750 2728 4690 
Q 3069 4631 3425 4513 
z
" transform="scale(0.015625)"/>
       <path id="DejaVuSans-69" d="M 603 3500 
L 1178 3500 
L 1178 0 
L 603 0 
L 603 3500 
z
M 603 4863 
L 1178 4863 
L 1178 4134 
L 603 4134 
L 603 4863 
z
" transform="scale(0.015625)"/>
       <path id="DejaVuSans-7a" d="M 353 3500 
L 3084 3500 
L 3084 2975 
L 922 459 
L 3084 459 
L 3084 0 
L 275 0 
L 275 525 
L 2438 3041 
L 353 3041 
L 353 3500 
z
" transform="scale(0.015625)"/>
       <path id="DejaVuSans-65" d="M 3597 1894 
L 3597 1613 
L 953 1613 
Q 991 1019 1311 708 
Q 1631 397 2203 397 
Q 2534 397 2845 478 
Q 3156 559 3463 722 
L 3463 178 
Q 3153 47 2828 -22 
Q 2503 -91 2169 -91 
Q 1331 -91 842 396 
Q 353 884 353 1716 
Q 353 2575 817 3079 
Q 1281 3584 2069 3584 
Q 2775 3584 3186 3129 
Q 3597 2675 3597 1894 
z
M 3022 2063 
Q 3016 2534 2758 2815 
Q 2500 3097 2075 3097 
Q 1594 3097 1305 2825 
Q 1016 2553 972 2059 
L 3022 2063 
z
" transform="scale(0.015625)"/>
       <path id="DejaVuSans-20" transform="scale(0.015625)"/>
       <path id="DejaVuSans-28" d="M 1984 4856 
Q 1566 4138 1362 3434 
Q 1159 2731 1159 2009 
Q 1159 1288 1364 580 
Q 1569 -128 1984 -844 
L 1484 -844 
Q 1016 -109 783 600 
Q 550 1309 550 2009 
Q 550 2706 781 3412 
Q 1013 4119 1484 4856 
L 1984 4856 
z
" transform="scale(0.015625)"/>
       <path id="DejaVuSans-23" d="M 3272 2816 
L 2363 2816 
L 2100 1772 
L 3016 1772 
L 3272 2816 
z
M 2803 4594 
L 2478 3297 
L 3391 3297 
L 3719 4594 
L 4219 4594 
L 3897 3297 
L 4872 3297 
L 4872 2816 
L 3775 2816 
L 3519 1772 
L 4513 1772 
L 4513 1294 
L 3397 1294 
L 3072 0 
L 2572 0 
L 2894 1294 
L 1978 1294 
L 1656 0 
L 1153 0 
L 1478 1294 
L 494 1294 
L 494 1772 
L 1594 1772 
L 1856 2816 
L 850 2816 
L 850 3297 
L 1978 3297 
L 2297 4594 
L 2803 4594 
z
" transform="scale(0.015625)"/>
       <path id="DejaVuSans-64" d="M 2906 2969 
L 2906 4863 
L 3481 4863 
L 3481 0 
L 2906 0 
L 2906 525 
Q 2725 213 2448 61 
Q 2172 -91 1784 -91 
Q 1150 -91 751 415 
Q 353 922 353 1747 
Q 353 2572 751 3078 
Q 1150 3584 1784 3584 
Q 2172 3584 2448 3432 
Q 2725 3281 2906 2969 
z
M 947 1747 
Q 947 1113 1208 752 
Q 1469 391 1925 391 
Q 2381 391 2643 752 
Q 2906 1113 2906 1747 
Q 2906 2381 2643 2742 
Q 2381 3103 1925 3103 
Q 1469 3103 1208 2742 
Q 947 2381 947 1747 
z
" transform="scale(0.015625)"/>
       <path id="DejaVuSans-67" d="M 2906 1791 
Q 2906 2416 2648 2759 
Q 2391 3103 1925 3103 
Q 1463 3103 1205 2759 
Q 947 2416 947 1791 
Q 947 1169 1205 825 
Q 1463 481 1925 481 
Q 2391 481 2648 825 
Q 2906 1169 2906 1791 
z
M 3481 434 
Q 3481 -459 3084 -895 
Q 2688 -1331 1869 -1331 
Q 1566 -1331 1297 -1286 
Q 1028 -1241 775 -1147 
L 775 -588 
Q 1028 -725 1275 -790 
Q 1522 -856 1778 -856 
Q 2344 -856 2625 -561 
Q 2906 -266 2906 331 
L 2906 616 
Q 2728 306 2450 153 
Q 2172 0 1784 0 
Q 1141 0 747 490 
Q 353 981 353 1791 
Q 353 2603 747 3093 
Q 1141 3584 1784 3584 
Q 2172 3584 2450 3431 
Q 2728 3278 2906 2969 
L 2906 3500 
L 3481 3500 
L 3481 434 
z
" transform="scale(0.015625)"/>
       <path id="DejaVuSans-73" d="M 2834 3397 
L 2834 2853 
Q 2591 2978 2328 3040 
Q 2066 3103 1784 3103 
Q 1356 3103 1142 2972 
Q 928 2841 928 2578 
Q 928 2378 1081 2264 
Q 1234 2150 1697 2047 
L 1894 2003 
Q 2506 1872 2764 1633 
Q 3022 1394 3022 966 
Q 3022 478 2636 193 
Q 2250 -91 1575 -91 
Q 1294 -91 989 -36 
Q 684 19 347 128 
L 347 722 
Q 666 556 975 473 
Q 1284 391 1588 391 
Q 1994 391 2212 530 
Q 2431 669 2431 922 
Q 2431 1156 2273 1281 
Q 2116 1406 1581 1522 
L 1381 1569 
Q 847 1681 609 1914 
Q 372 2147 372 2553 
Q 372 3047 722 3315 
Q 1072 3584 1716 3584 
Q 2034 3584 2315 3537 
Q 2597 3491 2834 3397 
z
" transform="scale(0.015625)"/>
       <path id="DejaVuSans-29" d="M 513 4856 
L 1013 4856 
Q 1481 4119 1714 3412 
Q 1947 2706 1947 2009 
Q 1947 1309 1714 600 
Q 1481 -109 1013 -844 
L 513 -844 
Q 928 -128 1133 580 
Q 1338 1288 1338 2009 
Q 1338 2731 1133 3434 
Q 928 4138 513 4856 
z
" transform="scale(0.015625)"/>
      </defs>
      <use xlink:href="#DejaVuSans-53"/>
      <use xlink:href="#DejaVuSans-69" x="63.476562"/>
      <use xlink:href="#DejaVuSans-7a" x="91.259766"/>
      <use xlink:href="#DejaVuSans-65" x="143.75"/>
      <use xlink:href="#DejaVuSans-20" x="205.273438"/>
      <use xlink:href="#DejaVuSans-28" x="237.060547"/>
      <use xlink:href="#DejaVuSans-23" x="276.074219"/>
      <use xlink:href="#DejaVuSans-65" x="359.863281"/>
      <use xlink:href="#DejaVuSans-64" x="421.386719"/>
      <use xlink:href="#DejaVuSans-67" x="484.863281"/>
      <use xlink:href="#DejaVuSans-65" x="548.339844"/>
      <use xlink:href="#DejaVuSans-73" x="609.863281"/>
      <use xlink:href="#DejaVuSans-29" x="661.962891"/>
     </g>
    </g>
   </g>
   <g id="matplotlib.axis_2">
    <g id="ytick_1">
     <g id="line2d_7">
      <defs>
       <path id="m5203cdfeef" d="M 0 0 
L -3.5 0 
" style="stroke: #000000; stroke-width: 0.8"/>
      </defs>
      <g>
       <use xlink:href="#m5203cdfeef" x="54.02" y="375.703846" style="stroke: #000000; stroke-width: 0.8"/>
      </g>
     </g>
     <g id="text_8">
      <!-- 0.00 -->
      <g transform="translate(24.754375 379.503065)scale(0.1 -0.1)">
       <defs>
        <path id="DejaVuSans-2e" d="M 684 794 
L 1344 794 
L 1344 0 
L 684 0 
L 684 794 
z
" transform="scale(0.015625)"/>
       </defs>
       <use xlink:href="#DejaVuSans-30"/>
       <use xlink:href="#DejaVuSans-2e" x="63.623047"/>
       <use xlink:href="#DejaVuSans-30" x="95.410156"/>
       <use xlink:href="#DejaVuSans-30" x="159.033203"/>
      </g>
     </g>
    </g>
    <g id="ytick_2">
     <g id="line2d_8">
      <g>
       <use xlink:href="#m5203cdfeef" x="54.02" y="335.039177" style="stroke: #000000; stroke-width: 0.8"/>
      </g>
     </g>
     <g id="text_9">
      <!-- 0.25 -->
      <g transform="translate(24.754375 338.838396)scale(0.1 -0.1)">
       <defs>
        <path id="DejaVuSans-35" d="M 691 4666 
L 3169 4666 
L 3169 4134 
L 1269 4134 
L 1269 2991 
Q 1406 3038 1543 3061 
Q 1681 3084 1819 3084 
Q 2600 3084 3056 2656 
Q 3513 2228 3513 1497 
Q 3513 744 3044 326 
Q 2575 -91 1722 -91 
Q 1428 -91 1123 -41 
Q 819 9 494 109 
L 494 744 
Q 775 591 1075 516 
Q 1375 441 1709 441 
Q 2250 441 2565 725 
Q 2881 1009 2881 1497 
Q 2881 1984 2565 2268 
Q 2250 2553 1709 2553 
Q 1456 2553 1204 2497 
Q 953 2441 691 2322 
L 691 4666 
z
" transform="scale(0.015625)"/>
       </defs>
       <use xlink:href="#DejaVuSans-30"/>
       <use xlink:href="#DejaVuSans-2e" x="63.623047"/>
       <use xlink:href="#DejaVuSans-32" x="95.410156"/>
       <use xlink:href="#DejaVuSans-35" x="159.033203"/>
      </g>
     </g>
    </g>
    <g id="ytick_3">
     <g id="line2d_9">
      <g>
       <use xlink:href="#m5203cdfeef" x="54.02" y="294.374508" style="stroke: #000000; stroke-width: 0.8"/>
      </g>
     </g>
     <g id="text_10">
      <!-- 0.50 -->
      <g transform="translate(24.754375 298.173727)scale(0.1 -0.1)">
       <use xlink:href="#DejaVuSans-30"/>
       <use xlink:href="#DejaVuSans-2e" x="63.623047"/>
       <use xlink:href="#DejaVuSans-35" x="95.410156"/>
       <use xlink:href="#DejaVuSans-30" x="159.033203"/>
      </g>
     </g>
    </g>
    <g id="ytick_4">
     <g id="line2d_10">
      <g>
       <use xlink:href="#m5203cdfeef" x="54.02" y="253.709839" style="stroke: #000000; stroke-width: 0.8"/>
      </g>
     </g>
     <g id="text_11">
      <!-- 0.75 -->
      <g transform="translate(24.754375 257.509057)scale(0.1 -0.1)">
       <defs>
        <path id="DejaVuSans-37" d="M 525 4666 
L 3525 4666 
L 3525 4397 
L 1831 0 
L 1172 0 
L 2766 4134 
L 525 4134 
L 525 4666 
z
" transform="scale(0.015625)"/>
       </defs>
       <use xlink:href="#DejaVuSans-30"/>
       <use xlink:href="#DejaVuSans-2e" x="63.623047"/>
       <use xlink:href="#DejaVuSans-37" x="95.410156"/>
       <use xlink:href="#DejaVuSans-35" x="159.033203"/>
      </g>
     </g>
    </g>
    <g id="ytick_5">
     <g id="line2d_11">
      <g>
       <use xlink:href="#m5203cdfeef" x="54.02" y="213.045169" style="stroke: #000000; stroke-width: 0.8"/>
      </g>
     </g>
     <g id="text_12">
      <!-- 1.00 -->
      <g transform="translate(24.754375 216.844388)scale(0.1 -0.1)">
       <defs>
        <path id="DejaVuSans-31" d="M 794 531 
L 1825 531 
L 1825 4091 
L 703 3866 
L 703 4441 
L 1819 4666 
L 2450 4666 
L 2450 531 
L 3481 531 
L 3481 0 
L 794 0 
L 794 531 
z
" transform="scale(0.015625)"/>
       </defs>
       <use xlink:href="#DejaVuSans-31"/>
       <use xlink:href="#DejaVuSans-2e" x="63.623047"/>
       <use xlink:href="#DejaVuSans-30" x="95.410156"/>
       <use xlink:href="#DejaVuSans-30" x="159.033203"/>
      </g>
     </g>
    </g>
    <g id="ytick_6">
     <g id="line2d_12">
      <g>
       <use xlink:href="#m5203cdfeef" x="54.02" y="172.3805" style="stroke: #000000; stroke-width: 0.8"/>
      </g>
     </g>
     <g id="text_13">
      <!-- 1.25 -->
      <g transform="translate(24.754375 176.179719)scale(0.1 -0.1)">
       <use xlink:href="#DejaVuSans-31"/>
       <use xlink:href="#DejaVuSans-2e" x="63.623047"/>
       <use xlink:href="#DejaVuSans-32" x="95.410156"/>
       <use xlink:href="#DejaVuSans-35" x="159.033203"/>
      </g>
     </g>
    </g>
    <g id="ytick_7">
     <g id="line2d_13">
      <g>
       <use xlink:href="#m5203cdfeef" x="54.02" y="131.715831" style="stroke: #000000; stroke-width: 0.8"/>
      </g>
     </g>
     <g id="text_14">
      <!-- 1.50 -->
      <g transform="translate(24.754375 135.515049)scale(0.1 -0.1)">
       <use xlink:href="#DejaVuSans-31"/>
       <use xlink:href="#DejaVuSans-2e" x="63.623047"/>
       <use xlink:href="#DejaVuSans-35" x="95.410156"/>
       <use xlink:href="#DejaVuSans-30" x="159.033203"/>
      </g>
     </g>
    </g>
    <g id="ytick_8">
     <g id="line2d_14">
      <g>
       <use xlink:href="#m5203cdfeef" x="54.02" y="91.051161" style="stroke: #000000; stroke-width: 0.8"/>
      </g>
     </g>
     <g id="text_15">
      <!-- 1.75 -->
      <g transform="translate(24.754375 94.85038)scale(0.1 -0.1)">
       <use xlink:href="#DejaVuSans-31"/>
       <use xlink:href="#DejaVuSans-2e" x="63.623047"/>
       <use xlink:href="#DejaVuSans-37" x="95.410156"/>
       <use xlink:href="#DejaVuSans-35" x="159.033203"/>
      </g>
     </g>
    </g>
    <g id="ytick_9">
     <g id="line2d_15">
      <g>
       <use xlink:href="#m5203cdfeef" x="54.02" y="50.386492" style="stroke: #000000; stroke-width: 0.8"/>
      </g>
     </g>
     <g id="text_16">
      <!-- 2.00 -->
      <g transform="translate(24.754375 54.185711)scale(0.1 -0.1)">
       <use xlink:href="#DejaVuSans-32"/>
       <use xlink:href="#DejaVuSans-2e" x="63.623047"/>
       <use xlink:href="#DejaVuSans-30" x="95.410156"/>
       <use xlink:href="#DejaVuSans-30" x="159.033203"/>
      </g>
     </g>
    </g>
    <g id="text_17">
     <!-- Seconds spent -->
     <g transform="translate(18.674688 245.040469)rotate(-90)scale(0.1 -0.1)">
      <defs>
       <path id="DejaVuSans-63" d="M 3122 3366 
L 3122 2828 
Q 2878 2963 2633 3030 
Q 2388 3097 2138 3097 
Q 1578 3097 1268 2742 
Q 959 2388 959 1747 
Q 959 1106 1268 751 
Q 1578 397 2138 397 
Q 2388 397 2633 464 
Q 2878 531 3122 666 
L 3122 134 
Q 2881 22 2623 -34 
Q 2366 -91 2075 -91 
Q 1284 -91 818 406 
Q 353 903 353 1747 
Q 353 2603 823 3093 
Q 1294 3584 2113 3584 
Q 2378 3584 2631 3529 
Q 2884 3475 3122 3366 
z
" transform="scale(0.015625)"/>
       <path id="DejaVuSans-6f" d="M 1959 3097 
Q 1497 3097 1228 2736 
Q 959 2375 959 1747 
Q 959 1119 1226 758 
Q 1494 397 1959 397 
Q 2419 397 2687 759 
Q 2956 1122 2956 1747 
Q 2956 2369 2687 2733 
Q 2419 3097 1959 3097 
z
M 1959 3584 
Q 2709 3584 3137 3096 
Q 3566 2609 3566 1747 
Q 3566 888 3137 398 
Q 2709 -91 1959 -91 
Q 1206 -91 779 398 
Q 353 888 353 1747 
Q 353 2609 779 3096 
Q 1206 3584 1959 3584 
z
" transform="scale(0.015625)"/>
       <path id="DejaVuSans-6e" d="M 3513 2113 
L 3513 0 
L 2938 0 
L 2938 2094 
Q 2938 2591 2744 2837 
Q 2550 3084 2163 3084 
Q 1697 3084 1428 2787 
Q 1159 2491 1159 1978 
L 1159 0 
L 581 0 
L 581 3500 
L 1159 3500 
L 1159 2956 
Q 1366 3272 1645 3428 
Q 1925 3584 2291 3584 
Q 2894 3584 3203 3211 
Q 3513 2838 3513 2113 
z
" transform="scale(0.015625)"/>
       <path id="DejaVuSans-70" d="M 1159 525 
L 1159 -1331 
L 581 -1331 
L 581 3500 
L 1159 3500 
L 1159 2969 
Q 1341 3281 1617 3432 
Q 1894 3584 2278 3584 
Q 2916 3584 3314 3078 
Q 3713 2572 3713 1747 
Q 3713 922 3314 415 
Q 2916 -91 2278 -91 
Q 1894 -91 1617 61 
Q 1341 213 1159 525 
z
M 3116 1747 
Q 3116 2381 2855 2742 
Q 2594 3103 2138 3103 
Q 1681 3103 1420 2742 
Q 1159 2381 1159 1747 
Q 1159 1113 1420 752 
Q 1681 391 2138 391 
Q 2594 391 2855 752 
Q 3116 1113 3116 1747 
z
" transform="scale(0.015625)"/>
       <path id="DejaVuSans-74" d="M 1172 4494 
L 1172 3500 
L 2356 3500 
L 2356 3053 
L 1172 3053 
L 1172 1153 
Q 1172 725 1289 603 
Q 1406 481 1766 481 
L 2356 481 
L 2356 0 
L 1766 0 
Q 1100 0 847 248 
Q 594 497 594 1153 
L 594 3053 
L 172 3053 
L 172 3500 
L 594 3500 
L 594 4494 
L 1172 4494 
z
" transform="scale(0.015625)"/>
      </defs>
      <use xlink:href="#DejaVuSans-53"/>
      <use xlink:href="#DejaVuSans-65" x="63.476562"/>
      <use xlink:href="#DejaVuSans-63" x="125"/>
      <use xlink:href="#DejaVuSans-6f" x="179.980469"/>
      <use xlink:href="#DejaVuSans-6e" x="241.162109"/>
      <use xlink:href="#DejaVuSans-64" x="304.541016"/>
      <use xlink:href="#DejaVuSans-73" x="368.017578"/>
      <use xlink:href="#DejaVuSans-20" x="420.117188"/>
      <use xlink:href="#DejaVuSans-73" x="451.904297"/>
      <use xlink:href="#DejaVuSans-70" x="504.003906"/>
      <use xlink:href="#DejaVuSans-65" x="567.480469"/>
      <use xlink:href="#DejaVuSans-6e" x="629.003906"/>
      <use xlink:href="#DejaVuSans-74" x="692.382812"/>
     </g>
    </g>
   </g>
   <g id="LineCollection_1">
    <path d="M 77.255455 369.774547 
L 77.255455 369.748815 
" clip-path="url(#pb038c0e1b2)" style="fill: none; stroke: #000099; stroke-width: 1.5"/>
    <path d="M 100.490909 368.914213 
L 100.490909 368.78311 
" clip-path="url(#pb038c0e1b2)" style="fill: none; stroke: #000099; stroke-width: 1.5"/>
    <path d="M 123.726364 367.689995 
L 123.726364 367.665564 
" clip-path="url(#pb038c0e1b2)" style="fill: none; stroke: #000099; stroke-width: 1.5"/>
    <path d="M 146.961818 366.302598 
L 146.961818 366.058854 
" clip-path="url(#pb038c0e1b2)" style="fill: none; stroke: #000099; stroke-width: 1.5"/>
    <path d="M 170.197273 364.277335 
L 170.197273 364.210352 
" clip-path="url(#pb038c0e1b2)" style="fill: none; stroke: #000099; stroke-width: 1.5"/>
    <path d="M 193.432727 361.786266 
L 193.432727 361.57481 
" clip-path="url(#pb038c0e1b2)" style="fill: none; stroke: #000099; stroke-width: 1.5"/>
    <path d="M 216.668182 359.394663 
L 216.668182 359.147666 
" clip-path="url(#pb038c0e1b2)" style="fill: none; stroke: #000099; stroke-width: 1.5"/>
    <path d="M 239.903636 356.166409 
L 239.903636 355.944363 
" clip-path="url(#pb038c0e1b2)" style="fill: none; stroke: #000099; stroke-width: 1.5"/>
    <path d="M 263.139091 352.124113 
L 263.139091 351.625239 
" clip-path="url(#pb038c0e1b2)" style="fill: none; stroke: #000099; stroke-width: 1.5"/>
    <path d="M 286.374545 347.201134 
L 286.374545 347.130849 
" clip-path="url(#pb038c0e1b2)" style="fill: none; stroke: #000099; stroke-width: 1.5"/>
    <path d="M 309.61 342.12981 
L 309.61 341.511952 
" clip-path="url(#pb038c0e1b2)" style="fill: none; stroke: #000099; stroke-width: 1.5"/>
    <path d="M 332.845455 334.372423 
L 332.845455 333.245101 
" clip-path="url(#pb038c0e1b2)" style="fill: none; stroke: #000099; stroke-width: 1.5"/>
    <path d="M 356.080909 325.824417 
L 356.080909 325.71742 
" clip-path="url(#pb038c0e1b2)" style="fill: none; stroke: #000099; stroke-width: 1.5"/>
    <path d="M 379.316364 314.432258 
L 379.316364 313.339452 
" clip-path="url(#pb038c0e1b2)" style="fill: none; stroke: #000099; stroke-width: 1.5"/>
    <path d="M 402.551818 302.803903 
L 402.551818 301.819721 
" clip-path="url(#pb038c0e1b2)" style="fill: none; stroke: #000099; stroke-width: 1.5"/>
    <path d="M 425.787273 283.332912 
L 425.787273 282.755685 
" clip-path="url(#pb038c0e1b2)" style="fill: none; stroke: #000099; stroke-width: 1.5"/>
    <path d="M 449.022727 260.300427 
L 449.022727 259.43043 
" clip-path="url(#pb038c0e1b2)" style="fill: none; stroke: #000099; stroke-width: 1.5"/>
    <path d="M 472.258182 221.31241 
L 472.258182 220.158949 
" clip-path="url(#pb038c0e1b2)" style="fill: none; stroke: #000099; stroke-width: 1.5"/>
    <path d="M 495.493636 172.486911 
L 495.493636 171.449686 
" clip-path="url(#pb038c0e1b2)" style="fill: none; stroke: #000099; stroke-width: 1.5"/>
    <path d="M 518.729091 113.711174 
L 518.729091 112.557062 
" clip-path="url(#pb038c0e1b2)" style="fill: none; stroke: #000099; stroke-width: 1.5"/>
    <path d="M 541.964545 43.476442 
L 541.964545 43.387273 
" clip-path="url(#pb038c0e1b2)" style="fill: none; stroke: #000099; stroke-width: 1.5"/>
   </g>
   <g id="line2d_16">
    <defs>
     <path id="m625f373af2" d="M 3 0 
L -3 -0 
" style="stroke: #000099"/>
    </defs>
    <g clip-path="url(#pb038c0e1b2)">
     <use xlink:href="#m625f373af2" x="77.255455" y="369.774547" style="fill: #000099; stroke: #000099"/>
     <use xlink:href="#m625f373af2" x="100.490909" y="368.914213" style="fill: #000099; stroke: #000099"/>
     <use xlink:href="#m625f373af2" x="123.726364" y="367.689995" style="fill: #000099; stroke: #000099"/>
     <use xlink:href="#m625f373af2" x="146.961818" y="366.302598" style="fill: #000099; stroke: #000099"/>
     <use xlink:href="#m625f373af2" x="170.197273" y="364.277335" style="fill: #000099; stroke: #000099"/>
     <use xlink:href="#m625f373af2" x="193.432727" y="361.786266" style="fill: #000099; stroke: #000099"/>
     <use xlink:href="#m625f373af2" x="216.668182" y="359.394663" style="fill: #000099; stroke: #000099"/>
     <use xlink:href="#m625f373af2" x="239.903636" y="356.166409" style="fill: #000099; stroke: #000099"/>
     <use xlink:href="#m625f373af2" x="263.139091" y="352.124113" style="fill: #000099; stroke: #000099"/>
     <use xlink:href="#m625f373af2" x="286.374545" y="347.201134" style="fill: #000099; stroke: #000099"/>
     <use xlink:href="#m625f373af2" x="309.61" y="342.12981" style="fill: #000099; stroke: #000099"/>
     <use xlink:href="#m625f373af2" x="332.845455" y="334.372423" style="fill: #000099; stroke: #000099"/>
     <use xlink:href="#m625f373af2" x="356.080909" y="325.824417" style="fill: #000099; stroke: #000099"/>
     <use xlink:href="#m625f373af2" x="379.316364" y="314.432258" style="fill: #000099; stroke: #000099"/>
     <use xlink:href="#m625f373af2" x="402.551818" y="302.803903" style="fill: #000099; stroke: #000099"/>
     <use xlink:href="#m625f373af2" x="425.787273" y="283.332912" style="fill: #000099; stroke: #000099"/>
     <use xlink:href="#m625f373af2" x="449.022727" y="260.300427" style="fill: #000099; stroke: #000099"/>
     <use xlink:href="#m625f373af2" x="472.258182" y="221.31241" style="fill: #000099; stroke: #000099"/>
     <use xlink:href="#m625f373af2" x="495.493636" y="172.486911" style="fill: #000099; stroke: #000099"/>
     <use xlink:href="#m625f373af2" x="518.729091" y="113.711174" style="fill: #000099; stroke: #000099"/>
     <use xlink:href="#m625f373af2" x="541.964545" y="43.476442" style="fill: #000099; stroke: #000099"/>
    </g>
   </g>
   <g id="line2d_17">
    <g clip-path="url(#pb038c0e1b2)">
     <use xlink:href="#m625f373af2" x="77.255455" y="369.748815" style="fill: #000099; stroke: #000099"/>
     <use xlink:href="#m625f373af2" x="100.490909" y="368.78311" style="fill: #000099; stroke: #000099"/>
     <use xlink:href="#m625f373af2" x="123.726364" y="367.665564" style="fill: #000099; stroke: #000099"/>
     <use xlink:href="#m625f373af2" x="146.961818" y="366.058854" style="fill: #000099; stroke: #000099"/>
     <use xlink:href="#m625f373af2" x="170.197273" y="364.210352" style="fill: #000099; stroke: #000099"/>
     <use xlink:href="#m625f373af2" x="193.432727" y="361.57481" style="fill: #000099; stroke: #000099"/>
     <use xlink:href="#m625f373af2" x="216.668182" y="359.147666" style="fill: #000099; stroke: #000099"/>
     <use xlink:href="#m625f373af2" x="239.903636" y="355.944363" style="fill: #000099; stroke: #000099"/>
     <use xlink:href="#m625f373af2" x="263.139091" y="351.625239" style="fill: #000099; stroke: #000099"/>
     <use xlink:href="#m625f373af2" x="286.374545" y="347.130849" style="fill: #000099; stroke: #000099"/>
     <use xlink:href="#m625f373af2" x="309.61" y="341.511952" style="fill: #000099; stroke: #000099"/>
     <use xlink:href="#m625f373af2" x="332.845455" y="333.245101" style="fill: #000099; stroke: #000099"/>
     <use xlink:href="#m625f373af2" x="356.080909" y="325.71742" style="fill: #000099; stroke: #000099"/>
     <use xlink:href="#m625f373af2" x="379.316364" y="313.339452" style="fill: #000099; stroke: #000099"/>
     <use xlink:href="#m625f373af2" x="402.551818" y="301.819721" style="fill: #000099; stroke: #000099"/>
     <use xlink:href="#m625f373af2" x="425.787273" y="282.755685" style="fill: #000099; stroke: #000099"/>
     <use xlink:href="#m625f373af2" x="449.022727" y="259.43043" style="fill: #000099; stroke: #000099"/>
     <use xlink:href="#m625f373af2" x="472.258182" y="220.158949" style="fill: #000099; stroke: #000099"/>
     <use xlink:href="#m625f373af2" x="495.493636" y="171.449686" style="fill: #000099; stroke: #000099"/>
     <use xlink:href="#m625f373af2" x="518.729091" y="112.557062" style="fill: #000099; stroke: #000099"/>
     <use xlink:href="#m625f373af2" x="541.964545" y="43.387273" style="fill: #000099; stroke: #000099"/>
    </g>
   </g>
   <g id="LineCollection_2">
    <path d="M 77.255455 371.196379 
L 77.255455 371.138294 
" clip-path="url(#pb038c0e1b2)" style="fill: none; stroke: #000099; stroke-width: 1.5"/>
    <path d="M 100.490909 370.539726 
L 100.490909 370.43486 
" clip-path="url(#pb038c0e1b2)" style="fill: none; stroke: #000099; stroke-width: 1.5"/>
    <path d="M 123.726364 369.640484 
L 123.726364 369.593508 
" clip-path="url(#pb038c0e1b2)" style="fill: none; stroke: #000099; stroke-width: 1.5"/>
    <path d="M 146.961818 368.576371 
L 146.961818 368.3919 
" clip-path="url(#pb038c0e1b2)" style="fill: none; stroke: #000099; stroke-width: 1.5"/>
    <path d="M 170.197273 367.185298 
L 170.197273 367.015856 
" clip-path="url(#pb038c0e1b2)" style="fill: none; stroke: #000099; stroke-width: 1.5"/>
    <path d="M 193.432727 365.23463 
L 193.432727 365.184482 
" clip-path="url(#pb038c0e1b2)" style="fill: none; stroke: #000099; stroke-width: 1.5"/>
    <path d="M 216.668182 363.484081 
L 216.668182 363.39252 
" clip-path="url(#pb038c0e1b2)" style="fill: none; stroke: #000099; stroke-width: 1.5"/>
    <path d="M 239.903636 361.192741 
L 239.903636 360.832191 
" clip-path="url(#pb038c0e1b2)" style="fill: none; stroke: #000099; stroke-width: 1.5"/>
    <path d="M 263.139091 357.800461 
L 263.139091 357.724597 
" clip-path="url(#pb038c0e1b2)" style="fill: none; stroke: #000099; stroke-width: 1.5"/>
    <path d="M 286.374545 354.333961 
L 286.374545 354.249883 
" clip-path="url(#pb038c0e1b2)" style="fill: none; stroke: #000099; stroke-width: 1.5"/>
    <path d="M 309.61 350.85165 
L 309.61 350.154332 
" clip-path="url(#pb038c0e1b2)" style="fill: none; stroke: #000099; stroke-width: 1.5"/>
    <path d="M 332.845455 345.131026 
L 332.845455 344.642952 
" clip-path="url(#pb038c0e1b2)" style="fill: none; stroke: #000099; stroke-width: 1.5"/>
    <path d="M 356.080909 338.794185 
L 356.080909 338.61596 
" clip-path="url(#pb038c0e1b2)" style="fill: none; stroke: #000099; stroke-width: 1.5"/>
    <path d="M 379.316364 330.286583 
L 379.316364 329.990268 
" clip-path="url(#pb038c0e1b2)" style="fill: none; stroke: #000099; stroke-width: 1.5"/>
    <path d="M 402.551818 321.904798 
L 402.551818 321.733616 
" clip-path="url(#pb038c0e1b2)" style="fill: none; stroke: #000099; stroke-width: 1.5"/>
    <path d="M 425.787273 307.540166 
L 425.787273 307.360705 
" clip-path="url(#pb038c0e1b2)" style="fill: none; stroke: #000099; stroke-width: 1.5"/>
    <path d="M 449.022727 291.14897 
L 449.022727 290.880583 
" clip-path="url(#pb038c0e1b2)" style="fill: none; stroke: #000099; stroke-width: 1.5"/>
    <path d="M 472.258182 262.496042 
L 472.258182 262.358156 
" clip-path="url(#pb038c0e1b2)" style="fill: none; stroke: #000099; stroke-width: 1.5"/>
    <path d="M 495.493636 228.092545 
L 495.493636 227.335027 
" clip-path="url(#pb038c0e1b2)" style="fill: none; stroke: #000099; stroke-width: 1.5"/>
    <path d="M 518.729091 186.131518 
L 518.729091 184.976381 
" clip-path="url(#pb038c0e1b2)" style="fill: none; stroke: #000099; stroke-width: 1.5"/>
    <path d="M 541.964545 135.424221 
L 541.964545 134.937871 
" clip-path="url(#pb038c0e1b2)" style="fill: none; stroke: #000099; stroke-width: 1.5"/>
   </g>
   <g id="line2d_18">
    <g clip-path="url(#pb038c0e1b2)">
     <use xlink:href="#m625f373af2" x="77.255455" y="371.196379" style="fill: #000099; stroke: #000099"/>
     <use xlink:href="#m625f373af2" x="100.490909" y="370.539726" style="fill: #000099; stroke: #000099"/>
     <use xlink:href="#m625f373af2" x="123.726364" y="369.640484" style="fill: #000099; stroke: #000099"/>
     <use xlink:href="#m625f373af2" x="146.961818" y="368.576371" style="fill: #000099; stroke: #000099"/>
     <use xlink:href="#m625f373af2" x="170.197273" y="367.185298" style="fill: #000099; stroke: #000099"/>
     <use xlink:href="#m625f373af2" x="193.432727" y="365.23463" style="fill: #000099; stroke: #000099"/>
     <use xlink:href="#m625f373af2" x="216.668182" y="363.484081" style="fill: #000099; stroke: #000099"/>
     <use xlink:href="#m625f373af2" x="239.903636" y="361.192741" style="fill: #000099; stroke: #000099"/>
     <use xlink:href="#m625f373af2" x="263.139091" y="357.800461" style="fill: #000099; stroke: #000099"/>
     <use xlink:href="#m625f373af2" x="286.374545" y="354.333961" style="fill: #000099; stroke: #000099"/>
     <use xlink:href="#m625f373af2" x="309.61" y="350.85165" style="fill: #000099; stroke: #000099"/>
     <use xlink:href="#m625f373af2" x="332.845455" y="345.131026" style="fill: #000099; stroke: #000099"/>
     <use xlink:href="#m625f373af2" x="356.080909" y="338.794185" style="fill: #000099; stroke: #000099"/>
     <use xlink:href="#m625f373af2" x="379.316364" y="330.286583" style="fill: #000099; stroke: #000099"/>
     <use xlink:href="#m625f373af2" x="402.551818" y="321.904798" style="fill: #000099; stroke: #000099"/>
     <use xlink:href="#m625f373af2" x="425.787273" y="307.540166" style="fill: #000099; stroke: #000099"/>
     <use xlink:href="#m625f373af2" x="449.022727" y="291.14897" style="fill: #000099; stroke: #000099"/>
     <use xlink:href="#m625f373af2" x="472.258182" y="262.496042" style="fill: #000099; stroke: #000099"/>
     <use xlink:href="#m625f373af2" x="495.493636" y="228.092545" style="fill: #000099; stroke: #000099"/>
     <use xlink:href="#m625f373af2" x="518.729091" y="186.131518" style="fill: #000099; stroke: #000099"/>
     <use xlink:href="#m625f373af2" x="541.964545" y="135.424221" style="fill: #000099; stroke: #000099"/>
    </g>
   </g>
   <g id="line2d_19">
    <g clip-path="url(#pb038c0e1b2)">
     <use xlink:href="#m625f373af2" x="77.255455" y="371.138294" style="fill: #000099; stroke: #000099"/>
     <use xlink:href="#m625f373af2" x="100.490909" y="370.43486" style="fill: #000099; stroke: #000099"/>
     <use xlink:href="#m625f373af2" x="123.726364" y="369.593508" style="fill: #000099; stroke: #000099"/>
     <use xlink:href="#m625f373af2" x="146.961818" y="368.3919" style="fill: #000099; stroke: #000099"/>
     <use xlink:href="#m625f373af2" x="170.197273" y="367.015856" style="fill: #000099; stroke: #000099"/>
     <use xlink:href="#m625f373af2" x="193.432727" y="365.184482" style="fill: #000099; stroke: #000099"/>
     <use xlink:href="#m625f373af2" x="216.668182" y="363.39252" style="fill: #000099; stroke: #000099"/>
     <use xlink:href="#m625f373af2" x="239.903636" y="360.832191" style="fill: #000099; stroke: #000099"/>
     <use xlink:href="#m625f373af2" x="263.139091" y="357.724597" style="fill: #000099; stroke: #000099"/>
     <use xlink:href="#m625f373af2" x="286.374545" y="354.249883" style="fill: #000099; stroke: #000099"/>
     <use xlink:href="#m625f373af2" x="309.61" y="350.154332" style="fill: #000099; stroke: #000099"/>
     <use xlink:href="#m625f373af2" x="332.845455" y="344.642952" style="fill: #000099; stroke: #000099"/>
     <use xlink:href="#m625f373af2" x="356.080909" y="338.61596" style="fill: #000099; stroke: #000099"/>
     <use xlink:href="#m625f373af2" x="379.316364" y="329.990268" style="fill: #000099; stroke: #000099"/>
     <use xlink:href="#m625f373af2" x="402.551818" y="321.733616" style="fill: #000099; stroke: #000099"/>
     <use xlink:href="#m625f373af2" x="425.787273" y="307.360705" style="fill: #000099; stroke: #000099"/>
     <use xlink:href="#m625f373af2" x="449.022727" y="290.880583" style="fill: #000099; stroke: #000099"/>
     <use xlink:href="#m625f373af2" x="472.258182" y="262.358156" style="fill: #000099; stroke: #000099"/>
     <use xlink:href="#m625f373af2" x="495.493636" y="227.335027" style="fill: #000099; stroke: #000099"/>
     <use xlink:href="#m625f373af2" x="518.729091" y="184.976381" style="fill: #000099; stroke: #000099"/>
     <use xlink:href="#m625f373af2" x="541.964545" y="134.937871" style="fill: #000099; stroke: #000099"/>
    </g>
   </g>
   <g id="LineCollection_3">
    <path d="M 77.255455 372.430812 
L 77.255455 372.366643 
" clip-path="url(#pb038c0e1b2)" style="fill: none; stroke: #cc0033; stroke-width: 1.5"/>
    <path d="M 100.490909 371.911004 
L 100.490909 371.591607 
" clip-path="url(#pb038c0e1b2)" style="fill: none; stroke: #cc0033; stroke-width: 1.5"/>
    <path d="M 123.726364 371.322066 
L 123.726364 371.076614 
" clip-path="url(#pb038c0e1b2)" style="fill: none; stroke: #cc0033; stroke-width: 1.5"/>
    <path d="M 146.961818 370.540605 
L 146.961818 370.354409 
" clip-path="url(#pb038c0e1b2)" style="fill: none; stroke: #cc0033; stroke-width: 1.5"/>
    <path d="M 170.197273 369.379791 
L 170.197273 369.276373 
" clip-path="url(#pb038c0e1b2)" style="fill: none; stroke: #cc0033; stroke-width: 1.5"/>
    <path d="M 193.432727 367.971037 
L 193.432727 367.922499 
" clip-path="url(#pb038c0e1b2)" style="fill: none; stroke: #cc0033; stroke-width: 1.5"/>
    <path d="M 216.668182 366.60812 
L 216.668182 366.393947 
" clip-path="url(#pb038c0e1b2)" style="fill: none; stroke: #cc0033; stroke-width: 1.5"/>
    <path d="M 239.903636 364.823835 
L 239.903636 364.421157 
" clip-path="url(#pb038c0e1b2)" style="fill: none; stroke: #cc0033; stroke-width: 1.5"/>
    <path d="M 263.139091 362.229382 
L 263.139091 362.151321 
" clip-path="url(#pb038c0e1b2)" style="fill: none; stroke: #cc0033; stroke-width: 1.5"/>
    <path d="M 286.374545 359.829628 
L 286.374545 358.968887 
" clip-path="url(#pb038c0e1b2)" style="fill: none; stroke: #cc0033; stroke-width: 1.5"/>
    <path d="M 309.61 356.493026 
L 309.61 356.363974 
" clip-path="url(#pb038c0e1b2)" style="fill: none; stroke: #cc0033; stroke-width: 1.5"/>
    <path d="M 332.845455 352.435181 
L 332.845455 352.098299 
" clip-path="url(#pb038c0e1b2)" style="fill: none; stroke: #cc0033; stroke-width: 1.5"/>
    <path d="M 356.080909 347.331149 
L 356.080909 346.979054 
" clip-path="url(#pb038c0e1b2)" style="fill: none; stroke: #cc0033; stroke-width: 1.5"/>
    <path d="M 379.316364 340.517814 
L 379.316364 338.075543 
" clip-path="url(#pb038c0e1b2)" style="fill: none; stroke: #cc0033; stroke-width: 1.5"/>
    <path d="M 402.551818 333.901594 
L 402.551818 330.552039 
" clip-path="url(#pb038c0e1b2)" style="fill: none; stroke: #cc0033; stroke-width: 1.5"/>
    <path d="M 425.787273 322.751897 
L 425.787273 320.948609 
" clip-path="url(#pb038c0e1b2)" style="fill: none; stroke: #cc0033; stroke-width: 1.5"/>
    <path d="M 449.022727 309.67633 
L 449.022727 307.369114 
" clip-path="url(#pb038c0e1b2)" style="fill: none; stroke: #cc0033; stroke-width: 1.5"/>
    <path d="M 472.258182 287.21411 
L 472.258182 284.597235 
" clip-path="url(#pb038c0e1b2)" style="fill: none; stroke: #cc0033; stroke-width: 1.5"/>
    <path d="M 495.493636 259.04989 
L 495.493636 253.425397 
" clip-path="url(#pb038c0e1b2)" style="fill: none; stroke: #cc0033; stroke-width: 1.5"/>
    <path d="M 518.729091 224.101307 
L 518.729091 217.172975 
" clip-path="url(#pb038c0e1b2)" style="fill: none; stroke: #cc0033; stroke-width: 1.5"/>
    <path d="M 541.964545 183.843773 
L 541.964545 175.707293 
" clip-path="url(#pb038c0e1b2)" style="fill: none; stroke: #cc0033; stroke-width: 1.5"/>
   </g>
   <g id="line2d_20">
    <defs>
     <path id="mf97d634d27" d="M 3 0 
L -3 -0 
" style="stroke: #cc0033"/>
    </defs>
    <g clip-path="url(#pb038c0e1b2)">
     <use xlink:href="#mf97d634d27" x="77.255455" y="372.430812" style="fill: #cc0033; stroke: #cc0033"/>
     <use xlink:href="#mf97d634d27" x="100.490909" y="371.911004" style="fill: #cc0033; stroke: #cc0033"/>
     <use xlink:href="#mf97d634d27" x="123.726364" y="371.322066" style="fill: #cc0033; stroke: #cc0033"/>
     <use xlink:href="#mf97d634d27" x="146.961818" y="370.540605" style="fill: #cc0033; stroke: #cc0033"/>
     <use xlink:href="#mf97d634d27" x="170.197273" y="369.379791" style="fill: #cc0033; stroke: #cc0033"/>
     <use xlink:href="#mf97d634d27" x="193.432727" y="367.971037" style="fill: #cc0033; stroke: #cc0033"/>
     <use xlink:href="#mf97d634d27" x="216.668182" y="366.60812" style="fill: #cc0033; stroke: #cc0033"/>
     <use xlink:href="#mf97d634d27" x="239.903636" y="364.823835" style="fill: #cc0033; stroke: #cc0033"/>
     <use xlink:href="#mf97d634d27" x="263.139091" y="362.229382" style="fill: #cc0033; stroke: #cc0033"/>
     <use xlink:href="#mf97d634d27" x="286.374545" y="359.829628" style="fill: #cc0033; stroke: #cc0033"/>
     <use xlink:href="#mf97d634d27" x="309.61" y="356.493026" style="fill: #cc0033; stroke: #cc0033"/>
     <use xlink:href="#mf97d634d27" x="332.845455" y="352.435181" style="fill: #cc0033; stroke: #cc0033"/>
     <use xlink:href="#mf97d634d27" x="356.080909" y="347.331149" style="fill: #cc0033; stroke: #cc0033"/>
     <use xlink:href="#mf97d634d27" x="379.316364" y="340.517814" style="fill: #cc0033; stroke: #cc0033"/>
     <use xlink:href="#mf97d634d27" x="402.551818" y="333.901594" style="fill: #cc0033; stroke: #cc0033"/>
     <use xlink:href="#mf97d634d27" x="425.787273" y="322.751897" style="fill: #cc0033; stroke: #cc0033"/>
     <use xlink:href="#mf97d634d27" x="449.022727" y="309.67633" style="fill: #cc0033; stroke: #cc0033"/>
     <use xlink:href="#mf97d634d27" x="472.258182" y="287.21411" style="fill: #cc0033; stroke: #cc0033"/>
     <use xlink:href="#mf97d634d27" x="495.493636" y="259.04989" style="fill: #cc0033; stroke: #cc0033"/>
     <use xlink:href="#mf97d634d27" x="518.729091" y="224.101307" style="fill: #cc0033; stroke: #cc0033"/>
     <use xlink:href="#mf97d634d27" x="541.964545" y="183.843773" style="fill: #cc0033; stroke: #cc0033"/>
    </g>
   </g>
   <g id="line2d_21">
    <g clip-path="url(#pb038c0e1b2)">
     <use xlink:href="#mf97d634d27" x="77.255455" y="372.366643" style="fill: #cc0033; stroke: #cc0033"/>
     <use xlink:href="#mf97d634d27" x="100.490909" y="371.591607" style="fill: #cc0033; stroke: #cc0033"/>
     <use xlink:href="#mf97d634d27" x="123.726364" y="371.076614" style="fill: #cc0033; stroke: #cc0033"/>
     <use xlink:href="#mf97d634d27" x="146.961818" y="370.354409" style="fill: #cc0033; stroke: #cc0033"/>
     <use xlink:href="#mf97d634d27" x="170.197273" y="369.276373" style="fill: #cc0033; stroke: #cc0033"/>
     <use xlink:href="#mf97d634d27" x="193.432727" y="367.922499" style="fill: #cc0033; stroke: #cc0033"/>
     <use xlink:href="#mf97d634d27" x="216.668182" y="366.393947" style="fill: #cc0033; stroke: #cc0033"/>
     <use xlink:href="#mf97d634d27" x="239.903636" y="364.421157" style="fill: #cc0033; stroke: #cc0033"/>
     <use xlink:href="#mf97d634d27" x="263.139091" y="362.151321" style="fill: #cc0033; stroke: #cc0033"/>
     <use xlink:href="#mf97d634d27" x="286.374545" y="358.968887" style="fill: #cc0033; stroke: #cc0033"/>
     <use xlink:href="#mf97d634d27" x="309.61" y="356.363974" style="fill: #cc0033; stroke: #cc0033"/>
     <use xlink:href="#mf97d634d27" x="332.845455" y="352.098299" style="fill: #cc0033; stroke: #cc0033"/>
     <use xlink:href="#mf97d634d27" x="356.080909" y="346.979054" style="fill: #cc0033; stroke: #cc0033"/>
     <use xlink:href="#mf97d634d27" x="379.316364" y="338.075543" style="fill: #cc0033; stroke: #cc0033"/>
     <use xlink:href="#mf97d634d27" x="402.551818" y="330.552039" style="fill: #cc0033; stroke: #cc0033"/>
     <use xlink:href="#mf97d634d27" x="425.787273" y="320.948609" style="fill: #cc0033; stroke: #cc0033"/>
     <use xlink:href="#mf97d634d27" x="449.022727" y="307.369114" style="fill: #cc0033; stroke: #cc0033"/>
     <use xlink:href="#mf97d634d27" x="472.258182" y="284.597235" style="fill: #cc0033; stroke: #cc0033"/>
     <use xlink:href="#mf97d634d27" x="495.493636" y="253.425397" style="fill: #cc0033; stroke: #cc0033"/>
     <use xlink:href="#mf97d634d27" x="518.729091" y="217.172975" style="fill: #cc0033; stroke: #cc0033"/>
     <use xlink:href="#mf97d634d27" x="541.964545" y="175.707293" style="fill: #cc0033; stroke: #cc0033"/>
    </g>
   </g>
   <g id="LineCollection_4">
    <path d="M 77.255455 373.532727 
L 77.255455 373.479538 
" clip-path="url(#pb038c0e1b2)" style="fill: none; stroke: #cc0033; stroke-width: 1.5"/>
    <path d="M 100.490909 373.183792 
L 100.490909 373.025492 
" clip-path="url(#pb038c0e1b2)" style="fill: none; stroke: #cc0033; stroke-width: 1.5"/>
    <path d="M 123.726364 372.783424 
L 123.726364 372.731097 
" clip-path="url(#pb038c0e1b2)" style="fill: none; stroke: #cc0033; stroke-width: 1.5"/>
    <path d="M 146.961818 372.294895 
L 146.961818 372.169013 
" clip-path="url(#pb038c0e1b2)" style="fill: none; stroke: #cc0033; stroke-width: 1.5"/>
    <path d="M 170.197273 371.548633 
L 170.197273 371.524218 
" clip-path="url(#pb038c0e1b2)" style="fill: none; stroke: #cc0033; stroke-width: 1.5"/>
    <path d="M 193.432727 370.656206 
L 193.432727 370.635158 
" clip-path="url(#pb038c0e1b2)" style="fill: none; stroke: #cc0033; stroke-width: 1.5"/>
    <path d="M 216.668182 369.758119 
L 216.668182 369.680482 
" clip-path="url(#pb038c0e1b2)" style="fill: none; stroke: #cc0033; stroke-width: 1.5"/>
    <path d="M 239.903636 368.628292 
L 239.903636 368.48076 
" clip-path="url(#pb038c0e1b2)" style="fill: none; stroke: #cc0033; stroke-width: 1.5"/>
    <path d="M 263.139091 366.988464 
L 263.139091 366.738458 
" clip-path="url(#pb038c0e1b2)" style="fill: none; stroke: #cc0033; stroke-width: 1.5"/>
    <path d="M 286.374545 365.43309 
L 286.374545 365.134692 
" clip-path="url(#pb038c0e1b2)" style="fill: none; stroke: #cc0033; stroke-width: 1.5"/>
    <path d="M 309.61 363.43644 
L 309.61 363.07096 
" clip-path="url(#pb038c0e1b2)" style="fill: none; stroke: #cc0033; stroke-width: 1.5"/>
    <path d="M 332.845455 360.715728 
L 332.845455 360.590497 
" clip-path="url(#pb038c0e1b2)" style="fill: none; stroke: #cc0033; stroke-width: 1.5"/>
    <path d="M 356.080909 357.562085 
L 356.080909 357.297341 
" clip-path="url(#pb038c0e1b2)" style="fill: none; stroke: #cc0033; stroke-width: 1.5"/>
    <path d="M 379.316364 353.331008 
L 379.316364 353.056324 
" clip-path="url(#pb038c0e1b2)" style="fill: none; stroke: #cc0033; stroke-width: 1.5"/>
    <path d="M 402.551818 349.105216 
L 402.551818 348.671731 
" clip-path="url(#pb038c0e1b2)" style="fill: none; stroke: #cc0033; stroke-width: 1.5"/>
    <path d="M 425.787273 342.52473 
L 425.787273 341.958921 
" clip-path="url(#pb038c0e1b2)" style="fill: none; stroke: #cc0033; stroke-width: 1.5"/>
    <path d="M 449.022727 333.921647 
L 449.022727 333.198434 
" clip-path="url(#pb038c0e1b2)" style="fill: none; stroke: #cc0033; stroke-width: 1.5"/>
    <path d="M 472.258182 320.554113 
L 472.258182 319.918557 
" clip-path="url(#pb038c0e1b2)" style="fill: none; stroke: #cc0033; stroke-width: 1.5"/>
    <path d="M 495.493636 303.464932 
L 495.493636 302.108505 
" clip-path="url(#pb038c0e1b2)" style="fill: none; stroke: #cc0033; stroke-width: 1.5"/>
    <path d="M 518.729091 282.519 
L 518.729091 281.562817 
" clip-path="url(#pb038c0e1b2)" style="fill: none; stroke: #cc0033; stroke-width: 1.5"/>
    <path d="M 541.964545 258.452413 
L 541.964545 257.868533 
" clip-path="url(#pb038c0e1b2)" style="fill: none; stroke: #cc0033; stroke-width: 1.5"/>
   </g>
   <g id="line2d_22">
    <g clip-path="url(#pb038c0e1b2)">
     <use xlink:href="#mf97d634d27" x="77.255455" y="373.532727" style="fill: #cc0033; stroke: #cc0033"/>
     <use xlink:href="#mf97d634d27" x="100.490909" y="373.183792" style="fill: #cc0033; stroke: #cc0033"/>
     <use xlink:href="#mf97d634d27" x="123.726364" y="372.783424" style="fill: #cc0033; stroke: #cc0033"/>
     <use xlink:href="#mf97d634d27" x="146.961818" y="372.294895" style="fill: #cc0033; stroke: #cc0033"/>
     <use xlink:href="#mf97d634d27" x="170.197273" y="371.548633" style="fill: #cc0033; stroke: #cc0033"/>
     <use xlink:href="#mf97d634d27" x="193.432727" y="370.656206" style="fill: #cc0033; stroke: #cc0033"/>
     <use xlink:href="#mf97d634d27" x="216.668182" y="369.758119" style="fill: #cc0033; stroke: #cc0033"/>
     <use xlink:href="#mf97d634d27" x="239.903636" y="368.628292" style="fill: #cc0033; stroke: #cc0033"/>
     <use xlink:href="#mf97d634d27" x="263.139091" y="366.988464" style="fill: #cc0033; stroke: #cc0033"/>
     <use xlink:href="#mf97d634d27" x="286.374545" y="365.43309" style="fill: #cc0033; stroke: #cc0033"/>
     <use xlink:href="#mf97d634d27" x="309.61" y="363.43644" style="fill: #cc0033; stroke: #cc0033"/>
     <use xlink:href="#mf97d634d27" x="332.845455" y="360.715728" style="fill: #cc0033; stroke: #cc0033"/>
     <use xlink:href="#mf97d634d27" x="356.080909" y="357.562085" style="fill: #cc0033; stroke: #cc0033"/>
     <use xlink:href="#mf97d634d27" x="379.316364" y="353.331008" style="fill: #cc0033; stroke: #cc0033"/>
     <use xlink:href="#mf97d634d27" x="402.551818" y="349.105216" style="fill: #cc0033; stroke: #cc0033"/>
     <use xlink:href="#mf97d634d27" x="425.787273" y="342.52473" style="fill: #cc0033; stroke: #cc0033"/>
     <use xlink:href="#mf97d634d27" x="449.022727" y="333.921647" style="fill: #cc0033; stroke: #cc0033"/>
     <use xlink:href="#mf97d634d27" x="472.258182" y="320.554113" style="fill: #cc0033; stroke: #cc0033"/>
     <use xlink:href="#mf97d634d27" x="495.493636" y="303.464932" style="fill: #cc0033; stroke: #cc0033"/>
     <use xlink:href="#mf97d634d27" x="518.729091" y="282.519" style="fill: #cc0033; stroke: #cc0033"/>
     <use xlink:href="#mf97d634d27" x="541.964545" y="258.452413" style="fill: #cc0033; stroke: #cc0033"/>
    </g>
   </g>
   <g id="line2d_23">
    <g clip-path="url(#pb038c0e1b2)">
     <use xlink:href="#mf97d634d27" x="77.255455" y="373.479538" style="fill: #cc0033; stroke: #cc0033"/>
     <use xlink:href="#mf97d634d27" x="100.490909" y="373.025492" style="fill: #cc0033; stroke: #cc0033"/>
     <use xlink:href="#mf97d634d27" x="123.726364" y="372.731097" style="fill: #cc0033; stroke: #cc0033"/>
     <use xlink:href="#mf97d634d27" x="146.961818" y="372.169013" style="fill: #cc0033; stroke: #cc0033"/>
     <use xlink:href="#mf97d634d27" x="170.197273" y="371.524218" style="fill: #cc0033; stroke: #cc0033"/>
     <use xlink:href="#mf97d634d27" x="193.432727" y="370.635158" style="fill: #cc0033; stroke: #cc0033"/>
     <use xlink:href="#mf97d634d27" x="216.668182" y="369.680482" style="fill: #cc0033; stroke: #cc0033"/>
     <use xlink:href="#mf97d634d27" x="239.903636" y="368.48076" style="fill: #cc0033; stroke: #cc0033"/>
     <use xlink:href="#mf97d634d27" x="263.139091" y="366.738458" style="fill: #cc0033; stroke: #cc0033"/>
     <use xlink:href="#mf97d634d27" x="286.374545" y="365.134692" style="fill: #cc0033; stroke: #cc0033"/>
     <use xlink:href="#mf97d634d27" x="309.61" y="363.07096" style="fill: #cc0033; stroke: #cc0033"/>
     <use xlink:href="#mf97d634d27" x="332.845455" y="360.590497" style="fill: #cc0033; stroke: #cc0033"/>
     <use xlink:href="#mf97d634d27" x="356.080909" y="357.297341" style="fill: #cc0033; stroke: #cc0033"/>
     <use xlink:href="#mf97d634d27" x="379.316364" y="353.056324" style="fill: #cc0033; stroke: #cc0033"/>
     <use xlink:href="#mf97d634d27" x="402.551818" y="348.671731" style="fill: #cc0033; stroke: #cc0033"/>
     <use xlink:href="#mf97d634d27" x="425.787273" y="341.958921" style="fill: #cc0033; stroke: #cc0033"/>
     <use xlink:href="#mf97d634d27" x="449.022727" y="333.198434" style="fill: #cc0033; stroke: #cc0033"/>
     <use xlink:href="#mf97d634d27" x="472.258182" y="319.918557" style="fill: #cc0033; stroke: #cc0033"/>
     <use xlink:href="#mf97d634d27" x="495.493636" y="302.108505" style="fill: #cc0033; stroke: #cc0033"/>
     <use xlink:href="#mf97d634d27" x="518.729091" y="281.562817" style="fill: #cc0033; stroke: #cc0033"/>
     <use xlink:href="#mf97d634d27" x="541.964545" y="257.868533" style="fill: #cc0033; stroke: #cc0033"/>
    </g>
   </g>
   <g id="line2d_24">
    <path d="M 77.255455 369.765536 
L 100.490909 368.838723 
L 123.726364 367.677519 
L 146.961818 366.237525 
L 170.197273 364.244764 
L 193.432727 361.709985 
L 216.668182 359.324251 
L 239.903636 356.083069 
L 263.139091 351.868781 
L 286.374545 347.157457 
L 309.61 341.844598 
L 332.845455 334.059965 
L 356.080909 325.773651 
L 379.316364 314.022999 
L 402.551818 302.360275 
L 425.787273 282.986117 
L 449.022727 259.832174 
L 472.258182 220.688722 
L 495.493636 172.099849 
L 518.729091 113.162956 
L 541.964545 43.440264 
" clip-path="url(#pb038c0e1b2)" style="fill: none; stroke-dasharray: 1.5,2.475; stroke-dashoffset: 0; stroke: #000099; stroke-width: 1.5"/>
   </g>
   <g id="line2d_25">
    <path d="M 77.255455 371.176834 
L 100.490909 370.485109 
L 123.726364 369.622338 
L 146.961818 368.513962 
L 170.197273 367.094232 
L 193.432727 365.204948 
L 216.668182 363.446126 
L 239.903636 360.963769 
L 263.139091 357.760516 
L 286.374545 354.309221 
L 309.61 350.502471 
L 332.845455 344.822944 
L 356.080909 338.736829 
L 379.316364 330.179222 
L 402.551818 321.864329 
L 425.787273 307.451706 
L 449.022727 291.00532 
L 472.258182 262.415881 
L 495.493636 227.825612 
L 518.729091 185.637986 
L 541.964545 135.198333 
" clip-path="url(#pb038c0e1b2)" style="fill: none; stroke: #000099; stroke-width: 1.5; stroke-linecap: square"/>
   </g>
   <g id="line2d_26">
    <path d="M 77.255455 372.415968 
L 100.490909 371.777582 
L 123.726364 371.213709 
L 146.961818 370.488716 
L 170.197273 369.353541 
L 193.432727 367.943163 
L 216.668182 366.510638 
L 239.903636 364.671389 
L 263.139091 362.189246 
L 286.374545 359.58402 
L 309.61 356.40456 
L 332.845455 352.244723 
L 356.080909 347.163023 
L 379.316364 339.840865 
L 402.551818 332.590946 
L 425.787273 321.7005 
L 449.022727 308.202605 
L 472.258182 286.503265 
L 495.493636 256.81545 
L 518.729091 219.989082 
L 541.964545 182.050164 
" clip-path="url(#pb038c0e1b2)" style="fill: none; stroke-dasharray: 1.5,2.475; stroke-dashoffset: 0; stroke: #cc0033; stroke-width: 1.5"/>
   </g>
   <g id="line2d_27">
    <path d="M 77.255455 373.510713 
L 100.490909 373.110742 
L 123.726364 372.765222 
L 146.961818 372.25286 
L 170.197273 371.536922 
L 193.432727 370.648041 
L 216.668182 369.72899 
L 239.903636 368.551156 
L 263.139091 366.8846 
L 286.374545 365.326099 
L 309.61 363.229423 
L 332.845455 360.6576 
L 356.080909 357.48113 
L 379.316364 353.131604 
L 402.551818 348.93208 
L 425.787273 342.11903 
L 449.022727 333.676797 
L 472.258182 320.226187 
L 495.493636 302.943699 
L 518.729091 282.066957 
L 541.964545 258.162043 
" clip-path="url(#pb038c0e1b2)" style="fill: none; stroke: #cc0033; stroke-width: 1.5; stroke-linecap: square"/>
   </g>
   <g id="patch_3">
    <path d="M 54.02 390.04 
L 54.02 26.88 
" style="fill: none; stroke: #000000; stroke-width: 0.8; stroke-linejoin: miter; stroke-linecap: square"/>
   </g>
   <g id="patch_4">
    <path d="M 565.2 390.04 
L 565.2 26.88 
" style="fill: none; stroke: #000000; stroke-width: 0.8; stroke-linejoin: miter; stroke-linecap: square"/>
   </g>
   <g id="patch_5">
    <path d="M 54.02 390.04 
L 565.2 390.04 
" style="fill: none; stroke: #000000; stroke-width: 0.8; stroke-linejoin: miter; stroke-linecap: square"/>
   </g>
   <g id="patch_6">
    <path d="M 54.02 26.88 
L 565.2 26.88 
" style="fill: none; stroke: #000000; stroke-width: 0.8; stroke-linejoin: miter; stroke-linecap: square"/>
   </g>
   <g id="text_18">
    <!-- Implementations of Bron-Kerbosch on a random graph of order 100 -->
    <g transform="translate(54.02 20.88)scale(0.12 -0.12)">
     <defs>
      <path id="DejaVuSans-49" d="M 628 4666 
L 1259 4666 
L 1259 0 
L 628 0 
L 628 4666 
z
" transform="scale(0.015625)"/>
      <path id="DejaVuSans-6d" d="M 3328 2828 
Q 3544 3216 3844 3400 
Q 4144 3584 4550 3584 
Q 5097 3584 5394 3201 
Q 5691 2819 5691 2113 
L 5691 0 
L 5113 0 
L 5113 2094 
Q 5113 2597 4934 2840 
Q 4756 3084 4391 3084 
Q 3944 3084 3684 2787 
Q 3425 2491 3425 1978 
L 3425 0 
L 2847 0 
L 2847 2094 
Q 2847 2600 2669 2842 
Q 2491 3084 2119 3084 
Q 1678 3084 1418 2786 
Q 1159 2488 1159 1978 
L 1159 0 
L 581 0 
L 581 3500 
L 1159 3500 
L 1159 2956 
Q 1356 3278 1631 3431 
Q 1906 3584 2284 3584 
Q 2666 3584 2933 3390 
Q 3200 3197 3328 2828 
z
" transform="scale(0.015625)"/>
      <path id="DejaVuSans-6c" d="M 603 4863 
L 1178 4863 
L 1178 0 
L 603 0 
L 603 4863 
z
" transform="scale(0.015625)"/>
      <path id="DejaVuSans-61" d="M 2194 1759 
Q 1497 1759 1228 1600 
Q 959 1441 959 1056 
Q 959 750 1161 570 
Q 1363 391 1709 391 
Q 2188 391 2477 730 
Q 2766 1069 2766 1631 
L 2766 1759 
L 2194 1759 
z
M 3341 1997 
L 3341 0 
L 2766 0 
L 2766 531 
Q 2569 213 2275 61 
Q 1981 -91 1556 -91 
Q 1019 -91 701 211 
Q 384 513 384 1019 
Q 384 1609 779 1909 
Q 1175 2209 1959 2209 
L 2766 2209 
L 2766 2266 
Q 2766 2663 2505 2880 
Q 2244 3097 1772 3097 
Q 1472 3097 1187 3025 
Q 903 2953 641 2809 
L 641 3341 
Q 956 3463 1253 3523 
Q 1550 3584 1831 3584 
Q 2591 3584 2966 3190 
Q 3341 2797 3341 1997 
z
" transform="scale(0.015625)"/>
      <path id="DejaVuSans-66" d="M 2375 4863 
L 2375 4384 
L 1825 4384 
Q 1516 4384 1395 4259 
Q 1275 4134 1275 3809 
L 1275 3500 
L 2222 3500 
L 2222 3053 
L 1275 3053 
L 1275 0 
L 697 0 
L 697 3053 
L 147 3053 
L 147 3500 
L 697 3500 
L 697 3744 
Q 697 4328 969 4595 
Q 1241 4863 1831 4863 
L 2375 4863 
z
" transform="scale(0.015625)"/>
      <path id="DejaVuSans-42" d="M 1259 2228 
L 1259 519 
L 2272 519 
Q 2781 519 3026 730 
Q 3272 941 3272 1375 
Q 3272 1813 3026 2020 
Q 2781 2228 2272 2228 
L 1259 2228 
z
M 1259 4147 
L 1259 2741 
L 2194 2741 
Q 2656 2741 2882 2914 
Q 3109 3088 3109 3444 
Q 3109 3797 2882 3972 
Q 2656 4147 2194 4147 
L 1259 4147 
z
M 628 4666 
L 2241 4666 
Q 2963 4666 3353 4366 
Q 3744 4066 3744 3513 
Q 3744 3084 3544 2831 
Q 3344 2578 2956 2516 
Q 3422 2416 3680 2098 
Q 3938 1781 3938 1306 
Q 3938 681 3513 340 
Q 3088 0 2303 0 
L 628 0 
L 628 4666 
z
" transform="scale(0.015625)"/>
      <path id="DejaVuSans-72" d="M 2631 2963 
Q 2534 3019 2420 3045 
Q 2306 3072 2169 3072 
Q 1681 3072 1420 2755 
Q 1159 2438 1159 1844 
L 1159 0 
L 581 0 
L 581 3500 
L 1159 3500 
L 1159 2956 
Q 1341 3275 1631 3429 
Q 1922 3584 2338 3584 
Q 2397 3584 2469 3576 
Q 2541 3569 2628 3553 
L 2631 2963 
z
" transform="scale(0.015625)"/>
      <path id="DejaVuSans-2d" d="M 313 2009 
L 1997 2009 
L 1997 1497 
L 313 1497 
L 313 2009 
z
" transform="scale(0.015625)"/>
      <path id="DejaVuSans-4b" d="M 628 4666 
L 1259 4666 
L 1259 2694 
L 3353 4666 
L 4166 4666 
L 1850 2491 
L 4331 0 
L 3500 0 
L 1259 2247 
L 1259 0 
L 628 0 
L 628 4666 
z
" transform="scale(0.015625)"/>
      <path id="DejaVuSans-62" d="M 3116 1747 
Q 3116 2381 2855 2742 
Q 2594 3103 2138 3103 
Q 1681 3103 1420 2742 
Q 1159 2381 1159 1747 
Q 1159 1113 1420 752 
Q 1681 391 2138 391 
Q 2594 391 2855 752 
Q 3116 1113 3116 1747 
z
M 1159 2969 
Q 1341 3281 1617 3432 
Q 1894 3584 2278 3584 
Q 2916 3584 3314 3078 
Q 3713 2572 3713 1747 
Q 3713 922 3314 415 
Q 2916 -91 2278 -91 
Q 1894 -91 1617 61 
Q 1341 213 1159 525 
L 1159 0 
L 581 0 
L 581 4863 
L 1159 4863 
L 1159 2969 
z
" transform="scale(0.015625)"/>
      <path id="DejaVuSans-68" d="M 3513 2113 
L 3513 0 
L 2938 0 
L 2938 2094 
Q 2938 2591 2744 2837 
Q 2550 3084 2163 3084 
Q 1697 3084 1428 2787 
Q 1159 2491 1159 1978 
L 1159 0 
L 581 0 
L 581 4863 
L 1159 4863 
L 1159 2956 
Q 1366 3272 1645 3428 
Q 1925 3584 2291 3584 
Q 2894 3584 3203 3211 
Q 3513 2838 3513 2113 
z
" transform="scale(0.015625)"/>
     </defs>
     <use xlink:href="#DejaVuSans-49"/>
     <use xlink:href="#DejaVuSans-6d" x="29.492188"/>
     <use xlink:href="#DejaVuSans-70" x="126.904297"/>
     <use xlink:href="#DejaVuSans-6c" x="190.380859"/>
     <use xlink:href="#DejaVuSans-65" x="218.164062"/>
     <use xlink:href="#DejaVuSans-6d" x="279.6875"/>
     <use xlink:href="#DejaVuSans-65" x="377.099609"/>
     <use xlink:href="#DejaVuSans-6e" x="438.623047"/>
     <use xlink:href="#DejaVuSans-74" x="502.001953"/>
     <use xlink:href="#DejaVuSans-61" x="541.210938"/>
     <use xlink:href="#DejaVuSans-74" x="602.490234"/>
     <use xlink:href="#DejaVuSans-69" x="641.699219"/>
     <use xlink:href="#DejaVuSans-6f" x="669.482422"/>
     <use xlink:href="#DejaVuSans-6e" x="730.664062"/>
     <use xlink:href="#DejaVuSans-73" x="794.042969"/>
     <use xlink:href="#DejaVuSans-20" x="846.142578"/>
     <use xlink:href="#DejaVuSans-6f" x="877.929688"/>
     <use xlink:href="#DejaVuSans-66" x="939.111328"/>
     <use xlink:href="#DejaVuSans-20" x="974.316406"/>
     <use xlink:href="#DejaVuSans-42" x="1006.103516"/>
     <use xlink:href="#DejaVuSans-72" x="1074.707031"/>
     <use xlink:href="#DejaVuSans-6f" x="1113.570312"/>
     <use xlink:href="#DejaVuSans-6e" x="1174.751953"/>
     <use xlink:href="#DejaVuSans-2d" x="1238.130859"/>
     <use xlink:href="#DejaVuSans-4b" x="1274.214844"/>
     <use xlink:href="#DejaVuSans-65" x="1334.791016"/>
     <use xlink:href="#DejaVuSans-72" x="1396.314453"/>
     <use xlink:href="#DejaVuSans-62" x="1437.427734"/>
     <use xlink:href="#DejaVuSans-6f" x="1500.904297"/>
     <use xlink:href="#DejaVuSans-73" x="1562.085938"/>
     <use xlink:href="#DejaVuSans-63" x="1614.185547"/>
     <use xlink:href="#DejaVuSans-68" x="1669.166016"/>
     <use xlink:href="#DejaVuSans-20" x="1732.544922"/>
     <use xlink:href="#DejaVuSans-6f" x="1764.332031"/>
     <use xlink:href="#DejaVuSans-6e" x="1825.513672"/>
     <use xlink:href="#DejaVuSans-20" x="1888.892578"/>
     <use xlink:href="#DejaVuSans-61" x="1920.679688"/>
     <use xlink:href="#DejaVuSans-20" x="1981.958984"/>
     <use xlink:href="#DejaVuSans-72" x="2013.746094"/>
     <use xlink:href="#DejaVuSans-61" x="2054.859375"/>
     <use xlink:href="#DejaVuSans-6e" x="2116.138672"/>
     <use xlink:href="#DejaVuSans-64" x="2179.517578"/>
     <use xlink:href="#DejaVuSans-6f" x="2242.994141"/>
     <use xlink:href="#DejaVuSans-6d" x="2304.175781"/>
     <use xlink:href="#DejaVuSans-20" x="2401.587891"/>
     <use xlink:href="#DejaVuSans-67" x="2433.375"/>
     <use xlink:href="#DejaVuSans-72" x="2496.851562"/>
     <use xlink:href="#DejaVuSans-61" x="2537.964844"/>
     <use xlink:href="#DejaVuSans-70" x="2599.244141"/>
     <use xlink:href="#DejaVuSans-68" x="2662.720703"/>
     <use xlink:href="#DejaVuSans-20" x="2726.099609"/>
     <use xlink:href="#DejaVuSans-6f" x="2757.886719"/>
     <use xlink:href="#DejaVuSans-66" x="2819.068359"/>
     <use xlink:href="#DejaVuSans-20" x="2854.273438"/>
     <use xlink:href="#DejaVuSans-6f" x="2886.060547"/>
     <use xlink:href="#DejaVuSans-72" x="2947.242188"/>
     <use xlink:href="#DejaVuSans-64" x="2986.605469"/>
     <use xlink:href="#DejaVuSans-65" x="3050.082031"/>
     <use xlink:href="#DejaVuSans-72" x="3111.605469"/>
     <use xlink:href="#DejaVuSans-20" x="3152.71875"/>
     <use xlink:href="#DejaVuSans-31" x="3184.505859"/>
     <use xlink:href="#DejaVuSans-30" x="3248.128906"/>
     <use xlink:href="#DejaVuSans-30" x="3311.751953"/>
    </g>
   </g>
   <g id="legend_1">
    <g id="patch_7">
     <path d="M 61.02 93.5925 
L 166.6325 93.5925 
Q 168.6325 93.5925 168.6325 91.5925 
L 168.6325 33.88 
Q 168.6325 31.88 166.6325 31.88 
L 61.02 31.88 
Q 59.02 31.88 59.02 33.88 
L 59.02 91.5925 
Q 59.02 93.5925 61.02 93.5925 
z
" style="fill: #ffffff; opacity: 0.8; stroke: #cccccc; stroke-linejoin: miter"/>
    </g>
    <g id="LineCollection_5">
     <path d="M 73.02 44.978437 
L 73.02 34.978437 
" style="fill: none; stroke: #000099; stroke-width: 1.5"/>
    </g>
    <g id="line2d_28">
     <g>
      <use xlink:href="#m625f373af2" x="73.02" y="44.978437" style="fill: #000099; stroke: #000099"/>
     </g>
    </g>
    <g id="line2d_29">
     <g>
      <use xlink:href="#m625f373af2" x="73.02" y="34.978437" style="fill: #000099; stroke: #000099"/>
     </g>
    </g>
    <g id="line2d_30">
     <path d="M 63.02 39.978437 
L 83.02 39.978437 
" style="fill: none; stroke-dasharray: 1.5,2.475; stroke-dashoffset: 0; stroke: #000099; stroke-width: 1.5"/>
    </g>
    <g id="line2d_31"/>
    <g id="text_19">
     <!-- Python3 Ver0 -->
     <g transform="translate(91.02 43.478437)scale(0.1 -0.1)">
      <defs>
       <path id="DejaVuSans-50" d="M 1259 4147 
L 1259 2394 
L 2053 2394 
Q 2494 2394 2734 2622 
Q 2975 2850 2975 3272 
Q 2975 3691 2734 3919 
Q 2494 4147 2053 4147 
L 1259 4147 
z
M 628 4666 
L 2053 4666 
Q 2838 4666 3239 4311 
Q 3641 3956 3641 3272 
Q 3641 2581 3239 2228 
Q 2838 1875 2053 1875 
L 1259 1875 
L 1259 0 
L 628 0 
L 628 4666 
z
" transform="scale(0.015625)"/>
       <path id="DejaVuSans-79" d="M 2059 -325 
Q 1816 -950 1584 -1140 
Q 1353 -1331 966 -1331 
L 506 -1331 
L 506 -850 
L 844 -850 
Q 1081 -850 1212 -737 
Q 1344 -625 1503 -206 
L 1606 56 
L 191 3500 
L 800 3500 
L 1894 763 
L 2988 3500 
L 3597 3500 
L 2059 -325 
z
" transform="scale(0.015625)"/>
       <path id="DejaVuSans-56" d="M 1831 0 
L 50 4666 
L 709 4666 
L 2188 738 
L 3669 4666 
L 4325 4666 
L 2547 0 
L 1831 0 
z
" transform="scale(0.015625)"/>
      </defs>
      <use xlink:href="#DejaVuSans-50"/>
      <use xlink:href="#DejaVuSans-79" x="60.302734"/>
      <use xlink:href="#DejaVuSans-74" x="119.482422"/>
      <use xlink:href="#DejaVuSans-68" x="158.691406"/>
      <use xlink:href="#DejaVuSans-6f" x="222.070312"/>
      <use xlink:href="#DejaVuSans-6e" x="283.251953"/>
      <use xlink:href="#DejaVuSans-33" x="346.630859"/>
      <use xlink:href="#DejaVuSans-20" x="410.253906"/>
      <use xlink:href="#DejaVuSans-56" x="442.041016"/>
      <use xlink:href="#DejaVuSans-65" x="502.699219"/>
      <use xlink:href="#DejaVuSans-72" x="564.222656"/>
      <use xlink:href="#DejaVuSans-30" x="605.335938"/>
     </g>
    </g>
    <g id="LineCollection_6">
     <path d="M 73.02 59.656563 
L 73.02 49.656563 
" style="fill: none; stroke: #000099; stroke-width: 1.5"/>
    </g>
    <g id="line2d_32">
     <g>
      <use xlink:href="#m625f373af2" x="73.02" y="59.656563" style="fill: #000099; stroke: #000099"/>
     </g>
    </g>
    <g id="line2d_33">
     <g>
      <use xlink:href="#m625f373af2" x="73.02" y="49.656563" style="fill: #000099; stroke: #000099"/>
     </g>
    </g>
    <g id="line2d_34">
     <path d="M 63.02 54.656563 
L 83.02 54.656563 
" style="fill: none; stroke: #000099; stroke-width: 1.5; stroke-linecap: square"/>
    </g>
    <g id="line2d_35"/>
    <g id="text_20">
     <!-- Python3 Ver1 -->
     <g transform="translate(91.02 58.156563)scale(0.1 -0.1)">
      <use xlink:href="#DejaVuSans-50"/>
      <use xlink:href="#DejaVuSans-79" x="60.302734"/>
      <use xlink:href="#DejaVuSans-74" x="119.482422"/>
      <use xlink:href="#DejaVuSans-68" x="158.691406"/>
      <use xlink:href="#DejaVuSans-6f" x="222.070312"/>
      <use xlink:href="#DejaVuSans-6e" x="283.251953"/>
      <use xlink:href="#DejaVuSans-33" x="346.630859"/>
      <use xlink:href="#DejaVuSans-20" x="410.253906"/>
      <use xlink:href="#DejaVuSans-56" x="442.041016"/>
      <use xlink:href="#DejaVuSans-65" x="502.699219"/>
      <use xlink:href="#DejaVuSans-72" x="564.222656"/>
      <use xlink:href="#DejaVuSans-31" x="605.335938"/>
     </g>
    </g>
    <g id="LineCollection_7">
     <path d="M 73.02 74.334687 
L 73.02 64.334687 
" style="fill: none; stroke: #cc0033; stroke-width: 1.5"/>
    </g>
    <g id="line2d_36">
     <g>
      <use xlink:href="#mf97d634d27" x="73.02" y="74.334687" style="fill: #cc0033; stroke: #cc0033"/>
     </g>
    </g>
    <g id="line2d_37">
     <g>
      <use xlink:href="#mf97d634d27" x="73.02" y="64.334687" style="fill: #cc0033; stroke: #cc0033"/>
     </g>
    </g>
    <g id="line2d_38">
     <path d="M 63.02 69.334687 
L 83.02 69.334687 
" style="fill: none; stroke-dasharray: 1.5,2.475; stroke-dashoffset: 0; stroke: #cc0033; stroke-width: 1.5"/>
    </g>
    <g id="line2d_39"/>
    <g id="text_21">
     <!-- Rust Ver0@fnv -->
     <g transform="translate(91.02 72.834687)scale(0.1 -0.1)">
      <defs>
       <path id="DejaVuSans-52" d="M 2841 2188 
Q 3044 2119 3236 1894 
Q 3428 1669 3622 1275 
L 4263 0 
L 3584 0 
L 2988 1197 
Q 2756 1666 2539 1819 
Q 2322 1972 1947 1972 
L 1259 1972 
L 1259 0 
L 628 0 
L 628 4666 
L 2053 4666 
Q 2853 4666 3247 4331 
Q 3641 3997 3641 3322 
Q 3641 2881 3436 2590 
Q 3231 2300 2841 2188 
z
M 1259 4147 
L 1259 2491 
L 2053 2491 
Q 2509 2491 2742 2702 
Q 2975 2913 2975 3322 
Q 2975 3731 2742 3939 
Q 2509 4147 2053 4147 
L 1259 4147 
z
" transform="scale(0.015625)"/>
       <path id="DejaVuSans-75" d="M 544 1381 
L 544 3500 
L 1119 3500 
L 1119 1403 
Q 1119 906 1312 657 
Q 1506 409 1894 409 
Q 2359 409 2629 706 
Q 2900 1003 2900 1516 
L 2900 3500 
L 3475 3500 
L 3475 0 
L 2900 0 
L 2900 538 
Q 2691 219 2414 64 
Q 2138 -91 1772 -91 
Q 1169 -91 856 284 
Q 544 659 544 1381 
z
M 1991 3584 
L 1991 3584 
z
" transform="scale(0.015625)"/>
       <path id="DejaVuSans-40" d="M 2381 1678 
Q 2381 1231 2603 976 
Q 2825 722 3213 722 
Q 3597 722 3817 978 
Q 4038 1234 4038 1678 
Q 4038 2116 3813 2373 
Q 3588 2631 3206 2631 
Q 2828 2631 2604 2375 
Q 2381 2119 2381 1678 
z
M 4084 744 
Q 3897 503 3655 389 
Q 3413 275 3091 275 
Q 2553 275 2217 664 
Q 1881 1053 1881 1678 
Q 1881 2303 2218 2693 
Q 2556 3084 3091 3084 
Q 3413 3084 3656 2967 
Q 3900 2850 4084 2613 
L 4084 3022 
L 4531 3022 
L 4531 722 
Q 4988 791 5245 1139 
Q 5503 1488 5503 2041 
Q 5503 2375 5404 2669 
Q 5306 2963 5106 3213 
Q 4781 3622 4314 3839 
Q 3847 4056 3297 4056 
Q 2913 4056 2559 3954 
Q 2206 3853 1906 3653 
Q 1416 3334 1139 2817 
Q 863 2300 863 1697 
Q 863 1200 1042 765 
Q 1222 331 1563 0 
Q 1891 -325 2322 -495 
Q 2753 -666 3244 -666 
Q 3647 -666 4036 -530 
Q 4425 -394 4750 -141 
L 5031 -488 
Q 4641 -791 4180 -952 
Q 3719 -1113 3244 -1113 
Q 2666 -1113 2153 -908 
Q 1641 -703 1241 -313 
Q 841 78 631 592 
Q 422 1106 422 1697 
Q 422 2266 634 2781 
Q 847 3297 1241 3688 
Q 1644 4084 2172 4295 
Q 2700 4506 3291 4506 
Q 3953 4506 4520 4234 
Q 5088 3963 5472 3463 
Q 5706 3156 5829 2797 
Q 5953 2438 5953 2053 
Q 5953 1231 5456 756 
Q 4959 281 4084 263 
L 4084 744 
z
" transform="scale(0.015625)"/>
       <path id="DejaVuSans-76" d="M 191 3500 
L 800 3500 
L 1894 563 
L 2988 3500 
L 3597 3500 
L 2284 0 
L 1503 0 
L 191 3500 
z
" transform="scale(0.015625)"/>
      </defs>
      <use xlink:href="#DejaVuSans-52"/>
      <use xlink:href="#DejaVuSans-75" x="64.982422"/>
      <use xlink:href="#DejaVuSans-73" x="128.361328"/>
      <use xlink:href="#DejaVuSans-74" x="180.460938"/>
      <use xlink:href="#DejaVuSans-20" x="219.669922"/>
      <use xlink:href="#DejaVuSans-56" x="251.457031"/>
      <use xlink:href="#DejaVuSans-65" x="312.115234"/>
      <use xlink:href="#DejaVuSans-72" x="373.638672"/>
      <use xlink:href="#DejaVuSans-30" x="414.751953"/>
      <use xlink:href="#DejaVuSans-40" x="478.375"/>
      <use xlink:href="#DejaVuSans-66" x="578.375"/>
      <use xlink:href="#DejaVuSans-6e" x="613.580078"/>
      <use xlink:href="#DejaVuSans-76" x="676.958984"/>
     </g>
    </g>
    <g id="LineCollection_8">
     <path d="M 73.02 89.012812 
L 73.02 79.012812 
" style="fill: none; stroke: #cc0033; stroke-width: 1.5"/>
    </g>
    <g id="line2d_40">
     <g>
      <use xlink:href="#mf97d634d27" x="73.02" y="89.012812" style="fill: #cc0033; stroke: #cc0033"/>
     </g>
    </g>
    <g id="line2d_41">
     <g>
      <use xlink:href="#mf97d634d27" x="73.02" y="79.012812" style="fill: #cc0033; stroke: #cc0033"/>
     </g>
    </g>
    <g id="line2d_42">
     <path d="M 63.02 84.012812 
L 83.02 84.012812 
" style="fill: none; stroke: #cc0033; stroke-width: 1.5; stroke-linecap: square"/>
    </g>
    <g id="line2d_43"/>
    <g id="text_22">
     <!-- Rust Ver1@fnv -->
     <g transform="translate(91.02 87.512812)scale(0.1 -0.1)">
      <use xlink:href="#DejaVuSans-52"/>
      <use xlink:href="#DejaVuSans-75" x="64.982422"/>
      <use xlink:href="#DejaVuSans-73" x="128.361328"/>
      <use xlink:href="#DejaVuSans-74" x="180.460938"/>
      <use xlink:href="#DejaVuSans-20" x="219.669922"/>
      <use xlink:href="#DejaVuSans-56" x="251.457031"/>
      <use xlink:href="#DejaVuSans-65" x="312.115234"/>
      <use xlink:href="#DejaVuSans-72" x="373.638672"/>
      <use xlink:href="#DejaVuSans-31" x="414.751953"/>
      <use xlink:href="#DejaVuSans-40" x="478.375"/>
      <use xlink:href="#DejaVuSans-66" x="578.375"/>
      <use xlink:href="#DejaVuSans-6e" x="613.580078"/>
      <use xlink:href="#DejaVuSans-76" x="676.958984"/>
     </g>
    </g>
   </g>
  </g>
 </g>
 <defs>
  <clipPath id="pb038c0e1b2">
   <rect x="54.02" y="26.88" width="511.18" height="363.16"/>
  </clipPath>
 </defs>
</svg>
