<?xml version="1.0" encoding="utf-8" standalone="no"?>
<!DOCTYPE svg PUBLIC "-//W3C//DTD SVG 1.1//EN"
  "http://www.w3.org/Graphics/SVG/1.1/DTD/svg11.dtd">
<svg xmlns:xlink="http://www.w3.org/1999/xlink" width="576pt" height="432pt" viewBox="0 0 576 432" xmlns="http://www.w3.org/2000/svg" version="1.1">
 <metadata>
  <rdf:RDF xmlns:dc="http://purl.org/dc/elements/1.1/" xmlns:cc="http://creativecommons.org/ns#" xmlns:rdf="http://www.w3.org/1999/02/22-rdf-syntax-ns#">
   <cc:Work>
    <dc:type rdf:resource="http://purl.org/dc/dcmitype/StillImage"/>
    <dc:date>2024-10-25T14:34:23.422839</dc:date>
    <dc:format>image/svg+xml</dc:format>
    <dc:creator>
     <cc:Agent>
      <dc:title>Matplotlib v3.9.2, https://matplotlib.org/</dc:title>
     </cc:Agent>
    </dc:creator>
   </cc:Work>
  </rdf:RDF>
 </metadata>
 <defs>
  <style type="text/css">*{stroke-linejoin: round; stroke-linecap: butt}</style>
 </defs>
 <g id="figure_1">
  <g id="patch_1">
   <path d="M 0 432 
L 576 432 
L 576 0 
L 0 0 
z
" style="fill: #ffffff"/>
  </g>
  <g id="axes_1">
   <g id="patch_2">
    <path d="M 54.02 390.04 
L 565.2 390.04 
L 565.2 26.88 
L 54.02 26.88 
z
" style="fill: #ffffff"/>
   </g>
   <g id="matplotlib.axis_1">
    <g id="xtick_1">
     <g id="line2d_1">
      <defs>
       <path id="mc74f61fcfc" d="M 0 0 
L 0 3.5 
" style="stroke: #000000; stroke-width: 0.8"/>
      </defs>
      <g>
       <use xlink:href="#mc74f61fcfc" x="113.943014" y="390.04" style="stroke: #000000; stroke-width: 0.8"/>
      </g>
     </g>
     <g id="text_1">
      <!-- 25000 -->
      <g transform="translate(98.036764 404.638438) scale(0.1 -0.1)">
       <defs>
        <path id="DejaVuSans-32" d="M 1228 531 
L 3431 531 
L 3431 0 
L 469 0 
L 469 531 
Q 828 903 1448 1529 
Q 2069 2156 2228 2338 
Q 2531 2678 2651 2914 
Q 2772 3150 2772 3378 
Q 2772 3750 2511 3984 
Q 2250 4219 1831 4219 
Q 1534 4219 1204 4116 
Q 875 4013 500 3803 
L 500 4441 
Q 881 4594 1212 4672 
Q 1544 4750 1819 4750 
Q 2544 4750 2975 4387 
Q 3406 4025 3406 3419 
Q 3406 3131 3298 2873 
Q 3191 2616 2906 2266 
Q 2828 2175 2409 1742 
Q 1991 1309 1228 531 
z
" transform="scale(0.015625)"/>
        <path id="DejaVuSans-35" d="M 691 4666 
L 3169 4666 
L 3169 4134 
L 1269 4134 
L 1269 2991 
Q 1406 3038 1543 3061 
Q 1681 3084 1819 3084 
Q 2600 3084 3056 2656 
Q 3513 2228 3513 1497 
Q 3513 744 3044 326 
Q 2575 -91 1722 -91 
Q 1428 -91 1123 -41 
Q 819 9 494 109 
L 494 744 
Q 775 591 1075 516 
Q 1375 441 1709 441 
Q 2250 441 2565 725 
Q 2881 1009 2881 1497 
Q 2881 1984 2565 2268 
Q 2250 2553 1709 2553 
Q 1456 2553 1204 2497 
Q 953 2441 691 2322 
L 691 4666 
z
" transform="scale(0.015625)"/>
        <path id="DejaVuSans-30" d="M 2034 4250 
Q 1547 4250 1301 3770 
Q 1056 3291 1056 2328 
Q 1056 1369 1301 889 
Q 1547 409 2034 409 
Q 2525 409 2770 889 
Q 3016 1369 3016 2328 
Q 3016 3291 2770 3770 
Q 2525 4250 2034 4250 
z
M 2034 4750 
Q 2819 4750 3233 4129 
Q 3647 3509 3647 2328 
Q 3647 1150 3233 529 
Q 2819 -91 2034 -91 
Q 1250 -91 836 529 
Q 422 1150 422 2328 
Q 422 3509 836 4129 
Q 1250 4750 2034 4750 
z
" transform="scale(0.015625)"/>
       </defs>
       <use xlink:href="#DejaVuSans-32"/>
       <use xlink:href="#DejaVuSans-35" x="63.623047"/>
       <use xlink:href="#DejaVuSans-30" x="127.246094"/>
       <use xlink:href="#DejaVuSans-30" x="190.869141"/>
       <use xlink:href="#DejaVuSans-30" x="254.492188"/>
      </g>
     </g>
    </g>
    <g id="xtick_2">
     <g id="line2d_2">
      <g>
       <use xlink:href="#mc74f61fcfc" x="175.088947" y="390.04" style="stroke: #000000; stroke-width: 0.8"/>
      </g>
     </g>
     <g id="text_2">
      <!-- 50000 -->
      <g transform="translate(159.182697 404.638438) scale(0.1 -0.1)">
       <use xlink:href="#DejaVuSans-35"/>
       <use xlink:href="#DejaVuSans-30" x="63.623047"/>
       <use xlink:href="#DejaVuSans-30" x="127.246094"/>
       <use xlink:href="#DejaVuSans-30" x="190.869141"/>
       <use xlink:href="#DejaVuSans-30" x="254.492188"/>
      </g>
     </g>
    </g>
    <g id="xtick_3">
     <g id="line2d_3">
      <g>
       <use xlink:href="#mc74f61fcfc" x="236.23488" y="390.04" style="stroke: #000000; stroke-width: 0.8"/>
      </g>
     </g>
     <g id="text_3">
      <!-- 75000 -->
      <g transform="translate(220.32863 404.638438) scale(0.1 -0.1)">
       <defs>
        <path id="DejaVuSans-37" d="M 525 4666 
L 3525 4666 
L 3525 4397 
L 1831 0 
L 1172 0 
L 2766 4134 
L 525 4134 
L 525 4666 
z
" transform="scale(0.015625)"/>
       </defs>
       <use xlink:href="#DejaVuSans-37"/>
       <use xlink:href="#DejaVuSans-35" x="63.623047"/>
       <use xlink:href="#DejaVuSans-30" x="127.246094"/>
       <use xlink:href="#DejaVuSans-30" x="190.869141"/>
       <use xlink:href="#DejaVuSans-30" x="254.492188"/>
      </g>
     </g>
    </g>
    <g id="xtick_4">
     <g id="line2d_4">
      <g>
       <use xlink:href="#mc74f61fcfc" x="297.380813" y="390.04" style="stroke: #000000; stroke-width: 0.8"/>
      </g>
     </g>
     <g id="text_4">
      <!-- 100000 -->
      <g transform="translate(278.293313 404.638438) scale(0.1 -0.1)">
       <defs>
        <path id="DejaVuSans-31" d="M 794 531 
L 1825 531 
L 1825 4091 
L 703 3866 
L 703 4441 
L 1819 4666 
L 2450 4666 
L 2450 531 
L 3481 531 
L 3481 0 
L 794 0 
L 794 531 
z
" transform="scale(0.015625)"/>
       </defs>
       <use xlink:href="#DejaVuSans-31"/>
       <use xlink:href="#DejaVuSans-30" x="63.623047"/>
       <use xlink:href="#DejaVuSans-30" x="127.246094"/>
       <use xlink:href="#DejaVuSans-30" x="190.869141"/>
       <use xlink:href="#DejaVuSans-30" x="254.492188"/>
       <use xlink:href="#DejaVuSans-30" x="318.115234"/>
      </g>
     </g>
    </g>
    <g id="xtick_5">
     <g id="line2d_5">
      <g>
       <use xlink:href="#mc74f61fcfc" x="358.526746" y="390.04" style="stroke: #000000; stroke-width: 0.8"/>
      </g>
     </g>
     <g id="text_5">
      <!-- 125000 -->
      <g transform="translate(339.439246 404.638438) scale(0.1 -0.1)">
       <use xlink:href="#DejaVuSans-31"/>
       <use xlink:href="#DejaVuSans-32" x="63.623047"/>
       <use xlink:href="#DejaVuSans-35" x="127.246094"/>
       <use xlink:href="#DejaVuSans-30" x="190.869141"/>
       <use xlink:href="#DejaVuSans-30" x="254.492188"/>
       <use xlink:href="#DejaVuSans-30" x="318.115234"/>
      </g>
     </g>
    </g>
    <g id="xtick_6">
     <g id="line2d_6">
      <g>
       <use xlink:href="#mc74f61fcfc" x="419.672679" y="390.04" style="stroke: #000000; stroke-width: 0.8"/>
      </g>
     </g>
     <g id="text_6">
      <!-- 150000 -->
      <g transform="translate(400.585179 404.638438) scale(0.1 -0.1)">
       <use xlink:href="#DejaVuSans-31"/>
       <use xlink:href="#DejaVuSans-35" x="63.623047"/>
       <use xlink:href="#DejaVuSans-30" x="127.246094"/>
       <use xlink:href="#DejaVuSans-30" x="190.869141"/>
       <use xlink:href="#DejaVuSans-30" x="254.492188"/>
       <use xlink:href="#DejaVuSans-30" x="318.115234"/>
      </g>
     </g>
    </g>
    <g id="xtick_7">
     <g id="line2d_7">
      <g>
       <use xlink:href="#mc74f61fcfc" x="480.818612" y="390.04" style="stroke: #000000; stroke-width: 0.8"/>
      </g>
     </g>
     <g id="text_7">
      <!-- 175000 -->
      <g transform="translate(461.731112 404.638438) scale(0.1 -0.1)">
       <use xlink:href="#DejaVuSans-31"/>
       <use xlink:href="#DejaVuSans-37" x="63.623047"/>
       <use xlink:href="#DejaVuSans-35" x="127.246094"/>
       <use xlink:href="#DejaVuSans-30" x="190.869141"/>
       <use xlink:href="#DejaVuSans-30" x="254.492188"/>
       <use xlink:href="#DejaVuSans-30" x="318.115234"/>
      </g>
     </g>
    </g>
    <g id="xtick_8">
     <g id="line2d_8">
      <g>
       <use xlink:href="#mc74f61fcfc" x="541.964545" y="390.04" style="stroke: #000000; stroke-width: 0.8"/>
      </g>
     </g>
     <g id="text_8">
      <!-- 200000 -->
      <g transform="translate(522.877045 404.638438) scale(0.1 -0.1)">
       <use xlink:href="#DejaVuSans-32"/>
       <use xlink:href="#DejaVuSans-30" x="63.623047"/>
       <use xlink:href="#DejaVuSans-30" x="127.246094"/>
       <use xlink:href="#DejaVuSans-30" x="190.869141"/>
       <use xlink:href="#DejaVuSans-30" x="254.492188"/>
       <use xlink:href="#DejaVuSans-30" x="318.115234"/>
      </g>
     </g>
    </g>
    <g id="text_9">
     <!-- Size (#edges) -->
     <g transform="translate(274.559219 418.316562) scale(0.1 -0.1)">
      <defs>
       <path id="DejaVuSans-53" d="M 3425 4513 
L 3425 3897 
Q 3066 4069 2747 4153 
Q 2428 4238 2131 4238 
Q 1616 4238 1336 4038 
Q 1056 3838 1056 3469 
Q 1056 3159 1242 3001 
Q 1428 2844 1947 2747 
L 2328 2669 
Q 3034 2534 3370 2195 
Q 3706 1856 3706 1288 
Q 3706 609 3251 259 
Q 2797 -91 1919 -91 
Q 1588 -91 1214 -16 
Q 841 59 441 206 
L 441 856 
Q 825 641 1194 531 
Q 1563 422 1919 422 
Q 2459 422 2753 634 
Q 3047 847 3047 1241 
Q 3047 1584 2836 1778 
Q 2625 1972 2144 2069 
L 1759 2144 
Q 1053 2284 737 2584 
Q 422 2884 422 3419 
Q 422 4038 858 4394 
Q 1294 4750 2059 4750 
Q 2388 4750 2728 4690 
Q 3069 4631 3425 4513 
z
" transform="scale(0.015625)"/>
       <path id="DejaVuSans-69" d="M 603 3500 
L 1178 3500 
L 1178 0 
L 603 0 
L 603 3500 
z
M 603 4863 
L 1178 4863 
L 1178 4134 
L 603 4134 
L 603 4863 
z
" transform="scale(0.015625)"/>
       <path id="DejaVuSans-7a" d="M 353 3500 
L 3084 3500 
L 3084 2975 
L 922 459 
L 3084 459 
L 3084 0 
L 275 0 
L 275 525 
L 2438 3041 
L 353 3041 
L 353 3500 
z
" transform="scale(0.015625)"/>
       <path id="DejaVuSans-65" d="M 3597 1894 
L 3597 1613 
L 953 1613 
Q 991 1019 1311 708 
Q 1631 397 2203 397 
Q 2534 397 2845 478 
Q 3156 559 3463 722 
L 3463 178 
Q 3153 47 2828 -22 
Q 2503 -91 2169 -91 
Q 1331 -91 842 396 
Q 353 884 353 1716 
Q 353 2575 817 3079 
Q 1281 3584 2069 3584 
Q 2775 3584 3186 3129 
Q 3597 2675 3597 1894 
z
M 3022 2063 
Q 3016 2534 2758 2815 
Q 2500 3097 2075 3097 
Q 1594 3097 1305 2825 
Q 1016 2553 972 2059 
L 3022 2063 
z
" transform="scale(0.015625)"/>
       <path id="DejaVuSans-20" transform="scale(0.015625)"/>
       <path id="DejaVuSans-28" d="M 1984 4856 
Q 1566 4138 1362 3434 
Q 1159 2731 1159 2009 
Q 1159 1288 1364 580 
Q 1569 -128 1984 -844 
L 1484 -844 
Q 1016 -109 783 600 
Q 550 1309 550 2009 
Q 550 2706 781 3412 
Q 1013 4119 1484 4856 
L 1984 4856 
z
" transform="scale(0.015625)"/>
       <path id="DejaVuSans-23" d="M 3272 2816 
L 2363 2816 
L 2100 1772 
L 3016 1772 
L 3272 2816 
z
M 2803 4594 
L 2478 3297 
L 3391 3297 
L 3719 4594 
L 4219 4594 
L 3897 3297 
L 4872 3297 
L 4872 2816 
L 3775 2816 
L 3519 1772 
L 4513 1772 
L 4513 1294 
L 3397 1294 
L 3072 0 
L 2572 0 
L 2894 1294 
L 1978 1294 
L 1656 0 
L 1153 0 
L 1478 1294 
L 494 1294 
L 494 1772 
L 1594 1772 
L 1856 2816 
L 850 2816 
L 850 3297 
L 1978 3297 
L 2297 4594 
L 2803 4594 
z
" transform="scale(0.015625)"/>
       <path id="DejaVuSans-64" d="M 2906 2969 
L 2906 4863 
L 3481 4863 
L 3481 0 
L 2906 0 
L 2906 525 
Q 2725 213 2448 61 
Q 2172 -91 1784 -91 
Q 1150 -91 751 415 
Q 353 922 353 1747 
Q 353 2572 751 3078 
Q 1150 3584 1784 3584 
Q 2172 3584 2448 3432 
Q 2725 3281 2906 2969 
z
M 947 1747 
Q 947 1113 1208 752 
Q 1469 391 1925 391 
Q 2381 391 2643 752 
Q 2906 1113 2906 1747 
Q 2906 2381 2643 2742 
Q 2381 3103 1925 3103 
Q 1469 3103 1208 2742 
Q 947 2381 947 1747 
z
" transform="scale(0.015625)"/>
       <path id="DejaVuSans-67" d="M 2906 1791 
Q 2906 2416 2648 2759 
Q 2391 3103 1925 3103 
Q 1463 3103 1205 2759 
Q 947 2416 947 1791 
Q 947 1169 1205 825 
Q 1463 481 1925 481 
Q 2391 481 2648 825 
Q 2906 1169 2906 1791 
z
M 3481 434 
Q 3481 -459 3084 -895 
Q 2688 -1331 1869 -1331 
Q 1566 -1331 1297 -1286 
Q 1028 -1241 775 -1147 
L 775 -588 
Q 1028 -725 1275 -790 
Q 1522 -856 1778 -856 
Q 2344 -856 2625 -561 
Q 2906 -266 2906 331 
L 2906 616 
Q 2728 306 2450 153 
Q 2172 0 1784 0 
Q 1141 0 747 490 
Q 353 981 353 1791 
Q 353 2603 747 3093 
Q 1141 3584 1784 3584 
Q 2172 3584 2450 3431 
Q 2728 3278 2906 2969 
L 2906 3500 
L 3481 3500 
L 3481 434 
z
" transform="scale(0.015625)"/>
       <path id="DejaVuSans-73" d="M 2834 3397 
L 2834 2853 
Q 2591 2978 2328 3040 
Q 2066 3103 1784 3103 
Q 1356 3103 1142 2972 
Q 928 2841 928 2578 
Q 928 2378 1081 2264 
Q 1234 2150 1697 2047 
L 1894 2003 
Q 2506 1872 2764 1633 
Q 3022 1394 3022 966 
Q 3022 478 2636 193 
Q 2250 -91 1575 -91 
Q 1294 -91 989 -36 
Q 684 19 347 128 
L 347 722 
Q 666 556 975 473 
Q 1284 391 1588 391 
Q 1994 391 2212 530 
Q 2431 669 2431 922 
Q 2431 1156 2273 1281 
Q 2116 1406 1581 1522 
L 1381 1569 
Q 847 1681 609 1914 
Q 372 2147 372 2553 
Q 372 3047 722 3315 
Q 1072 3584 1716 3584 
Q 2034 3584 2315 3537 
Q 2597 3491 2834 3397 
z
" transform="scale(0.015625)"/>
       <path id="DejaVuSans-29" d="M 513 4856 
L 1013 4856 
Q 1481 4119 1714 3412 
Q 1947 2706 1947 2009 
Q 1947 1309 1714 600 
Q 1481 -109 1013 -844 
L 513 -844 
Q 928 -128 1133 580 
Q 1338 1288 1338 2009 
Q 1338 2731 1133 3434 
Q 928 4138 513 4856 
z
" transform="scale(0.015625)"/>
      </defs>
      <use xlink:href="#DejaVuSans-53"/>
      <use xlink:href="#DejaVuSans-69" x="63.476562"/>
      <use xlink:href="#DejaVuSans-7a" x="91.259766"/>
      <use xlink:href="#DejaVuSans-65" x="143.75"/>
      <use xlink:href="#DejaVuSans-20" x="205.273438"/>
      <use xlink:href="#DejaVuSans-28" x="237.060547"/>
      <use xlink:href="#DejaVuSans-23" x="276.074219"/>
      <use xlink:href="#DejaVuSans-65" x="359.863281"/>
      <use xlink:href="#DejaVuSans-64" x="421.386719"/>
      <use xlink:href="#DejaVuSans-67" x="484.863281"/>
      <use xlink:href="#DejaVuSans-65" x="548.339844"/>
      <use xlink:href="#DejaVuSans-73" x="609.863281"/>
      <use xlink:href="#DejaVuSans-29" x="661.962891"/>
     </g>
    </g>
   </g>
   <g id="matplotlib.axis_2">
    <g id="ytick_1">
     <g id="line2d_9">
      <defs>
       <path id="m7eb1c47a8f" d="M 0 0 
L -3.5 0 
" style="stroke: #000000; stroke-width: 0.8"/>
      </defs>
      <g>
       <use xlink:href="#m7eb1c47a8f" x="54.02" y="387.666917" style="stroke: #000000; stroke-width: 0.8"/>
      </g>
     </g>
     <g id="text_10">
      <!-- 0.00 -->
      <g transform="translate(24.754375 391.466135) scale(0.1 -0.1)">
       <defs>
        <path id="DejaVuSans-2e" d="M 684 794 
L 1344 794 
L 1344 0 
L 684 0 
L 684 794 
z
" transform="scale(0.015625)"/>
       </defs>
       <use xlink:href="#DejaVuSans-30"/>
       <use xlink:href="#DejaVuSans-2e" x="63.623047"/>
       <use xlink:href="#DejaVuSans-30" x="95.410156"/>
       <use xlink:href="#DejaVuSans-30" x="159.033203"/>
      </g>
     </g>
    </g>
    <g id="ytick_2">
     <g id="line2d_10">
      <g>
       <use xlink:href="#m7eb1c47a8f" x="54.02" y="327.266979" style="stroke: #000000; stroke-width: 0.8"/>
      </g>
     </g>
     <g id="text_11">
      <!-- 0.02 -->
      <g transform="translate(24.754375 331.066198) scale(0.1 -0.1)">
       <use xlink:href="#DejaVuSans-30"/>
       <use xlink:href="#DejaVuSans-2e" x="63.623047"/>
       <use xlink:href="#DejaVuSans-30" x="95.410156"/>
       <use xlink:href="#DejaVuSans-32" x="159.033203"/>
      </g>
     </g>
    </g>
    <g id="ytick_3">
     <g id="line2d_11">
      <g>
       <use xlink:href="#m7eb1c47a8f" x="54.02" y="266.867042" style="stroke: #000000; stroke-width: 0.8"/>
      </g>
     </g>
     <g id="text_12">
      <!-- 0.04 -->
      <g transform="translate(24.754375 270.66626) scale(0.1 -0.1)">
       <defs>
        <path id="DejaVuSans-34" d="M 2419 4116 
L 825 1625 
L 2419 1625 
L 2419 4116 
z
M 2253 4666 
L 3047 4666 
L 3047 1625 
L 3713 1625 
L 3713 1100 
L 3047 1100 
L 3047 0 
L 2419 0 
L 2419 1100 
L 313 1100 
L 313 1709 
L 2253 4666 
z
" transform="scale(0.015625)"/>
       </defs>
       <use xlink:href="#DejaVuSans-30"/>
       <use xlink:href="#DejaVuSans-2e" x="63.623047"/>
       <use xlink:href="#DejaVuSans-30" x="95.410156"/>
       <use xlink:href="#DejaVuSans-34" x="159.033203"/>
      </g>
     </g>
    </g>
    <g id="ytick_4">
     <g id="line2d_12">
      <g>
       <use xlink:href="#m7eb1c47a8f" x="54.02" y="206.467104" style="stroke: #000000; stroke-width: 0.8"/>
      </g>
     </g>
     <g id="text_13">
      <!-- 0.06 -->
      <g transform="translate(24.754375 210.266323) scale(0.1 -0.1)">
       <defs>
        <path id="DejaVuSans-36" d="M 2113 2584 
Q 1688 2584 1439 2293 
Q 1191 2003 1191 1497 
Q 1191 994 1439 701 
Q 1688 409 2113 409 
Q 2538 409 2786 701 
Q 3034 994 3034 1497 
Q 3034 2003 2786 2293 
Q 2538 2584 2113 2584 
z
M 3366 4563 
L 3366 3988 
Q 3128 4100 2886 4159 
Q 2644 4219 2406 4219 
Q 1781 4219 1451 3797 
Q 1122 3375 1075 2522 
Q 1259 2794 1537 2939 
Q 1816 3084 2150 3084 
Q 2853 3084 3261 2657 
Q 3669 2231 3669 1497 
Q 3669 778 3244 343 
Q 2819 -91 2113 -91 
Q 1303 -91 875 529 
Q 447 1150 447 2328 
Q 447 3434 972 4092 
Q 1497 4750 2381 4750 
Q 2619 4750 2861 4703 
Q 3103 4656 3366 4563 
z
" transform="scale(0.015625)"/>
       </defs>
       <use xlink:href="#DejaVuSans-30"/>
       <use xlink:href="#DejaVuSans-2e" x="63.623047"/>
       <use xlink:href="#DejaVuSans-30" x="95.410156"/>
       <use xlink:href="#DejaVuSans-36" x="159.033203"/>
      </g>
     </g>
    </g>
    <g id="ytick_5">
     <g id="line2d_13">
      <g>
       <use xlink:href="#m7eb1c47a8f" x="54.02" y="146.067167" style="stroke: #000000; stroke-width: 0.8"/>
      </g>
     </g>
     <g id="text_14">
      <!-- 0.08 -->
      <g transform="translate(24.754375 149.866385) scale(0.1 -0.1)">
       <defs>
        <path id="DejaVuSans-38" d="M 2034 2216 
Q 1584 2216 1326 1975 
Q 1069 1734 1069 1313 
Q 1069 891 1326 650 
Q 1584 409 2034 409 
Q 2484 409 2743 651 
Q 3003 894 3003 1313 
Q 3003 1734 2745 1975 
Q 2488 2216 2034 2216 
z
M 1403 2484 
Q 997 2584 770 2862 
Q 544 3141 544 3541 
Q 544 4100 942 4425 
Q 1341 4750 2034 4750 
Q 2731 4750 3128 4425 
Q 3525 4100 3525 3541 
Q 3525 3141 3298 2862 
Q 3072 2584 2669 2484 
Q 3125 2378 3379 2068 
Q 3634 1759 3634 1313 
Q 3634 634 3220 271 
Q 2806 -91 2034 -91 
Q 1263 -91 848 271 
Q 434 634 434 1313 
Q 434 1759 690 2068 
Q 947 2378 1403 2484 
z
M 1172 3481 
Q 1172 3119 1398 2916 
Q 1625 2713 2034 2713 
Q 2441 2713 2670 2916 
Q 2900 3119 2900 3481 
Q 2900 3844 2670 4047 
Q 2441 4250 2034 4250 
Q 1625 4250 1398 4047 
Q 1172 3844 1172 3481 
z
" transform="scale(0.015625)"/>
       </defs>
       <use xlink:href="#DejaVuSans-30"/>
       <use xlink:href="#DejaVuSans-2e" x="63.623047"/>
       <use xlink:href="#DejaVuSans-30" x="95.410156"/>
       <use xlink:href="#DejaVuSans-38" x="159.033203"/>
      </g>
     </g>
    </g>
    <g id="ytick_6">
     <g id="line2d_14">
      <g>
       <use xlink:href="#m7eb1c47a8f" x="54.02" y="85.667229" style="stroke: #000000; stroke-width: 0.8"/>
      </g>
     </g>
     <g id="text_15">
      <!-- 0.10 -->
      <g transform="translate(24.754375 89.466448) scale(0.1 -0.1)">
       <use xlink:href="#DejaVuSans-30"/>
       <use xlink:href="#DejaVuSans-2e" x="63.623047"/>
       <use xlink:href="#DejaVuSans-31" x="95.410156"/>
       <use xlink:href="#DejaVuSans-30" x="159.033203"/>
      </g>
     </g>
    </g>
    <g id="text_16">
     <!-- Seconds spent -->
     <g transform="translate(18.674688 245.040469) rotate(-90) scale(0.1 -0.1)">
      <defs>
       <path id="DejaVuSans-63" d="M 3122 3366 
L 3122 2828 
Q 2878 2963 2633 3030 
Q 2388 3097 2138 3097 
Q 1578 3097 1268 2742 
Q 959 2388 959 1747 
Q 959 1106 1268 751 
Q 1578 397 2138 397 
Q 2388 397 2633 464 
Q 2878 531 3122 666 
L 3122 134 
Q 2881 22 2623 -34 
Q 2366 -91 2075 -91 
Q 1284 -91 818 406 
Q 353 903 353 1747 
Q 353 2603 823 3093 
Q 1294 3584 2113 3584 
Q 2378 3584 2631 3529 
Q 2884 3475 3122 3366 
z
" transform="scale(0.015625)"/>
       <path id="DejaVuSans-6f" d="M 1959 3097 
Q 1497 3097 1228 2736 
Q 959 2375 959 1747 
Q 959 1119 1226 758 
Q 1494 397 1959 397 
Q 2419 397 2687 759 
Q 2956 1122 2956 1747 
Q 2956 2369 2687 2733 
Q 2419 3097 1959 3097 
z
M 1959 3584 
Q 2709 3584 3137 3096 
Q 3566 2609 3566 1747 
Q 3566 888 3137 398 
Q 2709 -91 1959 -91 
Q 1206 -91 779 398 
Q 353 888 353 1747 
Q 353 2609 779 3096 
Q 1206 3584 1959 3584 
z
" transform="scale(0.015625)"/>
       <path id="DejaVuSans-6e" d="M 3513 2113 
L 3513 0 
L 2938 0 
L 2938 2094 
Q 2938 2591 2744 2837 
Q 2550 3084 2163 3084 
Q 1697 3084 1428 2787 
Q 1159 2491 1159 1978 
L 1159 0 
L 581 0 
L 581 3500 
L 1159 3500 
L 1159 2956 
Q 1366 3272 1645 3428 
Q 1925 3584 2291 3584 
Q 2894 3584 3203 3211 
Q 3513 2838 3513 2113 
z
" transform="scale(0.015625)"/>
       <path id="DejaVuSans-70" d="M 1159 525 
L 1159 -1331 
L 581 -1331 
L 581 3500 
L 1159 3500 
L 1159 2969 
Q 1341 3281 1617 3432 
Q 1894 3584 2278 3584 
Q 2916 3584 3314 3078 
Q 3713 2572 3713 1747 
Q 3713 922 3314 415 
Q 2916 -91 2278 -91 
Q 1894 -91 1617 61 
Q 1341 213 1159 525 
z
M 3116 1747 
Q 3116 2381 2855 2742 
Q 2594 3103 2138 3103 
Q 1681 3103 1420 2742 
Q 1159 2381 1159 1747 
Q 1159 1113 1420 752 
Q 1681 391 2138 391 
Q 2594 391 2855 752 
Q 3116 1113 3116 1747 
z
" transform="scale(0.015625)"/>
       <path id="DejaVuSans-74" d="M 1172 4494 
L 1172 3500 
L 2356 3500 
L 2356 3053 
L 1172 3053 
L 1172 1153 
Q 1172 725 1289 603 
Q 1406 481 1766 481 
L 2356 481 
L 2356 0 
L 1766 0 
Q 1100 0 847 248 
Q 594 497 594 1153 
L 594 3053 
L 172 3053 
L 172 3500 
L 594 3500 
L 594 4494 
L 1172 4494 
z
" transform="scale(0.015625)"/>
      </defs>
      <use xlink:href="#DejaVuSans-53"/>
      <use xlink:href="#DejaVuSans-65" x="63.476562"/>
      <use xlink:href="#DejaVuSans-63" x="125"/>
      <use xlink:href="#DejaVuSans-6f" x="179.980469"/>
      <use xlink:href="#DejaVuSans-6e" x="241.162109"/>
      <use xlink:href="#DejaVuSans-64" x="304.541016"/>
      <use xlink:href="#DejaVuSans-73" x="368.017578"/>
      <use xlink:href="#DejaVuSans-20" x="420.117188"/>
      <use xlink:href="#DejaVuSans-73" x="451.904297"/>
      <use xlink:href="#DejaVuSans-70" x="504.003906"/>
      <use xlink:href="#DejaVuSans-65" x="567.480469"/>
      <use xlink:href="#DejaVuSans-6e" x="629.003906"/>
      <use xlink:href="#DejaVuSans-74" x="692.382812"/>
     </g>
    </g>
   </g>
   <g id="LineCollection_1">
    <path d="M 77.255455 328.154858 
L 77.255455 302.904664 
" clip-path="url(#p6529becad3)" style="fill: none; stroke: #009933; stroke-width: 1.5"/>
    <path d="M 101.713828 331.494975 
L 101.713828 288.393579 
" clip-path="url(#p6529becad3)" style="fill: none; stroke: #009933; stroke-width: 1.5"/>
    <path d="M 126.172201 317.328169 
L 126.172201 315.060152 
" clip-path="url(#p6529becad3)" style="fill: none; stroke: #009933; stroke-width: 1.5"/>
    <path d="M 150.630574 311.070736 
L 150.630574 306.199481 
" clip-path="url(#p6529becad3)" style="fill: none; stroke: #009933; stroke-width: 1.5"/>
    <path d="M 175.088947 311.964655 
L 175.088947 307.972219 
" clip-path="url(#p6529becad3)" style="fill: none; stroke: #009933; stroke-width: 1.5"/>
    <path d="M 199.547321 311.010336 
L 199.547321 303.659664 
" clip-path="url(#p6529becad3)" style="fill: none; stroke: #009933; stroke-width: 1.5"/>
    <path d="M 224.005694 299.709508 
L 224.005694 294.022854 
" clip-path="url(#p6529becad3)" style="fill: none; stroke: #009933; stroke-width: 1.5"/>
    <path d="M 248.464067 293.415834 
L 248.464067 287.239941 
" clip-path="url(#p6529becad3)" style="fill: none; stroke: #009933; stroke-width: 1.5"/>
    <path d="M 272.92244 286.400381 
L 272.92244 285.433982 
" clip-path="url(#p6529becad3)" style="fill: none; stroke: #009933; stroke-width: 1.5"/>
    <path d="M 297.380813 276.521972 
L 297.380813 243.984525 
" clip-path="url(#p6529becad3)" style="fill: none; stroke: #009933; stroke-width: 1.5"/>
    <path d="M 358.526746 246.702522 
L 358.526746 244.038885 
" clip-path="url(#p6529becad3)" style="fill: none; stroke: #009933; stroke-width: 1.5"/>
    <path d="M 419.672679 211.561839 
L 419.672679 189.313522 
" clip-path="url(#p6529becad3)" style="fill: none; stroke: #009933; stroke-width: 1.5"/>
    <path d="M 480.818612 161.363451 
L 480.818612 146.251386 
" clip-path="url(#p6529becad3)" style="fill: none; stroke: #009933; stroke-width: 1.5"/>
    <path d="M 541.964545 93.232321 
L 541.964545 85.694409 
" clip-path="url(#p6529becad3)" style="fill: none; stroke: #009933; stroke-width: 1.5"/>
   </g>
   <g id="line2d_15">
    <defs>
     <path id="m567d63a80a" d="M 3 0 
L -3 -0 
" style="stroke: #009933"/>
    </defs>
    <g clip-path="url(#p6529becad3)">
     <use xlink:href="#m567d63a80a" x="77.255455" y="328.154858" style="fill: #009933; stroke: #009933"/>
     <use xlink:href="#m567d63a80a" x="101.713828" y="331.494975" style="fill: #009933; stroke: #009933"/>
     <use xlink:href="#m567d63a80a" x="126.172201" y="317.328169" style="fill: #009933; stroke: #009933"/>
     <use xlink:href="#m567d63a80a" x="150.630574" y="311.070736" style="fill: #009933; stroke: #009933"/>
     <use xlink:href="#m567d63a80a" x="175.088947" y="311.964655" style="fill: #009933; stroke: #009933"/>
     <use xlink:href="#m567d63a80a" x="199.547321" y="311.010336" style="fill: #009933; stroke: #009933"/>
     <use xlink:href="#m567d63a80a" x="224.005694" y="299.709508" style="fill: #009933; stroke: #009933"/>
     <use xlink:href="#m567d63a80a" x="248.464067" y="293.415834" style="fill: #009933; stroke: #009933"/>
     <use xlink:href="#m567d63a80a" x="272.92244" y="286.400381" style="fill: #009933; stroke: #009933"/>
     <use xlink:href="#m567d63a80a" x="297.380813" y="276.521972" style="fill: #009933; stroke: #009933"/>
     <use xlink:href="#m567d63a80a" x="358.526746" y="246.702522" style="fill: #009933; stroke: #009933"/>
     <use xlink:href="#m567d63a80a" x="419.672679" y="211.561839" style="fill: #009933; stroke: #009933"/>
     <use xlink:href="#m567d63a80a" x="480.818612" y="161.363451" style="fill: #009933; stroke: #009933"/>
     <use xlink:href="#m567d63a80a" x="541.964545" y="93.232321" style="fill: #009933; stroke: #009933"/>
    </g>
   </g>
   <g id="line2d_16">
    <g clip-path="url(#p6529becad3)">
     <use xlink:href="#m567d63a80a" x="77.255455" y="302.904664" style="fill: #009933; stroke: #009933"/>
     <use xlink:href="#m567d63a80a" x="101.713828" y="288.393579" style="fill: #009933; stroke: #009933"/>
     <use xlink:href="#m567d63a80a" x="126.172201" y="315.060152" style="fill: #009933; stroke: #009933"/>
     <use xlink:href="#m567d63a80a" x="150.630574" y="306.199481" style="fill: #009933; stroke: #009933"/>
     <use xlink:href="#m567d63a80a" x="175.088947" y="307.972219" style="fill: #009933; stroke: #009933"/>
     <use xlink:href="#m567d63a80a" x="199.547321" y="303.659664" style="fill: #009933; stroke: #009933"/>
     <use xlink:href="#m567d63a80a" x="224.005694" y="294.022854" style="fill: #009933; stroke: #009933"/>
     <use xlink:href="#m567d63a80a" x="248.464067" y="287.239941" style="fill: #009933; stroke: #009933"/>
     <use xlink:href="#m567d63a80a" x="272.92244" y="285.433982" style="fill: #009933; stroke: #009933"/>
     <use xlink:href="#m567d63a80a" x="297.380813" y="243.984525" style="fill: #009933; stroke: #009933"/>
     <use xlink:href="#m567d63a80a" x="358.526746" y="244.038885" style="fill: #009933; stroke: #009933"/>
     <use xlink:href="#m567d63a80a" x="419.672679" y="189.313522" style="fill: #009933; stroke: #009933"/>
     <use xlink:href="#m567d63a80a" x="480.818612" y="146.251386" style="fill: #009933; stroke: #009933"/>
     <use xlink:href="#m567d63a80a" x="541.964545" y="85.694409" style="fill: #009933; stroke: #009933"/>
    </g>
   </g>
   <g id="LineCollection_2">
    <path d="M 77.255455 363.509962 
L 77.255455 360.486945 
" clip-path="url(#p6529becad3)" style="fill: none; stroke: #0000cc; stroke-width: 1.5"/>
    <path d="M 101.713828 354.452991 
L 101.713828 351.423934 
" clip-path="url(#p6529becad3)" style="fill: none; stroke: #0000cc; stroke-width: 1.5"/>
    <path d="M 126.172201 339.353007 
L 126.172201 336.32999 
" clip-path="url(#p6529becad3)" style="fill: none; stroke: #0000cc; stroke-width: 1.5"/>
    <path d="M 150.630574 324.246982 
L 150.630574 318.203968 
" clip-path="url(#p6529becad3)" style="fill: none; stroke: #0000cc; stroke-width: 1.5"/>
    <path d="M 175.088947 306.130021 
L 175.088947 303.107004 
" clip-path="url(#p6529becad3)" style="fill: none; stroke: #0000cc; stroke-width: 1.5"/>
    <path d="M 199.547321 291.027017 
L 199.547321 286.430581 
" clip-path="url(#p6529becad3)" style="fill: none; stroke: #0000cc; stroke-width: 1.5"/>
    <path d="M 224.005694 272.904015 
L 224.005694 269.884018 
" clip-path="url(#p6529becad3)" style="fill: none; stroke: #0000cc; stroke-width: 1.5"/>
    <path d="M 248.464067 254.790074 
L 248.464067 250.229879 
" clip-path="url(#p6529becad3)" style="fill: none; stroke: #0000cc; stroke-width: 1.5"/>
    <path d="M 272.92244 236.667073 
L 272.92244 236.667073 
" clip-path="url(#p6529becad3)" style="fill: none; stroke: #0000cc; stroke-width: 1.5"/>
    <path d="M 297.380813 221.567088 
L 297.380813 218.544072 
" clip-path="url(#p6529becad3)" style="fill: none; stroke: #0000cc; stroke-width: 1.5"/>
    <path d="M 358.526746 171.70996 
L 358.526746 140.024153 
" clip-path="url(#p6529becad3)" style="fill: none; stroke: #0000cc; stroke-width: 1.5"/>
    <path d="M 419.672679 133.990199 
L 419.672679 124.924168 
" clip-path="url(#p6529becad3)" style="fill: none; stroke: #0000cc; stroke-width: 1.5"/>
    <path d="M 480.818612 100.767213 
L 480.818612 91.710243 
" clip-path="url(#p6529becad3)" style="fill: none; stroke: #0000cc; stroke-width: 1.5"/>
    <path d="M 541.964545 61.510274 
L 541.964545 58.484237 
" clip-path="url(#p6529becad3)" style="fill: none; stroke: #0000cc; stroke-width: 1.5"/>
   </g>
   <g id="line2d_17">
    <defs>
     <path id="m71e13e22db" d="M 3 0 
L -3 -0 
" style="stroke: #0000cc"/>
    </defs>
    <g clip-path="url(#p6529becad3)">
     <use xlink:href="#m71e13e22db" x="77.255455" y="363.509962" style="fill: #0000cc; stroke: #0000cc"/>
     <use xlink:href="#m71e13e22db" x="101.713828" y="354.452991" style="fill: #0000cc; stroke: #0000cc"/>
     <use xlink:href="#m71e13e22db" x="126.172201" y="339.353007" style="fill: #0000cc; stroke: #0000cc"/>
     <use xlink:href="#m71e13e22db" x="150.630574" y="324.246982" style="fill: #0000cc; stroke: #0000cc"/>
     <use xlink:href="#m71e13e22db" x="175.088947" y="306.130021" style="fill: #0000cc; stroke: #0000cc"/>
     <use xlink:href="#m71e13e22db" x="199.547321" y="291.027017" style="fill: #0000cc; stroke: #0000cc"/>
     <use xlink:href="#m71e13e22db" x="224.005694" y="272.904015" style="fill: #0000cc; stroke: #0000cc"/>
     <use xlink:href="#m71e13e22db" x="248.464067" y="254.790074" style="fill: #0000cc; stroke: #0000cc"/>
     <use xlink:href="#m71e13e22db" x="272.92244" y="236.667073" style="fill: #0000cc; stroke: #0000cc"/>
     <use xlink:href="#m71e13e22db" x="297.380813" y="221.567088" style="fill: #0000cc; stroke: #0000cc"/>
     <use xlink:href="#m71e13e22db" x="358.526746" y="171.70996" style="fill: #0000cc; stroke: #0000cc"/>
     <use xlink:href="#m71e13e22db" x="419.672679" y="133.990199" style="fill: #0000cc; stroke: #0000cc"/>
     <use xlink:href="#m71e13e22db" x="480.818612" y="100.767213" style="fill: #0000cc; stroke: #0000cc"/>
     <use xlink:href="#m71e13e22db" x="541.964545" y="61.510274" style="fill: #0000cc; stroke: #0000cc"/>
    </g>
   </g>
   <g id="line2d_18">
    <g clip-path="url(#p6529becad3)">
     <use xlink:href="#m71e13e22db" x="77.255455" y="360.486945" style="fill: #0000cc; stroke: #0000cc"/>
     <use xlink:href="#m71e13e22db" x="101.713828" y="351.423934" style="fill: #0000cc; stroke: #0000cc"/>
     <use xlink:href="#m71e13e22db" x="126.172201" y="336.32999" style="fill: #0000cc; stroke: #0000cc"/>
     <use xlink:href="#m71e13e22db" x="150.630574" y="318.203968" style="fill: #0000cc; stroke: #0000cc"/>
     <use xlink:href="#m71e13e22db" x="175.088947" y="303.107004" style="fill: #0000cc; stroke: #0000cc"/>
     <use xlink:href="#m71e13e22db" x="199.547321" y="286.430581" style="fill: #0000cc; stroke: #0000cc"/>
     <use xlink:href="#m71e13e22db" x="224.005694" y="269.884018" style="fill: #0000cc; stroke: #0000cc"/>
     <use xlink:href="#m71e13e22db" x="248.464067" y="250.229879" style="fill: #0000cc; stroke: #0000cc"/>
     <use xlink:href="#m71e13e22db" x="272.92244" y="236.667073" style="fill: #0000cc; stroke: #0000cc"/>
     <use xlink:href="#m71e13e22db" x="297.380813" y="218.544072" style="fill: #0000cc; stroke: #0000cc"/>
     <use xlink:href="#m71e13e22db" x="358.526746" y="140.024153" style="fill: #0000cc; stroke: #0000cc"/>
     <use xlink:href="#m71e13e22db" x="419.672679" y="124.924168" style="fill: #0000cc; stroke: #0000cc"/>
     <use xlink:href="#m71e13e22db" x="480.818612" y="91.710243" style="fill: #0000cc; stroke: #0000cc"/>
     <use xlink:href="#m71e13e22db" x="541.964545" y="58.484237" style="fill: #0000cc; stroke: #0000cc"/>
    </g>
   </g>
   <g id="LineCollection_3">
    <path d="M 77.255455 357.466948 
L 77.255455 354.446951 
" clip-path="url(#p6529becad3)" style="fill: none; stroke: #666600; stroke-width: 1.5"/>
    <path d="M 101.713828 360.486945 
L 101.713828 357.466948 
" clip-path="url(#p6529becad3)" style="fill: none; stroke: #666600; stroke-width: 1.5"/>
    <path d="M 126.172201 351.426954 
L 126.172201 318.206988 
" clip-path="url(#p6529becad3)" style="fill: none; stroke: #666600; stroke-width: 1.5"/>
    <path d="M 150.630574 339.346967 
L 150.630574 336.32697 
" clip-path="url(#p6529becad3)" style="fill: none; stroke: #666600; stroke-width: 1.5"/>
    <path d="M 175.088947 327.266979 
L 175.088947 315.186992 
" clip-path="url(#p6529becad3)" style="fill: none; stroke: #666600; stroke-width: 1.5"/>
    <path d="M 199.547321 312.166995 
L 199.547321 288.00702 
" clip-path="url(#p6529becad3)" style="fill: none; stroke: #666600; stroke-width: 1.5"/>
    <path d="M 224.005694 300.087007 
L 224.005694 239.68707 
" clip-path="url(#p6529becad3)" style="fill: none; stroke: #666600; stroke-width: 1.5"/>
    <path d="M 248.464067 291.027017 
L 248.464067 242.707067 
" clip-path="url(#p6529becad3)" style="fill: none; stroke: #666600; stroke-width: 1.5"/>
    <path d="M 272.92244 278.947029 
L 272.92244 209.487101 
" clip-path="url(#p6529becad3)" style="fill: none; stroke: #666600; stroke-width: 1.5"/>
    <path d="M 297.380813 260.827048 
L 297.380813 242.707067 
" clip-path="url(#p6529becad3)" style="fill: none; stroke: #666600; stroke-width: 1.5"/>
    <path d="M 358.526746 212.507098 
L 358.526746 173.247138 
" clip-path="url(#p6529becad3)" style="fill: none; stroke: #666600; stroke-width: 1.5"/>
    <path d="M 419.672679 137.007176 
L 419.672679 91.707223 
" clip-path="url(#p6529becad3)" style="fill: none; stroke: #666600; stroke-width: 1.5"/>
    <path d="M 480.818612 130.967182 
L 480.818612 91.707223 
" clip-path="url(#p6529becad3)" style="fill: none; stroke: #666600; stroke-width: 1.5"/>
    <path d="M 541.964545 64.527251 
L 541.964545 43.387273 
" clip-path="url(#p6529becad3)" style="fill: none; stroke: #666600; stroke-width: 1.5"/>
   </g>
   <g id="line2d_19">
    <defs>
     <path id="ma612d83d5a" d="M 3 0 
L -3 -0 
" style="stroke: #666600"/>
    </defs>
    <g clip-path="url(#p6529becad3)">
     <use xlink:href="#ma612d83d5a" x="77.255455" y="357.466948" style="fill: #666600; stroke: #666600"/>
     <use xlink:href="#ma612d83d5a" x="101.713828" y="360.486945" style="fill: #666600; stroke: #666600"/>
     <use xlink:href="#ma612d83d5a" x="126.172201" y="351.426954" style="fill: #666600; stroke: #666600"/>
     <use xlink:href="#ma612d83d5a" x="150.630574" y="339.346967" style="fill: #666600; stroke: #666600"/>
     <use xlink:href="#ma612d83d5a" x="175.088947" y="327.266979" style="fill: #666600; stroke: #666600"/>
     <use xlink:href="#ma612d83d5a" x="199.547321" y="312.166995" style="fill: #666600; stroke: #666600"/>
     <use xlink:href="#ma612d83d5a" x="224.005694" y="300.087007" style="fill: #666600; stroke: #666600"/>
     <use xlink:href="#ma612d83d5a" x="248.464067" y="291.027017" style="fill: #666600; stroke: #666600"/>
     <use xlink:href="#ma612d83d5a" x="272.92244" y="278.947029" style="fill: #666600; stroke: #666600"/>
     <use xlink:href="#ma612d83d5a" x="297.380813" y="260.827048" style="fill: #666600; stroke: #666600"/>
     <use xlink:href="#ma612d83d5a" x="358.526746" y="212.507098" style="fill: #666600; stroke: #666600"/>
     <use xlink:href="#ma612d83d5a" x="419.672679" y="137.007176" style="fill: #666600; stroke: #666600"/>
     <use xlink:href="#ma612d83d5a" x="480.818612" y="130.967182" style="fill: #666600; stroke: #666600"/>
     <use xlink:href="#ma612d83d5a" x="541.964545" y="64.527251" style="fill: #666600; stroke: #666600"/>
    </g>
   </g>
   <g id="line2d_20">
    <g clip-path="url(#p6529becad3)">
     <use xlink:href="#ma612d83d5a" x="77.255455" y="354.446951" style="fill: #666600; stroke: #666600"/>
     <use xlink:href="#ma612d83d5a" x="101.713828" y="357.466948" style="fill: #666600; stroke: #666600"/>
     <use xlink:href="#ma612d83d5a" x="126.172201" y="318.206988" style="fill: #666600; stroke: #666600"/>
     <use xlink:href="#ma612d83d5a" x="150.630574" y="336.32697" style="fill: #666600; stroke: #666600"/>
     <use xlink:href="#ma612d83d5a" x="175.088947" y="315.186992" style="fill: #666600; stroke: #666600"/>
     <use xlink:href="#ma612d83d5a" x="199.547321" y="288.00702" style="fill: #666600; stroke: #666600"/>
     <use xlink:href="#ma612d83d5a" x="224.005694" y="239.68707" style="fill: #666600; stroke: #666600"/>
     <use xlink:href="#ma612d83d5a" x="248.464067" y="242.707067" style="fill: #666600; stroke: #666600"/>
     <use xlink:href="#ma612d83d5a" x="272.92244" y="209.487101" style="fill: #666600; stroke: #666600"/>
     <use xlink:href="#ma612d83d5a" x="297.380813" y="242.707067" style="fill: #666600; stroke: #666600"/>
     <use xlink:href="#ma612d83d5a" x="358.526746" y="173.247138" style="fill: #666600; stroke: #666600"/>
     <use xlink:href="#ma612d83d5a" x="419.672679" y="91.707223" style="fill: #666600; stroke: #666600"/>
     <use xlink:href="#ma612d83d5a" x="480.818612" y="91.707223" style="fill: #666600; stroke: #666600"/>
     <use xlink:href="#ma612d83d5a" x="541.964545" y="43.387273" style="fill: #666600; stroke: #666600"/>
    </g>
   </g>
   <g id="LineCollection_4">
    <path d="M 77.255455 342.776475 
L 77.255455 337.126967 
" clip-path="url(#p6529becad3)" style="fill: none; stroke: #990000; stroke-width: 1.5"/>
    <path d="M 101.713828 328.021374 
L 101.713828 304.610661 
" clip-path="url(#p6529becad3)" style="fill: none; stroke: #990000; stroke-width: 1.5"/>
    <path d="M 126.172201 312.922598 
L 126.172201 289.649596 
" clip-path="url(#p6529becad3)" style="fill: none; stroke: #990000; stroke-width: 1.5"/>
    <path d="M 150.630574 305.700275 
L 150.630574 276.751189 
" clip-path="url(#p6529becad3)" style="fill: none; stroke: #990000; stroke-width: 1.5"/>
    <path d="M 175.088947 299.48029 
L 175.088947 282.611795 
" clip-path="url(#p6529becad3)" style="fill: none; stroke: #990000; stroke-width: 1.5"/>
    <path d="M 199.547321 282.269932 
L 199.547321 265.746623 
" clip-path="url(#p6529becad3)" style="fill: none; stroke: #990000; stroke-width: 1.5"/>
    <path d="M 224.005694 265.787997 
L 224.005694 260.028863 
" clip-path="url(#p6529becad3)" style="fill: none; stroke: #990000; stroke-width: 1.5"/>
    <path d="M 248.464067 263.383173 
L 248.464067 248.496401 
" clip-path="url(#p6529becad3)" style="fill: none; stroke: #990000; stroke-width: 1.5"/>
    <path d="M 272.92244 279.438081 
L 272.92244 228.851623 
" clip-path="url(#p6529becad3)" style="fill: none; stroke: #990000; stroke-width: 1.5"/>
    <path d="M 297.380813 251.082122 
L 297.380813 232.022318 
" clip-path="url(#p6529becad3)" style="fill: none; stroke: #990000; stroke-width: 1.5"/>
    <path d="M 358.526746 245.718305 
L 358.526746 227.463632 
" clip-path="url(#p6529becad3)" style="fill: none; stroke: #990000; stroke-width: 1.5"/>
    <path d="M 419.672679 218.03641 
L 419.672679 203.975909 
" clip-path="url(#p6529becad3)" style="fill: none; stroke: #990000; stroke-width: 1.5"/>
    <path d="M 480.818612 182.628759 
L 480.818612 166.888233 
" clip-path="url(#p6529becad3)" style="fill: none; stroke: #990000; stroke-width: 1.5"/>
    <path d="M 541.964545 144.83984 
L 541.964545 138.039713 
" clip-path="url(#p6529becad3)" style="fill: none; stroke: #990000; stroke-width: 1.5"/>
   </g>
   <g id="line2d_21">
    <defs>
     <path id="md9b07cde7a" d="M 3 0 
L -3 -0 
" style="stroke: #990000"/>
    </defs>
    <g clip-path="url(#p6529becad3)">
     <use xlink:href="#md9b07cde7a" x="77.255455" y="342.776475" style="fill: #990000; stroke: #990000"/>
     <use xlink:href="#md9b07cde7a" x="101.713828" y="328.021374" style="fill: #990000; stroke: #990000"/>
     <use xlink:href="#md9b07cde7a" x="126.172201" y="312.922598" style="fill: #990000; stroke: #990000"/>
     <use xlink:href="#md9b07cde7a" x="150.630574" y="305.700275" style="fill: #990000; stroke: #990000"/>
     <use xlink:href="#md9b07cde7a" x="175.088947" y="299.48029" style="fill: #990000; stroke: #990000"/>
     <use xlink:href="#md9b07cde7a" x="199.547321" y="282.269932" style="fill: #990000; stroke: #990000"/>
     <use xlink:href="#md9b07cde7a" x="224.005694" y="265.787997" style="fill: #990000; stroke: #990000"/>
     <use xlink:href="#md9b07cde7a" x="248.464067" y="263.383173" style="fill: #990000; stroke: #990000"/>
     <use xlink:href="#md9b07cde7a" x="272.92244" y="279.438081" style="fill: #990000; stroke: #990000"/>
     <use xlink:href="#md9b07cde7a" x="297.380813" y="251.082122" style="fill: #990000; stroke: #990000"/>
     <use xlink:href="#md9b07cde7a" x="358.526746" y="245.718305" style="fill: #990000; stroke: #990000"/>
     <use xlink:href="#md9b07cde7a" x="419.672679" y="218.03641" style="fill: #990000; stroke: #990000"/>
     <use xlink:href="#md9b07cde7a" x="480.818612" y="182.628759" style="fill: #990000; stroke: #990000"/>
     <use xlink:href="#md9b07cde7a" x="541.964545" y="144.83984" style="fill: #990000; stroke: #990000"/>
    </g>
   </g>
   <g id="line2d_22">
    <g clip-path="url(#p6529becad3)">
     <use xlink:href="#md9b07cde7a" x="77.255455" y="337.126967" style="fill: #990000; stroke: #990000"/>
     <use xlink:href="#md9b07cde7a" x="101.713828" y="304.610661" style="fill: #990000; stroke: #990000"/>
     <use xlink:href="#md9b07cde7a" x="126.172201" y="289.649596" style="fill: #990000; stroke: #990000"/>
     <use xlink:href="#md9b07cde7a" x="150.630574" y="276.751189" style="fill: #990000; stroke: #990000"/>
     <use xlink:href="#md9b07cde7a" x="175.088947" y="282.611795" style="fill: #990000; stroke: #990000"/>
     <use xlink:href="#md9b07cde7a" x="199.547321" y="265.746623" style="fill: #990000; stroke: #990000"/>
     <use xlink:href="#md9b07cde7a" x="224.005694" y="260.028863" style="fill: #990000; stroke: #990000"/>
     <use xlink:href="#md9b07cde7a" x="248.464067" y="248.496401" style="fill: #990000; stroke: #990000"/>
     <use xlink:href="#md9b07cde7a" x="272.92244" y="228.851623" style="fill: #990000; stroke: #990000"/>
     <use xlink:href="#md9b07cde7a" x="297.380813" y="232.022318" style="fill: #990000; stroke: #990000"/>
     <use xlink:href="#md9b07cde7a" x="358.526746" y="227.463632" style="fill: #990000; stroke: #990000"/>
     <use xlink:href="#md9b07cde7a" x="419.672679" y="203.975909" style="fill: #990000; stroke: #990000"/>
     <use xlink:href="#md9b07cde7a" x="480.818612" y="166.888233" style="fill: #990000; stroke: #990000"/>
     <use xlink:href="#md9b07cde7a" x="541.964545" y="138.039713" style="fill: #990000; stroke: #990000"/>
    </g>
   </g>
   <g id="LineCollection_5">
    <path d="M 77.255455 373.532727 
L 77.255455 369.504957 
" clip-path="url(#p6529becad3)" style="fill: none; stroke: #cc0033; stroke-width: 1.5"/>
    <path d="M 101.713828 368.224479 
L 101.713828 367.243886 
" clip-path="url(#p6529becad3)" style="fill: none; stroke: #cc0033; stroke-width: 1.5"/>
    <path d="M 126.172201 363.605998 
L 126.172201 361.045342 
" clip-path="url(#p6529becad3)" style="fill: none; stroke: #cc0033; stroke-width: 1.5"/>
    <path d="M 150.630574 356.035167 
L 150.630574 352.400299 
" clip-path="url(#p6529becad3)" style="fill: none; stroke: #cc0033; stroke-width: 1.5"/>
    <path d="M 175.088947 352.067797 
L 175.088947 345.916668 
" clip-path="url(#p6529becad3)" style="fill: none; stroke: #cc0033; stroke-width: 1.5"/>
    <path d="M 199.547321 345.101571 
L 199.547321 343.266017 
" clip-path="url(#p6529becad3)" style="fill: none; stroke: #cc0033; stroke-width: 1.5"/>
    <path d="M 224.005694 343.009317 
L 224.005694 323.626373 
" clip-path="url(#p6529becad3)" style="fill: none; stroke: #cc0033; stroke-width: 1.5"/>
    <path d="M 248.464067 332.161186 
L 248.464067 262.332214 
" clip-path="url(#p6529becad3)" style="fill: none; stroke: #cc0033; stroke-width: 1.5"/>
    <path d="M 272.92244 331.582555 
L 272.92244 261.830895 
" clip-path="url(#p6529becad3)" style="fill: none; stroke: #cc0033; stroke-width: 1.5"/>
    <path d="M 297.380813 324.775784 
L 297.380813 313.829503 
" clip-path="url(#p6529becad3)" style="fill: none; stroke: #cc0033; stroke-width: 1.5"/>
    <path d="M 358.526746 312.145553 
L 358.526746 297.60608 
" clip-path="url(#p6529becad3)" style="fill: none; stroke: #cc0033; stroke-width: 1.5"/>
    <path d="M 419.672679 295.052672 
L 419.672679 281.68224 
" clip-path="url(#p6529becad3)" style="fill: none; stroke: #cc0033; stroke-width: 1.5"/>
    <path d="M 480.818612 282.031352 
L 480.818612 270.935581 
" clip-path="url(#p6529becad3)" style="fill: none; stroke: #cc0033; stroke-width: 1.5"/>
    <path d="M 541.964545 257.930871 
L 541.964545 189.828129 
" clip-path="url(#p6529becad3)" style="fill: none; stroke: #cc0033; stroke-width: 1.5"/>
   </g>
   <g id="line2d_23">
    <defs>
     <path id="md3fe7ae338" d="M 3 0 
L -3 -0 
" style="stroke: #cc0033"/>
    </defs>
    <g clip-path="url(#p6529becad3)">
     <use xlink:href="#md3fe7ae338" x="77.255455" y="373.532727" style="fill: #cc0033; stroke: #cc0033"/>
     <use xlink:href="#md3fe7ae338" x="101.713828" y="368.224479" style="fill: #cc0033; stroke: #cc0033"/>
     <use xlink:href="#md3fe7ae338" x="126.172201" y="363.605998" style="fill: #cc0033; stroke: #cc0033"/>
     <use xlink:href="#md3fe7ae338" x="150.630574" y="356.035167" style="fill: #cc0033; stroke: #cc0033"/>
     <use xlink:href="#md3fe7ae338" x="175.088947" y="352.067797" style="fill: #cc0033; stroke: #cc0033"/>
     <use xlink:href="#md3fe7ae338" x="199.547321" y="345.101571" style="fill: #cc0033; stroke: #cc0033"/>
     <use xlink:href="#md3fe7ae338" x="224.005694" y="343.009317" style="fill: #cc0033; stroke: #cc0033"/>
     <use xlink:href="#md3fe7ae338" x="248.464067" y="332.161186" style="fill: #cc0033; stroke: #cc0033"/>
     <use xlink:href="#md3fe7ae338" x="272.92244" y="331.582555" style="fill: #cc0033; stroke: #cc0033"/>
     <use xlink:href="#md3fe7ae338" x="297.380813" y="324.775784" style="fill: #cc0033; stroke: #cc0033"/>
     <use xlink:href="#md3fe7ae338" x="358.526746" y="312.145553" style="fill: #cc0033; stroke: #cc0033"/>
     <use xlink:href="#md3fe7ae338" x="419.672679" y="295.052672" style="fill: #cc0033; stroke: #cc0033"/>
     <use xlink:href="#md3fe7ae338" x="480.818612" y="282.031352" style="fill: #cc0033; stroke: #cc0033"/>
     <use xlink:href="#md3fe7ae338" x="541.964545" y="257.930871" style="fill: #cc0033; stroke: #cc0033"/>
    </g>
   </g>
   <g id="line2d_24">
    <g clip-path="url(#p6529becad3)">
     <use xlink:href="#md3fe7ae338" x="77.255455" y="369.504957" style="fill: #cc0033; stroke: #cc0033"/>
     <use xlink:href="#md3fe7ae338" x="101.713828" y="367.243886" style="fill: #cc0033; stroke: #cc0033"/>
     <use xlink:href="#md3fe7ae338" x="126.172201" y="361.045342" style="fill: #cc0033; stroke: #cc0033"/>
     <use xlink:href="#md3fe7ae338" x="150.630574" y="352.400299" style="fill: #cc0033; stroke: #cc0033"/>
     <use xlink:href="#md3fe7ae338" x="175.088947" y="345.916668" style="fill: #cc0033; stroke: #cc0033"/>
     <use xlink:href="#md3fe7ae338" x="199.547321" y="343.266017" style="fill: #cc0033; stroke: #cc0033"/>
     <use xlink:href="#md3fe7ae338" x="224.005694" y="323.626373" style="fill: #cc0033; stroke: #cc0033"/>
     <use xlink:href="#md3fe7ae338" x="248.464067" y="262.332214" style="fill: #cc0033; stroke: #cc0033"/>
     <use xlink:href="#md3fe7ae338" x="272.92244" y="261.830895" style="fill: #cc0033; stroke: #cc0033"/>
     <use xlink:href="#md3fe7ae338" x="297.380813" y="313.829503" style="fill: #cc0033; stroke: #cc0033"/>
     <use xlink:href="#md3fe7ae338" x="358.526746" y="297.60608" style="fill: #cc0033; stroke: #cc0033"/>
     <use xlink:href="#md3fe7ae338" x="419.672679" y="281.68224" style="fill: #cc0033; stroke: #cc0033"/>
     <use xlink:href="#md3fe7ae338" x="480.818612" y="270.935581" style="fill: #cc0033; stroke: #cc0033"/>
     <use xlink:href="#md3fe7ae338" x="541.964545" y="189.828129" style="fill: #cc0033; stroke: #cc0033"/>
    </g>
   </g>
   <g id="line2d_25">
    <path d="M 77.255455 311.375756 
L 101.713828 307.02998 
L 126.172201 315.905751 
L 150.630574 308.890298 
L 175.088947 309.723817 
L 199.547321 307.34104 
L 224.005694 296.882791 
L 248.464067 290.456237 
L 272.92244 285.932282 
L 297.380813 262.536366 
L 358.526746 245.654584 
L 419.672679 200.094911 
L 480.818612 154.085258 
L 541.964545 89.001306 
" clip-path="url(#p6529becad3)" style="fill: none; stroke: #009933; stroke-width: 1.5; stroke-linecap: square"/>
   </g>
   <g id="line2d_26">
    <path d="M 77.255455 362.501283 
L 101.713828 352.435633 
L 126.172201 337.338669 
L 150.630574 322.232644 
L 175.088947 305.121342 
L 199.547321 289.495878 
L 224.005694 270.892697 
L 248.464067 253.261956 
L 272.92244 236.667073 
L 297.380813 219.552751 
L 358.526746 159.648092 
L 419.672679 129.448124 
L 480.818612 96.741558 
L 541.964545 59.495936 
" clip-path="url(#p6529becad3)" style="fill: none; stroke: #0000cc; stroke-width: 1.5; stroke-linecap: square"/>
   </g>
   <g id="line2d_27">
    <path d="M 77.255455 355.453617 
L 101.713828 359.480279 
L 126.172201 339.346967 
L 150.630574 338.340301 
L 175.088947 322.233651 
L 199.547321 303.107004 
L 224.005694 279.953695 
L 248.464067 270.893704 
L 272.92244 248.74706 
L 297.380813 253.780388 
L 358.526746 191.36712 
L 419.672679 118.887195 
L 480.818612 113.853867 
L 541.964545 57.480591 
" clip-path="url(#p6529becad3)" style="fill: none; stroke: #666600; stroke-width: 1.5; stroke-linecap: square"/>
   </g>
   <g id="line2d_28">
    <path d="M 77.255455 339.53179 
L 101.713828 315.795219 
L 126.172201 304.515833 
L 150.630574 287.288562 
L 175.088947 289.765866 
L 199.547321 272.04543 
L 224.005694 262.019041 
L 248.464067 254.994528 
L 272.92244 261.540975 
L 297.380813 241.633458 
L 358.526746 235.336462 
L 419.672679 212.495924 
L 480.818612 175.006287 
L 541.964545 141.933697 
" clip-path="url(#p6529becad3)" style="fill: none; stroke: #990000; stroke-width: 1.5; stroke-linecap: square"/>
   </g>
   <g id="line2d_29">
    <path d="M 77.255455 371.784954 
L 101.713828 367.877682 
L 126.172201 362.030565 
L 150.630574 354.017407 
L 175.088947 349.815987 
L 199.547321 344.057357 
L 224.005694 335.846589 
L 248.464067 308.204658 
L 272.92244 306.431216 
L 297.380813 321.110816 
L 358.526746 306.204009 
L 419.672679 290.038171 
L 480.818612 277.324386 
L 541.964545 234.365227 
" clip-path="url(#p6529becad3)" style="fill: none; stroke: #cc0033; stroke-width: 1.5; stroke-linecap: square"/>
   </g>
   <g id="patch_3">
    <path d="M 54.02 390.04 
L 54.02 26.88 
" style="fill: none; stroke: #000000; stroke-width: 0.8; stroke-linejoin: miter; stroke-linecap: square"/>
   </g>
   <g id="patch_4">
    <path d="M 565.2 390.04 
L 565.2 26.88 
" style="fill: none; stroke: #000000; stroke-width: 0.8; stroke-linejoin: miter; stroke-linecap: square"/>
   </g>
   <g id="patch_5">
    <path d="M 54.02 390.04 
L 565.2 390.04 
" style="fill: none; stroke: #000000; stroke-width: 0.8; stroke-linejoin: miter; stroke-linecap: square"/>
   </g>
   <g id="patch_6">
    <path d="M 54.02 26.88 
L 565.2 26.88 
" style="fill: none; stroke: #000000; stroke-width: 0.8; stroke-linejoin: miter; stroke-linecap: square"/>
   </g>
   <g id="text_17">
    <!-- Bron-Kerbosch parallel Ver3=GP using channels on a random graph of order 10k -->
    <g transform="translate(54.02 20.88) scale(0.12 -0.12)">
     <defs>
      <path id="DejaVuSans-42" d="M 1259 2228 
L 1259 519 
L 2272 519 
Q 2781 519 3026 730 
Q 3272 941 3272 1375 
Q 3272 1813 3026 2020 
Q 2781 2228 2272 2228 
L 1259 2228 
z
M 1259 4147 
L 1259 2741 
L 2194 2741 
Q 2656 2741 2882 2914 
Q 3109 3088 3109 3444 
Q 3109 3797 2882 3972 
Q 2656 4147 2194 4147 
L 1259 4147 
z
M 628 4666 
L 2241 4666 
Q 2963 4666 3353 4366 
Q 3744 4066 3744 3513 
Q 3744 3084 3544 2831 
Q 3344 2578 2956 2516 
Q 3422 2416 3680 2098 
Q 3938 1781 3938 1306 
Q 3938 681 3513 340 
Q 3088 0 2303 0 
L 628 0 
L 628 4666 
z
" transform="scale(0.015625)"/>
      <path id="DejaVuSans-72" d="M 2631 2963 
Q 2534 3019 2420 3045 
Q 2306 3072 2169 3072 
Q 1681 3072 1420 2755 
Q 1159 2438 1159 1844 
L 1159 0 
L 581 0 
L 581 3500 
L 1159 3500 
L 1159 2956 
Q 1341 3275 1631 3429 
Q 1922 3584 2338 3584 
Q 2397 3584 2469 3576 
Q 2541 3569 2628 3553 
L 2631 2963 
z
" transform="scale(0.015625)"/>
      <path id="DejaVuSans-2d" d="M 313 2009 
L 1997 2009 
L 1997 1497 
L 313 1497 
L 313 2009 
z
" transform="scale(0.015625)"/>
      <path id="DejaVuSans-4b" d="M 628 4666 
L 1259 4666 
L 1259 2694 
L 3353 4666 
L 4166 4666 
L 1850 2491 
L 4331 0 
L 3500 0 
L 1259 2247 
L 1259 0 
L 628 0 
L 628 4666 
z
" transform="scale(0.015625)"/>
      <path id="DejaVuSans-62" d="M 3116 1747 
Q 3116 2381 2855 2742 
Q 2594 3103 2138 3103 
Q 1681 3103 1420 2742 
Q 1159 2381 1159 1747 
Q 1159 1113 1420 752 
Q 1681 391 2138 391 
Q 2594 391 2855 752 
Q 3116 1113 3116 1747 
z
M 1159 2969 
Q 1341 3281 1617 3432 
Q 1894 3584 2278 3584 
Q 2916 3584 3314 3078 
Q 3713 2572 3713 1747 
Q 3713 922 3314 415 
Q 2916 -91 2278 -91 
Q 1894 -91 1617 61 
Q 1341 213 1159 525 
L 1159 0 
L 581 0 
L 581 4863 
L 1159 4863 
L 1159 2969 
z
" transform="scale(0.015625)"/>
      <path id="DejaVuSans-68" d="M 3513 2113 
L 3513 0 
L 2938 0 
L 2938 2094 
Q 2938 2591 2744 2837 
Q 2550 3084 2163 3084 
Q 1697 3084 1428 2787 
Q 1159 2491 1159 1978 
L 1159 0 
L 581 0 
L 581 4863 
L 1159 4863 
L 1159 2956 
Q 1366 3272 1645 3428 
Q 1925 3584 2291 3584 
Q 2894 3584 3203 3211 
Q 3513 2838 3513 2113 
z
" transform="scale(0.015625)"/>
      <path id="DejaVuSans-61" d="M 2194 1759 
Q 1497 1759 1228 1600 
Q 959 1441 959 1056 
Q 959 750 1161 570 
Q 1363 391 1709 391 
Q 2188 391 2477 730 
Q 2766 1069 2766 1631 
L 2766 1759 
L 2194 1759 
z
M 3341 1997 
L 3341 0 
L 2766 0 
L 2766 531 
Q 2569 213 2275 61 
Q 1981 -91 1556 -91 
Q 1019 -91 701 211 
Q 384 513 384 1019 
Q 384 1609 779 1909 
Q 1175 2209 1959 2209 
L 2766 2209 
L 2766 2266 
Q 2766 2663 2505 2880 
Q 2244 3097 1772 3097 
Q 1472 3097 1187 3025 
Q 903 2953 641 2809 
L 641 3341 
Q 956 3463 1253 3523 
Q 1550 3584 1831 3584 
Q 2591 3584 2966 3190 
Q 3341 2797 3341 1997 
z
" transform="scale(0.015625)"/>
      <path id="DejaVuSans-6c" d="M 603 4863 
L 1178 4863 
L 1178 0 
L 603 0 
L 603 4863 
z
" transform="scale(0.015625)"/>
      <path id="DejaVuSans-56" d="M 1831 0 
L 50 4666 
L 709 4666 
L 2188 738 
L 3669 4666 
L 4325 4666 
L 2547 0 
L 1831 0 
z
" transform="scale(0.015625)"/>
      <path id="DejaVuSans-33" d="M 2597 2516 
Q 3050 2419 3304 2112 
Q 3559 1806 3559 1356 
Q 3559 666 3084 287 
Q 2609 -91 1734 -91 
Q 1441 -91 1130 -33 
Q 819 25 488 141 
L 488 750 
Q 750 597 1062 519 
Q 1375 441 1716 441 
Q 2309 441 2620 675 
Q 2931 909 2931 1356 
Q 2931 1769 2642 2001 
Q 2353 2234 1838 2234 
L 1294 2234 
L 1294 2753 
L 1863 2753 
Q 2328 2753 2575 2939 
Q 2822 3125 2822 3475 
Q 2822 3834 2567 4026 
Q 2313 4219 1838 4219 
Q 1578 4219 1281 4162 
Q 984 4106 628 3988 
L 628 4550 
Q 988 4650 1302 4700 
Q 1616 4750 1894 4750 
Q 2613 4750 3031 4423 
Q 3450 4097 3450 3541 
Q 3450 3153 3228 2886 
Q 3006 2619 2597 2516 
z
" transform="scale(0.015625)"/>
      <path id="DejaVuSans-bd" d="M 488 2431 
L 1125 2431 
L 1125 4341 
L 428 4213 
L 428 4575 
L 1147 4697 
L 1575 4697 
L 1575 2431 
L 2216 2431 
L 2216 2088 
L 488 2088 
L 488 2431 
z
M 4470 332 
L 5795 332 
L 5795 -24 
L 3926 -24 
L 3926 319 
Q 4032 416 4229 591 
Q 5304 1544 5304 1838 
Q 5304 2044 5141 2170 
Q 4979 2297 4713 2297 
Q 4551 2297 4360 2242 
Q 4170 2188 3945 2079 
L 3945 2463 
Q 4185 2551 4393 2594 
Q 4601 2638 4779 2638 
Q 5232 2638 5504 2432 
Q 5776 2226 5776 1888 
Q 5776 1454 4741 566 
Q 4566 416 4470 332 
z
M 4309 4750 
L 4809 4750 
L 1896 -91 
L 1396 -91 
L 4309 4750 
z
" transform="scale(0.015625)"/>
      <path id="DejaVuSans-3d" d="M 678 2906 
L 4684 2906 
L 4684 2381 
L 678 2381 
L 678 2906 
z
M 678 1631 
L 4684 1631 
L 4684 1100 
L 678 1100 
L 678 1631 
z
" transform="scale(0.015625)"/>
      <path id="DejaVuSans-47" d="M 3809 666 
L 3809 1919 
L 2778 1919 
L 2778 2438 
L 4434 2438 
L 4434 434 
Q 4069 175 3628 42 
Q 3188 -91 2688 -91 
Q 1594 -91 976 548 
Q 359 1188 359 2328 
Q 359 3472 976 4111 
Q 1594 4750 2688 4750 
Q 3144 4750 3555 4637 
Q 3966 4525 4313 4306 
L 4313 3634 
Q 3963 3931 3569 4081 
Q 3175 4231 2741 4231 
Q 1884 4231 1454 3753 
Q 1025 3275 1025 2328 
Q 1025 1384 1454 906 
Q 1884 428 2741 428 
Q 3075 428 3337 486 
Q 3600 544 3809 666 
z
" transform="scale(0.015625)"/>
      <path id="DejaVuSans-50" d="M 1259 4147 
L 1259 2394 
L 2053 2394 
Q 2494 2394 2734 2622 
Q 2975 2850 2975 3272 
Q 2975 3691 2734 3919 
Q 2494 4147 2053 4147 
L 1259 4147 
z
M 628 4666 
L 2053 4666 
Q 2838 4666 3239 4311 
Q 3641 3956 3641 3272 
Q 3641 2581 3239 2228 
Q 2838 1875 2053 1875 
L 1259 1875 
L 1259 0 
L 628 0 
L 628 4666 
z
" transform="scale(0.015625)"/>
      <path id="DejaVuSans-75" d="M 544 1381 
L 544 3500 
L 1119 3500 
L 1119 1403 
Q 1119 906 1312 657 
Q 1506 409 1894 409 
Q 2359 409 2629 706 
Q 2900 1003 2900 1516 
L 2900 3500 
L 3475 3500 
L 3475 0 
L 2900 0 
L 2900 538 
Q 2691 219 2414 64 
Q 2138 -91 1772 -91 
Q 1169 -91 856 284 
Q 544 659 544 1381 
z
M 1991 3584 
L 1991 3584 
z
" transform="scale(0.015625)"/>
      <path id="DejaVuSans-6d" d="M 3328 2828 
Q 3544 3216 3844 3400 
Q 4144 3584 4550 3584 
Q 5097 3584 5394 3201 
Q 5691 2819 5691 2113 
L 5691 0 
L 5113 0 
L 5113 2094 
Q 5113 2597 4934 2840 
Q 4756 3084 4391 3084 
Q 3944 3084 3684 2787 
Q 3425 2491 3425 1978 
L 3425 0 
L 2847 0 
L 2847 2094 
Q 2847 2600 2669 2842 
Q 2491 3084 2119 3084 
Q 1678 3084 1418 2786 
Q 1159 2488 1159 1978 
L 1159 0 
L 581 0 
L 581 3500 
L 1159 3500 
L 1159 2956 
Q 1356 3278 1631 3431 
Q 1906 3584 2284 3584 
Q 2666 3584 2933 3390 
Q 3200 3197 3328 2828 
z
" transform="scale(0.015625)"/>
      <path id="DejaVuSans-66" d="M 2375 4863 
L 2375 4384 
L 1825 4384 
Q 1516 4384 1395 4259 
Q 1275 4134 1275 3809 
L 1275 3500 
L 2222 3500 
L 2222 3053 
L 1275 3053 
L 1275 0 
L 697 0 
L 697 3053 
L 147 3053 
L 147 3500 
L 697 3500 
L 697 3744 
Q 697 4328 969 4595 
Q 1241 4863 1831 4863 
L 2375 4863 
z
" transform="scale(0.015625)"/>
      <path id="DejaVuSans-6b" d="M 581 4863 
L 1159 4863 
L 1159 1991 
L 2875 3500 
L 3609 3500 
L 1753 1863 
L 3688 0 
L 2938 0 
L 1159 1709 
L 1159 0 
L 581 0 
L 581 4863 
z
" transform="scale(0.015625)"/>
     </defs>
     <use xlink:href="#DejaVuSans-42"/>
     <use xlink:href="#DejaVuSans-72" x="68.603516"/>
     <use xlink:href="#DejaVuSans-6f" x="107.466797"/>
     <use xlink:href="#DejaVuSans-6e" x="168.648438"/>
     <use xlink:href="#DejaVuSans-2d" x="232.027344"/>
     <use xlink:href="#DejaVuSans-4b" x="268.111328"/>
     <use xlink:href="#DejaVuSans-65" x="328.6875"/>
     <use xlink:href="#DejaVuSans-72" x="390.210938"/>
     <use xlink:href="#DejaVuSans-62" x="431.324219"/>
     <use xlink:href="#DejaVuSans-6f" x="494.800781"/>
     <use xlink:href="#DejaVuSans-73" x="555.982422"/>
     <use xlink:href="#DejaVuSans-63" x="608.082031"/>
     <use xlink:href="#DejaVuSans-68" x="663.0625"/>
     <use xlink:href="#DejaVuSans-20" x="726.441406"/>
     <use xlink:href="#DejaVuSans-70" x="758.228516"/>
     <use xlink:href="#DejaVuSans-61" x="821.705078"/>
     <use xlink:href="#DejaVuSans-72" x="882.984375"/>
     <use xlink:href="#DejaVuSans-61" x="924.097656"/>
     <use xlink:href="#DejaVuSans-6c" x="985.376953"/>
     <use xlink:href="#DejaVuSans-6c" x="1013.160156"/>
     <use xlink:href="#DejaVuSans-65" x="1040.943359"/>
     <use xlink:href="#DejaVuSans-6c" x="1102.466797"/>
     <use xlink:href="#DejaVuSans-20" x="1130.25"/>
     <use xlink:href="#DejaVuSans-56" x="1162.037109"/>
     <use xlink:href="#DejaVuSans-65" x="1222.695312"/>
     <use xlink:href="#DejaVuSans-72" x="1284.21875"/>
     <use xlink:href="#DejaVuSans-33" x="1325.332031"/>
     <use xlink:href="#DejaVuSans-bd" x="1388.955078"/>
     <use xlink:href="#DejaVuSans-3d" x="1485.878906"/>
     <use xlink:href="#DejaVuSans-47" x="1569.667969"/>
     <use xlink:href="#DejaVuSans-50" x="1647.158203"/>
     <use xlink:href="#DejaVuSans-20" x="1707.460938"/>
     <use xlink:href="#DejaVuSans-75" x="1739.248047"/>
     <use xlink:href="#DejaVuSans-73" x="1802.626953"/>
     <use xlink:href="#DejaVuSans-69" x="1854.726562"/>
     <use xlink:href="#DejaVuSans-6e" x="1882.509766"/>
     <use xlink:href="#DejaVuSans-67" x="1945.888672"/>
     <use xlink:href="#DejaVuSans-20" x="2009.365234"/>
     <use xlink:href="#DejaVuSans-63" x="2041.152344"/>
     <use xlink:href="#DejaVuSans-68" x="2096.132812"/>
     <use xlink:href="#DejaVuSans-61" x="2159.511719"/>
     <use xlink:href="#DejaVuSans-6e" x="2220.791016"/>
     <use xlink:href="#DejaVuSans-6e" x="2284.169922"/>
     <use xlink:href="#DejaVuSans-65" x="2347.548828"/>
     <use xlink:href="#DejaVuSans-6c" x="2409.072266"/>
     <use xlink:href="#DejaVuSans-73" x="2436.855469"/>
     <use xlink:href="#DejaVuSans-20" x="2488.955078"/>
     <use xlink:href="#DejaVuSans-6f" x="2520.742188"/>
     <use xlink:href="#DejaVuSans-6e" x="2581.923828"/>
     <use xlink:href="#DejaVuSans-20" x="2645.302734"/>
     <use xlink:href="#DejaVuSans-61" x="2677.089844"/>
     <use xlink:href="#DejaVuSans-20" x="2738.369141"/>
     <use xlink:href="#DejaVuSans-72" x="2770.15625"/>
     <use xlink:href="#DejaVuSans-61" x="2811.269531"/>
     <use xlink:href="#DejaVuSans-6e" x="2872.548828"/>
     <use xlink:href="#DejaVuSans-64" x="2935.927734"/>
     <use xlink:href="#DejaVuSans-6f" x="2999.404297"/>
     <use xlink:href="#DejaVuSans-6d" x="3060.585938"/>
     <use xlink:href="#DejaVuSans-20" x="3157.998047"/>
     <use xlink:href="#DejaVuSans-67" x="3189.785156"/>
     <use xlink:href="#DejaVuSans-72" x="3253.261719"/>
     <use xlink:href="#DejaVuSans-61" x="3294.375"/>
     <use xlink:href="#DejaVuSans-70" x="3355.654297"/>
     <use xlink:href="#DejaVuSans-68" x="3419.130859"/>
     <use xlink:href="#DejaVuSans-20" x="3482.509766"/>
     <use xlink:href="#DejaVuSans-6f" x="3514.296875"/>
     <use xlink:href="#DejaVuSans-66" x="3575.478516"/>
     <use xlink:href="#DejaVuSans-20" x="3610.683594"/>
     <use xlink:href="#DejaVuSans-6f" x="3642.470703"/>
     <use xlink:href="#DejaVuSans-72" x="3703.652344"/>
     <use xlink:href="#DejaVuSans-64" x="3743.015625"/>
     <use xlink:href="#DejaVuSans-65" x="3806.492188"/>
     <use xlink:href="#DejaVuSans-72" x="3868.015625"/>
     <use xlink:href="#DejaVuSans-20" x="3909.128906"/>
     <use xlink:href="#DejaVuSans-31" x="3940.916016"/>
     <use xlink:href="#DejaVuSans-30" x="4004.539062"/>
     <use xlink:href="#DejaVuSans-6b" x="4068.162109"/>
    </g>
   </g>
   <g id="legend_1">
    <g id="patch_7">
     <path d="M 61.02 108.270625 
L 116.762188 108.270625 
Q 118.762188 108.270625 118.762188 106.270625 
L 118.762188 33.88 
Q 118.762188 31.88 116.762188 31.88 
L 61.02 31.88 
Q 59.02 31.88 59.02 33.88 
L 59.02 106.270625 
Q 59.02 108.270625 61.02 108.270625 
z
" style="fill: #ffffff; opacity: 0.8; stroke: #cccccc; stroke-linejoin: miter"/>
    </g>
    <g id="LineCollection_6">
     <path d="M 73.02 44.978437 
L 73.02 34.978437 
" style="fill: none; stroke: #009933; stroke-width: 1.5"/>
    </g>
    <g id="line2d_30">
     <g>
      <use xlink:href="#m567d63a80a" x="73.02" y="44.978437" style="fill: #009933; stroke: #009933"/>
     </g>
    </g>
    <g id="line2d_31">
     <g>
      <use xlink:href="#m567d63a80a" x="73.02" y="34.978437" style="fill: #009933; stroke: #009933"/>
     </g>
    </g>
    <g id="line2d_32">
     <path d="M 63.02 39.978437 
L 83.02 39.978437 
" style="fill: none; stroke: #009933; stroke-width: 1.5; stroke-linecap: square"/>
    </g>
    <g id="line2d_33"/>
    <g id="text_18">
     <!-- Java -->
     <g transform="translate(91.02 43.478437) scale(0.1 -0.1)">
      <defs>
       <path id="DejaVuSans-4a" d="M 628 4666 
L 1259 4666 
L 1259 325 
Q 1259 -519 939 -900 
Q 619 -1281 -91 -1281 
L -331 -1281 
L -331 -750 
L -134 -750 
Q 284 -750 456 -515 
Q 628 -281 628 325 
L 628 4666 
z
" transform="scale(0.015625)"/>
       <path id="DejaVuSans-76" d="M 191 3500 
L 800 3500 
L 1894 563 
L 2988 3500 
L 3597 3500 
L 2284 0 
L 1503 0 
L 191 3500 
z
" transform="scale(0.015625)"/>
      </defs>
      <use xlink:href="#DejaVuSans-4a"/>
      <use xlink:href="#DejaVuSans-61" x="29.492188"/>
      <use xlink:href="#DejaVuSans-76" x="90.771484"/>
      <use xlink:href="#DejaVuSans-61" x="149.951172"/>
     </g>
    </g>
    <g id="LineCollection_7">
     <path d="M 73.02 59.656563 
L 73.02 49.656563 
" style="fill: none; stroke: #0000cc; stroke-width: 1.5"/>
    </g>
    <g id="line2d_34">
     <g>
      <use xlink:href="#m71e13e22db" x="73.02" y="59.656563" style="fill: #0000cc; stroke: #0000cc"/>
     </g>
    </g>
    <g id="line2d_35">
     <g>
      <use xlink:href="#m71e13e22db" x="73.02" y="49.656563" style="fill: #0000cc; stroke: #0000cc"/>
     </g>
    </g>
    <g id="line2d_36">
     <path d="M 63.02 54.656563 
L 83.02 54.656563 
" style="fill: none; stroke: #0000cc; stroke-width: 1.5; stroke-linecap: square"/>
    </g>
    <g id="line2d_37"/>
    <g id="text_19">
     <!-- Go -->
     <g transform="translate(91.02 58.156563) scale(0.1 -0.1)">
      <use xlink:href="#DejaVuSans-47"/>
      <use xlink:href="#DejaVuSans-6f" x="77.490234"/>
     </g>
    </g>
    <g id="LineCollection_8">
     <path d="M 73.02 74.334687 
L 73.02 64.334687 
" style="fill: none; stroke: #666600; stroke-width: 1.5"/>
    </g>
    <g id="line2d_38">
     <g>
      <use xlink:href="#ma612d83d5a" x="73.02" y="74.334687" style="fill: #666600; stroke: #666600"/>
     </g>
    </g>
    <g id="line2d_39">
     <g>
      <use xlink:href="#ma612d83d5a" x="73.02" y="64.334687" style="fill: #666600; stroke: #666600"/>
     </g>
    </g>
    <g id="line2d_40">
     <path d="M 63.02 69.334687 
L 83.02 69.334687 
" style="fill: none; stroke: #666600; stroke-width: 1.5; stroke-linecap: square"/>
    </g>
    <g id="line2d_41"/>
    <g id="text_20">
     <!-- C# -->
     <g transform="translate(91.02 72.834687) scale(0.1 -0.1)">
      <defs>
       <path id="DejaVuSans-43" d="M 4122 4306 
L 4122 3641 
Q 3803 3938 3442 4084 
Q 3081 4231 2675 4231 
Q 1875 4231 1450 3742 
Q 1025 3253 1025 2328 
Q 1025 1406 1450 917 
Q 1875 428 2675 428 
Q 3081 428 3442 575 
Q 3803 722 4122 1019 
L 4122 359 
Q 3791 134 3420 21 
Q 3050 -91 2638 -91 
Q 1578 -91 968 557 
Q 359 1206 359 2328 
Q 359 3453 968 4101 
Q 1578 4750 2638 4750 
Q 3056 4750 3426 4639 
Q 3797 4528 4122 4306 
z
" transform="scale(0.015625)"/>
      </defs>
      <use xlink:href="#DejaVuSans-43"/>
      <use xlink:href="#DejaVuSans-23" x="69.824219"/>
     </g>
    </g>
    <g id="LineCollection_9">
     <path d="M 73.02 89.012812 
L 73.02 79.012812 
" style="fill: none; stroke: #990000; stroke-width: 1.5"/>
    </g>
    <g id="line2d_42">
     <g>
      <use xlink:href="#md9b07cde7a" x="73.02" y="89.012812" style="fill: #990000; stroke: #990000"/>
     </g>
    </g>
    <g id="line2d_43">
     <g>
      <use xlink:href="#md9b07cde7a" x="73.02" y="79.012812" style="fill: #990000; stroke: #990000"/>
     </g>
    </g>
    <g id="line2d_44">
     <path d="M 63.02 84.012812 
L 83.02 84.012812 
" style="fill: none; stroke: #990000; stroke-width: 1.5; stroke-linecap: square"/>
    </g>
    <g id="line2d_45"/>
    <g id="text_21">
     <!-- C++ -->
     <g transform="translate(91.02 87.512812) scale(0.1 -0.1)">
      <defs>
       <path id="DejaVuSans-2b" d="M 2944 4013 
L 2944 2272 
L 4684 2272 
L 4684 1741 
L 2944 1741 
L 2944 0 
L 2419 0 
L 2419 1741 
L 678 1741 
L 678 2272 
L 2419 2272 
L 2419 4013 
L 2944 4013 
z
" transform="scale(0.015625)"/>
      </defs>
      <use xlink:href="#DejaVuSans-43"/>
      <use xlink:href="#DejaVuSans-2b" x="69.824219"/>
      <use xlink:href="#DejaVuSans-2b" x="153.613281"/>
     </g>
    </g>
    <g id="LineCollection_10">
     <path d="M 73.02 103.690938 
L 73.02 93.690938 
" style="fill: none; stroke: #cc0033; stroke-width: 1.5"/>
    </g>
    <g id="line2d_46">
     <g>
      <use xlink:href="#md3fe7ae338" x="73.02" y="103.690938" style="fill: #cc0033; stroke: #cc0033"/>
     </g>
    </g>
    <g id="line2d_47">
     <g>
      <use xlink:href="#md3fe7ae338" x="73.02" y="93.690938" style="fill: #cc0033; stroke: #cc0033"/>
     </g>
    </g>
    <g id="line2d_48">
     <path d="M 63.02 98.690938 
L 83.02 98.690938 
" style="fill: none; stroke: #cc0033; stroke-width: 1.5; stroke-linecap: square"/>
    </g>
    <g id="line2d_49"/>
    <g id="text_22">
     <!-- Rust -->
     <g transform="translate(91.02 102.190938) scale(0.1 -0.1)">
      <defs>
       <path id="DejaVuSans-52" d="M 2841 2188 
Q 3044 2119 3236 1894 
Q 3428 1669 3622 1275 
L 4263 0 
L 3584 0 
L 2988 1197 
Q 2756 1666 2539 1819 
Q 2322 1972 1947 1972 
L 1259 1972 
L 1259 0 
L 628 0 
L 628 4666 
L 2053 4666 
Q 2853 4666 3247 4331 
Q 3641 3997 3641 3322 
Q 3641 2881 3436 2590 
Q 3231 2300 2841 2188 
z
M 1259 4147 
L 1259 2491 
L 2053 2491 
Q 2509 2491 2742 2702 
Q 2975 2913 2975 3322 
Q 2975 3731 2742 3939 
Q 2509 4147 2053 4147 
L 1259 4147 
z
" transform="scale(0.015625)"/>
      </defs>
      <use xlink:href="#DejaVuSans-52"/>
      <use xlink:href="#DejaVuSans-75" x="64.982422"/>
      <use xlink:href="#DejaVuSans-73" x="128.361328"/>
      <use xlink:href="#DejaVuSans-74" x="180.460938"/>
     </g>
    </g>
   </g>
  </g>
 </g>
 <defs>
  <clipPath id="p6529becad3">
   <rect x="54.02" y="26.88" width="511.18" height="363.16"/>
  </clipPath>
 </defs>
</svg>
