<?xml version="1.0" encoding="utf-8" standalone="no"?>
<!DOCTYPE svg PUBLIC "-//W3C//DTD SVG 1.1//EN"
  "http://www.w3.org/Graphics/SVG/1.1/DTD/svg11.dtd">
<svg xmlns:xlink="http://www.w3.org/1999/xlink" width="576pt" height="432pt" viewBox="0 0 576 432" xmlns="http://www.w3.org/2000/svg" version="1.1">
 <metadata>
  <rdf:RDF xmlns:dc="http://purl.org/dc/elements/1.1/" xmlns:cc="http://creativecommons.org/ns#" xmlns:rdf="http://www.w3.org/1999/02/22-rdf-syntax-ns#">
   <cc:Work>
    <dc:type rdf:resource="http://purl.org/dc/dcmitype/StillImage"/>
    <dc:date>2025-09-02T22:51:50.452038</dc:date>
    <dc:format>image/svg+xml</dc:format>
    <dc:creator>
     <cc:Agent>
      <dc:title>Matplotlib v3.10.5, https://matplotlib.org/</dc:title>
     </cc:Agent>
    </dc:creator>
   </cc:Work>
  </rdf:RDF>
 </metadata>
 <defs>
  <style type="text/css">*{stroke-linejoin: round; stroke-linecap: butt}</style>
 </defs>
 <g id="figure_1">
  <g id="patch_1">
   <path d="M 0 432 
L 576 432 
L 576 0 
L 0 0 
z
" style="fill: #ffffff"/>
  </g>
  <g id="axes_1">
   <g id="patch_2">
    <path d="M 54.02 390.04 
L 565.2 390.04 
L 565.2 26.88 
L 54.02 26.88 
z
" style="fill: #ffffff"/>
   </g>
   <g id="matplotlib.axis_1">
    <g id="xtick_1">
     <g id="line2d_1">
      <defs>
       <path id="mc74f61fcfc" d="M 0 0 
L 0 3.5 
" style="stroke: #000000; stroke-width: 0.8"/>
      </defs>
      <g>
       <use xlink:href="#mc74f61fcfc" x="113.943014" y="390.04" style="stroke: #000000; stroke-width: 0.8"/>
      </g>
     </g>
     <g id="text_1">
      <!-- 25000 -->
      <g transform="translate(98.036764 404.638438) scale(0.1 -0.1)">
       <defs>
        <path id="DejaVuSans-32" d="M 1228 531 
L 3431 531 
L 3431 0 
L 469 0 
L 469 531 
Q 828 903 1448 1529 
Q 2069 2156 2228 2338 
Q 2531 2678 2651 2914 
Q 2772 3150 2772 3378 
Q 2772 3750 2511 3984 
Q 2250 4219 1831 4219 
Q 1534 4219 1204 4116 
Q 875 4013 500 3803 
L 500 4441 
Q 881 4594 1212 4672 
Q 1544 4750 1819 4750 
Q 2544 4750 2975 4387 
Q 3406 4025 3406 3419 
Q 3406 3131 3298 2873 
Q 3191 2616 2906 2266 
Q 2828 2175 2409 1742 
Q 1991 1309 1228 531 
z
" transform="scale(0.015625)"/>
        <path id="DejaVuSans-35" d="M 691 4666 
L 3169 4666 
L 3169 4134 
L 1269 4134 
L 1269 2991 
Q 1406 3038 1543 3061 
Q 1681 3084 1819 3084 
Q 2600 3084 3056 2656 
Q 3513 2228 3513 1497 
Q 3513 744 3044 326 
Q 2575 -91 1722 -91 
Q 1428 -91 1123 -41 
Q 819 9 494 109 
L 494 744 
Q 775 591 1075 516 
Q 1375 441 1709 441 
Q 2250 441 2565 725 
Q 2881 1009 2881 1497 
Q 2881 1984 2565 2268 
Q 2250 2553 1709 2553 
Q 1456 2553 1204 2497 
Q 953 2441 691 2322 
L 691 4666 
z
" transform="scale(0.015625)"/>
        <path id="DejaVuSans-30" d="M 2034 4250 
Q 1547 4250 1301 3770 
Q 1056 3291 1056 2328 
Q 1056 1369 1301 889 
Q 1547 409 2034 409 
Q 2525 409 2770 889 
Q 3016 1369 3016 2328 
Q 3016 3291 2770 3770 
Q 2525 4250 2034 4250 
z
M 2034 4750 
Q 2819 4750 3233 4129 
Q 3647 3509 3647 2328 
Q 3647 1150 3233 529 
Q 2819 -91 2034 -91 
Q 1250 -91 836 529 
Q 422 1150 422 2328 
Q 422 3509 836 4129 
Q 1250 4750 2034 4750 
z
" transform="scale(0.015625)"/>
       </defs>
       <use xlink:href="#DejaVuSans-32"/>
       <use xlink:href="#DejaVuSans-35" transform="translate(63.623047 0)"/>
       <use xlink:href="#DejaVuSans-30" transform="translate(127.246094 0)"/>
       <use xlink:href="#DejaVuSans-30" transform="translate(190.869141 0)"/>
       <use xlink:href="#DejaVuSans-30" transform="translate(254.492188 0)"/>
      </g>
     </g>
    </g>
    <g id="xtick_2">
     <g id="line2d_2">
      <g>
       <use xlink:href="#mc74f61fcfc" x="175.088947" y="390.04" style="stroke: #000000; stroke-width: 0.8"/>
      </g>
     </g>
     <g id="text_2">
      <!-- 50000 -->
      <g transform="translate(159.182697 404.638438) scale(0.1 -0.1)">
       <use xlink:href="#DejaVuSans-35"/>
       <use xlink:href="#DejaVuSans-30" transform="translate(63.623047 0)"/>
       <use xlink:href="#DejaVuSans-30" transform="translate(127.246094 0)"/>
       <use xlink:href="#DejaVuSans-30" transform="translate(190.869141 0)"/>
       <use xlink:href="#DejaVuSans-30" transform="translate(254.492188 0)"/>
      </g>
     </g>
    </g>
    <g id="xtick_3">
     <g id="line2d_3">
      <g>
       <use xlink:href="#mc74f61fcfc" x="236.23488" y="390.04" style="stroke: #000000; stroke-width: 0.8"/>
      </g>
     </g>
     <g id="text_3">
      <!-- 75000 -->
      <g transform="translate(220.32863 404.638438) scale(0.1 -0.1)">
       <defs>
        <path id="DejaVuSans-37" d="M 525 4666 
L 3525 4666 
L 3525 4397 
L 1831 0 
L 1172 0 
L 2766 4134 
L 525 4134 
L 525 4666 
z
" transform="scale(0.015625)"/>
       </defs>
       <use xlink:href="#DejaVuSans-37"/>
       <use xlink:href="#DejaVuSans-35" transform="translate(63.623047 0)"/>
       <use xlink:href="#DejaVuSans-30" transform="translate(127.246094 0)"/>
       <use xlink:href="#DejaVuSans-30" transform="translate(190.869141 0)"/>
       <use xlink:href="#DejaVuSans-30" transform="translate(254.492188 0)"/>
      </g>
     </g>
    </g>
    <g id="xtick_4">
     <g id="line2d_4">
      <g>
       <use xlink:href="#mc74f61fcfc" x="297.380813" y="390.04" style="stroke: #000000; stroke-width: 0.8"/>
      </g>
     </g>
     <g id="text_4">
      <!-- 100000 -->
      <g transform="translate(278.293313 404.638438) scale(0.1 -0.1)">
       <defs>
        <path id="DejaVuSans-31" d="M 794 531 
L 1825 531 
L 1825 4091 
L 703 3866 
L 703 4441 
L 1819 4666 
L 2450 4666 
L 2450 531 
L 3481 531 
L 3481 0 
L 794 0 
L 794 531 
z
" transform="scale(0.015625)"/>
       </defs>
       <use xlink:href="#DejaVuSans-31"/>
       <use xlink:href="#DejaVuSans-30" transform="translate(63.623047 0)"/>
       <use xlink:href="#DejaVuSans-30" transform="translate(127.246094 0)"/>
       <use xlink:href="#DejaVuSans-30" transform="translate(190.869141 0)"/>
       <use xlink:href="#DejaVuSans-30" transform="translate(254.492188 0)"/>
       <use xlink:href="#DejaVuSans-30" transform="translate(318.115234 0)"/>
      </g>
     </g>
    </g>
    <g id="xtick_5">
     <g id="line2d_5">
      <g>
       <use xlink:href="#mc74f61fcfc" x="358.526746" y="390.04" style="stroke: #000000; stroke-width: 0.8"/>
      </g>
     </g>
     <g id="text_5">
      <!-- 125000 -->
      <g transform="translate(339.439246 404.638438) scale(0.1 -0.1)">
       <use xlink:href="#DejaVuSans-31"/>
       <use xlink:href="#DejaVuSans-32" transform="translate(63.623047 0)"/>
       <use xlink:href="#DejaVuSans-35" transform="translate(127.246094 0)"/>
       <use xlink:href="#DejaVuSans-30" transform="translate(190.869141 0)"/>
       <use xlink:href="#DejaVuSans-30" transform="translate(254.492188 0)"/>
       <use xlink:href="#DejaVuSans-30" transform="translate(318.115234 0)"/>
      </g>
     </g>
    </g>
    <g id="xtick_6">
     <g id="line2d_6">
      <g>
       <use xlink:href="#mc74f61fcfc" x="419.672679" y="390.04" style="stroke: #000000; stroke-width: 0.8"/>
      </g>
     </g>
     <g id="text_6">
      <!-- 150000 -->
      <g transform="translate(400.585179 404.638438) scale(0.1 -0.1)">
       <use xlink:href="#DejaVuSans-31"/>
       <use xlink:href="#DejaVuSans-35" transform="translate(63.623047 0)"/>
       <use xlink:href="#DejaVuSans-30" transform="translate(127.246094 0)"/>
       <use xlink:href="#DejaVuSans-30" transform="translate(190.869141 0)"/>
       <use xlink:href="#DejaVuSans-30" transform="translate(254.492188 0)"/>
       <use xlink:href="#DejaVuSans-30" transform="translate(318.115234 0)"/>
      </g>
     </g>
    </g>
    <g id="xtick_7">
     <g id="line2d_7">
      <g>
       <use xlink:href="#mc74f61fcfc" x="480.818612" y="390.04" style="stroke: #000000; stroke-width: 0.8"/>
      </g>
     </g>
     <g id="text_7">
      <!-- 175000 -->
      <g transform="translate(461.731112 404.638438) scale(0.1 -0.1)">
       <use xlink:href="#DejaVuSans-31"/>
       <use xlink:href="#DejaVuSans-37" transform="translate(63.623047 0)"/>
       <use xlink:href="#DejaVuSans-35" transform="translate(127.246094 0)"/>
       <use xlink:href="#DejaVuSans-30" transform="translate(190.869141 0)"/>
       <use xlink:href="#DejaVuSans-30" transform="translate(254.492188 0)"/>
       <use xlink:href="#DejaVuSans-30" transform="translate(318.115234 0)"/>
      </g>
     </g>
    </g>
    <g id="xtick_8">
     <g id="line2d_8">
      <g>
       <use xlink:href="#mc74f61fcfc" x="541.964545" y="390.04" style="stroke: #000000; stroke-width: 0.8"/>
      </g>
     </g>
     <g id="text_8">
      <!-- 200000 -->
      <g transform="translate(522.877045 404.638438) scale(0.1 -0.1)">
       <use xlink:href="#DejaVuSans-32"/>
       <use xlink:href="#DejaVuSans-30" transform="translate(63.623047 0)"/>
       <use xlink:href="#DejaVuSans-30" transform="translate(127.246094 0)"/>
       <use xlink:href="#DejaVuSans-30" transform="translate(190.869141 0)"/>
       <use xlink:href="#DejaVuSans-30" transform="translate(254.492188 0)"/>
       <use xlink:href="#DejaVuSans-30" transform="translate(318.115234 0)"/>
      </g>
     </g>
    </g>
    <g id="text_9">
     <!-- Size (#edges) -->
     <g transform="translate(274.559219 418.316562) scale(0.1 -0.1)">
      <defs>
       <path id="DejaVuSans-53" d="M 3425 4513 
L 3425 3897 
Q 3066 4069 2747 4153 
Q 2428 4238 2131 4238 
Q 1616 4238 1336 4038 
Q 1056 3838 1056 3469 
Q 1056 3159 1242 3001 
Q 1428 2844 1947 2747 
L 2328 2669 
Q 3034 2534 3370 2195 
Q 3706 1856 3706 1288 
Q 3706 609 3251 259 
Q 2797 -91 1919 -91 
Q 1588 -91 1214 -16 
Q 841 59 441 206 
L 441 856 
Q 825 641 1194 531 
Q 1563 422 1919 422 
Q 2459 422 2753 634 
Q 3047 847 3047 1241 
Q 3047 1584 2836 1778 
Q 2625 1972 2144 2069 
L 1759 2144 
Q 1053 2284 737 2584 
Q 422 2884 422 3419 
Q 422 4038 858 4394 
Q 1294 4750 2059 4750 
Q 2388 4750 2728 4690 
Q 3069 4631 3425 4513 
z
" transform="scale(0.015625)"/>
       <path id="DejaVuSans-69" d="M 603 3500 
L 1178 3500 
L 1178 0 
L 603 0 
L 603 3500 
z
M 603 4863 
L 1178 4863 
L 1178 4134 
L 603 4134 
L 603 4863 
z
" transform="scale(0.015625)"/>
       <path id="DejaVuSans-7a" d="M 353 3500 
L 3084 3500 
L 3084 2975 
L 922 459 
L 3084 459 
L 3084 0 
L 275 0 
L 275 525 
L 2438 3041 
L 353 3041 
L 353 3500 
z
" transform="scale(0.015625)"/>
       <path id="DejaVuSans-65" d="M 3597 1894 
L 3597 1613 
L 953 1613 
Q 991 1019 1311 708 
Q 1631 397 2203 397 
Q 2534 397 2845 478 
Q 3156 559 3463 722 
L 3463 178 
Q 3153 47 2828 -22 
Q 2503 -91 2169 -91 
Q 1331 -91 842 396 
Q 353 884 353 1716 
Q 353 2575 817 3079 
Q 1281 3584 2069 3584 
Q 2775 3584 3186 3129 
Q 3597 2675 3597 1894 
z
M 3022 2063 
Q 3016 2534 2758 2815 
Q 2500 3097 2075 3097 
Q 1594 3097 1305 2825 
Q 1016 2553 972 2059 
L 3022 2063 
z
" transform="scale(0.015625)"/>
       <path id="DejaVuSans-20" transform="scale(0.015625)"/>
       <path id="DejaVuSans-28" d="M 1984 4856 
Q 1566 4138 1362 3434 
Q 1159 2731 1159 2009 
Q 1159 1288 1364 580 
Q 1569 -128 1984 -844 
L 1484 -844 
Q 1016 -109 783 600 
Q 550 1309 550 2009 
Q 550 2706 781 3412 
Q 1013 4119 1484 4856 
L 1984 4856 
z
" transform="scale(0.015625)"/>
       <path id="DejaVuSans-23" d="M 3272 2816 
L 2363 2816 
L 2100 1772 
L 3016 1772 
L 3272 2816 
z
M 2803 4594 
L 2478 3297 
L 3391 3297 
L 3719 4594 
L 4219 4594 
L 3897 3297 
L 4872 3297 
L 4872 2816 
L 3775 2816 
L 3519 1772 
L 4513 1772 
L 4513 1294 
L 3397 1294 
L 3072 0 
L 2572 0 
L 2894 1294 
L 1978 1294 
L 1656 0 
L 1153 0 
L 1478 1294 
L 494 1294 
L 494 1772 
L 1594 1772 
L 1856 2816 
L 850 2816 
L 850 3297 
L 1978 3297 
L 2297 4594 
L 2803 4594 
z
" transform="scale(0.015625)"/>
       <path id="DejaVuSans-64" d="M 2906 2969 
L 2906 4863 
L 3481 4863 
L 3481 0 
L 2906 0 
L 2906 525 
Q 2725 213 2448 61 
Q 2172 -91 1784 -91 
Q 1150 -91 751 415 
Q 353 922 353 1747 
Q 353 2572 751 3078 
Q 1150 3584 1784 3584 
Q 2172 3584 2448 3432 
Q 2725 3281 2906 2969 
z
M 947 1747 
Q 947 1113 1208 752 
Q 1469 391 1925 391 
Q 2381 391 2643 752 
Q 2906 1113 2906 1747 
Q 2906 2381 2643 2742 
Q 2381 3103 1925 3103 
Q 1469 3103 1208 2742 
Q 947 2381 947 1747 
z
" transform="scale(0.015625)"/>
       <path id="DejaVuSans-67" d="M 2906 1791 
Q 2906 2416 2648 2759 
Q 2391 3103 1925 3103 
Q 1463 3103 1205 2759 
Q 947 2416 947 1791 
Q 947 1169 1205 825 
Q 1463 481 1925 481 
Q 2391 481 2648 825 
Q 2906 1169 2906 1791 
z
M 3481 434 
Q 3481 -459 3084 -895 
Q 2688 -1331 1869 -1331 
Q 1566 -1331 1297 -1286 
Q 1028 -1241 775 -1147 
L 775 -588 
Q 1028 -725 1275 -790 
Q 1522 -856 1778 -856 
Q 2344 -856 2625 -561 
Q 2906 -266 2906 331 
L 2906 616 
Q 2728 306 2450 153 
Q 2172 0 1784 0 
Q 1141 0 747 490 
Q 353 981 353 1791 
Q 353 2603 747 3093 
Q 1141 3584 1784 3584 
Q 2172 3584 2450 3431 
Q 2728 3278 2906 2969 
L 2906 3500 
L 3481 3500 
L 3481 434 
z
" transform="scale(0.015625)"/>
       <path id="DejaVuSans-73" d="M 2834 3397 
L 2834 2853 
Q 2591 2978 2328 3040 
Q 2066 3103 1784 3103 
Q 1356 3103 1142 2972 
Q 928 2841 928 2578 
Q 928 2378 1081 2264 
Q 1234 2150 1697 2047 
L 1894 2003 
Q 2506 1872 2764 1633 
Q 3022 1394 3022 966 
Q 3022 478 2636 193 
Q 2250 -91 1575 -91 
Q 1294 -91 989 -36 
Q 684 19 347 128 
L 347 722 
Q 666 556 975 473 
Q 1284 391 1588 391 
Q 1994 391 2212 530 
Q 2431 669 2431 922 
Q 2431 1156 2273 1281 
Q 2116 1406 1581 1522 
L 1381 1569 
Q 847 1681 609 1914 
Q 372 2147 372 2553 
Q 372 3047 722 3315 
Q 1072 3584 1716 3584 
Q 2034 3584 2315 3537 
Q 2597 3491 2834 3397 
z
" transform="scale(0.015625)"/>
       <path id="DejaVuSans-29" d="M 513 4856 
L 1013 4856 
Q 1481 4119 1714 3412 
Q 1947 2706 1947 2009 
Q 1947 1309 1714 600 
Q 1481 -109 1013 -844 
L 513 -844 
Q 928 -128 1133 580 
Q 1338 1288 1338 2009 
Q 1338 2731 1133 3434 
Q 928 4138 513 4856 
z
" transform="scale(0.015625)"/>
      </defs>
      <use xlink:href="#DejaVuSans-53"/>
      <use xlink:href="#DejaVuSans-69" transform="translate(63.476562 0)"/>
      <use xlink:href="#DejaVuSans-7a" transform="translate(91.259766 0)"/>
      <use xlink:href="#DejaVuSans-65" transform="translate(143.75 0)"/>
      <use xlink:href="#DejaVuSans-20" transform="translate(205.273438 0)"/>
      <use xlink:href="#DejaVuSans-28" transform="translate(237.060547 0)"/>
      <use xlink:href="#DejaVuSans-23" transform="translate(276.074219 0)"/>
      <use xlink:href="#DejaVuSans-65" transform="translate(359.863281 0)"/>
      <use xlink:href="#DejaVuSans-64" transform="translate(421.386719 0)"/>
      <use xlink:href="#DejaVuSans-67" transform="translate(484.863281 0)"/>
      <use xlink:href="#DejaVuSans-65" transform="translate(548.339844 0)"/>
      <use xlink:href="#DejaVuSans-73" transform="translate(609.863281 0)"/>
      <use xlink:href="#DejaVuSans-29" transform="translate(661.962891 0)"/>
     </g>
    </g>
   </g>
   <g id="matplotlib.axis_2">
    <g id="ytick_1">
     <g id="line2d_9">
      <defs>
       <path id="m7eb1c47a8f" d="M 0 0 
L -3.5 0 
" style="stroke: #000000; stroke-width: 0.8"/>
      </defs>
      <g>
       <use xlink:href="#m7eb1c47a8f" x="54.02" y="385.288468" style="stroke: #000000; stroke-width: 0.8"/>
      </g>
     </g>
     <g id="text_10">
      <!-- 0.00 -->
      <g transform="translate(24.754375 389.087687) scale(0.1 -0.1)">
       <defs>
        <path id="DejaVuSans-2e" d="M 684 794 
L 1344 794 
L 1344 0 
L 684 0 
L 684 794 
z
" transform="scale(0.015625)"/>
       </defs>
       <use xlink:href="#DejaVuSans-30"/>
       <use xlink:href="#DejaVuSans-2e" transform="translate(63.623047 0)"/>
       <use xlink:href="#DejaVuSans-30" transform="translate(95.410156 0)"/>
       <use xlink:href="#DejaVuSans-30" transform="translate(159.033203 0)"/>
      </g>
     </g>
    </g>
    <g id="ytick_2">
     <g id="line2d_10">
      <g>
       <use xlink:href="#m7eb1c47a8f" x="54.02" y="336.015711" style="stroke: #000000; stroke-width: 0.8"/>
      </g>
     </g>
     <g id="text_11">
      <!-- 0.02 -->
      <g transform="translate(24.754375 339.81493) scale(0.1 -0.1)">
       <use xlink:href="#DejaVuSans-30"/>
       <use xlink:href="#DejaVuSans-2e" transform="translate(63.623047 0)"/>
       <use xlink:href="#DejaVuSans-30" transform="translate(95.410156 0)"/>
       <use xlink:href="#DejaVuSans-32" transform="translate(159.033203 0)"/>
      </g>
     </g>
    </g>
    <g id="ytick_3">
     <g id="line2d_11">
      <g>
       <use xlink:href="#m7eb1c47a8f" x="54.02" y="286.742955" style="stroke: #000000; stroke-width: 0.8"/>
      </g>
     </g>
     <g id="text_12">
      <!-- 0.04 -->
      <g transform="translate(24.754375 290.542173) scale(0.1 -0.1)">
       <defs>
        <path id="DejaVuSans-34" d="M 2419 4116 
L 825 1625 
L 2419 1625 
L 2419 4116 
z
M 2253 4666 
L 3047 4666 
L 3047 1625 
L 3713 1625 
L 3713 1100 
L 3047 1100 
L 3047 0 
L 2419 0 
L 2419 1100 
L 313 1100 
L 313 1709 
L 2253 4666 
z
" transform="scale(0.015625)"/>
       </defs>
       <use xlink:href="#DejaVuSans-30"/>
       <use xlink:href="#DejaVuSans-2e" transform="translate(63.623047 0)"/>
       <use xlink:href="#DejaVuSans-30" transform="translate(95.410156 0)"/>
       <use xlink:href="#DejaVuSans-34" transform="translate(159.033203 0)"/>
      </g>
     </g>
    </g>
    <g id="ytick_4">
     <g id="line2d_12">
      <g>
       <use xlink:href="#m7eb1c47a8f" x="54.02" y="237.470198" style="stroke: #000000; stroke-width: 0.8"/>
      </g>
     </g>
     <g id="text_13">
      <!-- 0.06 -->
      <g transform="translate(24.754375 241.269417) scale(0.1 -0.1)">
       <defs>
        <path id="DejaVuSans-36" d="M 2113 2584 
Q 1688 2584 1439 2293 
Q 1191 2003 1191 1497 
Q 1191 994 1439 701 
Q 1688 409 2113 409 
Q 2538 409 2786 701 
Q 3034 994 3034 1497 
Q 3034 2003 2786 2293 
Q 2538 2584 2113 2584 
z
M 3366 4563 
L 3366 3988 
Q 3128 4100 2886 4159 
Q 2644 4219 2406 4219 
Q 1781 4219 1451 3797 
Q 1122 3375 1075 2522 
Q 1259 2794 1537 2939 
Q 1816 3084 2150 3084 
Q 2853 3084 3261 2657 
Q 3669 2231 3669 1497 
Q 3669 778 3244 343 
Q 2819 -91 2113 -91 
Q 1303 -91 875 529 
Q 447 1150 447 2328 
Q 447 3434 972 4092 
Q 1497 4750 2381 4750 
Q 2619 4750 2861 4703 
Q 3103 4656 3366 4563 
z
" transform="scale(0.015625)"/>
       </defs>
       <use xlink:href="#DejaVuSans-30"/>
       <use xlink:href="#DejaVuSans-2e" transform="translate(63.623047 0)"/>
       <use xlink:href="#DejaVuSans-30" transform="translate(95.410156 0)"/>
       <use xlink:href="#DejaVuSans-36" transform="translate(159.033203 0)"/>
      </g>
     </g>
    </g>
    <g id="ytick_5">
     <g id="line2d_13">
      <g>
       <use xlink:href="#m7eb1c47a8f" x="54.02" y="188.197441" style="stroke: #000000; stroke-width: 0.8"/>
      </g>
     </g>
     <g id="text_14">
      <!-- 0.08 -->
      <g transform="translate(24.754375 191.99666) scale(0.1 -0.1)">
       <defs>
        <path id="DejaVuSans-38" d="M 2034 2216 
Q 1584 2216 1326 1975 
Q 1069 1734 1069 1313 
Q 1069 891 1326 650 
Q 1584 409 2034 409 
Q 2484 409 2743 651 
Q 3003 894 3003 1313 
Q 3003 1734 2745 1975 
Q 2488 2216 2034 2216 
z
M 1403 2484 
Q 997 2584 770 2862 
Q 544 3141 544 3541 
Q 544 4100 942 4425 
Q 1341 4750 2034 4750 
Q 2731 4750 3128 4425 
Q 3525 4100 3525 3541 
Q 3525 3141 3298 2862 
Q 3072 2584 2669 2484 
Q 3125 2378 3379 2068 
Q 3634 1759 3634 1313 
Q 3634 634 3220 271 
Q 2806 -91 2034 -91 
Q 1263 -91 848 271 
Q 434 634 434 1313 
Q 434 1759 690 2068 
Q 947 2378 1403 2484 
z
M 1172 3481 
Q 1172 3119 1398 2916 
Q 1625 2713 2034 2713 
Q 2441 2713 2670 2916 
Q 2900 3119 2900 3481 
Q 2900 3844 2670 4047 
Q 2441 4250 2034 4250 
Q 1625 4250 1398 4047 
Q 1172 3844 1172 3481 
z
" transform="scale(0.015625)"/>
       </defs>
       <use xlink:href="#DejaVuSans-30"/>
       <use xlink:href="#DejaVuSans-2e" transform="translate(63.623047 0)"/>
       <use xlink:href="#DejaVuSans-30" transform="translate(95.410156 0)"/>
       <use xlink:href="#DejaVuSans-38" transform="translate(159.033203 0)"/>
      </g>
     </g>
    </g>
    <g id="ytick_6">
     <g id="line2d_14">
      <g>
       <use xlink:href="#m7eb1c47a8f" x="54.02" y="138.924684" style="stroke: #000000; stroke-width: 0.8"/>
      </g>
     </g>
     <g id="text_15">
      <!-- 0.10 -->
      <g transform="translate(24.754375 142.723903) scale(0.1 -0.1)">
       <use xlink:href="#DejaVuSans-30"/>
       <use xlink:href="#DejaVuSans-2e" transform="translate(63.623047 0)"/>
       <use xlink:href="#DejaVuSans-31" transform="translate(95.410156 0)"/>
       <use xlink:href="#DejaVuSans-30" transform="translate(159.033203 0)"/>
      </g>
     </g>
    </g>
    <g id="ytick_7">
     <g id="line2d_15">
      <g>
       <use xlink:href="#m7eb1c47a8f" x="54.02" y="89.651928" style="stroke: #000000; stroke-width: 0.8"/>
      </g>
     </g>
     <g id="text_16">
      <!-- 0.12 -->
      <g transform="translate(24.754375 93.451146) scale(0.1 -0.1)">
       <use xlink:href="#DejaVuSans-30"/>
       <use xlink:href="#DejaVuSans-2e" transform="translate(63.623047 0)"/>
       <use xlink:href="#DejaVuSans-31" transform="translate(95.410156 0)"/>
       <use xlink:href="#DejaVuSans-32" transform="translate(159.033203 0)"/>
      </g>
     </g>
    </g>
    <g id="ytick_8">
     <g id="line2d_16">
      <g>
       <use xlink:href="#m7eb1c47a8f" x="54.02" y="40.379171" style="stroke: #000000; stroke-width: 0.8"/>
      </g>
     </g>
     <g id="text_17">
      <!-- 0.14 -->
      <g transform="translate(24.754375 44.17839) scale(0.1 -0.1)">
       <use xlink:href="#DejaVuSans-30"/>
       <use xlink:href="#DejaVuSans-2e" transform="translate(63.623047 0)"/>
       <use xlink:href="#DejaVuSans-31" transform="translate(95.410156 0)"/>
       <use xlink:href="#DejaVuSans-34" transform="translate(159.033203 0)"/>
      </g>
     </g>
    </g>
    <g id="text_18">
     <!-- Seconds spent -->
     <g transform="translate(18.674688 245.040469) rotate(-90) scale(0.1 -0.1)">
      <defs>
       <path id="DejaVuSans-63" d="M 3122 3366 
L 3122 2828 
Q 2878 2963 2633 3030 
Q 2388 3097 2138 3097 
Q 1578 3097 1268 2742 
Q 959 2388 959 1747 
Q 959 1106 1268 751 
Q 1578 397 2138 397 
Q 2388 397 2633 464 
Q 2878 531 3122 666 
L 3122 134 
Q 2881 22 2623 -34 
Q 2366 -91 2075 -91 
Q 1284 -91 818 406 
Q 353 903 353 1747 
Q 353 2603 823 3093 
Q 1294 3584 2113 3584 
Q 2378 3584 2631 3529 
Q 2884 3475 3122 3366 
z
" transform="scale(0.015625)"/>
       <path id="DejaVuSans-6f" d="M 1959 3097 
Q 1497 3097 1228 2736 
Q 959 2375 959 1747 
Q 959 1119 1226 758 
Q 1494 397 1959 397 
Q 2419 397 2687 759 
Q 2956 1122 2956 1747 
Q 2956 2369 2687 2733 
Q 2419 3097 1959 3097 
z
M 1959 3584 
Q 2709 3584 3137 3096 
Q 3566 2609 3566 1747 
Q 3566 888 3137 398 
Q 2709 -91 1959 -91 
Q 1206 -91 779 398 
Q 353 888 353 1747 
Q 353 2609 779 3096 
Q 1206 3584 1959 3584 
z
" transform="scale(0.015625)"/>
       <path id="DejaVuSans-6e" d="M 3513 2113 
L 3513 0 
L 2938 0 
L 2938 2094 
Q 2938 2591 2744 2837 
Q 2550 3084 2163 3084 
Q 1697 3084 1428 2787 
Q 1159 2491 1159 1978 
L 1159 0 
L 581 0 
L 581 3500 
L 1159 3500 
L 1159 2956 
Q 1366 3272 1645 3428 
Q 1925 3584 2291 3584 
Q 2894 3584 3203 3211 
Q 3513 2838 3513 2113 
z
" transform="scale(0.015625)"/>
       <path id="DejaVuSans-70" d="M 1159 525 
L 1159 -1331 
L 581 -1331 
L 581 3500 
L 1159 3500 
L 1159 2969 
Q 1341 3281 1617 3432 
Q 1894 3584 2278 3584 
Q 2916 3584 3314 3078 
Q 3713 2572 3713 1747 
Q 3713 922 3314 415 
Q 2916 -91 2278 -91 
Q 1894 -91 1617 61 
Q 1341 213 1159 525 
z
M 3116 1747 
Q 3116 2381 2855 2742 
Q 2594 3103 2138 3103 
Q 1681 3103 1420 2742 
Q 1159 2381 1159 1747 
Q 1159 1113 1420 752 
Q 1681 391 2138 391 
Q 2594 391 2855 752 
Q 3116 1113 3116 1747 
z
" transform="scale(0.015625)"/>
       <path id="DejaVuSans-74" d="M 1172 4494 
L 1172 3500 
L 2356 3500 
L 2356 3053 
L 1172 3053 
L 1172 1153 
Q 1172 725 1289 603 
Q 1406 481 1766 481 
L 2356 481 
L 2356 0 
L 1766 0 
Q 1100 0 847 248 
Q 594 497 594 1153 
L 594 3053 
L 172 3053 
L 172 3500 
L 594 3500 
L 594 4494 
L 1172 4494 
z
" transform="scale(0.015625)"/>
      </defs>
      <use xlink:href="#DejaVuSans-53"/>
      <use xlink:href="#DejaVuSans-65" transform="translate(63.476562 0)"/>
      <use xlink:href="#DejaVuSans-63" transform="translate(125 0)"/>
      <use xlink:href="#DejaVuSans-6f" transform="translate(179.980469 0)"/>
      <use xlink:href="#DejaVuSans-6e" transform="translate(241.162109 0)"/>
      <use xlink:href="#DejaVuSans-64" transform="translate(304.541016 0)"/>
      <use xlink:href="#DejaVuSans-73" transform="translate(368.017578 0)"/>
      <use xlink:href="#DejaVuSans-20" transform="translate(420.117188 0)"/>
      <use xlink:href="#DejaVuSans-73" transform="translate(451.904297 0)"/>
      <use xlink:href="#DejaVuSans-70" transform="translate(504.003906 0)"/>
      <use xlink:href="#DejaVuSans-65" transform="translate(567.480469 0)"/>
      <use xlink:href="#DejaVuSans-6e" transform="translate(629.003906 0)"/>
      <use xlink:href="#DejaVuSans-74" transform="translate(692.382812 0)"/>
     </g>
    </g>
   </g>
   <g id="LineCollection_1">
    <path d="M 77.255455 349.206028 
L 77.255455 342.923752 
" clip-path="url(#p6529becad3)" style="fill: none; stroke: #009933; stroke-width: 1.5"/>
    <path d="M 101.713828 338.390658 
L 101.713828 328.531179 
" clip-path="url(#p6529becad3)" style="fill: none; stroke: #009933; stroke-width: 1.5"/>
    <path d="M 126.172201 331.492472 
L 126.172201 325.434387 
" clip-path="url(#p6529becad3)" style="fill: none; stroke: #009933; stroke-width: 1.5"/>
    <path d="M 150.630574 333.165282 
L 150.630574 326.89286 
" clip-path="url(#p6529becad3)" style="fill: none; stroke: #009933; stroke-width: 1.5"/>
    <path d="M 175.088947 325.266859 
L 175.088947 308.831931 
" clip-path="url(#p6529becad3)" style="fill: none; stroke: #009933; stroke-width: 1.5"/>
    <path d="M 199.547321 325.345696 
L 199.547321 321.719221 
" clip-path="url(#p6529becad3)" style="fill: none; stroke: #009933; stroke-width: 1.5"/>
    <path d="M 224.005694 325.350623 
L 224.005694 318.523883 
" clip-path="url(#p6529becad3)" style="fill: none; stroke: #009933; stroke-width: 1.5"/>
    <path d="M 248.464067 316.5579 
L 248.464067 294.254586 
" clip-path="url(#p6529becad3)" style="fill: none; stroke: #009933; stroke-width: 1.5"/>
    <path d="M 272.92244 310.206641 
L 272.92244 293.638677 
" clip-path="url(#p6529becad3)" style="fill: none; stroke: #009933; stroke-width: 1.5"/>
    <path d="M 297.380813 300.307744 
L 297.380813 272.973683 
" clip-path="url(#p6529becad3)" style="fill: none; stroke: #009933; stroke-width: 1.5"/>
    <path d="M 358.526746 281.763942 
L 358.526746 273.690601 
" clip-path="url(#p6529becad3)" style="fill: none; stroke: #009933; stroke-width: 1.5"/>
    <path d="M 419.672679 255.841545 
L 419.672679 245.935257 
" clip-path="url(#p6529becad3)" style="fill: none; stroke: #009933; stroke-width: 1.5"/>
    <path d="M 480.818612 220.042424 
L 480.818612 207.84988 
" clip-path="url(#p6529becad3)" style="fill: none; stroke: #009933; stroke-width: 1.5"/>
    <path d="M 541.964545 183.918102 
L 541.964545 143.832251 
" clip-path="url(#p6529becad3)" style="fill: none; stroke: #009933; stroke-width: 1.5"/>
   </g>
   <g id="line2d_17">
    <defs>
     <path id="m567d63a80a" d="M 3 0 
L -3 -0 
" style="stroke: #009933"/>
    </defs>
    <g clip-path="url(#p6529becad3)">
     <use xlink:href="#m567d63a80a" x="77.255455" y="349.206028" style="fill: #009933; stroke: #009933"/>
     <use xlink:href="#m567d63a80a" x="101.713828" y="338.390658" style="fill: #009933; stroke: #009933"/>
     <use xlink:href="#m567d63a80a" x="126.172201" y="331.492472" style="fill: #009933; stroke: #009933"/>
     <use xlink:href="#m567d63a80a" x="150.630574" y="333.165282" style="fill: #009933; stroke: #009933"/>
     <use xlink:href="#m567d63a80a" x="175.088947" y="325.266859" style="fill: #009933; stroke: #009933"/>
     <use xlink:href="#m567d63a80a" x="199.547321" y="325.345696" style="fill: #009933; stroke: #009933"/>
     <use xlink:href="#m567d63a80a" x="224.005694" y="325.350623" style="fill: #009933; stroke: #009933"/>
     <use xlink:href="#m567d63a80a" x="248.464067" y="316.5579" style="fill: #009933; stroke: #009933"/>
     <use xlink:href="#m567d63a80a" x="272.92244" y="310.206641" style="fill: #009933; stroke: #009933"/>
     <use xlink:href="#m567d63a80a" x="297.380813" y="300.307744" style="fill: #009933; stroke: #009933"/>
     <use xlink:href="#m567d63a80a" x="358.526746" y="281.763942" style="fill: #009933; stroke: #009933"/>
     <use xlink:href="#m567d63a80a" x="419.672679" y="255.841545" style="fill: #009933; stroke: #009933"/>
     <use xlink:href="#m567d63a80a" x="480.818612" y="220.042424" style="fill: #009933; stroke: #009933"/>
     <use xlink:href="#m567d63a80a" x="541.964545" y="183.918102" style="fill: #009933; stroke: #009933"/>
    </g>
   </g>
   <g id="line2d_18">
    <g clip-path="url(#p6529becad3)">
     <use xlink:href="#m567d63a80a" x="77.255455" y="342.923752" style="fill: #009933; stroke: #009933"/>
     <use xlink:href="#m567d63a80a" x="101.713828" y="328.531179" style="fill: #009933; stroke: #009933"/>
     <use xlink:href="#m567d63a80a" x="126.172201" y="325.434387" style="fill: #009933; stroke: #009933"/>
     <use xlink:href="#m567d63a80a" x="150.630574" y="326.89286" style="fill: #009933; stroke: #009933"/>
     <use xlink:href="#m567d63a80a" x="175.088947" y="308.831931" style="fill: #009933; stroke: #009933"/>
     <use xlink:href="#m567d63a80a" x="199.547321" y="321.719221" style="fill: #009933; stroke: #009933"/>
     <use xlink:href="#m567d63a80a" x="224.005694" y="318.523883" style="fill: #009933; stroke: #009933"/>
     <use xlink:href="#m567d63a80a" x="248.464067" y="294.254586" style="fill: #009933; stroke: #009933"/>
     <use xlink:href="#m567d63a80a" x="272.92244" y="293.638677" style="fill: #009933; stroke: #009933"/>
     <use xlink:href="#m567d63a80a" x="297.380813" y="272.973683" style="fill: #009933; stroke: #009933"/>
     <use xlink:href="#m567d63a80a" x="358.526746" y="273.690601" style="fill: #009933; stroke: #009933"/>
     <use xlink:href="#m567d63a80a" x="419.672679" y="245.935257" style="fill: #009933; stroke: #009933"/>
     <use xlink:href="#m567d63a80a" x="480.818612" y="207.84988" style="fill: #009933; stroke: #009933"/>
     <use xlink:href="#m567d63a80a" x="541.964545" y="143.832251" style="fill: #009933; stroke: #009933"/>
    </g>
   </g>
   <g id="LineCollection_2">
    <path d="M 77.255455 363.068918 
L 77.255455 363.007327 
" clip-path="url(#p6529becad3)" style="fill: none; stroke: #0000cc; stroke-width: 1.5"/>
    <path d="M 101.713828 352.369339 
L 101.713828 350.740875 
" clip-path="url(#p6529becad3)" style="fill: none; stroke: #0000cc; stroke-width: 1.5"/>
    <path d="M 126.172201 335.823547 
L 126.172201 334.584338 
" clip-path="url(#p6529becad3)" style="fill: none; stroke: #0000cc; stroke-width: 1.5"/>
    <path d="M 150.630574 319.992211 
L 150.630574 318.950092 
" clip-path="url(#p6529becad3)" style="fill: none; stroke: #0000cc; stroke-width: 1.5"/>
    <path d="M 175.088947 303.835674 
L 175.088947 301.973164 
" clip-path="url(#p6529becad3)" style="fill: none; stroke: #0000cc; stroke-width: 1.5"/>
    <path d="M 199.547321 287.2751 
L 199.547321 283.490953 
" clip-path="url(#p6529becad3)" style="fill: none; stroke: #0000cc; stroke-width: 1.5"/>
    <path d="M 224.005694 266.706188 
L 224.005694 264.272114 
" clip-path="url(#p6529becad3)" style="fill: none; stroke: #0000cc; stroke-width: 1.5"/>
    <path d="M 248.464067 251.51047 
L 248.464067 251.113824 
" clip-path="url(#p6529becad3)" style="fill: none; stroke: #0000cc; stroke-width: 1.5"/>
    <path d="M 272.92244 233.925023 
L 272.92244 229.985666 
" clip-path="url(#p6529becad3)" style="fill: none; stroke: #0000cc; stroke-width: 1.5"/>
    <path d="M 297.380813 215.026457 
L 297.380813 213.309302 
" clip-path="url(#p6529becad3)" style="fill: none; stroke: #0000cc; stroke-width: 1.5"/>
    <path d="M 358.526746 179.015463 
L 358.526746 169.212648 
" clip-path="url(#p6529becad3)" style="fill: none; stroke: #0000cc; stroke-width: 1.5"/>
    <path d="M 419.672679 129.146506 
L 419.672679 127.48355 
" clip-path="url(#p6529becad3)" style="fill: none; stroke: #0000cc; stroke-width: 1.5"/>
    <path d="M 480.818612 94.601376 
L 480.818612 92.628002 
" clip-path="url(#p6529becad3)" style="fill: none; stroke: #0000cc; stroke-width: 1.5"/>
    <path d="M 541.964545 51.941023 
L 541.964545 43.387273 
" clip-path="url(#p6529becad3)" style="fill: none; stroke: #0000cc; stroke-width: 1.5"/>
   </g>
   <g id="line2d_19">
    <defs>
     <path id="m71e13e22db" d="M 3 0 
L -3 -0 
" style="stroke: #0000cc"/>
    </defs>
    <g clip-path="url(#p6529becad3)">
     <use xlink:href="#m71e13e22db" x="77.255455" y="363.068918" style="fill: #0000cc; stroke: #0000cc"/>
     <use xlink:href="#m71e13e22db" x="101.713828" y="352.369339" style="fill: #0000cc; stroke: #0000cc"/>
     <use xlink:href="#m71e13e22db" x="126.172201" y="335.823547" style="fill: #0000cc; stroke: #0000cc"/>
     <use xlink:href="#m71e13e22db" x="150.630574" y="319.992211" style="fill: #0000cc; stroke: #0000cc"/>
     <use xlink:href="#m71e13e22db" x="175.088947" y="303.835674" style="fill: #0000cc; stroke: #0000cc"/>
     <use xlink:href="#m71e13e22db" x="199.547321" y="287.2751" style="fill: #0000cc; stroke: #0000cc"/>
     <use xlink:href="#m71e13e22db" x="224.005694" y="266.706188" style="fill: #0000cc; stroke: #0000cc"/>
     <use xlink:href="#m71e13e22db" x="248.464067" y="251.51047" style="fill: #0000cc; stroke: #0000cc"/>
     <use xlink:href="#m71e13e22db" x="272.92244" y="233.925023" style="fill: #0000cc; stroke: #0000cc"/>
     <use xlink:href="#m71e13e22db" x="297.380813" y="215.026457" style="fill: #0000cc; stroke: #0000cc"/>
     <use xlink:href="#m71e13e22db" x="358.526746" y="179.015463" style="fill: #0000cc; stroke: #0000cc"/>
     <use xlink:href="#m71e13e22db" x="419.672679" y="129.146506" style="fill: #0000cc; stroke: #0000cc"/>
     <use xlink:href="#m71e13e22db" x="480.818612" y="94.601376" style="fill: #0000cc; stroke: #0000cc"/>
     <use xlink:href="#m71e13e22db" x="541.964545" y="51.941023" style="fill: #0000cc; stroke: #0000cc"/>
    </g>
   </g>
   <g id="line2d_20">
    <g clip-path="url(#p6529becad3)">
     <use xlink:href="#m71e13e22db" x="77.255455" y="363.007327" style="fill: #0000cc; stroke: #0000cc"/>
     <use xlink:href="#m71e13e22db" x="101.713828" y="350.740875" style="fill: #0000cc; stroke: #0000cc"/>
     <use xlink:href="#m71e13e22db" x="126.172201" y="334.584338" style="fill: #0000cc; stroke: #0000cc"/>
     <use xlink:href="#m71e13e22db" x="150.630574" y="318.950092" style="fill: #0000cc; stroke: #0000cc"/>
     <use xlink:href="#m71e13e22db" x="175.088947" y="301.973164" style="fill: #0000cc; stroke: #0000cc"/>
     <use xlink:href="#m71e13e22db" x="199.547321" y="283.490953" style="fill: #0000cc; stroke: #0000cc"/>
     <use xlink:href="#m71e13e22db" x="224.005694" y="264.272114" style="fill: #0000cc; stroke: #0000cc"/>
     <use xlink:href="#m71e13e22db" x="248.464067" y="251.113824" style="fill: #0000cc; stroke: #0000cc"/>
     <use xlink:href="#m71e13e22db" x="272.92244" y="229.985666" style="fill: #0000cc; stroke: #0000cc"/>
     <use xlink:href="#m71e13e22db" x="297.380813" y="213.309302" style="fill: #0000cc; stroke: #0000cc"/>
     <use xlink:href="#m71e13e22db" x="358.526746" y="169.212648" style="fill: #0000cc; stroke: #0000cc"/>
     <use xlink:href="#m71e13e22db" x="419.672679" y="127.48355" style="fill: #0000cc; stroke: #0000cc"/>
     <use xlink:href="#m71e13e22db" x="480.818612" y="92.628002" style="fill: #0000cc; stroke: #0000cc"/>
     <use xlink:href="#m71e13e22db" x="541.964545" y="43.387273" style="fill: #0000cc; stroke: #0000cc"/>
    </g>
   </g>
   <g id="LineCollection_3">
    <path d="M 77.255455 360.65209 
L 77.255455 358.188452 
" clip-path="url(#p6529becad3)" style="fill: none; stroke: #666600; stroke-width: 1.5"/>
    <path d="M 101.713828 363.115727 
L 101.713828 360.65209 
" clip-path="url(#p6529becad3)" style="fill: none; stroke: #666600; stroke-width: 1.5"/>
    <path d="M 126.172201 355.724814 
L 126.172201 328.624798 
" clip-path="url(#p6529becad3)" style="fill: none; stroke: #666600; stroke-width: 1.5"/>
    <path d="M 150.630574 345.870263 
L 150.630574 343.406625 
" clip-path="url(#p6529becad3)" style="fill: none; stroke: #666600; stroke-width: 1.5"/>
    <path d="M 175.088947 336.015711 
L 175.088947 326.16116 
" clip-path="url(#p6529becad3)" style="fill: none; stroke: #666600; stroke-width: 1.5"/>
    <path d="M 199.547321 323.697522 
L 199.547321 303.988419 
" clip-path="url(#p6529becad3)" style="fill: none; stroke: #666600; stroke-width: 1.5"/>
    <path d="M 224.005694 313.842971 
L 224.005694 264.570214 
" clip-path="url(#p6529becad3)" style="fill: none; stroke: #666600; stroke-width: 1.5"/>
    <path d="M 248.464067 306.452057 
L 248.464067 267.033852 
" clip-path="url(#p6529becad3)" style="fill: none; stroke: #666600; stroke-width: 1.5"/>
    <path d="M 272.92244 296.597506 
L 272.92244 239.933836 
" clip-path="url(#p6529becad3)" style="fill: none; stroke: #666600; stroke-width: 1.5"/>
    <path d="M 297.380813 281.815679 
L 297.380813 267.033852 
" clip-path="url(#p6529becad3)" style="fill: none; stroke: #666600; stroke-width: 1.5"/>
    <path d="M 358.526746 242.397473 
L 358.526746 210.370182 
" clip-path="url(#p6529becad3)" style="fill: none; stroke: #666600; stroke-width: 1.5"/>
    <path d="M 419.672679 180.806528 
L 419.672679 143.85196 
" clip-path="url(#p6529becad3)" style="fill: none; stroke: #666600; stroke-width: 1.5"/>
    <path d="M 480.818612 175.879252 
L 480.818612 143.85196 
" clip-path="url(#p6529becad3)" style="fill: none; stroke: #666600; stroke-width: 1.5"/>
    <path d="M 541.964545 121.67922 
L 541.964545 104.433755 
" clip-path="url(#p6529becad3)" style="fill: none; stroke: #666600; stroke-width: 1.5"/>
   </g>
   <g id="line2d_21">
    <defs>
     <path id="ma612d83d5a" d="M 3 0 
L -3 -0 
" style="stroke: #666600"/>
    </defs>
    <g clip-path="url(#p6529becad3)">
     <use xlink:href="#ma612d83d5a" x="77.255455" y="360.65209" style="fill: #666600; stroke: #666600"/>
     <use xlink:href="#ma612d83d5a" x="101.713828" y="363.115727" style="fill: #666600; stroke: #666600"/>
     <use xlink:href="#ma612d83d5a" x="126.172201" y="355.724814" style="fill: #666600; stroke: #666600"/>
     <use xlink:href="#ma612d83d5a" x="150.630574" y="345.870263" style="fill: #666600; stroke: #666600"/>
     <use xlink:href="#ma612d83d5a" x="175.088947" y="336.015711" style="fill: #666600; stroke: #666600"/>
     <use xlink:href="#ma612d83d5a" x="199.547321" y="323.697522" style="fill: #666600; stroke: #666600"/>
     <use xlink:href="#ma612d83d5a" x="224.005694" y="313.842971" style="fill: #666600; stroke: #666600"/>
     <use xlink:href="#ma612d83d5a" x="248.464067" y="306.452057" style="fill: #666600; stroke: #666600"/>
     <use xlink:href="#ma612d83d5a" x="272.92244" y="296.597506" style="fill: #666600; stroke: #666600"/>
     <use xlink:href="#ma612d83d5a" x="297.380813" y="281.815679" style="fill: #666600; stroke: #666600"/>
     <use xlink:href="#ma612d83d5a" x="358.526746" y="242.397473" style="fill: #666600; stroke: #666600"/>
     <use xlink:href="#ma612d83d5a" x="419.672679" y="180.806528" style="fill: #666600; stroke: #666600"/>
     <use xlink:href="#ma612d83d5a" x="480.818612" y="175.879252" style="fill: #666600; stroke: #666600"/>
     <use xlink:href="#ma612d83d5a" x="541.964545" y="121.67922" style="fill: #666600; stroke: #666600"/>
    </g>
   </g>
   <g id="line2d_22">
    <g clip-path="url(#p6529becad3)">
     <use xlink:href="#ma612d83d5a" x="77.255455" y="358.188452" style="fill: #666600; stroke: #666600"/>
     <use xlink:href="#ma612d83d5a" x="101.713828" y="360.65209" style="fill: #666600; stroke: #666600"/>
     <use xlink:href="#ma612d83d5a" x="126.172201" y="328.624798" style="fill: #666600; stroke: #666600"/>
     <use xlink:href="#ma612d83d5a" x="150.630574" y="343.406625" style="fill: #666600; stroke: #666600"/>
     <use xlink:href="#ma612d83d5a" x="175.088947" y="326.16116" style="fill: #666600; stroke: #666600"/>
     <use xlink:href="#ma612d83d5a" x="199.547321" y="303.988419" style="fill: #666600; stroke: #666600"/>
     <use xlink:href="#ma612d83d5a" x="224.005694" y="264.570214" style="fill: #666600; stroke: #666600"/>
     <use xlink:href="#ma612d83d5a" x="248.464067" y="267.033852" style="fill: #666600; stroke: #666600"/>
     <use xlink:href="#ma612d83d5a" x="272.92244" y="239.933836" style="fill: #666600; stroke: #666600"/>
     <use xlink:href="#ma612d83d5a" x="297.380813" y="267.033852" style="fill: #666600; stroke: #666600"/>
     <use xlink:href="#ma612d83d5a" x="358.526746" y="210.370182" style="fill: #666600; stroke: #666600"/>
     <use xlink:href="#ma612d83d5a" x="419.672679" y="143.85196" style="fill: #666600; stroke: #666600"/>
     <use xlink:href="#ma612d83d5a" x="480.818612" y="143.85196" style="fill: #666600; stroke: #666600"/>
     <use xlink:href="#ma612d83d5a" x="541.964545" y="104.433755" style="fill: #666600; stroke: #666600"/>
    </g>
   </g>
   <g id="LineCollection_4">
    <path d="M 77.255455 335.468291 
L 77.255455 331.981751 
" clip-path="url(#p6529becad3)" style="fill: none; stroke: #990000; stroke-width: 1.5"/>
    <path d="M 101.713828 342.941244 
L 101.713828 327.830767 
" clip-path="url(#p6529becad3)" style="fill: none; stroke: #990000; stroke-width: 1.5"/>
    <path d="M 126.172201 343.81953 
L 126.172201 326.822154 
" clip-path="url(#p6529becad3)" style="fill: none; stroke: #990000; stroke-width: 1.5"/>
    <path d="M 150.630574 337.62422 
L 150.630574 323.048353 
" clip-path="url(#p6529becad3)" style="fill: none; stroke: #990000; stroke-width: 1.5"/>
    <path d="M 175.088947 320.317165 
L 175.088947 288.651535 
" clip-path="url(#p6529becad3)" style="fill: none; stroke: #990000; stroke-width: 1.5"/>
    <path d="M 199.547321 311.291135 
L 199.547321 289.865123 
" clip-path="url(#p6529becad3)" style="fill: none; stroke: #990000; stroke-width: 1.5"/>
    <path d="M 224.005694 281.271215 
L 224.005694 258.998943 
" clip-path="url(#p6529becad3)" style="fill: none; stroke: #990000; stroke-width: 1.5"/>
    <path d="M 248.464067 288.091796 
L 248.464067 268.011916 
" clip-path="url(#p6529becad3)" style="fill: none; stroke: #990000; stroke-width: 1.5"/>
    <path d="M 272.92244 295.659599 
L 272.92244 270.79632 
" clip-path="url(#p6529becad3)" style="fill: none; stroke: #990000; stroke-width: 1.5"/>
    <path d="M 297.380813 277.743532 
L 297.380813 265.819771 
" clip-path="url(#p6529becad3)" style="fill: none; stroke: #990000; stroke-width: 1.5"/>
    <path d="M 358.526746 267.055285 
L 358.526746 246.563731 
" clip-path="url(#p6529becad3)" style="fill: none; stroke: #990000; stroke-width: 1.5"/>
    <path d="M 419.672679 257.04651 
L 419.672679 245.647012 
" clip-path="url(#p6529becad3)" style="fill: none; stroke: #990000; stroke-width: 1.5"/>
    <path d="M 480.818612 252.438522 
L 480.818612 237.881133 
" clip-path="url(#p6529becad3)" style="fill: none; stroke: #990000; stroke-width: 1.5"/>
    <path d="M 541.964545 215.798068 
L 541.964545 203.996258 
" clip-path="url(#p6529becad3)" style="fill: none; stroke: #990000; stroke-width: 1.5"/>
   </g>
   <g id="line2d_23">
    <defs>
     <path id="md9b07cde7a" d="M 3 0 
L -3 -0 
" style="stroke: #990000"/>
    </defs>
    <g clip-path="url(#p6529becad3)">
     <use xlink:href="#md9b07cde7a" x="77.255455" y="335.468291" style="fill: #990000; stroke: #990000"/>
     <use xlink:href="#md9b07cde7a" x="101.713828" y="342.941244" style="fill: #990000; stroke: #990000"/>
     <use xlink:href="#md9b07cde7a" x="126.172201" y="343.81953" style="fill: #990000; stroke: #990000"/>
     <use xlink:href="#md9b07cde7a" x="150.630574" y="337.62422" style="fill: #990000; stroke: #990000"/>
     <use xlink:href="#md9b07cde7a" x="175.088947" y="320.317165" style="fill: #990000; stroke: #990000"/>
     <use xlink:href="#md9b07cde7a" x="199.547321" y="311.291135" style="fill: #990000; stroke: #990000"/>
     <use xlink:href="#md9b07cde7a" x="224.005694" y="281.271215" style="fill: #990000; stroke: #990000"/>
     <use xlink:href="#md9b07cde7a" x="248.464067" y="288.091796" style="fill: #990000; stroke: #990000"/>
     <use xlink:href="#md9b07cde7a" x="272.92244" y="295.659599" style="fill: #990000; stroke: #990000"/>
     <use xlink:href="#md9b07cde7a" x="297.380813" y="277.743532" style="fill: #990000; stroke: #990000"/>
     <use xlink:href="#md9b07cde7a" x="358.526746" y="267.055285" style="fill: #990000; stroke: #990000"/>
     <use xlink:href="#md9b07cde7a" x="419.672679" y="257.04651" style="fill: #990000; stroke: #990000"/>
     <use xlink:href="#md9b07cde7a" x="480.818612" y="252.438522" style="fill: #990000; stroke: #990000"/>
     <use xlink:href="#md9b07cde7a" x="541.964545" y="215.798068" style="fill: #990000; stroke: #990000"/>
    </g>
   </g>
   <g id="line2d_24">
    <g clip-path="url(#p6529becad3)">
     <use xlink:href="#md9b07cde7a" x="77.255455" y="331.981751" style="fill: #990000; stroke: #990000"/>
     <use xlink:href="#md9b07cde7a" x="101.713828" y="327.830767" style="fill: #990000; stroke: #990000"/>
     <use xlink:href="#md9b07cde7a" x="126.172201" y="326.822154" style="fill: #990000; stroke: #990000"/>
     <use xlink:href="#md9b07cde7a" x="150.630574" y="323.048353" style="fill: #990000; stroke: #990000"/>
     <use xlink:href="#md9b07cde7a" x="175.088947" y="288.651535" style="fill: #990000; stroke: #990000"/>
     <use xlink:href="#md9b07cde7a" x="199.547321" y="289.865123" style="fill: #990000; stroke: #990000"/>
     <use xlink:href="#md9b07cde7a" x="224.005694" y="258.998943" style="fill: #990000; stroke: #990000"/>
     <use xlink:href="#md9b07cde7a" x="248.464067" y="268.011916" style="fill: #990000; stroke: #990000"/>
     <use xlink:href="#md9b07cde7a" x="272.92244" y="270.79632" style="fill: #990000; stroke: #990000"/>
     <use xlink:href="#md9b07cde7a" x="297.380813" y="265.819771" style="fill: #990000; stroke: #990000"/>
     <use xlink:href="#md9b07cde7a" x="358.526746" y="246.563731" style="fill: #990000; stroke: #990000"/>
     <use xlink:href="#md9b07cde7a" x="419.672679" y="245.647012" style="fill: #990000; stroke: #990000"/>
     <use xlink:href="#md9b07cde7a" x="480.818612" y="237.881133" style="fill: #990000; stroke: #990000"/>
     <use xlink:href="#md9b07cde7a" x="541.964545" y="203.996258" style="fill: #990000; stroke: #990000"/>
    </g>
   </g>
   <g id="LineCollection_5">
    <path d="M 77.255455 373.532727 
L 77.255455 372.596052 
" clip-path="url(#p6529becad3)" style="fill: none; stroke: #cc0033; stroke-width: 1.5"/>
    <path d="M 101.713828 369.811156 
L 101.713828 367.389646 
" clip-path="url(#p6529becad3)" style="fill: none; stroke: #cc0033; stroke-width: 1.5"/>
    <path d="M 126.172201 364.86491 
L 126.172201 364.267478 
" clip-path="url(#p6529becad3)" style="fill: none; stroke: #cc0033; stroke-width: 1.5"/>
    <path d="M 150.630574 362.134214 
L 150.630574 359.5267 
" clip-path="url(#p6529becad3)" style="fill: none; stroke: #cc0033; stroke-width: 1.5"/>
    <path d="M 175.088947 358.956121 
L 175.088947 356.525743 
" clip-path="url(#p6529becad3)" style="fill: none; stroke: #cc0033; stroke-width: 1.5"/>
    <path d="M 199.547321 353.8219 
L 199.547321 350.845826 
" clip-path="url(#p6529becad3)" style="fill: none; stroke: #cc0033; stroke-width: 1.5"/>
    <path d="M 224.005694 349.360498 
L 224.005694 348.113898 
" clip-path="url(#p6529becad3)" style="fill: none; stroke: #cc0033; stroke-width: 1.5"/>
    <path d="M 248.464067 344.987541 
L 248.464067 335.12757 
" clip-path="url(#p6529becad3)" style="fill: none; stroke: #cc0033; stroke-width: 1.5"/>
    <path d="M 272.92244 340.738012 
L 272.92244 339.508657 
" clip-path="url(#p6529becad3)" style="fill: none; stroke: #cc0033; stroke-width: 1.5"/>
    <path d="M 297.380813 337.239893 
L 297.380813 335.795462 
" clip-path="url(#p6529becad3)" style="fill: none; stroke: #cc0033; stroke-width: 1.5"/>
    <path d="M 358.526746 325.587379 
L 358.526746 322.249642 
" clip-path="url(#p6529becad3)" style="fill: none; stroke: #cc0033; stroke-width: 1.5"/>
    <path d="M 419.672679 313.776945 
L 419.672679 309.45942 
" clip-path="url(#p6529becad3)" style="fill: none; stroke: #cc0033; stroke-width: 1.5"/>
    <path d="M 480.818612 300.632452 
L 480.818612 289.965393 
" clip-path="url(#p6529becad3)" style="fill: none; stroke: #cc0033; stroke-width: 1.5"/>
    <path d="M 541.964545 281.450321 
L 541.964545 278.128845 
" clip-path="url(#p6529becad3)" style="fill: none; stroke: #cc0033; stroke-width: 1.5"/>
   </g>
   <g id="line2d_25">
    <defs>
     <path id="md3fe7ae338" d="M 3 0 
L -3 -0 
" style="stroke: #cc0033"/>
    </defs>
    <g clip-path="url(#p6529becad3)">
     <use xlink:href="#md3fe7ae338" x="77.255455" y="373.532727" style="fill: #cc0033; stroke: #cc0033"/>
     <use xlink:href="#md3fe7ae338" x="101.713828" y="369.811156" style="fill: #cc0033; stroke: #cc0033"/>
     <use xlink:href="#md3fe7ae338" x="126.172201" y="364.86491" style="fill: #cc0033; stroke: #cc0033"/>
     <use xlink:href="#md3fe7ae338" x="150.630574" y="362.134214" style="fill: #cc0033; stroke: #cc0033"/>
     <use xlink:href="#md3fe7ae338" x="175.088947" y="358.956121" style="fill: #cc0033; stroke: #cc0033"/>
     <use xlink:href="#md3fe7ae338" x="199.547321" y="353.8219" style="fill: #cc0033; stroke: #cc0033"/>
     <use xlink:href="#md3fe7ae338" x="224.005694" y="349.360498" style="fill: #cc0033; stroke: #cc0033"/>
     <use xlink:href="#md3fe7ae338" x="248.464067" y="344.987541" style="fill: #cc0033; stroke: #cc0033"/>
     <use xlink:href="#md3fe7ae338" x="272.92244" y="340.738012" style="fill: #cc0033; stroke: #cc0033"/>
     <use xlink:href="#md3fe7ae338" x="297.380813" y="337.239893" style="fill: #cc0033; stroke: #cc0033"/>
     <use xlink:href="#md3fe7ae338" x="358.526746" y="325.587379" style="fill: #cc0033; stroke: #cc0033"/>
     <use xlink:href="#md3fe7ae338" x="419.672679" y="313.776945" style="fill: #cc0033; stroke: #cc0033"/>
     <use xlink:href="#md3fe7ae338" x="480.818612" y="300.632452" style="fill: #cc0033; stroke: #cc0033"/>
     <use xlink:href="#md3fe7ae338" x="541.964545" y="281.450321" style="fill: #cc0033; stroke: #cc0033"/>
    </g>
   </g>
   <g id="line2d_26">
    <g clip-path="url(#p6529becad3)">
     <use xlink:href="#md3fe7ae338" x="77.255455" y="372.596052" style="fill: #cc0033; stroke: #cc0033"/>
     <use xlink:href="#md3fe7ae338" x="101.713828" y="367.389646" style="fill: #cc0033; stroke: #cc0033"/>
     <use xlink:href="#md3fe7ae338" x="126.172201" y="364.267478" style="fill: #cc0033; stroke: #cc0033"/>
     <use xlink:href="#md3fe7ae338" x="150.630574" y="359.5267" style="fill: #cc0033; stroke: #cc0033"/>
     <use xlink:href="#md3fe7ae338" x="175.088947" y="356.525743" style="fill: #cc0033; stroke: #cc0033"/>
     <use xlink:href="#md3fe7ae338" x="199.547321" y="350.845826" style="fill: #cc0033; stroke: #cc0033"/>
     <use xlink:href="#md3fe7ae338" x="224.005694" y="348.113898" style="fill: #cc0033; stroke: #cc0033"/>
     <use xlink:href="#md3fe7ae338" x="248.464067" y="335.12757" style="fill: #cc0033; stroke: #cc0033"/>
     <use xlink:href="#md3fe7ae338" x="272.92244" y="339.508657" style="fill: #cc0033; stroke: #cc0033"/>
     <use xlink:href="#md3fe7ae338" x="297.380813" y="335.795462" style="fill: #cc0033; stroke: #cc0033"/>
     <use xlink:href="#md3fe7ae338" x="358.526746" y="322.249642" style="fill: #cc0033; stroke: #cc0033"/>
     <use xlink:href="#md3fe7ae338" x="419.672679" y="309.45942" style="fill: #cc0033; stroke: #cc0033"/>
     <use xlink:href="#md3fe7ae338" x="480.818612" y="289.965393" style="fill: #cc0033; stroke: #cc0033"/>
     <use xlink:href="#md3fe7ae338" x="541.964545" y="278.128845" style="fill: #cc0033; stroke: #cc0033"/>
    </g>
   </g>
   <g id="line2d_27">
    <path d="M 77.255455 345.769253 
L 101.713828 334.623756 
L 126.172201 329.124916 
L 150.630574 329.122453 
L 175.088947 318.735755 
L 199.547321 323.103785 
L 224.005694 320.928393 
L 248.464067 307.858794 
L 272.92244 303.328164 
L 297.380813 287.804782 
L 358.526746 278.881486 
L 419.672679 251.623797 
L 480.818612 212.077483 
L 541.964545 169.771894 
" clip-path="url(#p6529becad3)" style="fill: none; stroke: #009933; stroke-width: 1.5; stroke-linecap: square"/>
   </g>
   <g id="line2d_28">
    <path d="M 77.255455 363.036891 
L 101.713828 351.553875 
L 126.172201 335.202711 
L 150.630574 319.46992 
L 175.088947 302.904419 
L 199.547321 285.383026 
L 224.005694 265.489151 
L 248.464067 251.313379 
L 272.92244 231.956576 
L 297.380813 214.166648 
L 358.526746 174.115287 
L 419.672679 128.31626 
L 480.818612 93.615921 
L 541.964545 47.664148 
" clip-path="url(#p6529becad3)" style="fill: none; stroke: #0000cc; stroke-width: 1.5; stroke-linecap: square"/>
   </g>
   <g id="line2d_29">
    <path d="M 77.255455 359.009664 
L 101.713828 362.294515 
L 126.172201 345.870263 
L 150.630574 345.04905 
L 175.088947 331.909648 
L 199.547321 316.306609 
L 224.005694 297.418718 
L 248.464067 290.027805 
L 272.92244 271.961127 
L 297.380813 276.067191 
L 358.526746 225.152009 
L 419.672679 166.024701 
L 480.818612 161.918637 
L 541.964545 115.930731 
" clip-path="url(#p6529becad3)" style="fill: none; stroke: #666600; stroke-width: 1.5; stroke-linecap: square"/>
   </g>
   <g id="line2d_30">
    <path d="M 77.255455 333.406719 
L 101.713828 335.884892 
L 126.172201 332.745971 
L 150.630574 332.600863 
L 175.088947 303.730723 
L 199.547321 301.195393 
L 224.005694 271.802716 
L 248.464067 280.998737 
L 272.92244 279.43137 
L 297.380813 272.643062 
L 358.526746 255.59124 
L 419.672679 249.697479 
L 480.818612 246.19591 
L 541.964545 209.680856 
" clip-path="url(#p6529becad3)" style="fill: none; stroke: #990000; stroke-width: 1.5; stroke-linecap: square"/>
   </g>
   <g id="line2d_31">
    <path d="M 77.255455 373.100851 
L 101.713828 368.687491 
L 126.172201 364.633246 
L 150.630574 360.982546 
L 175.088947 357.716501 
L 199.547321 352.78052 
L 224.005694 348.700079 
L 248.464067 341.533933 
L 272.92244 340.286838 
L 297.380813 336.505647 
L 358.526746 324.251594 
L 419.672679 310.898677 
L 480.818612 296.772423 
L 541.964545 279.897573 
" clip-path="url(#p6529becad3)" style="fill: none; stroke: #cc0033; stroke-width: 1.5; stroke-linecap: square"/>
   </g>
   <g id="patch_3">
    <path d="M 54.02 390.04 
L 54.02 26.88 
" style="fill: none; stroke: #000000; stroke-width: 0.8; stroke-linejoin: miter; stroke-linecap: square"/>
   </g>
   <g id="patch_4">
    <path d="M 565.2 390.04 
L 565.2 26.88 
" style="fill: none; stroke: #000000; stroke-width: 0.8; stroke-linejoin: miter; stroke-linecap: square"/>
   </g>
   <g id="patch_5">
    <path d="M 54.02 390.04 
L 565.2 390.04 
" style="fill: none; stroke: #000000; stroke-width: 0.8; stroke-linejoin: miter; stroke-linecap: square"/>
   </g>
   <g id="patch_6">
    <path d="M 54.02 26.88 
L 565.2 26.88 
" style="fill: none; stroke: #000000; stroke-width: 0.8; stroke-linejoin: miter; stroke-linecap: square"/>
   </g>
   <g id="text_19">
    <!-- Bron-Kerbosch parallel Ver3=GP using channels on a random graph of order 10k -->
    <g transform="translate(54.02 20.88) scale(0.12 -0.12)">
     <defs>
      <path id="DejaVuSans-42" d="M 1259 2228 
L 1259 519 
L 2272 519 
Q 2781 519 3026 730 
Q 3272 941 3272 1375 
Q 3272 1813 3026 2020 
Q 2781 2228 2272 2228 
L 1259 2228 
z
M 1259 4147 
L 1259 2741 
L 2194 2741 
Q 2656 2741 2882 2914 
Q 3109 3088 3109 3444 
Q 3109 3797 2882 3972 
Q 2656 4147 2194 4147 
L 1259 4147 
z
M 628 4666 
L 2241 4666 
Q 2963 4666 3353 4366 
Q 3744 4066 3744 3513 
Q 3744 3084 3544 2831 
Q 3344 2578 2956 2516 
Q 3422 2416 3680 2098 
Q 3938 1781 3938 1306 
Q 3938 681 3513 340 
Q 3088 0 2303 0 
L 628 0 
L 628 4666 
z
" transform="scale(0.015625)"/>
      <path id="DejaVuSans-72" d="M 2631 2963 
Q 2534 3019 2420 3045 
Q 2306 3072 2169 3072 
Q 1681 3072 1420 2755 
Q 1159 2438 1159 1844 
L 1159 0 
L 581 0 
L 581 3500 
L 1159 3500 
L 1159 2956 
Q 1341 3275 1631 3429 
Q 1922 3584 2338 3584 
Q 2397 3584 2469 3576 
Q 2541 3569 2628 3553 
L 2631 2963 
z
" transform="scale(0.015625)"/>
      <path id="DejaVuSans-2d" d="M 313 2009 
L 1997 2009 
L 1997 1497 
L 313 1497 
L 313 2009 
z
" transform="scale(0.015625)"/>
      <path id="DejaVuSans-4b" d="M 628 4666 
L 1259 4666 
L 1259 2694 
L 3353 4666 
L 4166 4666 
L 1850 2491 
L 4331 0 
L 3500 0 
L 1259 2247 
L 1259 0 
L 628 0 
L 628 4666 
z
" transform="scale(0.015625)"/>
      <path id="DejaVuSans-62" d="M 3116 1747 
Q 3116 2381 2855 2742 
Q 2594 3103 2138 3103 
Q 1681 3103 1420 2742 
Q 1159 2381 1159 1747 
Q 1159 1113 1420 752 
Q 1681 391 2138 391 
Q 2594 391 2855 752 
Q 3116 1113 3116 1747 
z
M 1159 2969 
Q 1341 3281 1617 3432 
Q 1894 3584 2278 3584 
Q 2916 3584 3314 3078 
Q 3713 2572 3713 1747 
Q 3713 922 3314 415 
Q 2916 -91 2278 -91 
Q 1894 -91 1617 61 
Q 1341 213 1159 525 
L 1159 0 
L 581 0 
L 581 4863 
L 1159 4863 
L 1159 2969 
z
" transform="scale(0.015625)"/>
      <path id="DejaVuSans-68" d="M 3513 2113 
L 3513 0 
L 2938 0 
L 2938 2094 
Q 2938 2591 2744 2837 
Q 2550 3084 2163 3084 
Q 1697 3084 1428 2787 
Q 1159 2491 1159 1978 
L 1159 0 
L 581 0 
L 581 4863 
L 1159 4863 
L 1159 2956 
Q 1366 3272 1645 3428 
Q 1925 3584 2291 3584 
Q 2894 3584 3203 3211 
Q 3513 2838 3513 2113 
z
" transform="scale(0.015625)"/>
      <path id="DejaVuSans-61" d="M 2194 1759 
Q 1497 1759 1228 1600 
Q 959 1441 959 1056 
Q 959 750 1161 570 
Q 1363 391 1709 391 
Q 2188 391 2477 730 
Q 2766 1069 2766 1631 
L 2766 1759 
L 2194 1759 
z
M 3341 1997 
L 3341 0 
L 2766 0 
L 2766 531 
Q 2569 213 2275 61 
Q 1981 -91 1556 -91 
Q 1019 -91 701 211 
Q 384 513 384 1019 
Q 384 1609 779 1909 
Q 1175 2209 1959 2209 
L 2766 2209 
L 2766 2266 
Q 2766 2663 2505 2880 
Q 2244 3097 1772 3097 
Q 1472 3097 1187 3025 
Q 903 2953 641 2809 
L 641 3341 
Q 956 3463 1253 3523 
Q 1550 3584 1831 3584 
Q 2591 3584 2966 3190 
Q 3341 2797 3341 1997 
z
" transform="scale(0.015625)"/>
      <path id="DejaVuSans-6c" d="M 603 4863 
L 1178 4863 
L 1178 0 
L 603 0 
L 603 4863 
z
" transform="scale(0.015625)"/>
      <path id="DejaVuSans-56" d="M 1831 0 
L 50 4666 
L 709 4666 
L 2188 738 
L 3669 4666 
L 4325 4666 
L 2547 0 
L 1831 0 
z
" transform="scale(0.015625)"/>
      <path id="DejaVuSans-33" d="M 2597 2516 
Q 3050 2419 3304 2112 
Q 3559 1806 3559 1356 
Q 3559 666 3084 287 
Q 2609 -91 1734 -91 
Q 1441 -91 1130 -33 
Q 819 25 488 141 
L 488 750 
Q 750 597 1062 519 
Q 1375 441 1716 441 
Q 2309 441 2620 675 
Q 2931 909 2931 1356 
Q 2931 1769 2642 2001 
Q 2353 2234 1838 2234 
L 1294 2234 
L 1294 2753 
L 1863 2753 
Q 2328 2753 2575 2939 
Q 2822 3125 2822 3475 
Q 2822 3834 2567 4026 
Q 2313 4219 1838 4219 
Q 1578 4219 1281 4162 
Q 984 4106 628 3988 
L 628 4550 
Q 988 4650 1302 4700 
Q 1616 4750 1894 4750 
Q 2613 4750 3031 4423 
Q 3450 4097 3450 3541 
Q 3450 3153 3228 2886 
Q 3006 2619 2597 2516 
z
" transform="scale(0.015625)"/>
      <path id="DejaVuSans-bd" d="M 488 2431 
L 1125 2431 
L 1125 4341 
L 428 4213 
L 428 4575 
L 1147 4697 
L 1575 4697 
L 1575 2431 
L 2216 2431 
L 2216 2088 
L 488 2088 
L 488 2431 
z
M 4470 332 
L 5795 332 
L 5795 -24 
L 3926 -24 
L 3926 319 
Q 4032 416 4229 591 
Q 5304 1544 5304 1838 
Q 5304 2044 5141 2170 
Q 4979 2297 4713 2297 
Q 4551 2297 4360 2242 
Q 4170 2188 3945 2079 
L 3945 2463 
Q 4185 2551 4393 2594 
Q 4601 2638 4779 2638 
Q 5232 2638 5504 2432 
Q 5776 2226 5776 1888 
Q 5776 1454 4741 566 
Q 4566 416 4470 332 
z
M 4309 4750 
L 4809 4750 
L 1896 -91 
L 1396 -91 
L 4309 4750 
z
" transform="scale(0.015625)"/>
      <path id="DejaVuSans-3d" d="M 678 2906 
L 4684 2906 
L 4684 2381 
L 678 2381 
L 678 2906 
z
M 678 1631 
L 4684 1631 
L 4684 1100 
L 678 1100 
L 678 1631 
z
" transform="scale(0.015625)"/>
      <path id="DejaVuSans-47" d="M 3809 666 
L 3809 1919 
L 2778 1919 
L 2778 2438 
L 4434 2438 
L 4434 434 
Q 4069 175 3628 42 
Q 3188 -91 2688 -91 
Q 1594 -91 976 548 
Q 359 1188 359 2328 
Q 359 3472 976 4111 
Q 1594 4750 2688 4750 
Q 3144 4750 3555 4637 
Q 3966 4525 4313 4306 
L 4313 3634 
Q 3963 3931 3569 4081 
Q 3175 4231 2741 4231 
Q 1884 4231 1454 3753 
Q 1025 3275 1025 2328 
Q 1025 1384 1454 906 
Q 1884 428 2741 428 
Q 3075 428 3337 486 
Q 3600 544 3809 666 
z
" transform="scale(0.015625)"/>
      <path id="DejaVuSans-50" d="M 1259 4147 
L 1259 2394 
L 2053 2394 
Q 2494 2394 2734 2622 
Q 2975 2850 2975 3272 
Q 2975 3691 2734 3919 
Q 2494 4147 2053 4147 
L 1259 4147 
z
M 628 4666 
L 2053 4666 
Q 2838 4666 3239 4311 
Q 3641 3956 3641 3272 
Q 3641 2581 3239 2228 
Q 2838 1875 2053 1875 
L 1259 1875 
L 1259 0 
L 628 0 
L 628 4666 
z
" transform="scale(0.015625)"/>
      <path id="DejaVuSans-75" d="M 544 1381 
L 544 3500 
L 1119 3500 
L 1119 1403 
Q 1119 906 1312 657 
Q 1506 409 1894 409 
Q 2359 409 2629 706 
Q 2900 1003 2900 1516 
L 2900 3500 
L 3475 3500 
L 3475 0 
L 2900 0 
L 2900 538 
Q 2691 219 2414 64 
Q 2138 -91 1772 -91 
Q 1169 -91 856 284 
Q 544 659 544 1381 
z
M 1991 3584 
L 1991 3584 
z
" transform="scale(0.015625)"/>
      <path id="DejaVuSans-6d" d="M 3328 2828 
Q 3544 3216 3844 3400 
Q 4144 3584 4550 3584 
Q 5097 3584 5394 3201 
Q 5691 2819 5691 2113 
L 5691 0 
L 5113 0 
L 5113 2094 
Q 5113 2597 4934 2840 
Q 4756 3084 4391 3084 
Q 3944 3084 3684 2787 
Q 3425 2491 3425 1978 
L 3425 0 
L 2847 0 
L 2847 2094 
Q 2847 2600 2669 2842 
Q 2491 3084 2119 3084 
Q 1678 3084 1418 2786 
Q 1159 2488 1159 1978 
L 1159 0 
L 581 0 
L 581 3500 
L 1159 3500 
L 1159 2956 
Q 1356 3278 1631 3431 
Q 1906 3584 2284 3584 
Q 2666 3584 2933 3390 
Q 3200 3197 3328 2828 
z
" transform="scale(0.015625)"/>
      <path id="DejaVuSans-66" d="M 2375 4863 
L 2375 4384 
L 1825 4384 
Q 1516 4384 1395 4259 
Q 1275 4134 1275 3809 
L 1275 3500 
L 2222 3500 
L 2222 3053 
L 1275 3053 
L 1275 0 
L 697 0 
L 697 3053 
L 147 3053 
L 147 3500 
L 697 3500 
L 697 3744 
Q 697 4328 969 4595 
Q 1241 4863 1831 4863 
L 2375 4863 
z
" transform="scale(0.015625)"/>
      <path id="DejaVuSans-6b" d="M 581 4863 
L 1159 4863 
L 1159 1991 
L 2875 3500 
L 3609 3500 
L 1753 1863 
L 3688 0 
L 2938 0 
L 1159 1709 
L 1159 0 
L 581 0 
L 581 4863 
z
" transform="scale(0.015625)"/>
     </defs>
     <use xlink:href="#DejaVuSans-42"/>
     <use xlink:href="#DejaVuSans-72" transform="translate(68.603516 0)"/>
     <use xlink:href="#DejaVuSans-6f" transform="translate(107.466797 0)"/>
     <use xlink:href="#DejaVuSans-6e" transform="translate(168.648438 0)"/>
     <use xlink:href="#DejaVuSans-2d" transform="translate(232.027344 0)"/>
     <use xlink:href="#DejaVuSans-4b" transform="translate(268.111328 0)"/>
     <use xlink:href="#DejaVuSans-65" transform="translate(328.6875 0)"/>
     <use xlink:href="#DejaVuSans-72" transform="translate(390.210938 0)"/>
     <use xlink:href="#DejaVuSans-62" transform="translate(431.324219 0)"/>
     <use xlink:href="#DejaVuSans-6f" transform="translate(494.800781 0)"/>
     <use xlink:href="#DejaVuSans-73" transform="translate(555.982422 0)"/>
     <use xlink:href="#DejaVuSans-63" transform="translate(608.082031 0)"/>
     <use xlink:href="#DejaVuSans-68" transform="translate(663.0625 0)"/>
     <use xlink:href="#DejaVuSans-20" transform="translate(726.441406 0)"/>
     <use xlink:href="#DejaVuSans-70" transform="translate(758.228516 0)"/>
     <use xlink:href="#DejaVuSans-61" transform="translate(821.705078 0)"/>
     <use xlink:href="#DejaVuSans-72" transform="translate(882.984375 0)"/>
     <use xlink:href="#DejaVuSans-61" transform="translate(924.097656 0)"/>
     <use xlink:href="#DejaVuSans-6c" transform="translate(985.376953 0)"/>
     <use xlink:href="#DejaVuSans-6c" transform="translate(1013.160156 0)"/>
     <use xlink:href="#DejaVuSans-65" transform="translate(1040.943359 0)"/>
     <use xlink:href="#DejaVuSans-6c" transform="translate(1102.466797 0)"/>
     <use xlink:href="#DejaVuSans-20" transform="translate(1130.25 0)"/>
     <use xlink:href="#DejaVuSans-56" transform="translate(1162.037109 0)"/>
     <use xlink:href="#DejaVuSans-65" transform="translate(1222.695312 0)"/>
     <use xlink:href="#DejaVuSans-72" transform="translate(1284.21875 0)"/>
     <use xlink:href="#DejaVuSans-33" transform="translate(1325.332031 0)"/>
     <use xlink:href="#DejaVuSans-bd" transform="translate(1388.955078 0)"/>
     <use xlink:href="#DejaVuSans-3d" transform="translate(1485.878906 0)"/>
     <use xlink:href="#DejaVuSans-47" transform="translate(1569.667969 0)"/>
     <use xlink:href="#DejaVuSans-50" transform="translate(1647.158203 0)"/>
     <use xlink:href="#DejaVuSans-20" transform="translate(1707.460938 0)"/>
     <use xlink:href="#DejaVuSans-75" transform="translate(1739.248047 0)"/>
     <use xlink:href="#DejaVuSans-73" transform="translate(1802.626953 0)"/>
     <use xlink:href="#DejaVuSans-69" transform="translate(1854.726562 0)"/>
     <use xlink:href="#DejaVuSans-6e" transform="translate(1882.509766 0)"/>
     <use xlink:href="#DejaVuSans-67" transform="translate(1945.888672 0)"/>
     <use xlink:href="#DejaVuSans-20" transform="translate(2009.365234 0)"/>
     <use xlink:href="#DejaVuSans-63" transform="translate(2041.152344 0)"/>
     <use xlink:href="#DejaVuSans-68" transform="translate(2096.132812 0)"/>
     <use xlink:href="#DejaVuSans-61" transform="translate(2159.511719 0)"/>
     <use xlink:href="#DejaVuSans-6e" transform="translate(2220.791016 0)"/>
     <use xlink:href="#DejaVuSans-6e" transform="translate(2284.169922 0)"/>
     <use xlink:href="#DejaVuSans-65" transform="translate(2347.548828 0)"/>
     <use xlink:href="#DejaVuSans-6c" transform="translate(2409.072266 0)"/>
     <use xlink:href="#DejaVuSans-73" transform="translate(2436.855469 0)"/>
     <use xlink:href="#DejaVuSans-20" transform="translate(2488.955078 0)"/>
     <use xlink:href="#DejaVuSans-6f" transform="translate(2520.742188 0)"/>
     <use xlink:href="#DejaVuSans-6e" transform="translate(2581.923828 0)"/>
     <use xlink:href="#DejaVuSans-20" transform="translate(2645.302734 0)"/>
     <use xlink:href="#DejaVuSans-61" transform="translate(2677.089844 0)"/>
     <use xlink:href="#DejaVuSans-20" transform="translate(2738.369141 0)"/>
     <use xlink:href="#DejaVuSans-72" transform="translate(2770.15625 0)"/>
     <use xlink:href="#DejaVuSans-61" transform="translate(2811.269531 0)"/>
     <use xlink:href="#DejaVuSans-6e" transform="translate(2872.548828 0)"/>
     <use xlink:href="#DejaVuSans-64" transform="translate(2935.927734 0)"/>
     <use xlink:href="#DejaVuSans-6f" transform="translate(2999.404297 0)"/>
     <use xlink:href="#DejaVuSans-6d" transform="translate(3060.585938 0)"/>
     <use xlink:href="#DejaVuSans-20" transform="translate(3157.998047 0)"/>
     <use xlink:href="#DejaVuSans-67" transform="translate(3189.785156 0)"/>
     <use xlink:href="#DejaVuSans-72" transform="translate(3253.261719 0)"/>
     <use xlink:href="#DejaVuSans-61" transform="translate(3294.375 0)"/>
     <use xlink:href="#DejaVuSans-70" transform="translate(3355.654297 0)"/>
     <use xlink:href="#DejaVuSans-68" transform="translate(3419.130859 0)"/>
     <use xlink:href="#DejaVuSans-20" transform="translate(3482.509766 0)"/>
     <use xlink:href="#DejaVuSans-6f" transform="translate(3514.296875 0)"/>
     <use xlink:href="#DejaVuSans-66" transform="translate(3575.478516 0)"/>
     <use xlink:href="#DejaVuSans-20" transform="translate(3610.683594 0)"/>
     <use xlink:href="#DejaVuSans-6f" transform="translate(3642.470703 0)"/>
     <use xlink:href="#DejaVuSans-72" transform="translate(3703.652344 0)"/>
     <use xlink:href="#DejaVuSans-64" transform="translate(3743.015625 0)"/>
     <use xlink:href="#DejaVuSans-65" transform="translate(3806.492188 0)"/>
     <use xlink:href="#DejaVuSans-72" transform="translate(3868.015625 0)"/>
     <use xlink:href="#DejaVuSans-20" transform="translate(3909.128906 0)"/>
     <use xlink:href="#DejaVuSans-31" transform="translate(3940.916016 0)"/>
     <use xlink:href="#DejaVuSans-30" transform="translate(4004.539062 0)"/>
     <use xlink:href="#DejaVuSans-6b" transform="translate(4068.162109 0)"/>
    </g>
   </g>
   <g id="legend_1">
    <g id="patch_7">
     <path d="M 61.02 108.270625 
L 116.762188 108.270625 
Q 118.762188 108.270625 118.762188 106.270625 
L 118.762188 33.88 
Q 118.762188 31.88 116.762188 31.88 
L 61.02 31.88 
Q 59.02 31.88 59.02 33.88 
L 59.02 106.270625 
Q 59.02 108.270625 61.02 108.270625 
z
" style="fill: #ffffff; opacity: 0.8; stroke: #cccccc; stroke-linejoin: miter"/>
    </g>
    <g id="LineCollection_6">
     <path d="M 73.02 44.978437 
L 73.02 34.978437 
" style="fill: none; stroke: #009933; stroke-width: 1.5"/>
    </g>
    <g id="line2d_32">
     <g>
      <use xlink:href="#m567d63a80a" x="73.02" y="44.978437" style="fill: #009933; stroke: #009933"/>
     </g>
    </g>
    <g id="line2d_33">
     <g>
      <use xlink:href="#m567d63a80a" x="73.02" y="34.978437" style="fill: #009933; stroke: #009933"/>
     </g>
    </g>
    <g id="line2d_34">
     <path d="M 63.02 39.978437 
L 83.02 39.978437 
" style="fill: none; stroke: #009933; stroke-width: 1.5; stroke-linecap: square"/>
    </g>
    <g id="line2d_35"/>
    <g id="text_20">
     <!-- Java -->
     <g transform="translate(91.02 43.478437) scale(0.1 -0.1)">
      <defs>
       <path id="DejaVuSans-4a" d="M 628 4666 
L 1259 4666 
L 1259 325 
Q 1259 -519 939 -900 
Q 619 -1281 -91 -1281 
L -331 -1281 
L -331 -750 
L -134 -750 
Q 284 -750 456 -515 
Q 628 -281 628 325 
L 628 4666 
z
" transform="scale(0.015625)"/>
       <path id="DejaVuSans-76" d="M 191 3500 
L 800 3500 
L 1894 563 
L 2988 3500 
L 3597 3500 
L 2284 0 
L 1503 0 
L 191 3500 
z
" transform="scale(0.015625)"/>
      </defs>
      <use xlink:href="#DejaVuSans-4a"/>
      <use xlink:href="#DejaVuSans-61" transform="translate(29.492188 0)"/>
      <use xlink:href="#DejaVuSans-76" transform="translate(90.771484 0)"/>
      <use xlink:href="#DejaVuSans-61" transform="translate(149.951172 0)"/>
     </g>
    </g>
    <g id="LineCollection_7">
     <path d="M 73.02 59.656563 
L 73.02 49.656563 
" style="fill: none; stroke: #0000cc; stroke-width: 1.5"/>
    </g>
    <g id="line2d_36">
     <g>
      <use xlink:href="#m71e13e22db" x="73.02" y="59.656563" style="fill: #0000cc; stroke: #0000cc"/>
     </g>
    </g>
    <g id="line2d_37">
     <g>
      <use xlink:href="#m71e13e22db" x="73.02" y="49.656563" style="fill: #0000cc; stroke: #0000cc"/>
     </g>
    </g>
    <g id="line2d_38">
     <path d="M 63.02 54.656563 
L 83.02 54.656563 
" style="fill: none; stroke: #0000cc; stroke-width: 1.5; stroke-linecap: square"/>
    </g>
    <g id="line2d_39"/>
    <g id="text_21">
     <!-- Go -->
     <g transform="translate(91.02 58.156563) scale(0.1 -0.1)">
      <use xlink:href="#DejaVuSans-47"/>
      <use xlink:href="#DejaVuSans-6f" transform="translate(77.490234 0)"/>
     </g>
    </g>
    <g id="LineCollection_8">
     <path d="M 73.02 74.334687 
L 73.02 64.334687 
" style="fill: none; stroke: #666600; stroke-width: 1.5"/>
    </g>
    <g id="line2d_40">
     <g>
      <use xlink:href="#ma612d83d5a" x="73.02" y="74.334687" style="fill: #666600; stroke: #666600"/>
     </g>
    </g>
    <g id="line2d_41">
     <g>
      <use xlink:href="#ma612d83d5a" x="73.02" y="64.334687" style="fill: #666600; stroke: #666600"/>
     </g>
    </g>
    <g id="line2d_42">
     <path d="M 63.02 69.334687 
L 83.02 69.334687 
" style="fill: none; stroke: #666600; stroke-width: 1.5; stroke-linecap: square"/>
    </g>
    <g id="line2d_43"/>
    <g id="text_22">
     <!-- C# -->
     <g transform="translate(91.02 72.834687) scale(0.1 -0.1)">
      <defs>
       <path id="DejaVuSans-43" d="M 4122 4306 
L 4122 3641 
Q 3803 3938 3442 4084 
Q 3081 4231 2675 4231 
Q 1875 4231 1450 3742 
Q 1025 3253 1025 2328 
Q 1025 1406 1450 917 
Q 1875 428 2675 428 
Q 3081 428 3442 575 
Q 3803 722 4122 1019 
L 4122 359 
Q 3791 134 3420 21 
Q 3050 -91 2638 -91 
Q 1578 -91 968 557 
Q 359 1206 359 2328 
Q 359 3453 968 4101 
Q 1578 4750 2638 4750 
Q 3056 4750 3426 4639 
Q 3797 4528 4122 4306 
z
" transform="scale(0.015625)"/>
      </defs>
      <use xlink:href="#DejaVuSans-43"/>
      <use xlink:href="#DejaVuSans-23" transform="translate(69.824219 0)"/>
     </g>
    </g>
    <g id="LineCollection_9">
     <path d="M 73.02 89.012812 
L 73.02 79.012812 
" style="fill: none; stroke: #990000; stroke-width: 1.5"/>
    </g>
    <g id="line2d_44">
     <g>
      <use xlink:href="#md9b07cde7a" x="73.02" y="89.012812" style="fill: #990000; stroke: #990000"/>
     </g>
    </g>
    <g id="line2d_45">
     <g>
      <use xlink:href="#md9b07cde7a" x="73.02" y="79.012812" style="fill: #990000; stroke: #990000"/>
     </g>
    </g>
    <g id="line2d_46">
     <path d="M 63.02 84.012812 
L 83.02 84.012812 
" style="fill: none; stroke: #990000; stroke-width: 1.5; stroke-linecap: square"/>
    </g>
    <g id="line2d_47"/>
    <g id="text_23">
     <!-- C++ -->
     <g transform="translate(91.02 87.512812) scale(0.1 -0.1)">
      <defs>
       <path id="DejaVuSans-2b" d="M 2944 4013 
L 2944 2272 
L 4684 2272 
L 4684 1741 
L 2944 1741 
L 2944 0 
L 2419 0 
L 2419 1741 
L 678 1741 
L 678 2272 
L 2419 2272 
L 2419 4013 
L 2944 4013 
z
" transform="scale(0.015625)"/>
      </defs>
      <use xlink:href="#DejaVuSans-43"/>
      <use xlink:href="#DejaVuSans-2b" transform="translate(69.824219 0)"/>
      <use xlink:href="#DejaVuSans-2b" transform="translate(153.613281 0)"/>
     </g>
    </g>
    <g id="LineCollection_10">
     <path d="M 73.02 103.690938 
L 73.02 93.690938 
" style="fill: none; stroke: #cc0033; stroke-width: 1.5"/>
    </g>
    <g id="line2d_48">
     <g>
      <use xlink:href="#md3fe7ae338" x="73.02" y="103.690938" style="fill: #cc0033; stroke: #cc0033"/>
     </g>
    </g>
    <g id="line2d_49">
     <g>
      <use xlink:href="#md3fe7ae338" x="73.02" y="93.690938" style="fill: #cc0033; stroke: #cc0033"/>
     </g>
    </g>
    <g id="line2d_50">
     <path d="M 63.02 98.690938 
L 83.02 98.690938 
" style="fill: none; stroke: #cc0033; stroke-width: 1.5; stroke-linecap: square"/>
    </g>
    <g id="line2d_51"/>
    <g id="text_24">
     <!-- Rust -->
     <g transform="translate(91.02 102.190938) scale(0.1 -0.1)">
      <defs>
       <path id="DejaVuSans-52" d="M 2841 2188 
Q 3044 2119 3236 1894 
Q 3428 1669 3622 1275 
L 4263 0 
L 3584 0 
L 2988 1197 
Q 2756 1666 2539 1819 
Q 2322 1972 1947 1972 
L 1259 1972 
L 1259 0 
L 628 0 
L 628 4666 
L 2053 4666 
Q 2853 4666 3247 4331 
Q 3641 3997 3641 3322 
Q 3641 2881 3436 2590 
Q 3231 2300 2841 2188 
z
M 1259 4147 
L 1259 2491 
L 2053 2491 
Q 2509 2491 2742 2702 
Q 2975 2913 2975 3322 
Q 2975 3731 2742 3939 
Q 2509 4147 2053 4147 
L 1259 4147 
z
" transform="scale(0.015625)"/>
      </defs>
      <use xlink:href="#DejaVuSans-52"/>
      <use xlink:href="#DejaVuSans-75" transform="translate(64.982422 0)"/>
      <use xlink:href="#DejaVuSans-73" transform="translate(128.361328 0)"/>
      <use xlink:href="#DejaVuSans-74" transform="translate(180.460938 0)"/>
     </g>
    </g>
   </g>
  </g>
 </g>
 <defs>
  <clipPath id="p6529becad3">
   <rect x="54.02" y="26.88" width="511.18" height="363.16"/>
  </clipPath>
 </defs>
</svg>
