<?xml version="1.0" encoding="utf-8" standalone="no"?>
<!DOCTYPE svg PUBLIC "-//W3C//DTD SVG 1.1//EN"
  "http://www.w3.org/Graphics/SVG/1.1/DTD/svg11.dtd">
<svg xmlns:xlink="http://www.w3.org/1999/xlink" width="576pt" height="432pt" viewBox="0 0 576 432" xmlns="http://www.w3.org/2000/svg" version="1.1">
 <metadata>
  <rdf:RDF xmlns:dc="http://purl.org/dc/elements/1.1/" xmlns:cc="http://creativecommons.org/ns#" xmlns:rdf="http://www.w3.org/1999/02/22-rdf-syntax-ns#">
   <cc:Work>
    <dc:type rdf:resource="http://purl.org/dc/dcmitype/StillImage"/>
    <dc:date>2025-09-02T22:51:49.417258</dc:date>
    <dc:format>image/svg+xml</dc:format>
    <dc:creator>
     <cc:Agent>
      <dc:title>Matplotlib v3.10.5, https://matplotlib.org/</dc:title>
     </cc:Agent>
    </dc:creator>
   </cc:Work>
  </rdf:RDF>
 </metadata>
 <defs>
  <style type="text/css">*{stroke-linejoin: round; stroke-linecap: butt}</style>
 </defs>
 <g id="figure_1">
  <g id="patch_1">
   <path d="M 0 432 
L 576 432 
L 576 0 
L 0 0 
z
" style="fill: #ffffff"/>
  </g>
  <g id="axes_1">
   <g id="patch_2">
    <path d="M 38.27 390.04 
L 565.2 390.04 
L 565.2 26.88 
L 38.27 26.88 
z
" style="fill: #ffffff"/>
   </g>
   <g id="matplotlib.axis_1">
    <g id="xtick_1">
     <g id="line2d_1">
      <defs>
       <path id="mc74f61fcfc" d="M 0 0 
L 0 3.5 
" style="stroke: #000000; stroke-width: 0.8"/>
      </defs>
      <g>
       <use xlink:href="#mc74f61fcfc" x="115.446616" y="390.04" style="stroke: #000000; stroke-width: 0.8"/>
      </g>
     </g>
     <g id="text_1">
      <!-- 1 -->
      <g transform="translate(112.265366 404.638438) scale(0.1 -0.1)">
       <defs>
        <path id="DejaVuSans-31" d="M 794 531 
L 1825 531 
L 1825 4091 
L 703 3866 
L 703 4441 
L 1819 4666 
L 2450 4666 
L 2450 531 
L 3481 531 
L 3481 0 
L 794 0 
L 794 531 
z
" transform="scale(0.015625)"/>
       </defs>
       <use xlink:href="#DejaVuSans-31"/>
      </g>
     </g>
    </g>
    <g id="xtick_2">
     <g id="line2d_2">
      <g>
       <use xlink:href="#mc74f61fcfc" x="221.897121" y="390.04" style="stroke: #000000; stroke-width: 0.8"/>
      </g>
     </g>
     <g id="text_2">
      <!-- 2 -->
      <g transform="translate(218.715871 404.638438) scale(0.1 -0.1)">
       <defs>
        <path id="DejaVuSans-32" d="M 1228 531 
L 3431 531 
L 3431 0 
L 469 0 
L 469 531 
Q 828 903 1448 1529 
Q 2069 2156 2228 2338 
Q 2531 2678 2651 2914 
Q 2772 3150 2772 3378 
Q 2772 3750 2511 3984 
Q 2250 4219 1831 4219 
Q 1534 4219 1204 4116 
Q 875 4013 500 3803 
L 500 4441 
Q 881 4594 1212 4672 
Q 1544 4750 1819 4750 
Q 2544 4750 2975 4387 
Q 3406 4025 3406 3419 
Q 3406 3131 3298 2873 
Q 3191 2616 2906 2266 
Q 2828 2175 2409 1742 
Q 1991 1309 1228 531 
z
" transform="scale(0.015625)"/>
       </defs>
       <use xlink:href="#DejaVuSans-32"/>
      </g>
     </g>
    </g>
    <g id="xtick_3">
     <g id="line2d_3">
      <g>
       <use xlink:href="#mc74f61fcfc" x="328.347626" y="390.04" style="stroke: #000000; stroke-width: 0.8"/>
      </g>
     </g>
     <g id="text_3">
      <!-- 3 -->
      <g transform="translate(325.166376 404.638438) scale(0.1 -0.1)">
       <defs>
        <path id="DejaVuSans-33" d="M 2597 2516 
Q 3050 2419 3304 2112 
Q 3559 1806 3559 1356 
Q 3559 666 3084 287 
Q 2609 -91 1734 -91 
Q 1441 -91 1130 -33 
Q 819 25 488 141 
L 488 750 
Q 750 597 1062 519 
Q 1375 441 1716 441 
Q 2309 441 2620 675 
Q 2931 909 2931 1356 
Q 2931 1769 2642 2001 
Q 2353 2234 1838 2234 
L 1294 2234 
L 1294 2753 
L 1863 2753 
Q 2328 2753 2575 2939 
Q 2822 3125 2822 3475 
Q 2822 3834 2567 4026 
Q 2313 4219 1838 4219 
Q 1578 4219 1281 4162 
Q 984 4106 628 3988 
L 628 4550 
Q 988 4650 1302 4700 
Q 1616 4750 1894 4750 
Q 2613 4750 3031 4423 
Q 3450 4097 3450 3541 
Q 3450 3153 3228 2886 
Q 3006 2619 2597 2516 
z
" transform="scale(0.015625)"/>
       </defs>
       <use xlink:href="#DejaVuSans-33"/>
      </g>
     </g>
    </g>
    <g id="xtick_4">
     <g id="line2d_4">
      <g>
       <use xlink:href="#mc74f61fcfc" x="434.798131" y="390.04" style="stroke: #000000; stroke-width: 0.8"/>
      </g>
     </g>
     <g id="text_4">
      <!-- 4 -->
      <g transform="translate(431.616881 404.638438) scale(0.1 -0.1)">
       <defs>
        <path id="DejaVuSans-34" d="M 2419 4116 
L 825 1625 
L 2419 1625 
L 2419 4116 
z
M 2253 4666 
L 3047 4666 
L 3047 1625 
L 3713 1625 
L 3713 1100 
L 3047 1100 
L 3047 0 
L 2419 0 
L 2419 1100 
L 313 1100 
L 313 1709 
L 2253 4666 
z
" transform="scale(0.015625)"/>
       </defs>
       <use xlink:href="#DejaVuSans-34"/>
      </g>
     </g>
    </g>
    <g id="xtick_5">
     <g id="line2d_5">
      <g>
       <use xlink:href="#mc74f61fcfc" x="541.248636" y="390.04" style="stroke: #000000; stroke-width: 0.8"/>
      </g>
     </g>
     <g id="text_5">
      <!-- 5 -->
      <g transform="translate(538.067386 404.638438) scale(0.1 -0.1)">
       <defs>
        <path id="DejaVuSans-35" d="M 691 4666 
L 3169 4666 
L 3169 4134 
L 1269 4134 
L 1269 2991 
Q 1406 3038 1543 3061 
Q 1681 3084 1819 3084 
Q 2600 3084 3056 2656 
Q 3513 2228 3513 1497 
Q 3513 744 3044 326 
Q 2575 -91 1722 -91 
Q 1428 -91 1123 -41 
Q 819 9 494 109 
L 494 744 
Q 775 591 1075 516 
Q 1375 441 1709 441 
Q 2250 441 2565 725 
Q 2881 1009 2881 1497 
Q 2881 1984 2565 2268 
Q 2250 2553 1709 2553 
Q 1456 2553 1204 2497 
Q 953 2441 691 2322 
L 691 4666 
z
" transform="scale(0.015625)"/>
       </defs>
       <use xlink:href="#DejaVuSans-35"/>
      </g>
     </g>
    </g>
    <g id="text_6">
     <!-- Size (#edges) -->
     <g transform="translate(266.684219 418.316562) scale(0.1 -0.1)">
      <defs>
       <path id="DejaVuSans-53" d="M 3425 4513 
L 3425 3897 
Q 3066 4069 2747 4153 
Q 2428 4238 2131 4238 
Q 1616 4238 1336 4038 
Q 1056 3838 1056 3469 
Q 1056 3159 1242 3001 
Q 1428 2844 1947 2747 
L 2328 2669 
Q 3034 2534 3370 2195 
Q 3706 1856 3706 1288 
Q 3706 609 3251 259 
Q 2797 -91 1919 -91 
Q 1588 -91 1214 -16 
Q 841 59 441 206 
L 441 856 
Q 825 641 1194 531 
Q 1563 422 1919 422 
Q 2459 422 2753 634 
Q 3047 847 3047 1241 
Q 3047 1584 2836 1778 
Q 2625 1972 2144 2069 
L 1759 2144 
Q 1053 2284 737 2584 
Q 422 2884 422 3419 
Q 422 4038 858 4394 
Q 1294 4750 2059 4750 
Q 2388 4750 2728 4690 
Q 3069 4631 3425 4513 
z
" transform="scale(0.015625)"/>
       <path id="DejaVuSans-69" d="M 603 3500 
L 1178 3500 
L 1178 0 
L 603 0 
L 603 3500 
z
M 603 4863 
L 1178 4863 
L 1178 4134 
L 603 4134 
L 603 4863 
z
" transform="scale(0.015625)"/>
       <path id="DejaVuSans-7a" d="M 353 3500 
L 3084 3500 
L 3084 2975 
L 922 459 
L 3084 459 
L 3084 0 
L 275 0 
L 275 525 
L 2438 3041 
L 353 3041 
L 353 3500 
z
" transform="scale(0.015625)"/>
       <path id="DejaVuSans-65" d="M 3597 1894 
L 3597 1613 
L 953 1613 
Q 991 1019 1311 708 
Q 1631 397 2203 397 
Q 2534 397 2845 478 
Q 3156 559 3463 722 
L 3463 178 
Q 3153 47 2828 -22 
Q 2503 -91 2169 -91 
Q 1331 -91 842 396 
Q 353 884 353 1716 
Q 353 2575 817 3079 
Q 1281 3584 2069 3584 
Q 2775 3584 3186 3129 
Q 3597 2675 3597 1894 
z
M 3022 2063 
Q 3016 2534 2758 2815 
Q 2500 3097 2075 3097 
Q 1594 3097 1305 2825 
Q 1016 2553 972 2059 
L 3022 2063 
z
" transform="scale(0.015625)"/>
       <path id="DejaVuSans-20" transform="scale(0.015625)"/>
       <path id="DejaVuSans-28" d="M 1984 4856 
Q 1566 4138 1362 3434 
Q 1159 2731 1159 2009 
Q 1159 1288 1364 580 
Q 1569 -128 1984 -844 
L 1484 -844 
Q 1016 -109 783 600 
Q 550 1309 550 2009 
Q 550 2706 781 3412 
Q 1013 4119 1484 4856 
L 1984 4856 
z
" transform="scale(0.015625)"/>
       <path id="DejaVuSans-23" d="M 3272 2816 
L 2363 2816 
L 2100 1772 
L 3016 1772 
L 3272 2816 
z
M 2803 4594 
L 2478 3297 
L 3391 3297 
L 3719 4594 
L 4219 4594 
L 3897 3297 
L 4872 3297 
L 4872 2816 
L 3775 2816 
L 3519 1772 
L 4513 1772 
L 4513 1294 
L 3397 1294 
L 3072 0 
L 2572 0 
L 2894 1294 
L 1978 1294 
L 1656 0 
L 1153 0 
L 1478 1294 
L 494 1294 
L 494 1772 
L 1594 1772 
L 1856 2816 
L 850 2816 
L 850 3297 
L 1978 3297 
L 2297 4594 
L 2803 4594 
z
" transform="scale(0.015625)"/>
       <path id="DejaVuSans-64" d="M 2906 2969 
L 2906 4863 
L 3481 4863 
L 3481 0 
L 2906 0 
L 2906 525 
Q 2725 213 2448 61 
Q 2172 -91 1784 -91 
Q 1150 -91 751 415 
Q 353 922 353 1747 
Q 353 2572 751 3078 
Q 1150 3584 1784 3584 
Q 2172 3584 2448 3432 
Q 2725 3281 2906 2969 
z
M 947 1747 
Q 947 1113 1208 752 
Q 1469 391 1925 391 
Q 2381 391 2643 752 
Q 2906 1113 2906 1747 
Q 2906 2381 2643 2742 
Q 2381 3103 1925 3103 
Q 1469 3103 1208 2742 
Q 947 2381 947 1747 
z
" transform="scale(0.015625)"/>
       <path id="DejaVuSans-67" d="M 2906 1791 
Q 2906 2416 2648 2759 
Q 2391 3103 1925 3103 
Q 1463 3103 1205 2759 
Q 947 2416 947 1791 
Q 947 1169 1205 825 
Q 1463 481 1925 481 
Q 2391 481 2648 825 
Q 2906 1169 2906 1791 
z
M 3481 434 
Q 3481 -459 3084 -895 
Q 2688 -1331 1869 -1331 
Q 1566 -1331 1297 -1286 
Q 1028 -1241 775 -1147 
L 775 -588 
Q 1028 -725 1275 -790 
Q 1522 -856 1778 -856 
Q 2344 -856 2625 -561 
Q 2906 -266 2906 331 
L 2906 616 
Q 2728 306 2450 153 
Q 2172 0 1784 0 
Q 1141 0 747 490 
Q 353 981 353 1791 
Q 353 2603 747 3093 
Q 1141 3584 1784 3584 
Q 2172 3584 2450 3431 
Q 2728 3278 2906 2969 
L 2906 3500 
L 3481 3500 
L 3481 434 
z
" transform="scale(0.015625)"/>
       <path id="DejaVuSans-73" d="M 2834 3397 
L 2834 2853 
Q 2591 2978 2328 3040 
Q 2066 3103 1784 3103 
Q 1356 3103 1142 2972 
Q 928 2841 928 2578 
Q 928 2378 1081 2264 
Q 1234 2150 1697 2047 
L 1894 2003 
Q 2506 1872 2764 1633 
Q 3022 1394 3022 966 
Q 3022 478 2636 193 
Q 2250 -91 1575 -91 
Q 1294 -91 989 -36 
Q 684 19 347 128 
L 347 722 
Q 666 556 975 473 
Q 1284 391 1588 391 
Q 1994 391 2212 530 
Q 2431 669 2431 922 
Q 2431 1156 2273 1281 
Q 2116 1406 1581 1522 
L 1381 1569 
Q 847 1681 609 1914 
Q 372 2147 372 2553 
Q 372 3047 722 3315 
Q 1072 3584 1716 3584 
Q 2034 3584 2315 3537 
Q 2597 3491 2834 3397 
z
" transform="scale(0.015625)"/>
       <path id="DejaVuSans-29" d="M 513 4856 
L 1013 4856 
Q 1481 4119 1714 3412 
Q 1947 2706 1947 2009 
Q 1947 1309 1714 600 
Q 1481 -109 1013 -844 
L 513 -844 
Q 928 -128 1133 580 
Q 1338 1288 1338 2009 
Q 1338 2731 1133 3434 
Q 928 4138 513 4856 
z
" transform="scale(0.015625)"/>
      </defs>
      <use xlink:href="#DejaVuSans-53"/>
      <use xlink:href="#DejaVuSans-69" transform="translate(63.476562 0)"/>
      <use xlink:href="#DejaVuSans-7a" transform="translate(91.259766 0)"/>
      <use xlink:href="#DejaVuSans-65" transform="translate(143.75 0)"/>
      <use xlink:href="#DejaVuSans-20" transform="translate(205.273438 0)"/>
      <use xlink:href="#DejaVuSans-28" transform="translate(237.060547 0)"/>
      <use xlink:href="#DejaVuSans-23" transform="translate(276.074219 0)"/>
      <use xlink:href="#DejaVuSans-65" transform="translate(359.863281 0)"/>
      <use xlink:href="#DejaVuSans-64" transform="translate(421.386719 0)"/>
      <use xlink:href="#DejaVuSans-67" transform="translate(484.863281 0)"/>
      <use xlink:href="#DejaVuSans-65" transform="translate(548.339844 0)"/>
      <use xlink:href="#DejaVuSans-73" transform="translate(609.863281 0)"/>
      <use xlink:href="#DejaVuSans-29" transform="translate(661.962891 0)"/>
     </g>
    </g>
    <g id="text_7">
     <!-- 1e6 -->
     <g transform="translate(546.321875 417.316562) scale(0.1 -0.1)">
      <defs>
       <path id="DejaVuSans-36" d="M 2113 2584 
Q 1688 2584 1439 2293 
Q 1191 2003 1191 1497 
Q 1191 994 1439 701 
Q 1688 409 2113 409 
Q 2538 409 2786 701 
Q 3034 994 3034 1497 
Q 3034 2003 2786 2293 
Q 2538 2584 2113 2584 
z
M 3366 4563 
L 3366 3988 
Q 3128 4100 2886 4159 
Q 2644 4219 2406 4219 
Q 1781 4219 1451 3797 
Q 1122 3375 1075 2522 
Q 1259 2794 1537 2939 
Q 1816 3084 2150 3084 
Q 2853 3084 3261 2657 
Q 3669 2231 3669 1497 
Q 3669 778 3244 343 
Q 2819 -91 2113 -91 
Q 1303 -91 875 529 
Q 447 1150 447 2328 
Q 447 3434 972 4092 
Q 1497 4750 2381 4750 
Q 2619 4750 2861 4703 
Q 3103 4656 3366 4563 
z
" transform="scale(0.015625)"/>
      </defs>
      <use xlink:href="#DejaVuSans-31"/>
      <use xlink:href="#DejaVuSans-65" transform="translate(63.623047 0)"/>
      <use xlink:href="#DejaVuSans-36" transform="translate(125.146484 0)"/>
     </g>
    </g>
   </g>
   <g id="matplotlib.axis_2">
    <g id="ytick_1">
     <g id="line2d_6">
      <defs>
       <path id="m7eb1c47a8f" d="M 0 0 
L -3.5 0 
" style="stroke: #000000; stroke-width: 0.8"/>
      </defs>
      <g>
       <use xlink:href="#m7eb1c47a8f" x="38.27" y="355.723514" style="stroke: #000000; stroke-width: 0.8"/>
      </g>
     </g>
     <g id="text_8">
      <!-- 1 -->
      <g transform="translate(24.9075 359.522732) scale(0.1 -0.1)">
       <use xlink:href="#DejaVuSans-31"/>
      </g>
     </g>
    </g>
    <g id="ytick_2">
     <g id="line2d_7">
      <g>
       <use xlink:href="#m7eb1c47a8f" x="38.27" y="313.718373" style="stroke: #000000; stroke-width: 0.8"/>
      </g>
     </g>
     <g id="text_9">
      <!-- 2 -->
      <g transform="translate(24.9075 317.517591) scale(0.1 -0.1)">
       <use xlink:href="#DejaVuSans-32"/>
      </g>
     </g>
    </g>
    <g id="ytick_3">
     <g id="line2d_8">
      <g>
       <use xlink:href="#m7eb1c47a8f" x="38.27" y="271.713232" style="stroke: #000000; stroke-width: 0.8"/>
      </g>
     </g>
     <g id="text_10">
      <!-- 3 -->
      <g transform="translate(24.9075 275.51245) scale(0.1 -0.1)">
       <use xlink:href="#DejaVuSans-33"/>
      </g>
     </g>
    </g>
    <g id="ytick_4">
     <g id="line2d_9">
      <g>
       <use xlink:href="#m7eb1c47a8f" x="38.27" y="229.708091" style="stroke: #000000; stroke-width: 0.8"/>
      </g>
     </g>
     <g id="text_11">
      <!-- 4 -->
      <g transform="translate(24.9075 233.507309) scale(0.1 -0.1)">
       <use xlink:href="#DejaVuSans-34"/>
      </g>
     </g>
    </g>
    <g id="ytick_5">
     <g id="line2d_10">
      <g>
       <use xlink:href="#m7eb1c47a8f" x="38.27" y="187.70295" style="stroke: #000000; stroke-width: 0.8"/>
      </g>
     </g>
     <g id="text_12">
      <!-- 5 -->
      <g transform="translate(24.9075 191.502168) scale(0.1 -0.1)">
       <use xlink:href="#DejaVuSans-35"/>
      </g>
     </g>
    </g>
    <g id="ytick_6">
     <g id="line2d_11">
      <g>
       <use xlink:href="#m7eb1c47a8f" x="38.27" y="145.697809" style="stroke: #000000; stroke-width: 0.8"/>
      </g>
     </g>
     <g id="text_13">
      <!-- 6 -->
      <g transform="translate(24.9075 149.497027) scale(0.1 -0.1)">
       <use xlink:href="#DejaVuSans-36"/>
      </g>
     </g>
    </g>
    <g id="ytick_7">
     <g id="line2d_12">
      <g>
       <use xlink:href="#m7eb1c47a8f" x="38.27" y="103.692668" style="stroke: #000000; stroke-width: 0.8"/>
      </g>
     </g>
     <g id="text_14">
      <!-- 7 -->
      <g transform="translate(24.9075 107.491886) scale(0.1 -0.1)">
       <defs>
        <path id="DejaVuSans-37" d="M 525 4666 
L 3525 4666 
L 3525 4397 
L 1831 0 
L 1172 0 
L 2766 4134 
L 525 4134 
L 525 4666 
z
" transform="scale(0.015625)"/>
       </defs>
       <use xlink:href="#DejaVuSans-37"/>
      </g>
     </g>
    </g>
    <g id="ytick_8">
     <g id="line2d_13">
      <g>
       <use xlink:href="#m7eb1c47a8f" x="38.27" y="61.687526" style="stroke: #000000; stroke-width: 0.8"/>
      </g>
     </g>
     <g id="text_15">
      <!-- 8 -->
      <g transform="translate(24.9075 65.486745) scale(0.1 -0.1)">
       <defs>
        <path id="DejaVuSans-38" d="M 2034 2216 
Q 1584 2216 1326 1975 
Q 1069 1734 1069 1313 
Q 1069 891 1326 650 
Q 1584 409 2034 409 
Q 2484 409 2743 651 
Q 3003 894 3003 1313 
Q 3003 1734 2745 1975 
Q 2488 2216 2034 2216 
z
M 1403 2484 
Q 997 2584 770 2862 
Q 544 3141 544 3541 
Q 544 4100 942 4425 
Q 1341 4750 2034 4750 
Q 2731 4750 3128 4425 
Q 3525 4100 3525 3541 
Q 3525 3141 3298 2862 
Q 3072 2584 2669 2484 
Q 3125 2378 3379 2068 
Q 3634 1759 3634 1313 
Q 3634 634 3220 271 
Q 2806 -91 2034 -91 
Q 1263 -91 848 271 
Q 434 634 434 1313 
Q 434 1759 690 2068 
Q 947 2378 1403 2484 
z
M 1172 3481 
Q 1172 3119 1398 2916 
Q 1625 2713 2034 2713 
Q 2441 2713 2670 2916 
Q 2900 3119 2900 3481 
Q 2900 3844 2670 4047 
Q 2441 4250 2034 4250 
Q 1625 4250 1398 4047 
Q 1172 3844 1172 3481 
z
" transform="scale(0.015625)"/>
       </defs>
       <use xlink:href="#DejaVuSans-38"/>
      </g>
     </g>
    </g>
    <g id="text_16">
     <!-- Seconds spent -->
     <g transform="translate(18.827813 245.040469) rotate(-90) scale(0.1 -0.1)">
      <defs>
       <path id="DejaVuSans-63" d="M 3122 3366 
L 3122 2828 
Q 2878 2963 2633 3030 
Q 2388 3097 2138 3097 
Q 1578 3097 1268 2742 
Q 959 2388 959 1747 
Q 959 1106 1268 751 
Q 1578 397 2138 397 
Q 2388 397 2633 464 
Q 2878 531 3122 666 
L 3122 134 
Q 2881 22 2623 -34 
Q 2366 -91 2075 -91 
Q 1284 -91 818 406 
Q 353 903 353 1747 
Q 353 2603 823 3093 
Q 1294 3584 2113 3584 
Q 2378 3584 2631 3529 
Q 2884 3475 3122 3366 
z
" transform="scale(0.015625)"/>
       <path id="DejaVuSans-6f" d="M 1959 3097 
Q 1497 3097 1228 2736 
Q 959 2375 959 1747 
Q 959 1119 1226 758 
Q 1494 397 1959 397 
Q 2419 397 2687 759 
Q 2956 1122 2956 1747 
Q 2956 2369 2687 2733 
Q 2419 3097 1959 3097 
z
M 1959 3584 
Q 2709 3584 3137 3096 
Q 3566 2609 3566 1747 
Q 3566 888 3137 398 
Q 2709 -91 1959 -91 
Q 1206 -91 779 398 
Q 353 888 353 1747 
Q 353 2609 779 3096 
Q 1206 3584 1959 3584 
z
" transform="scale(0.015625)"/>
       <path id="DejaVuSans-6e" d="M 3513 2113 
L 3513 0 
L 2938 0 
L 2938 2094 
Q 2938 2591 2744 2837 
Q 2550 3084 2163 3084 
Q 1697 3084 1428 2787 
Q 1159 2491 1159 1978 
L 1159 0 
L 581 0 
L 581 3500 
L 1159 3500 
L 1159 2956 
Q 1366 3272 1645 3428 
Q 1925 3584 2291 3584 
Q 2894 3584 3203 3211 
Q 3513 2838 3513 2113 
z
" transform="scale(0.015625)"/>
       <path id="DejaVuSans-70" d="M 1159 525 
L 1159 -1331 
L 581 -1331 
L 581 3500 
L 1159 3500 
L 1159 2969 
Q 1341 3281 1617 3432 
Q 1894 3584 2278 3584 
Q 2916 3584 3314 3078 
Q 3713 2572 3713 1747 
Q 3713 922 3314 415 
Q 2916 -91 2278 -91 
Q 1894 -91 1617 61 
Q 1341 213 1159 525 
z
M 3116 1747 
Q 3116 2381 2855 2742 
Q 2594 3103 2138 3103 
Q 1681 3103 1420 2742 
Q 1159 2381 1159 1747 
Q 1159 1113 1420 752 
Q 1681 391 2138 391 
Q 2594 391 2855 752 
Q 3116 1113 3116 1747 
z
" transform="scale(0.015625)"/>
       <path id="DejaVuSans-74" d="M 1172 4494 
L 1172 3500 
L 2356 3500 
L 2356 3053 
L 1172 3053 
L 1172 1153 
Q 1172 725 1289 603 
Q 1406 481 1766 481 
L 2356 481 
L 2356 0 
L 1766 0 
Q 1100 0 847 248 
Q 594 497 594 1153 
L 594 3053 
L 172 3053 
L 172 3500 
L 594 3500 
L 594 4494 
L 1172 4494 
z
" transform="scale(0.015625)"/>
      </defs>
      <use xlink:href="#DejaVuSans-53"/>
      <use xlink:href="#DejaVuSans-65" transform="translate(63.476562 0)"/>
      <use xlink:href="#DejaVuSans-63" transform="translate(125 0)"/>
      <use xlink:href="#DejaVuSans-6f" transform="translate(179.980469 0)"/>
      <use xlink:href="#DejaVuSans-6e" transform="translate(241.162109 0)"/>
      <use xlink:href="#DejaVuSans-64" transform="translate(304.541016 0)"/>
      <use xlink:href="#DejaVuSans-73" transform="translate(368.017578 0)"/>
      <use xlink:href="#DejaVuSans-20" transform="translate(420.117188 0)"/>
      <use xlink:href="#DejaVuSans-73" transform="translate(451.904297 0)"/>
      <use xlink:href="#DejaVuSans-70" transform="translate(504.003906 0)"/>
      <use xlink:href="#DejaVuSans-65" transform="translate(567.480469 0)"/>
      <use xlink:href="#DejaVuSans-6e" transform="translate(629.003906 0)"/>
      <use xlink:href="#DejaVuSans-74" transform="translate(692.382812 0)"/>
     </g>
    </g>
   </g>
   <g id="LineCollection_1">
    <path d="M 62.221364 371.005572 
L 62.221364 370.882707 
" clip-path="url(#p60b2fd3762)" style="fill: none; stroke: #1f77b4; stroke-width: 1.5"/>
    <path d="M 88.83399 360.855744 
L 88.83399 360.05647 
" clip-path="url(#p60b2fd3762)" style="fill: none; stroke: #1f77b4; stroke-width: 1.5"/>
    <path d="M 115.446616 350.672605 
L 115.446616 349.273918 
" clip-path="url(#p60b2fd3762)" style="fill: none; stroke: #1f77b4; stroke-width: 1.5"/>
    <path d="M 142.059242 339.050329 
L 142.059242 338.7447 
" clip-path="url(#p60b2fd3762)" style="fill: none; stroke: #1f77b4; stroke-width: 1.5"/>
    <path d="M 168.671869 330.260459 
L 168.671869 329.118045 
" clip-path="url(#p60b2fd3762)" style="fill: none; stroke: #1f77b4; stroke-width: 1.5"/>
    <path d="M 195.284495 318.918231 
L 195.284495 318.683758 
" clip-path="url(#p60b2fd3762)" style="fill: none; stroke: #1f77b4; stroke-width: 1.5"/>
    <path d="M 221.897121 308.633902 
L 221.897121 302.21056 
" clip-path="url(#p60b2fd3762)" style="fill: none; stroke: #1f77b4; stroke-width: 1.5"/>
    <path d="M 328.347626 260.67407 
L 328.347626 256.062326 
" clip-path="url(#p60b2fd3762)" style="fill: none; stroke: #1f77b4; stroke-width: 1.5"/>
    <path d="M 434.798131 196.143421 
L 434.798131 191.561122 
" clip-path="url(#p60b2fd3762)" style="fill: none; stroke: #1f77b4; stroke-width: 1.5"/>
    <path d="M 541.248636 123.900711 
L 541.248636 123.841189 
" clip-path="url(#p60b2fd3762)" style="fill: none; stroke: #1f77b4; stroke-width: 1.5"/>
   </g>
   <g id="line2d_14">
    <defs>
     <path id="md8547b9e7e" d="M 3 0 
L -3 -0 
" style="stroke: #1f77b4"/>
    </defs>
    <g clip-path="url(#p60b2fd3762)">
     <use xlink:href="#md8547b9e7e" x="62.221364" y="371.005572" style="fill: #1f77b4; stroke: #1f77b4"/>
     <use xlink:href="#md8547b9e7e" x="88.83399" y="360.855744" style="fill: #1f77b4; stroke: #1f77b4"/>
     <use xlink:href="#md8547b9e7e" x="115.446616" y="350.672605" style="fill: #1f77b4; stroke: #1f77b4"/>
     <use xlink:href="#md8547b9e7e" x="142.059242" y="339.050329" style="fill: #1f77b4; stroke: #1f77b4"/>
     <use xlink:href="#md8547b9e7e" x="168.671869" y="330.260459" style="fill: #1f77b4; stroke: #1f77b4"/>
     <use xlink:href="#md8547b9e7e" x="195.284495" y="318.918231" style="fill: #1f77b4; stroke: #1f77b4"/>
     <use xlink:href="#md8547b9e7e" x="221.897121" y="308.633902" style="fill: #1f77b4; stroke: #1f77b4"/>
     <use xlink:href="#md8547b9e7e" x="328.347626" y="260.67407" style="fill: #1f77b4; stroke: #1f77b4"/>
     <use xlink:href="#md8547b9e7e" x="434.798131" y="196.143421" style="fill: #1f77b4; stroke: #1f77b4"/>
     <use xlink:href="#md8547b9e7e" x="541.248636" y="123.900711" style="fill: #1f77b4; stroke: #1f77b4"/>
    </g>
   </g>
   <g id="line2d_15">
    <g clip-path="url(#p60b2fd3762)">
     <use xlink:href="#md8547b9e7e" x="62.221364" y="370.882707" style="fill: #1f77b4; stroke: #1f77b4"/>
     <use xlink:href="#md8547b9e7e" x="88.83399" y="360.05647" style="fill: #1f77b4; stroke: #1f77b4"/>
     <use xlink:href="#md8547b9e7e" x="115.446616" y="349.273918" style="fill: #1f77b4; stroke: #1f77b4"/>
     <use xlink:href="#md8547b9e7e" x="142.059242" y="338.7447" style="fill: #1f77b4; stroke: #1f77b4"/>
     <use xlink:href="#md8547b9e7e" x="168.671869" y="329.118045" style="fill: #1f77b4; stroke: #1f77b4"/>
     <use xlink:href="#md8547b9e7e" x="195.284495" y="318.683758" style="fill: #1f77b4; stroke: #1f77b4"/>
     <use xlink:href="#md8547b9e7e" x="221.897121" y="302.21056" style="fill: #1f77b4; stroke: #1f77b4"/>
     <use xlink:href="#md8547b9e7e" x="328.347626" y="256.062326" style="fill: #1f77b4; stroke: #1f77b4"/>
     <use xlink:href="#md8547b9e7e" x="434.798131" y="191.561122" style="fill: #1f77b4; stroke: #1f77b4"/>
     <use xlink:href="#md8547b9e7e" x="541.248636" y="123.841189" style="fill: #1f77b4; stroke: #1f77b4"/>
    </g>
   </g>
   <g id="LineCollection_2">
    <path d="M 62.221364 329.814155 
L 62.221364 328.524681 
" clip-path="url(#p60b2fd3762)" style="fill: none; stroke: #ff7f0e; stroke-width: 1.5"/>
    <path d="M 88.83399 302.030232 
L 88.83399 299.082983 
" clip-path="url(#p60b2fd3762)" style="fill: none; stroke: #ff7f0e; stroke-width: 1.5"/>
    <path d="M 115.446616 278.420865 
L 115.446616 275.392336 
" clip-path="url(#p60b2fd3762)" style="fill: none; stroke: #ff7f0e; stroke-width: 1.5"/>
    <path d="M 142.059242 254.568035 
L 142.059242 252.887451 
" clip-path="url(#p60b2fd3762)" style="fill: none; stroke: #ff7f0e; stroke-width: 1.5"/>
    <path d="M 168.671869 236.441347 
L 168.671869 235.232649 
" clip-path="url(#p60b2fd3762)" style="fill: none; stroke: #ff7f0e; stroke-width: 1.5"/>
    <path d="M 195.284495 220.379589 
L 195.284495 211.419556 
" clip-path="url(#p60b2fd3762)" style="fill: none; stroke: #ff7f0e; stroke-width: 1.5"/>
    <path d="M 221.897121 194.92691 
L 221.897121 181.972776 
" clip-path="url(#p60b2fd3762)" style="fill: none; stroke: #ff7f0e; stroke-width: 1.5"/>
    <path d="M 328.347626 146.264416 
L 328.347626 143.122431 
" clip-path="url(#p60b2fd3762)" style="fill: none; stroke: #ff7f0e; stroke-width: 1.5"/>
    <path d="M 434.798131 98.43585 
L 434.798131 86.610815 
" clip-path="url(#p60b2fd3762)" style="fill: none; stroke: #ff7f0e; stroke-width: 1.5"/>
    <path d="M 541.248636 44.747483 
L 541.248636 43.387273 
" clip-path="url(#p60b2fd3762)" style="fill: none; stroke: #ff7f0e; stroke-width: 1.5"/>
   </g>
   <g id="line2d_16">
    <defs>
     <path id="m7f04267d81" d="M 3 0 
L -3 -0 
" style="stroke: #ff7f0e"/>
    </defs>
    <g clip-path="url(#p60b2fd3762)">
     <use xlink:href="#m7f04267d81" x="62.221364" y="329.814155" style="fill: #ff7f0e; stroke: #ff7f0e"/>
     <use xlink:href="#m7f04267d81" x="88.83399" y="302.030232" style="fill: #ff7f0e; stroke: #ff7f0e"/>
     <use xlink:href="#m7f04267d81" x="115.446616" y="278.420865" style="fill: #ff7f0e; stroke: #ff7f0e"/>
     <use xlink:href="#m7f04267d81" x="142.059242" y="254.568035" style="fill: #ff7f0e; stroke: #ff7f0e"/>
     <use xlink:href="#m7f04267d81" x="168.671869" y="236.441347" style="fill: #ff7f0e; stroke: #ff7f0e"/>
     <use xlink:href="#m7f04267d81" x="195.284495" y="220.379589" style="fill: #ff7f0e; stroke: #ff7f0e"/>
     <use xlink:href="#m7f04267d81" x="221.897121" y="194.92691" style="fill: #ff7f0e; stroke: #ff7f0e"/>
     <use xlink:href="#m7f04267d81" x="328.347626" y="146.264416" style="fill: #ff7f0e; stroke: #ff7f0e"/>
     <use xlink:href="#m7f04267d81" x="434.798131" y="98.43585" style="fill: #ff7f0e; stroke: #ff7f0e"/>
     <use xlink:href="#m7f04267d81" x="541.248636" y="44.747483" style="fill: #ff7f0e; stroke: #ff7f0e"/>
    </g>
   </g>
   <g id="line2d_17">
    <g clip-path="url(#p60b2fd3762)">
     <use xlink:href="#m7f04267d81" x="62.221364" y="328.524681" style="fill: #ff7f0e; stroke: #ff7f0e"/>
     <use xlink:href="#m7f04267d81" x="88.83399" y="299.082983" style="fill: #ff7f0e; stroke: #ff7f0e"/>
     <use xlink:href="#m7f04267d81" x="115.446616" y="275.392336" style="fill: #ff7f0e; stroke: #ff7f0e"/>
     <use xlink:href="#m7f04267d81" x="142.059242" y="252.887451" style="fill: #ff7f0e; stroke: #ff7f0e"/>
     <use xlink:href="#m7f04267d81" x="168.671869" y="235.232649" style="fill: #ff7f0e; stroke: #ff7f0e"/>
     <use xlink:href="#m7f04267d81" x="195.284495" y="211.419556" style="fill: #ff7f0e; stroke: #ff7f0e"/>
     <use xlink:href="#m7f04267d81" x="221.897121" y="181.972776" style="fill: #ff7f0e; stroke: #ff7f0e"/>
     <use xlink:href="#m7f04267d81" x="328.347626" y="143.122431" style="fill: #ff7f0e; stroke: #ff7f0e"/>
     <use xlink:href="#m7f04267d81" x="434.798131" y="86.610815" style="fill: #ff7f0e; stroke: #ff7f0e"/>
     <use xlink:href="#m7f04267d81" x="541.248636" y="43.387273" style="fill: #ff7f0e; stroke: #ff7f0e"/>
    </g>
   </g>
   <g id="LineCollection_3">
    <path d="M 62.221364 366.333676 
L 62.221364 366.240887 
" clip-path="url(#p60b2fd3762)" style="fill: none; stroke: #2ca02c; stroke-width: 1.5"/>
    <path d="M 88.83399 354.471886 
L 88.83399 354.203894 
" clip-path="url(#p60b2fd3762)" style="fill: none; stroke: #2ca02c; stroke-width: 1.5"/>
    <path d="M 115.446616 346.283866 
L 115.446616 345.818155 
" clip-path="url(#p60b2fd3762)" style="fill: none; stroke: #2ca02c; stroke-width: 1.5"/>
    <path d="M 142.059242 338.693453 
L 142.059242 337.310308 
" clip-path="url(#p60b2fd3762)" style="fill: none; stroke: #2ca02c; stroke-width: 1.5"/>
    <path d="M 168.671869 336.581813 
L 168.671869 335.661648 
" clip-path="url(#p60b2fd3762)" style="fill: none; stroke: #2ca02c; stroke-width: 1.5"/>
    <path d="M 195.284495 331.789908 
L 195.284495 330.570457 
" clip-path="url(#p60b2fd3762)" style="fill: none; stroke: #2ca02c; stroke-width: 1.5"/>
    <path d="M 221.897121 324.770807 
L 221.897121 324.760684 
" clip-path="url(#p60b2fd3762)" style="fill: none; stroke: #2ca02c; stroke-width: 1.5"/>
    <path d="M 328.347626 294.847311 
L 328.347626 291.73767 
" clip-path="url(#p60b2fd3762)" style="fill: none; stroke: #2ca02c; stroke-width: 1.5"/>
    <path d="M 434.798131 257.515914 
L 434.798131 252.709182 
" clip-path="url(#p60b2fd3762)" style="fill: none; stroke: #2ca02c; stroke-width: 1.5"/>
    <path d="M 541.248636 218.154577 
L 541.248636 212.379374 
" clip-path="url(#p60b2fd3762)" style="fill: none; stroke: #2ca02c; stroke-width: 1.5"/>
   </g>
   <g id="line2d_18">
    <defs>
     <path id="mf3fc7103a7" d="M 3 0 
L -3 -0 
" style="stroke: #2ca02c"/>
    </defs>
    <g clip-path="url(#p60b2fd3762)">
     <use xlink:href="#mf3fc7103a7" x="62.221364" y="366.333676" style="fill: #2ca02c; stroke: #2ca02c"/>
     <use xlink:href="#mf3fc7103a7" x="88.83399" y="354.471886" style="fill: #2ca02c; stroke: #2ca02c"/>
     <use xlink:href="#mf3fc7103a7" x="115.446616" y="346.283866" style="fill: #2ca02c; stroke: #2ca02c"/>
     <use xlink:href="#mf3fc7103a7" x="142.059242" y="338.693453" style="fill: #2ca02c; stroke: #2ca02c"/>
     <use xlink:href="#mf3fc7103a7" x="168.671869" y="336.581813" style="fill: #2ca02c; stroke: #2ca02c"/>
     <use xlink:href="#mf3fc7103a7" x="195.284495" y="331.789908" style="fill: #2ca02c; stroke: #2ca02c"/>
     <use xlink:href="#mf3fc7103a7" x="221.897121" y="324.770807" style="fill: #2ca02c; stroke: #2ca02c"/>
     <use xlink:href="#mf3fc7103a7" x="328.347626" y="294.847311" style="fill: #2ca02c; stroke: #2ca02c"/>
     <use xlink:href="#mf3fc7103a7" x="434.798131" y="257.515914" style="fill: #2ca02c; stroke: #2ca02c"/>
     <use xlink:href="#mf3fc7103a7" x="541.248636" y="218.154577" style="fill: #2ca02c; stroke: #2ca02c"/>
    </g>
   </g>
   <g id="line2d_19">
    <g clip-path="url(#p60b2fd3762)">
     <use xlink:href="#mf3fc7103a7" x="62.221364" y="366.240887" style="fill: #2ca02c; stroke: #2ca02c"/>
     <use xlink:href="#mf3fc7103a7" x="88.83399" y="354.203894" style="fill: #2ca02c; stroke: #2ca02c"/>
     <use xlink:href="#mf3fc7103a7" x="115.446616" y="345.818155" style="fill: #2ca02c; stroke: #2ca02c"/>
     <use xlink:href="#mf3fc7103a7" x="142.059242" y="337.310308" style="fill: #2ca02c; stroke: #2ca02c"/>
     <use xlink:href="#mf3fc7103a7" x="168.671869" y="335.661648" style="fill: #2ca02c; stroke: #2ca02c"/>
     <use xlink:href="#mf3fc7103a7" x="195.284495" y="330.570457" style="fill: #2ca02c; stroke: #2ca02c"/>
     <use xlink:href="#mf3fc7103a7" x="221.897121" y="324.760684" style="fill: #2ca02c; stroke: #2ca02c"/>
     <use xlink:href="#mf3fc7103a7" x="328.347626" y="291.73767" style="fill: #2ca02c; stroke: #2ca02c"/>
     <use xlink:href="#mf3fc7103a7" x="434.798131" y="252.709182" style="fill: #2ca02c; stroke: #2ca02c"/>
     <use xlink:href="#mf3fc7103a7" x="541.248636" y="212.379374" style="fill: #2ca02c; stroke: #2ca02c"/>
    </g>
   </g>
   <g id="LineCollection_4">
    <path d="M 62.221364 372.307815 
L 62.221364 371.681267 
" clip-path="url(#p60b2fd3762)" style="fill: none; stroke: #d62728; stroke-width: 1.5"/>
    <path d="M 88.83399 362.945079 
L 88.83399 361.824928 
" clip-path="url(#p60b2fd3762)" style="fill: none; stroke: #d62728; stroke-width: 1.5"/>
    <path d="M 115.446616 354.785581 
L 115.446616 354.43593 
" clip-path="url(#p60b2fd3762)" style="fill: none; stroke: #d62728; stroke-width: 1.5"/>
    <path d="M 142.059242 348.201317 
L 142.059242 348.052451 
" clip-path="url(#p60b2fd3762)" style="fill: none; stroke: #d62728; stroke-width: 1.5"/>
    <path d="M 168.671869 343.76843 
L 168.671869 342.39209 
" clip-path="url(#p60b2fd3762)" style="fill: none; stroke: #d62728; stroke-width: 1.5"/>
    <path d="M 195.284495 337.809791 
L 195.284495 337.445691 
" clip-path="url(#p60b2fd3762)" style="fill: none; stroke: #d62728; stroke-width: 1.5"/>
    <path d="M 221.897121 330.761454 
L 221.897121 329.979445 
" clip-path="url(#p60b2fd3762)" style="fill: none; stroke: #d62728; stroke-width: 1.5"/>
    <path d="M 328.347626 298.278501 
L 328.347626 297.184015 
" clip-path="url(#p60b2fd3762)" style="fill: none; stroke: #d62728; stroke-width: 1.5"/>
    <path d="M 434.798131 261.98085 
L 434.798131 261.677573 
" clip-path="url(#p60b2fd3762)" style="fill: none; stroke: #d62728; stroke-width: 1.5"/>
    <path d="M 541.248636 223.815987 
L 541.248636 223.043723 
" clip-path="url(#p60b2fd3762)" style="fill: none; stroke: #d62728; stroke-width: 1.5"/>
   </g>
   <g id="line2d_20">
    <defs>
     <path id="mf91cc8dc79" d="M 3 0 
L -3 -0 
" style="stroke: #d62728"/>
    </defs>
    <g clip-path="url(#p60b2fd3762)">
     <use xlink:href="#mf91cc8dc79" x="62.221364" y="372.307815" style="fill: #d62728; stroke: #d62728"/>
     <use xlink:href="#mf91cc8dc79" x="88.83399" y="362.945079" style="fill: #d62728; stroke: #d62728"/>
     <use xlink:href="#mf91cc8dc79" x="115.446616" y="354.785581" style="fill: #d62728; stroke: #d62728"/>
     <use xlink:href="#mf91cc8dc79" x="142.059242" y="348.201317" style="fill: #d62728; stroke: #d62728"/>
     <use xlink:href="#mf91cc8dc79" x="168.671869" y="343.76843" style="fill: #d62728; stroke: #d62728"/>
     <use xlink:href="#mf91cc8dc79" x="195.284495" y="337.809791" style="fill: #d62728; stroke: #d62728"/>
     <use xlink:href="#mf91cc8dc79" x="221.897121" y="330.761454" style="fill: #d62728; stroke: #d62728"/>
     <use xlink:href="#mf91cc8dc79" x="328.347626" y="298.278501" style="fill: #d62728; stroke: #d62728"/>
     <use xlink:href="#mf91cc8dc79" x="434.798131" y="261.98085" style="fill: #d62728; stroke: #d62728"/>
     <use xlink:href="#mf91cc8dc79" x="541.248636" y="223.815987" style="fill: #d62728; stroke: #d62728"/>
    </g>
   </g>
   <g id="line2d_21">
    <g clip-path="url(#p60b2fd3762)">
     <use xlink:href="#mf91cc8dc79" x="62.221364" y="371.681267" style="fill: #d62728; stroke: #d62728"/>
     <use xlink:href="#mf91cc8dc79" x="88.83399" y="361.824928" style="fill: #d62728; stroke: #d62728"/>
     <use xlink:href="#mf91cc8dc79" x="115.446616" y="354.43593" style="fill: #d62728; stroke: #d62728"/>
     <use xlink:href="#mf91cc8dc79" x="142.059242" y="348.052451" style="fill: #d62728; stroke: #d62728"/>
     <use xlink:href="#mf91cc8dc79" x="168.671869" y="342.39209" style="fill: #d62728; stroke: #d62728"/>
     <use xlink:href="#mf91cc8dc79" x="195.284495" y="337.445691" style="fill: #d62728; stroke: #d62728"/>
     <use xlink:href="#mf91cc8dc79" x="221.897121" y="329.979445" style="fill: #d62728; stroke: #d62728"/>
     <use xlink:href="#mf91cc8dc79" x="328.347626" y="297.184015" style="fill: #d62728; stroke: #d62728"/>
     <use xlink:href="#mf91cc8dc79" x="434.798131" y="261.677573" style="fill: #d62728; stroke: #d62728"/>
     <use xlink:href="#mf91cc8dc79" x="541.248636" y="223.043723" style="fill: #d62728; stroke: #d62728"/>
    </g>
   </g>
   <g id="LineCollection_5">
    <path d="M 62.221364 373.532727 
L 62.221364 373.010813 
" clip-path="url(#p60b2fd3762)" style="fill: none; stroke: #9467bd; stroke-width: 1.5"/>
    <path d="M 88.83399 362.780293 
L 88.83399 362.09603 
" clip-path="url(#p60b2fd3762)" style="fill: none; stroke: #9467bd; stroke-width: 1.5"/>
    <path d="M 115.446616 355.503827 
L 115.446616 354.831114 
" clip-path="url(#p60b2fd3762)" style="fill: none; stroke: #9467bd; stroke-width: 1.5"/>
    <path d="M 142.059242 351.526444 
L 142.059242 350.625182 
" clip-path="url(#p60b2fd3762)" style="fill: none; stroke: #9467bd; stroke-width: 1.5"/>
    <path d="M 168.671869 348.430497 
L 168.671869 348.404538 
" clip-path="url(#p60b2fd3762)" style="fill: none; stroke: #9467bd; stroke-width: 1.5"/>
    <path d="M 195.284495 342.888255 
L 195.284495 342.792945 
" clip-path="url(#p60b2fd3762)" style="fill: none; stroke: #9467bd; stroke-width: 1.5"/>
    <path d="M 221.897121 336.18583 
L 221.897121 336.182008 
" clip-path="url(#p60b2fd3762)" style="fill: none; stroke: #9467bd; stroke-width: 1.5"/>
    <path d="M 328.347626 304.851801 
L 328.347626 304.769093 
" clip-path="url(#p60b2fd3762)" style="fill: none; stroke: #9467bd; stroke-width: 1.5"/>
    <path d="M 434.798131 274.333512 
L 434.798131 270.871491 
" clip-path="url(#p60b2fd3762)" style="fill: none; stroke: #9467bd; stroke-width: 1.5"/>
    <path d="M 541.248636 235.21425 
L 541.248636 230.598264 
" clip-path="url(#p60b2fd3762)" style="fill: none; stroke: #9467bd; stroke-width: 1.5"/>
   </g>
   <g id="line2d_22">
    <defs>
     <path id="m0cb540596a" d="M 3 0 
L -3 -0 
" style="stroke: #9467bd"/>
    </defs>
    <g clip-path="url(#p60b2fd3762)">
     <use xlink:href="#m0cb540596a" x="62.221364" y="373.532727" style="fill: #9467bd; stroke: #9467bd"/>
     <use xlink:href="#m0cb540596a" x="88.83399" y="362.780293" style="fill: #9467bd; stroke: #9467bd"/>
     <use xlink:href="#m0cb540596a" x="115.446616" y="355.503827" style="fill: #9467bd; stroke: #9467bd"/>
     <use xlink:href="#m0cb540596a" x="142.059242" y="351.526444" style="fill: #9467bd; stroke: #9467bd"/>
     <use xlink:href="#m0cb540596a" x="168.671869" y="348.430497" style="fill: #9467bd; stroke: #9467bd"/>
     <use xlink:href="#m0cb540596a" x="195.284495" y="342.888255" style="fill: #9467bd; stroke: #9467bd"/>
     <use xlink:href="#m0cb540596a" x="221.897121" y="336.18583" style="fill: #9467bd; stroke: #9467bd"/>
     <use xlink:href="#m0cb540596a" x="328.347626" y="304.851801" style="fill: #9467bd; stroke: #9467bd"/>
     <use xlink:href="#m0cb540596a" x="434.798131" y="274.333512" style="fill: #9467bd; stroke: #9467bd"/>
     <use xlink:href="#m0cb540596a" x="541.248636" y="235.21425" style="fill: #9467bd; stroke: #9467bd"/>
    </g>
   </g>
   <g id="line2d_23">
    <g clip-path="url(#p60b2fd3762)">
     <use xlink:href="#m0cb540596a" x="62.221364" y="373.010813" style="fill: #9467bd; stroke: #9467bd"/>
     <use xlink:href="#m0cb540596a" x="88.83399" y="362.09603" style="fill: #9467bd; stroke: #9467bd"/>
     <use xlink:href="#m0cb540596a" x="115.446616" y="354.831114" style="fill: #9467bd; stroke: #9467bd"/>
     <use xlink:href="#m0cb540596a" x="142.059242" y="350.625182" style="fill: #9467bd; stroke: #9467bd"/>
     <use xlink:href="#m0cb540596a" x="168.671869" y="348.404538" style="fill: #9467bd; stroke: #9467bd"/>
     <use xlink:href="#m0cb540596a" x="195.284495" y="342.792945" style="fill: #9467bd; stroke: #9467bd"/>
     <use xlink:href="#m0cb540596a" x="221.897121" y="336.182008" style="fill: #9467bd; stroke: #9467bd"/>
     <use xlink:href="#m0cb540596a" x="328.347626" y="304.769093" style="fill: #9467bd; stroke: #9467bd"/>
     <use xlink:href="#m0cb540596a" x="434.798131" y="270.871491" style="fill: #9467bd; stroke: #9467bd"/>
     <use xlink:href="#m0cb540596a" x="541.248636" y="230.598264" style="fill: #9467bd; stroke: #9467bd"/>
    </g>
   </g>
   <g id="LineCollection_6">
    <path d="M 62.221364 372.696825 
L 62.221364 372.422615 
" clip-path="url(#p60b2fd3762)" style="fill: none; stroke: #8c564b; stroke-width: 1.5"/>
    <path d="M 88.83399 361.276341 
L 88.83399 360.808152 
" clip-path="url(#p60b2fd3762)" style="fill: none; stroke: #8c564b; stroke-width: 1.5"/>
    <path d="M 115.446616 354.143196 
L 115.446616 353.731084 
" clip-path="url(#p60b2fd3762)" style="fill: none; stroke: #8c564b; stroke-width: 1.5"/>
    <path d="M 142.059242 347.256873 
L 142.059242 347.032314 
" clip-path="url(#p60b2fd3762)" style="fill: none; stroke: #8c564b; stroke-width: 1.5"/>
    <path d="M 168.671869 344.528219 
L 168.671869 344.012228 
" clip-path="url(#p60b2fd3762)" style="fill: none; stroke: #8c564b; stroke-width: 1.5"/>
    <path d="M 195.284495 342.678271 
L 195.284495 341.973257 
" clip-path="url(#p60b2fd3762)" style="fill: none; stroke: #8c564b; stroke-width: 1.5"/>
    <path d="M 221.897121 338.118907 
L 221.897121 336.824309 
" clip-path="url(#p60b2fd3762)" style="fill: none; stroke: #8c564b; stroke-width: 1.5"/>
    <path d="M 328.347626 313.507507 
L 328.347626 313.169827 
" clip-path="url(#p60b2fd3762)" style="fill: none; stroke: #8c564b; stroke-width: 1.5"/>
    <path d="M 434.798131 277.490535 
L 434.798131 274.310619 
" clip-path="url(#p60b2fd3762)" style="fill: none; stroke: #8c564b; stroke-width: 1.5"/>
    <path d="M 541.248636 243.570039 
L 541.248636 242.273466 
" clip-path="url(#p60b2fd3762)" style="fill: none; stroke: #8c564b; stroke-width: 1.5"/>
   </g>
   <g id="line2d_24">
    <defs>
     <path id="m0bfc77161b" d="M 3 0 
L -3 -0 
" style="stroke: #8c564b"/>
    </defs>
    <g clip-path="url(#p60b2fd3762)">
     <use xlink:href="#m0bfc77161b" x="62.221364" y="372.696825" style="fill: #8c564b; stroke: #8c564b"/>
     <use xlink:href="#m0bfc77161b" x="88.83399" y="361.276341" style="fill: #8c564b; stroke: #8c564b"/>
     <use xlink:href="#m0bfc77161b" x="115.446616" y="354.143196" style="fill: #8c564b; stroke: #8c564b"/>
     <use xlink:href="#m0bfc77161b" x="142.059242" y="347.256873" style="fill: #8c564b; stroke: #8c564b"/>
     <use xlink:href="#m0bfc77161b" x="168.671869" y="344.528219" style="fill: #8c564b; stroke: #8c564b"/>
     <use xlink:href="#m0bfc77161b" x="195.284495" y="342.678271" style="fill: #8c564b; stroke: #8c564b"/>
     <use xlink:href="#m0bfc77161b" x="221.897121" y="338.118907" style="fill: #8c564b; stroke: #8c564b"/>
     <use xlink:href="#m0bfc77161b" x="328.347626" y="313.507507" style="fill: #8c564b; stroke: #8c564b"/>
     <use xlink:href="#m0bfc77161b" x="434.798131" y="277.490535" style="fill: #8c564b; stroke: #8c564b"/>
     <use xlink:href="#m0bfc77161b" x="541.248636" y="243.570039" style="fill: #8c564b; stroke: #8c564b"/>
    </g>
   </g>
   <g id="line2d_25">
    <g clip-path="url(#p60b2fd3762)">
     <use xlink:href="#m0bfc77161b" x="62.221364" y="372.422615" style="fill: #8c564b; stroke: #8c564b"/>
     <use xlink:href="#m0bfc77161b" x="88.83399" y="360.808152" style="fill: #8c564b; stroke: #8c564b"/>
     <use xlink:href="#m0bfc77161b" x="115.446616" y="353.731084" style="fill: #8c564b; stroke: #8c564b"/>
     <use xlink:href="#m0bfc77161b" x="142.059242" y="347.032314" style="fill: #8c564b; stroke: #8c564b"/>
     <use xlink:href="#m0bfc77161b" x="168.671869" y="344.012228" style="fill: #8c564b; stroke: #8c564b"/>
     <use xlink:href="#m0bfc77161b" x="195.284495" y="341.973257" style="fill: #8c564b; stroke: #8c564b"/>
     <use xlink:href="#m0bfc77161b" x="221.897121" y="336.824309" style="fill: #8c564b; stroke: #8c564b"/>
     <use xlink:href="#m0bfc77161b" x="328.347626" y="313.169827" style="fill: #8c564b; stroke: #8c564b"/>
     <use xlink:href="#m0bfc77161b" x="434.798131" y="274.310619" style="fill: #8c564b; stroke: #8c564b"/>
     <use xlink:href="#m0bfc77161b" x="541.248636" y="242.273466" style="fill: #8c564b; stroke: #8c564b"/>
    </g>
   </g>
   <g id="line2d_26">
    <path d="M 62.221364 370.944118 
L 88.83399 360.456107 
L 115.446616 349.973262 
L 142.059242 338.897514 
L 168.671869 329.689273 
L 195.284495 318.800995 
L 221.897121 305.422231 
L 328.347626 258.368198 
L 434.798131 193.852292 
L 541.248636 123.870929 
" clip-path="url(#p60b2fd3762)" style="fill: none; stroke: #1f77b4; stroke-width: 1.5; stroke-linecap: square"/>
   </g>
   <g id="line2d_27">
    <path d="M 62.221364 329.169418 
L 88.83399 300.556608 
L 115.446616 276.906621 
L 142.059242 253.727722 
L 168.671869 235.836977 
L 195.284495 215.899573 
L 221.897121 188.449843 
L 328.347626 144.693424 
L 434.798131 92.523332 
L 541.248636 44.067378 
" clip-path="url(#p60b2fd3762)" style="fill: none; stroke: #ff7f0e; stroke-width: 1.5; stroke-linecap: square"/>
   </g>
   <g id="line2d_28">
    <path d="M 62.221364 366.287303 
L 88.83399 354.33789 
L 115.446616 346.05099 
L 142.059242 338.001881 
L 168.671869 336.121731 
L 195.284495 331.180204 
L 221.897121 324.765725 
L 328.347626 293.292491 
L 434.798131 255.112548 
L 541.248636 215.266975 
" clip-path="url(#p60b2fd3762)" style="fill: none; stroke: #2ca02c; stroke-width: 1.5; stroke-linecap: square"/>
   </g>
   <g id="line2d_29">
    <path d="M 62.221364 371.994541 
L 88.83399 362.385025 
L 115.446616 354.610755 
L 142.059242 348.126884 
L 168.671869 343.08026 
L 195.284495 337.627741 
L 221.897121 330.370429 
L 328.347626 297.731258 
L 434.798131 261.829212 
L 541.248636 223.429876 
" clip-path="url(#p60b2fd3762)" style="fill: none; stroke: #d62728; stroke-width: 1.5; stroke-linecap: square"/>
   </g>
   <g id="line2d_30">
    <path d="M 62.221364 373.271749 
L 88.83399 362.438161 
L 115.446616 355.167492 
L 142.059242 351.075813 
L 168.671869 348.417517 
L 195.284495 342.840621 
L 221.897121 336.183898 
L 328.347626 304.810468 
L 434.798131 272.602522 
L 541.248636 232.906278 
" clip-path="url(#p60b2fd3762)" style="fill: none; stroke: #9467bd; stroke-width: 1.5; stroke-linecap: square"/>
   </g>
   <g id="line2d_31">
    <path d="M 62.221364 372.55972 
L 88.83399 361.042247 
L 115.446616 353.937161 
L 142.059242 347.144594 
L 168.671869 344.270224 
L 195.284495 342.325764 
L 221.897121 337.471608 
L 328.347626 313.338646 
L 434.798131 275.900556 
L 541.248636 242.921774 
" clip-path="url(#p60b2fd3762)" style="fill: none; stroke: #8c564b; stroke-width: 1.5; stroke-linecap: square"/>
   </g>
   <g id="patch_3">
    <path d="M 38.27 390.04 
L 38.27 26.88 
" style="fill: none; stroke: #000000; stroke-width: 0.8; stroke-linejoin: miter; stroke-linecap: square"/>
   </g>
   <g id="patch_4">
    <path d="M 565.2 390.04 
L 565.2 26.88 
" style="fill: none; stroke: #000000; stroke-width: 0.8; stroke-linejoin: miter; stroke-linecap: square"/>
   </g>
   <g id="patch_5">
    <path d="M 38.27 390.04 
L 565.2 390.04 
" style="fill: none; stroke: #000000; stroke-width: 0.8; stroke-linejoin: miter; stroke-linecap: square"/>
   </g>
   <g id="patch_6">
    <path d="M 38.27 26.88 
L 565.2 26.88 
" style="fill: none; stroke: #000000; stroke-width: 0.8; stroke-linejoin: miter; stroke-linecap: square"/>
   </g>
   <g id="text_17">
    <!-- Go implementations of Bron-Kerbosch on a random graph of order 1M -->
    <g transform="translate(38.27 20.88) scale(0.12 -0.12)">
     <defs>
      <path id="DejaVuSans-47" d="M 3809 666 
L 3809 1919 
L 2778 1919 
L 2778 2438 
L 4434 2438 
L 4434 434 
Q 4069 175 3628 42 
Q 3188 -91 2688 -91 
Q 1594 -91 976 548 
Q 359 1188 359 2328 
Q 359 3472 976 4111 
Q 1594 4750 2688 4750 
Q 3144 4750 3555 4637 
Q 3966 4525 4313 4306 
L 4313 3634 
Q 3963 3931 3569 4081 
Q 3175 4231 2741 4231 
Q 1884 4231 1454 3753 
Q 1025 3275 1025 2328 
Q 1025 1384 1454 906 
Q 1884 428 2741 428 
Q 3075 428 3337 486 
Q 3600 544 3809 666 
z
" transform="scale(0.015625)"/>
      <path id="DejaVuSans-6d" d="M 3328 2828 
Q 3544 3216 3844 3400 
Q 4144 3584 4550 3584 
Q 5097 3584 5394 3201 
Q 5691 2819 5691 2113 
L 5691 0 
L 5113 0 
L 5113 2094 
Q 5113 2597 4934 2840 
Q 4756 3084 4391 3084 
Q 3944 3084 3684 2787 
Q 3425 2491 3425 1978 
L 3425 0 
L 2847 0 
L 2847 2094 
Q 2847 2600 2669 2842 
Q 2491 3084 2119 3084 
Q 1678 3084 1418 2786 
Q 1159 2488 1159 1978 
L 1159 0 
L 581 0 
L 581 3500 
L 1159 3500 
L 1159 2956 
Q 1356 3278 1631 3431 
Q 1906 3584 2284 3584 
Q 2666 3584 2933 3390 
Q 3200 3197 3328 2828 
z
" transform="scale(0.015625)"/>
      <path id="DejaVuSans-6c" d="M 603 4863 
L 1178 4863 
L 1178 0 
L 603 0 
L 603 4863 
z
" transform="scale(0.015625)"/>
      <path id="DejaVuSans-61" d="M 2194 1759 
Q 1497 1759 1228 1600 
Q 959 1441 959 1056 
Q 959 750 1161 570 
Q 1363 391 1709 391 
Q 2188 391 2477 730 
Q 2766 1069 2766 1631 
L 2766 1759 
L 2194 1759 
z
M 3341 1997 
L 3341 0 
L 2766 0 
L 2766 531 
Q 2569 213 2275 61 
Q 1981 -91 1556 -91 
Q 1019 -91 701 211 
Q 384 513 384 1019 
Q 384 1609 779 1909 
Q 1175 2209 1959 2209 
L 2766 2209 
L 2766 2266 
Q 2766 2663 2505 2880 
Q 2244 3097 1772 3097 
Q 1472 3097 1187 3025 
Q 903 2953 641 2809 
L 641 3341 
Q 956 3463 1253 3523 
Q 1550 3584 1831 3584 
Q 2591 3584 2966 3190 
Q 3341 2797 3341 1997 
z
" transform="scale(0.015625)"/>
      <path id="DejaVuSans-66" d="M 2375 4863 
L 2375 4384 
L 1825 4384 
Q 1516 4384 1395 4259 
Q 1275 4134 1275 3809 
L 1275 3500 
L 2222 3500 
L 2222 3053 
L 1275 3053 
L 1275 0 
L 697 0 
L 697 3053 
L 147 3053 
L 147 3500 
L 697 3500 
L 697 3744 
Q 697 4328 969 4595 
Q 1241 4863 1831 4863 
L 2375 4863 
z
" transform="scale(0.015625)"/>
      <path id="DejaVuSans-42" d="M 1259 2228 
L 1259 519 
L 2272 519 
Q 2781 519 3026 730 
Q 3272 941 3272 1375 
Q 3272 1813 3026 2020 
Q 2781 2228 2272 2228 
L 1259 2228 
z
M 1259 4147 
L 1259 2741 
L 2194 2741 
Q 2656 2741 2882 2914 
Q 3109 3088 3109 3444 
Q 3109 3797 2882 3972 
Q 2656 4147 2194 4147 
L 1259 4147 
z
M 628 4666 
L 2241 4666 
Q 2963 4666 3353 4366 
Q 3744 4066 3744 3513 
Q 3744 3084 3544 2831 
Q 3344 2578 2956 2516 
Q 3422 2416 3680 2098 
Q 3938 1781 3938 1306 
Q 3938 681 3513 340 
Q 3088 0 2303 0 
L 628 0 
L 628 4666 
z
" transform="scale(0.015625)"/>
      <path id="DejaVuSans-72" d="M 2631 2963 
Q 2534 3019 2420 3045 
Q 2306 3072 2169 3072 
Q 1681 3072 1420 2755 
Q 1159 2438 1159 1844 
L 1159 0 
L 581 0 
L 581 3500 
L 1159 3500 
L 1159 2956 
Q 1341 3275 1631 3429 
Q 1922 3584 2338 3584 
Q 2397 3584 2469 3576 
Q 2541 3569 2628 3553 
L 2631 2963 
z
" transform="scale(0.015625)"/>
      <path id="DejaVuSans-2d" d="M 313 2009 
L 1997 2009 
L 1997 1497 
L 313 1497 
L 313 2009 
z
" transform="scale(0.015625)"/>
      <path id="DejaVuSans-4b" d="M 628 4666 
L 1259 4666 
L 1259 2694 
L 3353 4666 
L 4166 4666 
L 1850 2491 
L 4331 0 
L 3500 0 
L 1259 2247 
L 1259 0 
L 628 0 
L 628 4666 
z
" transform="scale(0.015625)"/>
      <path id="DejaVuSans-62" d="M 3116 1747 
Q 3116 2381 2855 2742 
Q 2594 3103 2138 3103 
Q 1681 3103 1420 2742 
Q 1159 2381 1159 1747 
Q 1159 1113 1420 752 
Q 1681 391 2138 391 
Q 2594 391 2855 752 
Q 3116 1113 3116 1747 
z
M 1159 2969 
Q 1341 3281 1617 3432 
Q 1894 3584 2278 3584 
Q 2916 3584 3314 3078 
Q 3713 2572 3713 1747 
Q 3713 922 3314 415 
Q 2916 -91 2278 -91 
Q 1894 -91 1617 61 
Q 1341 213 1159 525 
L 1159 0 
L 581 0 
L 581 4863 
L 1159 4863 
L 1159 2969 
z
" transform="scale(0.015625)"/>
      <path id="DejaVuSans-68" d="M 3513 2113 
L 3513 0 
L 2938 0 
L 2938 2094 
Q 2938 2591 2744 2837 
Q 2550 3084 2163 3084 
Q 1697 3084 1428 2787 
Q 1159 2491 1159 1978 
L 1159 0 
L 581 0 
L 581 4863 
L 1159 4863 
L 1159 2956 
Q 1366 3272 1645 3428 
Q 1925 3584 2291 3584 
Q 2894 3584 3203 3211 
Q 3513 2838 3513 2113 
z
" transform="scale(0.015625)"/>
      <path id="DejaVuSans-4d" d="M 628 4666 
L 1569 4666 
L 2759 1491 
L 3956 4666 
L 4897 4666 
L 4897 0 
L 4281 0 
L 4281 4097 
L 3078 897 
L 2444 897 
L 1241 4097 
L 1241 0 
L 628 0 
L 628 4666 
z
" transform="scale(0.015625)"/>
     </defs>
     <use xlink:href="#DejaVuSans-47"/>
     <use xlink:href="#DejaVuSans-6f" transform="translate(77.490234 0)"/>
     <use xlink:href="#DejaVuSans-20" transform="translate(138.671875 0)"/>
     <use xlink:href="#DejaVuSans-69" transform="translate(170.458984 0)"/>
     <use xlink:href="#DejaVuSans-6d" transform="translate(198.242188 0)"/>
     <use xlink:href="#DejaVuSans-70" transform="translate(295.654297 0)"/>
     <use xlink:href="#DejaVuSans-6c" transform="translate(359.130859 0)"/>
     <use xlink:href="#DejaVuSans-65" transform="translate(386.914062 0)"/>
     <use xlink:href="#DejaVuSans-6d" transform="translate(448.4375 0)"/>
     <use xlink:href="#DejaVuSans-65" transform="translate(545.849609 0)"/>
     <use xlink:href="#DejaVuSans-6e" transform="translate(607.373047 0)"/>
     <use xlink:href="#DejaVuSans-74" transform="translate(670.751953 0)"/>
     <use xlink:href="#DejaVuSans-61" transform="translate(709.960938 0)"/>
     <use xlink:href="#DejaVuSans-74" transform="translate(771.240234 0)"/>
     <use xlink:href="#DejaVuSans-69" transform="translate(810.449219 0)"/>
     <use xlink:href="#DejaVuSans-6f" transform="translate(838.232422 0)"/>
     <use xlink:href="#DejaVuSans-6e" transform="translate(899.414062 0)"/>
     <use xlink:href="#DejaVuSans-73" transform="translate(962.792969 0)"/>
     <use xlink:href="#DejaVuSans-20" transform="translate(1014.892578 0)"/>
     <use xlink:href="#DejaVuSans-6f" transform="translate(1046.679688 0)"/>
     <use xlink:href="#DejaVuSans-66" transform="translate(1107.861328 0)"/>
     <use xlink:href="#DejaVuSans-20" transform="translate(1143.066406 0)"/>
     <use xlink:href="#DejaVuSans-42" transform="translate(1174.853516 0)"/>
     <use xlink:href="#DejaVuSans-72" transform="translate(1243.457031 0)"/>
     <use xlink:href="#DejaVuSans-6f" transform="translate(1282.320312 0)"/>
     <use xlink:href="#DejaVuSans-6e" transform="translate(1343.501953 0)"/>
     <use xlink:href="#DejaVuSans-2d" transform="translate(1406.880859 0)"/>
     <use xlink:href="#DejaVuSans-4b" transform="translate(1442.964844 0)"/>
     <use xlink:href="#DejaVuSans-65" transform="translate(1503.541016 0)"/>
     <use xlink:href="#DejaVuSans-72" transform="translate(1565.064453 0)"/>
     <use xlink:href="#DejaVuSans-62" transform="translate(1606.177734 0)"/>
     <use xlink:href="#DejaVuSans-6f" transform="translate(1669.654297 0)"/>
     <use xlink:href="#DejaVuSans-73" transform="translate(1730.835938 0)"/>
     <use xlink:href="#DejaVuSans-63" transform="translate(1782.935547 0)"/>
     <use xlink:href="#DejaVuSans-68" transform="translate(1837.916016 0)"/>
     <use xlink:href="#DejaVuSans-20" transform="translate(1901.294922 0)"/>
     <use xlink:href="#DejaVuSans-6f" transform="translate(1933.082031 0)"/>
     <use xlink:href="#DejaVuSans-6e" transform="translate(1994.263672 0)"/>
     <use xlink:href="#DejaVuSans-20" transform="translate(2057.642578 0)"/>
     <use xlink:href="#DejaVuSans-61" transform="translate(2089.429688 0)"/>
     <use xlink:href="#DejaVuSans-20" transform="translate(2150.708984 0)"/>
     <use xlink:href="#DejaVuSans-72" transform="translate(2182.496094 0)"/>
     <use xlink:href="#DejaVuSans-61" transform="translate(2223.609375 0)"/>
     <use xlink:href="#DejaVuSans-6e" transform="translate(2284.888672 0)"/>
     <use xlink:href="#DejaVuSans-64" transform="translate(2348.267578 0)"/>
     <use xlink:href="#DejaVuSans-6f" transform="translate(2411.744141 0)"/>
     <use xlink:href="#DejaVuSans-6d" transform="translate(2472.925781 0)"/>
     <use xlink:href="#DejaVuSans-20" transform="translate(2570.337891 0)"/>
     <use xlink:href="#DejaVuSans-67" transform="translate(2602.125 0)"/>
     <use xlink:href="#DejaVuSans-72" transform="translate(2665.601562 0)"/>
     <use xlink:href="#DejaVuSans-61" transform="translate(2706.714844 0)"/>
     <use xlink:href="#DejaVuSans-70" transform="translate(2767.994141 0)"/>
     <use xlink:href="#DejaVuSans-68" transform="translate(2831.470703 0)"/>
     <use xlink:href="#DejaVuSans-20" transform="translate(2894.849609 0)"/>
     <use xlink:href="#DejaVuSans-6f" transform="translate(2926.636719 0)"/>
     <use xlink:href="#DejaVuSans-66" transform="translate(2987.818359 0)"/>
     <use xlink:href="#DejaVuSans-20" transform="translate(3023.023438 0)"/>
     <use xlink:href="#DejaVuSans-6f" transform="translate(3054.810547 0)"/>
     <use xlink:href="#DejaVuSans-72" transform="translate(3115.992188 0)"/>
     <use xlink:href="#DejaVuSans-64" transform="translate(3155.355469 0)"/>
     <use xlink:href="#DejaVuSans-65" transform="translate(3218.832031 0)"/>
     <use xlink:href="#DejaVuSans-72" transform="translate(3280.355469 0)"/>
     <use xlink:href="#DejaVuSans-20" transform="translate(3321.46875 0)"/>
     <use xlink:href="#DejaVuSans-31" transform="translate(3353.255859 0)"/>
     <use xlink:href="#DejaVuSans-4d" transform="translate(3416.878906 0)"/>
    </g>
   </g>
   <g id="legend_1">
    <g id="patch_7">
     <path d="M 45.27 122.94875 
L 138.174688 122.94875 
Q 140.174688 122.94875 140.174688 120.94875 
L 140.174688 33.88 
Q 140.174688 31.88 138.174688 31.88 
L 45.27 31.88 
Q 43.27 31.88 43.27 33.88 
L 43.27 120.94875 
Q 43.27 122.94875 45.27 122.94875 
z
" style="fill: #ffffff; opacity: 0.8; stroke: #cccccc; stroke-linejoin: miter"/>
    </g>
    <g id="LineCollection_7">
     <path d="M 57.27 44.978438 
L 57.27 34.978438 
" style="fill: none; stroke: #1f77b4; stroke-width: 1.5"/>
    </g>
    <g id="line2d_32">
     <g>
      <use xlink:href="#md8547b9e7e" x="57.27" y="44.978438" style="fill: #1f77b4; stroke: #1f77b4"/>
     </g>
    </g>
    <g id="line2d_33">
     <g>
      <use xlink:href="#md8547b9e7e" x="57.27" y="34.978438" style="fill: #1f77b4; stroke: #1f77b4"/>
     </g>
    </g>
    <g id="line2d_34">
     <path d="M 47.27 39.978438 
L 67.27 39.978438 
" style="fill: none; stroke: #1f77b4; stroke-width: 1.5; stroke-linecap: square"/>
    </g>
    <g id="line2d_35"/>
    <g id="text_18">
     <!-- Ver3-GP -->
     <g transform="translate(75.27 43.478438) scale(0.1 -0.1)">
      <defs>
       <path id="DejaVuSans-56" d="M 1831 0 
L 50 4666 
L 709 4666 
L 2188 738 
L 3669 4666 
L 4325 4666 
L 2547 0 
L 1831 0 
z
" transform="scale(0.015625)"/>
       <path id="DejaVuSans-bd" d="M 488 2431 
L 1125 2431 
L 1125 4341 
L 428 4213 
L 428 4575 
L 1147 4697 
L 1575 4697 
L 1575 2431 
L 2216 2431 
L 2216 2088 
L 488 2088 
L 488 2431 
z
M 4470 332 
L 5795 332 
L 5795 -24 
L 3926 -24 
L 3926 319 
Q 4032 416 4229 591 
Q 5304 1544 5304 1838 
Q 5304 2044 5141 2170 
Q 4979 2297 4713 2297 
Q 4551 2297 4360 2242 
Q 4170 2188 3945 2079 
L 3945 2463 
Q 4185 2551 4393 2594 
Q 4601 2638 4779 2638 
Q 5232 2638 5504 2432 
Q 5776 2226 5776 1888 
Q 5776 1454 4741 566 
Q 4566 416 4470 332 
z
M 4309 4750 
L 4809 4750 
L 1896 -91 
L 1396 -91 
L 4309 4750 
z
" transform="scale(0.015625)"/>
       <path id="DejaVuSans-50" d="M 1259 4147 
L 1259 2394 
L 2053 2394 
Q 2494 2394 2734 2622 
Q 2975 2850 2975 3272 
Q 2975 3691 2734 3919 
Q 2494 4147 2053 4147 
L 1259 4147 
z
M 628 4666 
L 2053 4666 
Q 2838 4666 3239 4311 
Q 3641 3956 3641 3272 
Q 3641 2581 3239 2228 
Q 2838 1875 2053 1875 
L 1259 1875 
L 1259 0 
L 628 0 
L 628 4666 
z
" transform="scale(0.015625)"/>
      </defs>
      <use xlink:href="#DejaVuSans-56"/>
      <use xlink:href="#DejaVuSans-65" transform="translate(60.658203 0)"/>
      <use xlink:href="#DejaVuSans-72" transform="translate(122.181641 0)"/>
      <use xlink:href="#DejaVuSans-33" transform="translate(163.294922 0)"/>
      <use xlink:href="#DejaVuSans-bd" transform="translate(226.917969 0)"/>
      <use xlink:href="#DejaVuSans-2d" transform="translate(323.841797 0)"/>
      <use xlink:href="#DejaVuSans-47" transform="translate(363.550781 0)"/>
      <use xlink:href="#DejaVuSans-50" transform="translate(441.041016 0)"/>
     </g>
    </g>
    <g id="LineCollection_8">
     <path d="M 57.27 59.656563 
L 57.27 49.656563 
" style="fill: none; stroke: #ff7f0e; stroke-width: 1.5"/>
    </g>
    <g id="line2d_36">
     <g>
      <use xlink:href="#m7f04267d81" x="57.27" y="59.656563" style="fill: #ff7f0e; stroke: #ff7f0e"/>
     </g>
    </g>
    <g id="line2d_37">
     <g>
      <use xlink:href="#m7f04267d81" x="57.27" y="49.656563" style="fill: #ff7f0e; stroke: #ff7f0e"/>
     </g>
    </g>
    <g id="line2d_38">
     <path d="M 47.27 54.656563 
L 67.27 54.656563 
" style="fill: none; stroke: #ff7f0e; stroke-width: 1.5; stroke-linecap: square"/>
    </g>
    <g id="line2d_39"/>
    <g id="text_19">
     <!-- Ver3=GP0 -->
     <g transform="translate(75.27 58.156563) scale(0.1 -0.1)">
      <defs>
       <path id="DejaVuSans-3d" d="M 678 2906 
L 4684 2906 
L 4684 2381 
L 678 2381 
L 678 2906 
z
M 678 1631 
L 4684 1631 
L 4684 1100 
L 678 1100 
L 678 1631 
z
" transform="scale(0.015625)"/>
       <path id="DejaVuSans-30" d="M 2034 4250 
Q 1547 4250 1301 3770 
Q 1056 3291 1056 2328 
Q 1056 1369 1301 889 
Q 1547 409 2034 409 
Q 2525 409 2770 889 
Q 3016 1369 3016 2328 
Q 3016 3291 2770 3770 
Q 2525 4250 2034 4250 
z
M 2034 4750 
Q 2819 4750 3233 4129 
Q 3647 3509 3647 2328 
Q 3647 1150 3233 529 
Q 2819 -91 2034 -91 
Q 1250 -91 836 529 
Q 422 1150 422 2328 
Q 422 3509 836 4129 
Q 1250 4750 2034 4750 
z
" transform="scale(0.015625)"/>
      </defs>
      <use xlink:href="#DejaVuSans-56"/>
      <use xlink:href="#DejaVuSans-65" transform="translate(60.658203 0)"/>
      <use xlink:href="#DejaVuSans-72" transform="translate(122.181641 0)"/>
      <use xlink:href="#DejaVuSans-33" transform="translate(163.294922 0)"/>
      <use xlink:href="#DejaVuSans-bd" transform="translate(226.917969 0)"/>
      <use xlink:href="#DejaVuSans-3d" transform="translate(323.841797 0)"/>
      <use xlink:href="#DejaVuSans-47" transform="translate(407.630859 0)"/>
      <use xlink:href="#DejaVuSans-50" transform="translate(485.121094 0)"/>
      <use xlink:href="#DejaVuSans-30" transform="translate(545.423828 0)"/>
     </g>
    </g>
    <g id="LineCollection_9">
     <path d="M 57.27 74.334688 
L 57.27 64.334688 
" style="fill: none; stroke: #2ca02c; stroke-width: 1.5"/>
    </g>
    <g id="line2d_40">
     <g>
      <use xlink:href="#mf3fc7103a7" x="57.27" y="74.334688" style="fill: #2ca02c; stroke: #2ca02c"/>
     </g>
    </g>
    <g id="line2d_41">
     <g>
      <use xlink:href="#mf3fc7103a7" x="57.27" y="64.334688" style="fill: #2ca02c; stroke: #2ca02c"/>
     </g>
    </g>
    <g id="line2d_42">
     <path d="M 47.27 69.334688 
L 67.27 69.334688 
" style="fill: none; stroke: #2ca02c; stroke-width: 1.5; stroke-linecap: square"/>
    </g>
    <g id="line2d_43"/>
    <g id="text_20">
     <!-- Ver3=GP1 -->
     <g transform="translate(75.27 72.834688) scale(0.1 -0.1)">
      <use xlink:href="#DejaVuSans-56"/>
      <use xlink:href="#DejaVuSans-65" transform="translate(60.658203 0)"/>
      <use xlink:href="#DejaVuSans-72" transform="translate(122.181641 0)"/>
      <use xlink:href="#DejaVuSans-33" transform="translate(163.294922 0)"/>
      <use xlink:href="#DejaVuSans-bd" transform="translate(226.917969 0)"/>
      <use xlink:href="#DejaVuSans-3d" transform="translate(323.841797 0)"/>
      <use xlink:href="#DejaVuSans-47" transform="translate(407.630859 0)"/>
      <use xlink:href="#DejaVuSans-50" transform="translate(485.121094 0)"/>
      <use xlink:href="#DejaVuSans-31" transform="translate(545.423828 0)"/>
     </g>
    </g>
    <g id="LineCollection_10">
     <path d="M 57.27 89.012813 
L 57.27 79.012813 
" style="fill: none; stroke: #d62728; stroke-width: 1.5"/>
    </g>
    <g id="line2d_44">
     <g>
      <use xlink:href="#mf91cc8dc79" x="57.27" y="89.012813" style="fill: #d62728; stroke: #d62728"/>
     </g>
    </g>
    <g id="line2d_45">
     <g>
      <use xlink:href="#mf91cc8dc79" x="57.27" y="79.012813" style="fill: #d62728; stroke: #d62728"/>
     </g>
    </g>
    <g id="line2d_46">
     <path d="M 47.27 84.012813 
L 67.27 84.012813 
" style="fill: none; stroke: #d62728; stroke-width: 1.5; stroke-linecap: square"/>
    </g>
    <g id="line2d_47"/>
    <g id="text_21">
     <!-- Ver3=GP2 -->
     <g transform="translate(75.27 87.512813) scale(0.1 -0.1)">
      <use xlink:href="#DejaVuSans-56"/>
      <use xlink:href="#DejaVuSans-65" transform="translate(60.658203 0)"/>
      <use xlink:href="#DejaVuSans-72" transform="translate(122.181641 0)"/>
      <use xlink:href="#DejaVuSans-33" transform="translate(163.294922 0)"/>
      <use xlink:href="#DejaVuSans-bd" transform="translate(226.917969 0)"/>
      <use xlink:href="#DejaVuSans-3d" transform="translate(323.841797 0)"/>
      <use xlink:href="#DejaVuSans-47" transform="translate(407.630859 0)"/>
      <use xlink:href="#DejaVuSans-50" transform="translate(485.121094 0)"/>
      <use xlink:href="#DejaVuSans-32" transform="translate(545.423828 0)"/>
     </g>
    </g>
    <g id="LineCollection_11">
     <path d="M 57.27 103.690938 
L 57.27 93.690938 
" style="fill: none; stroke: #9467bd; stroke-width: 1.5"/>
    </g>
    <g id="line2d_48">
     <g>
      <use xlink:href="#m0cb540596a" x="57.27" y="103.690938" style="fill: #9467bd; stroke: #9467bd"/>
     </g>
    </g>
    <g id="line2d_49">
     <g>
      <use xlink:href="#m0cb540596a" x="57.27" y="93.690938" style="fill: #9467bd; stroke: #9467bd"/>
     </g>
    </g>
    <g id="line2d_50">
     <path d="M 47.27 98.690938 
L 67.27 98.690938 
" style="fill: none; stroke: #9467bd; stroke-width: 1.5; stroke-linecap: square"/>
    </g>
    <g id="line2d_51"/>
    <g id="text_22">
     <!-- Ver3=GP3 -->
     <g transform="translate(75.27 102.190938) scale(0.1 -0.1)">
      <use xlink:href="#DejaVuSans-56"/>
      <use xlink:href="#DejaVuSans-65" transform="translate(60.658203 0)"/>
      <use xlink:href="#DejaVuSans-72" transform="translate(122.181641 0)"/>
      <use xlink:href="#DejaVuSans-33" transform="translate(163.294922 0)"/>
      <use xlink:href="#DejaVuSans-bd" transform="translate(226.917969 0)"/>
      <use xlink:href="#DejaVuSans-3d" transform="translate(323.841797 0)"/>
      <use xlink:href="#DejaVuSans-47" transform="translate(407.630859 0)"/>
      <use xlink:href="#DejaVuSans-50" transform="translate(485.121094 0)"/>
      <use xlink:href="#DejaVuSans-33" transform="translate(545.423828 0)"/>
     </g>
    </g>
    <g id="LineCollection_12">
     <path d="M 57.27 118.369063 
L 57.27 108.369063 
" style="fill: none; stroke: #8c564b; stroke-width: 1.5"/>
    </g>
    <g id="line2d_52">
     <g>
      <use xlink:href="#m0bfc77161b" x="57.27" y="118.369063" style="fill: #8c564b; stroke: #8c564b"/>
     </g>
    </g>
    <g id="line2d_53">
     <g>
      <use xlink:href="#m0bfc77161b" x="57.27" y="108.369063" style="fill: #8c564b; stroke: #8c564b"/>
     </g>
    </g>
    <g id="line2d_54">
     <path d="M 47.27 113.369063 
L 67.27 113.369063 
" style="fill: none; stroke: #8c564b; stroke-width: 1.5; stroke-linecap: square"/>
    </g>
    <g id="line2d_55"/>
    <g id="text_23">
     <!-- Ver3=GP4 -->
     <g transform="translate(75.27 116.869063) scale(0.1 -0.1)">
      <use xlink:href="#DejaVuSans-56"/>
      <use xlink:href="#DejaVuSans-65" transform="translate(60.658203 0)"/>
      <use xlink:href="#DejaVuSans-72" transform="translate(122.181641 0)"/>
      <use xlink:href="#DejaVuSans-33" transform="translate(163.294922 0)"/>
      <use xlink:href="#DejaVuSans-bd" transform="translate(226.917969 0)"/>
      <use xlink:href="#DejaVuSans-3d" transform="translate(323.841797 0)"/>
      <use xlink:href="#DejaVuSans-47" transform="translate(407.630859 0)"/>
      <use xlink:href="#DejaVuSans-50" transform="translate(485.121094 0)"/>
      <use xlink:href="#DejaVuSans-34" transform="translate(545.423828 0)"/>
     </g>
    </g>
   </g>
  </g>
 </g>
 <defs>
  <clipPath id="p60b2fd3762">
   <rect x="38.27" y="26.88" width="526.93" height="363.16"/>
  </clipPath>
 </defs>
</svg>
