<?xml version="1.0" encoding="utf-8" standalone="no"?>
<!DOCTYPE svg PUBLIC "-//W3C//DTD SVG 1.1//EN"
  "http://www.w3.org/Graphics/SVG/1.1/DTD/svg11.dtd">
<svg xmlns:xlink="http://www.w3.org/1999/xlink" width="576pt" height="432pt" viewBox="0 0 576 432" xmlns="http://www.w3.org/2000/svg" version="1.1">
 <metadata>
  <rdf:RDF xmlns:dc="http://purl.org/dc/elements/1.1/" xmlns:cc="http://creativecommons.org/ns#" xmlns:rdf="http://www.w3.org/1999/02/22-rdf-syntax-ns#">
   <cc:Work>
    <dc:type rdf:resource="http://purl.org/dc/dcmitype/StillImage"/>
    <dc:date>2021-12-24T14:35:35.175748</dc:date>
    <dc:format>image/svg+xml</dc:format>
    <dc:creator>
     <cc:Agent>
      <dc:title>Matplotlib v3.5.0, https://matplotlib.org/</dc:title>
     </cc:Agent>
    </dc:creator>
   </cc:Work>
  </rdf:RDF>
 </metadata>
 <defs>
  <style type="text/css">*{stroke-linejoin: round; stroke-linecap: butt}</style>
 </defs>
 <g id="figure_1">
  <g id="patch_1">
   <path d="M 0 432 
L 576 432 
L 576 0 
L 0 0 
z
" style="fill: #ffffff"/>
  </g>
  <g id="axes_1">
   <g id="patch_2">
    <path d="M 38.27 390.04 
L 565.2 390.04 
L 565.2 26.88 
L 38.27 26.88 
z
" style="fill: #ffffff"/>
   </g>
   <g id="matplotlib.axis_1">
    <g id="xtick_1">
     <g id="line2d_1">
      <defs>
       <path id="mc74f61fcfc" d="M 0 0 
L 0 3.5 
" style="stroke: #000000; stroke-width: 0.8"/>
      </defs>
      <g>
       <use xlink:href="#mc74f61fcfc" x="57.382704" y="390.04" style="stroke: #000000; stroke-width: 0.8"/>
      </g>
     </g>
     <g id="text_1">
      <!-- 0 -->
      <g transform="translate(54.201454 404.638438)scale(0.1 -0.1)">
       <defs>
        <path id="DejaVuSans-30" d="M 2034 4250 
Q 1547 4250 1301 3770 
Q 1056 3291 1056 2328 
Q 1056 1369 1301 889 
Q 1547 409 2034 409 
Q 2525 409 2770 889 
Q 3016 1369 3016 2328 
Q 3016 3291 2770 3770 
Q 2525 4250 2034 4250 
z
M 2034 4750 
Q 2819 4750 3233 4129 
Q 3647 3509 3647 2328 
Q 3647 1150 3233 529 
Q 2819 -91 2034 -91 
Q 1250 -91 836 529 
Q 422 1150 422 2328 
Q 422 3509 836 4129 
Q 1250 4750 2034 4750 
z
" transform="scale(0.015625)"/>
       </defs>
       <use xlink:href="#DejaVuSans-30"/>
      </g>
     </g>
    </g>
    <g id="xtick_2">
     <g id="line2d_2">
      <g>
       <use xlink:href="#mc74f61fcfc" x="154.155891" y="390.04" style="stroke: #000000; stroke-width: 0.8"/>
      </g>
     </g>
     <g id="text_2">
      <!-- 1 -->
      <g transform="translate(150.974641 404.638438)scale(0.1 -0.1)">
       <defs>
        <path id="DejaVuSans-31" d="M 794 531 
L 1825 531 
L 1825 4091 
L 703 3866 
L 703 4441 
L 1819 4666 
L 2450 4666 
L 2450 531 
L 3481 531 
L 3481 0 
L 794 0 
L 794 531 
z
" transform="scale(0.015625)"/>
       </defs>
       <use xlink:href="#DejaVuSans-31"/>
      </g>
     </g>
    </g>
    <g id="xtick_3">
     <g id="line2d_3">
      <g>
       <use xlink:href="#mc74f61fcfc" x="250.929077" y="390.04" style="stroke: #000000; stroke-width: 0.8"/>
      </g>
     </g>
     <g id="text_3">
      <!-- 2 -->
      <g transform="translate(247.747827 404.638438)scale(0.1 -0.1)">
       <defs>
        <path id="DejaVuSans-32" d="M 1228 531 
L 3431 531 
L 3431 0 
L 469 0 
L 469 531 
Q 828 903 1448 1529 
Q 2069 2156 2228 2338 
Q 2531 2678 2651 2914 
Q 2772 3150 2772 3378 
Q 2772 3750 2511 3984 
Q 2250 4219 1831 4219 
Q 1534 4219 1204 4116 
Q 875 4013 500 3803 
L 500 4441 
Q 881 4594 1212 4672 
Q 1544 4750 1819 4750 
Q 2544 4750 2975 4387 
Q 3406 4025 3406 3419 
Q 3406 3131 3298 2873 
Q 3191 2616 2906 2266 
Q 2828 2175 2409 1742 
Q 1991 1309 1228 531 
z
" transform="scale(0.015625)"/>
       </defs>
       <use xlink:href="#DejaVuSans-32"/>
      </g>
     </g>
    </g>
    <g id="xtick_4">
     <g id="line2d_4">
      <g>
       <use xlink:href="#mc74f61fcfc" x="347.702264" y="390.04" style="stroke: #000000; stroke-width: 0.8"/>
      </g>
     </g>
     <g id="text_4">
      <!-- 3 -->
      <g transform="translate(344.521014 404.638438)scale(0.1 -0.1)">
       <defs>
        <path id="DejaVuSans-33" d="M 2597 2516 
Q 3050 2419 3304 2112 
Q 3559 1806 3559 1356 
Q 3559 666 3084 287 
Q 2609 -91 1734 -91 
Q 1441 -91 1130 -33 
Q 819 25 488 141 
L 488 750 
Q 750 597 1062 519 
Q 1375 441 1716 441 
Q 2309 441 2620 675 
Q 2931 909 2931 1356 
Q 2931 1769 2642 2001 
Q 2353 2234 1838 2234 
L 1294 2234 
L 1294 2753 
L 1863 2753 
Q 2328 2753 2575 2939 
Q 2822 3125 2822 3475 
Q 2822 3834 2567 4026 
Q 2313 4219 1838 4219 
Q 1578 4219 1281 4162 
Q 984 4106 628 3988 
L 628 4550 
Q 988 4650 1302 4700 
Q 1616 4750 1894 4750 
Q 2613 4750 3031 4423 
Q 3450 4097 3450 3541 
Q 3450 3153 3228 2886 
Q 3006 2619 2597 2516 
z
" transform="scale(0.015625)"/>
       </defs>
       <use xlink:href="#DejaVuSans-33"/>
      </g>
     </g>
    </g>
    <g id="xtick_5">
     <g id="line2d_5">
      <g>
       <use xlink:href="#mc74f61fcfc" x="444.47545" y="390.04" style="stroke: #000000; stroke-width: 0.8"/>
      </g>
     </g>
     <g id="text_5">
      <!-- 4 -->
      <g transform="translate(441.2942 404.638438)scale(0.1 -0.1)">
       <defs>
        <path id="DejaVuSans-34" d="M 2419 4116 
L 825 1625 
L 2419 1625 
L 2419 4116 
z
M 2253 4666 
L 3047 4666 
L 3047 1625 
L 3713 1625 
L 3713 1100 
L 3047 1100 
L 3047 0 
L 2419 0 
L 2419 1100 
L 313 1100 
L 313 1709 
L 2253 4666 
z
" transform="scale(0.015625)"/>
       </defs>
       <use xlink:href="#DejaVuSans-34"/>
      </g>
     </g>
    </g>
    <g id="xtick_6">
     <g id="line2d_6">
      <g>
       <use xlink:href="#mc74f61fcfc" x="541.248636" y="390.04" style="stroke: #000000; stroke-width: 0.8"/>
      </g>
     </g>
     <g id="text_6">
      <!-- 5 -->
      <g transform="translate(538.067386 404.638438)scale(0.1 -0.1)">
       <defs>
        <path id="DejaVuSans-35" d="M 691 4666 
L 3169 4666 
L 3169 4134 
L 1269 4134 
L 1269 2991 
Q 1406 3038 1543 3061 
Q 1681 3084 1819 3084 
Q 2600 3084 3056 2656 
Q 3513 2228 3513 1497 
Q 3513 744 3044 326 
Q 2575 -91 1722 -91 
Q 1428 -91 1123 -41 
Q 819 9 494 109 
L 494 744 
Q 775 591 1075 516 
Q 1375 441 1709 441 
Q 2250 441 2565 725 
Q 2881 1009 2881 1497 
Q 2881 1984 2565 2268 
Q 2250 2553 1709 2553 
Q 1456 2553 1204 2497 
Q 953 2441 691 2322 
L 691 4666 
z
" transform="scale(0.015625)"/>
       </defs>
       <use xlink:href="#DejaVuSans-35"/>
      </g>
     </g>
    </g>
    <g id="text_7">
     <!-- Size (#edges) -->
     <g transform="translate(266.684219 418.316562)scale(0.1 -0.1)">
      <defs>
       <path id="DejaVuSans-53" d="M 3425 4513 
L 3425 3897 
Q 3066 4069 2747 4153 
Q 2428 4238 2131 4238 
Q 1616 4238 1336 4038 
Q 1056 3838 1056 3469 
Q 1056 3159 1242 3001 
Q 1428 2844 1947 2747 
L 2328 2669 
Q 3034 2534 3370 2195 
Q 3706 1856 3706 1288 
Q 3706 609 3251 259 
Q 2797 -91 1919 -91 
Q 1588 -91 1214 -16 
Q 841 59 441 206 
L 441 856 
Q 825 641 1194 531 
Q 1563 422 1919 422 
Q 2459 422 2753 634 
Q 3047 847 3047 1241 
Q 3047 1584 2836 1778 
Q 2625 1972 2144 2069 
L 1759 2144 
Q 1053 2284 737 2584 
Q 422 2884 422 3419 
Q 422 4038 858 4394 
Q 1294 4750 2059 4750 
Q 2388 4750 2728 4690 
Q 3069 4631 3425 4513 
z
" transform="scale(0.015625)"/>
       <path id="DejaVuSans-69" d="M 603 3500 
L 1178 3500 
L 1178 0 
L 603 0 
L 603 3500 
z
M 603 4863 
L 1178 4863 
L 1178 4134 
L 603 4134 
L 603 4863 
z
" transform="scale(0.015625)"/>
       <path id="DejaVuSans-7a" d="M 353 3500 
L 3084 3500 
L 3084 2975 
L 922 459 
L 3084 459 
L 3084 0 
L 275 0 
L 275 525 
L 2438 3041 
L 353 3041 
L 353 3500 
z
" transform="scale(0.015625)"/>
       <path id="DejaVuSans-65" d="M 3597 1894 
L 3597 1613 
L 953 1613 
Q 991 1019 1311 708 
Q 1631 397 2203 397 
Q 2534 397 2845 478 
Q 3156 559 3463 722 
L 3463 178 
Q 3153 47 2828 -22 
Q 2503 -91 2169 -91 
Q 1331 -91 842 396 
Q 353 884 353 1716 
Q 353 2575 817 3079 
Q 1281 3584 2069 3584 
Q 2775 3584 3186 3129 
Q 3597 2675 3597 1894 
z
M 3022 2063 
Q 3016 2534 2758 2815 
Q 2500 3097 2075 3097 
Q 1594 3097 1305 2825 
Q 1016 2553 972 2059 
L 3022 2063 
z
" transform="scale(0.015625)"/>
       <path id="DejaVuSans-20" transform="scale(0.015625)"/>
       <path id="DejaVuSans-28" d="M 1984 4856 
Q 1566 4138 1362 3434 
Q 1159 2731 1159 2009 
Q 1159 1288 1364 580 
Q 1569 -128 1984 -844 
L 1484 -844 
Q 1016 -109 783 600 
Q 550 1309 550 2009 
Q 550 2706 781 3412 
Q 1013 4119 1484 4856 
L 1984 4856 
z
" transform="scale(0.015625)"/>
       <path id="DejaVuSans-23" d="M 3272 2816 
L 2363 2816 
L 2100 1772 
L 3016 1772 
L 3272 2816 
z
M 2803 4594 
L 2478 3297 
L 3391 3297 
L 3719 4594 
L 4219 4594 
L 3897 3297 
L 4872 3297 
L 4872 2816 
L 3775 2816 
L 3519 1772 
L 4513 1772 
L 4513 1294 
L 3397 1294 
L 3072 0 
L 2572 0 
L 2894 1294 
L 1978 1294 
L 1656 0 
L 1153 0 
L 1478 1294 
L 494 1294 
L 494 1772 
L 1594 1772 
L 1856 2816 
L 850 2816 
L 850 3297 
L 1978 3297 
L 2297 4594 
L 2803 4594 
z
" transform="scale(0.015625)"/>
       <path id="DejaVuSans-64" d="M 2906 2969 
L 2906 4863 
L 3481 4863 
L 3481 0 
L 2906 0 
L 2906 525 
Q 2725 213 2448 61 
Q 2172 -91 1784 -91 
Q 1150 -91 751 415 
Q 353 922 353 1747 
Q 353 2572 751 3078 
Q 1150 3584 1784 3584 
Q 2172 3584 2448 3432 
Q 2725 3281 2906 2969 
z
M 947 1747 
Q 947 1113 1208 752 
Q 1469 391 1925 391 
Q 2381 391 2643 752 
Q 2906 1113 2906 1747 
Q 2906 2381 2643 2742 
Q 2381 3103 1925 3103 
Q 1469 3103 1208 2742 
Q 947 2381 947 1747 
z
" transform="scale(0.015625)"/>
       <path id="DejaVuSans-67" d="M 2906 1791 
Q 2906 2416 2648 2759 
Q 2391 3103 1925 3103 
Q 1463 3103 1205 2759 
Q 947 2416 947 1791 
Q 947 1169 1205 825 
Q 1463 481 1925 481 
Q 2391 481 2648 825 
Q 2906 1169 2906 1791 
z
M 3481 434 
Q 3481 -459 3084 -895 
Q 2688 -1331 1869 -1331 
Q 1566 -1331 1297 -1286 
Q 1028 -1241 775 -1147 
L 775 -588 
Q 1028 -725 1275 -790 
Q 1522 -856 1778 -856 
Q 2344 -856 2625 -561 
Q 2906 -266 2906 331 
L 2906 616 
Q 2728 306 2450 153 
Q 2172 0 1784 0 
Q 1141 0 747 490 
Q 353 981 353 1791 
Q 353 2603 747 3093 
Q 1141 3584 1784 3584 
Q 2172 3584 2450 3431 
Q 2728 3278 2906 2969 
L 2906 3500 
L 3481 3500 
L 3481 434 
z
" transform="scale(0.015625)"/>
       <path id="DejaVuSans-73" d="M 2834 3397 
L 2834 2853 
Q 2591 2978 2328 3040 
Q 2066 3103 1784 3103 
Q 1356 3103 1142 2972 
Q 928 2841 928 2578 
Q 928 2378 1081 2264 
Q 1234 2150 1697 2047 
L 1894 2003 
Q 2506 1872 2764 1633 
Q 3022 1394 3022 966 
Q 3022 478 2636 193 
Q 2250 -91 1575 -91 
Q 1294 -91 989 -36 
Q 684 19 347 128 
L 347 722 
Q 666 556 975 473 
Q 1284 391 1588 391 
Q 1994 391 2212 530 
Q 2431 669 2431 922 
Q 2431 1156 2273 1281 
Q 2116 1406 1581 1522 
L 1381 1569 
Q 847 1681 609 1914 
Q 372 2147 372 2553 
Q 372 3047 722 3315 
Q 1072 3584 1716 3584 
Q 2034 3584 2315 3537 
Q 2597 3491 2834 3397 
z
" transform="scale(0.015625)"/>
       <path id="DejaVuSans-29" d="M 513 4856 
L 1013 4856 
Q 1481 4119 1714 3412 
Q 1947 2706 1947 2009 
Q 1947 1309 1714 600 
Q 1481 -109 1013 -844 
L 513 -844 
Q 928 -128 1133 580 
Q 1338 1288 1338 2009 
Q 1338 2731 1133 3434 
Q 928 4138 513 4856 
z
" transform="scale(0.015625)"/>
      </defs>
      <use xlink:href="#DejaVuSans-53"/>
      <use xlink:href="#DejaVuSans-69" x="63.476562"/>
      <use xlink:href="#DejaVuSans-7a" x="91.259766"/>
      <use xlink:href="#DejaVuSans-65" x="143.75"/>
      <use xlink:href="#DejaVuSans-20" x="205.273438"/>
      <use xlink:href="#DejaVuSans-28" x="237.060547"/>
      <use xlink:href="#DejaVuSans-23" x="276.074219"/>
      <use xlink:href="#DejaVuSans-65" x="359.863281"/>
      <use xlink:href="#DejaVuSans-64" x="421.386719"/>
      <use xlink:href="#DejaVuSans-67" x="484.863281"/>
      <use xlink:href="#DejaVuSans-65" x="548.339844"/>
      <use xlink:href="#DejaVuSans-73" x="609.863281"/>
      <use xlink:href="#DejaVuSans-29" x="661.962891"/>
     </g>
    </g>
    <g id="text_8">
     <!-- 1e6 -->
     <g transform="translate(546.321875 417.316562)scale(0.1 -0.1)">
      <defs>
       <path id="DejaVuSans-36" d="M 2113 2584 
Q 1688 2584 1439 2293 
Q 1191 2003 1191 1497 
Q 1191 994 1439 701 
Q 1688 409 2113 409 
Q 2538 409 2786 701 
Q 3034 994 3034 1497 
Q 3034 2003 2786 2293 
Q 2538 2584 2113 2584 
z
M 3366 4563 
L 3366 3988 
Q 3128 4100 2886 4159 
Q 2644 4219 2406 4219 
Q 1781 4219 1451 3797 
Q 1122 3375 1075 2522 
Q 1259 2794 1537 2939 
Q 1816 3084 2150 3084 
Q 2853 3084 3261 2657 
Q 3669 2231 3669 1497 
Q 3669 778 3244 343 
Q 2819 -91 2113 -91 
Q 1303 -91 875 529 
Q 447 1150 447 2328 
Q 447 3434 972 4092 
Q 1497 4750 2381 4750 
Q 2619 4750 2861 4703 
Q 3103 4656 3366 4563 
z
" transform="scale(0.015625)"/>
      </defs>
      <use xlink:href="#DejaVuSans-31"/>
      <use xlink:href="#DejaVuSans-65" x="63.623047"/>
      <use xlink:href="#DejaVuSans-36" x="125.146484"/>
     </g>
    </g>
   </g>
   <g id="matplotlib.axis_2">
    <g id="ytick_1">
     <g id="line2d_7">
      <defs>
       <path id="m7eb1c47a8f" d="M 0 0 
L -3.5 0 
" style="stroke: #000000; stroke-width: 0.8"/>
      </defs>
      <g>
       <use xlink:href="#m7eb1c47a8f" x="38.27" y="375.258" style="stroke: #000000; stroke-width: 0.8"/>
      </g>
     </g>
     <g id="text_9">
      <!-- 0 -->
      <g transform="translate(24.9075 379.057218)scale(0.1 -0.1)">
       <use xlink:href="#DejaVuSans-30"/>
      </g>
     </g>
    </g>
    <g id="ytick_2">
     <g id="line2d_8">
      <g>
       <use xlink:href="#m7eb1c47a8f" x="38.27" y="304.191292" style="stroke: #000000; stroke-width: 0.8"/>
      </g>
     </g>
     <g id="text_10">
      <!-- 2 -->
      <g transform="translate(24.9075 307.990511)scale(0.1 -0.1)">
       <use xlink:href="#DejaVuSans-32"/>
      </g>
     </g>
    </g>
    <g id="ytick_3">
     <g id="line2d_9">
      <g>
       <use xlink:href="#m7eb1c47a8f" x="38.27" y="233.124585" style="stroke: #000000; stroke-width: 0.8"/>
      </g>
     </g>
     <g id="text_11">
      <!-- 4 -->
      <g transform="translate(24.9075 236.923804)scale(0.1 -0.1)">
       <use xlink:href="#DejaVuSans-34"/>
      </g>
     </g>
    </g>
    <g id="ytick_4">
     <g id="line2d_10">
      <g>
       <use xlink:href="#m7eb1c47a8f" x="38.27" y="162.057878" style="stroke: #000000; stroke-width: 0.8"/>
      </g>
     </g>
     <g id="text_12">
      <!-- 6 -->
      <g transform="translate(24.9075 165.857097)scale(0.1 -0.1)">
       <use xlink:href="#DejaVuSans-36"/>
      </g>
     </g>
    </g>
    <g id="ytick_5">
     <g id="line2d_11">
      <g>
       <use xlink:href="#m7eb1c47a8f" x="38.27" y="90.991171" style="stroke: #000000; stroke-width: 0.8"/>
      </g>
     </g>
     <g id="text_13">
      <!-- 8 -->
      <g transform="translate(24.9075 94.79039)scale(0.1 -0.1)">
       <defs>
        <path id="DejaVuSans-38" d="M 2034 2216 
Q 1584 2216 1326 1975 
Q 1069 1734 1069 1313 
Q 1069 891 1326 650 
Q 1584 409 2034 409 
Q 2484 409 2743 651 
Q 3003 894 3003 1313 
Q 3003 1734 2745 1975 
Q 2488 2216 2034 2216 
z
M 1403 2484 
Q 997 2584 770 2862 
Q 544 3141 544 3541 
Q 544 4100 942 4425 
Q 1341 4750 2034 4750 
Q 2731 4750 3128 4425 
Q 3525 4100 3525 3541 
Q 3525 3141 3298 2862 
Q 3072 2584 2669 2484 
Q 3125 2378 3379 2068 
Q 3634 1759 3634 1313 
Q 3634 634 3220 271 
Q 2806 -91 2034 -91 
Q 1263 -91 848 271 
Q 434 634 434 1313 
Q 434 1759 690 2068 
Q 947 2378 1403 2484 
z
M 1172 3481 
Q 1172 3119 1398 2916 
Q 1625 2713 2034 2713 
Q 2441 2713 2670 2916 
Q 2900 3119 2900 3481 
Q 2900 3844 2670 4047 
Q 2441 4250 2034 4250 
Q 1625 4250 1398 4047 
Q 1172 3844 1172 3481 
z
" transform="scale(0.015625)"/>
       </defs>
       <use xlink:href="#DejaVuSans-38"/>
      </g>
     </g>
    </g>
    <g id="text_14">
     <!-- Seconds spent -->
     <g transform="translate(18.827813 245.040469)rotate(-90)scale(0.1 -0.1)">
      <defs>
       <path id="DejaVuSans-63" d="M 3122 3366 
L 3122 2828 
Q 2878 2963 2633 3030 
Q 2388 3097 2138 3097 
Q 1578 3097 1268 2742 
Q 959 2388 959 1747 
Q 959 1106 1268 751 
Q 1578 397 2138 397 
Q 2388 397 2633 464 
Q 2878 531 3122 666 
L 3122 134 
Q 2881 22 2623 -34 
Q 2366 -91 2075 -91 
Q 1284 -91 818 406 
Q 353 903 353 1747 
Q 353 2603 823 3093 
Q 1294 3584 2113 3584 
Q 2378 3584 2631 3529 
Q 2884 3475 3122 3366 
z
" transform="scale(0.015625)"/>
       <path id="DejaVuSans-6f" d="M 1959 3097 
Q 1497 3097 1228 2736 
Q 959 2375 959 1747 
Q 959 1119 1226 758 
Q 1494 397 1959 397 
Q 2419 397 2687 759 
Q 2956 1122 2956 1747 
Q 2956 2369 2687 2733 
Q 2419 3097 1959 3097 
z
M 1959 3584 
Q 2709 3584 3137 3096 
Q 3566 2609 3566 1747 
Q 3566 888 3137 398 
Q 2709 -91 1959 -91 
Q 1206 -91 779 398 
Q 353 888 353 1747 
Q 353 2609 779 3096 
Q 1206 3584 1959 3584 
z
" transform="scale(0.015625)"/>
       <path id="DejaVuSans-6e" d="M 3513 2113 
L 3513 0 
L 2938 0 
L 2938 2094 
Q 2938 2591 2744 2837 
Q 2550 3084 2163 3084 
Q 1697 3084 1428 2787 
Q 1159 2491 1159 1978 
L 1159 0 
L 581 0 
L 581 3500 
L 1159 3500 
L 1159 2956 
Q 1366 3272 1645 3428 
Q 1925 3584 2291 3584 
Q 2894 3584 3203 3211 
Q 3513 2838 3513 2113 
z
" transform="scale(0.015625)"/>
       <path id="DejaVuSans-70" d="M 1159 525 
L 1159 -1331 
L 581 -1331 
L 581 3500 
L 1159 3500 
L 1159 2969 
Q 1341 3281 1617 3432 
Q 1894 3584 2278 3584 
Q 2916 3584 3314 3078 
Q 3713 2572 3713 1747 
Q 3713 922 3314 415 
Q 2916 -91 2278 -91 
Q 1894 -91 1617 61 
Q 1341 213 1159 525 
z
M 3116 1747 
Q 3116 2381 2855 2742 
Q 2594 3103 2138 3103 
Q 1681 3103 1420 2742 
Q 1159 2381 1159 1747 
Q 1159 1113 1420 752 
Q 1681 391 2138 391 
Q 2594 391 2855 752 
Q 3116 1113 3116 1747 
z
" transform="scale(0.015625)"/>
       <path id="DejaVuSans-74" d="M 1172 4494 
L 1172 3500 
L 2356 3500 
L 2356 3053 
L 1172 3053 
L 1172 1153 
Q 1172 725 1289 603 
Q 1406 481 1766 481 
L 2356 481 
L 2356 0 
L 1766 0 
Q 1100 0 847 248 
Q 594 497 594 1153 
L 594 3053 
L 172 3053 
L 172 3500 
L 594 3500 
L 594 4494 
L 1172 4494 
z
" transform="scale(0.015625)"/>
      </defs>
      <use xlink:href="#DejaVuSans-53"/>
      <use xlink:href="#DejaVuSans-65" x="63.476562"/>
      <use xlink:href="#DejaVuSans-63" x="125"/>
      <use xlink:href="#DejaVuSans-6f" x="179.980469"/>
      <use xlink:href="#DejaVuSans-6e" x="241.162109"/>
      <use xlink:href="#DejaVuSans-64" x="304.541016"/>
      <use xlink:href="#DejaVuSans-73" x="368.017578"/>
      <use xlink:href="#DejaVuSans-20" x="420.117188"/>
      <use xlink:href="#DejaVuSans-73" x="451.904297"/>
      <use xlink:href="#DejaVuSans-70" x="504.003906"/>
      <use xlink:href="#DejaVuSans-65" x="567.480469"/>
      <use xlink:href="#DejaVuSans-6e" x="629.003906"/>
      <use xlink:href="#DejaVuSans-74" x="692.382812"/>
     </g>
    </g>
   </g>
   <g id="LineCollection_1">
    <path d="M 62.221364 358.880698 
L 62.221364 358.177564 
" clip-path="url(#p1be05fdb19)" style="fill: none; stroke: #000099; stroke-width: 1.5"/>
    <path d="M 67.060023 350.956199 
L 67.060023 350.606689 
" clip-path="url(#p1be05fdb19)" style="fill: none; stroke: #000099; stroke-width: 1.5"/>
    <path d="M 71.898682 343.867657 
L 71.898682 343.2028 
" clip-path="url(#p1be05fdb19)" style="fill: none; stroke: #000099; stroke-width: 1.5"/>
    <path d="M 76.737342 336.286076 
L 76.737342 335.172891 
" clip-path="url(#p1be05fdb19)" style="fill: none; stroke: #000099; stroke-width: 1.5"/>
    <path d="M 81.576001 330.237418 
L 81.576001 329.759832 
" clip-path="url(#p1be05fdb19)" style="fill: none; stroke: #000099; stroke-width: 1.5"/>
    <path d="M 105.769298 302.071046 
L 105.769298 301.645321 
" clip-path="url(#p1be05fdb19)" style="fill: none; stroke: #000099; stroke-width: 1.5"/>
    <path d="M 129.962594 278.203054 
L 129.962594 278.139325 
" clip-path="url(#p1be05fdb19)" style="fill: none; stroke: #000099; stroke-width: 1.5"/>
    <path d="M 154.155891 255.199433 
L 154.155891 255.010299 
" clip-path="url(#p1be05fdb19)" style="fill: none; stroke: #000099; stroke-width: 1.5"/>
   </g>
   <g id="line2d_12">
    <defs>
     <path id="ma91f551ce1" d="M 3 0 
L -3 -0 
" style="stroke: #000099"/>
    </defs>
    <g clip-path="url(#p1be05fdb19)">
     <use xlink:href="#ma91f551ce1" x="62.221364" y="358.880698" style="fill: #000099; stroke: #000099"/>
     <use xlink:href="#ma91f551ce1" x="67.060023" y="350.956199" style="fill: #000099; stroke: #000099"/>
     <use xlink:href="#ma91f551ce1" x="71.898682" y="343.867657" style="fill: #000099; stroke: #000099"/>
     <use xlink:href="#ma91f551ce1" x="76.737342" y="336.286076" style="fill: #000099; stroke: #000099"/>
     <use xlink:href="#ma91f551ce1" x="81.576001" y="330.237418" style="fill: #000099; stroke: #000099"/>
     <use xlink:href="#ma91f551ce1" x="105.769298" y="302.071046" style="fill: #000099; stroke: #000099"/>
     <use xlink:href="#ma91f551ce1" x="129.962594" y="278.203054" style="fill: #000099; stroke: #000099"/>
     <use xlink:href="#ma91f551ce1" x="154.155891" y="255.199433" style="fill: #000099; stroke: #000099"/>
    </g>
   </g>
   <g id="line2d_13">
    <g clip-path="url(#p1be05fdb19)">
     <use xlink:href="#ma91f551ce1" x="62.221364" y="358.177564" style="fill: #000099; stroke: #000099"/>
     <use xlink:href="#ma91f551ce1" x="67.060023" y="350.606689" style="fill: #000099; stroke: #000099"/>
     <use xlink:href="#ma91f551ce1" x="71.898682" y="343.2028" style="fill: #000099; stroke: #000099"/>
     <use xlink:href="#ma91f551ce1" x="76.737342" y="335.172891" style="fill: #000099; stroke: #000099"/>
     <use xlink:href="#ma91f551ce1" x="81.576001" y="329.759832" style="fill: #000099; stroke: #000099"/>
     <use xlink:href="#ma91f551ce1" x="105.769298" y="301.645321" style="fill: #000099; stroke: #000099"/>
     <use xlink:href="#ma91f551ce1" x="129.962594" y="278.139325" style="fill: #000099; stroke: #000099"/>
     <use xlink:href="#ma91f551ce1" x="154.155891" y="255.010299" style="fill: #000099; stroke: #000099"/>
    </g>
   </g>
   <g id="LineCollection_2">
    <path d="M 62.221364 370.714222 
L 62.221364 370.423573 
" clip-path="url(#p1be05fdb19)" style="fill: none; stroke: #006666; stroke-width: 1.5"/>
    <path d="M 67.060023 367.043513 
L 67.060023 364.276253 
" clip-path="url(#p1be05fdb19)" style="fill: none; stroke: #006666; stroke-width: 1.5"/>
    <path d="M 71.898682 363.855044 
L 71.898682 361.498973 
" clip-path="url(#p1be05fdb19)" style="fill: none; stroke: #006666; stroke-width: 1.5"/>
    <path d="M 76.737342 358.538 
L 76.737342 358.161468 
" clip-path="url(#p1be05fdb19)" style="fill: none; stroke: #006666; stroke-width: 1.5"/>
    <path d="M 81.576001 354.792017 
L 81.576001 353.955228 
" clip-path="url(#p1be05fdb19)" style="fill: none; stroke: #006666; stroke-width: 1.5"/>
    <path d="M 105.769298 338.054429 
L 105.769298 335.977853 
" clip-path="url(#p1be05fdb19)" style="fill: none; stroke: #006666; stroke-width: 1.5"/>
    <path d="M 129.962594 322.901604 
L 129.962594 322.472677 
" clip-path="url(#p1be05fdb19)" style="fill: none; stroke: #006666; stroke-width: 1.5"/>
    <path d="M 154.155891 308.782216 
L 154.155891 308.058657 
" clip-path="url(#p1be05fdb19)" style="fill: none; stroke: #006666; stroke-width: 1.5"/>
    <path d="M 178.349187 293.161548 
L 178.349187 291.412337 
" clip-path="url(#p1be05fdb19)" style="fill: none; stroke: #006666; stroke-width: 1.5"/>
    <path d="M 202.542484 278.405306 
L 202.542484 276.350242 
" clip-path="url(#p1be05fdb19)" style="fill: none; stroke: #006666; stroke-width: 1.5"/>
    <path d="M 226.735781 262.126823 
L 226.735781 251.301193 
" clip-path="url(#p1be05fdb19)" style="fill: none; stroke: #006666; stroke-width: 1.5"/>
    <path d="M 250.929077 250.68621 
L 250.929077 247.216367 
" clip-path="url(#p1be05fdb19)" style="fill: none; stroke: #006666; stroke-width: 1.5"/>
    <path d="M 347.702264 194.508525 
L 347.702264 190.272292 
" clip-path="url(#p1be05fdb19)" style="fill: none; stroke: #006666; stroke-width: 1.5"/>
    <path d="M 444.47545 133.643227 
L 444.47545 131.408108 
" clip-path="url(#p1be05fdb19)" style="fill: none; stroke: #006666; stroke-width: 1.5"/>
    <path d="M 541.248636 65.931476 
L 541.248636 43.387273 
" clip-path="url(#p1be05fdb19)" style="fill: none; stroke: #006666; stroke-width: 1.5"/>
   </g>
   <g id="line2d_14">
    <defs>
     <path id="m647895b053" d="M 3 0 
L -3 -0 
" style="stroke: #006666"/>
    </defs>
    <g clip-path="url(#p1be05fdb19)">
     <use xlink:href="#m647895b053" x="62.221364" y="370.714222" style="fill: #006666; stroke: #006666"/>
     <use xlink:href="#m647895b053" x="67.060023" y="367.043513" style="fill: #006666; stroke: #006666"/>
     <use xlink:href="#m647895b053" x="71.898682" y="363.855044" style="fill: #006666; stroke: #006666"/>
     <use xlink:href="#m647895b053" x="76.737342" y="358.538" style="fill: #006666; stroke: #006666"/>
     <use xlink:href="#m647895b053" x="81.576001" y="354.792017" style="fill: #006666; stroke: #006666"/>
     <use xlink:href="#m647895b053" x="105.769298" y="338.054429" style="fill: #006666; stroke: #006666"/>
     <use xlink:href="#m647895b053" x="129.962594" y="322.901604" style="fill: #006666; stroke: #006666"/>
     <use xlink:href="#m647895b053" x="154.155891" y="308.782216" style="fill: #006666; stroke: #006666"/>
     <use xlink:href="#m647895b053" x="178.349187" y="293.161548" style="fill: #006666; stroke: #006666"/>
     <use xlink:href="#m647895b053" x="202.542484" y="278.405306" style="fill: #006666; stroke: #006666"/>
     <use xlink:href="#m647895b053" x="226.735781" y="262.126823" style="fill: #006666; stroke: #006666"/>
     <use xlink:href="#m647895b053" x="250.929077" y="250.68621" style="fill: #006666; stroke: #006666"/>
     <use xlink:href="#m647895b053" x="347.702264" y="194.508525" style="fill: #006666; stroke: #006666"/>
     <use xlink:href="#m647895b053" x="444.47545" y="133.643227" style="fill: #006666; stroke: #006666"/>
     <use xlink:href="#m647895b053" x="541.248636" y="65.931476" style="fill: #006666; stroke: #006666"/>
    </g>
   </g>
   <g id="line2d_15">
    <g clip-path="url(#p1be05fdb19)">
     <use xlink:href="#m647895b053" x="62.221364" y="370.423573" style="fill: #006666; stroke: #006666"/>
     <use xlink:href="#m647895b053" x="67.060023" y="364.276253" style="fill: #006666; stroke: #006666"/>
     <use xlink:href="#m647895b053" x="71.898682" y="361.498973" style="fill: #006666; stroke: #006666"/>
     <use xlink:href="#m647895b053" x="76.737342" y="358.161468" style="fill: #006666; stroke: #006666"/>
     <use xlink:href="#m647895b053" x="81.576001" y="353.955228" style="fill: #006666; stroke: #006666"/>
     <use xlink:href="#m647895b053" x="105.769298" y="335.977853" style="fill: #006666; stroke: #006666"/>
     <use xlink:href="#m647895b053" x="129.962594" y="322.472677" style="fill: #006666; stroke: #006666"/>
     <use xlink:href="#m647895b053" x="154.155891" y="308.058657" style="fill: #006666; stroke: #006666"/>
     <use xlink:href="#m647895b053" x="178.349187" y="291.412337" style="fill: #006666; stroke: #006666"/>
     <use xlink:href="#m647895b053" x="202.542484" y="276.350242" style="fill: #006666; stroke: #006666"/>
     <use xlink:href="#m647895b053" x="226.735781" y="251.301193" style="fill: #006666; stroke: #006666"/>
     <use xlink:href="#m647895b053" x="250.929077" y="247.216367" style="fill: #006666; stroke: #006666"/>
     <use xlink:href="#m647895b053" x="347.702264" y="190.272292" style="fill: #006666; stroke: #006666"/>
     <use xlink:href="#m647895b053" x="444.47545" y="131.408108" style="fill: #006666; stroke: #006666"/>
     <use xlink:href="#m647895b053" x="541.248636" y="43.387273" style="fill: #006666; stroke: #006666"/>
    </g>
   </g>
   <g id="LineCollection_3">
    <path d="M 62.221364 372.6964 
L 62.221364 371.303315 
" clip-path="url(#p1be05fdb19)" style="fill: none; stroke: #009933; stroke-width: 1.5"/>
    <path d="M 67.060023 369.99519 
L 67.060023 367.767498 
" clip-path="url(#p1be05fdb19)" style="fill: none; stroke: #009933; stroke-width: 1.5"/>
    <path d="M 71.898682 368.35863 
L 71.898682 365.950038 
" clip-path="url(#p1be05fdb19)" style="fill: none; stroke: #009933; stroke-width: 1.5"/>
    <path d="M 76.737342 366.009556 
L 76.737342 363.086049 
" clip-path="url(#p1be05fdb19)" style="fill: none; stroke: #009933; stroke-width: 1.5"/>
    <path d="M 81.576001 363.579608 
L 81.576001 359.317631 
" clip-path="url(#p1be05fdb19)" style="fill: none; stroke: #009933; stroke-width: 1.5"/>
    <path d="M 105.769298 349.523395 
L 105.769298 347.935054 
" clip-path="url(#p1be05fdb19)" style="fill: none; stroke: #009933; stroke-width: 1.5"/>
    <path d="M 129.962594 338.164767 
L 129.962594 333.560178 
" clip-path="url(#p1be05fdb19)" style="fill: none; stroke: #009933; stroke-width: 1.5"/>
    <path d="M 154.155891 322.596859 
L 154.155891 319.100839 
" clip-path="url(#p1be05fdb19)" style="fill: none; stroke: #009933; stroke-width: 1.5"/>
    <path d="M 178.349187 311.734384 
L 178.349187 307.404041 
" clip-path="url(#p1be05fdb19)" style="fill: none; stroke: #009933; stroke-width: 1.5"/>
    <path d="M 202.542484 296.962636 
L 202.542484 292.728872 
" clip-path="url(#p1be05fdb19)" style="fill: none; stroke: #009933; stroke-width: 1.5"/>
    <path d="M 226.735781 285.569506 
L 226.735781 281.43886 
" clip-path="url(#p1be05fdb19)" style="fill: none; stroke: #009933; stroke-width: 1.5"/>
    <path d="M 250.929077 266.399013 
L 250.929077 262.451293 
" clip-path="url(#p1be05fdb19)" style="fill: none; stroke: #009933; stroke-width: 1.5"/>
    <path d="M 347.702264 208.182943 
L 347.702264 201.838178 
" clip-path="url(#p1be05fdb19)" style="fill: none; stroke: #009933; stroke-width: 1.5"/>
    <path d="M 444.47545 143.366411 
L 444.47545 137.193272 
" clip-path="url(#p1be05fdb19)" style="fill: none; stroke: #009933; stroke-width: 1.5"/>
    <path d="M 541.248636 59.887299 
L 541.248636 54.764811 
" clip-path="url(#p1be05fdb19)" style="fill: none; stroke: #009933; stroke-width: 1.5"/>
   </g>
   <g id="line2d_16">
    <defs>
     <path id="m567d63a80a" d="M 3 0 
L -3 -0 
" style="stroke: #009933"/>
    </defs>
    <g clip-path="url(#p1be05fdb19)">
     <use xlink:href="#m567d63a80a" x="62.221364" y="372.6964" style="fill: #009933; stroke: #009933"/>
     <use xlink:href="#m567d63a80a" x="67.060023" y="369.99519" style="fill: #009933; stroke: #009933"/>
     <use xlink:href="#m567d63a80a" x="71.898682" y="368.35863" style="fill: #009933; stroke: #009933"/>
     <use xlink:href="#m567d63a80a" x="76.737342" y="366.009556" style="fill: #009933; stroke: #009933"/>
     <use xlink:href="#m567d63a80a" x="81.576001" y="363.579608" style="fill: #009933; stroke: #009933"/>
     <use xlink:href="#m567d63a80a" x="105.769298" y="349.523395" style="fill: #009933; stroke: #009933"/>
     <use xlink:href="#m567d63a80a" x="129.962594" y="338.164767" style="fill: #009933; stroke: #009933"/>
     <use xlink:href="#m567d63a80a" x="154.155891" y="322.596859" style="fill: #009933; stroke: #009933"/>
     <use xlink:href="#m567d63a80a" x="178.349187" y="311.734384" style="fill: #009933; stroke: #009933"/>
     <use xlink:href="#m567d63a80a" x="202.542484" y="296.962636" style="fill: #009933; stroke: #009933"/>
     <use xlink:href="#m567d63a80a" x="226.735781" y="285.569506" style="fill: #009933; stroke: #009933"/>
     <use xlink:href="#m567d63a80a" x="250.929077" y="266.399013" style="fill: #009933; stroke: #009933"/>
     <use xlink:href="#m567d63a80a" x="347.702264" y="208.182943" style="fill: #009933; stroke: #009933"/>
     <use xlink:href="#m567d63a80a" x="444.47545" y="143.366411" style="fill: #009933; stroke: #009933"/>
     <use xlink:href="#m567d63a80a" x="541.248636" y="59.887299" style="fill: #009933; stroke: #009933"/>
    </g>
   </g>
   <g id="line2d_17">
    <g clip-path="url(#p1be05fdb19)">
     <use xlink:href="#m567d63a80a" x="62.221364" y="371.303315" style="fill: #009933; stroke: #009933"/>
     <use xlink:href="#m567d63a80a" x="67.060023" y="367.767498" style="fill: #009933; stroke: #009933"/>
     <use xlink:href="#m567d63a80a" x="71.898682" y="365.950038" style="fill: #009933; stroke: #009933"/>
     <use xlink:href="#m567d63a80a" x="76.737342" y="363.086049" style="fill: #009933; stroke: #009933"/>
     <use xlink:href="#m567d63a80a" x="81.576001" y="359.317631" style="fill: #009933; stroke: #009933"/>
     <use xlink:href="#m567d63a80a" x="105.769298" y="347.935054" style="fill: #009933; stroke: #009933"/>
     <use xlink:href="#m567d63a80a" x="129.962594" y="333.560178" style="fill: #009933; stroke: #009933"/>
     <use xlink:href="#m567d63a80a" x="154.155891" y="319.100839" style="fill: #009933; stroke: #009933"/>
     <use xlink:href="#m567d63a80a" x="178.349187" y="307.404041" style="fill: #009933; stroke: #009933"/>
     <use xlink:href="#m567d63a80a" x="202.542484" y="292.728872" style="fill: #009933; stroke: #009933"/>
     <use xlink:href="#m567d63a80a" x="226.735781" y="281.43886" style="fill: #009933; stroke: #009933"/>
     <use xlink:href="#m567d63a80a" x="250.929077" y="262.451293" style="fill: #009933; stroke: #009933"/>
     <use xlink:href="#m567d63a80a" x="347.702264" y="201.838178" style="fill: #009933; stroke: #009933"/>
     <use xlink:href="#m567d63a80a" x="444.47545" y="137.193272" style="fill: #009933; stroke: #009933"/>
     <use xlink:href="#m567d63a80a" x="541.248636" y="54.764811" style="fill: #009933; stroke: #009933"/>
    </g>
   </g>
   <g id="LineCollection_4">
    <path d="M 62.221364 372.628496 
L 62.221364 372.271919 
" clip-path="url(#p1be05fdb19)" style="fill: none; stroke: #0000cc; stroke-width: 1.5"/>
    <path d="M 67.060023 370.069099 
L 67.060023 369.501596 
" clip-path="url(#p1be05fdb19)" style="fill: none; stroke: #0000cc; stroke-width: 1.5"/>
    <path d="M 71.898682 367.161263 
L 71.898682 367.007226 
" clip-path="url(#p1be05fdb19)" style="fill: none; stroke: #0000cc; stroke-width: 1.5"/>
    <path d="M 76.737342 365.273056 
L 76.737342 364.434149 
" clip-path="url(#p1be05fdb19)" style="fill: none; stroke: #0000cc; stroke-width: 1.5"/>
    <path d="M 81.576001 362.743863 
L 81.576001 362.643659 
" clip-path="url(#p1be05fdb19)" style="fill: none; stroke: #0000cc; stroke-width: 1.5"/>
    <path d="M 105.769298 351.186818 
L 105.769298 351.071121 
" clip-path="url(#p1be05fdb19)" style="fill: none; stroke: #0000cc; stroke-width: 1.5"/>
    <path d="M 129.962594 341.987481 
L 129.962594 341.088558 
" clip-path="url(#p1be05fdb19)" style="fill: none; stroke: #0000cc; stroke-width: 1.5"/>
    <path d="M 154.155891 332.563147 
L 154.155891 331.974608 
" clip-path="url(#p1be05fdb19)" style="fill: none; stroke: #0000cc; stroke-width: 1.5"/>
    <path d="M 178.349187 322.845841 
L 178.349187 322.113783 
" clip-path="url(#p1be05fdb19)" style="fill: none; stroke: #0000cc; stroke-width: 1.5"/>
    <path d="M 202.542484 314.991726 
L 202.542484 312.767303 
" clip-path="url(#p1be05fdb19)" style="fill: none; stroke: #0000cc; stroke-width: 1.5"/>
    <path d="M 226.735781 305.56622 
L 226.735781 305.466762 
" clip-path="url(#p1be05fdb19)" style="fill: none; stroke: #0000cc; stroke-width: 1.5"/>
    <path d="M 250.929077 299.292735 
L 250.929077 298.567109 
" clip-path="url(#p1be05fdb19)" style="fill: none; stroke: #0000cc; stroke-width: 1.5"/>
    <path d="M 347.702264 264.757372 
L 347.702264 262.965247 
" clip-path="url(#p1be05fdb19)" style="fill: none; stroke: #0000cc; stroke-width: 1.5"/>
    <path d="M 444.47545 221.138652 
L 444.47545 218.823796 
" clip-path="url(#p1be05fdb19)" style="fill: none; stroke: #0000cc; stroke-width: 1.5"/>
    <path d="M 541.248636 173.922536 
L 541.248636 170.07168 
" clip-path="url(#p1be05fdb19)" style="fill: none; stroke: #0000cc; stroke-width: 1.5"/>
   </g>
   <g id="line2d_18">
    <defs>
     <path id="m71e13e22db" d="M 3 0 
L -3 -0 
" style="stroke: #0000cc"/>
    </defs>
    <g clip-path="url(#p1be05fdb19)">
     <use xlink:href="#m71e13e22db" x="62.221364" y="372.628496" style="fill: #0000cc; stroke: #0000cc"/>
     <use xlink:href="#m71e13e22db" x="67.060023" y="370.069099" style="fill: #0000cc; stroke: #0000cc"/>
     <use xlink:href="#m71e13e22db" x="71.898682" y="367.161263" style="fill: #0000cc; stroke: #0000cc"/>
     <use xlink:href="#m71e13e22db" x="76.737342" y="365.273056" style="fill: #0000cc; stroke: #0000cc"/>
     <use xlink:href="#m71e13e22db" x="81.576001" y="362.743863" style="fill: #0000cc; stroke: #0000cc"/>
     <use xlink:href="#m71e13e22db" x="105.769298" y="351.186818" style="fill: #0000cc; stroke: #0000cc"/>
     <use xlink:href="#m71e13e22db" x="129.962594" y="341.987481" style="fill: #0000cc; stroke: #0000cc"/>
     <use xlink:href="#m71e13e22db" x="154.155891" y="332.563147" style="fill: #0000cc; stroke: #0000cc"/>
     <use xlink:href="#m71e13e22db" x="178.349187" y="322.845841" style="fill: #0000cc; stroke: #0000cc"/>
     <use xlink:href="#m71e13e22db" x="202.542484" y="314.991726" style="fill: #0000cc; stroke: #0000cc"/>
     <use xlink:href="#m71e13e22db" x="226.735781" y="305.56622" style="fill: #0000cc; stroke: #0000cc"/>
     <use xlink:href="#m71e13e22db" x="250.929077" y="299.292735" style="fill: #0000cc; stroke: #0000cc"/>
     <use xlink:href="#m71e13e22db" x="347.702264" y="264.757372" style="fill: #0000cc; stroke: #0000cc"/>
     <use xlink:href="#m71e13e22db" x="444.47545" y="221.138652" style="fill: #0000cc; stroke: #0000cc"/>
     <use xlink:href="#m71e13e22db" x="541.248636" y="173.922536" style="fill: #0000cc; stroke: #0000cc"/>
    </g>
   </g>
   <g id="line2d_19">
    <g clip-path="url(#p1be05fdb19)">
     <use xlink:href="#m71e13e22db" x="62.221364" y="372.271919" style="fill: #0000cc; stroke: #0000cc"/>
     <use xlink:href="#m71e13e22db" x="67.060023" y="369.501596" style="fill: #0000cc; stroke: #0000cc"/>
     <use xlink:href="#m71e13e22db" x="71.898682" y="367.007226" style="fill: #0000cc; stroke: #0000cc"/>
     <use xlink:href="#m71e13e22db" x="76.737342" y="364.434149" style="fill: #0000cc; stroke: #0000cc"/>
     <use xlink:href="#m71e13e22db" x="81.576001" y="362.643659" style="fill: #0000cc; stroke: #0000cc"/>
     <use xlink:href="#m71e13e22db" x="105.769298" y="351.071121" style="fill: #0000cc; stroke: #0000cc"/>
     <use xlink:href="#m71e13e22db" x="129.962594" y="341.088558" style="fill: #0000cc; stroke: #0000cc"/>
     <use xlink:href="#m71e13e22db" x="154.155891" y="331.974608" style="fill: #0000cc; stroke: #0000cc"/>
     <use xlink:href="#m71e13e22db" x="178.349187" y="322.113783" style="fill: #0000cc; stroke: #0000cc"/>
     <use xlink:href="#m71e13e22db" x="202.542484" y="312.767303" style="fill: #0000cc; stroke: #0000cc"/>
     <use xlink:href="#m71e13e22db" x="226.735781" y="305.466762" style="fill: #0000cc; stroke: #0000cc"/>
     <use xlink:href="#m71e13e22db" x="250.929077" y="298.567109" style="fill: #0000cc; stroke: #0000cc"/>
     <use xlink:href="#m71e13e22db" x="347.702264" y="262.965247" style="fill: #0000cc; stroke: #0000cc"/>
     <use xlink:href="#m71e13e22db" x="444.47545" y="218.823796" style="fill: #0000cc; stroke: #0000cc"/>
     <use xlink:href="#m71e13e22db" x="541.248636" y="170.07168" style="fill: #0000cc; stroke: #0000cc"/>
    </g>
   </g>
   <g id="LineCollection_5">
    <path d="M 62.221364 372.877265 
L 62.221364 372.486398 
" clip-path="url(#p1be05fdb19)" style="fill: none; stroke: #666600; stroke-width: 1.5"/>
    <path d="M 67.060023 371.207197 
L 67.060023 370.49653 
" clip-path="url(#p1be05fdb19)" style="fill: none; stroke: #666600; stroke-width: 1.5"/>
    <path d="M 71.898682 369.679263 
L 71.898682 368.542196 
" clip-path="url(#p1be05fdb19)" style="fill: none; stroke: #666600; stroke-width: 1.5"/>
    <path d="M 76.737342 368.115795 
L 76.737342 367.973662 
" clip-path="url(#p1be05fdb19)" style="fill: none; stroke: #666600; stroke-width: 1.5"/>
    <path d="M 81.576001 366.516795 
L 81.576001 365.699527 
" clip-path="url(#p1be05fdb19)" style="fill: none; stroke: #666600; stroke-width: 1.5"/>
    <path d="M 105.769298 359.019257 
L 105.769298 358.877124 
" clip-path="url(#p1be05fdb19)" style="fill: none; stroke: #666600; stroke-width: 1.5"/>
    <path d="M 129.962594 351.592786 
L 129.962594 351.166386 
" clip-path="url(#p1be05fdb19)" style="fill: none; stroke: #666600; stroke-width: 1.5"/>
    <path d="M 154.155891 344.201849 
L 154.155891 340.470846 
" clip-path="url(#p1be05fdb19)" style="fill: none; stroke: #666600; stroke-width: 1.5"/>
    <path d="M 178.349187 336.420044 
L 178.349187 332.617975 
" clip-path="url(#p1be05fdb19)" style="fill: none; stroke: #666600; stroke-width: 1.5"/>
    <path d="M 202.542484 327.394572 
L 202.542484 322.81077 
" clip-path="url(#p1be05fdb19)" style="fill: none; stroke: #666600; stroke-width: 1.5"/>
    <path d="M 226.735781 319.506168 
L 226.735781 314.886832 
" clip-path="url(#p1be05fdb19)" style="fill: none; stroke: #666600; stroke-width: 1.5"/>
    <path d="M 250.929077 311.79543 
L 250.929077 307.993361 
" clip-path="url(#p1be05fdb19)" style="fill: none; stroke: #666600; stroke-width: 1.5"/>
    <path d="M 347.702264 275.160543 
L 347.702264 269.901606 
" clip-path="url(#p1be05fdb19)" style="fill: none; stroke: #666600; stroke-width: 1.5"/>
    <path d="M 444.47545 237.957122 
L 444.47545 217.454377 
" clip-path="url(#p1be05fdb19)" style="fill: none; stroke: #666600; stroke-width: 1.5"/>
    <path d="M 541.248636 195.068364 
L 541.248636 192.794229 
" clip-path="url(#p1be05fdb19)" style="fill: none; stroke: #666600; stroke-width: 1.5"/>
   </g>
   <g id="line2d_20">
    <defs>
     <path id="ma612d83d5a" d="M 3 0 
L -3 -0 
" style="stroke: #666600"/>
    </defs>
    <g clip-path="url(#p1be05fdb19)">
     <use xlink:href="#ma612d83d5a" x="62.221364" y="372.877265" style="fill: #666600; stroke: #666600"/>
     <use xlink:href="#ma612d83d5a" x="67.060023" y="371.207197" style="fill: #666600; stroke: #666600"/>
     <use xlink:href="#ma612d83d5a" x="71.898682" y="369.679263" style="fill: #666600; stroke: #666600"/>
     <use xlink:href="#ma612d83d5a" x="76.737342" y="368.115795" style="fill: #666600; stroke: #666600"/>
     <use xlink:href="#ma612d83d5a" x="81.576001" y="366.516795" style="fill: #666600; stroke: #666600"/>
     <use xlink:href="#ma612d83d5a" x="105.769298" y="359.019257" style="fill: #666600; stroke: #666600"/>
     <use xlink:href="#ma612d83d5a" x="129.962594" y="351.592786" style="fill: #666600; stroke: #666600"/>
     <use xlink:href="#ma612d83d5a" x="154.155891" y="344.201849" style="fill: #666600; stroke: #666600"/>
     <use xlink:href="#ma612d83d5a" x="178.349187" y="336.420044" style="fill: #666600; stroke: #666600"/>
     <use xlink:href="#ma612d83d5a" x="202.542484" y="327.394572" style="fill: #666600; stroke: #666600"/>
     <use xlink:href="#ma612d83d5a" x="226.735781" y="319.506168" style="fill: #666600; stroke: #666600"/>
     <use xlink:href="#ma612d83d5a" x="250.929077" y="311.79543" style="fill: #666600; stroke: #666600"/>
     <use xlink:href="#ma612d83d5a" x="347.702264" y="275.160543" style="fill: #666600; stroke: #666600"/>
     <use xlink:href="#ma612d83d5a" x="444.47545" y="237.957122" style="fill: #666600; stroke: #666600"/>
     <use xlink:href="#ma612d83d5a" x="541.248636" y="195.068364" style="fill: #666600; stroke: #666600"/>
    </g>
   </g>
   <g id="line2d_21">
    <g clip-path="url(#p1be05fdb19)">
     <use xlink:href="#ma612d83d5a" x="62.221364" y="372.486398" style="fill: #666600; stroke: #666600"/>
     <use xlink:href="#ma612d83d5a" x="67.060023" y="370.49653" style="fill: #666600; stroke: #666600"/>
     <use xlink:href="#ma612d83d5a" x="71.898682" y="368.542196" style="fill: #666600; stroke: #666600"/>
     <use xlink:href="#ma612d83d5a" x="76.737342" y="367.973662" style="fill: #666600; stroke: #666600"/>
     <use xlink:href="#ma612d83d5a" x="81.576001" y="365.699527" style="fill: #666600; stroke: #666600"/>
     <use xlink:href="#ma612d83d5a" x="105.769298" y="358.877124" style="fill: #666600; stroke: #666600"/>
     <use xlink:href="#ma612d83d5a" x="129.962594" y="351.166386" style="fill: #666600; stroke: #666600"/>
     <use xlink:href="#ma612d83d5a" x="154.155891" y="340.470846" style="fill: #666600; stroke: #666600"/>
     <use xlink:href="#ma612d83d5a" x="178.349187" y="332.617975" style="fill: #666600; stroke: #666600"/>
     <use xlink:href="#ma612d83d5a" x="202.542484" y="322.81077" style="fill: #666600; stroke: #666600"/>
     <use xlink:href="#ma612d83d5a" x="226.735781" y="314.886832" style="fill: #666600; stroke: #666600"/>
     <use xlink:href="#ma612d83d5a" x="250.929077" y="307.993361" style="fill: #666600; stroke: #666600"/>
     <use xlink:href="#ma612d83d5a" x="347.702264" y="269.901606" style="fill: #666600; stroke: #666600"/>
     <use xlink:href="#ma612d83d5a" x="444.47545" y="217.454377" style="fill: #666600; stroke: #666600"/>
     <use xlink:href="#ma612d83d5a" x="541.248636" y="192.794229" style="fill: #666600; stroke: #666600"/>
    </g>
   </g>
   <g id="LineCollection_6">
    <path d="M 62.221364 371.421641 
L 62.221364 371.362798 
" clip-path="url(#p1be05fdb19)" style="fill: none; stroke: #990000; stroke-width: 1.5"/>
    <path d="M 67.060023 368.114125 
L 67.060023 368.09181 
" clip-path="url(#p1be05fdb19)" style="fill: none; stroke: #990000; stroke-width: 1.5"/>
    <path d="M 71.898682 364.863605 
L 71.898682 364.814996 
" clip-path="url(#p1be05fdb19)" style="fill: none; stroke: #990000; stroke-width: 1.5"/>
    <path d="M 76.737342 361.761757 
L 76.737342 361.701421 
" clip-path="url(#p1be05fdb19)" style="fill: none; stroke: #990000; stroke-width: 1.5"/>
    <path d="M 81.576001 358.712853 
L 81.576001 358.663675 
" clip-path="url(#p1be05fdb19)" style="fill: none; stroke: #990000; stroke-width: 1.5"/>
    <path d="M 105.769298 344.209559 
L 105.769298 343.999948 
" clip-path="url(#p1be05fdb19)" style="fill: none; stroke: #990000; stroke-width: 1.5"/>
    <path d="M 129.962594 331.324206 
L 129.962594 331.000142 
" clip-path="url(#p1be05fdb19)" style="fill: none; stroke: #990000; stroke-width: 1.5"/>
    <path d="M 154.155891 319.627337 
L 154.155891 319.367943 
" clip-path="url(#p1be05fdb19)" style="fill: none; stroke: #990000; stroke-width: 1.5"/>
    <path d="M 178.349187 308.310674 
L 178.349187 307.937929 
" clip-path="url(#p1be05fdb19)" style="fill: none; stroke: #990000; stroke-width: 1.5"/>
    <path d="M 202.542484 297.059748 
L 202.542484 296.509692 
" clip-path="url(#p1be05fdb19)" style="fill: none; stroke: #990000; stroke-width: 1.5"/>
    <path d="M 226.735781 285.749837 
L 226.735781 285.609836 
" clip-path="url(#p1be05fdb19)" style="fill: none; stroke: #990000; stroke-width: 1.5"/>
    <path d="M 250.929077 275.683949 
L 250.929077 275.282422 
" clip-path="url(#p1be05fdb19)" style="fill: none; stroke: #990000; stroke-width: 1.5"/>
    <path d="M 347.702264 234.421553 
L 347.702264 233.240069 
" clip-path="url(#p1be05fdb19)" style="fill: none; stroke: #990000; stroke-width: 1.5"/>
    <path d="M 444.47545 190.13669 
L 444.47545 188.3952 
" clip-path="url(#p1be05fdb19)" style="fill: none; stroke: #990000; stroke-width: 1.5"/>
    <path d="M 541.248636 143.034742 
L 541.248636 141.584981 
" clip-path="url(#p1be05fdb19)" style="fill: none; stroke: #990000; stroke-width: 1.5"/>
   </g>
   <g id="line2d_22">
    <defs>
     <path id="md9b07cde7a" d="M 3 0 
L -3 -0 
" style="stroke: #990000"/>
    </defs>
    <g clip-path="url(#p1be05fdb19)">
     <use xlink:href="#md9b07cde7a" x="62.221364" y="371.421641" style="fill: #990000; stroke: #990000"/>
     <use xlink:href="#md9b07cde7a" x="67.060023" y="368.114125" style="fill: #990000; stroke: #990000"/>
     <use xlink:href="#md9b07cde7a" x="71.898682" y="364.863605" style="fill: #990000; stroke: #990000"/>
     <use xlink:href="#md9b07cde7a" x="76.737342" y="361.761757" style="fill: #990000; stroke: #990000"/>
     <use xlink:href="#md9b07cde7a" x="81.576001" y="358.712853" style="fill: #990000; stroke: #990000"/>
     <use xlink:href="#md9b07cde7a" x="105.769298" y="344.209559" style="fill: #990000; stroke: #990000"/>
     <use xlink:href="#md9b07cde7a" x="129.962594" y="331.324206" style="fill: #990000; stroke: #990000"/>
     <use xlink:href="#md9b07cde7a" x="154.155891" y="319.627337" style="fill: #990000; stroke: #990000"/>
     <use xlink:href="#md9b07cde7a" x="178.349187" y="308.310674" style="fill: #990000; stroke: #990000"/>
     <use xlink:href="#md9b07cde7a" x="202.542484" y="297.059748" style="fill: #990000; stroke: #990000"/>
     <use xlink:href="#md9b07cde7a" x="226.735781" y="285.749837" style="fill: #990000; stroke: #990000"/>
     <use xlink:href="#md9b07cde7a" x="250.929077" y="275.683949" style="fill: #990000; stroke: #990000"/>
     <use xlink:href="#md9b07cde7a" x="347.702264" y="234.421553" style="fill: #990000; stroke: #990000"/>
     <use xlink:href="#md9b07cde7a" x="444.47545" y="190.13669" style="fill: #990000; stroke: #990000"/>
     <use xlink:href="#md9b07cde7a" x="541.248636" y="143.034742" style="fill: #990000; stroke: #990000"/>
    </g>
   </g>
   <g id="line2d_23">
    <g clip-path="url(#p1be05fdb19)">
     <use xlink:href="#md9b07cde7a" x="62.221364" y="371.362798" style="fill: #990000; stroke: #990000"/>
     <use xlink:href="#md9b07cde7a" x="67.060023" y="368.09181" style="fill: #990000; stroke: #990000"/>
     <use xlink:href="#md9b07cde7a" x="71.898682" y="364.814996" style="fill: #990000; stroke: #990000"/>
     <use xlink:href="#md9b07cde7a" x="76.737342" y="361.701421" style="fill: #990000; stroke: #990000"/>
     <use xlink:href="#md9b07cde7a" x="81.576001" y="358.663675" style="fill: #990000; stroke: #990000"/>
     <use xlink:href="#md9b07cde7a" x="105.769298" y="343.999948" style="fill: #990000; stroke: #990000"/>
     <use xlink:href="#md9b07cde7a" x="129.962594" y="331.000142" style="fill: #990000; stroke: #990000"/>
     <use xlink:href="#md9b07cde7a" x="154.155891" y="319.367943" style="fill: #990000; stroke: #990000"/>
     <use xlink:href="#md9b07cde7a" x="178.349187" y="307.937929" style="fill: #990000; stroke: #990000"/>
     <use xlink:href="#md9b07cde7a" x="202.542484" y="296.509692" style="fill: #990000; stroke: #990000"/>
     <use xlink:href="#md9b07cde7a" x="226.735781" y="285.609836" style="fill: #990000; stroke: #990000"/>
     <use xlink:href="#md9b07cde7a" x="250.929077" y="275.282422" style="fill: #990000; stroke: #990000"/>
     <use xlink:href="#md9b07cde7a" x="347.702264" y="233.240069" style="fill: #990000; stroke: #990000"/>
     <use xlink:href="#md9b07cde7a" x="444.47545" y="188.3952" style="fill: #990000; stroke: #990000"/>
     <use xlink:href="#md9b07cde7a" x="541.248636" y="141.584981" style="fill: #990000; stroke: #990000"/>
    </g>
   </g>
   <g id="LineCollection_7">
    <path d="M 62.221364 373.532727 
L 62.221364 373.516066 
" clip-path="url(#p1be05fdb19)" style="fill: none; stroke: #cc0033; stroke-width: 1.5"/>
    <path d="M 67.060023 372.158663 
L 67.060023 372.113685 
" clip-path="url(#p1be05fdb19)" style="fill: none; stroke: #cc0033; stroke-width: 1.5"/>
    <path d="M 71.898682 370.894024 
L 71.898682 370.872352 
" clip-path="url(#p1be05fdb19)" style="fill: none; stroke: #cc0033; stroke-width: 1.5"/>
    <path d="M 76.737342 369.629072 
L 76.737342 369.450759 
" clip-path="url(#p1be05fdb19)" style="fill: none; stroke: #cc0033; stroke-width: 1.5"/>
    <path d="M 81.576001 368.380629 
L 81.576001 368.275404 
" clip-path="url(#p1be05fdb19)" style="fill: none; stroke: #cc0033; stroke-width: 1.5"/>
    <path d="M 105.769298 362.55759 
L 105.769298 362.436861 
" clip-path="url(#p1be05fdb19)" style="fill: none; stroke: #cc0033; stroke-width: 1.5"/>
    <path d="M 129.962594 356.955967 
L 129.962594 356.52852 
" clip-path="url(#p1be05fdb19)" style="fill: none; stroke: #cc0033; stroke-width: 1.5"/>
    <path d="M 154.155891 351.83512 
L 154.155891 351.564973 
" clip-path="url(#p1be05fdb19)" style="fill: none; stroke: #cc0033; stroke-width: 1.5"/>
    <path d="M 178.349187 346.028444 
L 178.349187 333.638962 
" clip-path="url(#p1be05fdb19)" style="fill: none; stroke: #cc0033; stroke-width: 1.5"/>
    <path d="M 202.542484 340.369185 
L 202.542484 339.992224 
" clip-path="url(#p1be05fdb19)" style="fill: none; stroke: #cc0033; stroke-width: 1.5"/>
    <path d="M 226.735781 302.246079 
L 226.735781 301.615799 
" clip-path="url(#p1be05fdb19)" style="fill: none; stroke: #cc0033; stroke-width: 1.5"/>
    <path d="M 250.929077 329.297113 
L 250.929077 328.729536 
" clip-path="url(#p1be05fdb19)" style="fill: none; stroke: #cc0033; stroke-width: 1.5"/>
    <path d="M 347.702264 307.306157 
L 347.702264 215.652743 
" clip-path="url(#p1be05fdb19)" style="fill: none; stroke: #cc0033; stroke-width: 1.5"/>
    <path d="M 444.47545 74.078752 
L 444.47545 71.704662 
" clip-path="url(#p1be05fdb19)" style="fill: none; stroke: #cc0033; stroke-width: 1.5"/>
    <path d="M 541.248636 259.960689 
L 541.248636 259.355876 
" clip-path="url(#p1be05fdb19)" style="fill: none; stroke: #cc0033; stroke-width: 1.5"/>
   </g>
   <g id="line2d_24">
    <defs>
     <path id="md3fe7ae338" d="M 3 0 
L -3 -0 
" style="stroke: #cc0033"/>
    </defs>
    <g clip-path="url(#p1be05fdb19)">
     <use xlink:href="#md3fe7ae338" x="62.221364" y="373.532727" style="fill: #cc0033; stroke: #cc0033"/>
     <use xlink:href="#md3fe7ae338" x="67.060023" y="372.158663" style="fill: #cc0033; stroke: #cc0033"/>
     <use xlink:href="#md3fe7ae338" x="71.898682" y="370.894024" style="fill: #cc0033; stroke: #cc0033"/>
     <use xlink:href="#md3fe7ae338" x="76.737342" y="369.629072" style="fill: #cc0033; stroke: #cc0033"/>
     <use xlink:href="#md3fe7ae338" x="81.576001" y="368.380629" style="fill: #cc0033; stroke: #cc0033"/>
     <use xlink:href="#md3fe7ae338" x="105.769298" y="362.55759" style="fill: #cc0033; stroke: #cc0033"/>
     <use xlink:href="#md3fe7ae338" x="129.962594" y="356.955967" style="fill: #cc0033; stroke: #cc0033"/>
     <use xlink:href="#md3fe7ae338" x="154.155891" y="351.83512" style="fill: #cc0033; stroke: #cc0033"/>
     <use xlink:href="#md3fe7ae338" x="178.349187" y="346.028444" style="fill: #cc0033; stroke: #cc0033"/>
     <use xlink:href="#md3fe7ae338" x="202.542484" y="340.369185" style="fill: #cc0033; stroke: #cc0033"/>
     <use xlink:href="#md3fe7ae338" x="226.735781" y="302.246079" style="fill: #cc0033; stroke: #cc0033"/>
     <use xlink:href="#md3fe7ae338" x="250.929077" y="329.297113" style="fill: #cc0033; stroke: #cc0033"/>
     <use xlink:href="#md3fe7ae338" x="347.702264" y="307.306157" style="fill: #cc0033; stroke: #cc0033"/>
     <use xlink:href="#md3fe7ae338" x="444.47545" y="74.078752" style="fill: #cc0033; stroke: #cc0033"/>
     <use xlink:href="#md3fe7ae338" x="541.248636" y="259.960689" style="fill: #cc0033; stroke: #cc0033"/>
    </g>
   </g>
   <g id="line2d_25">
    <g clip-path="url(#p1be05fdb19)">
     <use xlink:href="#md3fe7ae338" x="62.221364" y="373.516066" style="fill: #cc0033; stroke: #cc0033"/>
     <use xlink:href="#md3fe7ae338" x="67.060023" y="372.113685" style="fill: #cc0033; stroke: #cc0033"/>
     <use xlink:href="#md3fe7ae338" x="71.898682" y="370.872352" style="fill: #cc0033; stroke: #cc0033"/>
     <use xlink:href="#md3fe7ae338" x="76.737342" y="369.450759" style="fill: #cc0033; stroke: #cc0033"/>
     <use xlink:href="#md3fe7ae338" x="81.576001" y="368.275404" style="fill: #cc0033; stroke: #cc0033"/>
     <use xlink:href="#md3fe7ae338" x="105.769298" y="362.436861" style="fill: #cc0033; stroke: #cc0033"/>
     <use xlink:href="#md3fe7ae338" x="129.962594" y="356.52852" style="fill: #cc0033; stroke: #cc0033"/>
     <use xlink:href="#md3fe7ae338" x="154.155891" y="351.564973" style="fill: #cc0033; stroke: #cc0033"/>
     <use xlink:href="#md3fe7ae338" x="178.349187" y="333.638962" style="fill: #cc0033; stroke: #cc0033"/>
     <use xlink:href="#md3fe7ae338" x="202.542484" y="339.992224" style="fill: #cc0033; stroke: #cc0033"/>
     <use xlink:href="#md3fe7ae338" x="226.735781" y="301.615799" style="fill: #cc0033; stroke: #cc0033"/>
     <use xlink:href="#md3fe7ae338" x="250.929077" y="328.729536" style="fill: #cc0033; stroke: #cc0033"/>
     <use xlink:href="#md3fe7ae338" x="347.702264" y="215.652743" style="fill: #cc0033; stroke: #cc0033"/>
     <use xlink:href="#md3fe7ae338" x="444.47545" y="71.704662" style="fill: #cc0033; stroke: #cc0033"/>
     <use xlink:href="#md3fe7ae338" x="541.248636" y="259.355876" style="fill: #cc0033; stroke: #cc0033"/>
    </g>
   </g>
   <g id="line2d_26">
    <path d="M 62.221364 358.646262 
L 67.060023 350.813862 
L 71.898682 343.572157 
L 76.737342 335.750913 
L 81.576001 330.036463 
L 105.769298 301.899294 
L 129.962594 278.173948 
L 154.155891 255.078913 
" clip-path="url(#p1be05fdb19)" style="fill: none; stroke: #000099; stroke-width: 1.5; stroke-linecap: square"/>
   </g>
   <g id="line2d_27">
    <path d="M 62.221364 370.613434 
L 67.060023 366.107775 
L 71.898682 362.768929 
L 76.737342 358.34883 
L 81.576001 354.483508 
L 105.769298 337.336767 
L 129.962594 322.690856 
L 154.155891 308.4261 
L 178.349187 292.507933 
L 202.542484 277.713354 
L 226.735781 257.907499 
L 250.929077 249.466948 
L 347.702264 191.741093 
L 444.47545 132.322533 
L 541.248636 55.305552 
" clip-path="url(#p1be05fdb19)" style="fill: none; stroke: #006666; stroke-width: 1.5; stroke-linecap: square"/>
   </g>
   <g id="line2d_28">
    <path d="M 62.221364 372.21574 
L 67.060023 369.210507 
L 71.898682 367.523916 
L 76.737342 365.034698 
L 81.576001 362.127963 
L 105.769298 348.867627 
L 129.962594 336.174224 
L 154.155891 320.737647 
L 178.349187 309.488747 
L 202.542484 294.706801 
L 226.735781 282.834041 
L 250.929077 264.745788 
L 347.702264 204.136476 
L 444.47545 139.256587 
L 541.248636 56.628962 
" clip-path="url(#p1be05fdb19)" style="fill: none; stroke: #009933; stroke-width: 1.5; stroke-linecap: square"/>
   </g>
   <g id="line2d_29">
    <path d="M 62.221364 372.479966 
L 67.060023 369.726309 
L 71.898682 367.072536 
L 76.737342 364.762406 
L 81.576001 362.677096 
L 105.769298 351.135045 
L 129.962594 341.459669 
L 154.155891 332.295084 
L 178.349187 322.446802 
L 202.542484 313.87772 
L 226.735781 305.50528 
L 250.929077 298.983737 
L 347.702264 263.882896 
L 444.47545 220.058971 
L 541.248636 171.728778 
" clip-path="url(#p1be05fdb19)" style="fill: none; stroke: #0000cc; stroke-width: 1.5; stroke-linecap: square"/>
   </g>
   <g id="line2d_30">
    <path d="M 62.221364 372.628531 
L 67.060023 370.768953 
L 71.898682 369.288396 
L 76.737342 368.02104 
L 81.576001 366.18515 
L 105.769298 358.936346 
L 129.962594 351.379586 
L 154.155891 342.910803 
L 178.349187 335.069777 
L 202.542484 324.563748 
L 226.735781 317.895322 
L 250.929077 310.303029 
L 347.702264 273.324653 
L 444.47545 230.649095 
L 541.248636 193.765474 
" clip-path="url(#p1be05fdb19)" style="fill: none; stroke: #666600; stroke-width: 1.5; stroke-linecap: square"/>
   </g>
   <g id="line2d_31">
    <path d="M 62.221364 371.390443 
L 67.060023 368.102364 
L 71.898682 364.839407 
L 76.737342 361.726152 
L 81.576001 358.694624 
L 105.769298 344.092086 
L 129.962594 331.144762 
L 154.155891 319.490533 
L 178.349187 308.091789 
L 202.542484 296.835888 
L 226.735781 285.671664 
L 250.929077 275.546435 
L 347.702264 233.825659 
L 444.47545 189.463333 
L 541.248636 142.529103 
" clip-path="url(#p1be05fdb19)" style="fill: none; stroke: #990000; stroke-width: 1.5; stroke-linecap: square"/>
   </g>
   <g id="line2d_32">
    <path d="M 62.221364 373.522986 
L 67.060023 372.143579 
L 71.898682 370.881491 
L 76.737342 369.529527 
L 81.576001 368.343388 
L 105.769298 362.511858 
L 129.962594 356.789444 
L 154.155891 351.67862 
L 178.349187 337.964503 
L 202.542484 340.182377 
L 226.735781 301.881402 
L 250.929077 329.018949 
L 347.702264 276.5324 
L 444.47545 72.765865 
L 541.248636 259.688934 
" clip-path="url(#p1be05fdb19)" style="fill: none; stroke: #cc0033; stroke-width: 1.5; stroke-linecap: square"/>
   </g>
   <g id="patch_3">
    <path d="M 38.27 390.04 
L 38.27 26.88 
" style="fill: none; stroke: #000000; stroke-width: 0.8; stroke-linejoin: miter; stroke-linecap: square"/>
   </g>
   <g id="patch_4">
    <path d="M 565.2 390.04 
L 565.2 26.88 
" style="fill: none; stroke: #000000; stroke-width: 0.8; stroke-linejoin: miter; stroke-linecap: square"/>
   </g>
   <g id="patch_5">
    <path d="M 38.27 390.04 
L 565.2 390.04 
" style="fill: none; stroke: #000000; stroke-width: 0.8; stroke-linejoin: miter; stroke-linecap: square"/>
   </g>
   <g id="patch_6">
    <path d="M 38.27 26.88 
L 565.2 26.88 
" style="fill: none; stroke: #000000; stroke-width: 0.8; stroke-linejoin: miter; stroke-linecap: square"/>
   </g>
   <g id="text_15">
    <!-- Bron-Kerbosch on a random graph of order 1M -->
    <g transform="translate(38.27 20.88)scale(0.12 -0.12)">
     <defs>
      <path id="DejaVuSans-42" d="M 1259 2228 
L 1259 519 
L 2272 519 
Q 2781 519 3026 730 
Q 3272 941 3272 1375 
Q 3272 1813 3026 2020 
Q 2781 2228 2272 2228 
L 1259 2228 
z
M 1259 4147 
L 1259 2741 
L 2194 2741 
Q 2656 2741 2882 2914 
Q 3109 3088 3109 3444 
Q 3109 3797 2882 3972 
Q 2656 4147 2194 4147 
L 1259 4147 
z
M 628 4666 
L 2241 4666 
Q 2963 4666 3353 4366 
Q 3744 4066 3744 3513 
Q 3744 3084 3544 2831 
Q 3344 2578 2956 2516 
Q 3422 2416 3680 2098 
Q 3938 1781 3938 1306 
Q 3938 681 3513 340 
Q 3088 0 2303 0 
L 628 0 
L 628 4666 
z
" transform="scale(0.015625)"/>
      <path id="DejaVuSans-72" d="M 2631 2963 
Q 2534 3019 2420 3045 
Q 2306 3072 2169 3072 
Q 1681 3072 1420 2755 
Q 1159 2438 1159 1844 
L 1159 0 
L 581 0 
L 581 3500 
L 1159 3500 
L 1159 2956 
Q 1341 3275 1631 3429 
Q 1922 3584 2338 3584 
Q 2397 3584 2469 3576 
Q 2541 3569 2628 3553 
L 2631 2963 
z
" transform="scale(0.015625)"/>
      <path id="DejaVuSans-2d" d="M 313 2009 
L 1997 2009 
L 1997 1497 
L 313 1497 
L 313 2009 
z
" transform="scale(0.015625)"/>
      <path id="DejaVuSans-4b" d="M 628 4666 
L 1259 4666 
L 1259 2694 
L 3353 4666 
L 4166 4666 
L 1850 2491 
L 4331 0 
L 3500 0 
L 1259 2247 
L 1259 0 
L 628 0 
L 628 4666 
z
" transform="scale(0.015625)"/>
      <path id="DejaVuSans-62" d="M 3116 1747 
Q 3116 2381 2855 2742 
Q 2594 3103 2138 3103 
Q 1681 3103 1420 2742 
Q 1159 2381 1159 1747 
Q 1159 1113 1420 752 
Q 1681 391 2138 391 
Q 2594 391 2855 752 
Q 3116 1113 3116 1747 
z
M 1159 2969 
Q 1341 3281 1617 3432 
Q 1894 3584 2278 3584 
Q 2916 3584 3314 3078 
Q 3713 2572 3713 1747 
Q 3713 922 3314 415 
Q 2916 -91 2278 -91 
Q 1894 -91 1617 61 
Q 1341 213 1159 525 
L 1159 0 
L 581 0 
L 581 4863 
L 1159 4863 
L 1159 2969 
z
" transform="scale(0.015625)"/>
      <path id="DejaVuSans-68" d="M 3513 2113 
L 3513 0 
L 2938 0 
L 2938 2094 
Q 2938 2591 2744 2837 
Q 2550 3084 2163 3084 
Q 1697 3084 1428 2787 
Q 1159 2491 1159 1978 
L 1159 0 
L 581 0 
L 581 4863 
L 1159 4863 
L 1159 2956 
Q 1366 3272 1645 3428 
Q 1925 3584 2291 3584 
Q 2894 3584 3203 3211 
Q 3513 2838 3513 2113 
z
" transform="scale(0.015625)"/>
      <path id="DejaVuSans-61" d="M 2194 1759 
Q 1497 1759 1228 1600 
Q 959 1441 959 1056 
Q 959 750 1161 570 
Q 1363 391 1709 391 
Q 2188 391 2477 730 
Q 2766 1069 2766 1631 
L 2766 1759 
L 2194 1759 
z
M 3341 1997 
L 3341 0 
L 2766 0 
L 2766 531 
Q 2569 213 2275 61 
Q 1981 -91 1556 -91 
Q 1019 -91 701 211 
Q 384 513 384 1019 
Q 384 1609 779 1909 
Q 1175 2209 1959 2209 
L 2766 2209 
L 2766 2266 
Q 2766 2663 2505 2880 
Q 2244 3097 1772 3097 
Q 1472 3097 1187 3025 
Q 903 2953 641 2809 
L 641 3341 
Q 956 3463 1253 3523 
Q 1550 3584 1831 3584 
Q 2591 3584 2966 3190 
Q 3341 2797 3341 1997 
z
" transform="scale(0.015625)"/>
      <path id="DejaVuSans-6d" d="M 3328 2828 
Q 3544 3216 3844 3400 
Q 4144 3584 4550 3584 
Q 5097 3584 5394 3201 
Q 5691 2819 5691 2113 
L 5691 0 
L 5113 0 
L 5113 2094 
Q 5113 2597 4934 2840 
Q 4756 3084 4391 3084 
Q 3944 3084 3684 2787 
Q 3425 2491 3425 1978 
L 3425 0 
L 2847 0 
L 2847 2094 
Q 2847 2600 2669 2842 
Q 2491 3084 2119 3084 
Q 1678 3084 1418 2786 
Q 1159 2488 1159 1978 
L 1159 0 
L 581 0 
L 581 3500 
L 1159 3500 
L 1159 2956 
Q 1356 3278 1631 3431 
Q 1906 3584 2284 3584 
Q 2666 3584 2933 3390 
Q 3200 3197 3328 2828 
z
" transform="scale(0.015625)"/>
      <path id="DejaVuSans-66" d="M 2375 4863 
L 2375 4384 
L 1825 4384 
Q 1516 4384 1395 4259 
Q 1275 4134 1275 3809 
L 1275 3500 
L 2222 3500 
L 2222 3053 
L 1275 3053 
L 1275 0 
L 697 0 
L 697 3053 
L 147 3053 
L 147 3500 
L 697 3500 
L 697 3744 
Q 697 4328 969 4595 
Q 1241 4863 1831 4863 
L 2375 4863 
z
" transform="scale(0.015625)"/>
      <path id="DejaVuSans-4d" d="M 628 4666 
L 1569 4666 
L 2759 1491 
L 3956 4666 
L 4897 4666 
L 4897 0 
L 4281 0 
L 4281 4097 
L 3078 897 
L 2444 897 
L 1241 4097 
L 1241 0 
L 628 0 
L 628 4666 
z
" transform="scale(0.015625)"/>
     </defs>
     <use xlink:href="#DejaVuSans-42"/>
     <use xlink:href="#DejaVuSans-72" x="68.603516"/>
     <use xlink:href="#DejaVuSans-6f" x="107.466797"/>
     <use xlink:href="#DejaVuSans-6e" x="168.648438"/>
     <use xlink:href="#DejaVuSans-2d" x="232.027344"/>
     <use xlink:href="#DejaVuSans-4b" x="268.111328"/>
     <use xlink:href="#DejaVuSans-65" x="328.6875"/>
     <use xlink:href="#DejaVuSans-72" x="390.210938"/>
     <use xlink:href="#DejaVuSans-62" x="431.324219"/>
     <use xlink:href="#DejaVuSans-6f" x="494.800781"/>
     <use xlink:href="#DejaVuSans-73" x="555.982422"/>
     <use xlink:href="#DejaVuSans-63" x="608.082031"/>
     <use xlink:href="#DejaVuSans-68" x="663.0625"/>
     <use xlink:href="#DejaVuSans-20" x="726.441406"/>
     <use xlink:href="#DejaVuSans-6f" x="758.228516"/>
     <use xlink:href="#DejaVuSans-6e" x="819.410156"/>
     <use xlink:href="#DejaVuSans-20" x="882.789062"/>
     <use xlink:href="#DejaVuSans-61" x="914.576172"/>
     <use xlink:href="#DejaVuSans-20" x="975.855469"/>
     <use xlink:href="#DejaVuSans-72" x="1007.642578"/>
     <use xlink:href="#DejaVuSans-61" x="1048.755859"/>
     <use xlink:href="#DejaVuSans-6e" x="1110.035156"/>
     <use xlink:href="#DejaVuSans-64" x="1173.414062"/>
     <use xlink:href="#DejaVuSans-6f" x="1236.890625"/>
     <use xlink:href="#DejaVuSans-6d" x="1298.072266"/>
     <use xlink:href="#DejaVuSans-20" x="1395.484375"/>
     <use xlink:href="#DejaVuSans-67" x="1427.271484"/>
     <use xlink:href="#DejaVuSans-72" x="1490.748047"/>
     <use xlink:href="#DejaVuSans-61" x="1531.861328"/>
     <use xlink:href="#DejaVuSans-70" x="1593.140625"/>
     <use xlink:href="#DejaVuSans-68" x="1656.617188"/>
     <use xlink:href="#DejaVuSans-20" x="1719.996094"/>
     <use xlink:href="#DejaVuSans-6f" x="1751.783203"/>
     <use xlink:href="#DejaVuSans-66" x="1812.964844"/>
     <use xlink:href="#DejaVuSans-20" x="1848.169922"/>
     <use xlink:href="#DejaVuSans-6f" x="1879.957031"/>
     <use xlink:href="#DejaVuSans-72" x="1941.138672"/>
     <use xlink:href="#DejaVuSans-64" x="1980.501953"/>
     <use xlink:href="#DejaVuSans-65" x="2043.978516"/>
     <use xlink:href="#DejaVuSans-72" x="2105.501953"/>
     <use xlink:href="#DejaVuSans-20" x="2146.615234"/>
     <use xlink:href="#DejaVuSans-31" x="2178.402344"/>
     <use xlink:href="#DejaVuSans-4d" x="2242.025391"/>
    </g>
   </g>
   <g id="legend_1">
    <g id="patch_7">
     <path d="M 45.27 137.626875 
L 203.618437 137.626875 
Q 205.618437 137.626875 205.618437 135.626875 
L 205.618437 33.88 
Q 205.618437 31.88 203.618437 31.88 
L 45.27 31.88 
Q 43.27 31.88 43.27 33.88 
L 43.27 135.626875 
Q 43.27 137.626875 45.27 137.626875 
z
" style="fill: #ffffff; opacity: 0.8; stroke: #cccccc; stroke-linejoin: miter"/>
    </g>
    <g id="LineCollection_8">
     <path d="M 57.27 44.978437 
L 57.27 34.978437 
" style="fill: none; stroke: #000099; stroke-width: 1.5"/>
    </g>
    <g id="line2d_33">
     <g>
      <use xlink:href="#ma91f551ce1" x="57.27" y="44.978437" style="fill: #000099; stroke: #000099"/>
     </g>
    </g>
    <g id="line2d_34">
     <g>
      <use xlink:href="#ma91f551ce1" x="57.27" y="34.978437" style="fill: #000099; stroke: #000099"/>
     </g>
    </g>
    <g id="line2d_35">
     <path d="M 47.27 39.978437 
L 67.27 39.978437 
" style="fill: none; stroke: #000099; stroke-width: 1.5; stroke-linecap: square"/>
    </g>
    <g id="line2d_36"/>
    <g id="text_16">
     <!-- Python3 Ver3-GP -->
     <g transform="translate(75.27 43.478437)scale(0.1 -0.1)">
      <defs>
       <path id="DejaVuSans-50" d="M 1259 4147 
L 1259 2394 
L 2053 2394 
Q 2494 2394 2734 2622 
Q 2975 2850 2975 3272 
Q 2975 3691 2734 3919 
Q 2494 4147 2053 4147 
L 1259 4147 
z
M 628 4666 
L 2053 4666 
Q 2838 4666 3239 4311 
Q 3641 3956 3641 3272 
Q 3641 2581 3239 2228 
Q 2838 1875 2053 1875 
L 1259 1875 
L 1259 0 
L 628 0 
L 628 4666 
z
" transform="scale(0.015625)"/>
       <path id="DejaVuSans-79" d="M 2059 -325 
Q 1816 -950 1584 -1140 
Q 1353 -1331 966 -1331 
L 506 -1331 
L 506 -850 
L 844 -850 
Q 1081 -850 1212 -737 
Q 1344 -625 1503 -206 
L 1606 56 
L 191 3500 
L 800 3500 
L 1894 763 
L 2988 3500 
L 3597 3500 
L 2059 -325 
z
" transform="scale(0.015625)"/>
       <path id="DejaVuSans-56" d="M 1831 0 
L 50 4666 
L 709 4666 
L 2188 738 
L 3669 4666 
L 4325 4666 
L 2547 0 
L 1831 0 
z
" transform="scale(0.015625)"/>
       <path id="DejaVuSans-bd" d="M 488 2431 
L 1125 2431 
L 1125 4341 
L 428 4213 
L 428 4575 
L 1147 4697 
L 1575 4697 
L 1575 2431 
L 2216 2431 
L 2216 2088 
L 488 2088 
L 488 2431 
z
M 4470 332 
L 5795 332 
L 5795 -24 
L 3926 -24 
L 3926 319 
Q 4032 416 4229 591 
Q 5304 1544 5304 1838 
Q 5304 2044 5141 2170 
Q 4979 2297 4713 2297 
Q 4551 2297 4360 2242 
Q 4170 2188 3945 2079 
L 3945 2463 
Q 4185 2551 4393 2594 
Q 4601 2638 4779 2638 
Q 5232 2638 5504 2432 
Q 5776 2226 5776 1888 
Q 5776 1454 4741 566 
Q 4566 416 4470 332 
z
M 4309 4750 
L 4809 4750 
L 1896 -91 
L 1396 -91 
L 4309 4750 
z
" transform="scale(0.015625)"/>
       <path id="DejaVuSans-47" d="M 3809 666 
L 3809 1919 
L 2778 1919 
L 2778 2438 
L 4434 2438 
L 4434 434 
Q 4069 175 3628 42 
Q 3188 -91 2688 -91 
Q 1594 -91 976 548 
Q 359 1188 359 2328 
Q 359 3472 976 4111 
Q 1594 4750 2688 4750 
Q 3144 4750 3555 4637 
Q 3966 4525 4313 4306 
L 4313 3634 
Q 3963 3931 3569 4081 
Q 3175 4231 2741 4231 
Q 1884 4231 1454 3753 
Q 1025 3275 1025 2328 
Q 1025 1384 1454 906 
Q 1884 428 2741 428 
Q 3075 428 3337 486 
Q 3600 544 3809 666 
z
" transform="scale(0.015625)"/>
      </defs>
      <use xlink:href="#DejaVuSans-50"/>
      <use xlink:href="#DejaVuSans-79" x="60.302734"/>
      <use xlink:href="#DejaVuSans-74" x="119.482422"/>
      <use xlink:href="#DejaVuSans-68" x="158.691406"/>
      <use xlink:href="#DejaVuSans-6f" x="222.070312"/>
      <use xlink:href="#DejaVuSans-6e" x="283.251953"/>
      <use xlink:href="#DejaVuSans-33" x="346.630859"/>
      <use xlink:href="#DejaVuSans-20" x="410.253906"/>
      <use xlink:href="#DejaVuSans-56" x="442.041016"/>
      <use xlink:href="#DejaVuSans-65" x="502.699219"/>
      <use xlink:href="#DejaVuSans-72" x="564.222656"/>
      <use xlink:href="#DejaVuSans-33" x="605.335938"/>
      <use xlink:href="#DejaVuSans-bd" x="668.958984"/>
      <use xlink:href="#DejaVuSans-2d" x="765.882812"/>
      <use xlink:href="#DejaVuSans-47" x="805.591797"/>
      <use xlink:href="#DejaVuSans-50" x="883.082031"/>
     </g>
    </g>
    <g id="LineCollection_9">
     <path d="M 57.27 59.656563 
L 57.27 49.656563 
" style="fill: none; stroke: #006666; stroke-width: 1.5"/>
    </g>
    <g id="line2d_37">
     <g>
      <use xlink:href="#m647895b053" x="57.27" y="59.656563" style="fill: #006666; stroke: #006666"/>
     </g>
    </g>
    <g id="line2d_38">
     <g>
      <use xlink:href="#m647895b053" x="57.27" y="49.656563" style="fill: #006666; stroke: #006666"/>
     </g>
    </g>
    <g id="line2d_39">
     <path d="M 47.27 54.656563 
L 67.27 54.656563 
" style="fill: none; stroke: #006666; stroke-width: 1.5; stroke-linecap: square"/>
    </g>
    <g id="line2d_40"/>
    <g id="text_17">
     <!-- Scala Ver3-GP -->
     <g transform="translate(75.27 58.156563)scale(0.1 -0.1)">
      <defs>
       <path id="DejaVuSans-6c" d="M 603 4863 
L 1178 4863 
L 1178 0 
L 603 0 
L 603 4863 
z
" transform="scale(0.015625)"/>
      </defs>
      <use xlink:href="#DejaVuSans-53"/>
      <use xlink:href="#DejaVuSans-63" x="63.476562"/>
      <use xlink:href="#DejaVuSans-61" x="118.457031"/>
      <use xlink:href="#DejaVuSans-6c" x="179.736328"/>
      <use xlink:href="#DejaVuSans-61" x="207.519531"/>
      <use xlink:href="#DejaVuSans-20" x="268.798828"/>
      <use xlink:href="#DejaVuSans-56" x="300.585938"/>
      <use xlink:href="#DejaVuSans-65" x="361.244141"/>
      <use xlink:href="#DejaVuSans-72" x="422.767578"/>
      <use xlink:href="#DejaVuSans-33" x="463.880859"/>
      <use xlink:href="#DejaVuSans-bd" x="527.503906"/>
      <use xlink:href="#DejaVuSans-2d" x="624.427734"/>
      <use xlink:href="#DejaVuSans-47" x="664.136719"/>
      <use xlink:href="#DejaVuSans-50" x="741.626953"/>
     </g>
    </g>
    <g id="LineCollection_10">
     <path d="M 57.27 74.334687 
L 57.27 64.334687 
" style="fill: none; stroke: #009933; stroke-width: 1.5"/>
    </g>
    <g id="line2d_41">
     <g>
      <use xlink:href="#m567d63a80a" x="57.27" y="74.334687" style="fill: #009933; stroke: #009933"/>
     </g>
    </g>
    <g id="line2d_42">
     <g>
      <use xlink:href="#m567d63a80a" x="57.27" y="64.334687" style="fill: #009933; stroke: #009933"/>
     </g>
    </g>
    <g id="line2d_43">
     <path d="M 47.27 69.334687 
L 67.27 69.334687 
" style="fill: none; stroke: #009933; stroke-width: 1.5; stroke-linecap: square"/>
    </g>
    <g id="line2d_44"/>
    <g id="text_18">
     <!-- Java Ver3-GP -->
     <g transform="translate(75.27 72.834687)scale(0.1 -0.1)">
      <defs>
       <path id="DejaVuSans-4a" d="M 628 4666 
L 1259 4666 
L 1259 325 
Q 1259 -519 939 -900 
Q 619 -1281 -91 -1281 
L -331 -1281 
L -331 -750 
L -134 -750 
Q 284 -750 456 -515 
Q 628 -281 628 325 
L 628 4666 
z
" transform="scale(0.015625)"/>
       <path id="DejaVuSans-76" d="M 191 3500 
L 800 3500 
L 1894 563 
L 2988 3500 
L 3597 3500 
L 2284 0 
L 1503 0 
L 191 3500 
z
" transform="scale(0.015625)"/>
      </defs>
      <use xlink:href="#DejaVuSans-4a"/>
      <use xlink:href="#DejaVuSans-61" x="29.492188"/>
      <use xlink:href="#DejaVuSans-76" x="90.771484"/>
      <use xlink:href="#DejaVuSans-61" x="149.951172"/>
      <use xlink:href="#DejaVuSans-20" x="211.230469"/>
      <use xlink:href="#DejaVuSans-56" x="243.017578"/>
      <use xlink:href="#DejaVuSans-65" x="303.675781"/>
      <use xlink:href="#DejaVuSans-72" x="365.199219"/>
      <use xlink:href="#DejaVuSans-33" x="406.3125"/>
      <use xlink:href="#DejaVuSans-bd" x="469.935547"/>
      <use xlink:href="#DejaVuSans-2d" x="566.859375"/>
      <use xlink:href="#DejaVuSans-47" x="606.568359"/>
      <use xlink:href="#DejaVuSans-50" x="684.058594"/>
     </g>
    </g>
    <g id="LineCollection_11">
     <path d="M 57.27 89.012812 
L 57.27 79.012812 
" style="fill: none; stroke: #0000cc; stroke-width: 1.5"/>
    </g>
    <g id="line2d_45">
     <g>
      <use xlink:href="#m71e13e22db" x="57.27" y="89.012812" style="fill: #0000cc; stroke: #0000cc"/>
     </g>
    </g>
    <g id="line2d_46">
     <g>
      <use xlink:href="#m71e13e22db" x="57.27" y="79.012812" style="fill: #0000cc; stroke: #0000cc"/>
     </g>
    </g>
    <g id="line2d_47">
     <path d="M 47.27 84.012812 
L 67.27 84.012812 
" style="fill: none; stroke: #0000cc; stroke-width: 1.5; stroke-linecap: square"/>
    </g>
    <g id="line2d_48"/>
    <g id="text_19">
     <!-- Go Ver3-GP -->
     <g transform="translate(75.27 87.512812)scale(0.1 -0.1)">
      <use xlink:href="#DejaVuSans-47"/>
      <use xlink:href="#DejaVuSans-6f" x="77.490234"/>
      <use xlink:href="#DejaVuSans-20" x="138.671875"/>
      <use xlink:href="#DejaVuSans-56" x="170.458984"/>
      <use xlink:href="#DejaVuSans-65" x="231.117188"/>
      <use xlink:href="#DejaVuSans-72" x="292.640625"/>
      <use xlink:href="#DejaVuSans-33" x="333.753906"/>
      <use xlink:href="#DejaVuSans-bd" x="397.376953"/>
      <use xlink:href="#DejaVuSans-2d" x="494.300781"/>
      <use xlink:href="#DejaVuSans-47" x="534.009766"/>
      <use xlink:href="#DejaVuSans-50" x="611.5"/>
     </g>
    </g>
    <g id="LineCollection_12">
     <path d="M 57.27 103.690938 
L 57.27 93.690938 
" style="fill: none; stroke: #666600; stroke-width: 1.5"/>
    </g>
    <g id="line2d_49">
     <g>
      <use xlink:href="#ma612d83d5a" x="57.27" y="103.690938" style="fill: #666600; stroke: #666600"/>
     </g>
    </g>
    <g id="line2d_50">
     <g>
      <use xlink:href="#ma612d83d5a" x="57.27" y="93.690938" style="fill: #666600; stroke: #666600"/>
     </g>
    </g>
    <g id="line2d_51">
     <path d="M 47.27 98.690938 
L 67.27 98.690938 
" style="fill: none; stroke: #666600; stroke-width: 1.5; stroke-linecap: square"/>
    </g>
    <g id="line2d_52"/>
    <g id="text_20">
     <!-- C# Ver3-GP -->
     <g transform="translate(75.27 102.190938)scale(0.1 -0.1)">
      <defs>
       <path id="DejaVuSans-43" d="M 4122 4306 
L 4122 3641 
Q 3803 3938 3442 4084 
Q 3081 4231 2675 4231 
Q 1875 4231 1450 3742 
Q 1025 3253 1025 2328 
Q 1025 1406 1450 917 
Q 1875 428 2675 428 
Q 3081 428 3442 575 
Q 3803 722 4122 1019 
L 4122 359 
Q 3791 134 3420 21 
Q 3050 -91 2638 -91 
Q 1578 -91 968 557 
Q 359 1206 359 2328 
Q 359 3453 968 4101 
Q 1578 4750 2638 4750 
Q 3056 4750 3426 4639 
Q 3797 4528 4122 4306 
z
" transform="scale(0.015625)"/>
      </defs>
      <use xlink:href="#DejaVuSans-43"/>
      <use xlink:href="#DejaVuSans-23" x="69.824219"/>
      <use xlink:href="#DejaVuSans-20" x="153.613281"/>
      <use xlink:href="#DejaVuSans-56" x="185.400391"/>
      <use xlink:href="#DejaVuSans-65" x="246.058594"/>
      <use xlink:href="#DejaVuSans-72" x="307.582031"/>
      <use xlink:href="#DejaVuSans-33" x="348.695312"/>
      <use xlink:href="#DejaVuSans-bd" x="412.318359"/>
      <use xlink:href="#DejaVuSans-2d" x="509.242188"/>
      <use xlink:href="#DejaVuSans-47" x="548.951172"/>
      <use xlink:href="#DejaVuSans-50" x="626.441406"/>
     </g>
    </g>
    <g id="LineCollection_13">
     <path d="M 57.27 118.369062 
L 57.27 108.369062 
" style="fill: none; stroke: #990000; stroke-width: 1.5"/>
    </g>
    <g id="line2d_53">
     <g>
      <use xlink:href="#md9b07cde7a" x="57.27" y="118.369062" style="fill: #990000; stroke: #990000"/>
     </g>
    </g>
    <g id="line2d_54">
     <g>
      <use xlink:href="#md9b07cde7a" x="57.27" y="108.369062" style="fill: #990000; stroke: #990000"/>
     </g>
    </g>
    <g id="line2d_55">
     <path d="M 47.27 113.369062 
L 67.27 113.369062 
" style="fill: none; stroke: #990000; stroke-width: 1.5; stroke-linecap: square"/>
    </g>
    <g id="line2d_56"/>
    <g id="text_21">
     <!-- C++@hashset Ver3-GP -->
     <g transform="translate(75.27 116.869062)scale(0.1 -0.1)">
      <defs>
       <path id="DejaVuSans-2b" d="M 2944 4013 
L 2944 2272 
L 4684 2272 
L 4684 1741 
L 2944 1741 
L 2944 0 
L 2419 0 
L 2419 1741 
L 678 1741 
L 678 2272 
L 2419 2272 
L 2419 4013 
L 2944 4013 
z
" transform="scale(0.015625)"/>
       <path id="DejaVuSans-40" d="M 2381 1678 
Q 2381 1231 2603 976 
Q 2825 722 3213 722 
Q 3597 722 3817 978 
Q 4038 1234 4038 1678 
Q 4038 2116 3813 2373 
Q 3588 2631 3206 2631 
Q 2828 2631 2604 2375 
Q 2381 2119 2381 1678 
z
M 4084 744 
Q 3897 503 3655 389 
Q 3413 275 3091 275 
Q 2553 275 2217 664 
Q 1881 1053 1881 1678 
Q 1881 2303 2218 2693 
Q 2556 3084 3091 3084 
Q 3413 3084 3656 2967 
Q 3900 2850 4084 2613 
L 4084 3022 
L 4531 3022 
L 4531 722 
Q 4988 791 5245 1139 
Q 5503 1488 5503 2041 
Q 5503 2375 5404 2669 
Q 5306 2963 5106 3213 
Q 4781 3622 4314 3839 
Q 3847 4056 3297 4056 
Q 2913 4056 2559 3954 
Q 2206 3853 1906 3653 
Q 1416 3334 1139 2817 
Q 863 2300 863 1697 
Q 863 1200 1042 765 
Q 1222 331 1563 0 
Q 1891 -325 2322 -495 
Q 2753 -666 3244 -666 
Q 3647 -666 4036 -530 
Q 4425 -394 4750 -141 
L 5031 -488 
Q 4641 -791 4180 -952 
Q 3719 -1113 3244 -1113 
Q 2666 -1113 2153 -908 
Q 1641 -703 1241 -313 
Q 841 78 631 592 
Q 422 1106 422 1697 
Q 422 2266 634 2781 
Q 847 3297 1241 3688 
Q 1644 4084 2172 4295 
Q 2700 4506 3291 4506 
Q 3953 4506 4520 4234 
Q 5088 3963 5472 3463 
Q 5706 3156 5829 2797 
Q 5953 2438 5953 2053 
Q 5953 1231 5456 756 
Q 4959 281 4084 263 
L 4084 744 
z
" transform="scale(0.015625)"/>
      </defs>
      <use xlink:href="#DejaVuSans-43"/>
      <use xlink:href="#DejaVuSans-2b" x="69.824219"/>
      <use xlink:href="#DejaVuSans-2b" x="153.613281"/>
      <use xlink:href="#DejaVuSans-40" x="237.402344"/>
      <use xlink:href="#DejaVuSans-68" x="337.402344"/>
      <use xlink:href="#DejaVuSans-61" x="400.78125"/>
      <use xlink:href="#DejaVuSans-73" x="462.060547"/>
      <use xlink:href="#DejaVuSans-68" x="514.160156"/>
      <use xlink:href="#DejaVuSans-73" x="577.539062"/>
      <use xlink:href="#DejaVuSans-65" x="629.638672"/>
      <use xlink:href="#DejaVuSans-74" x="691.162109"/>
      <use xlink:href="#DejaVuSans-20" x="730.371094"/>
      <use xlink:href="#DejaVuSans-56" x="762.158203"/>
      <use xlink:href="#DejaVuSans-65" x="822.816406"/>
      <use xlink:href="#DejaVuSans-72" x="884.339844"/>
      <use xlink:href="#DejaVuSans-33" x="925.453125"/>
      <use xlink:href="#DejaVuSans-bd" x="989.076172"/>
      <use xlink:href="#DejaVuSans-2d" x="1086"/>
      <use xlink:href="#DejaVuSans-47" x="1125.708984"/>
      <use xlink:href="#DejaVuSans-50" x="1203.199219"/>
     </g>
    </g>
    <g id="LineCollection_14">
     <path d="M 57.27 133.047187 
L 57.27 123.047187 
" style="fill: none; stroke: #cc0033; stroke-width: 1.5"/>
    </g>
    <g id="line2d_57">
     <g>
      <use xlink:href="#md3fe7ae338" x="57.27" y="133.047187" style="fill: #cc0033; stroke: #cc0033"/>
     </g>
    </g>
    <g id="line2d_58">
     <g>
      <use xlink:href="#md3fe7ae338" x="57.27" y="123.047187" style="fill: #cc0033; stroke: #cc0033"/>
     </g>
    </g>
    <g id="line2d_59">
     <path d="M 47.27 128.047187 
L 67.27 128.047187 
" style="fill: none; stroke: #cc0033; stroke-width: 1.5; stroke-linecap: square"/>
    </g>
    <g id="line2d_60"/>
    <g id="text_22">
     <!-- Rust@fnv Ver3-GP -->
     <g transform="translate(75.27 131.547187)scale(0.1 -0.1)">
      <defs>
       <path id="DejaVuSans-52" d="M 2841 2188 
Q 3044 2119 3236 1894 
Q 3428 1669 3622 1275 
L 4263 0 
L 3584 0 
L 2988 1197 
Q 2756 1666 2539 1819 
Q 2322 1972 1947 1972 
L 1259 1972 
L 1259 0 
L 628 0 
L 628 4666 
L 2053 4666 
Q 2853 4666 3247 4331 
Q 3641 3997 3641 3322 
Q 3641 2881 3436 2590 
Q 3231 2300 2841 2188 
z
M 1259 4147 
L 1259 2491 
L 2053 2491 
Q 2509 2491 2742 2702 
Q 2975 2913 2975 3322 
Q 2975 3731 2742 3939 
Q 2509 4147 2053 4147 
L 1259 4147 
z
" transform="scale(0.015625)"/>
       <path id="DejaVuSans-75" d="M 544 1381 
L 544 3500 
L 1119 3500 
L 1119 1403 
Q 1119 906 1312 657 
Q 1506 409 1894 409 
Q 2359 409 2629 706 
Q 2900 1003 2900 1516 
L 2900 3500 
L 3475 3500 
L 3475 0 
L 2900 0 
L 2900 538 
Q 2691 219 2414 64 
Q 2138 -91 1772 -91 
Q 1169 -91 856 284 
Q 544 659 544 1381 
z
M 1991 3584 
L 1991 3584 
z
" transform="scale(0.015625)"/>
      </defs>
      <use xlink:href="#DejaVuSans-52"/>
      <use xlink:href="#DejaVuSans-75" x="64.982422"/>
      <use xlink:href="#DejaVuSans-73" x="128.361328"/>
      <use xlink:href="#DejaVuSans-74" x="180.460938"/>
      <use xlink:href="#DejaVuSans-40" x="219.669922"/>
      <use xlink:href="#DejaVuSans-66" x="319.669922"/>
      <use xlink:href="#DejaVuSans-6e" x="354.875"/>
      <use xlink:href="#DejaVuSans-76" x="418.253906"/>
      <use xlink:href="#DejaVuSans-20" x="477.433594"/>
      <use xlink:href="#DejaVuSans-56" x="509.220703"/>
      <use xlink:href="#DejaVuSans-65" x="569.878906"/>
      <use xlink:href="#DejaVuSans-72" x="631.402344"/>
      <use xlink:href="#DejaVuSans-33" x="672.515625"/>
      <use xlink:href="#DejaVuSans-bd" x="736.138672"/>
      <use xlink:href="#DejaVuSans-2d" x="833.0625"/>
      <use xlink:href="#DejaVuSans-47" x="872.771484"/>
      <use xlink:href="#DejaVuSans-50" x="950.261719"/>
     </g>
    </g>
   </g>
  </g>
 </g>
 <defs>
  <clipPath id="p1be05fdb19">
   <rect x="38.27" y="26.88" width="526.93" height="363.16"/>
  </clipPath>
 </defs>
</svg>
