<?xml version="1.0" encoding="utf-8" standalone="no"?>
<!DOCTYPE svg PUBLIC "-//W3C//DTD SVG 1.1//EN"
  "http://www.w3.org/Graphics/SVG/1.1/DTD/svg11.dtd">
<svg xmlns:xlink="http://www.w3.org/1999/xlink" width="576pt" height="432pt" viewBox="0 0 576 432" xmlns="http://www.w3.org/2000/svg" version="1.1">
 <metadata>
  <rdf:RDF xmlns:dc="http://purl.org/dc/elements/1.1/" xmlns:cc="http://creativecommons.org/ns#" xmlns:rdf="http://www.w3.org/1999/02/22-rdf-syntax-ns#">
   <cc:Work>
    <dc:type rdf:resource="http://purl.org/dc/dcmitype/StillImage"/>
    <dc:date>2021-12-02T22:54:10.527874</dc:date>
    <dc:format>image/svg+xml</dc:format>
    <dc:creator>
     <cc:Agent>
      <dc:title>Matplotlib v3.5.0, https://matplotlib.org/</dc:title>
     </cc:Agent>
    </dc:creator>
   </cc:Work>
  </rdf:RDF>
 </metadata>
 <defs>
  <style type="text/css">*{stroke-linejoin: round; stroke-linecap: butt}</style>
 </defs>
 <g id="figure_1">
  <g id="patch_1">
   <path d="M 0 432 
L 576 432 
L 576 0 
L 0 0 
z
" style="fill: #ffffff"/>
  </g>
  <g id="axes_1">
   <g id="patch_2">
    <path d="M 47.72 390.04 
L 565.2 390.04 
L 565.2 26.88 
L 47.72 26.88 
z
" style="fill: #ffffff"/>
   </g>
   <g id="matplotlib.axis_1">
    <g id="xtick_1">
     <g id="line2d_1">
      <defs>
       <path id="m5bf1f0b4ad" d="M 0 0 
L 0 3.5 
" style="stroke: #000000; stroke-width: 0.8"/>
      </defs>
      <g>
       <use xlink:href="#m5bf1f0b4ad" x="71.241818" y="390.04" style="stroke: #000000; stroke-width: 0.8"/>
      </g>
     </g>
     <g id="text_1">
      <!-- 2000 -->
      <g transform="translate(58.516818 404.638438)scale(0.1 -0.1)">
       <defs>
        <path id="DejaVuSans-32" d="M 1228 531 
L 3431 531 
L 3431 0 
L 469 0 
L 469 531 
Q 828 903 1448 1529 
Q 2069 2156 2228 2338 
Q 2531 2678 2651 2914 
Q 2772 3150 2772 3378 
Q 2772 3750 2511 3984 
Q 2250 4219 1831 4219 
Q 1534 4219 1204 4116 
Q 875 4013 500 3803 
L 500 4441 
Q 881 4594 1212 4672 
Q 1544 4750 1819 4750 
Q 2544 4750 2975 4387 
Q 3406 4025 3406 3419 
Q 3406 3131 3298 2873 
Q 3191 2616 2906 2266 
Q 2828 2175 2409 1742 
Q 1991 1309 1228 531 
z
" transform="scale(0.015625)"/>
        <path id="DejaVuSans-30" d="M 2034 4250 
Q 1547 4250 1301 3770 
Q 1056 3291 1056 2328 
Q 1056 1369 1301 889 
Q 1547 409 2034 409 
Q 2525 409 2770 889 
Q 3016 1369 3016 2328 
Q 3016 3291 2770 3770 
Q 2525 4250 2034 4250 
z
M 2034 4750 
Q 2819 4750 3233 4129 
Q 3647 3509 3647 2328 
Q 3647 1150 3233 529 
Q 2819 -91 2034 -91 
Q 1250 -91 836 529 
Q 422 1150 422 2328 
Q 422 3509 836 4129 
Q 1250 4750 2034 4750 
z
" transform="scale(0.015625)"/>
       </defs>
       <use xlink:href="#DejaVuSans-32"/>
       <use xlink:href="#DejaVuSans-30" x="63.623047"/>
       <use xlink:href="#DejaVuSans-30" x="127.246094"/>
       <use xlink:href="#DejaVuSans-30" x="190.869141"/>
      </g>
     </g>
    </g>
    <g id="xtick_2">
     <g id="line2d_2">
      <g>
       <use xlink:href="#m5bf1f0b4ad" x="165.329091" y="390.04" style="stroke: #000000; stroke-width: 0.8"/>
      </g>
     </g>
     <g id="text_2">
      <!-- 2200 -->
      <g transform="translate(152.604091 404.638438)scale(0.1 -0.1)">
       <use xlink:href="#DejaVuSans-32"/>
       <use xlink:href="#DejaVuSans-32" x="63.623047"/>
       <use xlink:href="#DejaVuSans-30" x="127.246094"/>
       <use xlink:href="#DejaVuSans-30" x="190.869141"/>
      </g>
     </g>
    </g>
    <g id="xtick_3">
     <g id="line2d_3">
      <g>
       <use xlink:href="#m5bf1f0b4ad" x="259.416364" y="390.04" style="stroke: #000000; stroke-width: 0.8"/>
      </g>
     </g>
     <g id="text_3">
      <!-- 2400 -->
      <g transform="translate(246.691364 404.638438)scale(0.1 -0.1)">
       <defs>
        <path id="DejaVuSans-34" d="M 2419 4116 
L 825 1625 
L 2419 1625 
L 2419 4116 
z
M 2253 4666 
L 3047 4666 
L 3047 1625 
L 3713 1625 
L 3713 1100 
L 3047 1100 
L 3047 0 
L 2419 0 
L 2419 1100 
L 313 1100 
L 313 1709 
L 2253 4666 
z
" transform="scale(0.015625)"/>
       </defs>
       <use xlink:href="#DejaVuSans-32"/>
       <use xlink:href="#DejaVuSans-34" x="63.623047"/>
       <use xlink:href="#DejaVuSans-30" x="127.246094"/>
       <use xlink:href="#DejaVuSans-30" x="190.869141"/>
      </g>
     </g>
    </g>
    <g id="xtick_4">
     <g id="line2d_4">
      <g>
       <use xlink:href="#m5bf1f0b4ad" x="353.503636" y="390.04" style="stroke: #000000; stroke-width: 0.8"/>
      </g>
     </g>
     <g id="text_4">
      <!-- 2600 -->
      <g transform="translate(340.778636 404.638438)scale(0.1 -0.1)">
       <defs>
        <path id="DejaVuSans-36" d="M 2113 2584 
Q 1688 2584 1439 2293 
Q 1191 2003 1191 1497 
Q 1191 994 1439 701 
Q 1688 409 2113 409 
Q 2538 409 2786 701 
Q 3034 994 3034 1497 
Q 3034 2003 2786 2293 
Q 2538 2584 2113 2584 
z
M 3366 4563 
L 3366 3988 
Q 3128 4100 2886 4159 
Q 2644 4219 2406 4219 
Q 1781 4219 1451 3797 
Q 1122 3375 1075 2522 
Q 1259 2794 1537 2939 
Q 1816 3084 2150 3084 
Q 2853 3084 3261 2657 
Q 3669 2231 3669 1497 
Q 3669 778 3244 343 
Q 2819 -91 2113 -91 
Q 1303 -91 875 529 
Q 447 1150 447 2328 
Q 447 3434 972 4092 
Q 1497 4750 2381 4750 
Q 2619 4750 2861 4703 
Q 3103 4656 3366 4563 
z
" transform="scale(0.015625)"/>
       </defs>
       <use xlink:href="#DejaVuSans-32"/>
       <use xlink:href="#DejaVuSans-36" x="63.623047"/>
       <use xlink:href="#DejaVuSans-30" x="127.246094"/>
       <use xlink:href="#DejaVuSans-30" x="190.869141"/>
      </g>
     </g>
    </g>
    <g id="xtick_5">
     <g id="line2d_5">
      <g>
       <use xlink:href="#m5bf1f0b4ad" x="447.590909" y="390.04" style="stroke: #000000; stroke-width: 0.8"/>
      </g>
     </g>
     <g id="text_5">
      <!-- 2800 -->
      <g transform="translate(434.865909 404.638438)scale(0.1 -0.1)">
       <defs>
        <path id="DejaVuSans-38" d="M 2034 2216 
Q 1584 2216 1326 1975 
Q 1069 1734 1069 1313 
Q 1069 891 1326 650 
Q 1584 409 2034 409 
Q 2484 409 2743 651 
Q 3003 894 3003 1313 
Q 3003 1734 2745 1975 
Q 2488 2216 2034 2216 
z
M 1403 2484 
Q 997 2584 770 2862 
Q 544 3141 544 3541 
Q 544 4100 942 4425 
Q 1341 4750 2034 4750 
Q 2731 4750 3128 4425 
Q 3525 4100 3525 3541 
Q 3525 3141 3298 2862 
Q 3072 2584 2669 2484 
Q 3125 2378 3379 2068 
Q 3634 1759 3634 1313 
Q 3634 634 3220 271 
Q 2806 -91 2034 -91 
Q 1263 -91 848 271 
Q 434 634 434 1313 
Q 434 1759 690 2068 
Q 947 2378 1403 2484 
z
M 1172 3481 
Q 1172 3119 1398 2916 
Q 1625 2713 2034 2713 
Q 2441 2713 2670 2916 
Q 2900 3119 2900 3481 
Q 2900 3844 2670 4047 
Q 2441 4250 2034 4250 
Q 1625 4250 1398 4047 
Q 1172 3844 1172 3481 
z
" transform="scale(0.015625)"/>
       </defs>
       <use xlink:href="#DejaVuSans-32"/>
       <use xlink:href="#DejaVuSans-38" x="63.623047"/>
       <use xlink:href="#DejaVuSans-30" x="127.246094"/>
       <use xlink:href="#DejaVuSans-30" x="190.869141"/>
      </g>
     </g>
    </g>
    <g id="xtick_6">
     <g id="line2d_6">
      <g>
       <use xlink:href="#m5bf1f0b4ad" x="541.678182" y="390.04" style="stroke: #000000; stroke-width: 0.8"/>
      </g>
     </g>
     <g id="text_6">
      <!-- 3000 -->
      <g transform="translate(528.953182 404.638438)scale(0.1 -0.1)">
       <defs>
        <path id="DejaVuSans-33" d="M 2597 2516 
Q 3050 2419 3304 2112 
Q 3559 1806 3559 1356 
Q 3559 666 3084 287 
Q 2609 -91 1734 -91 
Q 1441 -91 1130 -33 
Q 819 25 488 141 
L 488 750 
Q 750 597 1062 519 
Q 1375 441 1716 441 
Q 2309 441 2620 675 
Q 2931 909 2931 1356 
Q 2931 1769 2642 2001 
Q 2353 2234 1838 2234 
L 1294 2234 
L 1294 2753 
L 1863 2753 
Q 2328 2753 2575 2939 
Q 2822 3125 2822 3475 
Q 2822 3834 2567 4026 
Q 2313 4219 1838 4219 
Q 1578 4219 1281 4162 
Q 984 4106 628 3988 
L 628 4550 
Q 988 4650 1302 4700 
Q 1616 4750 1894 4750 
Q 2613 4750 3031 4423 
Q 3450 4097 3450 3541 
Q 3450 3153 3228 2886 
Q 3006 2619 2597 2516 
z
" transform="scale(0.015625)"/>
       </defs>
       <use xlink:href="#DejaVuSans-33"/>
       <use xlink:href="#DejaVuSans-30" x="63.623047"/>
       <use xlink:href="#DejaVuSans-30" x="127.246094"/>
       <use xlink:href="#DejaVuSans-30" x="190.869141"/>
      </g>
     </g>
    </g>
    <g id="text_7">
     <!-- Size (#edges) -->
     <g transform="translate(271.409219 418.316562)scale(0.1 -0.1)">
      <defs>
       <path id="DejaVuSans-53" d="M 3425 4513 
L 3425 3897 
Q 3066 4069 2747 4153 
Q 2428 4238 2131 4238 
Q 1616 4238 1336 4038 
Q 1056 3838 1056 3469 
Q 1056 3159 1242 3001 
Q 1428 2844 1947 2747 
L 2328 2669 
Q 3034 2534 3370 2195 
Q 3706 1856 3706 1288 
Q 3706 609 3251 259 
Q 2797 -91 1919 -91 
Q 1588 -91 1214 -16 
Q 841 59 441 206 
L 441 856 
Q 825 641 1194 531 
Q 1563 422 1919 422 
Q 2459 422 2753 634 
Q 3047 847 3047 1241 
Q 3047 1584 2836 1778 
Q 2625 1972 2144 2069 
L 1759 2144 
Q 1053 2284 737 2584 
Q 422 2884 422 3419 
Q 422 4038 858 4394 
Q 1294 4750 2059 4750 
Q 2388 4750 2728 4690 
Q 3069 4631 3425 4513 
z
" transform="scale(0.015625)"/>
       <path id="DejaVuSans-69" d="M 603 3500 
L 1178 3500 
L 1178 0 
L 603 0 
L 603 3500 
z
M 603 4863 
L 1178 4863 
L 1178 4134 
L 603 4134 
L 603 4863 
z
" transform="scale(0.015625)"/>
       <path id="DejaVuSans-7a" d="M 353 3500 
L 3084 3500 
L 3084 2975 
L 922 459 
L 3084 459 
L 3084 0 
L 275 0 
L 275 525 
L 2438 3041 
L 353 3041 
L 353 3500 
z
" transform="scale(0.015625)"/>
       <path id="DejaVuSans-65" d="M 3597 1894 
L 3597 1613 
L 953 1613 
Q 991 1019 1311 708 
Q 1631 397 2203 397 
Q 2534 397 2845 478 
Q 3156 559 3463 722 
L 3463 178 
Q 3153 47 2828 -22 
Q 2503 -91 2169 -91 
Q 1331 -91 842 396 
Q 353 884 353 1716 
Q 353 2575 817 3079 
Q 1281 3584 2069 3584 
Q 2775 3584 3186 3129 
Q 3597 2675 3597 1894 
z
M 3022 2063 
Q 3016 2534 2758 2815 
Q 2500 3097 2075 3097 
Q 1594 3097 1305 2825 
Q 1016 2553 972 2059 
L 3022 2063 
z
" transform="scale(0.015625)"/>
       <path id="DejaVuSans-20" transform="scale(0.015625)"/>
       <path id="DejaVuSans-28" d="M 1984 4856 
Q 1566 4138 1362 3434 
Q 1159 2731 1159 2009 
Q 1159 1288 1364 580 
Q 1569 -128 1984 -844 
L 1484 -844 
Q 1016 -109 783 600 
Q 550 1309 550 2009 
Q 550 2706 781 3412 
Q 1013 4119 1484 4856 
L 1984 4856 
z
" transform="scale(0.015625)"/>
       <path id="DejaVuSans-23" d="M 3272 2816 
L 2363 2816 
L 2100 1772 
L 3016 1772 
L 3272 2816 
z
M 2803 4594 
L 2478 3297 
L 3391 3297 
L 3719 4594 
L 4219 4594 
L 3897 3297 
L 4872 3297 
L 4872 2816 
L 3775 2816 
L 3519 1772 
L 4513 1772 
L 4513 1294 
L 3397 1294 
L 3072 0 
L 2572 0 
L 2894 1294 
L 1978 1294 
L 1656 0 
L 1153 0 
L 1478 1294 
L 494 1294 
L 494 1772 
L 1594 1772 
L 1856 2816 
L 850 2816 
L 850 3297 
L 1978 3297 
L 2297 4594 
L 2803 4594 
z
" transform="scale(0.015625)"/>
       <path id="DejaVuSans-64" d="M 2906 2969 
L 2906 4863 
L 3481 4863 
L 3481 0 
L 2906 0 
L 2906 525 
Q 2725 213 2448 61 
Q 2172 -91 1784 -91 
Q 1150 -91 751 415 
Q 353 922 353 1747 
Q 353 2572 751 3078 
Q 1150 3584 1784 3584 
Q 2172 3584 2448 3432 
Q 2725 3281 2906 2969 
z
M 947 1747 
Q 947 1113 1208 752 
Q 1469 391 1925 391 
Q 2381 391 2643 752 
Q 2906 1113 2906 1747 
Q 2906 2381 2643 2742 
Q 2381 3103 1925 3103 
Q 1469 3103 1208 2742 
Q 947 2381 947 1747 
z
" transform="scale(0.015625)"/>
       <path id="DejaVuSans-67" d="M 2906 1791 
Q 2906 2416 2648 2759 
Q 2391 3103 1925 3103 
Q 1463 3103 1205 2759 
Q 947 2416 947 1791 
Q 947 1169 1205 825 
Q 1463 481 1925 481 
Q 2391 481 2648 825 
Q 2906 1169 2906 1791 
z
M 3481 434 
Q 3481 -459 3084 -895 
Q 2688 -1331 1869 -1331 
Q 1566 -1331 1297 -1286 
Q 1028 -1241 775 -1147 
L 775 -588 
Q 1028 -725 1275 -790 
Q 1522 -856 1778 -856 
Q 2344 -856 2625 -561 
Q 2906 -266 2906 331 
L 2906 616 
Q 2728 306 2450 153 
Q 2172 0 1784 0 
Q 1141 0 747 490 
Q 353 981 353 1791 
Q 353 2603 747 3093 
Q 1141 3584 1784 3584 
Q 2172 3584 2450 3431 
Q 2728 3278 2906 2969 
L 2906 3500 
L 3481 3500 
L 3481 434 
z
" transform="scale(0.015625)"/>
       <path id="DejaVuSans-73" d="M 2834 3397 
L 2834 2853 
Q 2591 2978 2328 3040 
Q 2066 3103 1784 3103 
Q 1356 3103 1142 2972 
Q 928 2841 928 2578 
Q 928 2378 1081 2264 
Q 1234 2150 1697 2047 
L 1894 2003 
Q 2506 1872 2764 1633 
Q 3022 1394 3022 966 
Q 3022 478 2636 193 
Q 2250 -91 1575 -91 
Q 1294 -91 989 -36 
Q 684 19 347 128 
L 347 722 
Q 666 556 975 473 
Q 1284 391 1588 391 
Q 1994 391 2212 530 
Q 2431 669 2431 922 
Q 2431 1156 2273 1281 
Q 2116 1406 1581 1522 
L 1381 1569 
Q 847 1681 609 1914 
Q 372 2147 372 2553 
Q 372 3047 722 3315 
Q 1072 3584 1716 3584 
Q 2034 3584 2315 3537 
Q 2597 3491 2834 3397 
z
" transform="scale(0.015625)"/>
       <path id="DejaVuSans-29" d="M 513 4856 
L 1013 4856 
Q 1481 4119 1714 3412 
Q 1947 2706 1947 2009 
Q 1947 1309 1714 600 
Q 1481 -109 1013 -844 
L 513 -844 
Q 928 -128 1133 580 
Q 1338 1288 1338 2009 
Q 1338 2731 1133 3434 
Q 928 4138 513 4856 
z
" transform="scale(0.015625)"/>
      </defs>
      <use xlink:href="#DejaVuSans-53"/>
      <use xlink:href="#DejaVuSans-69" x="63.476562"/>
      <use xlink:href="#DejaVuSans-7a" x="91.259766"/>
      <use xlink:href="#DejaVuSans-65" x="143.75"/>
      <use xlink:href="#DejaVuSans-20" x="205.273438"/>
      <use xlink:href="#DejaVuSans-28" x="237.060547"/>
      <use xlink:href="#DejaVuSans-23" x="276.074219"/>
      <use xlink:href="#DejaVuSans-65" x="359.863281"/>
      <use xlink:href="#DejaVuSans-64" x="421.386719"/>
      <use xlink:href="#DejaVuSans-67" x="484.863281"/>
      <use xlink:href="#DejaVuSans-65" x="548.339844"/>
      <use xlink:href="#DejaVuSans-73" x="609.863281"/>
      <use xlink:href="#DejaVuSans-29" x="661.962891"/>
     </g>
    </g>
   </g>
   <g id="matplotlib.axis_2">
    <g id="ytick_1">
     <g id="line2d_7">
      <defs>
       <path id="m5990491906" d="M 0 0 
L -3.5 0 
" style="stroke: #000000; stroke-width: 0.8"/>
      </defs>
      <g>
       <use xlink:href="#m5990491906" x="47.72" y="378.937794" style="stroke: #000000; stroke-width: 0.8"/>
      </g>
     </g>
     <g id="text_8">
      <!-- 0.0 -->
      <g transform="translate(24.816875 382.737013)scale(0.1 -0.1)">
       <defs>
        <path id="DejaVuSans-2e" d="M 684 794 
L 1344 794 
L 1344 0 
L 684 0 
L 684 794 
z
" transform="scale(0.015625)"/>
       </defs>
       <use xlink:href="#DejaVuSans-30"/>
       <use xlink:href="#DejaVuSans-2e" x="63.623047"/>
       <use xlink:href="#DejaVuSans-30" x="95.410156"/>
      </g>
     </g>
    </g>
    <g id="ytick_2">
     <g id="line2d_8">
      <g>
       <use xlink:href="#m5990491906" x="47.72" y="324.133009" style="stroke: #000000; stroke-width: 0.8"/>
      </g>
     </g>
     <g id="text_9">
      <!-- 0.1 -->
      <g transform="translate(24.816875 327.932227)scale(0.1 -0.1)">
       <defs>
        <path id="DejaVuSans-31" d="M 794 531 
L 1825 531 
L 1825 4091 
L 703 3866 
L 703 4441 
L 1819 4666 
L 2450 4666 
L 2450 531 
L 3481 531 
L 3481 0 
L 794 0 
L 794 531 
z
" transform="scale(0.015625)"/>
       </defs>
       <use xlink:href="#DejaVuSans-30"/>
       <use xlink:href="#DejaVuSans-2e" x="63.623047"/>
       <use xlink:href="#DejaVuSans-31" x="95.410156"/>
      </g>
     </g>
    </g>
    <g id="ytick_3">
     <g id="line2d_9">
      <g>
       <use xlink:href="#m5990491906" x="47.72" y="269.328223" style="stroke: #000000; stroke-width: 0.8"/>
      </g>
     </g>
     <g id="text_10">
      <!-- 0.2 -->
      <g transform="translate(24.816875 273.127442)scale(0.1 -0.1)">
       <use xlink:href="#DejaVuSans-30"/>
       <use xlink:href="#DejaVuSans-2e" x="63.623047"/>
       <use xlink:href="#DejaVuSans-32" x="95.410156"/>
      </g>
     </g>
    </g>
    <g id="ytick_4">
     <g id="line2d_10">
      <g>
       <use xlink:href="#m5990491906" x="47.72" y="214.523437" style="stroke: #000000; stroke-width: 0.8"/>
      </g>
     </g>
     <g id="text_11">
      <!-- 0.3 -->
      <g transform="translate(24.816875 218.322656)scale(0.1 -0.1)">
       <use xlink:href="#DejaVuSans-30"/>
       <use xlink:href="#DejaVuSans-2e" x="63.623047"/>
       <use xlink:href="#DejaVuSans-33" x="95.410156"/>
      </g>
     </g>
    </g>
    <g id="ytick_5">
     <g id="line2d_11">
      <g>
       <use xlink:href="#m5990491906" x="47.72" y="159.718651" style="stroke: #000000; stroke-width: 0.8"/>
      </g>
     </g>
     <g id="text_12">
      <!-- 0.4 -->
      <g transform="translate(24.816875 163.51787)scale(0.1 -0.1)">
       <use xlink:href="#DejaVuSans-30"/>
       <use xlink:href="#DejaVuSans-2e" x="63.623047"/>
       <use xlink:href="#DejaVuSans-34" x="95.410156"/>
      </g>
     </g>
    </g>
    <g id="ytick_6">
     <g id="line2d_12">
      <g>
       <use xlink:href="#m5990491906" x="47.72" y="104.913865" style="stroke: #000000; stroke-width: 0.8"/>
      </g>
     </g>
     <g id="text_13">
      <!-- 0.5 -->
      <g transform="translate(24.816875 108.713084)scale(0.1 -0.1)">
       <defs>
        <path id="DejaVuSans-35" d="M 691 4666 
L 3169 4666 
L 3169 4134 
L 1269 4134 
L 1269 2991 
Q 1406 3038 1543 3061 
Q 1681 3084 1819 3084 
Q 2600 3084 3056 2656 
Q 3513 2228 3513 1497 
Q 3513 744 3044 326 
Q 2575 -91 1722 -91 
Q 1428 -91 1123 -41 
Q 819 9 494 109 
L 494 744 
Q 775 591 1075 516 
Q 1375 441 1709 441 
Q 2250 441 2565 725 
Q 2881 1009 2881 1497 
Q 2881 1984 2565 2268 
Q 2250 2553 1709 2553 
Q 1456 2553 1204 2497 
Q 953 2441 691 2322 
L 691 4666 
z
" transform="scale(0.015625)"/>
       </defs>
       <use xlink:href="#DejaVuSans-30"/>
       <use xlink:href="#DejaVuSans-2e" x="63.623047"/>
       <use xlink:href="#DejaVuSans-35" x="95.410156"/>
      </g>
     </g>
    </g>
    <g id="ytick_7">
     <g id="line2d_13">
      <g>
       <use xlink:href="#m5990491906" x="47.72" y="50.10908" style="stroke: #000000; stroke-width: 0.8"/>
      </g>
     </g>
     <g id="text_14">
      <!-- 0.6 -->
      <g transform="translate(24.816875 53.908298)scale(0.1 -0.1)">
       <use xlink:href="#DejaVuSans-30"/>
       <use xlink:href="#DejaVuSans-2e" x="63.623047"/>
       <use xlink:href="#DejaVuSans-36" x="95.410156"/>
      </g>
     </g>
    </g>
    <g id="text_15">
     <!-- Seconds spent -->
     <g transform="translate(18.737187 245.040469)rotate(-90)scale(0.1 -0.1)">
      <defs>
       <path id="DejaVuSans-63" d="M 3122 3366 
L 3122 2828 
Q 2878 2963 2633 3030 
Q 2388 3097 2138 3097 
Q 1578 3097 1268 2742 
Q 959 2388 959 1747 
Q 959 1106 1268 751 
Q 1578 397 2138 397 
Q 2388 397 2633 464 
Q 2878 531 3122 666 
L 3122 134 
Q 2881 22 2623 -34 
Q 2366 -91 2075 -91 
Q 1284 -91 818 406 
Q 353 903 353 1747 
Q 353 2603 823 3093 
Q 1294 3584 2113 3584 
Q 2378 3584 2631 3529 
Q 2884 3475 3122 3366 
z
" transform="scale(0.015625)"/>
       <path id="DejaVuSans-6f" d="M 1959 3097 
Q 1497 3097 1228 2736 
Q 959 2375 959 1747 
Q 959 1119 1226 758 
Q 1494 397 1959 397 
Q 2419 397 2687 759 
Q 2956 1122 2956 1747 
Q 2956 2369 2687 2733 
Q 2419 3097 1959 3097 
z
M 1959 3584 
Q 2709 3584 3137 3096 
Q 3566 2609 3566 1747 
Q 3566 888 3137 398 
Q 2709 -91 1959 -91 
Q 1206 -91 779 398 
Q 353 888 353 1747 
Q 353 2609 779 3096 
Q 1206 3584 1959 3584 
z
" transform="scale(0.015625)"/>
       <path id="DejaVuSans-6e" d="M 3513 2113 
L 3513 0 
L 2938 0 
L 2938 2094 
Q 2938 2591 2744 2837 
Q 2550 3084 2163 3084 
Q 1697 3084 1428 2787 
Q 1159 2491 1159 1978 
L 1159 0 
L 581 0 
L 581 3500 
L 1159 3500 
L 1159 2956 
Q 1366 3272 1645 3428 
Q 1925 3584 2291 3584 
Q 2894 3584 3203 3211 
Q 3513 2838 3513 2113 
z
" transform="scale(0.015625)"/>
       <path id="DejaVuSans-70" d="M 1159 525 
L 1159 -1331 
L 581 -1331 
L 581 3500 
L 1159 3500 
L 1159 2969 
Q 1341 3281 1617 3432 
Q 1894 3584 2278 3584 
Q 2916 3584 3314 3078 
Q 3713 2572 3713 1747 
Q 3713 922 3314 415 
Q 2916 -91 2278 -91 
Q 1894 -91 1617 61 
Q 1341 213 1159 525 
z
M 3116 1747 
Q 3116 2381 2855 2742 
Q 2594 3103 2138 3103 
Q 1681 3103 1420 2742 
Q 1159 2381 1159 1747 
Q 1159 1113 1420 752 
Q 1681 391 2138 391 
Q 2594 391 2855 752 
Q 3116 1113 3116 1747 
z
" transform="scale(0.015625)"/>
       <path id="DejaVuSans-74" d="M 1172 4494 
L 1172 3500 
L 2356 3500 
L 2356 3053 
L 1172 3053 
L 1172 1153 
Q 1172 725 1289 603 
Q 1406 481 1766 481 
L 2356 481 
L 2356 0 
L 1766 0 
Q 1100 0 847 248 
Q 594 497 594 1153 
L 594 3053 
L 172 3053 
L 172 3500 
L 594 3500 
L 594 4494 
L 1172 4494 
z
" transform="scale(0.015625)"/>
      </defs>
      <use xlink:href="#DejaVuSans-53"/>
      <use xlink:href="#DejaVuSans-65" x="63.476562"/>
      <use xlink:href="#DejaVuSans-63" x="125"/>
      <use xlink:href="#DejaVuSans-6f" x="179.980469"/>
      <use xlink:href="#DejaVuSans-6e" x="241.162109"/>
      <use xlink:href="#DejaVuSans-64" x="304.541016"/>
      <use xlink:href="#DejaVuSans-73" x="368.017578"/>
      <use xlink:href="#DejaVuSans-20" x="420.117188"/>
      <use xlink:href="#DejaVuSans-73" x="451.904297"/>
      <use xlink:href="#DejaVuSans-70" x="504.003906"/>
      <use xlink:href="#DejaVuSans-65" x="567.480469"/>
      <use xlink:href="#DejaVuSans-6e" x="629.003906"/>
      <use xlink:href="#DejaVuSans-74" x="692.382812"/>
     </g>
    </g>
   </g>
   <g id="LineCollection_1">
    <path d="M 71.241818 370.46355 
L 71.241818 370.220271 
" clip-path="url(#pc4d414fd2c)" style="fill: none; stroke: #1f77b4; stroke-width: 1.5"/>
    <path d="M 94.763636 369.31813 
L 94.763636 368.768218 
" clip-path="url(#pc4d414fd2c)" style="fill: none; stroke: #1f77b4; stroke-width: 1.5"/>
    <path d="M 118.285455 368.07861 
L 118.285455 367.9171 
" clip-path="url(#pc4d414fd2c)" style="fill: none; stroke: #1f77b4; stroke-width: 1.5"/>
    <path d="M 141.807273 366.724658 
L 141.807273 366.647766 
" clip-path="url(#pc4d414fd2c)" style="fill: none; stroke: #1f77b4; stroke-width: 1.5"/>
    <path d="M 165.329091 365.074979 
L 165.329091 364.947996 
" clip-path="url(#pc4d414fd2c)" style="fill: none; stroke: #1f77b4; stroke-width: 1.5"/>
    <path d="M 188.850909 363.002919 
L 188.850909 362.352715 
" clip-path="url(#pc4d414fd2c)" style="fill: none; stroke: #1f77b4; stroke-width: 1.5"/>
    <path d="M 212.372727 360.53791 
L 212.372727 360.410269 
" clip-path="url(#pc4d414fd2c)" style="fill: none; stroke: #1f77b4; stroke-width: 1.5"/>
    <path d="M 235.894545 358.020836 
L 235.894545 357.743359 
" clip-path="url(#pc4d414fd2c)" style="fill: none; stroke: #1f77b4; stroke-width: 1.5"/>
    <path d="M 259.416364 354.896524 
L 259.416364 354.282711 
" clip-path="url(#pc4d414fd2c)" style="fill: none; stroke: #1f77b4; stroke-width: 1.5"/>
    <path d="M 282.938182 351.543896 
L 282.938182 350.022844 
" clip-path="url(#pc4d414fd2c)" style="fill: none; stroke: #1f77b4; stroke-width: 1.5"/>
    <path d="M 306.46 347.524075 
L 306.46 347.202426 
" clip-path="url(#pc4d414fd2c)" style="fill: none; stroke: #1f77b4; stroke-width: 1.5"/>
    <path d="M 329.981818 342.660917 
L 329.981818 341.517964 
" clip-path="url(#pc4d414fd2c)" style="fill: none; stroke: #1f77b4; stroke-width: 1.5"/>
    <path d="M 353.503636 336.679413 
L 353.503636 335.875646 
" clip-path="url(#pc4d414fd2c)" style="fill: none; stroke: #1f77b4; stroke-width: 1.5"/>
    <path d="M 377.025455 330.344419 
L 377.025455 329.6969 
" clip-path="url(#pc4d414fd2c)" style="fill: none; stroke: #1f77b4; stroke-width: 1.5"/>
    <path d="M 400.547273 322.948129 
L 400.547273 320.818963 
" clip-path="url(#pc4d414fd2c)" style="fill: none; stroke: #1f77b4; stroke-width: 1.5"/>
    <path d="M 424.069091 313.391271 
L 424.069091 313.210963 
" clip-path="url(#pc4d414fd2c)" style="fill: none; stroke: #1f77b4; stroke-width: 1.5"/>
    <path d="M 447.590909 302.949863 
L 447.590909 300.614631 
" clip-path="url(#pc4d414fd2c)" style="fill: none; stroke: #1f77b4; stroke-width: 1.5"/>
    <path d="M 471.112727 288.555934 
L 471.112727 286.688187 
" clip-path="url(#pc4d414fd2c)" style="fill: none; stroke: #1f77b4; stroke-width: 1.5"/>
    <path d="M 494.634545 271.284206 
L 494.634545 270.314161 
" clip-path="url(#pc4d414fd2c)" style="fill: none; stroke: #1f77b4; stroke-width: 1.5"/>
    <path d="M 518.156364 251.255797 
L 518.156364 249.94651 
" clip-path="url(#pc4d414fd2c)" style="fill: none; stroke: #1f77b4; stroke-width: 1.5"/>
    <path d="M 541.678182 229.964137 
L 541.678182 227.365843 
" clip-path="url(#pc4d414fd2c)" style="fill: none; stroke: #1f77b4; stroke-width: 1.5"/>
   </g>
   <g id="line2d_14">
    <defs>
     <path id="md19b0d3ffb" d="M 3 0 
L -3 -0 
" style="stroke: #1f77b4"/>
    </defs>
    <g clip-path="url(#pc4d414fd2c)">
     <use xlink:href="#md19b0d3ffb" x="71.241818" y="370.46355" style="fill: #1f77b4; stroke: #1f77b4"/>
     <use xlink:href="#md19b0d3ffb" x="94.763636" y="369.31813" style="fill: #1f77b4; stroke: #1f77b4"/>
     <use xlink:href="#md19b0d3ffb" x="118.285455" y="368.07861" style="fill: #1f77b4; stroke: #1f77b4"/>
     <use xlink:href="#md19b0d3ffb" x="141.807273" y="366.724658" style="fill: #1f77b4; stroke: #1f77b4"/>
     <use xlink:href="#md19b0d3ffb" x="165.329091" y="365.074979" style="fill: #1f77b4; stroke: #1f77b4"/>
     <use xlink:href="#md19b0d3ffb" x="188.850909" y="363.002919" style="fill: #1f77b4; stroke: #1f77b4"/>
     <use xlink:href="#md19b0d3ffb" x="212.372727" y="360.53791" style="fill: #1f77b4; stroke: #1f77b4"/>
     <use xlink:href="#md19b0d3ffb" x="235.894545" y="358.020836" style="fill: #1f77b4; stroke: #1f77b4"/>
     <use xlink:href="#md19b0d3ffb" x="259.416364" y="354.896524" style="fill: #1f77b4; stroke: #1f77b4"/>
     <use xlink:href="#md19b0d3ffb" x="282.938182" y="351.543896" style="fill: #1f77b4; stroke: #1f77b4"/>
     <use xlink:href="#md19b0d3ffb" x="306.46" y="347.524075" style="fill: #1f77b4; stroke: #1f77b4"/>
     <use xlink:href="#md19b0d3ffb" x="329.981818" y="342.660917" style="fill: #1f77b4; stroke: #1f77b4"/>
     <use xlink:href="#md19b0d3ffb" x="353.503636" y="336.679413" style="fill: #1f77b4; stroke: #1f77b4"/>
     <use xlink:href="#md19b0d3ffb" x="377.025455" y="330.344419" style="fill: #1f77b4; stroke: #1f77b4"/>
     <use xlink:href="#md19b0d3ffb" x="400.547273" y="322.948129" style="fill: #1f77b4; stroke: #1f77b4"/>
     <use xlink:href="#md19b0d3ffb" x="424.069091" y="313.391271" style="fill: #1f77b4; stroke: #1f77b4"/>
     <use xlink:href="#md19b0d3ffb" x="447.590909" y="302.949863" style="fill: #1f77b4; stroke: #1f77b4"/>
     <use xlink:href="#md19b0d3ffb" x="471.112727" y="288.555934" style="fill: #1f77b4; stroke: #1f77b4"/>
     <use xlink:href="#md19b0d3ffb" x="494.634545" y="271.284206" style="fill: #1f77b4; stroke: #1f77b4"/>
     <use xlink:href="#md19b0d3ffb" x="518.156364" y="251.255797" style="fill: #1f77b4; stroke: #1f77b4"/>
     <use xlink:href="#md19b0d3ffb" x="541.678182" y="229.964137" style="fill: #1f77b4; stroke: #1f77b4"/>
    </g>
   </g>
   <g id="line2d_15">
    <g clip-path="url(#pc4d414fd2c)">
     <use xlink:href="#md19b0d3ffb" x="71.241818" y="370.220271" style="fill: #1f77b4; stroke: #1f77b4"/>
     <use xlink:href="#md19b0d3ffb" x="94.763636" y="368.768218" style="fill: #1f77b4; stroke: #1f77b4"/>
     <use xlink:href="#md19b0d3ffb" x="118.285455" y="367.9171" style="fill: #1f77b4; stroke: #1f77b4"/>
     <use xlink:href="#md19b0d3ffb" x="141.807273" y="366.647766" style="fill: #1f77b4; stroke: #1f77b4"/>
     <use xlink:href="#md19b0d3ffb" x="165.329091" y="364.947996" style="fill: #1f77b4; stroke: #1f77b4"/>
     <use xlink:href="#md19b0d3ffb" x="188.850909" y="362.352715" style="fill: #1f77b4; stroke: #1f77b4"/>
     <use xlink:href="#md19b0d3ffb" x="212.372727" y="360.410269" style="fill: #1f77b4; stroke: #1f77b4"/>
     <use xlink:href="#md19b0d3ffb" x="235.894545" y="357.743359" style="fill: #1f77b4; stroke: #1f77b4"/>
     <use xlink:href="#md19b0d3ffb" x="259.416364" y="354.282711" style="fill: #1f77b4; stroke: #1f77b4"/>
     <use xlink:href="#md19b0d3ffb" x="282.938182" y="350.022844" style="fill: #1f77b4; stroke: #1f77b4"/>
     <use xlink:href="#md19b0d3ffb" x="306.46" y="347.202426" style="fill: #1f77b4; stroke: #1f77b4"/>
     <use xlink:href="#md19b0d3ffb" x="329.981818" y="341.517964" style="fill: #1f77b4; stroke: #1f77b4"/>
     <use xlink:href="#md19b0d3ffb" x="353.503636" y="335.875646" style="fill: #1f77b4; stroke: #1f77b4"/>
     <use xlink:href="#md19b0d3ffb" x="377.025455" y="329.6969" style="fill: #1f77b4; stroke: #1f77b4"/>
     <use xlink:href="#md19b0d3ffb" x="400.547273" y="320.818963" style="fill: #1f77b4; stroke: #1f77b4"/>
     <use xlink:href="#md19b0d3ffb" x="424.069091" y="313.210963" style="fill: #1f77b4; stroke: #1f77b4"/>
     <use xlink:href="#md19b0d3ffb" x="447.590909" y="300.614631" style="fill: #1f77b4; stroke: #1f77b4"/>
     <use xlink:href="#md19b0d3ffb" x="471.112727" y="286.688187" style="fill: #1f77b4; stroke: #1f77b4"/>
     <use xlink:href="#md19b0d3ffb" x="494.634545" y="270.314161" style="fill: #1f77b4; stroke: #1f77b4"/>
     <use xlink:href="#md19b0d3ffb" x="518.156364" y="249.94651" style="fill: #1f77b4; stroke: #1f77b4"/>
     <use xlink:href="#md19b0d3ffb" x="541.678182" y="227.365843" style="fill: #1f77b4; stroke: #1f77b4"/>
    </g>
   </g>
   <g id="LineCollection_2">
    <path d="M 71.241818 363.806906 
L 71.241818 363.327528 
" clip-path="url(#pc4d414fd2c)" style="fill: none; stroke: #ff7f0e; stroke-width: 1.5"/>
    <path d="M 94.763636 361.434132 
L 94.763636 361.306985 
" clip-path="url(#pc4d414fd2c)" style="fill: none; stroke: #ff7f0e; stroke-width: 1.5"/>
    <path d="M 118.285455 359.179792 
L 118.285455 358.5993 
" clip-path="url(#pc4d414fd2c)" style="fill: none; stroke: #ff7f0e; stroke-width: 1.5"/>
    <path d="M 141.807273 356.40541 
L 141.807273 356.144265 
" clip-path="url(#pc4d414fd2c)" style="fill: none; stroke: #ff7f0e; stroke-width: 1.5"/>
    <path d="M 165.329091 352.743957 
L 165.329091 352.592312 
" clip-path="url(#pc4d414fd2c)" style="fill: none; stroke: #ff7f0e; stroke-width: 1.5"/>
    <path d="M 188.850909 348.46743 
L 188.850909 348.16688 
" clip-path="url(#pc4d414fd2c)" style="fill: none; stroke: #ff7f0e; stroke-width: 1.5"/>
    <path d="M 212.372727 343.781785 
L 212.372727 343.660666 
" clip-path="url(#pc4d414fd2c)" style="fill: none; stroke: #ff7f0e; stroke-width: 1.5"/>
    <path d="M 235.894545 338.065043 
L 235.894545 337.053785 
" clip-path="url(#pc4d414fd2c)" style="fill: none; stroke: #ff7f0e; stroke-width: 1.5"/>
    <path d="M 259.416364 331.803596 
L 259.416364 331.519817 
" clip-path="url(#pc4d414fd2c)" style="fill: none; stroke: #ff7f0e; stroke-width: 1.5"/>
    <path d="M 282.938182 325.073678 
L 282.938182 323.85186 
" clip-path="url(#pc4d414fd2c)" style="fill: none; stroke: #ff7f0e; stroke-width: 1.5"/>
    <path d="M 306.46 317.342148 
L 306.46 315.679919 
" clip-path="url(#pc4d414fd2c)" style="fill: none; stroke: #ff7f0e; stroke-width: 1.5"/>
    <path d="M 329.981818 307.653758 
L 329.981818 305.681333 
" clip-path="url(#pc4d414fd2c)" style="fill: none; stroke: #ff7f0e; stroke-width: 1.5"/>
    <path d="M 353.503636 293.268597 
L 353.503636 292.045903 
" clip-path="url(#pc4d414fd2c)" style="fill: none; stroke: #ff7f0e; stroke-width: 1.5"/>
    <path d="M 377.025455 279.650156 
L 377.025455 279.244053 
" clip-path="url(#pc4d414fd2c)" style="fill: none; stroke: #ff7f0e; stroke-width: 1.5"/>
    <path d="M 400.547273 265.081948 
L 400.547273 262.056724 
" clip-path="url(#pc4d414fd2c)" style="fill: none; stroke: #ff7f0e; stroke-width: 1.5"/>
    <path d="M 424.069091 245.318794 
L 424.069091 241.723052 
" clip-path="url(#pc4d414fd2c)" style="fill: none; stroke: #ff7f0e; stroke-width: 1.5"/>
    <path d="M 447.590909 216.75454 
L 447.590909 215.777371 
" clip-path="url(#pc4d414fd2c)" style="fill: none; stroke: #ff7f0e; stroke-width: 1.5"/>
    <path d="M 471.112727 190.141884 
L 471.112727 185.21603 
" clip-path="url(#pc4d414fd2c)" style="fill: none; stroke: #ff7f0e; stroke-width: 1.5"/>
    <path d="M 494.634545 149.187912 
L 494.634545 148.38557 
" clip-path="url(#pc4d414fd2c)" style="fill: none; stroke: #ff7f0e; stroke-width: 1.5"/>
    <path d="M 518.156364 106.789833 
L 518.156364 100.842418 
" clip-path="url(#pc4d414fd2c)" style="fill: none; stroke: #ff7f0e; stroke-width: 1.5"/>
    <path d="M 541.678182 46.635552 
L 541.678182 43.387273 
" clip-path="url(#pc4d414fd2c)" style="fill: none; stroke: #ff7f0e; stroke-width: 1.5"/>
   </g>
   <g id="line2d_16">
    <defs>
     <path id="md690224cad" d="M 3 0 
L -3 -0 
" style="stroke: #ff7f0e"/>
    </defs>
    <g clip-path="url(#pc4d414fd2c)">
     <use xlink:href="#md690224cad" x="71.241818" y="363.806906" style="fill: #ff7f0e; stroke: #ff7f0e"/>
     <use xlink:href="#md690224cad" x="94.763636" y="361.434132" style="fill: #ff7f0e; stroke: #ff7f0e"/>
     <use xlink:href="#md690224cad" x="118.285455" y="359.179792" style="fill: #ff7f0e; stroke: #ff7f0e"/>
     <use xlink:href="#md690224cad" x="141.807273" y="356.40541" style="fill: #ff7f0e; stroke: #ff7f0e"/>
     <use xlink:href="#md690224cad" x="165.329091" y="352.743957" style="fill: #ff7f0e; stroke: #ff7f0e"/>
     <use xlink:href="#md690224cad" x="188.850909" y="348.46743" style="fill: #ff7f0e; stroke: #ff7f0e"/>
     <use xlink:href="#md690224cad" x="212.372727" y="343.781785" style="fill: #ff7f0e; stroke: #ff7f0e"/>
     <use xlink:href="#md690224cad" x="235.894545" y="338.065043" style="fill: #ff7f0e; stroke: #ff7f0e"/>
     <use xlink:href="#md690224cad" x="259.416364" y="331.803596" style="fill: #ff7f0e; stroke: #ff7f0e"/>
     <use xlink:href="#md690224cad" x="282.938182" y="325.073678" style="fill: #ff7f0e; stroke: #ff7f0e"/>
     <use xlink:href="#md690224cad" x="306.46" y="317.342148" style="fill: #ff7f0e; stroke: #ff7f0e"/>
     <use xlink:href="#md690224cad" x="329.981818" y="307.653758" style="fill: #ff7f0e; stroke: #ff7f0e"/>
     <use xlink:href="#md690224cad" x="353.503636" y="293.268597" style="fill: #ff7f0e; stroke: #ff7f0e"/>
     <use xlink:href="#md690224cad" x="377.025455" y="279.650156" style="fill: #ff7f0e; stroke: #ff7f0e"/>
     <use xlink:href="#md690224cad" x="400.547273" y="265.081948" style="fill: #ff7f0e; stroke: #ff7f0e"/>
     <use xlink:href="#md690224cad" x="424.069091" y="245.318794" style="fill: #ff7f0e; stroke: #ff7f0e"/>
     <use xlink:href="#md690224cad" x="447.590909" y="216.75454" style="fill: #ff7f0e; stroke: #ff7f0e"/>
     <use xlink:href="#md690224cad" x="471.112727" y="190.141884" style="fill: #ff7f0e; stroke: #ff7f0e"/>
     <use xlink:href="#md690224cad" x="494.634545" y="149.187912" style="fill: #ff7f0e; stroke: #ff7f0e"/>
     <use xlink:href="#md690224cad" x="518.156364" y="106.789833" style="fill: #ff7f0e; stroke: #ff7f0e"/>
     <use xlink:href="#md690224cad" x="541.678182" y="46.635552" style="fill: #ff7f0e; stroke: #ff7f0e"/>
    </g>
   </g>
   <g id="line2d_17">
    <g clip-path="url(#pc4d414fd2c)">
     <use xlink:href="#md690224cad" x="71.241818" y="363.327528" style="fill: #ff7f0e; stroke: #ff7f0e"/>
     <use xlink:href="#md690224cad" x="94.763636" y="361.306985" style="fill: #ff7f0e; stroke: #ff7f0e"/>
     <use xlink:href="#md690224cad" x="118.285455" y="358.5993" style="fill: #ff7f0e; stroke: #ff7f0e"/>
     <use xlink:href="#md690224cad" x="141.807273" y="356.144265" style="fill: #ff7f0e; stroke: #ff7f0e"/>
     <use xlink:href="#md690224cad" x="165.329091" y="352.592312" style="fill: #ff7f0e; stroke: #ff7f0e"/>
     <use xlink:href="#md690224cad" x="188.850909" y="348.16688" style="fill: #ff7f0e; stroke: #ff7f0e"/>
     <use xlink:href="#md690224cad" x="212.372727" y="343.660666" style="fill: #ff7f0e; stroke: #ff7f0e"/>
     <use xlink:href="#md690224cad" x="235.894545" y="337.053785" style="fill: #ff7f0e; stroke: #ff7f0e"/>
     <use xlink:href="#md690224cad" x="259.416364" y="331.519817" style="fill: #ff7f0e; stroke: #ff7f0e"/>
     <use xlink:href="#md690224cad" x="282.938182" y="323.85186" style="fill: #ff7f0e; stroke: #ff7f0e"/>
     <use xlink:href="#md690224cad" x="306.46" y="315.679919" style="fill: #ff7f0e; stroke: #ff7f0e"/>
     <use xlink:href="#md690224cad" x="329.981818" y="305.681333" style="fill: #ff7f0e; stroke: #ff7f0e"/>
     <use xlink:href="#md690224cad" x="353.503636" y="292.045903" style="fill: #ff7f0e; stroke: #ff7f0e"/>
     <use xlink:href="#md690224cad" x="377.025455" y="279.244053" style="fill: #ff7f0e; stroke: #ff7f0e"/>
     <use xlink:href="#md690224cad" x="400.547273" y="262.056724" style="fill: #ff7f0e; stroke: #ff7f0e"/>
     <use xlink:href="#md690224cad" x="424.069091" y="241.723052" style="fill: #ff7f0e; stroke: #ff7f0e"/>
     <use xlink:href="#md690224cad" x="447.590909" y="215.777371" style="fill: #ff7f0e; stroke: #ff7f0e"/>
     <use xlink:href="#md690224cad" x="471.112727" y="185.21603" style="fill: #ff7f0e; stroke: #ff7f0e"/>
     <use xlink:href="#md690224cad" x="494.634545" y="148.38557" style="fill: #ff7f0e; stroke: #ff7f0e"/>
     <use xlink:href="#md690224cad" x="518.156364" y="100.842418" style="fill: #ff7f0e; stroke: #ff7f0e"/>
     <use xlink:href="#md690224cad" x="541.678182" y="43.387273" style="fill: #ff7f0e; stroke: #ff7f0e"/>
    </g>
   </g>
   <g id="LineCollection_3">
    <path d="M 71.241818 373.532727 
L 71.241818 373.438847 
" clip-path="url(#pc4d414fd2c)" style="fill: none; stroke: #2ca02c; stroke-width: 1.5"/>
    <path d="M 94.763636 372.854847 
L 94.763636 372.758171 
" clip-path="url(#pc4d414fd2c)" style="fill: none; stroke: #2ca02c; stroke-width: 1.5"/>
    <path d="M 118.285455 371.954404 
L 118.285455 371.924316 
" clip-path="url(#pc4d414fd2c)" style="fill: none; stroke: #2ca02c; stroke-width: 1.5"/>
    <path d="M 141.807273 371.202154 
L 141.807273 371.092983 
" clip-path="url(#pc4d414fd2c)" style="fill: none; stroke: #2ca02c; stroke-width: 1.5"/>
    <path d="M 165.329091 370.00571 
L 165.329091 369.960825 
" clip-path="url(#pc4d414fd2c)" style="fill: none; stroke: #2ca02c; stroke-width: 1.5"/>
    <path d="M 188.850909 368.555959 
L 188.850909 368.493318 
" clip-path="url(#pc4d414fd2c)" style="fill: none; stroke: #2ca02c; stroke-width: 1.5"/>
    <path d="M 212.372727 367.379356 
L 212.372727 367.105606 
" clip-path="url(#pc4d414fd2c)" style="fill: none; stroke: #2ca02c; stroke-width: 1.5"/>
    <path d="M 235.894545 365.218622 
L 235.894545 365.086817 
" clip-path="url(#pc4d414fd2c)" style="fill: none; stroke: #2ca02c; stroke-width: 1.5"/>
    <path d="M 259.416364 363.507014 
L 259.416364 362.851275 
" clip-path="url(#pc4d414fd2c)" style="fill: none; stroke: #2ca02c; stroke-width: 1.5"/>
    <path d="M 282.938182 360.683636 
L 282.938182 360.464691 
" clip-path="url(#pc4d414fd2c)" style="fill: none; stroke: #2ca02c; stroke-width: 1.5"/>
    <path d="M 306.46 358.262141 
L 306.46 357.758101 
" clip-path="url(#pc4d414fd2c)" style="fill: none; stroke: #2ca02c; stroke-width: 1.5"/>
    <path d="M 329.981818 355.048662 
L 329.981818 354.654726 
" clip-path="url(#pc4d414fd2c)" style="fill: none; stroke: #2ca02c; stroke-width: 1.5"/>
    <path d="M 353.503636 350.808471 
L 353.503636 350.402587 
" clip-path="url(#pc4d414fd2c)" style="fill: none; stroke: #2ca02c; stroke-width: 1.5"/>
    <path d="M 377.025455 346.519174 
L 377.025455 346.111372 
" clip-path="url(#pc4d414fd2c)" style="fill: none; stroke: #2ca02c; stroke-width: 1.5"/>
    <path d="M 400.547273 341.658045 
L 400.547273 340.548303 
" clip-path="url(#pc4d414fd2c)" style="fill: none; stroke: #2ca02c; stroke-width: 1.5"/>
    <path d="M 424.069091 334.491606 
L 424.069091 333.984333 
" clip-path="url(#pc4d414fd2c)" style="fill: none; stroke: #2ca02c; stroke-width: 1.5"/>
    <path d="M 447.590909 326.749828 
L 447.590909 326.165773 
" clip-path="url(#pc4d414fd2c)" style="fill: none; stroke: #2ca02c; stroke-width: 1.5"/>
    <path d="M 471.112727 316.932756 
L 471.112727 316.304693 
" clip-path="url(#pc4d414fd2c)" style="fill: none; stroke: #2ca02c; stroke-width: 1.5"/>
    <path d="M 494.634545 305.60077 
L 494.634545 302.94493 
" clip-path="url(#pc4d414fd2c)" style="fill: none; stroke: #2ca02c; stroke-width: 1.5"/>
    <path d="M 518.156364 293.157892 
L 518.156364 290.478486 
" clip-path="url(#pc4d414fd2c)" style="fill: none; stroke: #2ca02c; stroke-width: 1.5"/>
    <path d="M 541.678182 275.799572 
L 541.678182 272.803942 
" clip-path="url(#pc4d414fd2c)" style="fill: none; stroke: #2ca02c; stroke-width: 1.5"/>
   </g>
   <g id="line2d_18">
    <defs>
     <path id="m935312a973" d="M 3 0 
L -3 -0 
" style="stroke: #2ca02c"/>
    </defs>
    <g clip-path="url(#pc4d414fd2c)">
     <use xlink:href="#m935312a973" x="71.241818" y="373.532727" style="fill: #2ca02c; stroke: #2ca02c"/>
     <use xlink:href="#m935312a973" x="94.763636" y="372.854847" style="fill: #2ca02c; stroke: #2ca02c"/>
     <use xlink:href="#m935312a973" x="118.285455" y="371.954404" style="fill: #2ca02c; stroke: #2ca02c"/>
     <use xlink:href="#m935312a973" x="141.807273" y="371.202154" style="fill: #2ca02c; stroke: #2ca02c"/>
     <use xlink:href="#m935312a973" x="165.329091" y="370.00571" style="fill: #2ca02c; stroke: #2ca02c"/>
     <use xlink:href="#m935312a973" x="188.850909" y="368.555959" style="fill: #2ca02c; stroke: #2ca02c"/>
     <use xlink:href="#m935312a973" x="212.372727" y="367.379356" style="fill: #2ca02c; stroke: #2ca02c"/>
     <use xlink:href="#m935312a973" x="235.894545" y="365.218622" style="fill: #2ca02c; stroke: #2ca02c"/>
     <use xlink:href="#m935312a973" x="259.416364" y="363.507014" style="fill: #2ca02c; stroke: #2ca02c"/>
     <use xlink:href="#m935312a973" x="282.938182" y="360.683636" style="fill: #2ca02c; stroke: #2ca02c"/>
     <use xlink:href="#m935312a973" x="306.46" y="358.262141" style="fill: #2ca02c; stroke: #2ca02c"/>
     <use xlink:href="#m935312a973" x="329.981818" y="355.048662" style="fill: #2ca02c; stroke: #2ca02c"/>
     <use xlink:href="#m935312a973" x="353.503636" y="350.808471" style="fill: #2ca02c; stroke: #2ca02c"/>
     <use xlink:href="#m935312a973" x="377.025455" y="346.519174" style="fill: #2ca02c; stroke: #2ca02c"/>
     <use xlink:href="#m935312a973" x="400.547273" y="341.658045" style="fill: #2ca02c; stroke: #2ca02c"/>
     <use xlink:href="#m935312a973" x="424.069091" y="334.491606" style="fill: #2ca02c; stroke: #2ca02c"/>
     <use xlink:href="#m935312a973" x="447.590909" y="326.749828" style="fill: #2ca02c; stroke: #2ca02c"/>
     <use xlink:href="#m935312a973" x="471.112727" y="316.932756" style="fill: #2ca02c; stroke: #2ca02c"/>
     <use xlink:href="#m935312a973" x="494.634545" y="305.60077" style="fill: #2ca02c; stroke: #2ca02c"/>
     <use xlink:href="#m935312a973" x="518.156364" y="293.157892" style="fill: #2ca02c; stroke: #2ca02c"/>
     <use xlink:href="#m935312a973" x="541.678182" y="275.799572" style="fill: #2ca02c; stroke: #2ca02c"/>
    </g>
   </g>
   <g id="line2d_19">
    <g clip-path="url(#pc4d414fd2c)">
     <use xlink:href="#m935312a973" x="71.241818" y="373.438847" style="fill: #2ca02c; stroke: #2ca02c"/>
     <use xlink:href="#m935312a973" x="94.763636" y="372.758171" style="fill: #2ca02c; stroke: #2ca02c"/>
     <use xlink:href="#m935312a973" x="118.285455" y="371.924316" style="fill: #2ca02c; stroke: #2ca02c"/>
     <use xlink:href="#m935312a973" x="141.807273" y="371.092983" style="fill: #2ca02c; stroke: #2ca02c"/>
     <use xlink:href="#m935312a973" x="165.329091" y="369.960825" style="fill: #2ca02c; stroke: #2ca02c"/>
     <use xlink:href="#m935312a973" x="188.850909" y="368.493318" style="fill: #2ca02c; stroke: #2ca02c"/>
     <use xlink:href="#m935312a973" x="212.372727" y="367.105606" style="fill: #2ca02c; stroke: #2ca02c"/>
     <use xlink:href="#m935312a973" x="235.894545" y="365.086817" style="fill: #2ca02c; stroke: #2ca02c"/>
     <use xlink:href="#m935312a973" x="259.416364" y="362.851275" style="fill: #2ca02c; stroke: #2ca02c"/>
     <use xlink:href="#m935312a973" x="282.938182" y="360.464691" style="fill: #2ca02c; stroke: #2ca02c"/>
     <use xlink:href="#m935312a973" x="306.46" y="357.758101" style="fill: #2ca02c; stroke: #2ca02c"/>
     <use xlink:href="#m935312a973" x="329.981818" y="354.654726" style="fill: #2ca02c; stroke: #2ca02c"/>
     <use xlink:href="#m935312a973" x="353.503636" y="350.402587" style="fill: #2ca02c; stroke: #2ca02c"/>
     <use xlink:href="#m935312a973" x="377.025455" y="346.111372" style="fill: #2ca02c; stroke: #2ca02c"/>
     <use xlink:href="#m935312a973" x="400.547273" y="340.548303" style="fill: #2ca02c; stroke: #2ca02c"/>
     <use xlink:href="#m935312a973" x="424.069091" y="333.984333" style="fill: #2ca02c; stroke: #2ca02c"/>
     <use xlink:href="#m935312a973" x="447.590909" y="326.165773" style="fill: #2ca02c; stroke: #2ca02c"/>
     <use xlink:href="#m935312a973" x="471.112727" y="316.304693" style="fill: #2ca02c; stroke: #2ca02c"/>
     <use xlink:href="#m935312a973" x="494.634545" y="302.94493" style="fill: #2ca02c; stroke: #2ca02c"/>
     <use xlink:href="#m935312a973" x="518.156364" y="290.478486" style="fill: #2ca02c; stroke: #2ca02c"/>
     <use xlink:href="#m935312a973" x="541.678182" y="272.803942" style="fill: #2ca02c; stroke: #2ca02c"/>
    </g>
   </g>
   <g id="line2d_20">
    <path d="M 71.241818 370.367477 
L 94.763636 369.146536 
L 118.285455 368.03515 
L 141.807273 366.671661 
L 165.329091 365.030368 
L 188.850909 362.754215 
L 212.372727 360.462663 
L 235.894545 357.904649 
L 259.416364 354.670345 
L 282.938182 350.70215 
L 306.46 347.413588 
L 329.981818 342.163016 
L 353.503636 336.278407 
L 377.025455 330.090398 
L 400.547273 322.094271 
L 424.069091 313.307967 
L 447.590909 301.638932 
L 471.112727 287.520672 
L 494.634545 270.858921 
L 518.156364 250.521961 
L 541.678182 228.344108 
" clip-path="url(#pc4d414fd2c)" style="fill: none; stroke: #1f77b4; stroke-width: 1.5; stroke-linecap: square"/>
   </g>
   <g id="line2d_21">
    <path d="M 71.241818 363.487613 
L 94.763636 361.373025 
L 118.285455 358.819012 
L 141.807273 356.301829 
L 165.329091 352.692605 
L 188.850909 348.369603 
L 212.372727 343.722486 
L 235.894545 337.786415 
L 259.416364 331.648225 
L 282.938182 324.343075 
L 306.46 316.492125 
L 329.981818 306.681521 
L 353.503636 292.728222 
L 377.025455 279.443542 
L 400.547273 263.106236 
L 424.069091 242.666243 
L 447.590909 216.381319 
L 471.112727 187.909137 
L 494.634545 148.837161 
L 518.156364 103.624857 
L 541.678182 44.664772 
" clip-path="url(#pc4d414fd2c)" style="fill: none; stroke: #ff7f0e; stroke-width: 1.5; stroke-linecap: square"/>
   </g>
   <g id="line2d_22">
    <path d="M 71.241818 373.512 
L 94.763636 372.802179 
L 118.285455 371.94021 
L 141.807273 371.172614 
L 165.329091 369.97776 
L 188.850909 368.52346 
L 212.372727 367.269143 
L 235.894545 365.138278 
L 259.416364 363.094608 
L 282.938182 360.570847 
L 306.46 358.050759 
L 329.981818 354.918337 
L 353.503636 350.640549 
L 377.025455 346.392246 
L 400.547273 341.058535 
L 424.069091 334.271291 
L 447.590909 326.505453 
L 471.112727 316.566112 
L 494.634545 304.716769 
L 518.156364 291.392082 
L 541.678182 274.223934 
" clip-path="url(#pc4d414fd2c)" style="fill: none; stroke: #2ca02c; stroke-width: 1.5; stroke-linecap: square"/>
   </g>
   <g id="patch_3">
    <path d="M 47.72 390.04 
L 47.72 26.88 
" style="fill: none; stroke: #000000; stroke-width: 0.8; stroke-linejoin: miter; stroke-linecap: square"/>
   </g>
   <g id="patch_4">
    <path d="M 565.2 390.04 
L 565.2 26.88 
" style="fill: none; stroke: #000000; stroke-width: 0.8; stroke-linejoin: miter; stroke-linecap: square"/>
   </g>
   <g id="patch_5">
    <path d="M 47.72 390.04 
L 565.2 390.04 
" style="fill: none; stroke: #000000; stroke-width: 0.8; stroke-linejoin: miter; stroke-linecap: square"/>
   </g>
   <g id="patch_6">
    <path d="M 47.72 26.88 
L 565.2 26.88 
" style="fill: none; stroke: #000000; stroke-width: 0.8; stroke-linejoin: miter; stroke-linecap: square"/>
   </g>
   <g id="text_16">
    <!-- C++ implementations of Bron-Kerbosch Ver3-GP on a random graph of order 100 -->
    <g transform="translate(47.72 20.88)scale(0.12 -0.12)">
     <defs>
      <path id="DejaVuSans-43" d="M 4122 4306 
L 4122 3641 
Q 3803 3938 3442 4084 
Q 3081 4231 2675 4231 
Q 1875 4231 1450 3742 
Q 1025 3253 1025 2328 
Q 1025 1406 1450 917 
Q 1875 428 2675 428 
Q 3081 428 3442 575 
Q 3803 722 4122 1019 
L 4122 359 
Q 3791 134 3420 21 
Q 3050 -91 2638 -91 
Q 1578 -91 968 557 
Q 359 1206 359 2328 
Q 359 3453 968 4101 
Q 1578 4750 2638 4750 
Q 3056 4750 3426 4639 
Q 3797 4528 4122 4306 
z
" transform="scale(0.015625)"/>
      <path id="DejaVuSans-2b" d="M 2944 4013 
L 2944 2272 
L 4684 2272 
L 4684 1741 
L 2944 1741 
L 2944 0 
L 2419 0 
L 2419 1741 
L 678 1741 
L 678 2272 
L 2419 2272 
L 2419 4013 
L 2944 4013 
z
" transform="scale(0.015625)"/>
      <path id="DejaVuSans-6d" d="M 3328 2828 
Q 3544 3216 3844 3400 
Q 4144 3584 4550 3584 
Q 5097 3584 5394 3201 
Q 5691 2819 5691 2113 
L 5691 0 
L 5113 0 
L 5113 2094 
Q 5113 2597 4934 2840 
Q 4756 3084 4391 3084 
Q 3944 3084 3684 2787 
Q 3425 2491 3425 1978 
L 3425 0 
L 2847 0 
L 2847 2094 
Q 2847 2600 2669 2842 
Q 2491 3084 2119 3084 
Q 1678 3084 1418 2786 
Q 1159 2488 1159 1978 
L 1159 0 
L 581 0 
L 581 3500 
L 1159 3500 
L 1159 2956 
Q 1356 3278 1631 3431 
Q 1906 3584 2284 3584 
Q 2666 3584 2933 3390 
Q 3200 3197 3328 2828 
z
" transform="scale(0.015625)"/>
      <path id="DejaVuSans-6c" d="M 603 4863 
L 1178 4863 
L 1178 0 
L 603 0 
L 603 4863 
z
" transform="scale(0.015625)"/>
      <path id="DejaVuSans-61" d="M 2194 1759 
Q 1497 1759 1228 1600 
Q 959 1441 959 1056 
Q 959 750 1161 570 
Q 1363 391 1709 391 
Q 2188 391 2477 730 
Q 2766 1069 2766 1631 
L 2766 1759 
L 2194 1759 
z
M 3341 1997 
L 3341 0 
L 2766 0 
L 2766 531 
Q 2569 213 2275 61 
Q 1981 -91 1556 -91 
Q 1019 -91 701 211 
Q 384 513 384 1019 
Q 384 1609 779 1909 
Q 1175 2209 1959 2209 
L 2766 2209 
L 2766 2266 
Q 2766 2663 2505 2880 
Q 2244 3097 1772 3097 
Q 1472 3097 1187 3025 
Q 903 2953 641 2809 
L 641 3341 
Q 956 3463 1253 3523 
Q 1550 3584 1831 3584 
Q 2591 3584 2966 3190 
Q 3341 2797 3341 1997 
z
" transform="scale(0.015625)"/>
      <path id="DejaVuSans-66" d="M 2375 4863 
L 2375 4384 
L 1825 4384 
Q 1516 4384 1395 4259 
Q 1275 4134 1275 3809 
L 1275 3500 
L 2222 3500 
L 2222 3053 
L 1275 3053 
L 1275 0 
L 697 0 
L 697 3053 
L 147 3053 
L 147 3500 
L 697 3500 
L 697 3744 
Q 697 4328 969 4595 
Q 1241 4863 1831 4863 
L 2375 4863 
z
" transform="scale(0.015625)"/>
      <path id="DejaVuSans-42" d="M 1259 2228 
L 1259 519 
L 2272 519 
Q 2781 519 3026 730 
Q 3272 941 3272 1375 
Q 3272 1813 3026 2020 
Q 2781 2228 2272 2228 
L 1259 2228 
z
M 1259 4147 
L 1259 2741 
L 2194 2741 
Q 2656 2741 2882 2914 
Q 3109 3088 3109 3444 
Q 3109 3797 2882 3972 
Q 2656 4147 2194 4147 
L 1259 4147 
z
M 628 4666 
L 2241 4666 
Q 2963 4666 3353 4366 
Q 3744 4066 3744 3513 
Q 3744 3084 3544 2831 
Q 3344 2578 2956 2516 
Q 3422 2416 3680 2098 
Q 3938 1781 3938 1306 
Q 3938 681 3513 340 
Q 3088 0 2303 0 
L 628 0 
L 628 4666 
z
" transform="scale(0.015625)"/>
      <path id="DejaVuSans-72" d="M 2631 2963 
Q 2534 3019 2420 3045 
Q 2306 3072 2169 3072 
Q 1681 3072 1420 2755 
Q 1159 2438 1159 1844 
L 1159 0 
L 581 0 
L 581 3500 
L 1159 3500 
L 1159 2956 
Q 1341 3275 1631 3429 
Q 1922 3584 2338 3584 
Q 2397 3584 2469 3576 
Q 2541 3569 2628 3553 
L 2631 2963 
z
" transform="scale(0.015625)"/>
      <path id="DejaVuSans-2d" d="M 313 2009 
L 1997 2009 
L 1997 1497 
L 313 1497 
L 313 2009 
z
" transform="scale(0.015625)"/>
      <path id="DejaVuSans-4b" d="M 628 4666 
L 1259 4666 
L 1259 2694 
L 3353 4666 
L 4166 4666 
L 1850 2491 
L 4331 0 
L 3500 0 
L 1259 2247 
L 1259 0 
L 628 0 
L 628 4666 
z
" transform="scale(0.015625)"/>
      <path id="DejaVuSans-62" d="M 3116 1747 
Q 3116 2381 2855 2742 
Q 2594 3103 2138 3103 
Q 1681 3103 1420 2742 
Q 1159 2381 1159 1747 
Q 1159 1113 1420 752 
Q 1681 391 2138 391 
Q 2594 391 2855 752 
Q 3116 1113 3116 1747 
z
M 1159 2969 
Q 1341 3281 1617 3432 
Q 1894 3584 2278 3584 
Q 2916 3584 3314 3078 
Q 3713 2572 3713 1747 
Q 3713 922 3314 415 
Q 2916 -91 2278 -91 
Q 1894 -91 1617 61 
Q 1341 213 1159 525 
L 1159 0 
L 581 0 
L 581 4863 
L 1159 4863 
L 1159 2969 
z
" transform="scale(0.015625)"/>
      <path id="DejaVuSans-68" d="M 3513 2113 
L 3513 0 
L 2938 0 
L 2938 2094 
Q 2938 2591 2744 2837 
Q 2550 3084 2163 3084 
Q 1697 3084 1428 2787 
Q 1159 2491 1159 1978 
L 1159 0 
L 581 0 
L 581 4863 
L 1159 4863 
L 1159 2956 
Q 1366 3272 1645 3428 
Q 1925 3584 2291 3584 
Q 2894 3584 3203 3211 
Q 3513 2838 3513 2113 
z
" transform="scale(0.015625)"/>
      <path id="DejaVuSans-56" d="M 1831 0 
L 50 4666 
L 709 4666 
L 2188 738 
L 3669 4666 
L 4325 4666 
L 2547 0 
L 1831 0 
z
" transform="scale(0.015625)"/>
      <path id="DejaVuSans-47" d="M 3809 666 
L 3809 1919 
L 2778 1919 
L 2778 2438 
L 4434 2438 
L 4434 434 
Q 4069 175 3628 42 
Q 3188 -91 2688 -91 
Q 1594 -91 976 548 
Q 359 1188 359 2328 
Q 359 3472 976 4111 
Q 1594 4750 2688 4750 
Q 3144 4750 3555 4637 
Q 3966 4525 4313 4306 
L 4313 3634 
Q 3963 3931 3569 4081 
Q 3175 4231 2741 4231 
Q 1884 4231 1454 3753 
Q 1025 3275 1025 2328 
Q 1025 1384 1454 906 
Q 1884 428 2741 428 
Q 3075 428 3337 486 
Q 3600 544 3809 666 
z
" transform="scale(0.015625)"/>
      <path id="DejaVuSans-50" d="M 1259 4147 
L 1259 2394 
L 2053 2394 
Q 2494 2394 2734 2622 
Q 2975 2850 2975 3272 
Q 2975 3691 2734 3919 
Q 2494 4147 2053 4147 
L 1259 4147 
z
M 628 4666 
L 2053 4666 
Q 2838 4666 3239 4311 
Q 3641 3956 3641 3272 
Q 3641 2581 3239 2228 
Q 2838 1875 2053 1875 
L 1259 1875 
L 1259 0 
L 628 0 
L 628 4666 
z
" transform="scale(0.015625)"/>
     </defs>
     <use xlink:href="#DejaVuSans-43"/>
     <use xlink:href="#DejaVuSans-2b" x="69.824219"/>
     <use xlink:href="#DejaVuSans-2b" x="153.613281"/>
     <use xlink:href="#DejaVuSans-20" x="237.402344"/>
     <use xlink:href="#DejaVuSans-69" x="269.189453"/>
     <use xlink:href="#DejaVuSans-6d" x="296.972656"/>
     <use xlink:href="#DejaVuSans-70" x="394.384766"/>
     <use xlink:href="#DejaVuSans-6c" x="457.861328"/>
     <use xlink:href="#DejaVuSans-65" x="485.644531"/>
     <use xlink:href="#DejaVuSans-6d" x="547.167969"/>
     <use xlink:href="#DejaVuSans-65" x="644.580078"/>
     <use xlink:href="#DejaVuSans-6e" x="706.103516"/>
     <use xlink:href="#DejaVuSans-74" x="769.482422"/>
     <use xlink:href="#DejaVuSans-61" x="808.691406"/>
     <use xlink:href="#DejaVuSans-74" x="869.970703"/>
     <use xlink:href="#DejaVuSans-69" x="909.179688"/>
     <use xlink:href="#DejaVuSans-6f" x="936.962891"/>
     <use xlink:href="#DejaVuSans-6e" x="998.144531"/>
     <use xlink:href="#DejaVuSans-73" x="1061.523438"/>
     <use xlink:href="#DejaVuSans-20" x="1113.623047"/>
     <use xlink:href="#DejaVuSans-6f" x="1145.410156"/>
     <use xlink:href="#DejaVuSans-66" x="1206.591797"/>
     <use xlink:href="#DejaVuSans-20" x="1241.796875"/>
     <use xlink:href="#DejaVuSans-42" x="1273.583984"/>
     <use xlink:href="#DejaVuSans-72" x="1342.1875"/>
     <use xlink:href="#DejaVuSans-6f" x="1381.050781"/>
     <use xlink:href="#DejaVuSans-6e" x="1442.232422"/>
     <use xlink:href="#DejaVuSans-2d" x="1505.611328"/>
     <use xlink:href="#DejaVuSans-4b" x="1541.695312"/>
     <use xlink:href="#DejaVuSans-65" x="1602.271484"/>
     <use xlink:href="#DejaVuSans-72" x="1663.794922"/>
     <use xlink:href="#DejaVuSans-62" x="1704.908203"/>
     <use xlink:href="#DejaVuSans-6f" x="1768.384766"/>
     <use xlink:href="#DejaVuSans-73" x="1829.566406"/>
     <use xlink:href="#DejaVuSans-63" x="1881.666016"/>
     <use xlink:href="#DejaVuSans-68" x="1936.646484"/>
     <use xlink:href="#DejaVuSans-20" x="2000.025391"/>
     <use xlink:href="#DejaVuSans-56" x="2031.8125"/>
     <use xlink:href="#DejaVuSans-65" x="2092.470703"/>
     <use xlink:href="#DejaVuSans-72" x="2153.994141"/>
     <use xlink:href="#DejaVuSans-33" x="2195.107422"/>
     <use xlink:href="#DejaVuSans-2d" x="2258.730469"/>
     <use xlink:href="#DejaVuSans-47" x="2298.439453"/>
     <use xlink:href="#DejaVuSans-50" x="2375.929688"/>
     <use xlink:href="#DejaVuSans-20" x="2436.232422"/>
     <use xlink:href="#DejaVuSans-6f" x="2468.019531"/>
     <use xlink:href="#DejaVuSans-6e" x="2529.201172"/>
     <use xlink:href="#DejaVuSans-20" x="2592.580078"/>
     <use xlink:href="#DejaVuSans-61" x="2624.367188"/>
     <use xlink:href="#DejaVuSans-20" x="2685.646484"/>
     <use xlink:href="#DejaVuSans-72" x="2717.433594"/>
     <use xlink:href="#DejaVuSans-61" x="2758.546875"/>
     <use xlink:href="#DejaVuSans-6e" x="2819.826172"/>
     <use xlink:href="#DejaVuSans-64" x="2883.205078"/>
     <use xlink:href="#DejaVuSans-6f" x="2946.681641"/>
     <use xlink:href="#DejaVuSans-6d" x="3007.863281"/>
     <use xlink:href="#DejaVuSans-20" x="3105.275391"/>
     <use xlink:href="#DejaVuSans-67" x="3137.0625"/>
     <use xlink:href="#DejaVuSans-72" x="3200.539062"/>
     <use xlink:href="#DejaVuSans-61" x="3241.652344"/>
     <use xlink:href="#DejaVuSans-70" x="3302.931641"/>
     <use xlink:href="#DejaVuSans-68" x="3366.408203"/>
     <use xlink:href="#DejaVuSans-20" x="3429.787109"/>
     <use xlink:href="#DejaVuSans-6f" x="3461.574219"/>
     <use xlink:href="#DejaVuSans-66" x="3522.755859"/>
     <use xlink:href="#DejaVuSans-20" x="3557.960938"/>
     <use xlink:href="#DejaVuSans-6f" x="3589.748047"/>
     <use xlink:href="#DejaVuSans-72" x="3650.929688"/>
     <use xlink:href="#DejaVuSans-64" x="3690.292969"/>
     <use xlink:href="#DejaVuSans-65" x="3753.769531"/>
     <use xlink:href="#DejaVuSans-72" x="3815.292969"/>
     <use xlink:href="#DejaVuSans-20" x="3856.40625"/>
     <use xlink:href="#DejaVuSans-31" x="3888.193359"/>
     <use xlink:href="#DejaVuSans-30" x="3951.816406"/>
     <use xlink:href="#DejaVuSans-30" x="4015.439453"/>
    </g>
   </g>
   <g id="legend_1">
    <g id="patch_7">
     <path d="M 54.72 79.470625 
L 176.455938 79.470625 
Q 178.455938 79.470625 178.455938 77.470625 
L 178.455938 33.88 
Q 178.455938 31.88 176.455938 31.88 
L 54.72 31.88 
Q 52.72 31.88 52.72 33.88 
L 52.72 77.470625 
Q 52.72 79.470625 54.72 79.470625 
z
" style="fill: #ffffff; opacity: 0.8; stroke: #cccccc; stroke-linejoin: miter"/>
    </g>
    <g id="LineCollection_4">
     <path d="M 66.72 44.978437 
L 66.72 34.978437 
" style="fill: none; stroke: #1f77b4; stroke-width: 1.5"/>
    </g>
    <g id="line2d_23">
     <g>
      <use xlink:href="#md19b0d3ffb" x="66.72" y="44.978437" style="fill: #1f77b4; stroke: #1f77b4"/>
     </g>
    </g>
    <g id="line2d_24">
     <g>
      <use xlink:href="#md19b0d3ffb" x="66.72" y="34.978437" style="fill: #1f77b4; stroke: #1f77b4"/>
     </g>
    </g>
    <g id="line2d_25">
     <path d="M 56.72 39.978437 
L 76.72 39.978437 
" style="fill: none; stroke: #1f77b4; stroke-width: 1.5; stroke-linecap: square"/>
    </g>
    <g id="line2d_26"/>
    <g id="text_17">
     <!-- Ver3-GP@hashset -->
     <g transform="translate(84.72 43.478437)scale(0.1 -0.1)">
      <defs>
       <path id="DejaVuSans-40" d="M 2381 1678 
Q 2381 1231 2603 976 
Q 2825 722 3213 722 
Q 3597 722 3817 978 
Q 4038 1234 4038 1678 
Q 4038 2116 3813 2373 
Q 3588 2631 3206 2631 
Q 2828 2631 2604 2375 
Q 2381 2119 2381 1678 
z
M 4084 744 
Q 3897 503 3655 389 
Q 3413 275 3091 275 
Q 2553 275 2217 664 
Q 1881 1053 1881 1678 
Q 1881 2303 2218 2693 
Q 2556 3084 3091 3084 
Q 3413 3084 3656 2967 
Q 3900 2850 4084 2613 
L 4084 3022 
L 4531 3022 
L 4531 722 
Q 4988 791 5245 1139 
Q 5503 1488 5503 2041 
Q 5503 2375 5404 2669 
Q 5306 2963 5106 3213 
Q 4781 3622 4314 3839 
Q 3847 4056 3297 4056 
Q 2913 4056 2559 3954 
Q 2206 3853 1906 3653 
Q 1416 3334 1139 2817 
Q 863 2300 863 1697 
Q 863 1200 1042 765 
Q 1222 331 1563 0 
Q 1891 -325 2322 -495 
Q 2753 -666 3244 -666 
Q 3647 -666 4036 -530 
Q 4425 -394 4750 -141 
L 5031 -488 
Q 4641 -791 4180 -952 
Q 3719 -1113 3244 -1113 
Q 2666 -1113 2153 -908 
Q 1641 -703 1241 -313 
Q 841 78 631 592 
Q 422 1106 422 1697 
Q 422 2266 634 2781 
Q 847 3297 1241 3688 
Q 1644 4084 2172 4295 
Q 2700 4506 3291 4506 
Q 3953 4506 4520 4234 
Q 5088 3963 5472 3463 
Q 5706 3156 5829 2797 
Q 5953 2438 5953 2053 
Q 5953 1231 5456 756 
Q 4959 281 4084 263 
L 4084 744 
z
" transform="scale(0.015625)"/>
      </defs>
      <use xlink:href="#DejaVuSans-56"/>
      <use xlink:href="#DejaVuSans-65" x="60.658203"/>
      <use xlink:href="#DejaVuSans-72" x="122.181641"/>
      <use xlink:href="#DejaVuSans-33" x="163.294922"/>
      <use xlink:href="#DejaVuSans-2d" x="226.917969"/>
      <use xlink:href="#DejaVuSans-47" x="266.626953"/>
      <use xlink:href="#DejaVuSans-50" x="344.117188"/>
      <use xlink:href="#DejaVuSans-40" x="404.419922"/>
      <use xlink:href="#DejaVuSans-68" x="504.419922"/>
      <use xlink:href="#DejaVuSans-61" x="567.798828"/>
      <use xlink:href="#DejaVuSans-73" x="629.078125"/>
      <use xlink:href="#DejaVuSans-68" x="681.177734"/>
      <use xlink:href="#DejaVuSans-73" x="744.556641"/>
      <use xlink:href="#DejaVuSans-65" x="796.65625"/>
      <use xlink:href="#DejaVuSans-74" x="858.179688"/>
     </g>
    </g>
    <g id="LineCollection_5">
     <path d="M 66.72 59.656563 
L 66.72 49.656563 
" style="fill: none; stroke: #ff7f0e; stroke-width: 1.5"/>
    </g>
    <g id="line2d_27">
     <g>
      <use xlink:href="#md690224cad" x="66.72" y="59.656563" style="fill: #ff7f0e; stroke: #ff7f0e"/>
     </g>
    </g>
    <g id="line2d_28">
     <g>
      <use xlink:href="#md690224cad" x="66.72" y="49.656563" style="fill: #ff7f0e; stroke: #ff7f0e"/>
     </g>
    </g>
    <g id="line2d_29">
     <path d="M 56.72 54.656563 
L 76.72 54.656563 
" style="fill: none; stroke: #ff7f0e; stroke-width: 1.5; stroke-linecap: square"/>
    </g>
    <g id="line2d_30"/>
    <g id="text_18">
     <!-- Ver3-GP@std_set -->
     <g transform="translate(84.72 58.156563)scale(0.1 -0.1)">
      <defs>
       <path id="DejaVuSans-5f" d="M 3263 -1063 
L 3263 -1509 
L -63 -1509 
L -63 -1063 
L 3263 -1063 
z
" transform="scale(0.015625)"/>
      </defs>
      <use xlink:href="#DejaVuSans-56"/>
      <use xlink:href="#DejaVuSans-65" x="60.658203"/>
      <use xlink:href="#DejaVuSans-72" x="122.181641"/>
      <use xlink:href="#DejaVuSans-33" x="163.294922"/>
      <use xlink:href="#DejaVuSans-2d" x="226.917969"/>
      <use xlink:href="#DejaVuSans-47" x="266.626953"/>
      <use xlink:href="#DejaVuSans-50" x="344.117188"/>
      <use xlink:href="#DejaVuSans-40" x="404.419922"/>
      <use xlink:href="#DejaVuSans-73" x="504.419922"/>
      <use xlink:href="#DejaVuSans-74" x="556.519531"/>
      <use xlink:href="#DejaVuSans-64" x="595.728516"/>
      <use xlink:href="#DejaVuSans-5f" x="659.205078"/>
      <use xlink:href="#DejaVuSans-73" x="709.205078"/>
      <use xlink:href="#DejaVuSans-65" x="761.304688"/>
      <use xlink:href="#DejaVuSans-74" x="822.828125"/>
     </g>
    </g>
    <g id="LineCollection_6">
     <path d="M 66.72 74.612812 
L 66.72 64.612812 
" style="fill: none; stroke: #2ca02c; stroke-width: 1.5"/>
    </g>
    <g id="line2d_31">
     <g>
      <use xlink:href="#m935312a973" x="66.72" y="74.612812" style="fill: #2ca02c; stroke: #2ca02c"/>
     </g>
    </g>
    <g id="line2d_32">
     <g>
      <use xlink:href="#m935312a973" x="66.72" y="64.612812" style="fill: #2ca02c; stroke: #2ca02c"/>
     </g>
    </g>
    <g id="line2d_33">
     <path d="M 56.72 69.612812 
L 76.72 69.612812 
" style="fill: none; stroke: #2ca02c; stroke-width: 1.5; stroke-linecap: square"/>
    </g>
    <g id="line2d_34"/>
    <g id="text_19">
     <!-- Ver3-GP@ord_vec -->
     <g transform="translate(84.72 73.112812)scale(0.1 -0.1)">
      <defs>
       <path id="DejaVuSans-76" d="M 191 3500 
L 800 3500 
L 1894 563 
L 2988 3500 
L 3597 3500 
L 2284 0 
L 1503 0 
L 191 3500 
z
" transform="scale(0.015625)"/>
      </defs>
      <use xlink:href="#DejaVuSans-56"/>
      <use xlink:href="#DejaVuSans-65" x="60.658203"/>
      <use xlink:href="#DejaVuSans-72" x="122.181641"/>
      <use xlink:href="#DejaVuSans-33" x="163.294922"/>
      <use xlink:href="#DejaVuSans-2d" x="226.917969"/>
      <use xlink:href="#DejaVuSans-47" x="266.626953"/>
      <use xlink:href="#DejaVuSans-50" x="344.117188"/>
      <use xlink:href="#DejaVuSans-40" x="404.419922"/>
      <use xlink:href="#DejaVuSans-6f" x="504.419922"/>
      <use xlink:href="#DejaVuSans-72" x="565.601562"/>
      <use xlink:href="#DejaVuSans-64" x="604.964844"/>
      <use xlink:href="#DejaVuSans-5f" x="668.441406"/>
      <use xlink:href="#DejaVuSans-76" x="718.441406"/>
      <use xlink:href="#DejaVuSans-65" x="777.621094"/>
      <use xlink:href="#DejaVuSans-63" x="839.144531"/>
     </g>
    </g>
   </g>
  </g>
 </g>
 <defs>
  <clipPath id="pc4d414fd2c">
   <rect x="47.72" y="26.88" width="517.48" height="363.16"/>
  </clipPath>
 </defs>
</svg>
