<?xml version="1.0" encoding="utf-8" standalone="no"?>
<!DOCTYPE svg PUBLIC "-//W3C//DTD SVG 1.1//EN"
  "http://www.w3.org/Graphics/SVG/1.1/DTD/svg11.dtd">
<svg xmlns:xlink="http://www.w3.org/1999/xlink" width="576pt" height="432pt" viewBox="0 0 576 432" xmlns="http://www.w3.org/2000/svg" version="1.1">
 <metadata>
  <rdf:RDF xmlns:dc="http://purl.org/dc/elements/1.1/" xmlns:cc="http://creativecommons.org/ns#" xmlns:rdf="http://www.w3.org/1999/02/22-rdf-syntax-ns#">
   <cc:Work>
    <dc:type rdf:resource="http://purl.org/dc/dcmitype/StillImage"/>
    <dc:date>2021-12-04T16:11:21.814005</dc:date>
    <dc:format>image/svg+xml</dc:format>
    <dc:creator>
     <cc:Agent>
      <dc:title>Matplotlib v3.5.0, https://matplotlib.org/</dc:title>
     </cc:Agent>
    </dc:creator>
   </cc:Work>
  </rdf:RDF>
 </metadata>
 <defs>
  <style type="text/css">*{stroke-linejoin: round; stroke-linecap: butt}</style>
 </defs>
 <g id="figure_1">
  <g id="patch_1">
   <path d="M 0 432 
L 576 432 
L 576 0 
L 0 0 
z
" style="fill: #ffffff"/>
  </g>
  <g id="axes_1">
   <g id="patch_2">
    <path d="M 47.72 390.04 
L 565.2 390.04 
L 565.2 26.88 
L 47.72 26.88 
z
" style="fill: #ffffff"/>
   </g>
   <g id="matplotlib.axis_1">
    <g id="xtick_1">
     <g id="line2d_1">
      <defs>
       <path id="mc74f61fcfc" d="M 0 0 
L 0 3.5 
" style="stroke: #000000; stroke-width: 0.8"/>
      </defs>
      <g>
       <use xlink:href="#mc74f61fcfc" x="71.241818" y="390.04" style="stroke: #000000; stroke-width: 0.8"/>
      </g>
     </g>
     <g id="text_1">
      <!-- 2000 -->
      <g transform="translate(58.516818 404.638438)scale(0.1 -0.1)">
       <defs>
        <path id="DejaVuSans-32" d="M 1228 531 
L 3431 531 
L 3431 0 
L 469 0 
L 469 531 
Q 828 903 1448 1529 
Q 2069 2156 2228 2338 
Q 2531 2678 2651 2914 
Q 2772 3150 2772 3378 
Q 2772 3750 2511 3984 
Q 2250 4219 1831 4219 
Q 1534 4219 1204 4116 
Q 875 4013 500 3803 
L 500 4441 
Q 881 4594 1212 4672 
Q 1544 4750 1819 4750 
Q 2544 4750 2975 4387 
Q 3406 4025 3406 3419 
Q 3406 3131 3298 2873 
Q 3191 2616 2906 2266 
Q 2828 2175 2409 1742 
Q 1991 1309 1228 531 
z
" transform="scale(0.015625)"/>
        <path id="DejaVuSans-30" d="M 2034 4250 
Q 1547 4250 1301 3770 
Q 1056 3291 1056 2328 
Q 1056 1369 1301 889 
Q 1547 409 2034 409 
Q 2525 409 2770 889 
Q 3016 1369 3016 2328 
Q 3016 3291 2770 3770 
Q 2525 4250 2034 4250 
z
M 2034 4750 
Q 2819 4750 3233 4129 
Q 3647 3509 3647 2328 
Q 3647 1150 3233 529 
Q 2819 -91 2034 -91 
Q 1250 -91 836 529 
Q 422 1150 422 2328 
Q 422 3509 836 4129 
Q 1250 4750 2034 4750 
z
" transform="scale(0.015625)"/>
       </defs>
       <use xlink:href="#DejaVuSans-32"/>
       <use xlink:href="#DejaVuSans-30" x="63.623047"/>
       <use xlink:href="#DejaVuSans-30" x="127.246094"/>
       <use xlink:href="#DejaVuSans-30" x="190.869141"/>
      </g>
     </g>
    </g>
    <g id="xtick_2">
     <g id="line2d_2">
      <g>
       <use xlink:href="#mc74f61fcfc" x="165.329091" y="390.04" style="stroke: #000000; stroke-width: 0.8"/>
      </g>
     </g>
     <g id="text_2">
      <!-- 2200 -->
      <g transform="translate(152.604091 404.638438)scale(0.1 -0.1)">
       <use xlink:href="#DejaVuSans-32"/>
       <use xlink:href="#DejaVuSans-32" x="63.623047"/>
       <use xlink:href="#DejaVuSans-30" x="127.246094"/>
       <use xlink:href="#DejaVuSans-30" x="190.869141"/>
      </g>
     </g>
    </g>
    <g id="xtick_3">
     <g id="line2d_3">
      <g>
       <use xlink:href="#mc74f61fcfc" x="259.416364" y="390.04" style="stroke: #000000; stroke-width: 0.8"/>
      </g>
     </g>
     <g id="text_3">
      <!-- 2400 -->
      <g transform="translate(246.691364 404.638438)scale(0.1 -0.1)">
       <defs>
        <path id="DejaVuSans-34" d="M 2419 4116 
L 825 1625 
L 2419 1625 
L 2419 4116 
z
M 2253 4666 
L 3047 4666 
L 3047 1625 
L 3713 1625 
L 3713 1100 
L 3047 1100 
L 3047 0 
L 2419 0 
L 2419 1100 
L 313 1100 
L 313 1709 
L 2253 4666 
z
" transform="scale(0.015625)"/>
       </defs>
       <use xlink:href="#DejaVuSans-32"/>
       <use xlink:href="#DejaVuSans-34" x="63.623047"/>
       <use xlink:href="#DejaVuSans-30" x="127.246094"/>
       <use xlink:href="#DejaVuSans-30" x="190.869141"/>
      </g>
     </g>
    </g>
    <g id="xtick_4">
     <g id="line2d_4">
      <g>
       <use xlink:href="#mc74f61fcfc" x="353.503636" y="390.04" style="stroke: #000000; stroke-width: 0.8"/>
      </g>
     </g>
     <g id="text_4">
      <!-- 2600 -->
      <g transform="translate(340.778636 404.638438)scale(0.1 -0.1)">
       <defs>
        <path id="DejaVuSans-36" d="M 2113 2584 
Q 1688 2584 1439 2293 
Q 1191 2003 1191 1497 
Q 1191 994 1439 701 
Q 1688 409 2113 409 
Q 2538 409 2786 701 
Q 3034 994 3034 1497 
Q 3034 2003 2786 2293 
Q 2538 2584 2113 2584 
z
M 3366 4563 
L 3366 3988 
Q 3128 4100 2886 4159 
Q 2644 4219 2406 4219 
Q 1781 4219 1451 3797 
Q 1122 3375 1075 2522 
Q 1259 2794 1537 2939 
Q 1816 3084 2150 3084 
Q 2853 3084 3261 2657 
Q 3669 2231 3669 1497 
Q 3669 778 3244 343 
Q 2819 -91 2113 -91 
Q 1303 -91 875 529 
Q 447 1150 447 2328 
Q 447 3434 972 4092 
Q 1497 4750 2381 4750 
Q 2619 4750 2861 4703 
Q 3103 4656 3366 4563 
z
" transform="scale(0.015625)"/>
       </defs>
       <use xlink:href="#DejaVuSans-32"/>
       <use xlink:href="#DejaVuSans-36" x="63.623047"/>
       <use xlink:href="#DejaVuSans-30" x="127.246094"/>
       <use xlink:href="#DejaVuSans-30" x="190.869141"/>
      </g>
     </g>
    </g>
    <g id="xtick_5">
     <g id="line2d_5">
      <g>
       <use xlink:href="#mc74f61fcfc" x="447.590909" y="390.04" style="stroke: #000000; stroke-width: 0.8"/>
      </g>
     </g>
     <g id="text_5">
      <!-- 2800 -->
      <g transform="translate(434.865909 404.638438)scale(0.1 -0.1)">
       <defs>
        <path id="DejaVuSans-38" d="M 2034 2216 
Q 1584 2216 1326 1975 
Q 1069 1734 1069 1313 
Q 1069 891 1326 650 
Q 1584 409 2034 409 
Q 2484 409 2743 651 
Q 3003 894 3003 1313 
Q 3003 1734 2745 1975 
Q 2488 2216 2034 2216 
z
M 1403 2484 
Q 997 2584 770 2862 
Q 544 3141 544 3541 
Q 544 4100 942 4425 
Q 1341 4750 2034 4750 
Q 2731 4750 3128 4425 
Q 3525 4100 3525 3541 
Q 3525 3141 3298 2862 
Q 3072 2584 2669 2484 
Q 3125 2378 3379 2068 
Q 3634 1759 3634 1313 
Q 3634 634 3220 271 
Q 2806 -91 2034 -91 
Q 1263 -91 848 271 
Q 434 634 434 1313 
Q 434 1759 690 2068 
Q 947 2378 1403 2484 
z
M 1172 3481 
Q 1172 3119 1398 2916 
Q 1625 2713 2034 2713 
Q 2441 2713 2670 2916 
Q 2900 3119 2900 3481 
Q 2900 3844 2670 4047 
Q 2441 4250 2034 4250 
Q 1625 4250 1398 4047 
Q 1172 3844 1172 3481 
z
" transform="scale(0.015625)"/>
       </defs>
       <use xlink:href="#DejaVuSans-32"/>
       <use xlink:href="#DejaVuSans-38" x="63.623047"/>
       <use xlink:href="#DejaVuSans-30" x="127.246094"/>
       <use xlink:href="#DejaVuSans-30" x="190.869141"/>
      </g>
     </g>
    </g>
    <g id="xtick_6">
     <g id="line2d_6">
      <g>
       <use xlink:href="#mc74f61fcfc" x="541.678182" y="390.04" style="stroke: #000000; stroke-width: 0.8"/>
      </g>
     </g>
     <g id="text_6">
      <!-- 3000 -->
      <g transform="translate(528.953182 404.638438)scale(0.1 -0.1)">
       <defs>
        <path id="DejaVuSans-33" d="M 2597 2516 
Q 3050 2419 3304 2112 
Q 3559 1806 3559 1356 
Q 3559 666 3084 287 
Q 2609 -91 1734 -91 
Q 1441 -91 1130 -33 
Q 819 25 488 141 
L 488 750 
Q 750 597 1062 519 
Q 1375 441 1716 441 
Q 2309 441 2620 675 
Q 2931 909 2931 1356 
Q 2931 1769 2642 2001 
Q 2353 2234 1838 2234 
L 1294 2234 
L 1294 2753 
L 1863 2753 
Q 2328 2753 2575 2939 
Q 2822 3125 2822 3475 
Q 2822 3834 2567 4026 
Q 2313 4219 1838 4219 
Q 1578 4219 1281 4162 
Q 984 4106 628 3988 
L 628 4550 
Q 988 4650 1302 4700 
Q 1616 4750 1894 4750 
Q 2613 4750 3031 4423 
Q 3450 4097 3450 3541 
Q 3450 3153 3228 2886 
Q 3006 2619 2597 2516 
z
" transform="scale(0.015625)"/>
       </defs>
       <use xlink:href="#DejaVuSans-33"/>
       <use xlink:href="#DejaVuSans-30" x="63.623047"/>
       <use xlink:href="#DejaVuSans-30" x="127.246094"/>
       <use xlink:href="#DejaVuSans-30" x="190.869141"/>
      </g>
     </g>
    </g>
    <g id="text_7">
     <!-- Size (#edges) -->
     <g transform="translate(271.409219 418.316562)scale(0.1 -0.1)">
      <defs>
       <path id="DejaVuSans-53" d="M 3425 4513 
L 3425 3897 
Q 3066 4069 2747 4153 
Q 2428 4238 2131 4238 
Q 1616 4238 1336 4038 
Q 1056 3838 1056 3469 
Q 1056 3159 1242 3001 
Q 1428 2844 1947 2747 
L 2328 2669 
Q 3034 2534 3370 2195 
Q 3706 1856 3706 1288 
Q 3706 609 3251 259 
Q 2797 -91 1919 -91 
Q 1588 -91 1214 -16 
Q 841 59 441 206 
L 441 856 
Q 825 641 1194 531 
Q 1563 422 1919 422 
Q 2459 422 2753 634 
Q 3047 847 3047 1241 
Q 3047 1584 2836 1778 
Q 2625 1972 2144 2069 
L 1759 2144 
Q 1053 2284 737 2584 
Q 422 2884 422 3419 
Q 422 4038 858 4394 
Q 1294 4750 2059 4750 
Q 2388 4750 2728 4690 
Q 3069 4631 3425 4513 
z
" transform="scale(0.015625)"/>
       <path id="DejaVuSans-69" d="M 603 3500 
L 1178 3500 
L 1178 0 
L 603 0 
L 603 3500 
z
M 603 4863 
L 1178 4863 
L 1178 4134 
L 603 4134 
L 603 4863 
z
" transform="scale(0.015625)"/>
       <path id="DejaVuSans-7a" d="M 353 3500 
L 3084 3500 
L 3084 2975 
L 922 459 
L 3084 459 
L 3084 0 
L 275 0 
L 275 525 
L 2438 3041 
L 353 3041 
L 353 3500 
z
" transform="scale(0.015625)"/>
       <path id="DejaVuSans-65" d="M 3597 1894 
L 3597 1613 
L 953 1613 
Q 991 1019 1311 708 
Q 1631 397 2203 397 
Q 2534 397 2845 478 
Q 3156 559 3463 722 
L 3463 178 
Q 3153 47 2828 -22 
Q 2503 -91 2169 -91 
Q 1331 -91 842 396 
Q 353 884 353 1716 
Q 353 2575 817 3079 
Q 1281 3584 2069 3584 
Q 2775 3584 3186 3129 
Q 3597 2675 3597 1894 
z
M 3022 2063 
Q 3016 2534 2758 2815 
Q 2500 3097 2075 3097 
Q 1594 3097 1305 2825 
Q 1016 2553 972 2059 
L 3022 2063 
z
" transform="scale(0.015625)"/>
       <path id="DejaVuSans-20" transform="scale(0.015625)"/>
       <path id="DejaVuSans-28" d="M 1984 4856 
Q 1566 4138 1362 3434 
Q 1159 2731 1159 2009 
Q 1159 1288 1364 580 
Q 1569 -128 1984 -844 
L 1484 -844 
Q 1016 -109 783 600 
Q 550 1309 550 2009 
Q 550 2706 781 3412 
Q 1013 4119 1484 4856 
L 1984 4856 
z
" transform="scale(0.015625)"/>
       <path id="DejaVuSans-23" d="M 3272 2816 
L 2363 2816 
L 2100 1772 
L 3016 1772 
L 3272 2816 
z
M 2803 4594 
L 2478 3297 
L 3391 3297 
L 3719 4594 
L 4219 4594 
L 3897 3297 
L 4872 3297 
L 4872 2816 
L 3775 2816 
L 3519 1772 
L 4513 1772 
L 4513 1294 
L 3397 1294 
L 3072 0 
L 2572 0 
L 2894 1294 
L 1978 1294 
L 1656 0 
L 1153 0 
L 1478 1294 
L 494 1294 
L 494 1772 
L 1594 1772 
L 1856 2816 
L 850 2816 
L 850 3297 
L 1978 3297 
L 2297 4594 
L 2803 4594 
z
" transform="scale(0.015625)"/>
       <path id="DejaVuSans-64" d="M 2906 2969 
L 2906 4863 
L 3481 4863 
L 3481 0 
L 2906 0 
L 2906 525 
Q 2725 213 2448 61 
Q 2172 -91 1784 -91 
Q 1150 -91 751 415 
Q 353 922 353 1747 
Q 353 2572 751 3078 
Q 1150 3584 1784 3584 
Q 2172 3584 2448 3432 
Q 2725 3281 2906 2969 
z
M 947 1747 
Q 947 1113 1208 752 
Q 1469 391 1925 391 
Q 2381 391 2643 752 
Q 2906 1113 2906 1747 
Q 2906 2381 2643 2742 
Q 2381 3103 1925 3103 
Q 1469 3103 1208 2742 
Q 947 2381 947 1747 
z
" transform="scale(0.015625)"/>
       <path id="DejaVuSans-67" d="M 2906 1791 
Q 2906 2416 2648 2759 
Q 2391 3103 1925 3103 
Q 1463 3103 1205 2759 
Q 947 2416 947 1791 
Q 947 1169 1205 825 
Q 1463 481 1925 481 
Q 2391 481 2648 825 
Q 2906 1169 2906 1791 
z
M 3481 434 
Q 3481 -459 3084 -895 
Q 2688 -1331 1869 -1331 
Q 1566 -1331 1297 -1286 
Q 1028 -1241 775 -1147 
L 775 -588 
Q 1028 -725 1275 -790 
Q 1522 -856 1778 -856 
Q 2344 -856 2625 -561 
Q 2906 -266 2906 331 
L 2906 616 
Q 2728 306 2450 153 
Q 2172 0 1784 0 
Q 1141 0 747 490 
Q 353 981 353 1791 
Q 353 2603 747 3093 
Q 1141 3584 1784 3584 
Q 2172 3584 2450 3431 
Q 2728 3278 2906 2969 
L 2906 3500 
L 3481 3500 
L 3481 434 
z
" transform="scale(0.015625)"/>
       <path id="DejaVuSans-73" d="M 2834 3397 
L 2834 2853 
Q 2591 2978 2328 3040 
Q 2066 3103 1784 3103 
Q 1356 3103 1142 2972 
Q 928 2841 928 2578 
Q 928 2378 1081 2264 
Q 1234 2150 1697 2047 
L 1894 2003 
Q 2506 1872 2764 1633 
Q 3022 1394 3022 966 
Q 3022 478 2636 193 
Q 2250 -91 1575 -91 
Q 1294 -91 989 -36 
Q 684 19 347 128 
L 347 722 
Q 666 556 975 473 
Q 1284 391 1588 391 
Q 1994 391 2212 530 
Q 2431 669 2431 922 
Q 2431 1156 2273 1281 
Q 2116 1406 1581 1522 
L 1381 1569 
Q 847 1681 609 1914 
Q 372 2147 372 2553 
Q 372 3047 722 3315 
Q 1072 3584 1716 3584 
Q 2034 3584 2315 3537 
Q 2597 3491 2834 3397 
z
" transform="scale(0.015625)"/>
       <path id="DejaVuSans-29" d="M 513 4856 
L 1013 4856 
Q 1481 4119 1714 3412 
Q 1947 2706 1947 2009 
Q 1947 1309 1714 600 
Q 1481 -109 1013 -844 
L 513 -844 
Q 928 -128 1133 580 
Q 1338 1288 1338 2009 
Q 1338 2731 1133 3434 
Q 928 4138 513 4856 
z
" transform="scale(0.015625)"/>
      </defs>
      <use xlink:href="#DejaVuSans-53"/>
      <use xlink:href="#DejaVuSans-69" x="63.476562"/>
      <use xlink:href="#DejaVuSans-7a" x="91.259766"/>
      <use xlink:href="#DejaVuSans-65" x="143.75"/>
      <use xlink:href="#DejaVuSans-20" x="205.273438"/>
      <use xlink:href="#DejaVuSans-28" x="237.060547"/>
      <use xlink:href="#DejaVuSans-23" x="276.074219"/>
      <use xlink:href="#DejaVuSans-65" x="359.863281"/>
      <use xlink:href="#DejaVuSans-64" x="421.386719"/>
      <use xlink:href="#DejaVuSans-67" x="484.863281"/>
      <use xlink:href="#DejaVuSans-65" x="548.339844"/>
      <use xlink:href="#DejaVuSans-73" x="609.863281"/>
      <use xlink:href="#DejaVuSans-29" x="661.962891"/>
     </g>
    </g>
   </g>
   <g id="matplotlib.axis_2">
    <g id="ytick_1">
     <g id="line2d_7">
      <defs>
       <path id="m7eb1c47a8f" d="M 0 0 
L -3.5 0 
" style="stroke: #000000; stroke-width: 0.8"/>
      </defs>
      <g>
       <use xlink:href="#m7eb1c47a8f" x="47.72" y="378.929722" style="stroke: #000000; stroke-width: 0.8"/>
      </g>
     </g>
     <g id="text_8">
      <!-- 0.0 -->
      <g transform="translate(24.816875 382.728941)scale(0.1 -0.1)">
       <defs>
        <path id="DejaVuSans-2e" d="M 684 794 
L 1344 794 
L 1344 0 
L 684 0 
L 684 794 
z
" transform="scale(0.015625)"/>
       </defs>
       <use xlink:href="#DejaVuSans-30"/>
       <use xlink:href="#DejaVuSans-2e" x="63.623047"/>
       <use xlink:href="#DejaVuSans-30" x="95.410156"/>
      </g>
     </g>
    </g>
    <g id="ytick_2">
     <g id="line2d_8">
      <g>
       <use xlink:href="#m7eb1c47a8f" x="47.72" y="326.902474" style="stroke: #000000; stroke-width: 0.8"/>
      </g>
     </g>
     <g id="text_9">
      <!-- 0.1 -->
      <g transform="translate(24.816875 330.701693)scale(0.1 -0.1)">
       <defs>
        <path id="DejaVuSans-31" d="M 794 531 
L 1825 531 
L 1825 4091 
L 703 3866 
L 703 4441 
L 1819 4666 
L 2450 4666 
L 2450 531 
L 3481 531 
L 3481 0 
L 794 0 
L 794 531 
z
" transform="scale(0.015625)"/>
       </defs>
       <use xlink:href="#DejaVuSans-30"/>
       <use xlink:href="#DejaVuSans-2e" x="63.623047"/>
       <use xlink:href="#DejaVuSans-31" x="95.410156"/>
      </g>
     </g>
    </g>
    <g id="ytick_3">
     <g id="line2d_9">
      <g>
       <use xlink:href="#m7eb1c47a8f" x="47.72" y="274.875227" style="stroke: #000000; stroke-width: 0.8"/>
      </g>
     </g>
     <g id="text_10">
      <!-- 0.2 -->
      <g transform="translate(24.816875 278.674445)scale(0.1 -0.1)">
       <use xlink:href="#DejaVuSans-30"/>
       <use xlink:href="#DejaVuSans-2e" x="63.623047"/>
       <use xlink:href="#DejaVuSans-32" x="95.410156"/>
      </g>
     </g>
    </g>
    <g id="ytick_4">
     <g id="line2d_10">
      <g>
       <use xlink:href="#m7eb1c47a8f" x="47.72" y="222.847979" style="stroke: #000000; stroke-width: 0.8"/>
      </g>
     </g>
     <g id="text_11">
      <!-- 0.3 -->
      <g transform="translate(24.816875 226.647198)scale(0.1 -0.1)">
       <use xlink:href="#DejaVuSans-30"/>
       <use xlink:href="#DejaVuSans-2e" x="63.623047"/>
       <use xlink:href="#DejaVuSans-33" x="95.410156"/>
      </g>
     </g>
    </g>
    <g id="ytick_5">
     <g id="line2d_11">
      <g>
       <use xlink:href="#m7eb1c47a8f" x="47.72" y="170.820732" style="stroke: #000000; stroke-width: 0.8"/>
      </g>
     </g>
     <g id="text_12">
      <!-- 0.4 -->
      <g transform="translate(24.816875 174.61995)scale(0.1 -0.1)">
       <use xlink:href="#DejaVuSans-30"/>
       <use xlink:href="#DejaVuSans-2e" x="63.623047"/>
       <use xlink:href="#DejaVuSans-34" x="95.410156"/>
      </g>
     </g>
    </g>
    <g id="ytick_6">
     <g id="line2d_12">
      <g>
       <use xlink:href="#m7eb1c47a8f" x="47.72" y="118.793484" style="stroke: #000000; stroke-width: 0.8"/>
      </g>
     </g>
     <g id="text_13">
      <!-- 0.5 -->
      <g transform="translate(24.816875 122.592703)scale(0.1 -0.1)">
       <defs>
        <path id="DejaVuSans-35" d="M 691 4666 
L 3169 4666 
L 3169 4134 
L 1269 4134 
L 1269 2991 
Q 1406 3038 1543 3061 
Q 1681 3084 1819 3084 
Q 2600 3084 3056 2656 
Q 3513 2228 3513 1497 
Q 3513 744 3044 326 
Q 2575 -91 1722 -91 
Q 1428 -91 1123 -41 
Q 819 9 494 109 
L 494 744 
Q 775 591 1075 516 
Q 1375 441 1709 441 
Q 2250 441 2565 725 
Q 2881 1009 2881 1497 
Q 2881 1984 2565 2268 
Q 2250 2553 1709 2553 
Q 1456 2553 1204 2497 
Q 953 2441 691 2322 
L 691 4666 
z
" transform="scale(0.015625)"/>
       </defs>
       <use xlink:href="#DejaVuSans-30"/>
       <use xlink:href="#DejaVuSans-2e" x="63.623047"/>
       <use xlink:href="#DejaVuSans-35" x="95.410156"/>
      </g>
     </g>
    </g>
    <g id="ytick_7">
     <g id="line2d_13">
      <g>
       <use xlink:href="#m7eb1c47a8f" x="47.72" y="66.766237" style="stroke: #000000; stroke-width: 0.8"/>
      </g>
     </g>
     <g id="text_14">
      <!-- 0.6 -->
      <g transform="translate(24.816875 70.565455)scale(0.1 -0.1)">
       <use xlink:href="#DejaVuSans-30"/>
       <use xlink:href="#DejaVuSans-2e" x="63.623047"/>
       <use xlink:href="#DejaVuSans-36" x="95.410156"/>
      </g>
     </g>
    </g>
    <g id="text_15">
     <!-- Seconds spent -->
     <g transform="translate(18.737187 245.040469)rotate(-90)scale(0.1 -0.1)">
      <defs>
       <path id="DejaVuSans-63" d="M 3122 3366 
L 3122 2828 
Q 2878 2963 2633 3030 
Q 2388 3097 2138 3097 
Q 1578 3097 1268 2742 
Q 959 2388 959 1747 
Q 959 1106 1268 751 
Q 1578 397 2138 397 
Q 2388 397 2633 464 
Q 2878 531 3122 666 
L 3122 134 
Q 2881 22 2623 -34 
Q 2366 -91 2075 -91 
Q 1284 -91 818 406 
Q 353 903 353 1747 
Q 353 2603 823 3093 
Q 1294 3584 2113 3584 
Q 2378 3584 2631 3529 
Q 2884 3475 3122 3366 
z
" transform="scale(0.015625)"/>
       <path id="DejaVuSans-6f" d="M 1959 3097 
Q 1497 3097 1228 2736 
Q 959 2375 959 1747 
Q 959 1119 1226 758 
Q 1494 397 1959 397 
Q 2419 397 2687 759 
Q 2956 1122 2956 1747 
Q 2956 2369 2687 2733 
Q 2419 3097 1959 3097 
z
M 1959 3584 
Q 2709 3584 3137 3096 
Q 3566 2609 3566 1747 
Q 3566 888 3137 398 
Q 2709 -91 1959 -91 
Q 1206 -91 779 398 
Q 353 888 353 1747 
Q 353 2609 779 3096 
Q 1206 3584 1959 3584 
z
" transform="scale(0.015625)"/>
       <path id="DejaVuSans-6e" d="M 3513 2113 
L 3513 0 
L 2938 0 
L 2938 2094 
Q 2938 2591 2744 2837 
Q 2550 3084 2163 3084 
Q 1697 3084 1428 2787 
Q 1159 2491 1159 1978 
L 1159 0 
L 581 0 
L 581 3500 
L 1159 3500 
L 1159 2956 
Q 1366 3272 1645 3428 
Q 1925 3584 2291 3584 
Q 2894 3584 3203 3211 
Q 3513 2838 3513 2113 
z
" transform="scale(0.015625)"/>
       <path id="DejaVuSans-70" d="M 1159 525 
L 1159 -1331 
L 581 -1331 
L 581 3500 
L 1159 3500 
L 1159 2969 
Q 1341 3281 1617 3432 
Q 1894 3584 2278 3584 
Q 2916 3584 3314 3078 
Q 3713 2572 3713 1747 
Q 3713 922 3314 415 
Q 2916 -91 2278 -91 
Q 1894 -91 1617 61 
Q 1341 213 1159 525 
z
M 3116 1747 
Q 3116 2381 2855 2742 
Q 2594 3103 2138 3103 
Q 1681 3103 1420 2742 
Q 1159 2381 1159 1747 
Q 1159 1113 1420 752 
Q 1681 391 2138 391 
Q 2594 391 2855 752 
Q 3116 1113 3116 1747 
z
" transform="scale(0.015625)"/>
       <path id="DejaVuSans-74" d="M 1172 4494 
L 1172 3500 
L 2356 3500 
L 2356 3053 
L 1172 3053 
L 1172 1153 
Q 1172 725 1289 603 
Q 1406 481 1766 481 
L 2356 481 
L 2356 0 
L 1766 0 
Q 1100 0 847 248 
Q 594 497 594 1153 
L 594 3053 
L 172 3053 
L 172 3500 
L 594 3500 
L 594 4494 
L 1172 4494 
z
" transform="scale(0.015625)"/>
      </defs>
      <use xlink:href="#DejaVuSans-53"/>
      <use xlink:href="#DejaVuSans-65" x="63.476562"/>
      <use xlink:href="#DejaVuSans-63" x="125"/>
      <use xlink:href="#DejaVuSans-6f" x="179.980469"/>
      <use xlink:href="#DejaVuSans-6e" x="241.162109"/>
      <use xlink:href="#DejaVuSans-64" x="304.541016"/>
      <use xlink:href="#DejaVuSans-73" x="368.017578"/>
      <use xlink:href="#DejaVuSans-20" x="420.117188"/>
      <use xlink:href="#DejaVuSans-73" x="451.904297"/>
      <use xlink:href="#DejaVuSans-70" x="504.003906"/>
      <use xlink:href="#DejaVuSans-65" x="567.480469"/>
      <use xlink:href="#DejaVuSans-6e" x="629.003906"/>
      <use xlink:href="#DejaVuSans-74" x="692.382812"/>
     </g>
    </g>
   </g>
   <g id="LineCollection_1">
    <path d="M 71.241818 370.18056 
L 71.241818 368.547008 
" clip-path="url(#p4f77a58086)" style="fill: none; stroke: #1f77b4; stroke-width: 1.5"/>
    <path d="M 94.763636 369.586304 
L 94.763636 365.7751 
" clip-path="url(#p4f77a58086)" style="fill: none; stroke: #1f77b4; stroke-width: 1.5"/>
    <path d="M 118.285455 368.354247 
L 118.285455 367.71322 
" clip-path="url(#p4f77a58086)" style="fill: none; stroke: #1f77b4; stroke-width: 1.5"/>
    <path d="M 141.807273 366.912832 
L 141.807273 366.582928 
" clip-path="url(#p4f77a58086)" style="fill: none; stroke: #1f77b4; stroke-width: 1.5"/>
    <path d="M 165.329091 365.14708 
L 165.329091 364.742776 
" clip-path="url(#p4f77a58086)" style="fill: none; stroke: #1f77b4; stroke-width: 1.5"/>
    <path d="M 188.850909 362.921978 
L 188.850909 362.748103 
" clip-path="url(#p4f77a58086)" style="fill: none; stroke: #1f77b4; stroke-width: 1.5"/>
    <path d="M 212.372727 360.806446 
L 212.372727 349.70482 
" clip-path="url(#p4f77a58086)" style="fill: none; stroke: #1f77b4; stroke-width: 1.5"/>
    <path d="M 235.894545 357.898591 
L 235.894545 357.568687 
" clip-path="url(#p4f77a58086)" style="fill: none; stroke: #1f77b4; stroke-width: 1.5"/>
    <path d="M 259.416364 354.810254 
L 259.416364 354.559899 
" clip-path="url(#p4f77a58086)" style="fill: none; stroke: #1f77b4; stroke-width: 1.5"/>
    <path d="M 282.938182 351.731698 
L 282.938182 351.177556 
" clip-path="url(#p4f77a58086)" style="fill: none; stroke: #1f77b4; stroke-width: 1.5"/>
    <path d="M 306.46 348.134898 
L 306.46 347.28009 
" clip-path="url(#p4f77a58086)" style="fill: none; stroke: #1f77b4; stroke-width: 1.5"/>
    <path d="M 329.981818 341.535398 
L 329.981818 340.155583 
" clip-path="url(#p4f77a58086)" style="fill: none; stroke: #1f77b4; stroke-width: 1.5"/>
    <path d="M 353.503636 336.566588 
L 353.503636 334.295806 
" clip-path="url(#p4f77a58086)" style="fill: none; stroke: #1f77b4; stroke-width: 1.5"/>
    <path d="M 377.025455 331.129116 
L 377.025455 328.454083 
" clip-path="url(#p4f77a58086)" style="fill: none; stroke: #1f77b4; stroke-width: 1.5"/>
    <path d="M 400.547273 321.984859 
L 400.547273 319.709707 
" clip-path="url(#p4f77a58086)" style="fill: none; stroke: #1f77b4; stroke-width: 1.5"/>
    <path d="M 424.069091 314.34986 
L 424.069091 310.619507 
" clip-path="url(#p4f77a58086)" style="fill: none; stroke: #1f77b4; stroke-width: 1.5"/>
    <path d="M 447.590909 300.824857 
L 447.590909 296.544575 
" clip-path="url(#p4f77a58086)" style="fill: none; stroke: #1f77b4; stroke-width: 1.5"/>
    <path d="M 471.112727 284.306206 
L 471.112727 279.506692 
" clip-path="url(#p4f77a58086)" style="fill: none; stroke: #1f77b4; stroke-width: 1.5"/>
    <path d="M 494.634545 263.337144 
L 494.634545 256.026275 
" clip-path="url(#p4f77a58086)" style="fill: none; stroke: #1f77b4; stroke-width: 1.5"/>
    <path d="M 518.156364 246.282092 
L 518.156364 242.696894 
" clip-path="url(#p4f77a58086)" style="fill: none; stroke: #1f77b4; stroke-width: 1.5"/>
    <path d="M 541.678182 218.042222 
L 541.678182 206.188855 
" clip-path="url(#p4f77a58086)" style="fill: none; stroke: #1f77b4; stroke-width: 1.5"/>
   </g>
   <g id="line2d_14">
    <defs>
     <path id="md8547b9e7e" d="M 3 0 
L -3 -0 
" style="stroke: #1f77b4"/>
    </defs>
    <g clip-path="url(#p4f77a58086)">
     <use xlink:href="#md8547b9e7e" x="71.241818" y="370.18056" style="fill: #1f77b4; stroke: #1f77b4"/>
     <use xlink:href="#md8547b9e7e" x="94.763636" y="369.586304" style="fill: #1f77b4; stroke: #1f77b4"/>
     <use xlink:href="#md8547b9e7e" x="118.285455" y="368.354247" style="fill: #1f77b4; stroke: #1f77b4"/>
     <use xlink:href="#md8547b9e7e" x="141.807273" y="366.912832" style="fill: #1f77b4; stroke: #1f77b4"/>
     <use xlink:href="#md8547b9e7e" x="165.329091" y="365.14708" style="fill: #1f77b4; stroke: #1f77b4"/>
     <use xlink:href="#md8547b9e7e" x="188.850909" y="362.921978" style="fill: #1f77b4; stroke: #1f77b4"/>
     <use xlink:href="#md8547b9e7e" x="212.372727" y="360.806446" style="fill: #1f77b4; stroke: #1f77b4"/>
     <use xlink:href="#md8547b9e7e" x="235.894545" y="357.898591" style="fill: #1f77b4; stroke: #1f77b4"/>
     <use xlink:href="#md8547b9e7e" x="259.416364" y="354.810254" style="fill: #1f77b4; stroke: #1f77b4"/>
     <use xlink:href="#md8547b9e7e" x="282.938182" y="351.731698" style="fill: #1f77b4; stroke: #1f77b4"/>
     <use xlink:href="#md8547b9e7e" x="306.46" y="348.134898" style="fill: #1f77b4; stroke: #1f77b4"/>
     <use xlink:href="#md8547b9e7e" x="329.981818" y="341.535398" style="fill: #1f77b4; stroke: #1f77b4"/>
     <use xlink:href="#md8547b9e7e" x="353.503636" y="336.566588" style="fill: #1f77b4; stroke: #1f77b4"/>
     <use xlink:href="#md8547b9e7e" x="377.025455" y="331.129116" style="fill: #1f77b4; stroke: #1f77b4"/>
     <use xlink:href="#md8547b9e7e" x="400.547273" y="321.984859" style="fill: #1f77b4; stroke: #1f77b4"/>
     <use xlink:href="#md8547b9e7e" x="424.069091" y="314.34986" style="fill: #1f77b4; stroke: #1f77b4"/>
     <use xlink:href="#md8547b9e7e" x="447.590909" y="300.824857" style="fill: #1f77b4; stroke: #1f77b4"/>
     <use xlink:href="#md8547b9e7e" x="471.112727" y="284.306206" style="fill: #1f77b4; stroke: #1f77b4"/>
     <use xlink:href="#md8547b9e7e" x="494.634545" y="263.337144" style="fill: #1f77b4; stroke: #1f77b4"/>
     <use xlink:href="#md8547b9e7e" x="518.156364" y="246.282092" style="fill: #1f77b4; stroke: #1f77b4"/>
     <use xlink:href="#md8547b9e7e" x="541.678182" y="218.042222" style="fill: #1f77b4; stroke: #1f77b4"/>
    </g>
   </g>
   <g id="line2d_15">
    <g clip-path="url(#p4f77a58086)">
     <use xlink:href="#md8547b9e7e" x="71.241818" y="368.547008" style="fill: #1f77b4; stroke: #1f77b4"/>
     <use xlink:href="#md8547b9e7e" x="94.763636" y="365.7751" style="fill: #1f77b4; stroke: #1f77b4"/>
     <use xlink:href="#md8547b9e7e" x="118.285455" y="367.71322" style="fill: #1f77b4; stroke: #1f77b4"/>
     <use xlink:href="#md8547b9e7e" x="141.807273" y="366.582928" style="fill: #1f77b4; stroke: #1f77b4"/>
     <use xlink:href="#md8547b9e7e" x="165.329091" y="364.742776" style="fill: #1f77b4; stroke: #1f77b4"/>
     <use xlink:href="#md8547b9e7e" x="188.850909" y="362.748103" style="fill: #1f77b4; stroke: #1f77b4"/>
     <use xlink:href="#md8547b9e7e" x="212.372727" y="349.70482" style="fill: #1f77b4; stroke: #1f77b4"/>
     <use xlink:href="#md8547b9e7e" x="235.894545" y="357.568687" style="fill: #1f77b4; stroke: #1f77b4"/>
     <use xlink:href="#md8547b9e7e" x="259.416364" y="354.559899" style="fill: #1f77b4; stroke: #1f77b4"/>
     <use xlink:href="#md8547b9e7e" x="282.938182" y="351.177556" style="fill: #1f77b4; stroke: #1f77b4"/>
     <use xlink:href="#md8547b9e7e" x="306.46" y="347.28009" style="fill: #1f77b4; stroke: #1f77b4"/>
     <use xlink:href="#md8547b9e7e" x="329.981818" y="340.155583" style="fill: #1f77b4; stroke: #1f77b4"/>
     <use xlink:href="#md8547b9e7e" x="353.503636" y="334.295806" style="fill: #1f77b4; stroke: #1f77b4"/>
     <use xlink:href="#md8547b9e7e" x="377.025455" y="328.454083" style="fill: #1f77b4; stroke: #1f77b4"/>
     <use xlink:href="#md8547b9e7e" x="400.547273" y="319.709707" style="fill: #1f77b4; stroke: #1f77b4"/>
     <use xlink:href="#md8547b9e7e" x="424.069091" y="310.619507" style="fill: #1f77b4; stroke: #1f77b4"/>
     <use xlink:href="#md8547b9e7e" x="447.590909" y="296.544575" style="fill: #1f77b4; stroke: #1f77b4"/>
     <use xlink:href="#md8547b9e7e" x="471.112727" y="279.506692" style="fill: #1f77b4; stroke: #1f77b4"/>
     <use xlink:href="#md8547b9e7e" x="494.634545" y="256.026275" style="fill: #1f77b4; stroke: #1f77b4"/>
     <use xlink:href="#md8547b9e7e" x="518.156364" y="242.696894" style="fill: #1f77b4; stroke: #1f77b4"/>
     <use xlink:href="#md8547b9e7e" x="541.678182" y="206.188855" style="fill: #1f77b4; stroke: #1f77b4"/>
    </g>
   </g>
   <g id="LineCollection_2">
    <path d="M 71.241818 363.750512 
L 71.241818 363.187161 
" clip-path="url(#p4f77a58086)" style="fill: none; stroke: #ff7f0e; stroke-width: 1.5"/>
    <path d="M 94.763636 361.621817 
L 94.763636 361.25976 
" clip-path="url(#p4f77a58086)" style="fill: none; stroke: #ff7f0e; stroke-width: 1.5"/>
    <path d="M 118.285455 359.016137 
L 118.285455 358.126263 
" clip-path="url(#p4f77a58086)" style="fill: none; stroke: #ff7f0e; stroke-width: 1.5"/>
    <path d="M 141.807273 356.523199 
L 141.807273 355.948766 
" clip-path="url(#p4f77a58086)" style="fill: none; stroke: #ff7f0e; stroke-width: 1.5"/>
    <path d="M 165.329091 353.156516 
L 165.329091 351.931222 
" clip-path="url(#p4f77a58086)" style="fill: none; stroke: #ff7f0e; stroke-width: 1.5"/>
    <path d="M 188.850909 348.663131 
L 188.850909 347.952543 
" clip-path="url(#p4f77a58086)" style="fill: none; stroke: #ff7f0e; stroke-width: 1.5"/>
    <path d="M 212.372727 344.055806 
L 212.372727 343.295844 
" clip-path="url(#p4f77a58086)" style="fill: none; stroke: #ff7f0e; stroke-width: 1.5"/>
    <path d="M 235.894545 338.513239 
L 235.894545 337.48747 
" clip-path="url(#p4f77a58086)" style="fill: none; stroke: #ff7f0e; stroke-width: 1.5"/>
    <path d="M 259.416364 331.909889 
L 259.416364 331.132237 
" clip-path="url(#p4f77a58086)" style="fill: none; stroke: #ff7f0e; stroke-width: 1.5"/>
    <path d="M 282.938182 324.399964 
L 282.938182 323.456189 
" clip-path="url(#p4f77a58086)" style="fill: none; stroke: #ff7f0e; stroke-width: 1.5"/>
    <path d="M 306.46 315.947097 
L 306.46 314.132386 
" clip-path="url(#p4f77a58086)" style="fill: none; stroke: #ff7f0e; stroke-width: 1.5"/>
    <path d="M 329.981818 305.79502 
L 329.981818 303.458476 
" clip-path="url(#p4f77a58086)" style="fill: none; stroke: #ff7f0e; stroke-width: 1.5"/>
    <path d="M 353.503636 292.636288 
L 353.503636 290.256562 
" clip-path="url(#p4f77a58086)" style="fill: none; stroke: #ff7f0e; stroke-width: 1.5"/>
    <path d="M 377.025455 280.159634 
L 377.025455 278.91098 
" clip-path="url(#p4f77a58086)" style="fill: none; stroke: #ff7f0e; stroke-width: 1.5"/>
    <path d="M 400.547273 260.344017 
L 400.547273 257.013232 
" clip-path="url(#p4f77a58086)" style="fill: none; stroke: #ff7f0e; stroke-width: 1.5"/>
    <path d="M 424.069091 241.918047 
L 424.069091 232.7394 
" clip-path="url(#p4f77a58086)" style="fill: none; stroke: #ff7f0e; stroke-width: 1.5"/>
    <path d="M 447.590909 217.299273 
L 447.590909 212.855106 
" clip-path="url(#p4f77a58086)" style="fill: none; stroke: #ff7f0e; stroke-width: 1.5"/>
    <path d="M 471.112727 185.870654 
L 471.112727 182.600221 
" clip-path="url(#p4f77a58086)" style="fill: none; stroke: #ff7f0e; stroke-width: 1.5"/>
    <path d="M 494.634545 149.151383 
L 494.634545 139.277132 
" clip-path="url(#p4f77a58086)" style="fill: none; stroke: #ff7f0e; stroke-width: 1.5"/>
    <path d="M 518.156364 102.523523 
L 518.156364 99.433625 
" clip-path="url(#p4f77a58086)" style="fill: none; stroke: #ff7f0e; stroke-width: 1.5"/>
    <path d="M 541.678182 44.35498 
L 541.678182 43.387273 
" clip-path="url(#p4f77a58086)" style="fill: none; stroke: #ff7f0e; stroke-width: 1.5"/>
   </g>
   <g id="line2d_16">
    <defs>
     <path id="m7f04267d81" d="M 3 0 
L -3 -0 
" style="stroke: #ff7f0e"/>
    </defs>
    <g clip-path="url(#p4f77a58086)">
     <use xlink:href="#m7f04267d81" x="71.241818" y="363.750512" style="fill: #ff7f0e; stroke: #ff7f0e"/>
     <use xlink:href="#m7f04267d81" x="94.763636" y="361.621817" style="fill: #ff7f0e; stroke: #ff7f0e"/>
     <use xlink:href="#m7f04267d81" x="118.285455" y="359.016137" style="fill: #ff7f0e; stroke: #ff7f0e"/>
     <use xlink:href="#m7f04267d81" x="141.807273" y="356.523199" style="fill: #ff7f0e; stroke: #ff7f0e"/>
     <use xlink:href="#m7f04267d81" x="165.329091" y="353.156516" style="fill: #ff7f0e; stroke: #ff7f0e"/>
     <use xlink:href="#m7f04267d81" x="188.850909" y="348.663131" style="fill: #ff7f0e; stroke: #ff7f0e"/>
     <use xlink:href="#m7f04267d81" x="212.372727" y="344.055806" style="fill: #ff7f0e; stroke: #ff7f0e"/>
     <use xlink:href="#m7f04267d81" x="235.894545" y="338.513239" style="fill: #ff7f0e; stroke: #ff7f0e"/>
     <use xlink:href="#m7f04267d81" x="259.416364" y="331.909889" style="fill: #ff7f0e; stroke: #ff7f0e"/>
     <use xlink:href="#m7f04267d81" x="282.938182" y="324.399964" style="fill: #ff7f0e; stroke: #ff7f0e"/>
     <use xlink:href="#m7f04267d81" x="306.46" y="315.947097" style="fill: #ff7f0e; stroke: #ff7f0e"/>
     <use xlink:href="#m7f04267d81" x="329.981818" y="305.79502" style="fill: #ff7f0e; stroke: #ff7f0e"/>
     <use xlink:href="#m7f04267d81" x="353.503636" y="292.636288" style="fill: #ff7f0e; stroke: #ff7f0e"/>
     <use xlink:href="#m7f04267d81" x="377.025455" y="280.159634" style="fill: #ff7f0e; stroke: #ff7f0e"/>
     <use xlink:href="#m7f04267d81" x="400.547273" y="260.344017" style="fill: #ff7f0e; stroke: #ff7f0e"/>
     <use xlink:href="#m7f04267d81" x="424.069091" y="241.918047" style="fill: #ff7f0e; stroke: #ff7f0e"/>
     <use xlink:href="#m7f04267d81" x="447.590909" y="217.299273" style="fill: #ff7f0e; stroke: #ff7f0e"/>
     <use xlink:href="#m7f04267d81" x="471.112727" y="185.870654" style="fill: #ff7f0e; stroke: #ff7f0e"/>
     <use xlink:href="#m7f04267d81" x="494.634545" y="149.151383" style="fill: #ff7f0e; stroke: #ff7f0e"/>
     <use xlink:href="#m7f04267d81" x="518.156364" y="102.523523" style="fill: #ff7f0e; stroke: #ff7f0e"/>
     <use xlink:href="#m7f04267d81" x="541.678182" y="44.35498" style="fill: #ff7f0e; stroke: #ff7f0e"/>
    </g>
   </g>
   <g id="line2d_17">
    <g clip-path="url(#p4f77a58086)">
     <use xlink:href="#m7f04267d81" x="71.241818" y="363.187161" style="fill: #ff7f0e; stroke: #ff7f0e"/>
     <use xlink:href="#m7f04267d81" x="94.763636" y="361.25976" style="fill: #ff7f0e; stroke: #ff7f0e"/>
     <use xlink:href="#m7f04267d81" x="118.285455" y="358.126263" style="fill: #ff7f0e; stroke: #ff7f0e"/>
     <use xlink:href="#m7f04267d81" x="141.807273" y="355.948766" style="fill: #ff7f0e; stroke: #ff7f0e"/>
     <use xlink:href="#m7f04267d81" x="165.329091" y="351.931222" style="fill: #ff7f0e; stroke: #ff7f0e"/>
     <use xlink:href="#m7f04267d81" x="188.850909" y="347.952543" style="fill: #ff7f0e; stroke: #ff7f0e"/>
     <use xlink:href="#m7f04267d81" x="212.372727" y="343.295844" style="fill: #ff7f0e; stroke: #ff7f0e"/>
     <use xlink:href="#m7f04267d81" x="235.894545" y="337.48747" style="fill: #ff7f0e; stroke: #ff7f0e"/>
     <use xlink:href="#m7f04267d81" x="259.416364" y="331.132237" style="fill: #ff7f0e; stroke: #ff7f0e"/>
     <use xlink:href="#m7f04267d81" x="282.938182" y="323.456189" style="fill: #ff7f0e; stroke: #ff7f0e"/>
     <use xlink:href="#m7f04267d81" x="306.46" y="314.132386" style="fill: #ff7f0e; stroke: #ff7f0e"/>
     <use xlink:href="#m7f04267d81" x="329.981818" y="303.458476" style="fill: #ff7f0e; stroke: #ff7f0e"/>
     <use xlink:href="#m7f04267d81" x="353.503636" y="290.256562" style="fill: #ff7f0e; stroke: #ff7f0e"/>
     <use xlink:href="#m7f04267d81" x="377.025455" y="278.91098" style="fill: #ff7f0e; stroke: #ff7f0e"/>
     <use xlink:href="#m7f04267d81" x="400.547273" y="257.013232" style="fill: #ff7f0e; stroke: #ff7f0e"/>
     <use xlink:href="#m7f04267d81" x="424.069091" y="232.7394" style="fill: #ff7f0e; stroke: #ff7f0e"/>
     <use xlink:href="#m7f04267d81" x="447.590909" y="212.855106" style="fill: #ff7f0e; stroke: #ff7f0e"/>
     <use xlink:href="#m7f04267d81" x="471.112727" y="182.600221" style="fill: #ff7f0e; stroke: #ff7f0e"/>
     <use xlink:href="#m7f04267d81" x="494.634545" y="139.277132" style="fill: #ff7f0e; stroke: #ff7f0e"/>
     <use xlink:href="#m7f04267d81" x="518.156364" y="99.433625" style="fill: #ff7f0e; stroke: #ff7f0e"/>
     <use xlink:href="#m7f04267d81" x="541.678182" y="43.387273" style="fill: #ff7f0e; stroke: #ff7f0e"/>
    </g>
   </g>
   <g id="LineCollection_3">
    <path d="M 71.241818 373.532727 
L 71.241818 373.379299 
" clip-path="url(#p4f77a58086)" style="fill: none; stroke: #2ca02c; stroke-width: 1.5"/>
    <path d="M 94.763636 372.922968 
L 94.763636 372.74337 
" clip-path="url(#p4f77a58086)" style="fill: none; stroke: #2ca02c; stroke-width: 1.5"/>
    <path d="M 118.285455 371.987466 
L 118.285455 371.927999 
" clip-path="url(#p4f77a58086)" style="fill: none; stroke: #2ca02c; stroke-width: 1.5"/>
    <path d="M 141.807273 371.29977 
L 141.807273 371.091661 
" clip-path="url(#p4f77a58086)" style="fill: none; stroke: #2ca02c; stroke-width: 1.5"/>
    <path d="M 165.329091 370.064643 
L 165.329091 369.920059 
" clip-path="url(#p4f77a58086)" style="fill: none; stroke: #2ca02c; stroke-width: 1.5"/>
    <path d="M 188.850909 368.786334 
L 188.850909 368.496802 
" clip-path="url(#p4f77a58086)" style="fill: none; stroke: #2ca02c; stroke-width: 1.5"/>
    <path d="M 212.372727 367.182438 
L 212.372727 367.076302 
" clip-path="url(#p4f77a58086)" style="fill: none; stroke: #2ca02c; stroke-width: 1.5"/>
    <path d="M 235.894545 365.508149 
L 235.894545 365.245567 
" clip-path="url(#p4f77a58086)" style="fill: none; stroke: #2ca02c; stroke-width: 1.5"/>
    <path d="M 259.416364 363.354481 
L 259.416364 363.199231 
" clip-path="url(#p4f77a58086)" style="fill: none; stroke: #2ca02c; stroke-width: 1.5"/>
    <path d="M 282.938182 360.854884 
L 282.938182 360.258235 
" clip-path="url(#p4f77a58086)" style="fill: none; stroke: #2ca02c; stroke-width: 1.5"/>
    <path d="M 306.46 358.153681 
L 306.46 357.708016 
" clip-path="url(#p4f77a58086)" style="fill: none; stroke: #2ca02c; stroke-width: 1.5"/>
    <path d="M 329.981818 354.652299 
L 329.981818 354.409696 
" clip-path="url(#p4f77a58086)" style="fill: none; stroke: #2ca02c; stroke-width: 1.5"/>
    <path d="M 353.503636 351.206223 
L 353.503636 350.852749 
" clip-path="url(#p4f77a58086)" style="fill: none; stroke: #2ca02c; stroke-width: 1.5"/>
    <path d="M 377.025455 346.911998 
L 377.025455 345.788053 
" clip-path="url(#p4f77a58086)" style="fill: none; stroke: #2ca02c; stroke-width: 1.5"/>
    <path d="M 400.547273 341.690439 
L 400.547273 340.518681 
" clip-path="url(#p4f77a58086)" style="fill: none; stroke: #2ca02c; stroke-width: 1.5"/>
    <path d="M 424.069091 334.842248 
L 424.069091 332.967915 
" clip-path="url(#p4f77a58086)" style="fill: none; stroke: #2ca02c; stroke-width: 1.5"/>
    <path d="M 447.590909 327.111676 
L 447.590909 324.460836 
" clip-path="url(#p4f77a58086)" style="fill: none; stroke: #2ca02c; stroke-width: 1.5"/>
    <path d="M 471.112727 316.692127 
L 471.112727 314.524152 
" clip-path="url(#p4f77a58086)" style="fill: none; stroke: #2ca02c; stroke-width: 1.5"/>
    <path d="M 494.634545 305.334059 
L 494.634545 302.826865 
" clip-path="url(#p4f77a58086)" style="fill: none; stroke: #2ca02c; stroke-width: 1.5"/>
    <path d="M 518.156364 290.872565 
L 518.156364 287.714511 
" clip-path="url(#p4f77a58086)" style="fill: none; stroke: #2ca02c; stroke-width: 1.5"/>
    <path d="M 541.678182 274.149447 
L 541.678182 272.330574 
" clip-path="url(#p4f77a58086)" style="fill: none; stroke: #2ca02c; stroke-width: 1.5"/>
   </g>
   <g id="line2d_18">
    <defs>
     <path id="mf3fc7103a7" d="M 3 0 
L -3 -0 
" style="stroke: #2ca02c"/>
    </defs>
    <g clip-path="url(#p4f77a58086)">
     <use xlink:href="#mf3fc7103a7" x="71.241818" y="373.532727" style="fill: #2ca02c; stroke: #2ca02c"/>
     <use xlink:href="#mf3fc7103a7" x="94.763636" y="372.922968" style="fill: #2ca02c; stroke: #2ca02c"/>
     <use xlink:href="#mf3fc7103a7" x="118.285455" y="371.987466" style="fill: #2ca02c; stroke: #2ca02c"/>
     <use xlink:href="#mf3fc7103a7" x="141.807273" y="371.29977" style="fill: #2ca02c; stroke: #2ca02c"/>
     <use xlink:href="#mf3fc7103a7" x="165.329091" y="370.064643" style="fill: #2ca02c; stroke: #2ca02c"/>
     <use xlink:href="#mf3fc7103a7" x="188.850909" y="368.786334" style="fill: #2ca02c; stroke: #2ca02c"/>
     <use xlink:href="#mf3fc7103a7" x="212.372727" y="367.182438" style="fill: #2ca02c; stroke: #2ca02c"/>
     <use xlink:href="#mf3fc7103a7" x="235.894545" y="365.508149" style="fill: #2ca02c; stroke: #2ca02c"/>
     <use xlink:href="#mf3fc7103a7" x="259.416364" y="363.354481" style="fill: #2ca02c; stroke: #2ca02c"/>
     <use xlink:href="#mf3fc7103a7" x="282.938182" y="360.854884" style="fill: #2ca02c; stroke: #2ca02c"/>
     <use xlink:href="#mf3fc7103a7" x="306.46" y="358.153681" style="fill: #2ca02c; stroke: #2ca02c"/>
     <use xlink:href="#mf3fc7103a7" x="329.981818" y="354.652299" style="fill: #2ca02c; stroke: #2ca02c"/>
     <use xlink:href="#mf3fc7103a7" x="353.503636" y="351.206223" style="fill: #2ca02c; stroke: #2ca02c"/>
     <use xlink:href="#mf3fc7103a7" x="377.025455" y="346.911998" style="fill: #2ca02c; stroke: #2ca02c"/>
     <use xlink:href="#mf3fc7103a7" x="400.547273" y="341.690439" style="fill: #2ca02c; stroke: #2ca02c"/>
     <use xlink:href="#mf3fc7103a7" x="424.069091" y="334.842248" style="fill: #2ca02c; stroke: #2ca02c"/>
     <use xlink:href="#mf3fc7103a7" x="447.590909" y="327.111676" style="fill: #2ca02c; stroke: #2ca02c"/>
     <use xlink:href="#mf3fc7103a7" x="471.112727" y="316.692127" style="fill: #2ca02c; stroke: #2ca02c"/>
     <use xlink:href="#mf3fc7103a7" x="494.634545" y="305.334059" style="fill: #2ca02c; stroke: #2ca02c"/>
     <use xlink:href="#mf3fc7103a7" x="518.156364" y="290.872565" style="fill: #2ca02c; stroke: #2ca02c"/>
     <use xlink:href="#mf3fc7103a7" x="541.678182" y="274.149447" style="fill: #2ca02c; stroke: #2ca02c"/>
    </g>
   </g>
   <g id="line2d_19">
    <g clip-path="url(#p4f77a58086)">
     <use xlink:href="#mf3fc7103a7" x="71.241818" y="373.379299" style="fill: #2ca02c; stroke: #2ca02c"/>
     <use xlink:href="#mf3fc7103a7" x="94.763636" y="372.74337" style="fill: #2ca02c; stroke: #2ca02c"/>
     <use xlink:href="#mf3fc7103a7" x="118.285455" y="371.927999" style="fill: #2ca02c; stroke: #2ca02c"/>
     <use xlink:href="#mf3fc7103a7" x="141.807273" y="371.091661" style="fill: #2ca02c; stroke: #2ca02c"/>
     <use xlink:href="#mf3fc7103a7" x="165.329091" y="369.920059" style="fill: #2ca02c; stroke: #2ca02c"/>
     <use xlink:href="#mf3fc7103a7" x="188.850909" y="368.496802" style="fill: #2ca02c; stroke: #2ca02c"/>
     <use xlink:href="#mf3fc7103a7" x="212.372727" y="367.076302" style="fill: #2ca02c; stroke: #2ca02c"/>
     <use xlink:href="#mf3fc7103a7" x="235.894545" y="365.245567" style="fill: #2ca02c; stroke: #2ca02c"/>
     <use xlink:href="#mf3fc7103a7" x="259.416364" y="363.199231" style="fill: #2ca02c; stroke: #2ca02c"/>
     <use xlink:href="#mf3fc7103a7" x="282.938182" y="360.258235" style="fill: #2ca02c; stroke: #2ca02c"/>
     <use xlink:href="#mf3fc7103a7" x="306.46" y="357.708016" style="fill: #2ca02c; stroke: #2ca02c"/>
     <use xlink:href="#mf3fc7103a7" x="329.981818" y="354.409696" style="fill: #2ca02c; stroke: #2ca02c"/>
     <use xlink:href="#mf3fc7103a7" x="353.503636" y="350.852749" style="fill: #2ca02c; stroke: #2ca02c"/>
     <use xlink:href="#mf3fc7103a7" x="377.025455" y="345.788053" style="fill: #2ca02c; stroke: #2ca02c"/>
     <use xlink:href="#mf3fc7103a7" x="400.547273" y="340.518681" style="fill: #2ca02c; stroke: #2ca02c"/>
     <use xlink:href="#mf3fc7103a7" x="424.069091" y="332.967915" style="fill: #2ca02c; stroke: #2ca02c"/>
     <use xlink:href="#mf3fc7103a7" x="447.590909" y="324.460836" style="fill: #2ca02c; stroke: #2ca02c"/>
     <use xlink:href="#mf3fc7103a7" x="471.112727" y="314.524152" style="fill: #2ca02c; stroke: #2ca02c"/>
     <use xlink:href="#mf3fc7103a7" x="494.634545" y="302.826865" style="fill: #2ca02c; stroke: #2ca02c"/>
     <use xlink:href="#mf3fc7103a7" x="518.156364" y="287.714511" style="fill: #2ca02c; stroke: #2ca02c"/>
     <use xlink:href="#mf3fc7103a7" x="541.678182" y="272.330574" style="fill: #2ca02c; stroke: #2ca02c"/>
    </g>
   </g>
   <g id="line2d_20">
    <path d="M 71.241818 369.740409 
L 94.763636 368.681447 
L 118.285455 368.002959 
L 141.807273 366.756595 
L 165.329091 364.929502 
L 188.850909 362.805125 
L 212.372727 358.497633 
L 235.894545 357.769096 
L 259.416364 354.706356 
L 282.938182 351.511518 
L 306.46 347.7256 
L 329.981818 340.724085 
L 353.503636 335.628224 
L 377.025455 330.038885 
L 400.547273 320.840259 
L 424.069091 313.153234 
L 447.590909 298.770301 
L 471.112727 282.577861 
L 494.634545 258.942402 
L 518.156364 243.753048 
L 541.678182 212.440969 
" clip-path="url(#p4f77a58086)" style="fill: none; stroke: #1f77b4; stroke-width: 1.5; stroke-linecap: square"/>
   </g>
   <g id="line2d_21">
    <path d="M 71.241818 363.488243 
L 94.763636 361.474996 
L 118.285455 358.608191 
L 141.807273 356.312593 
L 165.329091 352.749819 
L 188.850909 348.4673 
L 212.372727 343.859559 
L 235.894545 338.223239 
L 259.416364 331.685599 
L 282.938182 323.988948 
L 306.46 314.890423 
L 329.981818 304.561454 
L 353.503636 291.382952 
L 377.025455 279.44426 
L 400.547273 259.064666 
L 424.069091 237.72361 
L 447.590909 214.989784 
L 471.112727 184.617317 
L 494.634545 146.175425 
L 518.156364 101.475695 
L 541.678182 43.686429 
" clip-path="url(#p4f77a58086)" style="fill: none; stroke: #ff7f0e; stroke-width: 1.5; stroke-linecap: square"/>
   </g>
   <g id="line2d_22">
    <path d="M 71.241818 373.472532 
L 94.763636 372.811526 
L 118.285455 371.962753 
L 141.807273 371.158672 
L 165.329091 370.015009 
L 188.850909 368.654913 
L 212.372727 367.146539 
L 235.894545 365.363825 
L 259.416364 363.270093 
L 282.938182 360.679656 
L 306.46 357.956966 
L 329.981818 354.533937 
L 353.503636 351.039059 
L 377.025455 346.407333 
L 400.547273 341.128285 
L 424.069091 333.704985 
L 447.590909 325.760996 
L 471.112727 316.173415 
L 494.634545 304.661866 
L 518.156364 289.449099 
L 541.678182 273.300882 
" clip-path="url(#p4f77a58086)" style="fill: none; stroke: #2ca02c; stroke-width: 1.5; stroke-linecap: square"/>
   </g>
   <g id="patch_3">
    <path d="M 47.72 390.04 
L 47.72 26.88 
" style="fill: none; stroke: #000000; stroke-width: 0.8; stroke-linejoin: miter; stroke-linecap: square"/>
   </g>
   <g id="patch_4">
    <path d="M 565.2 390.04 
L 565.2 26.88 
" style="fill: none; stroke: #000000; stroke-width: 0.8; stroke-linejoin: miter; stroke-linecap: square"/>
   </g>
   <g id="patch_5">
    <path d="M 47.72 390.04 
L 565.2 390.04 
" style="fill: none; stroke: #000000; stroke-width: 0.8; stroke-linejoin: miter; stroke-linecap: square"/>
   </g>
   <g id="patch_6">
    <path d="M 47.72 26.88 
L 565.2 26.88 
" style="fill: none; stroke: #000000; stroke-width: 0.8; stroke-linejoin: miter; stroke-linecap: square"/>
   </g>
   <g id="text_16">
    <!-- C++ implementations of Bron-Kerbosch Ver3-GP on a random graph of order 100 -->
    <g transform="translate(47.72 20.88)scale(0.12 -0.12)">
     <defs>
      <path id="DejaVuSans-43" d="M 4122 4306 
L 4122 3641 
Q 3803 3938 3442 4084 
Q 3081 4231 2675 4231 
Q 1875 4231 1450 3742 
Q 1025 3253 1025 2328 
Q 1025 1406 1450 917 
Q 1875 428 2675 428 
Q 3081 428 3442 575 
Q 3803 722 4122 1019 
L 4122 359 
Q 3791 134 3420 21 
Q 3050 -91 2638 -91 
Q 1578 -91 968 557 
Q 359 1206 359 2328 
Q 359 3453 968 4101 
Q 1578 4750 2638 4750 
Q 3056 4750 3426 4639 
Q 3797 4528 4122 4306 
z
" transform="scale(0.015625)"/>
      <path id="DejaVuSans-2b" d="M 2944 4013 
L 2944 2272 
L 4684 2272 
L 4684 1741 
L 2944 1741 
L 2944 0 
L 2419 0 
L 2419 1741 
L 678 1741 
L 678 2272 
L 2419 2272 
L 2419 4013 
L 2944 4013 
z
" transform="scale(0.015625)"/>
      <path id="DejaVuSans-6d" d="M 3328 2828 
Q 3544 3216 3844 3400 
Q 4144 3584 4550 3584 
Q 5097 3584 5394 3201 
Q 5691 2819 5691 2113 
L 5691 0 
L 5113 0 
L 5113 2094 
Q 5113 2597 4934 2840 
Q 4756 3084 4391 3084 
Q 3944 3084 3684 2787 
Q 3425 2491 3425 1978 
L 3425 0 
L 2847 0 
L 2847 2094 
Q 2847 2600 2669 2842 
Q 2491 3084 2119 3084 
Q 1678 3084 1418 2786 
Q 1159 2488 1159 1978 
L 1159 0 
L 581 0 
L 581 3500 
L 1159 3500 
L 1159 2956 
Q 1356 3278 1631 3431 
Q 1906 3584 2284 3584 
Q 2666 3584 2933 3390 
Q 3200 3197 3328 2828 
z
" transform="scale(0.015625)"/>
      <path id="DejaVuSans-6c" d="M 603 4863 
L 1178 4863 
L 1178 0 
L 603 0 
L 603 4863 
z
" transform="scale(0.015625)"/>
      <path id="DejaVuSans-61" d="M 2194 1759 
Q 1497 1759 1228 1600 
Q 959 1441 959 1056 
Q 959 750 1161 570 
Q 1363 391 1709 391 
Q 2188 391 2477 730 
Q 2766 1069 2766 1631 
L 2766 1759 
L 2194 1759 
z
M 3341 1997 
L 3341 0 
L 2766 0 
L 2766 531 
Q 2569 213 2275 61 
Q 1981 -91 1556 -91 
Q 1019 -91 701 211 
Q 384 513 384 1019 
Q 384 1609 779 1909 
Q 1175 2209 1959 2209 
L 2766 2209 
L 2766 2266 
Q 2766 2663 2505 2880 
Q 2244 3097 1772 3097 
Q 1472 3097 1187 3025 
Q 903 2953 641 2809 
L 641 3341 
Q 956 3463 1253 3523 
Q 1550 3584 1831 3584 
Q 2591 3584 2966 3190 
Q 3341 2797 3341 1997 
z
" transform="scale(0.015625)"/>
      <path id="DejaVuSans-66" d="M 2375 4863 
L 2375 4384 
L 1825 4384 
Q 1516 4384 1395 4259 
Q 1275 4134 1275 3809 
L 1275 3500 
L 2222 3500 
L 2222 3053 
L 1275 3053 
L 1275 0 
L 697 0 
L 697 3053 
L 147 3053 
L 147 3500 
L 697 3500 
L 697 3744 
Q 697 4328 969 4595 
Q 1241 4863 1831 4863 
L 2375 4863 
z
" transform="scale(0.015625)"/>
      <path id="DejaVuSans-42" d="M 1259 2228 
L 1259 519 
L 2272 519 
Q 2781 519 3026 730 
Q 3272 941 3272 1375 
Q 3272 1813 3026 2020 
Q 2781 2228 2272 2228 
L 1259 2228 
z
M 1259 4147 
L 1259 2741 
L 2194 2741 
Q 2656 2741 2882 2914 
Q 3109 3088 3109 3444 
Q 3109 3797 2882 3972 
Q 2656 4147 2194 4147 
L 1259 4147 
z
M 628 4666 
L 2241 4666 
Q 2963 4666 3353 4366 
Q 3744 4066 3744 3513 
Q 3744 3084 3544 2831 
Q 3344 2578 2956 2516 
Q 3422 2416 3680 2098 
Q 3938 1781 3938 1306 
Q 3938 681 3513 340 
Q 3088 0 2303 0 
L 628 0 
L 628 4666 
z
" transform="scale(0.015625)"/>
      <path id="DejaVuSans-72" d="M 2631 2963 
Q 2534 3019 2420 3045 
Q 2306 3072 2169 3072 
Q 1681 3072 1420 2755 
Q 1159 2438 1159 1844 
L 1159 0 
L 581 0 
L 581 3500 
L 1159 3500 
L 1159 2956 
Q 1341 3275 1631 3429 
Q 1922 3584 2338 3584 
Q 2397 3584 2469 3576 
Q 2541 3569 2628 3553 
L 2631 2963 
z
" transform="scale(0.015625)"/>
      <path id="DejaVuSans-2d" d="M 313 2009 
L 1997 2009 
L 1997 1497 
L 313 1497 
L 313 2009 
z
" transform="scale(0.015625)"/>
      <path id="DejaVuSans-4b" d="M 628 4666 
L 1259 4666 
L 1259 2694 
L 3353 4666 
L 4166 4666 
L 1850 2491 
L 4331 0 
L 3500 0 
L 1259 2247 
L 1259 0 
L 628 0 
L 628 4666 
z
" transform="scale(0.015625)"/>
      <path id="DejaVuSans-62" d="M 3116 1747 
Q 3116 2381 2855 2742 
Q 2594 3103 2138 3103 
Q 1681 3103 1420 2742 
Q 1159 2381 1159 1747 
Q 1159 1113 1420 752 
Q 1681 391 2138 391 
Q 2594 391 2855 752 
Q 3116 1113 3116 1747 
z
M 1159 2969 
Q 1341 3281 1617 3432 
Q 1894 3584 2278 3584 
Q 2916 3584 3314 3078 
Q 3713 2572 3713 1747 
Q 3713 922 3314 415 
Q 2916 -91 2278 -91 
Q 1894 -91 1617 61 
Q 1341 213 1159 525 
L 1159 0 
L 581 0 
L 581 4863 
L 1159 4863 
L 1159 2969 
z
" transform="scale(0.015625)"/>
      <path id="DejaVuSans-68" d="M 3513 2113 
L 3513 0 
L 2938 0 
L 2938 2094 
Q 2938 2591 2744 2837 
Q 2550 3084 2163 3084 
Q 1697 3084 1428 2787 
Q 1159 2491 1159 1978 
L 1159 0 
L 581 0 
L 581 4863 
L 1159 4863 
L 1159 2956 
Q 1366 3272 1645 3428 
Q 1925 3584 2291 3584 
Q 2894 3584 3203 3211 
Q 3513 2838 3513 2113 
z
" transform="scale(0.015625)"/>
      <path id="DejaVuSans-56" d="M 1831 0 
L 50 4666 
L 709 4666 
L 2188 738 
L 3669 4666 
L 4325 4666 
L 2547 0 
L 1831 0 
z
" transform="scale(0.015625)"/>
      <path id="DejaVuSans-47" d="M 3809 666 
L 3809 1919 
L 2778 1919 
L 2778 2438 
L 4434 2438 
L 4434 434 
Q 4069 175 3628 42 
Q 3188 -91 2688 -91 
Q 1594 -91 976 548 
Q 359 1188 359 2328 
Q 359 3472 976 4111 
Q 1594 4750 2688 4750 
Q 3144 4750 3555 4637 
Q 3966 4525 4313 4306 
L 4313 3634 
Q 3963 3931 3569 4081 
Q 3175 4231 2741 4231 
Q 1884 4231 1454 3753 
Q 1025 3275 1025 2328 
Q 1025 1384 1454 906 
Q 1884 428 2741 428 
Q 3075 428 3337 486 
Q 3600 544 3809 666 
z
" transform="scale(0.015625)"/>
      <path id="DejaVuSans-50" d="M 1259 4147 
L 1259 2394 
L 2053 2394 
Q 2494 2394 2734 2622 
Q 2975 2850 2975 3272 
Q 2975 3691 2734 3919 
Q 2494 4147 2053 4147 
L 1259 4147 
z
M 628 4666 
L 2053 4666 
Q 2838 4666 3239 4311 
Q 3641 3956 3641 3272 
Q 3641 2581 3239 2228 
Q 2838 1875 2053 1875 
L 1259 1875 
L 1259 0 
L 628 0 
L 628 4666 
z
" transform="scale(0.015625)"/>
     </defs>
     <use xlink:href="#DejaVuSans-43"/>
     <use xlink:href="#DejaVuSans-2b" x="69.824219"/>
     <use xlink:href="#DejaVuSans-2b" x="153.613281"/>
     <use xlink:href="#DejaVuSans-20" x="237.402344"/>
     <use xlink:href="#DejaVuSans-69" x="269.189453"/>
     <use xlink:href="#DejaVuSans-6d" x="296.972656"/>
     <use xlink:href="#DejaVuSans-70" x="394.384766"/>
     <use xlink:href="#DejaVuSans-6c" x="457.861328"/>
     <use xlink:href="#DejaVuSans-65" x="485.644531"/>
     <use xlink:href="#DejaVuSans-6d" x="547.167969"/>
     <use xlink:href="#DejaVuSans-65" x="644.580078"/>
     <use xlink:href="#DejaVuSans-6e" x="706.103516"/>
     <use xlink:href="#DejaVuSans-74" x="769.482422"/>
     <use xlink:href="#DejaVuSans-61" x="808.691406"/>
     <use xlink:href="#DejaVuSans-74" x="869.970703"/>
     <use xlink:href="#DejaVuSans-69" x="909.179688"/>
     <use xlink:href="#DejaVuSans-6f" x="936.962891"/>
     <use xlink:href="#DejaVuSans-6e" x="998.144531"/>
     <use xlink:href="#DejaVuSans-73" x="1061.523438"/>
     <use xlink:href="#DejaVuSans-20" x="1113.623047"/>
     <use xlink:href="#DejaVuSans-6f" x="1145.410156"/>
     <use xlink:href="#DejaVuSans-66" x="1206.591797"/>
     <use xlink:href="#DejaVuSans-20" x="1241.796875"/>
     <use xlink:href="#DejaVuSans-42" x="1273.583984"/>
     <use xlink:href="#DejaVuSans-72" x="1342.1875"/>
     <use xlink:href="#DejaVuSans-6f" x="1381.050781"/>
     <use xlink:href="#DejaVuSans-6e" x="1442.232422"/>
     <use xlink:href="#DejaVuSans-2d" x="1505.611328"/>
     <use xlink:href="#DejaVuSans-4b" x="1541.695312"/>
     <use xlink:href="#DejaVuSans-65" x="1602.271484"/>
     <use xlink:href="#DejaVuSans-72" x="1663.794922"/>
     <use xlink:href="#DejaVuSans-62" x="1704.908203"/>
     <use xlink:href="#DejaVuSans-6f" x="1768.384766"/>
     <use xlink:href="#DejaVuSans-73" x="1829.566406"/>
     <use xlink:href="#DejaVuSans-63" x="1881.666016"/>
     <use xlink:href="#DejaVuSans-68" x="1936.646484"/>
     <use xlink:href="#DejaVuSans-20" x="2000.025391"/>
     <use xlink:href="#DejaVuSans-56" x="2031.8125"/>
     <use xlink:href="#DejaVuSans-65" x="2092.470703"/>
     <use xlink:href="#DejaVuSans-72" x="2153.994141"/>
     <use xlink:href="#DejaVuSans-33" x="2195.107422"/>
     <use xlink:href="#DejaVuSans-2d" x="2258.730469"/>
     <use xlink:href="#DejaVuSans-47" x="2298.439453"/>
     <use xlink:href="#DejaVuSans-50" x="2375.929688"/>
     <use xlink:href="#DejaVuSans-20" x="2436.232422"/>
     <use xlink:href="#DejaVuSans-6f" x="2468.019531"/>
     <use xlink:href="#DejaVuSans-6e" x="2529.201172"/>
     <use xlink:href="#DejaVuSans-20" x="2592.580078"/>
     <use xlink:href="#DejaVuSans-61" x="2624.367188"/>
     <use xlink:href="#DejaVuSans-20" x="2685.646484"/>
     <use xlink:href="#DejaVuSans-72" x="2717.433594"/>
     <use xlink:href="#DejaVuSans-61" x="2758.546875"/>
     <use xlink:href="#DejaVuSans-6e" x="2819.826172"/>
     <use xlink:href="#DejaVuSans-64" x="2883.205078"/>
     <use xlink:href="#DejaVuSans-6f" x="2946.681641"/>
     <use xlink:href="#DejaVuSans-6d" x="3007.863281"/>
     <use xlink:href="#DejaVuSans-20" x="3105.275391"/>
     <use xlink:href="#DejaVuSans-67" x="3137.0625"/>
     <use xlink:href="#DejaVuSans-72" x="3200.539062"/>
     <use xlink:href="#DejaVuSans-61" x="3241.652344"/>
     <use xlink:href="#DejaVuSans-70" x="3302.931641"/>
     <use xlink:href="#DejaVuSans-68" x="3366.408203"/>
     <use xlink:href="#DejaVuSans-20" x="3429.787109"/>
     <use xlink:href="#DejaVuSans-6f" x="3461.574219"/>
     <use xlink:href="#DejaVuSans-66" x="3522.755859"/>
     <use xlink:href="#DejaVuSans-20" x="3557.960938"/>
     <use xlink:href="#DejaVuSans-6f" x="3589.748047"/>
     <use xlink:href="#DejaVuSans-72" x="3650.929688"/>
     <use xlink:href="#DejaVuSans-64" x="3690.292969"/>
     <use xlink:href="#DejaVuSans-65" x="3753.769531"/>
     <use xlink:href="#DejaVuSans-72" x="3815.292969"/>
     <use xlink:href="#DejaVuSans-20" x="3856.40625"/>
     <use xlink:href="#DejaVuSans-31" x="3888.193359"/>
     <use xlink:href="#DejaVuSans-30" x="3951.816406"/>
     <use xlink:href="#DejaVuSans-30" x="4015.439453"/>
    </g>
   </g>
   <g id="legend_1">
    <g id="patch_7">
     <path d="M 54.72 79.470625 
L 176.455938 79.470625 
Q 178.455938 79.470625 178.455938 77.470625 
L 178.455938 33.88 
Q 178.455938 31.88 176.455938 31.88 
L 54.72 31.88 
Q 52.72 31.88 52.72 33.88 
L 52.72 77.470625 
Q 52.72 79.470625 54.72 79.470625 
z
" style="fill: #ffffff; opacity: 0.8; stroke: #cccccc; stroke-linejoin: miter"/>
    </g>
    <g id="LineCollection_4">
     <path d="M 66.72 44.978437 
L 66.72 34.978437 
" style="fill: none; stroke: #1f77b4; stroke-width: 1.5"/>
    </g>
    <g id="line2d_23">
     <g>
      <use xlink:href="#md8547b9e7e" x="66.72" y="44.978437" style="fill: #1f77b4; stroke: #1f77b4"/>
     </g>
    </g>
    <g id="line2d_24">
     <g>
      <use xlink:href="#md8547b9e7e" x="66.72" y="34.978437" style="fill: #1f77b4; stroke: #1f77b4"/>
     </g>
    </g>
    <g id="line2d_25">
     <path d="M 56.72 39.978437 
L 76.72 39.978437 
" style="fill: none; stroke: #1f77b4; stroke-width: 1.5; stroke-linecap: square"/>
    </g>
    <g id="line2d_26"/>
    <g id="text_17">
     <!-- Ver3-GP@hashset -->
     <g transform="translate(84.72 43.478437)scale(0.1 -0.1)">
      <defs>
       <path id="DejaVuSans-40" d="M 2381 1678 
Q 2381 1231 2603 976 
Q 2825 722 3213 722 
Q 3597 722 3817 978 
Q 4038 1234 4038 1678 
Q 4038 2116 3813 2373 
Q 3588 2631 3206 2631 
Q 2828 2631 2604 2375 
Q 2381 2119 2381 1678 
z
M 4084 744 
Q 3897 503 3655 389 
Q 3413 275 3091 275 
Q 2553 275 2217 664 
Q 1881 1053 1881 1678 
Q 1881 2303 2218 2693 
Q 2556 3084 3091 3084 
Q 3413 3084 3656 2967 
Q 3900 2850 4084 2613 
L 4084 3022 
L 4531 3022 
L 4531 722 
Q 4988 791 5245 1139 
Q 5503 1488 5503 2041 
Q 5503 2375 5404 2669 
Q 5306 2963 5106 3213 
Q 4781 3622 4314 3839 
Q 3847 4056 3297 4056 
Q 2913 4056 2559 3954 
Q 2206 3853 1906 3653 
Q 1416 3334 1139 2817 
Q 863 2300 863 1697 
Q 863 1200 1042 765 
Q 1222 331 1563 0 
Q 1891 -325 2322 -495 
Q 2753 -666 3244 -666 
Q 3647 -666 4036 -530 
Q 4425 -394 4750 -141 
L 5031 -488 
Q 4641 -791 4180 -952 
Q 3719 -1113 3244 -1113 
Q 2666 -1113 2153 -908 
Q 1641 -703 1241 -313 
Q 841 78 631 592 
Q 422 1106 422 1697 
Q 422 2266 634 2781 
Q 847 3297 1241 3688 
Q 1644 4084 2172 4295 
Q 2700 4506 3291 4506 
Q 3953 4506 4520 4234 
Q 5088 3963 5472 3463 
Q 5706 3156 5829 2797 
Q 5953 2438 5953 2053 
Q 5953 1231 5456 756 
Q 4959 281 4084 263 
L 4084 744 
z
" transform="scale(0.015625)"/>
      </defs>
      <use xlink:href="#DejaVuSans-56"/>
      <use xlink:href="#DejaVuSans-65" x="60.658203"/>
      <use xlink:href="#DejaVuSans-72" x="122.181641"/>
      <use xlink:href="#DejaVuSans-33" x="163.294922"/>
      <use xlink:href="#DejaVuSans-2d" x="226.917969"/>
      <use xlink:href="#DejaVuSans-47" x="266.626953"/>
      <use xlink:href="#DejaVuSans-50" x="344.117188"/>
      <use xlink:href="#DejaVuSans-40" x="404.419922"/>
      <use xlink:href="#DejaVuSans-68" x="504.419922"/>
      <use xlink:href="#DejaVuSans-61" x="567.798828"/>
      <use xlink:href="#DejaVuSans-73" x="629.078125"/>
      <use xlink:href="#DejaVuSans-68" x="681.177734"/>
      <use xlink:href="#DejaVuSans-73" x="744.556641"/>
      <use xlink:href="#DejaVuSans-65" x="796.65625"/>
      <use xlink:href="#DejaVuSans-74" x="858.179688"/>
     </g>
    </g>
    <g id="LineCollection_5">
     <path d="M 66.72 59.656563 
L 66.72 49.656563 
" style="fill: none; stroke: #ff7f0e; stroke-width: 1.5"/>
    </g>
    <g id="line2d_27">
     <g>
      <use xlink:href="#m7f04267d81" x="66.72" y="59.656563" style="fill: #ff7f0e; stroke: #ff7f0e"/>
     </g>
    </g>
    <g id="line2d_28">
     <g>
      <use xlink:href="#m7f04267d81" x="66.72" y="49.656563" style="fill: #ff7f0e; stroke: #ff7f0e"/>
     </g>
    </g>
    <g id="line2d_29">
     <path d="M 56.72 54.656563 
L 76.72 54.656563 
" style="fill: none; stroke: #ff7f0e; stroke-width: 1.5; stroke-linecap: square"/>
    </g>
    <g id="line2d_30"/>
    <g id="text_18">
     <!-- Ver3-GP@std_set -->
     <g transform="translate(84.72 58.156563)scale(0.1 -0.1)">
      <defs>
       <path id="DejaVuSans-5f" d="M 3263 -1063 
L 3263 -1509 
L -63 -1509 
L -63 -1063 
L 3263 -1063 
z
" transform="scale(0.015625)"/>
      </defs>
      <use xlink:href="#DejaVuSans-56"/>
      <use xlink:href="#DejaVuSans-65" x="60.658203"/>
      <use xlink:href="#DejaVuSans-72" x="122.181641"/>
      <use xlink:href="#DejaVuSans-33" x="163.294922"/>
      <use xlink:href="#DejaVuSans-2d" x="226.917969"/>
      <use xlink:href="#DejaVuSans-47" x="266.626953"/>
      <use xlink:href="#DejaVuSans-50" x="344.117188"/>
      <use xlink:href="#DejaVuSans-40" x="404.419922"/>
      <use xlink:href="#DejaVuSans-73" x="504.419922"/>
      <use xlink:href="#DejaVuSans-74" x="556.519531"/>
      <use xlink:href="#DejaVuSans-64" x="595.728516"/>
      <use xlink:href="#DejaVuSans-5f" x="659.205078"/>
      <use xlink:href="#DejaVuSans-73" x="709.205078"/>
      <use xlink:href="#DejaVuSans-65" x="761.304688"/>
      <use xlink:href="#DejaVuSans-74" x="822.828125"/>
     </g>
    </g>
    <g id="LineCollection_6">
     <path d="M 66.72 74.612812 
L 66.72 64.612812 
" style="fill: none; stroke: #2ca02c; stroke-width: 1.5"/>
    </g>
    <g id="line2d_31">
     <g>
      <use xlink:href="#mf3fc7103a7" x="66.72" y="74.612812" style="fill: #2ca02c; stroke: #2ca02c"/>
     </g>
    </g>
    <g id="line2d_32">
     <g>
      <use xlink:href="#mf3fc7103a7" x="66.72" y="64.612812" style="fill: #2ca02c; stroke: #2ca02c"/>
     </g>
    </g>
    <g id="line2d_33">
     <path d="M 56.72 69.612812 
L 76.72 69.612812 
" style="fill: none; stroke: #2ca02c; stroke-width: 1.5; stroke-linecap: square"/>
    </g>
    <g id="line2d_34"/>
    <g id="text_19">
     <!-- Ver3-GP@ord_vec -->
     <g transform="translate(84.72 73.112812)scale(0.1 -0.1)">
      <defs>
       <path id="DejaVuSans-76" d="M 191 3500 
L 800 3500 
L 1894 563 
L 2988 3500 
L 3597 3500 
L 2284 0 
L 1503 0 
L 191 3500 
z
" transform="scale(0.015625)"/>
      </defs>
      <use xlink:href="#DejaVuSans-56"/>
      <use xlink:href="#DejaVuSans-65" x="60.658203"/>
      <use xlink:href="#DejaVuSans-72" x="122.181641"/>
      <use xlink:href="#DejaVuSans-33" x="163.294922"/>
      <use xlink:href="#DejaVuSans-2d" x="226.917969"/>
      <use xlink:href="#DejaVuSans-47" x="266.626953"/>
      <use xlink:href="#DejaVuSans-50" x="344.117188"/>
      <use xlink:href="#DejaVuSans-40" x="404.419922"/>
      <use xlink:href="#DejaVuSans-6f" x="504.419922"/>
      <use xlink:href="#DejaVuSans-72" x="565.601562"/>
      <use xlink:href="#DejaVuSans-64" x="604.964844"/>
      <use xlink:href="#DejaVuSans-5f" x="668.441406"/>
      <use xlink:href="#DejaVuSans-76" x="718.441406"/>
      <use xlink:href="#DejaVuSans-65" x="777.621094"/>
      <use xlink:href="#DejaVuSans-63" x="839.144531"/>
     </g>
    </g>
   </g>
  </g>
 </g>
 <defs>
  <clipPath id="p4f77a58086">
   <rect x="47.72" y="26.88" width="517.48" height="363.16"/>
  </clipPath>
 </defs>
</svg>
