<?xml version="1.0" encoding="utf-8" standalone="no"?>
<!DOCTYPE svg PUBLIC "-//W3C//DTD SVG 1.1//EN"
  "http://www.w3.org/Graphics/SVG/1.1/DTD/svg11.dtd">
<svg xmlns:xlink="http://www.w3.org/1999/xlink" width="576pt" height="432pt" viewBox="0 0 576 432" xmlns="http://www.w3.org/2000/svg" version="1.1">
 <metadata>
  <rdf:RDF xmlns:dc="http://purl.org/dc/elements/1.1/" xmlns:cc="http://creativecommons.org/ns#" xmlns:rdf="http://www.w3.org/1999/02/22-rdf-syntax-ns#">
   <cc:Work>
    <dc:type rdf:resource="http://purl.org/dc/dcmitype/StillImage"/>
    <dc:date>2025-11-25T00:35:17.341292</dc:date>
    <dc:format>image/svg+xml</dc:format>
    <dc:creator>
     <cc:Agent>
      <dc:title>Matplotlib v3.10.6, https://matplotlib.org/</dc:title>
     </cc:Agent>
    </dc:creator>
   </cc:Work>
  </rdf:RDF>
 </metadata>
 <defs>
  <style type="text/css">*{stroke-linejoin: round; stroke-linecap: butt}</style>
 </defs>
 <g id="figure_1">
  <g id="patch_1">
   <path d="M 0 432 
L 576 432 
L 576 0 
L 0 0 
z
" style="fill: #ffffff"/>
  </g>
  <g id="axes_1">
   <g id="patch_2">
    <path d="M 47.72 390.04 
L 565.2 390.04 
L 565.2 26.88 
L 47.72 26.88 
z
" style="fill: #ffffff"/>
   </g>
   <g id="matplotlib.axis_1">
    <g id="xtick_1">
     <g id="line2d_1">
      <defs>
       <path id="mc74f61fcfc" d="M 0 0 
L 0 3.5 
" style="stroke: #000000; stroke-width: 0.8"/>
      </defs>
      <g>
       <use xlink:href="#mc74f61fcfc" x="108.381531" y="390.04" style="stroke: #000000; stroke-width: 0.8"/>
      </g>
     </g>
     <g id="text_1">
      <!-- 25000 -->
      <g transform="translate(92.475281 404.638438) scale(0.1 -0.1)">
       <defs>
        <path id="DejaVuSans-32" d="M 1228 531 
L 3431 531 
L 3431 0 
L 469 0 
L 469 531 
Q 828 903 1448 1529 
Q 2069 2156 2228 2338 
Q 2531 2678 2651 2914 
Q 2772 3150 2772 3378 
Q 2772 3750 2511 3984 
Q 2250 4219 1831 4219 
Q 1534 4219 1204 4116 
Q 875 4013 500 3803 
L 500 4441 
Q 881 4594 1212 4672 
Q 1544 4750 1819 4750 
Q 2544 4750 2975 4387 
Q 3406 4025 3406 3419 
Q 3406 3131 3298 2873 
Q 3191 2616 2906 2266 
Q 2828 2175 2409 1742 
Q 1991 1309 1228 531 
z
" transform="scale(0.015625)"/>
        <path id="DejaVuSans-35" d="M 691 4666 
L 3169 4666 
L 3169 4134 
L 1269 4134 
L 1269 2991 
Q 1406 3038 1543 3061 
Q 1681 3084 1819 3084 
Q 2600 3084 3056 2656 
Q 3513 2228 3513 1497 
Q 3513 744 3044 326 
Q 2575 -91 1722 -91 
Q 1428 -91 1123 -41 
Q 819 9 494 109 
L 494 744 
Q 775 591 1075 516 
Q 1375 441 1709 441 
Q 2250 441 2565 725 
Q 2881 1009 2881 1497 
Q 2881 1984 2565 2268 
Q 2250 2553 1709 2553 
Q 1456 2553 1204 2497 
Q 953 2441 691 2322 
L 691 4666 
z
" transform="scale(0.015625)"/>
        <path id="DejaVuSans-30" d="M 2034 4250 
Q 1547 4250 1301 3770 
Q 1056 3291 1056 2328 
Q 1056 1369 1301 889 
Q 1547 409 2034 409 
Q 2525 409 2770 889 
Q 3016 1369 3016 2328 
Q 3016 3291 2770 3770 
Q 2525 4250 2034 4250 
z
M 2034 4750 
Q 2819 4750 3233 4129 
Q 3647 3509 3647 2328 
Q 3647 1150 3233 529 
Q 2819 -91 2034 -91 
Q 1250 -91 836 529 
Q 422 1150 422 2328 
Q 422 3509 836 4129 
Q 1250 4750 2034 4750 
z
" transform="scale(0.015625)"/>
       </defs>
       <use xlink:href="#DejaVuSans-32"/>
       <use xlink:href="#DejaVuSans-35" transform="translate(63.623047 0)"/>
       <use xlink:href="#DejaVuSans-30" transform="translate(127.246094 0)"/>
       <use xlink:href="#DejaVuSans-30" transform="translate(190.869141 0)"/>
       <use xlink:href="#DejaVuSans-30" transform="translate(254.492188 0)"/>
      </g>
     </g>
    </g>
    <g id="xtick_2">
     <g id="line2d_2">
      <g>
       <use xlink:href="#mc74f61fcfc" x="170.281053" y="390.04" style="stroke: #000000; stroke-width: 0.8"/>
      </g>
     </g>
     <g id="text_2">
      <!-- 50000 -->
      <g transform="translate(154.374803 404.638438) scale(0.1 -0.1)">
       <use xlink:href="#DejaVuSans-35"/>
       <use xlink:href="#DejaVuSans-30" transform="translate(63.623047 0)"/>
       <use xlink:href="#DejaVuSans-30" transform="translate(127.246094 0)"/>
       <use xlink:href="#DejaVuSans-30" transform="translate(190.869141 0)"/>
       <use xlink:href="#DejaVuSans-30" transform="translate(254.492188 0)"/>
      </g>
     </g>
    </g>
    <g id="xtick_3">
     <g id="line2d_3">
      <g>
       <use xlink:href="#mc74f61fcfc" x="232.180574" y="390.04" style="stroke: #000000; stroke-width: 0.8"/>
      </g>
     </g>
     <g id="text_3">
      <!-- 75000 -->
      <g transform="translate(216.274324 404.638438) scale(0.1 -0.1)">
       <defs>
        <path id="DejaVuSans-37" d="M 525 4666 
L 3525 4666 
L 3525 4397 
L 1831 0 
L 1172 0 
L 2766 4134 
L 525 4134 
L 525 4666 
z
" transform="scale(0.015625)"/>
       </defs>
       <use xlink:href="#DejaVuSans-37"/>
       <use xlink:href="#DejaVuSans-35" transform="translate(63.623047 0)"/>
       <use xlink:href="#DejaVuSans-30" transform="translate(127.246094 0)"/>
       <use xlink:href="#DejaVuSans-30" transform="translate(190.869141 0)"/>
       <use xlink:href="#DejaVuSans-30" transform="translate(254.492188 0)"/>
      </g>
     </g>
    </g>
    <g id="xtick_4">
     <g id="line2d_4">
      <g>
       <use xlink:href="#mc74f61fcfc" x="294.080096" y="390.04" style="stroke: #000000; stroke-width: 0.8"/>
      </g>
     </g>
     <g id="text_4">
      <!-- 100000 -->
      <g transform="translate(274.992596 404.638438) scale(0.1 -0.1)">
       <defs>
        <path id="DejaVuSans-31" d="M 794 531 
L 1825 531 
L 1825 4091 
L 703 3866 
L 703 4441 
L 1819 4666 
L 2450 4666 
L 2450 531 
L 3481 531 
L 3481 0 
L 794 0 
L 794 531 
z
" transform="scale(0.015625)"/>
       </defs>
       <use xlink:href="#DejaVuSans-31"/>
       <use xlink:href="#DejaVuSans-30" transform="translate(63.623047 0)"/>
       <use xlink:href="#DejaVuSans-30" transform="translate(127.246094 0)"/>
       <use xlink:href="#DejaVuSans-30" transform="translate(190.869141 0)"/>
       <use xlink:href="#DejaVuSans-30" transform="translate(254.492188 0)"/>
       <use xlink:href="#DejaVuSans-30" transform="translate(318.115234 0)"/>
      </g>
     </g>
    </g>
    <g id="xtick_5">
     <g id="line2d_5">
      <g>
       <use xlink:href="#mc74f61fcfc" x="355.979617" y="390.04" style="stroke: #000000; stroke-width: 0.8"/>
      </g>
     </g>
     <g id="text_5">
      <!-- 125000 -->
      <g transform="translate(336.892117 404.638438) scale(0.1 -0.1)">
       <use xlink:href="#DejaVuSans-31"/>
       <use xlink:href="#DejaVuSans-32" transform="translate(63.623047 0)"/>
       <use xlink:href="#DejaVuSans-35" transform="translate(127.246094 0)"/>
       <use xlink:href="#DejaVuSans-30" transform="translate(190.869141 0)"/>
       <use xlink:href="#DejaVuSans-30" transform="translate(254.492188 0)"/>
       <use xlink:href="#DejaVuSans-30" transform="translate(318.115234 0)"/>
      </g>
     </g>
    </g>
    <g id="xtick_6">
     <g id="line2d_6">
      <g>
       <use xlink:href="#mc74f61fcfc" x="417.879139" y="390.04" style="stroke: #000000; stroke-width: 0.8"/>
      </g>
     </g>
     <g id="text_6">
      <!-- 150000 -->
      <g transform="translate(398.791639 404.638438) scale(0.1 -0.1)">
       <use xlink:href="#DejaVuSans-31"/>
       <use xlink:href="#DejaVuSans-35" transform="translate(63.623047 0)"/>
       <use xlink:href="#DejaVuSans-30" transform="translate(127.246094 0)"/>
       <use xlink:href="#DejaVuSans-30" transform="translate(190.869141 0)"/>
       <use xlink:href="#DejaVuSans-30" transform="translate(254.492188 0)"/>
       <use xlink:href="#DejaVuSans-30" transform="translate(318.115234 0)"/>
      </g>
     </g>
    </g>
    <g id="xtick_7">
     <g id="line2d_7">
      <g>
       <use xlink:href="#mc74f61fcfc" x="479.77866" y="390.04" style="stroke: #000000; stroke-width: 0.8"/>
      </g>
     </g>
     <g id="text_7">
      <!-- 175000 -->
      <g transform="translate(460.69116 404.638438) scale(0.1 -0.1)">
       <use xlink:href="#DejaVuSans-31"/>
       <use xlink:href="#DejaVuSans-37" transform="translate(63.623047 0)"/>
       <use xlink:href="#DejaVuSans-35" transform="translate(127.246094 0)"/>
       <use xlink:href="#DejaVuSans-30" transform="translate(190.869141 0)"/>
       <use xlink:href="#DejaVuSans-30" transform="translate(254.492188 0)"/>
       <use xlink:href="#DejaVuSans-30" transform="translate(318.115234 0)"/>
      </g>
     </g>
    </g>
    <g id="xtick_8">
     <g id="line2d_8">
      <g>
       <use xlink:href="#mc74f61fcfc" x="541.678182" y="390.04" style="stroke: #000000; stroke-width: 0.8"/>
      </g>
     </g>
     <g id="text_8">
      <!-- 200000 -->
      <g transform="translate(522.590682 404.638438) scale(0.1 -0.1)">
       <use xlink:href="#DejaVuSans-32"/>
       <use xlink:href="#DejaVuSans-30" transform="translate(63.623047 0)"/>
       <use xlink:href="#DejaVuSans-30" transform="translate(127.246094 0)"/>
       <use xlink:href="#DejaVuSans-30" transform="translate(190.869141 0)"/>
       <use xlink:href="#DejaVuSans-30" transform="translate(254.492188 0)"/>
       <use xlink:href="#DejaVuSans-30" transform="translate(318.115234 0)"/>
      </g>
     </g>
    </g>
    <g id="text_9">
     <!-- Size (#edges) -->
     <g transform="translate(271.409219 418.316562) scale(0.1 -0.1)">
      <defs>
       <path id="DejaVuSans-53" d="M 3425 4513 
L 3425 3897 
Q 3066 4069 2747 4153 
Q 2428 4238 2131 4238 
Q 1616 4238 1336 4038 
Q 1056 3838 1056 3469 
Q 1056 3159 1242 3001 
Q 1428 2844 1947 2747 
L 2328 2669 
Q 3034 2534 3370 2195 
Q 3706 1856 3706 1288 
Q 3706 609 3251 259 
Q 2797 -91 1919 -91 
Q 1588 -91 1214 -16 
Q 841 59 441 206 
L 441 856 
Q 825 641 1194 531 
Q 1563 422 1919 422 
Q 2459 422 2753 634 
Q 3047 847 3047 1241 
Q 3047 1584 2836 1778 
Q 2625 1972 2144 2069 
L 1759 2144 
Q 1053 2284 737 2584 
Q 422 2884 422 3419 
Q 422 4038 858 4394 
Q 1294 4750 2059 4750 
Q 2388 4750 2728 4690 
Q 3069 4631 3425 4513 
z
" transform="scale(0.015625)"/>
       <path id="DejaVuSans-69" d="M 603 3500 
L 1178 3500 
L 1178 0 
L 603 0 
L 603 3500 
z
M 603 4863 
L 1178 4863 
L 1178 4134 
L 603 4134 
L 603 4863 
z
" transform="scale(0.015625)"/>
       <path id="DejaVuSans-7a" d="M 353 3500 
L 3084 3500 
L 3084 2975 
L 922 459 
L 3084 459 
L 3084 0 
L 275 0 
L 275 525 
L 2438 3041 
L 353 3041 
L 353 3500 
z
" transform="scale(0.015625)"/>
       <path id="DejaVuSans-65" d="M 3597 1894 
L 3597 1613 
L 953 1613 
Q 991 1019 1311 708 
Q 1631 397 2203 397 
Q 2534 397 2845 478 
Q 3156 559 3463 722 
L 3463 178 
Q 3153 47 2828 -22 
Q 2503 -91 2169 -91 
Q 1331 -91 842 396 
Q 353 884 353 1716 
Q 353 2575 817 3079 
Q 1281 3584 2069 3584 
Q 2775 3584 3186 3129 
Q 3597 2675 3597 1894 
z
M 3022 2063 
Q 3016 2534 2758 2815 
Q 2500 3097 2075 3097 
Q 1594 3097 1305 2825 
Q 1016 2553 972 2059 
L 3022 2063 
z
" transform="scale(0.015625)"/>
       <path id="DejaVuSans-20" transform="scale(0.015625)"/>
       <path id="DejaVuSans-28" d="M 1984 4856 
Q 1566 4138 1362 3434 
Q 1159 2731 1159 2009 
Q 1159 1288 1364 580 
Q 1569 -128 1984 -844 
L 1484 -844 
Q 1016 -109 783 600 
Q 550 1309 550 2009 
Q 550 2706 781 3412 
Q 1013 4119 1484 4856 
L 1984 4856 
z
" transform="scale(0.015625)"/>
       <path id="DejaVuSans-23" d="M 3272 2816 
L 2363 2816 
L 2100 1772 
L 3016 1772 
L 3272 2816 
z
M 2803 4594 
L 2478 3297 
L 3391 3297 
L 3719 4594 
L 4219 4594 
L 3897 3297 
L 4872 3297 
L 4872 2816 
L 3775 2816 
L 3519 1772 
L 4513 1772 
L 4513 1294 
L 3397 1294 
L 3072 0 
L 2572 0 
L 2894 1294 
L 1978 1294 
L 1656 0 
L 1153 0 
L 1478 1294 
L 494 1294 
L 494 1772 
L 1594 1772 
L 1856 2816 
L 850 2816 
L 850 3297 
L 1978 3297 
L 2297 4594 
L 2803 4594 
z
" transform="scale(0.015625)"/>
       <path id="DejaVuSans-64" d="M 2906 2969 
L 2906 4863 
L 3481 4863 
L 3481 0 
L 2906 0 
L 2906 525 
Q 2725 213 2448 61 
Q 2172 -91 1784 -91 
Q 1150 -91 751 415 
Q 353 922 353 1747 
Q 353 2572 751 3078 
Q 1150 3584 1784 3584 
Q 2172 3584 2448 3432 
Q 2725 3281 2906 2969 
z
M 947 1747 
Q 947 1113 1208 752 
Q 1469 391 1925 391 
Q 2381 391 2643 752 
Q 2906 1113 2906 1747 
Q 2906 2381 2643 2742 
Q 2381 3103 1925 3103 
Q 1469 3103 1208 2742 
Q 947 2381 947 1747 
z
" transform="scale(0.015625)"/>
       <path id="DejaVuSans-67" d="M 2906 1791 
Q 2906 2416 2648 2759 
Q 2391 3103 1925 3103 
Q 1463 3103 1205 2759 
Q 947 2416 947 1791 
Q 947 1169 1205 825 
Q 1463 481 1925 481 
Q 2391 481 2648 825 
Q 2906 1169 2906 1791 
z
M 3481 434 
Q 3481 -459 3084 -895 
Q 2688 -1331 1869 -1331 
Q 1566 -1331 1297 -1286 
Q 1028 -1241 775 -1147 
L 775 -588 
Q 1028 -725 1275 -790 
Q 1522 -856 1778 -856 
Q 2344 -856 2625 -561 
Q 2906 -266 2906 331 
L 2906 616 
Q 2728 306 2450 153 
Q 2172 0 1784 0 
Q 1141 0 747 490 
Q 353 981 353 1791 
Q 353 2603 747 3093 
Q 1141 3584 1784 3584 
Q 2172 3584 2450 3431 
Q 2728 3278 2906 2969 
L 2906 3500 
L 3481 3500 
L 3481 434 
z
" transform="scale(0.015625)"/>
       <path id="DejaVuSans-73" d="M 2834 3397 
L 2834 2853 
Q 2591 2978 2328 3040 
Q 2066 3103 1784 3103 
Q 1356 3103 1142 2972 
Q 928 2841 928 2578 
Q 928 2378 1081 2264 
Q 1234 2150 1697 2047 
L 1894 2003 
Q 2506 1872 2764 1633 
Q 3022 1394 3022 966 
Q 3022 478 2636 193 
Q 2250 -91 1575 -91 
Q 1294 -91 989 -36 
Q 684 19 347 128 
L 347 722 
Q 666 556 975 473 
Q 1284 391 1588 391 
Q 1994 391 2212 530 
Q 2431 669 2431 922 
Q 2431 1156 2273 1281 
Q 2116 1406 1581 1522 
L 1381 1569 
Q 847 1681 609 1914 
Q 372 2147 372 2553 
Q 372 3047 722 3315 
Q 1072 3584 1716 3584 
Q 2034 3584 2315 3537 
Q 2597 3491 2834 3397 
z
" transform="scale(0.015625)"/>
       <path id="DejaVuSans-29" d="M 513 4856 
L 1013 4856 
Q 1481 4119 1714 3412 
Q 1947 2706 1947 2009 
Q 1947 1309 1714 600 
Q 1481 -109 1013 -844 
L 513 -844 
Q 928 -128 1133 580 
Q 1338 1288 1338 2009 
Q 1338 2731 1133 3434 
Q 928 4138 513 4856 
z
" transform="scale(0.015625)"/>
      </defs>
      <use xlink:href="#DejaVuSans-53"/>
      <use xlink:href="#DejaVuSans-69" transform="translate(63.476562 0)"/>
      <use xlink:href="#DejaVuSans-7a" transform="translate(91.259766 0)"/>
      <use xlink:href="#DejaVuSans-65" transform="translate(143.75 0)"/>
      <use xlink:href="#DejaVuSans-20" transform="translate(205.273438 0)"/>
      <use xlink:href="#DejaVuSans-28" transform="translate(237.060547 0)"/>
      <use xlink:href="#DejaVuSans-23" transform="translate(276.074219 0)"/>
      <use xlink:href="#DejaVuSans-65" transform="translate(359.863281 0)"/>
      <use xlink:href="#DejaVuSans-64" transform="translate(421.386719 0)"/>
      <use xlink:href="#DejaVuSans-67" transform="translate(484.863281 0)"/>
      <use xlink:href="#DejaVuSans-65" transform="translate(548.339844 0)"/>
      <use xlink:href="#DejaVuSans-73" transform="translate(609.863281 0)"/>
      <use xlink:href="#DejaVuSans-29" transform="translate(661.962891 0)"/>
     </g>
    </g>
   </g>
   <g id="matplotlib.axis_2">
    <g id="ytick_1">
     <g id="line2d_9">
      <defs>
       <path id="m7eb1c47a8f" d="M 0 0 
L -3.5 0 
" style="stroke: #000000; stroke-width: 0.8"/>
      </defs>
      <g>
       <use xlink:href="#m7eb1c47a8f" x="47.72" y="374.997489" style="stroke: #000000; stroke-width: 0.8"/>
      </g>
     </g>
     <g id="text_10">
      <!-- 0.0 -->
      <g transform="translate(24.816875 378.796708) scale(0.1 -0.1)">
       <defs>
        <path id="DejaVuSans-2e" d="M 684 794 
L 1344 794 
L 1344 0 
L 684 0 
L 684 794 
z
" transform="scale(0.015625)"/>
       </defs>
       <use xlink:href="#DejaVuSans-30"/>
       <use xlink:href="#DejaVuSans-2e" transform="translate(63.623047 0)"/>
       <use xlink:href="#DejaVuSans-30" transform="translate(95.410156 0)"/>
      </g>
     </g>
    </g>
    <g id="ytick_2">
     <g id="line2d_10">
      <g>
       <use xlink:href="#m7eb1c47a8f" x="47.72" y="301.759381" style="stroke: #000000; stroke-width: 0.8"/>
      </g>
     </g>
     <g id="text_11">
      <!-- 0.1 -->
      <g transform="translate(24.816875 305.5586) scale(0.1 -0.1)">
       <use xlink:href="#DejaVuSans-30"/>
       <use xlink:href="#DejaVuSans-2e" transform="translate(63.623047 0)"/>
       <use xlink:href="#DejaVuSans-31" transform="translate(95.410156 0)"/>
      </g>
     </g>
    </g>
    <g id="ytick_3">
     <g id="line2d_11">
      <g>
       <use xlink:href="#m7eb1c47a8f" x="47.72" y="228.521273" style="stroke: #000000; stroke-width: 0.8"/>
      </g>
     </g>
     <g id="text_12">
      <!-- 0.2 -->
      <g transform="translate(24.816875 232.320492) scale(0.1 -0.1)">
       <use xlink:href="#DejaVuSans-30"/>
       <use xlink:href="#DejaVuSans-2e" transform="translate(63.623047 0)"/>
       <use xlink:href="#DejaVuSans-32" transform="translate(95.410156 0)"/>
      </g>
     </g>
    </g>
    <g id="ytick_4">
     <g id="line2d_12">
      <g>
       <use xlink:href="#m7eb1c47a8f" x="47.72" y="155.283164" style="stroke: #000000; stroke-width: 0.8"/>
      </g>
     </g>
     <g id="text_13">
      <!-- 0.3 -->
      <g transform="translate(24.816875 159.082383) scale(0.1 -0.1)">
       <defs>
        <path id="DejaVuSans-33" d="M 2597 2516 
Q 3050 2419 3304 2112 
Q 3559 1806 3559 1356 
Q 3559 666 3084 287 
Q 2609 -91 1734 -91 
Q 1441 -91 1130 -33 
Q 819 25 488 141 
L 488 750 
Q 750 597 1062 519 
Q 1375 441 1716 441 
Q 2309 441 2620 675 
Q 2931 909 2931 1356 
Q 2931 1769 2642 2001 
Q 2353 2234 1838 2234 
L 1294 2234 
L 1294 2753 
L 1863 2753 
Q 2328 2753 2575 2939 
Q 2822 3125 2822 3475 
Q 2822 3834 2567 4026 
Q 2313 4219 1838 4219 
Q 1578 4219 1281 4162 
Q 984 4106 628 3988 
L 628 4550 
Q 988 4650 1302 4700 
Q 1616 4750 1894 4750 
Q 2613 4750 3031 4423 
Q 3450 4097 3450 3541 
Q 3450 3153 3228 2886 
Q 3006 2619 2597 2516 
z
" transform="scale(0.015625)"/>
       </defs>
       <use xlink:href="#DejaVuSans-30"/>
       <use xlink:href="#DejaVuSans-2e" transform="translate(63.623047 0)"/>
       <use xlink:href="#DejaVuSans-33" transform="translate(95.410156 0)"/>
      </g>
     </g>
    </g>
    <g id="ytick_5">
     <g id="line2d_13">
      <g>
       <use xlink:href="#m7eb1c47a8f" x="47.72" y="82.045056" style="stroke: #000000; stroke-width: 0.8"/>
      </g>
     </g>
     <g id="text_14">
      <!-- 0.4 -->
      <g transform="translate(24.816875 85.844275) scale(0.1 -0.1)">
       <defs>
        <path id="DejaVuSans-34" d="M 2419 4116 
L 825 1625 
L 2419 1625 
L 2419 4116 
z
M 2253 4666 
L 3047 4666 
L 3047 1625 
L 3713 1625 
L 3713 1100 
L 3047 1100 
L 3047 0 
L 2419 0 
L 2419 1100 
L 313 1100 
L 313 1709 
L 2253 4666 
z
" transform="scale(0.015625)"/>
       </defs>
       <use xlink:href="#DejaVuSans-30"/>
       <use xlink:href="#DejaVuSans-2e" transform="translate(63.623047 0)"/>
       <use xlink:href="#DejaVuSans-34" transform="translate(95.410156 0)"/>
      </g>
     </g>
    </g>
    <g id="text_15">
     <!-- Seconds spent -->
     <g transform="translate(18.737187 245.040469) rotate(-90) scale(0.1 -0.1)">
      <defs>
       <path id="DejaVuSans-63" d="M 3122 3366 
L 3122 2828 
Q 2878 2963 2633 3030 
Q 2388 3097 2138 3097 
Q 1578 3097 1268 2742 
Q 959 2388 959 1747 
Q 959 1106 1268 751 
Q 1578 397 2138 397 
Q 2388 397 2633 464 
Q 2878 531 3122 666 
L 3122 134 
Q 2881 22 2623 -34 
Q 2366 -91 2075 -91 
Q 1284 -91 818 406 
Q 353 903 353 1747 
Q 353 2603 823 3093 
Q 1294 3584 2113 3584 
Q 2378 3584 2631 3529 
Q 2884 3475 3122 3366 
z
" transform="scale(0.015625)"/>
       <path id="DejaVuSans-6f" d="M 1959 3097 
Q 1497 3097 1228 2736 
Q 959 2375 959 1747 
Q 959 1119 1226 758 
Q 1494 397 1959 397 
Q 2419 397 2687 759 
Q 2956 1122 2956 1747 
Q 2956 2369 2687 2733 
Q 2419 3097 1959 3097 
z
M 1959 3584 
Q 2709 3584 3137 3096 
Q 3566 2609 3566 1747 
Q 3566 888 3137 398 
Q 2709 -91 1959 -91 
Q 1206 -91 779 398 
Q 353 888 353 1747 
Q 353 2609 779 3096 
Q 1206 3584 1959 3584 
z
" transform="scale(0.015625)"/>
       <path id="DejaVuSans-6e" d="M 3513 2113 
L 3513 0 
L 2938 0 
L 2938 2094 
Q 2938 2591 2744 2837 
Q 2550 3084 2163 3084 
Q 1697 3084 1428 2787 
Q 1159 2491 1159 1978 
L 1159 0 
L 581 0 
L 581 3500 
L 1159 3500 
L 1159 2956 
Q 1366 3272 1645 3428 
Q 1925 3584 2291 3584 
Q 2894 3584 3203 3211 
Q 3513 2838 3513 2113 
z
" transform="scale(0.015625)"/>
       <path id="DejaVuSans-70" d="M 1159 525 
L 1159 -1331 
L 581 -1331 
L 581 3500 
L 1159 3500 
L 1159 2969 
Q 1341 3281 1617 3432 
Q 1894 3584 2278 3584 
Q 2916 3584 3314 3078 
Q 3713 2572 3713 1747 
Q 3713 922 3314 415 
Q 2916 -91 2278 -91 
Q 1894 -91 1617 61 
Q 1341 213 1159 525 
z
M 3116 1747 
Q 3116 2381 2855 2742 
Q 2594 3103 2138 3103 
Q 1681 3103 1420 2742 
Q 1159 2381 1159 1747 
Q 1159 1113 1420 752 
Q 1681 391 2138 391 
Q 2594 391 2855 752 
Q 3116 1113 3116 1747 
z
" transform="scale(0.015625)"/>
       <path id="DejaVuSans-74" d="M 1172 4494 
L 1172 3500 
L 2356 3500 
L 2356 3053 
L 1172 3053 
L 1172 1153 
Q 1172 725 1289 603 
Q 1406 481 1766 481 
L 2356 481 
L 2356 0 
L 1766 0 
Q 1100 0 847 248 
Q 594 497 594 1153 
L 594 3053 
L 172 3053 
L 172 3500 
L 594 3500 
L 594 4494 
L 1172 4494 
z
" transform="scale(0.015625)"/>
      </defs>
      <use xlink:href="#DejaVuSans-53"/>
      <use xlink:href="#DejaVuSans-65" transform="translate(63.476562 0)"/>
      <use xlink:href="#DejaVuSans-63" transform="translate(125 0)"/>
      <use xlink:href="#DejaVuSans-6f" transform="translate(179.980469 0)"/>
      <use xlink:href="#DejaVuSans-6e" transform="translate(241.162109 0)"/>
      <use xlink:href="#DejaVuSans-64" transform="translate(304.541016 0)"/>
      <use xlink:href="#DejaVuSans-73" transform="translate(368.017578 0)"/>
      <use xlink:href="#DejaVuSans-20" transform="translate(420.117188 0)"/>
      <use xlink:href="#DejaVuSans-73" transform="translate(451.904297 0)"/>
      <use xlink:href="#DejaVuSans-70" transform="translate(504.003906 0)"/>
      <use xlink:href="#DejaVuSans-65" transform="translate(567.480469 0)"/>
      <use xlink:href="#DejaVuSans-6e" transform="translate(629.003906 0)"/>
      <use xlink:href="#DejaVuSans-74" transform="translate(692.382812 0)"/>
     </g>
    </g>
   </g>
   <g id="LineCollection_1">
    <path d="M 71.241818 359.369429 
L 71.241818 358.086078 
" clip-path="url(#pd2621ff3a7)" style="fill: none; stroke: #000099; stroke-width: 1.5"/>
    <path d="M 96.001627 348.49335 
L 96.001627 348.151475 
" clip-path="url(#pd2621ff3a7)" style="fill: none; stroke: #000099; stroke-width: 1.5"/>
    <path d="M 120.761435 338.403043 
L 120.761435 337.600207 
" clip-path="url(#pd2621ff3a7)" style="fill: none; stroke: #000099; stroke-width: 1.5"/>
    <path d="M 145.521244 328.251875 
L 145.521244 327.285205 
" clip-path="url(#pd2621ff3a7)" style="fill: none; stroke: #000099; stroke-width: 1.5"/>
    <path d="M 170.281053 315.397269 
L 170.281053 314.961209 
" clip-path="url(#pd2621ff3a7)" style="fill: none; stroke: #000099; stroke-width: 1.5"/>
    <path d="M 195.040861 303.777018 
L 195.040861 301.243785 
" clip-path="url(#pd2621ff3a7)" style="fill: none; stroke: #000099; stroke-width: 1.5"/>
    <path d="M 219.80067 290.268761 
L 219.80067 289.820544 
" clip-path="url(#pd2621ff3a7)" style="fill: none; stroke: #000099; stroke-width: 1.5"/>
    <path d="M 244.560478 275.92625 
L 244.560478 274.741916 
" clip-path="url(#pd2621ff3a7)" style="fill: none; stroke: #000099; stroke-width: 1.5"/>
    <path d="M 269.320287 262.077802 
L 269.320287 258.777327 
" clip-path="url(#pd2621ff3a7)" style="fill: none; stroke: #000099; stroke-width: 1.5"/>
    <path d="M 294.080096 246.570365 
L 294.080096 244.206312 
" clip-path="url(#pd2621ff3a7)" style="fill: none; stroke: #000099; stroke-width: 1.5"/>
    <path d="M 355.979617 204.297988 
L 355.979617 201.860917 
" clip-path="url(#pd2621ff3a7)" style="fill: none; stroke: #000099; stroke-width: 1.5"/>
    <path d="M 417.879139 160.986875 
L 417.879139 158.372201 
" clip-path="url(#pd2621ff3a7)" style="fill: none; stroke: #000099; stroke-width: 1.5"/>
    <path d="M 479.77866 107.323922 
L 479.77866 105.149629 
" clip-path="url(#pd2621ff3a7)" style="fill: none; stroke: #000099; stroke-width: 1.5"/>
    <path d="M 541.678182 44.589403 
L 541.678182 43.387273 
" clip-path="url(#pd2621ff3a7)" style="fill: none; stroke: #000099; stroke-width: 1.5"/>
   </g>
   <g id="line2d_14">
    <defs>
     <path id="ma91f551ce1" d="M 3 0 
L -3 -0 
" style="stroke: #000099"/>
    </defs>
    <g clip-path="url(#pd2621ff3a7)">
     <use xlink:href="#ma91f551ce1" x="71.241818" y="359.369429" style="fill: #000099; stroke: #000099"/>
     <use xlink:href="#ma91f551ce1" x="96.001627" y="348.49335" style="fill: #000099; stroke: #000099"/>
     <use xlink:href="#ma91f551ce1" x="120.761435" y="338.403043" style="fill: #000099; stroke: #000099"/>
     <use xlink:href="#ma91f551ce1" x="145.521244" y="328.251875" style="fill: #000099; stroke: #000099"/>
     <use xlink:href="#ma91f551ce1" x="170.281053" y="315.397269" style="fill: #000099; stroke: #000099"/>
     <use xlink:href="#ma91f551ce1" x="195.040861" y="303.777018" style="fill: #000099; stroke: #000099"/>
     <use xlink:href="#ma91f551ce1" x="219.80067" y="290.268761" style="fill: #000099; stroke: #000099"/>
     <use xlink:href="#ma91f551ce1" x="244.560478" y="275.92625" style="fill: #000099; stroke: #000099"/>
     <use xlink:href="#ma91f551ce1" x="269.320287" y="262.077802" style="fill: #000099; stroke: #000099"/>
     <use xlink:href="#ma91f551ce1" x="294.080096" y="246.570365" style="fill: #000099; stroke: #000099"/>
     <use xlink:href="#ma91f551ce1" x="355.979617" y="204.297988" style="fill: #000099; stroke: #000099"/>
     <use xlink:href="#ma91f551ce1" x="417.879139" y="160.986875" style="fill: #000099; stroke: #000099"/>
     <use xlink:href="#ma91f551ce1" x="479.77866" y="107.323922" style="fill: #000099; stroke: #000099"/>
     <use xlink:href="#ma91f551ce1" x="541.678182" y="44.589403" style="fill: #000099; stroke: #000099"/>
    </g>
   </g>
   <g id="line2d_15">
    <g clip-path="url(#pd2621ff3a7)">
     <use xlink:href="#ma91f551ce1" x="71.241818" y="358.086078" style="fill: #000099; stroke: #000099"/>
     <use xlink:href="#ma91f551ce1" x="96.001627" y="348.151475" style="fill: #000099; stroke: #000099"/>
     <use xlink:href="#ma91f551ce1" x="120.761435" y="337.600207" style="fill: #000099; stroke: #000099"/>
     <use xlink:href="#ma91f551ce1" x="145.521244" y="327.285205" style="fill: #000099; stroke: #000099"/>
     <use xlink:href="#ma91f551ce1" x="170.281053" y="314.961209" style="fill: #000099; stroke: #000099"/>
     <use xlink:href="#ma91f551ce1" x="195.040861" y="301.243785" style="fill: #000099; stroke: #000099"/>
     <use xlink:href="#ma91f551ce1" x="219.80067" y="289.820544" style="fill: #000099; stroke: #000099"/>
     <use xlink:href="#ma91f551ce1" x="244.560478" y="274.741916" style="fill: #000099; stroke: #000099"/>
     <use xlink:href="#ma91f551ce1" x="269.320287" y="258.777327" style="fill: #000099; stroke: #000099"/>
     <use xlink:href="#ma91f551ce1" x="294.080096" y="244.206312" style="fill: #000099; stroke: #000099"/>
     <use xlink:href="#ma91f551ce1" x="355.979617" y="201.860917" style="fill: #000099; stroke: #000099"/>
     <use xlink:href="#ma91f551ce1" x="417.879139" y="158.372201" style="fill: #000099; stroke: #000099"/>
     <use xlink:href="#ma91f551ce1" x="479.77866" y="105.149629" style="fill: #000099; stroke: #000099"/>
     <use xlink:href="#ma91f551ce1" x="541.678182" y="43.387273" style="fill: #000099; stroke: #000099"/>
    </g>
   </g>
   <g id="LineCollection_2">
    <path d="M 71.241818 369.09816 
L 71.241818 365.858838 
" clip-path="url(#pd2621ff3a7)" style="fill: none; stroke: #009933; stroke-width: 1.5"/>
    <path d="M 96.001627 362.914666 
L 96.001627 362.529434 
" clip-path="url(#pd2621ff3a7)" style="fill: none; stroke: #009933; stroke-width: 1.5"/>
    <path d="M 120.761435 356.728243 
L 120.761435 356.39208 
" clip-path="url(#pd2621ff3a7)" style="fill: none; stroke: #009933; stroke-width: 1.5"/>
    <path d="M 145.521244 349.99107 
L 145.521244 345.533798 
" clip-path="url(#pd2621ff3a7)" style="fill: none; stroke: #009933; stroke-width: 1.5"/>
    <path d="M 170.281053 342.818129 
L 170.281053 340.125897 
" clip-path="url(#pd2621ff3a7)" style="fill: none; stroke: #009933; stroke-width: 1.5"/>
    <path d="M 195.040861 334.42138 
L 195.040861 333.108953 
" clip-path="url(#pd2621ff3a7)" style="fill: none; stroke: #009933; stroke-width: 1.5"/>
    <path d="M 219.80067 325.027861 
L 219.80067 324.240551 
" clip-path="url(#pd2621ff3a7)" style="fill: none; stroke: #009933; stroke-width: 1.5"/>
    <path d="M 244.560478 314.844102 
L 244.560478 305.716436 
" clip-path="url(#pd2621ff3a7)" style="fill: none; stroke: #009933; stroke-width: 1.5"/>
    <path d="M 269.320287 303.062287 
L 269.320287 302.348215 
" clip-path="url(#pd2621ff3a7)" style="fill: none; stroke: #009933; stroke-width: 1.5"/>
    <path d="M 294.080096 289.121413 
L 294.080096 286.151608 
" clip-path="url(#pd2621ff3a7)" style="fill: none; stroke: #009933; stroke-width: 1.5"/>
    <path d="M 355.979617 254.953638 
L 355.979617 251.04785 
" clip-path="url(#pd2621ff3a7)" style="fill: none; stroke: #009933; stroke-width: 1.5"/>
    <path d="M 417.879139 213.188142 
L 417.879139 210.799115 
" clip-path="url(#pd2621ff3a7)" style="fill: none; stroke: #009933; stroke-width: 1.5"/>
    <path d="M 479.77866 161.968339 
L 479.77866 160.242117 
" clip-path="url(#pd2621ff3a7)" style="fill: none; stroke: #009933; stroke-width: 1.5"/>
    <path d="M 541.678182 99.547499 
L 541.678182 97.767081 
" clip-path="url(#pd2621ff3a7)" style="fill: none; stroke: #009933; stroke-width: 1.5"/>
   </g>
   <g id="line2d_16">
    <defs>
     <path id="m567d63a80a" d="M 3 0 
L -3 -0 
" style="stroke: #009933"/>
    </defs>
    <g clip-path="url(#pd2621ff3a7)">
     <use xlink:href="#m567d63a80a" x="71.241818" y="369.09816" style="fill: #009933; stroke: #009933"/>
     <use xlink:href="#m567d63a80a" x="96.001627" y="362.914666" style="fill: #009933; stroke: #009933"/>
     <use xlink:href="#m567d63a80a" x="120.761435" y="356.728243" style="fill: #009933; stroke: #009933"/>
     <use xlink:href="#m567d63a80a" x="145.521244" y="349.99107" style="fill: #009933; stroke: #009933"/>
     <use xlink:href="#m567d63a80a" x="170.281053" y="342.818129" style="fill: #009933; stroke: #009933"/>
     <use xlink:href="#m567d63a80a" x="195.040861" y="334.42138" style="fill: #009933; stroke: #009933"/>
     <use xlink:href="#m567d63a80a" x="219.80067" y="325.027861" style="fill: #009933; stroke: #009933"/>
     <use xlink:href="#m567d63a80a" x="244.560478" y="314.844102" style="fill: #009933; stroke: #009933"/>
     <use xlink:href="#m567d63a80a" x="269.320287" y="303.062287" style="fill: #009933; stroke: #009933"/>
     <use xlink:href="#m567d63a80a" x="294.080096" y="289.121413" style="fill: #009933; stroke: #009933"/>
     <use xlink:href="#m567d63a80a" x="355.979617" y="254.953638" style="fill: #009933; stroke: #009933"/>
     <use xlink:href="#m567d63a80a" x="417.879139" y="213.188142" style="fill: #009933; stroke: #009933"/>
     <use xlink:href="#m567d63a80a" x="479.77866" y="161.968339" style="fill: #009933; stroke: #009933"/>
     <use xlink:href="#m567d63a80a" x="541.678182" y="99.547499" style="fill: #009933; stroke: #009933"/>
    </g>
   </g>
   <g id="line2d_17">
    <g clip-path="url(#pd2621ff3a7)">
     <use xlink:href="#m567d63a80a" x="71.241818" y="365.858838" style="fill: #009933; stroke: #009933"/>
     <use xlink:href="#m567d63a80a" x="96.001627" y="362.529434" style="fill: #009933; stroke: #009933"/>
     <use xlink:href="#m567d63a80a" x="120.761435" y="356.39208" style="fill: #009933; stroke: #009933"/>
     <use xlink:href="#m567d63a80a" x="145.521244" y="345.533798" style="fill: #009933; stroke: #009933"/>
     <use xlink:href="#m567d63a80a" x="170.281053" y="340.125897" style="fill: #009933; stroke: #009933"/>
     <use xlink:href="#m567d63a80a" x="195.040861" y="333.108953" style="fill: #009933; stroke: #009933"/>
     <use xlink:href="#m567d63a80a" x="219.80067" y="324.240551" style="fill: #009933; stroke: #009933"/>
     <use xlink:href="#m567d63a80a" x="244.560478" y="305.716436" style="fill: #009933; stroke: #009933"/>
     <use xlink:href="#m567d63a80a" x="269.320287" y="302.348215" style="fill: #009933; stroke: #009933"/>
     <use xlink:href="#m567d63a80a" x="294.080096" y="286.151608" style="fill: #009933; stroke: #009933"/>
     <use xlink:href="#m567d63a80a" x="355.979617" y="251.04785" style="fill: #009933; stroke: #009933"/>
     <use xlink:href="#m567d63a80a" x="417.879139" y="210.799115" style="fill: #009933; stroke: #009933"/>
     <use xlink:href="#m567d63a80a" x="479.77866" y="160.242117" style="fill: #009933; stroke: #009933"/>
     <use xlink:href="#m567d63a80a" x="541.678182" y="97.767081" style="fill: #009933; stroke: #009933"/>
    </g>
   </g>
   <g id="LineCollection_3">
    <path d="M 71.241818 371.327528 
L 71.241818 370.204788 
" clip-path="url(#pd2621ff3a7)" style="fill: none; stroke: #0000cc; stroke-width: 1.5"/>
    <path d="M 96.001627 367.724213 
L 96.001627 366.907608 
" clip-path="url(#pd2621ff3a7)" style="fill: none; stroke: #0000cc; stroke-width: 1.5"/>
    <path d="M 120.761435 363.237646 
L 120.761435 362.777711 
" clip-path="url(#pd2621ff3a7)" style="fill: none; stroke: #0000cc; stroke-width: 1.5"/>
    <path d="M 145.521244 357.336852 
L 145.521244 356.586161 
" clip-path="url(#pd2621ff3a7)" style="fill: none; stroke: #0000cc; stroke-width: 1.5"/>
    <path d="M 170.281053 349.590457 
L 170.281053 348.824387 
" clip-path="url(#pd2621ff3a7)" style="fill: none; stroke: #0000cc; stroke-width: 1.5"/>
    <path d="M 195.040861 343.288318 
L 195.040861 340.296541 
" clip-path="url(#pd2621ff3a7)" style="fill: none; stroke: #0000cc; stroke-width: 1.5"/>
    <path d="M 219.80067 334.477774 
L 219.80067 334.216314 
" clip-path="url(#pd2621ff3a7)" style="fill: none; stroke: #0000cc; stroke-width: 1.5"/>
    <path d="M 244.560478 323.636336 
L 244.560478 320.234426 
" clip-path="url(#pd2621ff3a7)" style="fill: none; stroke: #0000cc; stroke-width: 1.5"/>
    <path d="M 269.320287 315.71417 
L 269.320287 313.695728 
" clip-path="url(#pd2621ff3a7)" style="fill: none; stroke: #0000cc; stroke-width: 1.5"/>
    <path d="M 294.080096 307.493925 
L 294.080096 305.965446 
" clip-path="url(#pd2621ff3a7)" style="fill: none; stroke: #0000cc; stroke-width: 1.5"/>
    <path d="M 355.979617 279.400519 
L 355.979617 278.058064 
" clip-path="url(#pd2621ff3a7)" style="fill: none; stroke: #0000cc; stroke-width: 1.5"/>
    <path d="M 417.879139 245.792283 
L 417.879139 243.327821 
" clip-path="url(#pd2621ff3a7)" style="fill: none; stroke: #0000cc; stroke-width: 1.5"/>
    <path d="M 479.77866 208.260682 
L 479.77866 204.437653 
" clip-path="url(#pd2621ff3a7)" style="fill: none; stroke: #0000cc; stroke-width: 1.5"/>
    <path d="M 541.678182 150.278072 
L 541.678182 146.945006 
" clip-path="url(#pd2621ff3a7)" style="fill: none; stroke: #0000cc; stroke-width: 1.5"/>
   </g>
   <g id="line2d_18">
    <defs>
     <path id="m71e13e22db" d="M 3 0 
L -3 -0 
" style="stroke: #0000cc"/>
    </defs>
    <g clip-path="url(#pd2621ff3a7)">
     <use xlink:href="#m71e13e22db" x="71.241818" y="371.327528" style="fill: #0000cc; stroke: #0000cc"/>
     <use xlink:href="#m71e13e22db" x="96.001627" y="367.724213" style="fill: #0000cc; stroke: #0000cc"/>
     <use xlink:href="#m71e13e22db" x="120.761435" y="363.237646" style="fill: #0000cc; stroke: #0000cc"/>
     <use xlink:href="#m71e13e22db" x="145.521244" y="357.336852" style="fill: #0000cc; stroke: #0000cc"/>
     <use xlink:href="#m71e13e22db" x="170.281053" y="349.590457" style="fill: #0000cc; stroke: #0000cc"/>
     <use xlink:href="#m71e13e22db" x="195.040861" y="343.288318" style="fill: #0000cc; stroke: #0000cc"/>
     <use xlink:href="#m71e13e22db" x="219.80067" y="334.477774" style="fill: #0000cc; stroke: #0000cc"/>
     <use xlink:href="#m71e13e22db" x="244.560478" y="323.636336" style="fill: #0000cc; stroke: #0000cc"/>
     <use xlink:href="#m71e13e22db" x="269.320287" y="315.71417" style="fill: #0000cc; stroke: #0000cc"/>
     <use xlink:href="#m71e13e22db" x="294.080096" y="307.493925" style="fill: #0000cc; stroke: #0000cc"/>
     <use xlink:href="#m71e13e22db" x="355.979617" y="279.400519" style="fill: #0000cc; stroke: #0000cc"/>
     <use xlink:href="#m71e13e22db" x="417.879139" y="245.792283" style="fill: #0000cc; stroke: #0000cc"/>
     <use xlink:href="#m71e13e22db" x="479.77866" y="208.260682" style="fill: #0000cc; stroke: #0000cc"/>
     <use xlink:href="#m71e13e22db" x="541.678182" y="150.278072" style="fill: #0000cc; stroke: #0000cc"/>
    </g>
   </g>
   <g id="line2d_19">
    <g clip-path="url(#pd2621ff3a7)">
     <use xlink:href="#m71e13e22db" x="71.241818" y="370.204788" style="fill: #0000cc; stroke: #0000cc"/>
     <use xlink:href="#m71e13e22db" x="96.001627" y="366.907608" style="fill: #0000cc; stroke: #0000cc"/>
     <use xlink:href="#m71e13e22db" x="120.761435" y="362.777711" style="fill: #0000cc; stroke: #0000cc"/>
     <use xlink:href="#m71e13e22db" x="145.521244" y="356.586161" style="fill: #0000cc; stroke: #0000cc"/>
     <use xlink:href="#m71e13e22db" x="170.281053" y="348.824387" style="fill: #0000cc; stroke: #0000cc"/>
     <use xlink:href="#m71e13e22db" x="195.040861" y="340.296541" style="fill: #0000cc; stroke: #0000cc"/>
     <use xlink:href="#m71e13e22db" x="219.80067" y="334.216314" style="fill: #0000cc; stroke: #0000cc"/>
     <use xlink:href="#m71e13e22db" x="244.560478" y="320.234426" style="fill: #0000cc; stroke: #0000cc"/>
     <use xlink:href="#m71e13e22db" x="269.320287" y="313.695728" style="fill: #0000cc; stroke: #0000cc"/>
     <use xlink:href="#m71e13e22db" x="294.080096" y="305.965446" style="fill: #0000cc; stroke: #0000cc"/>
     <use xlink:href="#m71e13e22db" x="355.979617" y="278.058064" style="fill: #0000cc; stroke: #0000cc"/>
     <use xlink:href="#m71e13e22db" x="417.879139" y="243.327821" style="fill: #0000cc; stroke: #0000cc"/>
     <use xlink:href="#m71e13e22db" x="479.77866" y="204.437653" style="fill: #0000cc; stroke: #0000cc"/>
     <use xlink:href="#m71e13e22db" x="541.678182" y="146.945006" style="fill: #0000cc; stroke: #0000cc"/>
    </g>
   </g>
   <g id="LineCollection_4">
    <path d="M 71.241818 373.532727 
L 71.241818 373.532727 
" clip-path="url(#pd2621ff3a7)" style="fill: none; stroke: #666600; stroke-width: 1.5"/>
    <path d="M 96.001627 371.335584 
L 96.001627 370.603203 
" clip-path="url(#pd2621ff3a7)" style="fill: none; stroke: #666600; stroke-width: 1.5"/>
    <path d="M 120.761435 368.40606 
L 120.761435 368.40606 
" clip-path="url(#pd2621ff3a7)" style="fill: none; stroke: #666600; stroke-width: 1.5"/>
    <path d="M 145.521244 365.476535 
L 145.521244 364.744154 
" clip-path="url(#pd2621ff3a7)" style="fill: none; stroke: #666600; stroke-width: 1.5"/>
    <path d="M 170.281053 363.279392 
L 170.281053 362.547011 
" clip-path="url(#pd2621ff3a7)" style="fill: none; stroke: #666600; stroke-width: 1.5"/>
    <path d="M 195.040861 358.885106 
L 195.040861 331.787006 
" clip-path="url(#pd2621ff3a7)" style="fill: none; stroke: #666600; stroke-width: 1.5"/>
    <path d="M 219.80067 355.2232 
L 219.80067 353.758438 
" clip-path="url(#pd2621ff3a7)" style="fill: none; stroke: #666600; stroke-width: 1.5"/>
    <path d="M 244.560478 350.828914 
L 244.560478 350.096533 
" clip-path="url(#pd2621ff3a7)" style="fill: none; stroke: #666600; stroke-width: 1.5"/>
    <path d="M 269.320287 346.434627 
L 269.320287 345.702246 
" clip-path="url(#pd2621ff3a7)" style="fill: none; stroke: #666600; stroke-width: 1.5"/>
    <path d="M 294.080096 340.575579 
L 294.080096 339.843197 
" clip-path="url(#pd2621ff3a7)" style="fill: none; stroke: #666600; stroke-width: 1.5"/>
    <path d="M 355.979617 325.195576 
L 355.979617 320.801289 
" clip-path="url(#pd2621ff3a7)" style="fill: none; stroke: #666600; stroke-width: 1.5"/>
    <path d="M 417.879139 304.688905 
L 417.879139 303.956524 
" clip-path="url(#pd2621ff3a7)" style="fill: none; stroke: #666600; stroke-width: 1.5"/>
    <path d="M 479.77866 287.111759 
L 479.77866 285.646997 
" clip-path="url(#pd2621ff3a7)" style="fill: none; stroke: #666600; stroke-width: 1.5"/>
    <path d="M 541.678182 268.069851 
L 541.678182 264.407946 
" clip-path="url(#pd2621ff3a7)" style="fill: none; stroke: #666600; stroke-width: 1.5"/>
   </g>
   <g id="line2d_20">
    <defs>
     <path id="ma612d83d5a" d="M 3 0 
L -3 -0 
" style="stroke: #666600"/>
    </defs>
    <g clip-path="url(#pd2621ff3a7)">
     <use xlink:href="#ma612d83d5a" x="71.241818" y="373.532727" style="fill: #666600; stroke: #666600"/>
     <use xlink:href="#ma612d83d5a" x="96.001627" y="371.335584" style="fill: #666600; stroke: #666600"/>
     <use xlink:href="#ma612d83d5a" x="120.761435" y="368.40606" style="fill: #666600; stroke: #666600"/>
     <use xlink:href="#ma612d83d5a" x="145.521244" y="365.476535" style="fill: #666600; stroke: #666600"/>
     <use xlink:href="#ma612d83d5a" x="170.281053" y="363.279392" style="fill: #666600; stroke: #666600"/>
     <use xlink:href="#ma612d83d5a" x="195.040861" y="358.885106" style="fill: #666600; stroke: #666600"/>
     <use xlink:href="#ma612d83d5a" x="219.80067" y="355.2232" style="fill: #666600; stroke: #666600"/>
     <use xlink:href="#ma612d83d5a" x="244.560478" y="350.828914" style="fill: #666600; stroke: #666600"/>
     <use xlink:href="#ma612d83d5a" x="269.320287" y="346.434627" style="fill: #666600; stroke: #666600"/>
     <use xlink:href="#ma612d83d5a" x="294.080096" y="340.575579" style="fill: #666600; stroke: #666600"/>
     <use xlink:href="#ma612d83d5a" x="355.979617" y="325.195576" style="fill: #666600; stroke: #666600"/>
     <use xlink:href="#ma612d83d5a" x="417.879139" y="304.688905" style="fill: #666600; stroke: #666600"/>
     <use xlink:href="#ma612d83d5a" x="479.77866" y="287.111759" style="fill: #666600; stroke: #666600"/>
     <use xlink:href="#ma612d83d5a" x="541.678182" y="268.069851" style="fill: #666600; stroke: #666600"/>
    </g>
   </g>
   <g id="line2d_21">
    <g clip-path="url(#pd2621ff3a7)">
     <use xlink:href="#ma612d83d5a" x="71.241818" y="373.532727" style="fill: #666600; stroke: #666600"/>
     <use xlink:href="#ma612d83d5a" x="96.001627" y="370.603203" style="fill: #666600; stroke: #666600"/>
     <use xlink:href="#ma612d83d5a" x="120.761435" y="368.40606" style="fill: #666600; stroke: #666600"/>
     <use xlink:href="#ma612d83d5a" x="145.521244" y="364.744154" style="fill: #666600; stroke: #666600"/>
     <use xlink:href="#ma612d83d5a" x="170.281053" y="362.547011" style="fill: #666600; stroke: #666600"/>
     <use xlink:href="#ma612d83d5a" x="195.040861" y="331.787006" style="fill: #666600; stroke: #666600"/>
     <use xlink:href="#ma612d83d5a" x="219.80067" y="353.758438" style="fill: #666600; stroke: #666600"/>
     <use xlink:href="#ma612d83d5a" x="244.560478" y="350.096533" style="fill: #666600; stroke: #666600"/>
     <use xlink:href="#ma612d83d5a" x="269.320287" y="345.702246" style="fill: #666600; stroke: #666600"/>
     <use xlink:href="#ma612d83d5a" x="294.080096" y="339.843197" style="fill: #666600; stroke: #666600"/>
     <use xlink:href="#ma612d83d5a" x="355.979617" y="320.801289" style="fill: #666600; stroke: #666600"/>
     <use xlink:href="#ma612d83d5a" x="417.879139" y="303.956524" style="fill: #666600; stroke: #666600"/>
     <use xlink:href="#ma612d83d5a" x="479.77866" y="285.646997" style="fill: #666600; stroke: #666600"/>
     <use xlink:href="#ma612d83d5a" x="541.678182" y="264.407946" style="fill: #666600; stroke: #666600"/>
    </g>
   </g>
   <g id="LineCollection_5">
    <path d="M 71.241818 370.303586 
L 71.241818 370.039343 
" clip-path="url(#pd2621ff3a7)" style="fill: none; stroke: #990000; stroke-width: 1.5"/>
    <path d="M 96.001627 367.326091 
L 96.001627 366.712209 
" clip-path="url(#pd2621ff3a7)" style="fill: none; stroke: #990000; stroke-width: 1.5"/>
    <path d="M 120.761435 364.59592 
L 120.761435 364.44732 
" clip-path="url(#pd2621ff3a7)" style="fill: none; stroke: #990000; stroke-width: 1.5"/>
    <path d="M 145.521244 360.959355 
L 145.521244 360.534062 
" clip-path="url(#pd2621ff3a7)" style="fill: none; stroke: #990000; stroke-width: 1.5"/>
    <path d="M 170.281053 356.478575 
L 170.281053 346.55276 
" clip-path="url(#pd2621ff3a7)" style="fill: none; stroke: #990000; stroke-width: 1.5"/>
    <path d="M 195.040861 350.515162 
L 195.040861 347.59611 
" clip-path="url(#pd2621ff3a7)" style="fill: none; stroke: #990000; stroke-width: 1.5"/>
    <path d="M 219.80067 342.358121 
L 219.80067 339.111768 
" clip-path="url(#pd2621ff3a7)" style="fill: none; stroke: #990000; stroke-width: 1.5"/>
    <path d="M 244.560478 338.845108 
L 244.560478 336.661588 
" clip-path="url(#pd2621ff3a7)" style="fill: none; stroke: #990000; stroke-width: 1.5"/>
    <path d="M 269.320287 332.802525 
L 269.320287 330.10912 
" clip-path="url(#pd2621ff3a7)" style="fill: none; stroke: #990000; stroke-width: 1.5"/>
    <path d="M 294.080096 330.724394 
L 294.080096 327.947132 
" clip-path="url(#pd2621ff3a7)" style="fill: none; stroke: #990000; stroke-width: 1.5"/>
    <path d="M 355.979617 314.098171 
L 355.979617 309.613949 
" clip-path="url(#pd2621ff3a7)" style="fill: none; stroke: #990000; stroke-width: 1.5"/>
    <path d="M 417.879139 289.681685 
L 417.879139 287.907858 
" clip-path="url(#pd2621ff3a7)" style="fill: none; stroke: #990000; stroke-width: 1.5"/>
    <path d="M 479.77866 267.749068 
L 479.77866 266.834324 
" clip-path="url(#pd2621ff3a7)" style="fill: none; stroke: #990000; stroke-width: 1.5"/>
    <path d="M 541.678182 240.358016 
L 541.678182 238.275856 
" clip-path="url(#pd2621ff3a7)" style="fill: none; stroke: #990000; stroke-width: 1.5"/>
   </g>
   <g id="line2d_22">
    <defs>
     <path id="md9b07cde7a" d="M 3 0 
L -3 -0 
" style="stroke: #990000"/>
    </defs>
    <g clip-path="url(#pd2621ff3a7)">
     <use xlink:href="#md9b07cde7a" x="71.241818" y="370.303586" style="fill: #990000; stroke: #990000"/>
     <use xlink:href="#md9b07cde7a" x="96.001627" y="367.326091" style="fill: #990000; stroke: #990000"/>
     <use xlink:href="#md9b07cde7a" x="120.761435" y="364.59592" style="fill: #990000; stroke: #990000"/>
     <use xlink:href="#md9b07cde7a" x="145.521244" y="360.959355" style="fill: #990000; stroke: #990000"/>
     <use xlink:href="#md9b07cde7a" x="170.281053" y="356.478575" style="fill: #990000; stroke: #990000"/>
     <use xlink:href="#md9b07cde7a" x="195.040861" y="350.515162" style="fill: #990000; stroke: #990000"/>
     <use xlink:href="#md9b07cde7a" x="219.80067" y="342.358121" style="fill: #990000; stroke: #990000"/>
     <use xlink:href="#md9b07cde7a" x="244.560478" y="338.845108" style="fill: #990000; stroke: #990000"/>
     <use xlink:href="#md9b07cde7a" x="269.320287" y="332.802525" style="fill: #990000; stroke: #990000"/>
     <use xlink:href="#md9b07cde7a" x="294.080096" y="330.724394" style="fill: #990000; stroke: #990000"/>
     <use xlink:href="#md9b07cde7a" x="355.979617" y="314.098171" style="fill: #990000; stroke: #990000"/>
     <use xlink:href="#md9b07cde7a" x="417.879139" y="289.681685" style="fill: #990000; stroke: #990000"/>
     <use xlink:href="#md9b07cde7a" x="479.77866" y="267.749068" style="fill: #990000; stroke: #990000"/>
     <use xlink:href="#md9b07cde7a" x="541.678182" y="240.358016" style="fill: #990000; stroke: #990000"/>
    </g>
   </g>
   <g id="line2d_23">
    <g clip-path="url(#pd2621ff3a7)">
     <use xlink:href="#md9b07cde7a" x="71.241818" y="370.039343" style="fill: #990000; stroke: #990000"/>
     <use xlink:href="#md9b07cde7a" x="96.001627" y="366.712209" style="fill: #990000; stroke: #990000"/>
     <use xlink:href="#md9b07cde7a" x="120.761435" y="364.44732" style="fill: #990000; stroke: #990000"/>
     <use xlink:href="#md9b07cde7a" x="145.521244" y="360.534062" style="fill: #990000; stroke: #990000"/>
     <use xlink:href="#md9b07cde7a" x="170.281053" y="346.55276" style="fill: #990000; stroke: #990000"/>
     <use xlink:href="#md9b07cde7a" x="195.040861" y="347.59611" style="fill: #990000; stroke: #990000"/>
     <use xlink:href="#md9b07cde7a" x="219.80067" y="339.111768" style="fill: #990000; stroke: #990000"/>
     <use xlink:href="#md9b07cde7a" x="244.560478" y="336.661588" style="fill: #990000; stroke: #990000"/>
     <use xlink:href="#md9b07cde7a" x="269.320287" y="330.10912" style="fill: #990000; stroke: #990000"/>
     <use xlink:href="#md9b07cde7a" x="294.080096" y="327.947132" style="fill: #990000; stroke: #990000"/>
     <use xlink:href="#md9b07cde7a" x="355.979617" y="309.613949" style="fill: #990000; stroke: #990000"/>
     <use xlink:href="#md9b07cde7a" x="417.879139" y="287.907858" style="fill: #990000; stroke: #990000"/>
     <use xlink:href="#md9b07cde7a" x="479.77866" y="266.834324" style="fill: #990000; stroke: #990000"/>
     <use xlink:href="#md9b07cde7a" x="541.678182" y="238.275856" style="fill: #990000; stroke: #990000"/>
    </g>
   </g>
   <g id="LineCollection_6">
    <path d="M 71.241818 372.562981 
L 71.241818 372.50278 
" clip-path="url(#pd2621ff3a7)" style="fill: none; stroke: #cc0033; stroke-width: 1.5"/>
    <path d="M 96.001627 370.187503 
L 96.001627 370.155791 
" clip-path="url(#pd2621ff3a7)" style="fill: none; stroke: #cc0033; stroke-width: 1.5"/>
    <path d="M 120.761435 367.502008 
L 120.761435 366.948182 
" clip-path="url(#pd2621ff3a7)" style="fill: none; stroke: #cc0033; stroke-width: 1.5"/>
    <path d="M 145.521244 364.586766 
L 145.521244 364.467754 
" clip-path="url(#pd2621ff3a7)" style="fill: none; stroke: #cc0033; stroke-width: 1.5"/>
    <path d="M 170.281053 361.630802 
L 170.281053 361.454298 
" clip-path="url(#pd2621ff3a7)" style="fill: none; stroke: #cc0033; stroke-width: 1.5"/>
    <path d="M 195.040861 358.329741 
L 195.040861 358.167519 
" clip-path="url(#pd2621ff3a7)" style="fill: none; stroke: #cc0033; stroke-width: 1.5"/>
    <path d="M 219.80067 354.211269 
L 219.80067 354.169597 
" clip-path="url(#pd2621ff3a7)" style="fill: none; stroke: #cc0033; stroke-width: 1.5"/>
    <path d="M 244.560478 350.514136 
L 244.560478 349.873449 
" clip-path="url(#pd2621ff3a7)" style="fill: none; stroke: #cc0033; stroke-width: 1.5"/>
    <path d="M 269.320287 346.271526 
L 269.320287 345.534458 
" clip-path="url(#pd2621ff3a7)" style="fill: none; stroke: #cc0033; stroke-width: 1.5"/>
    <path d="M 294.080096 341.564879 
L 294.080096 340.855421 
" clip-path="url(#pd2621ff3a7)" style="fill: none; stroke: #cc0033; stroke-width: 1.5"/>
    <path d="M 355.979617 325.816342 
L 355.979617 325.047415 
" clip-path="url(#pd2621ff3a7)" style="fill: none; stroke: #cc0033; stroke-width: 1.5"/>
    <path d="M 417.879139 312.894357 
L 417.879139 311.125433 
" clip-path="url(#pd2621ff3a7)" style="fill: none; stroke: #cc0033; stroke-width: 1.5"/>
    <path d="M 479.77866 295.983238 
L 479.77866 295.13257 
" clip-path="url(#pd2621ff3a7)" style="fill: none; stroke: #cc0033; stroke-width: 1.5"/>
    <path d="M 541.678182 274.016493 
L 541.678182 272.241428 
" clip-path="url(#pd2621ff3a7)" style="fill: none; stroke: #cc0033; stroke-width: 1.5"/>
   </g>
   <g id="line2d_24">
    <defs>
     <path id="md3fe7ae338" d="M 3 0 
L -3 -0 
" style="stroke: #cc0033"/>
    </defs>
    <g clip-path="url(#pd2621ff3a7)">
     <use xlink:href="#md3fe7ae338" x="71.241818" y="372.562981" style="fill: #cc0033; stroke: #cc0033"/>
     <use xlink:href="#md3fe7ae338" x="96.001627" y="370.187503" style="fill: #cc0033; stroke: #cc0033"/>
     <use xlink:href="#md3fe7ae338" x="120.761435" y="367.502008" style="fill: #cc0033; stroke: #cc0033"/>
     <use xlink:href="#md3fe7ae338" x="145.521244" y="364.586766" style="fill: #cc0033; stroke: #cc0033"/>
     <use xlink:href="#md3fe7ae338" x="170.281053" y="361.630802" style="fill: #cc0033; stroke: #cc0033"/>
     <use xlink:href="#md3fe7ae338" x="195.040861" y="358.329741" style="fill: #cc0033; stroke: #cc0033"/>
     <use xlink:href="#md3fe7ae338" x="219.80067" y="354.211269" style="fill: #cc0033; stroke: #cc0033"/>
     <use xlink:href="#md3fe7ae338" x="244.560478" y="350.514136" style="fill: #cc0033; stroke: #cc0033"/>
     <use xlink:href="#md3fe7ae338" x="269.320287" y="346.271526" style="fill: #cc0033; stroke: #cc0033"/>
     <use xlink:href="#md3fe7ae338" x="294.080096" y="341.564879" style="fill: #cc0033; stroke: #cc0033"/>
     <use xlink:href="#md3fe7ae338" x="355.979617" y="325.816342" style="fill: #cc0033; stroke: #cc0033"/>
     <use xlink:href="#md3fe7ae338" x="417.879139" y="312.894357" style="fill: #cc0033; stroke: #cc0033"/>
     <use xlink:href="#md3fe7ae338" x="479.77866" y="295.983238" style="fill: #cc0033; stroke: #cc0033"/>
     <use xlink:href="#md3fe7ae338" x="541.678182" y="274.016493" style="fill: #cc0033; stroke: #cc0033"/>
    </g>
   </g>
   <g id="line2d_25">
    <g clip-path="url(#pd2621ff3a7)">
     <use xlink:href="#md3fe7ae338" x="71.241818" y="372.50278" style="fill: #cc0033; stroke: #cc0033"/>
     <use xlink:href="#md3fe7ae338" x="96.001627" y="370.155791" style="fill: #cc0033; stroke: #cc0033"/>
     <use xlink:href="#md3fe7ae338" x="120.761435" y="366.948182" style="fill: #cc0033; stroke: #cc0033"/>
     <use xlink:href="#md3fe7ae338" x="145.521244" y="364.467754" style="fill: #cc0033; stroke: #cc0033"/>
     <use xlink:href="#md3fe7ae338" x="170.281053" y="361.454298" style="fill: #cc0033; stroke: #cc0033"/>
     <use xlink:href="#md3fe7ae338" x="195.040861" y="358.167519" style="fill: #cc0033; stroke: #cc0033"/>
     <use xlink:href="#md3fe7ae338" x="219.80067" y="354.169597" style="fill: #cc0033; stroke: #cc0033"/>
     <use xlink:href="#md3fe7ae338" x="244.560478" y="349.873449" style="fill: #cc0033; stroke: #cc0033"/>
     <use xlink:href="#md3fe7ae338" x="269.320287" y="345.534458" style="fill: #cc0033; stroke: #cc0033"/>
     <use xlink:href="#md3fe7ae338" x="294.080096" y="340.855421" style="fill: #cc0033; stroke: #cc0033"/>
     <use xlink:href="#md3fe7ae338" x="355.979617" y="325.047415" style="fill: #cc0033; stroke: #cc0033"/>
     <use xlink:href="#md3fe7ae338" x="417.879139" y="311.125433" style="fill: #cc0033; stroke: #cc0033"/>
     <use xlink:href="#md3fe7ae338" x="479.77866" y="295.13257" style="fill: #cc0033; stroke: #cc0033"/>
     <use xlink:href="#md3fe7ae338" x="541.678182" y="272.241428" style="fill: #cc0033; stroke: #cc0033"/>
    </g>
   </g>
   <g id="line2d_26">
    <path d="M 71.241818 358.868993 
L 96.001627 348.345629 
L 120.761435 338.062559 
L 145.521244 327.782395 
L 170.281053 315.187051 
L 195.040861 302.689481 
L 219.80067 290.029297 
L 244.560478 275.506424 
L 269.320287 260.833462 
L 294.080096 245.579136 
L 355.979617 202.690119 
L 417.879139 159.743048 
L 479.77866 106.515568 
L 541.678182 44.152464 
" clip-path="url(#pd2621ff3a7)" style="fill: none; stroke: #000099; stroke-width: 1.5; stroke-linecap: square"/>
   </g>
   <g id="line2d_27">
    <path d="M 71.241818 368.013503 
L 96.001627 362.690558 
L 120.761435 356.523909 
L 145.521244 348.46552 
L 170.281053 341.805979 
L 195.040861 333.782744 
L 219.80067 324.656543 
L 244.560478 310.614601 
L 269.320287 302.678519 
L 294.080096 288.003067 
L 355.979617 253.45006 
L 417.879139 211.651607 
L 479.77866 161.296746 
L 541.678182 98.777767 
" clip-path="url(#pd2621ff3a7)" style="fill: none; stroke: #009933; stroke-width: 1.5; stroke-linecap: square"/>
   </g>
   <g id="line2d_28">
    <path d="M 71.241818 370.766524 
L 96.001627 367.316277 
L 120.761435 363.007679 
L 145.521244 356.961141 
L 170.281053 349.207422 
L 195.040861 341.792796 
L 219.80067 334.346677 
L 244.560478 321.935015 
L 269.320287 314.704949 
L 294.080096 306.729319 
L 355.979617 278.728926 
L 417.879139 244.559686 
L 479.77866 206.349168 
L 541.678182 148.611173 
" clip-path="url(#pd2621ff3a7)" style="fill: none; stroke: #0000cc; stroke-width: 1.5; stroke-linecap: square"/>
   </g>
   <g id="line2d_29">
    <path d="M 71.241818 373.532727 
L 96.001627 371.091457 
L 120.761435 368.40606 
L 145.521244 365.232408 
L 170.281053 362.791138 
L 195.040861 349.608279 
L 219.80067 354.490819 
L 244.560478 350.34066 
L 269.320287 345.946373 
L 294.080096 340.331451 
L 355.979617 323.486687 
L 417.879139 304.444778 
L 479.77866 286.379378 
L 541.678182 266.116835 
" clip-path="url(#pd2621ff3a7)" style="fill: none; stroke: #666600; stroke-width: 1.5; stroke-linecap: square"/>
   </g>
   <g id="line2d_30">
    <path d="M 71.241818 370.188917 
L 96.001627 367.069391 
L 120.761435 364.508035 
L 145.521244 360.707123 
L 170.281053 350.539037 
L 195.040861 349.014366 
L 219.80067 340.693272 
L 244.560478 337.632285 
L 269.320287 331.629837 
L 294.080096 329.762851 
L 355.979617 311.55117 
L 417.879139 288.922938 
L 479.77866 267.43268 
L 541.678182 239.415441 
" clip-path="url(#pd2621ff3a7)" style="fill: none; stroke: #990000; stroke-width: 1.5; stroke-linecap: square"/>
   </g>
   <g id="line2d_31">
    <path d="M 71.241818 372.526484 
L 96.001627 370.175151 
L 120.761435 367.30285 
L 145.521244 364.530079 
L 170.281053 361.568891 
L 195.040861 358.272591 
L 219.80067 354.183976 
L 244.560478 350.227653 
L 269.320287 345.991952 
L 294.080096 341.250077 
L 355.979617 325.481471 
L 417.879139 311.772763 
L 479.77866 295.547031 
L 541.678182 273.304253 
" clip-path="url(#pd2621ff3a7)" style="fill: none; stroke: #cc0033; stroke-width: 1.5; stroke-linecap: square"/>
   </g>
   <g id="patch_3">
    <path d="M 47.72 390.04 
L 47.72 26.88 
" style="fill: none; stroke: #000000; stroke-width: 0.8; stroke-linejoin: miter; stroke-linecap: square"/>
   </g>
   <g id="patch_4">
    <path d="M 565.2 390.04 
L 565.2 26.88 
" style="fill: none; stroke: #000000; stroke-width: 0.8; stroke-linejoin: miter; stroke-linecap: square"/>
   </g>
   <g id="patch_5">
    <path d="M 47.72 390.04 
L 565.2 390.04 
" style="fill: none; stroke: #000000; stroke-width: 0.8; stroke-linejoin: miter; stroke-linecap: square"/>
   </g>
   <g id="patch_6">
    <path d="M 47.72 26.88 
L 565.2 26.88 
" style="fill: none; stroke: #000000; stroke-width: 0.8; stroke-linejoin: miter; stroke-linecap: square"/>
   </g>
   <g id="text_16">
    <!-- Bron-Kerbosch Ver3-GP on a random graph of order 10k -->
    <g transform="translate(47.72 20.88) scale(0.12 -0.12)">
     <defs>
      <path id="DejaVuSans-42" d="M 1259 2228 
L 1259 519 
L 2272 519 
Q 2781 519 3026 730 
Q 3272 941 3272 1375 
Q 3272 1813 3026 2020 
Q 2781 2228 2272 2228 
L 1259 2228 
z
M 1259 4147 
L 1259 2741 
L 2194 2741 
Q 2656 2741 2882 2914 
Q 3109 3088 3109 3444 
Q 3109 3797 2882 3972 
Q 2656 4147 2194 4147 
L 1259 4147 
z
M 628 4666 
L 2241 4666 
Q 2963 4666 3353 4366 
Q 3744 4066 3744 3513 
Q 3744 3084 3544 2831 
Q 3344 2578 2956 2516 
Q 3422 2416 3680 2098 
Q 3938 1781 3938 1306 
Q 3938 681 3513 340 
Q 3088 0 2303 0 
L 628 0 
L 628 4666 
z
" transform="scale(0.015625)"/>
      <path id="DejaVuSans-72" d="M 2631 2963 
Q 2534 3019 2420 3045 
Q 2306 3072 2169 3072 
Q 1681 3072 1420 2755 
Q 1159 2438 1159 1844 
L 1159 0 
L 581 0 
L 581 3500 
L 1159 3500 
L 1159 2956 
Q 1341 3275 1631 3429 
Q 1922 3584 2338 3584 
Q 2397 3584 2469 3576 
Q 2541 3569 2628 3553 
L 2631 2963 
z
" transform="scale(0.015625)"/>
      <path id="DejaVuSans-2d" d="M 313 2009 
L 1997 2009 
L 1997 1497 
L 313 1497 
L 313 2009 
z
" transform="scale(0.015625)"/>
      <path id="DejaVuSans-4b" d="M 628 4666 
L 1259 4666 
L 1259 2694 
L 3353 4666 
L 4166 4666 
L 1850 2491 
L 4331 0 
L 3500 0 
L 1259 2247 
L 1259 0 
L 628 0 
L 628 4666 
z
" transform="scale(0.015625)"/>
      <path id="DejaVuSans-62" d="M 3116 1747 
Q 3116 2381 2855 2742 
Q 2594 3103 2138 3103 
Q 1681 3103 1420 2742 
Q 1159 2381 1159 1747 
Q 1159 1113 1420 752 
Q 1681 391 2138 391 
Q 2594 391 2855 752 
Q 3116 1113 3116 1747 
z
M 1159 2969 
Q 1341 3281 1617 3432 
Q 1894 3584 2278 3584 
Q 2916 3584 3314 3078 
Q 3713 2572 3713 1747 
Q 3713 922 3314 415 
Q 2916 -91 2278 -91 
Q 1894 -91 1617 61 
Q 1341 213 1159 525 
L 1159 0 
L 581 0 
L 581 4863 
L 1159 4863 
L 1159 2969 
z
" transform="scale(0.015625)"/>
      <path id="DejaVuSans-68" d="M 3513 2113 
L 3513 0 
L 2938 0 
L 2938 2094 
Q 2938 2591 2744 2837 
Q 2550 3084 2163 3084 
Q 1697 3084 1428 2787 
Q 1159 2491 1159 1978 
L 1159 0 
L 581 0 
L 581 4863 
L 1159 4863 
L 1159 2956 
Q 1366 3272 1645 3428 
Q 1925 3584 2291 3584 
Q 2894 3584 3203 3211 
Q 3513 2838 3513 2113 
z
" transform="scale(0.015625)"/>
      <path id="DejaVuSans-56" d="M 1831 0 
L 50 4666 
L 709 4666 
L 2188 738 
L 3669 4666 
L 4325 4666 
L 2547 0 
L 1831 0 
z
" transform="scale(0.015625)"/>
      <path id="DejaVuSans-bd" d="M 488 2431 
L 1125 2431 
L 1125 4341 
L 428 4213 
L 428 4575 
L 1147 4697 
L 1575 4697 
L 1575 2431 
L 2216 2431 
L 2216 2088 
L 488 2088 
L 488 2431 
z
M 4470 332 
L 5795 332 
L 5795 -24 
L 3926 -24 
L 3926 319 
Q 4032 416 4229 591 
Q 5304 1544 5304 1838 
Q 5304 2044 5141 2170 
Q 4979 2297 4713 2297 
Q 4551 2297 4360 2242 
Q 4170 2188 3945 2079 
L 3945 2463 
Q 4185 2551 4393 2594 
Q 4601 2638 4779 2638 
Q 5232 2638 5504 2432 
Q 5776 2226 5776 1888 
Q 5776 1454 4741 566 
Q 4566 416 4470 332 
z
M 4309 4750 
L 4809 4750 
L 1896 -91 
L 1396 -91 
L 4309 4750 
z
" transform="scale(0.015625)"/>
      <path id="DejaVuSans-47" d="M 3809 666 
L 3809 1919 
L 2778 1919 
L 2778 2438 
L 4434 2438 
L 4434 434 
Q 4069 175 3628 42 
Q 3188 -91 2688 -91 
Q 1594 -91 976 548 
Q 359 1188 359 2328 
Q 359 3472 976 4111 
Q 1594 4750 2688 4750 
Q 3144 4750 3555 4637 
Q 3966 4525 4313 4306 
L 4313 3634 
Q 3963 3931 3569 4081 
Q 3175 4231 2741 4231 
Q 1884 4231 1454 3753 
Q 1025 3275 1025 2328 
Q 1025 1384 1454 906 
Q 1884 428 2741 428 
Q 3075 428 3337 486 
Q 3600 544 3809 666 
z
" transform="scale(0.015625)"/>
      <path id="DejaVuSans-50" d="M 1259 4147 
L 1259 2394 
L 2053 2394 
Q 2494 2394 2734 2622 
Q 2975 2850 2975 3272 
Q 2975 3691 2734 3919 
Q 2494 4147 2053 4147 
L 1259 4147 
z
M 628 4666 
L 2053 4666 
Q 2838 4666 3239 4311 
Q 3641 3956 3641 3272 
Q 3641 2581 3239 2228 
Q 2838 1875 2053 1875 
L 1259 1875 
L 1259 0 
L 628 0 
L 628 4666 
z
" transform="scale(0.015625)"/>
      <path id="DejaVuSans-61" d="M 2194 1759 
Q 1497 1759 1228 1600 
Q 959 1441 959 1056 
Q 959 750 1161 570 
Q 1363 391 1709 391 
Q 2188 391 2477 730 
Q 2766 1069 2766 1631 
L 2766 1759 
L 2194 1759 
z
M 3341 1997 
L 3341 0 
L 2766 0 
L 2766 531 
Q 2569 213 2275 61 
Q 1981 -91 1556 -91 
Q 1019 -91 701 211 
Q 384 513 384 1019 
Q 384 1609 779 1909 
Q 1175 2209 1959 2209 
L 2766 2209 
L 2766 2266 
Q 2766 2663 2505 2880 
Q 2244 3097 1772 3097 
Q 1472 3097 1187 3025 
Q 903 2953 641 2809 
L 641 3341 
Q 956 3463 1253 3523 
Q 1550 3584 1831 3584 
Q 2591 3584 2966 3190 
Q 3341 2797 3341 1997 
z
" transform="scale(0.015625)"/>
      <path id="DejaVuSans-6d" d="M 3328 2828 
Q 3544 3216 3844 3400 
Q 4144 3584 4550 3584 
Q 5097 3584 5394 3201 
Q 5691 2819 5691 2113 
L 5691 0 
L 5113 0 
L 5113 2094 
Q 5113 2597 4934 2840 
Q 4756 3084 4391 3084 
Q 3944 3084 3684 2787 
Q 3425 2491 3425 1978 
L 3425 0 
L 2847 0 
L 2847 2094 
Q 2847 2600 2669 2842 
Q 2491 3084 2119 3084 
Q 1678 3084 1418 2786 
Q 1159 2488 1159 1978 
L 1159 0 
L 581 0 
L 581 3500 
L 1159 3500 
L 1159 2956 
Q 1356 3278 1631 3431 
Q 1906 3584 2284 3584 
Q 2666 3584 2933 3390 
Q 3200 3197 3328 2828 
z
" transform="scale(0.015625)"/>
      <path id="DejaVuSans-66" d="M 2375 4863 
L 2375 4384 
L 1825 4384 
Q 1516 4384 1395 4259 
Q 1275 4134 1275 3809 
L 1275 3500 
L 2222 3500 
L 2222 3053 
L 1275 3053 
L 1275 0 
L 697 0 
L 697 3053 
L 147 3053 
L 147 3500 
L 697 3500 
L 697 3744 
Q 697 4328 969 4595 
Q 1241 4863 1831 4863 
L 2375 4863 
z
" transform="scale(0.015625)"/>
      <path id="DejaVuSans-6b" d="M 581 4863 
L 1159 4863 
L 1159 1991 
L 2875 3500 
L 3609 3500 
L 1753 1863 
L 3688 0 
L 2938 0 
L 1159 1709 
L 1159 0 
L 581 0 
L 581 4863 
z
" transform="scale(0.015625)"/>
     </defs>
     <use xlink:href="#DejaVuSans-42"/>
     <use xlink:href="#DejaVuSans-72" transform="translate(68.603516 0)"/>
     <use xlink:href="#DejaVuSans-6f" transform="translate(107.466797 0)"/>
     <use xlink:href="#DejaVuSans-6e" transform="translate(168.648438 0)"/>
     <use xlink:href="#DejaVuSans-2d" transform="translate(232.027344 0)"/>
     <use xlink:href="#DejaVuSans-4b" transform="translate(268.111328 0)"/>
     <use xlink:href="#DejaVuSans-65" transform="translate(328.6875 0)"/>
     <use xlink:href="#DejaVuSans-72" transform="translate(390.210938 0)"/>
     <use xlink:href="#DejaVuSans-62" transform="translate(431.324219 0)"/>
     <use xlink:href="#DejaVuSans-6f" transform="translate(494.800781 0)"/>
     <use xlink:href="#DejaVuSans-73" transform="translate(555.982422 0)"/>
     <use xlink:href="#DejaVuSans-63" transform="translate(608.082031 0)"/>
     <use xlink:href="#DejaVuSans-68" transform="translate(663.0625 0)"/>
     <use xlink:href="#DejaVuSans-20" transform="translate(726.441406 0)"/>
     <use xlink:href="#DejaVuSans-56" transform="translate(758.228516 0)"/>
     <use xlink:href="#DejaVuSans-65" transform="translate(818.886719 0)"/>
     <use xlink:href="#DejaVuSans-72" transform="translate(880.410156 0)"/>
     <use xlink:href="#DejaVuSans-33" transform="translate(921.523438 0)"/>
     <use xlink:href="#DejaVuSans-bd" transform="translate(985.146484 0)"/>
     <use xlink:href="#DejaVuSans-2d" transform="translate(1082.070312 0)"/>
     <use xlink:href="#DejaVuSans-47" transform="translate(1121.779297 0)"/>
     <use xlink:href="#DejaVuSans-50" transform="translate(1199.269531 0)"/>
     <use xlink:href="#DejaVuSans-20" transform="translate(1259.572266 0)"/>
     <use xlink:href="#DejaVuSans-6f" transform="translate(1291.359375 0)"/>
     <use xlink:href="#DejaVuSans-6e" transform="translate(1352.541016 0)"/>
     <use xlink:href="#DejaVuSans-20" transform="translate(1415.919922 0)"/>
     <use xlink:href="#DejaVuSans-61" transform="translate(1447.707031 0)"/>
     <use xlink:href="#DejaVuSans-20" transform="translate(1508.986328 0)"/>
     <use xlink:href="#DejaVuSans-72" transform="translate(1540.773438 0)"/>
     <use xlink:href="#DejaVuSans-61" transform="translate(1581.886719 0)"/>
     <use xlink:href="#DejaVuSans-6e" transform="translate(1643.166016 0)"/>
     <use xlink:href="#DejaVuSans-64" transform="translate(1706.544922 0)"/>
     <use xlink:href="#DejaVuSans-6f" transform="translate(1770.021484 0)"/>
     <use xlink:href="#DejaVuSans-6d" transform="translate(1831.203125 0)"/>
     <use xlink:href="#DejaVuSans-20" transform="translate(1928.615234 0)"/>
     <use xlink:href="#DejaVuSans-67" transform="translate(1960.402344 0)"/>
     <use xlink:href="#DejaVuSans-72" transform="translate(2023.878906 0)"/>
     <use xlink:href="#DejaVuSans-61" transform="translate(2064.992188 0)"/>
     <use xlink:href="#DejaVuSans-70" transform="translate(2126.271484 0)"/>
     <use xlink:href="#DejaVuSans-68" transform="translate(2189.748047 0)"/>
     <use xlink:href="#DejaVuSans-20" transform="translate(2253.126953 0)"/>
     <use xlink:href="#DejaVuSans-6f" transform="translate(2284.914062 0)"/>
     <use xlink:href="#DejaVuSans-66" transform="translate(2346.095703 0)"/>
     <use xlink:href="#DejaVuSans-20" transform="translate(2381.300781 0)"/>
     <use xlink:href="#DejaVuSans-6f" transform="translate(2413.087891 0)"/>
     <use xlink:href="#DejaVuSans-72" transform="translate(2474.269531 0)"/>
     <use xlink:href="#DejaVuSans-64" transform="translate(2513.632812 0)"/>
     <use xlink:href="#DejaVuSans-65" transform="translate(2577.109375 0)"/>
     <use xlink:href="#DejaVuSans-72" transform="translate(2638.632812 0)"/>
     <use xlink:href="#DejaVuSans-20" transform="translate(2679.746094 0)"/>
     <use xlink:href="#DejaVuSans-31" transform="translate(2711.533203 0)"/>
     <use xlink:href="#DejaVuSans-30" transform="translate(2775.15625 0)"/>
     <use xlink:href="#DejaVuSans-6b" transform="translate(2838.779297 0)"/>
    </g>
   </g>
   <g id="legend_1">
    <g id="patch_7">
     <path d="M 54.72 122.94875 
L 121.3825 122.94875 
Q 123.3825 122.94875 123.3825 120.94875 
L 123.3825 33.88 
Q 123.3825 31.88 121.3825 31.88 
L 54.72 31.88 
Q 52.72 31.88 52.72 33.88 
L 52.72 120.94875 
Q 52.72 122.94875 54.72 122.94875 
z
" style="fill: #ffffff; opacity: 0.8; stroke: #cccccc; stroke-linejoin: miter"/>
    </g>
    <g id="LineCollection_7">
     <path d="M 66.72 44.978438 
L 66.72 34.978438 
" style="fill: none; stroke: #000099; stroke-width: 1.5"/>
    </g>
    <g id="line2d_32">
     <g>
      <use xlink:href="#ma91f551ce1" x="66.72" y="44.978438" style="fill: #000099; stroke: #000099"/>
     </g>
    </g>
    <g id="line2d_33">
     <g>
      <use xlink:href="#ma91f551ce1" x="66.72" y="34.978438" style="fill: #000099; stroke: #000099"/>
     </g>
    </g>
    <g id="line2d_34">
     <path d="M 56.72 39.978438 
L 76.72 39.978438 
" style="fill: none; stroke: #000099; stroke-width: 1.5; stroke-linecap: square"/>
    </g>
    <g id="line2d_35"/>
    <g id="text_17">
     <!-- Python -->
     <g transform="translate(84.72 43.478438) scale(0.1 -0.1)">
      <defs>
       <path id="DejaVuSans-79" d="M 2059 -325 
Q 1816 -950 1584 -1140 
Q 1353 -1331 966 -1331 
L 506 -1331 
L 506 -850 
L 844 -850 
Q 1081 -850 1212 -737 
Q 1344 -625 1503 -206 
L 1606 56 
L 191 3500 
L 800 3500 
L 1894 763 
L 2988 3500 
L 3597 3500 
L 2059 -325 
z
" transform="scale(0.015625)"/>
      </defs>
      <use xlink:href="#DejaVuSans-50"/>
      <use xlink:href="#DejaVuSans-79" transform="translate(60.302734 0)"/>
      <use xlink:href="#DejaVuSans-74" transform="translate(119.482422 0)"/>
      <use xlink:href="#DejaVuSans-68" transform="translate(158.691406 0)"/>
      <use xlink:href="#DejaVuSans-6f" transform="translate(222.070312 0)"/>
      <use xlink:href="#DejaVuSans-6e" transform="translate(283.251953 0)"/>
     </g>
    </g>
    <g id="LineCollection_8">
     <path d="M 66.72 59.656563 
L 66.72 49.656563 
" style="fill: none; stroke: #009933; stroke-width: 1.5"/>
    </g>
    <g id="line2d_36">
     <g>
      <use xlink:href="#m567d63a80a" x="66.72" y="59.656563" style="fill: #009933; stroke: #009933"/>
     </g>
    </g>
    <g id="line2d_37">
     <g>
      <use xlink:href="#m567d63a80a" x="66.72" y="49.656563" style="fill: #009933; stroke: #009933"/>
     </g>
    </g>
    <g id="line2d_38">
     <path d="M 56.72 54.656563 
L 76.72 54.656563 
" style="fill: none; stroke: #009933; stroke-width: 1.5; stroke-linecap: square"/>
    </g>
    <g id="line2d_39"/>
    <g id="text_18">
     <!-- Java -->
     <g transform="translate(84.72 58.156563) scale(0.1 -0.1)">
      <defs>
       <path id="DejaVuSans-4a" d="M 628 4666 
L 1259 4666 
L 1259 325 
Q 1259 -519 939 -900 
Q 619 -1281 -91 -1281 
L -331 -1281 
L -331 -750 
L -134 -750 
Q 284 -750 456 -515 
Q 628 -281 628 325 
L 628 4666 
z
" transform="scale(0.015625)"/>
       <path id="DejaVuSans-76" d="M 191 3500 
L 800 3500 
L 1894 563 
L 2988 3500 
L 3597 3500 
L 2284 0 
L 1503 0 
L 191 3500 
z
" transform="scale(0.015625)"/>
      </defs>
      <use xlink:href="#DejaVuSans-4a"/>
      <use xlink:href="#DejaVuSans-61" transform="translate(29.492188 0)"/>
      <use xlink:href="#DejaVuSans-76" transform="translate(90.771484 0)"/>
      <use xlink:href="#DejaVuSans-61" transform="translate(149.951172 0)"/>
     </g>
    </g>
    <g id="LineCollection_9">
     <path d="M 66.72 74.334688 
L 66.72 64.334688 
" style="fill: none; stroke: #0000cc; stroke-width: 1.5"/>
    </g>
    <g id="line2d_40">
     <g>
      <use xlink:href="#m71e13e22db" x="66.72" y="74.334688" style="fill: #0000cc; stroke: #0000cc"/>
     </g>
    </g>
    <g id="line2d_41">
     <g>
      <use xlink:href="#m71e13e22db" x="66.72" y="64.334688" style="fill: #0000cc; stroke: #0000cc"/>
     </g>
    </g>
    <g id="line2d_42">
     <path d="M 56.72 69.334688 
L 76.72 69.334688 
" style="fill: none; stroke: #0000cc; stroke-width: 1.5; stroke-linecap: square"/>
    </g>
    <g id="line2d_43"/>
    <g id="text_19">
     <!-- Go -->
     <g transform="translate(84.72 72.834688) scale(0.1 -0.1)">
      <use xlink:href="#DejaVuSans-47"/>
      <use xlink:href="#DejaVuSans-6f" transform="translate(77.490234 0)"/>
     </g>
    </g>
    <g id="LineCollection_10">
     <path d="M 66.72 89.012813 
L 66.72 79.012813 
" style="fill: none; stroke: #666600; stroke-width: 1.5"/>
    </g>
    <g id="line2d_44">
     <g>
      <use xlink:href="#ma612d83d5a" x="66.72" y="89.012813" style="fill: #666600; stroke: #666600"/>
     </g>
    </g>
    <g id="line2d_45">
     <g>
      <use xlink:href="#ma612d83d5a" x="66.72" y="79.012813" style="fill: #666600; stroke: #666600"/>
     </g>
    </g>
    <g id="line2d_46">
     <path d="M 56.72 84.012813 
L 76.72 84.012813 
" style="fill: none; stroke: #666600; stroke-width: 1.5; stroke-linecap: square"/>
    </g>
    <g id="line2d_47"/>
    <g id="text_20">
     <!-- C# -->
     <g transform="translate(84.72 87.512813) scale(0.1 -0.1)">
      <defs>
       <path id="DejaVuSans-43" d="M 4122 4306 
L 4122 3641 
Q 3803 3938 3442 4084 
Q 3081 4231 2675 4231 
Q 1875 4231 1450 3742 
Q 1025 3253 1025 2328 
Q 1025 1406 1450 917 
Q 1875 428 2675 428 
Q 3081 428 3442 575 
Q 3803 722 4122 1019 
L 4122 359 
Q 3791 134 3420 21 
Q 3050 -91 2638 -91 
Q 1578 -91 968 557 
Q 359 1206 359 2328 
Q 359 3453 968 4101 
Q 1578 4750 2638 4750 
Q 3056 4750 3426 4639 
Q 3797 4528 4122 4306 
z
" transform="scale(0.015625)"/>
      </defs>
      <use xlink:href="#DejaVuSans-43"/>
      <use xlink:href="#DejaVuSans-23" transform="translate(69.824219 0)"/>
     </g>
    </g>
    <g id="LineCollection_11">
     <path d="M 66.72 103.690938 
L 66.72 93.690938 
" style="fill: none; stroke: #990000; stroke-width: 1.5"/>
    </g>
    <g id="line2d_48">
     <g>
      <use xlink:href="#md9b07cde7a" x="66.72" y="103.690938" style="fill: #990000; stroke: #990000"/>
     </g>
    </g>
    <g id="line2d_49">
     <g>
      <use xlink:href="#md9b07cde7a" x="66.72" y="93.690938" style="fill: #990000; stroke: #990000"/>
     </g>
    </g>
    <g id="line2d_50">
     <path d="M 56.72 98.690938 
L 76.72 98.690938 
" style="fill: none; stroke: #990000; stroke-width: 1.5; stroke-linecap: square"/>
    </g>
    <g id="line2d_51"/>
    <g id="text_21">
     <!-- C++ -->
     <g transform="translate(84.72 102.190938) scale(0.1 -0.1)">
      <defs>
       <path id="DejaVuSans-2b" d="M 2944 4013 
L 2944 2272 
L 4684 2272 
L 4684 1741 
L 2944 1741 
L 2944 0 
L 2419 0 
L 2419 1741 
L 678 1741 
L 678 2272 
L 2419 2272 
L 2419 4013 
L 2944 4013 
z
" transform="scale(0.015625)"/>
      </defs>
      <use xlink:href="#DejaVuSans-43"/>
      <use xlink:href="#DejaVuSans-2b" transform="translate(69.824219 0)"/>
      <use xlink:href="#DejaVuSans-2b" transform="translate(153.613281 0)"/>
     </g>
    </g>
    <g id="LineCollection_12">
     <path d="M 66.72 118.369063 
L 66.72 108.369063 
" style="fill: none; stroke: #cc0033; stroke-width: 1.5"/>
    </g>
    <g id="line2d_52">
     <g>
      <use xlink:href="#md3fe7ae338" x="66.72" y="118.369063" style="fill: #cc0033; stroke: #cc0033"/>
     </g>
    </g>
    <g id="line2d_53">
     <g>
      <use xlink:href="#md3fe7ae338" x="66.72" y="108.369063" style="fill: #cc0033; stroke: #cc0033"/>
     </g>
    </g>
    <g id="line2d_54">
     <path d="M 56.72 113.369063 
L 76.72 113.369063 
" style="fill: none; stroke: #cc0033; stroke-width: 1.5; stroke-linecap: square"/>
    </g>
    <g id="line2d_55"/>
    <g id="text_22">
     <!-- Rust -->
     <g transform="translate(84.72 116.869063) scale(0.1 -0.1)">
      <defs>
       <path id="DejaVuSans-52" d="M 2841 2188 
Q 3044 2119 3236 1894 
Q 3428 1669 3622 1275 
L 4263 0 
L 3584 0 
L 2988 1197 
Q 2756 1666 2539 1819 
Q 2322 1972 1947 1972 
L 1259 1972 
L 1259 0 
L 628 0 
L 628 4666 
L 2053 4666 
Q 2853 4666 3247 4331 
Q 3641 3997 3641 3322 
Q 3641 2881 3436 2590 
Q 3231 2300 2841 2188 
z
M 1259 4147 
L 1259 2491 
L 2053 2491 
Q 2509 2491 2742 2702 
Q 2975 2913 2975 3322 
Q 2975 3731 2742 3939 
Q 2509 4147 2053 4147 
L 1259 4147 
z
" transform="scale(0.015625)"/>
       <path id="DejaVuSans-75" d="M 544 1381 
L 544 3500 
L 1119 3500 
L 1119 1403 
Q 1119 906 1312 657 
Q 1506 409 1894 409 
Q 2359 409 2629 706 
Q 2900 1003 2900 1516 
L 2900 3500 
L 3475 3500 
L 3475 0 
L 2900 0 
L 2900 538 
Q 2691 219 2414 64 
Q 2138 -91 1772 -91 
Q 1169 -91 856 284 
Q 544 659 544 1381 
z
M 1991 3584 
L 1991 3584 
z
" transform="scale(0.015625)"/>
      </defs>
      <use xlink:href="#DejaVuSans-52"/>
      <use xlink:href="#DejaVuSans-75" transform="translate(64.982422 0)"/>
      <use xlink:href="#DejaVuSans-73" transform="translate(128.361328 0)"/>
      <use xlink:href="#DejaVuSans-74" transform="translate(180.460938 0)"/>
     </g>
    </g>
   </g>
  </g>
 </g>
 <defs>
  <clipPath id="pd2621ff3a7">
   <rect x="47.72" y="26.88" width="517.48" height="363.16"/>
  </clipPath>
 </defs>
</svg>
