<?xml version="1.0" encoding="UTF-8" standalone="no"?>
<!DOCTYPE svg PUBLIC "-//W3C//DTD SVG 1.1//EN"
 "http://www.w3.org/Graphics/SVG/1.1/DTD/svg11.dtd">
<!-- Generated by graphviz version 2.49.3 (20211023.0002)
 -->
<!-- Title: G Pages: 1 -->
<svg width="466pt" height="260pt"
 viewBox="0.00 0.00 466.00 260.00" xmlns="http://www.w3.org/2000/svg" xmlns:xlink="http://www.w3.org/1999/xlink">
<g id="graph0" class="graph" transform="scale(1 1) rotate(0) translate(4 256)">
<title>G</title>
<polygon fill="white" stroke="transparent" points="-4,4 -4,-256 462,-256 462,4 -4,4"/>
<!-- a -->
<g id="node1" class="node">
<title>a</title>
<polygon fill="none" stroke="black" points="285,-252 172,-252 172,-216 285,-216 285,-252"/>
<text text-anchor="middle" x="228.5" y="-230.3" font-family="Times New Roman,serif" font-size="14.00">degeneracy order</text>
</g>
<!-- b -->
<g id="node2" class="node">
<title>b</title>
<polygon fill="none" stroke="black" points="271.5,-180 185.5,-180 185.5,-144 271.5,-144 271.5,-180"/>
<text text-anchor="middle" x="228.5" y="-158.3" font-family="Times New Roman,serif" font-size="14.00">first iteration</text>
</g>
<!-- a&#45;&gt;b -->
<g id="edge1" class="edge">
<title>a&#45;&gt;b</title>
<path fill="none" stroke="black" d="M228.5,-215.7C228.5,-207.98 228.5,-198.71 228.5,-190.11"/>
<polygon fill="black" stroke="black" points="232,-190.1 228.5,-180.1 225,-190.1 232,-190.1"/>
</g>
<!-- c -->
<g id="node3" class="node">
<title>c</title>
<polygon fill="none" stroke="black" points="220,-108 119,-108 119,-72 220,-72 220,-108"/>
<text text-anchor="middle" x="169.5" y="-86.3" font-family="Times New Roman,serif" font-size="14.00">nested iteration</text>
</g>
<!-- b&#45;&gt;c -->
<g id="edge2" class="edge">
<title>b&#45;&gt;c</title>
<path fill="none" stroke="black" d="M213.92,-143.7C206.84,-135.3 198.22,-125.07 190.45,-115.86"/>
<polygon fill="black" stroke="black" points="193.04,-113.49 183.92,-108.1 187.69,-118.01 193.04,-113.49"/>
</g>
<!-- d -->
<g id="node4" class="node">
<title>d</title>
<polygon fill="none" stroke="black" points="339,-108 238,-108 238,-72 339,-72 339,-108"/>
<text text-anchor="middle" x="288.5" y="-86.3" font-family="Times New Roman,serif" font-size="14.00">nested iteration</text>
</g>
<!-- b&#45;&gt;d -->
<g id="edge3" class="edge">
<title>b&#45;&gt;d</title>
<path fill="none" stroke="black" d="M243.33,-143.7C250.52,-135.3 259.3,-125.07 267.19,-115.86"/>
<polygon fill="black" stroke="black" points="269.99,-117.97 273.84,-108.1 264.67,-113.42 269.99,-117.97"/>
</g>
<!-- e -->
<g id="node5" class="node">
<title>e</title>
<polygon fill="none" stroke="black" points="339,-36 238,-36 238,0 339,0 339,-36"/>
<text text-anchor="middle" x="288.5" y="-14.3" font-family="Times New Roman,serif" font-size="14.00">nested iteration</text>
</g>
<!-- c&#45;&gt;e -->
<g id="edge4" class="edge">
<title>c&#45;&gt;e</title>
<path fill="none" stroke="black" d="M198.61,-71.88C214.17,-62.72 233.52,-51.34 250.28,-41.48"/>
<polygon fill="black" stroke="black" points="252.43,-44.28 259.28,-36.19 248.88,-38.24 252.43,-44.28"/>
</g>
<!-- f -->
<g id="node6" class="node">
<title>f</title>
<polygon fill="none" stroke="black" points="458,-36 357,-36 357,0 458,0 458,-36"/>
<text text-anchor="middle" x="407.5" y="-14.3" font-family="Times New Roman,serif" font-size="14.00">nested iteration</text>
</g>
<!-- c&#45;&gt;f -->
<g id="edge5" class="edge">
<title>c&#45;&gt;f</title>
<path fill="none" stroke="black" d="M220.27,-74.07C257.39,-63.15 307.9,-48.29 347.1,-36.76"/>
<polygon fill="black" stroke="black" points="348.21,-40.09 356.81,-33.91 346.23,-33.37 348.21,-40.09"/>
</g>
<!-- g -->
<g id="node7" class="node">
<title>g</title>
<polygon fill="none" stroke="black" points="101,-36 0,-36 0,0 101,0 101,-36"/>
<text text-anchor="middle" x="50.5" y="-14.3" font-family="Times New Roman,serif" font-size="14.00">nested iteration</text>
</g>
<!-- c&#45;&gt;g -->
<g id="edge6" class="edge">
<title>c&#45;&gt;g</title>
<path fill="none" stroke="black" d="M140.39,-71.88C124.83,-62.72 105.48,-51.34 88.72,-41.48"/>
<polygon fill="black" stroke="black" points="90.12,-38.24 79.72,-36.19 86.57,-44.28 90.12,-38.24"/>
</g>
<!-- h -->
<g id="node8" class="node">
<title>h</title>
<polygon fill="none" stroke="black" points="220,-36 119,-36 119,0 220,0 220,-36"/>
<text text-anchor="middle" x="169.5" y="-14.3" font-family="Times New Roman,serif" font-size="14.00">nested iteration</text>
</g>
<!-- c&#45;&gt;h -->
<g id="edge7" class="edge">
<title>c&#45;&gt;h</title>
<path fill="none" stroke="black" d="M169.5,-71.7C169.5,-63.98 169.5,-54.71 169.5,-46.11"/>
<polygon fill="black" stroke="black" points="173,-46.1 169.5,-36.1 166,-46.1 173,-46.1"/>
</g>
<!-- d&#45;&gt;e -->
<g id="edge8" class="edge">
<title>d&#45;&gt;e</title>
<path fill="none" stroke="black" d="M288.5,-71.7C288.5,-63.98 288.5,-54.71 288.5,-46.11"/>
<polygon fill="black" stroke="black" points="292,-46.1 288.5,-36.1 285,-46.1 292,-46.1"/>
</g>
<!-- d&#45;&gt;f -->
<g id="edge9" class="edge">
<title>d&#45;&gt;f</title>
<path fill="none" stroke="black" d="M317.61,-71.88C333.17,-62.72 352.52,-51.34 369.28,-41.48"/>
<polygon fill="black" stroke="black" points="371.43,-44.28 378.28,-36.19 367.88,-38.24 371.43,-44.28"/>
</g>
<!-- d&#45;&gt;g -->
<g id="edge10" class="edge">
<title>d&#45;&gt;g</title>
<path fill="none" stroke="black" d="M237.73,-74.07C200.61,-63.15 150.1,-48.29 110.9,-36.76"/>
<polygon fill="black" stroke="black" points="111.77,-33.37 101.19,-33.91 109.79,-40.09 111.77,-33.37"/>
</g>
<!-- d&#45;&gt;h -->
<g id="edge11" class="edge">
<title>d&#45;&gt;h</title>
<path fill="none" stroke="black" d="M259.39,-71.88C243.83,-62.72 224.48,-51.34 207.72,-41.48"/>
<polygon fill="black" stroke="black" points="209.12,-38.24 198.72,-36.19 205.57,-44.28 209.12,-38.24"/>
</g>
</g>
</svg>
